<?xml version="1.0" encoding="utf-8"?>
<!-- Generator: Adobe Illustrator 22.1.0, SVG Export Plug-In . SVG Version: 6.00 Build 0)  -->
<svg version="1.1" id="Layer_1" xmlns="http://www.w3.org/2000/svg" xmlns:xlink="http://www.w3.org/1999/xlink" x="0px" y="0px"
	 viewBox="0 0 251 151" style="enable-background:new 0 0 251 151;" xml:space="preserve">
<style type="text/css">
	.st0{opacity:0.1;fill:url(#SVGID_1_);enable-background:new    ;}
	.st1{opacity:0.1;fill:url(#SVGID_2_);enable-background:new    ;}
	.st2{opacity:0.5;}
	.st3{fill:#415054;}
	.st4{fill:#34484C;}
	.st5{fill:#4D646B;}
	.st6{fill:#5E767A;}
	.st7{fill:#6B8387;}
	.st8{fill:none;stroke:#364244;stroke-width:1.12;stroke-miterlimit:10;}
	.st9{fill:#5E3E21;}
	.st10{fill:#54371D;}
	.st11{fill:#783A28;}
	.st12{fill:#6D3325;}
	.st13{fill:#DCB680;}
	.st14{fill:#8F4729;}
</style>
<title>Praktikant-base</title>
<radialGradient id="SVGID_1_" cx="692.5629" cy="594.6848" r="71.73" gradientTransform="matrix(0.68 0.5427 0.3493 -0.4377 -511.1812 -32.0227)" gradientUnits="userSpaceOnUse">
	<stop  offset="0" style="stop-color:#FFFFFF;stop-opacity:0.5"/>
	<stop  offset="0.4" style="stop-color:#FFFFFF;stop-opacity:0.27"/>
	<stop  offset="1" style="stop-color:#FFFFFF;stop-opacity:0"/>
</radialGradient>
<path class="st0" d="M148.2,7.9l96.3,76.8c5,4,5.8,11.2,1.8,16.2l-46.8,58.6c-4,5-11.2,5.8-16.2,1.8L87,84.5c-5-4-5.8-11.2-1.8-16.2
	L132,9.7C136,4.7,143.2,3.9,148.2,7.9z"/>
<radialGradient id="SVGID_2_" cx="856.9489" cy="242.9426" r="71.73" gradientTransform="matrix(0.657 0.2416 0.1933 -0.5256 -425.6104 24.4298)" gradientUnits="userSpaceOnUse">
	<stop  offset="0" style="stop-color:#FFFFFF;stop-opacity:0.5"/>
	<stop  offset="0.4" style="stop-color:#FFFFFF;stop-opacity:0.27"/>
	<stop  offset="1" style="stop-color:#FFFFFF;stop-opacity:0"/>
</radialGradient>
<path class="st1" d="M155.8,42.8l91.3,33.6c5.4,2,8.2,8,6.2,13.4l-26.6,72.4c-2,5.4-8,8.2-13.4,6.2L122,134.8c-5.4-2-8.2-8-6.2-13.4
	L142.4,49C144.4,43.6,150.4,40.8,155.8,42.8z"/>
<g class="st2">
	<ellipse transform="matrix(0.615 -0.7885 0.7885 0.615 6.5713 147.1383)" class="st3" cx="154" cy="66.8" rx="8.1" ry="2.6"/>
	<ellipse transform="matrix(0.6112 -0.7915 0.7915 0.6112 2.317 170.4014)" class="st3" cx="174.6" cy="82.8" rx="5" ry="1.6"/>
	<ellipse transform="matrix(0.615 -0.7885 0.7885 0.615 -1.6821 186.2192)" class="st4" cx="189.9" cy="94.8" rx="2.8" ry="0.9"/>
	<path class="st5" d="M189.1,94.3c1-1.2,2.1-2,2.4-1.7L176,79.1l-4.8,6.1l16.9,11.8C187.7,96.8,188.2,95.5,189.1,94.3z"/>
	<path class="st6" d="M174.1,82.5c1.7-2.2,3.6-3.5,4.4-3l-27.6-23.9l-8.5,10.8l29.9,21C171.6,86.9,172.4,84.7,174.1,82.5z"/>
	<path class="st7" d="M149,73.2l-38.1-25.9l-0.2-0.1c-1.6-1.2,0.2-6.1,4-11s8.1-7.8,9.6-6.6l0.2,0.1L159,60.4
		c-1.1-0.9-4.3,1.3-7,4.8S147.8,72.4,149,73.2z"/>
</g>
<line class="st8" x1="158.3" y1="77.8" x2="158.3" y2="141.4"/>
<line class="st8" x1="158.3" y1="77.8" x2="140.7" y2="141.4"/>
<line class="st8" x1="158.3" y1="77.8" x2="176" y2="141.4"/>
<path class="st9" d="M200.8,135.8c0.1-0.4-3.3-0.4-3.3-0.4c-0.6,0.8-0.9,1.3-0.8,2c-0.5,0-1,0-1.4,0c-2.9,0.2-5.2,1.6-5.1,3.1
	c0.1,1.1,2.7,0.7,5.3,0.5c1.3-0.1,2.6-0.1,3.6-0.1l0,0l1.7-0.1c0,0,0.6-0.6-0.6-2.8C199.9,137.6,200.7,136.3,200.8,135.8z"/>
<path class="st10" d="M189.8,136.4c0.1-0.4-5.1-1-5.1-1c0.2,0.8,0.5,1.5,0.8,2.2c-0.5-0.1-0.9-0.2-1.4-0.2c-2.9-0.1-5.3,1-5.4,2.5
	c-0.1,1.1,2.6,1,5.2,1.1c1.3,0,2.6,0.2,3.6,0.2l0,0l1.7,0.1c0,0,0.7-0.6-0.2-2.9C188.8,138.1,189.7,136.9,189.8,136.4z"/>
<path class="st9" d="M173.2,98c-1.4-2.3-2.3-4.5-3.4-5s-2.1,0-2,1.7s-0.5,3.8,0,4.4c0.6,0.8,1.8,2.2,2.6,2.1
	c1.3-0.6,2.5-1.3,3.6-2.1L173.2,98z"/>
<path class="st11" d="M189.4,115.3c0,0.6-0.2,0.8-0.4,0.9c-0.2,0.1-0.3,0.2-0.5,0.3c-0.3,0.2-0.7,0.3-1.1,0.3
	c-0.7,0.1-1.4,0-2.1-0.2c-1.2-0.4-2.4-1-3.6-1.7c-2.1-1.3-4.1-2.8-5.9-4.5c-1.8-1.6-3.4-3.4-4.8-5.3c-0.7-1-1.4-2-2-3
	c-0.4-0.5-0.6-1-0.8-1.6c-0.1-0.3-0.2-0.7-0.2-1c0-0.2,0-0.4,0.1-0.6l0.1-0.3c0-0.1,0.1-0.2,0.7-0.7l2.2-1.2
	c0.7-0.3,0.8-0.3,0.9-0.3h0.4c0.2,0,0.3,0.1,0.5,0.2c0.2,0.2,0.5,0.3,0.7,0.5c0.4,0.4,0.7,0.8,1,1.3c0.6,0.9,1.2,1.8,1.9,2.6
	c1.3,1.7,2.5,3.5,3.8,5.2c1.3,1.7,2.7,3.2,4.2,4.7c0.7,0.7,1.5,1.3,2.3,1.8c0.2,0.1,0.4,0.2,0.6,0.3l0.5,0.4
	c0.2,0.2,0.4,0.3,0.6,0.5c0.1,0.1,0.2,0.2,0.3,0.3c0.1,0.1,0.2,0.3,0.5,0.8L189.4,115.3z"/>
<path class="st12" d="M200.3,124.5c0.7,0.3,1.3,0.8,1.7,1.5c0.2,0.5,0.3,1.1,0.5,1.6c0.3,1.1,0.6,2.1,0.8,3.2s0.4,2.1,0.6,3.2
	l0.2,1.6c0.1,0.3,0.1,0.5,0.1,0.8c0,0.3-0.2,0.6-0.7,0.9l-10.4,0.7c-0.5-0.2-0.7-0.5-0.8-0.8c0-0.3,0-0.5,0-0.8v-1.6
	c0-1.1,0-2.1,0.1-3.2c0.1-1.1,0.2-2.1,0.4-3.2c0.1-0.5,0.2-1.1,0.3-1.6c0.3-0.7,0.8-1.3,1.4-1.7L200.3,124.5z"/>
<path class="st11" d="M190.6,124.9c0.7,0.4,1.2,1,1.4,1.7c0.1,0.5,0.2,1.1,0.3,1.6c0.2,1.1,0.3,2.1,0.4,3.2s0.1,2.1,0.1,3.2v1.6
	c0,0.3,0,0.5,0,0.8c-0.1,0.4-0.4,0.6-0.8,0.8l-10.3-0.6c-0.5-0.3-0.7-0.6-0.7-0.9c0-0.3,0-0.5,0.1-0.8l0.2-1.6
	c0.1-1.1,0.3-2.1,0.5-3.2s0.5-2.1,0.8-3.2c0.2-0.5,0.3-1.1,0.5-1.6c0.4-0.7,0.9-1.2,1.6-1.5L190.6,124.9z"/>
<path class="st13" d="M187.7,116.5c-0.7-1.3-0.3-3.3-0.9-5.4c-0.9-2.8,0.2-5-0.4-4.1s-1.6,0.6-1.5,0.5s0.1,0.3,1-1s-0.1-3.3,0.7-6.4
	c0.3-1.1,0.6-2.2,1.1-3.2c-0.4,0.3-0.7,0.5-1,0.9c4-8.9,10.2-10.3,10.8-10.2c-0.5-0.3-1-0.5-1.6-0.5c1.5-0.9,3.3-0.9,4.7,0
	c-0.1-0.6-0.4-1-0.9-1.3c1.3-0.4,2.8-0.2,3.9,0.7c0.4,0.4,0.6,0.9,0.5,1.5c0.5-1.2,2-1.8,3.2-1.3c0,0,0,0,0,0l0.3,0.1
	c-2.7,1.5-2,1.4-2,1.5s2.1,0,3.4,1c-0.4-0.1-0.8-0.1-1.1,0.1c1.6,0.6,3.4,1.1,4.5,4.8c-0.6-0.5-1.3-0.9-2.1-1.1
	c1.9,3.4,2.1,7.4,0.6,11c-0.1-0.3-0.6-1.9-0.8-1.9c0.3,1.2,1,5.5-7,11.9c0.3-0.4,0.8-1.7,0.6-1.8c-0.3,1-2.7,2.6-6.5,2.5
	C191.8,115,189.3,115.3,187.7,116.5z"/>
<path class="st14" d="M179.6,124.5L179,128c-0.6,3.4,5.3,4.9,12.8,6.4c6.5,1.2,14,2.9,14.9-1.9l0,0c3.2-12.4,1.6-23.5-9.2-25.5l0,0
	c-10.8-2-15,4.9-17.1,13.4c0,0-0.1,0.1-0.1,0.2l-0.1,0.5C180,122.1,179.8,123.2,179.6,124.5z"/>
<path class="st14" d="M190.4,98.1c-2.7,6.1,0,13.2,6.1,16c6.1,2.7,13.2,0,16-6.1c2.7-6.1,0-13.2-6.1-16c0,0,0,0,0,0l0,0
	C200.3,89.3,193.1,92,190.4,98.1z"/>
</svg>
