<svg width="352" height="120" viewBox="0 0 352 120" xmlns="http://www.w3.org/2000/svg">
<path d="M35.75 93.0918H44.9167V94.91H37.5833V99.0918H44.3667V100.91H37.5833V105.455H45.2833V107.274H35.75V93.0918ZM53.7167 93.0918H55.7333V105.455H62.3333V107.274H53.9V93.0918H53.7167ZM71.6833 93.0918V101.819C71.6833 102.183 71.6833 102.728 71.8667 103.274C72.05 103.819 72.2333 104.183 72.4167 104.546C72.7833 104.91 73.15 105.274 73.5167 105.455C73.8833 105.637 74.6167 105.819 75.1667 105.819C75.7167 105.819 76.45 105.637 76.8167 105.455C77.1833 105.274 77.7333 104.91 77.9167 104.546C78.1 104.183 78.4667 103.637 78.4667 103.274C78.8333 102.728 78.8333 102.183 78.8333 101.819V93.0918H80.85V102.001C80.85 102.91 80.6667 103.637 80.4833 104.183C80.1167 104.91 79.75 105.455 79.3833 106.001C78.8333 106.546 78.2833 106.91 77.55 107.092C76.8167 107.274 76.0833 107.455 75.35 107.455C74.6167 107.455 73.8833 107.274 73.15 107.092C72.4167 106.91 71.8667 106.365 71.3167 106.001C70.7667 105.455 70.4 104.91 70.2167 104.183C70.0333 103.455 69.6667 102.91 69.6667 102.183V93.2736H71.6833V93.0918ZM101.383 93.0918H103.4V107.274H101.383V93.0918ZM112.75 93.0918H114.767V105.455H121.367V107.274H112.933V93.0918H112.75ZM128.7 93.0918H131.633L136.217 103.819L140.8 93.0918H143.733V107.274H141.717V95.6372L136.767 107.274H135.483L130.717 95.6372V107.274H128.7V93.0918ZM157.483 93.0918H159.317L165.367 107.274H163.167L161.7 103.819H154.917L153.45 107.274H151.25L157.483 93.0918ZM160.783 102.183L158.033 95.6372L155.283 102.183H160.783ZM183.883 93.0918H188.833C189.933 93.0918 190.667 93.2736 191.4 93.4554C192.133 93.6373 192.867 94.0009 193.417 94.3645C193.967 94.7282 194.517 95.0918 194.883 95.6372C195.25 96.1827 195.617 96.5463 195.8 97.0918C195.983 97.6373 196.167 98.1827 196.35 98.7282C196.533 99.2736 196.533 99.6372 196.533 100.183C196.533 101.092 196.35 102.001 195.983 102.728C195.617 103.637 195.067 104.365 194.517 104.91C193.783 105.637 193.05 106.183 192.133 106.546C191.217 106.91 190.117 107.092 188.833 107.092H184.25V93.0918H183.883ZM185.9 105.455H188.283C189.017 105.455 189.933 105.274 190.667 105.092C191.4 104.91 191.95 104.546 192.683 104.183C193.417 103.819 193.6 103.274 193.967 102.546C194.333 101.819 194.517 101.092 194.517 100.183C194.517 99.8191 194.517 99.2736 194.333 98.5463C194.15 97.8191 193.967 97.2736 193.417 96.7282C193.05 96.1827 192.5 95.6373 191.767 95.2736C191.033 94.91 190.117 94.7282 189.017 94.7282H186.083V105.455H185.9ZM204.967 93.0918H206.983V107.274H204.967V93.0918ZM216.333 93.0918H225.5V94.91H218.167V99.0918H224.95V100.91H218.167V105.455H225.867V107.274H216.333V93.0918ZM234.483 93.0918H243.65V94.91H236.317V99.0918H243.1V100.91H236.317V105.455H244.017V107.274H234.483V93.0918ZM252.083 93.0918H257.033C258.133 93.0918 258.867 93.2736 259.6 93.4554C260.333 93.6373 261.067 94.0009 261.617 94.3645C262.167 94.7282 262.717 95.0918 263.083 95.6372C263.45 96.1827 263.817 96.5463 264 97.0918C264.183 97.6373 264.367 98.1827 264.55 98.7282C264.733 99.2736 264.733 99.6372 264.733 100.183C264.733 101.092 264.55 102.001 264.183 102.728C263.817 103.637 263.267 104.365 262.717 104.91C261.983 105.637 261.25 106.183 260.333 106.546C259.417 106.91 258.317 107.092 257.033 107.092H252.45V93.0918H252.083ZM254.1 105.455H256.483C257.217 105.455 258.133 105.274 258.867 105.092C259.6 104.91 260.15 104.546 260.883 104.183C261.433 103.819 261.8 103.274 262.167 102.546C262.533 101.819 262.717 101.092 262.717 100.183C262.717 99.8191 262.717 99.2736 262.533 98.5463C262.35 97.8191 262.167 97.2736 261.617 96.7282C261.25 96.1827 260.7 95.6373 259.967 95.2736C259.233 94.91 258.317 94.7282 257.217 94.7282H254.283V105.455H254.1ZM273.167 93.0918H275.183V107.274H273.167V93.0918ZM287.467 94.91H282.883V93.0918H294.067V94.91H289.483V107.274H287.467V94.91ZM304.517 93.0918H306.35L312.4 107.274H310.2L308.733 103.819H301.95L300.483 107.274H298.283L304.517 93.0918ZM308 102.183L305.25 95.6372L302.5 102.183H308Z" fill="white"/>
<path d="M236.867 37.0914C237.783 34.7277 239.067 32.7277 240.533 31.0914C242.55 28.9095 245.3 27.8186 248.417 27.8186C249.517 27.8186 250.433 28.0004 251.167 28.5459C251.9 29.0914 252.083 29.6368 252.083 30.0004C252.083 30.5459 251.717 30.7277 251.167 30.5459C250.983 30.5459 250.617 30.5459 250.25 30.5459C248.05 30.5459 246.033 31.455 244.383 33.455C242.733 35.455 241.45 37.8186 240.533 40.5459C239.617 43.2732 239.25 46.0004 239.25 48.3641C239.25 50.9095 239.8 52.5459 240.717 53.2732C243.467 50.7277 247.317 44.0004 252.267 33.0914C252.633 32.3641 253.183 32.0004 254.283 32.0004C255.2 32.0004 256.117 32.3641 256.85 33.0914C257.583 33.8186 257.95 34.9095 257.767 36.1823C257.033 47.8186 255.567 57.8186 253.367 66.3641C251.167 74.7277 247.5 79.0913 242.367 79.0913C240.533 78.9095 239.067 78.3641 237.783 77.455C236.5 76.3641 235.767 75.2732 235.767 74.0004C235.767 73.2732 235.95 72.7277 236.317 72.3641C236.683 72.0004 237.05 71.8186 237.417 71.8186C237.783 71.8186 238.15 72.0004 238.333 72.1823C238.517 72.5459 238.7 72.9095 238.7 73.6368C238.7 74.5459 239.067 75.2732 239.617 75.8186C240.167 76.3641 241.083 76.5459 242.367 76.5459C244.567 76.5459 246.217 74.7277 247.683 70.9095C249.15 67.0913 250.25 62.5459 250.983 57.2732C251.717 52.0004 252.267 46.7277 252.45 41.6368C250.983 45.2732 249.517 48.3641 247.867 51.2732C246.217 54.0004 244.933 55.8186 243.833 56.3641C242.917 56.9095 242 57.0914 241.083 57.0914C239.8 57.0914 238.7 56.7277 237.6 56.1823C236.5 55.6368 235.767 54.7277 235.583 53.8186C235.217 52.5459 235.033 50.7277 235.033 48.5459C235.033 47.6368 235.033 46.7277 235.217 45.8186C234.3 47.2732 233.383 48.3641 232.65 49.2732C231.183 51.0914 229.717 52.5459 228.25 53.6368C227.15 54.3641 226.05 54.7277 224.767 54.7277C222.75 54.7277 221.283 53.8186 220.183 52.0004C219.817 51.2732 219.633 50.3641 219.633 48.9095C219.633 46.7277 220.183 44.1823 221.1 41.0914C222.017 38.0004 223.117 35.2732 224.033 32.7277C223.667 32.5459 223.117 32.3641 222.383 31.8186C221.65 31.455 221.1 30.9095 220.55 30.3641C220 32.0004 219.083 33.6368 218.167 35.455C218.167 35.455 218.167 35.455 218.167 35.6368C218.167 36.1823 217.983 36.7277 217.617 37.2732C215.967 40.3641 214.317 42.9095 212.483 44.9095C210.65 46.9095 208.45 48.5459 205.7 49.8186C203.867 53.455 201.667 56.3641 199.283 58.5459C196.9 60.7277 194.517 61.8186 191.95 61.8186C188.283 61.8186 185.35 60.7277 183.15 58.5459C180.95 56.3641 179.3 53.455 178.383 49.6368C175.817 47.8186 173.8 45.2732 172.333 42.0004C170.867 38.7277 170.133 35.2732 170.133 31.6368C170.133 27.6368 171.05 24.0004 172.7 20.3641C174.35 16.7277 176.917 14.0004 180.4 11.8186C183.883 9.63681 188.1 8.5459 193.05 8.5459C199.283 8.5459 203.867 10.3641 206.8 14.1823C209.733 18.0004 211.2 22.7277 211.2 28.5459C211.2 33.2732 210.283 38.3641 208.45 43.455C209.917 42.3641 211.017 41.0913 211.933 39.6368C212.117 39.2732 212.3 39.0913 212.483 38.7277C212.483 38.5459 212.667 38.3641 212.667 38.1823C213.4 37.0913 214.5 34.9095 215.783 31.8186C217.067 28.7277 217.8 26.5459 217.983 25.0914C217.8 24.7277 217.983 24.5459 218.35 24.3641C218.717 24.1823 219.083 24.0004 219.633 24.0004C220.183 24.0004 220.55 24.0004 220.917 24.1823C221.283 24.3641 221.65 24.5459 221.833 24.7277V25.455C221.833 26.9095 222.383 28.1823 223.483 28.9095C224.583 29.8186 225.683 30.3641 226.6 30.7277C227.517 31.0914 228.067 31.2732 228.25 31.455C228.433 31.6368 228.433 32.3641 228.067 33.2732C227.7 34.1823 227.333 35.8186 226.6 38.1823C225.683 40.9095 224.95 43.2732 224.4 44.9095C223.85 46.7277 223.667 48.1823 223.667 49.2732C223.667 50.7277 224.033 51.455 224.95 51.455C226.233 51.455 227.517 50.3641 229.35 48.1823C231.183 46.0004 233.017 43.0914 235.4 39.455L236.317 38.0004C236.317 37.6368 236.5 37.2732 236.867 37.0914ZM182.417 13.8186C179.483 15.8186 177.467 18.5459 176 21.6368C174.533 24.7277 173.8 28.1823 173.8 31.8186C173.8 34.1823 174.167 36.3641 174.717 38.3641C175.267 40.3641 176.183 42.3641 177.467 43.8186C177.283 40.9095 177.65 38.0004 178.2 35.2732C178.75 32.5459 179.667 30.1823 180.95 28.1823C182.233 26.1823 183.7 24.9095 185.35 24.1823C185.717 24.0004 186.083 24.0004 186.633 24.0004C187.367 24.0004 188.1 24.1823 188.65 24.3641C189.383 24.5459 189.567 24.9095 189.383 25.0914C187.367 27.6368 186.083 30.5459 184.983 33.6368C184.067 36.7277 183.517 39.8186 183.517 43.0914C183.517 45.0914 183.7 46.9095 184.067 48.5459C185.533 48.9095 186.633 49.0913 187.917 49.0913C194.517 49.0913 199.65 48.1823 203.683 46.1823C205.517 40.9095 206.433 35.6368 206.433 30.1823C206.433 24.5459 205.333 19.8186 202.95 16.1823C200.567 12.5459 197.083 10.7277 192.5 10.7277C188.65 10.9095 185.35 11.8186 182.417 13.8186ZM197.083 56.9095C198.733 55.455 200.383 53.455 201.667 50.9095C198 52.0004 193.417 52.5459 187.917 52.5459C186.817 52.5459 185.9 52.5459 185.167 52.3641C185.9 54.5459 186.817 56.1823 187.917 57.2732C189.017 58.5459 190.3 59.0913 191.767 59.0913C193.783 58.9095 195.433 58.3641 197.083 56.9095ZM282.7 31.2732C282.517 31.8186 282.517 32.3641 282.333 33.0914C281.233 39.0914 280.683 43.6368 280.683 46.7277C280.683 48.1823 280.867 49.2732 281.05 49.8186C281.233 50.3641 281.417 50.7277 281.417 51.2732C281.417 52.0004 281.233 52.5459 280.867 52.9095C280.5 53.2732 279.95 53.455 279.4 53.455C278.667 53.455 278.117 53.2732 277.567 52.7277C277.017 52.1823 276.65 51.6368 276.467 50.7277C276.283 50.0004 276.1 48.7277 276.1 47.0914C276.1 45.2732 276.283 43.455 276.467 41.6368C275.55 43.6368 274.083 45.6368 272.433 47.6368C270.783 49.8186 269.133 51.6368 267.483 53.2732C265.833 54.9095 264.733 55.8186 264.183 56.3641C263.45 56.9095 262.9 57.0914 262.35 57.0914C261.617 57.0914 261.067 56.7277 260.517 56.1823C259.967 55.6368 259.783 54.9095 259.6 54.1823C259.417 53.6368 259.417 53.0913 259.417 52.3641C259.417 49.6368 259.783 46.1823 260.7 41.6368C261.617 37.0914 262.35 34.1823 263.267 32.5459C263.633 31.2732 264.55 30.7277 265.833 30.7277C266.567 30.7277 267.117 30.9095 267.483 31.2732C268.033 31.6368 268.217 32.0004 268.033 32.1823C267.117 34.1823 266.2 37.2732 265.1 41.0914C264.183 45.0914 263.633 48.0004 263.633 50.0004C263.633 51.2732 263.817 51.8186 264.183 51.8186C265.1 51.8186 266.383 50.7277 268.217 48.7277C270.05 46.7277 272.067 44.1823 273.9 41.455C275.733 38.7277 277.017 36.3641 277.75 34.3641C278.3 32.1823 278.85 30.7277 279.4 30.0004C279.95 29.455 280.683 29.0914 281.417 29.0914C281.967 29.0914 282.333 29.2732 282.7 29.455C283.067 29.6368 283.25 29.8186 283.25 30.0004C282.883 30.5459 282.883 30.9095 282.7 31.2732Z" fill="white"/>
<path d="M134.75 41.8187C134.933 37.4551 134.933 33.2733 135.117 29.0914C135.3 22.0005 135.483 18.0005 135.85 17.0914C135.667 16.546 136.033 16.1823 136.583 15.8187C137.133 15.4551 137.867 15.2733 138.783 15.2733C139.517 15.2733 140.067 15.2733 140.617 15.4551C140.983 15.6369 141.167 16.0005 140.8 16.3642C140.617 16.7278 140.25 18.9096 139.883 22.9096C139.517 26.9096 139.15 31.6369 138.783 37.0914C140.25 30.9096 142.633 27.8187 145.933 27.6369C147.217 27.6369 148.317 28.1823 149.05 29.2733C149.783 30.546 150.333 32.1823 150.333 34.1823C150.517 36.3642 150.15 38.7278 149.417 41.2733C148.683 43.8187 147.583 45.8187 146.117 47.8187C144.65 49.6369 142.817 50.9096 140.617 51.4551C142.817 53.6369 145.2 55.4551 147.583 56.9096C149.967 58.3642 152.167 59.0914 154 58.9096C154.367 58.9096 154.55 58.9096 154.733 58.7278C155.1 58.7278 155.467 58.7278 155.65 58.9096C155.833 59.0914 156.017 59.4551 156.017 59.8187C156.017 60.3642 155.833 60.7278 155.65 61.0914C155.283 61.4551 154.917 61.8187 154.367 62.0005C154 62.1823 153.633 62.1823 153.267 62.1823C151.067 62.3642 148.683 61.4551 145.933 59.6369C143.183 57.8187 140.617 55.6369 138.233 53.0914V55.2733C138.233 57.6369 138.233 59.2733 138.233 60.1823C138.233 61.0914 138.05 61.8187 137.683 62.3642C137.317 62.9096 136.767 63.0914 136.4 63.0914C136.033 63.0914 135.667 63.0914 135.3 62.7278C134.933 62.546 134.933 62.1823 134.933 61.8187L135.117 50.9096C135.117 50.0005 135.117 49.0914 135.117 48.3642C134.383 49.4551 133.65 50.546 132.733 51.8187C130.533 54.9096 128.7 57.0914 127.417 58.3642C126.317 59.4551 125.033 60.0005 123.567 60.0005C122.467 60.0005 121.55 59.8187 120.633 59.2733C119.717 58.7278 119.167 58.0005 118.617 57.0914C118.25 56.1823 118.067 54.9096 117.883 53.0914C117.883 52.9096 117.883 52.7278 117.883 52.546C117.517 53.2733 116.967 53.8187 116.783 54.3642C115.5 56.3642 114.033 57.8187 112.567 58.9096C111.467 59.6369 110.367 60.1823 109.083 60.1823C107.067 60.3642 105.6 59.4551 104.317 57.6369C103.95 57.0914 103.583 56.0005 103.583 54.7278C103.4 52.546 103.767 50.0005 104.5 46.9096C105.233 43.8187 106.15 41.0914 107.067 38.3642C106.7 38.1823 106.15 38.0005 105.417 37.6369C104.683 37.2733 104.133 36.7278 103.583 36.1823C103.033 38.0005 102.3 39.8187 101.383 42.0005C100.467 44.0005 99.7334 45.4551 99.3668 46.3642C99.0001 46.9096 98.6334 47.2733 98.0834 47.2733C97.5334 47.2733 97.1668 47.0914 96.8001 46.9096C96.4334 46.546 96.2501 46.1823 96.2501 45.8187C96.2501 45.4551 96.2501 45.0914 96.4334 44.9096C97.1668 43.8187 98.0834 41.6369 99.1834 38.546C100.283 35.4551 101.017 33.0914 101.017 31.6369C100.833 31.4551 101.017 31.0914 101.2 30.9096C101.567 30.7278 101.933 30.546 102.483 30.546C103.033 30.546 103.4 30.546 103.767 30.7278C104.133 30.9096 104.5 31.0914 104.683 31.2733V31.6369C104.683 33.0914 105.417 34.3642 106.517 35.0914C107.617 35.8187 108.717 36.3642 109.633 36.7278C110.55 37.0914 111.1 37.2733 111.283 37.2733C111.467 37.4551 111.467 38.1823 111.283 39.0914C111.1 40.0005 110.55 41.8187 110 44.1823C109.267 47.0914 108.717 49.2733 108.167 51.0914C107.8 52.9096 107.617 54.3642 107.617 55.4551C107.617 56.9096 108.167 57.6369 109.083 57.4551C110.367 57.4551 111.65 56.1823 113.3 54.0005C114.767 52.0005 116.233 49.4551 118.067 46.1823C118.25 43.8187 118.617 41.6369 118.983 39.8187C119.35 37.8187 119.717 36.546 119.9 36.1823C120.267 35.8187 120.633 35.4551 121.367 35.4551C122.1 35.4551 122.65 35.6369 123.2 35.8187C123.75 36.1823 124.117 36.546 124.117 37.0914C124.117 37.4551 123.933 38.9096 123.383 41.6369C123.017 44.3642 122.65 46.7278 122.283 48.7278C122.1 50.7278 121.917 52.3642 122.1 53.6369C122.283 55.8187 122.833 56.7278 123.75 56.7278C124.3 56.7278 125.217 55.8187 126.683 54.1823C128.15 52.546 129.617 50.546 131.267 48.3642C132.917 46.1823 134.017 44.1823 134.75 42.7278C134.567 42.1823 134.567 42.0005 134.75 41.8187ZM104.683 10.546C104.683 11.6369 104.317 12.3642 103.583 13.0914C102.85 13.8187 102.117 14.1823 101.2 14.1823C100.833 14.1823 100.467 14.1823 100.283 14.0005C100.1 13.8187 99.9168 13.6369 99.9168 13.2733C99.9168 12.9096 99.9168 12.546 100.283 12.1823C100.467 11.4551 100.1 10.9096 99.0001 10.3642C97.9001 10.0005 96.4334 9.81871 94.4168 9.81871C92.2168 10.0005 89.6501 10.3642 86.9001 11.0914C87.2668 11.2733 87.6334 11.4551 87.6334 11.8187C87.6334 12.1823 87.4501 12.3642 87.0834 12.7278C85.6168 14.1823 84.3334 16.7278 83.0501 20.3642C81.9501 24.0005 80.8501 28.1823 79.9334 32.7278C84.1501 31.8187 87.8168 31.0914 90.9334 30.9096C92.2168 30.9096 93.1334 30.9096 93.6834 30.9096C94.2334 30.9096 94.6001 31.0914 94.9668 31.4551C95.3334 31.8187 95.5168 32.1823 95.5168 32.546C95.5168 32.9096 95.5168 33.0914 95.3334 33.4551C95.1501 33.6369 94.9668 33.8187 94.6001 33.8187C91.3001 34.0005 88.3668 34.3642 85.9834 34.7278C83.6001 35.0914 81.4001 35.8187 79.2001 36.546C78.8334 39.6369 78.4668 42.546 78.2834 45.4551C78.1001 48.3642 78.1001 50.7278 78.1001 52.7278C78.1001 53.4551 78.2834 54.3642 78.2834 55.0914C80.8501 54.3642 83.4168 54.0005 85.9834 53.8187C89.6501 53.6369 93.3168 54.0005 96.9834 54.7278C97.7168 54.9096 98.2668 55.0914 98.6334 55.4551C99.0001 55.8187 99.1834 56.1823 99.1834 56.546C99.1834 56.9096 99.0001 57.2733 98.6334 57.6369C98.2668 58.0005 97.7168 58.1823 97.1668 58.1823C96.8001 58.1823 96.6168 58.1823 96.4334 58.1823C92.9501 57.6369 89.8334 57.2733 87.2668 57.4551C84.7001 57.6369 82.3168 58.0005 79.9334 58.9096C77.5501 59.6369 74.9834 60.9096 72.0501 62.546C71.6834 62.7278 71.3168 62.9096 70.9501 62.9096C70.2168 62.9096 69.6668 62.7278 69.1168 62.1823C68.5668 61.6369 68.3834 61.0914 68.3834 60.3642C68.3834 59.6369 68.5668 59.0914 69.1168 58.7278C70.4001 58.0005 72.0501 57.0914 73.7001 56.3642C73.3334 55.2733 73.1501 53.6369 72.9668 51.6369C72.7834 48.0005 72.9668 43.4551 73.7001 38.3642C73.3334 38.546 72.9668 38.546 72.6001 38.546C72.0501 38.546 71.6834 38.3642 71.5001 38.1823C71.3168 37.8187 71.1334 37.4551 71.1334 37.0914C71.1334 36.546 71.3168 36.0005 71.5001 35.4551C71.8668 34.9096 72.2334 34.546 72.7834 34.1823H75.1668C76.0834 29.4551 77.1834 25.0914 78.4668 21.0914C79.7501 17.0914 81.2168 14.3642 82.5001 12.7278C80.1168 13.8187 77.9168 15.0914 76.2668 16.9096C74.6168 18.546 73.5168 20.546 73.1501 22.9096C73.1501 23.0914 73.1501 23.2733 73.3334 23.6369C73.3334 24.0005 73.3334 24.3642 72.9668 24.7278C72.7834 24.9096 72.4168 25.0914 72.0501 25.0914C71.6834 25.0914 71.3168 24.9096 70.9501 24.7278C70.5834 24.546 70.4001 24.1823 70.2168 23.6369C70.0334 22.7278 69.8501 22.1823 69.8501 21.8187C69.6668 18.9096 70.9501 16.1823 73.3334 13.8187C75.7168 11.4551 79.2001 9.09143 83.0501 7.63689C86.9001 6.18234 90.5668 5.09143 94.2334 4.90961C96.8001 4.7278 99.0001 5.09143 100.833 5.81871C102.667 6.54598 103.95 7.63689 104.5 9.27325C104.683 9.63689 104.683 10.0005 104.683 10.546ZM123.017 33.0914C122.283 33.0914 121.733 32.9096 121.183 32.546C120.633 32.1823 120.45 31.6369 120.45 31.0914C120.45 30.546 120.633 30.0005 121 29.4551C121.367 28.9096 121.917 28.546 122.467 28.546C123.2 28.546 123.75 28.7278 124.3 29.2733C124.85 29.8187 125.033 30.3642 125.033 31.0914C125.033 31.6369 124.85 32.1823 124.667 32.546C124.3 32.7278 123.75 33.0914 123.017 33.0914ZM140.617 36.0005C139.517 39.2733 138.783 43.4551 138.233 48.7278H138.417C140.067 48.7278 141.35 47.6369 142.633 45.8187C143.917 44.0005 144.833 41.8187 145.383 39.4551C145.933 37.0914 146.3 34.9096 146.117 33.2733C146.117 32.546 145.933 32.0005 145.75 31.6369C145.567 31.2733 145.383 31.0914 145.017 31.0914C143.183 31.0914 141.717 32.7278 140.617 36.0005Z" fill="white"/>
</svg>
