<svg id="Layer_3" data-name="Layer 3" xmlns="http://www.w3.org/2000/svg" viewBox="0 0 251 151"><defs><style>.cls-1{opacity:0.17;}.cls-2{fill:#ffdc8e;}.cls-3{fill:#4d2d54;}.cls-4{fill:#d1a7f1;}.cls-5{fill:#8190eb;}.cls-6{fill:#fbf5f9;}.cls-7{fill:#e16d90;}.cls-8{fill:#f0d9e9;}.cls-9{fill:#ff9aa5;}.cls-10{fill:#fff;}.cls-11{fill:#54371d;}.cls-12{fill:#5e3e21;}.cls-13{fill:#dcb680;}.cls-14{fill:#6d3325;}.cls-15{fill:#783a28;}.cls-16{fill:#8f4729;}.cls-17{fill:#e84c59;}.cls-18{fill:#ee7b5c;}.cls-19{fill:#f9c862;}.cls-20{fill:#062633;}.cls-21{fill:#abaaaa;}.cls-22{fill:#e1dfe0;}.cls-23{fill:none;}.cls-24{fill:#041d26;}.cls-25{fill:#6e6e6e;}.cls-26{fill:silver;}</style></defs><title>Egle</title><g class="cls-1"><path class="cls-2" d="M81.34,69.53a2.4,2.4,0,0,0,1.19-1.18,6.26,6.26,0,0,1,.72-1.44,2.88,2.88,0,0,1,1.36-.83,11.26,11.26,0,0,0,1.88-.73A3,3,0,0,0,87.69,64,5.38,5.38,0,0,0,88,62.75c.06-.36.11-.73.16-1.1a7.6,7.6,0,0,1-3.57,2.29,14.62,14.62,0,0,0-2.86.56,5.2,5.2,0,0,0-2.1,2.06q-.34.52-.66,1a1.56,1.56,0,0,0-.3,1.22C79,69.74,80.63,69.86,81.34,69.53Z"/><path class="cls-3" d="M81.58,69.94a4.24,4.24,0,0,0,1.56-1.87c.83-1.47,2-1.5,3.28-2.14,1.69-.84,2-2.41,2.2-4.16a.47.47,0,0,0-.35-.57.46.46,0,0,0-.43.12,7.56,7.56,0,0,1-3.37,2.17,18.41,18.41,0,0,0-2.85.56,6.77,6.77,0,0,0-2.88,3.06c-1.23,2.15.51,3.59,2.73,2.87.56-.18.32-1.08-.25-.89-.75.24-2.06.36-1.84-1.24a3.78,3.78,0,0,1,.66-1,5.18,5.18,0,0,1,4-2.3A8.2,8.2,0,0,0,88.46,62l-.78-.45A6.5,6.5,0,0,1,87,64.21c-.69,1.14-2,1.08-3.1,1.62-1.49.75-1.45,2.45-2.82,3.3A.47.47,0,0,0,81.58,69.94Z"/><path class="cls-4" d="M80.09,68.63c1.07-.71.64-2.13,1.45-3A2.48,2.48,0,0,1,82.81,65c.77-.21,1.57-.3,2.35-.48a5.17,5.17,0,0,0,2.18-1,2.48,2.48,0,0,0,.91-2.14,3,3,0,0,1-1.59,1.21,9.46,9.46,0,0,1-2.86.11,11.77,11.77,0,0,0-2.22.22,4.75,4.75,0,0,0-.83.19,4.26,4.26,0,0,0-.88.44,6,6,0,0,0-1.5,1.42,3.83,3.83,0,0,0-.82,2.9,1.15,1.15,0,0,0,.89,1A2.42,2.42,0,0,0,80.09,68.63Z"/><path class="cls-3" d="M80.42,69c.67-.61.65-1.1,1-1.88.86-1.94,2.71-1.75,4.46-2.31a3.58,3.58,0,0,0,2.84-3.42c0-.37-.54-.66-.8-.33-1.57,2-4.65.9-6.88,1.5a5.67,5.67,0,0,0-3.41,2.71c-1.32,2.35-.18,5.07,2.7,3.77.54-.24.07-1-.47-.8-.63.46-1.08.34-1.37-.36-.77-.56-.79-1.27,0-2.14a5,5,0,0,1,1.67-1.77,7.4,7.4,0,0,1,4-.78c1.79,0,3.25,0,4.42-1.47l-.79-.33a3.38,3.38,0,0,1-2.17,2.49,17.84,17.84,0,0,1-1.76.39,5.79,5.79,0,0,0-2.18.65c-1.24.84-.87,2.43-1.92,3.39C79.32,68.71,80,69.35,80.42,69Z"/><path class="cls-5" d="M77.08,65.08a4.13,4.13,0,0,1,1.14-1.35,8.12,8.12,0,0,1,5.11-1.49c.92.07,1.85.1,2.77.08A3,3,0,0,0,88.44,61a2,2,0,0,1-1,1.64,3.54,3.54,0,0,1-1.27.39,30,30,0,0,1-3,.33,5.85,5.85,0,0,0-2.88.79,4.15,4.15,0,0,0-1.52,2.59,4.41,4.41,0,0,1-.24,1,1,1,0,0,1-.8.63A.82.82,0,0,1,77,68,2.91,2.91,0,0,1,77.08,65.08Z"/><path class="cls-3" d="M77.48,65.35c1.83-2.88,5-2.47,7.93-2.51a4,4,0,0,0,3.43-1.54L88,60.91c-.56,2.86-5.61,1.59-7.62,2.7a3.88,3.88,0,0,0-1.48,1.5,5,5,0,0,0-.43,1l-.15.58c-.1,1.19-.38.74-.83-1.34.23-.55-.57-1-.8-.47-.48,1.1-.88,2.73.17,3.67a1.29,1.29,0,0,0,1.81,0A1.26,1.26,0,0,0,79,68.1c.54-1,.27-2.32,1.23-3.16,1.4-1.24,3.55-1,5.29-1.26s3.06-.59,3.44-2.49a.47.47,0,0,0-.85-.36c-1.49,2-5.34.72-7.52,1.31a6.28,6.28,0,0,0-3.84,2.74C76.35,65.35,77.16,65.82,77.48,65.35Z"/><path class="cls-2" d="M87.55,72.07a2.94,2.94,0,0,0,1.72-.81,6.3,6.3,0,0,1,1.24-1.18,3.78,3.78,0,0,1,1.81-.4,14.3,14.3,0,0,0,2.36-.1,3.44,3.44,0,0,0,1.77-.94,4.82,4.82,0,0,0,.76-1.14l.51-1a9.71,9.71,0,0,1-4.78,1.16,22.1,22.1,0,0,0-3.44-.31,6.25,6.25,0,0,0-3,1.37c-.37.26-.72.54-1.07.82s-.73.64-.7,1.08C84.76,71.58,86.63,72.17,87.55,72.07Z"/><path class="cls-3" d="M87.67,72.52a5.09,5.09,0,0,0,2.12-1.17,4.34,4.34,0,0,1,2.53-1.24A18.55,18.55,0,0,0,94.68,70c1.88-.38,2.64-1.71,3.44-3.33a.46.46,0,0,0-.18-.64.47.47,0,0,0-.46,0,10.1,10.1,0,0,1-5.35,1,11.57,11.57,0,0,0-2.69-.19,8.05,8.05,0,0,0-4.61,2.59c-1.63,1.92,1,3.09,2.72,3.09a.47.47,0,0,0,0-.94c-.41,0-1.49,0-1.76-.38-.89-1.13.56-1.89,1.25-2.33,1.73-1.09,3.06-1,5-.87a11.07,11.07,0,0,0,5.88-1.13l-.64-.64c-.78,1.58-1.11,2.53-3.41,3-.76.14-1.57-.07-2.34.08-1.77.32-2.39,1.94-4.14,2.34C86.84,71.75,87.09,72.65,87.67,72.52Z"/><path class="cls-4" d="M86.38,70.84c1.43-.37,1.36-1.86,2.55-2.47a3.35,3.35,0,0,1,1.65-.27c1,0,1.9.17,2.85.22A6.71,6.71,0,0,0,96.21,68a2.47,2.47,0,0,0,1.68-1.76,3.9,3.9,0,0,1-2.19.7,13.06,13.06,0,0,1-3.32-.73,16.52,16.52,0,0,0-2.61-.43,5.6,5.6,0,0,0-1-.06,4.83,4.83,0,0,0-1.14.17,7.26,7.26,0,0,0-2.14.92,3.58,3.58,0,0,0-1.8,2.53,1.15,1.15,0,0,0,.72,1.26A3.26,3.26,0,0,0,86.38,70.84Z"/><path class="cls-3" d="M86.61,71.24a5,5,0,0,0,1.54-1.31c2.39-2.08,4-.89,6.7-1.17,1.63-.17,3-.78,3.49-2.39a.46.46,0,0,0-.68-.52c-2.55,1.5-5.63-.5-8.39-.56A6.84,6.84,0,0,0,84.54,67c-2.37,2.19-1.22,4.48,1.84,4.33.59,0,.6-1,0-.93l-.66-3.14.67-.38a5.12,5.12,0,0,1,2.38-.65,14.34,14.34,0,0,1,4.72.83,5.7,5.7,0,0,0,4.64-.38l-.69-.53c-1.1,3.26-6.09,1-8.23,1.68-1.46.49-1.69,2-3.07,2.64C85.6,70.68,86,71.48,86.61,71.24Z"/><path class="cls-5" d="M84,66.56a5.17,5.17,0,0,1,1.71-1,11.34,11.34,0,0,1,6.3,0c1.06.28,2.07.7,3.16.89a3.94,3.94,0,0,0,3.06-.56,2.08,2.08,0,0,1-1.58,1.3,5.23,5.23,0,0,1-1.58,0c-1.21-.13-2.4-.33-3.6-.56a8.29,8.29,0,0,0-3.54-.08,4.42,4.42,0,0,0-2.51,2,4.54,4.54,0,0,1-.57.94,1.21,1.21,0,0,1-1.11.36.93.93,0,0,1-.68-.55A2.55,2.55,0,0,1,84,66.56Z"/><path class="cls-3" d="M84.2,67c3.41-2.4,6.72-.86,10.28-.11a5.09,5.09,0,0,0,4-.48l-.64-.63c-1.53,2.64-6.73,0-9.15.3a4.54,4.54,0,0,0-2.51,1,4.9,4.9,0,0,0-.71.73L85,68.4c-.46,1.12-.69.6-.69-1.55.4-.45-.26-1.11-.66-.66-.82.9-1.89,2.63-.75,3.77a1.6,1.6,0,0,0,2.25,0h0c1.55-1.35,2-3.06,4.52-3a44.09,44.09,0,0,1,4.42.68c1.88.25,3.5.37,4.53-1.41a.46.46,0,0,0-.18-.64.47.47,0,0,0-.46,0c-2.56,1.51-5.91-.65-8.63-.83a8.23,8.23,0,0,0-5.61,1.42C83.25,66.5,83.71,67.35,84.2,67Z"/><path class="cls-2" d="M92.93,76.22a2.94,2.94,0,0,0,1.72-.81,6.6,6.6,0,0,1,1.24-1.18,3.78,3.78,0,0,1,1.81-.4,14.3,14.3,0,0,0,2.36-.1,3.51,3.51,0,0,0,1.78-.94,5.35,5.35,0,0,0,.75-1.14c.18-.34.34-.68.51-1a9.71,9.71,0,0,1-4.78,1.16,20.93,20.93,0,0,0-3.44-.29,6.25,6.25,0,0,0-3,1.37c-.36.26-.72.54-1.06.82s-.74.64-.71,1.08C90.14,75.73,92,76.35,92.93,76.22Z"/><path class="cls-3" d="M93,76.67a5.15,5.15,0,0,0,2.12-1.14,4.23,4.23,0,0,1,2.53-1.24A18.55,18.55,0,0,0,100,74.2c1.88-.38,2.64-1.71,3.44-3.33a.46.46,0,0,0-.18-.64.47.47,0,0,0-.46,0,10,10,0,0,1-5.34,1A11.66,11.66,0,0,0,94.8,71a8.15,8.15,0,0,0-4.61,2.56c-1.63,1.92,1,3.09,2.72,3.09a.47.47,0,0,0,0-.94c-.4,0-1.48,0-1.76-.38-.89-1.13.56-1.89,1.26-2.33,1.72-1.09,3.06-1,5-.87A11.07,11.07,0,0,0,103.29,71l-.63-.64c-.79,1.58-1.12,2.53-3.41,3-.76.14-1.57-.07-2.34.08-1.78.32-2.4,1.94-4.14,2.34C92.22,75.9,92.47,76.8,93,76.67Z"/><path class="cls-4" d="M91.76,75c1.43-.37,1.36-1.86,2.56-2.47A3.31,3.31,0,0,1,96,72.25c1,0,1.9.17,2.85.22a6.71,6.71,0,0,0,2.78-.31,2.47,2.47,0,0,0,1.68-1.76,3.83,3.83,0,0,1-2.19.7,13.46,13.46,0,0,1-3.31-.75,16.65,16.65,0,0,0-2.62-.43,5.6,5.6,0,0,0-1-.06,4.78,4.78,0,0,0-1.12.19,7.26,7.26,0,0,0-2.14.92A3.59,3.59,0,0,0,89,73.52a1.15,1.15,0,0,0,.72,1.26A3.3,3.3,0,0,0,91.76,75Z"/><path class="cls-3" d="M92,75.35c.77-.35.94-.8,1.53-1.31,2.39-2.08,4-.89,6.7-1.17,1.63-.17,3-.78,3.49-2.39a.46.46,0,0,0-.68-.52c-2.55,1.46-5.64-.49-8.39-.56A6.84,6.84,0,0,0,90,71.08c-2.37,2.19-1.21,4.48,1.84,4.33a.47.47,0,0,0,0-.93l-.68-3.13.66-.38a5.08,5.08,0,0,1,2.38-.62,14.4,14.4,0,0,1,4.73.83,5.68,5.68,0,0,0,4.63-.38l-.69-.53c-1.09,3.26-6.08,1-8.23,1.68-1.45.49-1.68,2-3.06,2.64C91,74.83,91.45,75.63,92,75.35Z"/><path class="cls-5" d="M89.35,70.71a5.17,5.17,0,0,1,1.71-1,11.25,11.25,0,0,1,6.3,0c1.06.28,2.08.7,3.16.89a4,4,0,0,0,3.07-.56,2.1,2.1,0,0,1-1.59,1.3,5.23,5.23,0,0,1-1.58,0c-1.21-.13-2.4-.33-3.59-.56a8.29,8.29,0,0,0-3.54-.08,4.4,4.4,0,0,0-2.52,2,4.54,4.54,0,0,1-.57.94,1.21,1.21,0,0,1-1.11.36.89.89,0,0,1-.66-.6A2.53,2.53,0,0,1,89.35,70.71Z"/><path class="cls-3" d="M89.58,71.11c3.41-2.4,6.73-.86,10.28-.11a5.09,5.09,0,0,0,4-.48l-.63-.63c-1.54,2.64-6.73,0-9.16.3a4.54,4.54,0,0,0-2.51,1,4.41,4.41,0,0,0-.7.73l-.45.63c-.46,1.12-.69.6-.69-1.55.4-.45-.26-1.11-.66-.66-.82.9-1.88,2.63-.75,3.77a1.62,1.62,0,0,0,2.26,0c1.54-1.35,2-3.06,4.52-3a43.89,43.89,0,0,1,4.41.68c1.89.25,3.5.37,4.53-1.41a.46.46,0,0,0-.18-.64.47.47,0,0,0-.46,0c-2.56,1.51-5.91-.65-8.63-.83a8.16,8.16,0,0,0-5.65,1.44C88.63,70.65,89.09,71.46,89.58,71.11Z"/><path class="cls-2" d="M97.89,81.61a3.52,3.52,0,0,0,.88-.6c.51-.5.85-1.13,1.32-1.66,1.2-1.37,3-.72,4.55-1a4,4,0,0,0,2.39-1.7,2.48,2.48,0,0,0,.3-.49,3.21,3.21,0,0,0-.14-2.14,5.82,5.82,0,0,1,0,1.18.73.73,0,0,1-.19.33c-.1.1-.26.35-.39.42a7,7,0,0,1-3.74.43,22.09,22.09,0,0,0-3.44-.3,6.44,6.44,0,0,0-3,1.37l-1.06.82c-.71.58-1.5,1.5-1,2.47a2.1,2.1,0,0,0,1.15,1A3.19,3.19,0,0,0,97.89,81.61Z"/><path class="cls-3" d="M98.12,82c1.06-.59,1.42-1.59,2.3-2.34,1.52-1.3,3.47-.41,5.13-1.16a3.61,3.61,0,0,0,2.1-4.61c-.13-.5-1-.42-.91.12.24,3.26-4.9,1.53-6.85,1.59A7.91,7.91,0,0,0,95,77.94c-2.75,2.51-.13,5.09,3,4.12.57-.18.33-1.08-.25-.9-2.5-1.35-2.86-2.46-1.09-3.3l.68-.47c1.62-1,2.76-.84,4.57-.65a13,13,0,0,0,3.41.09c1.79-.3,2.47-1,2.34-2.81l-.92.12c1.22,4.53-3.48,3.21-5.69,4-1.55.58-2,2.25-3.41,3C97.13,81.5,97.6,82.35,98.12,82Z"/><path class="cls-4" d="M96.34,79.57c1.44-.37,1.37-1.85,2.56-2.47a3.23,3.23,0,0,1,1.65-.26c1,0,1.89.16,2.84.22s2.35.16,3.2-.52a2,2,0,0,0,.73-1.29,3.74,3.74,0,0,0-.17-1.25,3.14,3.14,0,0,1,0,.75,1.07,1.07,0,0,1-.31.67c-.5.47-1.49.28-2.1.18-.81-.14-1.6-.43-2.4-.64a16.54,16.54,0,0,0-2.61-.44c-.34,0-.67-.06-1-.06a5.42,5.42,0,0,0-1.14.18,6.67,6.67,0,0,0-2.14.92,3.58,3.58,0,0,0-1.8,2.55,1.12,1.12,0,0,0,.72,1.24A3.33,3.33,0,0,0,96.34,79.57Z"/><path class="cls-3" d="M96.58,80c1.49-.66,2.26-2.23,4-2.67,1.5-.38,3.32.53,4.9.19,1.92-.41,2.56-1.8,2.15-3.61a.47.47,0,0,0-.92.12c0,1.11-1.09,1.18-1.8,1.15a10.73,10.73,0,0,1-2-.53,15.81,15.81,0,0,0-3.13-.56,6.86,6.86,0,0,0-5.19,1.61c-2.41,2.18-1.3,4.51,1.79,4.37.6,0,.6-1,0-.93C95,77.42,94.85,76.35,96,75.77a5.58,5.58,0,0,1,1.7-.69,8.81,8.81,0,0,1,3.65.14,38.79,38.79,0,0,0,3.83.92c1.64.14,2.45-.44,2.41-2.14l-.91.12c.88,3.88-5.81,2-7.13,2.3-1.78.43-1.88,2-3.46,2.75C95.56,79.41,96,80.22,96.58,80Z"/><path class="cls-5" d="M93.93,75.29a4.85,4.85,0,0,1,1.71-1,11.11,11.11,0,0,1,6.31,0,16.91,16.91,0,0,0,3.78.89,1.12,1.12,0,0,0,1-.46,1.15,1.15,0,0,0,.2-.78,1.18,1.18,0,0,0-.28-.89c.08-.07.2,0,.27.07a1.89,1.89,0,0,1,.55,1.8c-.32,1.19-1.52,1.1-2.49,1-1.21-.13-2.41-.34-3.6-.56a8.15,8.15,0,0,0-3.51,0,4.45,4.45,0,0,0-2.51,2,4.58,4.58,0,0,1-.58.94,1.22,1.22,0,0,1-1.1.37,1,1,0,0,1-.67-.6A2.57,2.57,0,0,1,93.93,75.29Z"/><path class="cls-3" d="M94.17,75.69c2.3-1.61,5-1.51,7.65-.86,1.24.3,2.72,1.09,4,.89a1.78,1.78,0,0,0,1.56-2,1.75,1.75,0,0,0-.33-.84l-.52.69c.06,1.49-.36,2.15-1.25,2a7.39,7.39,0,0,1-1.14-.14c-.89-.12-1.76-.29-2.64-.43a10.61,10.61,0,0,0-2.92-.23,4.7,4.7,0,0,0-2.5,1,4.46,4.46,0,0,0-.71.73l-.44.64c-.46,1.12-.7.6-.7-1.56.41-.44-.25-1.1-.66-.66-.9,1-2.12,3.43-.16,4.16A1.61,1.61,0,0,0,95,78.75c.21-.16.29-.43.48-.62,1.9-1.78,2.38-2.58,5-2.34,1.74.16,5.59,1.73,7.08.12.85-.91.53-2.9-.73-3.22a.46.46,0,0,0-.57.33.47.47,0,0,0,0,.35c1.11,2-4.89.39-5.1.35a13.89,13.89,0,0,0-2.41-.27,8,8,0,0,0-5.07,1.44C93.21,75.23,93.68,76,94.17,75.69Z"/><path class="cls-2" d="M101.88,119.6a7.86,7.86,0,0,0,2.59-.38c1.64-.59,3-2,4.71-2.39,1.93-.5,3.16.6,4.76,1.63a7.3,7.3,0,0,0,3.44,1,5.12,5.12,0,0,0,2.76-.41,5.58,5.58,0,0,0,2.45-3,19.33,19.33,0,0,0,1-4.1A7.43,7.43,0,0,1,115,115.2c-1.24-.45-2.06-1.47-3.17-2.15a6.2,6.2,0,0,0-4.3-.38,14.5,14.5,0,0,0-2.35.52c-.42.14-.83.32-1.24.5a13.51,13.51,0,0,0-2.67,1.38c-.38.28-.72.62-1.12.87a2.65,2.65,0,0,0-.91,1C97.9,119.19,100.53,119.6,101.88,119.6Z"/><path class="cls-3" d="M101.88,120.07c2.45-.1,3.8-1.07,5.93-2.15,3.29-1.67,5.57,1.43,8.68,1.92,5.26.82,6.78-3.38,7.51-7.78a.47.47,0,0,0-.85-.36c-1.87,2.58-4.92,4.18-8.08,3-1.64-.64-2.67-2.13-4.42-2.54-2.56-.58-5.64.43-7.93,1.55-1.48.72-4.66,2.34-4.34,4.49.24,1.62,2.17,1.86,3.5,1.91a.47.47,0,0,0,0-.93,3.63,3.63,0,0,1-1.46-.18c-2.29-1.6.42-3,1.22-3.59a12.7,12.7,0,0,1,4-1.86c1.81-.53,4.15-.93,5.9-.08,1.2.58,2,1.68,3.23,2.18,3.53,1.38,7.14-.59,9.2-3.44l-.85-.36c-.53,3.21-1.14,7-5.25,7.2-2.53.15-3.93-1.54-6-2.39-3.52-1.41-6.48,2.38-9.93,2.52A.45.45,0,1,0,101.88,120.07Z"/><path class="cls-4" d="M100.63,117.28a6.27,6.27,0,0,0,5.07-1.22c1.29-.85,2.78-2,4.33-2.07s2.47,1.06,3.61,1.81a7.6,7.6,0,0,0,4.1,1.3,5.56,5.56,0,0,0,4.07-1.56,11.62,11.62,0,0,0,2.22-4.39c-1.71,1.49-3.75,2.72-5.88,2.51-2.84-.28-5.05-3-7.75-4.08a8.27,8.27,0,0,0-5.53-.13,13.06,13.06,0,0,0-4.11,2.16,4.5,4.5,0,0,0-1.65,3.65A1.85,1.85,0,0,0,100.63,117.28Z"/><path class="cls-3" d="M100.5,117.73a7.82,7.82,0,0,0,5.83-1.54c.77-.49,2-1.52,2.9-1.6a6.82,6.82,0,0,1,3.49,1.13,12.6,12.6,0,0,0,3.31,1.63c4.69,1.13,7.09-2.08,8.49-6,.17-.48-.45-.72-.78-.46-2.46,2-5.11,3.09-8.11,1.41-1.44-.8-2.68-1.93-4.16-2.69a9.05,9.05,0,0,0-7.55-.23c-2,.76-4.19,2-4.92,4.1-.62,1.81-.45,3.49,1.4,4.27.55.23,1-.57.47-.8-3.35-1.42.31-5,1.74-5.91a9.41,9.41,0,0,1,5.08-1.46c3.06.06,5,2.11,7.47,3.53,3.42,2,6.36.8,9.24-1.56l-.78-.45c-1.26,3.59-3.67,6.6-7.87,5.28-1.66-.53-2.81-1.94-4.41-2.52-3.81-1.36-6.55,3.66-10.58,3C100.17,116.74,99.91,117.64,100.5,117.73Z"/><path class="cls-5" d="M107.4,107.66a8.6,8.6,0,0,1,5.21,1.44c1.07.81,1.88,1.86,2.88,2.77a4.89,4.89,0,0,0,3.28,1.15,7.27,7.27,0,0,0,6.41-3,7.81,7.81,0,0,1-7.09,5.58c-3.54.24-5.64-4.16-9.07-4.46a7.63,7.63,0,0,0-5.49,1.67c-1,.75-1.73,2.14-2.79,2.63a1.42,1.42,0,0,1-1.7-.3c-1.71-2.1,2.89-5.69,4.17-6.43A8.66,8.66,0,0,1,107.4,107.66Z"/><path class="cls-3" d="M107.4,108.12c3.52.09,5,1.56,7.4,3.73a5.6,5.6,0,0,0,3.09,1.55,8,8,0,0,0,7.62-3l-.78-.45a7.45,7.45,0,0,1-5.25,5c-2.26.61-3.91-.33-5.64-1.66-2-1.52-3.65-2.79-6.27-2.54a7.81,7.81,0,0,0-4.92,2.29c-1,.93-.62,1.47-2.12.57s-.92-1,0-2.06a12.07,12.07,0,0,1,1.43-1.34,9.05,9.05,0,0,1,5.41-2.09c.6,0,.6-1,0-.93a10.75,10.75,0,0,0-8.73,5.33c-1.18,2.3.6,4.58,3,3,1.12-.78,1.77-2.06,3-2.79a6.37,6.37,0,0,1,6.87,0c1.81,1.11,3.24,2.93,5.42,3.36,3.91.77,7.6-2.3,8.75-5.82.14-.42-.48-.82-.78-.45a7,7,0,0,1-5.29,2.82c-2.7.13-4-1.51-5.86-3.14a9.21,9.21,0,0,0-6.3-2.23.46.46,0,0,0-.26.61A.49.49,0,0,0,107.4,108.12Z"/><path class="cls-6" d="M71.08,127.57c-1,2-2.53,5-1.48,6.79,1,1.6,3.13.37,4.05-.61a13.3,13.3,0,0,0,1.83-2.81c2-3.6,5.19-5.13,8.74-6.85,2.08-1,4.38-2.67,4.37-5.23,0-5.16-7.11-5.74-10.58-3.89-2,1.08-2.85,3.38-3.75,5.33s-1.81,4.24-2.75,6.36C71.39,126.93,71.25,127.24,71.08,127.57Z"/><path class="cls-7" d="M73.65,133.75A9.33,9.33,0,0,0,74.87,132a1,1,0,0,0-.39-.32,1.54,1.54,0,0,0-1.35.18c.26-.12-.2-.81-.3-.9a1.59,1.59,0,0,0-1-.43c-.17,0-.89.24-.76.54-.09-.21,0-.45-.13-.65a.68.68,0,0,0-.4-.36A1,1,0,0,0,70,130c-.63,1.57-1,3.22-.35,4.35C70.55,136,72.73,134.73,73.65,133.75Z"/><path class="cls-8" d="M84.3,114.27a4.44,4.44,0,0,1,1,2.33c.34,2.53-1.72,4.48-3.65,5.75-3.29,2.18-6.29,4.13-7.76,8a13,13,0,0,1-1.44,3A4.5,4.5,0,0,1,70.12,135c1.07.42,2.57-.5,3.3-1.27a13.66,13.66,0,0,0,1.82-2.81c2-3.6,5.19-5.13,8.74-6.85,2.08-1,4.38-2.67,4.38-5.23S86.54,114.82,84.3,114.27Z"/><path class="cls-3" d="M70.68,127.35c-.91,1.86-2.89,5.17-1.49,7.25,1.09,1.61,3.06,1,4.33-.08a12.15,12.15,0,0,0,2.36-3.33,13.89,13.89,0,0,1,5.42-5.09c2.49-1.41,5.79-2.34,7.2-5.07,2.34-4.53-2.44-7.54-6.42-7.47-7.47.13-8.78,8.25-11.4,13.79-.26.54.55,1,.8.47C73.3,124,74.79,116.7,79.16,115c4-1.57,12.06,1,7.89,6.47-2.4,3.12-7.25,3.78-10,6.67-1.36,1.39-2,3.18-3.21,4.68a3.89,3.89,0,0,1-1.41,1.38c-2.35,0-3.18-.86-2.47-2.59a17.64,17.64,0,0,1,1.57-3.78C71.74,127.27,70.94,126.8,70.68,127.35Z"/><path class="cls-6" d="M80.25,99.12q-.34.1-.69.18c-2.16.47-6.1,1.06-8-.48A3.6,3.6,0,0,1,70.62,95a4.13,4.13,0,0,1,2.72-2.32c2.82-1.12,6.23-1.77,9-.14A3.15,3.15,0,0,1,83.82,96C83.45,97.73,81.84,98.66,80.25,99.12Z"/><path class="cls-8" d="M80.35,99.12l-.7.18c-2.16.47-6.09,1.06-8-.48a3.59,3.59,0,0,1-1-3.79,4.2,4.2,0,0,1,2.72-2.32c2.82-1.12,6.23-1.77,9-.14A3.15,3.15,0,0,1,83.85,96C83.54,97.73,81.93,98.66,80.35,99.12Z"/><path class="cls-6" d="M80.71,67.18a9.27,9.27,0,0,0-4.61,1.36c-3.66,1.82-2.29,5.38-.56,8.13,1.28,2,2.89,3.84,4,6a21.79,21.79,0,0,1,2.23,7,23.19,23.19,0,0,1-2.35,14.85c-2.39,4.27-5.13,9-3.17,14,1.63,4.15,5.64,6.39,10,6.69,10,.71,16.17-7.51,18-16.47,3-15.39-7.54-33.39-20.89-40.75A5.83,5.83,0,0,0,80.71,67.18Z"/><path class="cls-8" d="M90.45,122.35c-4.15,1.16-9.52-1.52-11.14-5.68-2-5,.78-9.74,3.17-14a23.22,23.22,0,0,0,2.35-14.84,21.79,21.79,0,0,0-2.23-7c-1.15-2.11-2.76-3.93-4-6-1.45-2.29-2.63-5.15-.87-7.09-.51.21-1,.46-1.59.73-3.65,1.82-2.29,5.38-.55,8.13,1.28,2,2.89,3.84,4,6a22.12,22.12,0,0,1,2.23,7,23.19,23.19,0,0,1-2.35,14.85c-2.39,4.27-5.13,9-3.18,14,1.63,4.15,5.65,6.39,9.95,6.69a14.71,14.71,0,0,0,10.17-3C94,121.15,92.94,121.66,90.45,122.35Z"/><path class="cls-3" d="M80.71,66.71c-3.38.1-7.84,2-7.33,6A13.1,13.1,0,0,0,76,78.18c2.14,3.06,4.07,5.77,5,9.49a24.9,24.9,0,0,1,.19,11c-.82,3.8-3,6.84-4.56,10.34-1.83,4.27-2.1,9.07,1.14,12.75,6.11,6.91,17.14,4.09,22.25-2.41,6.19-7.86,6.28-18.82,3.1-27.91a46.3,46.3,0,0,0-8.76-15c-3.24-3.71-8.37-9-13.48-9.71-.59-.09-.84.81-.25.9,4.22.6,8.38,4.59,11.25,7.5A45.64,45.64,0,0,1,99.78,86c4.11,7.84,6,17.23,3.19,25.82S91,128.12,81.58,123.47c-6.55-3.23-6.11-10.3-3.25-16,2-3.93,3.8-7.31,4.18-11.79a23.87,23.87,0,0,0-3-14.21c-1.26-2.08-2.94-3.9-4.09-6-.83-1.55-1.39-2.91-.7-4.58.89-2.18,3.78-3.16,6-3.23A.45.45,0,0,0,80.71,66.71Z"/><path class="cls-6" d="M89.53,83.9c6.33-7-3.77-14.56-10.16-15.44a7,7,0,0,0-3.31.2c-2.54.93-2.54,4.11-2.5,6.41a73.31,73.31,0,0,0,.63,8c.45,4.09.58,7.91,2.16,11.78a7.42,7.42,0,0,0,2.77,3.79c2.59,1.54,6.13-.19,7.61-2.82S88.19,90,88.15,87a4.15,4.15,0,0,1,.2-1.61A5.66,5.66,0,0,1,89.53,83.9Z"/><path class="cls-8" d="M75.94,71.28a9.22,9.22,0,0,1,4.62-1.37,6,6,0,0,1,2.6.82C94.56,77,103.93,91,104.53,104.55c.65-14.35-9.2-29.87-21.37-36.56a5.83,5.83,0,0,0-2.6-.81,9.31,9.31,0,0,0-4.62,1.36,3.77,3.77,0,0,0-2.09,4.87A3.93,3.93,0,0,1,75.94,71.28Z"/><path class="cls-8" d="M88.53,84.76A5.63,5.63,0,0,0,87,86a4.09,4.09,0,0,0-.55,1.52c-.64,3-1.34,6-3.36,8.28A7,7,0,0,1,78.32,98a4.79,4.79,0,0,0,.87.67c2.6,1.54,6.13-.19,7.61-2.82S88.26,90,88.22,87a4.18,4.18,0,0,1,.2-1.61A5.81,5.81,0,0,1,89.6,83.9l.11-.12A10.06,10.06,0,0,1,88.53,84.76Z"/><path class="cls-8" d="M73.89,79.44c.27-2.3.57-4.6,1.06-6.87a12.51,12.51,0,0,1,1.34-4h-.14c-2.54.93-2.55,4.11-2.51,6.41C73.66,76.53,73.76,78,73.89,79.44Z"/><path class="cls-3" d="M75.83,68.26c-4.2,2.09-2.72,8.89-2.35,12.55.53,5.31.3,13.12,4.24,17.28,2.77,2.93,7.19,1.4,9.19-1.66,1.41-2.17,1.65-4.86,1.71-7.39a10.39,10.39,0,0,1,2-5.69A9.4,9.4,0,0,0,92,80.1c.12-.58-.78-.83-.89-.24-.47,2.34-2.28,3.31-3.09,5.32-.48,1.19-.23,2.63-.26,3.86-.06,2.49-.27,5.14-1.82,7.19-2.43,3.22-6.32,3.38-8.5-.27-2.42-4-2.36-9.47-2.84-14-.36-3.38-2.07-11,1.77-12.9.54-.26.06-1.07-.47-.8Z"/><path class="cls-6" d="M116.46,76.27a8,8,0,0,1,1.81.3,2.31,2.31,0,0,1,1,.53c1,.92.19,2.71-.66,3.41A10.4,10.4,0,0,1,115.14,82c-3.08,1-5.65,3-8.21,4.94-2.13,1.59-5.92,5-8.8,4.59-2.26-.34-2.85-3-2.48-4.92.67-3.43,3.53-5.38,6.54-6.69A46.33,46.33,0,0,1,110,77.2,22.23,22.23,0,0,1,116.46,76.27Z"/><path class="cls-7" d="M119.29,77.09a2.44,2.44,0,0,0-1-.54,8,8,0,0,0-1.81-.3,12.74,12.74,0,0,0-2.83.16v.2c.1.51.62.81,1.09,1-.28-.14-.56.73-.57.88a1.82,1.82,0,0,0,.31,1.15c.11.15.81.6,1,.28-.11.22-.35.34-.47.56a.86.86,0,0,0,0,.59,1.07,1.07,0,0,0,.6.74,8.81,8.81,0,0,0,3.07-1.35C119.48,79.79,120.26,78,119.29,77.09Z"/><path class="cls-8" d="M101.15,90.93a36,36,0,0,0,5.8-4C109.51,85,112.08,83,115.17,82a10.44,10.44,0,0,0,3.46-1.49c.77-.63,1.48-2.16.89-3.13a3.41,3.41,0,0,1-.89,1.27,10.44,10.44,0,0,1-3.46,1.49c-3.09,1-5.66,3-8.22,4.94-1.6,1.19-4.13,3.43-6.51,4.28"/><path class="cls-6" d="M83.74,85.35a3,3,0,0,1,2.4.26c4.2,2.82-6.74,9.88-8.68,11.47A11.34,11.34,0,0,1,75,98.76a3.75,3.75,0,0,1-2.94.09,3.54,3.54,0,0,1-1.76-3.74c.31-2.24,2.44-3.68,4.13-4.9C77.12,88.24,80.41,86,83.74,85.35Z"/><path class="cls-7" d="M86.14,85.57a3,3,0,0,0-2.4-.26,15.4,15.4,0,0,0-3.59,1.29,1.18,1.18,0,0,0,.19.7,1.7,1.7,0,0,0,1.37.6c-.31,0-.27.88-.23,1a1.84,1.84,0,0,0,.69,1c.17.1,1,.28,1-.07,0,.24-.22.44-.25.68a.8.8,0,0,0,.18.57,1.14,1.14,0,0,0,1.19.48C86.65,89.35,88.18,86.93,86.14,85.57Z"/><path class="cls-8" d="M86.15,85.57h-.09c1.71,3.17-7.64,9.23-9.42,10.69a11.34,11.34,0,0,1-2.49,1.68,3.73,3.73,0,0,1-2.93.13l-.36-.2a2.83,2.83,0,0,0,1.19,1,3.73,3.73,0,0,0,3-.15A11.34,11.34,0,0,0,77.52,97C79.41,95.45,90.35,88.35,86.15,85.57Z"/><path class="cls-6" d="M73.9,70.88a10.46,10.46,0,0,0-2.63-.77,3.68,3.68,0,0,0-2.62.57.81.81,0,0,0-.33.38.79.79,0,0,0,0,.43,3.6,3.6,0,0,0,.93,1.75,5.44,5.44,0,0,0,2.19,1.57A3.37,3.37,0,0,0,74,74.7"/><path class="cls-3" d="M74,70.43a7.15,7.15,0,0,0-4.59-.65c-1,.3-1.8.89-1.55,2A4.94,4.94,0,0,0,74,75.21l.33-.1c.54-.24.07-1-.47-.8A4,4,0,0,1,68.93,72c-.68-2.42,3.91-1,4.85-.61.56.21.8-.69.25-.9Z"/><path class="cls-9" d="M73.36,71.94a4.83,4.83,0,0,1,.81.35.45.45,0,0,1,.27.3,1.34,1.34,0,0,1,0,.84.33.33,0,0,1-.07.13.54.54,0,0,1-.16.1,1.63,1.63,0,0,1-.76,0,3.7,3.7,0,0,1-.73-.25,2.75,2.75,0,0,1-.8-.54,1.14,1.14,0,0,1-.34-1c0-.16.28-.12.42-.12h.64A2.94,2.94,0,0,1,73.36,71.94Z"/><path class="cls-3" d="M74.19,73.17A3.4,3.4,0,0,1,73,73.09c-.37-.12-1-.5-.94-1s-.76-.83-.9-.24A1.68,1.68,0,0,0,72,73.67a3.43,3.43,0,0,0,2.13.43c.59,0,.6-1,0-.93Z"/><path class="cls-3" d="M74.41,71.86a4.51,4.51,0,0,0-4.73.21c-.49.33,0,1.14.47.8a3.56,3.56,0,0,1,3.79-.2C74.47,73,74.94,72.15,74.41,71.86Z"/><path class="cls-7" d="M78.5,72.35c1.06-1.83-.08-5.6-2.6-5.46a3.39,3.39,0,0,0-3,3.78,3.1,3.1,0,0,0,.08.42c.7,2.26,4.11,3.59,5.46,1.26Z"/><path class="cls-10" d="M79,72.56a4.57,4.57,0,0,0-.9-3.57,5,5,0,0,0-3.65-1.73c-.79-.1-.78,1.14,0,1.24a3.72,3.72,0,0,1,2.62,1.18,3.27,3.27,0,0,1,.73,2.55C77.7,73,78.9,73.35,79,72.56Z"/><path class="cls-3" d="M78.9,72.57a4.75,4.75,0,0,0-.74-5.22,3.15,3.15,0,0,0-4.46,0,3.51,3.51,0,0,0-.44.56A3.72,3.72,0,0,0,74,73.11l.11.08c1.53,1.12,3.77,1.12,4.8-.65a.46.46,0,1,0-.8-.47c-.8,1.39-2.55,1.13-3.63.23a2.8,2.8,0,0,1-.41-3.94l.15-.17c2.5-2.78,5.13,1.5,3.89,3.88C77.82,72.63,78.63,73.1,78.9,72.57Z"/><path class="cls-7" d="M75.3,70.88c.61-1.53-.26-4.8-1.88-4.78-1.25,0-2.1,1.92-1.68,3.5.52,2,2.76,3.24,3.55,1.3Z"/><path class="cls-10" d="M75.56,71.35a3.78,3.78,0,0,0-.36-3.57A3.67,3.67,0,0,0,72,66.42a.62.62,0,1,0,0,1.24,2.46,2.46,0,0,1,2.3.93A2.67,2.67,0,0,1,74.36,71C74.06,71.76,75.26,72.08,75.56,71.35Z"/><path class="cls-3" d="M75.75,71A5.07,5.07,0,0,0,75,66.48,1.9,1.9,0,0,0,72.37,66a1.93,1.93,0,0,0-.65.79,3.92,3.92,0,0,0,.88,4.89,1.91,1.91,0,0,0,2.71,0A2,2,0,0,0,75.8,71c.22-.55-.68-.8-.9-.25-.52,1.3-1.86.27-2.32-.48a2.86,2.86,0,0,1,.29-3.44c1-.84,1.71.51,2,1.3a4.12,4.12,0,0,1,.07,2.62C74.65,71.35,75.55,71.55,75.75,71Z"/><path class="cls-7" d="M72.91,68.6c.13-1.48-1.27-4.33-2.5-4.09-1,.2-1.17,2-.49,3.41.83,1.7,2.83,2.56,3,.69Z"/><path class="cls-10" d="M69.66,65.78a3,3,0,0,1,1.71,1.36c.23.37.82,1.45.46,1.89-.51.61.36,1.49.88.88,1.51-1.83-.88-4.86-2.72-5.33a.62.62,0,1,0-.33,1.2Z"/><path class="cls-3" d="M73.38,68.58a5.47,5.47,0,0,0-1.66-4c-1.07-1-2.34-.4-2.6,1A4.23,4.23,0,0,0,71,69.79a1.47,1.47,0,0,0,2.39-1.21c0-.59-.88-.59-.93,0-.1,1.13-1.2.34-1.61-.13a3.15,3.15,0,0,1-.72-3c.45-1.08,1.35.21,1.65.73a4.69,4.69,0,0,1,.68,2.45C72.42,69.18,73.35,69.18,73.38,68.58Z"/><path class="cls-7" d="M70.39,66.56c0-1.22-1.45-3.34-2.48-3-.81.29-.85,1.81-.15,2.84.85,1.26,2.64,1.68,2.63.14Z"/><path class="cls-10" d="M67.37,64.61c1.55.14,1.9,1.37,1.79,2.75-.06.79,1.18.79,1.24,0a4,4,0,0,0-.69-2.92,3.28,3.28,0,0,0-2.34-1.09c-.8-.07-.79,1.17,0,1.24Z"/><path class="cls-3" d="M70.86,66.54A4.3,4.3,0,0,0,69,63.35a1.4,1.4,0,0,0-2,.34,1.42,1.42,0,0,0-.26.87,3.31,3.31,0,0,0,1.88,3.25,1.42,1.42,0,0,0,1.94-.44,1.37,1.37,0,0,0,.22-.83.47.47,0,1,0-.94,0c0,.81-.78.52-1.21.2a2.38,2.38,0,0,1-1-2.19c.15-.88.82-.47,1.22,0a3.39,3.39,0,0,1,1,2C70,67.14,70.88,67.14,70.86,66.54Z"/><path class="cls-7" d="M68.48,65c-.23-1-1.72-2.85-2.44-2.53s-.33,1.54.39,2.42c.88,1.08,2.34,1.43,2,.12Z"/><path class="cls-10" d="M66,63.55a2.42,2.42,0,0,1,1.3,2.18c-.07.79,1.18.79,1.25,0a3.68,3.68,0,0,0-1.93-3.25C66,62,65.37,63.1,66,63.55Z"/><path class="cls-3" d="M68.93,64.87A4.74,4.74,0,0,0,67,62.24a1.08,1.08,0,0,0-1.52.11,1.1,1.1,0,0,0-.25.89,3.56,3.56,0,0,0,2.06,2.9c1,.43,1.85-.17,1.61-1.28-.13-.59-1-.34-.9.24,0,.25.08.29-.09.27a1.78,1.78,0,0,1-.79-.42,2.62,2.62,0,0,1-1-1.93c0-.18,0-.16.2-.09a2.15,2.15,0,0,1,.68.56,3.81,3.81,0,0,1,1,1.61.46.46,0,0,0,.62.24A.47.47,0,0,0,68.93,64.87Z"/><path class="cls-7" d="M66.7,63c-.37-.81-1.92-2-2.48-1.57s0,1.37.74,1.94c.92.7,2.2.68,1.74-.36Z"/><path class="cls-10" d="M63.81,62.1c.65.29,1.5.87,1.59,1.65a.64.64,0,0,0,.63.6.64.64,0,0,0,.62-.62A3.57,3.57,0,0,0,64.45,61a.63.63,0,0,0-.85.22.62.62,0,0,0,.22.85h0Z"/><path class="cls-3" d="M67.1,62.79A3.8,3.8,0,0,0,65,61a1,1,0,0,0-1.33.47,1,1,0,0,0,0,.91,3,3,0,0,0,2.38,2,1,1,0,0,0,1.1-1.53c-.24-.55-1-.07-.8.47.07.18.07.15-.1.15a1.41,1.41,0,0,1-.66-.2,1.84,1.84,0,0,1-1-1.3v-.07c0,.06.12,0,.16,0a2.46,2.46,0,0,1,.67.33,3,3,0,0,1,1,1.09C66.56,63.8,67.36,63.35,67.1,62.79Z"/><path class="cls-6" d="M110.33,130.12c.49,1.57,1.07,4-.08,5.42-1.8,2.24-4.43-.11-5.74-1.56a30.91,30.91,0,0,0-6.24-5.4c-2.54-1.65-6.72-3.16-7.82-6.21a5.23,5.23,0,0,1,1.71-5.94,4.68,4.68,0,0,1,2.49-.72c7-.26,12.78,7.49,15.26,13.28C110,129.35,110.19,129.7,110.33,130.12Z"/><path class="cls-7" d="M108.76,129.41a1.72,1.72,0,0,0-.66,1.35c.05-.31-.86-.31-1-.27a1.78,1.78,0,0,0-1,.65c-.1.16-.31,1,0,1-.23,0-.43-.23-.66-.27a.78.78,0,0,0-.59.15c-.65.41-.64,1.14-.35,1.89h0c1.31,1.45,3.93,3.8,5.74,1.56,1.15-1.43.57-3.85.08-5.42l-.12-.35A1.1,1.1,0,0,0,108.76,129.41Z"/><path class="cls-8" d="M90.46,122.35c1.1,3,5.28,4.56,7.83,6.21a31.45,31.45,0,0,1,6.23,5.4c1.31,1.45,3.94,3.8,5.75,1.56a2.7,2.7,0,0,0,.46-.87c-1.76,1.29-4-.76-5.21-2.08a31.45,31.45,0,0,0-6.23-5.4c-2.28-1.48-5.86-2.84-7.38-5.29"/><path class="cls-2" d="M75,77.57a2.07,2.07,0,0,1-1.31.3,4.85,4.85,0,0,0-1.26-.11,2.26,2.26,0,0,0-1.13.57,8,8,0,0,1-1.22,1,2.27,2.27,0,0,1-1.4.25,5,5,0,0,1-1-.31l-.81-.35a6.06,6.06,0,0,0,3-1.47,11.31,11.31,0,0,1,1.55-1.69,4.16,4.16,0,0,1,2.26-.57h1a1.21,1.21,0,0,1,.94.3C76,76.05,75.46,77.22,75,77.57Z"/><path class="cls-3" d="M74.71,77.17c-1.09.55-2.27-.14-3.35.51a6.66,6.66,0,0,0-.83.68c-1.32,1-2.1.77-3.49.16l-.11.83a6.73,6.73,0,0,0,3.68-2.11,3.68,3.68,0,0,1,2.56-1.58,3.35,3.35,0,0,1,1,0c.47-.15.71,0,.7.56.35.43.28.77-.21,1s.21,1.06.65.66c1.63-1.49,1-3.18-1.14-3.19a5.23,5.23,0,0,0-3,.68,8.51,8.51,0,0,0-1.29,1.39,5.92,5.92,0,0,1-3.13,1.69c-.36.09-.49.69-.11.85,1.21.53,2.4,1.08,3.69.41a5.51,5.51,0,0,0,.73-.54,3.52,3.52,0,0,1,2.46-.82A3.55,3.55,0,0,0,75.18,78C75.72,77.7,75.24,76.9,74.71,77.17Z"/><path class="cls-4" d="M74.85,76.35c-.91.43-1.7-.45-2.63-.27a2,2,0,0,0-1,.59c-.46.43-.85.93-1.3,1.39a4.13,4.13,0,0,1-1.55,1.06,2,2,0,0,1-1.81-.26A2.4,2.4,0,0,0,68,78.29a7.26,7.26,0,0,0,1.26-1.89A11.36,11.36,0,0,1,70.36,75a3.41,3.41,0,0,1,.46-.47,2.57,2.57,0,0,1,.67-.41,4.27,4.27,0,0,1,1.57-.43,3,3,0,0,1,2.3.64.9.9,0,0,1,.33,1A1.86,1.86,0,0,1,74.85,76.35Z"/><path class="cls-3" d="M74.73,75.9c-1.21.31-2.08-.66-3.27,0-1.41.79-2.48,3.81-4.64,2.56l-.11.85a3.57,3.57,0,0,0,2.73-2.18,7.17,7.17,0,0,1,2-2.44,3.39,3.39,0,0,1,1.72-.52,1.5,1.5,0,0,1,1,.12c.9,0,1,.58.45,1.66-.49.33,0,1.14.47.8,2-1.35.87-3.32-1.26-3.52a4.6,4.6,0,0,0-3.26.92c-1.49,1.19-2.1,4-4.11,4.26-.41.06-.42.67-.11.85a2.87,2.87,0,0,0,3.4-.4c1-.82,1.67-2.36,3.24-2.24.78,0,1.17.39,2,.18a.47.47,0,0,0,.26-.61A.45.45,0,0,0,74.73,75.9Z"/><path class="cls-5" d="M73.7,72.85a3.25,3.25,0,0,0-1.38.21,6.43,6.43,0,0,0-3.11,2.83c-.38.63-.66,1.32-1.1,1.91a2.36,2.36,0,0,1-1.83,1,1.61,1.61,0,0,0,1.51,0,3.06,3.06,0,0,0,.78-.7c.53-.61,1-1.26,1.49-1.92a4.69,4.69,0,0,1,1.72-1.62,3.26,3.26,0,0,1,2.38,0,3.77,3.77,0,0,0,.8.27.75.75,0,0,0,.75-.28.61.61,0,0,0,0-.64A2.32,2.32,0,0,0,73.7,72.85Z"/><path class="cls-3" d="M73.7,72.35a5.06,5.06,0,0,0-3.5,1.49c-1.29,1.22-2.08,4.26-3.92,4.5a.47.47,0,0,0-.43.51.49.49,0,0,0,.31.4c1.39.52,2.26-.19,3.13-1.25a17,17,0,0,1,1.86-2.37c1.71-1.47,2.17-.32,3.75-.25.71,0,1.38-.34,1.36-1.12,0-1.19-1.47-1.76-2.43-1.9-.59-.08-.84.82-.25.9a.63.63,0,0,1,.77.47.36.36,0,0,1,0,.11c.46.54.44.66-.09.36a6.14,6.14,0,0,1-.94-.23,3.24,3.24,0,0,0-1.74.21c-1.65.71-3.19,4.92-5.2,4.18l-.12.91c3.62-.48,3.28-5.93,7.42-6a.47.47,0,0,0,.36-.56A.46.46,0,0,0,73.7,72.35Z"/><path class="cls-3" d="M97.93,83.25c2.69-2.58,6.41-3.88,9.91-5a37.67,37.67,0,0,1,5.45-1.33,13.47,13.47,0,0,1,3.17-.22l1.68.29c.74,2.26.28,3.57-1.36,3.93-2.73,1.37-5.36,2.15-7.92,4s-4.9,3.94-7.65,5.45c-.52.28,0,1.09.47.8,4.77-2.61,8.42-6.86,13.61-8.75,1.91-.69,6.39-2.26,4.6-5.25-1.62-2.71-7.21-1.12-9.51-.56-4.52,1.1-9.67,2.67-13.1,6-.44.42.22,1.08.65.66Z"/><path class="cls-3" d="M77.2,97.85c3.25-2.59,7.48-4.92,9.61-8.61a3.19,3.19,0,0,0,.28-3.41c-1.45-2.08-4.7-.73-6.44,0C77,87.43,67.65,92.24,70,97.68c1.71,3.89,7.14,2.46,10.29,1.91.59-.1.34-1-.25-.9-2.56.45-5.93,1.61-8.15-.2C66.37,94,80.31,86.2,83.74,85.84c6.2-.66.22,5.46-1.45,6.89-1.84,1.59-3.85,3-5.75,4.46C76.07,97.56,76.73,98.19,77.2,97.85Z"/><path class="cls-3" d="M80.21,80.84a2,2,0,0,0,2.3,1.65l.1,0a2.85,2.85,0,0,0,2.32-2.37c.1-.58-.8-.84-.89-.24a2,2,0,0,1-1.26,1.61A1.16,1.16,0,0,1,81.22,81a1.15,1.15,0,0,1-.12-.37C81,80,80.1,80.25,80.21,80.84Z"/><path class="cls-3" d="M81.12,81.78l-.4,1a.47.47,0,0,0,.31.57.5.5,0,0,0,.58-.33l.4-1a.46.46,0,0,0-.32-.57h0a.47.47,0,0,0-.58.32Z"/><path class="cls-3" d="M82.25,82.17l.11.78a.47.47,0,0,0,.57.32.49.49,0,0,0,.33-.57l-.11-.78a.47.47,0,0,0-.9.25Z"/><path class="cls-3" d="M83.35,81.65l.46.84c.28.52,1.09,0,.8-.47l-.46-.84C83.86,80.66,83.06,81.18,83.35,81.65Z"/><path class="cls-3" d="M74.1,82.29a1.7,1.7,0,0,0,2,1.38h0a2.39,2.39,0,0,0,1.93-2c.1-.59-.8-.84-.9-.25a1.49,1.49,0,0,1-.94,1.23.84.84,0,0,1-1.1-.41A.7.7,0,0,1,75,82c-.11-.59-1-.34-.9.25Z"/><path class="cls-3" d="M74.83,83l-.32.79a.47.47,0,0,0,.32.58.5.5,0,0,0,.58-.33l.32-.79a.46.46,0,0,0-.32-.57h0A.46.46,0,0,0,74.83,83Z"/><path class="cls-3" d="M75.73,83.35l.09.62a.48.48,0,0,0,.57.33.49.49,0,0,0,.33-.57l-.09-.62a.46.46,0,0,0-.57-.33A.48.48,0,0,0,75.73,83.35Z"/><path class="cls-3" d="M76.62,83l.37.67c.29.52,1.09,0,.8-.47l-.36-.67a.47.47,0,0,0-.66-.12A.48.48,0,0,0,76.62,83Z"/><path class="cls-3" d="M100.49,117.86a24.06,24.06,0,0,1,7.67,8.64,19.16,19.16,0,0,1,1.83,4.11,7,7,0,0,1,.47,2.69c-.91,4.7-3.9,2-5.14.86-2.24-2.1-4.19-4.31-6.81-6s-6.22-2.87-7.66-6c-.25-.54-1-.07-.8.47,1.86,4.11,7.09,5.45,10.4,8.13,2.08,1.7,5.72,7.43,9.07,5.94,3.14-1.39,1.63-6,.62-8.29A25.81,25.81,0,0,0,101,117.09c-.5-.33-1,.47-.47.8Z"/><path class="cls-3" d="M83.27,96.08a.81.81,0,0,1-.08.24.15.15,0,0,1,.16,0q.15.12.12,0v-.2c0-.07.11-.2.11-.25s-.29-.08-.31,0a.67.67,0,0,0,0,.2c-.1.59.8.84.9.25s0-1.2-.6-1.29-.89.44-1,.89,0,1.15.54,1.29.94-.42,1.06-.89a.47.47,0,0,0-.41-.53A.46.46,0,0,0,83.27,96.08Z"/><path class="cls-3" d="M78.62,97.86a1,1,0,0,0,1.25.37c.51-.32.32-1,0-1.42a1,1,0,0,0-1.26-.43c-.45.26-.36,1-.08,1.38s1.15,0,.81-.47c0-.06-.08-.15-.13-.2s.12-.16-.15,0-.13,0-.06.13.1.08.13.13.06.12.09.16v.06l.28-.18-.26-.22C78.9,96.74,78.24,97.4,78.62,97.86Z"/><path class="cls-6" d="M81.21,67.64a10.77,10.77,0,0,1,.41-2.71,3.67,3.67,0,0,1,1.62-2.14,1,1,0,0,1,.49-.14.79.79,0,0,1,.39.16,3.5,3.5,0,0,1,1.2,1.54,5.56,5.56,0,0,1,.5,2.64,3.35,3.35,0,0,1-1.21,2.36"/><path class="cls-3" d="M81.67,67.64c.07-1,.83-5.92,2.65-4a4,4,0,0,1,0,5.41c-.45.4.21,1,.66.66,2-1.74,1.81-5.84-.54-7.28-.93-.57-1.79.07-2.41.82a7.46,7.46,0,0,0-1.25,4.38.47.47,0,0,0,.93,0Z"/><path class="cls-9" d="M82.41,67.59a4.31,4.31,0,0,0,0,.88.48.48,0,0,0,0,.17.66.66,0,0,0,.14.2,1.26,1.26,0,0,0,.75.36h.15a.36.36,0,0,0,.16-.11,1.46,1.46,0,0,0,.36-.67,2.53,2.53,0,0,0,.06-.77,2.42,2.42,0,0,0-.16-1c-.11-.28-.39-.69-.73-.72-.16,0-.22.22-.29.34a5.66,5.66,0,0,0-.26.58A3,3,0,0,0,82.41,67.59Z"/><path class="cls-3" d="M84,69.29a3.51,3.51,0,0,0,.53-2.16,1.67,1.67,0,0,0-1.23-1.58c-.58-.14-.83.76-.25.89,1,.24.4,1.83.11,2.38s.52,1,.8.47Z"/><path class="cls-3" d="M82.82,68.47a3.55,3.55,0,0,1,1.75-3.38.47.47,0,0,0,.16-.64.46.46,0,0,0-.63-.16,4.48,4.48,0,0,0-2.21,4.18C81.89,69.06,82.89,69.07,82.82,68.47Z"/></g><path class="cls-11" d="M163,102.49c1.81,3.4,4.53,5.21,6.21,4.32s1.71-4.17-.1-7.57-4.64-5.43-6.33-4.53S161.24,99.09,163,102.49Z"/><ellipse class="cls-12" cx="155.84" cy="106.33" rx="3.46" ry="6.97" transform="translate(-31.68 85.64) rotate(-28.01)"/><path class="cls-13" d="M142.45,85.76c-1.69-.53-3-2.77-5.25-4-3.11-1.76-3.91-4.63-3.71-3.37s-.89,1.82-.9,1.64.36.21.06-1.69-2.83-2.87-4.64-6.24a22.4,22.4,0,0,1-1.58-3.75,7.51,7.51,0,0,0-.2,1.58c-3.67-11.23.68-17.54,1.29-18a4.05,4.05,0,0,0-1.81.86C127,49.31,129.57,49,130,49a2.36,2.36,0,0,0-1.9-.42c1.07-1.5,2.15-2.49,4-2.51a2,2,0,0,1,1.67.92,3,3,0,0,1,1.89-3.8l.29-.08c-1.24,3.54-.67,2.89-.54,3s1.92-1.75,3.8-1.91a1.76,1.76,0,0,0-.92,1.06c1.86-.78,3.89-1.9,8,.64a5.19,5.19,0,0,0-2.8.75c.53.18,7.34,2.25,9.55,9.34-.32-.17-2-1.19-2.24-1,1.25.9,5.36,4.07,3.47,16.36-.12-.64-.67-2.1-1-2.07.51,1.13-.34,4.51-3.73,7.58C144.87,81.07,142.9,83.35,142.45,85.76Z"/><path class="cls-14" d="M161.78,85.86a3.91,3.91,0,0,1,2.49,1c.45.51.83,1,1.25,1.56.79,1.06,1.58,2.13,2.27,3.23s1.35,2.23,2,3.37l.91,1.71a4.37,4.37,0,0,1,.42.87,1.55,1.55,0,0,1-.45,1.27L159.22,104a1.57,1.57,0,0,1-1.24-.5,5.87,5.87,0,0,1-.37-.9l-.67-1.82c-.44-1.22-.85-2.45-1.19-3.71s-.63-2.55-.89-3.85c-.11-.66-.25-1.3-.33-2a3.88,3.88,0,0,1,.9-2.53Z"/><path class="cls-15" d="M152.78,90.65a3.91,3.91,0,0,1,2.49,1c.44.51.83,1,1.25,1.56.79,1.06,1.58,2.13,2.27,3.23s1.35,2.23,2,3.37l.91,1.71a6.35,6.35,0,0,1,.42.87,1.58,1.58,0,0,1-.45,1.27l-11.45,5.11a1.52,1.52,0,0,1-1.24-.5,5,5,0,0,1-.37-.9l-.67-1.82c-.44-1.22-.85-2.45-1.2-3.71s-.63-2.55-.89-3.85c-.1-.66-.25-1.3-.33-2a4,4,0,0,1,.91-2.53Z"/><path class="cls-16" d="M138.8,98.25l1.8,3.92c1.73,3.83,8.68,1.21,17.09-2.67,7.25-3.35,15.89-6.88,13.45-12.25h0c-5.48-14.47-14.77-24.43-26.9-18.84h0c-12,5.54-11.45,15.3-7.56,25.14a.6.6,0,0,0,0,.19l.35.61C137.51,95.59,138.12,96.9,138.8,98.25Z"/><path class="cls-12" d="M120.81,77.06c-.53-1.74-2.2-5.52-6.21-3.72-5.34,2.41,5.49,12.67.06,6.46Z"/><path class="cls-15" d="M141,80.06c.8.35,1.06.6,1.16.82s.26.45.37.68a3.54,3.54,0,0,1,.35,1.32,7.91,7.91,0,0,1,.05,1.29,7.71,7.71,0,0,1-.26,1.25,16.16,16.16,0,0,1-2.35,5c-.16.21-.31.42-.48.63l-.56.6A9.78,9.78,0,0,1,138,92.82a12.66,12.66,0,0,1-1.54.94,10.55,10.55,0,0,1-1.73.64,11.48,11.48,0,0,1-3.55.37,13.89,13.89,0,0,1-3.2-.59,19.11,19.11,0,0,1-5.18-2.56,23.68,23.68,0,0,1-4-3.48,30.71,30.71,0,0,1-3.12-4.07,7.53,7.53,0,0,1-1.15-2.28,6.93,6.93,0,0,1-.17-1.35,2,2,0,0,1,.2-.8l.24-.47a.7.7,0,0,1,.23-.28l.06,0,.1-.07.19-.14.25-.16.31-.2,3.37-1.63.34-.13.29-.11.22-.07h.18a.73.73,0,0,1,.36,0h.49a1.89,1.89,0,0,1,.7.17,4.76,4.76,0,0,1,.9.58,5.94,5.94,0,0,1,1.2,1.44c.72,1,1.49,1.93,2.31,2.84s1.63,1.73,2.46,2.48a15.18,15.18,0,0,0,2.44,1.77c.32.18.66.35,1,.5a3.78,3.78,0,0,0,.82.2,2.22,2.22,0,0,0,1.78-.56,8.14,8.14,0,0,0,2-2.52A6.49,6.49,0,0,1,138,81.6a5.38,5.38,0,0,1,.9-.82c.19-.13.41-.25.62-.39a2.49,2.49,0,0,1,1.4-.25Z"/><path class="cls-16" d="M129.86,67.13a14.61,14.61,0,1,0,9.22-18.49h0A14.61,14.61,0,0,0,129.86,67.13Z"/><path class="cls-17" d="M167,98.55c-1.23,4.23-3.14,12.47-1.65,17.21,2.32,7.34,11.46,13.75,15.7,16-2.67-4.59-3.65-8.16-2.63-10.55.33-.76,1.4,2.14,3.88,2.94a12.53,12.53,0,0,1,0-5.84c.32-2.11.4-6-.74-8.34-3.62-7.57-11.08-11.29-12.63-12.24Z"/><path class="cls-18" d="M167,98.55c-.69,1.8-1.7,8.51-.32,11.82s8,7.42,10.83,10.94c-.33-3.39-1-4.63-.29-7.39s.66-3.17.44-4.8-2.67-5.19-5.27-8c-2.73-3-3.46-3.36-3.46-3.36Z"/><path class="cls-19" d="M167,98.55c-.43,2.21-.65,8.5,1.09,10.4s3.36,1.6,6.35,4.35c.21-1.34-1.57-3.69-.77-5.06.71.8.92,1.4,2,1.82-.76-1.28-.54-2.86-1.1-4.62-.64-2.06-2.4-3.51-3.72-5a12.8,12.8,0,0,1-1.88-2.68Z"/><path class="cls-20" d="M168,99.62c-3.52,1.41-6.7,1.75-7.09.75l.72,1.8c.39,1,3.57.65,7.09-.76s6.05-3.36,5.65-4.35l-.72-1.79C174.11,96.26,171.58,98.21,168,99.62Z"/><path class="cls-20" d="M168.93,101.78c-2.65,1.06-5,1.32-5.34.57l.54,1.35c.3.75,2.69.49,5.34-.57s4.56-2.52,4.26-3.27l-.55-1.36C173.48,99.25,171.58,100.72,168.93,101.78Z"/><path class="cls-21" d="M153.57,77.35a47.64,47.64,0,0,0,3.76,16.7l2.54,6.35A32.44,32.44,0,0,0,167.81,99a32.89,32.89,0,0,0,6.7-4.38s-.94-2.71-2.45-6.46a47.16,47.16,0,0,0-8.95-14.61A21.56,21.56,0,0,1,158.63,76,20.62,20.62,0,0,1,153.57,77.35Z"/><path class="cls-22" d="M155.63,68.48c-.83.34-2.16,3.44-2.06,8.84A20.56,20.56,0,0,0,158.63,76a21.56,21.56,0,0,0,4.48-2.43C159.51,69.69,156.43,68.17,155.63,68.48Z"/><path class="cls-20" d="M167.08,97.18c-4.08,1.63-7.77,2-8.23.88l.84,2.08c.46,1.15,4.14.76,8.23-.88s7-3.89,6.56-5l-.84-2.09C174.1,93.28,171.17,95.54,167.08,97.18Z"/><path class="cls-23" d="M173.66,95.92a11.41,11.41,0,0,1-1.7,1.3,1.11,1.11,0,0,0,.1.29A5.28,5.28,0,0,0,173.66,95.92Z"/><path class="cls-23" d="M173.11,99.06l-.44.32a.84.84,0,0,1,.05.17A3,3,0,0,0,173.11,99.06Z"/><path class="cls-24" d="M172,97.51c.21.63.42,1.25.61,1.87l.44-.32a.65.65,0,0,0,.1-.57l.15.37c.85-.71,1.28-1.36,1.1-1.81l-.55-1.39-.25.26A5.28,5.28,0,0,1,172,97.51Z"/><path class="cls-24" d="M173.11,99.06a3,3,0,0,1-.39.49c.16.48.3,1,.45,1.44.47-.45.7-.85.59-1.15l-.4-1-.15-.37A.66.66,0,0,1,173.11,99.06Z"/><path class="cls-25" d="M170.1,92.21c.39,1,.76,1.92,1.11,2.87,1.58-1,2.55-2,2.51-2.75-.42-1.11-1-2.55-1.63-4.2a47.23,47.23,0,0,0-9-14.6,20.65,20.65,0,0,1-2.2,1.36A84.67,84.67,0,0,1,170.1,92.21Z"/><path class="cls-26" d="M163.14,73.53c-3.6-3.86-6.68-5.38-7.48-5.06a.93.93,0,0,0-.33.26,29.35,29.35,0,0,1,5.61,6.16A20.65,20.65,0,0,0,163.14,73.53Z"/><path class="cls-24" d="M171.21,95.08c.26.72.51,1.43.75,2.14a11.41,11.41,0,0,0,1.7-1.3l.25-.26a2.35,2.35,0,0,0,.63-1.06h0a.81.81,0,0,0,0-.38l-.84-2.09a.79.79,0,0,1,.05.22C173.76,93,172.79,94.05,171.21,95.08Z"/><path class="cls-17" d="M154.15,103.12c-1.57,4.13-4.11,12.19-3,17,1.73,7.5,10.34,14.62,14.38,17.2-2.29-4.79-3-8.42-1.78-10.72.38-.74,1.22,2.24,3.63,3.23a12.74,12.74,0,0,1,.46-5.82c.49-2.08.87-5.93-.07-8.37-3-7.83-10.16-12.13-11.63-13.2Z"/><path class="cls-18" d="M154.15,103.12c-.83,1.74-2.37,8.35-1.25,11.76s7.39,8,9.93,11.76c-.06-3.4-.67-4.7.3-7.39s.91-3.11.81-4.75-2.25-5.38-4.62-8.41c-2.49-3.19-3.18-3.62-3.18-3.62Z"/><path class="cls-19" d="M154.15,103.12c-.61,2.18-1.32,8.43.26,10.46s3.23,1.86,6,4.83c.32-1.32-1.27-3.8-.36-5.1.64.85.8,1.47,1.81,2-.66-1.33-.32-2.9-.73-4.69-.48-2.1-2.12-3.69-3.32-5.3a13.14,13.14,0,0,1-1.66-2.82Z"/><path class="cls-20" d="M155.15,104.27c-3.62,1.13-6.81,1.22-7.13.2l.58,1.85c.31,1,3.51.93,7.13-.2s6.29-2.87,6-3.89l-.6-1.88C161.45,101.4,158.77,103.15,155.15,104.27Z"/><path class="cls-20" d="M155.84,106.5c-2.72.85-5.13.91-5.37.15l.44,1.39c.24.77,2.64.7,5.37-.15s4.74-2.16,4.5-2.93l-.44-1.39C160.58,104.35,158.57,105.65,155.84,106.5Z"/><path class="cls-21" d="M142.46,80.91a47.45,47.45,0,0,0,2.43,17c1.17,3.75,2,6.53,2,6.53a32.1,32.1,0,0,0,8-.78,33.78,33.78,0,0,0,7-3.84S161.16,97,160,93.19a47.24,47.24,0,0,0-7.77-15.27,21.55,21.55,0,0,1-9.72,3Z"/><path class="cls-22" d="M145.21,72.26c-.85.27-2.42,3.25-2.75,8.65a20.6,20.6,0,0,0,5.15-1,21.36,21.36,0,0,0,4.66-2.07C149,73.76,146,72,145.21,72.26Z"/><path class="cls-20" d="M154.37,101.77c-4.2,1.31-7.91,1.41-8.28.22l.67,2.15c.37,1.18,4.08,1.08,8.28-.23s7.3-3.33,6.93-4.51l-.66-2.15C161.67,98.43,158.57,100.46,154.37,101.77Z"/><path class="cls-23" d="M161,101a11.66,11.66,0,0,1-1.79,1.16,1.63,1.63,0,0,0,.07.3A5.38,5.38,0,0,0,161,101Z"/><path class="cls-23" d="M160.23,104.12l-.46.28v.17A2.45,2.45,0,0,0,160.23,104.12Z"/><path class="cls-24" d="M159.3,102.49c.16.64.32,1.28.47,1.91l.46-.28a.7.7,0,0,0,.15-.57l.11.38c.91-.63,1.39-1.25,1.24-1.71l-.44-1.43L161,101A5.38,5.38,0,0,1,159.3,102.49Z"/><path class="cls-24" d="M160.23,104.12a2.61,2.61,0,0,1-.43.45c.12.5.23,1,.33,1.48.51-.41.78-.8.68-1.1l-.32-1-.11-.38A.7.7,0,0,1,160.23,104.12Z"/><path class="cls-25" d="M157.77,97.05q.47,1.5.87,3c1.67-.9,2.71-1.84,2.72-2.55-.32-1.13-.76-2.61-1.29-4.3a46.94,46.94,0,0,0-7.77-15.27,21.67,21.67,0,0,1-2.3,1.18A85,85,0,0,1,157.77,97.05Z"/><path class="cls-26" d="M152.3,77.88C149,73.75,146,72,145.24,72.25a1,1,0,0,0-.35.23A29,29,0,0,1,150,79.06,21.22,21.22,0,0,0,152.3,77.88Z"/><path class="cls-24" d="M158.64,100c.21.74.4,1.47.59,2.19A11.66,11.66,0,0,0,161,101l.27-.24a2.3,2.3,0,0,0,.71-1h0a.81.81,0,0,0,0-.38l-.66-2.14a.74.74,0,0,1,0,.21C161.35,98.16,160.31,99.1,158.64,100Z"/></svg>