<?xml version="1.0" encoding="utf-8"?>
<!-- Generator: Adobe Illustrator 22.1.0, SVG Export Plug-In . SVG Version: 6.00 Build 0)  -->
<svg version="1.1" id="Layer_3" xmlns="http://www.w3.org/2000/svg" xmlns:xlink="http://www.w3.org/1999/xlink" x="0px" y="0px"
	 viewBox="0 0 251 151" style="enable-background:new 0 0 251 151;" xml:space="preserve">
<style type="text/css">
	.st0{fill:#5E3E21;}
	.st1{fill:#54371D;}
	.st2{fill:#6D3325;}
	.st3{fill:#783A28;}
	.st4{fill:#8F4729;}
	.st5{fill:#DCB680;}
	.st6{fill:#E84C59;}
	.st7{fill:#EE7B5C;}
	.st8{fill:#F9C862;}
	.st9{fill:#062633;}
	.st10{fill:#9F9F9F;}
	.st11{fill:#D3D2D2;}
	.st12{fill:none;}
	.st13{fill:#041D26;}
	.st14{fill:#6E6E6E;}
	.st15{fill:#C0C0C0;}
	.st16{fill:#ABAAAA;}
	.st17{fill:#E1DFE0;}
	.st18{opacity:0.1;}
	.st19{fill:#111212;}
	.st20{fill:#FDFDF4;}
	.st21{fill:#272022;}
	.st22{fill:#EFEDE8;}
	.st23{fill:#F3CEE3;}
	.st24{fill:#FBFBF5;}
	.st25{fill:#F0EDE9;}
	.st26{fill:#E694C1;}
	.st27{fill:#FAFAF5;}
	.st28{fill:#ECB7D6;}
	.st29{fill:#965F6C;}
	.st30{fill:#4C4C49;}
	.st31{fill:#B7B8B5;}
	.st32{fill:#898883;}
	.st33{fill:#0F100F;}
	.st34{fill:#121413;}
	.st35{fill:#121313;}
	.st36{fill:#080807;}
	.st37{fill:#282826;}
	.st38{fill:#593840;}
	.st39{fill:#794B55;}
	.st40{fill:#ECEDEC;}
	.st41{fill:#E3E3E3;}
	.st42{fill:#6B6C6E;}
	.st43{fill:#D3D5D4;}
	.st44{fill:#757676;}
	.st45{fill:#945866;}
</style>
<title>Kadi</title>
<path class="st0" d="M64.7,84c-3.1-0.2-3.5,1-3.5,1l0.8,1.9l0,0c0.4,1.1,1.2,2.5,1.7,4.1c1.2,3,2.2,6.2,3.5,5.6
	c1.7-0.7,2.1-4.1,0.7-7.4c-0.2-0.6-0.5-1.1-0.7-1.6c0.9-0.3,1.2-0.9,1.8-2c0,0-1.8-3.8-2.2-3.5C66.5,82.4,65.3,84.1,64.7,84z"/>
<path class="st1" d="M77.8,88c-3,0.5-3.2,1.6-3.2,1.6l1.2,1.7l0,0c0.6,1,1.7,2.3,2.5,3.7c1.7,2.7,3.4,5.6,4.5,4.8
	c1.6-1,1.3-4.4-0.8-7.4c-0.3-0.5-0.7-1-1.1-1.4c1-0.1,1.9-0.2,2.9-0.6c0,0-4.1-5.2-4.4-4.8C79.2,86.1,78.4,87.9,77.8,88z"/>
<path class="st2" d="M73.4,74.4c0.7,0.6,1.1,1.4,1.2,2.3c0,0.6,0,1.3,0,1.9c-0.1,1.3-0.2,2.5-0.3,3.8c-0.2,1.3-0.4,2.5-0.6,3.7
	L73.2,88c-0.1,0.3-0.2,0.6-0.2,0.9c-0.2,0.4-0.6,0.6-1.1,0.6l-11.8-3.3c-0.4-0.2-0.6-0.7-0.6-1.2c0.1-0.3,0.2-0.6,0.3-0.9l0.6-1.7
	c0.4-1.2,0.9-2.4,1.4-3.5s1.1-2.3,1.7-3.4c0.3-0.6,0.6-1.1,1-1.7c0.6-0.7,1.4-1.1,2.2-1.4L73.4,74.4z"/>
<path class="st3" d="M84.7,76.4c0.7,0.5,1.3,1.3,1.5,2.1c0.1,0.6,0.2,1.3,0.2,1.9c0.1,1.3,0.2,2.5,0.2,3.8s0,2.5-0.2,3.8l-0.2,1.9
	c0,0.3,0,0.6-0.1,1c-0.2,0.4-0.6,0.7-1,0.8l-12-1.7c-0.4-0.2-0.6-0.6-0.8-1c0-0.3,0.1-0.6,0.2-1l0.4-1.8c0.3-1.2,0.6-2.5,1-3.7
	s0.8-2.4,1.3-3.6c0.2-0.6,0.5-1.2,0.8-1.8c0.5-0.8,1.2-1.4,2.1-1.6L84.7,76.4z"/>
<path class="st0" d="M106.3,68.9c3.2-1.1,5.7-2.6,7.3-2.3s2.1,1.6,0.6,3.1c-1.4,1.5-2.5,4.1-3.4,4.4c-1.2,0.3-3.5,0.8-4.1,0.1
	c-0.6-0.7-1.9-4.8-1.9-4.8L106.3,68.9z"/>
<path class="st4" d="M91.3,70.1l0.1-0.6c0-0.1,0-0.2,0-0.2c1-10.2-0.9-19.5-13.6-21.6l0,0C65,45.7,58.9,57.5,57.5,72.4l0,0
	c-0.9,5.6,8.1,6.8,15.8,8c8.9,1.4,16,2.1,16.7-1.9l0.7-4.1C90.9,72.9,91.2,71.5,91.3,70.1z"/>
<path class="st4" d="M92.8,42.5c2.8,7.3-0.9,15.6-8.3,18.3c-7.3,2.8-15.6-0.9-18.3-8.3C63.4,45.3,67,37,74.4,34.2
	C81.7,31.5,90,35.1,92.8,42.5L92.8,42.5z"/>
<path class="st5" d="M83.5,59.7c0,0.6-0.1,0.9,0.1,1c-0.5-0.3-0.5-1-0.6-2.9c0-1.4,0.2-2.7,0.4-4.1c2.4-11.2,2.9-13,3.2-13.3
	c-0.1,0-0.2-0.3-0.6,0.2c0.4-2.1,1.2-4.1,2.1-6c-0.2-0.2-0.5,0-0.7,0c0.7-1.3,1-1.7,1.7-1.8c0.2,0,0.6,0,0.8,0.2
	c0-0.7,1.9-2.5,2.9-3C91.6,33,92,32.6,92,32.7s1-1.4,1.7-1.4c-0.2,0.2-0.4,0.6-0.6,0.9c0.8-0.5,1.8,0,2.5,1.5
	c-0.5-0.2-0.8,0.2-1,0.4c0.2,0.2,5-2.1-2,24.3c0.1-0.7,0.1-1.4-0.1-2.1c-0.1,1,0.4,3.3-1.5,5.7c-0.8,0.8-1.7,1.4-2.7,1.9
	c0.4-0.6,0.6-0.8,0.6-1c-0.1-0.2-1.4,1.1-2.9,1c0.4-0.4,0.7-0.9,1-1.4c-0.2,0.3-1.3,0.5-1.5,0.6C84.3,62.2,83.7,60.9,83.5,59.7z"/>
<path class="st3" d="M80.5,62.8c0.6-0.6,0.8-0.8,1-0.9s0.5-0.2,0.6-0.2c0.4-0.1,0.8-0.1,1.2-0.1c0.3,0,0.7,0.1,1,0.1
	c0.3,0.1,0.6,0.2,1,0.3c0.6,0.2,1.2,0.5,1.7,0.7s1.2,0.5,1.7,0.6c2.2,0.8,4.5,1.4,6.8,1.9c2.1,0.5,4.3,0.7,6.5,0.9l0.8,0.1h0.8
	c0.6,0,1,0,1.6,0c0.9-0.2,1.7,0.1,2.5,0.5c0.2,0.1,0.4,0.2,0.5,0.5l0.3,0.4c0.1,0.1,0.2,0.2,0.2,0.3v0.2l0.1,0.2
	c0,0.1,0,0.2,0.1,0.3l0.1,0.3l0.7,3.6v1c0,0.2,0,0.2-0.1,0.3l-0.2,0.5c-0.1,0.2-0.2,0.4-0.5,0.6c-0.3,0.2-0.6,0.5-1,0.6
	c-0.7,0.2-1.4,0.4-2.2,0.4c-0.7,0.1-1.5,0.1-2.2,0.1h-1.1l-1.1-0.1c-2.9-0.3-5.7-1-8.3-2.2c-2.5-1.1-5-2.5-7.3-4.1
	c-1.1-0.8-2.1-1.6-3.3-2.3c-0.2-0.2-0.6-0.4-0.8-0.6c-0.2-0.2-0.5-0.6-0.6-0.8c-0.2-0.3-0.4-0.6-0.5-1c-0.1-0.2-0.1-0.5-0.2-0.6
	C80.3,63.7,80.4,63.3,80.5,62.8L80.5,62.8z"/>
<path class="st6" d="M56.2,84.2c-3.5,2.5-10,7.8-11.7,12.4c-2.6,7.1,0.6,17.6,2.5,21.9c0.7-5.2,2.1-8.6,4.4-9.8
	c0.7-0.4-0.2,2.5,1.2,4.6c0.8-1.7,2-3.3,3.5-4.5c1.5-1.4,3.9-4.4,4.4-6.9c1.7-8.1-1.8-15.5-2.4-17.2L56.2,84.2z"/>
<path class="st7" d="M56.2,84.2c-1.6,1-6.4,5.6-7.4,9c-1,3.4,1.7,10.6,1.8,15.1c1.8-2.9,2-4.2,4.2-6c2.2-1.7,2.5-2.1,3.3-3.5
	c0.8-1.4,1-5.6,0.8-9.4c0-1.6-0.2-3.2-0.6-4.7L56.2,84.2z"/>
<path class="st8" d="M56.2,84.2c-1.7,1.4-5.6,6.3-5.4,8.7s1.7,3.3,2.3,7.2c1-1,1-3.8,2.5-4.4c-0.1,0.9,0.1,1.8,0.4,2.6
	c0.2-1.4,1.4-2.5,2-4.3c0.7-2,0.2-4.1,0.2-6.1c-0.1-1.1,0-2.1,0.2-3.3L56.2,84.2z"/>
<path class="st9" d="M56.4,85.6c-3.6-1-6.3-2.7-6-3.7l-0.6,1.8c-0.3,1,2.4,2.7,6,3.7c3.6,1,6.8,1,7,0l0.6-1.8
	C63.1,86.7,60,86.7,56.4,85.6z"/>
<path class="st9" d="M55.7,87.8c-2.7-0.8-4.7-2-4.5-2.8l-0.4,1.4c-0.2,0.8,1.8,2,4.5,2.8c2.7,0.8,5.1,0.8,5.3,0l0.4-1.4
	C60.8,88.6,58.4,88.6,55.7,87.8z"/>
<path class="st10" d="M58.6,59.5c-3.3,4.6-5.7,9.8-7.2,15.2c-1,3.7-1.8,6.4-1.8,6.4c2.1,1.5,4.5,2.8,7,3.7c2.6,0.6,5.2,0.7,7.9,0.6
	c0,0,0.9-2.7,2-6.5c1.7-5.4,2.3-11.1,1.9-16.8C64.9,62.2,61.5,61.2,58.6,59.5z"/>
<path class="st11" d="M65.6,53.9c-0.9-0.2-3.7,1.4-7,5.6c2.9,1.7,6.3,2.7,9.7,2.9C67.8,57.2,66.4,54.2,65.6,53.9z"/>
<path class="st9" d="M57.1,83.2c-4.1-1.2-7.3-3.1-6.9-4.3l-0.6,2.1c-0.4,1.2,2.8,3.1,6.9,4.4s7.8,1.2,8.2,0l0.6-2.1
	C65,84.3,61.3,84.3,57.1,83.2z"/>
<path class="st12" d="M63,86.2c-0.7,0.1-1.4,0.1-2.1,0l-0.1,0.2C61.5,86.5,62.3,86.4,63,86.2z"/>
<path class="st12" d="M60.7,88.2h-0.6L60,88.4C60.3,88.4,60.4,88.3,60.7,88.2z"/>
<path class="st13" d="M60.7,86.4l-0.6,1.8h0.6c0.2-0.1,0.3-0.2,0.5-0.4l-0.1,0.4c1,0,1.8-0.3,2-0.7l0.4-1.4h-0.3
	C62.3,86.4,61.5,86.5,60.7,86.4z"/>
<path class="st13" d="M60.7,88.2c-0.2,0.1-0.4,0.2-0.6,0.2l-0.6,1.4c0.6-0.1,1-0.2,1.2-0.6l0.3-1l0.1-0.4
	C61,88.1,60.8,88.2,60.7,88.2z"/>
<path class="st14" d="M62.5,81.1c-0.3,1-0.6,2-0.9,2.9c1.8,0.2,3.2,0,3.7-0.6c0.3-1.1,0.8-2.5,1.3-4.2c1.6-5.4,2.2-11.1,1.8-16.8
	c-0.9,0-1.7-0.2-2.5-0.2C65.4,68.5,64.3,75,62.5,81.1z"/>
<path class="st15" d="M68.3,62.4c-0.5-5.2-1.9-8.3-2.7-8.5c-0.2,0-0.3,0-0.4,0c0.6,2.7,0.9,5.4,0.7,8.2
	C66.6,62.3,67.5,62.4,68.3,62.4z"/>
<path class="st13" d="M61.5,84c-0.2,0.7-0.5,1.4-0.7,2.1c0.7,0.1,1.4,0.1,2.1,0h0.3c0.4-0.1,0.8-0.2,1.1-0.5l0,0
	c0.1-0.1,0.2-0.2,0.2-0.3l0.6-2.1c0,0.1,0,0.2-0.1,0.2C64.8,84,63.4,84.2,61.5,84z"/>
<path class="st6" d="M61.1,86.9c-3.5,2.6-9.8,8-11.4,12.6c-2.5,7.1,1,17.6,3,21.8c0.6-5.2,1.9-8.6,4.1-9.8c0.7-0.4-0.2,2.5,1.4,4.6
	c0.8-1.8,2-3.3,3.5-4.6c1.5-1.5,3.8-4.4,4.3-7c1.6-8.1-2.1-15.4-2.8-17.1L61.1,86.9z"/>
<path class="st7" d="M61.1,86.9c-1.6,1-6.4,5.7-7.1,9.1c-0.8,3.4,2,10.6,2.1,15c1.7-2.9,1.9-4.3,4.1-6c2.2-1.7,2.4-2.1,3.1-3.6
	c0.7-1.4,1-5.6,0.6-9.5c-0.1-1.6-0.3-3.2-0.8-4.7L61.1,86.9z"/>
<path class="st8" d="M61.1,86.9c-1.7,1.5-5.5,6.4-5.2,8.9c0.2,2.5,1.7,3.3,2.5,7.1c1-1,1-3.8,2.4-4.4c-0.1,0.9,0.1,1.8,0.5,2.6
	c0.2-1.4,1.3-2.6,1.8-4.3c0.7-2,0.2-4.1,0-6.1c-0.1-1.1-0.1-2.1,0.1-3.3L61.1,86.9z"/>
<path class="st9" d="M61.4,88.3c-3.6-1-6.4-2.5-6-3.6l-0.5,1.8c-0.2,1,2.5,2.6,6,3.6c3.6,1,6.8,0.9,7-0.2l0.5-1.8
	C68.1,89.2,65,89.3,61.4,88.3z"/>
<path class="st9" d="M60.8,90.5c-2.7-0.7-4.8-1.9-4.6-2.7l-0.3,1.4c-0.2,0.8,1.8,2,4.5,2.7c2.7,0.7,5.1,0.7,5.3-0.1l0.4-1.4
	C65.9,91.2,63.5,91.3,60.8,90.5z"/>
<path class="st16" d="M63,62.2c-3.2,4.7-5.5,9.9-6.8,15.5c-1,3.7-1.7,6.5-1.7,6.5c2.2,1.5,4.6,2.7,7.1,3.6c2.6,0.5,5.2,0.6,7.9,0.5
	c0,0,0.8-2.7,1.8-6.5c1.5-5.5,2.1-11.1,1.5-16.8c-1.7,0-3.3-0.2-4.9-0.7C66.1,63.7,64.5,63.1,63,62.2z"/>
<path class="st17" d="M69.8,56.4c-0.9-0.2-3.7,1.4-6.8,5.8c1.5,0.9,3.1,1.5,4.8,1.9c1.6,0.4,3.3,0.6,4.9,0.7
	C72.2,59.7,70.7,56.6,69.8,56.4z"/>
<path class="st9" d="M62.1,85.9c-4.1-1.1-7.3-2.9-7-4.1l-0.6,2.1c-0.3,1.2,2.9,3,7,4.1s7.9,1,8.2-0.2l0.6-2.1
	C69.9,86.9,66.2,87,62.1,85.9z"/>
<path class="st12" d="M68,88.6c-0.7,0.1-1.4,0.1-2.1,0L65.8,89C66.5,89,67.3,89,68,88.6z"/>
<path class="st12" d="M65.7,90.9h-0.6V91C65.4,91,65.5,90.9,65.7,90.9z"/>
<path class="st13" d="M65.8,89c-0.2,0.6-0.4,1.3-0.6,1.8h0.6c0.2-0.1,0.3-0.2,0.4-0.4l-0.1,0.4c1,0,1.8-0.3,1.9-0.8l0.4-1.4
	l-0.3,0.1C67.3,89,66.6,89.1,65.8,89z"/>
<path class="st13" d="M65.7,90.9c-0.2,0.1-0.4,0.2-0.6,0.2l-0.5,1.4c0.6-0.1,1-0.2,1.1-0.6l0.2-1l0.1-0.4
	C66.1,90.6,65.9,90.8,65.7,90.9z"/>
<path class="st14" d="M67.3,83.6c-0.2,1-0.6,2-0.8,2.9c1.8,0.1,3.2-0.2,3.6-0.7c0.3-1.1,0.7-2.6,1.2-4.3c1.5-5.5,2.1-11.2,1.5-16.8
	c-0.9,0-1.7-0.1-2.5-0.2C70,71.1,69.1,77.4,67.3,83.6z"/>
<path class="st15" d="M72.8,64.8c-0.6-5.2-2.1-8.2-2.9-8.3c-0.2,0-0.3,0-0.4,0c0.6,2.7,1,5.4,0.8,8.2C71.1,64.7,71.9,64.8,72.8,64.8
	z"/>
<path class="st13" d="M66.5,86.6c-0.2,0.7-0.5,1.4-0.6,2.1c0.7,0.1,1.4,0.1,2.1,0h0.3c0.4-0.1,0.8-0.2,1.1-0.5l0,0
	c0.1-0.1,0.2-0.2,0.2-0.3l0.6-2.1c0,0.1-0.1,0.2-0.1,0.2C69.8,86.5,68.4,86.7,66.5,86.6z"/>
<g class="st18">
	
		<image style="overflow:visible;opacity:0.75;enable-background:new    ;" width="64" height="64" xlink:href="750595B269278789.png"  transform="matrix(1.1225 0 0 1.1225 124.0788 75.1577)">
	</image>
	<path class="st19" d="M142.3,124.6c0.2,0,0.5-0.1,0.7-0.2l-0.3,1.3c-0.1,0.2-0.2,0-0.3,0c-0.7,0-1.3,0.5-1.4,1.2
		c-0.2,0.5-0.4,1-0.8,1.4c-0.2,0.3-0.6,0.3-0.9,0.6c-0.2,0.2-0.4,0.4-0.6,0.7c-0.2,0.3-0.3,0.6-0.4,0.9c-0.2,0.5-0.2,1,0,1.5
		c0.3,0.4,0.7,0.7,1.2,0.8c0.3,0,0.6-0.1,0.7-0.3c0.7-0.7,1.5-1.2,2.1-1.9c0.1-0.2,0.3-0.3,0.5-0.4c0.2-0.2,0.4-0.2,0.6-0.1
		c0.4,0.2,0.9,0.3,1.4,0.1h0.2h0.1c0.3-0.1,0.5-0.3,0.6-0.6c-0.1-0.2-0.3,0-0.4,0c-0.4,0.2-0.9,0.2-1.3,0.2
		c-0.8-0.2-1.4-0.8-1.7-1.5c0-0.1,0-0.3-0.1-0.3s-0.1,0.2-0.1,0.3c0,0.4,0.1,0.8,0.4,1.1c0.2,0.3,0.2,0.3-0.1,0.5
		c-0.5,0.3-0.9,0.8-1.3,1.2c-0.1,0.1-0.2,0.2-0.4,0.3c-0.3,0.1-0.5,0.3-0.7,0.6c-0.1,0.1-0.2,0.2-0.4,0.3c-0.1,0.1-0.3,0.1-0.4,0
		c-0.1-0.1-0.1-0.2-0.2-0.2c-0.4-0.1-0.5-0.4-0.6-0.7c-0.1-0.2,0-0.3,0.1-0.5c0.1-0.1,0.3-0.2,0.5-0.1c0.2,0.1,0.3,0,0.3-0.1
		s0.2-0.5,0.2-0.7h-0.1l0,0c-0.1,0.1-0.2,0.2-0.2,0.4s-0.1,0.2-0.3,0.2s-0.2,0-0.3,0c0.1-0.2,0.2-0.3,0.4-0.4c0.1,0,0.3-0.1,0-0.2
		c-0.3-0.1,0-0.1,0-0.2c0.2-0.3,0.4-0.4,0.7-0.5c0.2,0,0.4-0.2,0.5-0.3c0.2-0.2,0.3-0.5,0.5-0.7c0.2-0.3,0.3-0.5,0.4-0.9
		c0.1-0.3,0.2-0.6,0.4-0.8c0.2-0.2,0.5-0.3,0.7-0.1l0,0c0.3,0.2,0.3,0.1,0.5-0.2c0.1-0.4,0.2-0.7,0.3-1.1c0.1-0.5,0.2-1,0.4-1.5
		c0-0.1,0.1-0.2,0-0.3c-0.1-0.1-0.2,0.1-0.3,0.1c-0.2,0.1-0.4,0.3-0.5,0.5c-0.2,0.3-0.6,0.4-0.9,0.2c-0.1-0.1-0.2-0.2-0.2-0.3
		l-0.1-0.1c-0.1-0.1-0.3-0.1-0.3-0.3c0-0.3,0-0.5,0.1-0.8c0,0,0,0,0-0.1c0.1,0,0.1-0.2,0.2-0.1c0.1,0.1,0,0.2,0,0.2l-0.1,0.1
		c-0.1,0.1-0.1,0.2,0.1,0.2l0,0c0.3,0,0.3,0,0.2,0.3s-0.1,0.1,0,0.2s0.1,0,0.2,0c0.2-0.1,0.3-0.1,0.5-0.2c0.1-0.1,0.3-0.3,0.2-0.5
		v-0.1c0.2-0.3,0.1-0.7-0.2-0.9c-0.1-0.1-0.1-0.2,0-0.3h0.1c0.5-0.2,0.7-0.7,1.1-1c0.1-0.1,0.2-0.2,0.2-0.3c0-0.1,0.1-0.2,0.1-0.3
		c0-0.1,0.1-0.2,0.2-0.2c0.1,0.1,0.1,0.2,0.1,0.3c-0.1,0.9-0.3,1.8-0.5,2.7c0,0.1,0,0.2,0,0.3c0,0.1,0,0.1,0,0.2s0.1,0,0.2-0.1
		c0-0.1,0.1-0.1,0.1-0.2s0.2-0.2,0.3-0.2c0.2,0,0.3-0.1,0.4-0.2c0.1-0.1,0.1-0.2,0.1-0.4c0-1.1-0.1-2.2-0.3-3.3l0,0
		c0-0.6,0-1.2-0.2-1.7c0-0.1,0-0.3,0.1-0.4c0.2-0.7,0.6-1.4,1.2-1.9c0.2-0.1,0.3-0.3,0.4-0.4c-0.4,0.3-0.7,0.8-0.8,1.2
		c0,0.1,0,0.1,0,0.2s0,0.3,0.1,0.3c0.1,0.1,0.2,0.1,0.3,0c0.2-0.2,0.4-0.3,0.7-0.4c0.1-0.1,0.2-0.2,0.3-0.3c0.2-0.4,0.5-0.7,0.6-1.1
		c0.3-0.7,0.8-1.4,1.3-1.9c0.4-0.5,0.9-0.9,1.3-1.3c-0.1,0.2-0.3,0.3-0.4,0.5c-0.1,0.1-0.2,0.2-0.3,0.3c-0.4,0.3-0.7,0.7-0.9,1.1
		c-0.2,0.3-0.1,0.8,0.2,1c0.1,0.1,0.1,0.1,0,0.2s-0.1,0.3-0.1,0.4s0,0.1,0,0.2c0.1,0.1,0.2,0.1,0.2,0c0.1,0,0.1-0.1,0.2-0.2
		c0.1,0-0.1,0.2,0,0.3c0.1,0.1,0.2-0.1,0.2-0.2c0.1-0.2,0.3-0.5,0.5-0.6c0.3-0.1,0.5-0.4,0.4-0.7c0-0.6,0.3-1.2,0.9-1.6
		c0.1-0.1,0.2-0.2,0.2-0.4c0-0.2,0.1-0.3,0.2-0.4c0.2-0.1,0.3-0.3,0.2-0.5l0,0c-0.1-0.4,0-0.8,0.3-1c0.7-0.5,1.4-1,2-1.6
		c0.2-0.2,0.4-0.5,0.6-0.8c0.2-0.3,0.3-0.7,0.5-1.1c0.4-0.9,1-1.6,1.8-2.1c0.1,0,0.1-0.1,0.2-0.2s-0.1-0.1-0.1-0.1
		c-0.2,0-0.4,0-0.6-0.1c-0.7-0.2-1.5-0.4-2.2-0.4c-0.8-0.1-1.6-0.4-2.3-0.8c-0.6-0.3-1.1-0.6-1.5-1.1c-0.6-0.6-0.6-1.5-0.1-2.1
		c0.1-0.2,0.3-0.3,0.5-0.4c0.6-0.3,1.2-0.6,1.9-0.8c1.2-0.4,2.3-0.8,3.4-1.4l0.3-0.2c0.2-0.1,0.3-0.3,0.3-0.5c0-0.4,0-0.8,0-1.3
		c0-0.1,0-0.1-0.1-0.2c-0.1,0.1-0.2,0.1-0.3-0.1v-0.1c-0.3-0.6-0.8-1.1-1.4-1.5c-0.4-0.3-0.8-0.8-1-1.2c-0.1-0.1-0.1-0.2-0.1-0.3
		c-0.1-0.5,0.1-0.7,0.6-0.7s1,0.1,1.5,0.3c0.6,0.2,1.3,0.6,1.8,0.9c0.1,0.1,0.1,0.2,0,0.3c-0.2,0.2-0.3,0.4-0.5,0.6
		c0,0-0.1,0.1,0,0.2c0.1,0,0.1,0,0.1,0c0.3-0.4,0.7-0.8,1.1-1.1c0.4-0.4,0.9-0.8,1.4-1.1c0.4-0.3,0.9-0.5,1.4-0.6
		c0.3,0,0.4-0.2,0.7-0.4c0.1-0.1,0.2-0.1,0.3-0.1l0,0c-0.1,0-0.2,0-0.2,0.1c-0.3,0.2-0.3,0.2,0,0.5c0,0.1,0,0.1,0,0.2s0,0.2,0.1,0.2
		c0.2,0,0.4-0.1,0.6-0.2c0.2-0.1,0.5-0.1,0.8-0.1c0.2-0.1,0.5-0.2,0.5-0.5c-0.1-0.1-0.2,0-0.3,0.1s-0.3,0.2-0.3-0.1
		c0-0.1-0.1-0.1-0.2-0.1l0,0c0.4-0.1,0.7-0.1,1.1,0c0.1,0,0.3,0,0.4,0c0.4-0.1,0.7-0.2,1.1-0.3c0.5-0.1,1,0,1.4,0.3s0.8,0.7,1,1.1
		c0.2,0.3,0.1,0.7-0.1,0.9c0.1,0,0.1-0.1,0-0.2s-0.2-0.1-0.3-0.2s-0.2-0.1-0.3-0.2c-0.6-0.1-1.1-0.2-1.7-0.5c-0.1,0-0.3-0.2-0.4,0
		c-0.1,0.2,0.2,0.2,0.3,0.2l0.6,0.3c0.5,0.2,0.6,0.4,0.6,1c0,0.4,0,0.4,0.1,0.6c-0.1-0.1-0.1-0.3-0.1-0.5c0,0,0-0.2-0.1-0.1
		c-0.1,0.2-0.1,0.4,0,0.5c0.1,0.3,0.3,0.6,0.4,0.9c0.4,1,0.3,2.2-0.3,3.1c-0.2,0.4-0.6,0.7-1,0.9c0.1,0.1,0.1,0.1,0.4,0.1
		c-0.3,0.3-0.5,0.7-0.8,1c-0.1,0.1-0.2,0.2-0.3,0.4c0,0-0.3,0.2,0.1,0.2c0.1,0,0,0.1,0,0.2c0,0.3,0.2,0.5,0.5,0.4
		c0.1,0,0.1,0,0.1-0.1s-0.1-0.1-0.1-0.1c-0.3-0.1-0.2-0.3-0.2-0.5s0.2-0.3,0.3-0.3l0,0c0.6-0.1,1.1-0.3,1.5-0.7
		c0.1-0.1,0.2-0.1,0.2-0.2s0.1-0.2-0.1-0.2c-0.2,0.2-0.4,0.3-0.6,0.4c-0.1,0.1-0.3,0.1-0.4,0.3c-0.1,0.1-0.2,0.1-0.3,0
		s0-0.2,0.1-0.2s0.1-0.1,0.1-0.2c0-0.2,0.1-0.2,0.3-0.2c0.2,0.1,0.2,0,0.3-0.1c0-0.1,0-0.1,0.1-0.1c0.3-0.1,0.2-0.3,0.1-0.4
		c-0.1-0.2-0.1-0.2,0.2-0.2s0.2,0,0.2-0.1s0.1-0.1,0.1,0c0.1,0.1,0,0.1,0,0.1s-0.2,0.3,0,0.4c0.1-0.2,0.3-0.4,0.2-0.7
		c0-0.1,0-0.1,0.1-0.2c0.4-0.6,0.9-1.1,1.2-1.7c0.2-0.3,0.3-0.6,0.4-1c0.1-0.2,0.2-0.4,0.3-0.6c0.4-0.4,0.7-0.9,1-1.3
		c0-0.1,0.1-0.1,0.2,0c0.1,0.1,0.2,0.2,0.3,0.3c0.1,0.5,0.2,1.1,0.1,1.6c-0.1,0.4-0.3,0.8-0.3,1.3c-0.3,0.9-0.7,1.7-1.2,2.4
		c-0.4,0.6-0.7,1.2-1.1,1.8c0,0.1,0,0.2,0,0.3c0.4-0.4,0.7-0.8,1-1.3c0,0.9-0.1,1.8-0.2,2.7c-0.1,0.3,0,0.5,0.2,0.7
		c0.5,0.5,0.9,1.1,1.2,1.8c0.1,0.1,0.1,0.3,0.2,0.2s0-0.2,0-0.3c-0.3-0.6-0.6-1.2-1-1.7c0-0.1-0.1-0.1-0.1-0.2
		c-0.1-0.1-0.2-0.2-0.1-0.4c0.1-0.3,0.1-0.7,0.1-1c0-0.2,0.1-0.2,0.3-0.2c0.3,0.1,0.6,0.2,0.8,0.5c0.1,0.1,0.2,0.2,0.3,0.1
		c1.3-0.3,2.5-0.5,3.8-0.7c1-0.2,2-0.7,2.8-1.4c0.8-0.8,1.7-1.4,2.7-1.8c0.1-0.1,0.3-0.1,0.4-0.1c-0.3,0.1-0.6,0.3-0.9,0.4
		c-0.2,0.1-0.4,0.3-0.7,0.4c-0.1,0-0.2,0.1-0.1,0.2c0.1,0.1,0.1,0,0.2,0c0.5-0.3,1.1-0.5,1.7-0.7c0.1,0,0.2,0,0.3,0
		c-0.1,0.1-0.1,0.3,0,0.4c0,0.1,0,0.3,0,0.4c0,0.2-0.2,0.3-0.3,0.3c-0.4,0-0.9,0.1-1.3,0.3c-0.2,0.1-0.3,0.2-0.5,0.3
		c-0.1,0-0.1,0.1-0.1,0.2s0.1,0,0.2,0c0.5-0.1,1-0.2,1.5-0.2c0.2-0.1,0.5-0.1,0.7,0c-0.3,0.2-0.2,0.4-0.3,0.6c0,0.4-0.3,0.8-0.7,0.9
		c-0.6,0.1-1.1,0.3-1.6,0.6c-0.2,0.1-0.4,0.1-0.6,0c-0.1,0-0.2,0-0.2,0.1s0.1,0.1,0.2,0.1h0.1c0.1,0,0.3,0.1,0.3,0.2
		c0,0.2-0.1,0.2-0.3,0.3c-0.3,0.1-0.5,0.2-0.8,0.2c-0.1,0-0.3,0.1-0.4,0.2c-0.4,0.4-0.9,0.6-1.4,0.7c-0.4,0.1-0.8,0.3-1.1,0.5
		l-1.4,0.8c-0.1,0.1-0.2,0.1-0.3,0.1c-0.1-0.1,0-0.2,0-0.3c0-0.6-0.2-1.2-0.6-1.6c-0.1-0.1-0.1-0.2-0.2-0.3
		c-0.2-0.2-0.4-0.3-0.5-0.5s-0.3-0.3-0.5-0.3c0.1,0.3,0.2,0.5,0.4,0.8c0.7,0.8,1,1.9,0.8,2.9c-0.1,0.7-0.1,1.4,0,2
		c0,0.2,0.1,0.5,0.2,0.7c0.1,0.1,0.1,0.3-0.1,0.4c-0.9,1-1.5,2.1-1.8,3.4c0,0.2-0.2,0.3-0.3,0.4c-0.9,0.3-1.8,0.7-2.7,1.1
		c-0.4,0.2-0.8,0.4-1.1,0.7c-0.1,0-0.2,0.1-0.1,0.2c0,0.1,0.2,0,0.2,0c1.1-0.5,2.2-0.9,3.3-1.3c0.4-0.2,0.9-0.2,1.4-0.2l2.3-0.1
		c0.7-0.1,1.3-0.3,1.9-0.6c0.3-0.2,0.7-0.2,1-0.1c0.2,0,0.3,0,0.5,0c0.7-0.2,1.4-0.2,2-0.1c0.3,0,0.5,0.2,0.7,0.4
		c-0.2,0-0.4-0.1-0.6-0.1c-0.3-0.1-0.6-0.1-0.9-0.1c-0.1,0-0.3,0-0.3,0.1s0.2,0.1,0.3,0.1c0.5,0,1,0.1,1.4,0.3
		c0.2,0.1,0.4,0.2,0.5,0.5s-0.5,0.4-0.7,0.4c-0.1,0-0.3-0.1-0.4-0.1c-0.3-0.1-0.7-0.2-1.1-0.1c-0.1,0-0.2,0-0.3,0.1v0.1
		c0.1,0.1,0.3,0.1,0.4,0.1c0.6,0.1,1.1,0.3,1.6,0.6c0.3,0.2,0.3,0.2,0.1,0.4c-0.1,0.1-0.1,0.2-0.1,0.3c-0.2,0.4-0.4,0.7-0.7,1
		c-0.2,0.1-0.3,0.1-0.4-0.1c-0.3-0.5-0.7-0.8-1.3-1h-0.1c-0.1,0-0.3-0.1-0.3,0s0.1,0.1,0.2,0.2c0.5,0.2,0.9,0.6,1.1,1.1
		c0.1,0.1,0.1,0.3-0.2,0.2c-0.2-0.1-0.2,0-0.2,0.1c-0.2,0.8-0.9,0.7-1.4,0.4c-0.3-0.2-0.6-0.2-0.9-0.2c-0.4,0-0.9,0-1.3-0.2
		c-0.2-0.1-0.4-0.1-0.5,0c-0.4,0.4-1.1,0.4-1.5,0c-0.1-0.1-0.3-0.1-0.4,0l-1.4,0.7c-0.1,0-0.2,0.1-0.1,0.2c0,0.1,0.1,0,0.2,0
		c0.3-0.1,0.7-0.2,1.1-0.3c0.1,0,0.2-0.1,0.3-0.1s0.1,0,0.1,0s0,0.1-0.1,0.1c-1.1,0.8-2.4,1.5-3.7,2c-0.1,0-0.2,0.1-0.3,0.1
		c-0.2,0-0.4,0.1-0.6,0.3c-0.3,0.3-0.8,0.4-1.1,0.1c-0.1,0-0.1-0.1-0.2-0.2c-0.3-0.3-0.7-0.6-1.1-0.9c-0.4-0.4-0.8-0.8-1.1-1.3
		c-0.4-0.5-0.7-1.1-1.1-1.7c-0.1-0.1-0.1-0.2-0.3-0.3c0,0.1,0,0.1,0,0.2c0.4,0.8,0.8,1.6,1.2,2.4c0.1,0.1,0.1,0.2,0.2,0.3
		c0.2,0.2,0.2,0.2-0.1,0.4c-0.6,0.3-1.2,0.5-1.8,0.8c-1.2,0.5-2.4,1-3.6,1.6c-0.1,0-5.7,2.4-5.7,2.5s0.1,0.2,0.3,0.3
		c0.1,0,5.7-2.2,5.8-2.3l5.4-2.3c0.2-0.1,0.5-0.1,0.6,0.1c0.3,0.2,0.6,0.5,0.9,0.8c0.5,0.6,1.3,0.6,1.9,0.1l0,0
		c0.1-0.1,0.2-0.2,0.4-0.2c0.9-0.2,1.8-0.6,2.6-1.1c0.6-0.3,1.2-0.7,1.8-1.1c0.1-0.1,0.3-0.2,0.5-0.1c0.4,0,0.7-0.1,1-0.2
		c0.1-0.1,0.3-0.1,0.4,0c0.4,0.2,0.9,0.3,1.3,0.3c0.2,0,0.5,0,0.7,0.2c0.1,0.1,0.2,0.1,0.3,0.1c0.5,0.2,1,0.1,1.4-0.1l0.2-0.2
		l0.1-0.1c0.4,0,0.6-0.4,0.8-0.6c0.5-0.3,0.9-0.6,1.1-1.1c0.1-0.1,0.1-0.2,0.3-0.3c0.2-0.1,0.3-0.4,0.2-0.7c0-0.1-0.1-0.1-0.1-0.1
		c-0.2-0.3-0.2-0.3,0.1-0.4s0.5-0.5,0.1-1c-0.1-0.1-0.2-0.3-0.3-0.5c-0.1-0.3-0.3-0.4-0.6-0.6c-0.5-0.2-1-0.3-1.5-0.2
		c-0.3,0-0.6,0-0.8,0.1c-0.4,0.1-0.8,0.1-1.1,0c-0.2-0.1-0.4-0.1-0.6,0l-0.2,0.1c-1,0.5-2.1,0.7-3.2,0.7h-1.2c-0.1-0.1,0-0.1,0-0.2
		c0.3-1.1,0.9-2.1,1.6-2.9c0.3-0.3,0.4-0.8,0.2-1.1c-0.3-0.7-0.3-1.5-0.1-2.2c0-0.1,0.1-0.1,0.2-0.2c0.8-0.5,1.7-1,2.5-1.4
		c0.1-0.1,0.2-0.1,0.3-0.1c0.6-0.1,1.1-0.3,1.5-0.7c0.1-0.1,0.3-0.2,0.4-0.2c0.4,0,0.7-0.2,1-0.4c0.2-0.1,0.4-0.4,0.4-0.6
		c0-0.1,0.1-0.2,0.2-0.2c0.5-0.2,0.9-0.3,1.4-0.4c0.6-0.2,1-0.8,1-1.4c0-0.1,0.1-0.2,0.1-0.2c0.2-0.2,0.2-0.6-0.1-0.8l0,0
		c-0.1-0.1-0.1-0.1,0-0.2c0.1-0.2,0.1-0.4,0.1-0.6c0-0.1,0-0.2,0.1-0.3c0.2-0.2,0.1-0.5-0.1-0.7c-0.1,0-0.1-0.1-0.2-0.1h-0.1
		c-0.2-0.4-0.5-0.3-0.8-0.2c-1.1,0.4-2.1,0.9-2.9,1.7c-1,1-2.2,1.6-3.6,1.7c-0.9,0.1-1.8,0.3-2.8,0.5c-0.1,0-0.3,0-0.3-0.1
		c-0.3-0.2-0.6-0.4-0.9-0.4c-0.1,0-0.2-0.1-0.2-0.2c0-0.4,0-0.8,0-1.2c0-0.1,0-0.2,0.1-0.3c0.7-0.9,1.2-2,1.4-3.2
		c0-0.1,0.1-0.3,0.1-0.4c0.2-0.8,0.1-1.6-0.2-2.4c-0.1-0.2-0.3-0.4-0.5-0.4s-0.2-0.2-0.2-0.3c0.1-0.3,0.1-0.5,0-0.8
		c0-0.3-0.3-0.6-0.6-0.6c-0.1,0-0.2,0.1-0.3,0.1c-0.2,0.2-0.5,0.4-0.7,0.6l-0.6,0.5c-0.2-1.1-1-2-2.1-2.4c-0.3-0.1-0.6-0.1-0.9-0.1
		c-0.2,0-0.5,0.1-0.7,0.1c-0.4,0.2-0.9,0.3-1.4,0.2c-0.1,0-0.2,0-0.2,0c-0.4,0.1-0.8,0.1-1.2,0c-0.2,0-0.5,0-0.7,0.2
		c-0.2,0.1-0.5,0.2-0.7,0.3c-0.6,0.2-1.2,0.5-1.7,0.9c-0.4,0.2-0.7,0.5-1,0.8c-0.2,0.2-0.3,0.2-0.4,0c-0.9-0.6-1.9-1-2.9-1.1
		c-0.3-0.1-0.6,0-0.9,0.1c-0.4,0.1-0.6,0.5-0.6,0.9c0.1,0.6,0.3,1.1,0.7,1.4c0.4,0.4,0.9,0.8,1.3,1.2c0.2,0.1,0.3,0.3,0.3,0.4
		c0.1,0.1,0.1,0.3,0.2,0.4c0.4,0.4,0.2,0.9,0.3,1.3c0,0.1,0,0.1-0.1,0.1c-0.8,0.3-1.5,0.8-2.3,1.1c-0.6,0.2-1.2,0.3-1.8,0.6
		c-0.6,0.3-1.2,0.6-1.7,0.9s-0.8,0.9-0.6,1.5c0.2,0.8,0.6,1.5,1.3,1.9c0.6,0.4,1.2,0.8,1.9,1.1c0.5,0.3,1.2,0.4,1.8,0.4
		c0.5,0,1.1,0.1,1.5,0.3c-0.8,0.7-1.4,1.6-1.8,2.6c-0.3,0.6-0.8,1.1-1.4,1.5c-0.9,0.8-2,1.4-3,2.1c-0.5,0.3-0.9,0.7-1.3,1.2
		c-0.7,0.8-1.5,1.5-2.4,2c-0.9,0.6-1.6,1.3-2.2,2.2c-0.2,0.3-0.5,0.5-0.7,0.8c-0.5,0.7-0.4,1.7,0.2,2.4c0.1,0.1,0.3,0.2,0.3,0.3
		c-0.1,0.2-0.2,0.4-0.3,0.6c-0.3,0.3-0.6,0.6-0.9,0.9c-0.4,0.3-0.8,0.6-1,1.1c0,0.1-0.1,0.1-0.1,0.2c-0.1,0.1-0.2,0.3-0.3,0.4
		c-0.1,0.3,0,0.6-0.1,0.9c0,0.2,0.1,0.3,0.2,0.4c0.2,0.1,0.4,0.3,0.5,0.5C141.8,124.4,142,124.5,142.3,124.6z"/>
	<path class="st19" d="M145.7,129.6c-0.1,0.3-0.4,0.4-0.5,0.6c0.5-0.1,1-0.3,1.5-0.5h0.1c0.5-0.1,1-0.3,1.3-0.7
		c1.1-0.8,2-1.9,2.6-3.2c0-0.1,0-0.1,0-0.2l0.1-0.1c0.3-0.3,0.5-0.7,0.7-1.1c0.3-0.5,0.7-0.9,1.2-1.1c0.3-0.1,0.7-0.3,1-0.4
		c0.1-0.1,0.3-0.1,0.4-0.2c0.1-0.1,0.1-0.1,0.1-0.2s0,0,0,0s0.2,0.2,0.3,0.1s0-0.1,0-0.1s0.2,0.1,0.3,0s-0.1-0.2-0.1-0.3
		c-0.1-0.1-0.2-0.1-0.3,0c-0.4,0.2-0.9,0.4-1.3,0.5c-0.2,0.1-0.5,0.2-0.7,0.3c-0.1,0-0.1,0.1-0.2,0.1c-0.4,0.4-0.8,0.8-1.2,1.2
		c-0.1,0.1-0.2,0.2-0.2,0.3c-0.5,0.8-0.9,1.8-1.5,2.5c-0.7,1-1.8,1.8-2.9,2.2l-0.5,0.2C145.8,129.5,145.7,129.5,145.7,129.6z"/>
	<path class="st20" d="M158.3,120.5L158.3,120.5l3-1.3l3-1.3c-0.7-1-1.2-2-1.7-3.1c0.3,0.3,0.5,0.6,0.7,1c0.4,0.6,0.8,1.2,1.3,1.8
		c0.3,0.3,0.7,0.6,1,0.9c0.2,0.1,0.4,0.3,0.5,0.5c0.3,0.4,0.8,0.4,1.2,0.1c0.1,0,0.1-0.1,0.1-0.1c0.2-0.1,0.3-0.2,0.6-0.2
		c0.7-0.2,1.4-0.4,2.1-0.8c0.7-0.4,1.3-0.8,2-1.2c0.1,0,0.3-0.1,0.2-0.2s-0.2-0.1-0.4-0.1c-0.5,0.2-0.9,0.3-1.4,0.4l1.7-0.8
		c0.1,0,0.1,0,0.2,0c0.5,0.5,1.2,0.5,1.7,0c0.1-0.1,0.1-0.1,0.3,0c0.5,0.2,1.1,0.3,1.6,0.3c0.2,0,0.4,0,0.6,0.2
		c0.2,0.2,0.5,0.2,0.8,0.2c0.4,0,0.7-0.2,0.9-0.8l0,0c0.1,0.1,0.2,0.2,0.4,0.1c0.1-0.1,0-0.2-0.1-0.3c-0.2-0.7-0.8-1.1-1.5-1.2
		c0.6,0,1.2,0.2,1.6,0.7c0,0.1,0.1,0.1,0.1,0.2c0.2,0.3,0.2,0.3,0.5,0.1c0.4-0.3,0.7-0.7,0.8-1.1c0-0.1,0-0.1,0.2-0.2
		c0.2,0,0.2-0.1,0-0.3c-0.6-0.5-1.3-0.7-2.1-0.8l0,0h-0.1c0.1,0,0.1,0,0.1-0.1c0.5,0,1.1,0,1.6,0.2c0.2,0.1,0.5,0,0.7-0.1
		c0.1-0.1,0.1-0.2,0.3-0.2s0.1-0.1,0-0.1s-0.3-0.4-0.5-0.5c-0.5-0.2-0.9-0.3-1.4-0.3c-0.1,0-0.2,0-0.3,0c0.5-0.1,1.1,0,1.6,0.1
		c0.1,0,0.2,0.1,0.3,0s-0.1-0.2-0.1-0.2c-0.2-0.2-0.5-0.3-0.8-0.3c-0.6-0.1-1.3,0-1.9,0.1c-0.2,0.1-0.5,0.1-0.7,0s-0.5-0.1-0.7,0
		l-0.2,0.1c-1.1,0.5-2.2,0.7-3.4,0.7l-1.5,0.1c-0.3,0-0.5,0.1-0.7,0.2c-1.1,0.5-2.2,0.9-3.4,1.4H167c0.5-0.5,1.1-0.8,1.8-1
		c0.8-0.3,1.5-0.7,2.4-0.9c0.1,0,0.1-0.1,0.1-0.2c0.4-1.4,1-2.6,2-3.6c0,0,0.1-0.1,0-0.2c-0.4-0.9-0.5-1.9-0.3-2.9
		c0.2-1.1-0.1-2.2-0.8-3c-0.2-0.2-0.2-0.5-0.4-0.7c0.4,0.5,0.9,1,1.2,1.5c0.2,0.5,0.4,1.1,0.4,1.7c0.6-0.3,1.2-0.7,1.8-1
		c0.4-0.3,0.9-0.5,1.4-0.6c0.4-0.1,0.8-0.3,1.1-0.6c0.1-0.1,0.3-0.2,0.5-0.2c0.4,0,0.7-0.1,1-0.3c0.2-0.2,0.2-0.4-0.1-0.5
		s-0.3-0.1-0.5-0.2l0,0c0.4,0.1,0.9,0,1.3-0.2c0.3-0.1,0.7-0.3,1.1-0.4c0.6-0.1,1-0.6,0.9-1.2c0-0.1,0-0.3,0.2-0.3s0.1-0.1,0.1-0.2
		s-0.1-0.1-0.2-0.1c-0.8,0-1.6,0.1-2.3,0.3c0.2-0.2,0.5-0.3,0.8-0.4c0.4-0.1,0.8-0.2,1.2-0.2c0.2,0,0.3-0.1,0.3-0.3
		c0-0.2,0-0.3,0-0.5c0-0.1-0.1-0.3,0.1-0.4c0.2-0.1,0-0.2-0.1-0.2s-0.2,0-0.4,0.1c-0.6,0.2-1.3,0.5-1.9,0.8c0.3-0.3,0.7-0.5,1.1-0.7
		c0.2-0.1,0.4-0.2,0.6-0.2c0.1,0,0.2,0,0.1-0.1c0-0.1-0.1,0-0.2,0c-0.6,0.2-1.2,0.5-1.7,0.8s-1,0.7-1.4,1.1c-1,0.9-2.2,1.4-3.6,1.6
		c-1,0.1-2,0.3-3,0.6c-0.1,0-0.2,0-0.3-0.1c-0.2-0.4-0.7-0.4-1.1-0.6c0,0.5-0.1,1-0.2,1.5v0.1c0.5,0.5,1,1.2,1.2,1.9
		c0.1,0.1,0.1,0.2,0.2,0.4c0.1,0.1-0.1,0-0.1-0.1c-0.4-0.8-0.9-1.5-1.5-2.1c-0.1-0.1-0.1-0.3,0-0.4c0.1-1,0.2-2,0.2-3
		c-0.4,0.5-0.8,1.1-1.2,1.5c0.5-0.8,0.9-1.6,1.5-2.2c0.6-0.8,1-1.8,1.2-2.8c0.1-0.3,0.2-0.6,0.3-0.8c-0.3,0.1-0.6,0.1-0.7,0.4
		c-0.1,0.2-0.2,0.4-0.5,0.5s-0.4,0.4-0.4,0.7c0,0.3,0,0.5,0.1,0.8c0,0.2,0,0.4-0.1,0.5c-0.1,0.2-0.4,0.2-0.6,0.1l0,0
		c-0.3-0.2-0.5-0.1-0.5,0.2c-0.1,0.4-0.3,0.7-0.5,1c-0.1,0.2-0.3,0.4-0.4,0.7c-0.1,0.2-0.1,0.4,0.1,0.5l0,0c0.2,0.2,0.3,0.3,0.1,0.6
		c-0.1,0.3-0.4,0.6-0.7,0.8c-0.3,0.2-0.5,0.4-0.6,0.7c-0.5,1-1.5,1.7-2.6,1.7c-0.4,0-0.8,0-1.2-0.2l-0.3-0.1c-0.4,0-0.7-0.2-1.1-0.2
		c-0.2,0-0.3,0-0.5,0c-0.1,0-0.2,0.1-0.2,0.2c0,0.3-0.1,0.4-0.5,0.5c-0.4,0-0.9-0.1-1.3-0.2l-0.3-0.1c-0.2-0.1-0.4,0-0.5,0.1
		c-0.2,0.3-0.6,0.5-0.9,0.6c-0.2,0.1-0.3,0.1-0.5,0c-0.9,0.5-1.6,1.4-2,2.4s-1.1,1.8-2,2.3c-0.4,0.3-0.8,0.6-1.2,0.9
		c-0.1,0.1-0.1,0.2-0.1,0.3c0,0.1-0.2,0.5,0,0.8c0.1,0.1-0.1,0.2-0.2,0.2c-0.1,0-0.3,0.2-0.3,0.5c0,0.1-0.1,0.3-0.2,0.3
		c-0.5,0.4-0.8,0.9-0.8,1.6c0,0.3-0.1,0.5-0.4,0.6c-0.1,0-0.2,0.2-0.2,0.3s-0.1,0.3-0.3,0.4c0-0.2,0.1-0.3,0.1-0.4
		c-0.2,0-0.3,0.2-0.4,0.3c-0.1,0.1-0.1,0.1-0.2,0c-0.1-0.1,0-0.1,0-0.2s0.1-0.3,0.2-0.5c0.1-0.2,0.1-0.1,0-0.1
		c-0.3,0-0.4-0.3-0.4-0.5c0-0.1,0-0.1,0-0.2c0.1-0.5,0.4-0.9,0.8-1.2c0.5-0.3,0.7-0.8,1-1.2c-0.7,0.5-1.3,1.1-1.9,1.8
		c-0.5,0.5-0.9,1.1-1.1,1.7c-0.1,0.3-0.4,0.6-0.5,0.9c-0.1,0.1-0.1,0.2-0.2,0.2c-0.3,0.1-0.6,0.3-0.8,0.5c-0.1,0-0.1,0-0.2,0
		c-0.1,0-0.1-0.1-0.1-0.2c0.1-0.4,0.2-0.8,0.5-1.1c0.2-0.2,0.3-0.4,0.5-0.6c-1.1,0.6-1.8,1.7-2,2.9c0,0.1,0,0.2,0,0.3
		c0.2,0.4,0.2,0.8,0.1,1.2c0,0.1,0,0.2,0,0.3c0.2,0.9,0.4,1.9,0.3,2.9c0,0.2,0,0.5,0,0.7c-0.1,0.3-0.2,0.4-0.5,0.3s-0.1,0-0.2,0.1
		c-0.1,0.2-0.2,0.3-0.3,0.5c0.1-0.7,0.2-1.3,0.3-2c0.1-0.4,0.1-0.8,0.2-1.3c0.1-0.1,0-0.3-0.1-0.3l0,0c-0.2-0.1-0.2,0.1-0.2,0.2
		c-0.3,0.5-0.6,0.9-1,1.3c-0.1,0.1-0.2,0.2-0.3,0.2c-0.2,0-0.4,0.2-0.4,0.4c0,0.2,0,0.3,0.2,0.2c0,0.2,0,0.4,0.1,0.5c0,0,0,0,0,0.1
		c-0.3,0.2,0,0.5-0.3,0.7c-0.2,0.2-0.5,0.3-0.7,0.4c0-0.2,0.1-0.2,0.3-0.3c-0.2-0.3-0.2-0.3-0.6-0.2c0.1-0.1,0.1-0.2,0.2-0.2
		c0.2,0,0.2-0.2,0.2-0.3c0-0.1-0.1-0.2-0.2-0.1c-0.1,0.1-0.2,0.2-0.3,0.3c0,0.2,0,0.5,0,0.7v0.1c0.3,0.1,0.4,0.4,0.7,0.6
		s0.7,0.1,1.1-0.3c0.2-0.2,0.5-0.4,0.7-0.6c-0.4,1.1-0.5,2.2-1,3.2H143c-0.4-0.4-0.8-0.4-1.1,0.1c-0.1,0.2-0.2,0.4-0.3,0.6
		c-0.1,0.5-0.3,0.9-0.6,1.2c-0.2,0.2-0.3,0.4-0.4,0.6c0,0.1-0.1,0.1-0.2,0.1c-0.5,0.1-0.9,0.4-1.1,0.9c0.1,0,0.3,0,0.4,0
		c-0.2,0.1-0.3,0.1-0.5,0.2c-0.1,0.1-0.3,0.3-0.3,0.5c0.2-0.1,0.4-0.2,0.7,0c0.2,0.2,0.1,0,0.1-0.1c0.1-0.2,0.1-0.4,0.2-0.6
		c0.1-0.1,0.2-0.2,0.2-0.3s0.1,0,0,0l0,0c0,0.1-0.2,0.2-0.1,0.3c-0.2,0.3-0.3,0.6-0.3,0.9c-0.3-0.2-0.5-0.2-0.7,0s-0.3,0.4-0.1,0.7
		c0,0.1,0,0.1,0,0.2c0,0.1,0,0.2,0.2,0.3s0.5,0.2,0.7,0.4c0.1,0.1,0.3,0.1,0.4,0c0.4-0.5,1.1-0.8,1.5-1.3s0.9-0.9,1.5-1.3
		c-0.5-0.4-0.7-1.1-0.6-1.7c0.1,0.6,0.4,1.2,0.9,1.5s1.1,0.5,1.6,0.4c0.3-0.1,0.6-0.2,0.9-0.3l0.1-0.1c0.2-0.1,0.5-0.1,0.6-0.3
		c1.3-0.6,1.5-0.8,2.8-2.2c0.2-0.2,1.4-2.4,1.6-2.6l0.2-0.2c0.1,0,0.1-0.1,0.2-0.2c0.3-0.4,0.7-0.8,1.1-1.1l0.2-0.1
		c0.2-0.1,0.7-0.3,1.2-0.6c1.1-0.5,2.6-1.1,3.5-1.4C157.3,121,158.2,120.5,158.3,120.5z"/>
	<path class="st21" d="M156.2,96c0,0.4-0.4,0.6-0.7,0.7l-1.4,0.7c-0.5,0.3-1.1,0.4-1.7,0.6c-0.9,0.2-1.7,0.7-2.4,1.2
		c-0.5,0.5-0.6,1.3-0.2,1.9c0.5,0.8,1.3,1.4,2.2,1.8l0.6,0.2c0.6,0.2,1.2,0.3,1.8,0.3c0.6,0.1,1.1,0.2,1.7,0.4
		c0.2,0.1,0.4,0.1,0.6,0l0,0c0,0,0.2,0.1,0.3,0c0.4-0.1,0.7-0.3,0.9-0.6c0.1-0.2,0.3-0.2,0.5-0.1c0.4,0.2,0.9,0.3,1.3,0.4h0.2
		c0.2,0,0.3,0,0.4-0.2c0.1-0.2,0-0.3-0.1-0.4l-0.1-0.1c0.2,0,0.4,0,0.6,0c0.7,0,1.3,0.2,2,0.4c0.7,0.2,1.4,0.1,2.1-0.1l0.2-0.1
		c0.5-0.2,1-0.6,1.2-1.1c0.2-0.4,0.5-0.8,0.9-1c0.2-0.2,0.4-0.4,0.5-0.7c0.1-0.2,0-0.4-0.1-0.5l0,0c-0.2-0.1-0.3-0.2-0.2-0.5
		s0.3-0.6,0.5-0.8c0.2-0.3,0.4-0.5,0.4-0.9c0-0.1,0.1-0.2,0.1-0.3c0.1-0.2,0.3-0.3,0.5-0.1c0.1,0.1,0.3,0.2,0.5,0.1s0.2-0.3,0.2-0.5
		s-0.1-0.3-0.1-0.5c-0.1-0.4,0.1-0.9,0.5-1.1c0.3-0.2,0.5-0.5,0.5-0.9c0-0.1,0-0.2,0-0.4c0.1,0,0.1,0.1,0.2,0.2
		c0,0.1,0.1,0.2,0.3,0.2c0.1,0,0.2-0.1,0.2-0.2c0.1-0.3,0-0.5-0.1-0.8c-0.1-0.1-0.2-0.3-0.3-0.4s0-0.2,0.1-0.2s0.1-0.2,0.1-0.2
		c-0.1-0.1-0.2-0.3-0.5-0.2c-0.1,0-0.1,0.1-0.2,0.2c-0.2,0.3-0.4,0.6-0.7,0.9c-0.2,0.2-0.4,0.5-0.5,0.9c-0.2,0.7-0.6,1.4-1.1,1.9
		c-0.1,0.1-0.2,0.4-0.3,0.5c-0.3,0.3-0.2,0.7-0.4,1c0,0,0,0.2-0.1,0.2s-0.2,0.1-0.2,0.2c-0.1,0.1-0.1,0.2,0,0.2c0.1,0.1,0,0.1,0,0.1
		c-0.4,0.4-0.9,0.7-1.5,0.8c-0.5,0-0.6,0.1-0.7,0.6c0,0.3,0.2,0.3,0.4,0.4c-0.1,0.1-0.3,0.1-0.5,0c-0.2-0.2-0.1-0.5-0.1-0.7
		c-0.1,0-0.1,0.1-0.2,0.1l1.5-1.5c-0.2-0.1-0.3,0.2-0.5,0s0,0,0,0c-0.4,0-0.8-0.1-1.1-0.4c-0.1,0.1-0.1,0.2-0.1,0.4
		c0,0.5,0,0.9-0.1,1.4c0,0.2,0,0.4,0,0.6c0,0.3,0.2,0.6,0.5,0.7c0,0,0,0,0.1,0c0.3,0,0.6,0,1-0.1c-0.3,0.1-0.6,0.1-0.9,0.1
		c-0.5,0-0.8-0.3-0.7-0.8s0.2-1.1,0.2-1.6c0-0.2,0-0.4-0.1-0.6c-0.2,0.1-0.3,0-0.5-0.1s0.1,0.2-0.1,0.1c-0.2-0.1-0.1,0.1-0.1,0.2
		c0,0.5-0.1,1-0.1,1.5c-0.1,0.4-0.1,0.8,0,1.1c0,0.4,0.3,0.7,0.7,0.7h0.1c0.6,0,1.2-0.2,1.8-0.3c-0.6,0.1-1.2,0.3-1.9,0.3
		c-0.2,0-0.4,0-0.6,0c-0.1,0-0.1,0-0.2,0c0,0.1,0,0.1,0,0.2c0.1,0.2,0.3,0.3,0.5,0.3c0.1,0,0.2,0,0.3,0c-0.2,0-0.4,0-0.6-0.1
		c-0.3-0.1-0.6-0.4-0.5-0.7c0-0.7,0.1-1.4,0.3-2.1c0.1-0.6,0.1-1.3,0-1.9c-0.1-0.5-0.3-1-0.5-1.5c-0.3-0.7-0.8-1.3-1.4-1.9
		c-0.4-0.1-0.9,0-1.3,0.1c-0.8,0.3-1.5,0.6-2.1,1.1c-0.2,0.2-0.4,0.2-0.6,0.2c-0.2,0-0.5,0.1-0.5,0.4l0,0c0,0.2-0.1,0.4-0.2,0.6
		C156.4,95.8,156.3,95.9,156.2,96z"/>
	<path class="st20" d="M163.4,97.2c0.1,0.2,0.3,0.3,0.5,0.1c0-0.1,0-0.1,0-0.2c0-0.8-0.2-1.7-0.7-2.4c-0.4-0.5-0.8-0.9-1.1-1.4
		c0.3,0.4,0.6,0.8,0.9,1.2c0.5,0.6,0.9,1.4,0.9,2.2c0,0.2,0,0.4,0.1,0.5c0.3,0.3,0.8,0.5,1.2,0.4c1-0.4,1.6-1.4,1.6-2.4
		c0.1-0.9-0.1-1.7-0.6-2.5c-0.1-0.2-0.2-0.4-0.1-0.6c0.1-0.4,0.1-0.5-0.3-0.6c-0.1,0-0.3-0.1-0.4-0.2c-0.2-0.1-0.4,0-0.4,0.2
		c0,0.5-0.2,0.7-0.7,0.6c-0.3,0-0.6,0.2-0.9,0.2c-0.1,0-0.1,0.1-0.1,0.1c0,0.1-0.1,0.2-0.2,0.1l0,0c-0.1,0-0.2-0.1-0.2-0.2l0,0
		c0-0.1,0-0.2,0-0.3c0-0.2-0.1-0.3-0.2-0.3c-0.1,0-0.3,0-0.3,0.2c0,0.1-0.1,0.1-0.1,0.2c0.1-0.1,0-0.4,0.1-0.6
		c0.2-0.3,0.3-0.7,0.4-1c0-0.1,0.1-0.1,0.2-0.2s0.2-0.1,0.1-0.2c-0.3-0.1-0.7,0-1,0.2c-0.1,0.1-0.3,0-0.5,0.1l0.2-0.3
		c-0.1-0.1-0.3-0.1-0.4-0.2c0-0.1,0.2-0.2,0.3-0.3c0.1-0.1,0,0,0,0l0,0c-0.2,0-0.3,0.1-0.4,0.2c-0.1,0.1-0.2,0.1-0.3,0.1
		c-0.3,0-0.7,0.1-0.9,0.3H160c-0.5,0-0.7,0.4-1,0.7c-0.7,0.6-1.4,1.2-1.9,1.9c-0.4,0.5-0.7,1.1-0.7,1.7c-0.1,0.4-0.1,0.9,0,1.4
		c0.1-0.1,0.3-0.1,0.1-0.3c-0.1-0.2,0-0.5,0.1-0.7c0.1-0.4,0.2-0.5,0.7-0.5c0.2,0,0.4-0.1,0.5-0.2c0.8-0.6,1.8-1,2.8-1.2h0.1
		c0.5-0.1,1,0.1,1.2,0.5c0.4,0.5,0.8,1.1,1.1,1.7c0.3,0.4,0.5,0.9,0.5,1.4c0,0.2,0.1,0.4,0.2,0.5c-0.2,0-0.1-0.3-0.3-0.3
		C163.2,97,163.2,97.1,163.4,97.2z"/>
	<path class="st21" d="M162.9,90.2c0,0.1-0.1,0.2-0.2,0.2c-0.2,0.1-0.3,0.3-0.3,0.5s0,0.3-0.2,0.4c-0.1,0-0.2,0.2-0.2,0.3
		c0,0.3-0.1,0.6-0.1,0.9c0.1-0.1,0.1-0.3,0.2-0.4c0.1-0.1,0.2-0.3,0.4-0.2c0.2,0.1,0.1,0,0.1,0.1s0,0.2,0,0.3c0,0.3,0.1,0.4,0.4,0.4
		c0.3,0,0.3,0,0.3-0.1s0.1-0.2,0.3-0.2h0.1c0.2-0.2,0.4-0.1,0.7-0.2c0.5,0,0.7-0.2,0.7-0.7c0-0.1,0-0.1,0.1-0.2c0.1,0,0.1-0.1,0.2,0
		c0.1,0.2,0.3,0.2,0.5,0.2s0.3,0.1,0.3,0.3V92c0,0.2,0.1,0.5,0.2,0.7c0,0.1,0.1,0.1,0.1,0.2c0-0.1,0-0.2-0.1-0.3
		c-0.1-0.1-0.1-0.3-0.1-0.4c0.1-0.3,0.1-0.5,0-0.8c0-0.2-0.2-0.3-0.3-0.3l-1.1-0.5v-0.1c0.3,0.1,0.6,0.2,0.9,0.3
		c0.3,0.2,0.7,0.3,1,0.3c0.2,0,0.4,0.1,0.5,0.2s0.2,0.1,0.3,0.1c0.1-0.2,0.1-0.5-0.1-0.7l0,0c-0.3-0.2-0.6-0.5-0.9-0.9
		c-0.4-0.4-1-0.5-1.5-0.4c-0.2,0.1-0.4,0.1-0.6,0.1c-0.3,0-0.5,0-0.8,0c-0.1,0-0.1,0-0.1,0.1C163.3,90,163.2,90.1,162.9,90.2z"/>
	<path class="st21" d="M156.2,94.6c0.2-0.6,0.4-1.2,0.7-1.7c0,0-0.1,0.1,0,0c0.1-0.3,0.3-0.5,0.6-0.7c0.1-0.1,0.2-0.2,0-0.3
		c-0.6-0.4-1.2-0.7-1.8-0.9c-0.5-0.2-1.1-0.3-1.7-0.3c-0.4,0-0.7,0.2-0.7,0.6c0,0.1,0,0.2,0.1,0.3c0.2,0.6,0.6,1.1,1.1,1.4
		c0.4,0.3,0.7,0.5,1,0.9c0.1,0.2,0.3,0.4,0.4,0.6c0.1,0.1,0.1,0.2,0.2,0.3S156,94.6,156.2,94.6z"/>
	<path class="st22" d="M170.5,92.1c0.2,0,0.4,0.2,0.5,0.4c-0.1,0.1-0.3-0.1-0.3,0.1s0.1,0.2,0.1,0.3c0.1,0.1,0.2,0.3,0.3,0.5
		s0.1,0.5,0,0.7c0,0.1-0.1,0.1-0.2,0.1c-0.1,0-0.1,0-0.2-0.1c0-0.1,0,0,0,0s0-0.3-0.2-0.3s-0.1,0.2-0.1,0.3c0.1,0.4-0.2,0.8-0.6,1
		c-0.4,0.2-0.6,0.7-0.4,1.1c0,0.2,0.1,0.4,0.1,0.6s0,0.3-0.2,0.4s-0.3,0-0.4-0.1c-0.1-0.1-0.4-0.2-0.6,0.1c0,0,0,0,0,0.1
		c-0.2,0.6-0.5,1.2-0.9,1.6c-0.1,0.1-0.1,0.2-0.2,0.4c-0.1,0.3-0.1,0.5,0.2,0.6c0.1,0,0.2,0.1,0.2,0.2c0,0,0,0,0,0.1
		c-0.1,0.3-0.3,0.6-0.6,0.8c-0.3,0.2-0.5,0.4-0.7,0.7c-0.2,0.6-0.7,1.1-1.3,1.4c-0.5,0.3-1.1,0.4-1.7,0.4c-0.3-0.1-0.6-0.1-0.9-0.2
		c-0.1-0.1-0.2,0-0.1,0.1c0.4,0.2,0.9,0.3,1.3,0.3c0.3,0,0.6,0,0.9-0.1c0.4-0.1,0.8-0.3,1.2-0.6c0.3-0.3,0.6-0.6,0.8-1
		c0.2-0.3,0.4-0.6,0.7-0.8c0.3-0.2,0.5-0.5,0.6-0.8c0.1-0.2,0.1-0.4-0.1-0.5c0,0,0,0-0.1,0c-0.2-0.1-0.2-0.3-0.1-0.4
		c0.1-0.2,0.3-0.5,0.4-0.7c0.3-0.3,0.5-0.7,0.5-1.1c0-0.2,0.2-0.2,0.3-0.1c0.1,0.2,0.4,0.2,0.6,0.1c0.2-0.1,0.4-0.4,0.3-0.7
		c-0.1-0.3-0.1-0.6-0.1-0.9c0-0.2,0.1-0.5,0.3-0.6c0.3-0.1,0.5-0.4,0.6-0.7c0-0.1,0.1-0.2,0.2-0.2c0.2,0.1,0.2-0.2,0.3-0.2
		c0.1-0.6,0.1-1.3-0.2-1.9C171,92.2,170.8,92.1,170.5,92.1C170.4,92,170.5,92.1,170.5,92.1z"/>
	<path class="st23" d="M169.7,90.6c-0.4,0.2-0.7,0.4-1,0.7c-0.5,0.4-0.9,0.9-1.2,1.5c0.1,0.1,0.2,0,0.2-0.1s0.2-0.3,0.3-0.5
		c-0.1,0.1-0.2,0.3-0.3,0.4s-0.1,0.2-0.1,0.4c0,0.1-0.1,0.3,0,0.3c0.1,0.1,0.2-0.1,0.3-0.2c0.3-0.3,0.6-0.4,0.9-0.6
		c-0.2,0.1-0.3,0.2-0.5,0.4c-0.7,0.5-1,1.3-0.9,2.2c0.2,0.1,0.3,0,0.4-0.1c0.3-0.3,0.6-0.7,0.7-1.1c0.2-0.5,0.5-1.1,0.9-1.5l0.4-0.6
		c0.1-0.1,0.1-0.2,0.1-0.4c0-0.1,0-0.1,0-0.2s0.1-0.3-0.1-0.4l0,0C169.6,90.7,169.8,90.6,169.7,90.6z"/>
	<path class="st24" d="M163.5,89.8c0.3-0.1,0.6-0.1,0.9,0c0.2,0.1,0.5,0,0.7-0.1s0.4-0.1,0.6,0c0.1,0,0.2,0,0.2,0
		c0.2,0.1,0.4,0.2,0.6,0.4c0.3,0.2,0.4,0.6,0.8,0.8c0.3,0.1,0.4,0.4,0.3,0.7c0,0.1,0,0.1,0,0.2c0.3-0.2,0.4-0.5,0.3-0.8
		c-0.3-0.6-0.8-1.1-1.4-1.5c-0.4-0.2-0.9-0.3-1.4-0.1l-0.6,0.1c-0.4,0.1-0.7,0.2-1.1,0.1c-0.3-0.1-0.7,0-1,0.1
		c0.1,0.2,0.6-0.2,0.4,0.3c0.2,0.1,0.4,0.1,0.5-0.1c0,0,0,0,0-0.1C163.4,89.8,163.4,89.8,163.5,89.8z"/>
	<path class="st25" d="M162.4,103.2c0-0.1,0-0.2,0.1-0.1c0.6,0.2,1.2,0.3,1.8,0.3c0.1,0,0.1,0,0.2-0.1c0.2-0.1,0.3-0.2,0.5-0.2
		c0.1,0,0.2,0,0.2-0.2c-0.2,0.1-0.5,0.2-0.7,0.2c-0.4,0.1-0.9,0.1-1.3,0c-0.8-0.2-1.6-0.4-2.4-0.4c-0.2,0-0.4,0-0.6,0
		c0.1,0.1,0.2,0.2,0.3,0.3s0.1,0.4-0.2,0.4s-0.6,0-0.8-0.1c-0.3-0.1-0.6-0.2-0.9-0.3c-0.2-0.1-0.4,0-0.5,0.1l0,0
		c-0.3,0.4-0.7,0.6-1.2,0.6l-0.2,0.1c0,0.2,0.2,0.2,0.3,0.1c0.5,0,0.9-0.3,1.2-0.6c0.1-0.2,0.3-0.1,0.4-0.1c0.5,0.2,1,0.4,1.5,0.4
		c0.2,0,0.3,0,0.4-0.1c0.2,0,0.3-0.2,0.2-0.4l0,0c0-0.2,0.1-0.3,0.2-0.2c0.4,0,0.7,0.1,1.1,0.1C162.1,103.2,162.3,103.3,162.4,103.2
		z"/>
	<path class="st26" d="M167.7,95.8c-0.2-0.2-0.3-0.5-0.3-0.9c-0.1-0.5,0.1-1.1,0.4-1.5c0.3-0.5,0.8-0.7,1.1-1.1
		c-0.4,0.3-0.9,0.5-1.3,0.9c0-0.5,0.2-0.9,0.5-1.2c-0.1,0-0.2,0.2-0.3,0.3c-0.1,0.1-0.2,0.2-0.2,0.3c-0.1,0.1-0.1,0.2-0.2,0.2
		l-0.2,0.4c-0.1,0.2-0.2,0.5-0.1,0.7c0.2,0.8,0.2,1.6-0.1,2.3C167.3,96.1,167.6,96.1,167.7,95.8z"/>
	<path class="st27" d="M167,98c0,0-0.1-0.1,0-0.2c0.1,0,0.1-0.1,0.2-0.2s0-0.3,0.1-0.4s0.1-0.1,0-0.1c-0.1-0.1-0.1-0.1-0.2-0.1
		c-0.1,0-0.1,0-0.1,0.1v0.1l0,0c0,0-0.3-0.2-0.4,0c-0.1,0.2,0.1,0.2,0.1,0.4s0.1,0.1,0.1,0.2s-0.4-0.1-0.2,0.3
		c-0.7-0.1-0.7-0.1-0.5,0.3c-0.1,0.1-0.2-0.1-0.3,0.1c0,0.2,0,0.2,0,0.3c0.1,0.1,0.2,0.1,0.3,0c0.3-0.2,0.6-0.4,0.9-0.6
		C166.9,98.2,167,98.1,167,98z"/>
	<path class="st28" d="M167.4,95c0.1,0,0.3,0,0.3-0.1c0.2-0.2,0.4-0.5,0.5-0.8c0.2-0.5,0.4-1,0.7-1.5c0.2-0.3,0.4-0.6,0.6-0.9
		c0.2-0.2,0.2-0.4-0.1-0.6c0.1,0,0.2,0,0.2,0c0-0.1,0-0.2,0-0.3c-0.1-0.1-0.2,0-0.3,0s0.2-0.1,0.2-0.2c0-0.2,0.3-0.1,0.3,0.1
		c0.1,0.3,0.2,0.6,0.2,0.9c-0.1,0.4-0.3,0.8-0.6,1.1l0,0c-0.5,0.5-0.8,1.1-1,1.7s-0.5,1.1-0.9,1.5C167.4,95.7,167.3,95.3,167.4,95z"
		/>
	<path class="st29" d="M142.2,121.8c-0.2,0.2-0.4,0.3-0.2,0.5s0,0.1,0,0.2c-0.1,0.1-0.1,0.2,0,0.3c0,0.1,0.2,0.2,0.2,0.2
		s0.2-0.2,0.2-0.4C142.2,122.3,142.2,122.1,142.2,121.8z"/>
	<path class="st30" d="M178,113h-0.4v0.1L178,113L178,113z"/>
	<path class="st31" d="M161.5,89.6L161.5,89.6c0.1,0,0.3,0,0.4,0C161.8,89.6,161.6,89.6,161.5,89.6z"/>
	<path class="st32" d="M139.7,129.9c0.1-0.1,0.2-0.3,0.2-0.4C139.7,129.7,139.6,129.8,139.7,129.9L139.7,129.9z"/>
	<path class="st33" d="M152.3,123c-0.6,0.3-1,0.7-1.3,1.3c0.2,0,0.3-0.2,0.4-0.3C151.8,123.7,152.1,123.4,152.3,123z"/>
	<path class="st34" d="M154,119.3c0.2-0.2,0.3-0.4,0.4-0.6c0.1-0.2,0-0.5-0.2-0.6c-0.3-0.3-0.5-0.6-0.6-0.9v-0.1
		c0.2-0.3,0-0.6-0.3-0.8c-0.2-0.2-0.4-0.4-0.4-0.7c0-0.3-0.2-0.6-0.5-0.7c-0.2-0.1-0.3-0.2-0.4-0.4c-0.1-0.2-0.2-0.2-0.3-0.1
		c-0.1,0.2-0.2,0.2-0.3,0.1s-0.2,0-0.2,0.1s0,0.1,0,0.2c0,0.3-0.2,0.5-0.5,0.6l0,0c-0.3,0-0.4,0.4-0.6,0.6l0,0
		c0.3,0.2,0,0.3-0.1,0.4c0,0.1,0,0.2,0,0.2c0.1,0.3,0.2,0.5,0.3,0.8c0.1,0.4,0.3,0.8,0.8,0.9c0.1,0,0.1,0.2,0.1,0.3
		c-0.1,0.2,0,0.5,0.3,0.5l0,0c0.1,0.1,0.2,0.1,0.3,0.2C152.5,120,153.4,120,154,119.3L154,119.3z"/>
	<path class="st33" d="M161.5,103.5c0.5,0.7,1.2,1.1,2.1,1.3c1.1,0.2,2,1,2.4,2.1c0,0.1,0.1,0.1,0.1,0.2c0,0,0,0,0.1,0
		c-0.2-0.9-0.6-1.7-1.3-2.2c-0.2-0.2-0.4-0.2-0.6-0.3C163.2,104.5,162.3,104.1,161.5,103.5z"/>
	<path class="st35" d="M160.2,96.9c0.2-0.3,0.5-0.4,0.6-0.7c0.3-0.4,0.5-0.9,0.5-1.4c0-0.1,0-0.2,0-0.4c0-0.3-0.2-0.4-0.5-0.3
		c-0.2,0.1-0.4,0.2-0.5,0.3c-0.1,0-0.2,0-0.2,0c-0.3,0-0.5,0.1-0.5,0.4c0,0.7,0.1,1.4,0.3,2C160,97.1,160.1,96.9,160.2,96.9z"/>
	<path class="st34" d="M163.4,97.2c-0.1-0.1-0.1-0.2-0.1-0.3c0.1-0.2,0.1-0.5,0-0.8c-0.4-1.1-1-2.1-1.9-2.9c-0.1,0-0.1-0.1-0.2,0
		c0.2,0.3,0.5,0.5,0.7,0.8c0.4,0.6,0.7,1.3,1,2c0.1,0.4,0.2,0.8,0.2,1.2c0,0.3,0,0.6-0.1,1c-0.1,0.7-0.2,1.5-0.3,2.2
		c-0.1,0.4,0.2,0.7,0.6,0.8l0,0c0.3,0.1,0.5,0.1,0.8,0h-0.5c-0.2,0-0.4-0.1-0.5-0.4c0,0,0-0.1,0.1-0.1c0.6,0.1,1.2,0.1,1.7-0.1
		c0.4,0,0.8-0.2,1.1-0.3c-0.3,0-0.7,0.1-1,0.2c-0.4,0.1-0.7,0.1-1.1,0.1c-0.3,0-0.5-0.2-0.6-0.5c-0.1-0.4-0.1-0.9,0-1.3
		s0.1-0.9,0.1-1.4c0-0.3,0.1-0.2,0.2-0.1L163.4,97.2z"/>
	<path class="st22" d="M163.1,96.2c0,0.2,0.1,0.5,0.1,0.7c0.1,0,0.1,0.2,0.2,0.3c0,0.1,0.1,0.1,0.2,0.1c0,0,0.1,0,0.1-0.1
		s-0.1-0.1-0.1-0.1c-0.1-0.1-0.2-0.3-0.2-0.5s-0.1-0.3-0.1-0.5c-0.4-0.9-1-1.8-1.6-2.6c-0.3-0.4-0.8-0.5-1.2-0.4
		c-1.1,0.2-2.1,0.7-2.9,1.3c-0.1,0.1-0.2,0.1-0.3,0.1s-0.2,0-0.4,0c-0.2,0.1-0.4,0.2-0.4,0.5c0,0.2-0.1,0.4-0.1,0.6
		c0,0.1,0,0.2,0,0.2h0.1v-0.1c0.3,0,0.2-0.2,0.2-0.4c0-0.4,0.2-0.6,0.6-0.5c0.1,0,0.2,0,0.3-0.1c0.8-0.6,1.6-1,2.5-1.3
		c0.3-0.1,0.7-0.1,1-0.1c0.1,0,0.1,0.1,0.2,0.1c0.1,0.1,0.3,0.2,0.4,0.4C162.3,94.5,162.8,95.3,163.1,96.2
		C163.1,96.1,163.1,96.1,163.1,96.2z"/>
	<path class="st36" d="M164,97.2c0-0.8-0.2-1.5-0.6-2.2c-0.3-0.5-0.7-0.9-1-1.3c-0.1-0.2-0.3-0.4-0.4-0.5c0.1,0.3,0.3,0.7,0.6,0.9
		c0.2,0.3,0.4,0.6,0.6,0.8c0.4,0.6,0.5,1.2,0.6,1.9c0,0.1,0,0.3,0,0.4c0,0.8,0,1.5-0.2,2.2c-0.1,0.3,0.1,0.7,0.4,0.8
		c0.1,0,0.2,0,0.3,0c0.4,0,0.8-0.1,1.2-0.2c-0.2-0.1-0.4,0-0.7,0.1c-0.2,0-0.5,0-0.7,0s-0.4-0.2-0.3-0.4c0-0.2,0-0.5,0-0.7
		c0.1-0.5,0.1-1.1,0.1-1.6C163.9,97.4,164,97.3,164,97.2z"/>
	<path class="st35" d="M165.5,94.8c0.1,0.1,0.1-0.1,0.2-0.1c0.2-0.1,0.4-0.2,0.6-0.2c0.2,0,0.4-0.4,0.3-0.6c0-0.1-0.1-0.2-0.1-0.2
		c0-0.1-0.2-0.2-0.3-0.2h-0.1c-0.1,0.1-0.3,0.2-0.4,0.3c-0.1,0.1-0.2,0.2,0,0.4c0.2,0.2,0,0.3-0.1,0.4
		C165.5,94.8,165.4,94.7,165.5,94.8z"/>
	<path class="st37" d="M165.3,95C165.3,95,165.2,95.1,165.3,95l0.1,0.1l0,0V95C165.5,95,165.4,94.9,165.3,95z"/>
	<path class="st38" d="M154.4,92.1c0.3,0.3,0.6,0.5,0.9,0.7c0.1,0,0.2,0.1,0.2,0c0.2-0.2,0.5-0.4,0.7-0.7c0,0,0.1-0.1,0-0.1l0,0
		c-0.3-0.3-0.7-0.5-1.1-0.6C154.8,91.5,154.5,91.6,154.4,92.1z"/>
	<path class="st39" d="M154.4,92.1c0.2-0.3,0.4-0.5,0.7-0.7v-0.1c-0.4-0.2-0.8-0.4-1.2-0.5c-0.1,0-0.2,0-0.3,0.1s0,0.2,0,0.3
		C153.8,91.5,154.1,91.8,154.4,92.1z"/>
	<path class="st40" d="M160.5,95.1c0.1,0.1,0.2,0.1,0.3,0l0,0c0.1-0.1,0-0.1,0-0.2c-0.1-0.1-0.2-0.1-0.3,0
		C160.4,94.9,160.4,95,160.5,95.1z"/>
	<path class="st41" d="M160.6,94.5c0.2,0,0.3,0,0.4,0.1s0.1,0.1,0.1,0c0,0,0-0.1,0-0.2s-0.1,0-0.1,0L160.6,94.5z"/>
	<path class="st42" d="M160.3,96L160.3,96c0.1,0.1,0.2,0.2,0.3,0.2l0,0C160.5,96.1,160.4,96,160.3,96z"/>
	<path class="st43" d="M160.4,95.9c0-0.2-0.1-0.3-0.2-0.4C160.2,95.7,160.3,95.9,160.4,95.9z"/>
	<path class="st44" d="M160.2,96.4c0,0.1,0,0.2,0,0.3C160.4,96.6,160.4,96.5,160.2,96.4z"/>
	<path class="st20" d="M163.1,96.2c0-0.4-0.2-0.8-0.4-1.1c-0.3-0.6-0.7-1.1-1.2-1.6c-0.1-0.1-0.1-0.1-0.1-0.2s-0.1,0-0.1,0
		C162.1,94.1,162.7,95.1,163.1,96.2z"/>
	<path class="st6" d="M147.4,111.7c0,1.8-0.3,5.4-1.4,7.1c-1.8,2.6-6.3,4.1-8.2,4.5c1.6-1.5,2.5-2.8,2.3-3.9c0-0.3-0.8,0.7-1.9,0.7
		c0.4-0.7,0.7-1.5,0.7-2.3c0.2-1.2,0.6-2.3,1.3-3.2c1.8-1.8,4.1-2.9,6.5-3.4L147.4,111.7z"/>
	<path class="st7" d="M147.4,111.7c0,1.7-0.5,3.3-1.3,4.8c-1,1.1-4.1,2-5.6,3c0.5-0.9,0.9-1.9,1-2.9c0-0.7,0.1-1.4,0.4-2
		c0.8-1.1,1.9-1.9,3.1-2.6c0.6-0.4,1.2-0.7,1.8-0.9L147.4,111.7z"/>
	<path class="st8" d="M147.4,111.7c-0.1,0.9-0.8,3.5-1.7,4s-1.5,0.2-3.1,1c0.1-0.6,1.1-1.3,0.9-1.9c-0.4,0.2-0.5,0.4-1,0.5
		c0.5-0.4,0.6-1.1,1-1.7c0.6-0.7,1.3-1.2,2.1-1.5c0.4-0.2,0.8-0.5,1.1-0.8L147.4,111.7z"/>
	<path class="st9" d="M146.8,112c1.2,1,2.5,1.5,2.7,1.1l-0.5,0.6c-0.3,0.3-1.5-0.2-2.7-1.1s-2-2.1-1.7-2.4l0.5-0.6
		C144.8,110,145.6,111.1,146.8,112z"/>
	<path class="st9" d="M146.2,112.8c0.9,0.8,1.9,1.1,2.1,0.9l-0.4,0.5c-0.2,0.3-1.1-0.1-2.1-0.9c-0.9-0.8-1.5-1.6-1.3-1.8l0.4-0.5
		C144.7,111.2,145.3,112,146.2,112.8z"/>
	<path class="st16" d="M155.7,104.1c-0.9,2.5-2.2,4.9-3.9,7l-1.8,2.2c-1.1-0.4-2.1-0.9-3-1.5c-0.8-0.8-1.5-1.6-2.1-2.6
		c0,0,0.7-1,1.8-2.2c1.9-2.3,2.8-3.5,4.4-4.4c0.8,0.5,1.6,0.8,2.5,1.1C154.2,103.8,155,103.9,155.7,104.1z"/>
	<path class="st9" d="M147.5,111.2c1.4,1.1,2.9,1.8,3.2,1.4l-0.6,0.7c-0.3,0.4-1.8-0.2-3.2-1.4c-1.4-1.2-2.3-2.4-2-2.8l0.6-0.7
		C145.2,108.7,146.1,110,147.5,111.2z"/>
	<polygon class="st16" points="144.8,109.2 144.9,109.2 144.9,109.2 	"/>
	<path class="st13" d="M145.5,110.7c-0.2,0.2-0.3,0.4-0.5,0.7c-0.1-0.1-0.1-0.1-0.1-0.2s0-0.2,0-0.2l-0.1,0.1
		c-0.3-0.4-0.3-0.7-0.2-0.9l0.4-0.5l0.1,0.1C145.1,110.2,145.3,110.4,145.5,110.7z"/>
	<path class="st13" d="M144.9,111.2c0,0.1,0,0.2,0.1,0.2c-0.1,0.2-0.2,0.3-0.3,0.5c-0.1-0.2-0.2-0.4-0.1-0.5l0.3-0.3l0.1-0.1
		C144.9,111,144.9,111.1,144.9,111.2z"/>
	<path class="st14" d="M146.9,108.8l-0.8,1c-0.5-0.6-0.8-1.1-0.7-1.4c0.3-0.4,0.7-0.9,1.1-1.5c1.9-2.3,2.8-3.5,4.4-4.4
		c0.3,0.1,0.7,0.3,1,0.5C150.1,104.5,148.9,106.4,146.9,108.8z"/>
	<path class="st13" d="M146.1,109.8c-0.2,0.2-0.4,0.5-0.6,0.8c-0.2-0.2-0.4-0.5-0.5-0.7l-0.1-0.1c-0.1-0.2-0.1-0.3-0.1-0.5l0,0v-0.1
		l0.6-0.7v0.1C145.4,108.7,145.6,109.2,146.1,109.8z"/>
	<path class="st45" d="M151.4,100.1c-0.3-0.3-0.2-0.5,0.1-0.7c0.3-0.1,0.6-0.2,1-0.2c0.7-0.1,1.4-0.1,2.1-0.1h0.9
		c0.1,0,0.2,0,0.2,0.1c0.2,0.2,0.5,0.4,0.8,0.6c0.1,0,0.2,0.1,0.4,0.1c0.1,0,0.4,0.3,0.4,0.5c0,0.3,0,0.6,0.1,0.9
		c0.1,0.4,0.1,0.8-0.4,1c0,0,0,0,0,0.1s0.3,0,0.5,0.1c-0.1,0.1-0.2,0.2,0,0.3c0.2,0.1,0.1,0.3-0.1,0.4c-0.2,0.1-0.4,0-0.6,0l0,0
		c-0.2,0-0.4,0-0.3-0.3c0.1-0.3-0.1-0.3-0.3-0.3c-0.1,0-0.1,0-0.2-0.1l0,0c-0.2-0.1-0.4-0.1-0.6-0.2c-0.1,0-0.2-0.1-0.2-0.2
		s-0.1-0.2-0.2-0.2l0,0c-0.6-0.1-1.1-0.3-1.6-0.6C152.6,101.1,151.9,100.6,151.4,100.1z"/>
</g>
</svg>
