<svg id="Layer_3" data-name="Layer 3" xmlns="http://www.w3.org/2000/svg" viewBox="0 0 251 151"><defs><style>.cls-1{opacity:0.2;}.cls-12,.cls-2,.cls-3,.cls-4{fill:none;}.cls-2,.cls-3,.cls-4{stroke:#fff;stroke-linecap:round;stroke-linejoin:round;}.cls-3{stroke-width:0.95px;}.cls-4{stroke-width:1.11px;}.cls-5{fill:#b1b1b1;}.cls-6{fill:#e84c59;}.cls-7{fill:#ee7b5c;}.cls-8{fill:#f9c862;}.cls-9{fill:#062633;}.cls-10{fill:#abaaaa;}.cls-11{fill:#e1dfe0;}.cls-13{fill:#041d26;}.cls-14{fill:#6e6e6e;}.cls-15{fill:silver;}.cls-16{fill:#5e3e21;}.cls-17{fill:#783a28;}.cls-18{fill:#54371d;}.cls-19{fill:#6d3325;}.cls-20{fill:#8f4729;}.cls-21{fill:#dcb680;}.cls-22{fill:#c69666;}.cls-23{fill:#662f1e;}.cls-24{fill:#231d13;}.cls-25{fill:#574c3e;}.cls-26{fill:#442c1a;}</style></defs><title>Viljar</title><g class="cls-1"><path class="cls-2" d="M135.45,90.78h33.29"/><path class="cls-3" d="M162.14,116.23c0-12,6.6-25.23,6.6-25.23"/><path class="cls-4" d="M151.73,91c0,11.17-9.5,23.58-9.5,23.58"/><path class="cls-4" d="M160.73,91c0,11.17-8.5,23.58-8.5,23.58"/><path class="cls-4" d="M143.08,91c0,3.64-1.68,7.89-3.37,10.85"/><path class="cls-4" d="M152.49,91c0,11.17,9.49,23.58,9.49,23.58"/><path class="cls-4" d="M143.48,91c0,11.17,8.5,23.58,8.5,23.58"/><path class="cls-4" d="M161,91c0,3.68,1.71,7.68,3.42,11"/><path class="cls-3" d="M142.13,116.23c0-12-6.59-25.23-6.59-25.23"/></g><g class="cls-1"><path class="cls-5" d="M100.78,36.85a7.33,7.33,0,0,1,3.57-.19,19.08,19.08,0,0,1,5.41,1.72c1.75.86,3.48,1.75,5.16,2.76l.39.25L114.48,43l-1.09-.31a6.48,6.48,0,0,0-2.06-.09c-1.65.11-3.29.22-4.93.35a13.88,13.88,0,0,1-3.47-.19c-.69-.12-1.36-.28-2-.41-.31,0-.41-.23-.46-.52a9,9,0,0,1-.05-3.43S100.64,37.33,100.78,36.85Z"/><path class="cls-5" d="M114.13,31.83a11,11,0,0,1,1.49,2.65,9.32,9.32,0,0,1,.58,3.58.68.68,0,0,1,0,.17,2.53,2.53,0,0,1-.33-.12,7,7,0,0,1-1.89-1.48,18.21,18.21,0,0,1-2.27-2.91,10.34,10.34,0,0,0-2.48-2.67l-.43-.36a9.09,9.09,0,0,1,2.16,0A10.77,10.77,0,0,1,114.13,31.83Z"/><path class="cls-5" d="M107.65,49.13c.16-.07.32-.15.48-.21A12.89,12.89,0,0,0,114,45l.52-.63s.08,0,.09,0a4.57,4.57,0,0,1,.8,2.53.72.72,0,0,1-.33.63,9.5,9.5,0,0,1-6.24,1.73l-.73-.06Z"/><path class="cls-5" d="M118.51,43c-.13-.1-.27-.2-.39-.31-.53-.45-1-.91-1.57-1.35a.44.44,0,0,1-.18-.56c.15-.43.27-.87.39-1.31a.36.36,0,0,1,.42-.3c.47,0,.94,0,1.4,0s.4,0,.4.38c0,.63,0,1.26-.1,1.89A13,13,0,0,1,118.51,43Z"/><path class="cls-5" d="M116,39.11a3.24,3.24,0,0,1-.51,1.46L114,39.68a44.5,44.5,0,0,0-5.63-2.77,14.09,14.09,0,0,0-6-1.14l-.58,0-.61.08c.13-.25.22-.43.32-.6A9.48,9.48,0,0,1,107.14,31a.76.76,0,0,1,.66.09,10.42,10.42,0,0,1,3.14,3,26.77,26.77,0,0,0,1.62,2.22A9.61,9.61,0,0,0,116,39.11Z"/><path class="cls-5" d="M114,43.76c-.34.42-.6.8-.92,1.13a11.61,11.61,0,0,1-6.69,3.6,1.66,1.66,0,0,1-1.11-.18,9.33,9.33,0,0,1-4.48-5.09,2.43,2.43,0,0,1-.09-.33l1,.2a14.9,14.9,0,0,0,5.06.48c.68-.06,1.36-.11,2-.14,1.16,0,2.32-.11,3.48-.11a6.85,6.85,0,0,1,1.34.24A2.44,2.44,0,0,1,114,43.76Z"/><path class="cls-5" d="M116,41.85c.43.36.8.66,1.16,1s.58.56.87.84a.29.29,0,0,1,0,.4,9.34,9.34,0,0,1-1.67,2.42l-.11.06a.46.46,0,0,1-.07-.1,6.53,6.53,0,0,0-.94-2.52.63.63,0,0,1,0-.72C115.5,42.79,115.71,42.36,116,41.85Z"/><path class="cls-5" d="M118.81,38.37a12.44,12.44,0,0,1-1.74,0,25.9,25.9,0,0,0-.27-2.71,23.15,23.15,0,0,0-.84-2.47A8.86,8.86,0,0,1,118.81,38.37Z"/></g><path class="cls-6" d="M96.34,87.5c-3.9.62-11.29,2.22-14.55,5.25-5.06,4.68-6.74,14.53-7,18.82,2.7-3.92,5.21-6.07,7.53-6.16.74,0-1.19,2-.9,4.26a11.41,11.41,0,0,1,4.73-2.24c1.83-.54,5-2,6.46-3.78,4.74-5.83,4.9-13.28,5.07-14.9Z"/><path class="cls-7" d="M96.34,87.5c-1.72.12-7.54,1.87-9.68,4.26s-3,9.31-4.71,12.94c2.61-1.56,3.35-2.61,5.87-3.06a7.94,7.94,0,0,0,4.05-1.48c1.22-.81,3.17-4.14,4.47-7.33a17.39,17.39,0,0,0,1.39-4.08Z"/><path class="cls-8" d="M96.34,87.5c-2,.49-7.13,2.72-8,4.85s0,3.34-1.09,6.8c1.17-.34,2.39-2.67,3.8-2.55-.37.88-.78,1.28-.72,2.28.74-1.1,2.11-1.54,3.32-2.66,1.41-1.3,1.92-3.28,2.63-4.93a11.56,11.56,0,0,1,1.45-2.54Z"/><path class="cls-9" d="M95.89,88.78c-2.49-2.3-4-4.74-3.32-5.44l-1.18,1.27c-.65.7.84,3.14,3.32,5.44s5,3.61,5.69,2.91l1.17-1.27C100.92,92.39,98.38,91.09,95.89,88.78Z"/><path class="cls-9" d="M94.47,90.31c-1.87-1.73-3-3.57-2.5-4.1l-.89,1c-.49.52.63,2.36,2.51,4.1s3.78,2.72,4.27,2.19l.89-1C98.26,93,96.35,92.05,94.47,90.31Z"/><path class="cls-10" d="M108.38,68.53A42.84,42.84,0,0,0,96.28,78l-4.15,4.49a28.46,28.46,0,0,0,4.17,5.88,30,30,0,0,0,6.11,3.75s1.83-1.81,4.28-4.46a42.06,42.06,0,0,0,8.4-12.83,18.68,18.68,0,0,1-3.68-2.69A18.32,18.32,0,0,1,108.38,68.53Z"/><path class="cls-11" d="M116.32,66.82c-.59-.55-3.61-.43-7.94,1.71a18.32,18.32,0,0,0,3,3.58,18.68,18.68,0,0,0,3.68,2.69C116.83,70.42,116.88,67.34,116.32,66.82Z"/><path class="cls-9" d="M97.49,87.06c-2.89-2.68-4.62-5.51-3.86-6.32l-1.37,1.47c-.75.82,1,3.65,3.86,6.32s5.84,4.19,6.6,3.38l1.36-1.48C103.33,91.25,100.38,89.74,97.49,87.06Z"/><path class="cls-12" d="M101,91.9a10.32,10.32,0,0,1-1.7-.88l-.19.19A4.62,4.62,0,0,0,101,91.9Z"/><path class="cls-12" d="M98.27,92.66a4.49,4.49,0,0,1-.42-.24l-.12.11A3,3,0,0,0,98.27,92.66Z"/><path class="cls-10" d="M102.44,92.11v0h0Z"/><path class="cls-13" d="M99.13,91.21l-1.28,1.21a4.49,4.49,0,0,0,.42.24.62.62,0,0,0,.51-.14l-.25.26c.9.42,1.59.52,1.89.2l.91-1-.31-.1A4.62,4.62,0,0,1,99.13,91.21Z"/><path class="cls-13" d="M98.27,92.66a3,3,0,0,1-.54-.13l-1,.91c.55.22,1,.25,1.16,0l.64-.7.25-.26A.62.62,0,0,1,98.27,92.66Z"/><path class="cls-14" d="M102.67,87.6c-.64.68-1.27,1.35-1.91,2,1.45.89,2.64,1.28,3.19,1,.74-.76,1.69-1.76,2.77-2.92a42,42,0,0,0,8.39-12.83,15.94,15.94,0,0,1-1.94-1.26A75.8,75.8,0,0,1,102.67,87.6Z"/><path class="cls-15" d="M115.11,74.82c1.74-4.38,1.79-7.46,1.23-8a.79.79,0,0,0-.33-.17,26.49,26.49,0,0,1-2.84,6.89A15.94,15.94,0,0,0,115.11,74.82Z"/><path class="cls-13" d="M100.76,89.59c-.48.49-1,1-1.44,1.43a10.32,10.32,0,0,0,1.7.88l.31.1a2,2,0,0,0,1.1.1h0a.59.59,0,0,0,.29-.16l1.37-1.48a.61.61,0,0,1-.16.12C103.4,90.87,102.21,90.48,100.76,89.59Z"/><path class="cls-6" d="M87.13,83.49c-3.85.83-11.14,2.84-14.24,6C68.1,94.47,67,104.4,67,108.69c2.49-4,4.88-6.34,7.19-6.55.74-.07-1.09,2-.66,4.3A11.35,11.35,0,0,1,78.09,104c1.8-.65,4.87-2.23,6.25-4.13,4.42-6.08,4.17-13.53,4.26-15.15Z"/><path class="cls-7" d="M87.13,83.49c-1.71.22-7.42,2.28-9.43,4.78s-2.43,9.46-4,13.19c2.53-1.71,3.21-2.8,5.69-3.38s2.78-.83,4-1.7,3-4.31,4.08-7.56a18.15,18.15,0,0,0,1.17-4.15Z"/><path class="cls-8" d="M87.13,83.49c-1.92.6-7,3.11-7.71,5.29s.17,3.32-.72,6.85c1.14-.41,2.23-2.81,3.65-2.76a4.4,4.4,0,0,0-.6,2.32c.68-1.15,2-1.65,3.17-2.84C86.27,91,86.66,89,87.28,87.29a11.52,11.52,0,0,1,1.32-2.62Z"/><path class="cls-9" d="M86.76,84.8c-2.61-2.17-4.23-4.52-3.62-5.26L82,80.87c-.61.74,1,3.09,3.62,5.26s5.22,3.33,5.83,2.6l1.11-1.33C92,88.13,89.37,87,86.76,84.8Z"/><path class="cls-9" d="M85.43,86.4c-2-1.63-3.19-3.4-2.73-4l-.83,1c-.46.55.76,2.32,2.72,4s3.93,2.51,4.39,2l.84-1C89.36,88.91,87.39,88,85.43,86.4Z"/><path class="cls-10" d="M98.13,63.9A42.51,42.51,0,0,0,86.56,74l-3.9,4.7a28,28,0,0,0,4.49,5.64,29.31,29.31,0,0,0,6.3,3.42s1.73-1.9,4-4.68a42.29,42.29,0,0,0,7.68-13.27,19.25,19.25,0,0,1-3.82-2.49A18.46,18.46,0,0,1,98.13,63.9Z"/><path class="cls-11" d="M106,61.76c-.62-.51-3.62-.23-7.83,2.14a18.46,18.46,0,0,0,3.22,3.41,19.25,19.25,0,0,0,3.82,2.49C106.67,65.32,106.55,62.25,106,61.76Z"/><path class="cls-9" d="M88.26,83c-3-2.51-4.91-5.25-4.19-6.1l-1.29,1.55c-.71.85,1.17,3.58,4.2,6.1s6,3.86,6.76,3L95,86C94.32,86.86,91.29,85.51,88.26,83Z"/><path class="cls-12" d="M92.05,87.63a10,10,0,0,1-1.74-.78l-.19.2A4.63,4.63,0,0,0,92.05,87.63Z"/><path class="cls-12" d="M89.34,88.54l-.43-.21-.11.11A2.61,2.61,0,0,0,89.34,88.54Z"/><path class="cls-10" d="M93.47,87.76h0Z"/><path class="cls-13" d="M90.12,87.05l-1.21,1.28.43.21a.62.62,0,0,0,.5-.16l-.22.27c.91.37,1.61.43,1.89.09l.85-1-.31-.09A4.63,4.63,0,0,1,90.12,87.05Z"/><path class="cls-13" d="M89.34,88.54a2.61,2.61,0,0,1-.54-.1c-.32.33-.63.65-1,1,.56.19,1,.2,1.16,0l.61-.73.22-.27A.62.62,0,0,1,89.34,88.54Z"/><path class="cls-14" d="M93.46,83.25c-.6.72-1.19,1.42-1.79,2.09,1.48.81,2.7,1.14,3.23.81.7-.8,1.6-1.85,2.61-3.07a42,42,0,0,0,7.68-13.27,16.77,16.77,0,0,1-2-1.15A75.64,75.64,0,0,1,93.46,83.25Z"/><path class="cls-15" d="M105.19,69.81c1.51-4.47,1.39-7.54.8-8a.76.76,0,0,0-.35-.15,26.17,26.17,0,0,1-2.46,7A16.77,16.77,0,0,0,105.19,69.81Z"/><path class="cls-13" d="M91.67,85.34l-1.36,1.51a10,10,0,0,0,1.74.78l.31.09a2.13,2.13,0,0,0,1.11,0h0a.65.65,0,0,0,.29-.18L95.05,86a.64.64,0,0,1-.15.13C94.37,86.48,93.15,86.15,91.67,85.34Z"/><path class="cls-16" d="M135.26,90.54c1.11,1.18,3.92,3.51,6.38.51S139.06,86,139.06,86Z"/><path class="cls-17" d="M118.55,78.79a2.81,2.81,0,0,1,1.22-.17l.57.11a3.3,3.3,0,0,1,.83.3,4.4,4.4,0,0,1,1.1.75,8.3,8.3,0,0,0,1.85,1.39,13,13,0,0,0,4.34,1.29c1.59.25,3.35.3,5.4.61l1.62.28c.61.15,1.18.27,1.84.47a5.49,5.49,0,0,1,2.06,1,4.27,4.27,0,0,1,.9,1,2.16,2.16,0,0,1,.27.8,4,4,0,0,1,0,.49c0,.15,0,.36-.64,1.1l-2.32,2.35c-.72.67-.85.8-.94.87a3.84,3.84,0,0,0-.29.27,3.14,3.14,0,0,0-.33.34c-.08.13-.29.23-.39.31s-.47,0-.74,0-.71-.14-1.09-.21L132.48,92a29.74,29.74,0,0,1-6.34-1.69A16.07,16.07,0,0,1,119.93,86,16.34,16.34,0,0,1,117.8,83a4.84,4.84,0,0,1-.39-.83,3.61,3.61,0,0,1-.11-.94,3.4,3.4,0,0,1,.13-1c.06-.19.15-.38.22-.56s.23-.41.87-.83Z"/><path class="cls-18" d="M98,100c-.88-2.64-1.89-2.65-1.89-2.65l-1.39,1.3h0c-.83.72-1.81,1.82-2.92,2.82-2.19,2-4.56,3.84-3.72,4.74,1.2,1.28,4.12.5,6.52-1.75a11.27,11.27,0,0,0,1.11-1.2,12,12,0,0,0,.87,2.47s4.06-4.32,3.66-4.58S98.11,100.45,98,100Zm-6.61-1.84Z"/><path class="cls-19" d="M105.46,94.93c.54,2.2-.47,2.81-1,3.87s-1.29,2-2,2.86-1.45,1.79-2.21,2.64l-1.16,1.27c-.41.4-.6,1-1.78.61l-7.68-8c-.36-1.21.27-1.37.68-1.76l1.32-1.1c.88-.74,1.79-1.44,2.73-2.11s1.93-1.29,2.93-1.89,1.73-1.49,3.92-.87Z"/><path class="cls-16" d="M87.72,88c-.44-2.74-1.43-2.92-1.43-2.92l-1.58,1h0c-.94.58-2.08,1.5-3.34,2.31-2.49,1.58-5.13,3-4.45,4.07,1,1.45,4,1.16,6.71-.66a10.37,10.37,0,0,0,1.3-1,11.79,11.79,0,0,0,.45,2.58s4.71-3.6,4.36-3.92S87.77,88.53,87.72,88Zm-1.57-2.45Z"/><path class="cls-17" d="M97.67,91.29c-.8,2.13-2,2.06-3,2.63s-2.16.88-3.26,1.23-2.2.66-3.32.93l-1.66.4c-.57.1-1.08.51-1.83-.49L82.73,85.06c.38-1.2,1-1,1.56-1.07l1.7-.17c1.14-.11,2.29-.18,3.44-.2s2.32,0,3.49.09,2.27-.26,3.72,1.49Z"/><path class="cls-20" d="M129,70.14a12.91,12.91,0,1,1-4.78-17.63A12.92,12.92,0,0,1,129,70.14Z"/><path class="cls-20" d="M117.63,92.64l.32-.44A.59.59,0,0,0,118,92c5.08-7.85,7.27-16.21-2.18-23.1h0C106.3,62,96.52,69,89.25,80.59h0c-3,4.22,3.82,8.79,9.52,13,6.62,4.83,12.19,8.31,14.35,5.29l2.24-3.08C116.18,94.7,116.94,93.66,117.63,92.64Z"/><path class="cls-21" d="M115.75,82.83c-1-.93-1.19-3.07-2.38-4.76-1.65-2.33-1.19-4.79-1.51-3.75s-1.31,1.13-1.26,1,.19.28.66-1.28-1-3.1-1.13-6.27a19.18,19.18,0,0,1,.2-3.37,7.54,7.54,0,0,0-.72,1.16c1.4-9.82,6.89-13.34,7.5-13.48a3.51,3.51,0,0,0-1.65.1c2.25-2.27,4.22-1.72,4.53-1.64a1.74,1.74,0,0,0-1.25-.91c1.34-.83,2.49-1.26,3.89-.69a1.49,1.49,0,0,1,.89,1.23,2.68,2.68,0,0,1,3-2.32c-2.21,2.35-1.55,2-1.5,2.17s2-.76,3.49-.3a1.64,1.64,0,0,0-1.06.53c1.65,0,3.55-.25,5.62,3a4.06,4.06,0,0,0-2.33-.29,11.48,11.48,0,0,1,3.62,10.18c-.18-.23-1.06-1.55-1.29-1.46.59,1.08,2.45,4.81-3.42,13.72.15-.53.28-1.83,0-1.91,0,1-1.9,3.38-5.51,4.7C119.24,80,117,81.1,115.75,82.83Z"/><path class="cls-16" d="M129.75,67.46c1.86-4.63.51-9.56-2.79-10.89s-7.49,1.34-9.35,6a10.92,10.92,0,0,0-.35,7.57c.82,2.39,1.51,4.37,1,6.23,1.55-2.23,3.51-2.28,6.17-3.24A9.94,9.94,0,0,0,129.75,67.46Z"/><path class="cls-22" d="M129.9,67.12c-1.79,4.48-5.67,7.25-9.14,5.85S115.18,66.3,117,61.82s6.06-7,9.52-5.58S131.7,62.63,129.9,67.12Z"/><path class="cls-23" d="M125.87,63.66a6.55,6.55,0,0,1,1.6.29,3.16,3.16,0,0,1,1.4.74,3,3,0,0,0-1.46-.47,6.94,6.94,0,0,0-1.51,0Z"/><path class="cls-23" d="M123.73,63.3a6.76,6.76,0,0,0-1.37-.83,3.35,3.35,0,0,0-1.58-.35,3.39,3.39,0,0,1,1.67.07,7.49,7.49,0,0,1,1.6.63Z"/><polygon class="cls-24" points="123.34 63.94 121.99 62.95 123.55 63.62 123.34 63.94"/><path class="cls-24" d="M125.83,64.44c.34.07.67.13,1,.21a4.82,4.82,0,0,1,1,.3,4.86,4.86,0,0,0-1-.11c-.34,0-.68,0-1,0Z"/><path class="cls-25" d="M122.75,65.39a1.45,1.45,0,0,0,0,1.36,1.81,1.81,0,0,0,1,.86,1.32,1.32,0,0,0,1.28,0,1.52,1.52,0,0,0,.78-1.12,1.43,1.43,0,0,1-.63,1.35,1.61,1.61,0,0,1-1.56.14,2,2,0,0,1-1.14-1.08A1.38,1.38,0,0,1,122.75,65.39Z"/><path class="cls-24" d="M120.86,68.66a7,7,0,0,0,.85,1.17,1.82,1.82,0,0,0,1.12.61,4.75,4.75,0,0,0,2.65-.81,3.58,3.58,0,0,1-1.16,1,2.52,2.52,0,0,1-1.56.34,2,2,0,0,1-1.37-.87,4.52,4.52,0,0,1-.36-.69C121,69.15,120.9,68.91,120.86,68.66Z"/><path class="cls-26" d="M125.29,55.91A6.54,6.54,0,0,1,127.92,57c2,1.51,2.63,4.57,2.74,5.37a2.62,2.62,0,0,0-1.94-.79l-.39,0-.1-2.47-1.18,2.51c-4.11-.18-6.92-4.83-8.79-2.19,1.77-2.49,4.57-4,7.06-3.55"/><path class="cls-16" d="M95.64,40.28c.66-1.75,3.51-6.6,7.09-4.23s.46,4.3-.25,5a4.43,4.43,0,0,0-1.35,2.85Z"/><path class="cls-17" d="M106.14,72.05c-.38.69-.67.86-.92.93a7.84,7.84,0,0,1-.79.23,4.67,4.67,0,0,1-1.54,0,6.34,6.34,0,0,1-2.73-1.12,18.75,18.75,0,0,1-4.19-4A25.91,25.91,0,0,1,91.32,46.7a20.75,20.75,0,0,1,2.27-5.56c.26-.45.56-.88.85-1.31a7.83,7.83,0,0,1,1.09-1.14,9.42,9.42,0,0,1,1.38-.87,2.24,2.24,0,0,1,.89-.18l.53,0c.15,0,.38,0,1.1.71l2.15,2.53c.57.81.65,1,.65,1.13l.1.44a2,2,0,0,1,0,.64,5.53,5.53,0,0,1-.22.93,2.93,2.93,0,0,1-.35.78l-.42.74a15.09,15.09,0,0,0-1.27,3.36,24.19,24.19,0,0,0-.7,7.81,21.48,21.48,0,0,0,2,7.81,12,12,0,0,0,2.23,3.17,11.2,11.2,0,0,1,1.31,1.47,6.5,6.5,0,0,1,.67,1l.35.59a2.2,2.2,0,0,1,.23,1.29Z"/></svg>