<svg width="180.73" height="159.23" version="1.1" viewBox="0 0 180.73 159.23" xmlns="http://www.w3.org/2000/svg">
  <path d="m38.018 151.95h107.04c19.709 0 35.679-10.359 35.679-23.143 0-12.783-15.97-23.142-35.679-23.142h-107.04c-19.708 0-35.679 10.359-35.679 23.142 0.34015 12.784 16.311 23.143 35.679 23.143z"
        fill="#011e2b" stroke-width=".99998"/>
  <g transform="matrix(.99998 0 0 .99998 -318.2 -445.15)" fill="none" opacity=".35">
    <path
      d="m438.52 575.89c1.379-2.393 1.839-5.221 1.379-8.266-0.46-2.828-1.609-5.656-3.448-7.831s-4.138-4.132-6.666-5.438c-2.529-1.305-5.517-2.392-8.276-2.175 2.529 1.088 4.827 2.61 6.896 4.351 2.069 1.74 3.908 3.48 5.517 5.437 1.609 1.958 2.759 4.133 3.678 6.526 0.69 1.958 0.92 4.568 0.92 7.396z"
      fill="#fff" opacity=".35"/>
  </g>
  <g stroke-width=".26458">
    <g transform="matrix(3.7795 0 0 3.7795 1003.3 -423.03)">
      <path
        d="m-257.59 144.39c0.60827 1.266 2.1897 4.0862 4.6834 2.935 2.4328-1.1509 5.1697-5.5248 4.5614-6.7911-0.60801-1.266-1.642-0.40269-4.1357 0.69083-2.4328 1.1509-5.7171 1.9566-5.1091 3.1652z"
        fill="#554741" opacity=".01"/>
      <path
        d="m-263.92 141.39c0.30427 1.3811 1.034 4.4889 3.7103 3.9709 2.676-0.46037 6.5077-4.086 6.2645-5.4674-0.24341-1.3811-1.4597-0.80565-4.1968-0.34528-2.6151 0.51805-6.0211 0.46038-5.778 1.8418z"
        fill="#554741" opacity=".01"/>
      <path d="m-263.98 129.65c0.18256-0.69056 0.72998-2.2445 2.4937-1.669 1.7637 0.57547 0.18256 2.5897 0.18256 2.5897z" fill="#553920"/>
      <path
        d="m-254.37 130.81c-0.36486 0-0.48657 0-0.60802 0.0577l-0.24341 0.11509c-0.1823 0.0577-0.24316 0.1151-0.36486 0.17278-0.24342 0.11509-0.36486 0.17251-0.42572 0.2876-0.24342 0.17277-0.48657 0.23019-0.91228 0.28787-0.36486 0.0574-0.85143 0.0574-1.338 0.11509h-1.4597c-0.36512 0-0.66913-0.11509-0.85169-0.17277-0.1823-0.1151-0.12144-0.1151-0.12144-0.1151s-0.0609-0.1725-0.0609-0.34528c0-0.11509 0-0.17251-0.0609-0.34528-0.0609-0.0577-0.0609-0.11509-0.12171-0.17277-0.0609-0.0574-0.12171-0.1151-0.18256-0.17251l-0.12145-0.11509c-0.0609-0.0577-0.1217-0.0577-0.48657-0.34529l-1.2774-0.86333c-0.36486-0.23019-0.48657-0.23019-0.54743-0.17277l-0.24315 0.0577c-0.12171 0.0574-0.304 0.11509-0.36486 0.17277-0.18256 0.17251-0.30427 0.34528-0.42571 0.51779-0.24342 0.40296-0.30427 0.80565-0.36513 1.2086-0.0609 0.80566 0.12171 1.7841 0.66913 2.6474 0.54743 0.86307 1.5206 1.4962 2.4328 1.7841 0.91228 0.23019 1.7028 0.23019 2.4328 0.17251 0.36486-0.0574 0.60828-0.11509 0.91228-0.17251 0.30401-0.0577 0.60828-0.11509 0.91229-0.23019 0.60827-0.17277 1.2166-0.34528 1.8854-0.69082 0.66913-0.34528 1.338-0.80566 1.8246-1.4962 0.24342-0.34528 0.36513-0.69056 0.36513-1.0358 0-0.17277 0-0.34528-0.12171-0.51805 0-0.11509-0.12171-0.17251-0.18256-0.2876-0.0609-0.1151-0.1823-0.23045-0.54742-0.34555z"
        fill="#6f382b"/>
      <path
        d="m-259.78 143.98c-0.42572 1.3811-1.0337 1.4388-1.0337 1.4388l-0.79084-0.63315c-0.48657-0.40296-1.034-0.97843-1.642-1.4388-1.2774-1.0358-2.5546-1.9568-2.1288-2.4746 0.66913-0.69057 2.2503-0.34529 3.6491 0.80565 0.24342 0.17251 0.42598 0.40296 0.60828 0.63315 0.12171-0.40296 0.24341-0.97843 0.42571-1.3237 0 0 2.3114 2.1868 2.1288 2.3596-0.18256 0.1151-1.1557 0.40296-1.2166 0.63315z"
        fill="#4b2f1a"/>
      <path
        d="m-255.89 137.19c-1.1554-0.51779-1.5812-0.0574-2.2503 0.0577-0.60827 0.23019-1.2166 0.46038-1.7637 0.69056-0.60828 0.23019-1.1557 0.51806-1.7031 0.80566l-0.85143 0.46064c-0.24342 0.17251-0.60828 0.17251-0.54742 0.86307l3.406 4.8345c0.60827 0.34528 0.79057 0 1.034-0.17278l0.72972-0.57547c0.48657-0.34528 0.97314-0.74824 1.4597-1.1509 0.48657-0.40296 0.91228-0.86334 1.3988-1.2663 0.42598-0.51779 1.034-0.69056 0.97314-1.8992z"
        fill="#653127"/>
      <path
        d="m-253.51 144.73c-0.1217 1.4388-0.66913 1.5539-0.66913 1.5539l-0.91228-0.51779c-0.54742-0.28787-1.2163-0.69083-1.9463-1.0935-1.4597-0.74824-2.9803-1.4388-2.6151-2.0143 0.48657-0.80566 2.1894-0.74825 3.7708 0.11509 0.24316 0.17251 0.54743 0.2876 0.72973 0.46037 0-0.40296 0.0609-1.0358 0.18256-1.3811 0 0 2.7368 1.7264 2.5546 1.8992-0.24342 0.34528-1.0948 0.74798-1.0948 0.97816z"
        fill="#4b2f1a"/>
      <path
        d="m-250.78 137.25c-0.60828-0.23019-1.0948-0.23019-1.5206-0.0574-0.36486 0.17251-0.72972 0.4027-1.0948 0.57547-0.72972 0.46037-1.338 0.97843-1.8854 1.5539-0.54716 0.57547-0.97314 1.1509-1.338 1.6113-0.18229 0.23019-0.36486 0.46037-0.48656 0.63315-0.12171 0.23019-0.36486 0.23019 0 0.69056l4.744 3.7409c0.79084 0 0.91229-0.46037 1.1557-0.74824 0.18257-0.34528 0.36487-0.63315 0.48657-0.92075 0.30401-0.51805 0.54743-1.0361 0.72972-1.4388 0.24342-0.40296 0.36513-0.80566 0.60828-1.2086 0.12171-0.23019 0.24342-0.40296 0.36486-0.57547 0.12171-0.23018 0.12171-0.51805 0.0609-1.0935z"
        fill="#6f382b"/>
      <path d="m-260.21 122.98c1.3991 3.6258 5.5957 5.525 9.4274 4.2013s5.8388-5.2948 4.44-8.9204c-1.3989-3.6258-5.5957-5.525-9.4274-4.2013s-5.8388 5.2948-4.44 8.9204z" fill="#9c4523"/>
      <path
        d="m-261.42 134.55v-0.40296c0.304-4.8919 2.0069-9.1506 8.5148-9.1506 6.5685 0 8.6974 5.9854 8.15 13.179 0 2.7625-4.6223 2.59-8.5148 2.59-4.5617 0-8.2108-0.23019-8.2108-2.187v-2.0143c0-0.69056 0-1.3811 0.0609-2.0143z"
        fill="#9c4523"/>
      <path
        d="m-257.22 134.78v-0.40296c0.1823-4.7191 0.97287-8.8053 5.8386-8.8053l0.24342-0.11509c4.9265 0 6.8728 4.6617 6.4471 11.568l-0.0608 0.92075c0 2.6474-3.4668 2.8202-6.3862 2.8202-3.406 0-4.1966 0-6.1428-0.1151v-3.9134c0.0608-0.69083 0.0608-1.3237 0.0608-1.9569z"
        fill="#dcad76" opacity=".07"/>
      <path
        d="m-254.12 131.15c0.66886-0.34555 0.97313-1.4388 1.8246-2.187 1.1554-1.0358 1.1554-2.3596 1.2163-1.7841 0.0609 0.57547 0.60828 0.74824 0.54743 0.63314 0-0.0577-0.12171 0.1151-0.24316-0.74824-0.0609-0.86333 0.91229-1.4962 1.338-3.1078 0.12171-0.46038 0.30401-1.3237 0.24315-1.7841 0.12171 0.17277 0.18257 0.46038 0.24342 0.69056 0.30401-5.2372-2.2503-7.5967-2.6154-7.7692 0.12171 0 0.48657 0 0.91229 0.23019-0.97314-1.3814-2.1286-1.3237-2.3111-1.3237 0.12171-0.23019 0.54743-0.34529 0.79084-0.34529-0.60828-0.57573-1.2166-0.92101-2.068-0.74824-0.48657 0.1151-0.60828 0.51806-0.60828 0.51806 0.12171-0.34555-0.18256-1.3814-1.3988-1.4965 0.97314 1.4388 0.60828 1.2086 0.60828 1.2663-0.0609 0.0574-1.034-0.63315-1.8854-0.51805 0.24315 0.0574 0.42571 0.23018 0.54715 0.40269-0.91228-0.17251-1.8854-0.51779-3.4057 0.92102 0.66886-0.17278 1.0337 0.0574 1.2771 0.11509-0.18256 0.11509-2.9194 1.6113-3.102 4.8919 0.1217-0.11509 0.72998-0.69083 0.85169-0.63315-0.42598 0.51806-1.8857 2.2445 0.36486 7.4242 0-0.28787 0.0608-0.97843 0.1823-0.97843-0.12145 0.51779 0.66913 1.9566 2.4937 2.9927 2.6154 1.4962 3.7102 2.3596 4.1968 3.338z"
        fill="#f4dcbf"/>
      <path
        d="m-259.9 121.6c-0.54742-2.5897 0.72999-5.007 2.6763-5.3522 1.9463-0.34528 3.9531 1.4388 4.5006 4.0285 0.30428 1.4965 0 2.935-0.60827 3.9711-0.72972 1.1509-1.2772 2.1294-1.2163 3.1078-0.60828-1.3237-1.7029-1.5539-3.0411-2.3021-1.034-0.63315-1.9463-1.8992-2.3111-3.4531z"
        fill="#553920"/>
      <path
        d="m-259.84 121.88c0.72972 2.4746 2.676 4.1436 4.6831 3.6258 2.0071-0.51805 3.5277-3.1655 2.7977-5.5824-0.72972-2.4749-2.9194-4.0288-4.9263-3.5108-1.9463 0.51805-3.2237 3.0501-2.5546 5.4674z"
        fill="#d7ad8b"/>
      <path
        d="m-257.47 120.04c-0.30401 0.0577-0.54743 0.17277-0.79058 0.28786-0.24342 0.1151-0.48657 0.2876-0.66913 0.51779 0.18256-0.17251 0.42571-0.2876 0.72972-0.40269 0.24342-0.0577 0.54742-0.1151 0.79084-0.17278z"
        fill="#5e2b1e"/>
      <path d="m-256.13 120.04c0.48657-0.17277 1.034-0.34554 1.5812-0.17277-0.24315-0.11509-0.54716-0.17277-0.85143-0.17277-0.304 0-0.54742 0.0577-0.85143 0.11509z" fill="#5e2b1e"/>
      <path d="m-256.01 120.62 0.8517-0.46038-0.91229 0.28761z" fill="#1c170e"/>
      <path d="m-257.35 120.73-0.54742 0.0577c-0.1823 0-0.36486 0-0.48657 0.0577h0.48657l0.48656 0.0574z" fill="#1c170e"/>
      <path
        d="m-255.77 121.42c0.12171 0.23019 0.0609 0.51779-0.0609 0.69057-0.12144 0.17277-0.36486 0.34528-0.60801 0.40296-0.24342 0.0574-0.48657 0.0574-0.72999-0.1151-0.18256-0.11509-0.36486-0.34554-0.36486-0.63314-0.0609 0.2876 0.0609 0.57546 0.24315 0.74824 0.24342 0.17251 0.54743 0.23018 0.8517 0.17251 0.304-0.0574 0.54716-0.23019 0.66886-0.51806 0.18257-0.23019 0.18257-0.51779 0-0.74798z"
        fill="#4d463c"/>
      <path
        d="m-254.97 123.27c-0.12171 0.11509-0.24315 0.2876-0.36486 0.34528-0.12171 0.1151-0.24342 0.17251-0.42572 0.23019-0.1217 0.0574-0.30427 0.11509-0.48657 0.11509-0.18256 0.0577-0.36486 0.0577-0.54742 0.0577 0.18256 0.1151 0.36486 0.17251 0.54742 0.17251 0.1823 0 0.36487-0.0574 0.60802-0.11509 0.18256-0.1151 0.36512-0.23019 0.42598-0.34528 0.12144-0.1151 0.24315-0.28787 0.24315-0.46038z"
        fill="#1c170e"/>
      <path
        d="m-256.86 116.19c-0.48657 0-0.85169 0.17278-1.2774 0.40296-1.2163 0.69057-1.7028 2.3596-1.8246 2.7625 0.30427-0.23019 0.72998-0.40296 1.1557-0.28787 0.0609 0 0.12144 0 0.1823 0.0577l0.24341-1.2663 0.48657 1.3814c2.3111 0.17251 4.1357-2.072 4.9874-0.63314-0.8517-1.4965-2.5546-2.4746-3.9534-2.4172z"
        fill="#57423a"/>
      <path
        d="m-254.31 120.22s0.0609 0.0574 0 0c0.12145 0.51779-0.24341 1.0358-0.85169 1.1509-0.54716 0.11509-1.0946-0.23019-1.2163-0.74824v-0.17251c-0.24342-0.0577-0.42571-0.0577-0.60828 0-0.1217 0.0574-0.18229 0.11509-0.24315 0.11509 0 0.0574 0.0609 0.1151 0.0609 0.17251 0.12144 0.51806-0.30427 1.0361-0.8517 1.0935-0.54742 0.11509-1.0946-0.23019-1.2163-0.74825-0.0609 0-0.24341 0.0577-0.24341-0.0574 0-0.0577 0.1217-0.0577 0.24341-0.11509 0-0.46038 0.36486-0.86334 0.85143-0.97843 0.48657-0.0574 0.91229 0.11509 1.0948 0.46037 0.12171-0.11509 0.42571-0.2876 0.91228-0.17251 0.0609-0.40296 0.36486-0.74824 0.85143-0.86333 0.48657-0.1151 1.034 0.17277 1.1557 0.63315 0.0609 0 0.24315-0.0577 0.24315 0 0.0609 0.23018-0.0609 0.23018-0.1823 0.23018zm-2.9803 0.57547c-0.0609-0.46037-0.60828-0.74824-1.0948-0.69056-0.48657 0.11509-0.85143 0.51779-0.79057 0.97816 0.0609 0.46064 0.60801 0.74825 1.0946 0.69083 0.54742-0.0577 0.91255-0.51805 0.79084-0.97843zm2.9194-0.51805c-0.0608-0.46038-0.60828-0.74798-1.0948-0.69056-0.48656 0.11509-0.85142 0.51805-0.79057 0.97842 0.0609 0.46038 0.60801 0.74825 1.0946 0.69057 0.54742-0.0577 0.85169-0.51806 0.79084-0.97843z"/>
    </g>
    <g transform="matrix(3.7795 0 0 3.7795 1003.3 -423.03)" clip-rule="evenodd" fill-rule="evenodd">
      <path d="m-258.08 126.03-2.1894 2.5323c0.36486-0.0577 0.79057-0.0577 0.97313 0l0.42572 2.5323 1.5814-0.23019z" fill="#f1f1f1"/>
      <path d="m-257.23 126.2-3.102 2.417c0.36486-0.0574 0.79058-0.0574 0.97314 0l0.42571 2.5323 2.4328-0.34528z" fill="#e0dcdc"/>
      <path d="m-259.29 128.62 4.7442-1.6116c-0.48657-0.1725-1.034-0.34528-1.5814-0.46037l-4.1968 2.072c0.42598-0.0577 0.79084-0.0577 1.034 0z" fill="#fff"/>
      <path d="m-254.55 127.01 0.54743 3.4531-4.9266 0.69082-0.42571-2.5323h-0.0608z" fill="#f1f1f1"/>
      <path d="m-260.27 128.62c0.36486-0.0574 0.72998-0.0574 0.97313 0l0.42572 2.5323-0.97314 0.11509z" fill="#e0dcdc"/>
      <path d="m-262.03 126.6 1.7637 1.9569c-0.18257 0.0574-0.42572 0.11509-0.48657 0.23018l0.42571 2.5321-0.85143 0.11509z" fill="#f1f1f1"/>
      <path d="m-262.46 126.95 2.1894 1.669c-0.18257 0.0574-0.42572 0.11509-0.48657 0.23018l0.42571 2.5321-1.338 0.17277z" fill="#e0dcdc"/>
      <path d="m-260.75 128.85-2.8586-0.51806c0.1823-0.28786 0.42571-0.57546 0.72972-0.74824l2.6763 1.0361c-0.24342 0-0.48657 0.1151-0.54742 0.23019z" fill="#fff"/>
      <path d="m-263.67 128.33 0.54742 3.4531 2.7368-0.4027-0.42572-2.5323z" fill="#f1f1f1"/>
      <path d="m-260.27 128.56c-0.24342 0.0577-0.36486 0.11536-0.48657 0.23045l0.42571 2.5321 0.54743-0.0574z" fill="#e0dcdc"/>
      <path d="m-263.73 128.04 2.9191 0.80592 1.2774 7.8843-3.1628-1.3811z" fill="#de8b30"/>
      <path d="m-254.43 127.24-5.048 1.4962 1.2771 7.942 5.0482-1.4962z" fill="#de8b30"/>
      <path
        d="m-260.81 128.85 1.2771 7.8843c0.12171 0.11509 0.42572 0.23019 0.72999 0.17277 0.304-0.0577 0.54742-0.17277 0.60801-0.34528l-1.2771-7.8846c-0.12171 0.17277-0.30401 0.34528-0.60828 0.34528-0.30401 0-0.60801-0.0574-0.72972-0.17251z"
        fill="#553920"/>
      <g fill="#de8b30">
        <path d="m-258.75 136.39-0.36486-2.1294c-0.0609 0-0.18257 0.0574-0.24342 0.0574h-0.24315l0.36486 2.1294h0.24341c0.12145 0 0.1823 0 0.24316-0.0574z"/>
        <path d="m-259.11 134.03-0.60801-3.6833c-0.0609 0-0.18256 0.0574-0.24342 0.0574h-0.24315l0.60801 3.6833h0.24342c0.0609-0.0574 0.1823-0.0574 0.24315-0.0574z"/>
        <path d="m-259.78 129.94-0.12171-0.69056c-0.0609 0-0.1823 0.0574-0.24316 0.0574h-0.24341l0.12171 0.69083h0.24315c0.0609 0 0.18256-0.0577 0.24342-0.0577z"/>
      </g>
    </g>
    <g transform="matrix(3.7795 0 0 3.7795 1003.3 -423.03)">
      <path
        d="m-261.85 127.41c0.24341 0.34528-0.12171 0.97843-0.85143 1.4388-0.72999 0.46038-1.4597 0.51806-1.7031 0.17251-0.24315-0.34528 0.12171-0.97816 0.8517-1.4385 0.66886-0.46064 1.4597-0.51805 1.7029-0.17277z"
        fill="#4b2f1a"/>
      <path d="m-256.01 133.86c-0.48657-0.57546-1.3988-1.9566 0.12145-2.8773 1.5814-0.92101 2.2505 1.4385 2.2505 1.4385z" fill="#4b2f1a"/>
      <path
        d="m-248.47 128.1c-0.24315 0.23018-0.36486 0.34528-0.36486 0.40269l-0.1217 0.23019c-0.0609 0.17277-0.0609 0.28787-0.12171 0.40296-0.0609 0.23019-0.0609 0.40296-0.0609 0.57547 0 0.28787-0.0606 0.57547-0.24315 0.80566-0.30401 0.46063-0.85143 0.92101-1.5814 1.3814l-0.12171 0.0574c-0.0606 0.0577-0.0606 0.0577-0.12145 0.0577-0.0609 0-0.1217 0.0574-0.18256 0.0574-0.12171 0.0577-0.24315 0.0577-0.304 0.0577h-0.54743c-0.18256-0.0577-0.36486-0.0577-0.60827-0.23019-0.12171-0.0577-0.24316-0.17277-0.42572-0.17277-0.12171 0-0.18256 0-0.304-0.0574-0.0609 0-0.18257 0-0.24342 0.0574l-0.1823 0.0577c-0.0609 0-0.12171 0.0574-0.54742 0.2876l-1.2166 0.92102c-0.36486 0.2876-0.36486 0.40269-0.36486 0.46037l-0.0608 0.17251c0 0.11509-0.0609 0.23019 0 0.34528 0.0608 0.17278 0.12171 0.34528 0.24342 0.51806 0.18229 0.28786 0.48656 0.51805 0.79057 0.74824 0.60828 0.40269 1.4597 0.74798 2.3111 0.86307s1.764 0 2.4937-0.2876c0.36486-0.1151 0.72972-0.34528 1.0948-0.51806 0.1823-0.11509 0.30401-0.23018 0.48657-0.34528 0.0608-0.0574 0.12144-0.11509 0.1823-0.17251l0.18256-0.17277c0.85143-0.80566 1.7029-1.8992 2.0071-3.338 0.12171-0.69057 0.0609-1.4962-0.18256-2.1294-0.12171-0.34528-0.30401-0.57547-0.54743-0.80566-0.12144-0.11509-0.304-0.17277-0.48657-0.28786-0.12144 0-0.18229-0.0574-0.304-0.0574-0.0609 0-0.18257 0-0.54743 0.1151z"
        fill="#6f382b"/>
    </g>
  </g>
  <path d="m86.055 102.47c1.379 0 2.758-1.087 2.758-2.61v-1.523c0-1.305-1.149-2.61-2.758-2.61h-0.92001c-0.91898 0-1.609 0.65298-1.609 1.523v2.61c0 1.523 1.15 2.61 2.529 2.61z" fill="none"
        stroke="#1795d2" stroke-miterlimit="10" stroke-width=".62929"/>
  <path d="m94.559 106.14c3.678 0 6.6659-2.61 6.6659-6.091v-4.3498c0-0.87 0.23016-2.61-0.68897-2.61h-11.724c-0.91898 0-0.91898 1.74-0.91898 2.61v4.3498" fill="#1795d2" stroke-width=".99998"/>
  <g transform="matrix(.99998 0 0 .99998 -318.2 -445.15)" fill="none" opacity=".77">
    <path
      d="m411.62 534.34c0.23-0.653 0.23-1.088 0.23-1.741 0-0.652-0.23-1.305-0.69-1.74-0.23-0.435-0.23-1.087-0.46-1.522v-1.74c-0.23 0.652-0.23 1.087-0.46 1.74 0 0.652 0 1.305 0.23 1.74 0.46 0.435 0.69 0.87 0.69 1.522 0.46 0.653 0.46 1.306 0.46 1.741z"
      fill="#e4e4e3" opacity=".77"/>
  </g>
  <g transform="matrix(.99998 0 0 .99998 -318.2 -445.15)" fill="none" opacity=".55">
    <path
      d="m409.78 532.82c0.23-0.435 0.46-0.652 0.46-1.087 0-0.436-0.23-0.871-0.46-1.088-0.229-0.218-0.229-0.653-0.229-1.088s-0.23-0.652-0.23-1.087c-0.23 0.652-0.23 1.522 0 2.392 0.23 0.435 0.459 0.653 0.459 0.871z"
      fill="#f2f2f2" opacity=".55"/>
  </g>
  <g transform="matrix(3.7795 0 0 3.7795 1003.3 -423.03)" stroke-width=".26458">
    <path
      d="m-240.19 136.1c0.12171-0.17277 0.18256-0.40296 0.24315-0.63315 0-0.11509 0-0.23019-0.0606-0.34528-0.0609-0.11509-0.12171-0.23019-0.18256-0.28787-0.12171-0.17251-0.18256-0.34528-0.24342-0.51779-0.0606-0.17277 0-0.40296 0.0609-0.57547-0.1823 0.1151-0.24316 0.4027-0.24316 0.63289 0 0.23018 0.12171 0.46037 0.24316 0.63315 0.0608 0.11509 0.1217 0.17277 0.18256 0.23018 0.0608 0.0577 0.0608 0.17278 0.0608 0.28787 0 0.17251-0.0608 0.34528-0.0608 0.57547z"
      fill="#e4e4e3"/>
    <path d="m-240.44 140.07c-0.87339 0-1.5812-0.0259-1.5812-0.0577 0-0.0317 0.70776-0.0574 1.5812-0.0574s1.5814 0.0257 1.5814 0.0574c0 0.0318-0.70803 0.0577-1.5814 0.0577z" fill="#e4e4e3"/>
    <path
      d="m-241.35 139.96h1.8854c0.48657 0 0.85143-0.34529 0.85143-0.80592v-1.4962c0-0.46038-0.36486-0.80566-0.85143-0.80566h-1.8854c-0.48657 0-0.8517 0.34528-0.8517 0.80566v1.4962c0 0.46063 0.36513 0.80592 0.8517 0.80592z"
      fill="#1795d2"/>
  </g>
  <path d="m94.786 94.196c-3.427 0-6.2059-0.19502-6.2059-0.43498 0-0.24113 2.779-0.43502 6.2059-0.43502 3.428 0 6.2071 0.19389 6.2071 0.43502 0 0.24-2.779 0.43498-6.2071 0.43498z" fill="none"
        stroke="#1795d2" stroke-miterlimit="10" stroke-width=".3659"/>
  <path
    d="m91.12 105.95h1.379c1.15 0 2.299-0.87002 2.299-2.175v-7.395c0-1.088-0.91902-2.393-2.299-2.393h-1.839c-0.23017 0-0.689 0-0.91899-0.21808-0.23017 0-0.23017-0.21694-0.46-0.43498-1.839-0.87-1.379 1.958-1.379 3.046v6.743c0.23017 1.957 1.839 2.827 3.218 2.827z"
    fill="#f2f2f2" opacity=".08" stroke-width=".99998"/>
  <path d="m94.786 93.97c-2.793 0-5.057-0.19502-5.057-0.43502 0-0.24 2.264-0.43498 5.057-0.43498 2.793 0 5.0581 0.19502 5.0581 0.43498 0 0.24-2.265 0.43502-5.0581 0.43502z" fill="#603a19"
        stroke-width=".99998"/>
  <g transform="matrix(3.7795 0 0 3.7795 1003.3 -423.03)" fill="#f2f2f2" stroke-width=".26458">
    <path d="m-238.74 138.92c-0.0609 0-0.0609 0-0.0609-0.0577v-1.8992s0-0.0577 0.0609-0.0577c0 0 0.0608 2.6e-4 0.0608 0.0577l-0.0608 1.9569c0.0608 0 0 0 0 0z" opacity=".08"/>
    <path d="m-239.34 136.68c-0.1823 0-0.304-0.0574-0.48657 0h-0.48657 0.48657z"/>
    <path d="m-240.26 136.68c-0.12171 0-0.18256-0.0574-0.30401 0h-0.30427 0.30427c0.12145-0.0574 0.24315 0 0.30401 0z"/>
  </g>
  <g transform="matrix(3.7795 0 0 3.7795 1003.3 -423.03)" stroke-width=".26458">
    <path d="m-244.03 140.3h3.4668c0.0609 0 0.0609-0.0577 0.0609-0.0577 0-0.0574-0.0609-0.0574-0.0609-0.0574h-3.4668c-0.0609 0-0.0609 0.0574-0.0609 0.0574s0 0.0577 0.0609 0.0577z" fill="#fff"
          opacity=".15"/>
    <path d="m-260.27 143.93s-0.24316 1.669-2.7368-0.40296c2.068 1.7841 2.1894 1.8992 2.1894 1.8992s0.54743-0.11509 0.85143-0.97843c-0.0606-0.17251-0.304-0.51779-0.304-0.51779z" fill="#e4e4e3"
          opacity=".05"/>
    <path d="m-254.06 144.68s0.12144 1.7841-2.9803 0.1151c2.5543 1.4962 2.7368 1.5539 2.7368 1.5539s0.54743-0.23019 0.66914-1.1512c-0.0609-0.23018-0.42572-0.51779-0.42572-0.51779z" fill="#e4e4e3"
          opacity=".05"/>
    <path
      d="m-236.48 150.73c0.79057 1.4597 0.42571 1.8854 0.42571 1.8854l-1.0948 0.12171c-0.66886 0.0608-1.5206 0.0608-2.4328 0.18256-1.7637 0.1823-3.5277 0.48657-3.5883-0.24342-0.0608-1.034 1.3988-2.0071 3.3451-2.1894h0.97314c-0.24342-0.36512-0.60828-0.97313-0.72999-1.3988 0 0 3.5277-0.0609 3.4668 0.24315-0.0609 0.24342-0.54743 1.1557-0.36486 1.3989z"
      fill="#4d331b"/>
    <path
      d="m-229.25 151.4c0.91229 1.3989 0.48657 1.8854 0.48657 1.8854l-1.0948 0.12171c-0.66887 0.12171-1.5203 0.12171-2.4326 0.30401-1.764 0.24342-3.5277 0.66913-3.5886-0.0609-0.12171-1.0337 1.338-2.0677 3.2843-2.372 0.36486-0.0609 0.66913-0.0609 0.97313-0.0609-0.24315-0.36486-0.66886-0.97314-0.79057-1.338 0 0 3.5274-0.24315 3.5274 0.0609-0.0606 0.304-0.48657 1.2166-0.36486 1.4597z"
      fill="#553920"/>
    <path
      d="m-224.81 139.66c-0.54743-0.30401-0.91229-0.36486-1.3383-0.48657-0.42571-0.0606-0.79057-0.12144-1.1554-0.12144-0.72999 0.0608-1.4597 0.12144-2.1897 0.18229-0.72973 0.12171-1.4597 0.18257-2.2503 0.42572-0.42571 0.12171-0.79057 0.24342-1.3988 0.48657-0.12171 0.0609-0.304 0.12171-0.48657 0.24341-0.18256 0.12171-0.42571 0.24316-0.72998 0.66914-0.1823 0.24315-0.36486 0.48656-0.54716 0.97313-0.0608 0.12145-0.0608 0.24316-0.12171 0.36486 0 0.0609 0 0.12171-0.0609 0.24316v0.60827c-0.0609 0.85143 0 1.5814 0 2.3111 0.0609 0.72998 0.0609 1.4597 0.18256 2.1897 0.0606 0.72972 0.1823 1.4597 0.30401 2.1894 0.1217 0.72998 0.18256 1.4597 0.79057 2.068l4.9874-1.2166c0.36486-0.72972 0.12171-1.2772 0-1.9463-0.12171-0.60801-0.24342-1.2771-0.36486-1.8854-0.12171-0.60801-0.18257-1.2771-0.24342-1.8854-0.0608-0.60828-0.12171-1.2771-0.1823-1.7637v-0.18261 0.12171c0 0.0609 0 0.12171-0.0608 0.18257 0 0.12144-0.0609 0.24315-0.0609 0.304-0.18256 0.42572-0.30427 0.60828-0.42571 0.72972-0.24342 0.24342-0.30427 0.0397-0.36513 0.0397-0.0606 0-0.0606 0.26458-0.0606 0.26458 0.0606-0.0608 0.30401-0.18256 0.54716-0.30427 0.48657-0.1823 1.0948-0.42571 1.7031-0.60801 0.60827-0.18256 1.2163-0.36512 1.8246-0.54742 0.30427-0.12171 0.60828-0.18257 0.91229-0.36486 0.24341-0.18257 0.60827-0.30427 0.72998-0.54743z"
      fill="#6f382b"/>
    <path
      d="m-232.17 139.18c-0.54742-0.30428-0.91228-0.36513-1.338-0.48657-0.42571-0.0609-0.79057-0.12171-1.1557-0.12171-0.72972 0.0608-1.4597 0.12171-2.1894 0.1823-0.72998 0.1217-1.4597 0.18256-2.2503 0.42598-0.42598 0.12144-0.79084 0.24315-1.3991 0.48656-0.12145 0.0606-0.30401 0.12145-0.48657 0.24316-0.1823 0.1217-0.42572 0.24341-0.72972 0.66913-0.18257 0.24315-0.36486 0.48657-0.54743 0.97313-0.0608 0.12145-0.0608 0.24316-0.1217 0.36487 0 0.0609 0 0.1217-0.0609 0.24315v0.60827c-0.0606 0.85143 0 1.5814 0 2.3111 0.0609 0.72999 0.0609 1.4597 0.18256 2.1897 0.0609 0.72972 0.18257 1.4597 0.30401 2.1894 0.12171 0.72998 0.18256 1.4597 0.79084 2.068l4.9871-1.2163c0.36513-0.72998 0.12171-1.2774 0-1.9463-0.12144-0.60828-0.24315-1.2774-0.36486-1.8857-0.12144-0.60801-0.1823-1.2771-0.24315-1.8854-0.0609-0.60801-0.12171-1.2771-0.18256-1.7637v-0.18251 0.1217c0 0.0609 0 0.12171-0.0609 0.18257 0 0.12171-0.0608 0.24315-0.0608 0.304-0.1823 0.42572-0.30401 0.60828-0.42572 0.72999-0.24315 0.24315-0.304 0.0394-0.36486 0.0394-0.0608 0-0.0608 0.26458-0.0608 0.26458 0.0608-0.0608 0.30427-0.18256 0.54742-0.304 0.48657-0.18256 1.0948-0.42598 1.7029-0.60828 0.60828-0.18256 1.2166-0.36486 1.8248-0.54742 0.30401-0.12171 0.60801-0.18256 0.91228-0.36486 0.24316-0.18256 0.60828-0.30427 0.72973-0.54742z"
      fill="#6f382b"/>
    <path d="m-246.46 135.28c-0.72999 0.91229-2.1288 3.1626 0.24315 4.6223 2.372 1.4597 2.1288-0.0609 2.3114-0.72973 0.30401-1.1557 1.1554-1.6423 1.1554-1.6423z" fill="#553920"/>
    <path
      d="m-247.31 138.26c0.30401-0.48657 1.338-0.48657 2.3111 0.12171 0.97314 0.54716 1.5814 1.4594 1.2774 1.946-0.30427 0.48657-1.3383 0.48657-2.3114-0.12144-1.034-0.60828-1.5812-1.4597-1.2772-1.9463z"
      fill="#553920"/>
    <path
      d="m-238.74 130.9c-0.24315-0.36486-0.42572-0.42572-0.54742-0.48657-0.12145 0-0.24316-0.0606-0.36486-0.0606h-0.54743c-0.12144 0-0.304 0.0606-0.42571 0.12144-0.12171 0.0609-0.1823 0.12171-0.30401 0.18256-0.36486 0.30401-0.66913 0.54743-1.034 0.79058-0.66913 0.48657-1.338 0.97314-1.9463 1.4597-0.60828 0.48656-1.2163 0.97313-1.7637 1.3988l-0.36512 0.36512c-0.12145 0.12145-0.24315 0.24316-0.36486 0.36486-0.12171 0.12171-0.24315 0.24316-0.30401 0.42572 0 0.12171-0.0609 0.24341-0.0609 0.36486 0 0.0608 0 0.18256 0.0609 0.30427l0.0609 0.24315c0 0.0609 0.0608 0.18256 0.36486 0.66913l1.0948 1.642c0.36486 0.48657 0.42572 0.54742 0.48657 0.60827l0.1823 0.12171c0.12171 0.0609 0.24342 0.12171 0.30427 0.12171h0.48657c0.304 0 0.48657-0.18256 0.66886-0.36512 0.42572-0.30401 0.79084-0.60802 1.0948-0.91229 0.66913-0.66886 1.2163-1.3988 1.7029-2.1286 0.48657-0.72999 0.91255-1.5206 1.2774-2.3114 0.1823-0.36486 0.36486-0.79058 0.54742-1.0946 0.12144-0.18256 0.12144-0.36513 0.12144-0.60828 0-0.12171-0.0606-0.24342-0.12144-0.42571 0-0.12171-0.0609-0.18257-0.12171-0.24342 0.0609 0 0-0.12144-0.18256-0.54742z"
      fill="#6f382b"/>
    <path d="m-241.53 126.71c2.1286 4.0142 7.0551 5.5957 11.069 3.4668 4.014-2.1286 5.5954-7.0551 3.4668-11.069-2.1288-4.014-7.0554-5.5954-11.069-3.4668-4.0143 2.068-5.5957 7.0554-3.4668 11.069z"
          fill="#9c4523"/>
    <path
      d="m-241.41 137.9v-0.42598c-0.24341-5.352 1.1557-10.157 7.846-10.765 6.7511-0.66914 9.5488 5.6563 9.7314 13.563 0.30401 2.98-4.44 3.2234-8.5151 3.6491-4.6831 0.42571-8.454 0.54742-8.6365-1.5814l-0.18256-2.1894c-0.1823-0.85143-0.24316-1.5814-0.24316-2.2503z"
      fill="#9c4523"/>
    <path
      d="m-233.44 135.28c0.66913-0.54742 0.8517-1.9463 1.6423-2.98 1.0948-1.4597 0.85143-3.0411 1.034-2.3723 0.1823 0.66914 0.79058 0.72999 0.79058 0.66914 0-0.12171-0.12171 0.18256-0.36486-0.85143-0.24342-1.034 0.72972-1.9463 0.85143-3.9534 0.0608-0.54742 0.0608-1.5814-0.0609-2.1288 0.18256 0.24342 0.30427 0.48657 0.42572 0.72999-0.66887-6.2645-4.0748-8.6365-4.4397-8.7582 0.12144 0 0.54716-0.0609 1.0337 0.12171-1.3988-1.5206-2.6151-1.2166-2.8586-1.1557 0.1217-0.30401 0.54742-0.48657 0.79084-0.54742-0.8517-0.54743-1.5814-0.85143-2.4328-0.54743-0.54742 0.18257-0.60827 0.79084-0.60827 0.79084 0.0609-0.42571-0.48657-1.5814-1.8854-1.5206 1.338 1.5206 0.91229 1.338 0.91229 1.3989 0 0.0608-1.2772-0.54743-2.1894-0.24316 0.24315 0 0.54716 0.1823 0.66887 0.36486-1.034-0.0609-2.2503-0.24341-3.6491 1.7637 0.72972-0.30401 1.1554-0.12171 1.4597-0.12171-0.24342 0.18256-2.9803 2.4328-2.5546 6.3862 0.12171-0.12171 0.72972-0.97314 0.85143-0.91229-0.42572 0.66913-1.7029 2.9803 1.8246 8.8191-0.0606-0.36486-0.12144-1.1557 0-1.2166 0 0.66913 1.0948 2.1897 3.406 3.102 3.1628 1.2163 4.6225 2.0071 5.3522 3.1626z"
      fill="#f4dcbf"/>
    <path d="m-241.53 142.74-12.407-3.5277 10.705-1.1554 10.826 2.8586z" fill="#c0c0c0"/>
    <path d="m-241.53 142.89-12.407-3.5883-1.5206-10.461 14.232 2.9194z" fill="#e3eae8"/>
    <path
      d="m-242.02 125.13c-1.0946-2.9803-0.12145-6.082 2.0071-6.8728 2.1288-0.79057 4.744 1.034 5.778 4.0143 0.60827 1.7637 0.54742 3.4668 0.0609 4.8048-0.60828 1.5206-1.034 2.7368-0.79057 3.9534-0.91229-1.4597-2.1897-1.5206-3.8317-2.1897-1.2774-0.48657-2.5546-1.8854-3.2237-3.71z"
      fill="#553920"/>
    <path d="m-242.08 124.94c1.034 2.9194 3.4668 4.744 5.6565 3.9534 2.2503-0.79084 3.71-4.136 2.676-6.9945-1.034-2.9194-3.71-4.5617-5.8997-3.7708-2.2503 0.79058-3.4666 3.8926-2.4328 6.812z"
          fill="#d7ad8b"/>
    <path
      d="m-239.65 122.45c-0.30427 0.12171-0.60828 0.24315-0.85169 0.42571-0.24316 0.18257-0.54716 0.36487-0.66887 0.66914 0.1823-0.24342 0.48657-0.42598 0.79058-0.54743 0.30427-0.12171 0.60827-0.24341 0.91228-0.24341z"
      fill="#5e2b1e"/>
    <path
      d="m-238.07 122.33c0.24342-0.12171 0.54742-0.24341 0.85143-0.36486 0.30427-0.0608 0.60828-0.12171 0.91228-0.0608-0.304-0.12171-0.66886-0.18256-0.97313-0.12171-0.30401 0-0.66887 0.0609-0.97314 0.18256z"
      fill="#5e2b1e"/>
    <path d="m-237.82 123.06 0.91255-0.60828-1.034 0.42571z" fill="#1c170e"/>
    <path d="m-239.4 123.3-0.60827 0.0606c-0.18257 0.0609-0.42572 0.0609-0.60828 0.12171 0.18256-0.0609 0.36486 0 0.60828 0h0.60827z" fill="#1c170e"/>
    <path
      d="m-237.52 124.03c0.12171 0.30427 0.12171 0.60828-0.0608 0.85169-0.12171 0.24316-0.36486 0.42572-0.66913 0.54716-0.24315 0.12171-0.54716 0.12171-0.79058-0.0606-0.24315-0.18256-0.42571-0.42598-0.48657-0.72998-0.0609 0.304 0.12171 0.66913 0.36486 0.85143 0.24342 0.24341 0.66914 0.24341 0.97314 0.1217 0.30427-0.1217 0.60828-0.36486 0.72999-0.66913 0.24315-0.304 0.1823-0.72972-0.0609-0.91228z"
      fill="#4d463c"/>
    <path
      d="m-236.49 126.1c-0.12144 0.1823-0.24315 0.36486-0.36486 0.48657s-0.30401 0.24315-0.42571 0.36486c-0.18257 0.12171-0.30401 0.18257-0.54743 0.18257-0.18256 0.0609-0.36486 0.0609-0.60827 0.12144 0.36512 0.18256 0.91228 0.18256 1.2774-0.0606 0.1823-0.12171 0.36486-0.30427 0.48657-0.48657 0.12145-0.18256 0.24315-0.36512 0.1823-0.60828z"
      fill="#1c170e"/>
    <path
      d="m-238.86 117.89c-0.54743 0.0609-1.2166 0.30427-1.7031 0.66913-1.338 0.91229-1.7637 2.8586-1.8854 3.3451 0.36513-0.30427 0.79084-0.54742 1.2774-0.48657h0.24315l0.12171-1.5814 0.66913 1.6423c2.6151 0 4.5006-2.9194 5.6563-1.1557-1.0948-1.5814-2.8586-2.6151-4.3791-2.4328z"
      fill="#57423a"/>
    <path d="m-238.88 135.83c-1.2068 0.27835-3.755 1.165-2.8321 3.4711 0.88424 2.3511 4.1828 0.0709 4.1828 0.0709z" fill="#553920"/>
    <path
      d="m-228.07 130.37c0.18971-0.31644 0.48816-0.37756 0.70142-0.24368 0.10662 0.0667 0.21325 0.13361 0.31961 0.20055 0.10663 0.0669 0.1786 0.17436 0.25056 0.28152 0.0717 0.10742 0.0902 0.18124 0.16219 0.28866 0.0185 0.0738 0.0905 0.18124 0.10901 0.25506 0.0373 0.14763 0.0743 0.29554 0.0582 0.40984 0.0236 0.45005-0.0595 0.83317-0.30242 1.116-0.34475 0.5924-0.72655 1.0369-1.143 1.5216-0.79825 0.92948-1.615 1.7851-2.5916 2.5403-0.97685 0.75512-2.0066 1.4769-3.3031 2.0312-0.64823 0.27728-1.3496 0.52096-2.1045 0.73131-0.38655 0.0683-0.80804 0.177-1.3012 0.17806-0.22939-0.0193-0.51197-0.0725-0.75988-0.16589-0.0532-0.0333-0.14129-0.0265-0.19447-0.0601-0.0532-0.0333-0.15981-0.10028-0.21326-0.13362l-0.23151-0.2077c-0.0534-0.0336-0.12514-0.14075-0.25532-0.65801l-0.11007-1.6862c0.0111-0.49054 0.0273-0.60484 9e-3 -0.67866-0.0185-0.0741 0.0161-0.1143-2e-3 -0.18812 0.0161-0.1143-3e-3 -0.18838 0.0669-0.26908 0.0693-0.0807 0.0855-0.195 0.15479-0.27596 0.1389-0.16166 0.31485-0.17542 0.52546-0.22992 0.42148-0.10848 0.8591-0.33153 1.3499-0.52097 0.92816-0.41222 1.9444-0.83158 2.9075-1.2843 0.99774-0.49318 1.9955-0.98636 2.9398-1.5129 0.47229-0.26326 0.89112-0.56013 1.2221-0.84984 0.13891-0.16167 0.34952-0.21617 0.56013-0.27041 0 0 0.0881-7e-3 0.14128 0.0265 0 0 0.0534 0.0336 0.10663 0.0669 0.0534 0.0336 0.0881-7e-3 0.10663 0.0669 0.0532 0.0336 0.10663 0.0669 0.19447 0.0601 0.0534 0.0333 0.14129 0.0265 0.19473 0.0598 0.0878-7e-3 0.12277-0.0474 0.15743-0.0876 0.0347-0.0405 0.0693-0.081 0.0508-0.15478 0.1389-0.16166 0.20823-0.24236 0.22436-0.35666z"
      fill="#6f382b"/>
  </g>
  <g transform="matrix(.99998 0 0 .99998 -318.2 -445.15)" fill="none" opacity=".15">
    <g opacity=".35">
      <path
        d="m438.52 575.89c1.379-2.393 1.839-5.221 1.379-8.266-0.46-2.828-1.609-5.656-3.448-7.831s-4.138-4.132-6.666-5.438c-2.529-1.305-5.517-2.392-8.276-2.175 2.529 1.088 4.827 2.61 6.896 4.351 2.069 1.74 3.908 3.48 5.517 5.437 1.609 1.958 2.759 4.133 3.678 6.526 0.69 1.958 0.92 4.568 0.92 7.396z"
        fill="#011e2b" opacity=".35"/>
    </g>
    <g fill="#011e2b">
      <path d="m347.95 567.84c2.299 4.785 8.276 15.444 17.701 11.093 9.195-4.35 19.539-20.881 17.24-25.667-2.299-4.785-6.206-1.522-15.631 2.611-9.195 4.35-21.608 7.395-19.31 11.963z"
            opacity=".01"/>
      <path d="m324.04 556.53c1.15 5.22 3.908 16.966 14.023 15.008 10.114-1.74 24.596-15.443 23.677-20.664-0.92-5.22-5.517-3.045-15.862-1.305-9.884 1.958-22.757 1.74-21.838 6.961z"
            opacity=".01"/>
      <path d="m323.81 512.16c0.69-2.61 2.759-8.483 9.425-6.308s0.69 9.788 0.69 9.788z"/>
      <path
        d="m360.13 516.5c-1.379 0-1.839 0-2.298 0.218l-0.92 0.435c-0.689 0.218-0.919 0.435-1.379 0.653-0.92 0.435-1.379 0.652-1.609 1.087-0.92 0.653-1.839 0.87-3.448 1.088-1.38 0.217-3.219 0.217-5.057 0.435h-5.517c-1.38 0-2.529-0.435-3.219-0.653-0.689-0.435-0.459-0.435-0.459-0.435s-0.23-0.652-0.23-1.305c0-0.435 0-0.652-0.23-1.305-0.23-0.218-0.23-0.435-0.46-0.653-0.23-0.217-0.46-0.435-0.69-0.652l-0.459-0.435c-0.23-0.218-0.46-0.218-1.839-1.305l-4.828-3.263c-1.379-0.87-1.839-0.87-2.069-0.653l-0.919 0.218c-0.46 0.217-1.149 0.435-1.379 0.653-0.69 0.652-1.15 1.305-1.609 1.957-0.92 1.523-1.15 3.045-1.38 4.568-0.23 3.045 0.46 6.743 2.529 10.006 2.069 3.262 5.747 5.655 9.195 6.743 3.448 0.87 6.436 0.87 9.195 0.652 1.379-0.217 2.299-0.435 3.448-0.652 1.149-0.218 2.299-0.435 3.448-0.87 2.299-0.653 4.598-1.305 7.126-2.611 2.529-1.305 5.057-3.045 6.896-5.655 0.92-1.305 1.38-2.61 1.38-3.915 0-0.653 0-1.305-0.46-1.958 0-0.435-0.46-0.652-0.69-1.087s-0.689-0.871-2.069-1.306z"/>
      <path
        d="m339.67 566.32c-1.609 5.22-3.908 5.438-3.908 5.438l-2.988-2.393c-1.839-1.523-3.908-3.698-6.206-5.438-4.828-3.915-9.655-7.396-8.046-9.353 2.529-2.61 8.505-1.305 13.792 3.045 0.92 0.652 1.609 1.523 2.299 2.393 0.46-1.523 0.92-3.698 1.609-5.003 0 0 8.735 8.265 8.046 8.918-0.69 0.435-4.368 1.523-4.598 2.393z"/>
      <path
        d="m354.38 540.65c-4.367-1.957-5.976-0.217-8.505 0.218-2.299 0.87-4.598 1.74-6.666 2.61-2.299 0.87-4.368 1.958-6.437 3.045l-3.218 1.741c-0.92 0.652-2.299 0.652-2.069 3.262l12.873 18.272c2.299 1.305 2.988 0 3.908-0.653l2.758-2.175c1.839-1.305 3.678-2.828 5.517-4.35 1.839-1.523 3.448-3.263 5.287-4.786 1.61-1.957 3.908-2.61 3.678-7.178z"/>
      <path
        d="m373.69 540.87c-2.299-0.87-4.138-0.87-5.747-0.217-1.379 0.652-2.758 1.522-4.138 2.175-2.758 1.74-5.057 3.698-7.126 5.873s-3.678 4.35-5.057 6.09c-0.689 0.87-1.379 1.74-1.839 2.393-0.46 0.87-1.379 0.87 0 2.61l17.93 14.139c2.989 0 3.448-1.74 4.368-2.828 0.69-1.305 1.379-2.393 1.839-3.48 1.149-1.958 2.069-3.916 2.758-5.438 0.92-1.523 1.38-3.045 2.299-4.568 0.46-0.87 0.92-1.523 1.379-2.175 0.46-0.87 0.46-1.958 0.23-4.133z"/>
      <path d="m338.06 486.92c5.288 13.704 21.149 20.882 35.631 15.879s22.068-20.012 16.781-33.715c-5.287-13.704-21.149-20.882-35.631-15.879s-22.068 20.012-16.781 33.715z"/>
      <path
        d="m333.46 530.64v-1.523c1.149-18.489 7.585-34.585 32.182-34.585 24.826 0 32.872 22.622 30.803 49.811 0 10.441-17.47 9.789-32.182 9.789-17.241 0-31.033-0.87-31.033-8.266v-7.613c0-2.61 0-5.22 0.23-7.613z"/>
      <path
        d="m349.33 531.51v-1.523c0.689-17.836 3.677-33.28 22.067-33.28l0.92-0.435c18.62 0 25.976 17.619 24.367 43.721l-0.23 3.48c0 10.006-13.103 10.659-24.137 10.659-12.873 0-15.861 0-23.217-0.435v-14.791c0.229-2.611 0.23-5.003 0.23-7.396z"
        opacity=".07"/>
      <path
        d="m361.05 517.81c2.529-1.306 3.678-5.438 6.897-8.266 4.367-3.915 4.367-8.918 4.597-6.743s2.299 2.828 2.069 2.393c0-0.218-0.46 0.435-0.919-2.828-0.23-3.263 3.448-5.655 5.057-11.746 0.46-1.74 1.149-5.003 0.919-6.743 0.46 0.653 0.69 1.74 0.92 2.61 1.149-19.794-8.506-28.712-9.885-29.364 0.46 0 1.839 0 3.448 0.87-3.678-5.221-8.045-5.003-8.735-5.003 0.46-0.87 2.069-1.305 2.988-1.305-2.298-2.176-4.597-3.481-7.815-2.828-1.839 0.435-2.299 1.958-2.299 1.958 0.46-1.306-0.69-5.221-5.287-5.656 3.678 5.438 2.299 4.568 2.299 4.786-0.23 0.217-3.908-2.393-7.126-1.958 0.919 0.217 1.609 0.87 2.068 1.522-3.448-0.652-7.126-1.957-12.873 3.481 2.529-0.653 3.908 0.217 4.828 0.435-0.69 0.435-11.034 6.09-11.724 18.489 0.46-0.435 2.759-2.611 3.218-2.393-1.609 1.958-7.126 8.483 1.38 28.06 0-1.088 0.23-3.698 0.689-3.698-0.459 1.957 2.529 7.395 9.425 11.311 9.885 5.655 14.023 8.918 15.861 12.616z"/>
      <path
        d="m339.21 481.7c-2.069-9.788 2.759-18.924 10.115-20.229s14.941 5.438 17.01 15.226c1.15 5.656 0 11.093-2.299 15.009-2.758 4.35-4.827 8.048-4.597 11.746-2.299-5.003-6.436-5.873-11.494-8.701-3.908-2.393-7.356-7.178-8.735-13.051z"/>
      <path d="m339.44 482.79c2.758 9.353 10.114 15.661 17.7 13.704 7.586-1.958 13.333-11.964 10.574-21.099-2.758-9.354-11.034-15.227-18.619-13.269-7.356 1.958-12.184 11.528-9.655 20.664z"/>
      <path d="m348.41 475.83c-1.15 0.218-2.069 0.653-2.988 1.088-0.92 0.435-1.839 1.087-2.529 1.957 0.69-0.652 1.609-1.087 2.758-1.522 0.92-0.218 2.069-0.435 2.989-0.653z"/>
      <path d="m353.46 475.83c1.839-0.653 3.908-1.306 5.976-0.653-0.919-0.435-2.068-0.653-3.218-0.653-1.149 0-2.069 0.218-3.218 0.435z"/>
      <path d="m353.92 478 3.219-1.74-3.449 1.087z"/>
      <path d="m348.86 478.44-2.069 0.218c-0.689 0-1.379 0-1.839 0.218h1.839l1.839 0.217z"/>
      <path
        d="m354.84 481.05c0.46 0.87 0.23 1.957-0.23 2.61-0.459 0.653-1.379 1.305-2.298 1.523-0.92 0.217-1.839 0.217-2.759-0.435-0.69-0.435-1.379-1.306-1.379-2.393-0.23 1.087 0.23 2.175 0.919 2.828 0.92 0.652 2.069 0.87 3.219 0.652 1.149-0.217 2.068-0.87 2.528-1.958 0.69-0.87 0.69-1.957 0-2.827z"/>
      <path
        d="m357.83 488.01c-0.46 0.435-0.919 1.087-1.379 1.305-0.46 0.435-0.92 0.652-1.609 0.87-0.46 0.217-1.15 0.435-1.839 0.435-0.69 0.218-1.38 0.218-2.069 0.218 0.689 0.435 1.379 0.652 2.069 0.652 0.689 0 1.379-0.217 2.298-0.435 0.69-0.435 1.38-0.87 1.61-1.305 0.459-0.435 0.919-1.088 0.919-1.74z"/>
      <path
        d="m350.7 461.26c-1.839 0-3.219 0.653-4.828 1.523-4.597 2.61-6.436 8.918-6.896 10.441 1.149-0.87 2.759-1.523 4.368-1.088 0.23 0 0.459 0 0.689 0.218l0.92-4.786 1.839 5.221c8.735 0.652 15.631-7.831 18.849-2.393-3.218-5.656-9.654-9.353-14.941-9.136z"/>
      <path
        d="m360.36 476.48s0.229 0.217 0 0c0.459 1.957-0.92 3.915-3.219 4.35-2.069 0.435-4.137-0.87-4.597-2.828v-0.652c-0.92-0.218-1.609-0.218-2.299 0-0.46 0.217-0.689 0.435-0.919 0.435 0 0.217 0.23 0.435 0.23 0.652 0.459 1.958-1.15 3.916-3.219 4.133-2.069 0.435-4.137-0.87-4.597-2.828-0.23 0-0.92 0.218-0.92-0.217 0-0.218 0.46-0.218 0.92-0.435 0-1.74 1.379-3.263 3.218-3.698 1.839-0.217 3.448 0.435 4.138 1.74 0.46-0.435 1.609-1.087 3.448-0.652 0.23-1.523 1.379-2.828 3.218-3.263s3.908 0.653 4.368 2.393c0.23 0 0.919-0.218 0.919 0 0.23 0.87-0.23 0.87-0.689 0.87zm-11.264 2.175c-0.23-1.74-2.299-2.828-4.138-2.61-1.839 0.435-3.218 1.957-2.988 3.697 0.23 1.741 2.298 2.828 4.137 2.611 2.069-0.218 3.449-1.958 2.989-3.698zm11.034-1.958c-0.23-1.74-2.299-2.827-4.138-2.61-1.839 0.435-3.218 1.958-2.988 3.698 0.229 1.74 2.298 2.828 4.137 2.61 2.069-0.218 3.219-1.958 2.989-3.698z"/>
      <g clip-rule="evenodd" fill-rule="evenodd">
        <path d="m346.11 498.45-8.275 9.571c1.379-0.218 2.988-0.218 3.678 0l1.609 9.571 5.977-0.87z"/>
        <path d="m349.32 499.1-11.724 9.135c1.379-0.217 2.988-0.217 3.678 0l1.609 9.571 9.195-1.305z"/>
        <path d="m341.51 508.24 17.93-6.091c-1.839-0.652-3.907-1.305-5.976-1.74l-15.862 7.831c1.61-0.218 2.989-0.218 3.908 0z"/>
        <path d="m359.44 502.15 2.069 13.051-18.62 2.611-1.609-9.571h-0.23z"/>
        <path d="m337.83 508.24c1.379-0.217 2.759-0.217 3.678 0l1.609 9.571-3.678 0.435z"/>
        <path d="m331.16 500.62 6.666 7.396c-0.69 0.217-1.609 0.435-1.839 0.87l1.609 9.57-3.218 0.435z"/>
        <path d="m329.56 501.93 8.275 6.308c-0.69 0.217-1.609 0.435-1.839 0.87l1.609 9.57-5.057 0.653z"/>
        <path d="m335.99 509.11-10.804-1.958c0.689-1.088 1.609-2.175 2.758-2.828l10.115 3.916c-0.92 0-1.839 0.435-2.069 0.87z"/>
        <path d="m324.96 507.15 2.069 13.051 10.344-1.522-1.609-9.571z"/>
        <path d="m337.83 508.02c-0.92 0.218-1.379 0.436-1.839 0.871l1.609 9.57 2.069-0.217z"/>
        <path d="m324.73 506.06 11.033 3.046 4.828 29.799-11.954-5.22z"/>
        <path d="m359.9 503.02-19.079 5.655 4.827 30.017 19.08-5.655z"/>
        <path
          d="m335.76 509.11 4.827 29.799c0.46 0.435 1.609 0.87 2.759 0.653 1.149-0.218 2.069-0.653 2.298-1.305l-4.827-29.8c-0.46 0.653-1.149 1.305-2.299 1.305-1.149 0-2.298-0.217-2.758-0.652z"/>
        <path d="m343.58 537.6-1.379-8.048c-0.23 0-0.69 0.217-0.92 0.217h-0.919l1.379 8.048h0.92c0.459 0 0.689 0 0.919-0.217z"/>
        <path d="m342.2 528.68-2.298-13.921c-0.23 0-0.69 0.217-0.92 0.217h-0.919l2.298 13.921h0.92c0.23-0.217 0.689-0.217 0.919-0.217z"/>
        <path d="m339.67 513.24-0.46-2.61c-0.23 0-0.689 0.217-0.919 0.217h-0.92l0.46 2.611h0.919c0.23 0 0.69-0.218 0.92-0.218z"/>
      </g>
      <path d="m331.86 503.67c0.919 1.305-0.46 3.698-3.218 5.438-2.759 1.74-5.517 1.958-6.437 0.652-0.919-1.305 0.46-3.697 3.219-5.437 2.528-1.741 5.516-1.958 6.436-0.653z"/>
      <path d="m353.92 528.03c-1.839-2.175-5.287-7.395 0.459-10.875 5.977-3.481 8.506 5.437 8.506 5.437z"/>
      <path
        d="m382.43 506.28c-0.919 0.87-1.379 1.305-1.379 1.522l-0.46 0.87c-0.23 0.653-0.23 1.088-0.46 1.523-0.23 0.87-0.23 1.523-0.23 2.175 0 1.088-0.229 2.175-0.919 3.045-1.149 1.741-3.218 3.481-5.977 5.221l-0.46 0.217c-0.229 0.218-0.229 0.218-0.459 0.218s-0.46 0.217-0.69 0.217c-0.46 0.218-0.919 0.218-1.149 0.218h-2.069c-0.69-0.218-1.379-0.218-2.299-0.87-0.46-0.218-0.919-0.653-1.609-0.653-0.46 0-0.69 0-1.149-0.217-0.23 0-0.69 0-0.92 0.217l-0.689 0.218c-0.23 0-0.46 0.217-2.069 1.087l-4.598 3.481c-1.379 1.087-1.379 1.522-1.379 1.74l-0.23 0.652c0 0.435-0.23 0.87 0 1.305 0.23 0.653 0.46 1.305 0.92 1.958 0.689 1.088 1.839 1.958 2.988 2.828 2.299 1.522 5.517 2.827 8.735 3.262s6.666 0 9.425-1.087c1.379-0.435 2.758-1.305 4.138-1.958 0.689-0.435 1.149-0.87 1.839-1.305 0.23-0.217 0.459-0.435 0.689-0.652l0.69-0.653c3.218-3.045 6.436-7.178 7.586-12.616 0.46-2.61 0.23-5.655-0.69-8.048-0.46-1.305-1.149-2.175-2.069-3.045-0.459-0.435-1.149-0.653-1.839-1.088-0.459 0-0.689-0.217-1.149-0.217-0.23 0-0.69 0-2.069 0.435z"/>
      <path d="m412.77 551.53c-3.301 0-5.976-0.098-5.976-0.218s2.675-0.217 5.976-0.217 5.977 0.097 5.977 0.217-2.676 0.218-5.977 0.218z"/>
      <path d="m409.32 551.09h7.126c1.839 0 3.218-1.305 3.218-3.046v-5.655c0-1.74-1.379-3.045-3.218-3.045h-7.126c-1.839 0-3.219 1.305-3.219 3.045v5.655c0 1.741 1.38 3.046 3.219 3.046z"/>
      <path d="m413 539.35c-3.427 0-6.206-0.195-6.206-0.435 0-0.241 2.779-0.435 6.206-0.435 3.428 0 6.207 0.194 6.207 0.435 0 0.24-2.779 0.435-6.207 0.435z" stroke="#1795d2"
            stroke-miterlimit="10" stroke-width=".3659"/>
      <path
        d="m409.32 551.09h1.379c1.15 0 2.299-0.87 2.299-2.175v-7.395c0-1.088-0.92-2.393-2.299-2.393h-1.839c-0.23 0-0.689 0-0.919-0.218-0.23 0-0.23-0.217-0.46-0.435-1.839-0.87-1.379 1.958-1.379 3.046v6.743c0.23 1.957 1.839 2.827 3.218 2.827z"
        opacity=".08"/>
      <path d="m413 539.13c-2.793 0-5.057-0.195-5.057-0.435s2.264-0.435 5.057-0.435 5.058 0.195 5.058 0.435-2.265 0.435-5.058 0.435z"/>
      <path d="m419.21 547.18c-0.23 0-0.23 0-0.23-0.218v-7.178s0-0.218 0.23-0.218c0 0 0.23 1e-3 0.23 0.218l-0.23 7.396c0.23 0 0 0 0 0z" opacity=".08"/>
      <path d="m416.91 538.69c-0.689 0-1.149-0.217-1.839 0h-1.839 1.839z"/>
      <path d="m413.46 538.69c-0.46 0-0.69-0.217-1.149 0h-1.15 1.15c0.459-0.217 0.919 0 1.149 0z"/>
      <path d="m399.21 552.39h13.103c0.23 0 0.23-0.218 0.23-0.218 0-0.217-0.23-0.217-0.23-0.217h-13.103c-0.23 0-0.23 0.217-0.23 0.217s0 0.218 0.23 0.218z" opacity=".15"/>
      <path d="m337.83 566.1s-0.919 6.308-10.344-1.523c7.815 6.743 8.275 7.178 8.275 7.178s2.069-0.435 3.218-3.698c-0.229-0.652-1.149-1.957-1.149-1.957z" opacity=".05"/>
      <path d="m361.28 568.93s0.459 6.743-11.264 0.435c9.654 5.655 10.344 5.873 10.344 5.873s2.069-0.87 2.529-4.351c-0.23-0.87-1.609-1.957-1.609-1.957z" opacity=".05"/>
    </g>
  </g>
  <g fill="#011e2b">
    <g transform="matrix(.99998 0 0 .99998 -318.2 -445.15)" opacity=".15">
      <path d="m390.01 533.43c-2.759 3.448-8.046 11.953 0.919 17.47s8.046-0.23 8.736-2.758c1.149-4.368 4.367-6.207 4.367-6.207z"/>
      <path d="m386.79 544.69c1.149-1.839 5.057-1.839 8.735 0.46 3.678 2.068 5.977 5.516 4.828 7.355-1.15 1.839-5.058 1.839-8.736-0.459-3.908-2.299-5.976-5.517-4.827-7.356z"/>
      <path
        d="m419.21 516.88c-0.919-1.379-1.609-1.609-2.069-1.839-0.459 0-0.919-0.229-1.379-0.229h-2.069c-0.459 0-1.149 0.229-1.609 0.459s-0.689 0.46-1.149 0.69c-1.379 1.149-2.529 2.069-3.908 2.988-2.529 1.839-5.057 3.678-7.356 5.517s-4.597 3.678-6.666 5.287l-2.759 2.759c-0.46 0.46-0.919 0.919-1.149 1.609 0 0.46-0.23 0.92-0.23 1.379 0 0.23 0 0.69 0.23 1.15l0.23 0.919c0 0.23 0.23 0.69 1.379 2.529l4.138 6.206c1.379 1.839 1.609 2.069 1.839 2.299l0.689 0.46c0.46 0.23 0.92 0.46 1.15 0.46h1.839c1.149 0 1.839-0.69 2.528-1.38 1.609-1.149 2.989-2.298 4.138-3.448 2.529-2.528 4.597-5.287 6.436-8.045 1.839-2.759 3.449-5.747 4.828-8.736 0.689-1.379 1.379-2.988 2.069-4.137 0.459-0.69 0.459-1.38 0.459-2.299 0-0.46-0.229-0.92-0.459-1.609 0-0.46-0.23-0.69-0.46-0.92 0.23 0 0-0.459-0.69-2.069z"/>
      <path
        d="m408.63 501.02c8.045 15.172 26.665 21.149 41.837 13.103 15.171-8.045 21.148-26.665 13.103-41.837-8.046-15.171-26.666-21.148-41.837-13.103-15.172 7.816-21.149 26.666-13.103 41.837z"/>
      <path
        d="m409.09 543.31v-1.61c-0.92-20.228 4.368-38.389 29.654-40.687 25.516-2.529 36.09 21.378 36.78 51.262 1.149 11.263-16.781 12.183-32.183 13.792-17.7 1.609-31.952 2.069-32.642-5.977l-0.69-8.275c-0.689-3.218-0.919-5.977-0.919-8.505z"/>
      <path
        d="m439.2 533.43c2.529-2.069 3.219-7.356 6.207-11.263 4.138-5.517 3.218-11.494 3.908-8.966 0.689 2.529 2.988 2.759 2.988 2.529 0-0.46-0.46 0.69-1.379-3.218-0.92-3.908 2.758-7.356 3.218-14.942 0.23-2.069 0.23-5.977-0.23-8.046 0.69 0.92 1.15 1.839 1.609 2.759-2.528-23.677-15.401-32.642-16.78-33.102 0.459 0 2.068-0.23 3.907 0.46-5.287-5.747-9.884-4.598-10.804-4.368 0.46-1.149 2.069-1.839 2.989-2.069-3.219-2.069-5.977-3.218-9.195-2.069-2.069 0.69-2.299 2.989-2.299 2.989 0.23-1.609-1.839-5.977-7.126-5.747 5.057 5.747 3.448 5.057 3.448 5.287s-4.827-2.069-8.275-0.919c0.919 0 2.068 0.689 2.528 1.379-3.908-0.23-8.505-0.92-13.792 6.666 2.758-1.149 4.367-0.46 5.517-0.46-0.92 0.69-11.264 9.195-9.655 24.137 0.46-0.46 2.758-3.678 3.218-3.448-1.609 2.529-6.436 11.264 6.896 33.332-0.229-1.379-0.459-4.368 0-4.598 0 2.529 4.138 8.276 12.873 11.724 11.954 4.597 17.471 7.586 20.229 11.953z"/>
      <path d="m408.63 562.62-46.894-13.333 40.458-4.367 40.917 10.804z"/>
      <path
        d="m406.79 495.04c-4.137-11.264-0.459-22.987 7.586-25.976 8.046-2.988 17.93 3.908 21.838 15.172 2.299 6.666 2.069 13.103 0.23 18.16-2.299 5.747-3.908 10.344-2.988 14.942-3.448-5.517-8.276-5.747-14.482-8.276-4.828-1.839-9.655-7.126-12.184-14.022z"/>
      <path d="m406.56 494.35c3.908 11.034 13.103 17.93 21.379 14.942 8.505-2.989 14.022-15.632 10.114-26.436-3.908-11.034-14.022-17.241-22.298-14.252-8.505 2.988-13.102 14.712-9.195 25.746z"/>
      <path d="m415.76 484.92c-1.15 0.46-2.299 0.919-3.219 1.609-0.919 0.69-2.068 1.379-2.528 2.529 0.689-0.92 1.839-1.61 2.988-2.069 1.15-0.46 2.299-0.92 3.448-0.92z"/>
      <path d="m421.74 484.46c0.92-0.46 2.069-0.92 3.218-1.379 1.15-0.23 2.299-0.46 3.448-0.23-1.149-0.46-2.528-0.69-3.678-0.46-1.149 0-2.528 0.23-3.678 0.69z"/>
      <path d="m422.65 487.22 3.449-2.299-3.908 1.609z"/>
      <path d="m416.68 488.14-2.299 0.229c-0.69 0.23-1.609 0.23-2.299 0.46 0.69-0.23 1.379 0 2.299 0h2.299z"/>
      <path
        d="m423.8 490.9c0.46 1.15 0.46 2.299-0.23 3.219-0.46 0.919-1.379 1.609-2.529 2.068-0.919 0.46-2.068 0.46-2.988-0.229-0.919-0.69-1.609-1.61-1.839-2.759-0.23 1.149 0.46 2.529 1.379 3.218 0.92 0.92 2.529 0.92 3.678 0.46 1.15-0.46 2.299-1.379 2.759-2.529 0.919-1.149 0.689-2.758-0.23-3.448z"/>
      <path
        d="m427.71 498.72c-0.459 0.689-0.919 1.379-1.379 1.839s-1.149 0.919-1.609 1.379c-0.69 0.46-1.149 0.69-2.069 0.69-0.69 0.23-1.379 0.23-2.299 0.459 1.38 0.69 3.448 0.69 4.828-0.229 0.689-0.46 1.379-1.15 1.839-1.839 0.459-0.69 0.919-1.38 0.689-2.299z"/>
      <path
        d="m418.75 467.68c-2.069 0.23-4.598 1.15-6.437 2.529-5.057 3.448-6.666 10.804-7.126 12.643 1.38-1.15 2.989-2.069 4.828-1.839h0.919l0.46-5.977 2.529 6.207c9.884 0 17.01-11.034 21.378-4.368-4.138-5.977-10.804-9.884-16.551-9.195z"/>
      <path
        d="m459.52 514.85c0.717-1.196 1.845-1.427 2.651-0.921 0.403 0.252 0.806 0.505 1.208 0.758 0.403 0.253 0.675 0.659 0.947 1.064 0.271 0.406 0.341 0.685 0.613 1.091 0.07 0.279 0.342 0.685 0.412 0.964 0.141 0.558 0.281 1.117 0.22 1.549 0.089 1.701-0.225 3.149-1.143 4.218-1.303 2.239-2.746 3.919-4.32 5.751-3.017 3.513-6.104 6.747-9.795 9.601-3.692 2.854-7.584 5.582-12.484 7.677-2.45 1.048-5.101 1.969-7.954 2.764-1.461 0.258-3.054 0.669-4.918 0.673-0.867-0.073-1.935-0.274-2.872-0.627-0.201-0.126-0.534-0.1-0.735-0.227-0.201-0.126-0.604-0.379-0.806-0.505l-0.875-0.785c-0.202-0.127-0.473-0.532-0.965-2.487l-0.416-6.373c0.042-1.854 0.103-2.286 0.033-2.565-0.07-0.28 0.061-0.432-9e-3 -0.711 0.061-0.432-0.01-0.712 0.253-1.017 0.262-0.305 0.323-0.737 0.585-1.043 0.525-0.611 1.19-0.663 1.986-0.869 1.593-0.41 3.247-1.253 5.102-1.969 3.508-1.558 7.349-3.143 10.989-4.854 3.771-1.864 7.542-3.728 11.111-5.718 1.785-0.995 3.368-2.117 4.619-3.212 0.525-0.611 1.321-0.817 2.117-1.022 0 0 0.333-0.026 0.534 0.1 0 0 0.202 0.127 0.403 0.253 0.202 0.127 0.333-0.026 0.403 0.253 0.201 0.127 0.403 0.253 0.735 0.227 0.202 0.126 0.534 0.1 0.736 0.226 0.332-0.026 0.464-0.179 0.595-0.331 0.131-0.153 0.262-0.306 0.192-0.585 0.525-0.611 0.787-0.916 0.848-1.348z"/>
    </g>
    <g transform="matrix(.99998 0 0 .99998 -318.2 -445.15)" opacity=".15">
      <path d="m347.95 567.84c2.299 4.785 8.276 15.444 17.701 11.093 9.195-4.35 19.539-20.881 17.24-25.667-2.299-4.785-6.206-1.522-15.631 2.611-9.195 4.35-21.608 7.395-19.31 11.963z"
            opacity=".01"/>
      <path d="m337.83 566.1s-0.919 6.308-10.344-1.523c7.815 6.743 8.275 7.178 8.275 7.178s2.069-0.435 3.218-3.698c-0.229-0.652-1.149-1.957-1.149-1.957z" opacity=".05"/>
    </g>
    <path d="m90.439 117.02-46.892-13.562-5.7471-39.537 53.79 11.034z" stroke-width=".99998"/>
  </g>
</svg>
