<svg width="389" height="655" viewBox="0 0 389 655" fill="none" xmlns="http://www.w3.org/2000/svg">
  <path d="M183.673 486.026C183.673 486.026 181.669 503.6 202.214 513.062C202.214 513.062 221.757 524.327 215.243 545.956C215.243 545.956 222.759 540.549 221.757 530.185C221.757 530.185 253.327 573.442 191.691 598.675C191.691 598.675 152.104 587.861 156.614 546.857C156.614 546.857 159.119 556.319 162.627 559.924C162.627 559.924 158.117 547.307 175.154 531.537C175.154 531.537 183.673 527.031 177.159 511.26C177.159 511.71 170.143 499.995 183.673 486.026Z" fill="#F05A27"/>
  <path opacity="0.1" d="M159.225 203.495C159.225 203.495 151.703 273.93 228.811 311.856C228.811 311.856 302.158 357.007 277.709 443.696C277.709 443.696 305.919 422.023 302.158 380.485C302.158 380.485 420.641 553.863 189.316 655C189.316 655 40.7421 611.656 57.6683 447.308C57.6683 447.308 67.0714 485.234 80.2362 499.682C80.2362 499.682 63.31 449.114 127.253 385.903C127.253 385.903 159.226 367.843 134.777 304.632C134.777 306.438 108.447 259.482 159.225 203.495Z" fill="url(#paint0_radial)"/>
  <path opacity="0.1" d="M144.874 0C144.874 0 134.283 99.0622 242.843 152.403C242.843 152.403 346.107 215.905 311.686 337.827C311.686 337.827 351.403 307.347 346.107 248.925C346.107 248.925 512.919 492.771 187.239 635.014C187.239 635.014 -21.9383 574.053 1.89203 342.908C1.89203 342.908 15.1306 396.249 33.6653 416.569C33.6653 416.569 9.83499 345.448 99.8605 256.546C99.8605 256.546 144.874 231.145 110.452 142.243C110.452 144.783 73.3828 78.7417 144.874 0Z" fill="url(#paint1_radial)"/>
  <path d="M174.525 578.38C174.525 578.38 171.983 571.166 181.642 562.6C181.642 562.6 186.725 559.895 182.658 551.328C182.658 551.328 179.1 544.565 186.725 536.9C186.725 536.9 185.708 546.819 197.401 552.23C197.401 552.23 208.584 558.542 204.518 570.715C204.518 570.715 208.584 567.559 208.076 561.698C208.076 561.698 220.276 578.38 204.518 591.906C200.959 594.16 196.384 595.964 191.809 597.767C191.809 597.767 185.2 595.964 177.575 591.004C173.508 586.496 169.95 580.183 170.966 570.264C170.966 571.166 172.491 576.577 174.525 578.38Z" fill="#F59121"/>
  <path d="M183.255 594.047C180.626 591.256 178.522 587.071 179.048 581.025C179.048 581.025 180.1 584.746 181.152 585.676C181.152 585.676 179.574 581.025 185.885 575.445C185.885 575.445 189.04 573.585 186.411 568.004C186.411 568.004 183.781 563.819 189.04 558.703C189.04 558.703 188.514 565.214 195.877 568.469C195.877 568.469 203.239 572.654 200.61 580.56C200.61 580.56 203.239 578.7 203.239 574.98C203.239 574.98 210.602 585.211 202.187 593.582C199.558 594.977 196.403 596.372 192.721 597.767C192.195 597.767 188.514 596.837 183.255 594.047Z" fill="#F7EB20"/>
  <path d="M139.821 572L196.321 599L206.821 609L129.321 601.5V591L167.321 593.5L135.821 585.5L139.821 572Z" fill="#3A2E24"/>
  <path d="M245.321 572L188.821 599L178.321 609L255.821 601.5V591L217.821 593.5L249.321 585.5L245.321 572Z" fill="#3A2E24"/>
  <defs>
    <radialGradient id="paint0_radial" cx="0" cy="0" r="1" gradientUnits="userSpaceOnUse" gradientTransform="translate(194.411 469.634) rotate(90) scale(185.366 138.086)">
      <stop offset="0.116022" stop-color="#F9C862"/>
      <stop offset="0.950276" stop-color="white" stop-opacity="0"/>
    </radialGradient>
    <radialGradient id="paint1_radial" cx="0" cy="0" r="1" gradientUnits="userSpaceOnUse" gradientTransform="translate(194.411 374.309) rotate(90) scale(260.705 194.411)">
      <stop offset="0.116022" stop-color="#F9C862"/>
      <stop offset="0.950276" stop-color="white" stop-opacity="0"/>
    </radialGradient>
  </defs>
</svg>
