<?xml version="1.0" encoding="utf-8"?>
<!-- Generator: Adobe Illustrator 22.0.1, SVG Export Plug-In . SVG Version: 6.00 Build 0)  -->
<svg version="1.1" id="Layer_1" xmlns="http://www.w3.org/2000/svg" xmlns:xlink="http://www.w3.org/1999/xlink" x="0px" y="0px"
	 viewBox="0 0 48 36" style="enable-background:new 0 0 48 36;" xml:space="preserve">
<style type="text/css">
	.st0{fill:none;}
	.st1{fill:#FFFFFF;}
</style>
<g id="Spread" transform="translate(0 -269.292)">
	<g>
		<path class="st0" d="M19,289.7c-0.2-0.1-0.4-0.1-0.7-0.1c-0.6,0-1,0.1-1.4,0.3c-0.4,0.2-0.6,0.5-0.8,0.9c-0.2,0.3-0.3,0.7-0.4,1.2
			c-0.1,0.4-0.1,0.8-0.1,1.2c0,0.4,0,0.7,0.1,1.1c0,0.4,0.1,0.7,0.3,1c0.2,0.3,0.4,0.6,0.7,0.9c0.3,0.3,0.7,0.4,1.2,0.5
			c0.3,0.1,0.5,0.1,0.8,0c0.2,0,0.5-0.1,0.7-0.2c0.2-0.1,0.5-0.2,0.7-0.3v-6.1c-0.1-0.1-0.3-0.2-0.5-0.3
			C19.4,289.8,19.2,289.7,19,289.7z"/>
		<path class="st1" d="M10.4,287.7H7.2c-0.2,0-0.3,0.1-0.3,0.3v10.6c0,0.2,0.1,0.3,0.3,0.3h3.1c0.2,0,0.3-0.1,0.3-0.3V288
			C10.7,287.8,10.5,287.7,10.4,287.7z"/>
		<path class="st1" d="M10.4,283.8H7.2c-0.2,0-0.3,0.1-0.3,0.3v2c0,0.2,0.1,0.3,0.3,0.3h3.1c0.2,0,0.3-0.1,0.3-0.3v-2
			C10.7,283.9,10.5,283.8,10.4,283.8z"/>
		<path class="st1" d="M23.5,288.3c-0.4-0.2-1.3-0.4-1.8-0.6c-0.6-0.2-1.9-0.6-3.9-0.6c-1,0-2.1,0.2-2.9,0.6
			c-0.7,0.3-1.3,0.8-1.8,1.3c-0.5,0.5-0.8,1.2-1,1.9c-0.2,0.7-0.3,1.5-0.3,2.3c0,0.7,0.1,1.5,0.3,2.2c0.2,0.7,0.5,1.4,0.9,1.9
			c0.4,0.6,1,1,1.8,1.4c0.7,0.3,1.7,0.5,2.8,0.5c0.4,0,0.7,0,1-0.1c0.3,0,0.5-0.1,0.7-0.2c0.2-0.1,0.5-0.2,0.6-0.3
			c-0.1,1.3-0.9,2.5-2.1,3c-0.6,0.3-1.4,0.6-2.1,0.6c-0.2,0-0.3,0.2-0.2,0.3l0.9,2.5c0,0.1,0.2,0.2,0.3,0.2c0.5,0,2.1-0.5,2.7-0.7
			c0.8-0.3,2-0.9,2.8-2c1.2-1.6,1.4-3.5,1.5-6.3v-7.6C23.8,288.5,23.7,288.4,23.5,288.3z M20,296.2c-0.2,0.1-0.5,0.2-0.7,0.3
			c-0.2,0.1-0.4,0.1-0.7,0.2c-0.3,0-0.5,0-0.8,0c-0.5-0.1-0.9-0.3-1.2-0.5c-0.3-0.3-0.5-0.5-0.7-0.9c-0.2-0.3-0.3-0.7-0.3-1
			c0-0.4-0.1-0.7-0.1-1.1c0-0.4,0-0.8,0.1-1.2c0.1-0.4,0.2-0.8,0.4-1.2c0.2-0.3,0.5-0.6,0.8-0.9c0.4-0.2,0.8-0.3,1.4-0.3
			c0.2,0,0.5,0,0.7,0.1c0.2,0.1,0.4,0.1,0.5,0.2c0.2,0.1,0.3,0.2,0.5,0.3V296.2z"/>
		<path class="st1" d="M23.6,269.3c-11.4,0-21.1,7.6-23.6,18.1c-0.1,0.3,0.3,0.4,0.5,0.2c3.9-8.2,12.3-14,22.1-14
			c13.5,0,24.4,10.8,24.4,24.1c0,0.3,0,0.5,0,0.8c0,0.5,0.4,0.6,0.6,0.1c0.4-1.6,0.5-3.4,0.5-5.1C48,280.1,37.1,269.3,23.6,269.3z"
			/>
		<path class="st1" d="M41.2,288c0-0.2-0.1-0.3-0.3-0.3h-3.1c-0.2,0-0.3,0.1-0.3,0.3l0,6.6c0,0.4,0,0.7-0.1,1
			c-0.1,0.3-0.3,0.5-0.5,0.7c-0.3,0.2-0.5,0.3-1,0.3c-0.5,0-0.7-0.1-1-0.3c-0.3-0.2-0.4-0.4-0.5-0.7c-0.1-0.3-0.1-0.6-0.1-1l0-6.6
			c0-0.2-0.1-0.3-0.3-0.3h-3.1c-0.2,0-0.3,0.1-0.3,0.3v5.8c0,1.3-0.1,2.9,0.8,3.9c1,1.2,2.6,1.6,4.6,1.6c1.9,0,3.5-0.3,4.6-1.6
			c0.8-1,0.8-2.5,0.8-3.9V288z"/>
		<path class="st1" d="M28.7,283.8h-3.1c-0.2,0-0.3,0.1-0.3,0.3v14.5c0,0.2,0.1,0.3,0.3,0.3h3.1c0.2,0,0.3-0.1,0.3-0.3v-14.5
			C29,283.9,28.9,283.8,28.7,283.8z"/>
	</g>
</g>
</svg>
