<svg id="Layer_1" data-name="Layer 1" xmlns="http://www.w3.org/2000/svg" xmlns:xlink="http://www.w3.org/1999/xlink" viewBox="0 0 251 151"><defs><style>.cls-1{opacity:0.1;fill:url(#radial-gradient);}.cls-2{fill:#e1f1f9;}</style><radialGradient id="radial-gradient" cx="-149.41" cy="-94.14" r="71.73" gradientTransform="translate(235.9 145.12) scale(0.87 0.56)" gradientUnits="userSpaceOnUse"><stop offset="0" stop-color="#fff" stop-opacity="0.5"/><stop offset="0.4" stop-color="#fff" stop-opacity="0.27"/><stop offset="1" stop-color="#fff" stop-opacity="0"/></radialGradient></defs><title>Alina-base</title><rect class="cls-1" x="33.16" y="43.83" width="146.19" height="98.05" rx="11.51" ry="11.51" transform="translate(231.91 157.08) rotate(165.92)"/><polygon class="cls-2" points="209.1 128.34 204.33 128.92 204.11 134.55 203.13 128.92 198.25 128.34 203.07 127.66 203.25 122.31 204.22 127.66 209.1 128.34"/><polygon class="cls-2" points="29.47 97.59 25.15 98.12 24.94 103.23 24.05 98.12 19.62 97.59 24 96.97 24.16 92.12 25.04 96.97 29.47 97.59"/><polygon class="cls-2" points="61.73 22.25 67.42 21.21 67.29 14.43 68.87 21.11 74.78 21.46 69.03 22.64 69.21 29.07 67.65 22.72 61.73 22.25"/><polygon class="cls-2" points="160.43 51.29 163.25 50.96 163.39 47.75 163.97 50.96 166.86 51.29 164 51.68 163.9 54.73 163.32 51.68 160.43 51.29"/></svg>