<svg id="Layer_1" data-name="Layer 1" xmlns="http://www.w3.org/2000/svg" xmlns:xlink="http://www.w3.org/1999/xlink" viewBox="0 0 251 151"><defs><style>.cls-1,.cls-2{opacity:0.1;}.cls-1{fill:url(#radial-gradient);}.cls-2{fill:url(#radial-gradient-2);}.cls-3{fill:#e1f1f9;}.cls-4{fill:none;}.cls-5{fill:#041d26;}</style><radialGradient id="radial-gradient" cx="-77.57" cy="-304.55" r="71.73" gradientTransform="translate(156.86 252.34) scale(0.87 0.56)" gradientUnits="userSpaceOnUse"><stop offset="0" stop-color="#fff" stop-opacity="0.5"/><stop offset="0.4" stop-color="#fff" stop-opacity="0.27"/><stop offset="1" stop-color="#fff" stop-opacity="0"/></radialGradient><radialGradient id="radial-gradient-2" cx="168.31" cy="-346.85" r="71.73" gradientTransform="translate(-7.48 288.84) scale(0.7 0.56)" xlink:href="#radial-gradient"/></defs><title>Anton-base</title><rect class="cls-1" x="16.46" y="34.28" width="146.19" height="98.05" rx="11.51" ry="11.51" transform="translate(46.49 -31.18) rotate(26.46)"/><rect class="cls-2" x="51.52" y="47.3" width="118.23" height="98.05" rx="10.47" ry="10.47" transform="translate(14.59 -14.55) rotate(8.06)"/><polygon class="cls-3" points="178.53 113.44 177.97 116.42 177.88 113.44 175.09 113.06 177.91 112.75 178.47 109.61 178.6 112.75 181.35 113.06 178.53 113.44"/><path class="cls-4" d="M75.29,102.82A11.19,11.19,0,0,0,76.84,104l-.09.26A4.92,4.92,0,0,1,75.29,102.82Z"/><path class="cls-4" d="M75.79,105.73c.13.1.26.2.4.29a.88.88,0,0,1,0,.15A2.51,2.51,0,0,1,75.79,105.73Z"/><path class="cls-5" d="M76.75,104.27c-.19.57-.38,1.15-.56,1.71-.14-.09-.27-.19-.4-.29a.64.64,0,0,1-.09-.52l-.14.34c-.78-.65-1.17-1.25-1-1.66l.51-1.27.23.24A4.78,4.78,0,0,0,76.75,104.27Z"/><path class="cls-5" d="M75.79,105.73a2.51,2.51,0,0,0,.35.44c-.13.45-.27.89-.4,1.33-.44-.41-.65-.78-.54-1l.36-.9.14-.34A.65.65,0,0,0,75.79,105.73Z"/><path class="cls-5" d="M77.53,102.05c-.24.66-.46,1.31-.69,2a11.19,11.19,0,0,1-1.55-1.19l-.23-.24a2.05,2.05,0,0,1-.57-1h0a1,1,0,0,1,0-.35l.77-1.91a.67.67,0,0,0,0,.2C75.2,100.17,76,101.11,77.53,102.05Z"/><polygon class="cls-3" points="233.71 39.75 232.18 45.95 232.36 39.67 226.76 38.52 232.52 38.19 234.06 31.67 233.93 38.28 239.48 39.29 233.71 39.75"/><polygon class="cls-3" points="78.52 34.06 77.96 37.04 77.86 34.06 75.07 33.68 77.89 33.36 78.45 30.23 78.58 33.36 81.34 33.68 78.52 34.06"/><polygon class="cls-3" points="28.64 109.19 26.97 115.96 27.17 109.1 21.04 107.85 27.34 107.49 29.03 100.36 28.88 107.58 34.95 108.69 28.64 109.19"/></svg>