<svg id="Layer_1" data-name="Layer 1" xmlns="http://www.w3.org/2000/svg" xmlns:xlink="http://www.w3.org/1999/xlink" viewBox="0 0 251 151"><defs><style>.cls-1,.cls-2{opacity:0.1;}.cls-1{fill:url(#radial-gradient);}.cls-2{fill:url(#radial-gradient-2);}.cls-3{fill:#e1f1f9;}</style><radialGradient id="radial-gradient" cx="100.31" cy="-91.64" r="71.73" gradientTransform="translate(2.89 131.68) scale(0.87 0.56)" gradientUnits="userSpaceOnUse"><stop offset="0" stop-color="#fff" stop-opacity="0.5"/><stop offset="0.4" stop-color="#fff" stop-opacity="0.27"/><stop offset="1" stop-color="#fff" stop-opacity="0"/></radialGradient><radialGradient id="radial-gradient-2" cx="160.88" cy="-198.57" r="71.73" gradientTransform="translate(-4.13 212.04) scale(0.7 0.56)" xlink:href="#radial-gradient"/></defs><title>Ivar-base</title><rect class="cls-1" x="16.84" y="31.79" width="146.19" height="98.05" rx="11.51" ry="11.51" transform="translate(70.05 -38.45) rotate(38.59)"/><rect class="cls-2" x="49.65" y="52.8" width="118.23" height="98.05" rx="10.47" ry="10.47" transform="translate(41.83 -31.28) rotate(20.19)"/><polygon class="cls-3" points="19.43 107.72 20.3 102.95 20.46 107.72 24.76 108.33 20.41 108.84 19.53 113.86 19.33 108.84 15.08 108.33 19.43 107.72"/><polygon class="cls-3" points="212.6 32.25 212.06 35.1 211.97 32.25 209.3 31.89 212 31.58 212.54 28.58 212.67 31.58 215.31 31.89 212.6 32.25"/><polygon class="cls-3" points="65.8 24.76 66.51 20.91 66.63 24.76 70.11 25.26 66.59 25.67 65.89 29.73 65.72 25.67 62.28 25.26 65.8 24.76"/><polygon class="cls-3" points="202.99 121.39 201.32 128.16 201.52 121.3 195.39 120.05 201.69 119.69 203.38 112.56 203.23 119.78 209.3 120.89 202.99 121.39"/></svg>