<svg id="Layer_1" data-name="Layer 1" xmlns="http://www.w3.org/2000/svg" xmlns:xlink="http://www.w3.org/1999/xlink" viewBox="0 0 251 151"><defs><style>.cls-1{opacity:0.1;fill:url(#radial-gradient);}.cls-2{fill:#e1f1f9;}</style><radialGradient id="radial-gradient" cx="-1581.89" cy="112.78" r="71.73" gradientTransform="translate(1510.15 7.95) scale(0.87 0.56)" gradientUnits="userSpaceOnUse"><stop offset="0" stop-color="#fff" stop-opacity="0.5"/><stop offset="0.4" stop-color="#fff" stop-opacity="0.27"/><stop offset="1" stop-color="#fff" stop-opacity="0"/></radialGradient></defs><title>Joonas-base</title><rect class="cls-1" x="64.44" y="21.52" width="146.19" height="98.05" rx="11.51" ry="11.51" transform="translate(-3.08 6.36) rotate(-2.62)"/><polygon class="cls-2" points="46.03 38.5 47.2 32.09 47.41 38.5 53.2 39.33 47.34 40.02 46.17 46.78 45.89 40.02 40.17 39.33 46.03 38.5"/><polygon class="cls-2" points="225.21 93.72 226.27 87.89 226.46 93.72 231.72 94.45 226.4 95.08 225.34 101.22 225.09 95.08 219.89 94.45 225.21 93.72"/><polygon class="cls-2" points="122.08 117.03 120.2 124.67 120.43 116.94 113.52 115.53 120.62 115.11 122.52 107.08 122.36 115.22 129.19 116.47 122.08 117.03"/><polygon class="cls-2" points="31.28 119.47 30.58 123.13 30.46 119.47 27.03 119 30.5 118.61 31.19 114.75 31.36 118.61 34.75 119 31.28 119.47"/></svg>