<svg id="Layer_1" data-name="Layer 1" xmlns="http://www.w3.org/2000/svg" xmlns:xlink="http://www.w3.org/1999/xlink" viewBox="0 0 251 151"><defs><style>.cls-1{fill:#002735;}.cls-2{opacity:0.1;isolation:isolate;fill:url(#radial-gradient);}.cls-3{fill:#e1f1f9;}</style><radialGradient id="radial-gradient" cx="-1642.08" cy="-332.44" r="71.68" gradientTransform="matrix(0.87, -0.04, -0.03, -0.55, 1552.52, -178.96)" gradientUnits="userSpaceOnUse"><stop offset="0" stop-color="#fff" stop-opacity="0.5"/><stop offset="0.4" stop-color="#fff" stop-opacity="0.26"/><stop offset="1" stop-color="#fff" stop-opacity="0"/></radialGradient></defs><title>Joonas</title><rect class="cls-1" width="251" height="151"/><path class="cls-2" d="M201.3,116.7l-123,5.6a11.51,11.51,0,0,1-12-11l-3.4-75a11.51,11.51,0,0,1,11-12l123-5.6a11.51,11.51,0,0,1,12,11l3.4,75A11.58,11.58,0,0,1,201.3,116.7Z"/><polygon class="cls-3" points="46.1 38.5 47.2 32.1 47.4 38.5 53.2 39.3 47.4 40 46.2 46.8 45.9 40 40.2 39.3 46.1 38.5"/><polygon class="cls-3" points="225.2 93.7 226.3 87.9 226.5 93.7 231.8 94.4 226.4 95.1 225.4 101.2 225.1 95.1 219.9 94.4 225.2 93.7"/><polygon class="cls-3" points="122.1 117 120.2 124.7 120.5 116.9 113.5 115.5 120.6 115.1 122.5 107.1 122.4 115.2 129.2 116.5 122.1 117"/><polygon class="cls-3" points="31.3 119.5 30.6 123.1 30.5 119.5 27.1 119 30.5 118.6 31.2 114.7 31.4 118.6 34.8 119 31.3 119.5"/></svg>