<?xml version="1.0" encoding="utf-8"?>
<!-- Generator: Adobe Illustrator 22.1.0, SVG Export Plug-In . SVG Version: 6.00 Build 0)  -->
<svg version="1.1" id="Layer_1" xmlns="http://www.w3.org/2000/svg" xmlns:xlink="http://www.w3.org/1999/xlink" x="0px" y="0px"
	 viewBox="0 0 251 151" style="enable-background:new 0 0 251 151;" xml:space="preserve">
<style type="text/css">
	.st0{opacity:0.1;fill:url(#SVGID_1_);enable-background:new    ;}
	.st1{opacity:0.1;fill:url(#SVGID_2_);enable-background:new    ;}
	.st2{opacity:0.17;}
	.st3{fill:#111212;}
	.st4{fill:#FDFDF4;}
	.st5{fill:#272022;}
	.st6{fill:#EFEDE8;}
	.st7{fill:#F3CEE3;}
	.st8{fill:#FBFBF5;}
	.st9{fill:#F0EDE9;}
	.st10{fill:#E694C1;}
	.st11{fill:#FAFAF5;}
	.st12{fill:#ECB7D6;}
	.st13{fill:#965F6C;}
	.st14{fill:#4C4C49;}
	.st15{fill:#B7B8B5;}
	.st16{fill:#898883;}
	.st17{fill:#0F100F;}
	.st18{fill:#121413;}
	.st19{fill:#121313;}
	.st20{fill:#080807;}
	.st21{fill:#282826;}
	.st22{fill:#593840;}
	.st23{fill:#794B55;}
	.st24{fill:#ECEDEC;}
	.st25{fill:#E3E3E3;}
	.st26{fill:#6B6C6E;}
	.st27{fill:#D3D5D4;}
	.st28{fill:#757676;}
	.st29{fill:#E84C59;}
	.st30{fill:#EE7B5C;}
	.st31{fill:#F9C862;}
	.st32{fill:#062633;}
	.st33{fill:#ABAAAA;}
	.st34{fill:#041D26;}
	.st35{fill:#6E6E6E;}
	.st36{fill:#945866;}
	.st37{fill:#BDBBBB;}
</style>
<title>Kadi-base</title>
<radialGradient id="SVGID_1_" cx="-1206.2482" cy="2076.2322" r="71.73" gradientTransform="matrix(-0.8439 0.2117 0.1362 0.5432 -1186.5857 -766.6667)" gradientUnits="userSpaceOnUse">
	<stop  offset="0" style="stop-color:#FFFFFF;stop-opacity:0.5"/>
	<stop  offset="0.4" style="stop-color:#FFFFFF;stop-opacity:0.27"/>
	<stop  offset="1" style="stop-color:#FFFFFF;stop-opacity:0"/>
</radialGradient>
<path class="st0" d="M183.7,137.9l-119.5,30c-6.2,1.5-12.4-2.2-14-8.4L32,86.7c-1.5-6.2,2.2-12.4,8.4-14l119.5-30
	c6.2-1.5,12.4,2.2,14,8.4l18.3,72.8C193.6,130.1,189.9,136.3,183.7,137.9z"/>
<radialGradient id="SVGID_2_" cx="121.9477" cy="321.8269" r="71.73" gradientTransform="matrix(0.7789 0.3876 0.2495 -0.5013 -85.3985 181.7279)" gradientUnits="userSpaceOnUse">
	<stop  offset="0" style="stop-color:#FFFFFF;stop-opacity:0.5"/>
	<stop  offset="0.4" style="stop-color:#FFFFFF;stop-opacity:0.27"/>
	<stop  offset="1" style="stop-color:#FFFFFF;stop-opacity:0"/>
</radialGradient>
<path class="st1" d="M56.3-2l110.3,54.9c5.7,2.8,8,9.7,5.2,15.4l-33.4,67.2c-2.8,5.7-9.7,8-15.4,5.2L12.6,85.7
	c-5.7-2.8-8-9.7-5.2-15.4L40.8,3.1C43.7-2.6,50.6-4.9,56.3-2z"/>
<g class="st2">
	
		<image style="overflow:visible;opacity:0.75;enable-background:new    ;" width="65" height="65" xlink:href="8F75E85388917287.png"  transform="matrix(0.9846 0 0 0.9846 104.64 81.43)">
	</image>
	<path class="st3" d="M120.8,125.5c0.2,0,0.4-0.1,0.6-0.2l-0.3,1.1c-0.1,0.2-0.2,0-0.2,0c-0.6,0-1.2,0.4-1.3,1.1
		c-0.1,0.5-0.4,0.9-0.7,1.3c-0.2,0.3-0.6,0.3-0.8,0.5c-0.2,0.2-0.4,0.4-0.5,0.6c-0.2,0.2-0.3,0.5-0.4,0.8c-0.2,0.4-0.2,0.9,0,1.3
		c0.2,0.4,0.6,0.6,1.1,0.8c0.3,0,0.5-0.1,0.7-0.2c0.6-0.6,1.3-1.1,1.9-1.7c0.1-0.1,0.3-0.3,0.4-0.4c0.1-0.1,0.4-0.2,0.6-0.1
		c0.4,0.2,0.8,0.2,1.3,0.1h0.3c0.2-0.1,0.4-0.3,0.5-0.5c-0.1-0.1-0.2,0-0.3,0c-0.4,0.1-0.8,0.2-1.2,0.1c-0.7-0.1-1.3-0.7-1.5-1.4
		c0-0.1,0-0.3-0.1-0.3s-0.1,0.2-0.1,0.3c0,0.4,0.1,0.7,0.3,1c0.2,0.2,0.2,0.2-0.1,0.4c-0.4,0.3-0.8,0.7-1.1,1.1
		c-0.1,0.1-0.2,0.2-0.3,0.3c-0.2,0.1-0.4,0.3-0.6,0.5c-0.1,0.1-0.2,0.2-0.3,0.3c-0.1,0.1-0.3,0.1-0.4,0c-0.1-0.1-0.1-0.1-0.2-0.2
		c-0.4-0.1-0.4-0.4-0.5-0.6c0-0.1,0-0.3,0.1-0.4c0.1-0.1,0.3-0.1,0.4-0.1c0.2,0.1,0.2,0,0.2-0.1s0.2-0.4,0.2-0.7c0,0-0.1,0-0.1,0
		c0,0,0,0,0,0l0,0c-0.1,0.1-0.2,0.2-0.2,0.3s-0.1,0.2-0.2,0.2c-0.1,0-0.2,0-0.3,0c0.1-0.2,0.2-0.3,0.4-0.4c0.1,0,0.3-0.1,0-0.2
		s0-0.1,0-0.2c0.2-0.2,0.4-0.4,0.7-0.5c0.2,0,0.3-0.1,0.4-0.3c0.2-0.2,0.3-0.4,0.5-0.6c0.2-0.2,0.3-0.5,0.3-0.8
		c0-0.3,0.2-0.5,0.4-0.7c0.1-0.2,0.4-0.3,0.6-0.1c0,0,0,0,0,0l0,0c0.2,0.1,0.3,0.1,0.4-0.2s0.2-0.7,0.3-1s0.2-0.9,0.3-1.3
		c0-0.1,0.1-0.2,0-0.3s-0.2,0.1-0.3,0.1c-0.2,0.1-0.3,0.3-0.5,0.4c-0.2,0.3-0.5,0.3-0.8,0.1c-0.1-0.1-0.2-0.1-0.2-0.2
		c0,0-0.1-0.1-0.1-0.1c-0.1-0.1-0.3-0.1-0.3-0.3c0-0.2,0-0.5,0.1-0.7c0,0,0,0,0-0.1c0.1,0,0.1-0.2,0.2-0.1s0,0.2,0,0.2
		c0,0-0.1,0-0.1,0.1c-0.1,0.1-0.1,0.2,0.1,0.2l0,0c0.2,0,0.2,0,0.1,0.2s-0.1,0.1,0,0.2s0.1,0,0.2,0c0.1-0.1,0.3-0.1,0.4-0.2
		c0.1-0.1,0.2-0.2,0.2-0.4c0,0,0-0.1,0-0.1c0.1-0.3,0.1-0.6-0.2-0.8c-0.1-0.1-0.1-0.2,0-0.3c0,0,0,0,0,0h0.1c0.4-0.2,0.6-0.6,1-0.9
		c0.1-0.1,0.1-0.2,0.2-0.3c0-0.1,0.1-0.2,0.1-0.3c0-0.1,0.1-0.2,0.2-0.2s0.1,0.2,0.1,0.2c-0.1,0.8-0.3,1.6-0.4,2.4
		c0,0.1,0,0.2,0,0.2v0.2c0,0,0.1,0,0.1-0.1l0.1-0.2c0-0.1,0.2-0.2,0.3-0.2c0.2,0,0.3-0.1,0.3-0.2c0-0.1,0.1-0.2,0.1-0.3
		c0-1-0.1-2-0.3-2.9l0,0c0-0.5,0-1-0.2-1.6c0-0.1,0-0.3,0.1-0.4c0.2-0.7,0.6-1.2,1.1-1.7c0.1-0.1,0.2-0.3,0.3-0.3
		c-0.3,0.3-0.6,0.7-0.7,1.1v0.2c0,0.1,0,0.2,0.1,0.3c0.1,0.1,0.2,0.1,0.3,0c0.2-0.1,0.4-0.3,0.6-0.4c0.1,0,0.2-0.1,0.3-0.2
		c0.2-0.3,0.4-0.6,0.6-1c0.3-0.6,0.7-1.2,1.2-1.7c0.4-0.4,0.8-0.8,1.2-1.2c-0.1,0.1-0.2,0.3-0.3,0.5c-0.1,0.1-0.2,0.2-0.3,0.3
		c-0.4,0.2-0.6,0.6-0.8,1c-0.2,0.3-0.1,0.7,0.2,0.9c0.1,0.1,0.1,0.1,0,0.2c0,0.1-0.1,0.2-0.1,0.3c0,0.1,0,0.1,0,0.2
		c0.1,0.1,0.1,0.1,0.2,0c0.1,0,0.1-0.1,0.2-0.2s-0.1,0.2,0,0.3s0.2-0.1,0.2-0.2c0.1-0.2,0.3-0.4,0.4-0.6c0.3-0.1,0.4-0.3,0.4-0.6
		c0,0,0,0,0,0c0-0.6,0.3-1.1,0.8-1.4c0.1-0.1,0.2-0.2,0.2-0.3c0-0.1,0.1-0.3,0.2-0.4c0.2-0.1,0.2-0.2,0.2-0.4c0,0,0,0,0,0l0,0
		c-0.1-0.3,0-0.7,0.3-0.9c0.6-0.4,1.2-0.9,1.8-1.4c0.2-0.2,0.4-0.4,0.5-0.7c0.2-0.3,0.3-0.7,0.5-1c0.4-0.8,0.9-1.4,1.6-1.9
		c0.1,0,0.1-0.1,0.2-0.2s-0.1-0.1-0.1-0.1c-0.2,0-0.3,0-0.5-0.1c-0.6-0.2-1.3-0.3-2-0.3c-0.7-0.1-1.4-0.3-2.1-0.7
		c-0.5-0.2-1-0.6-1.3-1c-0.5-0.5-0.6-1.3-0.1-1.9c0,0,0,0,0,0c0.1-0.1,0.3-0.3,0.5-0.3c0.5-0.3,1.1-0.5,1.6-0.7c1-0.3,2-0.7,3-1.2
		l0.2-0.1c0.2-0.1,0.3-0.3,0.2-0.4c0-0.4,0-0.7,0-1.1c0-0.1,0-0.1-0.1-0.2c-0.1,0.1-0.2,0.1-0.2-0.1v-0.1c-0.3-0.6-0.7-1-1.2-1.3
		c-0.4-0.3-0.7-0.7-0.9-1.1c0-0.1-0.1-0.2-0.1-0.3c-0.1-0.4,0.1-0.6,0.5-0.7c0.5,0,0.9,0.1,1.4,0.2c0.6,0.2,1.1,0.5,1.6,0.8
		c0.1,0.1,0.1,0.1,0,0.2c-0.2,0.2-0.3,0.4-0.4,0.6c0,0-0.1,0.1,0,0.2s0.1,0,0.1,0c0.3-0.4,0.6-0.7,1-1c0.4-0.4,0.8-0.7,1.2-1
		c0.3-0.3,0.8-0.5,1.2-0.5c0.2,0,0.4-0.2,0.6-0.3c0.1-0.1,0.2-0.1,0.2-0.1l0,0c-0.1,0-0.1,0-0.2,0.1c-0.2,0.2-0.2,0.2,0,0.4V95
		c0,0.1,0,0.2,0.1,0.1c0.2,0,0.4-0.1,0.5-0.1c0.2-0.1,0.5-0.1,0.7-0.1c0.2-0.1,0.4-0.2,0.5-0.4c-0.1-0.1-0.2,0-0.3,0.1
		s-0.2,0.2-0.3-0.1c0-0.1,0-0.1-0.1-0.1c0,0,0,0,0,0l0,0c0.3-0.1,0.7-0.1,1,0c0.1,0,0.2,0,0.3,0c0.3-0.1,0.7-0.2,1-0.2
		c0.5-0.1,0.9,0,1.3,0.3c0.4,0.3,0.7,0.6,0.9,1c0.2,0.3,0.1,0.6-0.1,0.8c0.1,0,0-0.1,0-0.2c-0.1-0.1-0.2-0.1-0.3-0.2
		c-0.1-0.1-0.2-0.1-0.3-0.1c-0.5-0.1-1-0.2-1.5-0.4c-0.1,0-0.3-0.2-0.3,0s0.1,0.2,0.2,0.2l0.5,0.2c0.5,0.2,0.6,0.4,0.5,0.9
		c0,0.2,0,0.4,0.1,0.5c-0.1-0.1-0.1-0.3-0.1-0.4c0,0,0-0.1-0.1-0.1c-0.1,0.1-0.1,0.3,0,0.5c0.1,0.3,0.2,0.6,0.4,0.8
		c0.4,0.9,0.3,1.9-0.2,2.7c-0.2,0.4-0.5,0.6-0.9,0.8c0.1,0.1,0.1,0.1,0.3,0.1c-0.3,0.3-0.5,0.6-0.7,0.9c-0.1,0.1-0.2,0.2-0.2,0.3
		c0,0-0.2,0.2,0.1,0.2c0.1,0,0,0.1,0,0.2c0,0.3,0.2,0.5,0.5,0.4c0.1,0,0.1,0,0.1-0.1s-0.1-0.1-0.1-0.1c-0.2-0.1-0.2-0.2-0.2-0.4
		c0-0.1,0.1-0.3,0.3-0.3c0,0,0,0,0,0l0,0c0.5-0.1,1-0.3,1.4-0.6c0.1-0.1,0.2-0.1,0.2-0.2c0-0.1,0.1-0.2-0.1-0.2
		c-0.1,0.2-0.3,0.3-0.5,0.3c-0.1,0-0.2,0.1-0.3,0.2c-0.1,0.1-0.2,0.1-0.2,0s0-0.2,0.1-0.2c0.1,0,0.1-0.1,0.1-0.1
		c0-0.2,0.1-0.2,0.2-0.2s0.2,0,0.2-0.1s0-0.1,0.1-0.1c0.2-0.1,0.2-0.2,0.1-0.4s-0.1-0.2,0.1-0.2s0.2,0,0.2-0.1s0.1-0.1,0.1,0
		s0,0.1,0,0.1s-0.2,0.2,0,0.3c0.1-0.2,0.3-0.3,0.2-0.6c0-0.1,0-0.1,0.1-0.2c0.3-0.5,0.8-0.9,1.1-1.5c0.2-0.3,0.3-0.6,0.4-0.9
		c0-0.2,0.1-0.4,0.3-0.5c0.3-0.4,0.6-0.8,0.9-1.2c0-0.1,0.1-0.1,0.1,0c0.1,0.1,0.2,0.2,0.3,0.3c0.1,0.5,0.1,1,0,1.4
		c-0.1,0.4-0.2,0.7-0.3,1.1c-0.2,0.8-0.6,1.5-1.1,2.2c-0.4,0.5-0.7,1.1-1,1.6c0,0.1,0,0.2,0,0.2c0.4-0.4,0.7-0.7,0.9-1.2
		c0,0.8-0.1,1.6-0.2,2.4c0,0.2,0,0.5,0.2,0.6c0.4,0.5,0.8,1,1.1,1.6c0.1,0.1,0.1,0.3,0.2,0.2s0-0.2,0-0.3c-0.2-0.5-0.6-1.1-0.9-1.5
		c0-0.1-0.1-0.1-0.1-0.1c-0.1-0.1-0.2-0.2-0.1-0.3c0.1-0.3,0.1-0.6,0.1-0.9c0-0.2,0.1-0.2,0.2-0.1c0.3,0.1,0.5,0.2,0.7,0.4
		c0.1,0.1,0.2,0.1,0.3,0.1c1.1-0.3,2.3-0.4,3.4-0.6c0.9-0.2,1.8-0.6,2.4-1.2c0.7-0.7,1.5-1.2,2.5-1.6c0.1-0.1,0.2-0.1,0.4-0.1
		c-0.3,0.1-0.5,0.2-0.8,0.4s-0.4,0.2-0.6,0.4s-0.2,0.1-0.1,0.2s0.1,0,0.2,0c0.5-0.2,1-0.4,1.5-0.6c0.1,0,0.2,0,0.3,0
		c-0.1,0.1-0.1,0.3,0,0.4c0,0.1,0,0.2,0,0.3c0,0.2-0.1,0.3-0.3,0.3c-0.4,0-0.8,0.1-1.1,0.3c-0.2,0.1-0.3,0.1-0.4,0.2
		c-0.1,0-0.1,0.1-0.1,0.1c0,0,0,0,0,0c0,0.1,0.1,0,0.2,0c0.4-0.1,0.9-0.2,1.4-0.2c0.2,0,0.4,0,0.6,0c-0.2,0.1-0.2,0.3-0.2,0.6
		c0,0.4-0.3,0.7-0.6,0.8c-0.5,0.1-1,0.3-1.4,0.5c-0.2,0-0.4,0-0.5,0c-0.1,0-0.2,0-0.2,0.1s0.1,0.1,0.2,0.1h0.1
		c0.1,0,0.3,0.1,0.3,0.2c0,0.2-0.1,0.2-0.2,0.3c-0.2,0.1-0.5,0.2-0.7,0.2c-0.1,0-0.2,0.1-0.3,0.2c-0.4,0.3-0.8,0.6-1.3,0.7
		c-0.4,0.1-0.7,0.3-1,0.5l-1.2,0.7c-0.1,0-0.2,0.1-0.2,0.1c-0.1-0.1,0-0.2,0-0.3c0-0.5-0.2-1-0.5-1.5c-0.1-0.1-0.1-0.2-0.2-0.2
		c-0.2-0.1-0.3-0.3-0.4-0.5c-0.1-0.2-0.2-0.3-0.4-0.3c0.1,0.2,0.2,0.5,0.4,0.7c0.6,0.7,0.9,1.7,0.7,2.6c-0.1,0.6-0.1,1.2,0,1.8
		c0,0.2,0.1,0.4,0.2,0.6c0.1,0.1,0,0.3-0.1,0.3c-0.8,0.9-1.3,1.9-1.6,3c0,0.2-0.1,0.3-0.3,0.3c-0.8,0.3-1.6,0.6-2.4,1
		c-0.4,0.2-0.7,0.4-1,0.6c-0.1,0-0.1,0.1-0.1,0.2c0,0,0,0,0,0c0.1,0.1,0.1,0,0.2,0c0.9-0.5,2-0.8,2.9-1.2c0.4-0.1,0.8-0.2,1.2-0.2
		l2.1-0.1c0.6-0.1,1.2-0.2,1.7-0.5c0.3-0.1,0.6-0.2,0.9-0.1c0.1,0,0.3,0,0.4,0c0.6-0.1,1.2-0.2,1.8-0.1c0.2,0,0.5,0.1,0.6,0.3
		c-0.2,0-0.3,0-0.5-0.1c-0.3-0.1-0.5-0.1-0.8-0.1c-0.1,0-0.2,0-0.2,0.1s0.1,0.1,0.2,0.1c0.4,0,0.9,0.1,1.3,0.2
		c0.2,0,0.4,0.2,0.4,0.4c0,0.2-0.4,0.4-0.6,0.4c-0.1,0-0.3-0.1-0.4-0.1c-0.3-0.1-0.6-0.2-1-0.2c-0.1,0-0.2,0-0.3,0.1
		c0,0,0,0.1,0,0.1c0,0,0,0,0,0c0.1,0.1,0.2,0.1,0.4,0.1c0.5,0.1,1,0.3,1.4,0.5c0.2,0.1,0.2,0.2,0.1,0.4s-0.1,0.2-0.1,0.2
		c-0.1,0.3-0.4,0.6-0.7,0.8c-0.1,0.1-0.2,0.1-0.4-0.1c-0.2-0.4-0.7-0.7-1.1-0.8h-0.1c-0.1,0-0.2-0.1-0.3,0s0.1,0.1,0.2,0.2
		c0.5,0.2,0.8,0.5,1,1c0.1,0.1,0.1,0.2-0.1,0.2s-0.2,0-0.2,0.1c-0.2,0.7-0.8,0.6-1.3,0.3c-0.2-0.1-0.5-0.2-0.8-0.2
		c-0.4,0-0.8,0-1.2-0.2c-0.1-0.1-0.3-0.1-0.5,0c-0.4,0.3-0.9,0.3-1.3,0c-0.1-0.1-0.3-0.1-0.4,0l-1.2,0.6c-0.1,0-0.2,0.1-0.1,0.2
		s0.1,0,0.2,0c0.3-0.1,0.6-0.2,0.9-0.3c0.1,0,0.2,0,0.2-0.1h0.1c0,0,0,0.1-0.1,0.1c-1,0.8-2.1,1.3-3.3,1.8c-0.1,0-0.2,0.1-0.3,0.1
		c-0.2,0-0.4,0.1-0.6,0.2c-0.2,0.3-0.7,0.4-1,0.1c0,0,0,0,0,0c-0.1,0-0.1-0.1-0.1-0.2c-0.3-0.3-0.6-0.6-1-0.8
		c-0.4-0.3-0.7-0.7-1-1.1c-0.4-0.5-0.6-1-0.9-1.5c-0.1-0.1-0.1-0.2-0.3-0.2c0,0,0,0.1,0,0.2c0.4,0.7,0.7,1.4,1.1,2.1
		c0.1,0.1,0.1,0.2,0.2,0.3c0.1,0.2,0.1,0.2-0.1,0.3c-0.5,0.2-1.1,0.4-1.6,0.7c-1.1,0.5-2.1,0.9-3.2,1.4c-0.1,0-5.1,2.1-5.1,2.2
		c0,0.1,0.1,0.2,0.2,0.3c0.1,0,5.1-2,5.2-2.1l4.8-2.1c0.2-0.1,0.4-0.1,0.6,0.1c0.3,0.2,0.5,0.4,0.8,0.7c0.4,0.5,1.2,0.6,1.7,0.1
		c0,0,0,0,0,0l0,0c0.1-0.1,0.2-0.1,0.3-0.2c0.8-0.2,1.6-0.5,2.4-1c0.6-0.3,1.1-0.6,1.6-1c0.1-0.1,0.3-0.1,0.4-0.1
		c0.3,0,0.6-0.1,0.9-0.2c0.1-0.1,0.2-0.1,0.3,0c0.4,0.2,0.8,0.2,1.2,0.2c0.2,0,0.4,0,0.6,0.2c0.1,0.1,0.2,0.1,0.2,0.1
		c0.4,0.2,0.9,0.1,1.2-0.1l0.2-0.2c0,0,0.1-0.1,0.1-0.1c0.4,0,0.5-0.3,0.7-0.5c0.4-0.2,0.8-0.6,1-1c0-0.1,0.1-0.2,0.2-0.3
		c0.2-0.1,0.3-0.4,0.2-0.6c0,0-0.1-0.1-0.1-0.1c-0.2-0.2-0.2-0.2,0.1-0.4s0.4-0.5,0.1-0.8c-0.1-0.1-0.2-0.3-0.2-0.4
		c-0.1-0.3-0.3-0.4-0.5-0.5c-0.4-0.2-0.9-0.3-1.3-0.2c-0.2,0-0.5,0-0.7,0.1c-0.3,0.1-0.7,0.1-1,0c-0.2-0.1-0.4-0.1-0.5,0l-0.2,0.1
		c-0.9,0.4-1.9,0.6-2.9,0.6h-1.1c-0.1-0.1,0-0.1,0-0.2c0.3-1,0.8-1.9,1.4-2.6c0.3-0.2,0.4-0.7,0.2-1c-0.3-0.6-0.3-1.3-0.1-2
		c0-0.1,0.1-0.1,0.2-0.2c0.7-0.4,1.5-0.8,2.2-1.3c0.1-0.1,0.2-0.1,0.2-0.1c0.5-0.1,1-0.3,1.4-0.7c0.1-0.1,0.2-0.2,0.4-0.2
		c0.3,0,0.6-0.1,0.9-0.3c0.2-0.1,0.3-0.3,0.3-0.6c0-0.1,0-0.2,0.2-0.2c0.4-0.2,0.8-0.3,1.3-0.4c0.5-0.2,0.8-0.7,0.9-1.2
		c0-0.1,0.1-0.1,0.1-0.2c0.2-0.2,0.2-0.5-0.1-0.7l0,0c-0.1-0.1-0.1-0.1,0-0.2c0-0.2,0.1-0.3,0.1-0.5c0-0.1,0-0.2,0-0.3
		c0.1-0.2,0.1-0.5-0.1-0.6c-0.1,0-0.1-0.1-0.2-0.1h-0.1c-0.2-0.4-0.5-0.3-0.7-0.2c-1,0.3-1.9,0.8-2.6,1.5c-0.9,0.9-2,1.4-3.2,1.5
		c-0.8,0.1-1.6,0.2-2.4,0.4c-0.1,0-0.2,0-0.3-0.1c-0.2-0.2-0.5-0.3-0.8-0.4c-0.1,0-0.1-0.1-0.1-0.2v-1.1c0-0.1,0-0.2,0.1-0.3
		c0.7-0.8,1.2-1.8,1.4-2.9c0-0.1,0.1-0.3,0.1-0.4c0.2-0.7,0.1-1.5-0.2-2.1c-0.1-0.2-0.3-0.3-0.5-0.4c-0.2,0-0.2-0.1-0.2-0.3
		c0.1-0.2,0.1-0.5,0-0.7c0-0.3-0.3-0.5-0.6-0.5c-0.1,0-0.2,0.1-0.3,0.1c-0.2,0.2-0.4,0.3-0.6,0.5l-0.5,0.5c-0.2-1-0.9-1.8-1.8-2.1
		c-0.2-0.1-0.5-0.1-0.8-0.1c-0.2,0-0.4,0-0.6,0.1c-0.4,0.2-0.8,0.2-1.3,0.1c-0.1,0-0.1,0-0.2,0c-0.3,0.1-0.7,0.1-1.1,0
		c-0.2,0-0.4,0-0.6,0.2c-0.2,0.1-0.4,0.2-0.6,0.2c-0.6,0.2-1.1,0.5-1.5,0.8c-0.3,0.2-0.6,0.4-0.9,0.7c-0.1,0.2-0.2,0.2-0.4,0
		c-0.8-0.5-1.7-0.8-2.6-1c-0.3-0.1-0.6,0-0.8,0.1c-0.3,0.1-0.5,0.4-0.5,0.8c0.1,0.5,0.3,0.9,0.7,1.3c0.4,0.4,0.8,0.7,1.2,1.1
		c0.1,0.1,0.2,0.2,0.3,0.4c0,0.1,0.1,0.3,0.2,0.4c0.4,0.3,0.2,0.8,0.2,1.2c0,0.1,0,0.1-0.1,0.1c-0.7,0.3-1.4,0.7-2.1,1
		c-0.5,0.2-1.1,0.3-1.6,0.5c-0.5,0.2-1,0.5-1.5,0.8c-0.5,0.3-0.7,0.8-0.6,1.4c0.1,0.7,0.6,1.3,1.1,1.7c0.5,0.4,1.1,0.7,1.7,1
		c0.5,0.3,1,0.4,1.6,0.3c0.5,0,0.9,0.1,1.4,0.3c-0.7,0.6-1.2,1.5-1.6,2.4c-0.3,0.5-0.7,1-1.2,1.3c-0.8,0.7-1.7,1.3-2.6,1.9
		c-0.4,0.3-0.8,0.7-1.2,1.1c-0.6,0.7-1.3,1.3-2.1,1.8c-0.8,0.5-1.4,1.2-1.9,2c-0.2,0.3-0.4,0.5-0.6,0.7c-0.5,0.6-0.4,1.5,0.2,2.1
		c0.1,0.1,0.3,0.2,0.2,0.3c0,0.2-0.1,0.4-0.3,0.5c-0.3,0.2-0.5,0.5-0.8,0.8c-0.4,0.2-0.7,0.6-0.9,1c0,0.1-0.1,0.1-0.1,0.2
		c-0.1,0.1-0.2,0.2-0.2,0.4c-0.1,0.2,0,0.5-0.1,0.8c0,0.1,0,0.3,0.2,0.3c0.2,0.1,0.3,0.3,0.4,0.4
		C120.5,125.3,120.6,125.4,120.8,125.5z"/>
	<path class="st3" d="M123.9,130c-0.1,0.2-0.3,0.3-0.5,0.5c0.5-0.1,0.9-0.3,1.3-0.5h0.1c0.4-0.1,0.9-0.3,1.2-0.6
		c1-0.7,1.8-1.7,2.3-2.9c0-0.1,0-0.1,0-0.2l0.1-0.1c0.2-0.3,0.5-0.6,0.6-0.9c0.2-0.4,0.6-0.8,1.1-0.9c0.3-0.1,0.6-0.2,0.9-0.4
		c0.1-0.1,0.2-0.1,0.3-0.2s0.1-0.1,0.1-0.2l0,0c0,0,0.2,0.2,0.3,0.1s0-0.1,0-0.1s0.2,0.1,0.3,0s-0.1-0.2-0.1-0.3s-0.2-0.1-0.3,0
		c-0.4,0.2-0.8,0.3-1.2,0.4c-0.2,0.1-0.4,0.2-0.6,0.3c-0.1,0-0.1,0.1-0.2,0.1c-0.4,0.4-0.7,0.7-1.1,1.1c-0.1,0.1-0.1,0.2-0.2,0.2
		c-0.5,0.7-0.8,1.6-1.4,2.3c-0.7,0.9-1.6,1.6-2.6,2L123.9,130C124,129.9,123.9,129.9,123.9,130z"/>
	<path class="st4" d="M135.1,121.8L135.1,121.8l2.7-1.2l2.7-1.2c-0.6-0.9-1.1-1.8-1.5-2.8c0.2,0.3,0.4,0.6,0.6,0.9
		c0.3,0.6,0.7,1.1,1.1,1.6c0.3,0.3,0.6,0.5,0.9,0.8c0.2,0.1,0.3,0.3,0.4,0.4c0.3,0.3,0.8,0.4,1.1,0.1c0,0,0.1-0.1,0.1-0.1
		c0.1-0.1,0.3-0.2,0.5-0.2c0.7-0.1,1.3-0.4,1.9-0.7c0.6-0.3,1.2-0.7,1.8-1.1c0.1,0,0.2-0.1,0.1-0.2s-0.2-0.1-0.3-0.1
		c-0.4,0.1-0.8,0.3-1.3,0.3l1.5-0.7h0.2c0.4,0.4,1.1,0.4,1.5,0c0.1-0.1,0.1-0.1,0.2,0c0.4,0.2,0.9,0.3,1.4,0.3c0.2,0,0.4,0,0.6,0.1
		c0.2,0.1,0.4,0.2,0.7,0.2c0.4,0,0.6-0.2,0.8-0.7l0,0c0.1,0.1,0.2,0.2,0.3,0.1s0-0.2-0.1-0.3c-0.2-0.6-0.7-1-1.4-1.1
		c0.6,0,1.1,0.2,1.4,0.7c0,0.1,0.1,0.1,0.1,0.2c0.2,0.3,0.2,0.3,0.4,0.1c0.3-0.3,0.6-0.6,0.7-1c0-0.1,0-0.1,0.1-0.2s0.2-0.1,0-0.2
		c-0.5-0.4-1.2-0.7-1.9-0.7l0,0c0,0-0.1,0-0.1,0c0,0,0.1,0,0.1-0.1c0.5,0,1,0,1.4,0.2c0.2,0.1,0.5,0,0.6-0.1
		c0.1-0.1,0.1-0.2,0.3-0.2s0.1-0.1,0-0.1s-0.2-0.4-0.5-0.5c-0.4-0.1-0.8-0.2-1.3-0.3c-0.1,0-0.2,0-0.3,0c0.5-0.1,1,0,1.4,0.1
		c0.1,0,0.2,0.1,0.2,0s-0.1-0.2-0.1-0.2c-0.2-0.2-0.4-0.2-0.7-0.3c-0.6-0.1-1.1,0-1.7,0.1c-0.2,0-0.4,0-0.6,0
		c-0.2-0.1-0.4-0.1-0.7,0l-0.2,0.1c-0.9,0.4-2,0.6-3,0.6l-1.4,0.1c-0.2,0-0.4,0.1-0.7,0.2c-1,0.4-2,0.8-3,1.2h-0.1
		c0.5-0.4,1-0.7,1.6-0.9c0.7-0.2,1.4-0.6,2.1-0.8c0.1,0,0.1-0.1,0.1-0.2c0.3-1.2,0.9-2.3,1.8-3.2c0,0,0-0.1,0-0.1c0,0,0,0,0,0
		c-0.4-0.8-0.5-1.7-0.3-2.6c0.2-0.9-0.1-1.9-0.7-2.7c-0.1-0.2-0.2-0.4-0.3-0.6c0.4,0.4,0.8,0.9,1.1,1.3c0.2,0.5,0.3,1,0.3,1.5
		c0.5-0.3,1.1-0.6,1.6-0.9c0.4-0.2,0.8-0.4,1.2-0.5c0.4-0.1,0.7-0.3,1-0.6c0.1-0.1,0.3-0.2,0.4-0.2c0.3,0,0.6-0.1,0.9-0.3
		c0.2-0.2,0.2-0.3-0.1-0.4c-0.1-0.1-0.3-0.1-0.4-0.2l0,0c0.4,0.1,0.8,0,1.1-0.2c0.3-0.1,0.6-0.2,0.9-0.3c0.5-0.1,0.9-0.6,0.8-1.1
		c0-0.1,0-0.3,0.2-0.3s0.1-0.1,0.1-0.2s-0.1-0.1-0.2-0.1c-0.7,0-1.4,0.1-2.1,0.3c0.2-0.2,0.4-0.3,0.7-0.4c0.3-0.1,0.7-0.2,1.1-0.2
		c0.2,0,0.3-0.1,0.3-0.3c0-0.1,0-0.3,0-0.4c0-0.1-0.1-0.3,0.1-0.4s0-0.1-0.1-0.1c-0.1,0-0.2,0-0.3,0.1c-0.6,0.2-1.1,0.4-1.6,0.7
		c0.3-0.3,0.6-0.5,1-0.6c0.2-0.1,0.4-0.2,0.6-0.2s0.1,0,0.1-0.1s-0.1,0-0.2,0c-0.5,0.2-1,0.4-1.5,0.7c-0.5,0.3-0.9,0.6-1.3,1
		c-0.9,0.8-2,1.3-3.2,1.4c-0.9,0.1-1.8,0.3-2.7,0.5c-0.1,0-0.2,0-0.3-0.1c-0.2-0.3-0.6-0.4-1-0.5c0,0.5-0.1,0.9-0.2,1.4
		c0,0,0,0.1,0,0.1c0,0,0,0,0,0c0.5,0.5,0.9,1.1,1.1,1.7c0.1,0.1,0.1,0.2,0.2,0.3s-0.1,0-0.1-0.1c-0.3-0.7-0.8-1.3-1.4-1.9
		c-0.1-0.1-0.1-0.2,0-0.3c0.1-0.9,0.2-1.8,0.2-2.7c-0.3,0.5-0.7,0.9-1.1,1.4c0.5-0.7,0.8-1.4,1.3-2c0.5-0.8,0.9-1.6,1.1-2.5
		c0.1-0.3,0.2-0.5,0.3-0.7c-0.2,0.1-0.5,0.1-0.6,0.4c-0.1,0.2-0.2,0.4-0.4,0.5c-0.2,0.1-0.4,0.3-0.4,0.6c0,0.2,0,0.5,0.1,0.7
		c0,0.2,0,0.3-0.1,0.5c-0.1,0.2-0.3,0.2-0.5,0.1l0,0c-0.3-0.2-0.4-0.1-0.5,0.2c-0.1,0.3-0.2,0.6-0.5,0.9c-0.1,0.2-0.2,0.4-0.4,0.6
		c-0.1,0.1-0.1,0.3,0.1,0.4l0,0c0.2,0.2,0.2,0.2,0.1,0.5c-0.1,0.3-0.3,0.5-0.6,0.7c-0.2,0.1-0.4,0.4-0.5,0.6
		c-0.4,0.9-1.3,1.5-2.3,1.5c-0.4,0-0.8,0-1.1-0.2l-0.3-0.1c-0.3,0-0.6-0.1-1-0.2c-0.1,0-0.3,0-0.4,0c-0.1,0-0.2,0.1-0.2,0.2
		c0,0.3-0.1,0.4-0.4,0.4c-0.4,0-0.8-0.1-1.1-0.2l-0.2-0.1c-0.2-0.1-0.4,0-0.5,0.1c-0.2,0.2-0.5,0.4-0.8,0.5c-0.1,0.1-0.3,0.1-0.4,0
		c-0.8,0.5-1.5,1.2-1.8,2.2c-0.4,0.9-1,1.6-1.8,2.1c-0.4,0.2-0.7,0.5-1.1,0.8c-0.1,0.1-0.1,0.2-0.1,0.3c-0.1,0.2-0.1,0.5,0,0.7
		c0.1,0.1-0.1,0.2-0.2,0.2c-0.2,0.1-0.3,0.3-0.2,0.4c0,0.1,0,0.2-0.2,0.3c-0.5,0.3-0.7,0.8-0.7,1.4c0,0.2-0.1,0.4-0.3,0.5
		c-0.1,0-0.1,0.2-0.2,0.3s-0.1,0.3-0.2,0.3c0-0.2,0.1-0.2,0.1-0.4s-0.2,0.2-0.3,0.3s-0.1,0.1-0.2,0s0-0.1,0-0.2
		c0.1-0.2,0.1-0.3,0.2-0.5c0.1-0.2,0.1-0.1,0-0.1c-0.2,0-0.4-0.2-0.4-0.5c0,0,0,0,0,0c0,0,0-0.1,0-0.1c0.1-0.4,0.3-0.8,0.6-1.1
		c0.4-0.3,0.6-0.7,0.9-1.1c-0.6,0.5-1.2,1-1.7,1.6c-0.4,0.4-0.8,1-1,1.6c-0.1,0.3-0.4,0.5-0.5,0.8c0,0.1-0.1,0.2-0.2,0.2
		c-0.3,0.1-0.5,0.3-0.7,0.5c0,0-0.1,0-0.2,0c-0.1,0-0.1-0.1-0.1-0.2c0.1-0.4,0.2-0.7,0.4-1c0.1-0.2,0.3-0.4,0.5-0.5
		c-1,0.5-1.6,1.5-1.8,2.6c0,0.1,0,0.2,0,0.3c0.1,0.3,0.2,0.7,0.1,1.1c0,0.1,0,0.2,0,0.2c0.2,0.8,0.3,1.7,0.3,2.6c0,0.2,0,0.4,0,0.6
		c-0.1,0.3-0.2,0.3-0.5,0.2s-0.1,0-0.2,0.1c-0.1,0.2-0.2,0.3-0.3,0.4c0.1-0.6,0.2-1.2,0.3-1.7c0.1-0.4,0.1-0.8,0.2-1.1
		c0-0.1,0-0.2-0.1-0.3c0,0,0,0,0,0l0,0c-0.2-0.1-0.2,0.1-0.2,0.1c-0.2,0.4-0.5,0.8-0.9,1.2c0,0.1-0.1,0.2-0.2,0.2
		c-0.2,0-0.3,0.2-0.4,0.4c0,0.2,0,0.3,0.2,0.2c0,0.2,0,0.3,0.1,0.5c0,0,0,0,0,0.1c-0.3,0.1,0,0.5-0.2,0.7c-0.2,0.2-0.4,0.3-0.6,0.4
		c0-0.2,0.1-0.2,0.2-0.3c-0.2-0.2-0.2-0.3-0.6-0.2c0.1-0.1,0.1-0.1,0.2-0.2c0.2,0,0.2-0.2,0.2-0.3s-0.1-0.2-0.2-0.1
		c-0.1,0.1-0.2,0.2-0.2,0.3v0.8c0.2,0.1,0.4,0.4,0.6,0.5c0.4,0.2,0.8,0,1-0.3c0.2-0.2,0.4-0.4,0.6-0.5c-0.4,1-0.4,2-0.8,2.9h-0.1
		c-0.3-0.4-0.7-0.3-1,0.1c-0.1,0.1-0.2,0.3-0.2,0.5c-0.1,0.4-0.3,0.8-0.5,1.1c-0.1,0.2-0.3,0.3-0.4,0.5c0,0.1-0.1,0.1-0.2,0.1
		c-0.4,0.1-0.8,0.4-1,0.8h0.3c-0.2,0.1-0.3,0.1-0.4,0.2c-0.1,0.1-0.2,0.3-0.3,0.4c0.2-0.1,0.4-0.2,0.6,0s0.1,0,0.1-0.1
		c0.1-0.2,0.1-0.3,0.2-0.5c0.1-0.1,0.2-0.2,0.2-0.2s0.1,0,0,0l0,0c0,0.1-0.1,0.2-0.1,0.3c-0.1,0.2-0.2,0.5-0.3,0.8
		c-0.2-0.2-0.4-0.2-0.6,0c-0.2,0.2-0.2,0.4-0.1,0.6c0,0.1,0,0.1,0,0.2c0,0.1,0,0.2,0.1,0.2c0.2,0.1,0.4,0.2,0.6,0.4
		c0.1,0.1,0.2,0.1,0.3,0c0,0,0,0,0,0c0.4-0.5,1-0.7,1.4-1.2c0.4-0.4,0.8-0.8,1.3-1.1c-0.4-0.4-0.6-1-0.5-1.6
		c0.1,0.6,0.4,1.1,0.8,1.4c0.4,0.3,0.9,0.4,1.4,0.3c0.3-0.1,0.6-0.1,0.8-0.2l0.1-0.1c0.2-0.1,0.4-0.1,0.6-0.2
		c1.2-0.5,1.3-0.7,2.5-1.9c0.2-0.2,1.3-2.1,1.5-2.3l0.1-0.2c0.1,0,0.1-0.1,0.2-0.2c0.3-0.4,0.6-0.7,1-1l0.1-0.1
		c0.2-0.1,0.7-0.3,1.1-0.5c1-0.4,2.4-1,3.1-1.3C134.4,122.2,134.8,122,135.1,121.8z"/>
	<path class="st5" d="M133.3,100c0,0.4-0.4,0.5-0.6,0.6l-1.3,0.6c-0.5,0.2-1,0.3-1.5,0.5c-0.8,0.2-1.5,0.6-2.1,1.1
		c-0.4,0.5-0.5,1.2-0.2,1.7c0.5,0.7,1.2,1.3,2,1.6l0.5,0.2c0.5,0.2,1.1,0.3,1.6,0.3c0.5,0.1,1,0.2,1.5,0.3c0.2,0.1,0.3,0.1,0.5,0
		l0,0c0,0,0.2,0.1,0.3,0c0.3-0.1,0.6-0.2,0.8-0.5c0.1-0.1,0.3-0.2,0.4-0.1c0.4,0.2,0.8,0.3,1.2,0.3h0.2c0.1,0,0.3,0,0.4-0.2
		c0.1-0.2,0-0.3-0.1-0.4c0,0-0.1-0.1-0.1-0.1c0.2,0,0.4,0,0.6,0c0.6,0,1.2,0.1,1.8,0.3c0.6,0.2,1.3,0.1,1.8-0.1l0.2-0.1
		c0.5-0.2,0.9-0.5,1.1-1c0.2-0.4,0.4-0.7,0.8-0.9c0.2-0.1,0.4-0.4,0.5-0.6c0.1-0.1,0-0.3-0.1-0.4l0,0c-0.2-0.1-0.2-0.2-0.2-0.4
		c0.1-0.3,0.3-0.5,0.5-0.8c0.2-0.2,0.3-0.5,0.4-0.8c0-0.1,0-0.2,0.1-0.2c0.1-0.2,0.2-0.2,0.4-0.1c0.1,0.1,0.3,0.2,0.4,0.1
		c0.1-0.1,0.2-0.3,0.2-0.4c0-0.1-0.1-0.3-0.1-0.4c-0.1-0.4,0.1-0.8,0.4-1c0.3-0.1,0.5-0.4,0.4-0.8c0-0.1,0-0.2,0-0.3
		c0.1,0,0.1,0.1,0.1,0.2c0,0.1,0.1,0.1,0.2,0.1c0.1,0,0.2-0.1,0.2-0.2c0.1-0.2,0-0.5-0.1-0.7c-0.1-0.1-0.2-0.2-0.2-0.4
		s0-0.2,0.1-0.2c0.1,0,0.1-0.1,0.1-0.2c0,0,0,0,0,0c-0.1-0.1-0.2-0.3-0.4-0.2c-0.1,0-0.1,0.1-0.2,0.2c-0.1,0.3-0.3,0.6-0.6,0.8
		c-0.2,0.2-0.4,0.5-0.5,0.8c-0.2,0.6-0.5,1.2-1,1.7c-0.1,0.1-0.2,0.3-0.3,0.4c-0.3,0.2-0.2,0.6-0.4,0.9c0,0,0,0.1-0.1,0.2
		c-0.1,0-0.2,0.1-0.2,0.2c-0.1,0.1-0.1,0.1,0,0.2s0,0.1,0,0.1c-0.4,0.4-0.8,0.6-1.3,0.7c-0.5,0-0.6,0.1-0.6,0.5
		c0,0.2,0.2,0.3,0.4,0.3c-0.1,0.1-0.3,0.1-0.4,0c-0.2-0.2-0.1-0.4-0.1-0.6c-0.1,0-0.1,0.1-0.2,0.1l1.3-1.3c-0.2-0.1-0.3,0.2-0.4,0
		l0,0c-0.4,0-0.7-0.1-1-0.4c-0.1,0.1-0.1,0.2-0.1,0.3c0,0.4,0,0.8-0.1,1.2c0,0.2,0,0.4,0,0.5c0,0.3,0.2,0.6,0.5,0.6h0.1
		c0.3,0,0.6,0,0.9-0.1c-0.3,0.1-0.6,0.1-0.8,0.1c-0.5,0-0.7-0.2-0.6-0.7c0.1-0.5,0.1-0.9,0.1-1.4c0-0.2,0-0.4-0.1-0.6
		c-0.1,0-0.3,0-0.4-0.1c-0.1-0.1,0.1,0.2-0.1,0.1s-0.1,0.1-0.1,0.2c0,0.4-0.1,0.9-0.1,1.3c0,0.3,0,0.7,0,1c0,0.3,0.3,0.6,0.6,0.6
		l0,0h0.1c0.6-0.1,1.1-0.1,1.6-0.3c-0.6,0.1-1.1,0.2-1.7,0.3c-0.2,0-0.4,0-0.6,0h-0.2c0,0.1,0,0.1,0,0.2c0.1,0.2,0.3,0.3,0.5,0.3
		h0.3c-0.2,0-0.3,0-0.5-0.1c-0.3-0.1-0.5-0.3-0.5-0.6c0-0.6,0.1-1.2,0.2-1.8c0.1-0.6,0.1-1.1,0-1.7c-0.1-0.5-0.2-0.9-0.5-1.3
		c-0.3-0.6-0.7-1.2-1.2-1.7c-0.4-0.1-0.8,0-1.1,0.1c-0.7,0.2-1.3,0.6-1.9,1c-0.2,0.1-0.4,0.2-0.6,0.2c-0.2,0-0.4,0.1-0.4,0.3l0,0
		c0,0.2-0.1,0.4-0.2,0.6C133.4,99.8,133.3,99.9,133.3,100z"/>
	<path class="st4" d="M139.6,101.1c0.1,0.1,0.3,0.2,0.4,0.1c0,0,0-0.1,0-0.1c0-0.8-0.2-1.5-0.6-2.1c-0.4-0.4-0.7-0.8-1-1.3
		c0.2,0.4,0.5,0.7,0.8,1.1c0.5,0.5,0.8,1.2,0.8,1.9c0,0.2,0,0.3,0.1,0.5c0.3,0.3,0.7,0.4,1.1,0.4c0.9-0.4,1.4-1.2,1.4-2.1
		c0.1-0.8-0.1-1.5-0.5-2.2c-0.1-0.2-0.1-0.4-0.1-0.6c0.1-0.4,0.1-0.4-0.3-0.5c-0.1,0-0.3-0.1-0.4-0.2c-0.2-0.1-0.3,0-0.4,0.2
		c0,0.4-0.2,0.6-0.6,0.6c-0.3,0-0.5,0.2-0.8,0.2c-0.1,0-0.1,0.1-0.1,0.1c0,0.1-0.1,0.2-0.2,0.1c0,0,0,0,0,0l0,0
		c-0.1,0-0.2-0.1-0.2-0.2v0l0,0c0-0.1,0-0.2,0-0.3c0-0.1-0.1-0.3-0.2-0.3c0,0,0,0,0,0c-0.1,0-0.3,0-0.3,0.2l-0.1,0.2
		c0.1-0.1,0-0.3,0.1-0.5c0.2-0.3,0.3-0.6,0.4-0.9c0-0.1,0.1-0.1,0.2-0.2s0.1-0.1,0.1-0.2c-0.3-0.1-0.6,0-0.9,0.1
		c-0.1,0.1-0.3,0-0.5,0.1l0.2-0.2c-0.1,0-0.3-0.1-0.3-0.2s0.1-0.2,0.2-0.3l0,0c-0.1,0-0.3,0.1-0.4,0.2c-0.1,0.1-0.1,0.1-0.2,0.1
		c-0.3,0-0.6,0.1-0.8,0.3h-0.1c-0.4,0-0.6,0.4-0.9,0.6c-0.6,0.5-1.2,1.1-1.7,1.7c-0.4,0.4-0.6,1-0.6,1.5c-0.1,0.4-0.1,0.8,0,1.2
		c0.1-0.1,0.2-0.1,0.1-0.3s0-0.4,0.1-0.6c0.1-0.4,0.2-0.5,0.6-0.4c0.2,0,0.3-0.1,0.5-0.2c0.7-0.5,1.6-0.9,2.5-1.1h0.1
		c0.4-0.1,0.9,0.1,1.1,0.5c0.4,0.5,0.7,1,1,1.5c0.3,0.4,0.4,0.8,0.5,1.2c0,0.2,0.1,0.3,0.2,0.4c-0.1,0-0.1-0.3-0.3-0.2
		C139.5,100.9,139.5,101,139.6,101.1z"/>
	<path class="st5" d="M139.2,94.8c0,0.1-0.1,0.1-0.2,0.2c-0.2,0.1-0.3,0.3-0.3,0.5c0,0.1,0,0.3-0.1,0.3c-0.1,0-0.1,0.1-0.1,0.2
		c0,0.3-0.1,0.5-0.1,0.8c0.1-0.1,0.1-0.3,0.2-0.4c0-0.1,0.2-0.2,0.3-0.2c0,0,0.1,0,0.1,0c0.2,0.1,0.1,0,0.1,0.1c0,0.1,0,0.2,0,0.3
		c0,0.3,0.1,0.4,0.3,0.4s0.2,0,0.2-0.1c0-0.1,0.1-0.2,0.2-0.2c0,0,0,0,0.1,0c0,0,0.1,0,0.1,0c0.2-0.2,0.4-0.1,0.6-0.1
		c0.4,0,0.6-0.2,0.6-0.7c0-0.1,0-0.1,0.1-0.1s0.1-0.1,0.2,0c0.1,0.1,0.3,0.2,0.5,0.2c0.2,0,0.2,0.1,0.2,0.3v0.2
		c0,0.2,0.1,0.4,0.2,0.6c0,0.1,0.1,0.1,0.1,0.2c0-0.1,0-0.2-0.1-0.3c-0.1-0.1-0.1-0.2-0.1-0.3c0.1-0.2,0.1-0.5,0-0.7
		c0-0.2-0.1-0.2-0.3-0.3l-1-0.4v-0.1c0.3,0.1,0.5,0.2,0.8,0.3c0.3,0.1,0.6,0.2,0.9,0.2c0.2,0,0.3,0.1,0.4,0.2
		c0.1,0.1,0.1,0.1,0.2,0.1c0.1-0.2,0.1-0.5-0.1-0.6c0,0,0,0,0,0l0,0c-0.3-0.2-0.6-0.5-0.8-0.8c-0.4-0.3-0.9-0.5-1.4-0.3
		c-0.2,0.1-0.4,0.1-0.6,0.1c-0.2,0-0.5,0-0.7,0c0,0-0.1,0-0.1,0.1C139.7,94.7,139.5,94.8,139.2,94.8z"/>
	<path class="st5" d="M133.2,98.8c0.2-0.5,0.4-1,0.6-1.5l0,0c0.1-0.2,0.3-0.4,0.5-0.6c0.1-0.1,0.1-0.2,0-0.2
		c-0.5-0.3-1.1-0.6-1.6-0.8c-0.5-0.2-1-0.3-1.5-0.3c-0.3,0-0.6,0.2-0.6,0.5c0,0.1,0,0.2,0,0.3c0.2,0.5,0.6,0.9,1,1.3
		c0.3,0.2,0.6,0.5,0.9,0.8c0.1,0.2,0.2,0.4,0.3,0.6c0.1,0.1,0.1,0.2,0.2,0.3S133.1,98.8,133.2,98.8z"/>
	<path class="st6" d="M146,96.6c0.2,0,0.4,0.2,0.4,0.3c-0.1,0.1-0.2-0.1-0.3,0.1s0.1,0.2,0.1,0.3s0.2,0.3,0.3,0.4
		c0.1,0.2,0.1,0.4,0,0.6c0,0.1-0.1,0.1-0.1,0.1c-0.1,0-0.1,0-0.1-0.1l0,0c0,0,0-0.3-0.2-0.2s-0.1,0.2-0.1,0.3
		c0.1,0.4-0.1,0.7-0.5,0.9c-0.4,0.2-0.5,0.6-0.4,1c0,0.2,0.1,0.3,0.1,0.5c0,0.1,0,0.3-0.2,0.3c-0.1,0.1-0.2,0-0.4-0.1
		c-0.1-0.1-0.3-0.1-0.5,0c0,0,0,0-0.1,0.1v0.1c-0.1,0.5-0.4,1-0.8,1.4c-0.1,0.1-0.1,0.2-0.2,0.3c-0.1,0.3-0.1,0.4,0.2,0.5
		c0.1,0,0.2,0.1,0.1,0.2c0,0,0,0,0,0.1c-0.1,0.3-0.3,0.5-0.5,0.7c-0.3,0.1-0.5,0.4-0.6,0.7c-0.2,0.5-0.6,1-1.2,1.2
		c-0.5,0.3-1,0.4-1.5,0.3c-0.3,0-0.6-0.1-0.8-0.2c-0.1-0.1-0.2,0-0.1,0.1c0.4,0.2,0.8,0.3,1.2,0.3c0.3,0,0.6,0,0.8-0.1
		c0.4-0.1,0.8-0.3,1.1-0.5c0.3-0.2,0.5-0.5,0.7-0.9c0.1-0.3,0.4-0.5,0.6-0.7c0.3-0.2,0.4-0.4,0.6-0.7c0.1-0.2,0.1-0.4-0.1-0.5h-0.1
		c-0.2-0.1-0.2-0.2-0.1-0.4c0.1-0.2,0.2-0.4,0.4-0.6c0.2-0.3,0.4-0.6,0.5-1c0-0.2,0.2-0.2,0.2-0.1c0.1,0.2,0.4,0.2,0.5,0.1
		c0.2-0.1,0.3-0.4,0.3-0.6c-0.1-0.3-0.1-0.5-0.1-0.8c0-0.2,0.1-0.4,0.3-0.5c0.3-0.1,0.4-0.3,0.5-0.6c0-0.1,0-0.1,0.1-0.2
		c0,0,0.1,0,0.1,0c0.1,0,0.2-0.2,0.3-0.2c0.1-0.6,0.1-1.1-0.2-1.7C146.4,96.6,146.3,96.5,146,96.6C145.9,96.4,146,96.5,146,96.6z"/>
	<path class="st7" d="M145.3,95.2c-0.3,0.2-0.7,0.4-0.9,0.7c-0.4,0.4-0.8,0.8-1.1,1.3c0.1,0.1,0.2,0,0.2-0.1s0.2-0.3,0.3-0.5
		c-0.1,0.1-0.2,0.2-0.2,0.4c-0.1,0.1-0.1,0.2-0.1,0.3c0,0.1-0.1,0.2,0,0.3s0.2-0.1,0.2-0.2c0.2-0.2,0.6-0.4,0.8-0.6
		c-0.1,0.1-0.3,0.2-0.4,0.3c-0.6,0.4-0.9,1.2-0.8,1.9c0.1,0.1,0.3,0,0.4,0c0.3-0.3,0.5-0.6,0.6-1c0.2-0.5,0.5-0.9,0.8-1.4l0.4-0.5
		c0.1-0.1,0.1-0.2,0-0.3c0-0.1,0-0.1,0-0.2c0-0.1,0.1-0.3-0.1-0.4l0,0C145.2,95.4,145.4,95.2,145.3,95.2z"/>
	<path class="st8" d="M139.7,94.4c0.3-0.1,0.5-0.1,0.8,0c0.2,0.1,0.5,0,0.6-0.1c0.2-0.1,0.4-0.1,0.5,0c0.1,0,0.1,0,0.2,0
		c0.2,0.1,0.4,0.2,0.5,0.3c0.3,0.2,0.4,0.6,0.7,0.7c0.2,0.1,0.4,0.4,0.3,0.6v0.2c0.3-0.2,0.4-0.5,0.2-0.7c-0.3-0.6-0.7-1-1.2-1.3
		c-0.4-0.2-0.8-0.2-1.2-0.1l-0.5,0.1c-0.3,0.1-0.7,0.2-1,0.1c-0.3-0.1-0.6,0-0.9,0.1c0.1,0.1,0.5-0.2,0.3,0.3c0.1,0.1,0.3,0.1,0.4,0
		l0,0C139.6,94.5,139.6,94.5,139.7,94.4z"/>
	<path class="st9" d="M138.8,106.4c0-0.1,0-0.1,0.1-0.1c0.5,0.2,1,0.3,1.6,0.3c0.1,0,0.1,0,0.2-0.1c0.1-0.1,0.3-0.2,0.5-0.2
		c0.1,0,0.1,0,0.2-0.1c-0.2,0.1-0.4,0.2-0.6,0.2c-0.4,0.1-0.8,0.1-1.2,0c-0.7-0.2-1.4-0.3-2.1-0.4h-0.6c0.1,0.1,0.2,0.2,0.3,0.3
		c0.1,0.1,0.1,0.2,0,0.3c0,0-0.1,0.1-0.1,0.1c-0.3,0-0.5,0-0.8-0.1c-0.2-0.1-0.5-0.2-0.8-0.3c-0.2-0.1-0.3,0-0.4,0.1c0,0,0,0,0,0
		l0,0c-0.2,0.4-0.7,0.6-1.1,0.5l-0.2,0.1c0,0.2,0.2,0.1,0.3,0.1c0.4,0,0.8-0.2,1.1-0.6c0.1-0.2,0.2-0.1,0.4-0.1
		c0.4,0.2,0.9,0.3,1.3,0.3c0.1,0,0.3,0,0.4-0.1c0.1,0,0.2-0.2,0.2-0.3l0,0c0-0.2,0.1-0.2,0.2-0.2c0.3,0,0.6,0.1,0.9,0.1
		C138.6,106.5,138.7,106.5,138.8,106.4z"/>
	<path class="st10" d="M143.5,99.9c-0.2-0.2-0.3-0.5-0.3-0.8c0-0.5,0.1-1,0.3-1.4c0.2-0.4,0.7-0.6,1-1c-0.4,0.3-0.8,0.4-1.1,0.8
		c0-0.4,0.2-0.8,0.4-1.1c-0.1,0-0.2,0.2-0.2,0.2c-0.1,0.1-0.1,0.2-0.2,0.2c-0.1,0.1-0.1,0.2-0.2,0.2l-0.2,0.3
		c-0.1,0.2-0.2,0.4-0.1,0.7c0.2,0.7,0.1,1.4-0.1,2.1C143.1,100.1,143.4,100.1,143.5,99.9z"/>
	<path class="st11" d="M142.8,101.8c0,0-0.1-0.1,0-0.1s0.1-0.1,0.2-0.2s0-0.3,0.1-0.3s0.1-0.1,0-0.1c-0.1-0.1-0.1-0.1-0.2-0.1
		c-0.1,0-0.1,0-0.1,0.1c0,0,0,0.1,0,0.1l0,0c0,0-0.3-0.1-0.4,0s0.1,0.2,0.1,0.3s0.1,0.1,0.1,0.2s-0.4-0.1-0.2,0.2
		c-0.6-0.1-0.6-0.1-0.5,0.3c-0.1,0.1-0.2-0.1-0.2,0.1c0,0.1,0,0.2,0,0.3c0.1,0.1,0.2,0.1,0.2,0c0.2-0.2,0.5-0.4,0.8-0.5
		C142.8,101.9,142.8,101.8,142.8,101.8z"/>
	<path class="st12" d="M143.2,99.1c0.1,0,0.2,0,0.3-0.1c0.2-0.2,0.4-0.4,0.5-0.7c0.2-0.5,0.4-0.9,0.6-1.3c0.2-0.3,0.4-0.5,0.6-0.8
		c0.1-0.2,0.2-0.4-0.1-0.6c0.1,0,0.1,0,0.2,0c0-0.1,0-0.2,0-0.3c-0.1-0.1-0.2,0-0.2,0s0.2-0.1,0.2-0.2s0.3-0.1,0.3,0.1
		c0.1,0.2,0.2,0.5,0.1,0.8c-0.1,0.4-0.3,0.7-0.6,1l0,0c-0.4,0.4-0.7,1-0.9,1.5c-0.1,0.5-0.4,1-0.8,1.3
		C143.3,99.7,143.1,99.4,143.2,99.1z"/>
	<path class="st13" d="M120.8,123c-0.2,0.1-0.3,0.2-0.2,0.4s0,0.1,0,0.2c0,0.1,0,0.2,0,0.2c0,0.1,0.2,0.2,0.2,0.2s0.2-0.2,0.1-0.3
		C120.8,123.5,120.8,123.2,120.8,123z"/>
	<path class="st14" d="M152.6,115.1h-0.3v0.1L152.6,115.1L152.6,115.1z"/>
	<path class="st15" d="M138,94.3L138,94.3c0.1,0,0.2,0,0.4,0C138.3,94.3,138.1,94.3,138,94.3z"/>
	<path class="st16" d="M118.5,130.2c0.1-0.1,0.2-0.2,0.2-0.4C118.6,130,118.5,130.1,118.5,130.2L118.5,130.2z"/>
	<path class="st17" d="M129.8,124.1c-0.5,0.2-0.9,0.6-1.1,1.2c0.2,0,0.2-0.2,0.4-0.3C129.3,124.7,129.6,124.4,129.8,124.1z"/>
	<path class="st18" d="M131.3,120.8c0.2-0.1,0.3-0.3,0.4-0.5c0.1-0.2,0-0.4-0.1-0.5c-0.2-0.2-0.4-0.5-0.6-0.8c0,0,0-0.1,0-0.1
		c0.1-0.3,0-0.5-0.2-0.7c-0.2-0.1-0.3-0.3-0.4-0.6c0-0.3-0.2-0.5-0.4-0.6c-0.1-0.1-0.3-0.2-0.3-0.4c-0.1-0.1-0.2-0.2-0.3,0
		s-0.1,0.2-0.3,0.1s-0.2,0-0.2,0.1v0.2c0,0.3-0.2,0.5-0.4,0.5c0,0,0,0,0,0l0,0c-0.3,0-0.3,0.4-0.5,0.6l0,0c0.3,0.2,0,0.3-0.1,0.4
		c0,0.1,0,0.2,0,0.2c0.1,0.2,0.2,0.5,0.2,0.7c0.1,0.3,0.2,0.7,0.7,0.8c0.1,0,0.1,0.2,0.1,0.3c-0.1,0.2,0.1,0.4,0.2,0.5l0,0
		c0.1,0,0.2,0.1,0.3,0.2c0.5,0.5,1.4,0.5,1.9-0.1L131.3,120.8z"/>
	<path class="st17" d="M138,106.7c0.5,0.6,1.1,1,1.8,1.2c1,0.2,1.8,0.9,2.1,1.9c0,0.1,0.1,0.1,0.1,0.2h0.1c-0.2-0.8-0.6-1.5-1.2-2
		c-0.2-0.1-0.3-0.2-0.6-0.2C139.5,107.6,138.7,107.2,138,106.7z"/>
	<path class="st19" d="M136.8,100.8c0.2-0.2,0.4-0.4,0.6-0.6c0.3-0.4,0.4-0.8,0.4-1.3c0-0.1,0-0.2,0-0.3c0-0.3-0.2-0.4-0.4-0.2
		s-0.3,0.2-0.5,0.2c-0.1,0-0.1,0-0.2,0c-0.3,0-0.4,0.1-0.4,0.4c0,0.6,0.1,1.2,0.3,1.8C136.6,101,136.8,100.8,136.8,100.8z"/>
	<path class="st18" d="M139.6,101.1c-0.1-0.1-0.1-0.2-0.1-0.3c0.1-0.2,0.1-0.5,0-0.7c-0.4-1-0.9-1.8-1.7-2.6c-0.1,0-0.1-0.1-0.2,0
		c0.2,0.3,0.4,0.5,0.6,0.8c0.4,0.6,0.7,1.2,0.9,1.8c0.1,0.4,0.1,0.7,0.2,1.1c0,0.3,0,0.6-0.1,0.8c-0.1,0.7-0.2,1.3-0.3,2
		c0,0.3,0.2,0.7,0.6,0.7l0,0c0.2,0.1,0.5,0.1,0.7,0h-0.5c-0.2,0-0.4-0.1-0.4-0.3c0,0,0-0.1,0.1-0.1c0.5,0.1,1,0.1,1.5-0.1
		c0.3,0,0.7-0.1,1-0.3c-0.3,0-0.6,0.1-0.9,0.2c-0.3,0.1-0.7,0.1-1,0.1c-0.3,0-0.5-0.2-0.5-0.4c-0.1-0.4-0.1-0.8,0-1.2
		c0-0.4,0.1-0.8,0.1-1.2c0-0.2,0.1-0.2,0.2-0.1L139.6,101.1z"/>
	<path class="st6" d="M139.4,100.2c0,0.2,0.1,0.4,0.1,0.6c0.1,0,0.1,0.2,0.2,0.2c0,0.1,0.1,0.1,0.1,0.1c0,0,0.1,0,0.1-0.1
		c0,0,0,0,0,0c0-0.1-0.1-0.1-0.1-0.1c-0.1-0.1-0.2-0.3-0.1-0.5c0-0.2,0-0.3-0.1-0.4c-0.4-0.8-0.9-1.6-1.5-2.4
		c-0.3-0.3-0.7-0.5-1.1-0.3c-0.9,0.2-1.8,0.6-2.6,1.2c-0.1,0.1-0.2,0.1-0.3,0.1c-0.1,0-0.2,0-0.3,0c-0.2,0.1-0.4,0.1-0.4,0.4
		c0,0.2,0,0.3-0.1,0.5c0,0.1,0,0.1,0,0.2h0.1v-0.1c0.2,0,0.2-0.2,0.2-0.4c0-0.3,0.2-0.5,0.5-0.4c0.1,0,0.2,0,0.3-0.1
		c0.7-0.5,1.5-0.9,2.3-1.2c0.3-0.1,0.6-0.1,0.9-0.1c0.1,0,0.1,0.1,0.1,0.1c0.1,0.1,0.2,0.2,0.3,0.3c0.6,0.6,1,1.3,1.3,2.1
		C139.4,100,139.4,100.1,139.4,100.2z"/>
	<path class="st20" d="M140.2,101.1c0-0.7-0.2-1.3-0.5-1.9c-0.3-0.4-0.6-0.8-0.9-1.2c-0.1-0.2-0.2-0.3-0.4-0.5
		c0.1,0.3,0.3,0.6,0.5,0.8c0.2,0.2,0.4,0.5,0.6,0.7c0.3,0.5,0.5,1.1,0.5,1.7v0.3c0,0.7,0,1.3-0.1,2c-0.1,0.3,0.1,0.6,0.4,0.7
		c0,0,0,0,0,0c0.1,0,0.2,0,0.2,0c0.4,0,0.7-0.1,1.1-0.2c-0.2,0-0.4,0-0.6,0.1c-0.2,0-0.4,0-0.6,0c-0.2,0-0.3-0.2-0.3-0.4
		c0-0.2,0-0.4,0-0.6c0.1-0.5,0.1-0.9,0.1-1.4C140.1,101.2,140.2,101.2,140.2,101.1z"/>
	<path class="st19" d="M141.5,99c0.1,0.1,0.1-0.1,0.2-0.1c0.2-0.1,0.3-0.2,0.5-0.2c0.2,0,0.4-0.4,0.2-0.6c0-0.1-0.1-0.1-0.1-0.2
		c0-0.1-0.1-0.2-0.2-0.1c0,0,0,0,0,0h-0.1l-0.3,0.2c-0.1,0.1-0.2,0.2,0,0.4s0,0.3-0.1,0.4S141.5,98.8,141.5,99z"/>
	<path class="st21" d="M141.4,99.1c0,0-0.1,0.1,0,0.1c0,0,0.1,0,0.1,0c0,0,0,0,0,0l0,0c0,0,0-0.1,0-0.1
		C141.5,99.1,141.4,99,141.4,99.1z"/>
	<path class="st22" d="M131.6,96.5c0.3,0.2,0.5,0.4,0.8,0.6c0.1,0,0.1,0.1,0.2,0c0.2-0.2,0.4-0.4,0.6-0.6c0,0,0-0.1,0-0.1
		c0,0,0,0,0,0l0,0c-0.3-0.2-0.6-0.4-1-0.6C132,96,131.7,96.1,131.6,96.5z"/>
	<path class="st23" d="M131.6,96.5c0.1-0.2,0.3-0.4,0.6-0.6c0,0,0-0.1,0-0.1c0,0,0,0,0,0c-0.4-0.2-0.7-0.3-1.1-0.5
		c-0.1,0-0.2,0-0.3,0.1c-0.1,0.1,0,0.2,0,0.2C131.1,96,131.3,96.2,131.6,96.5z"/>
	<path class="st24" d="M137.1,99.2c0.1,0.1,0.2,0.1,0.3,0c0,0,0,0,0,0l0,0c0.1-0.1,0-0.1,0-0.2c-0.1-0.1-0.2-0.1-0.3,0
		C137,99,137,99.1,137.1,99.2z"/>
	<path class="st25" d="M137.2,98.7c0.1,0,0.3,0,0.4,0.1c0.1,0.1,0.1,0.1,0.1,0c0,0,0-0.1,0-0.1c0-0.1-0.1,0-0.1,0L137.2,98.7z"/>
	<path class="st26" d="M136.9,100L136.9,100c0.1,0.1,0.2,0.2,0.3,0.2l0,0C137.1,100.1,137,100,136.9,100z"/>
	<path class="st27" d="M137,99.9c0-0.1-0.1-0.3-0.2-0.3C136.8,99.7,136.9,99.9,137,99.9z"/>
	<path class="st28" d="M136.9,100.3c0,0.1,0,0.2,0,0.3C137,100.5,137,100.4,136.9,100.3z"/>
	<path class="st4" d="M139.4,100.2c0-0.4-0.1-0.7-0.4-1c-0.3-0.5-0.7-1-1.1-1.5l-0.1-0.2c0-0.1-0.1,0-0.1,0
		C138.5,98.3,139.1,99.2,139.4,100.2z"/>
	<path class="st29" d="M125.4,114c0,1.6-0.2,4.8-1.3,6.3c-1.6,2.4-5.6,3.6-7.3,4c1.4-1.3,2.2-2.5,2.1-3.5c0-0.3-0.7,0.6-1.7,0.6
		c0.4-0.6,0.6-1.3,0.6-2.1c0.2-1,0.6-2,1.2-2.9c1.6-1.6,3.6-2.6,5.8-3L125.4,114z"/>
	<path class="st30" d="M125.4,114c0,1.5-0.4,3-1.2,4.2c-0.9,1-3.7,1.8-5,2.7c0.5-0.8,0.8-1.7,0.9-2.6c0-0.6,0.1-1.2,0.4-1.8
		c0.7-0.9,1.7-1.7,2.8-2.3c0.5-0.3,1-0.6,1.6-0.8L125.4,114z"/>
	<path class="st31" d="M125.4,114c-0.1,0.8-0.7,3.1-1.5,3.6s-1.4,0.2-2.7,0.9c0.1-0.5,1-1.1,0.8-1.7c-0.3,0.2-0.5,0.4-0.9,0.4
		c0.4-0.4,0.5-1,0.9-1.5c0.5-0.6,1.2-1,1.9-1.4c0.4-0.2,0.7-0.5,1-0.8L125.4,114z"/>
	<path class="st32" d="M124.9,114.3c1.1,0.9,2.2,1.4,2.4,1l-0.4,0.6c-0.2,0.3-1.3-0.2-2.4-1s-1.8-1.8-1.5-2.2l0.5-0.6
		C123.1,112.4,123.8,113.4,124.9,114.3z"/>
	<path class="st32" d="M124.4,114.9c0.8,0.7,1.7,1,1.8,0.8l-0.3,0.4c-0.2,0.2-1-0.1-1.8-0.8s-1.3-1.4-1.2-1.6l0.3-0.4
		C123,113.5,123.5,114.3,124.4,114.9z"/>
	<path class="st33" d="M132.8,107.2c-0.8,2.3-2,4.4-3.5,6.3l-1.6,2c-0.9-0.3-1.8-0.8-2.7-1.4c-0.7-0.7-1.4-1.5-1.9-2.3
		c0,0,0.6-0.9,1.6-2c1.7-2.1,2.5-3.1,3.9-3.9c0.7,0.4,1.4,0.8,2.2,1C131.5,106.9,132.2,107,132.8,107.2z"/>
	<path class="st32" d="M125.5,113.5c1.3,1,2.6,1.6,2.8,1.2l-0.5,0.7c-0.3,0.3-1.6-0.2-2.8-1.2s-2.1-2.2-1.8-2.5l0.5-0.7
		C123.4,111.3,124.2,112.5,125.5,113.5z"/>
	<polygon class="st33" points="123.1,111.8 123.2,111.8 123.2,111.8 	"/>
	<path class="st34" d="M123.7,113.1c-0.1,0.2-0.3,0.4-0.4,0.6l-0.1-0.2c0-0.1,0-0.1,0-0.2l-0.1,0.1c-0.2-0.3-0.3-0.6-0.2-0.8
		l0.3-0.4l0.1,0.1C123.4,112.6,123.5,112.9,123.7,113.1z"/>
	<path class="st34" d="M123.2,113.5c0,0.1,0,0.1,0.1,0.2c-0.1,0.2-0.2,0.3-0.3,0.5c-0.1-0.2-0.2-0.4-0.1-0.5L123.2,113.5l0-0.2
		C123.2,113.4,123.2,113.4,123.2,113.5z"/>
	<path class="st35" d="M125,111.4l-0.7,0.9c-0.4-0.5-0.7-1-0.6-1.3c0.3-0.3,0.6-0.8,1-1.3c1.7-2.1,2.5-3.1,3.9-3.9
		c0.3,0.1,0.6,0.3,0.9,0.5C127.9,107.5,126.7,109.3,125,111.4z"/>
	<path class="st34" d="M124.3,112.3c-0.2,0.2-0.3,0.4-0.5,0.7c-0.2-0.2-0.3-0.4-0.5-0.7l-0.1-0.1c-0.1-0.1-0.1-0.3-0.1-0.4l0,0v-0.1
		l0.5-0.7v0.1C123.7,111.5,123.9,112,124.3,112.3z"/>
	<path class="st36" d="M129,103.7c-0.2-0.2-0.2-0.5,0.1-0.6c0.3-0.1,0.6-0.2,0.9-0.2c0.6-0.1,1.2-0.1,1.9-0.1h0.8
		c0.1,0,0.1,0,0.2,0.1c0.2,0.2,0.4,0.4,0.7,0.5c0.1,0,0.2,0.1,0.3,0.1c0.2,0.1,0.3,0.2,0.4,0.4c0,0.3,0,0.5,0.1,0.8
		c0.1,0.4,0.1,0.7-0.4,0.9v0.1c0,0.1,0.3,0,0.4,0.1c-0.1,0.1-0.2,0.2,0,0.3s0.1,0.3-0.1,0.4s-0.4,0-0.5,0l0,0c-0.2,0-0.3,0-0.3-0.2
		s-0.1-0.3-0.2-0.3c-0.1,0-0.1,0-0.2-0.1l0,0c-0.2,0-0.4-0.1-0.5-0.2c-0.1,0-0.1-0.1-0.1-0.2c0-0.1-0.1-0.2-0.2-0.2l0,0
		c-0.5-0.1-1-0.3-1.4-0.5C130.1,104.5,129.5,104.1,129,103.7z"/>
</g>
<path class="st37" d="M155.8,61.2c-3.3,0.7-3.2,6-0.9,6.5c2.6,0.5,5,0.1,5.4-1.6S159.5,60.5,155.8,61.2z"/>
</svg>
