<?xml version="1.0" encoding="utf-8"?>
<!-- Generator: Adobe Illustrator 22.1.0, SVG Export Plug-In . SVG Version: 6.00 Build 0)  -->
<svg version="1.1" id="Layer_1" xmlns="http://www.w3.org/2000/svg" xmlns:xlink="http://www.w3.org/1999/xlink" x="0px" y="0px"
	 viewBox="0 0 251 151" style="enable-background:new 0 0 251 151;" xml:space="preserve">
<style type="text/css">
	.st0{opacity:0.15;}
	.st1{opacity:0.2;}
	.st2{fill:#F4CF8E;}
	.st3{opacity:0.2;fill:#F4CF8E;enable-background:new    ;}
	.st4{opacity:0.2;fill:#F9C862;enable-background:new    ;}
</style>
<title>Kaspar-base</title>
<g class="st0">
	
		<image style="overflow:visible;enable-background:new    ;" width="284" height="247" xlink:href="F9544066016EF661.png"  transform="matrix(0.59 0 0 0.59 25.48 9.6)">
	</image>
</g>
<g class="st1">
	<polygon class="st2" points="77.7,35.3 75.5,38.5 76.1,42.4 72.7,44.3 71.5,48.1 67.6,48.4 65,51.2 61.3,49.8 57.7,51.2 55.1,48.4 
		51.2,48.1 50,44.3 46.6,42.4 47.2,38.5 45,35.3 47.2,32.1 46.6,28.2 50,26.3 51.2,22.5 55.1,22.2 57.7,19.4 61.3,20.8 65,19.4 
		67.6,22.2 71.5,22.5 72.7,26.3 76.1,28.2 75.5,32.1 	"/>
</g>
<circle class="st3" cx="61.3" cy="35.3" r="13.8"/>
<circle class="st4" cx="61.3" cy="35.3" r="10.6"/>
</svg>
