<?xml version="1.0" encoding="utf-8"?>
<!-- Generator: Adobe Illustrator 22.1.0, SVG Export Plug-In . SVG Version: 6.00 Build 0)  -->
<svg version="1.1" id="Layer_1" xmlns="http://www.w3.org/2000/svg" xmlns:xlink="http://www.w3.org/1999/xlink" x="0px" y="0px"
	 viewBox="0 0 251 151" style="enable-background:new 0 0 251 151;" xml:space="preserve">
<style type="text/css">
	.st0{opacity:6.000000e-02;fill:url(#SVGID_1_);enable-background:new    ;}
	.st1{opacity:0.2;}
	.st2{fill:#F4CF8E;}
	.st3{opacity:0.2;fill:#F4CF8E;enable-background:new    ;}
	.st4{opacity:0.2;fill:#F9C862;enable-background:new    ;}
</style>
<radialGradient id="SVGID_1_" cx="110.9821" cy="87.661" r="77.973" gradientTransform="matrix(0.7138 0.6471 -0.2547 0.2809 43.5201 -20.1744)" gradientUnits="userSpaceOnUse">
	<stop  offset="0" style="stop-color:#F9C862"/>
	<stop  offset="0.4916" style="stop-color:#F9C862;stop-opacity:0.9095"/>
	<stop  offset="1" style="stop-color:#F8C762;stop-opacity:0"/>
</radialGradient>
<polygon class="st0" points="134,154.5 19.2,50.5 66.8,-2 181.6,102.1 "/>
<title>Kaspar-base</title>
<g class="st1">
	<polygon class="st2" points="77.7,35.3 75.5,38.5 76.1,42.4 72.7,44.3 71.5,48.1 67.6,48.4 65,51.2 61.3,49.8 57.7,51.2 55.1,48.4 
		51.2,48.1 50,44.3 46.6,42.4 47.2,38.5 45,35.3 47.2,32.1 46.6,28.2 50,26.3 51.2,22.5 55.1,22.2 57.7,19.4 61.3,20.8 65,19.4 
		67.6,22.2 71.5,22.5 72.7,26.3 76.1,28.2 75.5,32.1 	"/>
</g>
<circle class="st3" cx="61.3" cy="35.3" r="13.8"/>
<circle class="st4" cx="61.3" cy="35.3" r="10.6"/>
</svg>
