<svg id="Layer_1" data-name="Layer 1" xmlns="http://www.w3.org/2000/svg" xmlns:xlink="http://www.w3.org/1999/xlink" viewBox="0 0 251 151"><defs><style>.cls-1{opacity: 0}.cls-2,.cls-3{opacity:0.1;}.cls-2,.cls-3,.cls-8,.cls-9{isolation:isolate;}.cls-2{fill:url(#radial-gradient);}.cls-3{fill:url(#radial-gradient-2);}.cls-4{fill:#e1f1f9;}.cls-5{opacity:0.2;}.cls-6{fill:#e1dfe0;}.cls-7{fill:#768589;}.cls-8,.cls-9{opacity:0.05;}.cls-8{fill:url(#linear-gradient);}.cls-9{fill:url(#linear-gradient-2);}</style><radialGradient id="radial-gradient" cx="-1379.68" cy="-557.39" r="71.68" gradientTransform="matrix(0.84, 0.21, -0.14, 0.54, 1217.27, 683.23)" gradientUnits="userSpaceOnUse"><stop offset="0" stop-color="#fff" stop-opacity="0.5"/><stop offset="0.4" stop-color="#fff" stop-opacity="0.26"/><stop offset="1" stop-color="#fff" stop-opacity="0"/></radialGradient><radialGradient id="radial-gradient-2" cx="-1404.35" cy="-107.88" r="71.77" gradientTransform="matrix(0.59, 0.38, -0.3, 0.47, 927.85, 675.72)" xlink:href="#radial-gradient"/><linearGradient id="linear-gradient" x1="136.29" y1="-355.36" x2="71.91" y2="-416.87" gradientTransform="translate(227.5 -287.88) rotate(180)" gradientUnits="userSpaceOnUse"><stop offset="0" stop-color="#fff"/><stop offset="1" stop-color="#fff" stop-opacity="0"/></linearGradient><linearGradient id="linear-gradient-2" x1="135.69" y1="-323.04" x2="2.7" y2="-394.87" xlink:href="#linear-gradient"/></defs><title>Kristo</title><rect class="cls-1" width="251" height="151"/><path class="cls-2" d="M211.4,73.28l-18.2,72.8a11.64,11.64,0,0,1-14,8.4l-119.5-30a11.64,11.64,0,0,1-8.4-14l18.3-72.8a11.64,11.64,0,0,1,14-8.4l119.5,30A11.48,11.48,0,0,1,211.4,73.28Z"/><path class="cls-3" d="M199.4,95.08,158,160.18a10.59,10.59,0,0,1-14.5,3.2l-82.1-52.2a10.59,10.59,0,0,1-3.2-14.5l41.4-65.1a10.59,10.59,0,0,1,14.5-3.2l82.1,52.3A10.4,10.4,0,0,1,199.4,95.08Z"/><polygon class="cls-4" points="226.3 97.98 221.1 98.58 220.8 104.78 219.7 98.58 214.4 97.98 219.7 97.18 219.9 91.38 220.9 97.18 226.3 97.98"/><polygon class="cls-4" points="145.8 13.08 141 13.68 140.8 19.28 139.8 13.68 134.9 13.08 139.8 12.38 139.9 7.08 140.9 12.38 145.8 13.08"/><polygon class="cls-4" points="48.2 111.08 54.5 109.88 54.4 102.48 56.1 109.78 62.6 110.18 56.3 111.48 56.5 118.58 54.8 111.58 48.2 111.08"/><polygon class="cls-4" points="16 61.68 19.1 61.38 19.3 57.78 19.9 61.38 23.1 61.68 20 62.18 19.9 65.48 19.2 62.18 16 61.68"/><g class="cls-5"><path class="cls-6" d="M74,24.38H65.9c-.2,1.5-.1,3-.2,4.6,2.7.2,5.3.1,8,.1C73.8,27.48,73.9,26,74,24.38Zm2.9-1V19a25.48,25.48,0,0,0-7.3,0c0,.3-.1.6-.1.9v3.5Zm-18.8,1.1a36.21,36.21,0,0,0,.6,4.6H65c0-1.5.1-3,.2-4.6Zm4-1.1q3.3.15,6.6,0v-4.6H62.1Zm19.7,1H74.9a13.75,13.75,0,0,0-.4,4.5,7.62,7.62,0,0,0,3,.2h3.2C81.1,27.48,81.4,26.08,81.8,24.38Zm-12.4,5.7c-2.2-.2-4.3,0-6.6-.1-.2,1.7.4,3.1.5,4.5a20.16,20.16,0,0,0,6.1.1Zm8.2,0c-2.5,0-4.8-.1-7.2,0-.1,1.6-.2,3-.3,4.4a19,19,0,0,0,5.9.1C76.5,33.08,77,31.68,77.6,30.08ZM83,18.78H77.7v4.6h6.6A10.22,10.22,0,0,0,83,18.78Zm-21.8,0H56.5a10.78,10.78,0,0,0-1.3,4.6q3,.15,6,0Zm1.2,15.9c.2-1.6-.3-3-.5-4.6a55.64,55.64,0,0,0-5.8-.1,12.78,12.78,0,0,0,2.8,4.7Zm14.3,0h4a13,13,0,0,0,2.7-4.4,11.87,11.87,0,0,0-5.1-.2C77.8,31.58,77.3,33,76.7,34.68ZM66.3,17.78c.2-1.1.4-2.3.5-3.4a10.36,10.36,0,0,0-4.5-.2c-.8,1.1-1.5,2.3-2.4,3.6Zm10.8-3.6H72.9a21.63,21.63,0,0,0,0,3.6h6.3C78.4,16.38,77.7,15.28,77.1,14.18ZM66.3,35.68c.4,1.3.9,2.5,1.3,3.7h3.1c.8-1.1,1.6-2.3,2.5-3.7Zm4.3-21.6H67.8c-.6,1.2-.3,2.4-.7,3.7h4.8a6.69,6.69,0,0,0-.1-3.7Zm8.8,21.6H76.6c-3.1,0-2.2-.5-3.9,2-.4.5-.7,1.1-1.2,1.8A14,14,0,0,0,79.4,35.68Zm-14,0H60a12.79,12.79,0,0,0,6.7,3.5A36.16,36.16,0,0,0,65.4,35.68Zm19.1-11.2H82.6c-.5,1.4-.7,3-1.1,4.6h2.2A12.06,12.06,0,0,0,84.5,24.48Zm-26.8,4.6a24,24,0,0,0-.5-4.6H55.1a12,12,0,0,0,.7,4.6Zm21.7-15.2q-.6.15-1.5.3c.8,1.3,1.4,2.4,2.1,3.6h2.5A11.65,11.65,0,0,0,79.4,13.88Zm-9.3-3.7V13H74C72.7,12.08,72.1,10.28,70.1,10.18Zm-10,3.7a11.93,11.93,0,0,0-3,3.7c1.5.5,1.8.4,2.6-.8.5-.7.9-1.5,1.4-2.2a.76.76,0,0,1,.1-.4A3.54,3.54,0,0,1,60.1,13.88Zm9.1-3.7c-1.8.3-2.4,1.7-3.6,2.9h3.6Zm-7.8,2.7c2.1.8,3.7.1,5.3-2.3A12.1,12.1,0,0,0,61.4,12.88Zm11.4-2A12.66,12.66,0,0,0,75.3,13a11.84,11.84,0,0,0,2.7.2c0-.1.1-.2.1-.3A8.85,8.85,0,0,0,72.8,10.88Z"/><rect class="cls-6" x="69.3" y="-6.62" width="0.9" height="19.6"/></g><polygon class="cls-7" points="78.1 34.58 75 34.98 74.8 38.58 74.2 34.98 71 34.58 74.2 34.18 74.3 30.68 74.9 34.18 78.1 34.58"/><polygon class="cls-7" points="62.1 18.68 56.6 19.28 56.3 25.88 55.2 19.28 49.5 18.68 55.1 17.88 55.3 11.58 56.4 17.88 62.1 18.68"/><polygon class="cls-8" points="212.5 150.78 80.7 34.68 75.9 38.18 143.9 150.38 212.5 150.78"/><polygon class="cls-9" points="82.5 32.08 243.5 133.08 243.5 101.08 83.7 29.08 82.5 32.08"/></svg>
