<?xml version="1.0" encoding="utf-8"?>
<!-- Generator: Adobe Illustrator 22.1.0, SVG Export Plug-In . SVG Version: 6.00 Build 0)  -->
<svg version="1.1" id="Layer_1" xmlns="http://www.w3.org/2000/svg" xmlns:xlink="http://www.w3.org/1999/xlink" x="0px" y="0px"
	 viewBox="0 0 251 151" style="enable-background:new 0 0 251 151;" xml:space="preserve">
<style type="text/css">
	.st0{fill-opacity:0;}
	.st1{opacity:0.1;fill:url(#SVGID_1_);enable-background:new    ;}
	.st2{opacity:0.1;fill:url(#SVGID_2_);enable-background:new    ;}
	.st3{opacity:0.2;}
	.st4{fill:#E1DFE0;}
	.st5{fill:#768589;}
	.st6{opacity:5.000000e-02;fill:url(#SVGID_3_);enable-background:new    ;}
	.st7{opacity:5.000000e-02;fill:url(#SVGID_4_);enable-background:new    ;}
</style>
<title>Kristo</title>
<rect class="st0" width="251" height="151"/>
<radialGradient id="SVGID_1_" cx="-1178.9906" cy="380.8248" r="71.68" gradientTransform="matrix(0.84 0.21 0.14 -0.54 1073.41 545.74)" gradientUnits="userSpaceOnUse">
	<stop  offset="0" style="stop-color:#FFFFFF;stop-opacity:0.5"/>
	<stop  offset="0.4" style="stop-color:#FFFFFF;stop-opacity:0.26"/>
	<stop  offset="1" style="stop-color:#FFFFFF;stop-opacity:0"/>
</radialGradient>
<path class="st1" d="M211.4,73.3l-18.2,72.8c-1.6,6.2-7.8,9.9-14,8.4l-119.5-30c-6.2-1.6-9.9-7.8-8.4-14l18.3-72.8
	c1.6-6.2,7.8-9.9,14-8.4l119.5,30C209.2,60.8,213,67.1,211.4,73.3C211.4,73.2,211.4,73.3,211.4,73.3z"/>
<radialGradient id="SVGID_2_" cx="-901.1224" cy="201.5828" r="71.7507" gradientTransform="matrix(0.59 0.38 0.3 -0.47 602.86 528.55)" gradientUnits="userSpaceOnUse">
	<stop  offset="0" style="stop-color:#FFFFFF;stop-opacity:0.5"/>
	<stop  offset="0.4" style="stop-color:#FFFFFF;stop-opacity:0.26"/>
	<stop  offset="1" style="stop-color:#FFFFFF;stop-opacity:0"/>
</radialGradient>
<path class="st2" d="M199.4,95.1L158,160.2c-3.2,4.8-9.6,6.3-14.5,3.2l-82.1-52.2c-4.8-3.2-6.3-9.6-3.2-14.5l41.4-65.1
	c3.2-4.8,9.6-6.3,14.5-3.2l82.1,52.3C201.1,83.7,202.5,90.2,199.4,95.1C199.4,95,199.4,95.1,199.4,95.1z"/>
<g class="st3">
	<path class="st4" d="M74,24.4h-8.1c-0.2,1.5-0.1,3-0.2,4.6c2.7,0.2,5.3,0.1,8,0.1C73.8,27.5,73.9,26,74,24.4z M76.9,23.4V19
		c-2.4-0.4-4.9-0.4-7.3,0c0,0.3-0.1,0.6-0.1,0.9v3.5L76.9,23.4z M58.1,24.5c0.1,1.5,0.3,3.1,0.6,4.6H65c0-1.5,0.1-3,0.2-4.6H58.1z
		 M62.1,23.4c2.2,0.1,4.4,0.1,6.6,0v-4.6h-6.6L62.1,23.4z M81.8,24.4h-6.9c-0.4,1.5-0.5,3-0.4,4.5c1,0.3,2,0.3,3,0.2h3.2
		C81.1,27.5,81.4,26.1,81.8,24.4z M69.4,30.1c-2.2-0.2-4.3,0-6.6-0.1c-0.2,1.7,0.4,3.1,0.5,4.5c2,0.3,4.1,0.4,6.1,0.1V30.1z
		 M77.6,30.1c-2.5,0-4.8-0.1-7.2,0c-0.1,1.6-0.2,3-0.3,4.4c1.9,0.3,3.9,0.4,5.9,0.1C76.5,33.1,77,31.7,77.6,30.1z M83,18.8h-5.3v4.6
		h6.6C84.2,21.8,83.8,20.2,83,18.8z M61.2,18.8h-4.7c-0.8,1.4-1.2,3-1.3,4.6c2,0.1,4,0.1,6,0V18.8z M62.4,34.7
		c0.2-1.6-0.3-3-0.5-4.6C60,29.9,58,29.9,56.1,30c0.6,1.8,1.5,3.4,2.8,4.7H62.4z M76.7,34.7h4c1.2-1.3,2.1-2.8,2.7-4.4
		c-1.7-0.4-3.4-0.5-5.1-0.2C77.8,31.6,77.3,33,76.7,34.7z M66.3,17.8c0.2-1.1,0.4-2.3,0.5-3.4c-1.5-0.4-3-0.5-4.5-0.2
		c-0.8,1.1-1.5,2.3-2.4,3.6H66.3z M77.1,14.2h-4.2c-0.1,1.2-0.1,2.4,0,3.6h6.3C78.4,16.4,77.7,15.3,77.1,14.2z M66.3,35.7
		c0.4,1.3,0.9,2.5,1.3,3.7h3.1c0.8-1.1,1.6-2.3,2.5-3.7H66.3z M70.6,14.1h-2.8c-0.6,1.2-0.3,2.4-0.7,3.7h4.8
		c0.3-1.2,0.3-2.5-0.1-3.7L70.6,14.1z M79.4,35.7h-2.8c-3.1,0-2.2-0.5-3.9,2c-0.4,0.5-0.7,1.1-1.2,1.8
		C74.5,39.1,77.2,37.8,79.4,35.7z M65.4,35.7H60c1.8,1.8,4.2,3,6.7,3.5C66.3,38,65.9,36.8,65.4,35.7z M84.5,24.5h-1.9
		c-0.5,1.4-0.7,3-1.1,4.6h2.2C84.3,27.6,84.5,26.1,84.5,24.5z M57.7,29.1c0-1.5-0.2-3.1-0.5-4.6h-2.1c-0.1,1.6,0.2,3.1,0.7,4.6H57.7
		z M79.4,13.9c-0.4,0.1-0.9,0.2-1.5,0.3c0.8,1.3,1.4,2.4,2.1,3.6h2.5C81.8,16.3,80.7,14.9,79.4,13.9z M70.1,10.2V13H74
		C72.7,12.1,72.1,10.3,70.1,10.2z M60.1,13.9c-1.2,1-2.3,2.3-3,3.7c1.5,0.5,1.8,0.4,2.6-0.8c0.5-0.7,0.9-1.5,1.4-2.2
		c0-0.1,0-0.3,0.1-0.4C60.8,14.1,60.4,14,60.1,13.9z M69.2,10.2c-1.8,0.3-2.4,1.7-3.6,2.9h3.6V10.2z M61.4,12.9
		c2.1,0.8,3.7,0.1,5.3-2.3C64.8,10.9,63,11.7,61.4,12.9z M72.8,10.9c0.7,0.8,1.6,1.5,2.5,2.1c0.9,0.2,1.8,0.2,2.7,0.2
		c0-0.1,0.1-0.2,0.1-0.3C76.6,11.7,74.7,11,72.8,10.9z"/>
	<rect x="69.3" y="-6.6" class="st4" width="0.9" height="19.6"/>
</g>
<polygon class="st5" points="78.1,34.6 75,35 74.8,38.6 74.2,35 71,34.6 74.2,34.2 74.3,30.7 74.9,34.2 "/>
<polygon class="st5" points="62.1,18.7 56.6,19.3 56.3,25.9 55.2,19.3 49.5,18.7 55.1,17.9 55.3,11.6 56.4,17.9 "/>
<linearGradient id="SVGID_3_" gradientUnits="userSpaceOnUse" x1="-361.716" y1="1689.3536" x2="-426.096" y2="1750.8636" gradientTransform="matrix(-1 0 0 1 -270.5 -1621.88)">
	<stop  offset="0" style="stop-color:#FFFFFF"/>
	<stop  offset="1" style="stop-color:#FFFFFF;stop-opacity:0"/>
</linearGradient>
<polygon class="st6" points="212.5,150.8 80.7,34.7 75.9,38.2 143.9,150.4 "/>
<linearGradient id="SVGID_4_" gradientUnits="userSpaceOnUse" x1="-362.3142" y1="1657.0321" x2="-495.3042" y2="1728.8622" gradientTransform="matrix(-1 0 0 1 -270.5 -1621.88)">
	<stop  offset="0" style="stop-color:#FFFFFF"/>
	<stop  offset="1" style="stop-color:#FFFFFF;stop-opacity:0"/>
</linearGradient>
<polygon class="st7" points="82.5,32.1 243.5,133.1 243.5,101.1 83.7,29.1 "/>
</svg>
