<svg id="Layer_1" data-name="Layer 1" xmlns="http://www.w3.org/2000/svg" xmlns:xlink="http://www.w3.org/1999/xlink" viewBox="0 0 251 151"><defs><style>.cls-1,.cls-2{opacity:0.1;}.cls-1{fill:url(#radial-gradient);}.cls-2{fill:url(#radial-gradient-2);}.cls-3{fill:#e1f1f9;}.cls-4{opacity:0.2;}.cls-5{fill:#e1dfe0;}.cls-6{fill:#768589;}.cls-7,.cls-8{opacity:0.05;}.cls-7{fill:url(#linear-gradient);}.cls-8{fill:url(#linear-gradient-2);}</style><radialGradient id="radial-gradient" cx="-904.96" cy="239.16" r="71.73" gradientTransform="translate(897.29 -40.67) scale(0.87 0.56)" gradientUnits="userSpaceOnUse"><stop offset="0" stop-color="#fff" stop-opacity="0.5"/><stop offset="0.4" stop-color="#fff" stop-opacity="0.27"/><stop offset="1" stop-color="#fff" stop-opacity="0"/></radialGradient><radialGradient id="radial-gradient-2" cx="-890.08" cy="-88.73" r="71.73" gradientTransform="translate(739.21 145.4) scale(0.7 0.56)" xlink:href="#radial-gradient"/><linearGradient id="linear-gradient" x1="152.24" y1="67.71" x2="87.86" y2="129.22" gradientUnits="userSpaceOnUse"><stop offset="0" stop-color="#fff"/><stop offset="1" stop-color="#fff" stop-opacity="0"/></linearGradient><linearGradient id="linear-gradient-2" x1="151.65" y1="35.41" x2="18.66" y2="107.24" xlink:href="#linear-gradient"/></defs><title>Kristo-base</title><rect class="cls-1" x="38.95" y="43.04" width="146.19" height="98.05" rx="11.51" ry="11.51" transform="translate(243.13 154.11) rotate(165.92)"/><rect class="cls-2" x="55.51" y="47.12" width="118.23" height="98.05" rx="10.47" ry="10.47" transform="translate(262.95 115.7) rotate(147.52)"/><polygon class="cls-3" points="22.51 97.45 23.59 91.58 23.78 97.45 29.09 98.22 23.71 98.86 22.64 105.06 22.39 98.86 17.13 98.22 22.51 97.45"/><polygon class="cls-3" points="102.55 12.63 103.53 7.29 103.7 12.63 108.53 13.31 103.64 13.89 102.67 19.52 102.44 13.89 97.67 13.31 102.55 12.63"/><polygon class="cls-3" points="188.68 111.81 186.96 118.81 187.16 111.72 180.82 110.42 187.34 110.05 189.07 102.68 188.94 110.15 195.21 111.29 188.68 111.81"/><polygon class="cls-3" points="224.24 62.38 223.6 65.73 223.49 62.38 220.34 61.95 223.53 61.59 224.17 58.05 224.32 61.59 227.43 61.95 224.24 62.38"/><g class="cls-4"><path class="cls-5" d="M169.72,29.35c2.71,0,5.31.1,8-.09-.06-1.61,0-3.09-.17-4.57h-8.11Zm4.2-5.77c0-1.26,0-2.38,0-3.49a8.83,8.83,0,0,0-.09-.94,23.14,23.14,0,0,0-7.3,0v4.39Zm4.38,1.09.23,4.61h6.3a27.92,27.92,0,0,0,.57-4.61Zm3-5.68h-6.59V23.6a65.8,65.8,0,0,0,6.59,0ZM162.75,29.36c1.17,0,2.16,0,3.16,0a9,9,0,0,0,3-.19,14.64,14.64,0,0,0-.36-4.48h-6.89Zm11.3,5.4a19.82,19.82,0,0,0,6.09-.1c.06-1.43.68-2.83.49-4.49-2.27.12-4.45-.13-6.58.09Zm-6.56,0a19.25,19.25,0,0,0,5.86-.11l-.25-4.44c-2.39-.13-4.67,0-7.18,0Zm-8.35-11.21h6.56V19h-5.33A11.94,11.94,0,0,0,159.14,23.57Zm23.09,0c2,.13,4,.08,6,.05A11.71,11.71,0,0,0,187,19h-4.73Zm2.29,11.35a11.39,11.39,0,0,0,2.78-4.73,47.86,47.86,0,0,0-5.77.08c-.16,1.62-.66,3-.52,4.65Zm-19.33-4.59a11.73,11.73,0,0,0-5.11.17,12.62,12.62,0,0,0,2.72,4.39h3.95ZM183.56,18l-2.36-3.59a10.39,10.39,0,0,0-4.47.18l.46,3.41Zm-19.29,0h6.32a17.63,17.63,0,0,0,0-3.63h-4.19Zm6,17.94,2.46,3.66h3.13l1.31-3.66ZM171.7,14.3a6.37,6.37,0,0,0-.06,3.69h4.84c-.39-1.26-.08-2.5-.7-3.69H171.7Zm.22,25.37c-.49-.74-.82-1.26-1.17-1.77-1.73-2.45-.79-2-3.87-2-.92,0-1.85,0-2.77,0A13.13,13.13,0,0,0,171.92,39.67Zm4.79-.24a13.5,13.5,0,0,0,6.7-3.46H178Zm-17-10.16h2.23a28.8,28.8,0,0,0-1.13-4.59h-1.89A14.7,14.7,0,0,0,159.71,29.27Zm27.95,0a13.48,13.48,0,0,0,.71-4.62h-2.11a24.94,24.94,0,0,0-.51,4.62ZM160.91,18h2.51l2.07-3.56L164,14.12A12.44,12.44,0,0,0,160.91,18Zm8.54-4.77h3.88V10.39C171.36,10.5,170.73,12.28,169.45,13.24Zm12.79,1.17a1.76,1.76,0,0,0,.12.41c.46.74.93,1.48,1.4,2.21.79,1.2,1.09,1.3,2.62.82a11.34,11.34,0,0,0-3-3.66Zm-8-1.13h3.58c-1.21-1.16-1.8-2.61-3.58-2.87Zm2.52-2.47c1.57,2.4,3.15,3.07,5.3,2.28A12.68,12.68,0,0,0,176.76,10.81Zm-11.45,2.25.09.33a7.31,7.31,0,0,0,2.68-.23,13,13,0,0,0,2.51-2.1A9.79,9.79,0,0,0,165.31,13.06Z"/><rect class="cls-5" x="173.27" y="-6.35" width="0.94" height="19.59"/></g><polygon class="cls-6" points="168.56 34.39 169.19 30.94 169.3 34.39 172.42 34.84 169.26 35.21 168.63 38.85 168.48 35.21 165.4 34.84 168.56 34.39"/><polygon class="cls-6" points="187.03 18.09 188.16 11.86 188.36 18.09 193.99 18.89 188.3 19.56 187.16 26.13 186.89 19.56 181.34 18.89 187.03 18.09"/><polygon class="cls-7" points="99.58 150.65 167.53 38.37 162.8 34.9 30.91 151 99.58 150.65"/><polygon class="cls-8" points="159.71 29.27 0 101.31 0 133.32 160.91 32.33 159.71 29.27"/></svg>