<?xml version="1.0" encoding="utf-8"?>
<!-- Generator: Adobe Illustrator 22.1.0, SVG Export Plug-In . SVG Version: 6.00 Build 0)  -->
<svg version="1.1" id="Layer_1" xmlns="http://www.w3.org/2000/svg" xmlns:xlink="http://www.w3.org/1999/xlink" x="0px" y="0px"
	 viewBox="0 0 251 151" style="enable-background:new 0 0 251 151;" xml:space="preserve">
<style type="text/css">
	.st0{fill-opacity:0;}
	.st1{opacity:0.1;fill:url(#SVGID_1_);enable-background:new    ;}
	.st2{opacity:0.1;fill:url(#SVGID_2_);enable-background:new    ;}
</style>
<title>Laura</title>
<rect class="st0" width="251" height="151"/>
<radialGradient id="SVGID_1_" cx="-1699.1498" cy="2337.4004" r="71.67" gradientTransform="matrix(0.87 -4.000000e-02 3.000000e-02 0.55 1536.9 -1276.7)" gradientUnits="userSpaceOnUse">
	<stop  offset="0" style="stop-color:#FFFFFF;stop-opacity:0.5"/>
	<stop  offset="0.4" style="stop-color:#FFFFFF;stop-opacity:0.26"/>
	<stop  offset="1" style="stop-color:#FFFFFF;stop-opacity:0"/>
</radialGradient>
<path class="st1" d="M195.6,124.7l-123,5.6c-6.4,0.3-11.7-4.6-12-11c0,0,0,0,0,0l-3.4-75c-0.3-6.4,4.6-11.7,11-12c0,0,0,0,0,0
	l123-5.6c6.4-0.3,11.7,4.6,12,11c0,0,0,0,0,0l3.4,75C206.8,119.1,201.9,124.4,195.6,124.7z"/>
<radialGradient id="SVGID_2_" cx="-1299.525" cy="930.2174" r="71.67" gradientTransform="matrix(0.77 0.39 -0.25 0.49 1350.75 137.81)" gradientUnits="userSpaceOnUse">
	<stop  offset="0" style="stop-color:#FFFFFF;stop-opacity:0.5"/>
	<stop  offset="0.4" style="stop-color:#FFFFFF;stop-opacity:0.26"/>
	<stop  offset="1" style="stop-color:#FFFFFF;stop-opacity:0"/>
</radialGradient>
<path class="st2" d="M145.6,150.1L35.9,94.3c-5.7-2.9-7.9-9.8-5-15.5L65,11.9c2.9-5.7,9.8-7.9,15.5-5c0,0,0,0,0,0l109.7,55.8
	c5.7,2.9,7.9,9.8,5,15.5l-34.1,66.9C158.2,150.8,151.3,153,145.6,150.1z"/>
</svg>
