<svg id="Layer_1" data-name="Layer 1" xmlns="http://www.w3.org/2000/svg" xmlns:xlink="http://www.w3.org/1999/xlink" viewBox="0 0 251 151"><defs><style>.cls-1{opacity: 0;}.cls-2,.cls-3{opacity:0.1;isolation:isolate;}.cls-2{fill:url(#radial-gradient);}.cls-3{fill:url(#radial-gradient-2);}.cls-4{fill:#e1f1f9;}</style><radialGradient id="radial-gradient" cx="-1698.68" cy="-501.78" r="71.67" gradientTransform="matrix(0.87, -0.04, -0.03, -0.55, 1591.56, -267.09)" gradientUnits="userSpaceOnUse"><stop offset="0" stop-color="#fff" stop-opacity="0.5"/><stop offset="0.4" stop-color="#fff" stop-opacity="0.26"/><stop offset="1" stop-color="#fff" stop-opacity="0"/></radialGradient><radialGradient id="radial-gradient-2" cx="-1618.68" cy="566.7" r="71.67" gradientTransform="matrix(0.77, 0.39, 0.25, -0.49, 1222.27, 995.77)" xlink:href="#radial-gradient"/></defs><title>Laura</title><rect class="cls-1" width="251" height="151"/><path class="cls-2" d="M195.58,124.72l-123,5.6a11.51,11.51,0,0,1-12-11l-3.4-75a11.51,11.51,0,0,1,11-12l123-5.6a11.51,11.51,0,0,1,12,11l3.4,75A11.58,11.58,0,0,1,195.58,124.72Z"/><path class="cls-3" d="M145.64,150.15,35.91,94.3a11.51,11.51,0,0,1-5-15.49L65,11.91a11.5,11.5,0,0,1,15.49-5L190.2,62.76a11.51,11.51,0,0,1,5,15.49l-34.07,66.9A11.58,11.58,0,0,1,145.64,150.15Z"/><polygon class="cls-4" points="43.18 35.56 44.18 29.86 44.38 35.56 49.48 36.36 44.28 36.96 43.28 42.96 42.98 36.96 37.88 36.36 43.18 35.56"/><polygon class="cls-4" points="220.91 111.55 219.31 118.35 219.51 111.55 213.31 110.25 219.62 109.85 221.31 102.75 221.22 109.95 227.31 111.05 220.91 111.55"/><polygon class="cls-4" points="167.69 27.2 166.99 30.4 166.89 27.2 163.89 26.8 166.99 26.4 167.59 23 167.69 26.4 170.69 26.8 167.69 27.2"/><polygon class="cls-4" points="70.57 113.26 69.97 116.56 69.87 113.26 66.87 112.86 69.87 112.46 70.57 109.06 70.67 112.46 73.67 112.86 70.57 113.26"/></svg>
