<svg id="Layer_1" data-name="Layer 1" xmlns="http://www.w3.org/2000/svg" xmlns:xlink="http://www.w3.org/1999/xlink" viewBox="0 0 251 151"><defs><style>.cls-1,.cls-2{opacity:0.1;}.cls-1{fill:url(#radial-gradient);}.cls-2{fill:url(#radial-gradient-2);}.cls-3{fill:#e1f1f9;}.cls-4{opacity:0.2;}.cls-5{fill:#e84c59;}.cls-6{fill:#ee7b5c;}.cls-7{fill:#f9c862;}.cls-8{fill:#062633;}.cls-9{fill:#abaaaa;}.cls-10{fill:#e1dfe0;}.cls-11{fill:none;}.cls-12{fill:#041d26;}.cls-13{fill:#6e6e6e;}.cls-14{fill:silver;}.cls-15{fill:#5e3e21;}.cls-16{fill:#54371d;}.cls-17{fill:#6d3325;}.cls-18{fill:#783a28;}.cls-19{fill:#8f4729;}.cls-20{fill:#dcb680;}.cls-21{fill:#c69666;}.cls-22{fill:#662f1e;}.cls-23{fill:#231d13;}.cls-24{fill:#574c3e;}.cls-25{fill:#442c1a;}</style><radialGradient id="radial-gradient" cx="-1685.16" cy="82" r="71.73" gradientTransform="translate(1595.33 28.16) scale(0.87 0.56)" gradientUnits="userSpaceOnUse"><stop offset="0" stop-color="#fff" stop-opacity="0.5"/><stop offset="0.4" stop-color="#fff" stop-opacity="0.27"/><stop offset="1" stop-color="#fff" stop-opacity="0"/></radialGradient><radialGradient id="radial-gradient-2" cx="-1714.01" cy="-579.42" r="71.73" gradientTransform="translate(1393.57 375.48) scale(0.7 0.56)" xlink:href="#radial-gradient"/></defs><title>Laura-base</title><rect class="cls-1" x="60.01" y="24.64" width="146.19" height="98.05" rx="11.51" ry="11.51" transform="translate(-3.23 6.16) rotate(-2.62)"/><rect class="cls-2" x="131.68" y="4.85" width="118.23" height="98.05" rx="10.47" ry="10.47" transform="translate(-6.63 72.03) rotate(-21.02)"/><polygon class="cls-3" points="21.95 108.83 23 103.13 23.18 108.83 28.32 109.56 23.11 110.17 22.07 116.19 21.84 110.17 16.75 109.56 21.95 108.83"/><polygon class="cls-3" points="122.05 16.73 120.38 23.5 120.56 16.64 114.42 15.38 120.73 15.02 122.42 7.88 122.28 15.12 128.35 16.23 122.05 16.73"/><polygon class="cls-3" points="231.18 118.88 230.56 122.14 230.44 118.88 227.4 118.47 230.47 118.11 231.09 114.69 231.25 118.11 234.25 118.47 231.18 118.88"/><g class="cls-4"><path class="cls-5" d="M107.2,66.94c.42,2.64.89,7.75-.39,10.48-2,4.23-8,7.35-10.72,8.36,2-2.55,2.85-4.61,2.43-6.13-.13-.48-1,1.18-2.57,1.46a7.69,7.69,0,0,0,.47-3.52,10,10,0,0,1,1.12-5c2.79-4.26,7.57-5.9,8.58-6.34Z"/><path class="cls-6" d="M107.2,66.94c.28,1.14.35,5.25-.76,7.13s-5.4,3.82-7.39,5.71c.48-2,1-2.71.77-4.42a5.37,5.37,0,0,1,.13-2.92c.26-1,2-2.91,3.81-4.4a11.15,11.15,0,0,1,2.36-1.74Z"/><path class="cls-7" d="M107.2,66.94c.09,1.36-.29,5.16-1.48,6.16s-2.16.7-4.17,2.11c0-.83,1.23-2.09.87-3-.49.42-.66.77-1.32.94.56-.71.56-1.68,1-2.7a9.1,9.1,0,0,1,2.64-2.71,8.55,8.55,0,0,0,1.38-1.44Z"/><path class="cls-8" d="M106.48,67.49c2,1.13,3.87,1.59,4.19,1l-.58,1c-.32.57-2.19.11-4.19-1s-3.38-2.51-3-3.08l.58-1C103.1,65,104.47,66.36,106.48,67.49Z"/><path class="cls-8" d="M105.77,68.72c1.51.86,2.93,1.2,3.17.78l-.44.77c-.24.42-1.66.08-3.17-.78s-2.53-1.88-2.29-2.31l.43-.77C103.23,66.84,104.31,67.87,105.77,68.72Z"/><path class="cls-9" d="M117,55.3a28.71,28.71,0,0,1-3.61,9.75l-2,3.61a19.63,19.63,0,0,1-4.66-1.49A20.61,20.61,0,0,1,103,64s.79-1.55,2-3.68a28.63,28.63,0,0,1,6.57-8.07,13.48,13.48,0,0,0,2.49,1.82A14.11,14.11,0,0,0,117,55.3Z"/><path class="cls-10" d="M116.45,49.77c.47.27,1,2.24.53,5.49A13.76,13.76,0,0,1,114,54a13.48,13.48,0,0,1-2.49-1.82C114,50.18,116,49.52,116.45,49.77Z"/><path class="cls-8" d="M107.26,66.11c2.32,1.31,4.51,1.84,4.87,1.19l-.66,1.18c-.38.66-2.56.12-4.88-1.19s-3.92-2.91-3.54-3.56l.67-1.19C103.31,63.2,104.94,64.79,107.26,66.11Z"/><path class="cls-11" d="M103.4,64.82a7.91,7.91,0,0,0,.91.92.79.79,0,0,1-.08.16A3,3,0,0,1,103.4,64.82Z"/><path class="cls-11" d="M103.48,66.75l.24.23v.09A1.41,1.41,0,0,1,103.48,66.75Z"/><path class="cls-12" d="M104.23,65.9q-.27.54-.51,1.08l-.24-.23a.43.43,0,0,1,0-.35l-.13.21c-.45-.49-.66-.92-.51-1.18l.44-.79.13.18A3.2,3.2,0,0,0,104.23,65.9Z"/><path class="cls-12" d="M103.48,66.75a1.5,1.5,0,0,0,.19.32l-.39.84c-.25-.31-.34-.57-.26-.74l.32-.56.13-.21A.39.39,0,0,0,103.48,66.75Z"/><path class="cls-13" d="M105.83,62.87c-.31.55-.6,1.1-.89,1.64-.87-.75-1.37-1.44-1.29-1.86.34-.63.79-1.45,1.32-2.39a28.55,28.55,0,0,1,6.56-8.06c.39.35.79.69,1.21,1A52,52,0,0,0,105.83,62.87Z"/><path class="cls-14" d="M111.53,52.2c2.48-2,4.45-2.69,4.91-2.44a.52.52,0,0,1,.18.18,17.78,17.78,0,0,0-3.88,3.26C112.32,52.89,111.92,52.55,111.53,52.2Z"/><path class="cls-12" d="M104.94,64.51c-.22.41-.42.82-.63,1.23a7.91,7.91,0,0,1-.91-.92l-.13-.18A1.37,1.37,0,0,1,103,64h0a.88.88,0,0,1,0-.23l.67-1.18v.12C103.58,63.07,104.08,63.76,104.94,64.51Z"/><path class="cls-5" d="M100.31,65.94c.41,2.65.89,7.75-.39,10.48-2,4.23-8,7.35-10.72,8.37,2-2.55,2.85-4.62,2.43-6.13-.14-.49-1,1.17-2.57,1.45a7.92,7.92,0,0,0,.47-3.51,9.86,9.86,0,0,1,1.11-5c2.79-4.26,7.58-5.89,8.58-6.34Z"/><path class="cls-6" d="M100.31,65.94c.27,1.14.34,5.26-.76,7.14s-5.4,3.81-7.39,5.7c.47-2,1-2.7.77-4.42a5.46,5.46,0,0,1,.12-2.92c.27-1,2-2.9,3.81-4.4A12.69,12.69,0,0,1,99.2,65.3Z"/><path class="cls-7" d="M100.31,65.94c.09,1.37-.29,5.17-1.48,6.17s-2.16.69-4.17,2.1c0-.82,1.24-2.09.87-3-.49.42-.67.77-1.33.94.56-.71.56-1.68,1-2.69a8.68,8.68,0,0,1,2.64-2.72A8.06,8.06,0,0,0,99.2,65.3Z"/><path class="cls-8" d="M99.56,66.5c2,1.13,3.89,1.59,4.21,1l-.58,1c-.32.56-2.2.1-4.21-1S95.62,65,96,64.43l.58-1C96.19,64,97.56,65.36,99.56,66.5Z"/><path class="cls-8" d="M98.87,67.73c1.5.85,2.92,1.2,3.16.77l-.43.77c-.23.43-1.66.08-3.16-.77s-2.54-1.89-2.29-2.32l.43-.77C96.31,65.84,97.37,66.88,98.87,67.73Z"/><path class="cls-9" d="M110.08,54.3a29,29,0,0,1-3.62,9.76l-2,3.61a19.63,19.63,0,0,1-4.66-1.49A21,21,0,0,1,96.12,63s.79-1.56,2-3.69a28.55,28.55,0,0,1,6.56-8.06,13.55,13.55,0,0,0,2.5,1.82A12.31,12.31,0,0,0,110.08,54.3Z"/><path class="cls-10" d="M109.55,48.78c.48.27,1,2.24.54,5.48A12.42,12.42,0,0,1,107.15,53a12.91,12.91,0,0,1-2.5-1.82C107.12,49.19,109.09,48.52,109.55,48.78Z"/><path class="cls-8" d="M100.31,65.11c2.32,1.31,4.5,1.85,4.88,1.19l-.68,1.19c-.37.65-2.55.12-4.87-1.2s-3.91-2.9-3.54-3.56l.67-1.19C96.44,62.2,98,63.8,100.31,65.11Z"/><path class="cls-11" d="M96.49,63.82a8,8,0,0,0,.92.92c0,.05,0,.11-.08.17A3.32,3.32,0,0,1,96.49,63.82Z"/><path class="cls-11" d="M96.58,65.76l.23.22v.1A1.72,1.72,0,0,1,96.58,65.76Z"/><path class="cls-12" d="M97.31,64.91c-.18.36-.36.72-.51,1.07a2.61,2.61,0,0,1-.24-.22.38.38,0,0,1,0-.36l-.12.21c-.45-.49-.67-.92-.52-1.17l.45-.79.12.17A3.64,3.64,0,0,0,97.31,64.91Z"/><path class="cls-12" d="M96.58,65.76a1.5,1.5,0,0,0,.19.32c-.13.28-.25.56-.38.83-.25-.31-.36-.57-.26-.74l.31-.56.12-.21A.39.39,0,0,0,96.58,65.76Z"/><path class="cls-13" d="M98.94,61.88c-.31.55-.61,1.09-.89,1.64-.88-.75-1.38-1.44-1.29-1.86.33-.63.77-1.46,1.3-2.39a28.49,28.49,0,0,1,6.57-8.07,12.84,12.84,0,0,0,1.21,1A50.39,50.39,0,0,0,98.94,61.88Z"/><path class="cls-14" d="M104.63,51.2c2.47-2,4.45-2.69,4.9-2.44a.58.58,0,0,1,.19.19,17,17,0,0,0-3.88,3.25A12.84,12.84,0,0,1,104.63,51.2Z"/><path class="cls-12" d="M98.05,63.52c-.22.41-.43.81-.63,1.22a6.67,6.67,0,0,1-.92-.92l-.13-.17a1.4,1.4,0,0,1-.29-.69h0a.28.28,0,0,1,0-.22l.67-1.19a.28.28,0,0,0,0,.13C96.67,62.08,97.16,62.77,98.05,63.52Z"/><path class="cls-15" d="M137.84,45c.64-1,2.33-3,4.41-1.2s-1.24,4-1.24,4Z"/><path class="cls-16" d="M110.87,72c-1.86-.43-2.24.15-2.24.15l.27,1.28h0c.12.74.41,1.71.61,2.71.37,2,.61,4,1.44,3.87,1.17-.24,1.76-2.22,1.31-4.43a7.86,7.86,0,0,0-.31-1.08,8.76,8.76,0,0,0,1.76.38s-1.07-3.92-1.37-3.78S111.19,72.1,110.87,72Z"/><path class="cls-17" d="M116.23,66.6A3.15,3.15,0,0,1,117.79,68c.12.41.19.82.29,1.23a18,18,0,0,1,.34,2.43,18.9,18.9,0,0,1,0,2.38v1.18a1.92,1.92,0,0,1-.07.58c-.1.19-.34.35-1,.45l-11.74-1.84c-.56-.29-.74-.51-.78-.72a2.14,2.14,0,0,1,.12-.57l.31-1.14a17.64,17.64,0,0,1,.76-2.26,18,18,0,0,1,1.07-2.21c.22-.36.41-.73.65-1.08a3.18,3.18,0,0,1,1.93-.89Z"/><path class="cls-15" d="M104,69.93c-1-1.63-1.66-1.53-1.66-1.53l-.76,1.06h0c-.46.6-1,1.46-1.58,2.28-1.23,1.62-2.56,3.19-1.88,3.68,1,.7,2.83-.21,4.15-2a8.45,8.45,0,0,0,.59-1,2.24,2.24,0,0,0,1.66.32s1.41-2.22,1.11-2.34S104.12,70.24,104,69.93Z"/><path class="cls-18" d="M111.15,66.3a3.32,3.32,0,0,1,.8,2c-.06.43-.17.83-.26,1.24a24.41,24.41,0,0,1-.71,2.35c-.3.74-.63,1.46-1,2.17l-.56,1a1.9,1.9,0,0,1-.3.51c-.18.11-.45.16-1.06,0l-9.84-6.69c-.38-.49-.45-.77-.41-1a2.4,2.4,0,0,1,.35-.47l.76-.9a18,18,0,0,1,1.66-1.72,18.88,18.88,0,0,1,1.9-1.55c.36-.23.68-.49,1-.7a3.09,3.09,0,0,1,2.12,0Z"/><path class="cls-18" d="M118.78,58.68a2.93,2.93,0,0,1,.59-1.1l.4-.41a3,3,0,0,1,.7-.55,3.11,3.11,0,0,1,1.24-.6A11.22,11.22,0,0,0,124.14,55a29.1,29.1,0,0,0,4.54-3.33c1.45-1.25,2.83-2.63,4.16-4,.67-.67,1.33-1.33,1.92-2a3,3,0,0,1,1-.88,2.87,2.87,0,0,1,.68-.23,1.75,1.75,0,0,1,.56,0l.39.08a4.68,4.68,0,0,1,1.22.44l3,1.44c.86.5,1,.68,1,.8l.21.44a1.8,1.8,0,0,1,.15.73,5.14,5.14,0,0,1-.2,1.15,5,5,0,0,1-1,1.73,26.67,26.67,0,0,1-2.5,2.82,27.65,27.65,0,0,1-6,4.38,26.1,26.1,0,0,1-7,2.64,19.76,19.76,0,0,1-3.91.43,5.47,5.47,0,0,1-1-.08,6.59,6.59,0,0,1-1-.36,3.71,3.71,0,0,1-1-.67c-.14-.17-.28-.36-.4-.53a2,2,0,0,1-.23-1.23Z"/><path class="cls-19" d="M127.31,52.84a8.85,8.85,0,1,1-4.22-11.79,8.85,8.85,0,0,1,4.22,11.79Z"/><path class="cls-19" d="M120.9,67.73l.16-.33a.24.24,0,0,0,0-.12c2.42-5.94,2.82-11.85-4.43-15.27h0c-7.32-3.46-13,2.52-16.4,11.25h0c-1.51,3.24,3.69,5.43,8.08,7.5,5.07,2.4,9.27,4,10.33,1.72l1.12-2.36A25.66,25.66,0,0,0,120.9,67.73Z"/><path class="cls-20" d="M120.19,62.71c-.82-.51-1.16-1.93-2.16-2.94-1.38-1.38-1.35-3.1-1.45-2.36s-.76.91-.74.81.17.16.31-1-1-2-1.49-4.1a13.72,13.72,0,0,1-.25-2.3,6,6,0,0,0-.36.86c-.17-6.79,3.14-9.8,3.53-10a2.12,2.12,0,0,0-1.1.25,3.11,3.11,0,0,1,2.83-1.54,1.22,1.22,0,0,0-1-.47,2.73,2.73,0,0,1,2.56-.91,1,1,0,0,1,.73.73,1.84,1.84,0,0,1,1.77-1.91h0c-1.22,1.84-.82,1.54-.76,1.63a5.37,5.37,0,0,1,2.33-.6,1.13,1.13,0,0,0-.67.48c1.12-.2,2.38-.57,4.14,1.37a2.76,2.76,0,0,0-1.61.07,7.84,7.84,0,0,1,3.7,6.52c-.14-.14-.89-.93-1-.84.52.66,2.22,3-.74,9.66,0-.38,0-1.27-.2-1.29.1.7-.89,2.5-3.18,3.81C122.23,60.38,120.81,61.41,120.19,62.71Z"/><path class="cls-15" d="M127.88,50.8c.77-3.33-.66-6.53-3-7.08s-4.91,1.7-5.69,5a7.47,7.47,0,0,0,.58,5.17c.8,1.52,1.48,2.79,1.33,4.1.81-1.67,2.13-1.91,3.84-2.84A6.8,6.8,0,0,0,127.88,50.8Z"/><path class="cls-21" d="M128.13,49.93c-.5,3.27-2.64,5.73-5.12,5.35s-4.7-3.56-4.2-6.83,2.93-5.61,5.43-5.22S128.65,46.66,128.13,49.93Z"/><path class="cls-22" d="M125,47.9a4.2,4.2,0,0,1,1,.18,1.86,1.86,0,0,1,.92.48,1.8,1.8,0,0,0-1-.2,3.78,3.78,0,0,0-1,.1Z"/><path class="cls-22" d="M123.55,48.3a3.44,3.44,0,0,0-.89-.41,1.88,1.88,0,0,0-1-.1,1.94,1.94,0,0,1,1-.18,4.88,4.88,0,0,1,1.08.18Z"/><polygon class="cls-23" points="123.31 48.91 122.42 48.45 123.44 48.55 123.31 48.91"/><path class="cls-23" d="M125,48.72h.64a3.42,3.42,0,0,1,.64,0,2.69,2.69,0,0,0-.61.14,2.24,2.24,0,0,0-.61.18Z"/><path class="cls-24" d="M123.15,49.91a1.1,1.1,0,0,0,.25.88,1.4,1.4,0,0,0,.78.38A1,1,0,0,0,125,51a1.17,1.17,0,0,0,.27-.37.73.73,0,0,0,.11-.47,1,1,0,0,1-.17,1,1.11,1.11,0,0,1-1.06.38,1.36,1.36,0,0,1-1-.58A1,1,0,0,1,123.15,49.91Z"/><path class="cls-23" d="M122.4,52.39a1.11,1.11,0,0,0,.5.41.84.84,0,0,1,.24.07,1,1,0,0,1,.23.12,1.75,1.75,0,0,0,.59.14,1.24,1.24,0,0,0,.66-.16,1.22,1.22,0,0,1-.56.54,2,2,0,0,1-.82.17,1.33,1.33,0,0,1-.44-.09,1.56,1.56,0,0,1-.35-.33A.87.87,0,0,1,122.4,52.39Z"/><path class="cls-25" d="M123.4,43.2a4,4,0,0,1,1.9.32,5.84,5.84,0,0,1,2.62,3.14,1.74,1.74,0,0,0-1.41-.22l-.25.08-.44-1.63-.4,1.86c-2.73.53-5.29-2.12-6.13-.06a5.31,5.31,0,0,1,4.12-3.49"/><path class="cls-15" d="M95.78,60.47c-1.11,0-3.58-.34-3.22-3s1.36-1.5,1.91-1.23a2.57,2.57,0,0,0,1.87.18Z"/><path class="cls-18" d="M112.56,54.48a2.49,2.49,0,0,1,.35,1.16v.55a2.77,2.77,0,0,1-1.07,1.89c-.69.49-1.37,1-2.12,1.48A22.5,22.5,0,0,1,105,61.93a18.35,18.35,0,0,1-5.3,1A19.88,19.88,0,0,1,97,62.81a2.82,2.82,0,0,1-1.3-.33A3.29,3.29,0,0,1,95.1,62a2.08,2.08,0,0,1-.25-.52L94.74,61a4,4,0,0,1,0-1.29l.47-3.34a4.84,4.84,0,0,1,.31-1.26l.18-.37a2.55,2.55,0,0,1,.31-.45,4,4,0,0,1,.55-.4,1.66,1.66,0,0,1,1-.14h1.91c1.26,0,2.51,0,3.8,0s2.68-.14,4-.31a4.75,4.75,0,0,0,1-.17c.34-.07.68-.15,1-.24a1.7,1.7,0,0,1,.54-.09,1.82,1.82,0,0,1,.64.08,2.61,2.61,0,0,1,.77.27l.47.26a3,3,0,0,1,.85.88Z"/></g><g class="cls-4"><path class="cls-5" d="M40.47,73.07c.43,2.87,1,8.4-.42,11.37-2.16,4.59-8.68,8-11.64,9.07,2.14-2.77,3.09-5,2.63-6.65-.14-.53-1.09,1.27-2.78,1.58a8.4,8.4,0,0,0,.51-3.81A10.8,10.8,0,0,1,30,79.3c3-4.62,8.21-6.39,9.31-6.88Z"/><path class="cls-6" d="M40.47,73.07c.29,1.23.36,5.7-.82,7.73S33.78,85,31.65,87c.52-2.18,1.08-2.93.84-4.79A5.7,5.7,0,0,1,32.62,79c.29-1,2.19-3.15,4.14-4.77a12.67,12.67,0,0,1,2.55-1.89Z"/><path class="cls-7" d="M40.47,73.07c.09,1.48-.32,5.6-1.62,6.69s-2.34.75-4.52,2.28c0-.9,1.34-2.27,1-3.23-.53.45-.73.83-1.44,1,.61-.76.61-1.82,1.12-2.92.59-1.28,1.87-2.07,2.87-2.94a8.93,8.93,0,0,0,1.43-1.58Z"/><path class="cls-8" d="M39.66,73.67c2.17,1.23,4.22,1.73,4.56,1.11l-.63,1.11c-.34.62-2.38.12-4.55-1.11s-3.66-2.72-3.31-3.33l.63-1.15C36,71,37.49,72.44,39.66,73.67Z"/><path class="cls-8" d="M38.91,75c1.63.92,3.17,1.29,3.43.83l-.47.84c-.26.46-1.8.09-3.43-.84s-2.75-2-2.49-2.54l.47-.83C36.16,73,37.31,74.08,38.91,75Z"/><path class="cls-9" d="M51.06,60.4A31.22,31.22,0,0,1,47.15,71L44.94,74.9a21.58,21.58,0,0,1-5.06-1.6,21.9,21.9,0,0,1-4-3.44s.86-1.68,2.16-4a31.18,31.18,0,0,1,7.12-8.74,14.76,14.76,0,0,0,5.89,3.3Z"/><path class="cls-10" d="M50.49,54.45c.51.29,1.11,2.43.57,6a14.76,14.76,0,0,1-5.89-3.3C47.85,54.9,50,54.17,50.49,54.45Z"/><path class="cls-8" d="M40.51,72.17c2.52,1.42,4.89,2,5.3,1.29l-.73,1.28c-.4.71-2.77.14-5.29-1.29S35.56,70.3,36,69.59l.73-1.29C36.31,69,38,70.74,40.51,72.17Z"/><path class="cls-11" d="M36.31,70.77a9.44,9.44,0,0,0,1,1c0,.06-.06.11-.09.18A3.74,3.74,0,0,1,36.31,70.77Z"/><path class="cls-11" d="M36.42,72.87l.25.24v.11A2.8,2.8,0,0,1,36.42,72.87Z"/><path class="cls-12" d="M37.24,72c-.2.39-.38.78-.57,1.16l-.25-.24a.44.44,0,0,1,0-.39l-.13.23c-.49-.53-.72-1-.56-1.28l.48-.85.14.19A4,4,0,0,0,37.24,72Z"/><path class="cls-12" d="M36.42,72.87a2.5,2.5,0,0,0,.21.35c-.15.3-.28.6-.41.9-.28-.33-.39-.62-.28-.8l.34-.61.13-.23A.41.41,0,0,0,36.42,72.87Z"/><path class="cls-13" d="M39,68.66c-.34.6-.66,1.19-1,1.78-1-.81-1.49-1.56-1.4-2,.37-.68.85-1.58,1.43-2.59a31,31,0,0,1,7.11-8.75,15.27,15.27,0,0,0,1.32,1.09A55.62,55.62,0,0,0,39,68.66Z"/><path class="cls-14" d="M45.15,57.08c2.69-2.2,4.83-2.92,5.32-2.64a.48.48,0,0,1,.2.2,18.9,18.9,0,0,0-4.2,3.53A15.27,15.27,0,0,1,45.15,57.08Z"/><path class="cls-12" d="M38,70.44c-.24.44-.45.88-.68,1.33a9.44,9.44,0,0,1-1-1l-.14-.19a1.51,1.51,0,0,1-.31-.75h0a.53.53,0,0,1,0-.25l.78-1.28a.39.39,0,0,0,0,.13C36.52,68.88,37.06,69.63,38,70.44Z"/><path class="cls-5" d="M33,72c.43,2.87,1,8.4-.43,11.37-2.15,4.58-8.68,8-11.64,9.07,2.14-2.77,3.09-5,2.64-6.65-.15-.53-1.1,1.27-2.79,1.58a8.14,8.14,0,0,0,.55-3.81,11.14,11.14,0,0,1,1.21-5.38c3-4.62,8.21-6.39,9.31-6.88Z"/><path class="cls-6" d="M33,72c.29,1.23.37,5.7-.83,7.74s-5.86,4.14-8,6.18c.52-2.18,1.08-2.93.84-4.79A5.79,5.79,0,0,1,25.13,78c.29-1,2.18-3.15,4.13-4.77a13.19,13.19,0,0,1,2.53-1.88Z"/><path class="cls-7" d="M33,72c.09,1.48-.32,5.6-1.62,6.69S29,79.43,26.84,81c0-.9,1.34-2.27.94-3.23-.53.45-.72.83-1.44,1,.61-.76.61-1.82,1.12-2.92.6-1.28,1.87-2.07,2.87-2.94a9,9,0,0,0,1.46-1.57Z"/><path class="cls-8" d="M32.17,72.59c2.14,1.23,4.23,1.71,4.56,1.11l-.62,1.11c-.35.61-2.39.12-4.56-1.11S27.9,71,28.24,70.37l.63-1.07C28.52,69.87,30,71.36,32.17,72.59Z"/><path class="cls-8" d="M31.42,73.93c1.64.92,3.17,1.29,3.43.83l-.47.84c-.26.46-1.8.08-3.43-.84s-2.75-2-2.49-2.51l.47-.83C28.67,71.88,29.79,73,31.42,73.93Z"/><path class="cls-9" d="M43.58,59.3a31.27,31.27,0,0,1-3.92,10.6l-2.21,3.91a21,21,0,0,1-5.06-1.61,22.24,22.24,0,0,1-4-3.44s.86-1.69,2.17-4A31,31,0,0,1,37.67,56a16.07,16.07,0,0,0,2.71,2A14.76,14.76,0,0,0,43.58,59.3Z"/><path class="cls-10" d="M43,53.37c.52.29,1.11,2.43.58,6A14.08,14.08,0,0,1,40.4,58a15.3,15.3,0,0,1-2.71-2C40.38,53.82,42.51,53.09,43,53.37Z"/><path class="cls-8" d="M33,71.08c2.53,1.43,4.89,2,5.3,1.3l-.73,1.28c-.41.71-2.77.14-5.29-1.29s-4.24-3.15-3.84-3.86l.72-1.29C28.79,67.93,30.5,69.66,33,71.08Z"/><path class="cls-11" d="M28.85,69.69a7.87,7.87,0,0,0,1,1l-.09.17A3.59,3.59,0,0,1,28.85,69.69Z"/><path class="cls-11" d="M28.93,71.79l.26.24a1,1,0,0,0,0,.1A1.79,1.79,0,0,1,28.93,71.79Z"/><path class="cls-12" d="M29.75,70.86,29.19,72l-.26-.24a.53.53,0,0,1,0-.39l-.12.23c-.49-.54-.71-1-.56-1.28l.49-.85a1.15,1.15,0,0,0,.14.19A3.54,3.54,0,0,0,29.75,70.86Z"/><path class="cls-12" d="M28.93,71.79a2.39,2.39,0,0,0,.21.34c-.14.31-.28.61-.41.91-.28-.33-.39-.62-.29-.8l.34-.61.13-.23A.53.53,0,0,0,28.93,71.79Z"/><path class="cls-13" d="M31.49,67.58c-.34.59-.66,1.19-1,1.78-.94-.81-1.49-1.56-1.4-2,.38-.68.85-1.58,1.43-2.59A30.91,30.91,0,0,1,37.65,56,12.62,12.62,0,0,0,39,57.11,55.54,55.54,0,0,0,31.49,67.58Z"/><path class="cls-14" d="M37.67,56c2.68-2.2,4.82-2.92,5.32-2.64a.64.64,0,0,1,.2.2A18.46,18.46,0,0,0,39,57.09,13.89,13.89,0,0,1,37.67,56Z"/><path class="cls-12" d="M30.52,69.36l-.68,1.33a7.87,7.87,0,0,1-1-1l-.14-.19a1.62,1.62,0,0,1-.32-.75h0a.66.66,0,0,1,.05-.25l.73-1.28s0,.08-.05.13C29,67.8,29.58,68.55,30.52,69.36Z"/><path class="cls-15" d="M73.69,49.22c.69-1.06,2.54-3.26,4.78-1.3s-1.35,4.29-1.35,4.29Z"/><path class="cls-16" d="M44.42,78.57c-2-.47-2.41.17-2.41.17l.3,1.38h0c.13.8.45,1.85.66,2.94.4,2.16.65,4.39,1.56,4.2,1.28-.26,1.91-2.41,1.41-4.81a6.35,6.35,0,0,0-.34-1.15,9.87,9.87,0,0,0,1.91.41s-1.16-4.25-1.48-4.1S44.78,78.67,44.42,78.57Z"/><path class="cls-17" d="M50,72.65a3.29,3.29,0,0,1,1.55,1.53c.12.45.18.89.27,1.34a20.83,20.83,0,0,1,.32,2.62,18.51,18.51,0,0,1,0,2.58L52,82a1.7,1.7,0,0,1-.07.63c-.11.2-.34.37-1,.49L39.25,81.3c-.56-.3-.73-.54-.77-.77a3.09,3.09,0,0,1,.12-.62l.33-1.24a20.88,20.88,0,0,1,1.89-4.85c.22-.4.41-.8.66-1.19a3.26,3.26,0,0,1,1.94-1Z"/><path class="cls-15" d="M36.94,76.3c-1-1.8-1.75-1.66-1.75-1.66l-.82,1.14h0c-.5.65-1.06,1.59-1.72,2.48-1.32,1.75-2.79,3.45-2,4,1,.76,3.07-.23,4.5-2.21a10.47,10.47,0,0,0,.63-1,2.46,2.46,0,0,0,1.8.36s1.52-2.41,1.2-2.54S37.11,76.65,36.94,76.3Z"/><path class="cls-18" d="M44.5,72.19a3.17,3.17,0,0,1,.75,2c-.08.46-.21.88-.32,1.33A20.48,20.48,0,0,1,44.1,78,22,22,0,0,1,43,80.4l-.61,1.13a2.18,2.18,0,0,1-.33.54c-.18.13-.47.2-1.08,0l-9.86-6.65c-.38-.51-.43-.8-.38-1a2.82,2.82,0,0,1,.38-.51l.82-1c.55-.65,1.13-1.29,1.75-1.89a22.77,22.77,0,0,1,2-1.7c.37-.27.71-.55,1.11-.79A3.18,3.18,0,0,1,39,68.46Z"/><path class="cls-18" d="M53,64.12c.3-.75.46-1,.62-1.1l.43-.4a3.39,3.39,0,0,1,.77-.55,4,4,0,0,1,1.38-.61,13.57,13.57,0,0,0,2.71-1.16,32.31,32.31,0,0,0,5-3.59c.8-.68,1.58-1.39,2.35-2.12l2.24-2.2c.74-.73,1.46-1.47,2.1-2.21a3.66,3.66,0,0,1,1-1,3,3,0,0,1,.73-.28,1.37,1.37,0,0,1,.57,0l.42.06a4.21,4.21,0,0,1,1.22.42l3,1.44c.86.51,1,.69,1,.82l.2.45a2,2,0,0,1,.12.76,5.62,5.62,0,0,1-.23,1.21,6,6,0,0,1-1.11,1.85,28.25,28.25,0,0,1-2.69,3,25.17,25.17,0,0,1-3,2.54,33.72,33.72,0,0,1-3.33,2.14A28,28,0,0,1,61,66.49a21.81,21.81,0,0,1-4.19.5,7.85,7.85,0,0,1-1.08-.08,6.88,6.88,0,0,1-1.08-.37,3.38,3.38,0,0,1-1-.67c-.16-.16-.3-.36-.44-.53s-.27-.45-.26-1.24Z"/><path class="cls-19" d="M62.22,57.77A9.6,9.6,0,1,1,57.64,45h0a9.57,9.57,0,0,1,4.58,12.75Z"/><path class="cls-19" d="M55.31,73.93l.17-.36a.28.28,0,0,0,0-.13c2.61-6.44,3.05-12.85-4.81-16.56h0c-7.94-3.75-14.1,2.73-17.79,12.2h0c-1.65,3.51,4,5.89,8.75,8.13,5.5,2.61,10,4.38,11.21,1.87l1.21-2.56A21.11,21.11,0,0,0,55.31,73.93Z"/><path class="cls-20" d="M54.54,68.49c-.88-.56-1.25-2.1-2.32-3.19-1.5-1.5-1.48-3.37-1.57-2.57s-.84,1-.82.88.18.18.34-1S49,60.47,48.56,58.15a12.5,12.5,0,0,1-.25-2.51,4.89,4.89,0,0,0-.39.94c-.18-7.37,3.41-10.64,3.82-10.81a2.42,2.42,0,0,0-1.18.28c1.36-2,2.88-1.79,3.11-1.77a1.25,1.25,0,0,0-1-.51,3,3,0,0,1,2.76-1,1.07,1.07,0,0,1,.81.79,2,2,0,0,1,1.92-2.07c-1.32,2-.88,1.67-.83,1.77a6,6,0,0,1,2.52-.65,1.23,1.23,0,0,0-.71.52c1.21-.22,2.58-.63,4.49,1.48a3,3,0,0,0-1.74.08,8.53,8.53,0,0,1,3.91,7c-.15-.14-1-1-1.12-.91.56.72,2.39,3.23-.81,10.49,0-.42,0-1.38-.21-1.41.1.76-1,2.71-3.46,4.13C56.74,66,55.22,67.07,54.54,68.49Z"/><path class="cls-15" d="M62.88,55.56c.84-3.61-.72-7.08-3.3-7.68s-5.34,1.85-6.18,5.42A8.25,8.25,0,0,0,54,58.91c.88,1.65,1.61,3,1.46,4.45.88-1.81,2.31-2.08,4.15-3.08A7.3,7.3,0,0,0,62.88,55.56Z"/><path class="cls-21" d="M63.16,54.62c-.54,3.55-2.86,6.22-5.57,5.8S52.5,56.57,53.05,53s3.18-6.08,5.89-5.67S63.72,51.07,63.16,54.62Z"/><path class="cls-22" d="M59.75,52.44a4.85,4.85,0,0,1,1.14.19,2,2,0,0,1,1,.51,2,2,0,0,0-1-.23,3.78,3.78,0,0,0-1,.1Z"/><path class="cls-22" d="M58.2,52.79a4.47,4.47,0,0,0-1-.44,2.19,2.19,0,0,0-1.08-.1,2.23,2.23,0,0,1,1.19-.18,4.48,4.48,0,0,1,1.16.21Z"/><polygon class="cls-23" points="57.94 53.49 56.97 53.02 58.06 53.13 57.94 53.49"/><path class="cls-23" d="M59.75,53.3h.7a2.66,2.66,0,0,1,.69,0,3.17,3.17,0,0,0-.67.13l-.65.2Z"/><path class="cls-24" d="M57.76,54.61a1.13,1.13,0,0,0,.26,1,1.46,1.46,0,0,0,.85.42,1,1,0,0,0,.87-.23,1.08,1.08,0,0,0,.29-.39.86.86,0,0,0,.11-.52A1,1,0,0,1,60,56a1.19,1.19,0,0,1-1.14.4,1.47,1.47,0,0,1-1-.62A1,1,0,0,1,57.76,54.61Z"/><path class="cls-23" d="M57,57.3a1.06,1.06,0,0,0,.52.46.3.3,0,0,1,.26.09c.08.09.17.09.26.13a1.65,1.65,0,0,0,.65.14,1.45,1.45,0,0,0,.71-.19,1.33,1.33,0,0,1-.61.56,1.88,1.88,0,0,1-.88.18,1.52,1.52,0,0,1-.47-.1,1.37,1.37,0,0,1-.37-.35A.9.9,0,0,1,57,57.3Z"/><path class="cls-25" d="M58,47.3a4.4,4.4,0,0,1,2.06.35,6.31,6.31,0,0,1,2.85,3.41,1.84,1.84,0,0,0-1.53-.24l-.27.08-.48-1.77-.43,2c-3,.57-5.74-2.3-6.64-.07A5.71,5.71,0,0,1,58,47.3"/><path class="cls-15" d="M28.07,66.06c-1.2,0-3.89-.38-3.48-3.24s1.47-1.63,2-1.34a2.73,2.73,0,0,0,2,.2Z"/><path class="cls-18" d="M46.31,59.56a2.38,2.38,0,0,1,.34,1.17,5.23,5.23,0,0,1,0,.56,2.63,2.63,0,0,1-.27.85,2.66,2.66,0,0,1-1.07,1.16c-.75.52-1.5,1.08-2.3,1.56a23.84,23.84,0,0,1-5.09,2.44,20,20,0,0,1-5.68,1.06,24.86,24.86,0,0,1-2.86-.11,2.61,2.61,0,0,1-2-.88,1.83,1.83,0,0,1-.29-.53l-.11-.4a4.05,4.05,0,0,1,0-1.3l.47-3.34a4.77,4.77,0,0,1,.31-1.25l.2-.37a1.87,1.87,0,0,1,.33-.45,3.24,3.24,0,0,1,.6-.39A1.93,1.93,0,0,1,30,59.2h6.28a39.47,39.47,0,0,0,4.36-.42c.38-.05.75-.13,1.12-.21a10,10,0,0,0,1.11-.28,2,2,0,0,1,.59-.11,3.82,3.82,0,0,1,.68.06,2.24,2.24,0,0,1,.81.24l.5.25c.16.07.36.24.86.86Z"/></g><g class="cls-4"><path class="cls-5" d="M104.12,120.84c.5,3.29,1.1,9.65-.5,13-2.47,5.26-10,9.15-13.35,10.41,2.46-3.17,3.55-5.74,3-7.63-.17-.61-1.26,1.46-3.2,1.81a9.58,9.58,0,0,0,.59-4.37c0-1.62.3-4.52,1.39-6.17,3.47-5.31,9.42-7.34,10.68-7.9Z"/><path class="cls-6" d="M104.12,120.84c.33,1.42.41,6.54-1,8.88s-6.74,4.75-9.2,7.1c.59-2.5,1.24-3.36,1-5.5a6.62,6.62,0,0,1,.16-3.64c.33-1.19,2.51-3.61,4.74-5.47A14.83,14.83,0,0,1,102.7,120Z"/><path class="cls-7" d="M104.12,120.84c.1,1.7-.38,6.43-1.86,7.67s-2.68.87-5.2,2.62c0-1,1.54-2.6,1.09-3.71-.62.53-.84,1-1.66,1.17.7-.88.7-2.09,1.29-3.35.69-1.47,2.14-2.38,3.3-3.38a9.87,9.87,0,0,0,1.66-1.82Z"/><path class="cls-8" d="M103.19,121.53c2.49,1.41,4.83,2,5.23,1.28l-.72,1.27c-.4.7-2.73.13-5.23-1.28s-4.2-3.12-3.8-3.82l.72-1.27C99,118.41,100.69,120.12,103.19,121.53Z"/><path class="cls-8" d="M102.31,123.06c1.88,1.06,3.64,1.49,4,1l-.54,1c-.31.53-2.06.1-4-1s-3.16-2.35-2.86-2.88l.54-1C99.16,120.71,100.44,122,102.31,123.06Z"/><path class="cls-9" d="M116.31,106.3a36.23,36.23,0,0,1-4.48,12.14l-2.55,4.49a24.21,24.21,0,0,1-5.8-1.85,25.29,25.29,0,0,1-4.58-4s1-1.93,2.48-4.59a35.39,35.39,0,0,1,8.17-10,17.25,17.25,0,0,0,6.76,3.81Z"/><path class="cls-10" d="M115.62,99.47c.58.33,1.28,2.79.66,6.83a16.89,16.89,0,0,1-6.76-3.79C112.59,100,115.05,99.15,115.62,99.47Z"/><path class="cls-8" d="M104.16,119.8c2.9,1.64,5.61,2.3,6.08,1.49l-.83,1.47c-.46.82-3.18.15-6.07-1.48s-4.87-3.62-4.42-4.44l.84-1.48C99.31,116.18,101.31,118.17,104.16,119.8Z"/><path class="cls-11" d="M99.37,118.2a9.13,9.13,0,0,0,1.14,1.1l-.11.21A4.1,4.1,0,0,1,99.37,118.2Z"/><path class="cls-11" d="M99.47,120.61l.29.28V121A1.76,1.76,0,0,1,99.47,120.61Z"/><path class="cls-12" d="M100.4,119.55c-.22.45-.44.89-.65,1.34l-.29-.28a.56.56,0,0,1,0-.44l-.15.26c-.56-.62-.82-1.15-.64-1.47l.55-1c0,.07.11.14.16.22A4.16,4.16,0,0,0,100.4,119.55Z"/><path class="cls-12" d="M99.47,120.61a2.3,2.3,0,0,0,.23.4l-.48,1c-.31-.39-.44-.72-.32-.92l.39-.7.15-.26A.51.51,0,0,0,99.47,120.61Z"/><path class="cls-13" d="M102.4,115.78c-.39.66-.76,1.33-1.11,2-1.09-.93-1.71-1.79-1.61-2.32.42-.78,1-1.81,1.64-3a35.74,35.74,0,0,1,8.17-10A16.31,16.31,0,0,0,111,103.7,64.16,64.16,0,0,0,102.4,115.78Z"/><path class="cls-14" d="M109.49,102.49c3.09-2.53,5.54-3.35,6.1-3a.56.56,0,0,1,.24.22,21.52,21.52,0,0,0-4.82,4.05A15.49,15.49,0,0,1,109.49,102.49Z"/><path class="cls-12" d="M101.31,117.82c-.26.51-.53,1-.78,1.52a10.32,10.32,0,0,1-1.15-1.14c0-.08-.11-.15-.16-.22a2,2,0,0,1-.36-.86h0a.64.64,0,0,1,.06-.28l.84-1.48a1.16,1.16,0,0,0-.06.15C99.58,116,100.2,116.89,101.31,117.82Z"/><path class="cls-5" d="M95.51,119.6c.5,3.29,1.1,9.65-.49,13-2.47,5.26-10,9.14-13.36,10.41,2.46-3.17,3.56-5.74,3-7.63-.17-.61-1.26,1.46-3.19,1.81a9.59,9.59,0,0,0,.58-4.37c0-1.62.3-4.52,1.38-6.17,3.48-5.31,9.43-7.34,10.69-7.9Z"/><path class="cls-6" d="M95.51,119.6c.34,1.42.43,6.54-.94,8.88s-6.73,4.75-9.21,7.1c.59-2.5,1.24-3.36,1-5.5a6.72,6.72,0,0,1,.16-3.64c.33-1.19,2.51-3.61,4.74-5.47a15.44,15.44,0,0,1,2.93-2.17Z"/><path class="cls-7" d="M95.51,119.6c.1,1.7-.36,6.43-1.86,7.67s-2.67.87-5.19,2.62c0-1,1.55-2.6,1.09-3.71-.61.53-.83,1-1.65,1.17.69-.88.69-2.09,1.28-3.35.69-1.47,2.15-2.38,3.29-3.38a10,10,0,0,0,1.68-1.82Z"/><path class="cls-8" d="M94.59,120.3c2.49,1.41,4.84,2,5.24,1.28l-.71,1.27c-.4.7-2.74.13-5.24-1.28s-4.19-3.12-3.79-3.82l.72-1.27C90.4,117.17,92.1,118.88,94.59,120.3Z"/><path class="cls-8" d="M93.73,121.82c1.87,1.06,3.64,1.49,3.94,1l-.55,1c-.29.53-2.06.1-3.94-1s-3.15-2.35-2.85-2.88l.54-1C90.58,119.47,91.85,120.76,93.73,121.82Z"/><path class="cls-9" d="M107.69,105.06a36.48,36.48,0,0,1-4.5,12.14c-1.45,2.58-2.54,4.49-2.54,4.49a24.14,24.14,0,0,1-5.81-1.85,25.68,25.68,0,0,1-4.58-4s1-1.93,2.49-4.59a35.39,35.39,0,0,1,8.17-10,16.92,16.92,0,0,0,6.76,3.79Z"/><path class="cls-10" d="M107,98.23c.59.33,1.27,2.79.67,6.83a16.89,16.89,0,0,1-6.77-3.79C104,98.74,106.45,97.91,107,98.23Z"/><path class="cls-8" d="M95.58,118.56c2.89,1.64,5.61,2.3,6.07,1.48l-.84,1.48c-.47.82-3.18.15-6.08-1.48s-4.86-3.62-4.4-4.44l.83-1.48C90.7,114.94,92.67,116.93,95.58,118.56Z"/><path class="cls-11" d="M90.77,117a10.23,10.23,0,0,0,1.14,1.14l-.1.21A4.29,4.29,0,0,1,90.77,117Z"/><path class="cls-11" d="M90.87,119.37l.29.28v.12A2.7,2.7,0,0,1,90.87,119.37Z"/><path class="cls-12" d="M91.81,118.3l-.65,1.34-.29-.28a.49.49,0,0,1,0-.44l-.15.26c-.57-.62-.83-1.15-.64-1.47l.55-1,.17.22A4,4,0,0,0,91.81,118.3Z"/><path class="cls-12" d="M90.87,119.37a3.26,3.26,0,0,0,.24.4c-.17.35-.32.69-.48,1-.31-.39-.44-.72-.33-.93l.4-.69.15-.26A.48.48,0,0,0,90.87,119.37Z"/><path class="cls-13" d="M93.81,114.54c-.39.68-.76,1.36-1.12,2-1.08-.93-1.7-1.79-1.6-2.32.42-.78,1-1.81,1.63-3a35.74,35.74,0,0,1,8.17-10c.48.44,1,.85,1.51,1.24A64.11,64.11,0,0,0,93.81,114.54Z"/><path class="cls-14" d="M100.9,101.3c3.08-2.53,5.54-3.35,6.11-3a.81.81,0,0,1,.22.23,22,22,0,0,0-4.82,4A15,15,0,0,1,100.9,101.3Z"/><path class="cls-12" d="M92.69,116.58c-.27.51-.53,1-.78,1.52A10.23,10.23,0,0,1,90.77,117l-.16-.22a1.82,1.82,0,0,1-.36-.86h0a.6.6,0,0,1,.06-.27l.83-1.48v.15C91,114.79,91.62,115.65,92.69,116.58Z"/><path class="cls-15" d="M142.23,93.46c.8-1.22,2.92-3.74,5.5-1.49s-1.54,4.92-1.54,4.92Z"/><path class="cls-16" d="M108.65,127.15c-2.31-.54-2.77.19-2.77.19l.34,1.59h0c.16.92.51,2.13.75,3.38.45,2.48.76,5,1.79,4.82,1.47-.3,2.19-2.77,1.62-5.52a7.59,7.59,0,0,0-.37-1.34,11.52,11.52,0,0,0,2.19.46s-1.33-4.88-1.7-4.7S109.06,127.3,108.65,127.15Z"/><path class="cls-17" d="M114.55,120.3a3.29,3.29,0,0,1,1.51,1.71c.11.51.16,1,.25,1.52.12,1,.23,2,.25,3a29.1,29.1,0,0,1-.06,2.95l-.1,1.46a3.63,3.63,0,0,1-.08.73c-.12.22-.36.43-1,.58l-11.74-1.84c-.55-.33-.72-.61-.76-.86a2.87,2.87,0,0,1,.14-.72l.36-1.42a26.93,26.93,0,0,1,.84-2.82c.32-.94.74-1.86,1.16-2.78.24-.46.44-.92.7-1.37a3.3,3.3,0,0,1,2-1.17Z"/><path class="cls-15" d="M100.06,124.57c-1.16-2.07-2-1.91-2-1.91L97.12,124h0c-.57.75-1.21,1.83-2,2.85-1.52,2-3.2,4-2.34,4.58,1.21.87,3.53-.26,5.17-2.54a9.81,9.81,0,0,0,.74-1.19c.57.46,1.08.44,2,.41,0,0,1.77-2.77,1.38-2.92S100.26,125,100.06,124.57Z"/><path class="cls-18" d="M108.31,119.56a3.21,3.21,0,0,1,.64,2.2c-.11.51-.28,1-.42,1.47a24.41,24.41,0,0,1-1,2.83,26.9,26.9,0,0,1-1.3,2.64l-.71,1.29a4.41,4.41,0,0,1-.37.62,1.32,1.32,0,0,1-1.14.11l-9.86-6.65a1.25,1.25,0,0,1-.32-1.1,2.29,2.29,0,0,1,.43-.59l.91-1.13a27.92,27.92,0,0,1,2-2.2,26.32,26.32,0,0,1,2.23-2c.41-.31.79-.64,1.22-.94a3.21,3.21,0,0,1,2.26-.23Z"/><path class="cls-18" d="M118.51,110.57a2.54,2.54,0,0,1,.69-1.09l.5-.39a4.18,4.18,0,0,1,.9-.55,5.52,5.52,0,0,1,1.64-.61,14.55,14.55,0,0,0,3.21-1.25,24.94,24.94,0,0,0,3.06-1.86,31.55,31.55,0,0,0,2.9-2.2c.9-.77,1.87-1.6,2.77-2.43s1.77-1.71,2.63-2.56,1.7-1.72,2.47-2.6a5.17,5.17,0,0,1,1.19-1.19,3.66,3.66,0,0,1,.79-.4,1.5,1.5,0,0,1,.6-.06h.42a3.37,3.37,0,0,1,1.25.39l3,1.44c.85.52,1,.71,1,.85l.19.48a2.25,2.25,0,0,1,.09.82,7.63,7.63,0,0,1-.3,1.32,7.17,7.17,0,0,1-1.28,2,34.41,34.41,0,0,1-3,3.4,29.76,29.76,0,0,1-3.42,2.9,40.93,40.93,0,0,1-3.75,2.45,32,32,0,0,1-8.48,3.37,24.13,24.13,0,0,1-4.7.62,8.11,8.11,0,0,1-1.21-.06,9.44,9.44,0,0,1-1.21-.37,4.36,4.36,0,0,1-1.14-.68c-.17-.17-.34-.37-.5-.55s-.31-.45-.32-1.24Z"/><path class="cls-19" d="M129.09,103.3a11,11,0,1,1-5.25-14.66,11,11,0,0,1,5.25,14.66Z"/><path class="cls-19" d="M121.16,121.83l.2-.42a.33.33,0,0,0,0-.14c3-7.4,3.51-14.76-5.51-19h0c-9.11-4.3-16.19,3.14-20.43,14h0c-1.88,4,4.61,6.76,10,9.33,6.32,3,11.54,5,12.87,2.15l1.39-2.94A21.11,21.11,0,0,0,121.16,121.83Z"/><path class="cls-20" d="M120.31,115.58c-1-.64-1.44-2.41-2.69-3.66-1.72-1.73-1.68-3.86-1.8-2.94s-.94,1.13-.92,1,.2.21.37-1.17-1.3-2.46-1.83-5.11a14.66,14.66,0,0,1-.31-2.87,5.13,5.13,0,0,0-.45,1.08c-.22-8.46,3.9-12.21,4.39-12.41a2.82,2.82,0,0,0-1.37.32c1.56-2.23,3.3-2,3.57-2a1.44,1.44,0,0,0-1.17-.58,3.34,3.34,0,0,1,3.17-1.14,1.28,1.28,0,0,1,.92.91,2.26,2.26,0,0,1,2.12-2.41c-1.51,2.29-1,1.92-1,2s1.63-.94,2.89-.75a1.3,1.3,0,0,0-.8.6c1.37-.25,3-.72,5.13,1.7a3.34,3.34,0,0,0-2,.08,9.8,9.8,0,0,1,4.59,8.07c-.17-.17-1.11-1.16-1.28-1,.64.83,2.75,3.7-.92,12,.05-.47,0-1.58-.25-1.61.11.88-1.11,3.11-4,4.74C122.8,112.67,121.05,114,120.31,115.58Z"/><path class="cls-15" d="M129.84,100.74c1-4.14-.83-8.13-3.79-8.81s-6.13,2.12-7.09,6.27a9.41,9.41,0,0,0,.71,6.43c1,1.9,1.84,3.47,1.67,5.11,1-2.08,2.66-2.38,4.77-3.54A8.4,8.4,0,0,0,129.84,100.74Z"/><path class="cls-21" d="M130.17,99.66c-.64,4.07-3.29,7.14-6.4,6.66s-5.85-4.42-5.21-8.49,3.65-7,6.76-6.51S130.79,95.59,130.17,99.66Z"/><path class="cls-22" d="M126.26,97.21a5.31,5.31,0,0,1,1.3.19,2.36,2.36,0,0,1,1.14.56,2.33,2.33,0,0,0-1.19-.29,5,5,0,0,0-1.21.1Z"/><path class="cls-22" d="M124.48,97.53a4.55,4.55,0,0,0-1.13-.49,2.34,2.34,0,0,0-1.23-.09,2.47,2.47,0,0,1,1.29-.19,5.51,5.51,0,0,1,1.32.26Z"/><polygon class="cls-23" points="124.17 98.34 123.05 97.81 124.3 97.98 124.17 98.34"/><path class="cls-23" d="M126.26,98.21h.8a3,3,0,0,1,.79.05,3.27,3.27,0,0,0-.77.14q-.37.09-.75.21Z"/><path class="cls-24" d="M124,99.65a1.26,1.26,0,0,0,.27,1.1,1.63,1.63,0,0,0,1,.5,1.17,1.17,0,0,0,1-.27,1.52,1.52,0,0,0,.34-.47,1.11,1.11,0,0,0,.11-.59,1.24,1.24,0,0,1-.24,1.26,1.35,1.35,0,0,1-1.29.44,1.68,1.68,0,0,1-1.16-.7A1.15,1.15,0,0,1,124,99.65Z"/><path class="cls-23" d="M123,102.73a1.26,1.26,0,0,0,.56.56c.1,0,.21.07.31.12a2.37,2.37,0,0,0,.32.15,2.22,2.22,0,0,0,.76.14,1.75,1.75,0,0,0,.81-.25,1.54,1.54,0,0,1-.71.62,2.4,2.4,0,0,1-1,.18,1.63,1.63,0,0,1-.52-.12,1.36,1.36,0,0,1-.41-.38A1,1,0,0,1,123,102.73Z"/><path class="cls-25" d="M124.31,91.3a5.14,5.14,0,0,1,2.36.4c2,.84,3,3.27,3.28,3.9a2.16,2.16,0,0,0-1.75-.27l-.31.1-.55-2-.49,2.32c-3.41.66-6.6-2.64-7.63-.08,1-2.42,3-4.19,5.12-4.35"/><path class="cls-15" d="M89.88,112.79c-1.37,0-4.46-.43-4-3.71s1.7-1.88,2.36-1.54a3.17,3.17,0,0,0,2.34.22Z"/><path class="cls-18" d="M110.77,105.3a2.15,2.15,0,0,1,.29,1.19,1.48,1.48,0,0,1-.08.59,3.3,3.3,0,0,1-.35.9,3.2,3.2,0,0,1-1.1,1.18c-.42.3-.85.59-1.29.88s-.87.57-1.33.84a27.92,27.92,0,0,1-5.85,2.69,23.22,23.22,0,0,1-6.41,1.15,26.92,26.92,0,0,1-3.23-.13,4.08,4.08,0,0,1-1.57-.35,4.89,4.89,0,0,1-.74-.55,2.2,2.2,0,0,1-.32-.53l-.14-.41a4.64,4.64,0,0,1,0-1.3l.46-3.34c.2-1,.28-1.17.35-1.25l.21-.37a1.8,1.8,0,0,1,.38-.44,3.88,3.88,0,0,1,.69-.38,2.89,2.89,0,0,1,1.27-.13h2.46c1.63,0,3.26,0,4.91-.12a40.82,40.82,0,0,0,5.07-.63c.43-.08.86-.17,1.28-.29a12.63,12.63,0,0,0,1.28-.35,2.69,2.69,0,0,1,.67-.15,4.82,4.82,0,0,1,.76,0,2.45,2.45,0,0,1,.89.19l.53.23c.17.07.4.23.91.84Z"/></g><g class="cls-4"><path class="cls-5" d="M183,107.3c.45,2.87,1,8.41-.42,11.37-2.15,4.59-8.68,8-11.63,9.07,2.14-2.77,3.08-5,2.63-6.65-.15-.52-1.1,1.27-2.79,1.58a8.55,8.55,0,0,0,.52-3.81,10.8,10.8,0,0,1,1.2-5.38c3-4.62,8.22-6.39,9.31-6.88Z"/><path class="cls-6" d="M183,107.3c.31,1.24.37,5.7-.82,7.74s-5.87,4.14-8,6.19c.51-2.19,1.08-2.94.83-4.8a6,6,0,0,1,.14-3.17c.29-1,2.19-3.15,4.13-4.77a13.88,13.88,0,0,1,2.56-1.89Z"/><path class="cls-7" d="M183,107.3c.09,1.48-.32,5.6-1.61,6.69s-2.33.75-4.52,2.28c0-.89,1.33-2.27.94-3.23-.53.46-.72.83-1.43,1,.6-.77.6-1.83,1.12-2.93.6-1.28,1.87-2.07,2.86-2.94a8.81,8.81,0,0,0,1.46-1.59Z"/><path class="cls-8" d="M182.23,107.94c2.17,1.23,4.22,1.73,4.56,1.12l-.63,1.1c-.35.62-2.39.12-4.56-1.11s-3.65-2.72-3.31-3.33l.63-1.11C178.59,105.22,180.06,106.71,182.23,107.94Z"/><path class="cls-8" d="M181.48,109.3c1.64.92,3.17,1.3,3.44.84l-.48.83c-.26.46-1.79.09-3.43-.84s-2.75-2-2.49-2.51l.47-.83C178.73,107.23,179.84,108.35,181.48,109.3Z"/><path class="cls-9" d="M193.64,94.67a31.44,31.44,0,0,1-3.93,10.63l-2.21,3.92a21.41,21.41,0,0,1-5.05-1.62,21.9,21.9,0,0,1-4-3.44s.85-1.68,2.16-4a31,31,0,0,1,7.12-8.74,14.63,14.63,0,0,0,2.7,2A13.62,13.62,0,0,0,193.64,94.67Z"/><path class="cls-10" d="M193.06,88.72c.52.3,1.11,2.43.58,6a15.69,15.69,0,0,1-5.89-3.42C190.42,89.17,192.56,88.45,193.06,88.72Z"/><path class="cls-8" d="M183.09,106.44c2.52,1.42,4.89,2,5.28,1.29l-.72,1.29c-.4.71-2.78.13-5.29-1.3s-4.24-3.15-3.84-3.86l.73-1.29C178.84,103.3,180.56,105,183.09,106.44Z"/><path class="cls-11" d="M178.9,105a9.44,9.44,0,0,0,1,1l-.09.18A3.5,3.5,0,0,1,178.9,105Z"/><path class="cls-11" d="M179,107.14l.26.24-.05.11A2.5,2.5,0,0,1,179,107.14Z"/><path class="cls-12" d="M179.81,106.22l-.56,1.16-.26-.24a.42.42,0,0,1,0-.38l-.12.22c-.5-.53-.72-1-.56-1.27l.48-.86.14.19A3.38,3.38,0,0,0,179.81,106.22Z"/><path class="cls-12" d="M179,107.14a1.86,1.86,0,0,0,.22.35l-.42.9c-.27-.33-.38-.62-.28-.8l.35-.61.12-.22A.5.5,0,0,0,179,107.14Z"/><path class="cls-13" d="M181.54,102.93c-.33.6-.66,1.19-1,1.78-.94-.81-1.48-1.56-1.39-2,.36-.68.86-1.57,1.42-2.59a31.18,31.18,0,0,1,7.12-8.74q.63.57,1.32,1.08A55.66,55.66,0,0,0,181.54,102.93Z"/><path class="cls-14" d="M187.73,91.36c2.67-2.21,4.82-2.93,5.32-2.65a.73.73,0,0,1,.19.2,18.19,18.19,0,0,0-4.19,3.53A14.07,14.07,0,0,1,187.73,91.36Z"/><path class="cls-12" d="M180.57,104.71,179.9,106a7.87,7.87,0,0,1-1-1l-.14-.19a1.54,1.54,0,0,1-.33-.75h0a.66.66,0,0,1,.06-.25l.72-1.28v.13C179.09,103.15,179.64,103.9,180.57,104.71Z"/><path class="cls-5" d="M175.54,106.3c.44,2.87,1,8.41-.42,11.37-2.15,4.59-8.67,8-11.64,9.07,2.14-2.77,3.09-5,2.64-6.65-.14-.53-1.11,1.27-2.78,1.58a8.4,8.4,0,0,0,.5-3.81,10.9,10.9,0,0,1,1.22-5.38c3-4.62,8.21-6.39,9.3-6.88Z"/><path class="cls-6" d="M175.54,106.3c.3,1.23.37,5.7-.82,7.74s-5.87,4.14-8,6.18c.51-2.18,1.08-2.93.83-4.79a6,6,0,0,1,.14-3.17c.29-1,2.19-3.15,4.13-4.77a13.37,13.37,0,0,1,2.55-1.89Z"/><path class="cls-7" d="M175.54,106.3c.09,1.48-.31,5.6-1.62,6.69s-2.33.75-4.52,2.28c0-.89,1.36-2.27.95-3.23-.54.46-.73.83-1.44,1,.61-.77.6-1.83,1.12-2.93.6-1.28,1.87-2.07,2.87-2.94a8.41,8.41,0,0,0,1.45-1.59Z"/><path class="cls-8" d="M174.74,106.86c2.17,1.23,4.21,1.73,4.56,1.12l-.63,1.1c-.34.62-2.38.12-4.56-1.11s-3.65-2.72-3.3-3.33l.62-1.11C171.09,104.14,172.57,105.63,174.74,106.86Z"/><path class="cls-8" d="M174,108.2c1.63.92,3.17,1.3,3.43.84l-.47.83c-.26.46-1.8.09-3.44-.84s-2.75-2-2.49-2.51l.48-.83C171.24,106.15,172.31,107.3,174,108.2Z"/><path class="cls-9" d="M186.15,93.59a31.67,31.67,0,0,1-3.92,10.58L180,108.09a21.18,21.18,0,0,1-5-1.62,21.9,21.9,0,0,1-4-3.44s.86-1.68,2.16-4a31.18,31.18,0,0,1,7.09-8.73,14.63,14.63,0,0,0,5.89,3.3Z"/><path class="cls-10" d="M185.57,87.64c.51.3,1.11,2.43.58,6a14.63,14.63,0,0,1-5.89-3.3C182.93,88.09,185.09,87.37,185.57,87.64Z"/><path class="cls-8" d="M175.59,105.36c2.53,1.42,4.89,2,5.29,1.29l-.72,1.29c-.41.71-2.77.13-5.3-1.3s-4.23-3.15-3.83-3.86l.72-1.29C171.31,102.2,173.07,103.93,175.59,105.36Z"/><path class="cls-11" d="M171.42,104a6.75,6.75,0,0,0,1,1l-.09.18A3.16,3.16,0,0,1,171.42,104Z"/><path class="cls-11" d="M171.51,106.06l.25.24s0,.07-.06.11A1.7,1.7,0,0,1,171.51,106.06Z"/><path class="cls-12" d="M172.31,105.14c-.19.39-.39.78-.57,1.16l-.25-.24a.44.44,0,0,1,0-.39l-.13.23c-.49-.53-.72-1-.56-1.27l.48-.86.14.19A3.44,3.44,0,0,0,172.31,105.14Z"/><path class="cls-12" d="M171.51,106.06a1.7,1.7,0,0,0,.19.35l-.41.9c-.27-.33-.39-.62-.28-.8l.34-.61.13-.23A.42.42,0,0,0,171.51,106.06Z"/><path class="cls-13" d="M174.06,101.85c-.33.6-.66,1.19-1,1.78-.94-.81-1.49-1.56-1.39-2,.36-.68.85-1.57,1.42-2.59a30.91,30.91,0,0,1,7.14-8.74,15.65,15.65,0,0,0,1.33,1.08A55.36,55.36,0,0,0,174.06,101.85Z"/><path class="cls-14" d="M180.23,90.3c2.68-2.21,4.83-2.93,5.33-2.65a.73.73,0,0,1,.19.2,18.4,18.4,0,0,0-4.19,3.53A15.65,15.65,0,0,1,180.23,90.3Z"/><path class="cls-12" d="M173.09,103.63c-.24.44-.46.89-.67,1.33a6.75,6.75,0,0,1-1-1l-.14-.19A1.35,1.35,0,0,1,171,103h0a.53.53,0,0,1,0-.25l.73-1.28a.19.19,0,0,0,0,.13C171.6,102.07,172.15,102.82,173.09,103.63Z"/><path class="cls-15" d="M216.24,83.49c.7-1.06,2.55-3.26,4.78-1.3s-1.34,4.29-1.34,4.29Z"/><path class="cls-16" d="M187,112.84c-2-.47-2.41.17-2.41.17l.28,1.38h0c.14.8.45,1.85.66,2.94.4,2.16.66,4.39,1.56,4.2,1.27-.26,1.91-2.41,1.42-4.81a7.81,7.81,0,0,0-.33-1.17,8.91,8.91,0,0,0,1.91.41s-1.17-4.25-1.49-4.1S187.31,112.94,187,112.84Z"/><path class="cls-17" d="M192.54,106.93a3.14,3.14,0,0,1,1.54,1.53c.12.44.18.88.28,1.33a20.81,20.81,0,0,1,.31,2.62,22.21,22.21,0,0,1,0,2.58l-.07,1.28a2.26,2.26,0,0,1-.07.63c-.11.2-.35.38-1,.49l-11.74-1.84c-.56-.3-.73-.54-.78-.76a3.2,3.2,0,0,1,.13-.63l.32-1.24c.23-.83.49-1.65.79-2.45a24.85,24.85,0,0,1,1.1-2.4c.23-.4.42-.8.67-1.19a3.21,3.21,0,0,1,1.94-1Z"/><path class="cls-15" d="M179.51,110.59c-1-1.8-1.75-1.66-1.75-1.66l-.83,1.14h0c-.5.65-1.06,1.59-1.73,2.48-1.3,1.75-2.77,3.46-2,4,1.06.76,3.08-.23,4.5-2.21a7.67,7.67,0,0,0,.64-1,2.46,2.46,0,0,0,1.79.35s1.54-2.41,1.21-2.54S179.67,110.92,179.51,110.59Z"/><path class="cls-18" d="M187.06,106.46a3.12,3.12,0,0,1,.75,2c-.08.45-.21.88-.3,1.32a25.48,25.48,0,0,1-.84,2.51,23.34,23.34,0,0,1-1.08,2.33l-.61,1.13a3,3,0,0,1-.33.54c-.2.13-.48.2-1.09,0l-9.86-6.65c-.37-.51-.42-.8-.37-1a2.12,2.12,0,0,1,.38-.51l.82-1a20.52,20.52,0,0,1,1.78-1.83,24.76,24.76,0,0,1,2-1.71c.37-.26.72-.55,1.11-.79a3.17,3.17,0,0,1,2.17-.07Z"/><path class="cls-18" d="M195.59,98.39a2.54,2.54,0,0,1,.61-1.1l.45-.4a2.84,2.84,0,0,1,.77-.55,3.48,3.48,0,0,1,1.38-.6,14.15,14.15,0,0,0,2.7-1.13,33.3,33.3,0,0,0,5-3.59c.8-.68,1.58-1.39,2.34-2.11l2.25-2.21c.72-.73,1.44-1.47,2.1-2.21a2.8,2.8,0,0,1,1.75-1.27,1.37,1.37,0,0,1,.57,0l.41.06a4.59,4.59,0,0,1,1.23.42l3,1.44c.86.51,1,.69,1,.82l.21.46a2.08,2.08,0,0,1,.13.75,6.32,6.32,0,0,1-.24,1.21,6.43,6.43,0,0,1-1.1,1.85,33.39,33.39,0,0,1-2.7,3,26,26,0,0,1-3,2.54,32.46,32.46,0,0,1-3.33,2.14,28.16,28.16,0,0,1-7.55,2.9,22,22,0,0,1-4.19.5,6.51,6.51,0,0,1-1.09-.08,6.41,6.41,0,0,1-1.07-.36,3.47,3.47,0,0,1-1-.68c-.15-.16-.3-.36-.44-.53s-.26-.45-.25-1.24Z"/><path class="cls-19" d="M204.79,92.05a9.6,9.6,0,1,1-4.61-12.77l0,0A9.58,9.58,0,0,1,204.79,92.05Z"/><path class="cls-19" d="M197.9,108.2l.16-.36a.15.15,0,0,0,0-.13c2.62-6.44,3.06-12.85-4.8-16.56h0c-7.93-3.75-14.11,2.73-17.8,12.2h0c-1.64,3.51,4,5.89,8.75,8.13,5.51,2.61,10.06,4.38,11.22,1.87l1.22-2.56C197.12,109.9,197.53,109,197.9,108.2Z"/><path class="cls-20" d="M197.12,102.76c-.89-.55-1.25-2.1-2.34-3.19-1.5-1.5-1.47-3.37-1.58-2.56s-.82,1-.8.87.17.18.33-1-1.14-2.14-1.61-4.45a15.07,15.07,0,0,1-.28-2.5,5.6,5.6,0,0,0-.38.94c-.2-7.37,3.39-10.63,3.82-10.81a2.48,2.48,0,0,0-1.19.28c1.36-2,2.87-1.79,3.11-1.77a1.3,1.3,0,0,0-1-.51,3,3,0,0,1,2.78-1,1.12,1.12,0,0,1,.8.8,2,2,0,0,1,1.91-2.08h0c-1.33,2-.88,1.68-.83,1.77a6,6,0,0,1,2.53-.65,1.19,1.19,0,0,0-.72.52c1.2-.22,2.58-.62,4.48,1.48a3,3,0,0,0-1.74.08,8.53,8.53,0,0,1,3.92,7c-.16-.15-1-1-1.13-.91.57.71,2.4,3.22-.8,10.48,0-.41,0-1.38-.22-1.41.1.77-1,2.71-3.45,4.13C199.31,100.22,197.78,101.3,197.12,102.76Z"/><path class="cls-15" d="M205.45,89.83c.84-3.61-.72-7.08-3.3-7.67S196.81,84,196,87.61a8.19,8.19,0,0,0,.61,5.61c.87,1.65,1.61,3,1.45,4.45.88-1.81,2.33-2.08,4.16-3.08A7.37,7.37,0,0,0,205.45,89.83Z"/><path class="cls-21" d="M205.73,88.89c-.55,3.55-2.86,6.22-5.57,5.8s-5.09-3.85-4.55-7.4,3.19-6.08,5.89-5.66S206.31,85.35,205.73,88.89Z"/><path class="cls-22" d="M202.31,86.72a4.38,4.38,0,0,1,1.14.18,2.17,2.17,0,0,1,1,.51,2,2,0,0,0-1-.23,4.16,4.16,0,0,0-1,.1Z"/><path class="cls-22" d="M200.78,87.07a4.26,4.26,0,0,0-1-.45,2.09,2.09,0,0,0-1.08-.09,2.18,2.18,0,0,1,1.13-.18,5.14,5.14,0,0,1,1.15.2Z"/><polygon class="cls-23" points="200.5 87.77 199.53 87.28 200.63 87.42 200.5 87.77"/><path class="cls-23" d="M202.31,87.6h.7a2.66,2.66,0,0,1,.69,0,2.67,2.67,0,0,0-.67.14l-.66.19Z"/><path class="cls-24" d="M200.31,88.88a1.14,1.14,0,0,0,.26,1,1.44,1.44,0,0,0,.84.42,1,1,0,0,0,.87-.22,1.17,1.17,0,0,0,.3-.4.93.93,0,0,0,.11-.51,1,1,0,0,1-.2,1.1,1.15,1.15,0,0,1-1.13.4,1.44,1.44,0,0,1-1-.62A1,1,0,0,1,200.31,88.88Z"/><path class="cls-23" d="M199.51,91.56A1.06,1.06,0,0,0,200,92a.34.34,0,0,1,.28.09c.08.09.16.09.25.14a1.64,1.64,0,0,0,.65.13,1.44,1.44,0,0,0,.71-.18,1.43,1.43,0,0,1-.61.56,2,2,0,0,1-.87.17,1.2,1.2,0,0,1-.47-.1,1,1,0,0,1-.37-.35A.9.9,0,0,1,199.51,91.56Z"/><path class="cls-25" d="M200.59,81.59a4.76,4.76,0,0,1,2.07.35,6.33,6.33,0,0,1,2.84,3.41,1.82,1.82,0,0,0-1.52-.24l-.28.08-.47-1.76-.43,2c-3,.57-5.74-2.3-6.65-.07a5.7,5.7,0,0,1,4.47-3.79"/><path class="cls-15" d="M170.65,100.3c-1.2,0-3.89-.38-3.5-3.23s1.47-1.64,2.06-1.35a2.73,2.73,0,0,0,2,.2Z"/><path class="cls-18" d="M188.84,93.83a2.37,2.37,0,0,1,.33,1.17,2.05,2.05,0,0,1,0,.56,2.77,2.77,0,0,1-.27.86,2.62,2.62,0,0,1-.94,1.1c-.74.52-1.49,1.08-2.29,1.56a23.59,23.59,0,0,1-5.13,2.48,20,20,0,0,1-5.68,1.07,27.36,27.36,0,0,1-2.86-.12,3.31,3.31,0,0,1-1.39-.34,3.73,3.73,0,0,1-.64-.54,1.59,1.59,0,0,1-.28-.53l-.12-.4a3.55,3.55,0,0,1,0-1.3l.47-3.34a4.11,4.11,0,0,1,.32-1.25l.19-.37a1.67,1.67,0,0,1,.34-.45,2.33,2.33,0,0,1,.59-.39,1.94,1.94,0,0,1,1.09-.14h6.28a40,40,0,0,0,4.36-.42,5,5,0,0,0,1.12-.21,11.27,11.27,0,0,0,1.11-.28,2.21,2.21,0,0,1,.58-.11,4,4,0,0,1,.69.06,2.37,2.37,0,0,1,.8.24c.16.07.33.17.49.25a2.85,2.85,0,0,1,.87.86Z"/></g></svg>