<svg id="Layer_1" data-name="Layer 1" xmlns="http://www.w3.org/2000/svg" xmlns:xlink="http://www.w3.org/1999/xlink" viewBox="0 0 251 151"><defs><style>.cls-1,.cls-2{opacity:0.1;}.cls-1{fill:url(#radial-gradient);}.cls-2{fill:url(#radial-gradient-2);}.cls-3{fill:#e1f1f9;}.cls-4{opacity:0.5;}.cls-5{fill:#415054;}.cls-6{fill:#34484c;}.cls-7{fill:#4d646b;}.cls-8{fill:#5e767a;}.cls-9{fill:#6b8387;}.cls-10{fill:none;stroke:#364244;stroke-miterlimit:10;stroke-width:1.12px;}.cls-11{fill:#5e3e21;}.cls-12{fill:#54371d;}.cls-13{fill:#783a28;}.cls-14{fill:#6d3325;}.cls-15{fill:#dcb680;}.cls-16{fill:#8f4729;}</style><radialGradient id="radial-gradient" cx="294.14" cy="-399.24" r="71.73" gradientTransform="translate(-89.5 306.22) scale(0.87 0.56)" gradientUnits="userSpaceOnUse"><stop offset="0" stop-color="#fff" stop-opacity="0.5"/><stop offset="0.4" stop-color="#fff" stop-opacity="0.27"/><stop offset="1" stop-color="#fff" stop-opacity="0"/></radialGradient><radialGradient id="radial-gradient-2" cx="480.7" cy="-336.99" r="71.73" gradientTransform="translate(-152.77 292.68) scale(0.7 0.56)" xlink:href="#radial-gradient"/></defs><title>Praktikant-base</title><rect class="cls-1" x="92.63" y="35.59" width="146.19" height="98.05" rx="11.51" ry="11.51" transform="translate(88.98 -84.89) rotate(38.59)"/><rect class="cls-2" x="125.44" y="56.6" width="118.23" height="98.05" rx="10.47" ry="10.47" transform="translate(47.8 -57.21) rotate(20.19)"/><polygon class="cls-3" points="23.34 45.27 22.8 48.13 22.71 45.27 20.04 44.91 22.74 44.6 23.28 41.6 23.41 44.6 26.05 44.91 23.34 45.27"/><polygon class="cls-3" points="97.28 15.48 96.74 18.33 96.65 15.48 93.98 15.12 96.68 14.81 97.22 11.81 97.35 14.81 99.99 15.12 97.28 15.48"/><polygon class="cls-3" points="211.76 29.95 212.67 24.96 212.83 29.95 217.34 30.59 212.78 31.13 211.87 36.38 211.66 31.13 207.2 30.59 211.76 29.95"/><polygon class="cls-3" points="77.01 89.02 77.72 85.17 77.84 89.02 81.32 89.52 77.8 89.93 77.1 93.99 76.93 89.93 73.49 89.52 77.01 89.02"/><g class="cls-4"><ellipse class="cls-5" cx="153.96" cy="66.84" rx="8.13" ry="2.6" transform="translate(6.57 147.14) rotate(-52.05)"/><ellipse class="cls-5" cx="175.34" cy="83.51" rx="5.02" ry="1.61" transform="matrix(0.61, -0.79, 0.79, 0.61, 1.66, 170.42)"/><ellipse class="cls-6" cx="189.85" cy="94.83" rx="2.83" ry="0.91" transform="translate(-1.68 186.22) rotate(-52.05)"/><path class="cls-7" d="M189.14,94.27c1-1.23,2.06-2,2.45-1.67L176,79.13l-4.77,6.11,16.86,11.82C187.72,96.75,188.17,95.5,189.14,94.27Z"/><path class="cls-8" d="M174.07,82.52c1.7-2.19,3.65-3.52,4.35-3L150.8,55.65,142.34,66.5l29.91,21C171.55,86.92,172.36,84.71,174.07,82.52Z"/><path class="cls-9" d="M149,73.25,110.86,47.32l-.16-.11c-1.55-1.21.25-6.12,4-11s8.09-7.79,9.64-6.58l.15.13L159,60.43c-1.13-.88-4.29,1.28-7,4.81S147.83,72.36,149,73.25Z"/></g><line class="cls-10" x1="158.34" y1="77.84" x2="158.34" y2="141.36"/><line class="cls-10" x1="158.34" y1="77.84" x2="140.71" y2="141.36"/><line class="cls-10" x1="158.34" y1="77.84" x2="175.99" y2="141.36"/><path class="cls-11" d="M200.79,135.82c.07-.41-3.31-.4-3.31-.4-.56.83-.87,1.27-.79,2a11.53,11.53,0,0,0-1.44,0c-2.89.18-5.16,1.57-5.06,3.11.06,1.08,2.69.7,5.28.49,1.31-.1,2.61-.07,3.58-.15h0l1.66-.11s.61-.65-.55-2.81C199.94,137.58,200.71,136.27,200.79,135.82Z"/><path class="cls-12" d="M189.8,136.44c.13-.4-5.06-1-5.06-1a10.53,10.53,0,0,0,.82,2.17,8.6,8.6,0,0,0-1.43-.18c-2.9-.15-5.3,1-5.38,2.52-.06,1.09,2.59,1,5.19,1.08,1.32,0,2.6.22,3.57.24h0l1.67.09s.68-.58-.23-2.86C188.77,138.1,189.68,136.85,189.8,136.44Z"/><path class="cls-11" d="M173.24,98c-1.44-2.3-2.29-4.49-3.42-5s-2.09,0-2,1.65-.47,3.82,0,4.4c.61.77,1.82,2.23,2.57,2.11A21.82,21.82,0,0,0,174,99.06Z"/><path class="cls-13" d="M189.45,115.27c0,.59-.21.79-.37.91a3.38,3.38,0,0,1-.52.35,2.79,2.79,0,0,1-1.12.33,4.44,4.44,0,0,1-2.11-.24,18,18,0,0,1-3.56-1.65,32.68,32.68,0,0,1-5.87-4.46,38,38,0,0,1-4.8-5.34c-.72-1-1.38-2-2-3a6,6,0,0,1-.82-1.61,4.2,4.2,0,0,1-.18-1,1.47,1.47,0,0,1,.09-.58l.14-.34c0-.09.11-.23.72-.66l2.19-1.22c.68-.3.84-.32.94-.29h.35a1.89,1.89,0,0,1,.51.16c.24.16.48.33.7.51a6.76,6.76,0,0,1,1,1.26c.61.89,1.24,1.76,1.87,2.63,1.27,1.73,2.51,3.5,3.84,5.17a39.93,39.93,0,0,0,4.2,4.7,11.72,11.72,0,0,0,2.32,1.76c.2.12.39.22.58.35l.54.43c.2.16.39.33.58.51a2.2,2.2,0,0,0,.33.35c.12.09.24.27.47.84Z"/><path class="cls-14" d="M200.31,124.54A3.22,3.22,0,0,1,202,126c.2.52.34,1.06.52,1.56.31,1.06.61,2.12.84,3.19s.41,2.12.56,3.18l.22,1.59a4.34,4.34,0,0,1,.08.8c0,.28-.2.55-.71.85l-10.35.71c-.54-.23-.73-.49-.81-.75a3.57,3.57,0,0,1,0-.8v-1.6a26.18,26.18,0,0,1,.13-3.19c.14-1.06.24-2.12.41-3.18.1-.54.18-1.07.3-1.63a3.23,3.23,0,0,1,1.43-1.7Z"/><path class="cls-13" d="M190.55,124.9a3.21,3.21,0,0,1,1.44,1.7c.13.54.21,1.06.32,1.63.16,1.06.33,2.12.42,3.18s.14,2.13.15,3.19v1.6a3.57,3.57,0,0,1,0,.8,1.27,1.27,0,0,1-.82.75l-10.34-.65c-.5-.29-.67-.57-.71-.85a3.52,3.52,0,0,1,.07-.79l.21-1.59c.14-1.07.32-2.13.54-3.19s.52-2.12.83-3.19c.17-.53.32-1.06.51-1.58a3.37,3.37,0,0,1,1.64-1.5Z"/><path class="cls-15" d="M187.66,116.48c-.73-1.26-.27-3.35-.93-5.39-.91-2.82.2-5-.38-4.13s-1.56.61-1.47.5.1.33,1-1-.12-3.33.67-6.37a17.71,17.71,0,0,1,1.11-3.19,6.24,6.24,0,0,0-1,.86c4-8.9,10.21-10.31,10.82-10.23a3.32,3.32,0,0,0-1.59-.48,4.5,4.5,0,0,1,4.74,0,1.94,1.94,0,0,0-.92-1.32,4,4,0,0,1,3.86.73,1.61,1.61,0,0,1,.5,1.49,2.46,2.46,0,0,1,3.24-1.28l.26.13c-2.74,1.47-2,1.39-2,1.54s2.12,0,3.38,1a1.56,1.56,0,0,0-1.14.12c1.56.58,3.43,1.07,4.49,4.85a4.4,4.4,0,0,0-2.12-1.06,12.32,12.32,0,0,1,.6,11c-.11-.28-.57-1.86-.82-1.86.26,1.24,1,5.48-7,11.91.3-.45.78-1.65.57-1.81-.33,1-2.73,2.56-6.51,2.54C191.76,115,189.29,115.26,187.66,116.48Z"/><path class="cls-16" d="M179.59,124.47,179,128c-.65,3.41,5.31,4.94,12.83,6.37,6.5,1.18,14,2.9,14.87-1.9h0c3.19-12.39,1.63-23.54-9.24-25.48h0c-10.76-2-15,4.91-17.07,13.42a1,1,0,0,0-.07.15l-.08.5C180,122.06,179.77,123.23,179.59,124.47Z"/><path class="cls-16" d="M190.4,98.09A12.08,12.08,0,1,0,206.35,92h0A12.09,12.09,0,0,0,190.4,98.09Z"/></svg>