<svg id="Layer_1" data-name="Layer 1" xmlns="http://www.w3.org/2000/svg" xmlns:xlink="http://www.w3.org/1999/xlink" viewBox="0 0 251 151"><defs><style>.cls-1{fill:#e1f1f9;}.cls-2{opacity:0.1;fill:url(#radial-gradient);}</style><radialGradient id="radial-gradient" cx="60.55" cy="-238.67" r="71.73" gradientTransform="translate(73.27 215.31) scale(0.7 0.56)" gradientUnits="userSpaceOnUse"><stop offset="0" stop-color="#fff" stop-opacity="0.5"/><stop offset="0.4" stop-color="#fff" stop-opacity="0.27"/><stop offset="1" stop-color="#fff" stop-opacity="0"/></radialGradient></defs><title>Viljar-BASE</title><polygon class="cls-1" points="223.44 122.74 222.88 125.72 222.78 122.74 219.99 122.36 222.81 122.04 223.37 118.91 223.5 122.04 226.25 122.36 223.44 122.74"/><rect class="cls-2" x="56.64" y="33.8" width="118.23" height="98.05" rx="10.47" ry="10.47" transform="translate(35.7 -34.86) rotate(20.19)"/><polygon class="cls-1" points="34.18 120.11 35.05 115.34 35.21 120.11 39.51 120.72 35.16 121.23 34.28 126.25 34.08 121.23 29.83 120.72 34.18 120.11"/><polygon class="cls-1" points="29.39 25.09 28 30.75 28.16 25.01 23.03 23.96 28.3 23.66 29.72 17.69 29.6 23.74 34.67 24.66 29.39 25.09"/><polygon class="cls-1" points="182.64 40.46 183.43 36.3 183.57 40.46 187.48 41 183.53 41.45 182.73 45.84 182.55 41.45 178.69 41 182.64 40.46"/></svg>