<?xml version="1.0" encoding="utf-8"?>
<!-- Generator: Adobe Illustrator 22.1.0, SVG Export Plug-In . SVG Version: 6.00 Build 0)  -->
<svg version="1.1" id="Layer_1" xmlns="http://www.w3.org/2000/svg" xmlns:xlink="http://www.w3.org/1999/xlink" x="0px" y="0px"
	 viewBox="0 0 251 151" style="enable-background:new 0 0 251 151;" xml:space="preserve">
<style type="text/css">
	.st0{opacity:0.1;fill:url(#SVGID_1_);enable-background:new    ;}
	.st1{opacity:0.1;fill:url(#SVGID_2_);enable-background:new    ;}
</style>
<title>Ivar-base</title>
<radialGradient id="SVGID_1_" cx="498.7329" cy="287.0848" r="71.73" gradientTransform="matrix(0.68 0.5427 0.3493 -0.4377 -349.0283 -64.3806)" gradientUnits="userSpaceOnUse">
	<stop  offset="0" style="stop-color:#FFFFFF;stop-opacity:0.5"/>
	<stop  offset="0.4" style="stop-color:#FFFFFF;stop-opacity:0.27"/>
	<stop  offset="1" style="stop-color:#FFFFFF;stop-opacity:0"/>
</radialGradient>
<path class="st0" d="M72.4,4.1l96.3,76.8c5,4,5.8,11.2,1.8,16.2l-46.8,58.6c-4,5-11.2,5.8-16.2,1.8L11.2,80.7
	c-5-4-5.8-11.2-1.8-16.2L56.2,5.9C60.2,0.9,67.4,0.1,72.4,4.1z"/>
<radialGradient id="SVGID_2_" cx="537.1288" cy="104.5227" r="71.73" gradientTransform="matrix(0.657 0.2416 0.1933 -0.5256 -264.2422 25.9756)" gradientUnits="userSpaceOnUse">
	<stop  offset="0" style="stop-color:#FFFFFF;stop-opacity:0.5"/>
	<stop  offset="0.4" style="stop-color:#FFFFFF;stop-opacity:0.27"/>
	<stop  offset="1" style="stop-color:#FFFFFF;stop-opacity:0"/>
</radialGradient>
<path class="st1" d="M80,39l91.3,33.6c5.4,2,8.2,8,6.2,13.4l-26.6,72.4c-2,5.4-8,8.2-13.4,6.2l-91.3-33.6c-5.4-2-8.2-8-6.2-13.4
	l26.6-72.4C68.6,39.8,74.6,37,80,39z"/>
</svg>
