<svg xmlns="http://www.w3.org/2000/svg" viewBox="0 0 480.31 286.25"><defs><style>.cls-3{fill:#5e3e21}.cls-6{fill:#783a28}.cls-7{fill:#8f4729}.cls-8{fill:#e84c59}.cls-9{fill:#ee7b5c}.cls-10{fill:#f9c862}.cls-11{fill:#062633}.cls-12{fill:#abaaaa}.cls-13{fill:#e1dfe0}.cls-14{fill:none}.cls-15{fill:#041d26}.cls-16{fill:#6e6e6e}.cls-17{fill:silver}.cls-18{fill:#e1f1f9}</style></defs><g id="Layer_2" data-name="Layer 2"><g id="Layer_2-2" data-name="Layer 2"><path fill="#002735" d="M0 0h480.31v286.25H0z"/><path d="M129.2 174.7c-2.92 5.48-7.3 8.4-10 7s-2.75-6.71.16-12.19 7.49-8.74 10.21-7.3 2.54 7.01-.37 12.49z" fill="#54371d"/><ellipse class="cls-3" cx="140.79" cy="180.87" rx="11.23" ry="5.58" transform="rotate(-61.99 140.772 180.868)"/><path d="M162.37 147.74c2.73-.84 4.83-4.45 8.46-6.51 5-2.84 6.31-7.45 6-5.42s1.42 2.93 1.45 2.64-.58.34-.1-2.72 4.55-4.63 7.47-10.06a34.61 34.61 0 0 0 2.54-6 11.79 11.79 0 0 1 .33 2.55c5.91-18.1-1.09-28.26-2.08-28.94a6.76 6.76 0 0 1 2.92 1.39c-2.14-5.6-6.22-6.1-6.85-6.19a3.84 3.84 0 0 1 3.06-.67c-1.72-2.43-3.46-4-6.51-4a3.21 3.21 0 0 0-2.69 1.49c.66-1.2.58-5-3.51-6.26 2 5.71 1.08 4.66.88 4.87s-3.1-2.83-6.12-3.08a3 3 0 0 1 1.47 1.7c-3-1.24-6.27-3-12.82 1a8.36 8.36 0 0 1 4.5 1.21c-.85.29-11.82 3.62-15.38 15 .51-.27 3.26-1.92 3.61-1.59-2 1.45-8.63 6.56-5.58 26.36.18-1 1.06-3.39 1.59-3.34-.82 1.83.55 7.27 6 12.22 7.47 6.8 10.64 10.46 11.36 14.35z" fill="#dcb680"/><path d="M141.51 152.5a6.24 6.24 0 0 1 1.46 4.07c-.13 1.08-.36 2.12-.53 3.18-.42 2.09-.85 4.18-1.44 6.2s-1.22 4-1.92 6l-1.08 2.91a9.11 9.11 0 0 1-.6 1.44 2.49 2.49 0 0 1-2 .82l-18.4-8.24a2.5 2.5 0 0 1-.73-2 9.62 9.62 0 0 1 .68-1.41l1.47-2.76c1-1.83 2-3.65 3.17-5.42s2.38-3.49 3.66-5.2c.67-.84 1.29-1.7 2-2.52a6.31 6.31 0 0 1 4-1.62z" fill="#6d3325"/><path class="cls-6" d="M156 160.22a6.34 6.34 0 0 1 1.46 4.07c-.13 1.08-.36 2.12-.54 3.18-.42 2.09-.85 4.18-1.43 6.19s-1.22 4-1.93 6l-1.07 2.94a8.26 8.26 0 0 1-.6 1.44 2.45 2.45 0 0 1-2 .82l-18.44-8.25a2.44 2.44 0 0 1-.73-2 8.27 8.27 0 0 1 .67-1.41l1.48-2.76c1-1.83 2-3.65 3.17-5.42s2.38-3.49 3.66-5.2c.67-.84 1.29-1.7 2-2.52a6.34 6.34 0 0 1 4-1.63z"/><path class="cls-7" d="M171.19 161.5l.41-.89a.89.89 0 0 0 .08-.31c6.26-15.85 7.17-31.59-12.19-40.5-19.54-9-34.5 7-43.33 30.35-3.94 8.64 10 14.34 21.66 19.73 13.56 6.25 24.76 10.48 27.53 4.3l2.91-6.31c1.09-2.17 2.07-4.3 2.93-6.37z"/><path class="cls-3" d="M197.24 133.74c.85-2.82 3.56-8.91 10-6 8.6 3.88-8.85 20.41-.11 10.41z"/><path class="cls-6" d="M164.66 138.56c1.41 0 2 .18 2.25.41s.69.42 1 .63a9.49 9.49 0 0 1 1.45 1.31 11 11 0 0 1 1.88 2.63 13 13 0 0 0 3.27 4.06 3.54 3.54 0 0 0 2.87.9 5.84 5.84 0 0 0 1.32-.32 15.56 15.56 0 0 0 1.69-.8 22.64 22.64 0 0 0 3.93-2.86c1.33-1.2 2.66-2.56 4-4a54.32 54.32 0 0 0 3.72-4.59 10.32 10.32 0 0 1 1.94-2.31 10.05 10.05 0 0 1 1.45-.93 3.28 3.28 0 0 1 1.12-.27h.8a1.49 1.49 0 0 1 .57.06h.12l.18.06.35.12.47.17.55.22 5.42 2.63.5.31.42.27.3.22.15.11.1.08a1.12 1.12 0 0 1 .37.46l.39.75a3.29 3.29 0 0 1 .32 1.3 11.82 11.82 0 0 1-.28 2.17 12.22 12.22 0 0 1-1.88 3.65 48.42 48.42 0 0 1-5 6.54 36.51 36.51 0 0 1-6.45 5.61 30.36 30.36 0 0 1-8.34 4.13 22 22 0 0 1-5.16.95 18.46 18.46 0 0 1-5.72-.59 15.24 15.24 0 0 1-2.78-1 18.56 18.56 0 0 1-2.48-1.5 16.73 16.73 0 0 1-2.07-1.82l-.9-1c-.28-.33-.52-.67-.77-1a26 26 0 0 1-3.79-8.14 12.37 12.37 0 0 1-.42-2 13.16 13.16 0 0 1 .08-2.08 5.74 5.74 0 0 1 .57-2.12c.17-.37.4-.74.6-1.09s.57-.76 1.86-1.32z"/><path class="cls-7" d="M182.66 117.73A23.53 23.53 0 1 1 167.81 88a23.53 23.53 0 0 1 14.85 29.73z"/><path class="cls-8" d="M122.87 168.35c2 6.82 5.06 20.08 2.66 27.72-3.73 11.84-18.47 22.17-25.29 25.8 4.3-7.4 5.88-13.15 4.23-17-.52-1.23-2.25 3.44-6.25 4.74.93-4.85.53-6 0-9.42s-.64-9.62 1.18-13.43c5.84-12.2 17.85-18.19 20.35-19.72z"/><path class="cls-9" d="M122.87 168.35c1.12 2.9 2.75 13.7.51 19s-12.88 12-17.44 17.63c.54-5.46 1.67-7.47.47-11.91s-1.07-5.11-.7-7.73 4.29-8.36 8.48-12.93c4.4-4.8 5.57-5.4 5.57-5.4z"/><path class="cls-10" d="M122.87 168.35c.7 3.56 1 13.7-1.75 16.75s-5.42 2.59-10.23 7c-.34-2.16 2.52-5.94 1.23-8.15-1.14 1.29-1.48 2.26-3.15 2.94 1.23-2.06.88-4.62 1.77-7.45 1-3.31 3.86-5.65 6-8.08a20.83 20.83 0 0 0 3-4.32z"/><path class="cls-11" d="M121.12 170.07c5.67 2.27 10.79 2.82 11.43 1.22l-1.16 2.89c-.64 1.6-5.76 1.06-11.43-1.22s-9.75-5.41-9.11-7l1.16-2.9c-.64 1.6 3.44 4.74 9.11 7.01z"/><path class="cls-11" d="M119.72 173.55c4.27 1.72 8.12 2.13 8.61.92l-.88 2.18c-.48 1.21-4.33.79-8.6-.92s-7.34-4.07-6.86-5.27l.87-2.18c-.48 1.2 2.59 3.56 6.86 5.27z"/><path class="cls-12" d="M144.47 134.15c-.12 6.83-1.64 15.93-6.06 27l-4.09 10.21s-8.15-.41-12.79-2.26-10.81-7.1-10.81-7.1 1.53-4.37 4-10.4a75.79 75.79 0 0 1 14.43-23.54 35.38 35.38 0 0 0 15.37 6.09z"/><path class="cls-13" d="M141.14 119.91c1.34.54 3.48 5.54 3.33 14.24a35.38 35.38 0 0 1-15.37-6.09c5.79-6.21 10.76-8.66 12.04-8.15z"/><path class="cls-11" d="M122.69 166.14c6.58 2.64 12.52 3.27 13.26 1.41l-1.34 3.36c-.75 1.86-6.68 1.22-13.26-1.41s-11.31-6.28-10.57-8.13l1.35-3.36c-.75 1.85 3.98 5.49 10.56 8.13z"/><path class="cls-14" d="M112.1 164.11a18.73 18.73 0 0 0 2.73 2.1l-.15.46a8.24 8.24 0 0 1-2.58-2.56zM113 169.18l.71.51-.09.26a4.35 4.35 0 0 1-.62-.77z"/><path class="cls-12" d="M110.67 162z"/><path class="cls-15" d="M114.68 166.67c-.35 1-.68 2-1 3l-.71-.51a1.07 1.07 0 0 1-.16-.93l-.24.6c-1.37-1.14-2.07-2.19-1.78-2.92l.9-2.23c.12.13.25.27.4.41a8.24 8.24 0 0 0 2.59 2.58z"/><path class="cls-15" d="M113 169.18a4.35 4.35 0 0 0 .62.77c-.24.79-.48 1.57-.71 2.34-.77-.73-1.14-1.38-1-1.86l.64-1.58.24-.6a1.07 1.07 0 0 0 .21.93z"/><path class="cls-16" d="M117.83 158.14q-.94 2.33-1.78 4.62c-2.56-1.66-4.11-3.3-4-4.44.67-1.78 1.56-4.1 2.62-6.75A75.73 75.73 0 0 1 129.05 128a31.26 31.26 0 0 0 3.55 2.19 136.1 136.1 0 0 0-14.77 27.95z"/><path class="cls-17" d="M129.05 128c5.79-6.22 10.76-8.67 12-8.15a1.43 1.43 0 0 1 .54.41 47 47 0 0 0-9 9.93 31.26 31.26 0 0 1-3.54-2.19z"/><path class="cls-15" d="M116.05 162.76c-.42 1.16-.83 2.31-1.22 3.45a18.73 18.73 0 0 1-2.73-2.1 7.54 7.54 0 0 1-.4-.41 3.59 3.59 0 0 1-1-1.72 1.23 1.23 0 0 1 0-.61l1.35-3.36a1 1 0 0 0-.08.34c-.03 1.11 1.52 2.75 4.08 4.41z"/><path class="cls-8" d="M143.53 175.72c2.52 6.64 6.63 19.63 4.83 27.43-2.78 12.09-16.66 23.55-23.17 27.71 3.7-7.72 4.82-13.57 2.87-17.28-.62-1.18-2 3.61-5.85 5.22.54-4.9.05-6-.74-9.38s-1.4-9.55.12-13.49c4.86-12.62 16.36-19.54 18.73-21.27z"/><path class="cls-9" d="M143.53 175.72c1.34 2.8 3.82 13.45 2 18.94s-11.9 12.93-16 19c.11-5.49 1.08-7.58-.47-11.91s-1.47-5-1.31-7.65 3.62-8.67 7.43-13.55c4-5.14 5.13-5.84 5.13-5.84z"/><path class="cls-10" d="M143.53 175.72c1 3.5 2.13 13.57-.43 16.84s-5.19 3-9.64 7.79c-.52-2.13 2-6.12.59-8.22-1 1.37-1.3 2.37-2.92 3.18 1.06-2.15.51-4.67 1.18-7.57.77-3.38 3.41-5.93 5.34-8.53a20.11 20.11 0 0 0 2.67-4.55z"/><path class="cls-11" d="M141.92 177.57c5.83 1.82 11 2 11.49.32l-.93 3c-.52 1.65-5.66 1.51-11.49-.31s-10.14-4.63-9.63-6.27l.93-3c-.51 1.69 3.8 4.44 9.63 6.26z"/><path class="cls-11" d="M140.8 181.16c4.39 1.37 8.27 1.47 8.65.24l-.7 2.24c-.38 1.23-4.26 1.13-8.65-.24s-7.64-3.48-7.25-4.72l.7-2.24c-.39 1.24 2.86 3.35 7.25 4.72z"/><path class="cls-12" d="M162.37 139.93c.42 6.81-.38 16-3.92 27.35l-3.28 10.51s-8.15.23-12.93-1.26-11.32-6.18-11.32-6.18 1.18-4.48 3.12-10.68a75.7 75.7 0 0 1 12.52-24.6 34.18 34.18 0 0 0 7.5 3.33 33.84 33.84 0 0 0 8.31 1.53z"/><path class="cls-13" d="M157.93 126c1.38.44 3.9 5.25 4.44 13.94a33.84 33.84 0 0 1-8.31-1.53 34.18 34.18 0 0 1-7.5-3.33c5.29-6.66 10.05-9.5 11.37-9.08z"/><path class="cls-11" d="M143.18 173.53c6.77 2.11 12.73 2.28 13.33.37l-1.08 3.45c-.59 1.91-6.56 1.75-13.33-.36s-11.77-5.37-11.18-7.28l1.08-3.45c-.59 1.9 4.41 5.16 11.18 7.27z"/><path class="cls-14" d="M132.46 172.34a17.89 17.89 0 0 0 2.89 1.88l-.12.47a8.15 8.15 0 0 1-2.77-2.35zM133.74 177.32c.23.16.48.31.74.46l-.06.27a3.75 3.75 0 0 1-.68-.73z"/><path class="cls-12" d="M130.87 170.33z"/><path class="cls-15" d="M135.23 174.69c-.26 1-.52 2.07-.75 3.09-.26-.15-.51-.3-.74-.46a1 1 0 0 1-.24-.91l-.19.62c-1.46-1-2.23-2-2-2.77L132 172a5.46 5.46 0 0 0 .44.38 8.15 8.15 0 0 0 2.79 2.31z"/><path class="cls-15" d="M133.74 177.32a3.75 3.75 0 0 0 .68.73c-.18.8-.36 1.59-.53 2.38-.82-.66-1.24-1.28-1.09-1.77l.51-1.63.19-.62a1 1 0 0 0 .24.91z"/><path class="cls-16" d="M137.7 165.93q-.75 2.4-1.41 4.76c-2.68-1.46-4.36-3-4.38-4.11a315.8 315.8 0 0 1 2.08-6.94 75.74 75.74 0 0 1 12.52-24.59 32.13 32.13 0 0 0 3.71 1.91 135.94 135.94 0 0 0-12.52 28.97z"/><path class="cls-17" d="M146.51 135.05c5.29-6.66 10.05-9.49 11.37-9.08a1.76 1.76 0 0 1 .57.37 47 47 0 0 0-8.23 10.66 32.13 32.13 0 0 1-3.71-1.95z"/><path class="cls-15" d="M136.29 170.69c-.33 1.19-.64 2.36-.94 3.53a17.89 17.89 0 0 1-2.89-1.88 5.46 5.46 0 0 1-.46-.34 3.75 3.75 0 0 1-1.14-1.62 1.26 1.26 0 0 1 0-.61l1.08-3.46a1 1 0 0 0 0 .35c-.01 1.06 1.67 2.57 4.35 4.03z"/><path class="cls-18" d="M394.17 253.66l-.99 5.23-.18-5.23-4.91-.67 4.97-.57.99-5.51.24 5.51 4.84.57-4.96.67zM246.74 73.75l-1 5.23-.18-5.23-4.9-.67 4.96-.57 1-5.51.23 5.51 4.85.57-4.96.67z"/></g></g></svg>