<svg xmlns="http://www.w3.org/2000/svg" viewBox="0 0 480.31 286.25"><defs><style>.cls-2{fill:#e1f1f9}.cls-5{fill:#062633}.cls-6{fill:#abaaaa}.cls-7{fill:#e1dfe0}.cls-8{fill:none}.cls-9{fill:#041d26}.cls-10{fill:#6e6e6e}.cls-11{fill:silver}.cls-12{fill:#5e3e21}.cls-13{fill:#783a28}.cls-17{fill:#662f1e}.cls-18{fill:#231d13}</style></defs><g id="Layer_2" data-name="Layer 2"><g id="Layer_2-2" data-name="Layer 2"><path fill="#002735" d="M0 0h480.31v286.25H0z"/><path class="cls-2" d="M56.96 174.13l1.68-9.17.29 9.17 8.29 1.18-8.38.99-1.68 9.66-.39-9.66-8.18-.99 8.37-1.18zM181.66 41.98l1.51-8.33.27 8.33 7.52 1.06-7.6.91-1.52 8.77-.36-8.77-7.43-.91 7.61-1.06zM357.01 234.44l-2.68 10.9.32-11.05-9.88-2.02 10.15-.58 2.72-11.49-.23 11.64 9.76 1.78-10.16.82zM427.72 158.85l-1 5.24-.17-5.24-4.91-.67 4.97-.56.99-5.52.23 5.52 4.85.56-4.96.67z"/><path d="M268.11 151.21a85.07 85.07 0 0 0-48.72-86.27 85 85 0 1 1-17.3 160.15 85.07 85.07 0 0 0 66.02-73.88z" fill="#f4ed97"/><path d="M309.67 102.34a97.75 97.75 0 0 1-95.54 124.74q-4.4-.08-8.7-.53a85 85 0 0 0 104.24-124.21z" fill="#e0d67c"/><path class="cls-5" d="M250.45 213c4.87-.34 8.75-1.72 8.65-3.09l.18 2.48c.09 1.38-3.78 2.76-8.66 3.1s-8.89-.51-9-1.88l-.17-2.49c.11 1.32 4.13 2.16 9 1.88z"/><path class="cls-5" d="M250.66 215.94c3.67-.25 6.58-1.29 6.51-2.33l.13 1.88c.07 1-2.84 2.08-6.51 2.33s-6.7-.39-6.77-1.42l-.13-1.87c.11 1.03 3.11 1.67 6.77 1.41z"/><path class="cls-6" d="M254.78 179c2.29 5 4.35 12 5 21.51.34 5 .6 8.78.6 8.78s-6 2.53-10 2.81-10.23-1.32-10.23-1.32-.41-3.68-.77-8.87a60.8 60.8 0 0 1 2.21-22 26.6 26.6 0 0 0 6.55.31 26.3 26.3 0 0 0 6.64-1.22z"/><path class="cls-7" d="M247.44 169.88c1.15-.07 4.43 2.78 7.34 9.1a26.3 26.3 0 0 1-6.63 1.26 26.6 26.6 0 0 1-6.55-.31c2.01-6.48 4.73-9.93 5.84-10.05z"/><path class="cls-5" d="M250.22 209.57c5.66-.39 10.15-2 10-3.59l.2 2.89c.11 1.59-4.39 3.2-10 3.59s-10.33-.59-10.44-2.18l-.19-2.89c.11 1.61 4.78 2.61 10.43 2.18z"/><path class="cls-8" d="M241.89 211.79a13.14 13.14 0 0 0 2.7.56v.39a6.57 6.57 0 0 1-2.7-.95zM244.29 215.13l.68.13v.22a2.76 2.76 0 0 1-.68-.35z"/><path class="cls-6" d="M240.12 210.75z"/><path class="cls-9" d="M244.63 212.74c.11.85.22 1.69.34 2.52l-.68-.13a.86.86 0 0 1-.45-.61v.52c-1.39-.35-2.25-.86-2.29-1.49l-.13-1.91.43.15a6.57 6.57 0 0 0 2.78.95z"/><path class="cls-9" d="M244.29 215.13a2.76 2.76 0 0 0 .71.35q.15 1 .3 1.92c-.8-.25-1.3-.59-1.33-1l-.09-1.36v-.52a.86.86 0 0 0 .41.61z"/><path class="cls-10" d="M243.93 205.5c.1 1.34.21 2.65.34 3.95-2.42-.31-4.11-.95-4.46-1.79-.14-1.51-.31-3.49-.46-5.77a60.56 60.56 0 0 1 2.2-22 24.32 24.32 0 0 0 3.32.35 109.33 109.33 0 0 0-.94 25.26z"/><path class="cls-11" d="M241.55 179.93c2-6.49 4.74-10 5.84-10.05a1.26 1.26 0 0 1 .53.11 37.81 37.81 0 0 0-3 10.29 24.32 24.32 0 0 1-3.37-.35z"/><path class="cls-9" d="M244.27 209.45c.09 1 .2 2 .32 2.9a13.14 13.14 0 0 1-2.7-.56l-.43-.15a2.88 2.88 0 0 1-1.33-.89.88.88 0 0 1-.18-.45l-.2-2.89a.9.9 0 0 0 .07.27c.34.82 2.03 1.46 4.45 1.77z"/><path class="cls-5" d="M230.79 215.75c4.87-.34 8.75-1.72 8.65-3.1l.17 2.49c.1 1.37-3.78 2.76-8.65 3.09s-8.89-.5-9-1.88l-.17-2.48c.1 1.37 4.13 2.21 9 1.88z"/><path class="cls-5" d="M231 218.74c3.66-.25 6.58-1.29 6.51-2.33l.13 1.88c.07 1-2.84 2.07-6.51 2.32s-6.7-.38-6.77-1.41l-.13-1.87c.07 1.03 3.1 1.67 6.77 1.41z"/><path class="cls-6" d="M235.12 181.78c2.29 4.95 4.35 12 5 21.51.34 5 .6 8.77.6 8.77s-6 2.54-10 2.82-10.23-1.33-10.23-1.33-.42-3.67-.77-8.86a60.81 60.81 0 0 1 2.2-22 26.71 26.71 0 0 0 6.56.31 27.21 27.21 0 0 0 6.64-1.22z"/><path class="cls-7" d="M227.77 172.68c1.16-.08 4.43 2.78 7.35 9.1a27.21 27.21 0 0 1-6.63 1.26 26.71 26.71 0 0 1-6.56-.31c2.07-6.48 4.74-9.97 5.84-10.05z"/><path class="cls-5" d="M230.56 212.37c5.65-.39 10.15-2 10-3.59l.19 2.89c.12 1.59-4.38 3.2-10 3.59s-10.33-.59-10.44-2.18l-.2-2.89c.12 1.59 4.8 2.57 10.45 2.18z"/><path class="cls-8" d="M222.23 214.59a14.62 14.62 0 0 0 2.7.56v.39a6.52 6.52 0 0 1-2.7-.95zM224.63 217.93l.68.13v.21a2.77 2.77 0 0 1-.68-.34z"/><path class="cls-6" d="M220.46 213.55z"/><path class="cls-9" d="M225 215.54c.11.85.22 1.69.34 2.52l-.68-.13a.86.86 0 0 1-.45-.61v.52c-1.39-.35-2.25-.86-2.29-1.49l-.13-1.92a3.54 3.54 0 0 0 .43.16 6.52 6.52 0 0 0 2.78.95z"/><path class="cls-9" d="M224.63 217.93a2.77 2.77 0 0 0 .71.34c.1.66.2 1.3.3 1.93-.81-.25-1.3-.59-1.33-1l-.09-1.36v-.52a.86.86 0 0 0 .41.61z"/><path class="cls-10" d="M224.27 208.3c.09 1.33.21 2.65.33 3.95-2.42-.31-4.1-.95-4.45-1.79-.14-1.51-.31-3.5-.46-5.77a60.56 60.56 0 0 1 2.2-22 24.15 24.15 0 0 0 3.32.35 109.33 109.33 0 0 0-.94 25.26z"/><path class="cls-11" d="M221.89 182.73c2-6.49 4.74-10 5.84-10a1.32 1.32 0 0 1 .53.11 37.46 37.46 0 0 0-3 10.29 24.15 24.15 0 0 1-3.37-.4z"/><path class="cls-9" d="M224.6 212.25c.1 1 .21 1.95.33 2.9a14.62 14.62 0 0 1-2.7-.56 3.54 3.54 0 0 1-.43-.16 2.87 2.87 0 0 1-1.33-.88 1 1 0 0 1-.17-.46l-.2-2.88a.9.9 0 0 0 .07.27c.33.82 2.01 1.46 4.43 1.77z"/><path class="cls-12" d="M204.46 174.74c0-.07-.8-5.63-2.72-5a1.25 1.25 0 0 0-1 1 2.54 2.54 0 0 0-1.62-1.3c-2.11-.52-3.08.66-4.15 2.55s1.71 5.22 3.52 7.39a11.13 11.13 0 0 0 1.38 1.83l6.37-4.61a4.6 4.6 0 0 1-1.78-1.86zM235.27 223.44c.37-.51-6.68-3.9-6.68-3.9a15.58 15.58 0 0 0 .1 3.46 14.57 14.57 0 0 0-1.94-.95c-4-1.62-8-1.2-8.85.95-.61 1.51 3.19 2.68 6.83 4.07 1.85.7 3.58 1.58 4.94 2.08l2.32.93s1.24-.49 1.07-4.16c-.06-.65 1.84-1.92 2.21-2.48zm-3.58 6.08z"/><path class="cls-13" d="M235.32 205.58c2.59 1.61 2.22 3.21 2.67 4.88a32.47 32.47 0 0 1 .57 5.3 23.18 23.18 0 0 1-.75 6.31 25.34 25.34 0 0 1-1.16 3.34 9.34 9.34 0 0 1-.75 1.52 2.2 2.2 0 0 1-1.74.8l-12.38-7.8c-.49-.62-.56-1-.53-1.22s.25-.39.33-.57a8.35 8.35 0 0 0 .59-1 21.45 21.45 0 0 0 1-2.93l1.12-4.11c.56-1.46.21-3 2.83-4.54z"/><path class="cls-12" d="M242.31 222.9c-1.32 3.42-.3 4.28-.3 4.28l2.49-.16c1.46 0 3.38-.33 5.35-.42 3.89-.17 7.87-.08 7.77-1.71-.15-2.31-3.77-4-8.11-3.69a14.19 14.19 0 0 0-2.13.3 16 16 0 0 0 1.18-3.26s-7.76 1-7.57 1.6 1.59 2.46 1.32 3.06zm.16 3.84z"/><path class="cls-13" d="M250.45 204.07c2.78 1.16 2.62 2.7 3.32 4.13.54 1.45 1.06 2.9 1.47 4.36s.77 2.94 1.07 4.42l.46 2.22a7.25 7.25 0 0 1 .18 1.12 1.81 1.81 0 0 1-.93 1.26l-14.5 1.91a1.82 1.82 0 0 1-1.23-1 6.1 6.1 0 0 1-.11-1.13l-.14-2.26c-.09-1.51-.13-3-.1-4.54s.14-3.06.28-4.6c.31-1.56-.24-3 2.15-4.84z"/><path d="M258.67 200l-.05-.71a.6.6 0 0 0-.06-.23c-1.45-12.25-6.26-22.61-21.67-21.65-15.56 1-19.59 16.34-17.22 34.24.45 6.87 11.29 5.72 20.59 5.15 10.79-.67 19.38-1.82 19-6.71l-.32-5c-.01-1.77-.11-3.46-.27-5.09z" fill="#8f4729"/><path class="cls-13" d="M227.37 186.48c.17 1 .11 1.33 0 1.55s-.21.49-.32.71a3.79 3.79 0 0 1-.83 1 6.14 6.14 0 0 1-.95.75 6 6 0 0 1-1.07.39c-.74.18-1.47.45-2.23.59l-2.33.37a22.93 22.93 0 0 1-9.53-1 24.28 24.28 0 0 1-8.21-4.65 28.65 28.65 0 0 1-3.21-3.31 4.61 4.61 0 0 1-1.49-3.23 2.67 2.67 0 0 1 .16-.84l.25-.52c.06-.16.2-.37 1.2-1.12l3.59-2.29a5.43 5.43 0 0 1 1.47-.71l.52-.12a2 2 0 0 1 .72 0 4.53 4.53 0 0 1 .92.27 3.89 3.89 0 0 1 1.23 1c.72.77 1.51 1.48 2.27 2.18a34.57 34.57 0 0 0 4.79 3.73 18.93 18.93 0 0 0 5.52 2.37l1.55.27a14.35 14.35 0 0 0 1.61.07 3.16 3.16 0 0 1 .85.09 5.7 5.7 0 0 1 .91.22 3.87 3.87 0 0 1 1.05.49l.61.44a3.33 3.33 0 0 1 .93 1.28z"/><path class="cls-12" d="M260.82 208.29c-1.05 1.86-3.91 5.74-8 2.66s-1.28-3.68-.33-4.34a4.84 4.84 0 0 0 2.05-3z"/><path class="cls-13" d="M246.59 180.32c.61-.79.91-1 1.16-1.07s.51-.18.75-.25a4 4 0 0 1 1.35-.13 6.9 6.9 0 0 1 1.22.14 4.62 4.62 0 0 1 1.08.44l2.11 1 2.07 1.22a23.18 23.18 0 0 1 7.5 7.15l.73 1.23a13.65 13.65 0 0 1 .61 1.34c.19.45.4.91.55 1.38l.39 1.48a15.55 15.55 0 0 1 .42 3.06 10.16 10.16 0 0 1 0 1.56 13.12 13.12 0 0 1-.16 1.55 17.72 17.72 0 0 1-2 5.69 7 7 0 0 1-1.76 2.31 5.1 5.1 0 0 1-1.31.74 2.53 2.53 0 0 1-.91.11l-.58-.08c-.17 0-.41-.08-1.39-.86l-3.11-2.91c-.86-.91-1-1.12-1-1.26l-.24-.49a2.32 2.32 0 0 1-.22-.69v-.93c0-.56.33-.88.46-1.29l.27-.58q.08-.28.18-.57a10.29 10.29 0 0 0 .29-1.12 9.15 9.15 0 0 0-.38-4.78 18 18 0 0 0-3.45-5.63l-1.27-1.38c-.48-.43-.95-.87-1.45-1.29a6 6 0 0 1-1.33-1.58 3.83 3.83 0 0 1-.52-1.15l-.17-.77a3 3 0 0 1 .23-1.57z"/><path d="M239.15 197.25c-2.26-.54-3.87-3-6.83-4.41-4.09-1.89-5-5.1-4.81-3.68s-1.3 2.08-1.31 1.88.47.22.18-1.91-3.63-3.16-5.86-6.92a20 20 0 0 1-1.9-4.16 7.67 7.67 0 0 0-.37 1.8c-4.25-12.58 2-19.83 2.86-20.33a6.71 6.71 0 0 0-2.5 1 7.79 7.79 0 0 1 6-4.47 3.54 3.54 0 0 0-2.53-.41c1.53-1.74 3-2.88 5.6-3a2.53 2.53 0 0 1 2.19 1c-.5-.83-.29-3.47 3.18-4.45-1.9 4-1.08 3.28-.92 3.43s2.7-2 5.24-2.28a2.52 2.52 0 0 0-1.3 1.22c2.56-.93 5.37-2.26 10.69.49a8.52 8.52 0 0 0-3.81.93c.71.18 9.76 2.31 12.3 10.25-.42-.18-2.66-1.28-3-1 1.62 1 7 4.43 3.66 18.37-.11-.73-.76-2.36-1.21-2.32.62 1.27-.73 5.11-5.5 8.69-6.5 4.91-9.3 7.54-10.05 10.28z" fill="#dcb680"/><path class="cls-12" d="M248.57 170.9a11.92 11.92 0 1 0-23.8 1.48 12.26 12.26 0 0 0 5.23 9.15c3.21 2.31 5.67 4.08 7.64 6.95.74-2.27 3.57-4.66 6.72-7.73a12.73 12.73 0 0 0 4.21-9.85z"/><ellipse cx="236.61" cy="171.07" rx="11.28" ry="11.54" transform="rotate(-3.56 236.896 171.147)" fill="#c69666"/><path class="cls-17" d="M238.48 167.89a14.2 14.2 0 0 1 2.37.61 5.41 5.41 0 0 1 2.11 1.17 5.16 5.16 0 0 0-2.21-.79 12.19 12.19 0 0 0-2.32-.2zM234.18 169a13 13 0 0 0-2.38.33 5.56 5.56 0 0 0-2.2 1 5.77 5.77 0 0 1 2.08-1.34 14 14 0 0 1 2.41-.73z"/><path class="cls-18" d="M234.59 170.45l-2.45-.11 2.44-.41.01.52zM238.22 169.7h1.57a10.21 10.21 0 0 1 1.56.09 11.34 11.34 0 0 0-1.54.17l-1.53.28z"/><path d="M233.9 171.77a1.7 1.7 0 0 0 .91 1.73 3.65 3.65 0 0 0 2 .44 2.8 2.8 0 0 0 1.88-.63 2 2 0 0 0 .56-.84 1.38 1.38 0 0 0 0-1 1.77 1.77 0 0 1-.29 2.16 2.88 2.88 0 0 1-2.16.88 3.57 3.57 0 0 1-2.23-.64 2.29 2.29 0 0 1-.72-.94 1.29 1.29 0 0 1 .05-1.16z" fill="#574c3e"/><path class="cls-18" d="M232.54 176.73c.48.18.92.39 1.37.58l1.37.51a9.61 9.61 0 0 0 2.78.45 6.27 6.27 0 0 0 4.87-2.51 5 5 0 0 1-1.88 2.37 5.33 5.33 0 0 1-3 .93 7.69 7.69 0 0 1-3-.67c-.45-.23-.9-.47-1.33-.74s-.8-.59-1.18-.92z"/><path d="M233.84 159.88a11.44 11.44 0 0 1 4.38-.25c4.15.57 7.16 3.84 7.88 4.72a5.36 5.36 0 0 0-3.49.22l-.57.25-1.88-2.82v3.67c-6.35 2.21-13.19-2-14.8 2.08a12.47 12.47 0 0 1 8.51-7.83" fill="#442c1a"/></g></g></svg>