<svg xmlns="http://www.w3.org/2000/svg" viewBox="0 0 480.31 286.25"><defs><style>.cls-2{fill:#e1f1f9}.cls-3{fill:#e84c59}.cls-4{fill:#ee7b5c}.cls-5{fill:#f9c862}.cls-6{fill:#062633}.cls-7{fill:#abaaaa}.cls-8{fill:#e1dfe0}.cls-9{fill:none}.cls-10{fill:#041d26}.cls-11{fill:#6e6e6e}.cls-12{fill:silver}.cls-13{fill:#5e3e21}.cls-16{fill:#783a28}.cls-17{fill:#8f4729}.cls-20{fill:#662f1e}.cls-21{fill:#231d13}</style></defs><g id="Layer_2" data-name="Layer 2"><g id="Layer_2-2" data-name="Layer 2"><path fill="#002735" d="M0 0h480.31v286.25H0z"/><path class="cls-2" d="M96.52 194.92l-2.68 10.9.31-11.05-9.87-2.02 10.14-.58 2.73-11.49-.23 11.64 9.76 1.78-10.16.82zM427.72 164.9l-1 5.23-.17-5.23-4.91-.67 4.97-.56.99-5.52.23 5.52 4.85.56-4.96.67z"/><path class="cls-3" d="M277.27 180.24c-1.77 5.32-4.59 15.68-2.92 21.77 2.58 9.44 13.89 18 19.15 21.09-3.16-6-4.23-10.53-2.82-13.52.45-1 1.67 2.79 4.78 3.93a16.21 16.21 0 0 1 .28-7.42c.51-2.67.79-7.57-.53-10.63-4.24-9.78-13.52-14.87-15.45-16.15z"/><path class="cls-4" d="M277.27 180.24c-1 2.25-2.57 10.72-1 15s9.79 9.81 13.22 14.42c-.26-4.32-1.09-5.94 0-9.4s1-4 .78-6.07-3.13-6.71-6.29-10.44c-3.33-3.92-4.24-4.43-4.24-4.43z"/><path class="cls-5" d="M277.27 180.24c-.65 2.79-1.24 10.77.88 13.26s4.19 2.2 7.86 5.83c.33-1.69-1.82-4.76-.74-6.46.87 1 1.11 1.82 2.4 2.41-.9-1.66-.55-3.67-1.17-5.93-.71-2.64-2.87-4.56-4.48-6.54a16.52 16.52 0 0 1-2.26-3.5z"/><path class="cls-6" d="M278.6 181.65c-4.53 1.62-8.58 1.9-9 .62l.83 2.32c.46 1.27 4.5 1 9-.62s7.84-4 7.39-5.25l-.82-2.32c.45 1.28-2.86 3.6-7.4 5.25z"/><path class="cls-6" d="M279.6 184.44c-3.42 1.22-6.47 1.43-6.81.47l.62 1.74c.35 1 3.4.76 6.81-.47s5.91-3 5.56-4l-.62-1.74c.35 1.01-2.16 2.78-5.56 4z"/><path class="cls-7" d="M261.28 152.65c-.12 5.38.81 12.6 4 21.42l2.92 8.18s6.44-.08 10.15-1.41 8.73-5.23 8.73-5.23-1.07-3.49-2.8-8.32a59.74 59.74 0 0 0-10.67-19 26.36 26.36 0 0 1-5.8 2.87 26.8 26.8 0 0 1-6.53 1.49z"/><path class="cls-8" d="M264.33 141.52c-1.08.39-2.91 4.26-3.05 11.13a26.8 26.8 0 0 0 6.49-1.48 26.36 26.36 0 0 0 5.8-2.87c-4.38-5.07-8.21-7.15-9.24-6.78z"/><path class="cls-6" d="M277.48 178.51c-5.27 1.88-10 2.2-10.49.72l1 2.68c.53 1.48 5.22 1.17 10.49-.72s9.1-4.6 8.57-6.09l-1-2.69c.53 1.49-3.3 4.22-8.57 6.1z"/><path class="cls-9" d="M285.89 177.23a14.78 14.78 0 0 1-2.22 1.57c0 .12.08.24.11.37a6.54 6.54 0 0 0 2.11-1.94zM285 181.19c-.18.13-.37.26-.57.38l.06.22a3.26 3.26 0 0 0 .51-.6z"/><path class="cls-7" d="M287.08 175.59z"/><path class="cls-10" d="M283.78 179.17q.36 1.22.69 2.4c.2-.12.39-.25.57-.38a.82.82 0 0 0 .16-.72l.17.47c1.12-.85 1.7-1.66 1.49-2.24l-.64-1.79c-.1.11-.21.21-.33.32a6.54 6.54 0 0 1-2.11 1.94z"/><path class="cls-10" d="M285 181.19a3.26 3.26 0 0 1-.51.6c.17.62.33 1.24.49 1.86.63-.55.94-1.06.8-1.44l-.45-1.27-.17-.47a.82.82 0 0 1-.16.72z"/><path class="cls-11" d="M281.56 172.34c.44 1.25.86 2.48 1.26 3.71 2.06-1.24 3.34-2.48 3.32-3.38-.47-1.43-1.1-3.28-1.86-5.4a59.74 59.74 0 0 0-10.67-19 23.33 23.33 0 0 1-2.86 1.63 107.5 107.5 0 0 1 10.81 22.44z"/><path class="cls-12" d="M273.61 148.28c-4.38-5.07-8.22-7.14-9.24-6.78a1.15 1.15 0 0 0-.44.31 37.11 37.11 0 0 1 6.82 8.1 23.33 23.33 0 0 0 2.86-1.63z"/><path class="cls-10" d="M282.82 176.05c.29.92.58 1.83.85 2.75a14.78 14.78 0 0 0 2.22-1.57c.12-.11.23-.21.33-.32a2.93 2.93 0 0 0 .85-1.32.86.86 0 0 0 0-.48l-1-2.68a.76.76 0 0 1 .05.27c.04.87-1.24 2.11-3.3 3.35z"/><path class="cls-3" d="M291.88 180.65c-1.78 5.32-4.6 15.68-2.93 21.77 2.58 9.44 13.89 18 19.15 21.09-3.16-6-4.23-10.54-2.82-13.52.45-1 1.67 2.78 4.78 3.93a16.21 16.21 0 0 1 .28-7.42c.51-2.67.8-7.57-.53-10.63-4.23-9.79-13.52-14.87-15.44-16.15z"/><path class="cls-4" d="M291.88 180.65c-1 2.25-2.58 10.72-1 15s9.79 9.81 13.22 14.42c-.26-4.32-1.09-5.94 0-9.4s1-4 .78-6.07-3.13-6.72-6.29-10.44c-3.33-3.92-4.23-4.43-4.23-4.43z"/><path class="cls-5" d="M291.88 180.65c-.66 2.79-1.25 10.76.87 13.26s4.19 2.2 7.86 5.83c.33-1.7-1.82-4.76-.73-6.46.86 1 1.1 1.82 2.4 2.41-.91-1.66-.56-3.67-1.17-5.93-.72-2.64-2.88-4.57-4.49-6.54a16.18 16.18 0 0 1-2.25-3.5z"/><path class="cls-6" d="M293.21 182.06c-4.54 1.62-8.59 1.9-9 .62L285 185c.46 1.28 4.5 1 9-.61s7.85-4 7.39-5.25l-.83-2.32c.49 1.27-2.82 3.62-7.35 5.24z"/><path class="cls-6" d="M294.2 184.85c-3.42 1.22-6.46 1.43-6.81.47l.62 1.74c.35 1 3.4.75 6.81-.47s5.91-3 5.57-4l-.62-1.74c.34 1.01-2.15 2.78-5.57 4z"/><path class="cls-7" d="M275.88 153.06c-.11 5.38.82 12.6 4 21.42 1.67 4.69 2.92 8.17 2.92 8.17s6.43-.07 10.14-1.4 8.73-5.24 8.73-5.24-1.07-3.48-2.8-8.31a59.94 59.94 0 0 0-10.66-19 26.58 26.58 0 0 1-5.8 2.87 27 27 0 0 1-6.53 1.49z"/><path class="cls-8" d="M278.93 141.93c-1.07.39-2.91 4.26-3.05 11.13a27 27 0 0 0 6.5-1.48 26.58 26.58 0 0 0 5.8-2.87c-4.38-5.07-8.18-7.15-9.25-6.78z"/><path class="cls-6" d="M292.08 178.92c-5.26 1.88-10 2.2-10.49.71l1 2.69c.53 1.48 5.23 1.16 10.49-.72s9.1-4.6 8.58-6.09l-1-2.69c.53 1.49-3.31 4.18-8.58 6.1z"/><path class="cls-9" d="M300.49 177.64a14.78 14.78 0 0 1-2.22 1.57c0 .12.08.24.11.37a6.54 6.54 0 0 0 2.11-1.94zM299.64 181.6l-.57.38.06.21a2.93 2.93 0 0 0 .51-.59z"/><path class="cls-7" d="M301.68 176z"/><path class="cls-10" d="M298.38 179.58c.24.8.48 1.61.69 2.4l.57-.38a.82.82 0 0 0 .16-.72l.17.47c1.12-.86 1.7-1.66 1.49-2.24l-.64-1.79-.33.32a6.54 6.54 0 0 1-2.11 1.94z"/><path class="cls-10" d="M299.64 181.6a2.93 2.93 0 0 1-.51.59c.17.63.33 1.25.49 1.87.63-.55.94-1.06.81-1.44l-.46-1.27-.17-.47a.82.82 0 0 1-.16.72z"/><path class="cls-11" d="M296.16 172.75c.44 1.25.86 2.48 1.26 3.7 2.06-1.23 3.34-2.47 3.32-3.37-.47-1.42-1.1-3.28-1.86-5.4a59.94 59.94 0 0 0-10.66-19 24.92 24.92 0 0 1-2.86 1.63 108 108 0 0 1 10.8 22.44z"/><path class="cls-12" d="M288.22 148.69c-4.38-5.07-8.22-7.15-9.25-6.78a1.23 1.23 0 0 0-.44.31 37.4 37.4 0 0 1 6.83 8.1 24.92 24.92 0 0 0 2.86-1.63z"/><path class="cls-10" d="M297.42 176.45c.3.93.58 1.84.85 2.76a14.78 14.78 0 0 0 2.22-1.57l.33-.32a2.89 2.89 0 0 0 .85-1.32.86.86 0 0 0 0-.48l-1-2.68a.59.59 0 0 1 .05.27c.04.89-1.24 2.11-3.3 3.34z"/><path class="cls-13" d="M221.93 123.93c-1-2.25-3.76-7.05-8.67-4.05s1.15 8.61 1.15 8.61z"/><path d="M265.2 187c-.56-.4-4.17 7.31-4.17 7.31a17.8 17.8 0 0 0 3.76-.15 15.39 15.39 0 0 0-1 2.12c-1.72 4.39-1.22 8.69 1.12 9.61 1.65.65 2.88-3.5 4.35-7.47.75-2 1.69-3.9 2.22-5.39l1-2.53s-.55-1.35-4.53-1.12c-.73.1-2.19-1.96-2.75-2.38zm6.65 3.83z" fill="#54371d"/><path d="M270.15 176.5c2.81 1.68 2.39 3.31 2.92 5 .34 1.64.68 3.29.88 4.93s.37 3.28.46 4.92l.13 2.46a7.22 7.22 0 0 1 0 1.23 2 2 0 0 1-1.2 1.21l-15.9-.25a2 2 0 0 1-1.17-1.25 8.45 8.45 0 0 1 .06-1.23l.21-2.45c.15-1.64.34-3.27.61-4.91s.65-3.27 1-4.9c.58-1.63.21-3.27 3.08-4.87z" fill="#6d3325"/><path class="cls-13" d="M279.31 188c-.67.14 1.46 5.23 1.46 5.23 1.59.32 2.45.5 3.53-.08a14.56 14.56 0 0 0 .87 2.18c2.06 4.24 5.57 6.78 7.83 5.69 1.6-.78-.62-4.5-2.55-8.27-1-1.91-1.72-3.88-2.46-5.28L286.8 185s-1.36-.51-3.89 2.57c-.43.59-2.91.26-3.6.43zm7.32-2.3z"/><path class="cls-16" d="M279.77 172.81c3.26.33 3.57 2 4.75 3.26 1 1.34 2 2.69 2.89 4.09s1.72 2.82 2.5 4.27l1.16 2.17a7.47 7.47 0 0 1 .54 1.1 1.94 1.94 0 0 1-.58 1.61l-14.51 6.51a2 2 0 0 1-1.58-.64 7.43 7.43 0 0 1-.46-1.13l-.85-2.32c-.57-1.54-1.09-3.1-1.53-4.7s-.81-3.23-1.14-4.88c-.16-1.72-1.19-3.05.72-5.71zM256.34 159.13c-.26 1-.58 1.38-.89 1.57s-.63.42-1 .6a7.4 7.4 0 0 1-2 .6 15.25 15.25 0 0 1-2 .15 16.22 16.22 0 0 1-2-.28 38.09 38.09 0 0 1-7.34-2.44 52.67 52.67 0 0 1-12.64-8.08 62.79 62.79 0 0 1-10.07-10.79 58.55 58.55 0 0 1-4-6.37 13.38 13.38 0 0 1-1.52-3.61 12.19 12.19 0 0 1-.24-2.14 3.34 3.34 0 0 1 .26-1.21l.33-.68c.07-.21.27-.46 1.5-1l4.35-1.21c1.32-.24 1.6-.22 1.75-.15l.59.14a2.63 2.63 0 0 1 .84.39 11.86 11.86 0 0 1 1.1 1 14.86 14.86 0 0 1 1.61 2.48c1 1.73 2.19 3.46 3.4 5.16a111 111 0 0 0 7.81 9.93 57.07 57.07 0 0 0 9.16 8.4 26.58 26.58 0 0 0 5.24 2.93 9.91 9.91 0 0 1 1.36.58 12.35 12.35 0 0 1 1.35.76 6.85 6.85 0 0 1 1.41 1l.75.64c.26.19.51.54.83 1.59z"/><path class="cls-17" d="M240.91 144a18.53 18.53 0 1 0 12.91-22.81A18.53 18.53 0 0 0 240.91 144z"/><path class="cls-17" d="M250.19 182.31l1.46 5.28c1.38 5.15 10.62 3.28 22 .14 9.76-2.71 21.3-5.38 19.33-12.59-3.9-19.24-13.5-33.61-29.84-29.08-16.17 4.47-17.45 16.82-14.59 29.93a.69.69 0 0 0 0 .25l.21.75q.57 2.58 1.43 5.32z"/><path d="M252 166.89c1.87-.76 3.08-3.58 5.5-5.3 3.35-2.36 3.9-5.92 3.83-4.36s1.24 2.16 1.24 1.93-.39.29-.28-2 2.87-3.7 4.52-8a25.75 25.75 0 0 0 1.34-4.66 9.39 9.39 0 0 1 .43 1.92c2.79-14-3-21.35-3.72-21.82a4.84 4.84 0 0 1 2.19.92c-2-4.15-4.89-4.35-5.35-4.39a2.53 2.53 0 0 1 2.12-.64c-1.41-1.76-2.76-2.89-4.93-2.78a2.15 2.15 0 0 0-1.8 1.24 3.83 3.83 0 0 0-3-4.59c1.86 4.24 1.12 3.49 1 3.65s-2.42-2-4.59-2.07a2.34 2.34 0 0 1 1.18 1.23c-2.22-.81-4.69-2-9 1.34a5.91 5.91 0 0 1 3.29.72 16.5 16.5 0 0 0-9.76 12.06c.34-.23 2.17-1.6 2.44-1.36-1.31 1.18-5.62 5.34-1.92 20.21.05-.8.49-2.62.87-2.61-.44 1.43 1 5.48 5.21 9 5.83 4.81 8.37 7.47 9.19 10.36z" fill="#dcb680"/><path class="cls-13" d="M240.38 139.55c-.4-7.15 3.71-13.23 8.81-13.52s9.56 5.27 10 12.42a15.72 15.72 0 0 1-3 10.46c-2.22 2.86-4.06 5.23-4.24 8-1.08-3.74-3.72-4.72-6.89-7.24-2.57-1.99-4.44-5.86-4.68-10.12z"/><path d="M240.16 137.67c-.13 6.93 3.4 12.77 8.69 12.87s11-5.66 11.08-12.59-4.05-12.62-9.34-12.72-10.3 5.51-10.43 12.44z" fill="#c69666"/><path class="cls-20" d="M247.12 135.54a9.39 9.39 0 0 0-2-.46 4.25 4.25 0 0 0-2.06.19 4.36 4.36 0 0 1 2.07-.56 9.52 9.52 0 0 1 2.19.1zM250 134.94a9.31 9.31 0 0 1 2.23-.09 4.39 4.39 0 0 1 2.08.62 4.34 4.34 0 0 0-2.08-.25 9.19 9.19 0 0 0-2 .45z"/><path class="cls-21" d="M250.38 136.65l2.1.01-2.02.49-.08-.5zM246.86 136.91c-.39-.19-.8-.36-1.2-.53a6.16 6.16 0 0 0-1.25-.43 6.47 6.47 0 0 1 1.32.19l1.3.29z"/><path d="M250.44 139.42a2 2 0 0 1-.48 2.06 2.7 2.7 0 0 1-2.09.8 2.18 2.18 0 0 1-2-1.07 2.07 2.07 0 0 1-.08-2.12 1.74 1.74 0 0 0 0 1 2.24 2.24 0 0 0 .41.9 2 2 0 0 0 1.65.78 2.65 2.65 0 0 0 1.81-.57 2.11 2.11 0 0 0 .78-1.78z" fill="#574c3e"/><path class="cls-21" d="M251.1 144.8a1.69 1.69 0 0 1-.55 1.57 2.08 2.08 0 0 1-.77.46 2.32 2.32 0 0 1-.87.06 3.58 3.58 0 0 1-1.55-.53 2.41 2.41 0 0 1-1-1.15 2.94 2.94 0 0 0 2.57.75c.22 0 .41-.11.6-.15a5.47 5.47 0 0 0 .58-.15 2 2 0 0 0 .99-.86z"/><path d="M252.35 125.48a9 9 0 0 0-4 0c-3.5.84-5.95 4.55-6.53 5.54a3.66 3.66 0 0 1 3 .05c.16.09.33.18.49.25l1.5-3.2.14 4c5.46 2.07 11.69-2.48 12.68 2.06-.94-4.29-3.78-7.8-7.25-8.67" fill="#442c1a"/><path class="cls-13" d="M303.16 171c2.28.37 7.52.57 7.7-5s-2.26-3.59-3.47-3.23a5.22 5.22 0 0 1-3.93-.3z"/><path class="cls-16" d="M270.7 152.59a3 3 0 0 1 1.49-.83c.28 0 .58-.08.85-.1a4.36 4.36 0 0 1 1.39.11c.42.09.83.18 1.21.3a6.66 6.66 0 0 1 1 .5 22.42 22.42 0 0 0 2 1.05c.67.34 1.35.66 2 .94a66.71 66.71 0 0 0 8.28 2.88c2.77.77 5.55 1.29 8.33 1.82.7.15 1.4.26 2.1.37s1.42.23 2.13.34a6.58 6.58 0 0 1 2.13.49 6.9 6.9 0 0 1 1.06.67 2.36 2.36 0 0 1 .53.68l.26.54c.09.12.17.39.22 1.73l-.14 4.51c-.15 1.32-.27 1.58-.38 1.7l-.33.51a2.39 2.39 0 0 1-.68.62 6.52 6.52 0 0 1-1.33.54 7.62 7.62 0 0 1-2.65.06 45.2 45.2 0 0 1-5.26-.72 41 41 0 0 1-10.07-3.52 46.77 46.77 0 0 1-8.83-5.77c-.68-.53-1.34-1.09-2-1.67s-1.29-1.14-1.9-1.73a6 6 0 0 1-1.57-2.12 5 5 0 0 1-.45-1.42c0-.27-.05-.58-.07-.86s0-.67.56-1.59z"/><path class="cls-2" d="M186.72 35.9l-1 5.23-.17-5.23-4.91-.67 4.96-.56 1-5.52.23 5.52 4.85.56-4.96.67z"/></g></g></svg>