<svg xmlns="http://www.w3.org/2000/svg" viewBox="0 0 480.31 286.25"><defs><style>.cls-5,.cls-6{fill:none;stroke:#333e3e;stroke-miterlimit:10}.cls-4{fill:#4b5c61}.cls-5{stroke-width:3.14px}.cls-6{stroke-width:3.48px}.cls-7{fill:#5e3e21}.cls-10{fill:#783a28}.cls-12{fill:#8f4729}</style></defs><g id="Layer_2" data-name="Layer 2"><g id="Layer_2-2" data-name="Layer 2"><path fill="#002735" d="M0 0h480.31v286.25H0z"/><path d="M53.75 237.49l1.67-9.17.3 9.17 8.28 1.18-8.37.99-1.68 9.66-.4-9.66-8.17-.99 8.37-1.18zm323.66-53.77l1.52-8.32.26 8.32 7.52 1.07-7.6.9-1.52 8.77-.36-8.77-7.43-.9 7.61-1.07zM94.14 159.31l-.99 5.23-.18-5.23-4.91-.67 4.97-.57 1-5.51.23 5.51 4.85.57-4.97.67z" fill="#e1f1f9"/><path d="M220.38 282.74l-5.05-127.25-35.46 105.22m35.46-105.22l40.63 104.41" stroke-width="4.41" fill="none" stroke="#333e3e" stroke-miterlimit="10"/><path class="cls-4" d="M204.92 150.8l-40.54-64.66s4.8-.8 14.43-7.54 11.43-10.82 11.43-10.82l47.67 59.6S237.3 131.84 223 142s-18.12 8.83-18.12 8.83"/><path class="cls-5" d="M204.92 150.8l-40.54-64.66s4.8-.8 14.43-7.54 11.43-10.82 11.43-10.82l47.67 59.6S237.3 131.84 223 142s-18.08 8.8-18.08 8.8z"/><path class="cls-4" d="M144 74.19l59.95 74.89s3-5.38 15-14.06 17.67-9.16 17.67-9.16L185.7 44.57s-6.77-3-24.82 9.84S144 74.19 144 74.19"/><path class="cls-5" d="M144 74.19l59.95 74.89s3-5.38 15-14.06 17.67-9.16 17.67-9.16L185.7 44.57s-6.77-3-24.82 9.84S144 74.19 144 74.19z"/><path class="cls-4" d="M204.92 150.8l-40.54-64.66s4.8-.8 14.43-7.54 11.43-10.82 11.43-10.82l47.67 59.6S237.3 131.84 223 142s-18.12 8.83-18.12 8.83"/><path class="cls-5" d="M204.92 150.8l-40.54-64.66s4.8-.8 14.43-7.54 11.43-10.82 11.43-10.82l47.67 59.6S237.3 131.84 223 142s-18.08 8.8-18.08 8.8z"/><path class="cls-4" d="M242.73 192.92l-27.62-44s3.27-.54 9.83-5.14 7.79-7.37 7.79-7.37L265.2 177s-.41 3-10.13 9.94-12.34 6-12.34 6"/><path class="cls-6" d="M242.73 192.92l-27.62-44s3.27-.54 9.83-5.14 7.79-7.37 7.79-7.37L265.2 177s-.41 3-10.13 9.94-12.34 5.98-12.34 5.98z"/><path class="cls-4" d="M269.28 221.41L252 193.86s2-.34 6.14-3.21S263 186 263 186l20.31 25.4s-.26 1.89-6.34 6.21-7.72 3.76-7.72 3.76"/><path class="cls-6" d="M269.28 221.41L252 193.86s2-.34 6.14-3.21S263 186 263 186l20.31 25.4s-.26 1.89-6.34 6.21-7.69 3.8-7.69 3.8z"/><path class="cls-4" d="M243.31 188.77l25.54 31.91s1.27-2.29 6.41-6 7.53-3.9 7.53-3.9l-21.7-34.64s-2.88-1.26-10.57 4.2-7.21 8.42-7.21 8.42"/><path class="cls-6" d="M243.31 188.77l25.54 31.91s1.27-2.29 6.41-6 7.53-3.9 7.53-3.9l-21.7-34.64s-2.88-1.26-10.57 4.2-7.21 8.43-7.21 8.43z"/><path class="cls-4" d="M201.2 140.73l40.84 51s.31-5.74 8.53-11.66 13.75-4.16 13.75-4.16l-34.69-55.38s-4.61-2-16.91 6.7-11.52 13.48-11.52 13.48"/><path class="cls-6" d="M201.2 140.73l40.84 51s.31-5.74 8.53-11.66 13.75-4.16 13.75-4.16l-34.69-55.38s-4.61-2-16.91 6.7-11.52 13.5-11.52 13.5z"/><path class="cls-4" d="M141.9 75.9l62 73.18s1.25-7.45 13.33-16.13 19.38-7.09 19.38-7.09l-48.85-83s-12.26-5.39-30.31 7.42S141.9 75.9 141.9 75.9"/><path class="cls-5" d="M141.9 75.9l62 73.18s1.25-7.45 13.33-16.13 19.38-7.09 19.38-7.09l-48.85-83s-12.26-5.39-30.31 7.42S141.9 75.9 141.9 75.9z"/><path class="cls-7" d="M279.11 268.56c.15-.79-6.3-.77-6.3-.77-1.06 1.58-1.64 2.43-1.49 3.85a17.79 17.79 0 0 0-2.74 0c-5.51.34-9.82 3-9.65 5.91.12 2.08 5.13 1.34 10.06.95 2.5-.2 5-.13 6.81-.3l3.2-.2s1.16-1.24-1-5.35c-.5-.75 1-3.31 1.11-4.09zm-.79 8.92z"/><path d="M258.21 269.74c.23-.77-9.64-1.92-9.64-1.92a20 20 0 0 0 1.55 4.12 17.87 17.87 0 0 0-2.72-.35c-5.51-.28-10.09 1.88-10.24 4.81-.11 2.07 4.94 1.9 9.89 2.06 2.51.08 4.95.42 6.8.46l3.17.16s1.29-1.1-.44-5.44c-.35-.75 1.42-3.13 1.63-3.9zm-1.78 8.78z" fill="#54371d"/><path d="M274.59 248.93a5.79 5.79 0 0 1 2.94 2.68c.36.93.62 1.87.94 2.81.56 1.88 1.11 3.76 1.51 5.66s.74 3.78 1 5.68l.39 2.86a7.54 7.54 0 0 1 .15 1.43 2.31 2.31 0 0 1-1.28 1.52l-18.54 1.26a2.28 2.28 0 0 1-1.48-1.34 7.6 7.6 0 0 1-.05-1.43v-2.88c0-1.92.07-3.85.23-5.77s.43-3.87.73-5.81c.18-1 .32-1.94.55-2.92a5.82 5.82 0 0 1 2.55-3.05z" fill="#6d3325"/><path class="cls-10" d="M257.1 249.58a5.78 5.78 0 0 1 2.57 3c.24 1 .38 1.94.57 2.91.31 1.94.61 3.88.76 5.8s.24 3.86.26 5.77v2.88a8.63 8.63 0 0 1 0 1.44 2.32 2.32 0 0 1-1.47 1.35l-18.55-1.17a2.26 2.26 0 0 1-1.28-1.52 7.68 7.68 0 0 1 .13-1.43l.38-2.85c.26-1.9.57-3.8 1-5.69s.93-3.78 1.48-5.67c.31-.94.57-1.88.92-2.82a5.81 5.81 0 0 1 2.93-2.69z"/><path class="cls-7" d="M226.67 196.59c-2.72-4.38-4.35-8.54-6.5-9.62s-4 0-3.77 3.14-.9 7.28 0 8.39c1.17 1.46 3.46 4.24 4.89 4s6.87-4 6.87-4z"/><path d="M251.93 234.49c-1.33-2.27-.5-6-1.69-9.68-1.64-5 .36-9-.69-7.39s-2.79 1.1-2.63.88.19.59 1.76-1.78-.2-6 1.2-11.47a31.27 31.27 0 0 1 2-5.66 10.8 10.8 0 0 0-1.81 1.53c7.25-15.95 18.32-18.48 19.41-18.33a6.2 6.2 0 0 0-2.85-.88c4.94-2.47 8-.27 8.5.06a3.52 3.52 0 0 0-1.66-2.35c2.68-.58 4.84-.57 6.94 1.31a2.93 2.93 0 0 1 .89 2.67c.31-1.22 2.7-3.72 6.27-2.06-4.91 2.62-3.63 2.49-3.62 2.76s3.86 0 6.07 1.72a2.71 2.71 0 0 0-2.06.23c2.8 1 6.15 1.84 8 8.68a7.74 7.74 0 0 0-3.81-2c.4.73 5.77 9.81 1.08 19.77-.18-.51-1-3.33-1.46-3.33.46 2.23 1.77 9.82-12.61 21.35.53-.81 1.39-3 1-3.26-.58 1.76-4.89 4.59-11.67 4.56-9.23-.03-13.65.48-16.56 2.67z" fill="#dcb680"/><path class="cls-12" d="M237.45 248.8l-1.15 6.29c-1.18 6.12 9.49 8.87 23 11.33 11.64 2.12 25.13 5.2 26.74-3.4 5.69-22.22 2.91-42.21-16.57-45.77-19.29-3.53-26.93 8.8-30.6 24.05a.81.81 0 0 0-.11.27l-.16.89a96.14 96.14 0 0 0-1.15 6.34z"/><path class="cls-10" d="M257.54 229.52c-.1 1.12-.4 1.51-.71 1.74a7.1 7.1 0 0 1-1 .66 5.59 5.59 0 0 1-2.13.62 8.52 8.52 0 0 1-4-.46 35.64 35.64 0 0 1-6.77-3.14 62.32 62.32 0 0 1-11.17-8.48 75.75 75.75 0 0 1-9.15-10.16 86.327 86.327 0 0 1-3.84-5.65 12.6 12.6 0 0 1-1.57-3.08 10.53 10.53 0 0 1-.33-1.81 2.82 2.82 0 0 1 .17-1.09l.27-.65c0-.19.21-.45 1.37-1.26l4.17-2.33c1.29-.57 1.6-.6 1.77-.55l.67.06a2.83 2.83 0 0 1 1 .31 9.79 9.79 0 0 1 1.34 1 11.69 11.69 0 0 1 1.89 2.4c1.16 1.68 2.36 3.34 3.56 5 2.42 3.31 4.78 6.67 7.32 9.86a81 81 0 0 0 8 8.94 24.6 24.6 0 0 0 4.42 3.36c.38.23.75.4 1.1.66s.68.51 1 .82a8.37 8.37 0 0 1 1.09 1 7.84 7.84 0 0 0 .64.65 4 4 0 0 1 .9 1.6z"/><path class="cls-12" d="M256.83 201.52a21.66 21.66 0 1 0 28.6-11 21.65 21.65 0 0 0-28.6 11z"/></g></g></svg>