<svg xmlns="http://www.w3.org/2000/svg" viewBox="0 0 482.82 286.25"><defs><style>.cls-3{fill:none}.cls-4{fill:#e84c59}.cls-5{fill:#ee7b5c}.cls-6{fill:#f9c862}.cls-7{fill:#062633}.cls-8{fill:#abaaaa}.cls-9{fill:#e1dfe0}.cls-10{fill:#041d26}.cls-11{fill:#6e6e6e}.cls-12{fill:silver}.cls-13{fill:#5e3e21}.cls-16{fill:#783a28}.cls-17{fill:#8f4729}.cls-21{fill:#231d13}</style></defs><g id="Layer_2" data-name="Layer 2"><g id="Layer_2-2" data-name="Layer 2"><path fill="#002735" d="M2.51 0h480.31v286.25H2.51z"/><path d="M112.53 66.57l1.52-8.32.27 8.32 7.52 1.07-7.61.9-1.52 8.77-.36-8.77-7.43-.9 7.61-1.07zm280.15 187.09l-1 5.23-.18-5.23-4.9-.67 4.96-.57 1-5.51.23 5.51 4.85.57-4.96.67z" fill="#e1f1f9"/><path class="cls-3" d="M0 4.19h479.31v282.06H0z"/><path class="cls-4" d="M217.58 178.65c1 6.66 2.22 19.51-1 26.38-5 10.65-20.14 18.5-27 21.06 5-6.42 7.17-11.62 6.11-15.44-.34-1.21-2.55 3-6.47 3.67 1.48-4.44 1.25-5.59 1.19-8.85s.61-9.12 2.81-12.47c7-10.72 19.06-14.84 21.6-16z"/><path class="cls-5" d="M217.58 178.65c.68 2.86.85 13.22-1.92 17.95s-13.61 9.62-18.61 14.37c1.2-5.06 2.51-6.81 1.94-11.13s-.36-4.94.32-7.35 5.08-7.31 9.59-11.08c4.74-4 5.92-4.38 5.92-4.38z"/><path class="cls-6" d="M217.58 178.65c.21 3.44-.74 13-3.76 15.52s-5.41 1.75-10.5 5.3c0-2.08 3.13-5.27 2.19-7.5-1.23 1.06-1.67 1.93-3.33 2.36 1.41-1.78 1.41-4.23 2.6-6.78 1.39-3 4.34-4.82 6.65-6.84a19.7 19.7 0 0 0 3.39-3.68z"/><path class="cls-7" d="M215.72 180c5 2.85 9.77 4 10.58 2.59l-1.46 2.57c-.8 1.42-5.54.27-10.58-2.58s-8.48-6.31-7.67-7.73l1.45-2.58c-.8 1.46 2.63 4.93 7.68 7.73z"/><path class="cls-7" d="M214 183.14c3.8 2.15 7.37 3 8 2l-1.16 1.86c-.61 1.07-4.17.2-8-1.95s-6.39-4.75-5.78-5.82l1.09-1.94c-.57 1.1 2.02 3.71 5.85 5.85z"/><path class="cls-8" d="M242.18 149.24c-1 6.4-3.55 14.76-9.09 24.56l-5.09 9.09s-7.61-1.42-11.74-3.75-9.26-8-9.26-8 2-3.92 5-9.28a71.86 71.86 0 0 1 16.52-20.3 32.22 32.22 0 0 0 6.29 4.58 31.66 31.66 0 0 0 7.37 3.1z"/><path class="cls-9" d="M240.85 135.44c1.19.67 2.57 5.64 1.33 13.8a31.66 31.66 0 0 1-7.39-3.08 32.22 32.22 0 0 1-6.29-4.58c6.23-5.11 11.2-6.78 12.35-6.14z"/><path class="cls-7" d="M217.69 176.55c5.85 3.31 11.35 4.65 12.28 3l-1.69 3c-.93 1.64-6.43.3-12.28-3s-9.84-7.33-8.9-9l1.68-3c-.93 1.68 3.06 5.69 8.91 9z"/><path class="cls-3" d="M208 173.31a16.71 16.71 0 0 0 2.31 2.31l-.21.42a7.79 7.79 0 0 1-2.1-2.73zm.19 4.87c.18.19.38.38.59.57l-.11.24a3.56 3.56 0 0 1-.48-.81z"/><path class="cls-10" d="M210.09 176c-.45.91-.89 1.81-1.31 2.71-.21-.19-.41-.38-.59-.57a1 1 0 0 1-.05-.89l-.3.53c-1.14-1.24-1.66-2.32-1.3-3l1.12-2 .33.44a7.79 7.79 0 0 0 2.1 2.78z"/><path class="cls-10" d="M208.19 178.18a3.56 3.56 0 0 0 .48.81c-.33.7-.65 1.41-1 2.1-.64-.78-.9-1.44-.66-1.86l.79-1.41.3-.53a1 1 0 0 0 .09.89z"/><path class="cls-11" d="M214.13 168.42q-1.19 2.07-2.26 4.12c-2.19-1.88-3.45-3.62-3.24-4.68.85-1.59 2-3.66 3.31-6a71.77 71.77 0 0 1 16.52-20.29 29.54 29.54 0 0 0 3.06 2.51 128.68 128.68 0 0 0-17.39 24.34z"/><path class="cls-12" d="M228.46 141.55c6.23-5.11 11.2-6.78 12.34-6.14a1.43 1.43 0 0 1 .46.46 44.27 44.27 0 0 0-9.74 8.19 29.54 29.54 0 0 1-3.06-2.51z"/><path class="cls-10" d="M211.87 172.54c-.54 1-1.06 2.06-1.57 3.08a16.71 16.71 0 0 1-2.31-2.31l-.33-.44a3.51 3.51 0 0 1-.73-1.73 1.19 1.19 0 0 1 .12-.57l1.69-3a1 1 0 0 0-.11.31c-.21 1.04 1.05 2.78 3.24 4.66z"/><path class="cls-4" d="M200.2 176.14c1 6.66 2.23 19.51-1 26.38-5 10.66-20.15 18.5-27 21.06 5-6.42 7.17-11.61 6.11-15.44-.34-1.21-2.55 3-6.47 3.67 1.48-4.43 1.26-5.59 1.2-8.84s.6-9.13 2.8-12.48c7-10.72 19.06-14.84 21.6-16z"/><path class="cls-5" d="M200.2 176.14c.69 2.87.86 13.22-1.91 18s-13.61 9.61-18.62 14.36c1.2-5.06 2.51-6.8 1.94-11.13s-.35-4.93.32-7.35 5.08-7.31 9.59-11.07c4.75-4 5.92-4.39 5.92-4.39z"/><path class="cls-6" d="M200.2 176.14c.21 3.44-.74 13-3.76 15.52S191 193.41 186 197c0-2.08 3.12-5.26 2.19-7.5-1.24 1.06-1.68 1.93-3.34 2.36 1.41-1.78 1.41-4.23 2.6-6.78 1.39-3 4.34-4.82 6.65-6.83a19.9 19.9 0 0 0 3.39-3.69z"/><path class="cls-7" d="M198.34 177.53c5 2.86 9.78 4 10.58 2.59l-1.45 2.57c-.81 1.43-5.55.27-10.59-2.58s-8.48-6.31-7.67-7.73l1.45-2.57c-.8 1.42 2.64 4.88 7.68 7.72z"/><path class="cls-7" d="M196.59 180.64c3.79 2.14 7.36 3 8 1.94l-1.09 1.94c-.61 1.07-4.17.2-8-2s-6.38-4.75-5.78-5.82l1.09-1.94c-.61 1.12 1.98 3.73 5.78 5.88z"/><path class="cls-8" d="M224.8 146.73c-1 6.4-3.55 14.76-9.09 24.56l-5.13 9.09s-7.58-1.38-11.73-3.75-9.27-8-9.27-8 2-3.92 5-9.28a72 72 0 0 1 16.52-20.3 33.62 33.62 0 0 0 13.67 7.66z"/><path class="cls-9" d="M223.47 132.93c1.19.68 2.57 5.64 1.33 13.8a33.62 33.62 0 0 1-13.67-7.66c6.22-5.07 11.2-6.78 12.34-6.14z"/><path class="cls-7" d="M200.31 174c5.85 3.31 11.35 4.65 12.28 3l-1.69 3c-.93 1.65-6.43.3-12.28-3s-9.83-7.32-8.9-9l1.69-3c-.94 1.72 3.05 5.74 8.9 9z"/><path class="cls-3" d="M190.61 170.8a16.72 16.72 0 0 0 2.31 2.32l-.21.41a7.83 7.83 0 0 1-2.1-2.73zm.2 4.87c.18.19.38.38.59.57l-.11.24a3.56 3.56 0 0 1-.48-.81z"/><path class="cls-10" d="M192.71 173.53c-.45.91-.89 1.82-1.31 2.71-.21-.19-.41-.38-.59-.57a1 1 0 0 1-.05-.89l-.3.53c-1.14-1.24-1.66-2.32-1.29-3l1.12-2c.1.15.2.29.32.44a7.83 7.83 0 0 0 2.1 2.78z"/><path class="cls-10" d="M190.81 175.67a3.56 3.56 0 0 0 .48.81c-.33.71-.65 1.41-1 2.11-.64-.78-.9-1.45-.66-1.87l.79-1.41.3-.53a1 1 0 0 0 .09.89z"/><path class="cls-11" d="M196.75 165.91q-1.17 2.09-2.25 4.09c-2.2-1.88-3.45-3.62-3.25-4.68.85-1.58 2-3.66 3.31-6A72 72 0 0 1 211.08 139a28.31 28.31 0 0 0 3.06 2.51 128.68 128.68 0 0 0-17.39 24.4z"/><path class="cls-12" d="M211.08 139c6.23-5.11 11.2-6.78 12.34-6.14a1.43 1.43 0 0 1 .46.46 44.27 44.27 0 0 0-9.74 8.19 28.31 28.31 0 0 1-3.06-2.51z"/><path class="cls-10" d="M194.5 170c-.55 1-1.07 2.06-1.58 3.09a16.72 16.72 0 0 1-2.31-2.32c-.12-.15-.22-.29-.32-.44a3.54 3.54 0 0 1-.74-1.73 1.15 1.15 0 0 1 .12-.56l1.69-3a1.42 1.42 0 0 0-.11.31c-.2 1.06 1.05 2.8 3.25 4.65z"/><path class="cls-13" d="M294.66 123.29c1.62-2.47 5.91-7.57 11.1-3s-3.12 10-3.12 10z"/><path d="M226.77 191.41c-4.67-1.09-5.6.39-5.6.39l.66 3.2c.32 1.88 1 4.31 1.52 6.84.92 5 1.53 10.18 3.62 9.75 3-.61 4.44-5.6 3.3-11.16a17.2 17.2 0 0 0-.77-2.72 20.94 20.94 0 0 0 4.43.95s-2.7-9.87-3.44-9.51-2.9 2.5-3.72 2.26zm-4.94.91z" fill="#54371d"/><path d="M237.31 177.32a5.89 5.89 0 0 1 2.34 3.36c.15 1 .2 2 .3 3 .14 2 .26 4 .23 6s-.12 4-.28 5.94l-.26 3a7.2 7.2 0 0 1-.18 1.46 2.33 2.33 0 0 1-1.63 1.24l-18.89-3a2.34 2.34 0 0 1-1.17-1.68 9 9 0 0 1 .27-1.45l.67-2.88c.44-1.93.94-3.84 1.54-5.74s1.31-3.78 2.06-5.66c.41-.93.76-1.87 1.21-2.8a6 6 0 0 1 3.26-2.48z" fill="#6d3325"/><path class="cls-13" d="M209.4 186.19c-2.36-4.18-4.08-3.85-4.08-3.85l-1.91 2.66c-1.16 1.51-2.46 3.68-4 5.75-3.06 4.07-6.45 8-4.71 9.27 2.45 1.76 7.12-.53 10.44-5.14a18.09 18.09 0 0 0 1.48-2.4c1.15.91 2.21.87 4.17.82 0 0 3.56-5.59 2.79-5.9s-3.79-.4-4.18-1.21zm-4-3z"/><path class="cls-16" d="M225 175.29a6 6 0 0 1 .7 4c-.3 1-.68 1.91-1 2.88-.73 1.88-1.47 3.75-2.34 5.54s-1.79 3.55-2.78 5.26l-1.48 2.56a6.76 6.76 0 0 1-.79 1.25 2.32 2.32 0 0 1-2 .43l-15.85-10.68a2.35 2.35 0 0 1-.35-2 7.34 7.34 0 0 1 .87-1.2l1.82-2.33c1.22-1.56 2.49-3.08 3.83-4.55s2.79-2.87 4.26-4.25c.77-.67 1.49-1.38 2.29-2a6 6 0 0 1 4-.87zm21.71-17.4c.59-1.19 1-1.55 1.31-1.73s.69-.41 1-.59a8.09 8.09 0 0 1 1.86-.84 13.25 13.25 0 0 1 1.76-.62 10.85 10.85 0 0 1 1.73-.41 32.21 32.21 0 0 0 6.8-2.39 69.31 69.31 0 0 0 12.57-8.07A136.27 136.27 0 0 0 285 133.08c1.78-1.78 3.52-3.59 5.09-5.43a17.1 17.1 0 0 1 2.42-2.6 12.9 12.9 0 0 1 1.5-1 3 3 0 0 1 1.08-.29h.72a1.34 1.34 0 0 1 .53 0c.11 0 .4.13.59.18l.43.14.5.18 4.91 2.32.44.29c.15.1.3.2.37.26a4.29 4.29 0 0 1 .47.41 1.06 1.06 0 0 1 .3.5 7.66 7.66 0 0 1 .25.87 4 4 0 0 1 .05 1.49 14.32 14.32 0 0 1-.72 2.48 16.32 16.32 0 0 1-2.54 4 68.39 68.39 0 0 1-6 6.72 75.33 75.33 0 0 1-14.14 10.72 63.26 63.26 0 0 1-16.63 7 45.21 45.21 0 0 1-9.19 1.38 11.39 11.39 0 0 1-4.74-.65 8.74 8.74 0 0 1-2.24-1.13 9.66 9.66 0 0 1-1-.9c-.33-.29-.64-.75-.73-2z"/><path class="cls-17" d="M268.08 143.15a22.27 22.27 0 1 1-10.62-29.66 22.29 22.29 0 0 1 10.62 29.66z"/><path class="cls-17" d="M252.06 180.65l.4-.85a1 1 0 0 0 .07-.29c6.07-14.94 7.09-29.83-11.15-38.45-18.42-8.7-32.73 6.34-41.3 28.33-3.81 8.15 9.31 13.67 20.32 18.88 12.77 6 23.33 10.15 26 4.33l2.81-5.95c1.07-2.05 2.02-4.05 2.85-6z"/><path d="M250.26 168c-2.06-1.28-2.91-4.87-5.43-7.4-3.48-3.49-3.41-7.81-3.65-6s-1.91 2.3-1.86 2 .41.41.76-2.38-2.65-5-3.73-10.33a32.7 32.7 0 0 1-.64-5.8 11.81 11.81 0 0 0-.89 2.19c-.45-17.12 7.88-24.69 8.87-25.09a5.83 5.83 0 0 0-2.77.64c3.16-4.51 6.68-4.15 7.23-4.11a3.08 3.08 0 0 0-2.39-1.18c2-1.8 3.87-2.86 6.42-2.29a2.59 2.59 0 0 1 1.87 1.84 4.6 4.6 0 0 1 4.47-4.82c-3.08 4.63-2 3.89-1.94 4.12s3.28-1.89 5.86-1.52a2.86 2.86 0 0 0-1.65 1.21c2.8-.5 6-1.45 10.41 3.44a7.1 7.1 0 0 0-4 .18 19.86 19.86 0 0 1 9.09 16.28c-.37-.34-2.25-2.33-2.62-2.11 1.31 1.67 5.56 7.48-1.86 24.33.11-1 0-3.2-.5-3.26.23 1.77-2.25 6.29-8 9.58-7.95 4.61-11.49 7.21-13.05 10.48z" fill="#dcb680"/><path class="cls-13" d="M269.61 138c1.94-8.38-1.68-16.43-7.66-17.82s-12.4 4.29-14.34 12.67a18.88 18.88 0 0 0 1.43 13c2 3.84 3.74 7 3.38 10.34 2.05-4.21 5.38-4.83 9.65-7.16 3.37-1.82 6.39-6.03 7.54-11.03z"/><path d="M270.26 135.83c-1.27 8.23-6.65 14.43-12.93 13.46s-11.82-8.95-10.55-17.18S254.17 118 260.45 119s11.07 8.6 9.81 16.83z" fill="#c69666"/><path d="M262.36 131a11.82 11.82 0 0 1 2.62.32 5.17 5.17 0 0 1 2.33 1.09 5 5 0 0 0-2.4-.64 11.8 11.8 0 0 0-2.46.13zm-3.53.41a10.74 10.74 0 0 0-2.32-.94 5 5 0 0 0-2.52-.13 5.32 5.32 0 0 1 2.6-.32 11.57 11.57 0 0 1 2.62.56z" fill="#662f1e"/><path class="cls-21" d="M258.17 133.1l-2.3-.99 2.49.42-.19.57zm4.2-.1l1.6-.09a7.74 7.74 0 0 1 1.6.06 7.55 7.55 0 0 0-1.56.24c-.51.12-1 .25-1.53.39z"/><path d="M257.73 135.79a2.5 2.5 0 0 0 .52 2.28 3.19 3.19 0 0 0 2 1.05 2.37 2.37 0 0 0 2.12-.59 2.85 2.85 0 0 0 .67-1 2.06 2.06 0 0 0 .19-1.2 2.5 2.5 0 0 1-.52 2.5 2.68 2.68 0 0 1-2.55.86 3.27 3.27 0 0 1-2.31-1.37 2.39 2.39 0 0 1-.12-2.53z" fill="#574c3e"/><path class="cls-21" d="M255.84 142a2.4 2.4 0 0 0 1 1.23 4.27 4.27 0 0 0 .66.29c.22.1.43.22.68.31a3.76 3.76 0 0 0 1.58.2 3.32 3.32 0 0 0 1.62-.56 3.13 3.13 0 0 1-1.46 1.16 4.32 4.32 0 0 1-2 .3 2.88 2.88 0 0 1-1-.25 2.61 2.61 0 0 1-.81-.71 2 2 0 0 1-.27-1.97z"/><path d="M258.32 118.89a10.84 10.84 0 0 1 4.79.81c4 1.71 6.11 6.61 6.6 7.9a4.39 4.39 0 0 0-3.53-.55l-.63.2-1.12-4.11-1 4.69c-6.89 1.34-13.33-5.33-15.43-.16 2-4.88 6.07-8.46 10.36-8.78" fill="#442c1a"/><path class="cls-13" d="M188.82 162.38c-2.79 0-9-.88-8.1-7.51s3.41-3.79 4.77-3.11a6.3 6.3 0 0 0 4.72.45z"/><path class="cls-16" d="M231.05 147.28a3.29 3.29 0 0 1 .34 2c-.09.33-.17.69-.27 1a5.94 5.94 0 0 1-.82 1.59 7.18 7.18 0 0 1-2.29 2.18c-.85.57-1.73 1.11-2.61 1.66l-1.33.82-1.36.76a57.24 57.24 0 0 1-11.64 5 51.08 51.08 0 0 1-6.25 1.46c-1.06.17-2.12.36-3.19.44a31.43 31.43 0 0 1-3.21.2 52.12 52.12 0 0 1-6.38-.23 8.94 8.94 0 0 1-3.12-.62 7.24 7.24 0 0 1-1.47-.91 2.64 2.64 0 0 1-.66-.87l-.3-.67c-.11-.16-.19-.49-.09-2.09l.75-5.38c.33-1.56.49-1.87.62-2l.42-.58a2.79 2.79 0 0 1 .76-.7 10.58 10.58 0 0 1 1.39-.58 8.11 8.11 0 0 1 2.63-.14c.87 0 1.73.06 2.58 0s1.72 0 2.57 0h2.55c.86 0 1.71 0 2.56-.06 1.71-.06 3.41-.18 5.13-.35a75.07 75.07 0 0 0 10.4-1.7l1.31-.31 1.29-.38A27.06 27.06 0 0 0 224 146a6.84 6.84 0 0 1 1.33-.38c.47-.07 1-.09 1.49-.12a5.29 5.29 0 0 1 1.67.16c.32.08.66.2 1 .3s.73.32 1.59 1.28z"/></g></g></svg>