<svg xmlns="http://www.w3.org/2000/svg" viewBox="0 0 480.31 286.25"><defs><style>.cls-2{fill:#e1f1f9}.cls-4{fill:#5e3e21}.cls-7{fill:#783a28}.cls-8{fill:#8f4729}.cls-9{fill:#e84c59}.cls-10{fill:#ee7b5c}.cls-11{fill:#f9c862}.cls-12{fill:#062633}.cls-13{fill:#abaaaa}.cls-14{fill:#e1dfe0}.cls-15{fill:none}.cls-16{fill:#041d26}.cls-17{fill:#6e6e6e}.cls-18{fill:silver}</style></defs><g id="Layer_2" data-name="Layer 2"><g id="Layer_2-2" data-name="Layer 2"><path fill="#002735" d="M0 0h480.31v286.25H0z"/><path class="cls-2" d="M322.72 67.54l1.67-9.17.3 9.17 8.28 1.18-8.38.99-1.68 9.66-.39-9.66-8.18-.99 8.38-1.18zM97.16 226.42l1.51-8.32.27 8.32 7.52 1.07-7.6.9-1.53 8.77-.35-8.77-7.43-.9 7.61-1.07zM390.17 250.64l-1 5.23-.17-5.23-4.91-.67 4.96-.57 1-5.51.23 5.51 4.85.57-4.96.67z"/><path d="M210 184.79c-4.85 2.69-9.55 2.75-10.89.35s1.2-6.37 6-9.07 9.86-2.92 11.2-.51-1.44 6.54-6.31 9.23z" fill="#54371d"/><ellipse class="cls-4" cx="215.73" cy="195.05" rx="10.04" ry="4.98" transform="rotate(-29.06 215.731 195.045)"/><path d="M248 180.68c2.46.69 5.79-1 9.51-.77 5.14.3 8.35-2.53 7.12-1.16s-.35 2.89-.19 2.68-.6 0 1.25-2.08 5.66-1.26 10.49-3.92a31.2 31.2 0 0 0 4.82-3.27 10.58 10.58 0 0 1-1 2.07c13.22-10.71 12.9-21.73 12.49-22.72A6 6 0 0 1 294 154c1.11-5.24-1.7-7.6-2.13-8a3.43 3.43 0 0 1 2.61 1c-.11-2.66-.64-4.69-2.91-6.2a2.86 2.86 0 0 0-2.74-.19c1.08-.59 2.84-3.44.4-6.4-1.26 5.26-1.45 4-1.7 4.08s-.95-3.63-3.09-5.29a2.66 2.66 0 0 1 .28 2c-1.65-2.39-3.23-5.34-10.13-5.45a7.49 7.49 0 0 1 2.79 3.09c-.78-.2-10.62-3-18.84 3.81.52.05 3.38.15 3.48.56-2.21.11-9.66.73-17 17.06.64-.69 2.45-2 2.82-1.73-1.5 1-3.12 5.72-1.43 12.09 2.34 8.7 2.94 12.98 1.59 16.25z" fill="#dcb680"/><path d="M230.05 174.12a5.56 5.56 0 0 1-.89 3.76c-.62.75-1.29 1.42-1.94 2.13-1.33 1.36-2.67 2.72-4.08 4s-2.87 2.42-4.35 3.54l-2.24 1.68a7.53 7.53 0 0 1-1.14.8 2.21 2.21 0 0 1-1.9-.36l-9.83-15.14a2.22 2.22 0 0 1 .44-1.88 6.94 6.94 0 0 1 1.2-.72l2.44-1.36c1.63-.9 3.3-1.75 5-2.53s3.48-1.46 5.27-2.12c.91-.3 1.8-.65 2.73-.92a5.66 5.66 0 0 1 3.8.73z" fill="#6d3325"/><path class="cls-7" d="M237.18 187a5.61 5.61 0 0 1-.88 3.76c-.63.75-1.3 1.42-2 2.13-1.33 1.36-2.67 2.72-4.08 3.95s-2.86 2.42-4.35 3.54l-2.19 1.62a7.47 7.47 0 0 1-1.14.79 2.21 2.21 0 0 1-1.9-.36l-9.83-15.14a2.24 2.24 0 0 1 .44-1.88 6.94 6.94 0 0 1 1.2-.72l2.44-1.36c1.63-.9 3.3-1.75 5-2.53s3.48-1.46 5.27-2.12c.91-.3 1.8-.65 2.73-.91a5.58 5.58 0 0 1 3.8.72z"/><path class="cls-8" d="M247.93 195.28l.75-.47a1 1 0 0 0 .21-.19c12.39-8.85 20.72-20.21 10.53-36.3-10.29-16.24-29.3-11.48-47.24 1.72-7.16 4.57.52 15.61 6.66 25.32 7.13 11.27 13.48 19.88 18.56 16.6l5.24-3.32c1.88-1.11 3.64-2.22 5.29-3.36z"/><path class="cls-4" d="M281 187.11c2-1.7 7-5 10.42.36 4.57 7.09-16.55 11-5.14 7.76z"/><path class="cls-7" d="M254.18 174.9c1.07.71 1.36 1.09 1.49 1.41s.31.65.44.95a8.55 8.55 0 0 1 .45 1.69 9.6 9.6 0 0 1 .13 2.89 11.79 11.79 0 0 0 .48 4.63 3.18 3.18 0 0 0 1.72 2.07 5.49 5.49 0 0 0 1.15.4 15.69 15.69 0 0 0 1.66.22 20.07 20.07 0 0 0 4.33-.23c1.58-.26 3.24-.64 4.91-1.08a50.55 50.55 0 0 0 5-1.63 9.51 9.51 0 0 1 2.57-.8 8.88 8.88 0 0 1 1.54 0 2.88 2.88 0 0 1 1 .33l.61.37c.18.06.44.28 1.37 1.58l2.78 4.6c.7 1.43.73 1.78.68 2l-.07.76a3 3 0 0 1-.4 1.12 9.71 9.71 0 0 1-1.26 1.5 10.92 10.92 0 0 1-3.17 1.86 43.43 43.43 0 0 1-6.95 2.47 32.14 32.14 0 0 1-7.55 1.07 27.13 27.13 0 0 1-8.27-1 19.85 19.85 0 0 1-4.33-1.79 16.7 16.7 0 0 1-4-3.23 14.78 14.78 0 0 1-1.59-2.06 17.25 17.25 0 0 1-1.12-2.34 13.54 13.54 0 0 1-.67-2.36l-.21-1.17c-.05-.38-.06-.75-.09-1.13a23.47 23.47 0 0 1 1.11-7.94 10.57 10.57 0 0 1 .67-1.72 11.94 11.94 0 0 1 1.07-1.52 5.16 5.16 0 0 1 1.45-1.32c.31-.18.66-.35 1-.52s.79-.3 2-.09z"/><path class="cls-8" d="M277.8 168a21 21 0 1 1 3.32-29.56A21 21 0 0 1 277.8 168z"/><path class="cls-9" d="M208.37 177c-1.82 6.09-6 17.53-11.47 22.08-8.55 7.07-24.61 7.66-31.5 7.08 6.82-3.47 10.8-7 11.43-10.7.2-1.17-3.36 1.49-7 .52a18.17 18.17 0 0 0 4.58-7.06c1.26-2.8 4.19-7.53 7.41-9.5 10.3-6.31 22.22-5 24.84-4.91z"/><path class="cls-10" d="M208.37 177c-.57 2.72-4.59 11.62-8.86 14.53s-15.47 2.71-21.65 4.75c3.06-3.83 4.88-4.79 6.14-8.7s1.68-4.35 3.23-6.14 7.27-4.18 12.63-5.58c5.64-1.46 6.81-1.35 6.81-1.35z"/><path class="cls-11" d="M208.37 177c-1.21 3-5.86 10.79-9.45 11.72s-5.32-.69-11.08.29c.8-1.79 4.78-3.24 4.89-5.52-1.48.41-2.21 1-3.8.67 1.92-1 2.9-3 4.95-4.73 2.38-2 5.64-2.35 8.42-3.14a18.62 18.62 0 0 0 4.37-1.78z"/><path class="cls-12" d="M206.22 177.39c3.15 4.46 6.72 7.35 8 6.47l-2.28 1.6c-1.25.89-4.83-2-8-6.46s-4.68-8.79-3.42-9.68l2.27-1.61c-1.25.89.28 5.22 3.43 9.68z"/><path class="cls-12" d="M203.48 179.33c2.37 3.35 5.06 5.53 6 4.87l-1.72 1.21c-.94.66-3.63-1.51-6-4.87s-3.53-6.62-2.58-7.29l1.72-1.25c-.9.71.21 4 2.58 7.33z"/><path class="cls-13" d="M241.18 161.8c-3.41 5.06-9 11.14-17.64 17.27l-8 5.67s-5.91-4.26-8.49-7.91-4.68-10.54-4.68-10.54 3.27-2.53 8-5.88a67.79 67.79 0 0 1 22.25-10.65 31.35 31.35 0 0 0 8.57 12z"/><path class="cls-14" d="M245.6 149.5c.74 1.05-.08 5.84-4.42 12.3a31.35 31.35 0 0 1-8.57-12c7.39-1.89 12.27-1.31 12.99-.3z"/><path class="cls-12" d="M209.31 175.21c3.65 5.17 7.8 8.53 9.26 7.5l-2.64 1.87c-1.46 1-5.61-2.33-9.26-7.51s-5.44-10.2-4-11.23l2.64-1.86c-1.44 1.02.34 6.02 4 11.23z"/><path class="cls-15" d="M202.35 168.54a16 16 0 0 0 1 2.9l-.34.27a7.42 7.42 0 0 1-.66-3.17zM200.55 172.77c.09.23.18.48.28.73l-.19.16a3.77 3.77 0 0 1-.09-.89z"/><path class="cls-13" d="M202.32 166.25z"/><path class="cls-16" d="M203 171.71c-.75.6-1.49 1.19-2.21 1.79-.1-.25-.19-.5-.28-.73a.93.93 0 0 1 .33-.77l-.47.33c-.48-1.52-.49-2.65.08-3.05l1.76-1.24c0 .16.06.33.1.5a7.42 7.42 0 0 0 .69 3.17z"/><path class="cls-16" d="M200.55 172.77a3.77 3.77 0 0 0 .09.89c-.57.46-1.12.93-1.67 1.4-.22-.92-.18-1.59.19-1.85l1.25-.88.47-.33a.93.93 0 0 0-.33.77z"/><path class="cls-17" d="M209.55 166.84c-1.22.86-2.42 1.74-3.58 2.61-1.11-2.49-1.48-4.47-.88-5.3 1.36-1 3.16-2.32 5.24-3.79a67.83 67.83 0 0 1 22.25-10.64 28.17 28.17 0 0 0 1.59 3.37 121.62 121.62 0 0 0-24.62 13.75z"/><path class="cls-18" d="M232.58 149.72c7.37-1.85 12.28-1.27 13-.27a1.36 1.36 0 0 1 .2.58 42 42 0 0 0-11.6 3.06 28.17 28.17 0 0 1-1.6-3.37z"/><path class="cls-16" d="M206 169.45c-.88.66-1.74 1.33-2.59 2a16 16 0 0 1-1-2.9c0-.17-.07-.34-.1-.5a3.28 3.28 0 0 1 .07-1.78 1 1 0 0 1 .33-.43l2.64-1.87a.92.92 0 0 0-.22.22c-.64.81-.27 2.81.87 5.26z"/><path class="cls-9" d="M220.28 192.51c-1.33 6.21-4.56 17.94-9.69 22.92-8 7.72-23.94 9.57-30.84 9.53 6.52-4 10.2-7.84 10.55-11.56.1-1.18-3.24 1.75-6.93 1.07a18.24 18.24 0 0 0 4-7.4c1-2.89 3.58-7.83 6.64-10 9.77-7.11 21.76-6.71 24.37-6.85z"/><path class="cls-10" d="M220.28 192.51c-.35 2.76-3.66 12-7.69 15.19s-15.2 3.92-21.2 6.44c2.75-4.07 4.49-5.16 5.43-9.16s1.33-4.47 2.74-6.38 6.92-4.74 12.15-6.55c5.51-1.91 6.68-1.88 6.68-1.88z"/><path class="cls-11" d="M220.28 192.51c-1 3.1-5 11.22-8.49 12.43s-5.36-.27-11 1.16c.66-1.85 4.52-3.6 4.44-5.88-1.44.52-2.12 1.14-3.73 1 1.84-1.09 2.65-3.25 4.56-5.1 2.22-2.16 5.44-2.8 8.15-3.8a18.35 18.35 0 0 0 4.21-2.11z"/><path class="cls-12" d="M218.18 193.12c3.49 4.2 7.28 6.8 8.46 5.82l-2.14 1.78c-1.19 1-5-1.62-8.47-5.82s-5.36-8.39-4.17-9.38l2.14-1.78c-1.19.99.68 5.19 4.18 9.38z"/><path class="cls-12" d="M215.6 195.27c2.62 3.16 5.48 5.12 6.37 4.38l-1.61 1.35c-.89.74-3.75-1.22-6.38-4.38s-4-6.32-3.14-7.06l1.61-1.35c-.89.79.55 3.9 3.15 7.06z"/><path class="cls-13" d="M251.79 174.82c-3 5.31-8.06 11.82-16.22 18.61l-7.57 6.29s-6.23-3.79-9.08-7.22-5.5-10.14-5.5-10.14 3.06-2.78 7.53-6.5a67.82 67.82 0 0 1 21.35-12.36 31.72 31.72 0 0 0 9.49 11.32z"/><path class="cls-14" d="M255.23 162.21c.83 1 .39 5.83-3.44 12.61a31.72 31.72 0 0 1-9.49-11.32c7.2-2.42 12.14-2.24 12.93-1.29z"/><path class="cls-12" d="M221.08 190.7c4 4.87 8.45 7.89 9.82 6.75l-2.48 2.07c-1.37 1.14-5.77-1.88-9.82-6.75s-6.22-9.74-4.85-10.88l2.48-2.07c-1.37 1.18.77 6.01 4.85 10.88z"/><path class="cls-15" d="M213.62 184.6a16.05 16.05 0 0 0 1.26 2.82l-.32.29a7.33 7.33 0 0 1-.94-3.11zM212.16 189c.1.23.22.46.34.7l-.18.18a3.58 3.58 0 0 1-.16-.88z"/><path class="cls-13" d="M213.41 182.32z"/><path class="cls-16" d="M214.56 187.71c-.7.65-1.39 1.3-2.06 1.95-.12-.24-.24-.47-.34-.7a1 1 0 0 1 .26-.8l-.44.37c-.59-1.48-.69-2.6-.15-3.05l1.65-1.37c0 .16.08.32.14.49a7.33 7.33 0 0 0 .94 3.11z"/><path class="cls-16" d="M212.16 189a3.58 3.58 0 0 0 .16.88c-.53.51-1 1-1.55 1.53-.3-.9-.31-1.57 0-1.87l1.17-1 .44-.37a1 1 0 0 0-.22.83z"/><path class="cls-17" d="M220.66 182.34q-1.72 1.44-3.36 2.88c-1.3-2.39-1.83-4.34-1.29-5.2 1.27-1.12 3-2.57 4.92-4.2a67.92 67.92 0 0 1 21.34-12.36 28.59 28.59 0 0 0 1.86 3.23 122 122 0 0 0-23.47 15.65z"/><path class="cls-18" d="M242.27 163.46c7.2-2.42 12.15-2.24 12.93-1.29a1.33 1.33 0 0 1 .25.56 41.84 41.84 0 0 0-11.32 4 28.59 28.59 0 0 1-1.86-3.27z"/><path class="cls-16" d="M217.3 185.22c-.83.73-1.63 1.46-2.42 2.2a16.05 16.05 0 0 1-1.26-2.82c-.06-.17-.1-.33-.14-.49a3.23 3.23 0 0 1-.07-1.78 1.12 1.12 0 0 1 .3-.46l2.49-2.06a.68.68 0 0 0-.2.24c-.53.83 0 2.78 1.3 5.17z"/></g></g></svg>