<svg xmlns="http://www.w3.org/2000/svg" viewBox="0 0 480.31 286.25"><defs><style>.cls-2{fill:#e1f1f9}.cls-3{fill:#e84c59}.cls-4{fill:#ee7b5c}.cls-5{fill:#f9c862}.cls-6{fill:#062633}.cls-7{fill:#abaaaa}.cls-8{fill:#e1dfe0}.cls-9{fill:none}.cls-10{fill:#041d26}.cls-11{fill:#6e6e6e}.cls-12{fill:silver}.cls-13{fill:#5e3e21}.cls-14{fill:#783a28}.cls-17{fill:#8f4729}.cls-20{fill:#662f1e}.cls-21{fill:#231d13}</style></defs><g id="Layer_2" data-name="Layer 2"><g id="Layer_2-2" data-name="Layer 2"><path fill="#002735" d="M0 0h480.31v286.25H0z"/><path class="cls-2" d="M53.75 234.47l1.67-9.17.3 9.17 8.28 1.18-8.37.99-1.68 9.66-.4-9.66-8.17-.99 8.37-1.18zM377.41 180.69l1.52-8.32.26 8.32 7.52 1.07-7.6.9-1.52 8.77-.36-8.77-7.43-.9 7.61-1.07zM215.7 72.74l-2.69 10.9.32-11.05-9.87-2.02 10.14-.58 2.72-11.48-.23 11.64 9.77 1.78-10.16.81zM94.14 156.29l-.99 5.23-.18-5.23-4.91-.68 4.97-.56 1-5.51.23 5.51 4.85.56-4.97.68z"/><path class="cls-3" d="M314.79 207.22c3.71 4.18 10.35 12.57 11.21 18.78 1.32 9.66-5.68 22-9.3 26.84.56-6.71-.25-11.32-2.71-13.5-.79-.7-.44 3.2-2.85 5.47a16.09 16.09 0 0 0-3.16-6.7c-1.51-2.23-3.69-6.62-3.67-9.94 0-10.64 6.57-18.93 7.83-20.86z"/><path class="cls-4" d="M314.79 207.22c1.77 1.68 6.56 8.82 6.76 13.36s-5.13 12.83-6.47 18.39c-1.45-4.06-1.32-5.87-3.67-8.62s-2.48-3.27-3.1-5.26.24-7.38 1.68-12c1.52-4.9 2.15-5.72 2.15-5.72z"/><path class="cls-5" d="M314.79 207.22c1.69 2.3 5.35 9.38 4.38 12.5s-3 3.65-4.91 8.42c-1-1.43-.2-5.08-1.86-6.21-.38 1.29-.3 2.1-1.26 3.15.18-1.88-.93-3.58-1.25-5.89-.37-2.7.85-5.32 1.55-7.76a16.48 16.48 0 0 0 .7-4.09z"/><path class="cls-6" d="M314.12 209c4.79-.29 8.61-1.62 8.53-3l.15 2.45c.08 1.35-3.74 2.69-8.53 3s-8.75-.57-8.83-1.92l-.15-2.45c.08 1.38 4.04 2.24 8.83 1.92z"/><path class="cls-6" d="M314.3 212c3.61-.22 6.48-1.23 6.42-2.24l.11 1.84c.07 1-2.81 2-6.42 2.24s-6.59-.43-6.65-1.44l-.11-1.85c.06 1 3.04 1.64 6.65 1.45z"/><path class="cls-7" d="M318.64 175.65c2.21 4.89 4.19 11.87 4.76 21.2l.52 8.64s-5.93 2.44-9.85 2.68-10.07-1.38-10.07-1.38-.39-3.62-.69-8.72a59.38 59.38 0 0 1 2.34-21.58 27.61 27.61 0 0 0 13-.84z"/><path class="cls-8" d="M311.49 166.65c1.13-.07 4.33 2.76 7.15 9a27.61 27.61 0 0 1-13 .84c2.06-6.36 4.76-9.77 5.85-9.84z"/><path class="cls-6" d="M313.92 205.71c5.56-.34 10-1.89 9.9-3.45l.17 2.84c.1 1.56-4.34 3.11-9.9 3.45s-10.15-.66-10.25-2.23l-.17-2.84c.1 1.57 4.68 2.57 10.25 2.23z"/><path class="cls-9" d="M305.7 207.83a15.1 15.1 0 0 0 2.66.57v.38a6.55 6.55 0 0 1-2.66-.95zM308 211.13l.67.13v.21a3 3 0 0 1-.67-.34z"/><path class="cls-7" d="M304 206.79z"/><path class="cls-10" d="M308.4 208.78c.1.84.2 1.66.31 2.48l-.67-.13a.83.83 0 0 1-.43-.6v.5c-1.36-.35-2.21-.86-2.25-1.47l-.11-1.89.42.16a6.55 6.55 0 0 0 2.73.95z"/><path class="cls-10" d="M308 211.13a3 3 0 0 0 .7.34c.09.65.18 1.28.28 1.9-.79-.25-1.28-.6-1.3-1l-.08-1.34v-.5a.83.83 0 0 0 .4.6z"/><path class="cls-11" d="M307.76 201.65c.09 1.32.18 2.61.3 3.89-2.38-.32-4-1-4.37-1.79-.12-1.49-.27-3.44-.41-5.68a59.82 59.82 0 0 1 2.34-21.58 24.76 24.76 0 0 0 3.26.37 108 108 0 0 0-1.12 24.79z"/><path class="cls-12" d="M305.62 176.49c2-6.37 4.74-9.78 5.82-9.84a1.22 1.22 0 0 1 .52.11 37.44 37.44 0 0 0-3.08 10.1 24.76 24.76 0 0 1-3.26-.37z"/><path class="cls-10" d="M308.06 205.54c.09 1 .19 1.92.3 2.86a15.1 15.1 0 0 1-2.66-.57l-.42-.16a2.85 2.85 0 0 1-1.29-.88 1 1 0 0 1-.17-.45l-.17-2.84a.88.88 0 0 0 .06.27c.29.81 1.97 1.45 4.35 1.77z"/><path class="cls-3" d="M328.46 211.1c3.47 4.37 9.65 13.12 10.17 19.39.8 9.72-6.86 21.62-10.74 26.3.92-6.67.37-11.32-2-13.63-.75-.74-.62 3.18-3.14 5.3a16.1 16.1 0 0 0-2.8-6.85c-1.39-2.32-3.33-6.82-3.13-10.13.63-10.62 7.59-18.55 8.95-20.4z"/><path class="cls-4" d="M328.46 211.1c1.67 1.78 6.07 9.16 6 13.71s-5.83 12.53-7.46 18c-1.24-4.13-1-5.93-3.2-8.8s-2.3-3.41-2.81-5.42.64-7.36 2.33-11.93c1.78-4.81 2.45-5.59 2.45-5.59z"/><path class="cls-5" d="M328.46 211.1c1.56 2.39 4.83 9.66 3.7 12.72s-3.18 3.49-5.37 8.14c-.89-1.48.08-5.08-1.52-6.3-.45 1.27-.41 2.08-1.42 3.07.28-1.86-.73-3.62-.93-5.95-.23-2.71 1.14-5.26 2-7.66a16.1 16.1 0 0 0 .91-4z"/><path class="cls-6" d="M327.69 212.87c4.8 0 8.69-1.15 8.68-2.51v2.46c0 1.35-3.88 2.47-8.68 2.5s-8.71-1-8.72-2.39v-2.45c.03 1.35 3.92 2.42 8.72 2.39z"/><path class="cls-6" d="M327.71 215.82c3.62 0 6.54-.86 6.54-1.88v1.84c0 1-2.92 1.87-6.54 1.89s-6.55-.78-6.56-1.8V214c.01 1 2.94 1.85 6.56 1.82z"/><path class="cls-7" d="M334 179.79c1.94 5 3.53 12.08 3.6 21.42 0 5 .05 8.65.05 8.65s-6.05 2.13-10 2.15-9.95-1.92-9.95-1.92-.19-3.64-.22-8.75a59.89 59.89 0 0 1 3.5-21.42 27 27 0 0 0 6.42.71 26.47 26.47 0 0 0 6.6-.84z"/><path class="cls-8" d="M327.36 170.41c1.14 0 4.18 3 6.66 9.38a26.47 26.47 0 0 1-6.59.84 27 27 0 0 1-6.42-.71c2.38-6.24 5.26-9.5 6.35-9.51z"/><path class="cls-6" d="M327.67 209.54c5.57 0 10.08-1.33 10.07-2.91v2.85c0 1.57-4.5 2.87-10.07 2.91s-10.1-1.21-10.11-2.78v-2.85c.01 1.58 4.54 2.82 10.11 2.78z"/><path class="cls-9" d="M319.35 211.21a13.74 13.74 0 0 0 2.62.72v.38a6.41 6.41 0 0 1-2.62-1.1zM321.51 214.64l.66.16a1.5 1.5 0 0 0 0 .22 3.23 3.23 0 0 1-.66-.38z"/><path class="cls-7" d="M317.68 210.08z"/><path class="cls-10" d="M322 212.31q.08 1.26.18 2.49l-.66-.16a.82.82 0 0 1-.4-.62v.5c-1.34-.42-2.15-1-2.16-1.6V211c.13.06.27.13.41.18a6.41 6.41 0 0 0 2.63 1.13z"/><path class="cls-10" d="M321.51 214.64a3.23 3.23 0 0 0 .68.38c.05.64.11 1.28.17 1.91-.77-.3-1.24-.66-1.24-1.07V214a.82.82 0 0 0 .39.64z"/><path class="cls-11" d="M321.75 205.16c0 1.32 0 2.62.08 3.9-2.35-.45-4-1.18-4.26-2-.05-1.49-.09-3.45-.1-5.7a59.57 59.57 0 0 1 3.5-21.41 25.15 25.15 0 0 0 3.24.54 107.3 107.3 0 0 0-2.46 24.67z"/><path class="cls-12" d="M321 179.92c2.37-6.25 5.26-9.51 6.35-9.51a1.12 1.12 0 0 1 .51.14 36.85 36.85 0 0 0-3.62 9.91 25.15 25.15 0 0 1-3.24-.54z"/><path class="cls-10" d="M321.83 209.06c0 1 .08 1.92.14 2.87a13.74 13.74 0 0 1-2.62-.72c-.14-.05-.28-.12-.41-.18a2.89 2.89 0 0 1-1.25-.94 1 1 0 0 1-.15-.46v-2.84a.86.86 0 0 0 .05.27c.27.82 1.89 1.55 4.24 2z"/><path class="cls-13" d="M272.1 194.65c.18 2.28 0 7.45-5.53 7.18s-2.88-7.55-2.88-7.55z"/><path class="cls-14" d="M300.13 177.08c-.22 1.09-.41 1.45-.62 1.65l-.58.66a5.61 5.61 0 0 1-1.14.91c-.37.22-.74.45-1.1.63a8.22 8.22 0 0 1-1.12.38 30.9 30.9 0 0 0-4.36 1.63 53.64 53.64 0 0 0-8 4.62 62.08 62.08 0 0 0-6.91 5.55 25.11 25.11 0 0 0-2.67 2.79c-.38.44-.56.86-1 1a2.07 2.07 0 0 1-.73.12 4.14 4.14 0 0 0-.68-.09 4.52 4.52 0 0 0-.53-.06 17.86 17.86 0 0 0-1.79 0h-4.68c-1.37-.17-1.64-.42-1.75-.63s-.32-.47-.47-.71a3.27 3.27 0 0 1-.4-1.35 8.87 8.87 0 0 1 .18-2.29 9.25 9.25 0 0 1 1.67-3.4 28.07 28.07 0 0 1 4.28-4.81 32.23 32.23 0 0 1 4.79-3.55 40.93 40.93 0 0 1 5.15-2.72 44.49 44.49 0 0 1 11-3.24 49.75 49.75 0 0 1 5.71-.58 6.74 6.74 0 0 1 2.9.42 4.78 4.78 0 0 1 1.44.76c.23.19.47.41.7.62s.46.54.68 1.62z"/><path d="M304 210.12c-.32-.6-6.92 4.58-6.92 4.58a17.45 17.45 0 0 0 3.38 1.54 15.71 15.71 0 0 0-1.83 1.41c-3.47 3.11-4.94 7.12-3.28 9 1.16 1.31 4.09-1.8 7.15-4.65 1.55-1.44 3.21-2.69 4.34-3.76l2-1.79s.11-1.43-3.5-3c-.69-.27-1.06-2.74-1.34-3.33zm4.15 6.32z" fill="#54371d"/><path d="M307.52 198.83c2.68 1.8 2.18 3.39 2.62 5 .25 1.63.49 3.27.61 4.9s.19 3.25.19 4.87v2.43a7 7 0 0 1 0 1.21c-.13.4-.43.78-1.25 1.13L294 217.34c-.77-.46-1-.88-1.08-1.29a6.13 6.13 0 0 1 .12-1.21l.33-2.41c.23-1.6.51-3.2.86-4.8s.8-3.18 1.28-4.77c.65-1.57.38-3.21 3.28-4.63z" fill="#6d3325"/><path class="cls-13" d="M316.14 209.16c-.5-.45-4.91 6.69-4.91 6.69a17.75 17.75 0 0 0 3.7.28 14.52 14.52 0 0 0-1.23 2c-2.18 4.11-2.18 8.38 0 9.55 1.55.82 3.22-3.11 5.11-6.83 1-1.89 2.1-3.63 2.78-5l1.26-2.36s-.38-1.38-4.31-1.61c-.7-.08-1.89-2.27-2.4-2.72zm6.08 4.5z"/><path class="cls-14" d="M321.3 198.83c2.68 1.8 2.18 3.39 2.62 5 .25 1.63.49 3.27.61 4.9s.19 3.25.19 4.87v2.43a7 7 0 0 1 0 1.21 1.94 1.94 0 0 1-1.25 1.13l-15.65-1.07a1.89 1.89 0 0 1-1.07-1.29 6.13 6.13 0 0 1 .12-1.21l.33-2.41c.23-1.6.5-3.2.86-4.8s.8-3.18 1.27-4.77c.66-1.57.38-3.21 3.28-4.63z"/><path class="cls-17" d="M294.66 158.92a18.28 18.28 0 1 0 21-15 18.28 18.28 0 0 0-21 15z"/><path class="cls-17" d="M286.56 199.17l-.31 5.39c-.35 5.24 8.87 6.43 20.45 7.09 10 .57 21.59 1.74 22-5.63 2.46-19.2-1.95-35.66-18.64-36.62-16.53-1-21.64 10.18-23.13 23.33a1.05 1.05 0 0 0-.06.24v.76c-.17 1.74-.27 3.55-.31 5.44z"/><path d="M297.72 184.68c2-.08 4.07-2.29 6.89-3.06 3.89-1.08 5.61-4.18 5-2.76s.42 2.41.49 2.21-.45.13.43-2 3.91-2.47 6.87-5.85a26 26 0 0 0 2.81-3.87 9.81 9.81 0 0 1-.25 1.92c7.28-12 4.43-20.79 3.89-21.48a4.66 4.66 0 0 1 1.71 1.59c-.41-4.51-3.07-5.68-3.48-5.87a2.5 2.5 0 0 1 2.18.12c-.71-2.11-1.59-3.61-3.64-4.24a2.09 2.09 0 0 0-2.07.55 3.78 3.78 0 0 0-1.23-5.25c.31 4.55-.12 3.61-.3 3.72s-1.56-2.68-3.55-3.46a2.28 2.28 0 0 1 .68 1.53c-1.79-1.5-3.66-3.47-8.81-1.79a5.86 5.86 0 0 1 2.8 1.77 16.28 16.28 0 0 0-13.1 7.9c.4-.09 2.55-.75 2.72-.44-1.61.66-7 3.07-8.57 18.09.31-.72 1.33-2.26 1.68-2.12-.89 1.17-1 5.4 1.81 10.1 3.81 6.42 5.32 9.71 5.04 12.69z" fill="#dcb680"/><path class="cls-13" d="M296.21 155.29c2.12-6.74 8-10.92 12.84-9.42s7 8.2 4.87 14.93a15.48 15.48 0 0 1-6.43 8.61c-3 1.87-5.56 3.41-6.69 5.9.3-3.83-1.79-5.65-3.84-9.07-1.62-2.71-1.96-6.94-.75-10.95z"/><path d="M296.35 154.77c-2.06 6.52-.3 13 4.75 14.61s12.1-2.28 14.16-8.8-.37-13.08-5.42-14.65-11.43 2.33-13.49 8.84z" fill="#c69666"/><path class="cls-20" d="M303.35 155.19a10.49 10.49 0 0 0-1.67-1.35 4.57 4.57 0 0 0-2-.8 4.83 4.83 0 0 1 2.2.45 10.73 10.73 0 0 1 2 1.11zM306.62 155.32a10.78 10.78 0 0 1 2.31.76 5.06 5.06 0 0 1 1.9 1.42 4.78 4.78 0 0 0-2-1 10.35 10.35 0 0 0-2.26-.32z"/><path class="cls-21" d="M306.45 156.66l2.3.66-2.37-.14.07-.52zM302.9 156c-.36-.31-.74-.6-1.12-.89a6.65 6.65 0 0 0-1.19-.79 8.21 8.21 0 0 1 1.34.55c.43.22.85.44 1.28.68z"/><path d="M305.73 159.31a1.93 1.93 0 0 1-1.05 1.82 2.71 2.71 0 0 1-2.21.17 2.18 2.18 0 0 1-1.58-1.55 2 2 0 0 1 .51-2 1.73 1.73 0 0 0-.3 1 2.2 2.2 0 0 0 .15 1 2 2 0 0 0 1.37 1.2 2.67 2.67 0 0 0 1.89 0 2.05 2.05 0 0 0 1.22-1.64z" fill="#574c3e"/><path class="cls-21" d="M304.86 164.58c-.26.24-.56.45-.85.67a5.12 5.12 0 0 1-1 .43 2.79 2.79 0 0 1-2.28-.28 3.65 3.65 0 0 1-1.4-1.77 5.1 5.1 0 0 1-.37-2.13 14.67 14.67 0 0 0 .89 1.87 4.09 4.09 0 0 0 1.28 1.39 2.54 2.54 0 0 0 1.77.34 7.34 7.34 0 0 0 1-.19c.29-.1.61-.23.96-.33z"/><path d="M311.46 146.65a9.22 9.22 0 0 0-3.88-1.14c-3.59-.19-7 2.64-7.82 3.41a3.7 3.7 0 0 1 2.84.88c.14.13.27.26.41.37l2.33-2.61-1 3.81c4.66 3.49 11.91.93 11.59 5.49.3-4.31-1.45-8.43-4.54-10.23" fill="#442c1a"/><path class="cls-13" d="M360.2 160.31c1-2.47 2.56-10.27-3.45-11.16s-4.56 4.09-4.46 5.46a6.26 6.26 0 0 1-1.29 4.29z"/><path class="cls-14" d="M316.86 183c0-1.14.15-1.55.35-1.81s.38-.56.57-.82a6.3 6.3 0 0 1 1.23-1.2 9.2 9.2 0 0 1 2.66-1.53c1.85-.73 3.64-1.57 5.41-2.42a107.53 107.53 0 0 0 10.08-5.57 53.19 53.19 0 0 0 8.3-6.35 21 21 0 0 0 2.88-3.32 5.64 5.64 0 0 1 2.09-2.3 2.94 2.94 0 0 1 .79-.31l.6-.15a5.1 5.1 0 0 1 1.86.06l4.72.84c1.36.39 1.6.61 1.69.79l.44.6a3.11 3.11 0 0 1 .43 1.17 10.66 10.66 0 0 1-.07 2.19 10.79 10.79 0 0 1-1.58 3.86 27.58 27.58 0 0 1-4.9 6 33.31 33.31 0 0 1-5.76 4.3 47.48 47.48 0 0 1-6.08 3.07 71.78 71.78 0 0 1-12.44 3.9c-2.09.48-4.18.87-6.25 1.26a8.51 8.51 0 0 1-3.23.09 5.46 5.46 0 0 1-1.72-.44c-.3-.13-.61-.3-.92-.45s-.63-.43-1.14-1.45z"/><path d="M348.88 146.66c-5.85 1.14-5.71 10.62-1.61 11.46 4.57.93 8.81.22 9.55-2.77s-1.41-9.96-7.94-8.69z" fill="#bdbbbb"/></g></g></svg>