<svg xmlns="http://www.w3.org/2000/svg" viewBox="0 0 480.31 286.25"><defs><style>.cls-3{fill:#e84c59}.cls-4{fill:#ee7b5c}.cls-5{fill:#f9c862}.cls-6{fill:#062633}.cls-7{fill:#abaaaa}.cls-8{fill:#e1dfe0}.cls-9{fill:none}.cls-10{fill:#041d26}.cls-11{fill:#6e6e6e}.cls-12{fill:silver}.cls-13{fill:#5e3e21}.cls-16{fill:#783a28}.cls-17{fill:#8f4729}.cls-21{fill:#231d13}</style></defs><g id="Layer_2" data-name="Layer 2"><g id="Layer_2-2" data-name="Layer 2"><path fill="#002735" d="M0 0h480.31v286.25H0z"/><path d="M334.52 71.62l1.67-9.17.3 9.17 8.28 1.19-8.38.98-1.67 9.66-.4-9.66-8.18-.98 8.38-1.19zM181.66 45l1.51-8.32.27 8.32 7.52 1.07-7.6.9-1.52 8.77-.36-8.77-7.43-.9 7.61-1.07zM68.25 183.71l-2.68 10.91.32-11.05-9.87-2.03 10.14-.57 2.72-11.49-.23 11.64 9.77 1.78-10.17.81zm359.47-21.83l-1 5.23-.17-5.23-4.91-.67 4.97-.57.99-5.51.23 5.51 4.85.57-4.96.67z" fill="#e1f1f9"/><path class="cls-3" d="M198.28 130.07c.86 5.67 1.89 16.59-.85 22.43-4.24 9.05-17.12 15.73-23 17.9 4.23-5.46 6.1-9.87 5.2-13.12-.29-1-2.17 2.51-5.5 3.12a16.35 16.35 0 0 0 1-7.52c-.05-2.77.52-7.76 2.39-10.61 6-9.11 16.2-12.61 18.36-13.57z"/><path class="cls-4" d="M198.28 130.07c.58 2.44.72 11.25-1.63 15.26s-11.57 8.18-15.82 12.22c1-4.31 2.13-5.79 1.65-9.46s-.31-4.2.27-6.25 4.31-6.22 8.15-9.42c4-3.36 5-3.72 5-3.72z"/><path class="cls-5" d="M198.28 130.07c.17 2.93-.63 11.06-3.2 13.2s-4.6 1.48-8.92 4.5c0-1.76 2.65-4.48 1.86-6.38-1.05.9-1.42 1.65-2.83 2 1.2-1.51 1.19-3.59 2.21-5.76 1.18-2.53 3.69-4.1 5.65-5.81a16.43 16.43 0 0 0 2.88-3.13z"/><path class="cls-6" d="M196.69 131.26c4.29 2.42 8.32 3.4 9 2.2l-1.24 2.18c-.68 1.21-4.71.23-9-2.19s-7.21-5.37-6.53-6.57l1.24-2.19c-.67 1.2 2.25 4.15 6.53 6.57z"/><path class="cls-6" d="M195.2 133.89c3.23 1.83 6.26 2.57 6.78 1.66l-.93 1.65c-.52.91-3.55.17-6.78-1.66s-5.42-4-4.91-4.95l.93-1.64c-.51.9 1.71 3.12 4.91 4.94z"/><path class="cls-7" d="M219.19 105.08c-.83 5.43-3 12.54-7.73 20.87l-4.36 7.73s-6.46-1.2-10-3.19-7.88-6.79-7.88-6.79 1.69-3.32 4.27-7.88a61.27 61.27 0 0 1 14-17.26 28.5 28.5 0 0 0 11.63 6.52z"/><path class="cls-8" d="M218.05 93.34c1 .58 2.19 4.8 1.14 11.74a28.5 28.5 0 0 1-11.63-6.52c5.3-4.34 9.52-5.76 10.49-5.22z"/><path class="cls-6" d="M198.37 128.29c5 2.81 9.65 4 10.44 2.55l-1.43 2.54c-.8 1.4-5.47.26-10.44-2.55s-8.37-6.23-7.57-7.63l1.43-2.54c-.8 1.4 2.6 4.82 7.57 7.63z"/><path class="cls-9" d="M190.13 125.54a14.43 14.43 0 0 0 2 2l-.18.36a6.65 6.65 0 0 1-1.82-2.36zm.16 4.14l.51.48a1.86 1.86 0 0 1-.1.2 4.08 4.08 0 0 1-.41-.68z"/><path class="cls-10" d="M191.91 127.86c-.38.77-.75 1.54-1.11 2.3l-.51-.48a.85.85 0 0 1 0-.76l-.26.45c-1-1.06-1.41-2-1.1-2.52l.95-1.69c.09.12.17.25.28.38a6.65 6.65 0 0 0 1.75 2.32z"/><path class="cls-10" d="M190.29 129.68a4.08 4.08 0 0 0 .41.68c-.28.6-.55 1.2-.81 1.79-.54-.66-.77-1.22-.56-1.58l.67-1.2.26-.45a.85.85 0 0 0 .03.76z"/><path class="cls-11" d="M195.34 121.37c-.66 1.18-1.3 2.35-1.91 3.51-1.87-1.6-2.93-3.08-2.76-4 .72-1.35 1.68-3.11 2.82-5.11a60.89 60.89 0 0 1 14-17.25 26.06 26.06 0 0 0 2.59 2.13 110.43 110.43 0 0 0-14.74 20.72z"/><path class="cls-12" d="M207.53 98.54c5.29-4.35 9.52-5.77 10.49-5.22a1.09 1.09 0 0 1 .38.39 37.75 37.75 0 0 0-8.28 7 26.06 26.06 0 0 1-2.59-2.17z"/><path class="cls-10" d="M193.43 124.88c-.46.88-.91 1.75-1.34 2.62a14.43 14.43 0 0 1-2-2c-.11-.13-.19-.26-.28-.38a2.91 2.91 0 0 1-.62-1.47.94.94 0 0 1 .1-.48l1.43-2.54a1.14 1.14 0 0 0-.09.26c-.13.91.93 2.39 2.8 3.99z"/><path class="cls-3" d="M183.5 127.94c.86 5.66 1.9 16.59-.84 22.43-4.25 9-17.12 15.72-23 17.9 4.23-5.46 6.1-9.88 5.2-13.12-.29-1-2.17 2.51-5.5 3.12a16.37 16.37 0 0 0 1-7.52c0-2.77.52-7.76 2.39-10.61 6-9.12 16.2-12.62 18.36-13.57z"/><path class="cls-4" d="M183.5 127.94c.59 2.44.73 11.24-1.62 15.27s-11.57 8.17-15.82 12.2c1-4.3 2.13-5.78 1.64-9.45s-.3-4.2.27-6.25 4.32-6.22 8.16-9.42c4-3.37 5-3.72 5-3.72z"/><path class="cls-5" d="M183.5 127.94c.18 2.92-.62 11.05-3.19 13.2s-4.6 1.48-8.92 4.5c0-1.77 2.65-4.48 1.86-6.38-1.05.9-1.43 1.65-2.84 2 1.2-1.51 1.2-3.59 2.21-5.76 1.19-2.54 3.7-4.1 5.66-5.81a16.87 16.87 0 0 0 2.88-3.13z"/><path class="cls-6" d="M181.92 129.13c4.29 2.42 8.31 3.4 9 2.2l-1.24 2.18c-.68 1.21-4.71.23-9-2.19s-7.2-5.37-6.52-6.58l1.24-2.18c-.69 1.2 2.23 4.15 6.52 6.57z"/><path class="cls-6" d="M180.43 131.76c3.23 1.83 6.26 2.57 6.78 1.66l-.93 1.64c-.52.91-3.55.17-6.78-1.65s-5.43-4-4.91-4.95l.93-1.65c-.52.91 1.69 3.13 4.91 4.95z"/><path class="cls-7" d="M204.42 102.94c-.83 5.44-3 12.55-7.73 20.88l-4.36 7.72s-6.47-1.2-10-3.18-7.87-6.79-7.87-6.79 1.69-3.32 4.27-7.89a61.18 61.18 0 0 1 14-17.25 27.5 27.5 0 0 0 5.34 3.9 27.07 27.07 0 0 0 6.35 2.61z"/><path class="cls-8" d="M203.28 91.21c1 .58 2.19 4.8 1.14 11.73a27.07 27.07 0 0 1-6.29-2.61 27.5 27.5 0 0 1-5.34-3.9c5.29-4.34 9.52-5.77 10.49-5.22z"/><path class="cls-6" d="M183.6 126.16c5 2.81 9.65 4 10.44 2.55l-1.44 2.54c-.79 1.4-5.46.26-10.44-2.55s-8.36-6.23-7.57-7.63l1.44-2.54c-.8 1.4 2.59 4.82 7.57 7.63z"/><path class="cls-9" d="M175.35 123.4a14.58 14.58 0 0 0 2 2l-.18.35a6.74 6.74 0 0 1-1.82-2.35zm.17 4.14l.5.49-.09.2a3.27 3.27 0 0 1-.41-.69z"/><path class="cls-10" d="M177.14 125.72c-.38.78-.76 1.55-1.12 2.31l-.5-.49a.84.84 0 0 1 0-.75l-.25.45c-1-1.06-1.42-2-1.11-2.52l1-1.69a4.33 4.33 0 0 0 .27.37 6.74 6.74 0 0 0 1.71 2.32z"/><path class="cls-10" d="M175.52 127.54a3.27 3.27 0 0 0 .41.69c-.28.6-.55 1.2-.82 1.79-.54-.66-.76-1.23-.56-1.59l.68-1.19.25-.45a.84.84 0 0 0 .04.75z"/><path class="cls-11" d="M180.57 119.24c-.66 1.18-1.3 2.35-1.91 3.51-1.87-1.6-2.94-3.08-2.76-4 .72-1.35 1.68-3.11 2.81-5.11a61.28 61.28 0 0 1 14-17.26 23.79 23.79 0 0 0 2.59 2.14 110.43 110.43 0 0 0-14.73 20.72z"/><path class="cls-12" d="M192.76 96.4c5.29-4.34 9.52-5.76 10.49-5.21a1.24 1.24 0 0 1 .38.38 38.12 38.12 0 0 0-8.28 7 23.79 23.79 0 0 1-2.59-2.17z"/><path class="cls-10" d="M178.66 122.75c-.47.88-.91 1.75-1.34 2.62a14.58 14.58 0 0 1-2-2 4.33 4.33 0 0 1-.27-.37 3 3 0 0 1-.63-1.47 1 1 0 0 1 .11-.48l1.43-2.53a1 1 0 0 0-.09.26c-.15.89.92 2.37 2.79 3.97z"/><path class="cls-13" d="M263.8 83c1.37-2.1 5-6.44 9.43-2.57s-2.64 8.47-2.64 8.47z"/><path d="M206.09 140.92c-4-.92-4.76.34-4.76.34l.56 2.72c.27 1.59.89 3.66 1.29 5.81.79 4.26 1.31 8.65 3.08 8.28 2.52-.51 3.78-4.76 2.81-9.48a15.58 15.58 0 0 0-.66-2.31 17.66 17.66 0 0 0 3.77.8s-2.3-8.38-2.93-8.08-2.46 2.12-3.16 1.92zm-4.2.77z" fill="#54371d"/><path d="M215.05 128.94c2.6 2.11 1.95 3.7 2.25 5.44.11 1.71.22 3.42.19 5.11s-.1 3.38-.24 5l-.22 2.51a6.47 6.47 0 0 1-.15 1.24 2 2 0 0 1-1.39 1.06l-16.05-2.52a2 2 0 0 1-1-1.43 7.4 7.4 0 0 1 .23-1.23l.57-2.45c.37-1.64.8-3.27 1.31-4.88s1.11-3.22 1.75-4.81c.81-1.57.68-3.28 3.8-4.49z" fill="#6d3325"/><path class="cls-13" d="M191.33 136.48c-2-3.55-3.47-3.27-3.47-3.27l-1.62 2.25c-1 1.28-2.09 3.14-3.41 4.89-2.6 3.46-5.48 6.82-4 7.88 2.08 1.5 6-.45 8.88-4.36a16.55 16.55 0 0 0 1.25-2.05c1 .78 1.88.75 3.54.7 0 0 3-4.76 2.38-5s-3.23-.39-3.55-1.04zm-3.42-2.56z"/><path class="cls-16" d="M204.57 127.22c1.47 3 .2 4.17-.27 5.88-.62 1.6-1.26 3.19-2 4.71s-1.52 3-2.35 4.47l-1.26 2.18a7.28 7.28 0 0 1-.67 1.06 2 2 0 0 1-1.7.37l-13.48-9.09a2 2 0 0 1-.29-1.71 6.11 6.11 0 0 1 .73-1l1.55-2c1-1.33 2.11-2.62 3.26-3.87s2.37-2.43 3.62-3.61c1.41-1.07 2-2.69 5.35-2.45zm18.43-14.8c.5-1 .82-1.32 1.11-1.46s.59-.35.87-.5a6.79 6.79 0 0 1 1.58-.72 14.92 14.92 0 0 1 1.49-.53 10.16 10.16 0 0 1 1.48-.34 27.48 27.48 0 0 0 5.78-2A58.93 58.93 0 0 0 246 100a115.58 115.58 0 0 0 9.59-8.64c1.51-1.5 3-3 4.32-4.61a14.32 14.32 0 0 1 2.05-2.2 10.85 10.85 0 0 1 1.28-.84 2.66 2.66 0 0 1 .92-.25h.62c.16 0 .45 0 1.73.46l4.17 2c1.16.73 1.31 1 1.34 1.24l.22.74a3.44 3.44 0 0 1 0 1.27 11.49 11.49 0 0 1-.61 2.11 13.58 13.58 0 0 1-2.16 3.37 58.53 58.53 0 0 1-5.13 5.71 63.56 63.56 0 0 1-12 9.12 54.07 54.07 0 0 1-14.13 5.93 39.05 39.05 0 0 1-7.82 1.17 15.15 15.15 0 0 1-2-.06 17.32 17.32 0 0 1-2-.49 7.72 7.72 0 0 1-1.9-1 10.42 10.42 0 0 1-.87-.77c-.28-.23-.54-.65-.62-1.73z"/><path class="cls-17" d="M241.21 99.9a18.94 18.94 0 1 1-9-25.21 18.94 18.94 0 0 1 9 25.21z"/><path class="cls-17" d="M227.59 131.77l.34-.71a.76.76 0 0 0 .06-.25c5.16-12.71 6-25.36-9.48-32.69-15.66-7.39-27.82 5.39-35.11 24.08-3.24 6.93 7.92 11.62 17.27 16 10.86 5.14 19.84 8.63 22.12 3.68l2.39-5.06c.89-1.69 1.7-3.39 2.41-5.05z"/><path d="M226.06 121c-1.76-1.09-2.48-4.14-4.62-6.29-2.95-3-2.9-6.64-3.1-5.06s-1.62 2-1.58 1.73.34.36.64-2-2.24-4.22-3.17-8.78a27.76 27.76 0 0 1-.54-4.93 10.21 10.21 0 0 0-.76 1.86c-.38-14.55 6.7-21 7.54-21.33a5 5 0 0 0-2.35.55c2.69-3.84 5.68-3.53 6.14-3.49a2.58 2.58 0 0 0-2-1c1.72-1.53 3.29-2.43 5.45-1.94a2.21 2.21 0 0 1 1.59 1.56 3.92 3.92 0 0 1 3.8-4.1c-2.62 3.94-1.75 3.31-1.65 3.5s2.79-1.6 5-1.28a2.41 2.41 0 0 0-1.4 1c2.38-.42 5.08-1.23 8.85 2.93a6 6 0 0 0-3.44.15 16.86 16.86 0 0 1 7.73 13.84c-.31-.29-1.91-2-2.22-1.79 1.11 1.41 4.72 6.35-1.59 20.68.09-.82 0-2.73-.42-2.78.19 1.51-1.91 5.35-6.82 8.15-6.74 3.82-9.76 6.06-11.08 8.82z" fill="#dcb680"/><path class="cls-13" d="M242.51 95.53c1.65-7.12-1.43-14-6.51-15.15S225.45 84 223.8 91.15a16.08 16.08 0 0 0 1.2 11.06c1.73 3.27 3.18 6 2.87 8.79 1.75-3.58 4.58-4.1 8.21-6.08 2.92-1.57 5.45-5.14 6.43-9.39z"/><path d="M243.06 93.68c-1.08 7-5.65 12.26-11 11.44s-10-7.61-9-14.6 6.28-12 11.62-11.18 9.45 7.34 8.38 14.34z" fill="#c69666"/><path d="M236.35 89.55a10.22 10.22 0 0 1 2.22.28 4.46 4.46 0 0 1 2 .92 4.29 4.29 0 0 0-2-.54 9.64 9.64 0 0 0-2.09.11zm-3.01.37a8.75 8.75 0 0 0-2-.8 4.19 4.19 0 0 0-2.14-.11 4.47 4.47 0 0 1 2.21-.27 9.69 9.69 0 0 1 2.22.48z" fill="#662f1e"/><path class="cls-21" d="M232.78 91.36l-1.96-.84 2.13.35-.17.49zm3.57-.12c.46 0 .91-.06 1.37-.08a6.2 6.2 0 0 1 1.36 0 6 6 0 0 0-1.33.21l-1.31.32z"/><path d="M232.4 93.65a2.14 2.14 0 0 0 .45 1.93 2.68 2.68 0 0 0 1.72.89 2 2 0 0 0 1.8-.5 2.3 2.3 0 0 0 .56-.83 1.7 1.7 0 0 0 .17-1 2.1 2.1 0 0 1-.45 2.12 2.26 2.26 0 0 1-2.16.74 2.79 2.79 0 0 1-2-1.17 2 2 0 0 1-.09-2.18z" fill="#574c3e"/><path class="cls-21" d="M230.8 99a2 2 0 0 0 .89 1 4.46 4.46 0 0 0 .55.25c.19.08.37.19.58.26a3.18 3.18 0 0 0 1.35.17 2.8 2.8 0 0 0 1.38-.48 2.62 2.62 0 0 1-1.25 1 3.57 3.57 0 0 1-1.66.26 2.72 2.72 0 0 1-.87-.22 2.2 2.2 0 0 1-.69-.6 1.72 1.72 0 0 1-.28-1.64z"/><path d="M232.91 79.28A9.19 9.19 0 0 1 237 80c3.38 1.45 5.19 5.61 5.61 6.71a3.73 3.73 0 0 0-3-.47 4 4 0 0 1-.53.17l-1-3.49-.84 4c-5.85 1.13-11.33-4.53-13.11-.14 1.68-4.15 5.16-7.19 8.8-7.47" fill="#442c1a"/><path class="cls-13" d="M173.83 116.24c-2.37 0-7.68-.74-6.88-6.38s2.89-3.22 4.05-2.65a5.31 5.31 0 0 0 4 .39z"/><path class="cls-16" d="M209.73 103.41a2.8 2.8 0 0 1 .29 1.7c-.08.28-.14.58-.23.86a4.9 4.9 0 0 1-.7 1.35 6 6 0 0 1-2 1.85c-.72.49-1.47 1-2.21 1.41s-1.51.93-2.29 1.35a48.67 48.67 0 0 1-9.89 4.27A41.76 41.76 0 0 1 182 118a44.49 44.49 0 0 1-5.42-.18 7.87 7.87 0 0 1-2.65-.53 7 7 0 0 1-1.25-.78 2.31 2.31 0 0 1-.57-.74l-.25-.57c-.09-.14-.16-.42-.08-1.78l.64-4.56c.28-1.34.42-1.59.53-1.71l.35-.49a2.26 2.26 0 0 1 .65-.59 8.42 8.42 0 0 1 1.19-.5 6.76 6.76 0 0 1 2.23-.12h4.38c2.89 0 5.78-.09 8.7-.39a64.34 64.34 0 0 0 8.84-1.45c.74-.16 1.48-.36 2.22-.59a22.43 22.43 0 0 0 2.2-.7 5.89 5.89 0 0 1 1.13-.32 10.22 10.22 0 0 1 1.27-.1 4.52 4.52 0 0 1 1.42.13c.27.07.56.17.84.25s.62.28 1.35 1.09z"/></g></g></svg>