<svg xmlns="http://www.w3.org/2000/svg" viewBox="0 0 480.31 286.25"><defs><style>.cls-3{fill:#e84c59}.cls-4{fill:#ee7b5c}.cls-5{fill:#f9c862}.cls-6{fill:#062633}.cls-7{fill:#abaaaa}.cls-8{fill:#e1dfe0}.cls-9{fill:none}.cls-10{fill:#041d26}.cls-11{fill:#6e6e6e}.cls-12{fill:silver}.cls-13{fill:#5e3e21}.cls-14{fill:#783a28}.cls-17{fill:#8f4729}.cls-21{fill:#231d13}</style></defs><g id="Layer_2" data-name="Layer 2"><g id="Layer_2-2" data-name="Layer 2"><path fill="#002735" d="M0 0h480.31v286.25H0z"/><path d="M66.35 69.86l1.51-8.32.27 8.32 7.52 1.07-7.6.9-1.52 8.77-.36-8.77-7.43-.9 7.61-1.07zm269.44-11.12l.07-.27-.01.27.24.05-.25.02-.06.28v-.29l-.24-.04.25-.02zm58.38 191.9l-.99 5.23-.18-5.23-4.91-.67 4.97-.57.99-5.51.24 5.51 4.84.57-4.96.67z" fill="#e1f1f9"/><path class="cls-3" d="M123.46 220.56c-4.6 5.19-12.84 15.6-13.9 23.34-1.65 12 7 27.24 11.53 33.29-.7-8.33.3-14.05 3.36-16.75 1-.86.55 4 3.53 6.79 1.2-4.66 2-5.53 3.92-8.31s4.58-8.22 4.56-12.33c-.06-13.2-8.15-23.49-9.71-25.88z"/><path class="cls-4" d="M123.46 220.56c-2.2 2.09-8.14 10.94-8.39 16.58s6.37 15.91 8 22.81c1.81-5 1.65-7.28 4.56-10.69s3.07-4.06 3.84-6.53-.29-9.15-2.08-14.93c-1.88-6.07-2.66-7.09-2.66-7.09z"/><path class="cls-5" d="M123.46 220.56c-2.1 2.85-6.64 11.64-5.44 15.51s3.7 4.53 6.09 10.44c1.21-1.77.26-6.29 2.31-7.7.47 1.6.37 2.61 1.56 3.91-.22-2.33 1.15-4.44 1.55-7.31.47-3.35-1.05-6.59-1.92-9.63a20 20 0 0 1-.86-5.07z"/><path class="cls-6" d="M124.29 222.81c-6-.36-10.69-2-10.58-3.69l-.19 3c-.1 1.67 4.64 3.32 10.59 3.69s10.85-.71 11-2.39l.18-3c-.15 1.69-5.05 2.75-11 2.39z"/><path class="cls-6" d="M124.07 226.47c-4.48-.28-8-1.52-8-2.78L116 226c-.08 1.26 3.49 2.51 8 2.78s8.17-.53 8.25-1.79l.13-2.29c-.14 1.24-3.84 2.04-8.31 1.77z"/><path class="cls-7" d="M118.68 181.41c-2.74 6.06-5.19 14.72-5.9 26.29-.37 6.15-.65 10.71-.65 10.71s7.36 3 12.22 3.34 12.47-1.75 12.47-1.75.48-4.49.86-10.82a74 74 0 0 0-2.91-26.76 34.54 34.54 0 0 1-16.09-1z"/><path class="cls-8" d="M127.56 170.24c-1.41-.09-5.38 3.43-8.88 11.17a34.54 34.54 0 0 0 16.09 1c-2.51-7.86-5.87-12.09-7.21-12.17z"/><path class="cls-6" d="M124.54 218.69c-6.9-.42-12.4-2.34-12.28-4.28l-.22 3.52c-.11 1.94 5.39 3.86 12.28 4.28s12.6-.82 12.72-2.76l.21-3.52c-.12 1.94-5.81 3.18-12.71 2.76z"/><path class="cls-9" d="M134.73 221.32a18.15 18.15 0 0 1-3.29.71c0 .15 0 .31-.05.47a8 8 0 0 0 3.34-1.18zm-2.9 4.1l-.83.15v.27a3.93 3.93 0 0 0 .83-.42z"/><path class="cls-10" d="M131.39 222.5c-.12 1-.25 2.06-.39 3.07l.83-.15a1.07 1.07 0 0 0 .54-.75v.62c1.68-.43 2.73-1.06 2.78-1.83l.14-2.34-.52.2a8 8 0 0 1-3.38 1.18z"/><path class="cls-10" d="M131.83 225.42a3.93 3.93 0 0 1-.87.42c-.11.8-.22 1.58-.34 2.36 1-.32 1.58-.75 1.61-1.24l.1-1.67v-.62a1.07 1.07 0 0 1-.5.75z"/><path class="cls-11" d="M132.17 213.66c-.1 1.63-.22 3.24-.37 4.82 2.95-.4 5-1.19 5.42-2.23.16-1.84.34-4.26.51-7a74 74 0 0 0-2.9-26.77 29.48 29.48 0 0 1-4 .46 132.88 132.88 0 0 1 1.34 30.72z"/><path class="cls-12" d="M134.83 182.44c-2.52-7.89-5.87-12.12-7.22-12.2a1.44 1.44 0 0 0-.65.14 45.74 45.74 0 0 1 3.83 12.52 29.48 29.48 0 0 0 4.04-.46z"/><path class="cls-10" d="M131.8 218.48c-.1 1.2-.23 2.38-.36 3.55a18.15 18.15 0 0 0 3.29-.71l.52-.2a3.59 3.59 0 0 0 1.61-1.09 1.21 1.21 0 0 0 .21-.55l.21-3.53a.73.73 0 0 1-.08.33c-.39 1.01-2.45 1.8-5.4 2.2z"/><path class="cls-3" d="M106.51 225.38c-4.32 5.42-12 16.27-12.62 24.05-1 12.06 8.5 26.82 13.32 32.62-1.15-8.28-.46-14 2.45-16.91.92-.91.76 3.94 3.89 6.58 1-4.71 1.74-5.62 3.47-8.5s4.13-8.45 3.88-12.56c-.77-13.17-9.41-23-11.1-25.31z"/><path class="cls-4" d="M106.51 225.38c-2.08 2.2-7.54 11.36-7.49 17s7.23 15.55 9.26 22.35c1.53-5.13 1.24-7.36 4-10.93s2.84-4.22 3.48-6.72-.79-9.12-2.89-14.79c-2.21-6-3-6.94-3-6.94z"/><path class="cls-5" d="M106.51 225.38c-2 3-6 12-4.6 15.77s3.94 4.33 6.66 10.1c1.1-1.83-.09-6.3 1.89-7.81.55 1.57.5 2.58 1.76 3.81-.35-2.31.91-4.49 1.15-7.38.29-3.37-1.41-6.52-2.44-9.5a20 20 0 0 1-1.13-5z"/><path class="cls-6" d="M107.46 227.58c-6-.05-10.79-1.44-10.77-3.11v3c0 1.68 4.81 3.08 10.77 3.12s10.79-1.29 10.8-3v-3c-.01 1.69-4.85 3.02-10.8 2.99z"/><path class="cls-6" d="M107.43 231.24c-4.48 0-8.12-1.08-8.11-2.35v2.3c0 1.26 3.62 2.31 8.11 2.34s8.13-1 8.13-2.24V229c0 1.27-3.64 2.27-8.13 2.24z"/><path class="cls-7" d="M99.61 186.54c-2.41 6.21-4.39 15-4.47 26.57 0 6.17-.06 10.73-.06 10.73s7.51 2.64 12.38 2.67 12.36-2.39 12.36-2.39.23-4.5.27-10.85a74.25 74.25 0 0 0-4.35-26.57 34.39 34.39 0 0 1-16.13-.16z"/><path class="cls-8" d="M107.86 174.91c-1.41 0-5.18 3.71-8.25 11.63a34.39 34.39 0 0 0 16.13.16c-2.95-7.7-6.53-11.79-7.88-11.79z"/><path class="cls-6" d="M107.48 223.45c-6.91 0-12.51-1.66-12.49-3.61v3.52c0 1.95 5.59 3.57 12.5 3.62s12.53-1.5 12.54-3.45V220c-.03 2-5.64 3.49-12.55 3.45z"/><path class="cls-9" d="M117.8 225.52a17.29 17.29 0 0 1-3.25.88v.48a8 8 0 0 0 3.25-1.36zm-2.67 4.25l-.82.2v.27a4.37 4.37 0 0 0 .82-.47z"/><path class="cls-10" d="M114.53 226.88c-.07 1-.14 2.07-.22 3.09l.82-.2a1 1 0 0 0 .49-.78v.63c1.66-.52 2.67-1.21 2.67-2v-2.35c-.16.08-.33.16-.51.23a8 8 0 0 1-3.25 1.38z"/><path class="cls-10" d="M115.13 229.77a4.37 4.37 0 0 1-.85.47c-.06.8-.14 1.59-.22 2.37 1-.37 1.55-.83 1.55-1.32V229a1 1 0 0 1-.48.77z"/><path class="cls-11" d="M114.83 218c0 1.63 0 3.25-.11 4.83 2.93-.55 4.93-1.46 5.29-2.51.06-1.85.11-4.28.13-7.07a74.19 74.19 0 0 0-4.35-26.56 31 31 0 0 1-4 .68 133.33 133.33 0 0 1 3.04 30.63z"/><path class="cls-12" d="M115.79 186.7c-2.94-7.75-6.52-11.79-7.87-11.8a1.49 1.49 0 0 0-.64.18 45.71 45.71 0 0 1 4.5 12.3 31 31 0 0 0 4.01-.68z"/><path class="cls-10" d="M114.72 222.84c0 1.21-.1 2.39-.17 3.56a17.29 17.29 0 0 0 3.25-.88c.18-.07.35-.15.51-.23a3.47 3.47 0 0 0 1.54-1.17 1.09 1.09 0 0 0 .18-.57v-3.53a1 1 0 0 1-.07.34c-.31 1.02-2.31 1.93-5.24 2.48z"/><path class="cls-13" d="M176.41 205c-.23 2.83.05 9.24 6.86 8.91s3.58-9.37 3.58-9.37z"/><path class="cls-14" d="M141.65 183.12c.26-1.34.55-1.77.84-2s.57-.54.87-.78a5.8 5.8 0 0 1 1.79-.93 7.94 7.94 0 0 1 3.59-.52 60 60 0 0 1 7.08.71 57.36 57.36 0 0 1 7 1.57 54.66 54.66 0 0 1 6.72 2.46 49.34 49.34 0 0 1 6.39 3.36 39.87 39.87 0 0 1 5.94 4.41 34.48 34.48 0 0 1 5.31 6 11.49 11.49 0 0 1 2.07 4.22 9.67 9.67 0 0 1 .2 1.36 9.25 9.25 0 0 1 0 1.49 4.18 4.18 0 0 1-.5 1.66c-.19.31-.39.61-.59.88a.92.92 0 0 1-.49.42l-.11.05h-.18l-.35.09a3.62 3.62 0 0 1-.47.1l-.56.08h-7.98c-.23 0-.44.05-.66.09a4.61 4.61 0 0 0-.84.1h-.48a1.53 1.53 0 0 1-.42-.11c-.54-.19-.76-.71-1.23-1.25a30.9 30.9 0 0 0-3.32-3.46 77 77 0 0 0-8.57-6.89 64.91 64.91 0 0 0-9.93-5.73 39.19 39.19 0 0 0-5.41-2 9.1 9.1 0 0 1-1.39-.47c-.45-.22-.91-.5-1.37-.78a6.91 6.91 0 0 1-1.41-1.13c-.24-.25-.48-.54-.73-.81a4 4 0 0 1-.75-2z"/><path d="M135.21 228.26c-4.48 1.94-4.33 3.71-4.33 3.71l2.47 2.22c1.4 1.34 3.47 2.89 5.39 4.67 3.8 3.54 7.43 7.39 8.87 5.77 2-2.29.23-7.27-4.06-11.12a19.09 19.09 0 0 0-2.28-1.76 20.87 20.87 0 0 0 4.19-1.91s-8.19-6.43-8.58-5.68-.88 3.84-1.67 4.1zm-3.48 3.74z" fill="#54371d"/><path d="M143.3 209.41a6.07 6.07 0 0 1 3.08 2.8c.38 1 .65 2 1 2.95.59 2 1.17 3.94 1.59 5.92s.78 4 1.06 5.95l.42 3a9.41 9.41 0 0 1 .15 1.49 2.4 2.4 0 0 1-1.34 1.6l-19.41 1.34a2.41 2.41 0 0 1-1.55-1.4 8.48 8.48 0 0 1-.05-1.51v-3c0-2 .07-4 .24-6.05s.44-4 .76-6.08c.19-1 .33-2 .57-3.05a6 6 0 0 1 2.67-3.2z" fill="#6d3325"/><path class="cls-13" d="M118.8 226.24c-4.88.29-5.35 2-5.35 2l1.56 2.93c.85 1.74 2.26 3.91 3.44 6.25 2.35 4.62 4.43 9.49 6.35 8.47 2.71-1.45 2.72-6.75 0-11.85a19.2 19.2 0 0 0-1.53-2.42 22.74 22.74 0 0 0 4.59-.35s-5.47-8.86-6.09-8.3-2.1 3.27-2.97 3.27zm-4.56 2.31z"/><path class="cls-14" d="M126.21 209.41a6.07 6.07 0 0 1 3.08 2.8c.38 1 .65 2 1 2.95.59 2 1.17 3.94 1.59 5.92s.78 4 1.06 5.95l.42 3a9.41 9.41 0 0 1 .15 1.49 2.4 2.4 0 0 1-1.34 1.6l-19.41 1.34a2.41 2.41 0 0 1-1.55-1.4 8.48 8.48 0 0 1 0-1.51v-3c0-2 .07-4 .24-6.05s.44-4 .76-6.08c.19-1 .33-2 .57-3.05a6 6 0 0 1 2.67-3.2z"/><path class="cls-17" d="M148.42 160.65A22.67 22.67 0 1 1 122.31 142a22.69 22.69 0 0 1 26.11 18.65z"/><path class="cls-17" d="M158.09 203.84l-.05-1a1 1 0 0 0-.08-.3c-1.85-16.31-8.19-30.11-28.69-28.93-20.7 1.18-26.16 21.6-23.12 45.42.56 9.14 15 7.68 27.35 7 14.36-.81 25.8-2.29 25.36-8.8l-.38-6.68c-.06-2.31-.18-4.55-.39-6.71z"/><path d="M144.63 192.6c-2.48-.09-5-2.84-8.54-3.8-4.83-1.32-7-5.18-6.23-3.42s-.52 3-.61 2.74.56.17-.54-2.48-4.84-3.06-8.51-7.25a32.39 32.39 0 0 1-3.49-4.8A11.6 11.6 0 0 0 117 176c-9-14.9-5.5-25.8-4.83-26.65a5.82 5.82 0 0 0-2.12 2c.52-5.59 3.81-7.05 4.32-7.29a3.12 3.12 0 0 0-2.71.16c.88-2.62 2-4.48 4.52-5.26a2.61 2.61 0 0 1 2.57.68 4.7 4.7 0 0 1 1.52-6.52c-.38 5.65.15 4.48.37 4.62s1.94-3.32 4.41-4.29a2.88 2.88 0 0 0-.85 1.9c2.22-1.86 4.55-4.3 10.94-2.22a7.11 7.11 0 0 0-3.48 2.2 20.2 20.2 0 0 1 16.25 9.8c-.49-.12-3.16-.93-3.38-.55 2 .81 8.7 3.8 10.64 22.44-.38-.9-1.66-2.81-2.09-2.63 1.1 1.45 1.2 6.7-2.24 12.52-4.68 7.92-6.5 12-6.21 15.69z" fill="#dcb680"/><path class="cls-13" d="M146.5 156.15c-2.62-8.36-10-13.55-15.92-11.68s-8.67 10.16-6 18.52a19.22 19.22 0 0 0 8 10.67c3.77 2.32 6.9 4.24 8.3 7.33-.38-4.75 2.22-7 4.77-11.26 1.94-3.36 2.41-8.61.85-13.58z"/><path d="M146.33 155.51c2.55 8.08.37 16.17-5.89 18.12s-15-2.83-17.56-10.92.45-16.22 6.72-18.17 14.17 2.89 16.73 10.97z" fill="#c69666"/><path d="M137 155.3a13.27 13.27 0 0 1 2.49-1.39 6 6 0 0 1 2.72-.55 5.56 5.56 0 0 0-2.5 1 12.16 12.16 0 0 0-2.07 1.68zm-3.3 1.91a12.11 12.11 0 0 0-2.79.39 5.73 5.73 0 0 0-2.53 1.3 6 6 0 0 1 2.35-1.77 13 13 0 0 1 2.87-.94z" fill="#662f1e"/><path class="cls-21" d="M133.89 158.5l-2.94.17 2.85-.83.09.66zm3.93-2.08q.8-.43 1.59-.84a10 10 0 0 1 1.66-.69 9.73 9.73 0 0 0-1.48 1c-.47.36-.93.73-1.39 1.11z"/><path d="M134.69 161.14a2.54 2.54 0 0 0 1.52 1.83 3.26 3.26 0 0 0 2.34.05 2.46 2.46 0 0 0 1.7-1.48 3 3 0 0 0 .18-1.2 2 2 0 0 0-.36-1.19 2.52 2.52 0 0 1 .64 2.53 2.78 2.78 0 0 1-2 1.93 3.44 3.44 0 0 1-2.74-.21 2.41 2.41 0 0 1-1.28-2.26z" fill="#574c3e"/><path class="cls-21" d="M135.77 167.68c.44.11.84.27 1.24.4a9.37 9.37 0 0 0 1.22.24 3.17 3.17 0 0 0 2.2-.42 5.09 5.09 0 0 0 1.58-1.73 17.75 17.75 0 0 0 1.11-2.32 6.19 6.19 0 0 1-.46 2.64 4.55 4.55 0 0 1-1.74 2.2 3.44 3.44 0 0 1-2.82.34 5.49 5.49 0 0 1-1.27-.53 12.43 12.43 0 0 1-1.06-.82z"/><path d="M127.59 145.44a11.18 11.18 0 0 1 4.81-1.44c4.45-.24 8.65 3.27 9.7 4.23a4.58 4.58 0 0 0-3.53 1.09c-.16.16-.33.32-.49.46l-2.9-3.24 1.2 4.73c-5.78 4.32-14.77 1.15-14.37 6.81-.38-5.35 4.08-10.75 7.91-13" fill="#442c1a"/><path class="cls-13" d="M96.07 133.22c1.11-3.09 6-11.68 12.33-7.61s.92 7.54-.3 8.74a7.86 7.86 0 0 0-2.3 5.05z"/><path class="cls-14" d="M118 189.79c-1.3.53-1.88.55-2.26.43a11.47 11.47 0 0 1-1.22-.33 7.42 7.42 0 0 1-2-1 14.62 14.62 0 0 1-1.63-1.25 12.09 12.09 0 0 1-1.31-1.47c-1.62-2.06-3.25-4.13-4.8-6.28a89.6 89.6 0 0 1-8.46-13.78 59.13 59.13 0 0 1-3.16-7.84 40.45 40.45 0 0 1-1.88-8.71 34.32 34.32 0 0 1 .36-9.65 13.63 13.63 0 0 1 1.66-4.9 13.25 13.25 0 0 1 1.73-2.09 3.48 3.48 0 0 1 1.36-.74l.89-.21a1 1 0 0 1 .61 0H98l.18.06.35.12a3.82 3.82 0 0 1 .45.19l.53.23 5.1 3.07.47.34.4.29.29.23.15.11.09.08a1.64 1.64 0 0 1 .38.42l.44.62a4 4 0 0 1 .48.94 9.85 9.85 0 0 1 .29 1.41 8.29 8.29 0 0 1-.21 2.44 26.1 26.1 0 0 0 0 5.46c.19 2 .51 4 .92 6.17s1 4.32 1.67 6.53a132.72 132.72 0 0 0 4.85 13.43c1 2.24 2 4.48 3.08 6.67a12.39 12.39 0 0 1 .76 1.7 14.27 14.27 0 0 1 .48 1.9 7.64 7.64 0 0 1 .17 2.13c0 .4-.07.81-.13 1.23s-.23.93-1.16 2z"/><path d="M205.83 103.42c5.45 5-.85 14.93-5.73 13.16-5.44-2-9.46-5.48-8.3-9.12s7.95-9.62 14.03-4.04z" fill="#bdbbbb"/></g></g></svg>