<svg xmlns="http://www.w3.org/2000/svg" viewBox="0 0 480.31 286.25"><defs><style>.cls-3{fill:#5e3e21}.cls-6{fill:#783a28}.cls-7{fill:#8f4729}.cls-8{fill:#e84c59}.cls-9{fill:#ee7b5c}.cls-10{fill:#f9c862}.cls-11{fill:#062633}.cls-12{fill:#abaaaa}.cls-13{fill:#e1dfe0}.cls-14{fill:none}.cls-15{fill:#041d26}.cls-16{fill:#6e6e6e}.cls-17{fill:silver}</style></defs><g id="Layer_2" data-name="Layer 2"><g id="Layer_2-2" data-name="Layer 2"><path fill="#002735" d="M0 0h480.31v286.25H0z"/><path d="M132.81 165.75c-2.48 4.67-6.22 7.16-8.54 5.92s-2.35-5.72.14-10.4 6.38-7.46 8.7-6.22 2.19 6.02-.3 10.7z" fill="#54371d"/><ellipse class="cls-3" cx="142.71" cy="171.01" rx="9.58" ry="4.76" transform="rotate(-61.99 142.69 171)"/><path d="M161.11 142.75c2.33-.72 4.12-3.8 7.22-5.56 4.28-2.42 5.38-6.36 5.11-4.62s1.21 2.5 1.24 2.25-.5.29-.09-2.32 3.88-3.94 6.37-8.58a29 29 0 0 0 2.17-5.13 9.79 9.79 0 0 1 .28 2.18c5-15.44-.93-24.1-1.78-24.68a5.65 5.65 0 0 1 2.49 1.18c-1.82-4.78-5.3-5.21-5.84-5.29a3.28 3.28 0 0 1 2.61-.56c-1.46-2.07-2.95-3.43-5.55-3.46a2.75 2.75 0 0 0-2.29 1.27c.56-1 .49-4.23-3-5.34 1.71 4.87.92 4 .75 4.16s-2.64-2.42-5.22-2.63a2.53 2.53 0 0 1 1.26 1.45c-2.56-1.06-5.36-2.6-10.94.89a7.18 7.18 0 0 1 3.84 1c-.73.24-10.08 3.08-13.12 12.83.43-.23 2.78-1.64 3.08-1.36-1.71 1.24-7.37 5.6-4.77 22.49.16-.89.91-2.9 1.36-2.85-.7 1.56.47 6.2 5.13 10.42 6.37 5.82 9.08 8.94 9.69 12.26z" fill="#dcb680"/><path d="M143.32 146.81c2.08 2.87 1 4.32.79 6.18-.36 1.79-.73 3.57-1.23 5.29s-1 3.42-1.64 5.09l-.92 2.51a7.37 7.37 0 0 1-.5 1.23 2.11 2.11 0 0 1-1.71.7l-15.73-7a2.15 2.15 0 0 1-.63-1.74 7.85 7.85 0 0 1 .59-1.2l1.25-2.35c.84-1.57 1.73-3.12 2.7-4.63s2-3 3.12-4.44c1.27-1.37 1.61-3.17 5.14-3.53z" fill="#6d3325"/><path class="cls-6" d="M155.69 153.39c2.08 2.87 1 4.32.79 6.19-.36 1.78-.73 3.56-1.22 5.28s-1 3.43-1.65 5.1l-.92 2.5a7 7 0 0 1-.5 1.24 2.14 2.14 0 0 1-1.71.69l-15.73-7a2.1 2.1 0 0 1-.62-1.74 7.35 7.35 0 0 1 .58-1.2l1.26-2.35c.83-1.57 1.72-3.11 2.69-4.63s2-3 3.13-4.43c1.27-1.38 1.6-3.17 5.13-3.54z"/><path class="cls-7" d="M168.63 154.49l.36-.77a1.1 1.1 0 0 0 .06-.26c5.34-13.52 6.12-26.95-10.39-34.55-16.68-7.68-29.44 6-37 25.89-3.36 7.37 8.52 12.23 18.48 16.83 11.56 5.34 21.12 8.94 23.48 3.67l2.48-5.38c.96-1.86 1.8-3.67 2.53-5.43z"/><path class="cls-3" d="M190.86 130.8c.72-2.4 3-7.59 8.53-5.11 7.34 3.3-7.55 17.4-.09 8.87z"/><path class="cls-6" d="M163.06 134.91a3.34 3.34 0 0 1 1.93.35c.28.19.58.36.84.54a8.16 8.16 0 0 1 1.24 1.12 9.79 9.79 0 0 1 1.61 2.24 11 11 0 0 0 2.78 3.47 3 3 0 0 0 2.46.76 5 5 0 0 0 1.12-.27 13.81 13.81 0 0 0 1.44-.68 19.47 19.47 0 0 0 3.36-2.44 47.35 47.35 0 0 0 3.37-3.41 45.48 45.48 0 0 0 3.18-3.91 8.73 8.73 0 0 1 1.65-2 7.42 7.42 0 0 1 1.23-.79 2.74 2.74 0 0 1 1-.24h.69c.17 0 .49 0 1.91.56l4.62 2.25c1.3.78 1.5 1 1.57 1.23l.33.64a2.67 2.67 0 0 1 .27 1.11 9.18 9.18 0 0 1-.23 1.85 10.4 10.4 0 0 1-1.57 3.14 41 41 0 0 1-4.3 5.59 31 31 0 0 1-5.56 4.78 26 26 0 0 1-7.12 3.52 19 19 0 0 1-4.4.81 15.55 15.55 0 0 1-4.89-.5 12.8 12.8 0 0 1-2.37-.89 16 16 0 0 1-2.11-1.28 14 14 0 0 1-1.76-1.55l-.78-.83c-.23-.28-.43-.57-.65-.86a22.18 22.18 0 0 1-3.23-6.94 10.94 10.94 0 0 1-.36-1.72 10.53 10.53 0 0 1 .07-1.77 5 5 0 0 1 .48-1.81c.15-.31.34-.63.51-.93s.48-.65 1.59-1.13z"/><path class="cls-7" d="M178.42 117.15a20.08 20.08 0 1 1-12.67-25.41 20.09 20.09 0 0 1 12.67 25.41z"/><path class="cls-8" d="M127.42 160.33c1.7 5.82 4.32 17.13 2.26 23.64-3.18 10.1-15.75 18.91-21.56 22 3.66-6.31 5-11.21 3.6-14.5-.45-1-1.92 2.94-5.33 4.05a17.5 17.5 0 0 0 0-8c-.45-2.9-.55-8.21 1-11.46 5-10.41 15.23-15.52 17.36-16.83z"/><path class="cls-9" d="M127.42 160.33c1 2.47 2.34 11.69.43 16.24s-11 10.2-14.87 15c.45-4.65 1.42-6.36.39-10.15s-.91-4.36-.59-6.6 3.65-7.12 7.23-11c3.76-4.1 4.75-4.62 4.75-4.62z"/><path class="cls-10" d="M127.42 160.33c.59 3 .89 11.68-1.5 14.29s-4.62 2.2-8.72 6c-.3-1.85 2.15-5.07 1-7-1 1.1-1.27 1.93-2.69 2.51 1-1.76.75-3.94 1.51-6.36.88-2.82 3.29-4.81 5.11-6.89a17.61 17.61 0 0 0 2.58-3.69z"/><path class="cls-11" d="M125.92 161.79c4.84 1.94 9.2 2.41 9.75 1l-1 2.47c-.55 1.37-4.91.9-9.75-1s-8.31-4.61-7.77-6l1-2.46c-.54 1.38 2.94 4.05 7.77 5.99z"/><path class="cls-11" d="M124.73 164.77c3.64 1.46 6.93 1.81 7.34.78l-.74 1.86c-.42 1-3.7.67-7.34-.78s-6.27-3.48-5.85-4.51l.74-1.86c-.41 1.03 2.21 3.05 5.85 4.51z"/><path class="cls-12" d="M145.84 131.16c-.1 5.82-1.4 13.58-5.17 23l-3.49 8.71s-7-.35-10.91-1.93-9.22-6-9.22-6 1.31-3.73 3.37-8.88A64.68 64.68 0 0 1 132.73 126a29.18 29.18 0 0 0 6.15 3.34 28.81 28.81 0 0 0 6.96 1.82z"/><path class="cls-13" d="M143 119c1.15.46 3 4.72 2.84 12.15a28.81 28.81 0 0 1-7-1.86 29.18 29.18 0 0 1-6.15-3.34c4.98-5.29 9.22-7.38 10.31-6.95z"/><path class="cls-11" d="M127.27 158.44c5.61 2.25 10.67 2.79 11.31 1.21l-1.15 2.86c-.64 1.59-5.7 1-11.31-1.2s-9.65-5.36-9-6.94l1.15-2.87c-.65 1.59 3.38 4.69 9 6.94z"/><path class="cls-14" d="M118.23 156.71a15.28 15.28 0 0 0 2.33 1.79c0 .13-.09.26-.13.4a7 7 0 0 1-2.2-2.19zM119 161l.6.44a1.87 1.87 0 0 1-.07.22 3.26 3.26 0 0 1-.53-.66z"/><path class="cls-15" d="M120.43 158.9c-.3.86-.58 1.72-.85 2.57L119 161a.92.92 0 0 1-.14-.79l-.2.51c-1.17-1-1.77-1.87-1.52-2.49l.76-1.9.35.35a7 7 0 0 0 2.18 2.22z"/><path class="cls-15" d="M119 161a3.26 3.26 0 0 0 .53.66c-.21.67-.41 1.34-.6 2-.66-.62-1-1.18-.82-1.59l.55-1.35.2-.51a.92.92 0 0 0 .14.79z"/><path class="cls-16" d="M123.11 151.61c-.53 1.33-1 2.64-1.51 3.95-2.18-1.42-3.51-2.82-3.45-3.79.57-1.51 1.33-3.5 2.23-5.76a64.68 64.68 0 0 1 12.31-20.07 26.91 26.91 0 0 0 3 1.87 116.86 116.86 0 0 0-12.58 23.8z"/><path class="cls-17" d="M132.69 125.94c4.94-5.3 9.17-7.39 10.27-7a1.22 1.22 0 0 1 .46.35 40 40 0 0 0-7.71 8.47 26.91 26.91 0 0 1-3.02-1.82z"/><path class="cls-15" d="M121.6 155.56c-.36 1-.71 2-1 2.94a15.28 15.28 0 0 1-2.33-1.79l-.35-.35a3.13 3.13 0 0 1-.86-1.46 1 1 0 0 1 0-.51l1.15-2.87a.72.72 0 0 0-.06.29c-.06.93 1.27 2.33 3.45 3.75z"/><path class="cls-8" d="M145 166.61c2.15 5.67 5.65 16.74 4.12 23.4-2.37 10.31-14.21 20.09-19.77 23.64 3.16-6.59 4.11-11.58 2.46-14.74-.53-1-1.69 3.08-5 4.45a17.31 17.31 0 0 0-.63-8c-.67-2.86-1.19-8.15.11-11.51 4.14-10.76 14-16.66 16-18.14z"/><path class="cls-9" d="M145 166.61c1.15 2.39 3.26 11.47 1.72 16.16s-10.15 11-13.65 16.16c.09-4.68.91-6.46-.41-10.16s-1.25-4.27-1.11-6.52 3.08-7.39 6.34-11.56c3.42-4.38 4.37-5 4.37-5z"/><path class="cls-10" d="M145 166.61c.83 3 1.81 11.58-.37 14.37s-4.43 2.56-8.22 6.65c-.44-1.82 1.74-5.23.5-7-.88 1.17-1.11 2-2.49 2.71.91-1.83.44-4 1-6.45.66-2.89 2.9-5.07 4.55-7.28a17.46 17.46 0 0 0 2.28-3.88z"/><path class="cls-11" d="M143.66 168.19c5 1.55 9.37 1.68 9.8.27l-.79 2.54c-.44 1.4-4.82 1.28-9.8-.27s-8.65-3.94-8.21-5.34l.79-2.54c-.45 1.4 3.24 3.79 8.21 5.34z"/><path class="cls-11" d="M142.71 171.25c3.75 1.17 7 1.26 7.38.2l-.6 1.92c-.33 1-3.63 1-7.37-.21s-6.52-3-6.19-4l.6-1.92c-.33 1.04 2.47 2.84 6.18 4.01z"/><path class="cls-12" d="M161.11 136.08c.36 5.82-.33 13.66-3.34 23.33l-2.8 9s-7 .19-11-1.08-9.66-5.27-9.66-5.27 1-3.81 2.66-9.11a64.69 64.69 0 0 1 10.69-21 29 29 0 0 0 6.39 2.84 28.56 28.56 0 0 0 7.06 1.29z"/><path class="cls-13" d="M157.32 124.2c1.18.36 3.33 4.47 3.79 11.88a28.56 28.56 0 0 1-7.09-1.3 29 29 0 0 1-6.39-2.84c4.51-5.68 8.56-8.09 9.69-7.74z"/><path class="cls-11" d="M144.74 164.75c5.77 1.8 10.86 1.94 11.37.31l-.92 2.95c-.51 1.62-5.6 1.48-11.37-.32s-10-4.58-9.53-6.2l.92-3c-.51 1.68 3.79 4.51 9.53 6.26z"/><path class="cls-14" d="M135.59 163.73a15.12 15.12 0 0 0 2.47 1.6c0 .14-.07.27-.1.41a7.17 7.17 0 0 1-2.37-2.01zm1.1 4.27l.63.39a1.89 1.89 0 0 0 0 .23 3 3 0 0 1-.63-.62z"/><path class="cls-15" d="M138 165.74c-.23.88-.44 1.76-.64 2.63l-.63-.39a.91.91 0 0 1-.21-.78l-.16.53c-1.24-.88-1.9-1.73-1.71-2.37l.61-2 .37.32a7.17 7.17 0 0 0 2.37 2.06z"/><path class="cls-15" d="M136.69 168a3 3 0 0 0 .58.62c-.16.68-.31 1.36-.45 2-.71-.56-1.07-1.09-.93-1.51l.43-1.39.16-.53a.91.91 0 0 0 .21.81z"/><path class="cls-16" d="M140.06 158.27q-.63 2-1.2 4c-2.28-1.24-3.71-2.53-3.73-3.5.44-1.56 1-3.6 1.77-5.92a64.7 64.7 0 0 1 10.68-21 26.81 26.81 0 0 0 3.17 1.63 116.33 116.33 0 0 0-10.69 24.79z"/><path class="cls-17" d="M147.58 131.92c4.51-5.68 8.57-8.09 9.7-7.74a1.21 1.21 0 0 1 .48.31 40.1 40.1 0 0 0-7 9.06 26.81 26.81 0 0 1-3.18-1.63z"/><path class="cls-15" d="M138.86 162.32c-.28 1-.54 2-.8 3a15.12 15.12 0 0 1-2.47-1.6l-.37-.32a3.21 3.21 0 0 1-1-1.39 1 1 0 0 1 0-.52l.92-2.95a.77.77 0 0 0 0 .3c.01.95 1.44 2.24 3.72 3.48z"/><path d="M57.74 231.44l1.67-9.17.3 9.17 8.28 1.18-8.38.99-1.67 9.66-.4-9.66-8.18-.99 8.38-1.18zm54.08-163.55l1.52-8.33.27 8.33 7.52 1.06-7.61.91-1.52 8.77-.36-8.77-7.43-.91 7.61-1.06zm202.64 57.92l-2.69 10.9.32-11.05-9.87-2.02 10.14-.58 2.72-11.48-.22 11.64 9.76 1.78-10.16.81zm79.71 121.8l-.99 5.23-.18-5.23-4.91-.67 4.97-.57.99-5.51.24 5.51 4.84.57-4.96.67z" fill="#e1f1f9"/></g></g></svg>