<svg id="Layer_1" data-name="Layer 1" xmlns="http://www.w3.org/2000/svg" xmlns:xlink="http://www.w3.org/1999/xlink" viewBox="0 0 251 151"><defs><style>.cls-1{fill:none;}.cls-2{fill:#f4ed97;}.cls-3{fill:#e0d67c;}.cls-4{opacity:0.3;}.cls-5{fill:#5e3e21;}.cls-6{fill:#783a28;}.cls-7{opacity:0.2;}.cls-8{fill:#cecece;}.cls-9{fill:#4b5c61;}.cls-10{fill:#54371d;}.cls-11{fill:#6d3325;}.cls-12{fill:#dcb680;}.cls-13{fill:#8f4729;}.cls-14{fill:#e1f1f9;}.cls-15{fill:#062633;opacity:0.1;isolation:isolate;}.cls-16{clip-path:url(#clip-path);}.cls-17{fill:#15576b;}</style><clipPath id="clip-path"><rect class="cls-1" x="39.71" y="54.73" width="4.38" height="5.4"/></clipPath></defs><title>Alina</title><path class="cls-2" d="M56,37.25A24.89,24.89,0,0,0,43.35,11.14,24.92,24.92,0,1,1,43,60.31a25.26,25.26,0,0,1-7.67-2.65A24.92,24.92,0,0,0,56,37.25Z"/><path class="cls-3" d="M69.07,23.72A28.63,28.63,0,0,1,38.86,58.46c-.86-.07-1.71-.17-2.54-.31A24.94,24.94,0,0,0,71.81,40,24.74,24.74,0,0,0,69.07,23.72Z"/><g class="cls-4"><path class="cls-5" d="M179.72,94.17a16.94,16.94,0,0,0,.65,3.07c.32.47,1.74.4,2.47.35.56,0,1.48-1.44,2.44-2.22s.76-1.58-.1-2-2.5.27-4.5.64Z"/><path class="cls-6" d="M163,93.74a1.45,1.45,0,0,1,.7-.16,2.16,2.16,0,0,0,.36,0,3.7,3.7,0,0,1,.57.07l.52.08.48.14a9.27,9.27,0,0,0,2.15.4,31.11,31.11,0,0,0,4.73-.06c1.6-.11,3.2-.32,4.8-.49.81-.09,1.61-.18,2.41-.29a4.82,4.82,0,0,1,1.2-.09,4.53,4.53,0,0,1,.64.13,1.45,1.45,0,0,1,.34.2l.18.2c.07,0,.14.14.32.66l.43,1.83c.07.56.05.69,0,.74l-.12.25a1.27,1.27,0,0,1-.27.34,4.43,4.43,0,0,1-.65.41,5,5,0,0,1-1.31.36c-.86.16-1.75.3-2.67.41a29.3,29.3,0,0,1-5.38,0,24.48,24.48,0,0,1-5.44-1,13.84,13.84,0,0,1-2.72-1.14,3.44,3.44,0,0,1-1.2-1,2.14,2.14,0,0,1-.38-.79,2.44,2.44,0,0,1-.07-.46c0-.15,0-.34.31-.67Z"/></g><g class="cls-4"><path class="cls-5" d="M168,81.42a17.4,17.4,0,0,0,3,1c.57,0,1.22-1.3,1.54-2,.25-.5-.5-2-.7-3.23s-1-1.44-1.73-.89-1,2.3-1.71,4.22Z"/><path class="cls-6" d="M159.23,95.67c.08-.45.13-.6.21-.69a1.92,1.92,0,0,0,.18-.31,4,4,0,0,1,.35-.46l.32-.4c.12-.13.25-.23.37-.35a9.31,9.31,0,0,0,1.42-1.66,31.56,31.56,0,0,0,2.33-4.12c.71-1.44,1.33-2.93,2-4.4.32-.74.64-1.48.95-2.23a4.71,4.71,0,0,1,.53-1.08,3.35,3.35,0,0,1,.43-.49,1.33,1.33,0,0,1,.35-.2l.25,0c.07,0,.19,0,.74.06l1.8.54c.51.22.62.31.63.37l.16.23a1.21,1.21,0,0,1,.16.41,4.83,4.83,0,0,1,0,.76,4.62,4.62,0,0,1-.35,1.31c-.29.83-.62,1.67-1,2.52a29.61,29.61,0,0,1-2.67,4.68,24.83,24.83,0,0,1-3.59,4.21,14.44,14.44,0,0,1-2.34,1.78,3.52,3.52,0,0,1-1.51.51,2.13,2.13,0,0,1-.87-.06,3.38,3.38,0,0,1-.44-.18c-.14-.06-.29-.18-.42-.6Z"/></g><g class="cls-7"><path class="cls-8" d="M42.31,55.6a3,3,0,0,0-1.33,3,3.82,3.82,0,0,0,.82,1.5c.41.43.85.86,1.28,1.28,1.75,1.68,3.59,3.28,5.43,4.87q5.57,4.71,11.43,9.07c7.81,5.8,15.94,11.16,24.28,16.15a328.69,328.69,0,0,0,52.43,25.31c9.08,3.44,18.34,6.38,27.67,9l7,1.93c2.34.64,4.72,1.15,7.06,1.76l3.53.89c1.18.3,2.37.54,3.55.81l7.1,1.57,7.14,1.41,3.58.71,3.59.61,7.18,1.22,7.21,1c9.62,1.42,19.31,2.28,29,3.18v.3q-3.66,0-7.32-.11c-2.44-.06-4.89-.06-7.32-.22-4.87-.31-9.76-.54-14.62-1.07-9.74-.82-19.41-2.41-29-4.13-9.59-2-19.13-4.19-28.49-7s-18.63-6-27.71-9.66A331.34,331.34,0,0,1,83.44,92.72,291.18,291.18,0,0,1,59.4,76q-5.8-4.47-11.28-9.33c-1.82-1.63-3.62-3.27-5.35-5-.43-.44-.86-.86-1.28-1.33a4.21,4.21,0,0,1-.88-1.69,2.81,2.81,0,0,1,.28-1.89,4.05,4.05,0,0,1,1.26-1.41Z"/></g><path class="cls-5" d="M175.18,87a16.39,16.39,0,0,0,1.9,2.49c.49.3,1.75-.38,2.39-.74s.71-1.93,1.24-3,0-1.75-.92-1.72-2.14,1.32-3.79,2.51Z"/><path class="cls-6" d="M159.88,93.79c.32-.33.45-.42.56-.45a2.41,2.41,0,0,0,.33-.15,3.58,3.58,0,0,1,.55-.19l.49-.15.51-.08a9.13,9.13,0,0,0,2.11-.56,30.82,30.82,0,0,0,4.24-2.08c1.4-.78,2.76-1.66,4.13-2.5.69-.42,1.37-.85,2-1.3a4.72,4.72,0,0,1,1.05-.59,3.6,3.6,0,0,1,.63-.15.91.91,0,0,1,.4,0l.24.1c.08,0,.19.06.57.47l1.18,1.46c.3.47.34.6.31.67v.27a1.08,1.08,0,0,1-.1.43,3.31,3.31,0,0,1-.41.64,4.33,4.33,0,0,1-1,.89c-.72.52-1.46,1-2.24,1.52a29.72,29.72,0,0,1-4.85,2.35,25.22,25.22,0,0,1-5.34,1.43,14.42,14.42,0,0,1-2.94.14,3.45,3.45,0,0,1-1.53-.43,2.14,2.14,0,0,1-.68-.55,2.7,2.7,0,0,1-.27-.39.85.85,0,0,1,0-.73Z"/><path class="cls-9" d="M156.41,92.55,142.85,82.17a9.44,9.44,0,0,0,2.43-2.72,7.55,7.55,0,0,0,1.55-3.16l14.67,8.76s.21,1-2,4.23-3.1,3.3-3.1,3.3"/><path class="cls-5" d="M169.91,113.94c-.07-.4-3.24.79-3.24.79-.23,1-.37,1.49,0,2.15a9.53,9.53,0,0,0-1.35.5c-2.64,1.18-4.28,3.28-3.65,4.69.44,1,2.77-.29,5.12-1.39,1.19-.55,2.42-1,3.3-1.4h0l1.52-.68s.34-.82-1.5-2.44C169.73,115.89,170,114.39,169.91,113.94Z"/><path class="cls-10" d="M157.18,119.19c.22-.36-4.68-2.16-4.68-2.16a11.22,11.22,0,0,0,.28,2.31,8,8,0,0,0-1.34-.51c-2.79-.83-5.39-.27-5.82,1.19-.32,1,2.28,1.57,4.79,2.26,1.28.31,2.47.82,3.41,1.07h0l1.61.48s.79-.41.44-2.84C155.79,120.56,157,119.56,157.18,119.19Z"/><path class="cls-11" d="M164.08,105.12a3,3,0,0,1,1.94.78c.35.39.65.82,1,1.2.62.84,1.24,1.67,1.79,2.54s1.06,1.73,1.54,2.62l.72,1.33a3.27,3.27,0,0,1,.33.68c.09.25,0,.56-.35,1l-8.89,4a1.23,1.23,0,0,1-1-.39,4.66,4.66,0,0,1-.26-.71l-.53-1.41a22.15,22.15,0,0,1-.92-2.86c-.23-1-.5-2-.7-2.94-.08-.51-.19-1-.26-1.54a3,3,0,0,1,.69-2Z"/><path class="cls-6" d="M158.26,109.36a3,3,0,0,1,.9,1.89c0,.52-.06,1-.1,1.55-.1,1-.2,2-.38,3s-.38,2-.63,2.93l-.38,1.46a3.76,3.76,0,0,1-.2.73,1.19,1.19,0,0,1-.92.49l-9.26-3.08a1.17,1.17,0,0,1-.45-.94,4.3,4.3,0,0,1,.26-.71l.58-1.4c.38-.93.8-1.86,1.26-2.77s1-1.81,1.52-2.7c.28-.44.54-.89.84-1.32a3.1,3.1,0,0,1,1.85-1Z"/><path class="cls-12" d="M150.27,102.18c-1.07-.88-1.35-2.87-2.61-4.46-1.73-2.18-1.47-4.48-1.69-3.51s-1.18,1.05-1.13.92.19.26.53-1.2-1.2-2.9-1.51-5.84a16.9,16.9,0,0,1-.06-3.18,5.5,5.5,0,0,0-.6,1.09c.63-9.18,5.61-12.47,6.17-12.59a3.14,3.14,0,0,0-1.55.09A4.25,4.25,0,0,1,152,71.94a1.85,1.85,0,0,0-1.25-.86,3.74,3.74,0,0,1,3.65-.63,1.52,1.52,0,0,1,.93,1.15,2.33,2.33,0,0,1,2.44-2.2l.27,0c-1.93,2.19-1.33,1.89-1.28,2s1.87-.7,3.3-.27a1.47,1.47,0,0,0-1,.49c1.57,0,3.38-.19,5.56,2.79a4.2,4.2,0,0,0-2.22-.24,11.61,11.61,0,0,1,4.17,9.54c-.19-.21-1.12-1.45-1.34-1.37.64,1,2.68,4.51-2.28,12.83.11-.5.14-1.72-.1-1.79,0,1-1.57,3.16-4.91,4.38C153.39,99.5,151.3,100.56,150.27,102.18Z"/><path class="cls-13" d="M145.78,111.88l.58,3.31c.55,3.22,6.31,2.61,13.43,1.39,6.12-1.1,13.33-2.06,12.49-6.57h0C171,98,166,88.71,155.73,90.57h0c-10.15,1.81-11.64,9.29-10.64,17.47a.76.76,0,0,0,0,.15l.09.47C145.33,109.62,145.53,110.72,145.78,111.88Z"/><path class="cls-5" d="M129.31,97.35c-2.33-.19-4.28-.74-5.23-.21s-1.12,1.46,0,2.26,2.35,2.31,3,2.29c.85,0,2.49-.12,2.81-.7a19.44,19.44,0,0,0,.49-3.63Z"/><path class="cls-6" d="M150.43,95.51c.39.36.45.58.45.76a3.37,3.37,0,0,1,0,.55c-.05.34.17,1.6,0,1.89a3.82,3.82,0,0,1-1.29,1.33,16,16,0,0,1-3.06,1.56,29.09,29.09,0,0,1-6.31,1.61c-2.1.33-8.88-.69-9.93-.81a5.82,5.82,0,0,1-1.59-.31,5.25,5.25,0,0,1-.81-.43,1.49,1.49,0,0,1-.37-.38l-.17-.28c-.06,0-.1-.2-.09-.86l.29-2.18c.14-.64.21-.76.29-.81l.18-.25a1.16,1.16,0,0,1,.39-.26,3.58,3.58,0,0,1,.73-.2,5.27,5.27,0,0,1,1.43,0c1,.07,1.92.11,2.88.15,1.91.07,3.84.19,5.74.18a36,36,0,0,0,5.59-.32,10.6,10.6,0,0,0,2.49-.64c.19-.08.37-.15.56-.21l.59-.14c.22,0,.45-.09.68-.12a3,3,0,0,0,.42,0,1.77,1.77,0,0,1,.85.14Z"/><path class="cls-13" d="M146.62,85.05A11.37,11.37,0,1,0,158.68,74.4h0A11.38,11.38,0,0,0,146.62,85.05Z"/><polygon class="cls-14" points="73.7 116.98 74.67 111.63 74.85 116.98 79.67 117.66 74.79 118.24 73.81 123.87 73.59 118.24 68.82 117.66 73.7 116.98"/><polygon class="cls-14" points="223.34 80.95 224.22 76.1 224.38 80.95 228.76 81.57 224.33 82.1 223.44 87.21 223.23 82.1 218.91 81.57 223.34 80.95"/><polygon class="cls-14" points="26.71 80.21 26.13 83.26 26.02 80.21 23.16 79.82 26.06 79.49 26.64 76.28 26.77 79.49 29.6 79.82 26.71 80.21"/><polygon class="cls-14" points="155.1 35.09 153.54 41.44 153.72 35.01 147.97 33.83 153.88 33.48 155.46 26.8 155.33 33.58 161.02 34.62 155.1 35.09"/><polygon class="cls-14" points="97.98 53.32 97.4 56.37 97.3 53.32 94.44 52.93 97.33 52.6 97.91 49.39 98.05 52.6 100.87 52.93 97.98 53.32"/><g class="cls-7"><path class="cls-8" d="M42.21,60.2a3.6,3.6,0,0,1-1.4,1,1.52,1.52,0,0,1-.91.19,1.12,1.12,0,0,1-.8-.6l0-.09a3.81,3.81,0,0,1,.79-.31c.21-.07.44.05.69,0a5.11,5.11,0,0,0,1.53-.32Z"/></g><g class="cls-7"><path class="cls-8" d="M42,60.14a5,5,0,0,0,1.52.32c.25,0,.48-.09.69,0a3.21,3.21,0,0,1,.79.3l0,.09a1.14,1.14,0,0,1-.79.61,1.57,1.57,0,0,1-.91-.2,3.46,3.46,0,0,1-1.4-1Z"/></g><g class="cls-4"><path class="cls-5" d="M134.32,111.14c-1.79,1.52-3.55,2.51-3.85,3.56s.24,1.82,1.63,1.56,3.3,0,3.74-.5,1.68-1.84,1.49-2.48a18.52,18.52,0,0,0-2.21-2.92Z"/><path class="cls-6" d="M148,94.92c.54,0,.73.09.86.21a2.41,2.41,0,0,1,.37.41c.21.27,1.26,1,1.34,1.34a4,4,0,0,1,0,1.85,16.43,16.43,0,0,1-1.06,3.27,29.3,29.3,0,0,1-3.32,5.6c-1.26,1.71-6.77,5.79-7.59,6.45a6.11,6.11,0,0,1-1.35.9,4.39,4.39,0,0,1-.87.27,1.35,1.35,0,0,1-.53,0l-.32-.08c-.09,0-.22-.06-.68-.54l-1.34-1.75c-.35-.55-.38-.68-.37-.77l0-.3a1.18,1.18,0,0,1,.09-.46,4.38,4.38,0,0,1,.37-.67,5.37,5.37,0,0,1,1-1c.73-.64,1.44-1.28,2.14-1.93,1.41-1.3,2.85-2.58,4.19-3.93a36.06,36.06,0,0,0,3.72-4.19,10.06,10.06,0,0,0,1.31-2.21c.09-.19.15-.36.25-.54l.32-.52c.12-.19.25-.38.39-.56a3,3,0,0,0,.28-.33c.06-.11.21-.24.69-.5Z"/></g><g class="cls-4"><path class="cls-5" d="M132.45,86.17c-1.88-1.39-3.25-2.88-4.34-2.94s-1.72.65-1.14,2,.77,3.21,1.33,3.52c.74.43,2.18,1.22,2.76.89a19.6,19.6,0,0,0,2.34-2.81Z"/><path class="cls-6" d="M151.35,95.75c.15.52.08.74,0,.89a2.77,2.77,0,0,1-.31.45c-.22.26-.7,1.46-1,1.61a3.89,3.89,0,0,1-1.8.44,15.8,15.8,0,0,1-3.43-.29,28.83,28.83,0,0,1-6.2-2c-2-.83-7.19-5.27-8-5.92a5.64,5.64,0,0,1-1.18-1.11,4.22,4.22,0,0,1-.47-.79,1.3,1.3,0,0,1-.11-.51v-.34c0-.07,0-.22.38-.77l1.39-1.71c.46-.46.58-.53.68-.53l.28-.11a1.06,1.06,0,0,1,.47,0,4.68,4.68,0,0,1,.73.21,5.77,5.77,0,0,1,1.22.76c.78.56,1.57,1.1,2.36,1.64,1.59,1.07,3.16,2.18,4.78,3.18a36.12,36.12,0,0,0,4.93,2.67,10.44,10.44,0,0,0,2.45.78,5.4,5.4,0,0,1,.58.11l.58.2a4.35,4.35,0,0,1,.63.25,2.81,2.81,0,0,0,.39.19c.12,0,.28.16.65.57Z"/></g><g class="cls-4"><path class="cls-5" d="M131.21,104c-2.3.44-4.32.43-5.1,1.19s-.69,1.71.65,2.16,2.88,1.62,3.5,1.42c.81-.25,2.37-.77,2.52-1.42a19.2,19.2,0,0,0-.48-3.63Z"/><path class="cls-6" d="M151.08,96.66c.48.24.59.43.64.6a3.53,3.53,0,0,1,.13.54c0,.34.59,1.5.49,1.83a3.8,3.8,0,0,1-.89,1.62,16.47,16.47,0,0,1-2.54,2.32,29.2,29.2,0,0,1-5.65,3.23c-1.94.87-8.75,1.69-9.79,1.86a5.78,5.78,0,0,1-1.61.11,4.5,4.5,0,0,1-.9-.19,1.29,1.29,0,0,1-.45-.27l-.24-.23c-.08,0-.16-.16-.32-.8l-.31-2.18c0-.65,0-.79.07-.86l.11-.28a1.31,1.31,0,0,1,.3-.36,4.4,4.4,0,0,1,.66-.39,5,5,0,0,1,1.38-.38l2.81-.62c1.86-.45,3.75-.85,5.58-1.36a36.46,36.46,0,0,0,5.31-1.8,10.31,10.31,0,0,0,2.23-1.28c.16-.12.31-.24.48-.35l.54-.29a4.27,4.27,0,0,1,.61-.29,2.74,2.74,0,0,0,.4-.15,1.77,1.77,0,0,1,.86-.09Z"/></g><path class="cls-15" d="M177.61,83.29c-.7.14-1.46,1-2.43,2.09l-.14,0a1.35,1.35,0,0,0-.4,0,4,4,0,0,0-.6.25,4.84,4.84,0,0,0-.94.75c-.6.55-1.21,1.07-1.82,1.6-1,.89-2.07,1.79-3.13,2.65a11.36,11.36,0,0,0-3.73-14.34,11.94,11.94,0,0,0-2-2.19,4.25,4.25,0,0,1,2.23.24c-2.19-3-4-2.8-5.56-2.79a1.45,1.45,0,0,1,1-.49c-1.43-.43-3.26.4-3.31.27s-.65.17,1.29-2l-.28,0a2.33,2.33,0,0,0-2.44,2.2,1.52,1.52,0,0,0-.93-1.15,3.72,3.72,0,0,0-3.65.63,1.83,1.83,0,0,1,1.25.86,4.2,4.2,0,0,0-4.18,1.56,3.17,3.17,0,0,1,1.56-.09c-.45.1-3.67,2.2-5.3,7.64A10.9,10.9,0,0,1,142.82,82l.79.6a22.78,22.78,0,0,0-.44,3.22,5.71,5.71,0,0,1,.6-1.08,16.78,16.78,0,0,0,.06,3.17c.32,3,1.85,4.38,1.51,5.85s-.48,1.06-.53,1.2.9,0,1.13-.93c.16-.7.08.33.68,1.79a11.06,11.06,0,0,1-1.89.45,37.34,37.34,0,0,1-5.6.32c-1.9,0-3.82-.11-5.74-.18-.95,0-1.91-.08-2.87-.15a5.78,5.78,0,0,0-1.44,0,4.68,4.68,0,0,0-.73.21,1.27,1.27,0,0,0-.39.26l-.18.25s0,0,0,0c-1.64-.22-3-.45-3.7,0-1,.52-1.12,1.46,0,2.25s2.35,2.32,3,2.3l.72,0h0a4.92,4.92,0,0,0,.82.43,5.75,5.75,0,0,0,1.59.31c1,.12,7.82,1.14,9.92.81a29,29,0,0,0,4.72-1.06,29.39,29.39,0,0,0,.18,5.89.38.38,0,0,0,0,.15l.08.47c.16,1,.36,2.06.61,3.22l.59,3.31a2.26,2.26,0,0,0,.78,1.38l0,.12a3.34,3.34,0,0,0-.26.71,1.15,1.15,0,0,0,.44.94l.58.19a2.6,2.6,0,0,0-2.25,1.48c-.31,1.05,2.28,1.58,4.79,2.27,1.29.31,2.48.82,3.42,1.07l1.6.48s.74-.4.47-2.63l.65.22a1.21,1.21,0,0,0,.93-.49,3.74,3.74,0,0,0,.19-.73l.38-1.46c.17-.64.29-1.29.42-1.94l1.32-.22.5-.08c0,.09.06.18.1.28l.53,1.41a3.46,3.46,0,0,0,.26.7,1.16,1.16,0,0,0,1,.4l.7-.32c-1.1,1-1.61,2.2-1.21,3.09s2.76-.28,5.11-1.38c1.2-.56,2.42-1,3.3-1.4l1.52-.68s.35-.82-1.5-2.44a.62.62,0,0,1-.15-.4l1.12-.51c.35-.43.44-.74.35-1a4.27,4.27,0,0,0-.33-.68l-.13-.24a3.22,3.22,0,0,0,1.35-3.34c-.57-5.39-1.91-10.24-4.14-13.78.7-.33,1.39-.68,2.06-1.08A28.12,28.12,0,0,0,174.59,92c.7-.61,1.35-1.23,2-1.85a4.76,4.76,0,0,0,.87-1,3.28,3.28,0,0,0,.3-.7.38.38,0,0,0,0-.1l.28-.22c.45-.34.41-2,.76-3.21S178.52,83.11,177.61,83.29Z"/><g class="cls-16"><g class="cls-7"><path class="cls-17" d="M42.31,55.6a3,3,0,0,0-1.33,3,3.82,3.82,0,0,0,.82,1.5c.41.43.85.86,1.28,1.28,1.75,1.68,3.59,3.28,5.43,4.87q5.57,4.71,11.43,9.07c7.81,5.8,15.94,11.16,24.28,16.15a328.69,328.69,0,0,0,52.43,25.31c9.08,3.44,18.34,6.38,27.67,9l7,1.93c2.34.64,4.72,1.15,7.06,1.76l3.53.89c1.18.3,2.37.54,3.55.81l7.1,1.57,7.14,1.41,3.58.71,3.59.61,7.18,1.22,7.21,1c9.62,1.42,19.31,2.28,29,3.18v.3q-3.66,0-7.32-.11c-2.44-.06-4.89-.06-7.32-.22-4.87-.31-9.76-.54-14.62-1.07-9.74-.82-19.41-2.41-29-4.13-9.59-2-19.13-4.19-28.49-7s-18.63-6-27.71-9.66A331.34,331.34,0,0,1,83.44,92.72,291.18,291.18,0,0,1,59.4,76q-5.8-4.47-11.28-9.33c-1.82-1.63-3.62-3.27-5.35-5-.43-.44-.86-.86-1.28-1.33a4.21,4.21,0,0,1-.88-1.69,2.81,2.81,0,0,1,.28-1.89,4.05,4.05,0,0,1,1.26-1.41Z"/></g></g></svg>