<svg id="Layer_1" data-name="Layer 1" xmlns="http://www.w3.org/2000/svg" viewBox="0 0 251 151"><defs><style>.cls-1{fill:#e1f1f9}.cls-3,.cls-4,.cls-5{fill:#e6eeea}.cls-4,.cls-5{stroke:#fff;stroke-miterlimit:10}.cls-4{stroke-width:3px}.cls-5{stroke-width:2px}.cls-12{fill:#5e3e21}.cls-15{fill:#783a28}.cls-16{fill:#8f4729}.cls-17{fill:#e84c59}.cls-18{fill:#ee7b5c}.cls-19{fill:#f9c862}.cls-20{fill:#062633}.cls-21{fill:#abaaaa}.cls-22{fill:#e1dfe0}.cls-23{fill:none}.cls-24{fill:#041d26}.cls-25{fill:#6e6e6e}.cls-26{fill:silver}</style></defs><path class="cls-1" d="M205.63 97.79l-.57 2.97-.09-2.97-2.79-.38 2.82-.32.56-3.13.13 3.13 2.76.32-2.82.38zm-33.79-71.54l-.56 2.97-.1-2.97-2.79-.38 2.82-.32.56-3.13.14 3.13 2.75.32-2.82.38z"/><g opacity=".2"><path class="cls-3" d="M129.79 35a.1.1 0 0 1-.1-.1v-.6a.1.1 0 0 1 .1-.1.1.1 0 0 1 .09.1v.59a.1.1 0 0 1-.09.11zm-.52.16a.09.09 0 0 1-.07 0l-.42-.41a.13.13 0 0 1 0-.14.11.11 0 0 1 .07 0 .09.09 0 0 1 .07 0l.42.42a.09.09 0 0 1 0 .07.07.07 0 0 1 0 .06.09.09 0 0 1-.07 0zm-.83.49a.1.1 0 0 1-.1-.09.1.1 0 0 1 .1-.1h.56a.09.09 0 0 1 .09.1.09.09 0 0 1-.09.09h-.59zm.35.94a.1.1 0 0 1-.07-.17l.42-.42h.13a.11.11 0 0 1 0 .07.09.09 0 0 1 0 .07l-.41.42a.11.11 0 0 1-.07.03zm.9.41a.09.09 0 0 1-.09-.1v-.58a.09.09 0 0 1 .09-.1.09.09 0 0 1 .1.1v.58a.09.09 0 0 1-.1.1zm.94-.35a.09.09 0 0 1-.07 0l-.42-.41a.1.1 0 0 1 0-.14.11.11 0 0 1 .07 0 .09.09 0 0 1 .07 0l.42.42a.14.14 0 0 1 0 .07.09.09 0 0 1-.09.09zm-.18-.9a.1.1 0 0 1 0-.2h.55a.1.1 0 1 1 0 .2h-.59zm-.17-.52a.1.1 0 0 1-.1-.1.11.11 0 0 1 0-.07l.42-.41a.07.07 0 0 1 .06 0 .09.09 0 0 1 .07 0 .09.09 0 0 1 0 .13l-.41.42a.11.11 0 0 1-.04.03zm4.05 7.03a.13.13 0 0 1-.13-.13v-1.84a.12.12 0 0 1 .13-.13.12.12 0 0 1 .12.13v1.84a.12.12 0 0 1-.12.13z"/><path class="cls-3" d="M133.4 41.34a.13.13 0 0 1 0-.26h1.85a.13.13 0 1 1 0 .26zm17.69 11.35a.23.23 0 0 1-.24-.23.24.24 0 0 1 .47 0 .23.23 0 0 1-.23.23zm-.93-.38a.2.2 0 0 1-.13 0 .22.22 0 0 1 0-.32.23.23 0 0 1 .17-.07.2.2 0 0 1 .16.07.22.22 0 0 1 0 .32.2.2 0 0 1-.2 0zm1.85 0a.24.24 0 0 1-.16-.4.24.24 0 0 1 .32 0 .23.23 0 0 1 .07.17.24.24 0 0 1-.23.23zm-2.24-.92a.24.24 0 1 1 .23-.24.23.23 0 0 1-.23.24zm2.63 0a.23.23 0 0 1-.24-.23.24.24 0 1 1 .47 0 .23.23 0 0 1-.23.22zm-2.25-.92a.24.24 0 0 1 0-.47.26.26 0 0 1 .17.07.26.26 0 0 1 .07.16.24.24 0 0 1-.07.17.26.26 0 0 1-.17.06zm1.86 0a.27.27 0 0 1-.17-.06.25.25 0 0 1 0-.33.23.23 0 0 1 .16-.08.2.2 0 0 1 .16.07.22.22 0 0 1 0 .32.2.2 0 0 1-.16.06zm-.93-.38a.23.23 0 1 1 .23-.23.23.23 0 0 1-.23.21zM135 54.89a.3.3 0 0 1-.36-.22L134.3 53a.29.29 0 0 1 .57-.13l.39 1.65a.28.28 0 0 1-.26.37zm-1.29.84a.37.37 0 0 1-.23 0L132 54.8a.36.36 0 0 1-.13-.19.24.24 0 0 1 0-.22.28.28 0 0 1 .18-.14.37.37 0 0 1 .23 0l1.43.89a.3.3 0 0 1 .1.41.31.31 0 0 1-.1.18zm-2.01 1.91a.28.28 0 0 1-.35-.22.3.3 0 0 1 .22-.36l1.65-.38a.28.28 0 0 1 .35.22.3.3 0 0 1-.22.36zm6.78 1.36a.35.35 0 0 1-.22 0l-1.44-.89a.31.31 0 0 1-.13-.19.24.24 0 0 1 0-.22.28.28 0 0 1 .18-.14.31.31 0 0 1 .23 0l1.43.89a.3.3 0 0 1 .14.19.35.35 0 0 1 0 .22.3.3 0 0 1-.19.14zm-1.08-2.42a.3.3 0 0 1-.36-.22.31.31 0 0 1 .23-.36l1.64-.38a.3.3 0 1 1 .14.58zm-.83-1.33a.28.28 0 0 1-.22 0 .29.29 0 0 1-.1-.41l.89-1.44a.33.33 0 0 1 .19-.13.29.29 0 0 1 .22 0 .3.3 0 0 1 .1.41l-.9 1.44a.3.3 0 0 1-.18.13z"/><path class="cls-4" d="M140.88 36.33a.14.14 0 0 1-.14-.14v-2a.14.14 0 1 1 .28 0v2a.14.14 0 0 1-.14.14z"/><path class="cls-4" d="M139.88 35.32a.14.14 0 0 1 0-.28h2a.14.14 0 0 1 0 .28z"/><path class="cls-5" d="M125.6 54.25a.2.2 0 0 1-.21-.2v-2.9a.2.2 0 0 1 .21-.2.2.2 0 0 1 .2.2v2.9a.2.2 0 0 1-.2.2z"/><path class="cls-5" d="M124.15 52.8a.2.2 0 0 1 0-.4H127a.2.2 0 0 1 0 .4zm19.48 5.84a.72.72 0 1 1 .71-.72.71.71 0 0 1-.71.72zm0-1.16a.45.45 0 1 0 .44.44.45.45 0 0 0-.44-.44zm-17.91-14.95a.66.66 0 0 1-.64-.67.67.67 0 0 1 .68-.64.65.65 0 0 1 .63.68.64.64 0 0 1-.67.63zm0-1.06a.41.41 0 1 0 0 .82.42.42 0 0 0 .42-.4.41.41 0 0 0-.39-.42zm25.43 2.29a.95.95 0 1 1 .95-.95 1 1 0 0 1-.95.95zm0-1.55a.6.6 0 1 0 .59.6.59.59 0 0 0-.59-.6z"/><text transform="translate(125.93 48.76)" fill="#fff" font-size="5.56" font-family="SourceSansPro-Black,Source Sans Pro">&lt; M<tspan x="8.44" y="0" letter-spacing="-.01em">A</tspan><tspan x="11.63" y="0">GIC &gt;</tspan></text><rect x="128.36" y="55.1" width="1.85" height="53.55" rx=".93" ry=".93" transform="rotate(13.06 129.252 81.854)" fill="#b28a6a"/><path d="M133.33 68.54l-1.81-.42 2.7-11.63a.91.91 0 0 1 1.11-.69.93.93 0 0 1 .7 1.11z" fill="#fff"/><path transform="rotate(13.06 132.598 67.399)" fill="#9e7855" d="M131.71 66.49h1.85v1.85h-1.85z"/></g><path d="M86 111.1c-1.65 3.11-4.14 4.77-5.69 4s-1.56-3.81.1-6.93 4.25-5 5.79-4.14 1.42 3.97-.2 7.07z" fill="#54371d"/><ellipse class="cls-12" cx="92.55" cy="114.61" rx="6.38" ry="3.17" transform="rotate(-61.99 92.537 114.603)"/><path d="M104.81 95.79c1.55-.48 2.74-2.53 4.8-3.7 2.85-1.61 3.58-4.24 3.4-3.08s.81 1.67.83 1.5-.33.19-.06-1.54 2.58-2.63 4.24-5.72a19.41 19.41 0 0 0 1.45-3.41 6.77 6.77 0 0 1 .18 1.45C123 71 119 65.24 118.47 64.85a3.65 3.65 0 0 1 1.66.79c-1.22-3.19-3.53-3.47-3.89-3.52a2.21 2.21 0 0 1 1.74-.38c-1-1.38-2-2.28-3.7-2.3a1.82 1.82 0 0 0-1.53.85 2.72 2.72 0 0 0-2-3.56c1.14 3.24.61 2.65.49 2.77s-1.75-1.61-3.47-1.75a1.68 1.68 0 0 1 .84 1c-1.7-.7-3.57-1.73-7.28.6a4.75 4.75 0 0 1 2.55.68c-.48.16-6.71 2.06-8.74 8.54.29-.15 1.86-1.09 2-.9-1.14.82-4.9 3.73-3.17 15 .11-.6.61-1.93.91-1.91-.47 1 .31 4.13 3.41 7 4.3 3.74 6.11 5.82 6.52 8.03z" fill="#dcb680"/><path d="M93 98.49a3.66 3.66 0 0 1 .83 2.31c-.08.62-.21 1.21-.31 1.81-.24 1.19-.48 2.37-.81 3.52s-.69 2.28-1.1 3.39l-.61 1.67a4.85 4.85 0 0 1-.33.82 1.4 1.4 0 0 1-1.14.46L79 107.79a1.41 1.41 0 0 1-.41-1.15 5.86 5.86 0 0 1 .38-.8l.84-1.57c.56-1 1.15-2.07 1.8-3.08s1.35-2 2.08-3c.38-.48.73-1 1.14-1.43a3.57 3.57 0 0 1 2.28-.93z" fill="#6d3325"/><path class="cls-15" d="M101.2 102.87a3.68 3.68 0 0 1 .83 2.32c-.08.61-.21 1.2-.31 1.8-.24 1.19-.48 2.38-.81 3.52s-.7 2.28-1.1 3.4l-.61 1.67a4.44 4.44 0 0 1-.34.82 1.44 1.44 0 0 1-1.13.46l-10.48-4.68a1.43 1.43 0 0 1-.41-1.16 4.87 4.87 0 0 1 .38-.8l.84-1.57c.56-1 1.15-2.07 1.8-3.08s1.35-2 2.08-2.95c.38-.48.73-1 1.14-1.43a3.63 3.63 0 0 1 2.28-.93z"/><path class="cls-16" d="M109.81 103.6l.24-.51a.47.47 0 0 0 0-.17c3.56-9 4.08-17.94-6.92-23-11.1-5.11-19.6 4-24.61 17.24-2.24 4.91 5.67 8.15 12.3 11.21 7.7 3.55 14.06 6 15.64 2.45l1.65-3.59c.66-1.23 1.22-2.45 1.7-3.63z"/><path class="cls-12" d="M124.61 87.83c.49-1.6 2-5 5.69-3.4 4.88 2.2-5 11.59-.06 5.91z"/><path class="cls-15" d="M106.1 90.57c.81 0 1.12.1 1.29.23s.38.24.56.36a5.08 5.08 0 0 1 .82.75 5.84 5.84 0 0 1 1.07 1.49 7.37 7.37 0 0 0 1.86 2.31 2 2 0 0 0 1.63.51 3.51 3.51 0 0 0 .75-.18 9.08 9.08 0 0 0 1-.46 12.7 12.7 0 0 0 2.19-1.58c.76-.68 1.51-1.46 2.25-2.27a31.47 31.47 0 0 0 2.11-2.6 6.23 6.23 0 0 1 1.1-1.32 5.12 5.12 0 0 1 .83-.52 1.66 1.66 0 0 1 .64-.16h.45a.87.87 0 0 1 .33 0h.16l.21.06.26.1.31.12 3.08 1.5.28.17c.1.07.2.12.24.16l.18.12.08.06h.05a.69.69 0 0 1 .22.26l.22.43a2 2 0 0 1 .18.73 6.28 6.28 0 0 1-.16 1.24 7.3 7.3 0 0 1-1 2.09 28.21 28.21 0 0 1-2.9 3.83 20.9 20.9 0 0 1-3.66 3.19 17.48 17.48 0 0 1-4.74 2.34 12.28 12.28 0 0 1-2.93.54 10.37 10.37 0 0 1-3.25-.33 8.83 8.83 0 0 1-1.58-.59 11 11 0 0 1-1.41-.86 9.07 9.07 0 0 1-1.18-1l-.51-.55-.43-.57a14.77 14.77 0 0 1-2.16-4.62 7.58 7.58 0 0 1-.24-1.15 7.82 7.82 0 0 1 0-1.18 3.26 3.26 0 0 1 .32-1.2c.1-.21.23-.42.34-.62s.33-.43 1.06-.75z"/><path class="cls-16" d="M116.33 78.74a13.37 13.37 0 1 1-8.44-16.92 13.37 13.37 0 0 1 8.44 16.92z"/><path class="cls-17" d="M82.37 107.49c1.13 3.88 2.87 11.41 1.51 15.75-2.12 6.76-10.49 12.59-14.36 14.66 2.44-4.21 3.33-7.47 2.4-9.66-.3-.7-1.28 2-3.55 2.69a11.46 11.46 0 0 0 0-5.34c-.29-1.93-.36-5.47.67-7.64 3.32-6.92 10.14-10.33 11.56-11.2z"/><path class="cls-18" d="M82.37 107.49c.63 1.65 1.56 7.79.29 10.82s-7.32 6.79-9.91 10c.31-3.1 1-4.24.27-6.76s-.61-2.91-.4-4.39 2.44-4.75 4.82-7.35a18.85 18.85 0 0 1 3.16-3.07z"/><path class="cls-19" d="M82.37 107.49c.4 2 .6 7.78-1 9.52s-3.07 1.47-5.81 4c-.19-1.23 1.44-3.38.7-4.63-.64.73-.84 1.28-1.79 1.67.7-1.17.5-2.62 1-4.23.58-1.88 2.19-3.21 3.4-4.59a11.9 11.9 0 0 0 1.72-2.46z"/><path class="cls-20" d="M81.37 108.47c3.22 1.29 6.13 1.6 6.49.69l-.65 1.65c-.37.9-3.28.59-6.5-.7s-5.53-3.07-5.17-4l.66-1.64c-.36.93 1.95 2.71 5.17 4z"/><path class="cls-20" d="M80.58 110.45c2.42 1 4.61 1.21 4.89.52l-.5 1.24c-.27.68-2.46.45-4.89-.52s-4.17-2.32-3.89-3l.49-1.24c-.27.69 1.47 2.03 3.9 3z"/><path class="cls-21" d="M94.64 88.07a43.74 43.74 0 0 1-3.45 15.31l-2.32 5.8a28.83 28.83 0 0 1-7.27-1.29 30 30 0 0 1-6.13-4s.86-2.48 2.24-5.91a42.85 42.85 0 0 1 8.2-13.37 20.07 20.07 0 0 0 8.73 3.46z"/><path class="cls-22" d="M92.75 80c.76.31 2 3.14 1.89 8.09a20.07 20.07 0 0 1-8.73-3.46C89.2 81.08 92 79.69 92.75 80z"/><path class="cls-20" d="M82.27 106.24c3.74 1.5 7.11 1.86 7.53.8L89 109c-.42 1-3.79.69-7.53-.8s-6.42-3.57-6-4.62l.77-1.91c-.4 1 2.29 3.07 6.03 4.57z"/><path class="cls-23" d="M76.25 105.09a10.9 10.9 0 0 0 1.55 1.19l-.09.26a4.71 4.71 0 0 1-1.46-1.45zm.5 2.91c.13.1.26.2.4.29a.88.88 0 0 1-.05.15 2.17 2.17 0 0 1-.35-.44z"/><path class="cls-24" d="M77.71 106.54c-.19.57-.38 1.15-.56 1.71-.14-.09-.27-.19-.4-.29a.61.61 0 0 1-.09-.52l-.14.34c-.78-.65-1.17-1.25-1-1.66l.51-1.27.23.24a4.71 4.71 0 0 0 1.45 1.45z"/><path class="cls-24" d="M76.75 108a2.17 2.17 0 0 0 .35.44c-.13.45-.27.89-.4 1.33-.44-.41-.65-.78-.54-1l.36-.9.14-.34a.61.61 0 0 0 .09.47z"/><path class="cls-25" d="M79.5 101.69a78 78 0 0 0-1 2.63c-1.45-.94-2.33-1.88-2.29-2.52.37-1 .88-2.33 1.48-3.84a43.28 43.28 0 0 1 8.2-13.37 16.82 16.82 0 0 0 2 1.25 77.74 77.74 0 0 0-8.39 15.85z"/><path class="cls-26" d="M85.88 84.59c3.29-3.53 6.12-4.92 6.84-4.59a.73.73 0 0 1 .3.23 27.25 27.25 0 0 0-5.13 5.64 16.82 16.82 0 0 1-2.01-1.28z"/><path class="cls-24" d="M78.49 104.32c-.24.66-.46 1.31-.69 2a10.9 10.9 0 0 1-1.55-1.19l-.23-.24a2 2 0 0 1-.57-1 .81.81 0 0 1 0-.35l.77-1.91a.45.45 0 0 0 0 .2c-.06.61.78 1.55 2.27 2.49z"/><path class="cls-17" d="M94.1 111.68c1.44 3.77 3.77 11.15 2.75 15.58-1.58 6.87-9.47 13.37-13.17 15.74 2.11-4.39 2.74-7.71 1.64-9.81-.35-.67-1.12 2.05-3.33 3a11.53 11.53 0 0 0-.42-5.33c-.44-1.9-.79-5.42.07-7.66 2.76-7.17 9.3-11.1 10.64-12.08z"/><path class="cls-18" d="M94.1 111.68c.77 1.59 2.17 7.64 1.15 10.76s-6.76 7.34-9.09 10.76c.06-3.12.61-4.3-.27-6.76s-.83-2.85-.74-4.35 2-4.92 4.22-7.7a18.23 18.23 0 0 1 2.91-3.31z"/><path class="cls-19" d="M94.1 111.68c.56 2 1.21 7.71-.24 9.56s-3 1.71-5.48 4.43c-.29-1.21 1.16-3.48.34-4.67-.59.78-.74 1.34-1.66 1.81.6-1.23.29-2.66.67-4.3.44-1.92 1.93-3.37 3-4.85a11.79 11.79 0 0 0 1.52-2.58z"/><path class="cls-20" d="M93.19 112.73c3.31 1 6.23 1.11 6.52.18l-.52 1.69c-.3.94-3.22.86-6.53-.18s-5.76-2.62-5.47-3.56l.53-1.69c-.29.94 2.15 2.53 5.47 3.56z"/><path class="cls-20" d="M92.55 114.77c2.5.78 4.7.84 4.92.13l-.4 1.28c-.22.7-2.42.64-4.91-.14s-4.34-2-4.12-2.68l.39-1.27c-.22.7 1.63 1.91 4.12 2.68z"/><path class="cls-21" d="M104.8 91.35a43.56 43.56 0 0 1-2.22 15.53l-1.86 6a29.19 29.19 0 0 1-7.35-.71 30.23 30.23 0 0 1-6.43-3.51s.67-2.54 1.77-6.07a43.09 43.09 0 0 1 7.12-14 20.06 20.06 0 0 0 9 2.76z"/><path class="cls-22" d="M102.28 83.44c.79.24 2.22 3 2.52 7.91a20.06 20.06 0 0 1-9-2.76c3.03-3.78 5.73-5.39 6.48-5.15z"/><path class="cls-20" d="M93.9 110.44c3.85 1.19 7.24 1.29 7.58.2l-.62 2c-.33 1.08-3.72 1-7.57-.21s-6.68-3.05-6.35-4.13l.61-2c-.33 1.09 2.51 2.94 6.35 4.14z"/><path class="cls-23" d="M87.81 109.76a10.51 10.51 0 0 0 1.65 1.07 2.68 2.68 0 0 0-.07.27 4.86 4.86 0 0 1-1.58-1.34zm.73 2.83l.42.26v.15a2.09 2.09 0 0 1-.42-.41z"/><path class="cls-24" d="M89.39 111.1c-.15.59-.29 1.17-.43 1.75l-.42-.26a.64.64 0 0 1-.14-.52l-.1.35c-.83-.58-1.27-1.15-1.14-1.57l.41-1.3.24.21a4.86 4.86 0 0 0 1.58 1.34z"/><path class="cls-24" d="M88.54 112.59a2.09 2.09 0 0 0 .39.41c-.11.46-.21.91-.3 1.36-.47-.38-.71-.73-.62-1l.29-.93.1-.35a.64.64 0 0 0 .14.51z"/><path class="cls-25" d="M90.79 106.12c-.28.91-.55 1.81-.8 2.7-1.52-.83-2.48-1.68-2.49-2.33.3-1 .7-2.39 1.18-3.94a43 43 0 0 1 7.12-14 17.89 17.89 0 0 0 2.1 1.08 77.68 77.68 0 0 0-7.11 16.49z"/><path class="cls-26" d="M95.8 88.58c3-3.78 5.7-5.39 6.45-5.16a.9.9 0 0 1 .33.21 27 27 0 0 0-4.68 6 17.89 17.89 0 0 1-2.1-1.05z"/><path class="cls-24" d="M90 108.82c-.19.68-.36 1.34-.53 2a10.51 10.51 0 0 1-1.65-1.07l-.24-.21a2.05 2.05 0 0 1-.65-.93.83.83 0 0 1 0-.35l.62-2a.64.64 0 0 0 0 .2c-.04.68.92 1.54 2.45 2.36z"/><path class="cls-1" d="M30.95 93.3l-1.53 6.2.18-6.28-5.6-1.15 5.76-.33 1.54-6.52-.13 6.61 5.55 1.01-5.77.46zm44.66-69.04l-.56 2.98-.1-2.98-2.79-.38 2.82-.32.56-3.13.13 3.13 2.76.32-2.82.38zm147.26 34.72l-.57 2.98-.1-2.98-2.79-.38 2.82-.32.57-3.13.13 3.13 2.76.32-2.82.38z"/></svg>