<svg xmlns="http://www.w3.org/2000/svg" viewBox="0 0 251 151"><defs><style>.cls-2{fill:#e1f1f9}.cls-4{fill:#ffdc8e}.cls-5{fill:#4d2d54}.cls-6{fill:#d1a7f1}.cls-7{fill:#8190eb}.cls-8{fill:#fbf5f9}.cls-9{fill:#e16d90}.cls-10{mix-blend-mode:multiply}.cls-11{fill:#f0d9e9}.cls-12{fill:#ff9aa5}.cls-13{fill:#fff}.cls-15{fill:#5e3e21}.cls-18{fill:#783a28}.cls-19{fill:#8f4729}.cls-20{fill:#e84c59}.cls-21{fill:#ee7b5c}.cls-22{fill:#f9c862}.cls-23{fill:#062633}.cls-24{fill:#abaaaa}.cls-25{fill:#e1dfe0}.cls-26{fill:none}.cls-27{fill:#041d26}.cls-28{fill:#6e6e6e}.cls-29{fill:silver}</style></defs><g style="isolation:isolate"><g id="Layer_1" data-name="Layer 1"><path class="cls-2" d="M190.69 37.16l1.04-5.69.18 5.69 5.14.73-5.2.62-1.04 5.99-.24-5.99-5.08-.62 5.2-.73zM95.81 20.64l.94-5.17.17 5.17 4.66.66-4.72.56-.94 5.44-.22-5.44-4.62-.56 4.73-.66zM25.42 106.73l-1.67 6.77.2-6.86-6.13-1.25 6.3-.36 1.69-7.13-.15 7.22 6.07 1.11-6.31.5zM234.92 99.52l-.62 3.25-.11-3.25-3.04-.42 3.08-.35.62-3.42.14 3.42 3.01.35-3.08.42z"/><g opacity=".1"><path class="cls-4" d="M81.31 69.18A2.4 2.4 0 0 0 82.5 68a6.47 6.47 0 0 1 .72-1.44 2.86 2.86 0 0 1 1.36-.83 11.05 11.05 0 0 0 1.88-.73 3 3 0 0 0 1.2-1.35A5.19 5.19 0 0 0 88 62.4c.06-.36.11-.73.16-1.1a7.52 7.52 0 0 1-3.57 2.29 15.08 15.08 0 0 0-2.86.56 5.26 5.26 0 0 0-2.1 2.06q-.35.53-.66 1.05a1.57 1.57 0 0 0-.3 1.22c.26.91 1.93 1.03 2.64.7z"/><path class="cls-5" d="M81.55 69.59a4.19 4.19 0 0 0 1.56-1.87c.83-1.47 2-1.5 3.28-2.14 1.69-.84 2-2.41 2.2-4.16a.47.47 0 0 0-.78-.45 7.45 7.45 0 0 1-3.37 2.17 18.41 18.41 0 0 0-2.85.56 6.78 6.78 0 0 0-2.88 3.06c-1.23 2.15.51 3.59 2.73 2.87.56-.18.32-1.08-.25-.89-.75.24-2.06.36-1.84-1.24a3.78 3.78 0 0 1 .66-1c1.06-1.57 2.25-2 4-2.3a8.17 8.17 0 0 0 4.42-2.52l-.78-.45a6.49 6.49 0 0 1-.65 2.63c-.69 1.14-2 1.08-3.1 1.62-1.49.75-1.45 2.45-2.82 3.3-.51.32-.08 1.12.47.81z"/><path class="cls-6" d="M80.06 68.28c1.07-.71.64-2.13 1.45-3a2.51 2.51 0 0 1 1.27-.66c.77-.21 1.57-.3 2.35-.48a5.08 5.08 0 0 0 2.18-1 2.47 2.47 0 0 0 .91-2.14 3 3 0 0 1-1.59 1.21 9.12 9.12 0 0 1-2.86.11 12.66 12.66 0 0 0-2.22.22 5.87 5.87 0 0 0-.83.19 4.26 4.26 0 0 0-.88.44 6.13 6.13 0 0 0-1.5 1.42 3.85 3.85 0 0 0-.82 2.9 1.15 1.15 0 0 0 .89 1 2.37 2.37 0 0 0 1.65-.21z"/><path class="cls-5" d="M80.39 68.61c.67-.61.65-1.1 1-1.88.86-1.94 2.71-1.75 4.46-2.31A3.58 3.58 0 0 0 88.69 61c0-.37-.54-.66-.8-.33-1.57 2-4.65.9-6.88 1.5a5.72 5.72 0 0 0-3.41 2.71c-1.32 2.35-.18 5.07 2.7 3.77.54-.24.07-1.05-.47-.8-.63.46-1.08.34-1.37-.36-.77-.56-.79-1.27 0-2.14a5 5 0 0 1 1.67-1.77 7.52 7.52 0 0 1 4-.78c1.79 0 3.25 0 4.42-1.47l-.79-.33a3.36 3.36 0 0 1-2.17 2.49 14.92 14.92 0 0 1-1.76.39 5.92 5.92 0 0 0-2.18.65c-1.24.84-.87 2.43-1.92 3.39-.44.44.27 1.08.66.69z"/><path class="cls-7" d="M77.05 64.73a4.37 4.37 0 0 1 1.14-1.35 8.13 8.13 0 0 1 5.11-1.49 25.63 25.63 0 0 0 2.77.08 2.94 2.94 0 0 0 2.34-1.28 2 2 0 0 1-1 1.64 3.48 3.48 0 0 1-1.27.39c-1 .17-2 .26-3.05.33a5.87 5.87 0 0 0-2.88.79 4.15 4.15 0 0 0-1.52 2.59 4.58 4.58 0 0 1-.24 1 1 1 0 0 1-.8.63.83.83 0 0 1-.69-.42 2.91 2.91 0 0 1 .09-2.91z"/><path class="cls-5" d="M77.45 65c1.83-2.88 5-2.47 7.93-2.51a4 4 0 0 0 3.43-1.54l-.81-.39c-.56 2.86-5.61 1.59-7.62 2.7a3.88 3.88 0 0 0-1.48 1.5 5.22 5.22 0 0 0-.43 1l-.15.58c-.1 1.19-.38.74-.83-1.34.23-.55-.57-1-.8-.47-.48 1.1-.88 2.73.17 3.67a1.28 1.28 0 0 0 2.08-.45c.54-1 .27-2.32 1.23-3.16 1.4-1.24 3.55-1 5.29-1.26s3.06-.59 3.44-2.49a.47.47 0 0 0-.85-.36c-1.49 2-5.34.72-7.52 1.31a6.3 6.3 0 0 0-3.84 2.74c-.37.47.44.94.76.47z"/><path class="cls-4" d="M87.52 71.72a2.92 2.92 0 0 0 1.72-.81 6.63 6.63 0 0 1 1.24-1.18 3.91 3.91 0 0 1 1.81-.4 14.2 14.2 0 0 0 2.36-.1 3.38 3.38 0 0 0 1.77-.94 4.72 4.72 0 0 0 .76-1.14l.51-1a9.69 9.69 0 0 1-4.78 1.16 22.49 22.49 0 0 0-3.44-.31 6.32 6.32 0 0 0-3 1.37c-.37.26-.72.54-1.07.82s-.73.64-.7 1.08c.03.96 1.9 1.55 2.82 1.45z"/><path class="cls-5" d="M87.64 72.17A5 5 0 0 0 89.76 71a4.37 4.37 0 0 1 2.53-1.24 16.93 16.93 0 0 0 2.36-.09c1.88-.38 2.64-1.71 3.44-3.33a.47.47 0 0 0-.64-.64 10 10 0 0 1-5.35 1 12.15 12.15 0 0 0-2.69-.19 8.13 8.13 0 0 0-4.61 2.59c-1.63 1.92 1 3.09 2.72 3.09a.47.47 0 0 0 0-.94c-.41 0-1.49 0-1.76-.38-.89-1.13.56-1.89 1.25-2.33 1.73-1.09 3.06-1.05 5-.87a11 11 0 0 0 5.88-1.13l-.64-.64c-.78 1.58-1.11 2.53-3.41 2.95-.76.14-1.57-.07-2.34.08-1.77.32-2.39 1.94-4.14 2.34-.55.13-.3 1.03.28.9z"/><path class="cls-6" d="M86.35 70.49c1.43-.37 1.36-1.86 2.55-2.47a3.49 3.49 0 0 1 1.65-.27c1 0 1.9.17 2.85.22a6.62 6.62 0 0 0 2.78-.31 2.45 2.45 0 0 0 1.68-1.76 3.81 3.81 0 0 1-2.19.7 12.83 12.83 0 0 1-3.32-.73 17.54 17.54 0 0 0-2.61-.43 6.71 6.71 0 0 0-1-.06 5.41 5.41 0 0 0-1.14.17 7.33 7.33 0 0 0-2.14.92 3.6 3.6 0 0 0-1.8 2.53 1.14 1.14 0 0 0 .72 1.26 3.25 3.25 0 0 0 1.97.23z"/><path class="cls-5" d="M86.58 70.89c.78-.35 1-.8 1.54-1.31 2.39-2.08 4-.89 6.7-1.17 1.63-.17 3-.78 3.49-2.39a.47.47 0 0 0-.68-.52c-2.55 1.5-5.63-.5-8.39-.56a6.83 6.83 0 0 0-4.73 1.68c-2.37 2.19-1.22 4.48 1.84 4.33.59 0 .6-1 0-.93l-.66-3.14.67-.38a5.1 5.1 0 0 1 2.38-.65 14.65 14.65 0 0 1 4.72.83 5.65 5.65 0 0 0 4.64-.38l-.69-.53c-1.1 3.26-6.09 1-8.23 1.68-1.46.49-1.69 2-3.07 2.64-.54.24-.11 1.04.47.8z"/><path class="cls-7" d="M83.94 66.21a5.14 5.14 0 0 1 1.71-1 11.35 11.35 0 0 1 6.3.05c1.06.28 2.07.7 3.16.89a3.89 3.89 0 0 0 3.06-.56 2.07 2.07 0 0 1-1.58 1.3 4.93 4.93 0 0 1-1.58 0c-1.21-.13-2.4-.33-3.6-.56a8.3 8.3 0 0 0-3.54-.08 4.42 4.42 0 0 0-2.51 2 4.54 4.54 0 0 1-.57.94 1.19 1.19 0 0 1-1.11.36A.91.91 0 0 1 83 69a2.56 2.56 0 0 1 .94-2.79z"/><path class="cls-5" d="M84.17 66.61c3.41-2.4 6.72-.86 10.28-.11a5.06 5.06 0 0 0 4-.48l-.64-.63c-1.53 2.64-6.73 0-9.15.3a4.61 4.61 0 0 0-2.51 1 5.45 5.45 0 0 0-.71.73l-.44.63c-.46 1.12-.69.6-.69-1.55.4-.45-.26-1.11-.66-.66-.82.9-1.89 2.63-.75 3.77a1.59 1.59 0 0 0 2.25-.05c1.55-1.35 2-3.06 4.52-3a44.54 44.54 0 0 1 4.42.68c1.88.25 3.5.37 4.53-1.41a.47.47 0 0 0-.64-.64c-2.56 1.51-5.91-.65-8.63-.83a8.24 8.24 0 0 0-5.61 1.42c-.52.37-.06 1.22.43.83z"/><path class="cls-4" d="M92.9 75.87a2.92 2.92 0 0 0 1.72-.81 7 7 0 0 1 1.24-1.18 3.81 3.81 0 0 1 1.81-.4 14.2 14.2 0 0 0 2.36-.1 3.45 3.45 0 0 0 1.78-.94 5 5 0 0 0 .75-1.14c.18-.34.34-.68.51-1a9.69 9.69 0 0 1-4.78 1.16 22.29 22.29 0 0 0-3.44-.29 6.32 6.32 0 0 0-3 1.37c-.36.26-.72.54-1.06.82s-.74.64-.71 1.08c.03.94 1.92 1.56 2.82 1.43z"/><path class="cls-5" d="M93 76.32a5 5 0 0 0 2.12-1.14 4.31 4.31 0 0 1 2.53-1.24 16.88 16.88 0 0 0 2.36-.09c1.88-.38 2.64-1.71 3.44-3.33a.47.47 0 0 0-.64-.64 10 10 0 0 1-5.34 1 12.28 12.28 0 0 0-2.7-.19 8.16 8.16 0 0 0-4.61 2.56c-1.63 1.92 1 3.09 2.72 3.09a.47.47 0 0 0 0-.94c-.4 0-1.48 0-1.76-.38-.89-1.13.56-1.89 1.26-2.33 1.72-1.09 3.06-1 5-.87a11 11 0 0 0 5.88-1.13l-.63-.64c-.79 1.58-1.12 2.53-3.41 3-.76.14-1.57-.07-2.34.08-1.78.32-2.4 1.94-4.14 2.34-.55.08-.3.98.26.85z"/><path class="cls-6" d="M91.73 74.64c1.43-.37 1.36-1.86 2.56-2.47a3.45 3.45 0 0 1 1.64-.27c.95 0 1.9.17 2.85.22a6.62 6.62 0 0 0 2.78-.31 2.43 2.43 0 0 0 1.68-1.76 3.78 3.78 0 0 1-2.19.7 12.85 12.85 0 0 1-3.31-.75 17.89 17.89 0 0 0-2.62-.43 6.71 6.71 0 0 0-1-.06 5.41 5.41 0 0 0-1.12.19 7.45 7.45 0 0 0-2.14.92A3.6 3.6 0 0 0 89 73.17a1.14 1.14 0 0 0 .72 1.26 3.25 3.25 0 0 0 2.01.21z"/><path class="cls-5" d="M92 75c.77-.35.94-.8 1.53-1.31 2.39-2.08 4-.89 6.7-1.17 1.63-.17 3-.78 3.49-2.39a.47.47 0 0 0-.68-.52c-2.55 1.46-5.64-.49-8.39-.56a6.84 6.84 0 0 0-4.73 1.68c-2.37 2.19-1.21 4.48 1.84 4.33.6 0 .6-.95 0-.93L91.08 71l.66-.38a5.1 5.1 0 0 1 2.38-.62 14.76 14.76 0 0 1 4.73.83 5.63 5.63 0 0 0 4.63-.38l-.69-.53c-1.09 3.26-6.08 1-8.23 1.68-1.45.49-1.68 2-3.06 2.64-.5.24-.08 1.04.5.76z"/><path class="cls-7" d="M89.32 70.36a5.24 5.24 0 0 1 1.71-1 11.35 11.35 0 0 1 6.3 0c1.06.28 2.08.7 3.16.89a3.91 3.91 0 0 0 3.07-.56 2.08 2.08 0 0 1-1.59 1.3 4.93 4.93 0 0 1-1.58 0c-1.21-.13-2.4-.33-3.59-.56a8.3 8.3 0 0 0-3.54-.08 4.41 4.41 0 0 0-2.52 2 4.54 4.54 0 0 1-.57.94 1.19 1.19 0 0 1-1.11.36.88.88 0 0 1-.66-.6 2.54 2.54 0 0 1 .92-2.69z"/><path class="cls-5" d="M89.55 70.76c3.41-2.4 6.73-.86 10.28-.11a5.06 5.06 0 0 0 4-.48l-.63-.63c-1.54 2.64-6.73 0-9.16.3a4.64 4.64 0 0 0-2.51 1 4.84 4.84 0 0 0-.7.73l-.45.63c-.46 1.12-.69.6-.69-1.55.4-.45-.26-1.11-.66-.66-.82.9-1.88 2.63-.75 3.77a1.61 1.61 0 0 0 2.26 0c1.54-1.35 2-3.06 4.52-3a44.34 44.34 0 0 1 4.41.68c1.89.25 3.5.37 4.53-1.41a.47.47 0 0 0-.64-.64c-2.56 1.51-5.91-.65-8.63-.83A8.24 8.24 0 0 0 89.08 70c-.48.3-.02 1.11.47.76z"/><path class="cls-4" d="M97.86 81.26a3.27 3.27 0 0 0 .88-.6c.51-.5.85-1.13 1.32-1.66 1.2-1.37 3-.72 4.55-1a4 4 0 0 0 2.39-1.7 2.22 2.22 0 0 0 .3-.49 3.24 3.24 0 0 0-.14-2.14 5.19 5.19 0 0 1 0 1.18.73.73 0 0 1-.19.33c-.1.1-.26.35-.39.42a7 7 0 0 1-3.74.43 22.31 22.31 0 0 0-3.44-.3 6.46 6.46 0 0 0-3 1.37l-1.06.82c-.71.58-1.5 1.5-1 2.47a2.08 2.08 0 0 0 1.15 1 3.15 3.15 0 0 0 2.37-.13z"/><path class="cls-5" d="M98.09 81.66c1.06-.59 1.42-1.59 2.3-2.34 1.52-1.3 3.47-.41 5.13-1.16a3.61 3.61 0 0 0 2.1-4.61c-.13-.5-1-.42-.91.12.24 3.26-4.9 1.53-6.85 1.59A7.94 7.94 0 0 0 95 77.59c-2.75 2.51-.13 5.09 3 4.12.57-.18.33-1.08-.25-.9-2.5-1.35-2.86-2.46-1.09-3.3l.68-.47c1.62-1 2.76-.84 4.57-.65a12.56 12.56 0 0 0 3.41.09c1.79-.3 2.47-1 2.34-2.81l-.92.12c1.22 4.53-3.48 3.21-5.69 4-1.55.58-2 2.25-3.41 3-.54.36-.07 1.21.45.87z"/><path class="cls-6" d="M96.31 79.22c1.44-.37 1.37-1.85 2.56-2.47a3.36 3.36 0 0 1 1.65-.26c1 0 1.89.16 2.84.22s2.35.16 3.2-.52a2 2 0 0 0 .73-1.29 3.81 3.81 0 0 0-.17-1.25 3.14 3.14 0 0 1 0 .75 1.1 1.1 0 0 1-.31.67c-.5.47-1.49.28-2.1.18-.81-.14-1.6-.43-2.4-.64a17.56 17.56 0 0 0-2.61-.44c-.34 0-.67-.06-1-.06a5.42 5.42 0 0 0-1.14.18 6.73 6.73 0 0 0-2.14.92 3.57 3.57 0 0 0-1.8 2.55 1.13 1.13 0 0 0 .72 1.24 3.27 3.27 0 0 0 1.97.22z"/><path class="cls-5" d="M96.55 79.62c1.49-.66 2.26-2.23 4-2.67 1.5-.38 3.32.53 4.9.19 1.92-.41 2.56-1.8 2.15-3.61a.47.47 0 0 0-.92.12c0 1.11-1.09 1.18-1.8 1.15a9.62 9.62 0 0 1-2-.53 16.57 16.57 0 0 0-3.13-.56 6.9 6.9 0 0 0-5.19 1.61c-2.41 2.18-1.3 4.51 1.79 4.37.6 0 .6-1 0-.93-1.43-1.69-1.53-2.76-.35-3.34a5.74 5.74 0 0 1 1.7-.69 9 9 0 0 1 3.65.14 36.16 36.16 0 0 0 3.83.92c1.64.14 2.45-.44 2.41-2.14l-.91.12c.88 3.88-5.81 2-7.13 2.3-1.78.43-1.88 2.05-3.46 2.75-.56.24-.09 1.05.46.8z"/><path class="cls-7" d="M93.9 74.94a5 5 0 0 1 1.71-1 11.2 11.2 0 0 1 6.31 0 16.26 16.26 0 0 0 3.78.89 1.11 1.11 0 0 0 1-.46 1.16 1.16 0 0 0 .2-.78 1.21 1.21 0 0 0-.28-.89c.08-.07.2 0 .27.07a1.88 1.88 0 0 1 .55 1.8c-.32 1.19-1.52 1.1-2.49 1-1.21-.13-2.41-.34-3.6-.56a8.3 8.3 0 0 0-3.51-.01 4.49 4.49 0 0 0-2.51 2 4.33 4.33 0 0 1-.58.94 1.18 1.18 0 0 1-1.1.37 1 1 0 0 1-.67-.6 2.57 2.57 0 0 1 .92-2.77z"/><path class="cls-5" d="M94.14 75.34c2.3-1.61 5-1.51 7.65-.86 1.24.3 2.72 1.09 4 .89a1.78 1.78 0 0 0 1.23-2.82l-.52.69c.06 1.49-.36 2.15-1.25 2-.38 0-.76-.08-1.14-.14-.89-.12-1.76-.29-2.64-.43a11 11 0 0 0-2.92-.23 4.68 4.68 0 0 0-2.5 1 4.89 4.89 0 0 0-.71.73l-.44.64c-.46 1.12-.7.6-.7-1.56.41-.44-.25-1.1-.66-.66-.9 1-2.12 3.43-.16 4.16A1.59 1.59 0 0 0 95 78.4c.21-.16.29-.43.48-.62 1.9-1.78 2.38-2.58 5-2.34 1.74.16 5.59 1.73 7.08.12.85-.91.53-2.9-.73-3.22a.47.47 0 0 0-.53.68c1.11 2-4.89.39-5.1.35a13.89 13.89 0 0 0-2.41-.27 8 8 0 0 0-5.07 1.44c-.54.34-.07 1.15.42.8z"/><path class="cls-4" d="M101.85 119.25a7.86 7.86 0 0 0 2.59-.38c1.64-.59 3-2 4.71-2.39 1.93-.5 3.16.6 4.76 1.63a7.19 7.19 0 0 0 3.44 1 5.11 5.11 0 0 0 2.76-.41 5.59 5.59 0 0 0 2.45-3 19.28 19.28 0 0 0 1-4.1 7.43 7.43 0 0 1-8.62 3.25c-1.24-.45-2.06-1.47-3.17-2.15a6.23 6.23 0 0 0-4.3-.38 15.92 15.92 0 0 0-2.35.52c-.42.14-.83.32-1.24.5a14.39 14.39 0 0 0-2.67 1.38c-.38.28-.72.62-1.12.87a2.66 2.66 0 0 0-.91 1c-1.31 2.25 1.32 2.66 2.67 2.66z"/><path class="cls-5" d="M101.85 119.72c2.45-.1 3.8-1.07 5.93-2.15 3.29-1.67 5.57 1.43 8.68 1.92 5.26.82 6.78-3.38 7.51-7.78a.47.47 0 0 0-.85-.36c-1.87 2.58-4.92 4.18-8.08 3-1.64-.64-2.67-2.13-4.42-2.54-2.56-.58-5.64.43-7.93 1.55-1.48.72-4.66 2.34-4.34 4.49.24 1.62 2.17 1.86 3.5 1.91.6 0 .59-.91 0-.93a3.5 3.5 0 0 1-1.46-.18c-2.29-1.6.42-3 1.22-3.59a12.94 12.94 0 0 1 4-1.86c1.81-.53 4.15-.93 5.9-.08 1.2.58 2 1.68 3.23 2.18 3.53 1.38 7.14-.59 9.2-3.44l-.85-.36c-.53 3.21-1.14 7-5.25 7.2-2.53.15-3.93-1.54-6-2.39-3.52-1.41-6.48 2.38-9.93 2.52-.66-.02-.66.91-.06.89z"/><path class="cls-6" d="M100.6 116.93a6.24 6.24 0 0 0 5.07-1.22c1.29-.85 2.78-2 4.33-2.07s2.47 1.06 3.61 1.81a7.59 7.59 0 0 0 4.1 1.3 5.53 5.53 0 0 0 4.07-1.56 11.51 11.51 0 0 0 2.22-4.39c-1.71 1.49-3.75 2.72-5.88 2.51-2.84-.28-5.05-3-7.75-4.08a8.33 8.33 0 0 0-5.53-.13 13.41 13.41 0 0 0-4.11 2.16 4.51 4.51 0 0 0-1.65 3.65 1.84 1.84 0 0 0 1.52 2.02z"/><path class="cls-5" d="M100.47 117.38a7.79 7.79 0 0 0 5.83-1.54c.77-.49 2-1.52 2.9-1.6a6.82 6.82 0 0 1 3.49 1.13A12.18 12.18 0 0 0 116 117c4.69 1.13 7.09-2.08 8.49-6 .17-.48-.45-.72-.78-.46-2.46 2-5.11 3.09-8.11 1.41-1.44-.8-2.68-1.93-4.16-2.69a9.09 9.09 0 0 0-7.55-.23c-2 .76-4.19 2-4.92 4.1-.62 1.81-.45 3.49 1.4 4.27.55.23 1-.57.47-.8-3.35-1.42.31-5 1.74-5.91a9.53 9.53 0 0 1 5.08-1.46c3.06.06 5 2.11 7.47 3.53 3.42 2 6.36.8 9.24-1.56l-.78-.45c-1.26 3.59-3.67 6.6-7.87 5.28-1.66-.53-2.81-1.94-4.41-2.52-3.81-1.36-6.55 3.66-10.58 3-.59-.12-.85.78-.26.87z"/><path class="cls-7" d="M107.37 107.31a8.62 8.62 0 0 1 5.21 1.44c1.07.81 1.88 1.86 2.88 2.77a4.86 4.86 0 0 0 3.28 1.15 7.25 7.25 0 0 0 6.41-3 7.8 7.8 0 0 1-7.09 5.58c-3.54.24-5.64-4.16-9.07-4.46a7.68 7.68 0 0 0-5.49 1.67c-1 .75-1.73 2.14-2.79 2.63a1.41 1.41 0 0 1-1.7-.3c-1.71-2.1 2.89-5.69 4.17-6.43a8.72 8.72 0 0 1 4.19-1.05z"/><path class="cls-5" d="M107.37 107.77c3.52.09 5 1.56 7.4 3.73a5.51 5.51 0 0 0 3.09 1.55 8 8 0 0 0 7.62-3l-.78-.45a7.43 7.43 0 0 1-5.25 5c-2.26.61-3.91-.33-5.64-1.66-2-1.52-3.65-2.79-6.27-2.54a7.88 7.88 0 0 0-4.92 2.29c-1 .93-.62 1.47-2.12.57s-.92-1 0-2.06a13 13 0 0 1 1.43-1.34 9.08 9.08 0 0 1 5.41-2.09c.6 0 .6-1 0-.93a10.76 10.76 0 0 0-8.73 5.33c-1.18 2.3.6 4.58 3 3 1.12-.78 1.77-2.06 3-2.79a6.39 6.39 0 0 1 6.87 0c1.81 1.11 3.24 2.93 5.42 3.36 3.91.77 7.6-2.3 8.75-5.82.14-.42-.48-.82-.78-.45a7 7 0 0 1-5.29 2.82c-2.7.13-4-1.51-5.86-3.14a9.21 9.21 0 0 0-6.3-2.23.47.47 0 0 0-.05.85z"/><path class="cls-8" d="M71.05 127.22c-1 2-2.53 5-1.48 6.79 1 1.6 3.13.37 4.05-.61a12.94 12.94 0 0 0 1.83-2.81c2-3.6 5.19-5.13 8.74-6.85 2.08-1 4.38-2.67 4.37-5.23 0-5.16-7.11-5.74-10.58-3.89-2 1.08-2.85 3.38-3.75 5.33s-1.81 4.24-2.75 6.36c-.12.27-.26.58-.43.91z"/><path class="cls-9" d="M73.62 133.4a8.58 8.58 0 0 0 1.22-1.71 1.07 1.07 0 0 0-.39-.32 1.57 1.57 0 0 0-1.35.18c.26-.12-.2-.81-.3-.9a1.65 1.65 0 0 0-1-.43c-.17 0-.89.24-.76.54-.09-.21 0-.45-.13-.65a.71.71 0 0 0-.4-.36 1 1 0 0 0-.59-.09c-.63 1.57-1 3.22-.35 4.35.95 1.6 3.13.37 4.05-.61z"/><g class="cls-10"><path class="cls-11" d="M84.27 113.92a4.44 4.44 0 0 1 1 2.33c.34 2.53-1.72 4.48-3.65 5.75-3.29 2.18-6.29 4.13-7.76 7.95a12.78 12.78 0 0 1-1.44 3 4.44 4.44 0 0 1-2.33 1.69c1.07.42 2.57-.5 3.3-1.27a13.28 13.28 0 0 0 1.82-2.81c2-3.6 5.19-5.13 8.74-6.85 2.08-1 4.38-2.67 4.38-5.23s-1.82-4.01-4.06-4.56z"/></g><path class="cls-5" d="M70.65 127c-.91 1.86-2.89 5.17-1.49 7.25 1.09 1.61 3.06.95 4.33-.08a12.21 12.21 0 0 0 2.36-3.33 14 14 0 0 1 5.42-5.09c2.49-1.41 5.79-2.34 7.2-5.07 2.34-4.53-2.44-7.54-6.42-7.47-7.47.13-8.78 8.25-11.4 13.79-.26.54.55 1 .8.47 1.82-3.85 3.31-11.12 7.68-12.83 4-1.57 12.06 1 7.89 6.47-2.4 3.12-7.25 3.78-10 6.67-1.36 1.39-2 3.18-3.21 4.68a3.89 3.89 0 0 1-1.41 1.38c-2.35 0-3.18-.86-2.47-2.59a18.07 18.07 0 0 1 1.57-3.78c.21-.55-.59-1.02-.85-.47z"/><path class="cls-8" d="M80.22 98.77q-.34.11-.69.18c-2.16.47-6.1 1.06-8-.48a3.6 3.6 0 0 1-.94-3.79 4.17 4.17 0 0 1 2.72-2.32c2.82-1.12 6.23-1.77 9-.14a3.16 3.16 0 0 1 1.48 3.47c-.37 1.69-1.98 2.62-3.57 3.08z"/><g class="cls-10"><path class="cls-11" d="M80.32 98.77l-.7.18c-2.16.47-6.09 1.06-8-.48a3.59 3.59 0 0 1-1-3.79 4.21 4.21 0 0 1 2.72-2.32c2.82-1.12 6.23-1.77 9-.14a3.16 3.16 0 0 1 1.48 3.47c-.31 1.69-1.92 2.62-3.5 3.08z"/></g><path class="cls-8" d="M80.68 66.83a9.27 9.27 0 0 0-4.61 1.36c-3.66 1.82-2.29 5.38-.56 8.13 1.28 2 2.89 3.84 4 6a21.76 21.76 0 0 1 2.23 7 23.21 23.21 0 0 1-2.35 14.85c-2.39 4.27-5.13 9-3.17 14 1.63 4.15 5.64 6.39 9.95 6.69 10 .71 16.17-7.51 18-16.47C107.2 93 96.63 75 83.28 67.64a6 6 0 0 0-2.6-.81z"/><g class="cls-10"><path class="cls-11" d="M90.42 122c-4.15 1.16-9.52-1.52-11.14-5.68-2-5 .78-9.74 3.17-14a23.21 23.21 0 0 0 2.35-14.84 21.76 21.76 0 0 0-2.23-7c-1.15-2.11-2.76-3.93-4-6-1.45-2.29-2.63-5.15-.87-7.09-.51.21-1 .46-1.59.73-3.65 1.82-2.29 5.38-.55 8.13 1.28 2 2.89 3.84 4 6a22.26 22.26 0 0 1 2.23 7 23.21 23.21 0 0 1-2.35 14.85c-2.39 4.27-5.13 9-3.18 14 1.63 4.15 5.65 6.39 9.95 6.69a14.7 14.7 0 0 0 10.17-3c-2.38-.99-3.47-.48-5.96.21z"/></g><path class="cls-5" d="M80.68 66.36c-3.38.1-7.84 2-7.33 6A13.07 13.07 0 0 0 76 77.83c2.14 3.06 4.07 5.77 5 9.49a24.83 24.83 0 0 1 .19 11c-.82 3.8-3 6.84-4.56 10.34-1.83 4.27-2.1 9.07 1.14 12.75 6.11 6.91 17.14 4.09 22.25-2.41 6.19-7.86 6.28-18.82 3.1-27.91a46.18 46.18 0 0 0-8.76-15c-3.24-3.71-8.37-9-13.48-9.71-.59-.09-.84.81-.25.9 4.22.6 8.38 4.59 11.25 7.5a45.84 45.84 0 0 1 7.87 10.83c4.11 7.84 6 17.23 3.19 25.82S91 127.77 81.55 123.12c-6.55-3.23-6.11-10.3-3.25-16 2-3.93 3.8-7.31 4.18-11.79a23.84 23.84 0 0 0-3-14.21c-1.26-2.08-2.94-3.9-4.09-6.05-.83-1.55-1.39-2.91-.7-4.58.89-2.18 3.78-3.16 6-3.23.59.01.59-.92-.01-.9z"/><path class="cls-8" d="M89.5 83.55c6.33-7-3.77-14.56-10.16-15.44a7 7 0 0 0-3.31.2c-2.54.93-2.54 4.11-2.5 6.41 0 2.69.34 5.36.63 8 .45 4.09.58 7.91 2.16 11.78a7.41 7.41 0 0 0 2.77 3.79c2.59 1.54 6.13-.19 7.61-2.82s1.46-5.82 1.42-8.83a4.13 4.13 0 0 1 .2-1.61 5.67 5.67 0 0 1 1.18-1.48z"/><g class="cls-10"><path class="cls-11" d="M75.91 70.93a9.36 9.36 0 0 1 4.62-1.37 6.14 6.14 0 0 1 2.6.82c11.4 6.27 20.77 20.28 21.37 33.82.65-14.35-9.2-29.87-21.37-36.56a6 6 0 0 0-2.6-.81 9.33 9.33 0 0 0-4.62 1.36 3.78 3.78 0 0 0-2.09 4.87 3.94 3.94 0 0 1 2.09-2.13z"/></g><g class="cls-10"><path class="cls-11" d="M88.5 84.41a5.82 5.82 0 0 0-1.5 1.21 4.2 4.2 0 0 0-.55 1.52c-.64 3-1.34 6-3.36 8.28a7 7 0 0 1-4.8 2.23 4.79 4.79 0 0 0 .87.67c2.6 1.54 6.13-.19 7.61-2.82s1.46-5.82 1.42-8.83a4.33 4.33 0 0 1 .2-1.61 5.88 5.88 0 0 1 1.18-1.51l.11-.12a9.14 9.14 0 0 1-1.18.98z"/></g><g class="cls-10"><path class="cls-11" d="M73.86 79.09c.27-2.3.57-4.6 1.06-6.87a12.49 12.49 0 0 1 1.34-4h-.14c-2.54.93-2.55 4.11-2.51 6.41.02 1.55.12 3.01.25 4.46z"/></g><path class="cls-5" d="M75.8 67.91c-4.2 2.09-2.72 8.89-2.35 12.55.53 5.31.3 13.12 4.24 17.28 2.77 2.93 7.19 1.4 9.19-1.66 1.41-2.17 1.65-4.86 1.71-7.39a10.42 10.42 0 0 1 2-5.69 9.4 9.4 0 0 0 1.36-3.25c.12-.58-.78-.83-.89-.24-.47 2.34-2.28 3.31-3.09 5.32-.48 1.19-.23 2.63-.26 3.86-.06 2.49-.27 5.14-1.82 7.19-2.43 3.22-6.32 3.38-8.5-.27-2.42-4-2.36-9.47-2.84-14-.36-3.38-2.07-11 1.77-12.9.54-.26.06-1.07-.47-.8z"/><path class="cls-8" d="M116.43 75.92a7.87 7.87 0 0 1 1.81.3 2.43 2.43 0 0 1 1 .53c1 .92.19 2.71-.66 3.41a10.26 10.26 0 0 1-3.47 1.49c-3.08 1-5.65 3-8.21 4.94-2.13 1.59-5.92 5-8.8 4.59-2.26-.34-2.85-3-2.48-4.92.67-3.43 3.53-5.38 6.54-6.69a47.83 47.83 0 0 1 7.84-2.72 22.49 22.49 0 0 1 6.43-.93z"/><path class="cls-9" d="M119.26 76.74a2.45 2.45 0 0 0-1-.54 8.45 8.45 0 0 0-1.81-.3 13.52 13.52 0 0 0-2.83.16v.2c.1.51.62.81 1.09 1-.28-.14-.56.73-.57.88a1.75 1.75 0 0 0 .31 1.15c.11.15.81.6 1 .28-.11.22-.35.34-.47.56a.86.86 0 0 0 0 .59 1.06 1.06 0 0 0 .6.74 8.57 8.57 0 0 0 3.07-1.35c.8-.67 1.58-2.46.61-3.37z"/><g class="cls-10"><path class="cls-11" d="M101.12 90.58a35.43 35.43 0 0 0 5.8-4c2.56-1.92 5.13-3.93 8.22-4.94a10.29 10.29 0 0 0 3.46-1.49c.77-.63 1.48-2.16.89-3.13a3.32 3.32 0 0 1-.89 1.27 10.29 10.29 0 0 1-3.46 1.49c-3.09 1-5.66 3-8.22 4.94-1.6 1.19-4.13 3.43-6.51 4.28"/></g><path class="cls-8" d="M83.71 85a3.06 3.06 0 0 1 2.4.26c4.2 2.82-6.74 9.88-8.68 11.47a10.9 10.9 0 0 1-2.49 1.68 3.7 3.7 0 0 1-2.94.09 3.52 3.52 0 0 1-1.76-3.74c.31-2.24 2.44-3.68 4.13-4.9 2.72-1.97 6.01-4.18 9.34-4.86z"/><path class="cls-9" d="M86.11 85.22a3.06 3.06 0 0 0-2.4-.26 15.94 15.94 0 0 0-3.59 1.29 1.15 1.15 0 0 0 .19.7 1.7 1.7 0 0 0 1.37.6c-.31 0-.27.88-.23 1a1.84 1.84 0 0 0 .69 1c.17.1 1 .28 1-.07 0 .24-.22.44-.25.68a.81.81 0 0 0 .18.57 1.13 1.13 0 0 0 1.19.48c2.36-2.21 3.89-4.63 1.85-5.99z"/><g class="cls-10"><path class="cls-11" d="M86.12 85.22h-.09c1.71 3.17-7.64 9.23-9.42 10.69a10.9 10.9 0 0 1-2.49 1.68 3.7 3.7 0 0 1-2.93.13 3.07 3.07 0 0 1-.36-.2 2.78 2.78 0 0 0 1.19 1 3.7 3.7 0 0 0 2.98-.15 10.9 10.9 0 0 0 2.49-1.68c1.89-1.59 12.83-8.69 8.63-11.47z"/></g><path class="cls-8" d="M73.87 70.53a10.58 10.58 0 0 0-2.63-.77 3.7 3.7 0 0 0-2.62.57.87.87 0 0 0-.33.38.9.9 0 0 0 0 .43 3.52 3.52 0 0 0 .93 1.75 5.44 5.44 0 0 0 2.19 1.57 3.36 3.36 0 0 0 2.59-.11"/><path class="cls-5" d="M74 70.08a7.19 7.19 0 0 0-4.59-.65c-1 .3-1.8.89-1.55 2a4.94 4.94 0 0 0 6.41 3.33c.54-.24.07-1-.47-.8a4 4 0 0 1-4.9-2.36c-.68-2.42 3.91-1 4.85-.61.56.21.8-.69.25-.9z"/><path class="cls-12" d="M73.33 71.59a6.39 6.39 0 0 1 .81.35.47.47 0 0 1 .27.3 1.34 1.34 0 0 1 0 .84.28.28 0 0 1-.07.13.44.44 0 0 1-.16.1 1.63 1.63 0 0 1-.76 0 3.15 3.15 0 0 1-.73-.25 2.75 2.75 0 0 1-.8-.54c-.2-.22-.46-.65-.34-1 0-.16.28-.12.42-.12h.64a3.49 3.49 0 0 1 .72.19z"/><path class="cls-5" d="M74.16 72.82a3.4 3.4 0 0 1-1.23-.08c-.37-.12-1-.5-.94-1s-.76-.83-.9-.24a1.67 1.67 0 0 0 .91 1.82 3.35 3.35 0 0 0 2.13.43c.59 0 .6-1 0-.93z"/><path class="cls-5" d="M74.38 71.51a4.51 4.51 0 0 0-4.73.21c-.49.33 0 1.14.47.8a3.58 3.58 0 0 1 3.79-.2c.53.28 1-.52.47-.81z"/><path class="cls-9" d="M78.47 72c1.06-1.83-.08-5.6-2.6-5.46a3.39 3.39 0 0 0-2.87 4.2c.7 2.26 4.11 3.59 5.46 1.26z"/><path class="cls-13" d="M79 72.21a4.58 4.58 0 0 0-.9-3.57 5 5 0 0 0-3.65-1.73c-.79-.1-.78 1.14 0 1.24a3.74 3.74 0 0 1 2.62 1.18 3.28 3.28 0 0 1 .73 2.55c-.13.79 1.07 1.12 1.2.33z"/><path class="cls-5" d="M78.87 72.22a4.76 4.76 0 0 0-.74-5.22 3.15 3.15 0 0 0-4.9.55 3.72 3.72 0 0 0 .84 5.29c1.53 1.12 3.77 1.12 4.8-.65a.46.46 0 0 0-.8-.47c-.8 1.39-2.55 1.13-3.63.23a2.8 2.8 0 0 1-.26-4.11c2.5-2.78 5.13 1.5 3.89 3.88-.28.56.53 1.03.8.5z"/><path class="cls-9" d="M75.27 70.53c.61-1.53-.26-4.8-1.88-4.78-1.25 0-2.1 1.92-1.68 3.5.52 2 2.76 3.24 3.55 1.3z"/><path class="cls-13" d="M75.53 71a3.78 3.78 0 0 0-.36-3.57 3.69 3.69 0 0 0-3.25-1.36.62.62 0 0 0 0 1.24 2.47 2.47 0 0 1 2.3.93 2.67 2.67 0 0 1 .11 2.43c-.3.74.9 1.06 1.2.33z"/><path class="cls-5" d="M75.72 70.64a5.08 5.08 0 0 0-.72-4.51 1.91 1.91 0 0 0-3.31.32 3.91 3.91 0 0 0 .88 4.89 1.92 1.92 0 0 0 3.2-.7c.22-.55-.68-.8-.9-.25-.52 1.3-1.86.27-2.32-.48a2.86 2.86 0 0 1 .29-3.44c1-.84 1.71.51 2 1.3a4.13 4.13 0 0 1 .07 2.62c-.29.61.61.81.81.25z"/><path class="cls-9" d="M72.88 68.25c.13-1.48-1.27-4.33-2.5-4.09-.95.2-1.17 2-.49 3.41.83 1.7 2.83 2.56 3 .69z"/><path class="cls-13" d="M69.63 65.43a3 3 0 0 1 1.71 1.36c.23.37.82 1.45.46 1.89-.51.61.36 1.49.88.88 1.51-1.83-.88-4.86-2.72-5.33a.62.62 0 0 0-.33 1.2z"/><path class="cls-5" d="M73.35 68.23a5.5 5.5 0 0 0-1.66-4c-1.07-1-2.34-.4-2.6 1A4.23 4.23 0 0 0 71 69.44a1.47 1.47 0 0 0 2.39-1.21c.05-.59-.88-.59-.93 0-.1 1.13-1.2.34-1.61-.13a3.15 3.15 0 0 1-.72-3c.45-1.08 1.35.21 1.65.73a4.71 4.71 0 0 1 .68 2.45c-.07.55.86.55.89-.05z"/><path class="cls-9" d="M70.36 66.21c0-1.22-1.45-3.34-2.48-3-.81.29-.85 1.81-.15 2.84.85 1.26 2.64 1.68 2.63.14z"/><path class="cls-13" d="M67.34 64.26c1.55.14 1.9 1.37 1.79 2.75-.06.79 1.18.79 1.24 0a4 4 0 0 0-.69-2.92A3.29 3.29 0 0 0 67.34 63c-.8-.07-.79 1.17 0 1.24z"/><path class="cls-5" d="M70.83 66.19A4.32 4.32 0 0 0 69 63a1.41 1.41 0 0 0-2.22 1.21 3.31 3.31 0 0 0 1.88 3.25 1.41 1.41 0 0 0 2.16-1.27.47.47 0 0 0-.94 0c0 .81-.78.52-1.21.2a2.38 2.38 0 0 1-1-2.19c.15-.88.82-.47 1.22 0a3.43 3.43 0 0 1 1 2c.03.59.96.59.94-.01z"/><path class="cls-9" d="M68.45 64.66c-.23-1-1.72-2.85-2.44-2.53s-.33 1.54.39 2.42c.88 1.08 2.34 1.43 2 .12z"/><path class="cls-13" d="M66 63.2a2.43 2.43 0 0 1 1.3 2.18c-.07.79 1.18.79 1.25 0a3.7 3.7 0 0 0-1.93-3.25c-.66-.45-1.28.62-.62 1.07z"/><path class="cls-5" d="M68.9 64.52a4.76 4.76 0 0 0-1.9-2.63 1.08 1.08 0 0 0-1.77 1 3.56 3.56 0 0 0 2.06 2.9c1 .43 1.85-.17 1.61-1.28-.13-.59-1-.34-.9.24 0 .25.08.29-.09.27a1.73 1.73 0 0 1-.79-.42c-.46-.39-1.11-1.27-1-1.93 0-.18 0-.16.2-.09a2.17 2.17 0 0 1 .68.56 3.85 3.85 0 0 1 1 1.61.47.47 0 0 0 .9-.23z"/><path class="cls-9" d="M66.67 62.69c-.37-.81-1.92-2-2.48-1.57s0 1.37.74 1.94c.92.7 2.2.68 1.74-.36z"/><path class="cls-13" d="M63.78 61.75c.65.29 1.5.87 1.59 1.65a.63.63 0 0 0 .63.6.64.64 0 0 0 .62-.62 3.56 3.56 0 0 0-2.2-2.72.64.64 0 0 0-.85.22.62.62 0 0 0 .22.85z"/><path class="cls-5" d="M67.07 62.44a3.81 3.81 0 0 0-2.14-1.82A1 1 0 0 0 63.62 62 2.94 2.94 0 0 0 66 64a1 1 0 0 0 1.1-1.53c-.24-.55-1-.07-.8.47.07.18.07.15-.1.15a1.41 1.41 0 0 1-.66-.2 1.83 1.83 0 0 1-1-1.3v-.07c0 .06.12 0 .16 0a2.61 2.61 0 0 1 .67.33 3 3 0 0 1 1 1.09c.16.51.96.06.7-.5z"/><path class="cls-8" d="M110.3 129.77c.49 1.57 1.07 4-.08 5.42-1.8 2.24-4.43-.11-5.74-1.56a31.23 31.23 0 0 0-6.24-5.4c-2.54-1.65-6.72-3.16-7.82-6.21a5.23 5.23 0 0 1 1.71-5.94 4.72 4.72 0 0 1 2.49-.72c7-.26 12.78 7.49 15.26 13.28.12.36.28.71.42 1.13z"/><path class="cls-9" d="M108.73 129.06a1.74 1.74 0 0 0-.66 1.35c.05-.31-.86-.31-1-.27a1.83 1.83 0 0 0-1 .65c-.1.16-.31 1 0 1-.23 0-.43-.23-.66-.27a.84.84 0 0 0-.59.15c-.65.41-.64 1.14-.35 1.89h.05c1.31 1.45 3.93 3.8 5.74 1.56 1.15-1.43.57-3.85.08-5.42l-.12-.35a1.11 1.11 0 0 0-1.49-.29z"/><g class="cls-10"><path class="cls-11" d="M90.43 122c1.1 3 5.28 4.56 7.83 6.21a31.45 31.45 0 0 1 6.23 5.4c1.31 1.45 3.94 3.8 5.75 1.56a2.6 2.6 0 0 0 .46-.87c-1.76 1.29-4-.76-5.21-2.08a31.78 31.78 0 0 0-6.23-5.4c-2.28-1.48-5.86-2.84-7.38-5.29"/></g><path class="cls-4" d="M74.92 77.22a2 2 0 0 1-1.31.3 5.33 5.33 0 0 0-1.26-.11 2.3 2.3 0 0 0-1.13.57A7.9 7.9 0 0 1 70 79a2.26 2.26 0 0 1-1.4.25 4.53 4.53 0 0 1-1-.31l-.81-.35a6 6 0 0 0 3-1.47 11.92 11.92 0 0 1 1.55-1.69 4.21 4.21 0 0 1 2.26-.57h1a1.25 1.25 0 0 1 .94.3c.46.54-.11 1.71-.62 2.06z"/><path class="cls-5" d="M74.68 76.82c-1.09.55-2.27-.14-3.35.51a7.69 7.69 0 0 0-.83.68c-1.32 1-2.1.77-3.49.16l-.11.83a6.66 6.66 0 0 0 3.68-2.11 3.74 3.74 0 0 1 2.56-1.58 3.86 3.86 0 0 1 1 0c.47-.15.71 0 .7.56.35.43.28.77-.21 1s.21 1.06.65.66c1.63-1.49 1-3.18-1.14-3.19a5.3 5.3 0 0 0-3 .68 8.48 8.48 0 0 0-1.29 1.39 5.89 5.89 0 0 1-3.13 1.69c-.36.09-.49.69-.11.85 1.21.53 2.4 1.08 3.69.41a5.51 5.51 0 0 0 .73-.54 3.53 3.53 0 0 1 2.46-.82 3.43 3.43 0 0 0 1.66-.35c.54-.3.06-1.1-.47-.83z"/><path class="cls-6" d="M74.82 76c-.91.43-1.7-.45-2.63-.27a2.09 2.09 0 0 0-1 .59c-.46.43-.85.93-1.3 1.39a4 4 0 0 1-1.55 1.06 2 2 0 0 1-1.81-.26 2.32 2.32 0 0 0 1.47-.57 7.17 7.17 0 0 0 1.26-1.89 11.13 11.13 0 0 1 1.07-1.41 3.41 3.41 0 0 1 .46-.47 2.87 2.87 0 0 1 .67-.41 4.53 4.53 0 0 1 1.57-.43 3.07 3.07 0 0 1 2.3.64.9.9 0 0 1 .33 1 1.86 1.86 0 0 1-.84 1.03z"/><path class="cls-5" d="M74.7 75.55c-1.21.31-2.08-.66-3.27 0-1.41.79-2.48 3.81-4.64 2.56l-.11.85a3.56 3.56 0 0 0 2.73-2.18 7.2 7.2 0 0 1 2-2.44 3.46 3.46 0 0 1 1.72-.52 1.56 1.56 0 0 1 1 .12c.9 0 1 .58.45 1.66-.49.33 0 1.14.47.8 2-1.35.87-3.32-1.26-3.52a4.64 4.64 0 0 0-3.26.92c-1.49 1.19-2.1 4-4.11 4.26-.41.06-.42.67-.11.85a2.85 2.85 0 0 0 3.4-.4c1-.82 1.67-2.36 3.24-2.24.78 0 1.17.39 2 .18a.47.47 0 0 0-.25-.9z"/><path class="cls-7" d="M73.67 72.5a3.41 3.41 0 0 0-1.38.21 6.48 6.48 0 0 0-3.11 2.83c-.38.63-.66 1.32-1.1 1.91a2.36 2.36 0 0 1-1.83 1 1.61 1.61 0 0 0 1.51 0 2.89 2.89 0 0 0 .78-.7c.53-.61 1-1.26 1.49-1.92a4.69 4.69 0 0 1 1.72-1.62 3.31 3.31 0 0 1 2.38 0 3.77 3.77 0 0 0 .8.27.74.74 0 0 0 .75-.28.61.61 0 0 0 0-.64 2.32 2.32 0 0 0-2.01-1.06z"/><path class="cls-5" d="M73.67 72a5.09 5.09 0 0 0-3.5 1.49c-1.29 1.22-2.08 4.26-3.92 4.5a.47.47 0 0 0-.12.91c1.39.52 2.26-.19 3.13-1.25a18 18 0 0 1 1.86-2.37c1.71-1.47 2.17-.32 3.75-.25.71 0 1.38-.34 1.36-1.12 0-1.19-1.47-1.76-2.43-1.9-.59-.08-.84.82-.25.9a.64.64 0 0 1 .79.58c.46.54.44.66-.09.36a5.84 5.84 0 0 1-.94-.23 3.33 3.33 0 0 0-1.74.21c-1.65.71-3.19 4.92-5.2 4.18l-.12.91c3.62-.48 3.28-5.93 7.42-6a.47.47 0 0 0 0-.92zM97.9 82.9c2.69-2.58 6.41-3.88 9.91-5a39.37 39.37 0 0 1 5.45-1.33 14 14 0 0 1 3.17-.22l1.68.29c.74 2.26.28 3.57-1.36 3.93-2.73 1.37-5.36 2.15-7.92 4s-4.9 3.94-7.65 5.45c-.52.28-.05 1.09.47.8 4.77-2.61 8.42-6.86 13.61-8.75 1.91-.69 6.39-2.26 4.6-5.25-1.62-2.71-7.21-1.12-9.51-.56-4.52 1.1-9.67 2.67-13.1 6-.44.42.22 1.08.65.66zM77.17 97.5c3.25-2.59 7.48-4.92 9.61-8.61.61-1.06 1-2.31.28-3.41-1.45-2.08-4.7-.73-6.44 0-3.62 1.6-13 6.41-10.62 11.85 1.71 3.89 7.14 2.46 10.29 1.91.59-.1.34-1-.25-.9-2.56.45-5.93 1.61-8.15-.2-5.55-4.54 8.39-12.29 11.82-12.65 6.2-.66.22 5.46-1.45 6.89-1.84 1.59-3.85 3-5.75 4.46-.47.37.19 1 .66.66zM80.18 80.49a2 2 0 0 0 2.4 1.63 2.83 2.83 0 0 0 2.32-2.37c.1-.58-.8-.84-.89-.24a2 2 0 0 1-1.26 1.61 1.16 1.16 0 0 1-1.68-.88c-.1-.59-1-.34-.89.25z"/><path class="cls-5" d="M81.09 81.43l-.4 1A.47.47 0 0 0 81 83a.5.5 0 0 0 .58-.33l.4-1a.46.46 0 0 0-.32-.57.48.48 0 0 0-.58.32zM82.22 81.82l.11.78a.47.47 0 0 0 .57.32.48.48 0 0 0 .33-.57l-.11-.78a.47.47 0 0 0-.9.25zM83.32 81.3l.46.84c.28.52 1.09 0 .8-.47l-.46-.84c-.29-.52-1.09 0-.8.47zM74.07 81.94a1.69 1.69 0 0 0 2 1.37 2.38 2.38 0 0 0 1.93-2c.1-.59-.8-.84-.9-.25a1.48 1.48 0 0 1-.94 1.23.83.83 0 0 1-1.16-.6c-.11-.59-1-.34-.9.25z"/><path class="cls-5" d="M74.8 82.64l-.32.79a.47.47 0 0 0 .32.58.5.5 0 0 0 .58-.33l.32-.79a.46.46 0 0 0-.33-.57.47.47 0 0 0-.57.32z"/><path class="cls-5" d="M75.7 83l.09.62a.47.47 0 0 0 .57.33.48.48 0 0 0 .33-.57l-.09-.62a.47.47 0 0 0-.57-.33.48.48 0 0 0-.33.57zM76.59 82.61l.37.67c.29.52 1.09 0 .8-.47l-.36-.67a.47.47 0 0 0-.81.47zM100.46 117.51a24.16 24.16 0 0 1 7.67 8.64 19.16 19.16 0 0 1 1.83 4.11 7 7 0 0 1 .47 2.69c-.91 4.7-3.9 2-5.14.86-2.24-2.1-4.19-4.31-6.81-6s-6.22-2.87-7.66-6c-.25-.54-1-.07-.8.47 1.86 4.11 7.09 5.45 10.4 8.13 2.08 1.7 5.72 7.43 9.07 5.94 3.14-1.39 1.63-6 .62-8.29a25.89 25.89 0 0 0-9.18-11.32c-.5-.33-1 .47-.47.8zM83.24 95.73c0 .08-.08.24-.08.24a.15.15 0 0 1 .16 0c.1.08.14.08.12 0v-.2c0-.07.11-.2.11-.25s-.29-.08-.31 0a1.34 1.34 0 0 0 0 .2c-.1.59.8.84.9.25s0-1.2-.6-1.29-.89.44-1 .89 0 1.15.54 1.29.94-.42 1.06-.89a.47.47 0 0 0-.9-.24zM78.59 97.51a1 1 0 0 0 1.25.37c.51-.32.32-1 0-1.42s-.81-.69-1.26-.43-.36 1-.08 1.38 1.15 0 .81-.47c0-.06-.08-.15-.13-.2s.12-.16-.15 0-.13 0-.06.13.1.08.13.13.06.12.09.16a.14.14 0 0 1 0 .06l.28-.18s-.24-.21-.26-.22c-.34-.43-1 .23-.62.69z"/><path class="cls-8" d="M81.18 67.29a10.7 10.7 0 0 1 .41-2.71 3.69 3.69 0 0 1 1.62-2.14 1 1 0 0 1 .49-.14.83.83 0 0 1 .39.16 3.5 3.5 0 0 1 1.2 1.54 5.49 5.49 0 0 1 .5 2.64A3.35 3.35 0 0 1 84.58 69"/><path class="cls-5" d="M81.64 67.29c.07-1 .83-5.92 2.65-4a4 4 0 0 1 0 5.41c-.45.4.21 1.05.66.66 2-1.74 1.81-5.84-.54-7.28-.93-.57-1.79.07-2.41.82a7.47 7.47 0 0 0-1.25 4.38c0 .59.89.59.93 0z"/><path class="cls-12" d="M82.38 67.24a5.18 5.18 0 0 0 0 .88.47.47 0 0 0 0 .17.48.48 0 0 0 .14.2 1.26 1.26 0 0 0 .75.36.37.37 0 0 0 .15 0 .31.31 0 0 0 .16-.11 1.41 1.41 0 0 0 .36-.67 2.77 2.77 0 0 0 .06-.77 2.4 2.4 0 0 0-.16-1c-.11-.28-.39-.69-.73-.72-.16 0-.22.22-.29.34s-.18.38-.26.58a2.91 2.91 0 0 0-.18.74z"/><path class="cls-5" d="M84 68.94a3.52 3.52 0 0 0 .53-2.16 1.67 1.67 0 0 0-1.23-1.58c-.58-.14-.83.76-.25.89 1 .24.4 1.83.11 2.38s.52 1 .8.47z"/><path class="cls-5" d="M82.79 68.12a3.57 3.57 0 0 1 1.75-3.38.46.46 0 0 0-.47-.8 4.48 4.48 0 0 0-2.21 4.18c0 .59 1 .6.93 0z"/></g><path d="M163 102.14c1.81 3.4 4.53 5.21 6.21 4.32s1.71-4.17-.1-7.57-4.64-5.43-6.33-4.53-1.57 4.38.22 7.78z" fill="#54371d"/><ellipse class="cls-15" cx="155.82" cy="105.97" rx="3.46" ry="6.97" transform="rotate(-28.01 155.838 105.986)"/><path d="M142.42 85.41c-1.69-.53-3-2.77-5.25-4-3.11-1.76-3.91-4.63-3.71-3.37s-.89 1.82-.9 1.64.36.21.06-1.69-2.83-2.87-4.64-6.24A21.52 21.52 0 0 1 126.4 68a7.43 7.43 0 0 0-.2 1.58c-3.67-11.23.68-17.54 1.29-18a4.12 4.12 0 0 0-1.81.86c1.33-3.48 3.86-3.79 4.25-3.84a2.4 2.4 0 0 0-1.9-.42c1.07-1.5 2.15-2.49 4-2.51a2 2 0 0 1 1.67.92 3 3 0 0 1 2.18-3.88c-1.24 3.54-.67 2.89-.54 3s1.92-1.75 3.8-1.91a1.8 1.8 0 0 0-.92 1.06c1.86-.78 3.89-1.9 8 .64a5.27 5.27 0 0 0-2.8.75c.53.18 7.34 2.25 9.55 9.34-.32-.17-2-1.19-2.24-1 1.25.9 5.36 4.07 3.47 16.36-.12-.64-.67-2.1-1-2.07.51 1.13-.34 4.51-3.73 7.58-4.63 4.26-6.6 6.54-7.05 8.95z" fill="#dcb680"/><path d="M161.75 85.51a3.91 3.91 0 0 1 2.49 1c.45.51.83 1 1.25 1.56.79 1.06 1.58 2.13 2.27 3.23s1.35 2.23 2 3.37l.91 1.71a5 5 0 0 1 .42.87 1.54 1.54 0 0 1-.45 1.27l-11.45 5.11a1.55 1.55 0 0 1-1.24-.5 5.87 5.87 0 0 1-.37-.9l-.67-1.82c-.44-1.22-.85-2.45-1.19-3.71s-.63-2.55-.89-3.85c-.11-.66-.25-1.3-.33-2a3.91 3.91 0 0 1 .9-2.53z" fill="#6d3325"/><path class="cls-18" d="M152.75 90.3a3.91 3.91 0 0 1 2.49 1c.44.51.83 1 1.25 1.56.79 1.06 1.58 2.13 2.27 3.23s1.35 2.23 2 3.37l.91 1.71a5.8 5.8 0 0 1 .42.87 1.58 1.58 0 0 1-.45 1.27l-11.45 5.11a1.5 1.5 0 0 1-1.24-.5 5 5 0 0 1-.37-.9l-.67-1.82c-.44-1.22-.85-2.45-1.2-3.71s-.63-2.55-.89-3.85c-.1-.66-.25-1.3-.33-2a3.93 3.93 0 0 1 .91-2.53z"/><path class="cls-19" d="M138.77 97.9l1.8 3.92c1.73 3.83 8.68 1.21 17.09-2.67 7.25-3.35 15.89-6.88 13.45-12.25-5.48-14.47-14.77-24.43-26.9-18.84-12 5.54-11.45 15.3-7.56 25.14a.58.58 0 0 0 0 .19l.35.61c.48 1.24 1.09 2.55 1.77 3.9z"/><path class="cls-15" d="M120.78 76.71c-.53-1.74-2.2-5.52-6.21-3.72-5.34 2.41 5.49 12.67.06 6.46z"/><path class="cls-18" d="M141 79.71c.8.35 1.06.6 1.16.82s.26.45.37.68a3.51 3.51 0 0 1 .35 1.32 8 8 0 0 1 .05 1.29 7.5 7.5 0 0 1-.26 1.25 16.12 16.12 0 0 1-2.35 5.05c-.16.21-.31.42-.48.63l-.56.6a10 10 0 0 1-1.28 1.12 11.94 11.94 0 0 1-1.54.94 9.71 9.71 0 0 1-1.73.64 11.4 11.4 0 0 1-3.55.37 14 14 0 0 1-3.2-.59 18.84 18.84 0 0 1-5.18-2.56 23.25 23.25 0 0 1-4-3.48 30.32 30.32 0 0 1-3.12-4.07 7.53 7.53 0 0 1-1.15-2.28 7.33 7.33 0 0 1-.17-1.35 2 2 0 0 1 .2-.8l.24-.47a.76.76 0 0 1 .23-.28l.06-.05.1-.07.19-.14.25-.16.31-.2 3.37-1.63.34-.13.29-.11.22-.07h.18a.9.9 0 0 1 .36 0h.49a2.1 2.1 0 0 1 .7.17 5.58 5.58 0 0 1 .9.58 6.05 6.05 0 0 1 1.2 1.44 36.13 36.13 0 0 0 2.31 2.84c.81.89 1.63 1.73 2.46 2.48a14.42 14.42 0 0 0 2.44 1.77 10.67 10.67 0 0 0 1 .5 3.6 3.6 0 0 0 .82.2 2.2 2.2 0 0 0 1.78-.56 8 8 0 0 0 2-2.52 6.63 6.63 0 0 1 1.17-1.63 6.11 6.11 0 0 1 .9-.82c.19-.13.41-.25.62-.39s.52-.24 1.4-.25z"/><path class="cls-19" d="M129.83 66.78a14.61 14.61 0 1 0 9.22-18.49 14.61 14.61 0 0 0-9.22 18.49z"/><path class="cls-20" d="M166.94 98.2c-1.23 4.23-3.14 12.47-1.65 17.21 2.32 7.34 11.46 13.75 15.7 16-2.67-4.59-3.65-8.16-2.63-10.55.33-.76 1.4 2.14 3.88 2.94a12.5 12.5 0 0 1 0-5.84c.32-2.11.4-6-.74-8.34-3.62-7.57-11.08-11.29-12.63-12.24z"/><path class="cls-21" d="M166.94 98.2c-.69 1.8-1.7 8.51-.32 11.82s8 7.42 10.83 10.94c-.33-3.39-1-4.63-.29-7.39s.66-3.17.44-4.8-2.67-5.19-5.27-8c-2.73-3-3.46-3.36-3.46-3.36z"/><path class="cls-22" d="M166.94 98.2c-.43 2.21-.65 8.5 1.09 10.4s3.36 1.6 6.35 4.35c.21-1.34-1.57-3.69-.77-5.06.71.8.92 1.4 2 1.82-.76-1.28-.54-2.86-1.1-4.62-.64-2.06-2.4-3.51-3.72-5a13 13 0 0 1-1.88-2.68z"/><path class="cls-23" d="M168 99.27c-3.52 1.41-6.7 1.75-7.09.75l.72 1.8c.39 1 3.57.65 7.09-.76s6.05-3.36 5.65-4.35l-.72-1.79c.43.99-2.1 2.94-5.65 4.35z"/><path class="cls-23" d="M168.9 101.43c-2.65 1.06-5 1.32-5.34.57l.54 1.35c.3.75 2.69.49 5.34-.57s4.56-2.52 4.26-3.27l-.55-1.36c.3.75-1.6 2.22-4.25 3.28z"/><path class="cls-24" d="M153.54 77a47.66 47.66 0 0 0 3.76 16.7l2.54 6.35a31.87 31.87 0 0 0 7.94-1.41 32.61 32.61 0 0 0 6.7-4.38s-.94-2.71-2.45-6.46a47.31 47.31 0 0 0-8.95-14.61 21.22 21.22 0 0 1-4.48 2.43 20.43 20.43 0 0 1-5.06 1.38z"/><path class="cls-25" d="M155.6 68.13c-.83.34-2.16 3.44-2.06 8.84a20.43 20.43 0 0 0 5.06-1.35 21.22 21.22 0 0 0 4.48-2.43c-3.6-3.85-6.68-5.37-7.48-5.06z"/><path class="cls-23" d="M167.05 96.83c-4.08 1.63-7.77 2-8.23.88l.84 2.08c.46 1.15 4.14.76 8.23-.88s7-3.89 6.56-5l-.84-2.09c.46 1.11-2.47 3.37-6.56 5.01z"/><path class="cls-26" d="M173.63 95.57a11.34 11.34 0 0 1-1.7 1.3c0 .1.07.19.1.29a5.17 5.17 0 0 0 1.6-1.59zM173.08 98.71l-.44.32a1.09 1.09 0 0 1 .05.17 3 3 0 0 0 .39-.49z"/><path class="cls-24" d="M174.51 94.24z"/><path class="cls-27" d="M172 97.16c.21.63.42 1.25.61 1.87l.44-.32a.65.65 0 0 0 .1-.57l.15.37c.85-.71 1.28-1.36 1.1-1.81l-.55-1.39-.25.26a5.17 5.17 0 0 1-1.6 1.59z"/><path class="cls-27" d="M173.08 98.71a3 3 0 0 1-.39.49c.16.48.3 1 .45 1.44.47-.45.7-.85.59-1.15l-.4-1-.15-.37a.65.65 0 0 1-.1.59z"/><path class="cls-28" d="M170.07 91.86c.39 1 .76 1.92 1.11 2.87 1.58-1 2.55-2 2.51-2.75-.42-1.11-1-2.55-1.63-4.2a47.24 47.24 0 0 0-8.95-14.6 20.72 20.72 0 0 1-2.2 1.36 84.63 84.63 0 0 1 9.16 17.32z"/><path class="cls-29" d="M163.11 73.18c-3.6-3.86-6.68-5.38-7.48-5.06a1 1 0 0 0-.33.26 29.21 29.21 0 0 1 5.61 6.16 20.72 20.72 0 0 0 2.2-1.36z"/><path class="cls-27" d="M171.18 94.73c.26.72.51 1.43.75 2.14a11.34 11.34 0 0 0 1.7-1.3l.25-.26a2.34 2.34 0 0 0 .63-1.06.79.79 0 0 0 0-.38l-.84-2.09a.79.79 0 0 1 .05.22c.01.68-.96 1.7-2.54 2.73z"/><path class="cls-20" d="M154.12 102.77c-1.57 4.13-4.11 12.19-3 17 1.73 7.5 10.34 14.62 14.38 17.2-2.29-4.79-3-8.42-1.78-10.72.38-.74 1.22 2.24 3.63 3.23a12.73 12.73 0 0 1 .46-5.82c.49-2.08.87-5.93-.07-8.37-3-7.83-10.16-12.13-11.63-13.2z"/><path class="cls-21" d="M154.12 102.77c-.83 1.74-2.37 8.35-1.25 11.76s7.39 8 9.93 11.76c-.06-3.4-.67-4.7.3-7.39s.91-3.11.81-4.75-2.25-5.38-4.62-8.41c-2.49-3.19-3.18-3.62-3.18-3.62z"/><path class="cls-22" d="M154.12 102.77c-.61 2.18-1.32 8.43.26 10.46s3.23 1.86 6 4.83c.32-1.32-1.27-3.8-.36-5.1.64.85.8 1.47 1.81 2-.66-1.33-.32-2.9-.73-4.69-.48-2.1-2.12-3.69-3.32-5.3a12.78 12.78 0 0 1-1.66-2.82z"/><path class="cls-23" d="M155.12 103.92c-3.62 1.13-6.81 1.22-7.13.2l.58 1.85c.31 1 3.51.93 7.13-.2s6.29-2.87 6-3.89l-.6-1.88c.32 1.05-2.36 2.8-5.98 3.92z"/><path class="cls-23" d="M155.81 106.15c-2.72.85-5.13.91-5.37.15l.44 1.39c.24.77 2.64.7 5.37-.15s4.74-2.16 4.5-2.93l-.44-1.39c.24.78-1.77 2.08-4.5 2.93z"/><path class="cls-24" d="M142.43 80.56a47.56 47.56 0 0 0 2.43 17c1.17 3.75 2 6.53 2 6.53a31.89 31.89 0 0 0 8-.78 33.1 33.1 0 0 0 7-3.84s-.73-2.78-1.94-6.63a47.3 47.3 0 0 0-7.77-15.27 21.11 21.11 0 0 1-4.66 2.07 20.52 20.52 0 0 1-5.06.92z"/><path class="cls-25" d="M145.18 71.91c-.85.27-2.42 3.25-2.75 8.65a20.52 20.52 0 0 0 5.15-1 21.11 21.11 0 0 0 4.66-2.07c-3.24-4.08-6.24-5.84-7.06-5.58z"/><path class="cls-23" d="M154.34 101.42c-4.2 1.31-7.91 1.41-8.28.22l.67 2.15c.37 1.18 4.08 1.08 8.28-.23s7.3-3.33 6.93-4.51l-.66-2.15c.36 1.18-2.74 3.21-6.94 4.52z"/><path class="cls-26" d="M161 100.68a11.36 11.36 0 0 1-1.79 1.16c0 .1.05.2.07.3a5.19 5.19 0 0 0 1.72-1.46zM160.2 103.77l-.46.28v.17a2.51 2.51 0 0 0 .46-.45z"/><path class="cls-24" d="M162 99.43z"/><path class="cls-27" d="M159.27 102.14c.16.64.32 1.28.47 1.91l.46-.28a.69.69 0 0 0 .15-.57l.11.38c.91-.63 1.39-1.25 1.24-1.71l-.44-1.43-.27.24a5.19 5.19 0 0 1-1.72 1.46z"/><path class="cls-27" d="M160.2 103.77a2.51 2.51 0 0 1-.43.45c.12.5.23 1 .33 1.48.51-.41.78-.8.68-1.1l-.32-1-.11-.38a.69.69 0 0 1-.15.55z"/><path class="cls-28" d="M157.74 96.7c.31 1 .6 2 .87 3 1.67-.9 2.71-1.84 2.72-2.55-.32-1.13-.76-2.61-1.29-4.3a47 47 0 0 0-7.77-15.27 19.77 19.77 0 0 1-2.3 1.18 84.83 84.83 0 0 1 7.77 17.94z"/><path class="cls-29" d="M152.27 77.53c-3.27-4.13-6.27-5.89-7.06-5.63a1 1 0 0 0-.35.23 29 29 0 0 1 5.14 6.58 19.77 19.77 0 0 0 2.27-1.18z"/><path class="cls-27" d="M158.61 99.65c.21.74.4 1.47.59 2.19a11.36 11.36 0 0 0 1.79-1.16l.27-.24a2.26 2.26 0 0 0 .71-1 .81.81 0 0 0 0-.38l-.66-2.14a.5.5 0 0 1 0 .21c.01.68-1.03 1.62-2.7 2.52z"/></g></g></svg>