<svg id="Layer_1" data-name="Layer 1" xmlns="http://www.w3.org/2000/svg" viewBox="0 0 251 151"><defs><style>.cls-1{fill:#e1f1f9}.cls-2{fill:#e84c59}.cls-3{fill:#ee7b5c}.cls-4{fill:#f9c862}.cls-5{fill:#062633}.cls-6{fill:#abaaaa}.cls-7{fill:#e1dfe0}.cls-8{fill:none}.cls-9{fill:#041d26}.cls-10{fill:#6e6e6e}.cls-11{fill:silver}.cls-12{fill:#5e3e21}.cls-15{fill:#783a28}.cls-16{fill:#8f4729}.cls-20{fill:#231d13}.cls-25{fill:#fcfdff}.cls-26{fill:#e5e5e4}.cls-27{fill:#151314}.cls-31{fill:#9b9597}.cls-32{fill:#22212c}.cls-33{fill:#514b4d}.cls-34{fill:#cbc9d5}.cls-41{fill:#373638}</style></defs><path class="cls-1" d="M49.08 113.23l-1.53 6.19.18-6.27-5.61-1.15 5.76-.33 1.55-6.52-.13 6.61 5.54 1.01-5.76.46zm188.1-17.04l-.56 2.97-.1-2.97-2.79-.39 2.82-.32.56-3.13.14 3.13 2.75.32-2.82.39z"/><path class="cls-2" d="M175.82 84.42c-1.17 3.51-3 10.35-1.93 14.38 1.7 6.23 9.17 11.9 12.65 13.93-2.09-3.94-2.8-7-1.86-8.93.29-.63 1.1 1.84 3.15 2.59a10.69 10.69 0 0 1 .19-4.9c.34-1.76.52-5-.35-7-2.8-6.46-8.93-9.82-10.2-10.67z"/><path class="cls-3" d="M175.82 84.42c-.64 1.49-1.7 7.08-.64 9.9s6.46 6.48 8.73 9.52c-.18-2.85-.72-3.92 0-6.2a7.4 7.4 0 0 0 .52-4c-.14-1.37-2.07-4.44-4.16-6.9a17.19 17.19 0 0 0-2.79-2.93z"/><path class="cls-4" d="M175.82 84.42c-.43 1.84-.82 7.11.58 8.76s2.77 1.45 5.19 3.85c.22-1.12-1.2-3.15-.48-4.27.56.69.72 1.2 1.58 1.59-.6-1.09-.37-2.42-.77-3.91-.48-1.75-1.9-3-3-4.33a10.31 10.31 0 0 1-1.49-2.31z"/><path class="cls-5" d="M176.7 85.35c-3 1.07-5.67 1.25-6 .41l.54 1.53c.31.84 3 .66 6-.41s5.18-2.62 4.87-3.47l-.54-1.53c.31.85-1.87 2.4-4.87 3.47z"/><path class="cls-5" d="M177.36 87.19c-2.26.81-4.27 1-4.5.31l.41 1.15c.23.64 2.24.5 4.5-.31s3.9-2 3.67-2.61l-.44-1.15c.26.64-1.39 1.81-3.64 2.61z"/><path class="cls-6" d="M165.26 66.19a39.89 39.89 0 0 0 2.62 14.15l1.92 5.4a26.47 26.47 0 0 0 6.71-.93 27.47 27.47 0 0 0 5.76-3.45s-.71-2.31-1.85-5.5a39.63 39.63 0 0 0-7-12.53 18 18 0 0 1-3.83 1.89 17.21 17.21 0 0 1-4.33.97z"/><path class="cls-7" d="M167.27 58.85c-.71.25-1.92 2.81-2 7.34a17.21 17.21 0 0 0 4.29-1 18 18 0 0 0 3.83-1.89c-2.9-3.3-5.39-4.7-6.12-4.45z"/><path class="cls-5" d="M176 83.27c-3.48 1.25-6.58 1.46-6.93.48l.63 1.77c.35 1 3.45.77 6.93-.47s6-3 5.66-4l-.63-1.78c.34.96-2.22 2.73-5.66 4z"/><path class="cls-8" d="M181.51 82.43a9.58 9.58 0 0 1-1.46 1c0 .08 0 .16.07.24a4.29 4.29 0 0 0 1.39-1.24zm-.51 2.62l-.37.25v.14a2.24 2.24 0 0 0 .37-.39z"/><path class="cls-9" d="M180.12 83.71c.16.53.31 1.06.46 1.59l.37-.25a.57.57 0 0 0 .11-.48l.11.31c.74-.56 1.12-1.1 1-1.48l-.42-1.18-.22.21a4.29 4.29 0 0 1-1.41 1.28z"/><path class="cls-9" d="M181 85.05a2.24 2.24 0 0 1-.34.39c.12.41.22.82.33 1.23.41-.36.62-.7.53-1l-.3-.84-.11-.31a.57.57 0 0 1-.11.53z"/><path class="cls-10" d="M178.65 79.2c.29.82.57 1.64.83 2.45 1.37-.82 2.21-1.64 2.19-2.23-.31-.94-.72-2.17-1.22-3.57a39.61 39.61 0 0 0-7-12.54 15.92 15.92 0 0 1-1.89 1.08 70.61 70.61 0 0 1 7.09 14.81z"/><path class="cls-11" d="M173.4 63.31c-2.89-3.35-5.43-4.72-6.1-4.48a.73.73 0 0 0-.3.17 24.26 24.26 0 0 1 4.5 5.35 15.92 15.92 0 0 0 1.9-1.04z"/><path class="cls-9" d="M179.48 81.65c.2.61.39 1.21.57 1.82a9.58 9.58 0 0 0 1.46-1l.22-.21a2 2 0 0 0 .56-.87.69.69 0 0 0 0-.32l-.63-1.77a.9.9 0 0 1 0 .18c.03.52-.81 1.35-2.18 2.17z"/><path class="cls-2" d="M185.46 84.69c-1.17 3.51-3 10.35-1.93 14.38 1.71 6.23 9.18 11.9 12.65 13.93-2.09-3.94-2.79-7-1.86-8.93.3-.63 1.1 1.84 3.16 2.59a10.58 10.58 0 0 1 .18-4.9c.34-1.76.53-5-.35-7-2.8-6.46-8.93-9.82-10.2-10.67z"/><path class="cls-3" d="M185.46 84.69c-.64 1.49-1.7 7.08-.64 9.9s6.47 6.48 8.73 9.52c-.17-2.85-.72-3.92 0-6.2a7.3 7.3 0 0 0 .52-4c-.14-1.37-2.06-4.44-4.16-6.9a16.62 16.62 0 0 0-2.79-2.93z"/><path class="cls-4" d="M185.46 84.69c-.43 1.84-.81 7.11.59 8.76s2.76 1.45 5.18 3.85c.22-1.12-1.19-3.15-.48-4.27.57.69.73 1.2 1.58 1.59-.59-1.09-.36-2.42-.77-3.91-.47-1.75-1.9-3-3-4.33a10.79 10.79 0 0 1-1.49-2.31z"/><path class="cls-5" d="M186.34 85.62c-3 1.07-5.67 1.25-6 .41l.55 1.53c.3.84 3 .66 6-.41s5.18-2.62 4.88-3.47l-.55-1.53c.3.85-1.88 2.4-4.88 3.47z"/><path class="cls-5" d="M187 87.46c-2.26.81-4.27 1-4.5.31l.42 1.15c.22.64 2.24.5 4.49-.31s3.9-2 3.68-2.61l-.41-1.15c.22.64-1.42 1.81-3.68 2.61z"/><path class="cls-6" d="M174.9 66.46a40.12 40.12 0 0 0 2.62 14.15l1.93 5.4a26.36 26.36 0 0 0 6.7-.93 27.18 27.18 0 0 0 5.76-3.45s-.7-2.31-1.85-5.5a39.25 39.25 0 0 0-7-12.53 17.75 17.75 0 0 1-3.83 1.89 17.11 17.11 0 0 1-4.33.97z"/><path class="cls-7" d="M176.91 59.12c-.7.25-1.92 2.81-2 7.34a17.11 17.11 0 0 0 4.29-1 17.75 17.75 0 0 0 3.8-1.86c-2.87-3.35-5.41-4.73-6.09-4.48z"/><path class="cls-5" d="M185.6 83.54c-3.48 1.25-6.58 1.46-6.93.48l.63 1.77c.36 1 3.46.77 6.94-.47s6-3 5.66-4l-.64-1.77c.35.95-2.18 2.75-5.66 3.99z"/><path class="cls-8" d="M191.16 82.7a9.53 9.53 0 0 1-1.47 1c0 .09.05.17.07.25a4.46 4.46 0 0 0 1.4-1.25zm-.56 2.62l-.38.25a.74.74 0 0 0 0 .14 2.77 2.77 0 0 0 .38-.39z"/><path class="cls-9" d="M189.76 84c.16.53.32 1.06.46 1.59l.38-.25a.56.56 0 0 0 .1-.48l.11.31c.74-.56 1.12-1.1 1-1.48l-.42-1.18a2.08 2.08 0 0 1-.21.21 4.46 4.46 0 0 1-1.42 1.28z"/><path class="cls-9" d="M190.6 85.32a2.77 2.77 0 0 1-.34.39c.11.41.22.82.32 1.23.42-.36.62-.7.53-1l-.3-.84-.11-.31a.56.56 0 0 1-.1.53z"/><path class="cls-10" d="M188.29 79.47c.3.82.57 1.64.84 2.45 1.36-.82 2.2-1.64 2.19-2.23-.31-.94-.73-2.17-1.23-3.57a39.81 39.81 0 0 0-7-12.54 17.69 17.69 0 0 1-1.89 1.08 70.63 70.63 0 0 1 7.09 14.81z"/><path class="cls-11" d="M183.05 63.58c-2.9-3.35-5.43-4.72-6.11-4.48a.73.73 0 0 0-.29.21 24.54 24.54 0 0 1 4.51 5.35 17.69 17.69 0 0 0 1.89-1.08z"/><path class="cls-9" d="M189.13 81.92c.19.61.38 1.21.56 1.81a9.53 9.53 0 0 0 1.47-1 2.08 2.08 0 0 0 .21-.21 1.83 1.83 0 0 0 .56-.87.58.58 0 0 0 0-.32l-.63-1.77a.48.48 0 0 1 0 .18c.03.54-.81 1.36-2.17 2.18z"/><path class="cls-12" d="M139.27 47.23c-.64-1.49-2.49-4.66-5.73-2.68s.76 5.69.76 5.69z"/><path d="M167.85 88.9c-.37-.27-2.76 4.82-2.76 4.82a11.7 11.7 0 0 0 2.49-.09 9.41 9.41 0 0 0-.67 1.39c-1.14 2.91-.81 5.75.74 6.35 1.09.43 1.9-2.31 2.87-4.93.5-1.33 1.12-2.58 1.47-3.56l.65-1.67s-.36-.89-3-.74c-.46.05-1.42-1.31-1.79-1.57zm4.39 2.52z" fill="#54371d"/><path d="M170.71 81.94c1.59 1.11 1.35 2.19 1.65 3.27s.38 2.17.49 3.26.2 2.16.25 3.25l.07 1.62a5.48 5.48 0 0 1 0 .81 1.2 1.2 0 0 1-.68.8l-9-.14a1.26 1.26 0 0 1-.66-.82 7.31 7.31 0 0 1 0-.81l.13-1.62c.08-1.08.19-2.17.35-3.24s.37-2.16.6-3.24.12-2.16 1.75-3.22z" fill="#6d3325"/><path class="cls-12" d="M177.16 89.53c-.44.09 1 3.45 1 3.45a3 3 0 0 0 2.33 0 11.32 11.32 0 0 0 .57 1.44c1.37 2.8 3.69 4.48 5.18 3.76 1-.52-.41-3-1.68-5.46-.65-1.26-1.15-2.57-1.63-3.49l-.79-1.61s-.9-.34-2.57 1.7c-.31.33-1.96.11-2.41.21zM182 88z"/><path class="cls-15" d="M177.1 79.68c1.91.33 2.15 1.41 2.88 2.26s1.26 1.81 1.83 2.74 1.1 1.88 1.6 2.84l.75 1.44a5.49 5.49 0 0 1 .36.73 1.28 1.28 0 0 1-.28 1L176 94.41a1.26 1.26 0 0 1-.95-.47 6.21 6.21 0 0 1-.31-.75l-.57-1.52c-.39-1-.74-2-1.06-3.08s-.58-2.12-.83-3.19-.8-2 .22-3.66zm-15.1-9.2c-.17.58-.38.79-.58.89a4.71 4.71 0 0 1-.63.33 5.32 5.32 0 0 1-1.29.33 9.42 9.42 0 0 1-1.3 0 10.8 10.8 0 0 1-1.27-.19 24.24 24.24 0 0 1-4.75-1.64 34.74 34.74 0 0 1-8.18-5.3 41.86 41.86 0 0 1-6.54-7.09 38.7 38.7 0 0 1-2.62-4.14 9.6 9.6 0 0 1-1-2.34 7.3 7.3 0 0 1-.2-1.36 2.14 2.14 0 0 1 .12-.76l.17-.43c0-.13.15-.28.84-.59l2.47-.68c.76-.12.92-.1 1 0l.35.12a1.58 1.58 0 0 1 .5.3 7.82 7.82 0 0 1 .69.72 13.76 13.76 0 0 1 1.06 1.69c.68 1.17 1.46 2.33 2.27 3.47a67.81 67.81 0 0 0 5.26 6.59 37.74 37.74 0 0 0 6.21 5.54 18.56 18.56 0 0 0 3.56 1.91 7.2 7.2 0 0 1 .93.37 8.63 8.63 0 0 1 .92.45 6.09 6.09 0 0 1 1 .56l.5.36c.18.11.35.32.55.91z"/><path class="cls-16" d="M151.8 60.47a12.24 12.24 0 1 0 8.53-15.06 12.24 12.24 0 0 0-8.53 15.06z"/><path class="cls-16" d="M157.94 85.79l1 3.48c.91 3.4 7 2.17 14.49.09 6.45-1.79 14.07-3.55 12.77-8.31-2.58-12.71-8.92-22.2-19.7-19.21-10.69 3-11.53 11.11-9.65 19.77a.5.5 0 0 0 0 .17l.13.49c.25 1.14.58 2.31.96 3.52z"/><path d="M159.12 75.6c1.24-.5 2-2.37 3.64-3.5 2.2-1.56 2.57-3.91 2.53-2.88s.81 1.43.81 1.28-.25.18-.18-1.36 1.89-2.44 3-5.25a16.67 16.67 0 0 0 .89-3.07 6.42 6.42 0 0 1 .28 1.26c1.85-9.22-1.95-14.1-2.45-14.41a3.15 3.15 0 0 1 1.44.61c-1.29-2.74-3.23-2.88-3.53-2.9a1.67 1.67 0 0 1 1.4-.42c-.93-1.17-1.83-1.91-3.26-1.84a1.42 1.42 0 0 0-1.18.82 2.55 2.55 0 0 0-2-3c1.23 2.8.74 2.3.66 2.41s-1.6-1.33-3-1.37a1.53 1.53 0 0 1 .78.81c-1.47-.53-3.1-1.34-6 .89a3.89 3.89 0 0 1 2.17.47 10.92 10.92 0 0 0-6.44 8c.23-.15 1.43-1.06 1.61-.9-.86.78-3.71 3.53-1.27 13.35 0-.53.33-1.73.58-1.72-.29.94.63 3.62 3.44 5.94 3.87 3.12 5.55 4.86 6.08 6.78z" fill="#dcb680"/><path class="cls-12" d="M151.45 57.54c-.26-4.72 2.45-8.74 5.82-8.93s6.31 3.49 6.58 8.21a10.37 10.37 0 0 1-2 6.91c-1.46 1.89-2.67 3.45-2.79 5.28-.72-2.47-2.46-3.12-4.56-4.78a9.41 9.41 0 0 1-3.05-6.69z"/><path d="M151.31 56.3c-.09 4.58 2.25 8.44 5.74 8.5s7.23-3.74 7.32-8.31-2.68-8.34-6.17-8.4-6.81 3.64-6.89 8.21z" fill="#c69666"/><path d="M155.91 54.86a5.74 5.74 0 0 0-1.32-.28 2.85 2.85 0 0 0-1.36.13 2.89 2.89 0 0 1 1.36-.35 6.38 6.38 0 0 1 1.44.09zm1.88-.33a6.57 6.57 0 0 1 1.46-.08 3 3 0 0 1 1.38.4 2.8 2.8 0 0 0-1.37-.18 6.08 6.08 0 0 0-1.36.28z" fill="#662f1e"/><path class="cls-20" d="M158.06 55.65l1.39-.01-1.34.3-.05-.29zm-2.32.13c-.26-.12-.53-.24-.8-.34a4.14 4.14 0 0 0-.82-.27 4.16 4.16 0 0 1 .86.13c.29.06.57.13.86.21z"/><path d="M158.1 57.46a1.33 1.33 0 0 1-.33 1.35 1.84 1.84 0 0 1-1.37.52 1.46 1.46 0 0 1-1.28-.7 1.36 1.36 0 0 1-.07-1.39 1.1 1.1 0 0 0 0 .67 1.41 1.41 0 0 0 .26.6 1.33 1.33 0 0 0 1.11.53 1.72 1.72 0 0 0 1.2-.39 1.37 1.37 0 0 0 .48-1.19z" fill="#574c3e"/><path class="cls-20" d="M158.54 61a1.15 1.15 0 0 1-.39 1 1.52 1.52 0 0 1-.5.3 1.77 1.77 0 0 1-.56 0 2.36 2.36 0 0 1-1-.33 1.59 1.59 0 0 1-.69-.74 1.82 1.82 0 0 0 .81.48 1.92 1.92 0 0 0 .89.06c.14 0 .27-.07.41-.1a2.85 2.85 0 0 0 .39-.11 1.34 1.34 0 0 0 .64-.56z"/><path d="M159.36 48.25a6 6 0 0 0-2.67 0c-2.31.55-3.93 3-4.31 3.66a2.43 2.43 0 0 1 2 0l.32.17 1-2.12.1 2.63c3.6 1.37 7.72-1.64 8.37 1.36-.62-2.83-2.5-5.15-4.79-5.73" fill="#442c1a"/><path class="cls-12" d="M192.92 78.3c1.51.25 5 .38 5.08-3.3s-1.49-2.37-2.29-2.13a3.43 3.43 0 0 1-2.59-.2z"/><path class="cls-15" d="M171.48 66.15c.49-.36.71-.43.89-.43h.52a3 3 0 0 1 .88.13c.26.08.53.15.77.24a4.87 4.87 0 0 1 .68.36c.42.26.88.49 1.32.72s.89.45 1.34.65a42 42 0 0 0 5.5 2 57 57 0 0 0 5.62 1.3c.47.1.94.17 1.41.25s.95.15 1.43.22a4.87 4.87 0 0 1 1.43.3 5 5 0 0 1 .72.38 1.73 1.73 0 0 1 .35.39l.17.31c.06.07.12.22.16 1l-.08 2.56c-.09.76-.17.9-.24 1l-.22.29a1.69 1.69 0 0 1-.44.35 5 5 0 0 1-.87.3 5.51 5.51 0 0 1-1.72 0 31 31 0 0 1-3.43-.47 27.89 27.89 0 0 1-6.57-2.25 31.26 31.26 0 0 1-5.8-3.67c-.46-.35-.89-.71-1.31-1.08s-.86-.73-1.27-1.11a4.36 4.36 0 0 1-1.06-1.33 3 3 0 0 1-.34-.88c0-.17-.06-.35-.09-.53s0-.4.27-.94z"/><path class="cls-1" d="M104.58 28.98l-.56 2.97-.1-2.97-2.79-.38 2.82-.32.57-3.13.13 3.13 2.75.32-2.82.38z"/><g opacity=".2"><path d="M39.79 65.68a.53.53 0 0 1-.53-.53 15.62 15.62 0 0 1 1.42-6.8 12.17 12.17 0 0 1 3.13-4.08 12.93 12.93 0 0 1 3.14-2 8.22 8.22 0 0 1 1.46-.51.51.51 0 0 1 .62.39.52.52 0 0 1-.39.63 9 9 0 0 0-1.31.47 11.8 11.8 0 0 0-2.87 1.81c-2.75 2.36-4.15 5.74-4.15 10.05a.52.52 0 0 1-.52.57zm27.78 0a.52.52 0 0 0 .52-.53 15.62 15.62 0 0 0-1.41-6.8 12.33 12.33 0 0 0-3.14-4.08 12.91 12.91 0 0 0-3.13-2A8.88 8.88 0 0 0 59 51.8a.52.52 0 0 0-.63.39.53.53 0 0 0 .39.63 8.44 8.44 0 0 1 1.32.47 12.19 12.19 0 0 1 2.82 1.81c2.75 2.36 4.1 5.74 4.1 10.05a.53.53 0 0 0 .57.53z" fill="#e1deee"/><path class="cls-25" d="M53.94 43.31c-4.35 0-7.9 2.33-8 5.24H62c-.16-2.91-3.71-5.24-8.06-5.24z"/><path class="cls-26" d="M42.14 50.39c1-.2 8.57-.59 8.57-.59.16 0 6.08.08 6.4 0s6.16.21 6.16.21l2.82.28c.36 0 7.94.94 9 1a11.47 11.47 0 0 0 2.22-.26c0 .86-1 1-1.42 1a12 12 0 0 1-3-.13c-.38-.11-5.32-.46-5.72-.38a12.37 12.37 0 0 0-3.67-.19c-1.06.25-1.33.33-1.18.68l-2.07.46c-.27.05-.72.23-.78.23H57.8a4 4 0 0 0-.36.67 1.14 1.14 0 0 1-.59.72v.4-.71h-5.34v.3a1.11 1.11 0 0 1-.58-.71 4.64 4.64 0 0 0-.37-.67H49c-.06 0-.51-.18-.78-.23L46 52s-3-.15-3.62-.21a5.65 5.65 0 0 0-2.31-.28 12.59 12.59 0 0 1-3 .13c-.4 0-1.48-.17-1.41-1.11.91.6 5.59.04 6.48-.14z"/><path class="cls-25" d="M36.58 49.55l3.48-.3 1.94-.14c.31-.11 6.15-.77 6.15-.77A5.14 5.14 0 0 1 50.41 47c.82-1.58 1.41-1.69 1.41-1.69A2.62 2.62 0 0 0 51 46.6c0 .31 0 .41.82.6s1.44 1.35 1.44 1.35a1 1 0 0 0 1.77 0s.61-1.15 1.44-1.35.86-.29.82-.6a2.78 2.78 0 0 0-.78-1.28s.58.11 1.41 1.69a5.14 5.14 0 0 1 2.25 1.33s5.83.66 6.15.77l6.47.55 3.48.29a1 1 0 0 1 1 .95v.15a11.47 11.47 0 0 1-2.22.26c-1 0-8.61-.92-9-1l-2.82-.23s-5.82-.32-6.15-.28-6.24-.08-6.4 0c0 0-7.6.39-8.57.59s-5.57.74-6.52.17v-.07c.17-1 .99-.94.99-.94z"/><path class="cls-27" d="M57.29 60.42c.06-.58-3.42-.53-3.42-.53s-2.58.15-2.94.2a.53.53 0 0 0-.45.29c0 .71-.28.5-.28.5v3.83h7.38v-3.82c-.35-.03-.29-.47-.29-.47z"/><rect x="50.13" y="60.49" width="7.52" height="4.55" rx=".47" ry=".47" fill="#bdbac1"/><path class="cls-26" d="M57.92 59.84c0-.43-3-.42-3-.42a1.1 1.1 0 0 1-.39-.61h-.05v-.12l-.55.06-.55-.06v.12h-.05a1.1 1.1 0 0 1-.39.61s-3 0-3 .42v5.37s-.11.8.63.8h6.8c.74 0 .63-.8.63-.8s0-4.94-.08-5.37zm-.38 4.87h-7.38V60.9s.36.19.36-.52a.53.53 0 0 1 .45-.29c.36-.05 2.94-.2 2.94-.2s3.48 0 3.42.53c0 0-.06.44.25.47z"/><path d="M66.17 65.65a1.43 1.43 0 1 0 1.43-1.37 1.4 1.4 0 0 0-1.43 1.37zm-24.8-.22A1.43 1.43 0 1 1 40 64.06a1.39 1.39 0 0 1 1.37 1.37z" fill="#b3b3b4"/><path class="cls-26" d="M66.07 50.39c-1-.2-8.57-.59-8.57-.59-.16 0-6.08.08-6.4 0s-6.16.21-6.16.21l-2.82.28c-.36 0-7.94.94-9 1a11.47 11.47 0 0 1-2.22-.26c0 .86 1 1 1.42 1a12 12 0 0 0 3-.13c.38-.11 5.32-.46 5.72-.38a12.37 12.37 0 0 1 3.67-.19c1.06.25 1.33.33 1.18.68l2.07.46c.27.05.72.23.78.23h1.6a4 4 0 0 1 .36.67 1.14 1.14 0 0 0 .59.72v.4-.71h5.41v.3a1.11 1.11 0 0 0 .58-.71 4.64 4.64 0 0 1 .37-.67h1.59c.06 0 .51-.18.78-.23l2.19-.47s3-.15 3.62-.21a5.65 5.65 0 0 1 2.31-.28 12.6 12.6 0 0 0 3 .13c.4 0 2 .5 1.92-.44-.9.6-6.06-.63-6.99-.81z"/><path class="cls-25" d="M71.63 49.55l-3.48-.3-2-.14c-.31-.11-6.15-.77-6.15-.77A5.14 5.14 0 0 0 57.8 47c-.82-1.58-1.41-1.69-1.41-1.69a2.62 2.62 0 0 1 .78 1.28c0 .31 0 .41-.82.6s-1.44 1.35-1.44 1.35-.23-.86-.88-.8-.89.8-.89.8-.61-1.15-1.44-1.35-.86-.29-.82-.6a2.78 2.78 0 0 1 .78-1.28s-.58.11-1.41 1.69A5.14 5.14 0 0 0 48 48.34s-5.83.66-6.15.77l-6.47.55-3.48.34a1 1 0 0 0-.95.95v.15a11.47 11.47 0 0 0 2.22.26c1 0 8.61-.92 9-1l2.83-.24s5.82-.32 6.15-.28 6.24-.08 6.4 0c0 0 7.6.39 8.57.59s5.57.74 6.52.17v-.07c-.19-1.04-1.01-.98-1.01-.98z"/><path d="M51.37 53.82v2.79a1.49 1.49 0 0 0 .37.36s0 .67.22.67v.82s0 .19.47.25a2.29 2.29 0 0 0 .66.24H55a2.29 2.29 0 0 0 .66-.24c.44-.06.46-.25.46-.25v-.82c.24 0 .22-.67.22-.67a1.63 1.63 0 0 0 .38-.36v-2.78z" fill="#dedbdc"/><path class="cls-31" d="M44.78 51.37a12.37 12.37 0 0 0-3.67.19c.42.09.81.23 1.11.26.59.06 3.63.21 3.63.21h.11c.15-.33-.12-.41-1.18-.66z"/><path class="cls-32" d="M32.29 46.78s-.12-.06-.12-.15.28-1.6 1-1.6 1 1.59 1 1.59 0 .16-.13.16zm43.61.28s.1-.06.1-.15-.27-1.6-1-1.6-1 1.59-1 1.59 0 .16.13.16z"/><path class="cls-33" d="M76.86 50.64v-1.29h-3.7v1.3s0 .18 1.79.18 1.91-.19 1.91-.19z"/><path class="cls-32" d="M75.92 48.1h.1l.84.57v.69s0 .12-1.83.12-1.87-.16-1.87-.16v-.72l1-.52z"/><path class="cls-34" d="M64.37 47.46c.31 0 3.47-.2 4-.24s2.87-.22 3.11-.22 1.82.13 2 .16l.51.06c0-.07.06-.11.18-.11H76s.07 0 .09.1a5.35 5.35 0 0 0 .6-.1 11.46 11.46 0 0 1 2.11-.29c.75 0 2.38 0 2.84-.06s3.91-.35 3.9-.26-.36.16-1.54.38-5.17.9-5.86.94-1.69.1-2 .12c0 .18-.09.33-.29.33h-1.54a.28.28 0 0 1-.24-.12c-1 0-3.2.2-4.16.26s-3-.11-3.62-.15a8.28 8.28 0 0 1-2.22-.39c-.3-.24-.01-.43.3-.41z"/><path class="cls-33" d="M31.33 50.36v-1.29L35 49v1.3s0 .19-1.79.19-1.88-.13-1.88-.13z"/><path class="cls-32" d="M32.27 47.82h-.09l-.85.56v.69s0 .12 1.83.12 1.84-.12 1.84-.12v-.73l-1-.52z"/><path class="cls-31" d="M63.23 51.37a12.3 12.3 0 0 1 3.66.19c-.41.09-.8.23-1.11.26-.59.06-3.62.21-3.62.21h-.11c-.16-.33.11-.41 1.18-.66z"/><path d="M29.81 46.67c-.28 0-1.57.1-4.78-.11-.67 0-1.18-.09-1.57-.15l.76.14c1.18.22 5.17.91 5.86.94s1.65.1 2 .12c-.08-.4-2.02-.91-2.27-.94z" fill="#b9b7c4"/><path class="cls-34" d="M43.82 47.18c-.3 0-3.46-.2-4-.23s-2.9-.28-3.14-.27-1.82.12-2 .15l-.52.06c0-.07-.06-.11-.18-.11h-1.75s-.08 0-.1.11a5.41 5.41 0 0 1-.59-.11 11.89 11.89 0 0 0-2.11-.28c-.76 0-2.39 0-2.84-.06s-3.92-.35-3.9-.27.2.12.77.24c.39.06.9.11 1.57.15 3.21.21 4.5.07 4.78.11s2.15.54 2.27.94c0 .18.09.33.29.33h1.5a.27.27 0 0 0 .23-.11c1 0 3.2.19 4.16.25s3-.11 3.63-.15a8.72 8.72 0 0 0 2.21-.38c.33-.2.03-.39-.28-.37z"/><path d="M51.56 55.07v1.55s-.16.32 2.48.32 2.4-.2 2.4-.2v-1.66s-1.55.09-2.18.09-2.7-.1-2.7-.1z" fill="#252527"/><path d="M54.68 56a.68.68 0 1 1-.67-.68.67.67 0 0 1 .67.68z"/><path d="M54.52 56a.52.52 0 1 1-.51-.52.51.51 0 0 1 .51.52z" fill="#313133"/><path d="M52.12 61.64a.58.58 0 1 1-.58-.58.58.58 0 0 1 .58.58z" fill="#fff"/><path d="M57.32 62.31a1.62 1.62 0 1 1-1.61-1.62 1.61 1.61 0 0 1 1.61 1.62z" fill="#312f33"/><path d="M56.93 62.31a1.23 1.23 0 1 1-1.22-1.23 1.22 1.22 0 0 1 1.22 1.23z" fill="#19181d"/><path class="cls-27" d="M55.71 63.54a1.23 1.23 0 1 1 1.23-1.23 1.24 1.24 0 0 1-1.23 1.23zm0-2.45a1.22 1.22 0 1 0 1.22 1.22 1.22 1.22 0 0 0-1.22-1.22z"/><path class="cls-41" d="M56.59 62.31a.89.89 0 0 1-1.77 0 .89.89 0 1 1 1.77 0z"/><path class="cls-27" d="M55.54 62a.25.25 0 0 1-.25.25.25.25 0 0 1 0-.5.25.25 0 0 1 .25.25z"/><path class="cls-41" d="M54 63.82a.42.42 0 0 1-.42.42h-2.65a.42.42 0 0 1-.42-.42.42.42 0 0 1 .42-.42h2.66a.42.42 0 0 1 .42.42z"/></g></svg>