<svg id="Layer_1" data-name="Layer 1" xmlns="http://www.w3.org/2000/svg" viewBox="0 0 251 151"><defs><style>.cls-1{fill:#e1f1f9;}.cls-2{fill:#5e3e21;}.cls-3{fill:#54371d;}.cls-4{fill:#6d3325;}.cls-5{fill:#783a28;}.cls-6{fill:#8f4729;}.cls-7{fill:#dcb680;}.cls-8{fill:#e84c59;}.cls-9{fill:#ee7b5c;}.cls-10{fill:#f9c862;}.cls-11{fill:#062633;}.cls-12{fill:#9f9f9f;}.cls-13{fill:#d3d2d2;}.cls-14{fill:none;}.cls-15{fill:#abaaaa;}.cls-16{fill:#041d26;}.cls-17{fill:#6e6e6e;}.cls-18{fill:silver;}.cls-19{fill:#e1dfe0;}.cls-20{opacity:0.15;}.cls-21{fill:#e2e4e3;}.cls-22{fill:#dedbdb;}.cls-23{fill:#ffda7f;}.cls-24{fill:#756153;}.cls-25{fill:#b4a8a8;}.cls-26{fill:#f3e4e5;}.cls-27{fill:#f0e0e0;}.cls-28{fill:#93b79b;}.cls-29{fill:#abc1bb;}.cls-30{fill:#8ec39e;}.cls-31,.cls-44{fill:#4284af;}.cls-32{fill:#f3d7c4;}.cls-33{fill:#ce6255;}.cls-34{fill:#cca184;}.cls-35{fill:#dd6854;}.cls-36{fill:#ef6982;}.cls-37{fill:#7f9198;}.cls-38{fill:#dfb291;}.cls-39{fill:#f2c5a2;}.cls-40{fill:#5ea192;}.cls-41{fill:#e5d6bb;}.cls-42{fill:#ffe3a6;}.cls-43{opacity:0.13;}.cls-44{opacity:0.64;}.cls-45{opacity:0.11;}.cls-46{fill:#e7d9d9;}</style></defs><title>ivar</title><polygon class="cls-1" points="34.12 110.14 35.09 104.79 35.27 110.14 40.09 110.82 35.21 111.4 34.23 117.03 34.01 111.4 29.24 110.82 34.12 110.14"/><polygon class="cls-1" points="222.67 78.81 223.55 73.96 223.71 78.81 228.09 79.43 223.66 79.96 222.77 85.07 222.56 79.96 218.24 79.43 222.67 78.81"/><polygon class="cls-1" points="46.95 33.68 46.37 36.73 46.26 33.68 43.4 33.29 46.3 32.96 46.88 29.75 47.01 32.96 49.84 33.29 46.95 33.68"/><path class="cls-2" d="M182.35,106.66c-.4-.27-1.94,3.28-1.94,3.28.61,1,.94,1.48,1.76,1.74a10.23,10.23,0,0,0-.68,1.5c-1.14,3.11-.73,6.12.92,6.73,1.17.43,2-2.49,3-5.3.49-1.42,1.12-2.76,1.48-3.82h0l.65-1.79s-.4-.93-3.19-.71C183.8,108.35,182.75,106.93,182.35,106.66Zm4.72,2.58Z"/><path class="cls-3" d="M170.93,110.38c-.34-.34-3.81,4.51-3.81,4.51a12.07,12.07,0,0,0,2.61.38,11.38,11.38,0,0,0-1,1.33c-1.74,2.81-1.94,5.84-.45,6.78,1.06.65,2.44-2,4-4.6.77-1.3,1.66-2.48,2.21-3.44h0l1-1.62s-.21-1-3-1.35C172,112.33,171.26,110.73,170.93,110.38Zm4.09,3.49Z"/><path class="cls-4" d="M181.93,97.88a4.44,4.44,0,0,1,1.32.47A2.78,2.78,0,0,1,184,99c.35.49.64,1,1,1.5.6,1,1.2,2,1.72,3.06s1,2.09,1.44,3.16c.22.53.44,1.06.65,1.6l.16.4a1.16,1.16,0,0,1,.13.41,1.38,1.38,0,0,1-.51,1.08L178,113.71a1.37,1.37,0,0,1-1.06-.56,1.53,1.53,0,0,1-.14-.41l-.11-.42c-.15-.55-.29-1.11-.43-1.67-.27-1.12-.53-2.25-.72-3.4s-.33-2.31-.44-3.48c0-.59-.11-1.18-.12-1.78a2.67,2.67,0,0,1,.25-1,4.06,4.06,0,0,1,.78-1.16Z"/><path class="cls-5" d="M171.86,100.87a4.51,4.51,0,0,1,1.25.64,2.72,2.72,0,0,1,.7.75c.28.53.5,1.07.76,1.6.47,1.09.93,2.17,1.31,3.27s.71,2.2,1,3.31c.16.56.3,1.11.45,1.67l.1.42a1.25,1.25,0,0,1,.08.42,1.37,1.37,0,0,1-.65,1l-11,2.09a1.38,1.38,0,0,1-1-.69,1.56,1.56,0,0,1-.08-.42l0-.43c-.08-.57-.15-1.15-.21-1.72-.13-1.14-.23-2.29-.28-3.46s0-2.33,0-3.51c0-.59,0-1.18.11-1.78a3,3,0,0,1,.38-1,4,4,0,0,1,.93-1Z"/><path class="cls-2" d="M145.78,95.94c-3-.93-5.33-2.18-6.73-1.83s-1.81,1.56-.48,2.91,2.44,3.66,3.28,3.82c1.11.21,3.24.57,3.8-.1s1.55-4.51,1.55-4.51Z"/><path class="cls-6" d="M160.36,104l.78,3.76c.72,3.67,7.27,2.8,15.35,1.13,7-1.44,15.16-2.76,14.12-7.9h0c-1.82-13.65-7.86-24.16-19.51-21.76h0c-11.53,2.37-13,10.95-11.63,20.26a.54.54,0,0,0,0,.18l.11.53C159.79,101.38,160.05,102.64,160.36,104Z"/><path class="cls-6" d="M157.13,71.32a13,13,0,1,0,16.46-8.21A13,13,0,0,0,157.13,71.32Z"/><path class="cls-7" d="M166.19,86.65c0,.55.1.78,0,.92.41-.34.4-1,.4-2.66a16.1,16.1,0,0,0-.53-3.72c-2.59-10.09-3.12-11.75-3.4-12,.09,0,.23-.28.6.16A20.26,20.26,0,0,0,161,63.83c.18-.18.46,0,.64,0-.68-1.15-1-1.47-1.63-1.6a1.31,1.31,0,0,0-.74.15c-.06-.68-1.81-2.25-2.75-2.63,1.24,2.84.91,2.36.9,2.48s-1-1.25-1.58-1.16a2.1,2.1,0,0,1,.53.78c-.73-.43-1.69.09-2.16,1.48.44-.22.77.18,1,.3-.11.22-4.67-1.69,2.73,22.15a5.42,5.42,0,0,1,0-2c.13,1-.25,3,1.63,5.15a7.66,7.66,0,0,0,2.53,1.62c-.4-.54-.6-.69-.57-.86s1.37,1,2.7.87a7.54,7.54,0,0,1-1-1.27c.12.25,1.17.37,1.38.46A4.63,4.63,0,0,0,166.19,86.65Z"/><path class="cls-5" d="M169.07,89.5a2.11,2.11,0,0,1,.24,1.22c0,.21-.08.43-.13.62a3.34,3.34,0,0,1-.42,1,6.73,6.73,0,0,1-.55.78,4.8,4.8,0,0,1-.67.61c-.94.74-1.88,1.52-2.87,2.26A38.25,38.25,0,0,1,158.2,100a25.24,25.24,0,0,1-7.68,2.36l-1,.13-1,0a20.24,20.24,0,0,1-2.06,0,5.92,5.92,0,0,1-2-.31,5.85,5.85,0,0,1-1-.56,1.59,1.59,0,0,1-.44-.53l-.19-.41a.62.62,0,0,1-.08-.31v-.65l0-.32.49-3.29.07-.32,0-.16,0-.11.06-.2,0-.1,0-.06a.76.76,0,0,1,.14-.29l.24-.36a2,2,0,0,1,.43-.44,4.54,4.54,0,0,1,.79-.36,4.34,4.34,0,0,1,1.46-.16,13.94,13.94,0,0,0,1.45-.08c.24,0,.48,0,.72,0s.48-.07.72-.09a44.34,44.34,0,0,0,5.89-1.06,56.8,56.8,0,0,0,6.18-2c.52-.2,1.05-.41,1.58-.64s1-.44,1.58-.69a4.24,4.24,0,0,1,.82-.32,5.43,5.43,0,0,1,.94-.15,3.21,3.21,0,0,1,1.06,0c.2,0,.41.1.62.16s.45.18,1,.76Z"/><path class="cls-8" d="M192.13,108.09c3.32,2.19,9.42,6.75,11.16,10.89,2.68,6.4.11,16.14-1.49,20.16-.84-4.72-2.24-7.74-4.34-8.79-.66-.34.29,2.28-1,4.28a11.53,11.53,0,0,0-3.4-4c-1.45-1.26-3.75-3.88-4.35-6.17-1.91-7.32,1.06-14.22,1.57-15.78Z"/><path class="cls-9" d="M192.13,108.09c1.53.83,6.13,4.86,7.1,8s-1.18,9.76-1.08,13.84c-1.75-2.53-2-3.8-4.11-5.26s-2.3-1.8-3.09-3.05-1.19-5.12-1-8.59a18.15,18.15,0,0,1,.43-4.33Z"/><path class="cls-10" d="M192.13,108.09c1.59,1.27,5.4,5.47,5.31,7.79s-1.38,3.06-1.84,6.69c-.93-.8-1.07-3.45-2.42-3.93a4.38,4.38,0,0,1-.29,2.4c-.22-1.33-1.29-2.29-1.93-3.83-.76-1.79-.39-3.81-.36-5.62a11.34,11.34,0,0,0-.27-2.94Z"/><path class="cls-11" d="M192,109.45c3.24-1.07,5.62-2.69,5.32-3.6l.55,1.65c.3.92-2.08,2.53-5.32,3.61s-6.12,1.21-6.43.3l-.55-1.66C185.89,110.66,188.76,110.53,192,109.45Z"/><path class="cls-11" d="M192.67,111.45c2.44-.81,4.24-2,4-2.72l.41,1.25c.23.69-1.56,1.9-4,2.72s-4.61.91-4.84.22l-.41-1.25C188.06,112.36,190.23,112.26,192.67,111.45Z"/><path class="cls-12" d="M189,85.67a43,43,0,0,1,7.15,13.71c1.11,3.36,1.94,5.84,1.94,5.84a28.39,28.39,0,0,1-6.29,3.65,29.16,29.16,0,0,1-7.16.89s-.93-2.42-2.07-5.87a42.52,42.52,0,0,1-2.34-15.27,19.06,19.06,0,0,0,4.5-.94A18.8,18.8,0,0,0,189,85.67Z"/><path class="cls-13" d="M182.44,80.78c.77-.25,3.49,1.11,6.57,4.89a18.8,18.8,0,0,1-4.27,2,19.06,19.06,0,0,1-4.5.94C180.47,83.87,181.71,81,182.44,80.78Z"/><path class="cls-11" d="M191.26,107.21c3.77-1.25,6.53-3.13,6.18-4.19l.64,1.92c.35,1.06-2.42,2.94-6.18,4.19s-7.11,1.4-7.46.34l-.64-1.92C184.16,108.61,187.49,108.46,191.26,107.21Z"/><path class="cls-14" d="M186,110.17a10.24,10.24,0,0,0,1.92-.1l.11.26A4.77,4.77,0,0,1,186,110.17Z"/><path class="cls-14" d="M188.21,112l.48,0,.06.14A2.44,2.44,0,0,1,188.21,112Z"/><path class="cls-15" d="M184.62,109.77v0l0,0Z"/><path class="cls-16" d="M188,110.33c.21.56.44,1.11.66,1.65l-.48,0a.57.57,0,0,1-.41-.33l.11.34c-1,0-1.67-.19-1.81-.61l-.42-1.28.32,0A4.77,4.77,0,0,0,188,110.33Z"/><path class="cls-16" d="M188.21,112a2.44,2.44,0,0,0,.54.11l.54,1.25c-.59,0-1-.17-1.08-.45l-.3-.9-.11-.34A.57.57,0,0,0,188.21,112Z"/><path class="cls-17" d="M186.29,105.54c.29.89.6,1.76.91,2.62-1.69.21-2.95.08-3.33-.43-.36-1-.82-2.32-1.32-3.84a42.27,42.27,0,0,1-2.34-15.27,16.75,16.75,0,0,0,2.31-.34A75.94,75.94,0,0,0,186.29,105.54Z"/><path class="cls-18" d="M180.21,88.62c.23-4.75,1.47-7.59,2.2-7.83a.92.92,0,0,1,.38,0,26.42,26.42,0,0,0-.27,7.51A16.75,16.75,0,0,1,180.21,88.62Z"/><path class="cls-16" d="M187.2,108.16c.24.65.48,1.29.72,1.91a10.24,10.24,0,0,1-1.92.1l-.32,0a2.07,2.07,0,0,1-1.05-.36l0,0a.73.73,0,0,1-.2-.27l-.64-1.93a.64.64,0,0,0,.1.18C184.25,108.24,185.51,108.37,187.2,108.16Z"/><path class="cls-8" d="M187.68,110.73c3.26,2.28,9.26,7,10.9,11.15,2.53,6.46-.26,16.14-2,20.12-.73-4.74-2.06-7.79-4.13-8.89-.65-.35.23,2.29-1.05,4.26a11.35,11.35,0,0,0-3.31-4.1c-1.42-1.3-3.66-4-4.2-6.27-1.74-7.37,1.39-14.2,1.94-15.74Z"/><path class="cls-9" d="M187.68,110.73c1.51.87,6,5,6.91,8.12s-1.41,9.73-1.41,13.81c-1.68-2.57-1.89-3.84-4-5.36s-2.27-1.85-3-3.12-1.07-5.14-.85-8.61a17.69,17.69,0,0,1,.53-4.31Z"/><path class="cls-10" d="M187.68,110.73c1.56,1.31,5.27,5.6,5.12,7.92s-1.45,3-2,6.65c-.91-.83-1-3.48-2.33-4a4.35,4.35,0,0,1-.34,2.39c-.19-1.33-1.24-2.32-1.85-3.87-.71-1.81-.3-3.82-.22-5.63a12,12,0,0,0-.2-2.94Z"/><path class="cls-11" d="M187.52,112.1c3.27-1,5.69-2.56,5.41-3.49l.51,1.67c.28.93-2.14,2.48-5.41,3.49s-6.15,1.06-6.43.14l-.51-1.67C181.37,113.16,184.25,113.1,187.52,112.1Z"/><path class="cls-11" d="M188.14,114.11c2.46-.76,4.28-1.93,4.07-2.63l.38,1.26c.22.69-1.61,1.87-4.07,2.62s-4.63.81-4.84.11l-.39-1.25C183.51,114.91,185.68,114.86,188.14,114.11Z"/><path class="cls-15" d="M185.08,88.25a43.18,43.18,0,0,1,6.83,13.87l1.8,5.89a28.45,28.45,0,0,1-6.37,3.5,29.58,29.58,0,0,1-7.18.72s-.87-2.44-1.94-5.92a42.41,42.41,0,0,1-2-15.32,19.9,19.9,0,0,0,8.84-2.74Z"/><path class="cls-19" d="M178.63,83.21c.77-.23,3.46,1.19,6.45,5A19.9,19.9,0,0,1,176.24,91C176.58,86.25,177.89,83.44,178.63,83.21Z"/><path class="cls-11" d="M186.83,109.83c3.79-1.16,6.6-3,6.27-4l.59,1.94c.33,1.07-2.48,2.88-6.27,4s-7.13,1.24-7.46.17l-.59-1.94C179.69,111.07,183,111,186.83,109.83Z"/><path class="cls-14" d="M181.5,112.67a9.92,9.92,0,0,0,1.93,0l.09.26A4.6,4.6,0,0,1,181.5,112.67Z"/><path class="cls-14" d="M183.66,114.57l.49,0,.06.15A3,3,0,0,1,183.66,114.57Z"/><path class="cls-15" d="M180.13,112.24h0Z"/><path class="cls-16" d="M183.52,112.88c.21.56.42,1.12.63,1.66l-.49,0a.65.65,0,0,1-.4-.35l.11.34c-1,0-1.67-.22-1.8-.64l-.39-1.29.32,0A4.6,4.6,0,0,0,183.52,112.88Z"/><path class="cls-16" d="M183.66,114.57a3,3,0,0,0,.55.12c.16.42.34.85.51,1.26-.59,0-1-.2-1.07-.47l-.28-.92-.11-.34A.65.65,0,0,0,183.66,114.57Z"/><path class="cls-17" d="M181.89,108.05c.28.9.56,1.78.86,2.64-1.7.18-2.95,0-3.33-.51-.33-1-.76-2.33-1.23-3.86a42.45,42.45,0,0,1-2-15.32,18.37,18.37,0,0,0,2.32-.29A76.06,76.06,0,0,0,181.89,108.05Z"/><path class="cls-18" d="M176.21,91c.34-4.74,1.65-7.56,2.39-7.78a.78.78,0,0,1,.38,0,25.82,25.82,0,0,0-.45,7.5A18.37,18.37,0,0,1,176.21,91Z"/><path class="cls-16" d="M182.75,110.69c.22.66.45,1.3.68,1.93a9.92,9.92,0,0,1-1.93,0l-.32,0a2,2,0,0,1-1-.39h0a.67.67,0,0,1-.19-.29l-.6-1.93a.91.91,0,0,0,.09.17C179.8,110.7,181.05,110.87,182.75,110.69Z"/><g class="cls-20"><path class="cls-21" d="M127.92,79.91s.42,3.41-.18,4.88l1.28.12,0-5.42Z"/><path class="cls-22" d="M129,84.32a9.85,9.85,0,0,1-1.09,0c-.06,0,0,.1,0,.1l1.09,0A.05.05,0,0,0,129,84.32Z"/><path class="cls-22" d="M129,83.81l-1,0s0,.1,0,.09l1,0C129.05,83.9,129.05,83.81,129,83.81Z"/><path class="cls-22" d="M129,83.37a4.82,4.82,0,0,1-.93,0c-.06,0-.06.09,0,.09a4.13,4.13,0,0,0,.93,0C129,83.46,129,83.36,129,83.37Z"/><path class="cls-22" d="M129.06,82.76c-.32,0-.64.07-1,.08-.06,0,0,.09,0,.09a6.22,6.22,0,0,0,1-.08C129.12,82.84,129.11,82.75,129.06,82.76Z"/><path class="cls-22" d="M129,82.2q-.47,0-.93,0a.05.05,0,0,0,0,.1q.47,0,.93,0A.05.05,0,0,0,129,82.2Z"/><path class="cls-22" d="M129,81.65c-.3,0-.61,0-.91.06-.06,0,0,.1,0,.09a9.08,9.08,0,0,0,.91,0C129,81.74,129,81.65,129,81.65Z"/><path class="cls-22" d="M129,81c-.32,0-.64.07-1,.08,0,0,0,0,0,0h0a.17.17,0,0,0,0,.07h0c.33,0,.65,0,1-.09C129,81.12,129,81,129,81Z"/><path class="cls-22" d="M129,80.41l-.95,0c-.06,0-.05.1,0,.1l1-.06C129.08,80.5,129.07,80.4,129,80.41Z"/><path class="cls-23" d="M149.64,91.85l-23,0a.06.06,0,0,1-.06-.06V87.89a0,0,0,0,1,0,0l23,.06a.06.06,0,0,1,.06,0V91.8A0,0,0,0,1,149.64,91.85Z"/><polygon class="cls-24" points="130.65 91.81 128.22 91.8 128.23 87.84 130.65 87.85 130.65 91.81"/><rect class="cls-24" x="129.5" y="89.56" width="3.96" height="0.54" transform="translate(41.33 221.09) rotate(-89.86)"/><path class="cls-24" d="M133.8,89.84a.69.69,0,1,1-.69-.71A.7.7,0,0,1,133.8,89.84Z"/><path class="cls-25" d="M149.83,87.94l-23.05-.06a0,0,0,0,1,0,0V84.74a.06.06,0,0,1,.06,0l23,.06a0,0,0,0,1,0,0v3.08A.06.06,0,0,1,149.83,87.94Z"/><polygon class="cls-26" points="129.68 85.6 129.68 86.99 130.41 86.37 129.68 85.6"/><polygon class="cls-26" points="130.6 85.74 130.6 86.86 131.19 86.36 130.6 85.74"/><rect class="cls-26" x="126.44" y="86.24" width="3.19" height="0.1" transform="translate(41.44 214.12) rotate(-89.86)"/><rect class="cls-26" x="126.93" y="86.24" width="3.19" height="0.1" transform="translate(41.92 214.6) rotate(-89.86)"/><path class="cls-27" d="M135.84,49.82l-1.68.46.05-.39a11.38,11.38,0,0,0-.16-3.77l.08-.07,1.6-1.16Z"/><polygon class="cls-28" points="145.21 49.99 135.72 49.59 134.12 50.26 144.39 50.72 145.21 49.99"/><path class="cls-29" d="M134.1,50.16a3.92,3.92,0,0,0,.83-.34l.77-.34s.06.11,0,.13l-.82.37a3.5,3.5,0,0,1-.79.31s0-.13,0-.13Z"/><path class="cls-29" d="M135.72,45.07a9.13,9.13,0,0,0-1.7,1.18c-.06,0-.11-.13-.05-.18a9.9,9.9,0,0,1,1.72-1.2C135.75,44.84,135.78,45,135.72,45.07Z"/><path class="cls-30" d="M145.21,45.34l-9.56-.45.06,1.06c0,.86.06,1.72,0,2.57l0,1.07,9.49.4v-.06a17.21,17.21,0,0,0,0-4.59Z"/><path class="cls-31" d="M137.09,45.06c0-.13-.23-.13-.21,0a16.21,16.21,0,0,1-.06,4.29c0,.14.18.19.2,0A16.25,16.25,0,0,0,137.09,45.06Z"/><path class="cls-31" d="M144.06,45.44c0-.13-.23-.12-.21,0a16.21,16.21,0,0,1,0,4.29c0,.14.18.19.2,0A16.24,16.24,0,0,0,144.06,45.44Z"/><path class="cls-32" d="M130.75,55.71l-3.73.62.12-.52a9.5,9.5,0,0,0-.36-5.06l.17-.09,3.56-1.56Z"/><polygon class="cls-33" points="151.57 55.96 130.48 55.41 126.93 56.3 149.76 56.93 151.57 55.96"/><path class="cls-34" d="M126.89,56.16a12.64,12.64,0,0,0,1.84-.44l1.71-.46c.09,0,.13.15,0,.17l-1.84.5a11.57,11.57,0,0,1-1.74.41c-.1,0-.1-.17,0-.18Z"/><path class="cls-34" d="M130.48,49.34a25.1,25.1,0,0,0-3.77,1.58c-.13.07-.25-.17-.12-.24a24.44,24.44,0,0,1,3.83-1.6C130.55,49,130.62,49.3,130.48,49.34Z"/><path class="cls-35" d="M151.58,49.72l-21.24-.62.13,1.42a26.54,26.54,0,0,1,.08,3.45l-.07,1.44,21.09.55,0-.08a13.78,13.78,0,0,0,0-6.16Z"/><path class="cls-36" d="M148.22,84.71l-19.5,0V80l19.51,0,0,.07a8.07,8.07,0,0,1,0,4.62Z"/><polygon class="cls-37" points="133.44 84.67 130.71 84.67 130.72 79.98 133.44 79.99 133.44 84.67"/><path class="cls-32" d="M128.8,75l-3.62-.54.13.41a6.06,6.06,0,0,1-.22,4l.16.07,3.45,1.3Z"/><polygon class="cls-38" points="149.93 75.13 128.54 75.25 125.1 74.5 148.02 74.3 149.93 75.13"/><path class="cls-34" d="M125.07,74.61a13.76,13.76,0,0,1,1.78.38l1.65.38c.09,0,.13-.11,0-.13l-1.79-.42a13.92,13.92,0,0,0-1.68-.35c-.09,0-.09.13,0,.14Z"/><path class="cls-34" d="M128.67,80A26.51,26.51,0,0,1,125,78.71c-.12,0-.23.13-.11.19a29.22,29.22,0,0,0,3.7,1.34A.11.11,0,0,0,128.67,80Z"/><path class="cls-39" d="M149.92,80.27l-21.38,0,.09-1.11a16.35,16.35,0,0,0,0-2.71l-.1-1.15,21.39-.12,0,.07a8.76,8.76,0,0,1,0,5.07Z"/><path class="cls-31" d="M147.86,74.8l-20.26,0a.06.06,0,0,1-.06,0V70a0,0,0,0,1,0,0l20.27,0a.06.06,0,0,1,.06,0v4.75A.06.06,0,0,1,147.86,74.8Z"/><path class="cls-40" d="M150.68,66.52l-25.06-.07a0,0,0,0,1-.05,0V63a.06.06,0,0,1,.06-.06l25.05.06a.06.06,0,0,1,.06.06v3.43A.06.06,0,0,1,150.68,66.52Z"/><path class="cls-41" d="M146.66,63l-16,0V56l16,0,.06.39a21.26,21.26,0,0,1,0,6.22Z"/><polygon class="cls-23" points="135.63 62.95 132.46 62.95 132.47 56.04 135.64 56.05 135.63 62.95"/><polygon class="cls-42" points="134.92 62.95 133.14 62.95 133.15 56.04 134.93 56.05 134.92 62.95"/><polygon class="cls-43" points="130.7 56.03 146.67 56.07 146.89 57.87 130.7 56.41 130.7 56.03"/><path class="cls-44" d="M139.75,47.23a1.09,1.09,0,1,1-1.08-1.1A1.1,1.1,0,0,1,139.75,47.23Z"/><path class="cls-41" d="M128.08,64.65a3.51,3.51,0,0,0-.74-.7c-.11-.08-.22.1-.11.18a3.3,3.3,0,0,1,.64.6,6.85,6.85,0,0,1-.66.66c-.1.09.05.24.15.15a5.6,5.6,0,0,0,.72-.74A.11.11,0,0,0,128.08,64.65Z"/><path class="cls-41" d="M129.3,64.61a3.72,3.72,0,0,0-.6-.59c-.09-.1-.24,0-.14.15a5.94,5.94,0,0,1,.52.49,2.52,2.52,0,0,1-.3.27l-.34.32c-.09.09.05.24.15.15L129,65a1.42,1.42,0,0,0,.3-.3A.11.11,0,0,0,129.3,64.61Z"/><path class="cls-41" d="M130,63.79a.11.11,0,1,0-.15.15c.06.06.17.26,0,.28a.11.11,0,0,0,0,.21.27.27,0,0,0,.22-.28A.48.48,0,0,0,130,63.79Z"/><path class="cls-41" d="M131.13,64.33a.11.11,0,0,0-.12,0,.43.43,0,0,0-.53.1.44.44,0,0,0,0,.54.4.4,0,0,0,.56,0A.49.49,0,0,0,131.13,64.33Zm-.2.46a.19.19,0,0,1-.28,0,.2.2,0,0,1,.26-.3H131A.24.24,0,0,1,130.93,64.79Z"/><polygon class="cls-41" points="145.17 74.81 144.93 74.81 144.94 69.93 145.18 69.93 145.17 74.81"/><polygon class="cls-41" points="146.15 74.81 145.91 74.81 145.91 69.93 146.16 69.93 146.15 74.81"/><path class="cls-45" d="M128.7,80.22l19.6,0a7.44,7.44,0,0,1,.17.8l-19.75-.73Z"/><path class="cls-24" d="M149.38,70l-25.06-.06a.06.06,0,0,1-.06-.05V66.44a0,0,0,0,1,0,0l25.06.06a0,0,0,0,1,.05,0v3.44A0,0,0,0,1,149.38,70Z"/><polygon class="cls-41" points="127.55 68.89 127.17 68.89 127.17 67.44 127.55 67.44 127.55 68.89"/><rect class="cls-41" x="127.83" y="67.98" width="1.45" height="0.38" transform="translate(60.07 196.56) rotate(-89.86)"/><path class="cls-26" d="M150.77,66.45l-25.13,0a.12.12,0,0,1-.11-.15h0l25.18-.17Z"/><path class="cls-46" d="M150.68,66.3l-25.13,0a.11.11,0,0,1-.11-.14h0L150.62,66Z"/><path class="cls-21" d="M129.56,56.55s.74,4.44-.15,6.27l1.28.17V56Z"/></g><polygon class="cls-1" points="174.11 15.14 172.55 21.49 172.73 15.06 166.98 13.88 172.89 13.54 174.47 6.85 174.34 13.63 180.03 14.67 174.11 15.14"/><polygon class="cls-1" points="97.31 51.18 96.73 54.23 96.63 51.18 93.77 50.79 96.66 50.46 97.24 47.25 97.38 50.46 100.2 50.79 97.31 51.18"/></svg>