<svg id="Layer_1" data-name="Layer 1" xmlns="http://www.w3.org/2000/svg" viewBox="0 0 251 151"><defs><style>.cls-1{fill:#e1f1f9}.cls-2{fill:#e84c59}.cls-3{fill:#ee7b5c}.cls-4{fill:#f9c862}.cls-5{fill:#062633}.cls-6{fill:#abaaaa}.cls-7{fill:#e1dfe0}.cls-8{fill:none}.cls-9{fill:#041d26}.cls-10{fill:#6e6e6e}.cls-11{fill:silver}.cls-12{fill:#5e3e21}.cls-13{fill:#783a28}.cls-16{fill:#8f4729}.cls-19{fill:#662f1e}.cls-20{fill:#231d13}</style></defs><path class="cls-1" d="M21.86 120.66l1.17-6.41.21 6.41 5.79.83-5.86.69-1.17 6.76-.28-6.76-5.72-.69 5.86-.83zM228.21 83.06l1.06-5.83.19 5.83 5.26.74-5.32.63-1.06 6.14-.25-6.14-5.2-.63 5.32-.74zM102.64 14.95l-1.88 7.63.23-7.73-6.91-1.41 7.1-.41 1.9-8.03-.16 8.14 6.83 1.24-7.11.57zM50.11 65.98l-.7 3.66-.12-3.66-3.43-.46 3.47-.4.69-3.86.17 3.86 3.39.4-3.47.46z"/><path class="cls-2" d="M128.35 108.34c2.86 3.22 8 9.69 8.64 14.5 1 7.45-4.38 16.93-7.17 20.69.43-5.18-.19-8.73-2.09-10.41-.6-.53-.34 2.47-2.19 4.22a12.29 12.29 0 0 0-2.44-5.16c-1.16-1.73-2.85-5.11-2.83-7.67 0-8.2 5.06-14.59 6-16.08z"/><path class="cls-3" d="M128.35 108.34c1.36 1.3 5.06 6.8 5.21 10.3s-3.95 9.89-5 14.18c-1.12-3.13-1-4.53-2.83-6.65s-1.91-2.52-2.39-4 .18-5.69 1.29-9.28a20 20 0 0 1 1.65-4.41z"/><path class="cls-4" d="M128.35 108.34c1.3 1.77 4.12 7.23 3.38 9.63s-2.3 2.82-3.79 6.49c-.75-1.09-.16-3.91-1.43-4.78-.3 1-.23 1.62-1 2.43.14-1.45-.72-2.76-1-4.54-.28-2.09.66-4.1 1.2-6a12.27 12.27 0 0 0 .53-3.15z"/><path class="cls-5" d="M127.83 109.74c3.7-.23 6.64-1.26 6.58-2.3l.12 1.89c.06 1-2.89 2.07-6.58 2.29s-6.75-.43-6.81-1.48l-.11-1.88c.06 1.04 3.11 1.74 6.8 1.48z"/><path class="cls-5" d="M128 112c2.78-.17 5-1 4.95-1.73l.09 1.42c.05.79-2.17 1.56-4.95 1.73s-5.08-.33-5.13-1.12l-.08-1.42c.01.8 2.31 1.3 5.12 1.12z"/><path class="cls-6" d="M131.32 84a46.77 46.77 0 0 1 3.68 16.35c.24 3.82.41 6.65.41 6.65a31 31 0 0 1-7.6 2.08 32 32 0 0 1-7.74-1.07s-.3-2.79-.54-6.72a45.89 45.89 0 0 1 1.81-16.63 20.76 20.76 0 0 0 5 .27 20.11 20.11 0 0 0 4.98-.93z"/><path class="cls-7" d="M125.8 77.07c.88 0 3.35 2.13 5.52 6.94a20.11 20.11 0 0 1-5 .92 20.76 20.76 0 0 1-5-.27c1.56-4.91 3.68-7.54 4.48-7.59z"/><path class="cls-5" d="M127.68 107.18c4.28-.26 7.7-1.46 7.63-2.66l.13 2.18c.08 1.21-3.34 2.4-7.63 2.66s-7.82-.5-7.9-1.71l-.13-2.19c.07 1.21 3.61 1.98 7.9 1.72z"/><path class="cls-8" d="M121.35 108.81a10.44 10.44 0 0 0 2 .44v.29a4.81 4.81 0 0 1-2-.73zM123.15 111.36l.51.09v.17a2.73 2.73 0 0 1-.51-.26z"/><path class="cls-6" d="M120 108z"/><path class="cls-9" d="M123.42 109.54c.08.65.16 1.29.24 1.91l-.51-.09a.65.65 0 0 1-.34-.47v.39c-1-.27-1.7-.66-1.73-1.14l-.09-1.45.33.12a4.81 4.81 0 0 0 2.1.73z"/><path class="cls-9" d="M123.15 111.36a2.73 2.73 0 0 0 .54.26c.06.49.14 1 .21 1.46-.61-.19-1-.46-1-.77l-.06-1v-.39a.65.65 0 0 0 .31.44z"/><path class="cls-10" d="M122.93 104.05c.07 1 .14 2 .23 3-1.83-.25-3.11-.75-3.36-1.39-.1-1.14-.22-2.65-.32-4.37a46 46 0 0 1 1.8-16.64 17.61 17.61 0 0 0 2.52.29 82.75 82.75 0 0 0-.87 19.11z"/><path class="cls-11" d="M121.28 84.65c1.57-4.9 3.65-7.53 4.49-7.58a.81.81 0 0 1 .4.09 28.56 28.56 0 0 0-2.37 7.78 17.61 17.61 0 0 1-2.52-.29z"/><path class="cls-9" d="M123.16 107.05c.07.74.15 1.47.23 2.2a10.44 10.44 0 0 1-2-.44l-.33-.12a2.24 2.24 0 0 1-1-.68.75.75 0 0 1-.13-.34l-.13-2.19a.46.46 0 0 0 0 .2c.25.62 1.53 1.12 3.36 1.37z"/><path class="cls-2" d="M138.88 111.33c2.68 3.37 7.44 10.11 7.84 15 .62 7.49-5.28 16.66-8.27 20.27.71-5.14.28-8.73-1.52-10.51-.58-.57-.48 2.45-2.42 4.09a12.39 12.39 0 0 0-2.16-5.28c-1.07-1.79-2.56-5.26-2.41-7.81.48-8.18 5.85-14.3 6.9-15.73z"/><path class="cls-3" d="M138.88 111.33c1.3 1.37 4.68 7.06 4.65 10.57s-4.49 9.66-5.75 13.88c-.95-3.18-.77-4.57-2.46-6.79s-1.77-2.62-2.17-4.17.49-5.67 1.8-9.2c1.37-3.7 1.89-4.31 1.89-4.31z"/><path class="cls-4" d="M138.88 111.33c1.21 1.84 3.73 7.45 2.86 9.8s-2.45 2.69-4.14 6.28c-.68-1.14.06-3.91-1.17-4.86-.35 1-.32 1.61-1.1 2.37.22-1.43-.56-2.79-.71-4.58-.18-2.1.87-4.06 1.51-5.91a12.72 12.72 0 0 0 .71-3.12z"/><path class="cls-5" d="M138.29 112.7c3.7 0 6.7-.89 6.69-1.93v1.88c0 1-3 1.91-6.7 1.94s-6.7-.8-6.71-1.85v-1.89c.02 1.05 3.02 1.87 6.72 1.85z"/><path class="cls-5" d="M138.31 115c2.79 0 5-.67 5-1.45v1.42c0 .79-2.25 1.44-5 1.46s-5-.61-5.06-1.39v-1.43c.01.76 2.27 1.39 5.06 1.39z"/><path class="cls-6" d="M143.17 87.2a46.35 46.35 0 0 1 2.77 16.51c0 3.83.05 6.67.05 6.67a30.88 30.88 0 0 1-7.7 1.66 31.9 31.9 0 0 1-7.68-1.49s-.14-2.8-.16-6.74a45.91 45.91 0 0 1 2.7-16.51 21.59 21.59 0 0 0 10-.1z"/><path class="cls-7" d="M138 80c.88 0 3.22 2.31 5.13 7.23a21.59 21.59 0 0 1-10 .1C135 82.49 137.2 80 138 80z"/><path class="cls-5" d="M138.28 110.13c4.29 0 7.77-1 7.76-2.24v2.19c0 1.21-3.47 2.22-7.77 2.25s-7.78-.94-7.79-2.15v-2.19c.01 1.21 3.52 2.17 7.8 2.14z"/><path class="cls-8" d="M131.87 111.42a10.8 10.8 0 0 0 2 .55v.3a4.94 4.94 0 0 1-2-.85zM133.53 114.06l.5.13a.88.88 0 0 1 0 .16 2.47 2.47 0 0 1-.5-.29z"/><path class="cls-6" d="M130.58 110.55z"/><path class="cls-9" d="M133.9 112.27c0 .64.08 1.28.13 1.92l-.5-.13a.63.63 0 0 1-.31-.48v.42c-1-.33-1.66-.76-1.66-1.23v-1.46a2.37 2.37 0 0 0 .32.14 4.94 4.94 0 0 0 2.02.82z"/><path class="cls-9" d="M133.53 114.06a2.47 2.47 0 0 0 .52.29c0 .5.09 1 .14 1.48-.6-.23-1-.52-1-.83v-1.42a.63.63 0 0 0 .34.48z"/><path class="cls-10" d="M133.71 106.75c0 1 0 2 .07 3-1.82-.35-3.07-.91-3.29-1.57 0-1.15-.07-2.65-.08-4.39a45.86 45.86 0 0 1 2.71-16.5 21.5 21.5 0 0 0 2.49.42 82.65 82.65 0 0 0-1.9 19.04z"/><path class="cls-11" d="M133.12 87.3c1.82-4.82 4-7.33 4.89-7.33a.73.73 0 0 1 .39.11 28.83 28.83 0 0 0-2.79 7.64 21.5 21.5 0 0 1-2.49-.42z"/><path class="cls-9" d="M133.78 109.76c0 .75.06 1.48.1 2.21a10.8 10.8 0 0 1-2-.55 2.37 2.37 0 0 1-.32-.14 2.14 2.14 0 0 1-1-.73.77.77 0 0 1-.12-.35V108a.65.65 0 0 0 0 .2c.27.65 1.56 1.21 3.34 1.56z"/><path class="cls-12" d="M95.44 98.65c.15 1.76 0 5.74-4.26 5.54S89 98.37 89 98.37z"/><path class="cls-13" d="M117.05 85.11c-.17.76-.32 1-.48 1.15l-.45.47a4.8 4.8 0 0 1-.89.64c-.29.15-.58.32-.86.45a8.94 8.94 0 0 1-.88.27 26.14 26.14 0 0 0-3.41 1.22 42.26 42.26 0 0 0-6.28 3.51 46.77 46.77 0 0 0-5.43 4.31 18.06 18.06 0 0 0-2.12 2.23c-.3.35-.46.7-.79.86a1.48 1.48 0 0 1-.54.16h-5.38c-1-.13-1.14-.31-1.22-.47s-.23-.34-.33-.52a2.37 2.37 0 0 1-.27-1 6.47 6.47 0 0 1 .16-1.69 7.12 7.12 0 0 1 1.26-2.54 21.29 21.29 0 0 1 3.24-3.63 29.35 29.35 0 0 1 7.56-4.8 34 34 0 0 1 8.39-2.55 35.3 35.3 0 0 1 4.35-.49 5.15 5.15 0 0 1 2.21.28 3.34 3.34 0 0 1 1.1.52c.18.13.36.29.54.43s.35.38.52 1.14z"/><path d="M120 110.57c-.25-.46-5.33 3.54-5.33 3.54a13.17 13.17 0 0 0 2.6 1.18 12.7 12.7 0 0 0-1.41 1.09c-2.67 2.4-3.8 5.49-2.53 6.92.9 1 3.15-1.39 5.51-3.59 1.2-1.11 2.48-2.07 3.35-2.9l1.54-1.38s.09-1.1-2.69-2.31c-.5-.19-.79-2.12-1.04-2.55zm3.2 4.87z" fill="#54371d"/><path d="M122.44 101.85c1.86 1.38 1.51 2.6 1.8 3.87s.33 2.52.41 3.77.11 2.51.11 3.76v1.87a5.74 5.74 0 0 1 0 .93 1.43 1.43 0 0 1-.88.88l-10.94-.75a1.45 1.45 0 0 1-.75-1 5.86 5.86 0 0 1 .09-.93l.25-1.86c.16-1.23.36-2.47.62-3.7s.58-2.46.92-3.68.28-2.48 2.31-3.59z" fill="#6d3325"/><path class="cls-12" d="M129.39 109.84c-.38-.35-3.78 5.15-3.78 5.15a13.18 13.18 0 0 0 2.85.22 11.77 11.77 0 0 0-1 1.51c-1.68 3.17-1.68 6.46 0 7.36 1.19.63 2.48-2.39 3.94-5.27.74-1.45 1.61-2.79 2.14-3.88l1-1.82s-.29-1.06-3.32-1.24c-.52 0-1.44-1.68-1.83-2.03zm4.69 3.47z"/><path class="cls-13" d="M133.06 101.85c1.86 1.38 1.51 2.6 1.8 3.87s.33 2.52.41 3.77.11 2.51.11 3.76v1.87a5.74 5.74 0 0 1 0 .93 1.43 1.43 0 0 1-.88.88l-10.94-.75a1.45 1.45 0 0 1-.75-1 5.86 5.86 0 0 1 .09-.93l.25-1.86c.16-1.23.36-2.47.62-3.7s.58-2.46.92-3.68.28-2.48 2.31-3.59z"/><path class="cls-16" d="M112.84 71.11a14.09 14.09 0 1 0 16.22-11.56 14.09 14.09 0 0 0-16.22 11.56z"/><path class="cls-16" d="M106.59 102.14l-.24 4.15c-.27 4 6.84 5 15.76 5.47 7.69.43 16.65 1.34 17-4.34 1.9-14.8-1.5-27.49-14.36-28.23-12.74-.73-16.68 7.85-17.83 18a.59.59 0 0 0 0 .19v.59c-.22 1.31-.3 2.71-.33 4.17z"/><path d="M115.2 91c1.53-.06 3.13-1.77 5.3-2.36 3-.83 4.32-3.22 3.87-2.13s.33 1.86.38 1.7-.35.1.33-1.54 3-1.9 5.29-4.5a19.69 19.69 0 0 0 2.17-3 7.5 7.5 0 0 1-.19 1.48c5.61-9.25 3.42-16 3-16.56a3.71 3.71 0 0 1 1.32 1.23c-.32-3.47-2.37-4.38-2.68-4.53a2 2 0 0 1 1.68.1c-.55-1.63-1.23-2.78-2.81-3.27a1.63 1.63 0 0 0-1.6.42 2.92 2.92 0 0 0-.94-4.05c.24 3.52-.1 2.79-.23 2.87s-1.21-2.06-2.74-2.66a1.79 1.79 0 0 1 .53 1.18c-1.38-1.16-2.83-2.67-6.8-1.38a4.46 4.46 0 0 1 2.16 1.36 12.6 12.6 0 0 0-10.1 6.09c.31-.07 2-.57 2.1-.34-1.24.51-5.4 2.37-6.61 14 .24-.56 1-1.75 1.3-1.64-.69.9-.74 4.17 1.39 7.78 2.92 4.88 4.05 7.42 3.88 9.75z" fill="#dcb680"/><path class="cls-12" d="M114 68.31c1.63-5.19 6.19-8.42 9.89-7.25s5.39 6.31 3.76 11.5a11.88 11.88 0 0 1-5 6.63c-2.34 1.45-4.29 2.64-5.15 4.56.23-3-1.39-4.36-3-7a10.82 10.82 0 0 1-.5-8.44z"/><path d="M114.14 67.92c-1.59 5-.23 10 3.66 11.26s9.32-1.76 10.91-6.79-.28-10.08-4.18-11.29-8.81 1.79-10.39 6.82z" fill="#c69666"/><path class="cls-19" d="M119.55 68.22a7.81 7.81 0 0 0-1.3-1 3.51 3.51 0 0 0-1.56-.6 3.7 3.7 0 0 1 1.69.36 7.52 7.52 0 0 1 1.53.87zM122.05 68.37a9 9 0 0 1 1.78.56 3.77 3.77 0 0 1 1.46 1.07 3.67 3.67 0 0 0-1.56-.82 8 8 0 0 0-1.74-.26z"/><path class="cls-20" d="M121.92 69.39l1.77.49-1.82-.13.05-.36zM119.2 68.81l-.87-.68a6.42 6.42 0 0 0-.93-.6 6.26 6.26 0 0 1 1 .44l1 .53z"/><path d="M121.37 71.41a1.53 1.53 0 0 1-.82 1.4 2.12 2.12 0 0 1-1.69.12 1.66 1.66 0 0 1-1.21-1.18 1.56 1.56 0 0 1 .38-1.57 1.33 1.33 0 0 0-.24.74 1.74 1.74 0 0 0 .11.75 1.55 1.55 0 0 0 1.06.93 2.07 2.07 0 0 0 1.47 0 1.6 1.6 0 0 0 .94-1.19z" fill="#574c3e"/><path class="cls-20" d="M120.7 75.48c-.21.18-.44.33-.67.5a3.87 3.87 0 0 1-.78.32 2.11 2.11 0 0 1-1.74-.22 2.76 2.76 0 0 1-1.07-1.35 4 4 0 0 1-.31-1.63 10.69 10.69 0 0 0 .67 1.45 3.17 3.17 0 0 0 1 1.09 2 2 0 0 0 1.38.26 5.14 5.14 0 0 0 .76-.16c.24-.08.49-.19.76-.26z"/><path d="M125.78 61.66a7 7 0 0 0-3-.88c-2.76-.15-5.37 2-6 2.62a2.92 2.92 0 0 1 2.19.68c.1.1.2.2.31.29l1.8-2-.75 2.93c3.59 2.69 9.18.72 8.93 4.24.23-3.33-1.11-6.5-3.5-7.89" fill="#442c1a"/><path class="cls-12" d="M163.35 72.18c.74-1.9 2-7.91-2.66-8.6s-3.51 3.15-3.43 4.21a4.88 4.88 0 0 1-1 3.31z"/><path class="cls-13" d="M130 89.65a2 2 0 0 1 .29-1.28c.15-.19.3-.4.45-.58a5.15 5.15 0 0 1 1-.87 7.94 7.94 0 0 1 2.07-1.13c1.43-.55 2.83-1.18 4.2-1.82a84.55 84.55 0 0 0 7.85-4.23 41 41 0 0 0 6.53-4.93 15.81 15.81 0 0 0 2.29-2.67 7.39 7.39 0 0 1 .91-1.3 6.06 6.06 0 0 1 .69-.6 2.09 2.09 0 0 1 .56-.27l.43-.13c.1 0 .31-.08 1.31 0l3.3.59c.94.28 1.11.45 1.17.58l.3.45a2.41 2.41 0 0 1 .29.87 8.07 8.07 0 0 1-.08 1.63 8.58 8.58 0 0 1-1.21 2.9 21.2 21.2 0 0 1-3.7 4.56 25.72 25.72 0 0 1-4.38 3.27 36 36 0 0 1-4.62 2.37 54.5 54.5 0 0 1-9.51 3.06c-1.59.39-3.19.7-4.78 1a7.27 7.27 0 0 1-2.47.12 4.6 4.6 0 0 1-1.39-.24c-.23-.09-.46-.2-.69-.3s-.48-.29-.85-1z"/><path d="M154.63 61.66c-4.52.88-4.41 8.19-1.24 8.84 3.52.71 6.79.16 7.36-2.14s-1.09-7.68-6.12-6.7z" fill="#bdbbbb"/></svg>