<svg id="Layer_1" data-name="Layer 1" xmlns="http://www.w3.org/2000/svg" viewBox="0 0 251 151"><defs><style>.cls-1{fill:#e1f1f9}.cls-2{fill:#5e3e21}.cls-5{fill:#783a28}.cls-6{fill:#8f4729}.cls-8{fill:#e84c59}.cls-9{fill:#ee7b5c}.cls-10{fill:#f9c862}.cls-11{fill:#062633}.cls-14{fill:none}.cls-15{fill:#abaaaa}.cls-16{fill:#041d26}.cls-17{fill:#6e6e6e}.cls-18{fill:silver}.cls-21{fill:#111212}.cls-22{fill:#fdfdf4}.cls-23{fill:#272022}.cls-24{fill:#efede8}.cls-35{fill:#0f100f}.cls-36{fill:#121413}.cls-37{fill:#121313}</style></defs><path class="cls-1" d="M32.05 37.97l.85-4.7.16 4.7 4.24.6-4.29.51-.86 4.95-.2-4.95-4.2-.51 4.3-.6zm152.15-6.29l.04-.15-.01.15.14.03-.14.01-.04.16v-.16l-.13-.03.14-.01zm32.96 108.36l-.56 2.96-.1-2.96-2.77-.37 2.81-.32.56-3.12.13 3.12 2.74.32-2.81.37z"/><path class="cls-2" d="M69.94 81.12C67 81 66.62 82 66.62 82l.76 1.85c.42 1.09 1.14 2.46 1.71 3.93 1.14 2.91 2.11 5.94 3.32 5.44 1.71-.71 2-3.89.68-7.09a11.22 11.22 0 0 0-.78-1.55c.85-.31 1.17-.87 1.77-1.91 0 0-1.77-3.65-2.17-3.35s-1.45 1.85-1.97 1.8zm-2.87 1.12z"/><path d="M82.48 84.9c-2.9.48-3.07 1.54-3.07 1.54l1.12 1.65c.62 1 1.61 2.19 2.47 3.52 1.7 2.61 3.26 5.38 4.34 4.65 1.53-1 1.19-4.21-.76-7.09a13.52 13.52 0 0 0-1.07-1.35 12.86 12.86 0 0 0 2.72-.51s-3.85-4.94-4.18-4.56-1.05 2.09-1.57 2.15zm-2.58 1.68z" fill="#54371d"/><path d="M78.25 71.91a3.67 3.67 0 0 1 1.18 2.22c0 .63 0 1.24-.05 1.86-.07 1.24-.15 2.47-.32 3.68s-.36 2.4-.61 3.58L78.07 85a5 5 0 0 1-.22.87 1.43 1.43 0 0 1-1.08.64l-11.26-3.19a1.48 1.48 0 0 1-.59-1.11 5.39 5.39 0 0 1 .28-.86l.62-1.71c.41-1.13.86-2.26 1.37-3.37s1.08-2.2 1.67-3.28c.32-.54.61-1.08 1-1.61A3.65 3.65 0 0 1 72 70.12z" fill="#6d3325"/><path class="cls-5" d="M89.12 73.78a3.63 3.63 0 0 1 1.45 2c.1.62.13 1.23.2 1.85.09 1.24.17 2.47.16 3.69s-.05 2.43-.14 3.63l-.15 1.81a4.51 4.51 0 0 1-.1.9 1.46 1.46 0 0 1-1 .77L78 86.75a1.46 1.46 0 0 1-.73-1 5.18 5.18 0 0 1 .16-.89l.4-1.77c.26-1.18.56-2.36.92-3.53s.78-2.32 1.23-3.47c.25-.57.46-1.15.73-1.72a3.67 3.67 0 0 1 2-1.53z"/><path class="cls-2" d="M109.79 66.53c3.06-1.09 5.49-2.51 7-2.2s2 1.56.63 3-2.42 3.97-3.3 4.17c-1.15.27-3.37.74-4 .06s-1.82-4.67-1.82-4.67z"/><path class="cls-6" d="M95.5 71.54l.09-.56a.61.61 0 0 0 0-.19C96.64 61 94.72 52 82.53 50 70.22 48 64.34 59.3 63 73.69c-.87 5.43 7.79 6.47 15.15 7.68 8.54 1.4 15.45 2 16-1.84l.65-4c.32-1.36.54-2.7.7-3.99z"/><path class="cls-6" d="M96.84 41.2a13.64 13.64 0 1 1-17.6-7.9 13.65 13.65 0 0 1 17.6 7.9z"/><path d="M88 57.66c0 .58-.07.82.07 1-.44-.34-.46-1-.54-2.78a17.27 17.27 0 0 1 .4-3.91c2.29-10.73 2.77-12.49 3.07-12.8-.1 0-.26-.27-.63.21a21.82 21.82 0 0 1 2.06-5.86c-.19-.18-.48 0-.67 0 .67-1.23 1-1.58 1.65-1.75a1.32 1.32 0 0 1 .77.13c0-.71 1.81-2.44 2.78-2.87-1.18 3-.86 2.51-.84 2.64s1-1.36 1.6-1.29a2.15 2.15 0 0 0-.52.84c.75-.48 1.78 0 2.33 1.46-.47-.22-.8.22-1 .36.13.22 4.83-2-1.91 23.33a5.36 5.36 0 0 0-.11-2c-.09 1 .39 3.14-1.48 5.46a8.07 8.07 0 0 1-2.59 1.81c.4-.57.6-.74.56-.92s-1.39 1.07-2.79 1a7.73 7.73 0 0 0 1-1.37c-.12.28-1.21.45-1.42.54A4.85 4.85 0 0 1 88 57.66z" fill="#dcb680"/><path class="cls-5" d="M85.12 60.75c.53-.63.79-.78 1-.84s.43-.14.64-.19a3.63 3.63 0 0 1 1.11-.08 6.25 6.25 0 0 1 1 .11 5.06 5.06 0 0 1 .88.3c.55.24 1.12.46 1.68.66s1.13.42 1.68.6a56.15 56.15 0 0 0 6.56 1.84 43.51 43.51 0 0 0 6.23.86l.76.07h.75c.51 0 1 .06 1.52 0a3.59 3.59 0 0 1 2.38.46 1.57 1.57 0 0 1 .48.44l.27.37a.75.75 0 0 1 .16.29v.17l.06.21s0 .16.08.27l.09.33.65 3.44v1.01a.61.61 0 0 1-.07.33l-.18.44a1.68 1.68 0 0 1-.44.57 5.43 5.43 0 0 1-1 .63 6 6 0 0 1-2.12.41c-.72.08-1.44.07-2.16.08h-1.08l-1.08-.08A26.44 26.44 0 0 1 97 71.33a39.58 39.58 0 0 1-7-4c-1.07-.73-2.09-1.52-3.1-2.25a4.22 4.22 0 0 1-.73-.61 6.12 6.12 0 0 1-.61-.79 3.59 3.59 0 0 1-.49-1c-.06-.2-.1-.43-.16-.64a2.23 2.23 0 0 1 .2-1.29z"/><path class="cls-8" d="M61.71 81.25c-3.38 2.44-9.58 7.48-11.22 11.89-2.54 6.83.57 16.93 2.42 21.07.67-5 2-8.21 4.17-9.4.68-.38-.21 2.41 1.18 4.45a12.14 12.14 0 0 1 3.39-4.37c1.47-1.38 3.77-4.23 4.3-6.65 1.69-7.76-1.72-14.87-2.32-16.48z"/><path class="cls-9" d="M61.71 81.25c-1.56.94-6.21 5.36-7.1 8.64s1.66 10.18 1.73 14.46c1.72-2.73 1.92-4.07 4.08-5.69s2.34-2 3.11-3.33 1-5.42.73-9a19.15 19.15 0 0 0-.63-4.52z"/><path class="cls-10" d="M61.71 81.25c-1.6 1.4-5.42 6-5.22 8.39s1.57 3.15 2.21 6.94c.94-.88 1-3.67 2.37-4.22a4.57 4.57 0 0 0 .4 2.5c.18-1.4 1.26-2.46 1.87-4.1.71-1.9.24-4 .13-5.9a12.29 12.29 0 0 1 .16-3.1z"/><path class="cls-11" d="M61.91 82.67c-3.45-1-6-2.58-5.74-3.55l-.51 1.76c-.28 1 2.29 2.56 5.74 3.55s6.47 1 6.75 0l.5-1.76c-.28 1.01-3.3 1-6.74 0z"/><path class="cls-11" d="M61.3 84.79c-2.6-.74-4.53-1.94-4.32-2.67l-.38 1.32c-.21.73 1.72 1.93 4.32 2.68s4.87.76 5.08 0l.38-1.33c-.21.76-2.49.75-5.08 0z"/><path d="M64 57.61a45.11 45.11 0 0 0-6.91 14.68c-1 3.57-1.78 6.21-1.78 6.21a29.79 29.79 0 0 0 6.74 3.56 31.08 31.08 0 0 0 7.55.62s.87-2.57 1.92-6.24a44.45 44.45 0 0 0 1.8-16.11 20 20 0 0 1-4.75-.79A19.82 19.82 0 0 1 64 57.61z" fill="#9f9f9f"/><path d="M70.71 52.21c-.82-.24-3.61 1.31-6.68 5.4a19.82 19.82 0 0 0 4.57 1.93 20 20 0 0 0 4.75.79c-.44-4.97-1.86-7.9-2.64-8.12z" fill="#d3d2d2"/><path class="cls-11" d="M62.59 80.29c-4-1.16-7-3-6.65-4.13l-.59 2C55 79.33 58 81.18 62 82.33s7.5 1.17 7.83 0l.58-2c-.31 1.12-3.82 1.11-7.82-.04z"/><path class="cls-14" d="M68.24 83.16a10.61 10.61 0 0 1-2 0l-.09.27a4.75 4.75 0 0 0 2.09-.27zM66 85.19h-.51l-.06.15a2.5 2.5 0 0 0 .57-.15z"/><path class="cls-16" d="M66.12 83.42l-.63 1.76H66a.64.64 0 0 0 .41-.37l-.1.37c1 0 1.74-.27 1.87-.72l.39-1.35h-.33a4.75 4.75 0 0 1-2.12.31z"/><path class="cls-16" d="M66 85.19a2.5 2.5 0 0 1-.57.14l-.51 1.34c.62-.06 1-.23 1.11-.52l.28-1 .1-.37a.64.64 0 0 1-.41.41z"/><path class="cls-17" d="M67.73 78.33c-.27.94-.55 1.87-.84 2.78 1.78.16 3.09 0 3.48-.6.33-1.06.75-2.46 1.22-4.07a44.61 44.61 0 0 0 1.79-16.11 16.64 16.64 0 0 1-2.38-.26 80.36 80.36 0 0 1-3.27 18.26z"/><path class="cls-18" d="M73.38 60.33c-.44-5-1.86-7.89-2.64-8.12a.89.89 0 0 0-.4 0 27.58 27.58 0 0 1 .66 7.86 16.64 16.64 0 0 0 2.38.26z"/><path class="cls-16" d="M66.89 81.11c-.22.69-.45 1.37-.68 2a10.61 10.61 0 0 0 2 0h.33a2.31 2.31 0 0 0 1.09-.43.66.66 0 0 0 .2-.3l.59-2a.76.76 0 0 1-.09.18c-.33.51-1.66.71-3.44.55z"/><path class="cls-8" d="M66.5 83.83c-3.33 2.52-9.42 7.71-11 12.15-2.38 6.89 1 16.91 2.91 21 .56-5 1.82-8.25 3.94-9.49.68-.4-.14 2.41 1.29 4.42a12.09 12.09 0 0 1 3.36-4.44c1.44-1.42 3.67-4.31 4.14-6.75 1.51-7.79-2.06-14.82-2.7-16.42z"/><path class="cls-9" d="M66.5 83.83c-1.55 1-6.09 5.51-6.9 8.8s1.89 10.15 2.06 14.42c1.66-2.77 1.82-4.11 3.94-5.78s2.29-2 3-3.4.9-5.45.52-9.07a19 19 0 0 0-.74-4.5z"/><path class="cls-10" d="M66.5 83.83c-1.58 1.44-5.29 6.09-5 8.52s1.66 3.11 2.38 6.88c.92-.9.89-3.69 2.27-4.28a4.61 4.61 0 0 0 .46 2.49c.14-1.4 1.2-2.48 1.77-4.13.67-1.93.15-4 0-5.91a12.46 12.46 0 0 1 .09-3.1z"/><path class="cls-11" d="M66.72 85.25c-3.47-.91-6.07-2.44-5.82-3.42l-.46 1.77c-.26 1 2.35 2.51 5.82 3.43s6.49.85 6.74-.13l.47-1.77c-.26.98-3.28 1.04-6.75.12z"/><path class="cls-11" d="M66.16 87.39c-2.61-.69-4.57-1.84-4.38-2.58l-.35 1.33c-.19.74 1.77 1.89 4.38 2.58s4.89.65 5.08-.09l.35-1.33c-.19.7-2.47.77-5.08.09z"/><path class="cls-15" d="M68.26 60.15A45.18 45.18 0 0 0 61.7 75c-1 3.59-1.64 6.25-1.64 6.25a29.58 29.58 0 0 0 6.82 3.4 31 31 0 0 0 7.57.45s.8-2.59 1.77-6.29a44.22 44.22 0 0 0 1.42-16.14 20.14 20.14 0 0 1-4.76-.67 19.78 19.78 0 0 1-4.62-1.85z"/><path d="M74.81 54.59c-.82-.21-3.57 1.4-6.55 5.56A19.78 19.78 0 0 0 72.88 62a20.14 20.14 0 0 0 4.76.68c-.56-4.99-2.04-7.88-2.83-8.09z" fill="#e1dfe0"/><path class="cls-11" d="M67.35 82.85c-4-1.06-7-2.83-6.75-4l-.54 2.06c-.3 1.13 2.73 2.91 6.75 4s7.53 1 7.83-.15l.54-2.05c-.3 1.13-3.8 1.2-7.83.14z"/><path class="cls-14" d="M73.06 85.6a11 11 0 0 1-2 0l-.06.3a4.87 4.87 0 0 0 2.06-.3zm-2.19 2.08h-.51a1 1 0 0 0 0 .16 3 3 0 0 0 .51-.16z"/><path class="cls-16" d="M71 85.9c-.19.6-.39 1.19-.59 1.77h.51a.63.63 0 0 0 .4-.38l-.09.36c1 0 1.74-.31 1.86-.75l.35-1.37-.33.06a4.87 4.87 0 0 1-2.11.31z"/><path class="cls-16" d="M70.87 87.68a3 3 0 0 1-.56.15l-.48 1.35c.61-.07 1-.26 1.09-.55l.26-1 .09-.36a.63.63 0 0 1-.4.41z"/><path class="cls-17" d="M72.45 80.77c-.25 1-.51 1.89-.78 2.81 1.78.11 3.09-.12 3.46-.68.31-1.07.7-2.48 1.12-4.1a44.55 44.55 0 0 0 1.43-16.15 19.38 19.38 0 0 1-2.44-.2 80.28 80.28 0 0 1-2.79 18.32z"/><path class="cls-18" d="M77.68 62.65c-.56-5-2.05-7.85-2.83-8a.89.89 0 0 0-.4 0 28.05 28.05 0 0 1 .79 7.85 19.38 19.38 0 0 0 2.44.15z"/><path class="cls-16" d="M71.67 83.58c-.21.69-.42 1.38-.63 2a11 11 0 0 0 2 0l.33-.06a2.13 2.13 0 0 0 1.08-.45.7.7 0 0 0 .19-.3l.54-2.06a.46.46 0 0 1-.08.19c-.34.56-1.65.79-3.43.68z"/><g opacity=".2"><path class="cls-21" d="M117.2 121.06a1.33 1.33 0 0 0 .62-.18l-.28 1.13c-.05.19-.15 0-.23 0a1.22 1.22 0 0 0-1.27 1.07 3.59 3.59 0 0 1-.7 1.27c-.2.29-.54.31-.78.52a2.51 2.51 0 0 0-.54.63c-.15.25-.27.52-.4.78a1.42 1.42 0 0 0 0 1.33 1.7 1.7 0 0 0 1.07.75.7.7 0 0 0 .66-.25c.6-.6 1.31-1.08 1.88-1.72a2.49 2.49 0 0 1 .43-.36.45.45 0 0 1 .56-.06 1.84 1.84 0 0 0 1.27.12h.28a.85.85 0 0 0 .49-.49c-.11-.15-.24 0-.35 0a2.37 2.37 0 0 1-1.18.15 1.92 1.92 0 0 1-1.47-1.37c0-.1 0-.27-.12-.26s-.1.19-.1.3a1.6 1.6 0 0 0 .34 1c.18.25.17.24-.06.42a5.56 5.56 0 0 0-1.13 1.09.89.89 0 0 1-.34.27 1.48 1.48 0 0 0-.6.51.9.9 0 0 1-.32.26.28.28 0 0 1-.36 0c-.06-.06-.1-.14-.18-.16-.36-.08-.44-.36-.51-.65a.38.38 0 0 1 .09-.41.36.36 0 0 1 .44-.06c.15.08.23 0 .25-.12s.16-.43.2-.66a.07.07 0 0 0-.1 0c-.13.07-.16.2-.21.32s-.1.2-.25.16-.19 0-.3 0a.61.61 0 0 1 .4-.35c.11 0 .28-.09 0-.22s0-.12 0-.16a1.14 1.14 0 0 1 .65-.47.67.67 0 0 0 .43-.3 7.31 7.31 0 0 1 .48-.62 1.8 1.8 0 0 0 .34-.76 1.29 1.29 0 0 1 .37-.71.46.46 0 0 1 .66-.09c.25.14.3.12.41-.16a8.22 8.22 0 0 0 .29-1c.1-.44.2-.88.34-1.31 0-.09.12-.22 0-.29s-.2.05-.29.1a3.8 3.8 0 0 0-.48.42.58.58 0 0 1-1-.09.32.32 0 0 0-.1-.1c-.12-.07-.27-.12-.27-.27a2.23 2.23 0 0 1 .05-.68.21.21 0 0 1 0-.06c.06 0 .1-.17.19-.09s0 .15 0 .21a.73.73 0 0 0-.09.08c-.09.1-.07.16.06.17.23 0 .24 0 .14.25s-.07.13 0 .19.11 0 .16 0a1.49 1.49 0 0 0 .41-.22c.12-.13.24-.24.21-.44a.17.17 0 0 1 0-.12.72.72 0 0 0-.16-.84.2.2 0 0 1 .11-.32c.45-.15.62-.59 1-.86a.69.69 0 0 0 .17-.27.83.83 0 0 1 .12-.27c0-.07.08-.2.19-.15s.07.16.06.24c-.12.81-.27 1.61-.41 2.41a1 1 0 0 0 0 .24v.15c0 .02.1 0 .14-.08a1 1 0 0 0 .1-.17.26.26 0 0 1 .31-.18.34.34 0 0 0 .35-.22.64.64 0 0 0 .07-.33 13.65 13.65 0 0 0-.29-2.92 5.42 5.42 0 0 0-.16-1.55.61.61 0 0 1 .06-.37 3.06 3.06 0 0 1 1.1-1.65c.14-.11.23-.28.34-.34a2.48 2.48 0 0 0-.73 1.11.45.45 0 0 0 0 .16c0 .12 0 .24.09.31a.24.24 0 0 0 .3 0 2.72 2.72 0 0 1 .58-.37.53.53 0 0 0 .26-.25 5.71 5.71 0 0 0 .56-1 4.93 4.93 0 0 1 1.19-1.71c.39-.42.81-.82 1.2-1.18a1.75 1.75 0 0 0-.32.47.75.75 0 0 1-.29.27 2.23 2.23 0 0 0-.82 1 .66.66 0 0 0 .21.88c.08.06.06.12 0 .19a2.09 2.09 0 0 0-.13.35.15.15 0 0 0 0 .18.16.16 0 0 0 .2 0c.07 0 .12-.12.2-.15s-.1.21 0 .26.18-.08.22-.16a1.6 1.6 0 0 1 .45-.55.52.52 0 0 0 .37-.63 1.7 1.7 0 0 1 .79-1.41.37.37 0 0 0 .18-.33.44.44 0 0 1 .21-.37.32.32 0 0 0 .15-.44.82.82 0 0 1 .31-.88c.62-.43 1.21-.9 1.79-1.39a2.35 2.35 0 0 0 .5-.67c.17-.31.31-.63.46-1a4.23 4.23 0 0 1 1.63-1.87c.06 0 .13-.08.17-.16s-.06-.11-.12-.09a.85.85 0 0 1-.5-.07 7.41 7.41 0 0 0-2-.34 5.35 5.35 0 0 1-2.06-.69 3.87 3.87 0 0 1-1.32-1 1.34 1.34 0 0 1 .39-2.22 7.72 7.72 0 0 1 1.65-.7 16.29 16.29 0 0 0 3-1.24l.23-.14a.4.4 0 0 0 .23-.43 8.39 8.39 0 0 1 0-1.12.17.17 0 0 0-.06-.16c-.11.05-.2.05-.25-.08a.43.43 0 0 0 0-.07 3.14 3.14 0 0 0-1.21-1.32 4.32 4.32 0 0 1-.92-1.08.71.71 0 0 1-.09-.28c-.07-.41.1-.62.51-.65a4.13 4.13 0 0 1 1.35.24 7.69 7.69 0 0 1 1.64.84c.13.07.1.14 0 .23a2.94 2.94 0 0 0-.43.57s-.06.11 0 .15.09 0 .13 0c.29-.36.65-.67 1-1a7.14 7.14 0 0 1 1.23-1 2 2 0 0 1 1.23-.49c.26 0 .4-.22.59-.33a.45.45 0 0 1 .26-.09.38.38 0 0 0-.21.05c-.25.18-.25.18 0 .44v.15c0 .05 0 .17.11.14a1.31 1.31 0 0 0 .54-.14 1 1 0 0 1 .71-.06c.19-.11.44-.15.48-.43-.13-.07-.2 0-.28.09s-.24.15-.29-.07a.14.14 0 0 0-.17-.12 2 2 0 0 1 .95 0 .58.58 0 0 0 .34 0 7.81 7.81 0 0 1 1-.25 1.47 1.47 0 0 1 1.29.3 3 3 0 0 1 .92 1 .59.59 0 0 1-.12.78c.06 0 .05-.09 0-.15a2.29 2.29 0 0 1-.29-.18.49.49 0 0 0-.31-.14 6.27 6.27 0 0 1-1.48-.42c-.11 0-.27-.15-.32 0s.14.15.24.19l.52.23c.46.2.55.36.5.86 0 .32 0 .32.06.53a.56.56 0 0 1-.09-.42s0-.14-.12-.1a.41.41 0 0 0 0 .48c.12.28.25.55.36.84a2.88 2.88 0 0 1-.25 2.74 2.13 2.13 0 0 1-.93.83c.06.11.06.11.32.06-.28.31-.48.64-.74.92a1.59 1.59 0 0 0-.25.33s-.23.19.05.19c.07 0 0 .12 0 .19 0 .31.2.47.48.39.06 0 .12 0 .13-.1s-.05-.08-.09-.1c-.23-.07-.22-.24-.19-.42a.27.27 0 0 1 .31-.25 2.66 2.66 0 0 0 1.38-.58.6.6 0 0 0 .21-.21c0-.07.06-.15-.06-.16a1.14 1.14 0 0 1-.53.33.94.94 0 0 0-.32.23c-.07.06-.16.13-.23 0s0-.16.09-.2a.13.13 0 0 0 .07-.14c0-.22.08-.21.23-.16s.21 0 .25-.1 0-.07.06-.08c.24-.07.17-.23.1-.39s-.05-.21.15-.18.18 0 .22-.08.06-.09.11 0 0 .09 0 .13-.18.24 0 .33c.11-.18.27-.34.2-.58 0-.07 0-.12.08-.17.34-.51.78-.94 1.1-1.47a3.09 3.09 0 0 0 .39-.87 1.31 1.31 0 0 1 .27-.54c.33-.37.62-.77.91-1.16 0-.11.1-.07.15 0a.56.56 0 0 1 .27.3A3.12 3.12 0 0 1 143 94a8.39 8.39 0 0 0-.3 1.12 6.71 6.71 0 0 1-1.11 2.18c-.38.51-.66 1.1-1 1.62a.25.25 0 0 0 0 .24 7.54 7.54 0 0 0 .93-1.16c0 .81-.09 1.62-.19 2.41a.66.66 0 0 0 .22.64 7.55 7.55 0 0 1 1.11 1.57c.05.09.11.27.22.22s0-.21 0-.3a7.87 7.87 0 0 0-.9-1.53.44.44 0 0 0-.13-.14.28.28 0 0 1-.11-.33 5.41 5.41 0 0 0 .12-.9c0-.16.08-.19.23-.14a1.19 1.19 0 0 1 .67.42.26.26 0 0 0 .3.11c1.12-.28 2.27-.41 3.4-.62a4.78 4.78 0 0 0 2.45-1.24 7.23 7.23 0 0 1 2.44-1.6 1.19 1.19 0 0 1 .38-.11c-.26.13-.53.23-.79.36a5.65 5.65 0 0 0-.58.36c-.06 0-.16.12-.1.2s.13 0 .19 0a8.29 8.29 0 0 1 1.49-.6.44.44 0 0 1 .26 0 .51.51 0 0 0 0 .4 1 1 0 0 1 0 .35.31.31 0 0 1-.31.29 4.69 4.69 0 0 0-1.15.27 1.78 1.78 0 0 0-.43.23c-.06 0-.12.09-.09.16s.12 0 .18 0a6.21 6.21 0 0 1 1.36-.21 1.18 1.18 0 0 1 .61 0c-.23.14-.22.35-.23.57a.87.87 0 0 1-.65.83 8.26 8.26 0 0 0-1.44.52 1 1 0 0 1-.53 0c-.08 0-.19 0-.21.07s.09.1.16.13h.09c.11 0 .26.06.28.21s-.13.22-.24.28a2 2 0 0 1-.72.19.57.57 0 0 0-.34.16 2.47 2.47 0 0 1-1.28.66 3.35 3.35 0 0 0-1 .47l-1.22.7a.71.71 0 0 1-.25.11c-.06-.08 0-.19 0-.28a2.93 2.93 0 0 0-.49-1.46 1 1 0 0 0-.2-.24 2 2 0 0 1-.43-.48.54.54 0 0 0-.41-.29 3.14 3.14 0 0 0 .37.68 3 3 0 0 1 .68 2.58 4.84 4.84 0 0 0 0 1.82 2.31 2.31 0 0 0 .2.63.28.28 0 0 1-.05.35 7.79 7.79 0 0 0-1.64 3 .41.41 0 0 1-.3.32c-.8.3-1.6.62-2.4 1a5.35 5.35 0 0 0-1 .59c-.06 0-.16.11-.12.2s.15 0 .22 0c.95-.47 2-.77 2.92-1.2a3.32 3.32 0 0 1 1.21-.21l2.09-.13a5.08 5.08 0 0 0 1.72-.49 1.31 1.31 0 0 1 .93-.09.94.94 0 0 0 .44 0 4.8 4.8 0 0 1 1.81-.08.89.89 0 0 1 .62.34c-.2 0-.35-.06-.51-.08a3.69 3.69 0 0 0-.81-.06c-.1 0-.26 0-.26.1s.15.09.24.09a4.94 4.94 0 0 1 1.26.25c.21.08.4.19.44.42s-.45.39-.64.38a2.36 2.36 0 0 1-.38-.1 3.07 3.07 0 0 0-.95-.13.31.31 0 0 0-.26.07.08.08 0 0 0 0 .1c.11.09.24.07.37.1a3.71 3.71 0 0 1 1.4.52c.23.14.23.17.06.36a1.08 1.08 0 0 0-.12.24 2.11 2.11 0 0 1-.66.85c-.15.1-.26.09-.35-.08a1.76 1.76 0 0 0-1.14-.85h-.09c-.1 0-.24-.06-.27 0s.12.12.2.15a1.69 1.69 0 0 1 1 1c.06.13.06.23-.14.16s-.17 0-.2.11c-.21.67-.83.59-1.28.34a1.3 1.3 0 0 0-.79-.18 2.34 2.34 0 0 1-1.16-.2.41.41 0 0 0-.47 0 1 1 0 0 1-1.32 0 .35.35 0 0 0-.38 0l-1.24.59c-.07 0-.16.08-.12.16s.13 0 .2 0c.31-.1.63-.18.94-.29a.65.65 0 0 1 .24-.06h.13c.02 0 0 .09-.08.11a12.62 12.62 0 0 1-3.33 1.75.76.76 0 0 1-.26.06.91.91 0 0 0-.55.24.7.7 0 0 1-1.12-.06 6.76 6.76 0 0 0-1-.8 5.22 5.22 0 0 1-1-1.12c-.37-.46-.62-1-.95-1.48-.07-.1-.13-.22-.28-.23a.15.15 0 0 0 0 .16c.38.7.67 1.45 1.08 2.13a2.83 2.83 0 0 0 .2.28c.14.21.14.22-.09.32-.53.23-1.08.44-1.61.68-1.06.47-2.13.92-3.18 1.39-.09 0-5.1 2.1-5.1 2.22a.4.4 0 0 0 .25.26c.11 0 5.1-2 5.2-2.08l4.77-2.07a.5.5 0 0 1 .56.07c.26.22.52.43.76.67a1.19 1.19 0 0 0 1.72.09.73.73 0 0 1 .33-.16 8.11 8.11 0 0 0 2.36-1 17.15 17.15 0 0 0 1.62-1 .63.63 0 0 1 .41-.13 1.54 1.54 0 0 0 .89-.22.35.35 0 0 1 .33 0 3 3 0 0 0 1.17.23.93.93 0 0 1 .63.15.28.28 0 0 0 .26.06 1.33 1.33 0 0 0 1.24-.11l.19-.19s.06-.11.09-.11c.35 0 .49-.34.74-.49a2.36 2.36 0 0 0 1-1 .62.62 0 0 1 .24-.29.43.43 0 0 0 .06-.71c-.21-.23-.21-.25.07-.36s.41-.47.13-.85a1.13 1.13 0 0 1-.23-.45c-.06-.27-.29-.4-.52-.52a2.61 2.61 0 0 0-1.32-.21 6.2 6.2 0 0 0-.74.08 2 2 0 0 1-1 0 .75.75 0 0 0-.53 0l-.21.07a6.27 6.27 0 0 1-2.86.61h-1.06c-.05-.07 0-.13 0-.18a6.63 6.63 0 0 1 1.44-2.61.76.76 0 0 0 .17-1 3.36 3.36 0 0 1-.13-2c0-.1.09-.13.16-.17.74-.43 1.49-.85 2.24-1.27a.68.68 0 0 1 .25-.11 2.55 2.55 0 0 0 1.38-.66.63.63 0 0 1 .39-.17 1.84 1.84 0 0 0 .87-.32.67.67 0 0 0 .33-.55c0-.13.05-.17.16-.22a7.09 7.09 0 0 1 1.26-.4 1.38 1.38 0 0 0 .86-1.25c0-.09.06-.14.11-.21a.51.51 0 0 0-.08-.74c-.08-.07-.06-.11 0-.18a1.12 1.12 0 0 0 .06-.51.48.48 0 0 1 .05-.26.44.44 0 0 0-.32-.68h-.13c-.17-.36-.46-.26-.72-.17a6.88 6.88 0 0 0-2.6 1.54 5.12 5.12 0 0 1-3.2 1.51 22.44 22.44 0 0 0-2.45.44.28.28 0 0 1-.3-.09 1.73 1.73 0 0 0-.8-.4c-.13 0-.15-.09-.15-.22v-1.08a.44.44 0 0 1 .08-.31 6.39 6.39 0 0 0 1.22-2.81c0-.12.07-.25.1-.37a2.89 2.89 0 0 0-.22-2.1.74.74 0 0 0-.48-.4c-.18 0-.18-.14-.16-.28a1.56 1.56 0 0 0 0-.68.54.54 0 0 0-.88-.38 4.16 4.16 0 0 0-.61.5l-.54.46a2.93 2.93 0 0 0-1.84-2.11 1.31 1.31 0 0 0-.76-.06c-.22 0-.44.06-.65.11a2.13 2.13 0 0 1-1.27.14.56.56 0 0 0-.22 0 2.69 2.69 0 0 1-1.06 0 .76.76 0 0 0-.62.17 1.89 1.89 0 0 1-.63.25 5.39 5.39 0 0 0-1.53.82 4 4 0 0 0-.87.73c-.14.15-.23.15-.4 0a6.74 6.74 0 0 0-2.59-1 1.52 1.52 0 0 0-.82.07.75.75 0 0 0-.5.79 2.23 2.23 0 0 0 .66 1.29 11 11 0 0 0 1.2 1.06 1 1 0 0 1 .31.4 1.25 1.25 0 0 0 .2.36c.38.35.16.81.25 1.2 0 .06 0 .08-.08.1-.72.26-1.35.7-2.06 1-.51.21-1.07.27-1.58.52a10.69 10.69 0 0 0-1.53.82 1.27 1.27 0 0 0-.57 1.37 2.85 2.85 0 0 0 1.13 1.7 9 9 0 0 0 1.7 1 3 3 0 0 0 1.59.35 2.82 2.82 0 0 1 1.36.28 5.78 5.78 0 0 0-1.56 2.36 3.53 3.53 0 0 1-1.21 1.33c-.84.67-1.74 1.26-2.63 1.86a5.37 5.37 0 0 0-1.16 1.07 8.18 8.18 0 0 1-2.11 1.82 6.53 6.53 0 0 0-1.93 2c-.18.27-.45.46-.64.74a1.67 1.67 0 0 0 .15 2.11c.08.1.27.18.23.29a1.28 1.28 0 0 1-.26.52c-.29.25-.53.54-.84.78a2 2 0 0 0-.86 1 .79.79 0 0 1-.12.15.89.89 0 0 0-.23.37c-.09.25 0 .52-.09.78a.33.33 0 0 0 .17.34 1.16 1.16 0 0 1 .44.44.92.92 0 0 0 .49.39z"/><path class="cls-21" d="M120.28 125.53c-.1.23-.33.34-.46.53a9.34 9.34 0 0 0 1.35-.46h.12a2.53 2.53 0 0 0 1.18-.61 7.74 7.74 0 0 0 2.31-2.86.33.33 0 0 0 0-.19l.05-.07a4.78 4.78 0 0 0 .62-.94 1.94 1.94 0 0 1 1.09-.94c.31-.11.63-.24.93-.37.11-.08.25-.08.34-.18s.07-.12.07-.19.16.15.27.07 0-.07 0-.11.21.12.29 0-.05-.21-.1-.31-.21-.07-.3 0a9.27 9.27 0 0 1-1.18.45c-.2.1-.42.18-.63.27a.31.31 0 0 0-.16.11c-.37.37-.72.74-1.1 1.09a.84.84 0 0 0-.18.24c-.48.74-.83 1.57-1.38 2.26a5.78 5.78 0 0 1-2.62 2l-.42.16c-.01-.05-.08-.03-.09.05z"/><path class="cls-22" d="M131.48 117.41l2.67-1.17 2.67-1.16a14.68 14.68 0 0 1-1.5-2.75 4 4 0 0 1 .6.88 12.6 12.6 0 0 0 1.13 1.58 6.16 6.16 0 0 0 .92.77 3.61 3.61 0 0 1 .45.42.77.77 0 0 0 1.21 0 .85.85 0 0 1 .49-.22 6.5 6.5 0 0 0 1.86-.73 18.65 18.65 0 0 0 1.77-1.09c.06 0 .23-.07.15-.2s-.17-.13-.32-.08a9.31 9.31 0 0 1-1.28.35l1.47-.7h.17a1.11 1.11 0 0 0 1.52 0c.07-.06.12-.11.23 0a2.62 2.62 0 0 0 1.43.26.72.72 0 0 1 .55.14 1.23 1.23 0 0 0 .69.22c.4 0 .63-.17.78-.67.1.07.22.18.33.09s0-.22-.06-.31a1.69 1.69 0 0 0-1.36-1.08 1.61 1.61 0 0 1 1.41.66c0 .06.08.11.12.18.19.27.18.27.44.09a2.14 2.14 0 0 0 .73-1c0-.07 0-.13.15-.16s.2-.12 0-.25a3.68 3.68 0 0 0-1.88-.71H149a.17.17 0 0 0-.13 0 .36.36 0 0 0 .13-.06 3.18 3.18 0 0 1 1.4.19.6.6 0 0 0 .63-.13c.09-.07.13-.19.28-.17s.06-.08 0-.11-.24-.38-.48-.46a5.64 5.64 0 0 0-1.27-.27 1.55 1.55 0 0 1-.31 0 3.79 3.79 0 0 1 1.42.11c.08 0 .19.09.25 0s-.07-.15-.13-.21a1.19 1.19 0 0 0-.68-.26 4.88 4.88 0 0 0-1.66.09 1.26 1.26 0 0 1-.61 0 .89.89 0 0 0-.66 0l-.18.08a6.88 6.88 0 0 1-3 .58l-1.38.07a2.16 2.16 0 0 0-.66.18c-1 .43-2 .76-3 1.24h-.13a4.68 4.68 0 0 1 1.59-.92c.72-.23 1.37-.62 2.1-.8.09 0 .11-.07.13-.15a7.46 7.46 0 0 1 1.78-3.23s.08-.07 0-.14a3.75 3.75 0 0 1-.26-2.57 3 3 0 0 0-.71-2.65c-.14-.18-.18-.41-.32-.6a11.69 11.69 0 0 1 1.1 1.34 3.56 3.56 0 0 1 .32 1.53c.54-.31 1.06-.62 1.59-.91a4.09 4.09 0 0 1 1.25-.54 1.88 1.88 0 0 0 .95-.55.69.69 0 0 1 .42-.2 1.4 1.4 0 0 0 .87-.31c.19-.17.16-.32-.08-.42s-.29-.1-.44-.15a1.59 1.59 0 0 0 1.12-.2 6.12 6.12 0 0 1 .94-.32 1 1 0 0 0 .82-1.09c0-.13 0-.26.16-.28s.09-.1.07-.17-.12-.08-.19-.08a7.52 7.52 0 0 0-2.07.28 1.86 1.86 0 0 1 .69-.39 3.85 3.85 0 0 1 1.06-.22c.19 0 .26-.11.31-.27a1.19 1.19 0 0 0 0-.42c0-.13-.11-.26.08-.37s0-.14-.08-.14a1.91 1.91 0 0 0-.33.06 9.88 9.88 0 0 0-1.65.68 3.21 3.21 0 0 1 1-.62 5.25 5.25 0 0 1 .55-.22c.05 0 .14 0 .11-.12s-.1 0-.16 0a8.15 8.15 0 0 0-1.54.69 5.59 5.59 0 0 0-1.26 1 5.48 5.48 0 0 1-3.18 1.39 23.93 23.93 0 0 0-2.66.49c-.13 0-.21 0-.29-.1-.22-.34-.6-.4-1-.52a10.5 10.5 0 0 1-.19 1.37.08.08 0 0 0 0 .1 4.83 4.83 0 0 1 1.11 1.68c.06.11.11.22.16.33s-.09 0-.11-.09a6.86 6.86 0 0 0-1.35-1.89c-.12-.11-.06-.23 0-.35.09-.88.18-1.76.19-2.71a13 13 0 0 1-1.09 1.38c.48-.67.83-1.4 1.32-2a6.14 6.14 0 0 0 1.06-2.51A4.94 4.94 0 0 1 143 94c-.23.1-.5.1-.6.4a.73.73 0 0 1-.43.48.61.61 0 0 0-.37.59 5.25 5.25 0 0 0 .08.68.54.54 0 0 1-.11.46.36.36 0 0 1-.52.09c-.29-.17-.41-.13-.47.19a2.23 2.23 0 0 1-.46.89 5.65 5.65 0 0 0-.36.58.32.32 0 0 0 .1.46c.22.17.23.25.13.5a1.42 1.42 0 0 1-.59.71 1.47 1.47 0 0 0-.52.61 2.69 2.69 0 0 1-2.33 1.52 2.93 2.93 0 0 1-1.11-.15l-.29-.07c-.32 0-.64-.14-1-.17a2 2 0 0 0-.42 0c-.12 0-.18.08-.19.21 0 .31-.11.38-.42.42a2.64 2.64 0 0 1-1.15-.21l-.25-.11a.37.37 0 0 0-.48.12 1.53 1.53 0 0 1-.84.49.7.7 0 0 1-.43 0 4.13 4.13 0 0 0-1.79 2.16 4.52 4.52 0 0 1-1.75 2.09c-.36.25-.71.52-1.08.77-.11.08-.06.17-.08.26s-.15.46 0 .71c.06.09-.08.17-.16.21s-.3.21-.25.45a.24.24 0 0 1-.16.27 1.62 1.62 0 0 0-.7 1.39.55.55 0 0 1-.33.52c-.12 0-.14.18-.2.27s-.11.26-.25.33c0-.15.12-.25.09-.4-.16 0-.23.17-.34.26s-.11.09-.17 0 0-.11 0-.16.13-.31.2-.47.08-.09 0-.12a.42.42 0 0 1-.33-.6 1.64 1.64 0 0 1 .7-1.06c.43-.26.58-.7.86-1.06a10.05 10.05 0 0 0-1.67 1.59 4.53 4.53 0 0 0-1 1.55c-.12.29-.36.52-.48.82a.47.47 0 0 1-.21.21 3.14 3.14 0 0 0-.73.47.12.12 0 0 1-.16 0c-.08 0-.07-.12-.06-.19a2.19 2.19 0 0 1 .43-1 3.87 3.87 0 0 1 .46-.54A3.54 3.54 0 0 0 119 114a.59.59 0 0 0 0 .26 1.93 1.93 0 0 1 .1 1.09.65.65 0 0 0 0 .24 9.19 9.19 0 0 1 .29 2.56 1.9 1.9 0 0 1 0 .63c-.09.26-.21.33-.46.23s-.12 0-.15.09a2 2 0 0 1-.29.43c.11-.58.21-1.16.31-1.74.07-.38.13-.75.19-1.12a.21.21 0 0 0-.12-.28c-.15-.08-.18.08-.2.14a4.61 4.61 0 0 1-.87 1.19.36.36 0 0 1-.25.18.46.46 0 0 0-.37.38c0 .16 0 .26.22.17 0 .17 0 .34.11.47a.21.21 0 0 1 0 .06c-.3.14 0 .46-.23.65a3.68 3.68 0 0 1-.63.39c0-.17.13-.22.24-.29-.17-.24-.21-.26-.56-.18.07-.07.11-.14.15-.15.22 0 .15-.2.17-.3s-.07-.2-.21-.1a.55.55 0 0 0-.23.31v.76c.24.13.37.39.6.53s.66.11 1-.26a4.49 4.49 0 0 1 .64-.52c-.38 1-.44 2-.85 2.89h-.06c-.34-.38-.69-.32-1 .09a1 1 0 0 0-.24.53 2 2 0 0 1-.54 1.08 3.83 3.83 0 0 0-.39.51.19.19 0 0 1-.15.09 1.51 1.51 0 0 0-1 .79h.35a2 2 0 0 0-.45.19 1 1 0 0 0-.28.42c.22-.08.4-.19.61 0s.08 0 .09-.08a1.8 1.8 0 0 1 .22-.49c.06-.09.16-.16.18-.23s.06 0 0 0c0 .1-.14.16-.13.27a2.08 2.08 0 0 0-.26.81c-.25-.18-.43-.2-.61 0s-.24.35-.09.63a.68.68 0 0 1 0 .19c0 .1 0 .2.14.25a1.7 1.7 0 0 1 .59.38.25.25 0 0 0 .35 0c.4-.46 1-.73 1.36-1.18a5.65 5.65 0 0 1 1.33-1.15 1.68 1.68 0 0 1-.53-1.55 1.9 1.9 0 0 0 .82 1.37 1.77 1.77 0 0 0 1.44.32 4.91 4.91 0 0 0 .83-.24l.13-.07c.17-.09.42-.1.56-.24 1.2-.49 1.3-.74 2.47-1.92.19-.18 1.29-2.1 1.45-2.31l.14-.21a.35.35 0 0 0 .16-.18 4.1 4.1 0 0 1 1-1l.14-.07c.2-.11.66-.3 1.1-.49 1-.43 2.36-1 3.11-1.29.16-.07.92-.54 1.04-.52z"/><path class="cls-23" d="M129.64 95.56c0 .4-.36.49-.64.63l-1.26.62c-.48.23-1 .34-1.5.53a6.09 6.09 0 0 0-2.12 1.08 1.32 1.32 0 0 0-.15 1.68 4.23 4.23 0 0 0 2 1.58l.52.22a4.62 4.62 0 0 0 1.61.28 7.81 7.81 0 0 1 1.51.32.6.6 0 0 0 .49 0s.18.07.28 0a1.43 1.43 0 0 0 .82-.51.34.34 0 0 1 .45-.11 3.9 3.9 0 0 0 1.2.33h.18a.36.36 0 0 0 .36-.16c.08-.15 0-.26-.12-.37a.14.14 0 0 1-.06-.1 1.56 1.56 0 0 1 .57 0 7.56 7.56 0 0 1 1.77.32 2.74 2.74 0 0 0 1.83-.12l.2-.08a2.07 2.07 0 0 0 1.07-1 2.11 2.11 0 0 1 .76-.89 1.15 1.15 0 0 0 .46-.6.3.3 0 0 0-.14-.41c-.21-.12-.24-.22-.16-.45a3.06 3.06 0 0 1 .47-.75 1.86 1.86 0 0 0 .38-.77 1.06 1.06 0 0 1 .09-.25c.12-.21.23-.24.41-.09a.35.35 0 0 0 .45.07.4.4 0 0 0 .18-.43c0-.15-.07-.29-.1-.43a.82.82 0 0 1 .43-1 .85.85 0 0 0 .45-.77 1.23 1.23 0 0 1 0-.33c.1 0 .11.11.14.17s.12.16.24.14a.22.22 0 0 0 .2-.21.93.93 0 0 0-.13-.69c-.08-.12-.16-.25-.23-.38s0-.16.07-.19.13-.14.05-.22-.2-.29-.41-.22a.46.46 0 0 0-.17.17 3.42 3.42 0 0 1-.58.79 1.79 1.79 0 0 0-.46.76 3.73 3.73 0 0 1-1 1.67c-.12.12-.18.32-.29.41-.29.23-.22.6-.4.87 0 0 0 .14-.09.19a.8.8 0 0 0-.21.15c-.09.07-.07.14 0 .19s0 .1 0 .13a2.58 2.58 0 0 1-1.34.69c-.48 0-.56.13-.58.53 0 .25.16.28.37.32a.36.36 0 0 1-.43 0c-.22-.16-.09-.41-.08-.63-.1 0-.11.09-.22.1L138.1 97c-.18-.06-.29.16-.44 0a1.54 1.54 0 0 1-1-.36c-.12.08-.12.19-.11.32a6.52 6.52 0 0 1-.09 1.25 2 2 0 0 0 0 .54.54.54 0 0 0 .55.59 2.71 2.71 0 0 0 .85-.1 3.34 3.34 0 0 1-.84.12c-.47 0-.67-.23-.6-.7a8.45 8.45 0 0 0 .15-1.42.94.94 0 0 0-.07-.57c-.15.07-.28 0-.42-.06s.08.15-.08.06-.11.11-.12.19c0 .44-.07.88-.13 1.32a3.57 3.57 0 0 0 0 1 .61.61 0 0 0 .73.6c.56 0 1.09-.19 1.64-.26-.56.08-1.11.25-1.69.28a1.32 1.32 0 0 1-.56 0h-.18a.21.21 0 0 0 0 .19.54.54 0 0 0 .46.29 1.72 1.72 0 0 1 .26 0 3.37 3.37 0 0 1-.5-.06.57.57 0 0 1-.47-.63 10.53 10.53 0 0 1 .24-1.85 4.92 4.92 0 0 0 0-1.71 4.43 4.43 0 0 0-.47-1.32 5.65 5.65 0 0 0-1.21-1.65 1.91 1.91 0 0 0-1.13.13 7.26 7.26 0 0 0-1.9 1 .72.72 0 0 1-.57.17.4.4 0 0 0-.46.37.89.89 0 0 1-.18.56c0 .09-.08.17-.12.27z"/><path class="cls-22" d="M136 96.63c.13.14.26.23.43.07a.18.18 0 0 0 0-.14 3.23 3.23 0 0 0-.64-2.1 13.58 13.58 0 0 1-1-1.29 8 8 0 0 0 .82 1.09 3.19 3.19 0 0 1 .81 1.94c0 .16 0 .33.11.46a1.18 1.18 0 0 0 1.09.38 2.42 2.42 0 0 0 1.44-2.13 3.57 3.57 0 0 0-.54-2.2c-.09-.18-.18-.35-.07-.55.11-.37.07-.45-.3-.53a1.84 1.84 0 0 1-.38-.17c-.2-.1-.33 0-.36.2 0 .43-.17.58-.61.55-.29 0-.53.17-.81.18-.06 0-.09.06-.11.12a.18.18 0 0 1-.25.12.21.21 0 0 1-.21-.23.93.93 0 0 1 0-.29c0-.18-.07-.26-.22-.3a.24.24 0 0 0-.29.17 1 1 0 0 0-.09.2c.07-.13 0-.34.12-.5a3.74 3.74 0 0 0 .36-.93c0-.07.12-.1.19-.15s.15-.09.1-.2a1 1 0 0 0-.86.14c-.1.08-.31 0-.48.07l.2-.24c-.12-.05-.3-.06-.32-.18s.14-.18.23-.26a.94.94 0 0 0-.37.22.27.27 0 0 1-.24.09 1 1 0 0 0-.81.26h-.06c-.42 0-.64.37-.93.6a9.43 9.43 0 0 0-1.7 1.7 2.87 2.87 0 0 0-.64 1.53 3.51 3.51 0 0 0 0 1.21c.07-.07.24-.09.13-.26s0-.42.06-.62c.07-.36.22-.46.58-.45a.83.83 0 0 0 .48-.15 7 7 0 0 1 2.48-1.06h.12a1 1 0 0 1 1.07.47 12.54 12.54 0 0 1 1 1.5 2.94 2.94 0 0 1 .48 1.25.66.66 0 0 0 .17.44c-.15 0-.1-.3-.3-.23-.04.05-.03.15.12.2z"/><path class="cls-23" d="M135.61 90.4a.25.25 0 0 1-.16.17.41.41 0 0 0-.27.47c0 .14 0 .26-.14.33a.24.24 0 0 0-.15.24c0 .28-.1.54-.1.82.06-.13.11-.26.16-.39s.17-.23.35-.14.11 0 .09.13a2.71 2.71 0 0 1 0 .29c0 .26.07.37.32.39s.23 0 .26-.13.1-.19.24-.15a.16.16 0 0 0 .12 0c.16-.21.4-.12.61-.14.43 0 .61-.22.58-.66 0-.08 0-.12.06-.14s.13-.07.2 0a.66.66 0 0 0 .48.22c.21 0 .25.09.24.26v.2a2.15 2.15 0 0 0 .18.61c0 .06.05.12.12.15a.54.54 0 0 0-.08-.28.44.44 0 0 1-.06-.35 1.56 1.56 0 0 0 0-.68c0-.15-.14-.23-.27-.29l-1-.44v-.06c.26.08.53.16.79.26a1.88 1.88 0 0 0 .9.23.51.51 0 0 1 .41.2c.07.12.15.09.24.08a.43.43 0 0 0-.16-.62 3.31 3.31 0 0 1-.78-.76 1.38 1.38 0 0 0-1.35-.33.92.92 0 0 1-.57.06 3.18 3.18 0 0 0-.69 0 .12.12 0 0 0-.1.09.78.78 0 0 1-.47.36zm-6.02 3.95a7.61 7.61 0 0 1 .64-1.53s-.11.05 0 0a2.57 2.57 0 0 1 .5-.63c.1-.08.15-.17 0-.25a10.81 10.81 0 0 0-1.62-.84 4.14 4.14 0 0 0-1.48-.28.58.58 0 0 0-.57.83 3.29 3.29 0 0 0 1 1.29 9.37 9.37 0 0 1 .89.76 2.66 2.66 0 0 1 .33.57c.06.11.13.2.19.3s-.01-.23.12-.22z"/><path class="cls-24" d="M142.37 92.12a.59.59 0 0 1 .44.34c-.1.1-.25-.07-.29.08s.06.22.11.31.2.29.28.44a.68.68 0 0 1 0 .59.18.18 0 0 1-.15.12c-.08 0-.11 0-.14-.11s0-.27-.18-.25-.1.2-.1.31a.88.88 0 0 1-.49.91.8.8 0 0 0-.39 1c0 .17.07.33.1.5a.32.32 0 0 1-.17.35c-.15.08-.25 0-.35-.09s-.37-.19-.51.08v.05a3.53 3.53 0 0 1-.78 1.45 2 2 0 0 0-.16.33c-.11.27-.06.41.21.52a.18.18 0 0 1 .12.27 1.24 1.24 0 0 1-.52.67 1.53 1.53 0 0 0-.61.65 2.29 2.29 0 0 1-1.16 1.21 2.38 2.38 0 0 1-1.54.32 5.9 5.9 0 0 1-.83-.2c-.13-.05-.19 0-.11.13a3.45 3.45 0 0 0 1.16.28 2.42 2.42 0 0 0 .83-.12 5.5 5.5 0 0 0 1.1-.51 2 2 0 0 0 .68-.88 1.86 1.86 0 0 1 .64-.72 1.49 1.49 0 0 0 .55-.73.35.35 0 0 0-.16-.51c-.19-.11-.21-.23-.1-.39s.23-.41.38-.6a2.08 2.08 0 0 0 .48-1c0-.2.16-.18.26-.09a.41.41 0 0 0 .53.09.61.61 0 0 0 .29-.63 2.26 2.26 0 0 1-.09-.78.49.49 0 0 1 .3-.51 1 1 0 0 0 .53-.61c0-.09.06-.19.2-.14s.16-.18.3-.2a2.89 2.89 0 0 0-.17-1.67.51.51 0 0 0-.46-.33c-.13-.05-.09.02-.03.07z"/><path d="M141.67 90.73a3.18 3.18 0 0 0-.93.65 6.78 6.78 0 0 0-1.09 1.3c.1.07.16 0 .2-.07s.22-.3.31-.46c-.06.13-.17.23-.24.36a.89.89 0 0 0-.13.34c0 .1-.08.24 0 .3s.16-.09.23-.15c.25-.24.57-.37.78-.57a5.47 5.47 0 0 1-.45.32 1.94 1.94 0 0 0-.8 1.93c.14.11.26 0 .37-.05a2.26 2.26 0 0 0 .61-1 6.28 6.28 0 0 1 .77-1.36l.36-.53a.35.35 0 0 0 .05-.33.23.23 0 0 1 0-.16c0-.13.1-.31-.13-.37s.14-.1.09-.15z" fill="#f3cee3"/><path d="M136.09 90a1.27 1.27 0 0 1 .77 0 .86.86 0 0 0 .65-.09.47.47 0 0 1 .51 0 .5.5 0 0 0 .21 0 1.14 1.14 0 0 1 .52.32c.26.22.4.55.72.71a.49.49 0 0 1 .27.61v.19A.6.6 0 0 0 140 91a3 3 0 0 0-1.25-1.31 1.62 1.62 0 0 0-1.24-.1l-.5.13a1.67 1.67 0 0 1-1 .09 1.46 1.46 0 0 0-.87.1c.08.14.49-.17.33.26a.32.32 0 0 0 .48-.1.21.21 0 0 1 .14-.07z" fill="#fbfbf5"/><path d="M135.14 102c0-.1 0-.14.11-.1a5.15 5.15 0 0 0 1.56.26.25.25 0 0 0 .16-.08 1.34 1.34 0 0 1 .48-.19c.08 0 .15 0 .17-.14-.22.07-.43.15-.65.21a2.19 2.19 0 0 1-1.19 0 8.48 8.48 0 0 0-2.12-.36h-.57c.11.12.2.19.27.27s.11.34-.15.37a1.61 1.61 0 0 1-.75-.07c-.25-.08-.51-.17-.76-.27a.32.32 0 0 0-.44.11 1.25 1.25 0 0 1-1.08.54l-.16.11c0 .17.18.14.27.12a1.45 1.45 0 0 0 1.07-.57c.11-.15.24-.12.39-.06a3.31 3.31 0 0 0 1.32.34 1.37 1.37 0 0 0 .4-.09.27.27 0 0 0 .18-.35c0-.2.06-.23.22-.22a4.34 4.34 0 0 1 .94.13.47.47 0 0 0 .33.04z" fill="#f0ede9"/><path d="M139.88 95.43a1.11 1.11 0 0 1-.27-.76 2.11 2.11 0 0 1 .33-1.38c.25-.42.72-.6 1-1-.35.31-.82.44-1.13.83a1.89 1.89 0 0 1 .44-1.1c-.13 0-.16.15-.23.23s-.14.16-.2.25-.08.16-.19.16l-.2.34a.77.77 0 0 0-.09.65 3.64 3.64 0 0 1-.09 2.09c.26-.06.49-.09.63-.31z" fill="#e694c1"/><path d="M139.2 97.32s-.11-.13 0-.14.12-.13.18-.2 0-.27.12-.35.08-.08 0-.13a.28.28 0 0 0-.21-.1c-.07 0-.08 0-.09.09a.49.49 0 0 1 0 .12s-.27-.14-.37 0 .05.22.09.33.08.13.05.22-.36-.06-.22.23c-.6-.11-.6-.11-.48.26-.07.08-.21-.07-.25.07s0 .21 0 .28a.2.2 0 0 0 .25 0 2.91 2.91 0 0 1 .79-.49.2.2 0 0 0 .14-.19z" fill="#fafaf5"/><path d="M139.61 94.67a.3.3 0 0 0 .31-.09 1.59 1.59 0 0 0 .46-.69 7.22 7.22 0 0 1 .64-1.31 4.79 4.79 0 0 1 .57-.79c.15-.2.2-.38-.07-.55a.73.73 0 0 0 .21 0 .74.74 0 0 0 0-.26c-.06-.11-.16 0-.24 0s.21-.07.2-.22.28-.06.31.08a1.79 1.79 0 0 1 .15.79 2.27 2.27 0 0 1-.57 1 4.13 4.13 0 0 0-.89 1.53 3.07 3.07 0 0 1-.79 1.33.69.69 0 0 1-.29-.82z" fill="#ecb7d6"/><path d="M117.16 118.54c-.19.14-.35.24-.2.45s0 .11 0 .16a.21.21 0 0 0 0 .23c0 .1.17.21.2.17s.22-.19.14-.32a.86.86 0 0 1-.14-.69z" fill="#965f6c"/><path d="M149 110.68h-.34v.08h.34z" fill="#4c4c49"/><path d="M134.34 89.9a1.14 1.14 0 0 1 .37 0 .4.4 0 0 0-.37 0z" fill="#b7b8b5"/><path d="M114.88 125.8a.55.55 0 0 0 .15-.36c-.08.16-.19.22-.21.36z" fill="#898883"/><path class="cls-35" d="M126.17 119.63a2.32 2.32 0 0 0-1.14 1.15c.17 0 .24-.19.35-.29a5.84 5.84 0 0 0 .79-.86z"/><path class="cls-36" d="M127.68 116.32a1.16 1.16 0 0 0 .37-.54.4.4 0 0 0-.15-.51 2.52 2.52 0 0 1-.57-.81.17.17 0 0 1 0-.1c.15-.3 0-.5-.24-.67a.88.88 0 0 1-.37-.58.86.86 0 0 0-.42-.63.89.89 0 0 1-.33-.36c-.07-.14-.16-.19-.28-.05s-.14.15-.26.06-.18 0-.22.08a.65.65 0 0 0 0 .19.47.47 0 0 1-.45.5c-.29 0-.35.37-.5.57.3.17 0 .26-.06.37a.25.25 0 0 0 0 .22 5 5 0 0 1 .25.71c.12.35.23.73.7.79.13 0 .13.15.1.26a.37.37 0 0 0 .24.47 1.53 1.53 0 0 1 .27.17 1.32 1.32 0 0 0 1.92-.14z"/><path class="cls-35" d="M134.38 102.25a3.08 3.08 0 0 0 1.83 1.15 2.86 2.86 0 0 1 2.1 1.88 1.14 1.14 0 0 0 .1.19h.05a3.54 3.54 0 0 0-1.16-2 1.06 1.06 0 0 0-.55-.25 4.32 4.32 0 0 1-2.37-.97z"/><path class="cls-37" d="M133.2 96.37c.17-.24.41-.39.56-.61a2 2 0 0 0 .41-1.28 1.76 1.76 0 0 0 0-.33c0-.27-.17-.36-.41-.25a3.62 3.62 0 0 0-.48.25.33.33 0 0 1-.22 0c-.3 0-.45.08-.44.37a5.55 5.55 0 0 0 .31 1.81c.07.26.2.02.27.04z"/><path class="cls-36" d="M136 96.63a.58.58 0 0 1-.09-.26.94.94 0 0 0 0-.68 7.39 7.39 0 0 0-1.66-2.56c-.06 0-.11-.1-.19 0 .16.29.44.47.61.75a8.16 8.16 0 0 1 .87 1.78 6.73 6.73 0 0 1 .17 1.08 3 3 0 0 1-.09.85 17.17 17.17 0 0 0-.26 2 .63.63 0 0 0 .58.71 1.79 1.79 0 0 0 .69 0h-.48a.48.48 0 0 1-.45-.32s0-.13.07-.1a2.8 2.8 0 0 0 1.52-.07 3.76 3.76 0 0 0 1-.27c-.31 0-.63.09-.93.16a4.26 4.26 0 0 1-1 .11.49.49 0 0 1-.52-.42 3.45 3.45 0 0 1 0-1.2c.05-.4.11-.81.12-1.22 0-.23.07-.18.2-.06z"/><path class="cls-24" d="M135.8 95.76a4.25 4.25 0 0 1 .08.61c.13 0 .11.17.18.25a.13.13 0 0 0 .14.08.08.08 0 0 0 .08-.07c0-.1-.06-.07-.09-.11a.63.63 0 0 1-.14-.47 1.29 1.29 0 0 0-.11-.45 12.21 12.21 0 0 0-1.46-2.36 1 1 0 0 0-1.11-.35 6.86 6.86 0 0 0-2.6 1.2.44.44 0 0 1-.27.07 1.17 1.17 0 0 0-.33 0c-.18.08-.37.14-.39.41a1.47 1.47 0 0 1-.12.49.14.14 0 0 0 .11.22v-.11c.24 0 .16-.21.16-.37 0-.33.18-.5.52-.42a.35.35 0 0 0 .31-.06 7.48 7.48 0 0 1 2.27-1.15 2.21 2.21 0 0 1 .92-.1c.08 0 .1.06.15.07a1.12 1.12 0 0 1 .33.32 6.56 6.56 0 0 1 1.29 2.11.35.35 0 0 1 .08.19z"/><path d="M136.57 96.66a3.89 3.89 0 0 0-.49-1.92c-.27-.41-.61-.77-.91-1.16-.12-.16-.24-.33-.37-.48a3 3 0 0 0 .52.84c.19.25.39.49.57.74a3.22 3.22 0 0 1 .49 1.67v.35a7.62 7.62 0 0 1-.15 2 .56.56 0 0 0 .62.71 3.76 3.76 0 0 0 1.09-.21c-.2-.06-.38 0-.58.06a1.77 1.77 0 0 1-.65 0 .39.39 0 0 1-.31-.4 2.66 2.66 0 0 1 0-.63 4.46 4.46 0 0 0 .07-1.41s.11-.1.1-.16z" fill="#080807"/><path class="cls-37" d="M137.86 94.52c.12.06.13-.09.21-.12a1.15 1.15 0 0 1 .53-.18c.19 0 .38-.39.26-.55a1.06 1.06 0 0 1-.11-.21.21.21 0 0 0-.33-.1 3.88 3.88 0 0 0-.33.23c-.13.11-.22.22 0 .39s0 .27-.09.38-.16.06-.14.16z"/><path d="M137.75 94.64s-.06.07 0 .11a.09.09 0 0 0 .13 0 .09.09 0 0 0 0-.11s-.09-.03-.13 0z" fill="#282826"/><path d="M128 92.05a4.5 4.5 0 0 0 .83.6c.06 0 .14.08.2 0a3 3 0 0 0 .58-.6.09.09 0 0 0 0-.14 5.17 5.17 0 0 0-1-.57c-.27.19-.55.35-.61.71z" fill="#593840"/><path d="M128 92.05a1.82 1.82 0 0 1 .58-.59.08.08 0 0 0 0-.1 5.65 5.65 0 0 0-1.11-.46.24.24 0 0 0-.26.08c-.1.09 0 .17 0 .25a4.1 4.1 0 0 0 .79.82z" fill="#794b55"/><path d="M133.47 94.74a.19.19 0 0 0 .28 0c.08-.06 0-.13 0-.19a.21.21 0 0 0-.27 0c-.09.04-.08.12-.01.19z" fill="#ecedec"/><path d="M133.57 94.27c.14 0 .26 0 .38.06s.1.06.12 0a.17.17 0 0 0 0-.14c0-.07-.08 0-.12 0z" fill="#e3e3e3"/><path d="M133.24 95.57a.38.38 0 0 0 .31.19.7.7 0 0 0-.31-.19z" fill="#6b6c6e"/><path d="M133.36 95.5a.39.39 0 0 0-.2-.34.35.35 0 0 0 .2.34z" fill="#d3d5d4"/><path d="M133.21 95.88a.45.45 0 0 0 0 .3c.11-.09.18-.18 0-.3z" fill="#757676"/><path class="cls-22" d="M135.8 95.76a1.93 1.93 0 0 0-.37-1 6.63 6.63 0 0 0-1.07-1.45 1.18 1.18 0 0 1-.13-.18c0-.06-.07 0-.09 0a7.81 7.81 0 0 1 1.66 2.63z"/><path class="cls-8" d="M121.76 109.57c0 1.64-.24 4.78-1.29 6.3-1.63 2.36-5.58 3.64-7.33 4 1.45-1.34 2.19-2.5 2.09-3.46 0-.31-.74.6-1.71.62a4.56 4.56 0 0 0 .64-2.08 6.23 6.23 0 0 1 1.18-2.88 11 11 0 0 1 5.83-3z"/><path class="cls-9" d="M121.76 109.57a8.29 8.29 0 0 1-1.17 4.24c-.86 1-3.66 1.77-5 2.71a6.56 6.56 0 0 0 .91-2.6 3.27 3.27 0 0 1 .37-1.75 8.42 8.42 0 0 1 2.75-2.28 7.87 7.87 0 0 1 1.6-.82z"/><path class="cls-10" d="M121.76 109.57c-.08.84-.69 3.1-1.52 3.58s-1.37.21-2.73.86c.07-.51 1-1.14.82-1.72-.34.21-.48.4-.89.43.41-.37.5-1 .89-1.52a5.65 5.65 0 0 1 1.88-1.38 4.9 4.9 0 0 0 1-.75z"/><path class="cls-11" d="M121.26 109.83c1.1.89 2.19 1.36 2.44 1l-.45.56c-.25.31-1.34-.16-2.44-1s-1.79-1.85-1.54-2.16l.46-.56c-.25.33.43 1.33 1.53 2.16z"/><path class="cls-11" d="M120.72 110.51c.82.67 1.65 1 1.83.78l-.34.43c-.19.23-1-.12-1.83-.79s-1.35-1.4-1.16-1.63l.34-.42c-.19.23.33.96 1.16 1.63z"/><path class="cls-15" d="M129.19 102.76a22.37 22.37 0 0 1-3.5 6.27l-1.6 2a12.08 12.08 0 0 1-2.67-1.37 12.32 12.32 0 0 1-1.91-2.29s.64-.86 1.58-2c1.68-2.07 2.49-3.09 3.9-3.9a11.22 11.22 0 0 0 2.21 1 9.11 9.11 0 0 1 1.99.29z"/><path class="cls-11" d="M121.87 109.07c1.28 1 2.55 1.57 2.84 1.22l-.53.65c-.29.35-1.56-.19-2.83-1.22s-2.07-2.15-1.78-2.51l.52-.65c-.29.36.51 1.49 1.78 2.51z"/><path class="cls-14" d="M119.67 107.91a4.89 4.89 0 0 0 .47.65l-.07.09a2.1 2.1 0 0 1-.4-.74zm-.14 1.17a.88.88 0 0 0 .12.17.74.74 0 0 1-.12-.17z"/><path class="cls-15" d="M119.5 107.34l.01-.01v.01h-.01z"/><path class="cls-16" d="M120.07 108.65c-.14.2-.29.4-.42.6a.88.88 0 0 1-.12-.17.24.24 0 0 1 0-.21l-.09.11c-.23-.34-.31-.62-.2-.76l.35-.43.06.12a2.1 2.1 0 0 0 .42.74z"/><path class="cls-16" d="M119.53 109.08a.74.74 0 0 0 .08.22c-.11.15-.21.31-.31.47-.13-.22-.16-.39-.09-.48l.25-.31.09-.11a.24.24 0 0 0-.02.21z"/><path class="cls-17" d="M121.34 107l-.7.9c-.45-.54-.69-1-.59-1.26.26-.34.62-.8 1-1.31 1.68-2.07 2.49-3.08 3.89-3.89a5 5 0 0 1 .86.46c-1.58 1.21-2.72 2.93-4.46 5.1z"/><path class="cls-16" d="M120.64 107.88c-.17.22-.34.45-.5.68a4.89 4.89 0 0 1-.47-.65l-.06-.12a.84.84 0 0 1-.1-.45.29.29 0 0 1 0-.13l.53-.65a.25.25 0 0 0 0 .07c-.04.24.15.71.6 1.25z"/><path d="M125.32 99.23c-.23-.25-.18-.46.12-.6a3.1 3.1 0 0 1 .86-.21c.62-.08 1.24-.1 1.86-.12h.77c.08 0 .15 0 .17.08a2.45 2.45 0 0 0 .67.53c.12 0 .21.09.32.11s.34.23.35.45a5.29 5.29 0 0 0 .08.8c.08.39.09.74-.38.88v.06c0 .06.3 0 .44.1-.12.11-.21.2 0 .29s.09.31-.06.4-.36 0-.54 0c-.19 0-.34 0-.29-.24s-.08-.26-.25-.27a.25.25 0 0 1-.16-.06 2.22 2.22 0 0 1-.52-.2c-.07 0-.16-.09-.14-.17s-.08-.16-.17-.19a7.15 7.15 0 0 1-1.45-.52 5.37 5.37 0 0 1-1.68-1.12z" fill="#945866"/></g><path class="cls-1" d="M218.17 56.27l.94-5.18.17 5.18 4.68.67-4.73.56-.95 5.45-.22-5.45-4.62-.56 4.73-.67zM141.33 15.7l.86-4.7.15 4.7 4.25.6-4.3.51-.86 4.95-.2-4.95-4.19-.51 4.29-.6z"/><path d="M152.16 56.76c-3.3.65-3.22 6-.91 6.48 2.59.52 5 .12 5.4-1.57s-.8-5.62-4.49-4.91z" fill="#bdbbbb"/></svg>