<svg id="Layer_1" data-name="Layer 1" xmlns="http://www.w3.org/2000/svg" viewBox="0 0 251 151"><defs><style>.cls-1,.cls-3,.cls-4{fill:none;stroke:#333e3e;stroke-miterlimit:10}.cls-1{stroke-width:4.41px}.cls-2{fill:#4b5c61}.cls-3{stroke-width:3.14px}.cls-4{stroke-width:3.48px}.cls-5{fill:#5e3e21}.cls-8{fill:#783a28}.cls-10{fill:#8f4729}.cls-11{fill:#e1f1f9}</style></defs><path class="cls-1" d="M172.79 141l-2.65-66.85-18.63 55.28M170.14 74.15L191.48 129"/><path class="cls-2" d="M164.67 71.68l-21.3-34s2.52-.41 7.58-4 6-5.68 6-5.68l25 31.31s-.32 2.34-7.81 7.67-9.52 4.63-9.52 4.63"/><path class="cls-3" d="M164.67 71.68l-21.3-34s2.52-.41 7.58-4 6-5.68 6-5.68l25 31.31s-.32 2.34-7.81 7.67-9.47 4.7-9.47 4.7z"/><path class="cls-2" d="M132.65 31.44l31.49 39.34s1.55-2.83 7.9-7.39 9.28-4.81 9.28-4.81l-26.75-42.71s-3.56-1.55-13 5.18-8.88 10.39-8.88 10.39"/><path class="cls-3" d="M132.65 31.44l31.49 39.34s1.55-2.83 7.9-7.39 9.28-4.81 9.28-4.81l-26.75-42.71s-3.56-1.55-13 5.18-8.92 10.39-8.92 10.39z"/><path class="cls-2" d="M164.67 71.68l-21.3-34s2.52-.41 7.58-4 6-5.68 6-5.68l25 31.31s-.32 2.34-7.81 7.67-9.52 4.63-9.52 4.63"/><path class="cls-3" d="M164.67 71.68l-21.3-34s2.52-.41 7.58-4 6-5.68 6-5.68l25 31.31s-.32 2.34-7.81 7.67-9.47 4.7-9.47 4.7z"/><path class="cls-2" d="M184.53 93.81L170 70.67s1.72-.28 5.17-2.7 4.09-3.87 4.09-3.87l17.06 21.33s-.22 1.6-5.33 5.22-6.48 3.16-6.48 3.16"/><path class="cls-4" d="M184.53 93.81L170 70.67s1.72-.28 5.17-2.7 4.09-3.87 4.09-3.87l17.06 21.33s-.22 1.6-5.33 5.22-6.46 3.16-6.46 3.16z"/><path class="cls-2" d="M198.48 108.78l-9.07-14.47a9.47 9.47 0 0 0 3.23-1.69 7.69 7.69 0 0 0 2.56-2.42l10.67 13.34s-.14 1-3.33 3.27-4.06 2-4.06 2"/><path class="cls-4" d="M198.48 108.78l-9.07-14.47a9.47 9.47 0 0 0 3.23-1.69 7.69 7.69 0 0 0 2.56-2.42l10.67 13.34s-.14 1-3.33 3.27-4.06 1.97-4.06 1.97z"/><path class="cls-2" d="M184.84 91.64l13.42 16.76a11.81 11.81 0 0 1 3.36-3.15c2.71-1.94 4-2 4-2L194.18 85s-1.51-.66-5.55 2.21-3.79 4.43-3.79 4.43"/><path class="cls-4" d="M184.84 91.64l13.42 16.76a11.81 11.81 0 0 1 3.36-3.15c2.71-1.94 4-2 4-2L194.18 85s-1.51-.66-5.55 2.21-3.79 4.43-3.79 4.43z"/><path class="cls-2" d="M162.71 66.39l21.46 26.81s.16-3 4.48-6.13 7.23-2.18 7.23-2.18l-18.23-29.1s-2.42-1.06-8.88 3.52-6.06 7.08-6.06 7.08"/><path class="cls-4" d="M162.71 66.39l21.46 26.81s.16-3 4.48-6.13 7.23-2.18 7.23-2.18l-18.23-29.1s-2.42-1.06-8.88 3.52-6.06 7.08-6.06 7.08z"/><path class="cls-2" d="M131.56 32.34l32.58 38.44s.66-3.91 7-8.47 10.18-3.73 10.18-3.73L155.66 15s-6.44-2.83-15.92 3.9-8.18 13.47-8.18 13.47"/><path class="cls-3" d="M131.56 32.34l32.58 38.44s.66-3.91 7-8.47 10.18-3.73 10.18-3.73L155.66 15s-6.44-2.83-15.92 3.9-8.18 13.44-8.18 13.44z"/><path class="cls-5" d="M203.65 133.55c.07-.41-3.31-.4-3.31-.4-.56.83-.87 1.27-.79 2a9.81 9.81 0 0 0-1.44 0c-2.89.18-5.16 1.57-5.06 3.11.06 1.08 2.69.7 5.28.49 1.31-.1 2.61-.07 3.58-.15l1.66-.11s.61-.65-.55-2.81c-.22-.37.55-1.68.63-2.13zm-.42 4.69z"/><path d="M192.66 134.17c.13-.4-5.06-1-5.06-1a10.91 10.91 0 0 0 .82 2.17 8.35 8.35 0 0 0-1.43-.18c-2.9-.15-5.3 1-5.38 2.52-.06 1.09 2.59 1 5.19 1.08 1.32 0 2.6.22 3.57.24l1.67.09s.68-.58-.23-2.86c-.18-.4.73-1.65.85-2.06zm-.93 4.62z" fill="#54371d"/><path d="M201.27 123.24a3 3 0 0 1 1.55 1.41c.19.49.32 1 .49 1.47.29 1 .58 2 .79 3s.39 2 .53 3l.21 1.5a3.81 3.81 0 0 1 .07.75c0 .26-.19.52-.67.8l-9.74.67c-.51-.22-.69-.46-.77-.71a3.77 3.77 0 0 1 0-.75v-1.51c0-1 0-2 .13-3s.22-2 .38-3c.1-.51.17-1 .29-1.53a3 3 0 0 1 1.34-1.6z" fill="#6d3325"/><path class="cls-8" d="M192.08 123.58a3 3 0 0 1 1.35 1.6c.13.51.2 1 .3 1.53.16 1 .32 2 .4 3s.13 2 .14 3v1.51a3.74 3.74 0 0 1 0 .75c-.08.25-.26.49-.77.71l-9.74-.61c-.47-.28-.63-.54-.67-.8a3.81 3.81 0 0 1 .07-.75l.2-1.5c.13-1 .3-2 .51-3s.49-2 .78-3c.16-.5.3-1 .48-1.49a3.11 3.11 0 0 1 1.54-1.41z"/><path class="cls-5" d="M176.1 95.74c-1.44-2.3-2.29-4.49-3.42-5s-2.09 0-2 1.65-.47 3.82 0 4.4c.61.77 1.82 2.23 2.57 2.11a22 22 0 0 0 3.61-2.11z"/><path d="M189.36 115.65c-.69-1.19-.26-3.16-.88-5.08-.86-2.65.19-4.72-.36-3.89s-1.47.58-1.38.47.09.31.92-.94-.11-3.13.63-6a16.75 16.75 0 0 1 1.05-3 5.93 5.93 0 0 0-.94.81c3.8-8.38 9.62-9.71 10.19-9.63a3.16 3.16 0 0 0-1.49-.46c2.59-1.3 4.21-.15 4.46 0a1.84 1.84 0 0 0-.87-1.24 3.71 3.71 0 0 1 3.64.69 1.51 1.51 0 0 1 .47 1.4 2.32 2.32 0 0 1 3.3-1.08c-2.58 1.38-1.91 1.31-1.91 1.45s2 0 3.19.9a1.49 1.49 0 0 0-1.08.12c1.47.54 3.23 1 4.23 4.56a4.2 4.2 0 0 0-2-1 11.59 11.59 0 0 1 .57 10.39c-.1-.26-.54-1.75-.77-1.75.24 1.17.93 5.16-6.63 11.22.28-.43.73-1.56.53-1.71-.31.92-2.57 2.41-6.13 2.39-4.88-.03-7.21.23-8.74 1.38z" fill="#dcb680"/><path class="cls-10" d="M181.76 123.17l-.61 3.31c-.61 3.21 5 4.65 12.09 6 6.12 1.11 13.21 2.73 14-1.79 3-11.67 1.53-22.17-8.7-24-10.14-1.85-14.15 4.63-16.08 12.64a.59.59 0 0 0-.06.14l-.08.47c-.19.96-.39 2.06-.56 3.23z"/><path class="cls-8" d="M192.31 113c-.05.59-.21.79-.37.91a3.38 3.38 0 0 1-.52.35 2.94 2.94 0 0 1-1.12.33 4.61 4.61 0 0 1-2.11-.24 19.07 19.07 0 0 1-3.56-1.65 33.12 33.12 0 0 1-5.87-4.46 39.14 39.14 0 0 1-4.8-5.34c-.72-1-1.38-2-2-3a6.27 6.27 0 0 1-.82-1.61 5 5 0 0 1-.18-1 1.61 1.61 0 0 1 .09-.58l.14-.34c0-.09.11-.23.72-.66l2.19-1.22c.68-.3.84-.32.94-.29h.35a1.53 1.53 0 0 1 .51.16 5.49 5.49 0 0 1 .7.51 6.3 6.3 0 0 1 1 1.26c.61.89 1.24 1.76 1.87 2.63 1.27 1.73 2.51 3.5 3.84 5.17a41.44 41.44 0 0 0 4.2 4.7 12 12 0 0 0 2.32 1.76c.2.12.39.22.58.35l.54.43a6 6 0 0 1 .58.51 3.61 3.61 0 0 0 .33.35c.12.09.24.27.47.84z"/><path class="cls-10" d="M191.94 98.33a11.37 11.37 0 1 0 15-5.76 11.37 11.37 0 0 0-15 5.76z"/><circle class="cls-11" cx="161.38" cy="66" r=".6"/><circle class="cls-11" cx="182.24" cy="40.15" r=".6"/><circle class="cls-11" cx="121.87" cy="54.92" r=".6"/><circle class="cls-11" cx="49.57" cy="70.81" r=".6"/><circle class="cls-11" cx="127.5" cy="86.52" r=".6"/><circle class="cls-11" cx="32.21" cy="25.24" r=".6"/><circle class="cls-11" cx="76" cy="40.64" r=".6"/><circle class="cls-11" cx="230.77" cy="137.49" r=".6"/><circle class="cls-11" cx="104.7" cy="28.42" r=".6"/><circle class="cls-11" cx="63.7" cy="100.79" r=".6"/><circle class="cls-11" cx="107.35" cy="121.73" r=".6"/><circle class="cls-11" cx="128.74" cy="33.92" r=".6"/><circle class="cls-11" cx="191.74" cy="67.73" r=".6"/><circle class="cls-11" cx="178.41" cy="89.82" r=".6"/><circle class="cls-11" cx="208.06" cy="112.75" r=".6"/><circle class="cls-11" cx="149.9" cy="34.22" r=".6"/><circle class="cls-11" cx="142.81" cy="112.16" r=".6"/><circle class="cls-11" cx="230.12" cy="54.93" r=".6"/><circle class="cls-11" cx="220.83" cy="35.64" r=".6"/><circle class="cls-11" cx="34.26" cy="120.08" r=".6"/><circle class="cls-11" cx="90.89" cy="79.94" r=".6"/><path d="M212.67 106.91999999999999a11.36 11.36 0 0 0-1.15-11 12.07 12.07 0 0 0-1.12-2.7 4 4 0 0 1 2 1c-1-3.6-2.76-4-4.23-4.56a1.43 1.43 0 0 1 1.08-.13c-1.16-.89-3.18-.79-3.19-.9s-.67-.07 1.91-1.44a2.31 2.31 0 0 0-3.3 1.08 1.56 1.56 0 0 0-.47-1.41 3.68 3.68 0 0 0-3.64-.68 1.82 1.82 0 0 1 .87 1.23 4.15 4.15 0 0 0-4.46 0 3.2 3.2 0 0 1 1.49.46c-.57-.08-6.39 1.25-10.2 9.63a5.85 5.85 0 0 1 1-.8 16.65 16.65 0 0 0-1.05 3c-.74 2.89.2 4.78-.63 6s-.84.83-.92.94.82.37 1.38-.46c.4-.62-.06.34 0 2l-.41.35c-.46-.4-.93-.87-1.4-1.36s-1-1.11-1.52-1.7-1-1.22-1.5-1.85-1-1.27-1.47-1.9-.92-1.27-1.37-1.88l-1.3-1.84-1.13-1.58c-.35-.5-.65-.95-.94-1.35a3.76 3.76 0 0 0-.94-.9 2 2 0 0 0-.46-.27 1.56 1.56 0 0 0-.43-.08c-1-1.74-1.7-3.21-2.59-3.66-1.13-.57-2.09 0-2 1.65s-.48 3.82 0 4.41l.28.34a.3.3 0 0 0 0 .1 1.71 1.71 0 0 0 0 .59 4.27 4.27 0 0 0 .46 1.39c.27.48.61 1 1 1.56l.58.88.65.92c.45.62.94 1.27 1.48 1.92s1.13 1.29 1.72 1.94 1.24 1.28 1.91 1.9 1.35 1.21 2.05 1.78a26.31 26.31 0 0 0 2.13 1.6c.63.42 1.24.81 1.86 1.17a27.71 27.71 0 0 0-2.29 6.39.42.42 0 0 0-.06.14l-.08.47c-.24 1.06-.44 2.17-.61 3.34l-.61 3.3c-.28 1.45.72 2.54 2.54 3.42l-.06.33c-.07.37-.12.73-.18 1.08-.11.7-.2 1.36-.27 1.92 0 .28-.07.54-.1.77a.87.87 0 0 0 .07.6 1.28 1.28 0 0 0 .36.4.94.94 0 0 0 .17.11h.06l1.37.09c-2 .3-3.44 1.24-3.5 2.43s2.59 1 5.19 1.09c1.32 0 2.6.22 3.57.24l1.67.08s.68-.58-.23-2.85a.79.79 0 0 1 .09-.57l1.58.1h.07l.18-.09a1.18 1.18 0 0 0 .24-.17 1.57 1.57 0 0 0 .28.21l.18.09h.07l.89-.06c-1.46.58-2.41 1.52-2.35 2.52s2.7.7 5.29.5c1.31-.11 2.61-.07 3.58-.16l1.66-.1s.61-.65-.55-2.81a.67.67 0 0 1 0-.47l1.22-.08h.07l.16-.12a1.28 1.28 0 0 0 .36-.4.82.82 0 0 0 .06-.6c0-.2 0-.43-.08-.67a3.3 3.3 0 0 0 2.48-2.66c1.7-6.66 2-12.92 0-17.44a11.24 11.24 0 0 0 4.77-4.31c.23 0 .41 0 .57-.08m-20.87 30z" fill="#062633" opacity=".1"/><circle class="cls-11" cx="215.94" cy="92.49" r=".6"/><circle class="cls-11" cx="190.94" cy="109.49" r=".6"/><circle class="cls-11" cx="204.87" cy="88.41" r=".52"/><circle class="cls-11" cx="207.48" cy="95.16" r=".52"/></svg>