<svg id="Layer_1" data-name="Layer 1" xmlns="http://www.w3.org/2000/svg" viewBox="0 0 251 151"><defs><style>.cls-1{fill:#e1f1f9}.cls-3{fill:#e1dfe0}.cls-4{fill:#e84c59}.cls-5{fill:#ee7b5c}.cls-6{fill:#f9c862}.cls-7{fill:#062633}.cls-8{fill:#abaaaa}.cls-9{fill:none}.cls-10{fill:#041d26}.cls-11{fill:#6e6e6e}.cls-12{fill:silver}.cls-13{fill:#5e3e21}.cls-14{fill:#783a28}.cls-18{fill:#662f1e}.cls-19{fill:#231d13}</style></defs><path class="cls-1" d="M27.11 98.29l1.08-5.88.19 5.88 5.31.76-5.38.64-1.07 6.2-.25-6.2-5.26-.64 5.38-.76zM107.15 13.46l.98-5.34.17 5.34 4.83.69-4.89.58-.97 5.63-.23-5.63-4.77-.58 4.88-.69zM219.71 137l-1.72 7 .2-7.09-6.33-1.3 6.51-.37 1.74-7.37-.14 7.47 6.27 1.14-6.53.52zM228.92 62.42l-.64 3.36-.11-3.36-3.15-.43 3.19-.36.64-3.54.15 3.54 3.11.36-3.19.43z"/><g opacity=".2"><path class="cls-3" d="M174.11 17a15.06 15.06 0 1 0 15.34 11.51.68.68 0 1 0-1.32.32 13.85 13.85 0 0 1 .36 2.56h-4.82a31.92 31.92 0 0 0-.83-6.65h3.55a13.88 13.88 0 0 1 .78 1.42.68.68 0 0 0 1.23-.59 15.08 15.08 0 0 0-5.47-6.19 14.9 14.9 0 0 0-7.46-2.38m-7 2.89a20.85 20.85 0 0 0-1.36 3.48h-2.92a13.87 13.87 0 0 1 4.26-3.45zm-5.26 4.84h3.54a31.27 31.27 0 0 0-.82 6.65h-4.83a13.67 13.67 0 0 1 2.09-6.62zm1 16h2.92a20.85 20.85 0 0 0 1.37 3.48 13.79 13.79 0 0 1-4.33-3.42zm9.94 5a13.58 13.58 0 0 1-3.57-.65 17.13 17.13 0 0 1-2-4.36h5.6zm0-6.37h-6c-.18-.68-.32-1.39-.45-2.12a.67.67 0 0 0-.78-.55.68.68 0 0 0-.56.78c.11.64.24 1.28.39 1.89h-3.54a13.68 13.68 0 0 1-2.11-6.66h4.83c0 .5 0 1 .06 1.48a.67.67 0 0 0 .67.63h.05a.67.67 0 0 0 .63-.72V32.7h6.84v6.66zm0-8h-6.84a29.7 29.7 0 0 1 .86-6.65h6zm0-8h-5.6a16.78 16.78 0 0 1 2-4.36 13.58 13.58 0 0 1 3.57-.65zM179 45.15a13.58 13.58 0 0 1-3.56.65v-5h5.59a16.94 16.94 0 0 1-2.03 4.35zm3.27-12.38a29.22 29.22 0 0 1-.86 6.66h-6v-6.66zm-6.83-1.36v-6.65h6a29.13 29.13 0 0 1 .86 6.65zm5.65 12.86a21.55 21.55 0 0 0 1.36-3.48h2.92a13.87 13.87 0 0 1-4.25 3.48zm2.55-11.5h4.82a13.58 13.58 0 0 1-2.11 6.66h-3.54a31.93 31.93 0 0 0 .86-6.66zm1.73-9.37h-2.92a21 21 0 0 0-1.35-3.46 13.86 13.86 0 0 1 4.3 3.46zM179 19.05a16.7 16.7 0 0 1 2 4.35h-5.59v-5a13.89 13.89 0 0 1 3.59.65z"/><path class="cls-3" d="M174.11 5.58h1.37v18.07h-1.37z"/><path class="cls-1" d="M188.9 27.1l1.13-6.23.2 6.23 5.63.8-5.69.67-1.14 6.57-.27-6.57-5.55-.67 5.69-.8zM162.82 40.04l1.25-6.86.23 6.86 6.2.89-6.28.74-1.25 7.23-.29-7.23-6.13-.74 6.27-.89z"/></g><path class="cls-4" d="M104.15 97c2.49 3.29 6.87 9.85 7.14 14.48.41 7.19-5.46 15.81-8.41 19.19.81-4.9.48-8.34-1.2-10.09-.54-.55-.51 2.33-2.41 3.86a11.84 11.84 0 0 0-1.94-5.11c-1-1.73-2.32-5.09-2.11-7.53.66-7.81 5.94-13.53 7-14.87z"/><path class="cls-5" d="M104.15 97c1.21 1.34 4.31 6.87 4.19 10.22s-4.53 9.13-5.83 13.14c-.83-3.07-.63-4.39-2.2-6.55s-1.62-2.56-2-4 .6-5.41 1.94-8.75a18.7 18.7 0 0 1 1.91-4.08z"/><path class="cls-6" d="M104.15 97c1.11 1.79 3.39 7.21 2.5 9.44s-2.41 2.52-4.11 5.9c-.63-1.1.15-3.74-1-4.67-.35.93-.34 1.53-1.1 2.24.24-1.37-.48-2.68-.58-4.4-.11-2 .94-3.86 1.6-5.61a11.9 11.9 0 0 0 .75-3z"/><path class="cls-7" d="M103.56 98.28c3.54.07 6.42-.69 6.44-1.68v1.8c0 1-2.91 1.76-6.45 1.69s-6.39-.93-6.37-1.93v-1.81c-.02 1 2.82 1.86 6.38 1.93z"/><path class="cls-7" d="M103.52 100.46c2.66.05 4.84-.52 4.85-1.27v1.36c0 .75-2.18 1.32-4.85 1.27s-4.82-.7-4.8-1.45v-1.36c-.02.75 2.13 1.4 4.8 1.45z"/><path class="cls-8" d="M108.84 74a44.6 44.6 0 0 1 2.25 15.86l-.12 6.38a29.7 29.7 0 0 1-7.4 1.4A30.89 30.89 0 0 1 96.26 96s-.07-2.68 0-6.45a43.87 43.87 0 0 1 3-15.72 20.23 20.23 0 0 0 4.71.64 19.34 19.34 0 0 0 4.87-.47z"/><path class="cls-3" d="M104.11 67c.84 0 3 2.29 4.73 7a19.34 19.34 0 0 1-4.87.5 20.23 20.23 0 0 1-4.71-.64c1.86-4.55 4.05-6.86 4.85-6.86z"/><path class="cls-7" d="M103.6 95.83c4.11.08 7.46-.8 7.48-2v2.1c0 1.16-3.37 2-7.48 2s-7.42-1.08-7.4-2.24v-2.1c-.02 1.16 3.29 2.16 7.4 2.24z"/><path class="cls-9" d="M97.44 96.9a10.78 10.78 0 0 0 1.92.58 2.62 2.62 0 0 0 0 .28 4.79 4.79 0 0 1-1.92-.86zM99 99.47l.49.13v.16a2.54 2.54 0 0 1-.49-.29z"/><path class="cls-8" d="M96.23 96z"/><path class="cls-10" d="M99.37 97.76c0 .62 0 1.24.08 1.84l-.45-.13a.65.65 0 0 1-.28-.47v.37c-1-.33-1.56-.76-1.56-1.21v-1.4l.3.14a4.79 4.79 0 0 0 1.91.86z"/><path class="cls-10" d="M99 99.47a2.54 2.54 0 0 0 .5.29l.09 1.41c-.56-.23-.9-.51-.89-.81V99a.65.65 0 0 0 .3.47z"/><path class="cls-11" d="M99.32 92.49v2.87c-1.73-.38-2.91-1-3.11-1.58v-4.19a44.13 44.13 0 0 1 3-15.73 16.46 16.46 0 0 0 2.38.46 79 79 0 0 0-2.27 18.17z"/><path class="cls-12" d="M99.22 73.86c1.87-4.56 4.06-6.91 4.86-6.89a.93.93 0 0 1 .38.11 27.14 27.14 0 0 0-2.86 7.24 16.46 16.46 0 0 1-2.38-.46z"/><path class="cls-10" d="M99.31 95.36v2.12a10.78 10.78 0 0 1-1.92-.58l-.3-.14a2.09 2.09 0 0 1-.9-.72.7.7 0 0 1-.1-.34v-2.1a.64.64 0 0 0 0 .2c.31.61 1.49 1.2 3.22 1.56z"/><path class="cls-4" d="M116.87 96.74c2.73 3.09 7.62 9.28 8.25 13.88 1 7.13-4.2 16.19-6.87 19.79.42-5-.17-8.35-2-10-.58-.51-.33 2.36-2.1 4a11.85 11.85 0 0 0-2.33-4.94c-1.11-1.65-2.72-4.89-2.7-7.33 0-7.84 4.85-14 5.78-15.38z"/><path class="cls-5" d="M116.87 96.74c1.3 1.25 4.83 6.51 5 9.86s-3.79 9.46-4.78 13.56c-1.07-3-1-4.33-2.71-6.36s-1.82-2.42-2.28-3.88.19-5.44 1.25-8.88a18.61 18.61 0 0 1 1.58-4.21z"/><path class="cls-6" d="M116.87 96.74c1.25 1.7 3.94 6.92 3.23 9.22s-2.2 2.7-3.63 6.21c-.72-1-.15-3.74-1.37-4.58-.28 1-.22 1.55-.93 2.32.13-1.38-.68-2.64-.92-4.34-.27-2 .63-3.92 1.15-5.73a11.65 11.65 0 0 0 .51-3z"/><path class="cls-7" d="M116.38 98.08c3.53-.21 6.35-1.19 6.29-2.19l.11 1.8c.06 1-2.76 2-6.3 2.19s-6.48-.42-6.48-1.42l-.1-1.8c.03.99 2.94 1.63 6.48 1.42z"/><path class="cls-7" d="M116.51 100.25c2.66-.16 4.78-.9 4.74-1.65l.08 1.36c0 .75-2.08 1.49-4.74 1.65s-4.86-.32-4.9-1.07l-.09-1.36c.05.75 2.24 1.23 4.91 1.07z"/><path class="cls-8" d="M119.73 73.47a44.7 44.7 0 0 1 3.5 15.63c.21 3.66.38 6.37.38 6.37a29.86 29.86 0 0 1-7.27 2 30.68 30.68 0 0 1-7.41-1s-.28-2.67-.51-6.43a44 44 0 0 1 1.75-15.91 20.71 20.71 0 0 0 9.56-.61z"/><path class="cls-3" d="M114.46 66.82c.84 0 3.2 2 5.27 6.65a20.71 20.71 0 0 1-9.56.61c1.49-4.7 3.49-7.21 4.29-7.26z"/><path class="cls-7" d="M116.23 95.63c4.1-.25 7.37-1.38 7.3-2.54l.13 2.09c.07 1.16-3.2 2.3-7.3 2.54s-7.49-.49-7.56-1.65l-.12-2.07c.06 1.14 3.45 1.87 7.55 1.63z"/><path class="cls-9" d="M110.17 97.19a11.43 11.43 0 0 0 2 .42v.28a4.81 4.81 0 0 1-2-.7zM111.89 99.62l.5.1a1 1 0 0 0 0 .16 2.1 2.1 0 0 1-.5-.26z"/><path class="cls-8" d="M108.9 96.42z"/><path class="cls-10" d="M112.16 97.89c.07.62.14 1.23.23 1.83l-.5-.1a.63.63 0 0 1-.32-.44v.37c-1-.26-1.63-.64-1.66-1.09l-.08-1.39.31.12a4.81 4.81 0 0 0 2.02.7z"/><path class="cls-10" d="M111.89 99.62a2.1 2.1 0 0 0 .52.26c.06.47.13.93.2 1.4-.58-.19-.94-.44-1-.74l-.05-1v-.37a.63.63 0 0 0 .33.45z"/><path class="cls-11" d="M111.7 92.63c.06 1 .13 1.93.21 2.87-1.75-.24-3-.71-3.22-1.33-.09-1.09-.2-2.53-.3-4.18a44.24 44.24 0 0 1 1.74-15.91 17.75 17.75 0 0 0 2.41.27 78.6 78.6 0 0 0-.84 18.28z"/><path class="cls-12" d="M110.13 74.08c1.5-4.7 3.5-7.21 4.3-7.26a.9.9 0 0 1 .39.09 26.93 26.93 0 0 0-2.28 7.44 17.75 17.75 0 0 1-2.41-.27z"/><path class="cls-10" d="M111.91 95.5c.06.71.14 1.41.22 2.11a11.43 11.43 0 0 1-2-.42l-.31-.12a2 2 0 0 1-1-.65.66.66 0 0 1-.12-.33l-.06-2.09a.67.67 0 0 0 0 .19c.3.6 1.52 1.07 3.27 1.31z"/><path class="cls-7" d="M119.83 98.63c4-.28 7.16-1.41 7.08-2.53l.14 2c.08 1.13-3.09 2.26-7.08 2.53s-7.28-.41-7.35-1.54l-.14-2c.07 1.12 3.37 1.81 7.35 1.54z"/><path class="cls-7" d="M120 101.08c3-.21 5.39-1.06 5.33-1.91l.11 1.54c0 .84-2.33 1.69-5.33 1.9s-5.48-.31-5.54-1.16l-.11-1.53c.06.85 2.54 1.37 5.54 1.16z"/><path class="cls-8" d="M123.37 70.84a49.94 49.94 0 0 1 4.1 17.59c.28 4.13.49 7.18.49 7.18s-4.91 2.08-8.18 2.31-8.36-1.09-8.36-1.09-.35-3-.64-7.25a49.58 49.58 0 0 1 1.81-18 22.57 22.57 0 0 0 5.36.25 21.84 21.84 0 0 0 5.42-.99z"/><path class="cls-3" d="M117.36 63.4c1-.07 3.63 2.27 6 7.44a21.84 21.84 0 0 1-5.42 1 22.57 22.57 0 0 1-5.36-.25c1.65-5.28 3.88-8.13 4.78-8.19z"/><path class="cls-7" d="M119.64 95.86c4.63-.31 8.3-1.63 8.21-2.93l.17 2.36c.09 1.3-3.59 2.62-8.22 2.94s-8.44-.48-8.53-1.79l-.16-2.36c.09 1.31 3.89 2.1 8.53 1.78z"/><path class="cls-9" d="M112.83 97.68a11.26 11.26 0 0 0 2.2.46v.32a5.23 5.23 0 0 1-2.2-.78zM114.79 100.41l.56.11v.18a2.49 2.49 0 0 1-.56-.29z"/><path class="cls-8" d="M111.38 96.83z"/><path class="cls-10" d="M115.07 98.46c.09.69.18 1.38.28 2.06l-.56-.11a.67.67 0 0 1-.36-.49v.42c-1.13-.28-1.83-.71-1.87-1.22l-.11-1.57a3 3 0 0 0 .36.13 5.23 5.23 0 0 0 2.26.78z"/><path class="cls-10" d="M114.79 100.41a2.49 2.49 0 0 0 .59.29c.07.53.15 1 .24 1.57-.66-.2-1.07-.49-1.09-.82l-.08-1.11v-.42a.67.67 0 0 0 .34.49z"/><path class="cls-11" d="M114.5 92.53c.07 1.1.17 2.17.27 3.23-2-.25-3.36-.77-3.64-1.46-.12-1.24-.25-2.86-.38-4.72a49.39 49.39 0 0 1 1.8-18 20.66 20.66 0 0 0 2.72.28 88.63 88.63 0 0 0-.77 20.67z"/><path class="cls-12" d="M112.55 71.62c1.65-5.31 3.88-8.16 4.78-8.23a1.14 1.14 0 0 1 .43.1 30.89 30.89 0 0 0-2.49 8.41 20.66 20.66 0 0 1-2.72-.28z"/><path class="cls-10" d="M114.77 95.76c.08.81.17 1.6.26 2.38a11.26 11.26 0 0 1-2.2-.46 3 3 0 0 1-.36-.13 2.26 2.26 0 0 1-1.08-.72.79.79 0 0 1-.15-.37l-.16-2.36a.79.79 0 0 0 .06.22c.27.68 1.65 1.19 3.63 1.44z"/><path class="cls-7" d="M103.75 100.92c4-.28 7.15-1.41 7.07-2.53l.14 2c.08 1.12-3.09 2.26-7.07 2.53s-7.28-.41-7.36-1.54l-.14-2c.08 1.12 3.37 1.81 7.36 1.54z"/><path class="cls-7" d="M103.92 103.37c3-.21 5.38-1.06 5.33-1.91l.1 1.53c.06.85-2.33 1.7-5.33 1.91s-5.48-.31-5.54-1.16l-.1-1.53c.05.85 2.53 1.36 5.54 1.16z"/><path class="cls-8" d="M107.29 73.13a50.19 50.19 0 0 1 4.09 17.59c.29 4.13.5 7.18.5 7.18s-4.88 2.1-8.18 2.3-8.37-1.08-8.37-1.08-.34-3-.63-7.25a49.83 49.83 0 0 1 1.8-18 22.08 22.08 0 0 0 5.36.25 22.49 22.49 0 0 0 5.43-.99z"/><path class="cls-3" d="M101.28 65.69c.94-.07 3.62 2.27 6 7.44a22.49 22.49 0 0 1-5.43 1 22.08 22.08 0 0 1-5.36-.25c1.66-5.28 3.89-8.13 4.79-8.19z"/><path class="cls-7" d="M103.56 98.15c4.62-.31 8.3-1.63 8.21-2.93l.16 2.36c.09 1.3-3.59 2.62-8.21 2.94s-8.45-.48-8.54-1.79L95 96.37c.11 1.31 3.93 2.1 8.56 1.78z"/><path class="cls-9" d="M96.74 100a11.22 11.22 0 0 0 2.21.46v.32a5.33 5.33 0 0 1-2.21-.78zM98.7 102.7l.56.11v.18a2.49 2.49 0 0 1-.56-.29z"/><path class="cls-8" d="M95.29 99.12z"/><path class="cls-10" d="M99 100.75c.08.69.17 1.38.27 2.06l-.56-.11a.67.67 0 0 1-.36-.49v.42c-1.13-.29-1.84-.71-1.87-1.22l-.11-1.57.35.13a5.33 5.33 0 0 0 2.28.78z"/><path class="cls-10" d="M98.7 102.7a2.49 2.49 0 0 0 .59.29l.24 1.57c-.66-.2-1.06-.49-1.08-.82l-.08-1.11v-.42a.67.67 0 0 0 .33.49z"/><path class="cls-11" d="M98.41 94.82c.08 1.1.17 2.17.28 3.23-2-.25-3.37-.77-3.65-1.46-.11-1.24-.25-2.86-.38-4.72a49.55 49.55 0 0 1 1.81-18 20.33 20.33 0 0 0 2.71.28 89.74 89.74 0 0 0-.77 20.67z"/><path class="cls-12" d="M96.47 73.91c1.64-5.31 3.87-8.17 4.77-8.23a1.15 1.15 0 0 1 .44.09 30.6 30.6 0 0 0-2.5 8.42 20.33 20.33 0 0 1-2.71-.28z"/><path class="cls-10" d="M98.69 98.05c.08.81.16 1.6.26 2.38a11.22 11.22 0 0 1-2.21-.46l-.35-.13a2.35 2.35 0 0 1-1.09-.72.77.77 0 0 1-.14-.37L95 96.37a.9.9 0 0 0 .06.22c.26.69 1.65 1.21 3.63 1.46z"/><path class="cls-13" d="M83.86 63.64c0-.07-.65-4.61-2.22-4.12a1 1 0 0 0-.77.86 2.12 2.12 0 0 0-1.33-1.06c-1.73-.43-2.52.54-3.4 2.08s1.4 4.27 2.88 6.05a9.72 9.72 0 0 0 1.13 1.49l5.21-3.77a3.76 3.76 0 0 1-1.5-1.53zM105 107.87c0-.52-6.33.23-6.33.23a12.8 12.8 0 0 0 1.59 2.35 12.12 12.12 0 0 0-1.76.19c-3.49.65-6 2.68-5.7 4.54.24 1.31 3.38.45 6.51-.19 1.58-.32 3.16-.47 4.32-.72l2-.37s.65-.89-1.08-3.34c-.37-.42.37-2.17.45-2.69zm.19 5.77z"/><path class="cls-14" d="M105.88 96.81a3.8 3.8 0 0 1 1.05 3 8.17 8.17 0 0 1-1.38 3.72 14.49 14.49 0 0 1-2.37 2.46c-.21.19-.25.3-.12.24a1.94 1.94 0 0 0 .56-.6 3.81 3.81 0 0 0 .25-.52v.13c0 .24.21.71.36 1.18s.37 1 .6 1.59.67 1.06 0 2l-8.73 3.46a1.73 1.73 0 0 1-1.06-.83 8.33 8.33 0 0 1-.38-1.13c-.23-.76-.45-1.57-.65-2.43a17.76 17.76 0 0 1-.41-3v-.92c0-.3 0-.71.09-1a8.3 8.3 0 0 1 .76-2.56 7.47 7.47 0 0 1 1.76-2.31 8.23 8.23 0 0 1 1.55-1.05c.73-.39.81-.34.86-.23s.18.18.39-.06a11.29 11.29 0 0 1 1.51-1.17z"/><path class="cls-13" d="M123.93 112.83c1 2.81 2.14 2.78 2.14 2.78l1.44-1.44c.87-.82 1.88-2 3-3.16 2.29-2.21 4.78-4.32 3.83-5.26-1.34-1.34-4.46-.38-7 2.13a13.9 13.9 0 0 0-1.15 1.34 12.54 12.54 0 0 0-1-2.63s-4.21 4.82-3.77 5.08 2.35.65 2.51 1.16zm2.18 2.26z"/><path class="cls-14" d="M118.24 97.42c2-.45 2.81.53 4 1.09s2.14 1.3 3.16 2 2 1.44 3 2.19l1.46 1.14a6.85 6.85 0 0 1 .72.59 1.42 1.42 0 0 1 .24 1.13l-6.16 7.09a1.44 1.44 0 0 1-1.16-.08 6.76 6.76 0 0 1-.68-.63l-1.33-1.29c-.89-.86-1.75-1.74-2.59-2.66s-1.63-1.88-2.42-2.85-1.79-1.69-1.63-3.77z"/><path d="M126.55 88v-.58a.78.78 0 0 0 0-.18c-1.19-10-5.13-18.5-17.73-17.72-12.73.8-16 13.37-14.09 28 .37 5.62 9.23 4.68 16.84 4.21 8.83-.54 15.86-1.48 15.58-5.48l-.26-4.11c-.12-1.39-.2-2.78-.34-4.14z" fill="#8f4729"/><path class="cls-14" d="M100.94 77c-.24.6-.41.77-.57.86l-.46.29a3.07 3.07 0 0 1-.9.3 5.2 5.2 0 0 1-.87.12 3.77 3.77 0 0 1-.83-.08l-1.65-.28c-.55-.11-1.09-.24-1.65-.37a28.19 28.19 0 0 1-6.44-2.31 24.54 24.54 0 0 1-5.75-4 25.87 25.87 0 0 1-2.4-2.61 5.36 5.36 0 0 1-1-1.51 4.61 4.61 0 0 1-.21-.94 1.25 1.25 0 0 1 .08-.58l.15-.36c0-.1.11-.25.76-.74l2.3-1.47c.71-.38.88-.42 1-.41h.36a1.81 1.81 0 0 1 .52.06 4.93 4.93 0 0 1 .69.34 3.94 3.94 0 0 1 1 .94c.6.66 1.23 1.31 1.88 1.93a46.21 46.21 0 0 0 4.13 3.59 36.5 36.5 0 0 0 4.78 3.08c.43.21.86.45 1.3.66l1.34.58a5.15 5.15 0 0 1 1.33.77 3.19 3.19 0 0 1 .63.64c.1.14.19.3.29.45a1.74 1.74 0 0 1 .2 1z"/><path class="cls-13" d="M129.21 91.35c-.86 1.51-3.2 4.69-6.56 2.17s-1.05-3-.27-3.55a3.93 3.93 0 0 0 1.67-2.45z"/><path class="cls-14" d="M116.68 72.27c.46-.45.69-.54.87-.56l.56-.09a3.38 3.38 0 0 1 1 .06 4.75 4.75 0 0 1 1.63.54c1 .51 2 1 3 1.49a56 56 0 0 1 6.19 3.3 15.15 15.15 0 0 1 1.68 1.27 7.54 7.54 0 0 1 1.8 2.2 6.18 6.18 0 0 1 .65 1.83 6.06 6.06 0 0 1 0 2 8.31 8.31 0 0 1-1 2.8 20.21 20.21 0 0 1-2.37 3.23 5.92 5.92 0 0 1-1.27 1.23 5.42 5.42 0 0 1-.84.4 1.48 1.48 0 0 1-.58.03h-.38c-.1 0-.27 0-.92-.53l-2.06-1.79c-.56-.58-.64-.74-.65-.84l-.1-.37a1.63 1.63 0 0 1 0-.57 5.53 5.53 0 0 1 .26-.87 5.33 5.33 0 0 1 .9-1.34 23.93 23.93 0 0 0 1.56-2.21c.14-.26.22-.43.2-.32a1.06 1.06 0 0 0 0 .32.51.51 0 0 0 .12.25c.07 0 0-.17-.25-.44a9.06 9.06 0 0 0-.88-.91c-.71-.64-1.53-1.36-2.38-2l-2.59-2.13-2.59-2.25a4.9 4.9 0 0 1-1.18-1.29 3.36 3.36 0 0 1-.43-.87c-.06-.17-.1-.36-.15-.54a1.64 1.64 0 0 1 .18-1z"/><path d="M110.58 85.78c-1.84-.44-3.16-2.48-5.58-3.6-3.35-1.55-4.09-4.18-3.93-3S100 80.87 100 80.7s.39.19.15-1.56-3-2.58-4.8-5.66a17.09 17.09 0 0 1-1.55-3.4 5.57 5.57 0 0 0-.3 1.47c-3.5-10.29 1.63-16.23 2.32-16.63a5.33 5.33 0 0 0-2 .84 6.37 6.37 0 0 1 4.89-3.66 3 3 0 0 0-2.08-.33 6 6 0 0 1 4.59-2.43 2.07 2.07 0 0 1 1.79.81c-.41-.68-.24-2.83 2.6-3.64-1.55 3.31-.88 2.69-.75 2.81s2.21-1.67 4.29-1.86a2.07 2.07 0 0 0-1.07 1c2.09-.76 4.4-1.85 8.75.39a7.09 7.09 0 0 0-3.12.76c.58.16 8 1.9 10.06 8.39-.34-.15-2.17-1-2.42-.85 1.33.79 5.7 3.63 3 15-.09-.6-.62-1.93-1-1.9.5 1-.61 4.18-4.5 7.11-5.36 4.03-7.65 6.18-8.27 8.42z" fill="#dcb680"/><path class="cls-13" d="M118.29 64.23a9.75 9.75 0 1 0-19.47 1.21 10 10 0 0 0 4.28 7.48c2.62 1.9 4.64 3.34 6.25 5.69.61-1.86 2.92-3.81 5.5-6.32a10.4 10.4 0 0 0 3.44-8.06z"/><ellipse cx="108.51" cy="64.37" rx="9.23" ry="9.44" transform="rotate(-3.56 108.637 64.413)" fill="#c69666"/><path class="cls-18" d="M110 61.84a11.4 11.4 0 0 1 1.94.45 4.61 4.61 0 0 1 1.73.93 4.3 4.3 0 0 0-1.79-.68 11.36 11.36 0 0 0-1.91-.2zM106.51 62.56a11 11 0 0 0-2 .31 4.49 4.49 0 0 0-1.79.82 4.56 4.56 0 0 1 1.72-1.06 10.77 10.77 0 0 1 2-.57z"/><path class="cls-19" d="M106.86 63.82l-2.01-.05 2-.29.01.34zM109.83 63.29h1.28a9 9 0 0 1 1.27 0 9 9 0 0 0-1.26.12c-.42.06-.84.13-1.25.21z"/><path d="M106.29 64.94a1.08 1.08 0 0 0 .13.84 1.7 1.7 0 0 0 .59.6 2.94 2.94 0 0 0 1.65.38 2.26 2.26 0 0 0 1.57-.54 1.57 1.57 0 0 0 .45-.7 1.11 1.11 0 0 0 0-.86 1.13 1.13 0 0 1 .16.9 1.77 1.77 0 0 1-.43.85 2.37 2.37 0 0 1-1.74.69 2.83 2.83 0 0 1-1.8-.51 1.77 1.77 0 0 1-.59-.74 1.07 1.07 0 0 1 .01-.91z" fill="#574c3e"/><path d="M106.24 55.21a9.56 9.56 0 0 1 3.59-.21 11.12 11.12 0 0 1 6.44 3.87 4.46 4.46 0 0 0-2.86.17 4.69 4.69 0 0 1-.46.21l-1.54-2.34v3c-5.2 1.81-10.8-1.66-12.11 1.71a10.23 10.23 0 0 1 7-6.41" fill="#442c1a"/><path class="cls-19" d="M111.26 69.25c.29.3-.8 1.89-2.78 1.89s-3.07-1.59-2.78-1.89 1.43.38 2.78.38 2.52-.63 2.78-.38z"/></svg>