<svg id="Layer_1" data-name="Layer 1" xmlns="http://www.w3.org/2000/svg" viewBox="0 0 251 151"><defs><style>.cls-2{fill:#e84c59}.cls-3{fill:#ee7b5c}.cls-4{fill:#f9c862}.cls-5{fill:#062633}.cls-6{fill:#abaaaa}.cls-7{fill:#e1dfe0}.cls-8{fill:none}.cls-9{fill:#041d26}.cls-10{fill:#6e6e6e}.cls-11{fill:silver}.cls-12{fill:#5e3e21}.cls-13{fill:#54371d}.cls-14{fill:#6d3325}.cls-15{fill:#783a28}.cls-16{fill:#8f4729}.cls-17{fill:#dcb680}.cls-18{fill:#c69666}.cls-19{fill:#662f1e}.cls-20{fill:#231d13}.cls-21{fill:#574c3e}.cls-22{fill:#442c1a}.cls-23{opacity:.2}</style></defs><path d="M21.64 108.53l1.04-5.7.18 5.7 5.15.73-5.21.62-1.04 6.01-.24-6.01-5.09-.62 5.21-.73zm100.09-92.1l-1.67 6.78.19-6.87-6.14-1.25 6.31-.37 1.69-7.14-.14 7.24 6.07 1.11-6.31.5zm109.13 102.15l-.62 3.26-.11-3.26-3.05-.41 3.08-.35.62-3.43.15 3.43 3.01.35-3.08.41z" fill="#e1f1f9"/><path class="cls-2" d="M172.21 49.69c.53 3.49 1.16 10.22-.52 13.82-2.62 5.58-10.56 9.69-14.15 11 2.6-3.36 3.76-6.08 3.2-8.08-.18-.64-1.34 1.54-3.39 1.92a10.16 10.16 0 0 0 .63-4.64c0-1.7.31-4.78 1.46-6.53 3.68-5.62 10-7.78 11.32-8.37z"/><path class="cls-3" d="M172.21 49.69c.36 1.5.45 6.93-1 9.41s-7.13 5-9.75 7.52c.63-2.65 1.32-3.56 1-5.83a6.94 6.94 0 0 1 .17-3.85c.35-1.26 2.66-3.83 5-5.8a16.14 16.14 0 0 1 3.1-2.3z"/><path class="cls-4" d="M172.21 49.69c.11 1.8-.39 6.81-2 8.13s-2.84.92-5.5 2.78c0-1.09 1.64-2.76 1.15-3.93-.65.55-.88 1-1.75 1.23.74-.93.74-2.21 1.36-3.55.73-1.56 2.28-2.52 3.49-3.58a10 10 0 0 0 1.77-1.93z"/><path class="cls-5" d="M171.23 50.42c2.64 1.49 5.12 2.1 5.55 1.36l-.78 1.34c-.42.75-2.9.14-5.54-1.35s-4.44-3.31-4-4.05l.76-1.35c-.43.74 1.37 2.56 4.01 4.05z"/><path class="cls-5" d="M170.31 52.05c2 1.12 3.86 1.58 4.18 1l-.58 1c-.31.56-2.18.1-4.17-1s-3.34-2.49-3-3.05l.58-1c-.32.56 1 1.92 2.99 3.05z"/><path class="cls-6" d="M185.1 34.28a38 38 0 0 1-4.77 12.87c-1.54 2.74-2.69 4.76-2.69 4.76a25.32 25.32 0 0 1-6.14-2 26.18 26.18 0 0 1-4.85-4.19s1-2 2.63-4.86a37.61 37.61 0 0 1 8.65-10.63 17.5 17.5 0 0 0 7.17 4z"/><path class="cls-7" d="M184.4 27.05c.62.36 1.34 3 .7 7.23a17.5 17.5 0 0 1-7.17-4c3.26-2.69 5.87-3.56 6.47-3.23z"/><path class="cls-5" d="M172.27 48.59c3.06 1.73 5.94 2.44 6.43 1.57l-.88 1.57c-.49.86-3.37.16-6.44-1.57s-5.15-3.84-4.66-4.7l.88-1.57c-.49.86 1.6 2.97 4.67 4.7z"/><path class="cls-8" d="M167.18 46.89a9.18 9.18 0 0 0 1.21 1.22 2.12 2.12 0 0 1-.11.21 4.1 4.1 0 0 1-1.1-1.43zm.11 2.56l.31.29-.06.13a1.77 1.77 0 0 1-.25-.42z"/><path class="cls-9" d="M168.28 48.32c-.23.48-.46 1-.68 1.42l-.31-.29a.56.56 0 0 1 0-.47l-.15.28c-.6-.66-.88-1.22-.68-1.56l.58-1 .17.23a4.1 4.1 0 0 0 1.07 1.39z"/><path class="cls-9" d="M167.29 49.45a1.77 1.77 0 0 0 .25.42L167 51c-.34-.41-.48-.75-.35-1l.42-.73.15-.28a.56.56 0 0 0 .07.46z"/><path class="cls-10" d="M170.4 44.33c-.41.72-.8 1.44-1.18 2.16-1.15-1-1.81-1.9-1.7-2.45.45-.83 1-1.92 1.74-3.15a37.67 37.67 0 0 1 8.65-10.64 15.63 15.63 0 0 0 1.6 1.32 68 68 0 0 0-9.11 12.76z"/><path class="cls-11" d="M177.91 30.25c3.26-2.67 5.87-3.55 6.46-3.21a.68.68 0 0 1 .24.24 23.19 23.19 0 0 0-5.1 4.29 15.63 15.63 0 0 1-1.6-1.32z"/><path class="cls-9" d="M169.22 46.49c-.29.54-.56 1.08-.83 1.62a9.18 9.18 0 0 1-1.21-1.22l-.17-.23a1.79 1.79 0 0 1-.38-.91.6.6 0 0 1 .06-.3l.89-1.57a.49.49 0 0 0-.06.17c-.11.54.55 1.45 1.7 2.44z"/><path class="cls-2" d="M163.1 48.38c.53 3.49 1.17 10.22-.52 13.82-2.61 5.58-10.55 9.69-14.15 11 2.61-3.36 3.76-6.09 3.21-8.09-.18-.64-1.34 1.55-3.39 1.92a10.22 10.22 0 0 0 .62-4.63c0-1.71.32-4.78 1.47-6.54 3.68-5.61 10-7.77 11.32-8.36z"/><path class="cls-3" d="M163.1 48.38c.36 1.5.45 6.92-1 9.4s-7.13 5-9.75 7.53c.63-2.65 1.31-3.57 1-5.83a7 7 0 0 1 .16-3.85c.36-1.27 2.66-3.83 5-5.8a15.7 15.7 0 0 1 3.1-2.3z"/><path class="cls-4" d="M163.1 48.38c.11 1.8-.38 6.81-2 8.13s-2.84.91-5.5 2.77c0-1.08 1.63-2.75 1.14-3.93-.64.56-.88 1-1.74 1.24.73-.93.73-2.21 1.36-3.55.73-1.56 2.27-2.53 3.48-3.58a10.69 10.69 0 0 0 1.78-1.93z"/><path class="cls-5" d="M162.13 49.11c2.64 1.49 5.12 2.1 5.54 1.35l-.76 1.35c-.42.75-2.9.14-5.54-1.35s-4.45-3.31-4-4.05l.77-1.35c-.45.74 1.35 2.56 3.99 4.05z"/><path class="cls-5" d="M161.21 50.73c2 1.13 3.86 1.58 4.17 1l-.57 1c-.32.56-2.19.1-4.17-1s-3.35-2.49-3-3l.57-1c-.34.51 1.01 1.88 3 3z"/><path class="cls-6" d="M176 33a38.32 38.32 0 0 1-4.76 12.87c-1.55 2.73-2.69 4.76-2.69 4.76a25.48 25.48 0 0 1-6.15-2 26.55 26.55 0 0 1-4.85-4.19s1-2.05 2.63-4.86A37.79 37.79 0 0 1 168.83 29a17.05 17.05 0 0 0 3.29 2.4A16.54 16.54 0 0 0 176 33z"/><path class="cls-7" d="M175.29 25.74c.63.35 1.35 3 .7 7.23a16.54 16.54 0 0 1-3.87-1.61 17.05 17.05 0 0 1-3.29-2.4c3.26-2.68 5.86-3.56 6.46-3.22z"/><path class="cls-5" d="M163.16 47.28c3.07 1.73 6 2.43 6.44 1.57l-.89 1.56c-.49.87-3.37.16-6.43-1.57s-5.16-3.83-4.67-4.7l.89-1.56c-.5.86 1.6 2.97 4.66 4.7z"/><path class="cls-8" d="M158.08 45.58a8.6 8.6 0 0 0 1.21 1.21l-.11.22a4.2 4.2 0 0 1-1.1-1.43zm.1 2.55l.31.3-.05.12a2 2 0 0 1-.26-.42z"/><path class="cls-9" d="M159.18 47c-.24.48-.47 1-.69 1.42l-.31-.3a.56.56 0 0 1 0-.47l-.16.28c-.6-.65-.87-1.21-.68-1.55l.59-1 .17.23a4.2 4.2 0 0 0 1.08 1.39z"/><path class="cls-9" d="M158.18 48.13a2 2 0 0 0 .26.42c-.18.37-.34.74-.51 1.11-.33-.41-.47-.76-.34-1l.41-.74.16-.28a.56.56 0 0 0 .02.49z"/><path class="cls-10" d="M161.3 43c-.41.72-.81 1.44-1.19 2.16-1.14-1-1.8-1.9-1.69-2.46.44-.83 1-1.91 1.73-3.15a37.61 37.61 0 0 1 8.65-10.63 16.79 16.79 0 0 0 1.6 1.32A67.17 67.17 0 0 0 161.3 43z"/><path class="cls-11" d="M168.8 28.94c3.27-2.68 5.87-3.55 6.47-3.22a.91.91 0 0 1 .24.24 23.3 23.3 0 0 0-5.11 4.3 16.79 16.79 0 0 1-1.6-1.32z"/><path class="cls-9" d="M160.11 45.18l-.82 1.61a8.6 8.6 0 0 1-1.21-1.21l-.17-.23a1.77 1.77 0 0 1-.38-.91.46.46 0 0 1 .06-.29l.88-1.57a1 1 0 0 0-.05.16c-.11.54.58 1.45 1.69 2.44z"/><path class="cls-12" d="M212.59 20.69c.85-1.29 3.09-4 5.81-1.58s-1.63 5.22-1.63 5.22z"/><path class="cls-13" d="M177 56.37c-2.45-.56-2.93.21-2.93.21l.34 1.68c.17 1 .55 2.25.8 3.58.49 2.62.8 5.33 1.9 5.11 1.55-.32 2.32-2.94 1.73-5.85a9.81 9.81 0 0 0-.4-1.42 11 11 0 0 0 2.31.49s-1.41-5.17-1.8-5-1.5 1.33-1.95 1.2zm-2.59.48z"/><path class="cls-14" d="M183.06 49.08a3.38 3.38 0 0 1 1.5 1.8c.11.54.16 1.07.23 1.6a30.92 30.92 0 0 1 .23 3.17c0 1.05 0 2.09-.08 3.12l-.11 1.55a4.06 4.06 0 0 1-.1.77c-.11.24-.36.46-1 .62L172 59.87c-.55-.34-.72-.63-.75-.9a4.06 4.06 0 0 1 .14-.76l.37-1.51c.25-1 .53-2 .87-3s.76-2 1.19-3c.24-.48.44-1 .71-1.45a3.34 3.34 0 0 1 2-1.26z"/><path class="cls-12" d="M167.92 53.64c-1.23-2.19-2.13-2-2.13-2l-1 1.39c-.61.79-1.29 1.93-2.1 3-1.6 2.14-3.38 4.21-2.47 4.86 1.28.92 3.73-.28 5.47-2.69a10 10 0 0 0 .78-1.26c.6.48 1.15.46 2.18.43 0 0 1.87-2.93 1.46-3.09s-1.98-.28-2.19-.64zm-2.1-1.58z"/><path class="cls-15" d="M176.52 48.22a3.42 3.42 0 0 1 .59 2.27c-.13.54-.31 1-.47 1.55-.34 1-.7 2-1.13 3s-.9 1.89-1.4 2.79l-.76 1.36a3.39 3.39 0 0 1-.41.65 1.32 1.32 0 0 1-1.16.15l-9.86-6.65a1.32 1.32 0 0 1-.3-1.13 3.5 3.5 0 0 1 .46-.63l1-1.21c.65-.8 1.33-1.59 2.06-2.34s1.52-1.47 2.32-2.17c.43-.33.82-.69 1.27-1a3.34 3.34 0 0 1 2.32-.3zm10.95-9.41c.33-.73.53-1 .71-1.09l.54-.38a3.9 3.9 0 0 1 .95-.54 6.46 6.46 0 0 1 1.77-.62 16.46 16.46 0 0 0 3.45-1.3 38.74 38.74 0 0 0 6.39-4.28c2-1.65 3.92-3.48 5.76-5.3.92-.91 1.81-1.84 2.62-2.78a7 7 0 0 1 1.26-1.29 5.45 5.45 0 0 1 .83-.44 1.7 1.7 0 0 1 .62-.1h.43c.11 0 .31 0 1.25.38l3 1.44c.85.52 1 .72 1 .86l.18.5a2.1 2.1 0 0 1 .08.84 7.22 7.22 0 0 1-.31 1.39 8.06 8.06 0 0 1-1.34 2.15 35.69 35.69 0 0 1-3.21 3.58 32.71 32.71 0 0 1-3.6 3.06 43.29 43.29 0 0 1-3.95 2.59 33.31 33.31 0 0 1-8.91 3.6 24.39 24.39 0 0 1-4.93.67 7.79 7.79 0 0 1-1.28-.06 9.62 9.62 0 0 1-1.27-.36 4.24 4.24 0 0 1-1.19-.69 4.51 4.51 0 0 1-.53-.54c-.18-.17-.33-.47-.36-1.26z"/><path class="cls-16" d="M198.67 31.09a11.67 11.67 0 1 1-5.57-15.53 11.68 11.68 0 0 1 5.57 15.53z"/><path class="cls-16" d="M190.27 50.74l.21-.44a.75.75 0 0 0 0-.16c3.18-7.83 3.71-15.63-5.85-20.14-9.63-4.56-17.1 3.32-21.63 14.84-2 4.27 4.88 7.16 10.64 9.89 6.7 3.17 12.23 5.32 13.64 2.27l1.47-3.12c.59-1.07 1.09-2.12 1.52-3.14z"/><path class="cls-17" d="M189.33 44.12c-1.08-.67-1.53-2.56-2.85-3.88-1.82-1.83-1.78-4.09-1.91-3.12s-1 1.21-1 1.07.21.22.4-1.24-1.39-2.61-2-5.42a16.93 16.93 0 0 1-.33-3 5.47 5.47 0 0 0-.47 1.14c-.24-9 4.13-12.93 4.65-13.14a3 3 0 0 0-1.46.34c1.66-2.37 3.5-2.18 3.79-2.16a1.59 1.59 0 0 0-1.25-.62c1.07-.94 2-1.5 3.37-1.2a1.36 1.36 0 0 1 1 1 2.42 2.42 0 0 1 2.34-2.53c-1.61 2.43-1.07 2-1 2.16s1.72-1 3.07-.79a1.53 1.53 0 0 0-.87.63c1.47-.26 3.13-.76 5.46 1.8a3.8 3.8 0 0 0-2.12.09 10.38 10.38 0 0 1 4.76 8.53c-.19-.17-1.17-1.22-1.37-1.1.69.87 2.92 3.92-1 12.74.05-.5 0-1.68-.26-1.71.12.93-1.18 3.3-4.2 5-4.08 2.29-5.93 3.69-6.75 5.41z"/><path class="cls-12" d="M199.47 28.4c1-4.39-.88-8.61-4-9.33s-6.49 2.24-7.51 6.63a9.88 9.88 0 0 0 .75 6.82c1.07 2 2 3.68 1.77 5.42 1.07-2.21 2.82-2.53 5.06-3.75a9 9 0 0 0 3.93-5.79z"/><path class="cls-18" d="M199.81 27.26c-.67 4.31-3.49 7.56-6.78 7.05s-6.19-4.69-5.52-9 3.87-7.39 7.16-6.89 5.8 4.58 5.14 8.84z"/><path class="cls-19" d="M195.67 24.67a6.2 6.2 0 0 1 1.37.19 2.74 2.74 0 0 1 1.22.6 2.65 2.65 0 0 0-1.26-.32 6 6 0 0 0-1.28.1zm-1.87.33a5.55 5.55 0 0 0-1.2-.51 2.68 2.68 0 0 0-1.32-.09 2.88 2.88 0 0 1 1.37-.19 6 6 0 0 1 1.38.28z"/><path class="cls-20" d="M193.46 25.86l-1.19-.55 1.31.19-.12.36zm2.21-.13h.84a3.91 3.91 0 0 1 .84 0 3.61 3.61 0 0 0-.81.14l-.81.22z"/><path class="cls-21" d="M193.24 27.24a1.33 1.33 0 0 0 .29 1.18 1.66 1.66 0 0 0 1.05.53 1.23 1.23 0 0 0 1.09-.29 1.61 1.61 0 0 0 .35-.5 1.13 1.13 0 0 0 .11-.63 1.29 1.29 0 0 1-.25 1.33 1.42 1.42 0 0 1-1.36.46 1.69 1.69 0 0 1-1.22-.73 1.25 1.25 0 0 1-.06-1.35z"/><path class="cls-20" d="M192.25 30.51a1.25 1.25 0 0 0 .58.6c.11.06.23.09.34.14s.21.11.34.16a2 2 0 0 0 .81.13 1.72 1.72 0 0 0 .86-.26 1.71 1.71 0 0 1-.76.64 2.45 2.45 0 0 1-1 .18 1.57 1.57 0 0 1-.55-.13 1.45 1.45 0 0 1-.43-.39 1.08 1.08 0 0 1-.19-1.07z"/><path class="cls-22" d="M193.55 18.38a5.65 5.65 0 0 1 2.51.43c2.08.89 3.2 3.46 3.46 4.14a2.28 2.28 0 0 0-1.85-.29l-.33.1-.59-2.15-.52 2.46c-3.61.7-7-2.79-8.08-.08 1-2.56 3.18-4.44 5.43-4.61"/><path class="cls-12" d="M157.14 41.17c-1.46 0-4.73-.46-4.24-3.94s1.78-2 2.5-1.63a3.28 3.28 0 0 0 2.47.24z"/><path class="cls-15" d="M179.27 33.26a2.23 2.23 0 0 1 .27 1.21c0 .19-.06.4-.11.59a2.87 2.87 0 0 1-.43.94 3.28 3.28 0 0 1-1.17 1.22c-.45.32-.9.62-1.37.92s-.93.59-1.41.87a29.85 29.85 0 0 1-6.16 2.79 24.92 24.92 0 0 1-6.7 1.2 29.82 29.82 0 0 1-3.41-.13 4.17 4.17 0 0 1-1.65-.37 3.58 3.58 0 0 1-.78-.55 1.62 1.62 0 0 1-.34-.53l-.15-.41c-.06-.1-.1-.31 0-1.3l.47-3.34c.2-1 .28-1.17.35-1.25l.23-.37a1.77 1.77 0 0 1 .4-.44 4.65 4.65 0 0 1 .73-.38 3.49 3.49 0 0 1 1.35-.11H162c1.74 0 3.48 0 5.24-.16a41 41 0 0 0 5.39-.73 12.78 12.78 0 0 0 1.36-.32 10.57 10.57 0 0 0 1.36-.39 2.66 2.66 0 0 1 .7-.17 7.06 7.06 0 0 1 .8 0 3 3 0 0 1 .92.17c.18.06.37.15.55.22s.42.22.93.83z"/><g class="cls-23"><path class="cls-2" d="M106.89 66.64c.41 2.64.89 7.75-.39 10.48-2 4.23-8 7.35-10.73 8.36 2-2.55 2.85-4.61 2.43-6.13-.13-.48-1 1.18-2.57 1.46a7.6 7.6 0 0 0 .47-3.52 10.14 10.14 0 0 1 1.12-5c2.79-4.26 7.57-5.9 8.58-6.34z"/><path class="cls-3" d="M106.89 66.64c.28 1.14.35 5.25-.76 7.13s-5.4 3.82-7.39 5.71c.48-2 1-2.71.77-4.42a5.26 5.26 0 0 1 .13-2.92c.26-1 2-2.91 3.81-4.4A11.47 11.47 0 0 1 105.8 66z"/><path class="cls-4" d="M106.89 66.64c.09 1.36-.29 5.16-1.49 6.16s-2.15.7-4.17 2.11c0-.83 1.24-2.09.87-3-.49.42-.66.77-1.32.94.56-.71.56-1.68 1-2.7a9.22 9.22 0 0 1 2.64-2.71A7.91 7.91 0 0 0 105.8 66z"/><path class="cls-5" d="M106.16 67.19c2 1.13 3.88 1.59 4.2 1l-.58 1c-.32.57-2.2.11-4.2-1s-3.37-2.51-3-3.08l.58-1c-.37.58.99 1.95 3 3.08z"/><path class="cls-5" d="M105.46 68.42c1.51.86 2.93 1.2 3.17.78l-.44.77c-.24.42-1.66.08-3.17-.78s-2.53-1.88-2.29-2.31l.43-.77c-.24.43.84 1.46 2.3 2.31z"/><path class="cls-6" d="M116.67 55a29 29 0 0 1-3.61 9.75l-2 3.61a19.08 19.08 0 0 1-4.66-1.49 19.77 19.77 0 0 1-3.68-3.17s.79-1.55 2-3.68a28.58 28.58 0 0 1 6.57-8.07 12.72 12.72 0 0 0 2.49 1.82 13 13 0 0 0 2.89 1.23z"/><path class="cls-7" d="M116.14 49.47c.47.27 1 2.24.53 5.49a13 13 0 0 1-2.94-1.23 12.72 12.72 0 0 1-2.49-1.82c2.47-2.03 4.44-2.69 4.9-2.44z"/><path class="cls-5" d="M106.94 65.81c2.32 1.31 4.51 1.84 4.88 1.19l-.67 1.18c-.37.66-2.56.12-4.88-1.19s-3.91-2.91-3.54-3.56l.67-1.19c-.4.66 1.22 2.25 3.54 3.57z"/><path class="cls-8" d="M103.09 64.52a6.49 6.49 0 0 0 .91.92 1.19 1.19 0 0 1-.08.16 2.93 2.93 0 0 1-.83-1.08zm.07 1.93l.24.23v.09a1.28 1.28 0 0 1-.24-.32z"/><path class="cls-9" d="M103.92 65.6c-.18.36-.35.72-.52 1.08l-.24-.23a.43.43 0 0 1 0-.35l-.12.21c-.46-.49-.66-.92-.52-1.18l.45-.79.13.18a2.93 2.93 0 0 0 .82 1.08z"/><path class="cls-9" d="M103.16 66.45a1.28 1.28 0 0 0 .2.32l-.39.84c-.25-.31-.35-.57-.26-.74l.32-.56.12-.21a.43.43 0 0 0 .01.35z"/><path class="cls-10" d="M105.52 62.57c-.31.55-.6 1.1-.89 1.64-.87-.75-1.37-1.44-1.29-1.86.34-.63.79-1.45 1.32-2.39a28.51 28.51 0 0 1 6.56-8.06 12.38 12.38 0 0 0 1.21 1 51.71 51.71 0 0 0-6.91 9.67z"/><path class="cls-11" d="M111.22 51.9c2.47-2 4.45-2.69 4.9-2.44a.61.61 0 0 1 .18.18 18 18 0 0 0-3.87 3.26 12.38 12.38 0 0 1-1.21-1z"/><path class="cls-9" d="M104.63 64.21c-.22.41-.42.82-.63 1.23a6.49 6.49 0 0 1-.91-.92l-.13-.18a1.24 1.24 0 0 1-.29-.69.59.59 0 0 1 0-.23l.67-1.18a.56.56 0 0 0 0 .12c-.08.41.42 1.1 1.29 1.85z"/><path class="cls-2" d="M100 65.64c.4 2.65.89 7.75-.39 10.48-2 4.23-8 7.35-10.73 8.37 2-2.55 2.85-4.62 2.43-6.13-.14-.49-1 1.17-2.57 1.45a7.85 7.85 0 0 0 .47-3.51 10 10 0 0 1 1.11-5c2.79-4.26 7.58-5.89 8.58-6.34z"/><path class="cls-3" d="M100 65.64c.27 1.14.34 5.26-.76 7.14s-5.41 3.81-7.39 5.7c.47-2 1-2.7.77-4.42a5.37 5.37 0 0 1 .12-2.92c.27-1 2-2.9 3.81-4.4A12.62 12.62 0 0 1 98.89 65z"/><path class="cls-4" d="M100 65.64c.08 1.37-.29 5.17-1.49 6.17s-2.15.69-4.17 2.1c0-.82 1.24-2.09.87-3-.49.42-.67.77-1.33.94.56-.71.56-1.68 1-2.69a9 9 0 0 1 2.64-2.72A7.59 7.59 0 0 0 98.89 65z"/><path class="cls-5" d="M99.25 66.2c2 1.13 3.89 1.59 4.21 1l-.58 1c-.32.56-2.2.1-4.21-1s-3.36-2.51-3-3.07l.58-1c-.37.56 1 1.93 3 3.07z"/><path class="cls-5" d="M98.56 67.43c1.5.85 2.92 1.2 3.16.77l-.43.77c-.24.43-1.66.08-3.17-.77s-2.54-1.89-2.29-2.32l.43-.77c-.26.43.79 1.47 2.3 2.32z"/><path class="cls-6" d="M109.77 54a29.19 29.19 0 0 1-3.62 9.76l-2 3.61a19.08 19.08 0 0 1-4.66-1.49 20.17 20.17 0 0 1-3.68-3.17s.79-1.56 2-3.69a28.51 28.51 0 0 1 6.56-8.06 12.8 12.8 0 0 0 2.5 1.82 12.18 12.18 0 0 0 2.9 1.22z"/><path class="cls-7" d="M109.23 48.48c.48.27 1 2.24.54 5.48a12.18 12.18 0 0 1-2.94-1.22 12.8 12.8 0 0 1-2.5-1.82c2.48-2.03 4.45-2.7 4.9-2.44z"/><path class="cls-5" d="M100 64.81c2.32 1.31 4.5 1.85 4.88 1.19l-.68 1.19c-.37.65-2.55.12-4.87-1.2s-3.91-2.9-3.54-3.56l.67-1.19c-.33.66 1.25 2.26 3.54 3.57z"/><path class="cls-8" d="M96.18 63.52a6.63 6.63 0 0 0 .92.92 1.3 1.3 0 0 0-.08.17 3.21 3.21 0 0 1-.84-1.09zm.08 1.94a2.61 2.61 0 0 0 .24.22.93.93 0 0 0 0 .1 1.66 1.66 0 0 1-.24-.32z"/><path class="cls-9" d="M97 64.61c-.18.36-.36.72-.52 1.07a2.61 2.61 0 0 1-.24-.22.42.42 0 0 1 0-.36l-.12.21c-.45-.49-.66-.92-.51-1.17l.44-.79.13.17a3.21 3.21 0 0 0 .82 1.09z"/><path class="cls-9" d="M96.26 65.46a1.66 1.66 0 0 0 .19.32c-.13.28-.25.56-.38.83-.25-.31-.36-.57-.26-.74l.31-.56.12-.21a.42.42 0 0 0 .02.36z"/><path class="cls-10" d="M98.62 61.58c-.31.55-.61 1.09-.89 1.64-.88-.75-1.37-1.44-1.29-1.86.33-.63.78-1.46 1.31-2.39a28.41 28.41 0 0 1 6.57-8.07 10.39 10.39 0 0 0 1.21 1 50.92 50.92 0 0 0-6.91 9.68z"/><path class="cls-11" d="M104.32 50.9c2.47-2 4.44-2.69 4.9-2.44a.66.66 0 0 1 .18.19 17.36 17.36 0 0 0-3.87 3.25 10.39 10.39 0 0 1-1.21-1z"/><path class="cls-9" d="M97.73 63.22c-.22.41-.43.81-.63 1.22a6.63 6.63 0 0 1-.92-.92l-.13-.17a1.48 1.48 0 0 1-.29-.69.4.4 0 0 1 0-.22l.67-1.19a.5.5 0 0 0 0 .13c-.07.4.42 1.09 1.3 1.84z"/><path class="cls-12" d="M137.52 44.65c.64-1 2.34-3 4.41-1.2s-1.24 3.95-1.24 3.95z"/><path class="cls-13" d="M110.55 71.71c-1.86-.43-2.23.15-2.23.15l.26 1.28c.13.74.42 1.71.61 2.71.37 2 .61 4 1.44 3.87 1.17-.24 1.76-2.22 1.31-4.43a7.13 7.13 0 0 0-.31-1.08 8.3 8.3 0 0 0 1.76.38s-1.07-3.92-1.37-3.78-1.15.99-1.47.9zm-2 .36z"/><path class="cls-14" d="M115.92 66.3a3.21 3.21 0 0 1 1.56 1.43c.12.41.19.82.29 1.23a20.86 20.86 0 0 1 .34 2.43 19 19 0 0 1 0 2.38v1.18a2.25 2.25 0 0 1-.07.58c-.1.19-.34.35-1 .45l-11.74-1.84c-.56-.29-.74-.51-.78-.72a1.87 1.87 0 0 1 .12-.57l.3-1.14a20.69 20.69 0 0 1 .76-2.26 20.37 20.37 0 0 1 1.07-2.21c.22-.36.41-.73.65-1.08a3.23 3.23 0 0 1 1.93-.89z"/><path class="cls-12" d="M103.65 69.63C102.71 68 102 68.1 102 68.1l-.76 1.06c-.46.6-1 1.46-1.59 2.28-1.22 1.62-2.56 3.19-1.87 3.68 1 .7 2.83-.21 4.15-2a7.33 7.33 0 0 0 .58-1 2.21 2.21 0 0 0 1.66.32s1.41-2.22 1.11-2.34-1.48-.16-1.63-.47zm-1.6-1.2z"/><path class="cls-15" d="M110.83 66a3.25 3.25 0 0 1 .8 2c-.06.43-.17.83-.26 1.24a20.76 20.76 0 0 1-.71 2.35 20.29 20.29 0 0 1-1 2.17l-.55 1a2 2 0 0 1-.3.51c-.18.11-.45.16-1.06 0l-9.85-6.69c-.38-.49-.44-.77-.4-1a2.3 2.3 0 0 1 .35-.47l.76-.9a19.09 19.09 0 0 1 1.65-1.72 22.45 22.45 0 0 1 1.9-1.55c.36-.23.68-.49 1-.7a3.19 3.19 0 0 1 2.12 0zm7.64-7.62a2.77 2.77 0 0 1 .59-1.1l.4-.41a3.08 3.08 0 0 1 .7-.55 3.21 3.21 0 0 1 1.24-.6 11.32 11.32 0 0 0 2.43-1.07 29 29 0 0 0 4.54-3.33c1.45-1.25 2.82-2.63 4.16-4 .67-.67 1.33-1.33 1.92-2a3.07 3.07 0 0 1 1-.88 3.19 3.19 0 0 1 .68-.23 2.23 2.23 0 0 1 .56 0l.39.08a5 5 0 0 1 1.22.44l3.05 1.44c.86.5 1 .68 1 .8l.21.44a1.94 1.94 0 0 1 .15.73 5.87 5.87 0 0 1-.2 1.15 5.23 5.23 0 0 1-1 1.73 26.19 26.19 0 0 1-2.5 2.82 27.59 27.59 0 0 1-6.01 4.38 25.66 25.66 0 0 1-7 2.64 19.45 19.45 0 0 1-3.92.43 5 5 0 0 1-1-.08 6 6 0 0 1-1-.36 3.46 3.46 0 0 1-.94-.67c-.14-.17-.28-.36-.4-.53s-.24-.45-.23-1.23z"/><path class="cls-16" d="M127 52.54a8.85 8.85 0 1 1-4.22-11.79A8.85 8.85 0 0 1 127 52.54z"/><path class="cls-16" d="M120.59 67.43l.16-.33a.27.27 0 0 0 0-.12c2.41-5.94 2.82-11.85-4.43-15.27-7.32-3.46-13 2.52-16.41 11.25-1.51 3.24 3.7 5.43 8.08 7.5 5.07 2.4 9.27 4 10.33 1.72l1.12-2.36c.45-.82.82-1.61 1.15-2.39z"/><path class="cls-17" d="M119.88 62.41c-.82-.51-1.16-1.93-2.16-2.94-1.38-1.38-1.35-3.1-1.45-2.36s-.76.91-.74.81.16.16.3-1-1-2-1.48-4.1a12.55 12.55 0 0 1-.25-2.3 4.72 4.72 0 0 0-.36.86c-.17-6.79 3.14-9.8 3.53-10a2.26 2.26 0 0 0-1.1.25 3.12 3.12 0 0 1 2.83-1.54 1.24 1.24 0 0 0-1-.47 2.74 2.74 0 0 1 2.55-.91 1 1 0 0 1 .74.73 1.84 1.84 0 0 1 1.78-1.91c-1.22 1.84-.82 1.54-.77 1.63a5.51 5.51 0 0 1 2.33-.6 1.16 1.16 0 0 0-.66.48c1.11-.2 2.37-.57 4.14 1.37a2.82 2.82 0 0 0-1.61.07 7.87 7.87 0 0 1 3.7 6.52c-.14-.14-.89-.93-1-.84.52.66 2.21 3-.74 9.66.05-.38 0-1.27-.2-1.29.1.7-.89 2.5-3.18 3.81-3.17 1.74-4.58 2.77-5.2 4.07z"/><path class="cls-12" d="M127.57 50.5c.77-3.33-.67-6.53-3-7.08s-4.92 1.7-5.7 5a7.51 7.51 0 0 0 .58 5.17c.8 1.52 1.48 2.79 1.34 4.1.81-1.67 2.13-1.91 3.83-2.84a6.79 6.79 0 0 0 2.95-4.35z"/><path class="cls-18" d="M127.82 49.63c-.5 3.27-2.64 5.73-5.13 5.35s-4.7-3.56-4.19-6.83 2.93-5.61 5.43-5.22 4.4 3.43 3.89 6.7z"/><path class="cls-19" d="M124.68 47.6a4.43 4.43 0 0 1 1 .18 2 2 0 0 1 .92.48 1.87 1.87 0 0 0-1-.2 4.34 4.34 0 0 0-1 .1zm-1.44.4a4.26 4.26 0 0 0-.89-.41 2 2 0 0 0-1-.1 2 2 0 0 1 1-.18 5.18 5.18 0 0 1 1.08.18z"/><path class="cls-20" d="M123 48.61l-.89-.46 1.01.1-.12.36zm1.68-.19h.64a3.39 3.39 0 0 1 .64 0 3.18 3.18 0 0 0-.61.14c-.21 0-.41.12-.61.18z"/><path class="cls-21" d="M122.84 49.61a1.07 1.07 0 0 0 .25.88 1.34 1.34 0 0 0 .78.38.94.94 0 0 0 .79-.2 1.26 1.26 0 0 0 .27-.37.82.82 0 0 0 .11-.47 1 1 0 0 1-.17 1 1.1 1.1 0 0 1-1.06.38 1.32 1.32 0 0 1-1-.58 1 1 0 0 1 .03-1.02z"/><path class="cls-20" d="M122.09 52.09a1 1 0 0 0 .5.41 1.68 1.68 0 0 1 .24.07 2.53 2.53 0 0 1 .23.12 1.42 1.42 0 0 0 .59.14 1.22 1.22 0 0 0 .66-.16 1.22 1.22 0 0 1-.56.54 1.88 1.88 0 0 1-.82.17 1.12 1.12 0 0 1-.44-.09 1.1 1.1 0 0 1-.35-.33.83.83 0 0 1-.05-.87z"/><path class="cls-22" d="M123.08 42.9a4.19 4.19 0 0 1 1.9.32 5.88 5.88 0 0 1 2.63 3.14 1.79 1.79 0 0 0-1.41-.22l-.25.08-.44-1.63-.4 1.86c-2.73.53-5.29-2.12-6.13-.06a5.29 5.29 0 0 1 4.12-3.49"/><path class="cls-12" d="M95.47 60.17c-1.11 0-3.59-.34-3.22-3s1.36-1.5 1.9-1.23a2.52 2.52 0 0 0 1.87.18z"/><path class="cls-15" d="M112.25 54.18a2.69 2.69 0 0 1 .35 1.16v.55a2.79 2.79 0 0 1-1.07 1.89c-.69.49-1.38 1-2.12 1.48a22 22 0 0 1-4.76 2.37 18.1 18.1 0 0 1-5.3 1 19.74 19.74 0 0 1-2.67-.12 2.67 2.67 0 0 1-1.3-.33 2.85 2.85 0 0 1-.59-.53 1.68 1.68 0 0 1-.25-.52l-.11-.41a3.88 3.88 0 0 1 0-1.29l.47-3.34a4.77 4.77 0 0 1 .31-1.26l.18-.37a2.44 2.44 0 0 1 .31-.45 3.62 3.62 0 0 1 .55-.4 1.71 1.71 0 0 1 1-.14h1.91c1.26 0 2.51.05 3.8 0a37.46 37.46 0 0 0 4-.31c.34 0 .68-.1 1-.17a8.89 8.89 0 0 0 1-.24 1.91 1.91 0 0 1 .54-.09c.2 0 .42 0 .64.08a2.74 2.74 0 0 1 .77.27l.47.26a3.12 3.12 0 0 1 .85.88z"/></g><g class="cls-23"><path class="cls-2" d="M40.15 72.77c.44 2.87 1 8.4-.42 11.37-2.16 4.59-8.68 8-11.64 9.07 2.14-2.77 3.09-5 2.63-6.65-.14-.53-1.09 1.27-2.78 1.58a8.26 8.26 0 0 0 .51-3.81A10.86 10.86 0 0 1 29.66 79c3-4.62 8.21-6.39 9.31-6.88z"/><path class="cls-3" d="M40.15 72.77c.3 1.23.37 5.7-.82 7.73s-5.86 4.15-8 6.19c.52-2.18 1.08-2.93.84-4.79a5.76 5.76 0 0 1 .13-3.17c.29-1 2.19-3.15 4.14-4.77A12.86 12.86 0 0 1 39 72.07z"/><path class="cls-4" d="M40.15 72.77c.09 1.48-.31 5.6-1.61 6.69s-2.34.75-4.53 2.28c0-.9 1.35-2.27 1-3.23-.53.45-.73.83-1.44 1 .61-.76.61-1.82 1.12-2.92.6-1.28 1.87-2.07 2.87-2.94A8.79 8.79 0 0 0 39 72.07z"/><path class="cls-5" d="M39.35 73.37c2.17 1.23 4.22 1.73 4.56 1.11l-.63 1.11c-.34.62-2.38.12-4.55-1.11s-3.66-2.72-3.31-3.33l.63-1.15c-.35.65 1.13 2.14 3.3 3.37z"/><path class="cls-5" d="M38.6 74.71c1.63.92 3.17 1.29 3.43.83l-.47.84c-.26.46-1.8.09-3.43-.84s-2.75-2.05-2.49-2.54l.47-.83c-.26.49.89 1.61 2.49 2.54z"/><path class="cls-6" d="M50.75 60.1a31.35 31.35 0 0 1-3.91 10.58l-2.21 3.92a20.75 20.75 0 0 1-5.06-1.6 21.41 21.41 0 0 1-4-3.44s.86-1.68 2.16-4a31.09 31.09 0 0 1 7.12-8.74 14.65 14.65 0 0 0 5.89 3.3z"/><path class="cls-7" d="M50.18 54.15c.51.29 1.11 2.43.57 6a14.65 14.65 0 0 1-5.89-3.3c2.68-2.25 4.83-2.98 5.32-2.7z"/><path class="cls-5" d="M40.2 71.87c2.52 1.42 4.89 2 5.29 1.29l-.72 1.28c-.4.71-2.77.14-5.29-1.29s-4.24-3.15-3.84-3.86l.73-1.29c-.37.71 1.31 2.44 3.83 3.87z"/><path class="cls-8" d="M36 70.47a7.83 7.83 0 0 0 1 1c0 .06-.06.11-.09.18a3.69 3.69 0 0 1-.91-1.18zm.11 2.1l.25.24v.11a1.53 1.53 0 0 1-.25-.35z"/><path class="cls-9" d="M36.93 71.65c-.2.39-.38.78-.57 1.16l-.25-.24a.42.42 0 0 1 0-.39l-.13.23c-.49-.53-.72-1-.56-1.28l.48-.85.14.19a3.69 3.69 0 0 0 .89 1.18z"/><path class="cls-9" d="M36.11 72.57a1.53 1.53 0 0 0 .21.35c-.15.3-.28.6-.42.9-.27-.33-.39-.62-.28-.8l.34-.61.13-.23a.42.42 0 0 0 .02.39z"/><path class="cls-10" d="M38.67 68.36c-.34.6-.66 1.19-1 1.78-1-.81-1.49-1.56-1.4-2 .37-.68.85-1.58 1.43-2.59a31.12 31.12 0 0 1 7.11-8.75 12.36 12.36 0 0 0 1.32 1.09 55.27 55.27 0 0 0-7.46 10.47z"/><path class="cls-11" d="M44.84 56.78c2.69-2.2 4.83-2.92 5.32-2.64a.63.63 0 0 1 .2.2 18.89 18.89 0 0 0-4.2 3.53 12.36 12.36 0 0 1-1.32-1.09z"/><path class="cls-9" d="M37.7 70.14c-.24.44-.46.88-.68 1.33a7.83 7.83 0 0 1-1-1l-.14-.19a1.43 1.43 0 0 1-.31-.75.51.51 0 0 1 0-.25l.78-1.28a.29.29 0 0 0-.05.13c-.09.45.45 1.2 1.4 2.01z"/><path class="cls-2" d="M32.67 71.69c.43 2.87 1 8.4-.43 11.37-2.15 4.58-8.68 8-11.64 9.07 2.14-2.77 3.09-5 2.64-6.65-.15-.53-1.1 1.27-2.79 1.58a8.26 8.26 0 0 0 .55-3.81 11.06 11.06 0 0 1 1.21-5.38c3-4.62 8.21-6.39 9.31-6.88z"/><path class="cls-3" d="M32.67 71.69c.29 1.23.37 5.7-.83 7.74s-5.86 4.14-8 6.18c.52-2.18 1.08-2.93.84-4.79a5.74 5.74 0 0 1 .14-3.17c.29-1 2.18-3.15 4.13-4.77A12.86 12.86 0 0 1 31.48 71z"/><path class="cls-4" d="M32.67 71.69c.09 1.48-.32 5.6-1.62 6.69s-2.33.75-4.52 2.28c0-.9 1.34-2.27.94-3.23-.53.45-.72.83-1.44 1 .61-.76.61-1.82 1.12-2.92.6-1.28 1.87-2.07 2.87-2.94A8.79 8.79 0 0 0 31.48 71z"/><path class="cls-5" d="M31.86 72.29C34 73.52 36.08 74 36.42 73.4l-.62 1.11c-.35.61-2.39.12-4.56-1.11s-3.65-2.72-3.31-3.33l.63-1.07c-.35.57 1.13 2.06 3.3 3.29z"/><path class="cls-5" d="M31.11 73.63c1.64.92 3.17 1.29 3.43.83l-.47.84c-.26.46-1.8.08-3.43-.84s-2.75-2-2.49-2.51l.47-.83c-.26.46.86 1.58 2.49 2.51z"/><path class="cls-6" d="M43.27 59a31.41 31.41 0 0 1-3.92 10.6l-2.21 3.91a20.55 20.55 0 0 1-5.06-1.61 21.78 21.78 0 0 1-4-3.44s.86-1.69 2.17-4a30.91 30.91 0 0 1 7.11-8.74 14.69 14.69 0 0 0 2.71 2 13.83 13.83 0 0 0 3.2 1.28z"/><path class="cls-7" d="M42.69 53.07c.52.29 1.11 2.43.58 6a13.83 13.83 0 0 1-3.19-1.33 14.69 14.69 0 0 1-2.71-2c2.69-2.22 4.83-2.95 5.32-2.67z"/><path class="cls-5" d="M32.72 70.78c2.52 1.43 4.88 2 5.29 1.3l-.73 1.28c-.4.71-2.77.14-5.29-1.29s-4.24-3.15-3.84-3.86l.73-1.29c-.4.71 1.31 2.44 3.84 3.86z"/><path class="cls-8" d="M28.54 69.39a7.1 7.1 0 0 0 1 1l-.09.17a3.38 3.38 0 0 1-.91-1.17zm.08 2.1l.26.24a.93.93 0 0 1-.05.1 1.31 1.31 0 0 1-.21-.34z"/><path class="cls-9" d="M29.44 70.56l-.56 1.17-.26-.24a.49.49 0 0 1 0-.39l-.13.23c-.49-.54-.71-1-.56-1.28l.49-.85a1.82 1.82 0 0 0 .14.19 3.38 3.38 0 0 0 .88 1.17z"/><path class="cls-9" d="M28.62 71.49a1.31 1.31 0 0 0 .21.34c-.14.31-.28.61-.41.91-.28-.33-.39-.62-.29-.8l.34-.61.13-.23a.49.49 0 0 0 .02.39z"/><path class="cls-10" d="M31.18 67.28c-.34.59-.66 1.19-1 1.78-.94-.81-1.49-1.56-1.4-2 .37-.68.85-1.58 1.43-2.59a31 31 0 0 1 7.12-8.75 12.21 12.21 0 0 0 1.31 1.09 55.72 55.72 0 0 0-7.46 10.47z"/><path class="cls-11" d="M37.36 55.7c2.68-2.2 4.82-2.92 5.31-2.64a.63.63 0 0 1 .2.2 19.12 19.12 0 0 0-4.2 3.53 12.21 12.21 0 0 1-1.31-1.09z"/><path class="cls-9" d="M30.21 69.06l-.68 1.33a7.1 7.1 0 0 1-1-1 1.82 1.82 0 0 1-.14-.19 1.55 1.55 0 0 1-.32-.75.51.51 0 0 1 .05-.25l.73-1.28a.5.5 0 0 0-.05.13c-.08.45.47 1.2 1.41 2.01z"/><path class="cls-12" d="M73.37 48.92c.69-1.06 2.54-3.26 4.78-1.3s-1.35 4.29-1.35 4.29z"/><path class="cls-13" d="M44.11 78.27c-2-.47-2.41.17-2.41.17l.3 1.38c.13.8.45 1.85.65 2.94.4 2.16.66 4.39 1.56 4.2 1.28-.26 1.91-2.41 1.42-4.81a7.19 7.19 0 0 0-.34-1.15 9.08 9.08 0 0 0 1.91.41s-1.16-4.25-1.48-4.1-1.25 1.06-1.61.96zm-2.11.39z"/><path class="cls-14" d="M49.66 72.35a3.33 3.33 0 0 1 1.55 1.53c.12.45.18.89.27 1.34a24 24 0 0 1 .32 2.62 22.19 22.19 0 0 1 0 2.58l-.07 1.28a1.91 1.91 0 0 1-.07.63c-.11.2-.34.37-1 .49L38.94 81c-.56-.3-.73-.54-.77-.77a2.27 2.27 0 0 1 .12-.62l.33-1.24a22.43 22.43 0 0 1 .78-2.45 23.52 23.52 0 0 1 1.11-2.4c.22-.4.41-.8.66-1.19a3.27 3.27 0 0 1 1.94-1z"/><path class="cls-12" d="M36.63 76c-1-1.8-1.76-1.66-1.76-1.66l-.82 1.14c-.5.65-1.06 1.59-1.72 2.48-1.32 1.75-2.78 3.45-2 4 1.05.76 3.07-.23 4.5-2.21a8.73 8.73 0 0 0 .63-1c.5.4 1 .38 1.8.36 0 0 1.53-2.41 1.2-2.54s-1.66-.22-1.83-.57zm-1.73-1.3z"/><path class="cls-15" d="M44.19 71.89a3.27 3.27 0 0 1 .75 2c-.08.46-.21.88-.32 1.33a23.05 23.05 0 0 1-.83 2.51 23.57 23.57 0 0 1-1.09 2.37l-.61 1.13a2.3 2.3 0 0 1-.33.54c-.18.13-.47.2-1.08 0l-9.86-6.65c-.38-.51-.43-.8-.38-1a2.42 2.42 0 0 1 .38-.51l.82-1c.55-.65 1.13-1.29 1.75-1.89a23.87 23.87 0 0 1 2-1.7c.37-.27.71-.55 1.11-.79a3.2 3.2 0 0 1 2.17-.07zm8.52-8.07c.3-.75.46-1 .62-1.1l.43-.4a3.5 3.5 0 0 1 .77-.55 4 4 0 0 1 1.38-.61A12.83 12.83 0 0 0 58.62 60a31.64 31.64 0 0 0 5-3.59c.8-.68 1.58-1.39 2.35-2.12l2.24-2.2c.74-.73 1.46-1.47 2.1-2.21a3.87 3.87 0 0 1 1-1 3.16 3.16 0 0 1 .73-.28 1.49 1.49 0 0 1 .57 0l.41.06a4.4 4.4 0 0 1 1.22.42l3 1.44c.86.51 1 .69 1 .82l.2.45a1.87 1.87 0 0 1 .13.76 6.19 6.19 0 0 1-.23 1.21 6 6 0 0 1-1.11 1.85 29 29 0 0 1-2.69 3 25.17 25.17 0 0 1-3 2.54 33.08 33.08 0 0 1-3.33 2.14 27.7 27.7 0 0 1-7.56 2.9 21.34 21.34 0 0 1-4.19.5 6.54 6.54 0 0 1-1.08-.08 6 6 0 0 1-1.08-.37 3.31 3.31 0 0 1-1-.67c-.16-.16-.3-.36-.44-.53s-.27-.45-.26-1.24z"/><path class="cls-16" d="M61.91 57.47a9.6 9.6 0 1 1-4.57-12.77 9.58 9.58 0 0 1 4.57 12.77z"/><path class="cls-16" d="M55 73.63l.17-.36a.65.65 0 0 0 0-.13c2.61-6.44 3.05-12.85-4.81-16.56-7.94-3.75-14.1 2.73-17.79 12.2-1.65 3.51 4 5.89 8.75 8.13 5.5 2.61 10.05 4.38 11.21 1.87l1.21-2.56c.5-.89.91-1.75 1.26-2.59z"/><path class="cls-17" d="M54.23 68.19c-.88-.56-1.25-2.1-2.33-3.19-1.5-1.5-1.47-3.37-1.57-2.57s-.83 1-.81.88.18.18.33-1-1.14-2.14-1.61-4.46a12.83 12.83 0 0 1-.24-2.51 4.89 4.89 0 0 0-.39.94c-.19-7.37 3.4-10.64 3.82-10.81a2.53 2.53 0 0 0-1.19.28c1.36-2 2.88-1.79 3.12-1.77a1.31 1.31 0 0 0-1-.51 3 3 0 0 1 2.76-1 1.12 1.12 0 0 1 .81.79 2 2 0 0 1 1.92-2.07c-1.32 2-.88 1.67-.83 1.77a6.06 6.06 0 0 1 2.52-.65 1.26 1.26 0 0 0-.71.52c1.21-.22 2.58-.63 4.49 1.48a3.06 3.06 0 0 0-1.74.08 8.55 8.55 0 0 1 3.91 7c-.15-.14-1-1-1.12-.91.56.72 2.39 3.23-.81 10.49 0-.42 0-1.38-.21-1.41.1.76-1 2.71-3.46 4.13-3.46 1.96-4.98 3.08-5.66 4.5z"/><path class="cls-12" d="M62.57 55.26c.84-3.61-.72-7.08-3.3-7.68s-5.34 1.85-6.18 5.42a8.15 8.15 0 0 0 .62 5.61c.88 1.65 1.61 3 1.46 4.45.88-1.81 2.31-2.08 4.15-3.08a7.32 7.32 0 0 0 3.25-4.72z"/><path class="cls-18" d="M62.85 54.32c-.54 3.55-2.86 6.22-5.57 5.8s-5.09-3.85-4.54-7.4 3.18-6.08 5.89-5.67 4.77 3.72 4.22 7.27z"/><path class="cls-19" d="M59.44 52.14a5.22 5.22 0 0 1 1.14.19 2.12 2.12 0 0 1 1 .51 2.09 2.09 0 0 0-1-.23 4 4 0 0 0-1 .1zm-1.55.35a5 5 0 0 0-1-.44 2.31 2.31 0 0 0-1.08-.1 2.39 2.39 0 0 1 1.19-.18 5.35 5.35 0 0 1 1.16.21z"/><path class="cls-20" d="M57.62 53.2l-.97-.48 1.1.12-.13.36zm1.82-.2h.7a3.16 3.16 0 0 1 .69 0 4.16 4.16 0 0 0-.67.13l-.65.2z"/><path class="cls-21" d="M57.45 54.31a1.1 1.1 0 0 0 .26.95 1.36 1.36 0 0 0 .85.42 1 1 0 0 0 .87-.23 1.14 1.14 0 0 0 .29-.39.92.92 0 0 0 .11-.52 1.06 1.06 0 0 1-.19 1.11 1.17 1.17 0 0 1-1.14.4 1.41 1.41 0 0 1-1-.62 1 1 0 0 1-.05-1.12z"/><path class="cls-20" d="M56.64 57a1 1 0 0 0 .52.46c.09 0 .18 0 .26.09s.17.09.26.13a1.55 1.55 0 0 0 .65.14 1.33 1.33 0 0 0 .71-.19 1.28 1.28 0 0 1-.61.56 1.88 1.88 0 0 1-.88.18 1.28 1.28 0 0 1-.47-.1 1.12 1.12 0 0 1-.37-.35.88.88 0 0 1-.07-.92z"/><path class="cls-22" d="M57.71 47a4.62 4.62 0 0 1 2.06.35 6.39 6.39 0 0 1 2.85 3.41 1.88 1.88 0 0 0-1.53-.24l-.27.08-.48-1.77-.43 2c-3 .57-5.74-2.3-6.64-.07A5.7 5.7 0 0 1 57.73 47"/><path class="cls-12" d="M27.76 65.76c-1.2 0-3.89-.38-3.48-3.24s1.46-1.63 2-1.34a2.71 2.71 0 0 0 2 .2z"/><path class="cls-15" d="M46 59.26a2.38 2.38 0 0 1 .33 1.17 4.86 4.86 0 0 1 0 .56 2.36 2.36 0 0 1-.27.85A2.58 2.58 0 0 1 45 63c-.75.52-1.5 1.08-2.3 1.56A23.4 23.4 0 0 1 37.61 67a19.67 19.67 0 0 1-5.68 1.06 22.88 22.88 0 0 1-2.87-.11 2.57 2.57 0 0 1-2-.88 1.83 1.83 0 0 1-.28-.53l-.11-.4a3.75 3.75 0 0 1 0-1.3l.47-3.34a4.44 4.44 0 0 1 .31-1.25l.2-.37a1.63 1.63 0 0 1 .33-.45 3.57 3.57 0 0 1 .6-.39 2.07 2.07 0 0 1 1.08-.14h6.28a37.11 37.11 0 0 0 4.36-.42c.38-.05.75-.13 1.12-.21a8.59 8.59 0 0 0 1.11-.28 2.28 2.28 0 0 1 .59-.11 5.7 5.7 0 0 1 .68.06 2.57 2.57 0 0 1 .81.24l.49.25c.16.07.37.24.87.86z"/></g><g class="cls-23"><path class="cls-2" d="M103.8 120.54c.5 3.29 1.1 9.65-.5 13-2.47 5.26-10 9.15-13.35 10.41 2.46-3.17 3.55-5.74 3-7.63-.17-.61-1.26 1.46-3.2 1.81a9.46 9.46 0 0 0 .59-4.37c0-1.62.3-4.52 1.39-6.17 3.47-5.31 9.42-7.34 10.68-7.9z"/><path class="cls-3" d="M103.8 120.54c.34 1.42.42 6.54-1 8.88s-6.73 4.75-9.2 7.1c.59-2.5 1.24-3.36.95-5.5a6.69 6.69 0 0 1 .16-3.64c.33-1.19 2.51-3.61 4.74-5.47a15.27 15.27 0 0 1 2.93-2.17z"/><path class="cls-4" d="M103.8 120.54c.1 1.7-.37 6.43-1.86 7.67s-2.68.87-5.19 2.62c0-1 1.54-2.6 1.08-3.71-.61.53-.83 1-1.65 1.17.7-.88.7-2.09 1.29-3.35.68-1.47 2.14-2.38 3.29-3.38a9.86 9.86 0 0 0 1.67-1.82z"/><path class="cls-5" d="M102.88 121.23c2.49 1.41 4.83 2 5.23 1.28l-.72 1.27c-.4.7-2.74.13-5.23-1.28s-4.2-3.12-3.8-3.82l.72-1.27c-.4.7 1.3 2.41 3.8 3.82z"/><path class="cls-5" d="M102 122.76c1.88 1.06 3.64 1.49 3.94 1l-.54 1c-.3.53-2.06.1-3.94-1s-3.16-2.35-2.86-2.88l.54-1c-.29.53.99 1.82 2.86 2.88z"/><path class="cls-6" d="M116 106a36 36 0 0 1-4.49 12.14l-2.54 4.49a23.53 23.53 0 0 1-5.8-1.85 24.71 24.71 0 0 1-4.58-4s1-1.93 2.48-4.59a35.51 35.51 0 0 1 8.17-10 15.79 15.79 0 0 0 3.11 2.26A16 16 0 0 0 116 106z"/><path class="cls-7" d="M115.3 99.17c.59.33 1.28 2.79.66 6.83a16 16 0 0 1-3.65-1.53 15.79 15.79 0 0 1-3.11-2.26c3.08-2.53 5.54-3.36 6.1-3.04z"/><path class="cls-5" d="M103.85 119.5c2.9 1.64 5.61 2.3 6.08 1.49l-.84 1.47c-.46.82-3.18.15-6.07-1.48s-4.87-3.62-4.41-4.44l.84-1.48c-.45.82 1.55 2.81 4.4 4.44z"/><path class="cls-8" d="M99.05 117.9a8.86 8.86 0 0 0 1.15 1.1l-.11.21a4 4 0 0 1-1.04-1.31zm.1 2.41l.29.28a.61.61 0 0 1 0 .12 2 2 0 0 1-.29-.4z"/><path class="cls-9" d="M100.09 119.25c-.22.45-.44.89-.65 1.34l-.29-.28a.53.53 0 0 1 0-.44l-.15.26c-.56-.62-.82-1.15-.64-1.47l.55-1c0 .07.11.14.16.22a4 4 0 0 0 1.02 1.37z"/><path class="cls-9" d="M99.15 120.31a2 2 0 0 0 .24.4l-.48 1c-.31-.39-.44-.72-.32-.92l.39-.7.15-.26a.53.53 0 0 0 .02.48z"/><path class="cls-10" d="M102.09 115.48q-.59 1-1.11 2c-1.09-.93-1.71-1.79-1.61-2.32.42-.78 1-1.81 1.64-3a35.73 35.73 0 0 1 8.17-10 13.89 13.89 0 0 0 1.51 1.24 64 64 0 0 0-8.6 12.08z"/><path class="cls-11" d="M109.18 102.19c3.08-2.53 5.54-3.35 6.1-3a.67.67 0 0 1 .23.22 22.1 22.1 0 0 0-4.82 4.05 13.89 13.89 0 0 1-1.51-1.27z"/><path class="cls-9" d="M101 117.52c-.27.51-.53 1-.78 1.52a8.86 8.86 0 0 1-1.15-1.14c0-.08-.11-.15-.16-.22a1.82 1.82 0 0 1-.36-.86.61.61 0 0 1 .06-.28l.84-1.48a.47.47 0 0 0-.06.15c-.12.52.5 1.38 1.61 2.31z"/><path class="cls-2" d="M95.2 119.3c.5 3.29 1.1 9.65-.49 13-2.47 5.26-10 9.14-13.36 10.41 2.46-3.17 3.55-5.74 3-7.63-.17-.61-1.26 1.46-3.2 1.81a9.6 9.6 0 0 0 .59-4.37c0-1.62.3-4.52 1.38-6.17 3.48-5.31 9.43-7.34 10.69-7.9z"/><path class="cls-3" d="M95.2 119.3c.34 1.42.43 6.54-.94 8.88s-6.73 4.75-9.21 7.1c.59-2.5 1.24-3.36 1-5.5a6.59 6.59 0 0 1 .16-3.64c.33-1.19 2.51-3.61 4.74-5.47a15.27 15.27 0 0 1 2.93-2.17z"/><path class="cls-4" d="M95.2 119.3c.1 1.7-.36 6.43-1.86 7.67s-2.67.87-5.19 2.62c0-1 1.55-2.6 1.09-3.71-.61.53-.83 1-1.65 1.17.69-.88.69-2.09 1.28-3.35.69-1.47 2.15-2.38 3.29-3.38a9.73 9.73 0 0 0 1.68-1.82z"/><path class="cls-5" d="M94.28 120c2.49 1.41 4.84 2 5.23 1.28l-.71 1.27c-.4.7-2.74.13-5.24-1.28s-4.19-3.12-3.79-3.82l.72-1.27c-.4.69 1.3 2.4 3.79 3.82z"/><path class="cls-5" d="M93.42 121.52c1.87 1.06 3.64 1.49 3.94 1l-.55 1c-.29.53-2.06.1-3.94-1s-3.15-2.35-2.85-2.88l.54-1c-.3.53.98 1.82 2.86 2.88z"/><path class="cls-6" d="M107.37 104.76a36.09 36.09 0 0 1-4.5 12.14c-1.45 2.58-2.54 4.49-2.54 4.49a23.53 23.53 0 0 1-5.8-1.85 25.08 25.08 0 0 1-4.58-4s1-1.93 2.49-4.59a35.18 35.18 0 0 1 8.17-10 16.71 16.71 0 0 0 6.76 3.79z"/><path class="cls-7" d="M106.71 97.93c.59.33 1.27 2.79.66 6.83a16.71 16.71 0 0 1-6.76-3.79c3.07-2.53 5.53-3.36 6.1-3.04z"/><path class="cls-5" d="M95.26 118.26c2.89 1.64 5.61 2.3 6.07 1.48l-.83 1.48c-.47.82-3.18.15-6.08-1.48s-4.86-3.62-4.4-4.44l.83-1.48c-.46.82 1.51 2.81 4.41 4.44z"/><path class="cls-8" d="M90.46 116.66a8.72 8.72 0 0 0 1.14 1.14l-.1.21a4 4 0 0 1-1.04-1.35zm.1 2.41l.29.28a.61.61 0 0 0 0 .12 2 2 0 0 1-.29-.4z"/><path class="cls-9" d="M91.5 118l-.65 1.34-.29-.28a.46.46 0 0 1 0-.44l-.15.26c-.57-.62-.83-1.15-.64-1.47l.55-1 .16.22A4 4 0 0 0 91.5 118z"/><path class="cls-9" d="M90.56 119.07a2 2 0 0 0 .24.4c-.17.35-.32.69-.48 1-.31-.39-.44-.72-.33-.93l.4-.69.15-.26a.46.46 0 0 0 .02.48z"/><path class="cls-10" d="M93.5 114.24c-.39.68-.76 1.36-1.12 2-1.08-.93-1.7-1.79-1.6-2.32.42-.78 1-1.81 1.63-3a35.73 35.73 0 0 1 8.17-10 16.13 16.13 0 0 0 1.51 1.24 64 64 0 0 0-8.59 12.08z"/><path class="cls-11" d="M100.58 101c3.08-2.53 5.54-3.35 6.11-3a.81.81 0 0 1 .22.23 22.33 22.33 0 0 0-4.82 4 16.13 16.13 0 0 1-1.51-1.23z"/><path class="cls-9" d="M92.38 116.28c-.27.51-.53 1-.78 1.52a8.72 8.72 0 0 1-1.14-1.14l-.16-.22a1.72 1.72 0 0 1-.36-.86.49.49 0 0 1 .06-.27l.83-1.48a.88.88 0 0 0 0 .15c-.15.51.47 1.37 1.55 2.3z"/><path class="cls-12" d="M141.92 93.16c.8-1.22 2.92-3.74 5.49-1.49s-1.54 4.92-1.54 4.92z"/><path class="cls-13" d="M108.34 126.85c-2.31-.54-2.77.19-2.77.19l.33 1.59c.16.92.52 2.13.75 3.38.46 2.48.76 5 1.79 4.82 1.47-.3 2.2-2.77 1.63-5.52a8 8 0 0 0-.38-1.34 10.71 10.71 0 0 0 2.19.46s-1.33-4.88-1.7-4.7-1.43 1.27-1.84 1.12zm-2.44.45z"/><path class="cls-14" d="M114.23 120a3.3 3.3 0 0 1 1.51 1.71c.11.51.16 1 .25 1.52.12 1 .23 2 .25 3a29 29 0 0 1-.06 2.95l-.1 1.46a3 3 0 0 1-.08.73c-.12.22-.36.43-1 .58l-11.74-1.84c-.55-.33-.72-.61-.76-.86a3.53 3.53 0 0 1 .14-.72l.36-1.42a28.44 28.44 0 0 1 .84-2.82c.32-.94.74-1.86 1.16-2.78.24-.46.44-.92.7-1.37a3.35 3.35 0 0 1 2-1.17z"/><path class="cls-12" d="M99.75 124.27c-1.17-2.07-2-1.91-2-1.91l-.95 1.31c-.57.75-1.21 1.83-2 2.85-1.51 2-3.19 4-2.33 4.58 1.21.87 3.53-.26 5.17-2.54a10 10 0 0 0 .73-1.19c.57.46 1.09.44 2.06.41 0 0 1.76-2.77 1.38-2.92s-1.87-.21-2.06-.59zm-2-1.5z"/><path class="cls-15" d="M108 119.26a3.29 3.29 0 0 1 .64 2.2c-.11.51-.28 1-.42 1.47a26.47 26.47 0 0 1-1 2.83 29.39 29.39 0 0 1-1.3 2.64l-.71 1.29a4 4 0 0 1-.38.62c-.21.16-.51.24-1.14.11l-9.86-6.65a1.29 1.29 0 0 1-.32-1.1 3.07 3.07 0 0 1 .43-.59l.92-1.13a29.2 29.2 0 0 1 2-2.2 28.74 28.74 0 0 1 2.22-2c.41-.31.79-.64 1.22-.94a3.33 3.33 0 0 1 2.27-.23zm10.2-8.99a2.52 2.52 0 0 1 .69-1.09l.5-.39a4.36 4.36 0 0 1 .9-.55 5.79 5.79 0 0 1 1.64-.61 14.71 14.71 0 0 0 3.21-1.25 25.49 25.49 0 0 0 3.06-1.86c1-.67 2-1.43 2.9-2.2s1.87-1.6 2.77-2.43 1.77-1.71 2.63-2.56 1.7-1.72 2.46-2.6a5.37 5.37 0 0 1 1.19-1.19 4.49 4.49 0 0 1 .79-.4 1.7 1.7 0 0 1 .6-.06h.43c.1 0 .31 0 1.24.39l3 1.44c.85.52 1 .71 1 .85l.19.48a2 2 0 0 1 .09.82 6.7 6.7 0 0 1-.3 1.32 7.09 7.09 0 0 1-1.27 2 34.36 34.36 0 0 1-3 3.4 30.32 30.32 0 0 1-3.42 2.9 38.94 38.94 0 0 1-3.75 2.45 31.77 31.77 0 0 1-8.49 3.37 23.53 23.53 0 0 1-4.7.62 8.11 8.11 0 0 1-1.21-.06 8.45 8.45 0 0 1-1.21-.37 4.2 4.2 0 0 1-1.14-.68c-.17-.17-.34-.37-.5-.55s-.31-.45-.32-1.24z"/><path class="cls-16" d="M128.77 103a11 11 0 1 1-5.25-14.66 11 11 0 0 1 5.25 14.66z"/><path class="cls-16" d="M120.85 121.53l.2-.42a.35.35 0 0 0 0-.14c3-7.4 3.51-14.76-5.51-19-9.11-4.3-16.19 3.14-20.43 14-1.88 4 4.61 6.76 10 9.33 6.32 3 11.54 5 12.87 2.15l1.39-2.94c.63-1.03 1.07-2.02 1.48-2.98z"/><path class="cls-17" d="M120 115.28c-1-.64-1.44-2.41-2.69-3.66-1.72-1.73-1.68-3.86-1.8-2.94s-.94 1.13-.92 1 .2.21.37-1.17-1.3-2.46-1.84-5.11a15.19 15.19 0 0 1-.31-2.87 5.46 5.46 0 0 0-.45 1.08c-.22-8.46 3.9-12.21 4.39-12.41a2.92 2.92 0 0 0-1.37.32c1.56-2.23 3.3-2 3.57-2a1.46 1.46 0 0 0-1.17-.58 3.38 3.38 0 0 1 3.17-1.14 1.28 1.28 0 0 1 .92.91A2.28 2.28 0 0 1 124 84.3c-1.52 2.29-1 1.92-1 2s1.62-.94 2.89-.75a1.35 1.35 0 0 0-.81.6c1.38-.25 3-.72 5.14 1.7a3.46 3.46 0 0 0-2 .08 9.83 9.83 0 0 1 4.59 8.07c-.18-.17-1.11-1.16-1.29-1 .65.83 2.75 3.7-.92 12 .05-.47 0-1.58-.25-1.61.11.88-1.11 3.11-4 4.74-3.87 2.24-5.62 3.52-6.35 5.15z"/><path class="cls-12" d="M129.53 100.44c1-4.14-.83-8.13-3.79-8.81s-6.13 2.12-7.09 6.27a9.33 9.33 0 0 0 .71 6.43c1 1.9 1.84 3.47 1.67 5.11 1-2.08 2.66-2.38 4.77-3.54a8.44 8.44 0 0 0 3.73-5.46z"/><path class="cls-18" d="M129.85 99.36c-.63 4.07-3.29 7.14-6.4 6.66s-5.84-4.42-5.21-8.49 3.65-7 6.76-6.51 5.48 4.27 4.85 8.34z"/><path class="cls-19" d="M125.94 96.91a5.51 5.51 0 0 1 1.3.19 2.53 2.53 0 0 1 1.15.56 2.46 2.46 0 0 0-1.19-.29 5.4 5.4 0 0 0-1.21.1zm-1.77.32a5.22 5.22 0 0 0-1.13-.49 2.47 2.47 0 0 0-1.24-.09 2.58 2.58 0 0 1 1.29-.19 5.51 5.51 0 0 1 1.32.26z"/><path class="cls-20" d="M123.86 98.05l-1.13-.53 1.25.17-.12.36zm2.08-.14h.8a3.5 3.5 0 0 1 .79.05 4.16 4.16 0 0 0-.77.14q-.37.09-.75.21z"/><path class="cls-21" d="M123.65 99.35a1.25 1.25 0 0 0 .28 1.1 1.58 1.58 0 0 0 1 .5 1.16 1.16 0 0 0 1-.27 1.43 1.43 0 0 0 .33-.47 1 1 0 0 0 .11-.59 1.23 1.23 0 0 1-.23 1.26 1.34 1.34 0 0 1-1.29.44 1.63 1.63 0 0 1-1.16-.7 1.15 1.15 0 0 1-.04-1.27z"/><path class="cls-20" d="M122.72 102.43a1.12 1.12 0 0 0 .56.56c.1.05.21.07.31.12s.2.11.32.15a1.9 1.9 0 0 0 .76.14 1.66 1.66 0 0 0 .81-.25 1.49 1.49 0 0 1-.71.62 2.25 2.25 0 0 1-1 .18 1.36 1.36 0 0 1-.52-.12 1.27 1.27 0 0 1-.42-.38 1 1 0 0 1-.11-1.02z"/><path class="cls-22" d="M124 91a5.26 5.26 0 0 1 2.36.4c2 .84 3 3.27 3.27 3.9a2.2 2.2 0 0 0-1.75-.27l-.31.1-.55-2-.49 2.32c-3.41.66-6.6-2.64-7.63-.08 1-2.42 3-4.19 5.12-4.35"/><path class="cls-12" d="M89.57 112.49c-1.37 0-4.46-.43-4-3.71s1.69-1.88 2.36-1.54a3.09 3.09 0 0 0 2.33.22z"/><path class="cls-15" d="M110.46 105a2.3 2.3 0 0 1 .29 1.19c0 .2 0 .4-.09.59a2.73 2.73 0 0 1-.35.9 3.07 3.07 0 0 1-1.1 1.18c-.42.3-.85.59-1.29.88s-.87.57-1.33.84a27.69 27.69 0 0 1-5.84 2.69 23.22 23.22 0 0 1-6.41 1.15 24.86 24.86 0 0 1-3.23-.13 3.9 3.9 0 0 1-1.57-.35 3.73 3.73 0 0 1-.74-.55 1.8 1.8 0 0 1-.32-.53l-.14-.41c0-.1-.09-.31 0-1.3l.46-3.34c.2-1 .28-1.17.35-1.25l.21-.37a1.76 1.76 0 0 1 .38-.44 4 4 0 0 1 .69-.38 3.1 3.1 0 0 1 1.27-.13h2.46c1.63 0 3.26 0 4.91-.12a39.43 39.43 0 0 0 5.07-.63c.43-.08.86-.17 1.28-.29a11 11 0 0 0 1.28-.35 2.85 2.85 0 0 1 .67-.15 6.48 6.48 0 0 1 .76 0 2.74 2.74 0 0 1 .89.19l.53.23c.17.07.4.23.91.84z"/></g><g class="cls-23"><path class="cls-2" d="M182.72 107c.44 2.87 1 8.41-.43 11.37-2.15 4.59-8.68 8-11.63 9.07 2.14-2.77 3.09-5 2.63-6.65-.15-.52-1.1 1.27-2.79 1.58a8.43 8.43 0 0 0 .52-3.81 11 11 0 0 1 1.2-5.38c3-4.62 8.22-6.39 9.31-6.88z"/><path class="cls-3" d="M182.72 107c.3 1.24.37 5.7-.82 7.74s-5.87 4.14-8 6.19c.51-2.19 1.08-2.94.83-4.8a5.84 5.84 0 0 1 .14-3.17c.29-1 2.19-3.15 4.13-4.77a14.07 14.07 0 0 1 2.55-1.89z"/><path class="cls-4" d="M182.72 107c.09 1.48-.32 5.6-1.62 6.69s-2.33.75-4.52 2.28c0-.89 1.34-2.27.94-3.23-.53.46-.72.83-1.43 1 .6-.77.6-1.83 1.12-2.93.6-1.28 1.87-2.07 2.86-2.94a8.33 8.33 0 0 0 1.46-1.59z"/><path class="cls-5" d="M181.92 107.64c2.17 1.23 4.21 1.73 4.56 1.12l-.63 1.1c-.35.62-2.39.12-4.56-1.11s-3.65-2.72-3.31-3.33l.63-1.11c-.34.61 1.14 2.1 3.31 3.33z"/><path class="cls-5" d="M181.16 109c1.64.92 3.18 1.3 3.44.84l-.48.83c-.26.46-1.79.09-3.43-.84s-2.75-2-2.49-2.51l.47-.83c-.26.44.86 1.56 2.49 2.51z"/><path class="cls-6" d="M193.32 94.37A31.34 31.34 0 0 1 189.4 105l-2.21 3.92a20.72 20.72 0 0 1-5.05-1.62 21.41 21.41 0 0 1-4-3.44s.85-1.68 2.16-4a30.89 30.89 0 0 1 7.12-8.74 13.85 13.85 0 0 0 2.7 2 13.57 13.57 0 0 0 3.2 1.25z"/><path class="cls-7" d="M192.74 88.42c.52.3 1.11 2.43.58 6a13.57 13.57 0 0 1-3.19-1.42 13.85 13.85 0 0 1-2.7-2c2.68-2.13 4.82-2.85 5.31-2.58z"/><path class="cls-5" d="M182.77 106.14c2.52 1.42 4.89 2 5.29 1.29l-.73 1.29c-.4.71-2.77.13-5.29-1.3s-4.24-3.15-3.84-3.86l.73-1.29c-.4.73 1.32 2.44 3.84 3.87z"/><path class="cls-8" d="M178.59 104.74a7.69 7.69 0 0 0 1 1l-.09.18a3.31 3.31 0 0 1-.91-1.18zm.08 2.1l.26.24-.05.11a2.31 2.31 0 0 1-.21-.35z"/><path class="cls-9" d="M179.49 105.92l-.56 1.16-.26-.24a.47.47 0 0 1 0-.38l-.12.22c-.5-.53-.72-1-.56-1.27l.48-.86.14.19a3.31 3.31 0 0 0 .88 1.18z"/><path class="cls-9" d="M178.67 106.84a2.31 2.31 0 0 0 .21.35c-.14.3-.28.6-.41.9-.28-.33-.39-.62-.29-.8l.35-.61.12-.22a.47.47 0 0 0 .02.38z"/><path class="cls-10" d="M181.23 102.63c-.33.6-.66 1.19-1 1.78-.94-.81-1.48-1.56-1.39-2 .36-.68.85-1.57 1.42-2.59a31.09 31.09 0 0 1 7.12-8.74 13.64 13.64 0 0 0 1.32 1.08 55.28 55.28 0 0 0-7.47 10.47z"/><path class="cls-11" d="M187.41 91.06c2.68-2.21 4.82-2.93 5.32-2.65a.61.61 0 0 1 .19.2 18.87 18.87 0 0 0-4.19 3.53 13.64 13.64 0 0 1-1.32-1.08z"/><path class="cls-9" d="M180.26 104.41l-.68 1.33a7.69 7.69 0 0 1-1-1l-.14-.19a1.51 1.51 0 0 1-.32-.75.54.54 0 0 1 .06-.25l.72-1.28a.5.5 0 0 0 0 .13c-.12.45.42 1.2 1.36 2.01z"/><path class="cls-2" d="M175.23 106c.44 2.87 1 8.41-.43 11.37-2.15 4.59-8.67 8-11.63 9.07 2.14-2.77 3.09-5 2.63-6.65-.14-.53-1.1 1.27-2.78 1.58a8.4 8.4 0 0 0 .51-3.81 10.86 10.86 0 0 1 1.21-5.38c3-4.62 8.21-6.39 9.3-6.88z"/><path class="cls-3" d="M175.23 106c.3 1.23.37 5.7-.82 7.74s-5.87 4.14-8 6.18c.51-2.18 1.08-2.93.83-4.79a5.84 5.84 0 0 1 .14-3.17c.29-1 2.19-3.15 4.13-4.77a13.3 13.3 0 0 1 2.55-1.89z"/><path class="cls-4" d="M175.23 106c.09 1.48-.31 5.6-1.62 6.69s-2.33.75-4.52 2.28c0-.89 1.35-2.27.95-3.23-.54.46-.73.83-1.44 1 .61-.77.6-1.83 1.12-2.93.6-1.28 1.87-2.07 2.87-2.94a8.45 8.45 0 0 0 1.45-1.59z"/><path class="cls-5" d="M174.43 106.56c2.17 1.23 4.21 1.73 4.56 1.12l-.63 1.1c-.34.62-2.38.12-4.56-1.11s-3.65-2.72-3.3-3.33l.62-1.11c-.34.61 1.14 2.1 3.31 3.33z"/><path class="cls-5" d="M173.68 107.9c1.63.92 3.17 1.3 3.43.84l-.47.83c-.26.46-1.8.09-3.44-.84s-2.75-2-2.49-2.51l.48-.83c-.26.46.81 1.61 2.49 2.51z"/><path class="cls-6" d="M185.83 93.29a31.5 31.5 0 0 1-3.91 10.58l-2.22 3.92a20.72 20.72 0 0 1-5-1.62 21.41 21.41 0 0 1-4-3.44s.85-1.68 2.16-4a31.24 31.24 0 0 1 7.08-8.73 14.65 14.65 0 0 0 5.89 3.3z"/><path class="cls-7" d="M185.26 87.34c.51.3 1.11 2.43.57 6a14.65 14.65 0 0 1-5.89-3.3c2.68-2.25 4.83-2.97 5.32-2.7z"/><path class="cls-5" d="M175.28 105.06c2.52 1.42 4.89 2 5.29 1.29l-.72 1.29c-.41.71-2.77.13-5.3-1.3s-4.23-3.15-3.83-3.86l.72-1.29c-.44.71 1.32 2.44 3.84 3.87z"/><path class="cls-8" d="M171.1 103.66a7.22 7.22 0 0 0 1 1l-.09.18a3.24 3.24 0 0 1-.91-1.18zm.09 2.1l.25.24a.54.54 0 0 1-.05.11 1.61 1.61 0 0 1-.2-.35z"/><path class="cls-9" d="M172 104.84c-.2.39-.39.78-.57 1.16l-.25-.24a.42.42 0 0 1 0-.39l-.13.23c-.49-.53-.72-1-.56-1.27l.48-.86.14.19a3.24 3.24 0 0 0 .89 1.18z"/><path class="cls-9" d="M171.19 105.76a1.61 1.61 0 0 0 .2.35l-.41.9c-.27-.33-.39-.62-.28-.8l.34-.61.13-.23a.42.42 0 0 0 .02.39z"/><path class="cls-10" d="M173.75 101.55c-.34.6-.66 1.19-1 1.78-.95-.81-1.49-1.56-1.4-2 .36-.68.85-1.57 1.42-2.59a31.09 31.09 0 0 1 7.15-8.74 13.64 13.64 0 0 0 1.32 1.08 55.27 55.27 0 0 0-7.49 10.47z"/><path class="cls-11" d="M179.92 90c2.68-2.21 4.83-2.93 5.32-2.65a.61.61 0 0 1 .19.2 19.09 19.09 0 0 0-4.19 3.53 13.64 13.64 0 0 1-1.32-1.08z"/><path class="cls-9" d="M172.78 103.33c-.24.44-.46.89-.68 1.33a7.22 7.22 0 0 1-1-1l-.14-.19a1.4 1.4 0 0 1-.31-.75.53.53 0 0 1 0-.25l.73-1.28a.29.29 0 0 0-.05.13c-.04.45.5 1.2 1.45 2.01z"/><path class="cls-12" d="M215.93 83.19c.7-1.06 2.55-3.26 4.78-1.3s-1.34 4.29-1.34 4.29z"/><path class="cls-13" d="M186.68 112.54c-2-.47-2.41.17-2.41.17l.28 1.38c.14.8.45 1.85.66 2.94.4 2.16.66 4.39 1.56 4.2 1.27-.26 1.91-2.41 1.42-4.81a8.36 8.36 0 0 0-.33-1.17 8.38 8.38 0 0 0 1.91.41s-1.17-4.25-1.49-4.1-1.28 1.08-1.6.98zm-2.13.39z"/><path class="cls-14" d="M192.23 106.63a3.21 3.21 0 0 1 1.54 1.53c.12.44.18.88.28 1.33a24 24 0 0 1 .31 2.62 22.21 22.21 0 0 1 0 2.58l-.07 1.28a2.65 2.65 0 0 1-.07.63c-.11.2-.35.38-1 .49l-11.74-1.84c-.56-.3-.73-.54-.78-.76a2.71 2.71 0 0 1 .13-.63l.32-1.24a24.91 24.91 0 0 1 .79-2.45 23.43 23.43 0 0 1 1.1-2.4c.23-.4.42-.8.67-1.19a3.23 3.23 0 0 1 1.94-1z"/><path class="cls-12" d="M179.2 110.29c-1-1.8-1.76-1.66-1.76-1.66l-.82 1.14c-.5.65-1.06 1.59-1.73 2.48-1.31 1.75-2.77 3.46-2 4 1.06.76 3.07-.23 4.5-2.21a8.25 8.25 0 0 0 .64-1 2.43 2.43 0 0 0 1.79.35s1.54-2.41 1.21-2.54-1.67-.23-1.83-.56zm-1.73-1.3z"/><path class="cls-15" d="M186.75 106.16a3.22 3.22 0 0 1 .75 2c-.08.45-.21.88-.31 1.32a24.59 24.59 0 0 1-.83 2.51 22.55 22.55 0 0 1-1.09 2.33l-.61 1.13a2.3 2.3 0 0 1-.33.54c-.19.13-.47.2-1.09 0l-9.86-6.65c-.37-.51-.42-.8-.37-1a2.33 2.33 0 0 1 .38-.51l.82-1A22 22 0 0 1 176 105a22.48 22.48 0 0 1 2-1.71c.37-.26.71-.55 1.1-.79a3.23 3.23 0 0 1 2.18-.07zm8.52-8.07a2.69 2.69 0 0 1 .62-1.1l.44-.4a3.28 3.28 0 0 1 .77-.55 3.75 3.75 0 0 1 1.38-.6 13.12 13.12 0 0 0 2.7-1.13 31.72 31.72 0 0 0 5-3.59c.8-.68 1.58-1.39 2.34-2.11l2.25-2.21c.73-.73 1.45-1.47 2.1-2.21a2.81 2.81 0 0 1 1.75-1.27 1.74 1.74 0 0 1 .57 0l.41.06a4.87 4.87 0 0 1 1.23.42l3 1.44c.86.51 1 .69 1 .82l.21.46a2 2 0 0 1 .13.75 5.52 5.52 0 0 1-.24 1.21 6.18 6.18 0 0 1-1.1 1.85 30.22 30.22 0 0 1-2.7 3 23.7 23.7 0 0 1-3 2.54 30.43 30.43 0 0 1-3.33 2.14 27.63 27.63 0 0 1-7.55 2.9 21.43 21.43 0 0 1-4.19.5 5.66 5.66 0 0 1-1.09-.08 6.73 6.73 0 0 1-1.07-.36 3.46 3.46 0 0 1-1-.68c-.15-.16-.3-.36-.44-.53s-.26-.45-.25-1.24z"/><path class="cls-16" d="M204.48 91.75A9.6 9.6 0 1 1 199.9 79a9.59 9.59 0 0 1 4.58 12.75z"/><path class="cls-16" d="M197.58 107.9l.17-.36a.28.28 0 0 0 0-.13c2.62-6.44 3.05-12.85-4.81-16.56-7.93-3.75-14.1 2.73-17.79 12.2-1.64 3.51 4 5.89 8.75 8.13 5.51 2.61 10.06 4.38 11.22 1.87l1.21-2.56c.48-.89.89-1.75 1.25-2.59z"/><path class="cls-17" d="M196.8 102.46c-.89-.55-1.25-2.1-2.34-3.19-1.5-1.5-1.47-3.37-1.57-2.56s-.82 1-.8.87.17.18.32-1-1.13-2.14-1.6-4.45a13.87 13.87 0 0 1-.28-2.5 4.87 4.87 0 0 0-.38.94c-.2-7.37 3.39-10.63 3.82-10.81a2.51 2.51 0 0 0-1.19.28c1.36-2 2.87-1.79 3.11-1.77a1.33 1.33 0 0 0-1-.51 3 3 0 0 1 2.77-1 1.12 1.12 0 0 1 .8.8 2 2 0 0 1 1.93-2.08c-1.33 2-.88 1.68-.83 1.77a6.06 6.06 0 0 1 2.52-.65 1.19 1.19 0 0 0-.71.52c1.2-.22 2.57-.62 4.48 1.48a3.06 3.06 0 0 0-1.74.08 8.56 8.56 0 0 1 3.92 7c-.16-.15-1-1-1.13-.91.57.71 2.4 3.22-.8 10.48 0-.41 0-1.38-.22-1.41.1.77-1 2.71-3.45 4.13-3.43 1.95-4.96 3.03-5.63 4.49z"/><path class="cls-12" d="M205.14 89.53c.84-3.61-.72-7.08-3.3-7.67s-5.34 1.84-6.18 5.45a8.15 8.15 0 0 0 .62 5.61c.87 1.65 1.61 3 1.45 4.45.88-1.81 2.32-2.08 4.16-3.08a7.39 7.39 0 0 0 3.25-4.76z"/><path class="cls-18" d="M205.42 88.59c-.55 3.55-2.87 6.22-5.57 5.8s-5.09-3.85-4.55-7.4 3.19-6.08 5.89-5.66 4.81 3.72 4.23 7.26z"/><path class="cls-19" d="M202 86.42a4.76 4.76 0 0 1 1.14.18 2.32 2.32 0 0 1 1 .51 2.11 2.11 0 0 0-1-.23 4.56 4.56 0 0 0-1.05.1zm-1.54.35a4.52 4.52 0 0 0-1-.45 2.2 2.2 0 0 0-1.08-.09 2.27 2.27 0 0 1 1.13-.18 5.14 5.14 0 0 1 1.15.2z"/><path class="cls-20" d="M200.19 87.47l-.97-.48 1.09.13-.12.35zm1.81-.17h.7a3.21 3.21 0 0 1 .69 0 3.07 3.07 0 0 0-.67.14l-.66.19z"/><path class="cls-21" d="M200 88.58a1.1 1.1 0 0 0 .26 1 1.36 1.36 0 0 0 .84.42 1 1 0 0 0 .87-.22 1.17 1.17 0 0 0 .3-.4 1 1 0 0 0 .11-.51 1.05 1.05 0 0 1-.2 1.1 1.14 1.14 0 0 1-1.13.4 1.37 1.37 0 0 1-1-.62 1 1 0 0 1-.05-1.17z"/><path class="cls-20" d="M199.2 91.26a1 1 0 0 0 .52.46c.09 0 .19 0 .27.09s.16.09.26.14a1.54 1.54 0 0 0 .65.13 1.44 1.44 0 0 0 .71-.18 1.41 1.41 0 0 1-.62.56 1.93 1.93 0 0 1-.87.17 1.07 1.07 0 0 1-.47-.1 1 1 0 0 1-.37-.35.88.88 0 0 1-.08-.92z"/><path class="cls-22" d="M200.27 81.29a4.84 4.84 0 0 1 2.07.35 6.32 6.32 0 0 1 2.84 3.41 1.86 1.86 0 0 0-1.52-.24l-.27.08-.48-1.76-.43 2c-3 .57-5.74-2.3-6.65-.07a5.72 5.72 0 0 1 4.47-3.79"/><path class="cls-12" d="M170.33 100c-1.2 0-3.89-.38-3.49-3.23s1.47-1.64 2.06-1.35a2.71 2.71 0 0 0 2 .2z"/><path class="cls-15" d="M188.53 93.53a2.52 2.52 0 0 1 .33 1.17c0 .19 0 .39-.05.56a3 3 0 0 1-.27.86 2.63 2.63 0 0 1-.94 1.1c-.74.52-1.49 1.08-2.29 1.56a23.62 23.62 0 0 1-5.13 2.48 19.75 19.75 0 0 1-5.68 1.07 24.86 24.86 0 0 1-2.87-.12 3.13 3.13 0 0 1-1.39-.34 3.47 3.47 0 0 1-.64-.54 1.83 1.83 0 0 1-.28-.53l-.12-.4a3.75 3.75 0 0 1 0-1.3l.47-3.34a4.61 4.61 0 0 1 .32-1.25l.19-.37a2.08 2.08 0 0 1 .34-.45 3.16 3.16 0 0 1 .59-.39 2.09 2.09 0 0 1 1.09-.14h6.28a37.31 37.31 0 0 0 4.36-.42c.37 0 .74-.12 1.12-.21a8.59 8.59 0 0 0 1.11-.28 2.59 2.59 0 0 1 .58-.11 5.68 5.68 0 0 1 .69.06 2.72 2.72 0 0 1 .8.24c.16.07.33.17.49.25s.38.24.87.86z"/></g></svg>