<svg id="Layer_1" data-name="Layer 1" xmlns="http://www.w3.org/2000/svg" viewBox="0 0 251 151"><defs><style>.cls-1{fill:#e1f1f9}.cls-2{fill:#5e3e21}.cls-3{fill:#783a28}.cls-7{fill:#8f4729}.cls-8{fill:#e84c59}.cls-9{fill:#ee7b5c}.cls-10{fill:#f9c862}.cls-11{fill:#062633}.cls-12{fill:#abaaaa}.cls-13{fill:#e1dfe0}.cls-14{fill:none}.cls-15{fill:#041d26}.cls-16{fill:#6e6e6e}.cls-17{fill:silver}</style></defs><path class="cls-1" d="M182.84 124.15l-.54 2.85-.09-2.85-2.68-.36 2.71-.31.54-3 .12 3 2.64.31-2.7.36zM170.45 13.7l-.54 2.85-.09-2.85-2.67-.36 2.7-.31.54-3 .13 3 2.64.31-2.71.36z"/><path class="cls-2" d="M95.12 57.06c-1.12-1.06-4.05-3.29-6.35-.19-3.06 4.12 9.62 7.35 2.81 4.91z"/><path class="cls-3" d="M121 60.92c-.08.76-.21 1-.36 1.19s-.28.34-.43.49a3.36 3.36 0 0 1-.89.67 5.91 5.91 0 0 1-.91.45 5.41 5.41 0 0 1-.94.24c-1.26.24-2.53.49-3.8.71a62.34 62.34 0 0 1-7.82.94 36.69 36.69 0 0 1-4.06 0c-.69 0-1.38-.07-2.08-.17a19.39 19.39 0 0 1-2.09-.35c-.7-.13-1.41-.33-2.11-.53s-1.4-.46-2.1-.73a6.12 6.12 0 0 1-2-1.09 4.68 4.68 0 0 1-.81-.9 1.81 1.81 0 0 1-.26-.69v-.47a.67.67 0 0 1 0-.31v-.16l.08-.19s.06-.15.11-.25l.14-.28 1.71-2.8.19-.26a1.83 1.83 0 0 1 .16-.22l.13-.16.06-.08v-.05a.94.94 0 0 1 .24-.2l.36-.23a1.84 1.84 0 0 1 .56-.23 5.31 5.31 0 0 1 .87-.06 4.85 4.85 0 0 1 1.45.38 28.52 28.52 0 0 0 3 .8l.79.17.81.16 1.65.31c1.11.2 2.26.37 3.43.53 2.33.31 4.74.57 7.19.78 1.22.08 2.45.18 3.69.21a5.42 5.42 0 0 1 1.89.37 3.79 3.79 0 0 1 1 .5l.5.4c.17.11.35.37.58 1.1z"/><path d="M111.67 86.19c-1.59 3-4 4.57-5.45 3.78s-1.5-3.65.09-6.63 4.07-4.76 5.55-4 1.39 3.87-.19 6.85z" fill="#54371d"/><ellipse class="cls-2" cx="117.98" cy="89.55" rx="6.11" ry="3.04" transform="rotate(-61.99 117.966 89.545)"/><path d="M129.72 71.52c1.49-.46 2.62-2.42 4.6-3.54 2.73-1.54 3.44-4.06 3.26-3s.78 1.6.79 1.44-.32.18-.05-1.48 2.47-2.52 4.06-5.48a18.86 18.86 0 0 0 1.38-3.27 6.37 6.37 0 0 1 .18 1.39c3.22-9.85-.59-15.37-1.13-15.74a3.59 3.59 0 0 1 1.59.75c-1.17-3-3.39-3.32-3.73-3.37a2.13 2.13 0 0 1 1.67-.36c-.94-1.32-1.89-2.19-3.55-2.2a1.74 1.74 0 0 0-1.46.8 2.59 2.59 0 0 0-1.91-3.4c1.09 3.11.59 2.54.48 2.65s-1.69-1.54-3.33-1.68a1.62 1.62 0 0 1 .8.93c-1.63-.68-3.41-1.66-7 .57a4.51 4.51 0 0 1 2.44.65c-.46.16-6.43 2-8.37 8.19.28-.15 1.78-1.05 2-.87-1.09.79-4.7 3.57-3 14.35.1-.57.58-1.85.87-1.83-.45 1 .3 4 3.27 6.66 4.02 3.74 5.75 5.73 6.14 7.84z" fill="#dcb680"/><path d="M118.37 74.11a3.4 3.4 0 0 1 .79 2.22c-.07.59-.19 1.15-.29 1.73-.22 1.14-.46 2.27-.78 3.37s-.66 2.18-1 3.25l-.59 1.6a5.32 5.32 0 0 1-.32.78 1.38 1.38 0 0 1-1.09.45L105 83a1.33 1.33 0 0 1-.39-1.11 4.77 4.77 0 0 1 .36-.76l.81-1.5c.54-1 1.1-2 1.72-3s1.3-1.9 2-2.83c.37-.46.7-.93 1.1-1.37a3.44 3.44 0 0 1 2.18-.89z" fill="#6d3325"/><path class="cls-3" d="M126.26 78.31a3.46 3.46 0 0 1 .8 2.22c-.07.58-.2 1.15-.29 1.73-.23 1.13-.47 2.27-.78 3.37s-.67 2.18-1 3.25l-.59 1.6a4.41 4.41 0 0 1-.32.78 1.36 1.36 0 0 1-1.09.45l-10-4.49a1.34 1.34 0 0 1-.4-1.11 4.44 4.44 0 0 1 .37-.76l.8-1.5c.54-1 1.1-2 1.72-2.95s1.3-1.9 2-2.83c.37-.46.71-.93 1.1-1.37a3.44 3.44 0 0 1 2.18-.89z"/><path class="cls-7" d="M134.52 79l.22-.49a.33.33 0 0 0 0-.17c3.41-8.62 3.91-17.18-6.63-22-10.63-4.9-18.77 3.83-23.57 16.51-2.15 4.71 5.43 7.8 11.78 10.74 7.38 3.4 13.47 5.7 15 2.34l1.58-3.44c.62-1.2 1.15-2.35 1.62-3.49z"/><path class="cls-2" d="M152 82.09c1.6 0 5.19.54 4.62 4.35-.75 5.08-12-1.6-5.46 1.49z"/><path class="cls-3" d="M131 66.52c.68-.36 1-.41 1.19-.37l.64.07a3.81 3.81 0 0 1 1.05.34 5.37 5.37 0 0 1 1.59 1.08c.89.85 1.84 1.65 2.76 2.46 1.88 1.58 3.77 3.1 5.64 4.53.93.72 1.87 1.4 2.79 2.05.47.33.93.65 1.39.94l.68.47c.23.14.46.28.68.43a28.81 28.81 0 0 0 2.7 1.56 5 5 0 0 1 1.29.76c.19.19.38.42.57.65a1.65 1.65 0 0 1 .23.56l.09.42a.73.73 0 0 1 0 .31v.37a2 2 0 0 1 0 .27v.32l-.77 3.19-.1.3-.1.25-.08.19v.15a.63.63 0 0 1-.2.25l-.36.29a1.89 1.89 0 0 1-.67.31 5 5 0 0 1-1.22.06 6.3 6.3 0 0 1-2.19-.64c-.68-.3-1.35-.63-2-1s-1.27-.72-1.86-1.12a18.33 18.33 0 0 1-1.72-1.23c-.57-.42-1.08-.89-1.6-1.34a39 39 0 0 1-2.88-2.87 61.53 61.53 0 0 1-4.87-6.19c-.74-1.06-1.46-2.13-2.18-3.19a6.3 6.3 0 0 1-.5-.83 6.89 6.89 0 0 1-.32-1 3.74 3.74 0 0 1-.16-1.1v-.65c0-.21.1-.5.59-1.09z"/><path class="cls-7" d="M140.76 55.19A12.81 12.81 0 1 1 132.68 39a12.8 12.8 0 0 1 8.08 16.19z"/><path class="cls-8" d="M108.23 82.73c1.08 3.72 2.75 10.93 1.44 15.09-2 6.44-10 12.06-13.75 14 2.33-4 3.19-7.16 2.3-9.25-.29-.67-1.23 1.87-3.4 2.58a11.2 11.2 0 0 0 0-5.12c-.28-1.85-.35-5.24.64-7.31 3.18-6.64 9.71-9.9 11.07-10.73z"/><path class="cls-9" d="M108.23 82.73c.61 1.58 1.49 7.46.28 10.37s-7 6.5-9.49 9.59c.29-3 .9-4.07.25-6.48a7.74 7.74 0 0 1-.38-4.21c.2-1.42 2.33-4.55 4.61-7a17.23 17.23 0 0 1 3-2.94z"/><path class="cls-10" d="M108.23 82.73c.38 1.94.57 7.46-1 9.12s-2.94 1.41-5.56 3.81c-.19-1.17 1.37-3.23.67-4.43-.62.7-.81 1.23-1.72 1.6.67-1.12.48-2.51 1-4.06.57-1.8 2.11-3.07 3.27-4.39a11.11 11.11 0 0 0 1.64-2.38z"/><path class="cls-11" d="M107.27 83.67c3.09 1.24 5.87 1.53 6.22.66l-.63 1.58c-.35.87-3.13.57-6.22-.66s-5.3-3-5-3.82l.63-1.57c-.27.87 1.92 2.57 5 3.81z"/><path class="cls-11" d="M106.51 85.57c2.33.93 4.42 1.15 4.69.5l-.48 1.18c-.26.66-2.36.43-4.68-.5s-4-2.21-3.73-2.87l.47-1.18c-.26.65 1.41 1.94 3.73 2.87z"/><path class="cls-12" d="M120 64.13a41.57 41.57 0 0 1-3.3 14.66l-2.23 5.56a27.64 27.64 0 0 1-7-1.23 28.69 28.69 0 0 1-5.88-3.84s.83-2.38 2.15-5.66a41.22 41.22 0 0 1 7.85-12.81 19.25 19.25 0 0 0 8.41 3.32z"/><path class="cls-13" d="M118.17 56.38c.73.29 1.89 3 1.81 7.75a19.25 19.25 0 0 1-8.36-3.32c3.15-3.38 5.85-4.71 6.55-4.43z"/><path class="cls-11" d="M108.13 81.53c3.58 1.44 6.81 1.78 7.22.77l-.74 1.83c-.4 1-3.63.66-7.21-.77s-6.16-3.41-5.75-4.42l.73-1.83c-.38 1.01 2.17 2.99 5.75 4.42z"/><path class="cls-14" d="M102.37 80.43a10.49 10.49 0 0 0 1.48 1.14 2.41 2.41 0 0 1-.08.25 4.44 4.44 0 0 1-1.4-1.39zM102.85 83.19l.38.27a.83.83 0 0 0 0 .15 2.32 2.32 0 0 1-.38-.42z"/><path class="cls-12" d="M101.59 79.27z"/><path class="cls-15" d="M103.77 81.82c-.19.55-.37 1.1-.54 1.64l-.38-.27a.59.59 0 0 1-.09-.51l-.13.33c-.75-.62-1.13-1.2-1-1.59l.49-1.22.22.23a4.44 4.44 0 0 0 1.43 1.39z"/><path class="cls-15" d="M102.85 83.19a2.32 2.32 0 0 0 .34.42c-.14.43-.27.85-.39 1.27-.42-.4-.62-.75-.52-1l.35-.86.13-.33a.59.59 0 0 0 .09.5z"/><path class="cls-16" d="M105.48 77.18q-.51 1.26-1 2.52c-1.39-.91-2.24-1.8-2.2-2.42.36-1 .84-2.23 1.42-3.67a41.29 41.29 0 0 1 7.85-12.81 17.69 17.69 0 0 0 1.93 1.2 74.05 74.05 0 0 0-8 15.18z"/><path class="cls-17" d="M111.59 60.8c3.15-3.38 5.85-4.71 6.55-4.43a.77.77 0 0 1 .29.22 26 26 0 0 0-4.91 5.41 17.69 17.69 0 0 1-1.93-1.2z"/><path class="cls-15" d="M104.52 79.7c-.23.63-.45 1.25-.67 1.87a10.49 10.49 0 0 1-1.48-1.14l-.22-.23a1.86 1.86 0 0 1-.55-.93.72.72 0 0 1 0-.33l.73-1.83a.58.58 0 0 0 0 .19c-.05.6.8 1.49 2.19 2.4z"/><path class="cls-8" d="M119.47 86.75c1.37 3.61 3.6 10.67 2.63 14.92-1.52 6.58-9.07 12.81-12.61 15.08 2-4.2 2.62-7.39 1.56-9.4-.33-.64-1.07 2-3.18 2.84a11.17 11.17 0 0 0-.4-5.11c-.43-1.82-.76-5.19.06-7.34 2.65-6.86 8.9-10.63 10.19-11.57z"/><path class="cls-9" d="M119.47 86.75c.73 1.52 2.08 7.31 1.09 10.3s-6.47 7-8.7 10.31c0-3 .58-4.12-.26-6.48s-.8-2.73-.71-4.16 2-4.72 4-7.38a18.11 18.11 0 0 1 2.79-3.17z"/><path class="cls-10" d="M119.47 86.75c.53 1.9 1.16 7.38-.23 9.16s-2.83 1.63-5.25 4.24c-.28-1.16 1.11-3.33.32-4.47-.57.74-.71 1.28-1.59 1.72.58-1.17.28-2.54.64-4.11.42-1.84 1.86-3.23 2.91-4.64a11.24 11.24 0 0 0 1.45-2.48z"/><path class="cls-11" d="M118.59 87.75c3.17 1 6 1.07 6.25.17l-.5 1.62c-.28.9-3.08.82-6.25-.17s-5.52-2.51-5.24-3.41l.5-1.62c-.28.9 2.07 2.42 5.24 3.41z"/><path class="cls-11" d="M118 89.7c2.39.75 4.5.81 4.71.13l-.38 1.22c-.21.68-2.32.62-4.71-.13s-4.15-1.89-3.94-2.56l.38-1.22c-.23.67 1.53 1.86 3.94 2.56z"/><path class="cls-12" d="M129.72 67.27a41.88 41.88 0 0 1-2.13 14.88l-1.79 5.72a27.64 27.64 0 0 1-7-.68 28.57 28.57 0 0 1-6.16-3.37s.64-2.43 1.69-5.81a41.41 41.41 0 0 1 6.82-13.38 18.52 18.52 0 0 0 4.08 1.81 17.87 17.87 0 0 0 4.49.83z"/><path class="cls-13" d="M127.3 59.69c.75.23 2.13 2.85 2.42 7.58a17.87 17.87 0 0 1-4.52-.83 18.52 18.52 0 0 1-4.08-1.81c2.88-3.63 5.46-5.16 6.18-4.94z"/><path class="cls-11" d="M119.28 85.55c3.68 1.15 6.93 1.24 7.25.2l-.59 1.88c-.32 1-3.57 1-7.25-.2s-6.4-2.92-6.08-4l.59-1.88c-.33 1.08 2.39 2.86 6.08 4z"/><path class="cls-14" d="M113.44 84.91a10.09 10.09 0 0 0 1.58 1c0 .08 0 .17-.07.26a4.64 4.64 0 0 1-1.51-1.26zM114.14 87.62l.4.24v.15a2.19 2.19 0 0 1-.4-.39z"/><path class="cls-12" d="M112.58 83.81z"/><path class="cls-15" d="M115 86.19c-.14.56-.28 1.12-.41 1.67l-.4-.24a.59.59 0 0 1-.13-.5l-.1.34c-.8-.56-1.22-1.1-1.09-1.51l.39-1.25.23.21a4.64 4.64 0 0 0 1.51 1.28z"/><path class="cls-15" d="M114.14 87.62a2.19 2.19 0 0 0 .37.39c-.1.44-.19.87-.28 1.3-.46-.36-.68-.7-.6-1l.28-.88.1-.34a.59.59 0 0 0 .13.53z"/><path class="cls-16" d="M116.29 81.42c-.27.87-.52 1.73-.76 2.59-1.46-.79-2.37-1.62-2.39-2.24.29-1 .67-2.29 1.13-3.77a41.47 41.47 0 0 1 6.82-13.39 15.9 15.9 0 0 0 2 1 74.21 74.21 0 0 0-6.8 15.81z"/><path class="cls-17" d="M121.09 64.61c2.88-3.61 5.47-5.16 6.18-4.93a.74.74 0 0 1 .31.2 25.58 25.58 0 0 0-4.47 5.77 15.9 15.9 0 0 1-2.02-1.04z"/><path class="cls-15" d="M115.53 84q-.27 1-.51 1.92a10.09 10.09 0 0 1-1.58-1l-.23-.21a1.88 1.88 0 0 1-.62-.88.78.78 0 0 1 0-.34l.59-1.88a.63.63 0 0 0 0 .19c-.02.59.89 1.42 2.35 2.2z"/><path class="cls-1" d="M193.57 63.17l.91-4.99.16 4.99 4.51.64-4.56.54-.91 5.25-.21-5.25-4.46-.54 4.56-.64zM51.12 43.2l-.54 2.85-.1-2.85-2.67-.36 2.71-.31.54-3 .12 3 2.64.31-2.7.36zM57.53 97.03l.71-3.85.12 3.85 3.48.5-3.52.41-.7 4.06-.17-4.06-3.44-.41 3.52-.5z"/></svg>