<?xml version="1.0" encoding="utf-8"?>
<!-- Generator: Adobe Illustrator 24.3.0, SVG Export Plug-In . SVG Version: 6.00 Build 0)  -->
<svg version="1.1" id="Layer_3" xmlns="http://www.w3.org/2000/svg" xmlns:xlink="http://www.w3.org/1999/xlink" x="0px" y="0px"
	 viewBox="0 0 251 151" style="enable-background:new 0 0 251 151;" xml:space="preserve">
<style type="text/css">
	.anton-st0{opacity:0.25;}
	.anton-st1{fill:#E6EEEA;}
	.anton-st2{fill:#E6EEEA;stroke:#FFFFFF;stroke-width:3;stroke-miterlimit:10;}
	.anton-st3{fill:#E6EEEA;stroke:#FFFFFF;stroke-width:2;stroke-miterlimit:10;}
	.anton-st4{enable-background:new    ;}
	.anton-st5{fill:#FFFFFF;}
	.anton-st6{fill:#B28A6A;}
	.anton-st7{fill:#9E7855;}
	.anton-st8{fill:#54371D;}
	.anton-st9{fill:#5E3E21;}
	.anton-st10{fill:#DCB680;}
	.anton-st11{fill:#6D3325;}
	.anton-st12{fill:#783A28;}
	.anton-st13{fill:#8F4729;}
	.anton-st14{fill:#E84C59;}
	.anton-st15{fill:#EE7B5C;}
	.anton-st16{fill:#F9C862;}
	.anton-st17{fill:#062633;}
	.anton-st18{fill:#ABAAAA;}
	.anton-st19{fill:#E1DFE0;}
	.anton-st20{fill:#6E6E6E;}
	.anton-st21{fill:#C0C0C0;}
	.anton-st22{fill:none;}
	.anton-st23{fill:#041D26;}
</style>
<g class="anton-st0">
	<path class="anton-st1" d="M128.8,32.7c-0.1,0-0.1,0-0.1-0.1l0,0V32c0-0.1,0-0.1,0.1-0.1l0,0l0,0c0.1,0,0.1,0,0.1,0.1v0.6
		C128.9,32.6,128.9,32.7,128.8,32.7C128.8,32.7,128.8,32.7,128.8,32.7L128.8,32.7z"/>
	<path class="anton-st1" d="M128.3,32.9L128.3,32.9l-0.5-0.4c0,0,0-0.1,0-0.1c0,0,0,0,0.1,0c0,0,0,0,0.1,0l0.4,0.4
		C128.4,32.8,128.4,32.8,128.3,32.9C128.4,32.8,128.4,32.9,128.3,32.9L128.3,32.9z"/>
	<path class="anton-st1" d="M127.5,33.4C127.4,33.4,127.4,33.3,127.5,33.4c-0.1-0.1-0.1-0.2,0-0.2h0.5c0,0,0.1,0,0.1,0.1l0,0
		c0,0,0,0.1-0.1,0.1L127.5,33.4L127.5,33.4z"/>
	<path class="anton-st1" d="M127.8,34.3C127.8,34.3,127.7,34.3,127.8,34.3c-0.1-0.1-0.1-0.1-0.1-0.2l0.4-0.4h0.1c0,0,0,0,0,0.1
		c0,0,0,0,0,0.1L127.8,34.3C127.9,34.3,127.8,34.3,127.8,34.3z"/>
	<path class="anton-st1" d="M128.7,34.7C128.7,34.7,128.6,34.7,128.7,34.7L128.7,34.7l-0.1-0.7c0,0,0-0.1,0.1-0.1c0,0,0,0,0,0l0,0
		c0,0,0.1,0,0.1,0.1c0,0,0,0,0,0L128.7,34.7C128.8,34.7,128.8,34.7,128.7,34.7C128.7,34.7,128.7,34.7,128.7,34.7L128.7,34.7z"/>
	<path class="anton-st1" d="M129.7,34.4L129.7,34.4l-0.5-0.4c0,0,0-0.1,0-0.1h0.1l0.4,0.4C129.8,34.3,129.8,34.3,129.7,34.4
		C129.7,34.4,129.7,34.4,129.7,34.4L129.7,34.4z"/>
	<path class="anton-st1" d="M129.5,33.5c-0.1,0-0.1,0-0.1-0.1c0-0.1,0-0.1,0.1-0.1l0,0h0.5c0,0,0.1,0,0.1,0.1c0,0,0,0,0,0
		c0,0.1,0,0.1-0.1,0.1l0,0H129.5L129.5,33.5z"/>
	<path class="anton-st1" d="M129.3,33c-0.1,0-0.1,0-0.1-0.1l0,0v-0.1l0.4-0.4c0,0,0,0,0.1,0c0,0,0,0,0.1,0c0,0,0,0.1,0,0.1c0,0,0,0,0,0
		l0,0L129.3,33L129.3,33z"/>
	<path class="anton-st1" d="M133.4,40c-0.1,0-0.1-0.1-0.1-0.1c0,0,0,0,0,0l0,0V38c0-0.1,0-0.1,0.1-0.1c0,0,0,0,0,0l0,0
		c0.1,0,0.1,0.1,0.1,0.1l0,0v1.8C133.5,39.9,133.4,40,133.4,40C133.4,40,133.4,40,133.4,40L133.4,40z"/>
	<path class="anton-st1" d="M132.4,39.1c-0.1,0-0.1-0.1-0.1-0.1c0-0.1,0.1-0.1,0.1-0.1h1.9c0.1,0,0.1,0.1,0.1,0.1c0,0,0,0,0,0
		c0,0.1-0.1,0.1-0.1,0.1l0,0C134.3,39.1,132.4,39.1,132.4,39.1z"/>
	<path class="anton-st1" d="M150.1,50.4c-0.1,0-0.2-0.1-0.2-0.2l0,0c0-0.1,0.2-0.2,0.3-0.2c0.1,0,0.2,0.1,0.2,0.2
		C150.4,50.3,150.3,50.4,150.1,50.4z M149.2,50h-0.1c-0.1-0.1-0.1-0.2,0-0.3l0,0c0,0,0.1-0.1,0.2-0.1c0.1,0,0.1,0,0.2,0.1
		c0.1,0.1,0.1,0.2,0,0.3c0,0,0,0,0,0l0,0C149.3,50,149.3,50,149.2,50z M151.1,50c-0.1,0-0.2-0.1-0.2-0.3c0,0,0,0,0,0
		c0-0.1,0-0.1,0.1-0.1c0.1-0.1,0.2-0.1,0.3,0c0,0,0.1,0.1,0.1,0.2C151.3,49.9,151.2,50,151.1,50L151.1,50z M148.8,49.1
		c-0.1,0-0.2-0.1-0.2-0.2c0-0.1,0.1-0.2,0.2-0.2c0,0,0,0,0,0c0.1,0,0.2,0.1,0.2,0.2c0,0,0,0,0,0l0,0C149,49,148.9,49.1,148.8,49.1
		C148.8,49.1,148.8,49.1,148.8,49.1L148.8,49.1z M151.4,49.1c-0.1,0-0.2-0.1-0.2-0.2l0,0c0-0.1,0.1-0.3,0.2-0.3
		c0.1,0,0.3,0.1,0.3,0.2c0,0,0,0.1,0,0.1C151.7,49,151.6,49.1,151.4,49.1C151.4,49.1,151.4,49.1,151.4,49.1z M149.2,48.2
		c-0.1,0-0.2-0.2-0.2-0.3c0,0,0,0,0,0c0-0.1,0.1-0.2,0.2-0.2c0.1,0,0.1,0,0.2,0.1c0.1,0.1,0.1,0.2,0,0.3c0,0,0,0,0,0
		C149.3,48.1,149.3,48.2,149.2,48.2L149.2,48.2z M151.1,48.2c-0.1,0-0.1,0-0.2-0.1c-0.1-0.1-0.1-0.2,0-0.3c0,0,0.1-0.1,0.2-0.1
		c0.1,0,0.1,0,0.2,0.1c0.1,0.1,0.1,0.2,0,0.3c0,0,0,0,0,0l0,0C151.2,48.1,151.1,48.1,151.1,48.2L151.1,48.2z M150.1,47.8
		c-0.1,0-0.2-0.1-0.2-0.2c0-0.1,0.1-0.2,0.2-0.2c0.1,0,0.2,0.1,0.2,0.2l0,0C150.3,47.7,150.2,47.8,150.1,47.8L150.1,47.8z"/>
	<path class="anton-st1" d="M134,52.6c-0.2,0-0.3-0.1-0.4-0.2l-0.3-1.7c0-0.2,0.1-0.3,0.2-0.3c0.1,0,0.3,0,0.3,0.2c0,0,0,0,0,0l0,0
		l0.4,1.7C134.3,52.4,134.2,52.5,134,52.6L134,52.6z"/>
	<path class="anton-st1" d="M132.8,53.5c-0.1,0-0.2,0-0.2,0l-1.5-0.9c-0.1,0-0.1-0.1-0.1-0.2c0-0.1,0-0.1,0-0.2c0-0.1,0.1-0.1,0.2-0.1
		c0.1,0,0.2,0,0.2,0l1.4,0.9c0.1,0.1,0.2,0.3,0.1,0.4c0,0,0,0,0,0C132.8,53.3,132.8,53.4,132.8,53.5z"/>
	<path class="anton-st1" d="M130.7,55.4c-0.1,0-0.3-0.1-0.3-0.2l0,0c0-0.2,0.1-0.3,0.2-0.4l1.6-0.4c0.1,0,0.3,0,0.3,0.2c0,0,0,0,0,0l0,0
		c0,0.2-0.1,0.3-0.2,0.4L130.7,55.4z"/>
	<path class="anton-st1" d="M137.5,56.7c-0.1,0-0.1,0-0.2,0l-1.4-0.9c-0.1,0-0.1-0.1-0.1-0.2c0-0.1,0-0.1,0-0.2c0-0.1,0.1-0.1,0.2-0.1
		c0.1,0,0.2,0,0.2,0l1.4,0.9c0.1,0,0.1,0.1,0.1,0.2c0,0.1,0,0.1,0,0.2C137.7,56.7,137.6,56.7,137.5,56.7z"/>
	<path class="anton-st1" d="M136.4,54.3c-0.2,0-0.3-0.1-0.4-0.2c0-0.2,0.1-0.3,0.2-0.4l1.6-0.4c0.1-0.1,0.3,0,0.4,0.1
		c0.1,0.1,0,0.3-0.1,0.4c0,0,0,0-0.1,0h-0.1L136.4,54.3z"/>
	<path class="anton-st1" d="M135.6,53c-0.1,0-0.1,0-0.2,0c-0.1-0.1-0.2-0.3-0.1-0.4c0,0,0,0,0,0l0,0l0.9-1.4c0-0.1,0.1-0.1,0.2-0.1
		c0.1,0,0.1,0,0.2,0c0.1,0.1,0.2,0.3,0.1,0.4c0,0,0,0,0,0l-0.9,1.4C135.7,52.9,135.7,53,135.6,53z"/>
	<path class="anton-st2" d="M139.9,34.1c-0.1,0-0.1-0.1-0.1-0.1v-2c0-0.1,0.1-0.1,0.1-0.1s0.1,0.1,0.1,0.1l0,0v2
		C140.1,34,140,34.1,139.9,34.1z"/>
	<path class="anton-st2" d="M138.9,33c-0.1,0-0.1-0.1-0.1-0.1c0-0.1,0.1-0.1,0.1-0.1h2c0.1,0,0.1,0.1,0.1,0.1c0,0.1-0.1,0.1-0.1,0.1
		c0,0,0,0,0,0H138.9z"/>
	<path class="anton-st3" d="M124.6,52c-0.1,0-0.2-0.1-0.2-0.2l0,0v-2.9c0-0.1,0.1-0.2,0.2-0.2l0,0c0.1,0,0.2,0.1,0.2,0.2v2.9
		C124.8,51.9,124.7,52,124.6,52z"/>
	<path class="anton-st3" d="M123.2,50.5c-0.1,0-0.2-0.1-0.2-0.2s0.1-0.2,0.2-0.2l0,0h2.8c0.1,0,0.2,0.1,0.2,0.2s-0.1,0.2-0.2,0.2H123.2z"
		/>
	<path class="anton-st3" d="M142.7,56.4c-0.4,0-0.7-0.3-0.7-0.7c0-0.4,0.3-0.7,0.7-0.7c0.4,0,0.7,0.3,0.7,0.7c0,0,0,0,0,0l0,0
		C143.4,56,143.1,56.4,142.7,56.4C142.7,56.4,142.7,56.4,142.7,56.4L142.7,56.4z M142.7,55.2c-0.2,0-0.5,0.2-0.5,0.4c0,0,0,0,0,0
		c0,0.2,0.2,0.5,0.4,0.5c0,0,0,0,0,0c0.2,0,0.5-0.2,0.5-0.4c0,0,0,0,0,0l0,0C143.1,55.4,142.9,55.2,142.7,55.2
		C142.7,55.2,142.7,55.2,142.7,55.2z"/>
	<path class="anton-st3" d="M124.8,40.3c-0.4,0-0.6-0.3-0.6-0.7c0-0.4,0.3-0.6,0.7-0.6c0.4,0,0.6,0.3,0.6,0.7c0,0,0,0,0,0l0,0
		C125.4,40,125.1,40.3,124.8,40.3C124.8,40.2,124.8,40.2,124.8,40.3L124.8,40.3z M124.8,39.2c-0.2,0-0.4,0.2-0.4,0.4v0
		c0,0.2,0.2,0.4,0.4,0.4l0,0c0.2,0,0.4-0.2,0.4-0.4C125.2,39.4,125,39.2,124.8,39.2C124.8,39.2,124.8,39.2,124.8,39.2L124.8,39.2z"
		/>
	<path class="anton-st3" d="M150.2,41.5c-0.5,0-0.9-0.4-0.9-1s0.4-1,0.9-1c0.5,0,0.9,0.4,0.9,0.9c0,0,0,0,0,0l0,0
		C151.1,41.1,150.7,41.5,150.2,41.5z M150.2,39.9c-0.3,0-0.6,0.3-0.6,0.6c0,0,0,0,0,0c0,0.3,0.3,0.6,0.6,0.6c0.3,0,0.6-0.3,0.6-0.6
		c0,0,0,0,0,0l0,0C150.8,40.2,150.5,40,150.2,39.9C150.2,40,150.2,40,150.2,39.9L150.2,39.9z"/>
	<g>
		<g class="anton-st4">
			<path class="anton-st5" d="M127.8,46l-2.6-1v-0.6l2.6-1v0.8l-0.9,0.3l-0.8,0.3v0l0.8,0.3l0.9,0.3V46z"/>
			<path class="anton-st5" d="M129.5,46.5v-3.6h1l0.5,1.5c0,0.1,0.1,0.2,0.1,0.3c0,0.1,0.1,0.2,0.1,0.3h0c0-0.1,0.1-0.2,0.1-0.3
				c0-0.1,0.1-0.2,0.1-0.3l0.5-1.5h1v3.6h-0.9v-1.1c0-0.1,0-0.2,0-0.3c0-0.1,0-0.2,0-0.3c0-0.1,0-0.2,0-0.3c0-0.1,0-0.2,0-0.3h0
				l-0.3,0.9l-0.4,1.2H131l-0.4-1.2l-0.3-0.9h0c0,0.1,0,0.2,0,0.3c0,0.1,0,0.2,0,0.3c0,0.1,0,0.2,0,0.3c0,0.1,0,0.2,0,0.3v1.1H129.5
				z"/>
		</g>
		<g class="anton-st4">
			<path class="anton-st5" d="M133.4,46.5l1.1-3.6h1.2l1.1,3.6h-1l-0.2-0.8h-1l-0.2,0.8H133.4z M134.7,44.7l-0.1,0.2h0.7l-0.1-0.2
				c0-0.2-0.1-0.4-0.1-0.6c0-0.2-0.1-0.4-0.1-0.6h0c0,0.2-0.1,0.4-0.1,0.6S134.8,44.6,134.7,44.7z"/>
		</g>
		<g class="anton-st4">
			<path class="anton-st5" d="M138.7,46.6c-0.3,0-0.5,0-0.7-0.1c-0.2-0.1-0.4-0.2-0.6-0.3c-0.2-0.2-0.3-0.3-0.4-0.6
				c-0.1-0.2-0.1-0.5-0.1-0.8c0-0.3,0-0.6,0.1-0.8c0.1-0.2,0.2-0.4,0.4-0.6c0.2-0.2,0.4-0.3,0.6-0.4s0.4-0.1,0.7-0.1
				c0.3,0,0.5,0,0.7,0.1c0.2,0.1,0.4,0.2,0.5,0.3l-0.5,0.6c-0.1-0.1-0.2-0.1-0.3-0.2c-0.1,0-0.2-0.1-0.4-0.1c-0.1,0-0.2,0-0.3,0.1
				c-0.1,0-0.2,0.1-0.3,0.2c-0.1,0.1-0.1,0.2-0.2,0.3c0,0.1-0.1,0.3-0.1,0.4c0,0.3,0.1,0.6,0.2,0.8c0.2,0.2,0.4,0.3,0.7,0.3
				c0.1,0,0.1,0,0.2,0c0.1,0,0.1,0,0.1-0.1v-0.5h-0.5v-0.8h1.4v1.7c-0.1,0.1-0.3,0.2-0.5,0.3C139.2,46.5,138.9,46.6,138.7,46.6z"/>
			<path class="anton-st5" d="M140.6,46.5v-3.6h1v3.6H140.6z"/>
			<path class="anton-st5" d="M143.9,46.6c-0.2,0-0.5,0-0.7-0.1c-0.2-0.1-0.4-0.2-0.6-0.3c-0.2-0.2-0.3-0.3-0.4-0.6
				c-0.1-0.2-0.1-0.5-0.1-0.8c0-0.3,0-0.6,0.1-0.8c0.1-0.2,0.2-0.4,0.4-0.6c0.2-0.2,0.3-0.3,0.6-0.4c0.2-0.1,0.4-0.1,0.7-0.1
				c0.2,0,0.5,0,0.6,0.1s0.3,0.2,0.5,0.3l-0.5,0.6c-0.1-0.1-0.2-0.1-0.3-0.2c-0.1,0-0.2-0.1-0.3-0.1c-0.1,0-0.2,0-0.3,0.1
				c-0.1,0-0.2,0.1-0.2,0.2s-0.1,0.2-0.2,0.3c0,0.1-0.1,0.3-0.1,0.4c0,0.3,0.1,0.6,0.2,0.8s0.3,0.3,0.6,0.3c0.1,0,0.3,0,0.4-0.1
				c0.1-0.1,0.2-0.1,0.3-0.2l0.5,0.6c-0.2,0.2-0.3,0.3-0.5,0.4S144.2,46.6,143.9,46.6z"/>
			<path class="anton-st5" d="M146.5,46v-0.8l0.9-0.3l0.8-0.3v0l-0.8-0.3l-0.9-0.3v-0.8l2.6,1V45L146.5,46z"/>
		</g>
	</g>
	<path class="anton-st6" d="M134.4,53.5L134.4,53.5c0.5,0.1,0.8,0.6,0.7,1.1c0,0,0,0,0,0L123.4,105c-0.1,0.5-0.6,0.8-1.1,0.7c0,0,0,0,0,0
		l0,0c-0.5-0.1-0.8-0.6-0.7-1.1c0,0,0,0,0,0l11.7-50.4C133.4,53.7,133.9,53.4,134.4,53.5C134.4,53.5,134.4,53.5,134.4,53.5z"/>
	<path class="anton-st5" d="M132.4,66.3l-1.8-0.4l2.7-11.6c0.1-0.5,0.6-0.8,1.1-0.7c0,0,0,0,0,0l0,0c0.5,0.1,0.8,0.6,0.7,1.1L132.4,66.3z"
		/>
	<rect x="130.7" y="64.2" transform="matrix(0.226 -0.9741 0.9741 0.226 38.451 178.6997)" class="anton-st7" width="1.9" height="1.8"/>
</g>
<path class="anton-st8" d="M85,108.8c-1.7,3.1-4.1,4.8-5.7,4s-1.6-3.8,0.1-6.9s4.2-5,5.8-4.1S86.7,105.7,85,108.8z"/>
<ellipse transform="matrix(0.4696 -0.8829 0.8829 0.4696 -50.5943 140.4338)" class="anton-st9" cx="91.6" cy="112.3" rx="6.4" ry="3.2"/>
<path class="anton-st10" d="M103.8,93.5c1.6-0.5,2.7-2.5,4.8-3.7c2.8-1.6,3.6-4.2,3.4-3.1s0.8,1.7,0.8,1.5s-0.3,0.2-0.1-1.5
	s2.6-2.6,4.2-5.7c0.6-1.1,1.1-2.2,1.4-3.4c0.1,0.5,0.2,1,0.2,1.4c3.3-10.3-0.7-16-1.2-16.4c0.6,0.1,1.2,0.4,1.7,0.8
	c-1.2-3.2-3.5-3.5-3.9-3.5c0.5-0.4,1.1-0.5,1.7-0.4c-1-1.4-2-2.3-3.7-2.3c-0.6,0-1.2,0.3-1.5,0.8c0.5-1.4-0.2-3-1.7-3.5
	c-0.1,0-0.2-0.1-0.3-0.1c1.1,3.2,0.6,2.7,0.5,2.8s-1.8-1.6-3.5-1.8c0.4,0.2,0.7,0.6,0.8,1c-1.7-0.7-3.6-1.7-7.3,0.6
	c0.9,0,1.8,0.2,2.6,0.7c-0.5,0.2-6.7,2.1-8.7,8.5c0.3-0.2,1.9-1.1,2-0.9c-1.1,0.8-4.9,3.7-3.2,15c0.1-0.6,0.6-1.9,0.9-1.9
	c-0.5,1,0.3,4.1,3.4,7C101.6,89.2,103.4,91.3,103.8,93.5z"/>
<path class="anton-st11" d="M92,96.2c0.5,0.6,0.8,1.5,0.8,2.3c-0.1,0.6-0.2,1.2-0.3,1.8c-0.2,1.2-0.5,2.4-0.8,3.5s-0.7,2.3-1.1,3.4
	l-0.6,1.7c-0.1,0.3-0.2,0.6-0.3,0.8c-0.3,0.3-0.7,0.5-1.1,0.5L78,105.5c-0.3-0.3-0.4-0.7-0.4-1.2c0.1-0.3,0.2-0.5,0.4-0.8l0.8-1.6
	c0.6-1,1.2-2.1,1.8-3.1s1.3-2,2.1-3c0.4-0.5,0.7-1,1.1-1.4c0.6-0.6,1.4-0.9,2.3-0.9L92,96.2z"/>
<path class="anton-st12" d="M100.2,100.6c0.5,0.7,0.8,1.5,0.8,2.3c-0.1,0.6-0.2,1.2-0.3,1.8c-0.2,1.2-0.5,2.4-0.8,3.5s-0.7,2.3-1.1,3.4
	l-0.6,1.7c-0.1,0.3-0.2,0.6-0.3,0.8c-0.3,0.3-0.7,0.5-1.1,0.5l-10.5-4.7c-0.3-0.3-0.4-0.7-0.4-1.2c0.1-0.3,0.2-0.5,0.4-0.8l0.8-1.6
	c0.6-1,1.2-2.1,1.8-3.1s1.3-2,2.1-3c0.4-0.5,0.7-1,1.1-1.4c0.6-0.5,1.4-0.9,2.3-0.9L100.2,100.6z"/>
<path class="anton-st13" d="M108.8,101.3l0.2-0.5c0-0.1,0-0.1,0-0.2c3.6-9,4.1-17.9-6.9-23l0,0c-11.1-5.1-19.6,4-24.6,17.2l0,0
	c-2.2,4.9,5.7,8.2,12.3,11.2c7.7,3.6,14.1,6,15.6,2.4l1.7-3.6C107.8,103.8,108.3,102.6,108.8,101.3z"/>
<path class="anton-st9" d="M123.7,85.6c0.5-1.6,2-5,5.7-3.4c4.9,2.2-5,11.6-0.1,5.9L123.7,85.6z"/>
<path class="anton-st12" d="M105.1,88.3c0.4-0.1,0.9,0,1.3,0.2c0.2,0.1,0.4,0.2,0.6,0.4c0.3,0.2,0.6,0.5,0.8,0.8c0.4,0.4,0.8,0.9,1.1,1.5
	c0.5,0.9,1.1,1.7,1.9,2.3c0.4,0.4,1,0.6,1.6,0.5c0.3,0,0.5-0.1,0.8-0.2c0.3-0.1,0.7-0.3,1-0.5c0.8-0.4,1.5-1,2.2-1.6
	c0.8-0.7,1.5-1.5,2.2-2.3c0.8-0.8,1.5-1.7,2.1-2.6c0.3-0.5,0.7-0.9,1.1-1.3c0.3-0.2,0.5-0.4,0.8-0.5c0.2-0.1,0.4-0.2,0.6-0.2h0.4
	c0.1,0,0.2,0,0.3,0h0.2l0.2,0.1l0.3,0.1l0.3,0.1l3.1,1.5l0.3,0.2c0.1,0.1,0.2,0.1,0.2,0.2l0.2,0.1l0.1,0.1h0.1
	c0.1,0.1,0.2,0.2,0.2,0.3l0.2,0.4c0.1,0.2,0.2,0.5,0.2,0.7c0,0.4-0.1,0.8-0.2,1.2c-0.2,0.7-0.6,1.5-1,2.1c-0.9,1.4-1.8,2.6-2.9,3.8
	c-1.1,1.2-2.3,2.3-3.7,3.2c-1.5,1-3.1,1.8-4.7,2.3c-1,0.3-1.9,0.5-2.9,0.5c-1.1,0.1-2.2-0.1-3.2-0.3c-0.5-0.2-1.1-0.3-1.6-0.6
	c-0.5-0.3-1-0.5-1.4-0.9c-0.4-0.3-0.8-0.6-1.2-1l-0.5-0.6l-0.4-0.6c-1-1.4-1.7-3-2.2-4.6c-0.1-0.4-0.2-0.8-0.2-1.2
	c0-0.4,0-0.8,0-1.2c0-0.4,0.1-0.8,0.3-1.2c0.1-0.2,0.2-0.4,0.3-0.6S104.3,88.7,105.1,88.3L105.1,88.3z"/>
<path class="anton-st13" d="M115.4,76.5c-2.3,7-9.9,10.8-16.9,8.4C91.4,82.6,87.7,75,90,68c2.3-7,9.9-10.8,16.9-8.4
	C113.9,61.9,117.7,69.5,115.4,76.5C115.4,76.5,115.4,76.5,115.4,76.5z"/>
<path class="anton-st14" d="M81.4,105.2c1.1,3.9,2.9,11.4,1.5,15.8c-2.1,6.8-10.5,12.6-14.4,14.7c2.4-4.2,3.3-7.5,2.4-9.7
	c-0.3-0.7-1.3,2-3.6,2.7c0.4-1.8,0.4-3.6,0-5.3c-0.3-1.9-0.4-5.5,0.7-7.6c3.3-6.9,10.1-10.3,11.6-11.2L81.4,105.2z"/>
<path class="anton-st15" d="M81.4,105.2c0.6,1.7,1.6,7.8,0.3,10.8s-7.3,6.8-9.9,10c0.3-3.1,1-4.2,0.3-6.8c-0.6-1.4-0.7-2.9-0.4-4.4
	c0.2-1.5,2.4-4.8,4.8-7.3c0.9-1.1,2-2.2,3.2-3.1L81.4,105.2z"/>
<path class="anton-st16" d="M81.4,105.2c0.4,2,0.6,7.8-1,9.5s-3.1,1.5-5.8,4c-0.2-1.2,1.4-3.4,0.7-4.6c-0.6,0.7-0.8,1.3-1.8,1.7
	c0.7-1.2,0.5-2.6,1-4.2c0.6-1.9,2.2-3.2,3.4-4.6c0.7-0.7,1.3-1.6,1.7-2.5L81.4,105.2z"/>
<path class="anton-st17" d="M80.4,106.2c3.2,1.3,6.1,1.6,6.5,0.7l-0.7,1.7c-0.4,0.9-3.3,0.6-6.5-0.7s-5.5-3.1-5.2-4l0.7-1.6
	C74.9,103.1,77.2,104.9,80.4,106.2z"/>
<path class="anton-st17" d="M79.6,108.2c2.4,1,4.6,1.2,4.9,0.5l-0.5,1.2c-0.3,0.7-2.5,0.4-4.9-0.5s-4.2-2.3-3.9-3l0.5-1.2
	C75.4,105.9,77.2,107.2,79.6,108.2z"/>
<path class="anton-st18" d="M93.7,85.8c-0.2,5.3-1.4,10.5-3.4,15.3l-2.3,5.8c-2.5-0.1-4.9-0.6-7.3-1.3c-2.2-1.1-4.3-2.4-6.1-4
	c0,0,0.9-2.5,2.2-5.9c1.9-4.9,4.7-9.5,8.2-13.4C87.6,84.2,90.6,85.3,93.7,85.8z"/>
<path class="anton-st19" d="M91.8,77.7c0.8,0.3,2,3.1,1.9,8.1c-3.1-0.5-6.1-1.6-8.7-3.5C88.2,78.8,91,77.4,91.8,77.7z"/>
<path class="anton-st17" d="M81.3,104c3.7,1.5,7.1,1.9,7.5,0.8l-0.8,2c-0.4,1-3.8,0.7-7.5-0.8s-6.4-3.6-6-4.6l0.8-1.9
	C74.9,100.4,77.6,102.5,81.3,104z"/>
<path class="anton-st20" d="M78.5,99.4c-0.3,0.9-0.7,1.8-1,2.6c-1.4-0.9-2.3-1.9-2.3-2.5c0.4-1,0.9-2.3,1.5-3.8c1.9-4.9,4.7-9.4,8.2-13.4
	c0.6,0.5,1.3,0.9,2,1.2C83.5,88.5,80.7,93.8,78.5,99.4z"/>
<path class="anton-st21" d="M84.9,82.3c3.3-3.5,6.1-4.9,6.8-4.6c0.1,0.1,0.2,0.1,0.3,0.2c-2,1.6-3.7,3.5-5.1,5.6
	C86.2,83.2,85.6,82.8,84.9,82.3z"/>
<path class="anton-st14" d="M93.1,109.4c1.4,3.8,3.8,11.2,2.8,15.6c-1.6,6.9-9.5,13.4-13.2,15.7c2.1-4.4,2.7-7.7,1.6-9.8
	c-0.3-0.7-1.1,2.1-3.3,3c0.3-1.8,0.1-3.6-0.4-5.3c-0.4-1.9-0.8-5.4,0.1-7.7c2.8-7.2,9.3-11.1,10.6-12.1L93.1,109.4z"/>
<path class="anton-st15" d="M93.1,109.4c0.8,1.6,2.2,7.6,1.2,10.8s-6.8,7.3-9.1,10.8c0.1-3.1,0.6-4.3-0.3-6.8s-0.8-2.8-0.7-4.3
	s2-4.9,4.2-7.7c0.8-1.2,1.8-2.3,2.9-3.3L93.1,109.4z"/>
<path class="anton-st16" d="M93.1,109.4c0.6,2,1.2,7.7-0.2,9.6s-3,1.7-5.5,4.4c-0.3-1.2,1.2-3.5,0.3-4.7c-0.6,0.8-0.7,1.3-1.7,1.8
	c0.6-1.2,0.3-2.7,0.7-4.3c0.4-1.9,1.9-3.4,3-4.8c0.6-0.8,1.1-1.7,1.5-2.6L93.1,109.4z"/>
<path class="anton-st17" d="M92.2,110.5c3.3,1,6.2,1.1,6.5,0.2l-0.5,1.7c-0.3,0.9-3.2,0.9-6.5-0.2s-5.8-2.6-5.5-3.6l0.5-1.7
	C86.5,107.8,88.9,109.4,92.2,110.5z"/>
<path class="anton-st17" d="M91.6,112.5c2.5,0.8,4.7,0.8,4.9,0.1l-0.4,1.3c-0.2,0.7-2.4,0.6-4.9-0.1s-4.3-2-4.1-2.7l0.4-1.3
	C87.2,110.5,89.1,111.7,91.6,112.5z"/>
<path class="anton-st18" d="M103.8,89.1c0.2,5.3-0.5,10.5-2.2,15.5l-1.9,6c-2.5,0.1-4.9-0.2-7.3-0.7c-2.3-0.9-4.4-2.1-6.4-3.5
	c0,0,0.7-2.5,1.8-6.1c1.5-5.1,3.9-9.8,7.1-14C97.6,87.9,100.7,88.9,103.8,89.1L103.8,89.1z"/>
<path class="anton-st19" d="M101.3,81.2c0.8,0.2,2.2,3,2.5,7.9c-3.2-0.2-6.3-1.1-9-2.8C97.9,82.5,100.6,80.9,101.3,81.2z"/>
<path class="anton-st17" d="M92.9,108.2c3.8,1.2,7.2,1.3,7.6,0.2l-0.6,2c-0.3,1.1-3.7,1-7.6-0.2s-6.7-3-6.3-4.1l0.6-2
	C86.3,105.1,89.1,107,92.9,108.2z"/>
<path class="anton-st22" d="M86.8,107.5c0.5,0.4,1.1,0.8,1.7,1.1c0,0.1-0.1,0.2-0.1,0.3C87.8,108.5,87.3,108,86.8,107.5z"/>
<path class="anton-st22" d="M87.6,110.3l0.4,0.3v0.2C87.8,110.6,87.7,110.5,87.6,110.3z"/>
<path class="anton-st23" d="M88.4,108.8c-0.2,0.6-0.3,1.2-0.4,1.8l-0.4-0.3c-0.1-0.1-0.2-0.3-0.1-0.5l-0.1,0.3c-0.8-0.6-1.3-1.2-1.1-1.6
	l0.4-1.3l0.2,0.2C87.3,108,87.8,108.5,88.4,108.8z"/>
<path class="anton-st23" d="M87.6,110.3c0.1,0.2,0.2,0.3,0.4,0.4c-0.1,0.5-0.2,0.9-0.3,1.4c-0.5-0.4-0.7-0.7-0.6-1l0.3-0.9l0.1-0.3
	C87.4,110,87.5,110.2,87.6,110.3z"/>
<path class="anton-st20" d="M89.8,103.8c-0.3,0.9-0.6,1.8-0.8,2.7c-1.5-0.8-2.5-1.7-2.5-2.3c0.3-1,0.7-2.4,1.2-3.9c1.5-5.1,3.9-9.8,7.1-14
	c0.7,0.4,1.4,0.8,2.1,1.1C93.9,92.6,91.6,98.1,89.8,103.8z"/>
<path class="anton-st21" d="M94.8,86.3c3-3.8,5.7-5.4,6.4-5.2c0.1,0,0.2,0.1,0.3,0.2c-1.8,1.8-3.4,3.8-4.7,6
	C96.2,87.1,95.5,86.7,94.8,86.3z"/>
<path class="anton-st23" d="M89,106.6c-0.2,0.7-0.4,1.3-0.5,2c-0.6-0.3-1.1-0.7-1.7-1.1l-0.2-0.2c-0.3-0.2-0.5-0.6-0.7-0.9l0,0
	c0-0.1,0-0.2,0-0.3l0.6-2c0,0.1,0,0.1,0,0.2C86.6,104.9,87.5,105.7,89,106.6z"/>
</svg>
