<?xml version="1.0" encoding="utf-8"?>
<!-- Generator: Adobe Illustrator 24.3.0, SVG Export Plug-In . SVG Version: 6.00 Build 0)  -->
<svg version="1.1" id="Layer_2" xmlns="http://www.w3.org/2000/svg" xmlns:xlink="http://www.w3.org/1999/xlink" x="0px" y="0px"
	 viewBox="0 0 251 151" style="enable-background:new 0 0 251 151;" xml:space="preserve">
<style type="text/css">
	.egle-secondary-st0{fill:#5E3E21;}
	.egle-secondary-st1{fill:#54371D;}
	.egle-secondary-st2{fill:#DCB680;}
	.egle-secondary-st3{fill:#6D3325;}
	.egle-secondary-st4{fill:#783A28;}
	.egle-secondary-st5{fill:#8F4729;}
	.egle-secondary-st6{fill:#E84C59;}
	.egle-secondary-st7{fill:#EE7B5C;}
	.egle-secondary-st8{fill:#F9C862;}
	.egle-secondary-st9{fill:#062633;}
	.egle-secondary-st10{fill:#ABAAAA;}
	.egle-secondary-st11{fill:#E1DFE0;}
	.egle-secondary-st12{fill:#041D26;}
	.egle-secondary-st13{fill:#6E6E6E;}
	.egle-secondary-st14{fill:#C0C0C0;}
</style>
<path class="egle-secondary-st0" d="M121.1,76.9c-0.5-1.7-2.2-5.5-6.2-3.7c-5.3,2.4,5.5,12.7,0.1,6.5L121.1,76.9z"/>
<path class="egle-secondary-st1" d="M163.2,102.5c1.8,3.4,4.5,5.2,6.2,4.3c1.7-0.9,1.7-4.2-0.1-7.6c-1.8-3.4-4.6-5.4-6.3-4.5
	C161.3,95.6,161.4,99.1,163.2,102.5z"/>
<path class="egle-secondary-st0" d="M159.2,112.4c1.7-0.9,1.6-4.4-0.2-7.8c-1.8-3.4-4.6-5.4-6.3-4.5c-1.7,0.9-1.6,4.4,0.2,7.8
	C154.7,111.3,157.6,113.3,159.2,112.4z"/>
<path class="egle-secondary-st2" d="M142.6,85.7c-1.7-0.5-3-2.8-5.3-4c-3.1-1.8-3.9-4.6-3.7-3.4c0.2,1.3-0.9,1.8-0.9,1.6c0-0.2,0.4,0.2,0.1-1.7
	c-0.3-1.9-2.8-2.9-4.6-6.2c-0.7-1.2-1.2-2.5-1.6-3.8c-0.1,0.5-0.2,1-0.2,1.6c-3.7-11.2,0.7-17.6,1.3-18c-0.7,0.1-1.3,0.4-1.8,0.9
	c1.3-3.5,3.9-3.8,4.3-3.8c-0.3-0.2-0.6-0.3-0.9-0.4c-0.3-0.1-0.7-0.1-1,0c1.1-1.5,2.2-2.5,4-2.5c0.3,0,0.7,0.1,1,0.2
	c0.3,0.2,0.5,0.4,0.7,0.7c-0.3-0.8-0.2-1.6,0.2-2.3c0.4-0.7,1-1.3,1.7-1.5L136,43c-1.2,3.5-0.7,2.9-0.5,3c0.1,0.1,1.9-1.8,3.8-1.9
	c-0.2,0.1-0.4,0.3-0.6,0.4c-0.2,0.2-0.3,0.4-0.4,0.6c1.9-0.8,3.9-1.9,8,0.6c-1,0-2,0.2-2.8,0.8c0.5,0.2,7.4,2.3,9.6,9.3
	c-0.3-0.2-2-1.2-2.2-1c1.3,0.9,5.4,4.1,3.5,16.4c-0.1-0.6-0.7-2.1-1-2.1c0.5,1.1-0.3,4.5-3.7,7.6C145,81,143,83.3,142.6,85.7z"/>
<path class="egle-secondary-st3" d="M161.9,85.8c0.9,0,1.8,0.4,2.5,1c0.5,0.5,0.8,1,1.3,1.6c0.8,1.1,1.6,2.1,2.3,3.2c0.7,1.1,1.4,2.2,2,3.4l0.9,1.7
	c0.2,0.3,0.3,0.6,0.4,0.9c0,0.2,0,0.5-0.1,0.7c-0.1,0.2-0.2,0.4-0.4,0.6l-11.5,5.1c-0.2,0-0.5,0-0.7-0.1c-0.2-0.1-0.4-0.2-0.6-0.4
	c-0.2-0.3-0.3-0.6-0.4-0.9l-0.7-1.8c-0.4-1.2-0.9-2.5-1.2-3.7c-0.3-1.3-0.6-2.6-0.9-3.9c-0.1-0.7-0.3-1.3-0.3-2
	c0-0.9,0.3-1.8,0.9-2.5L161.9,85.8z"/>
<path class="egle-secondary-st4" d="M152.9,90.6c0.9,0,1.8,0.4,2.5,1c0.4,0.5,0.8,1,1.3,1.6c0.8,1.1,1.6,2.1,2.3,3.2c0.7,1.1,1.4,2.2,2,3.4l0.9,1.7
	c0.2,0.3,0.3,0.6,0.4,0.9c0,0.2,0,0.5-0.1,0.7c-0.1,0.2-0.2,0.4-0.4,0.6l-11.5,5.1c-0.2,0-0.5,0-0.7-0.1c-0.2-0.1-0.4-0.2-0.6-0.4
	c-0.2-0.3-0.3-0.6-0.4-0.9l-0.7-1.8c-0.4-1.2-0.9-2.5-1.2-3.7c-0.4-1.3-0.6-2.6-0.9-3.9c-0.1-0.7-0.3-1.3-0.3-2
	c0-0.9,0.3-1.8,0.9-2.5L152.9,90.6z"/>
<path class="egle-secondary-st5" d="M138.9,98.2l1.8,3.9c1.7,3.8,8.7,1.2,17.1-2.7c7.3-3.4,15.9-6.9,13.5-12.3c-5.5-14.5-14.8-24.4-26.9-18.8
	c-12,5.5-11.5,15.3-7.6,25.2c0,0.1,0,0.1,0,0.2l0.4,0.6C137.6,95.6,138.2,96.9,138.9,98.2z"/>
<path class="egle-secondary-st0" d="M144.6,73.4c-0.5-1.7-2.2-5.5-6.2-3.7c-5.3,2.4,5.5,12.7,0.1,6.5L144.6,73.4z"/>
<path class="egle-secondary-st4" d="M141.1,80c0.8,0.3,1.1,0.6,1.2,0.8c0.1,0.2,0.3,0.5,0.4,0.7c0.2,0.4,0.3,0.9,0.4,1.3c0,0.4,0,0.9,0,1.3
	c-0.1,0.4-0.1,0.8-0.3,1.3c-0.5,1.8-1.3,3.5-2.4,5c-0.2,0.2-0.3,0.4-0.5,0.6l-0.6,0.6c-0.4,0.4-0.8,0.8-1.3,1.1
	c-0.5,0.4-1,0.7-1.5,0.9c-0.6,0.3-1.1,0.5-1.7,0.6c-1.2,0.3-2.4,0.4-3.6,0.4c-1.1-0.1-2.2-0.3-3.2-0.6c-1.9-0.6-3.6-1.4-5.2-2.6
	c-1.5-1-2.8-2.2-4-3.5c-1.2-1.3-2.2-2.6-3.1-4.1c-0.5-0.7-0.9-1.5-1.2-2.3c-0.1-0.4-0.2-0.9-0.2-1.4c0-0.3,0.1-0.6,0.2-0.8l0.2-0.5
	c0.1-0.1,0.1-0.2,0.2-0.3h0.1l0.1-0.1l0.2-0.1l0.3-0.2l0.3-0.2l3.4-1.6l0.3-0.1l0.3-0.1l0.2-0.1h0.2c0.1,0,0.2,0,0.4,0h0.5
	c0.2,0,0.5,0.1,0.7,0.2c0.3,0.2,0.6,0.4,0.9,0.6c0.5,0.4,0.9,0.9,1.2,1.4c0.7,1,1.5,1.9,2.4,2.8c0.8,0.9,1.6,1.7,2.5,2.5
	c0.7,0.7,1.6,1.3,2.4,1.8c0.3,0.2,0.7,0.4,1,0.5c0.3,0.1,0.5,0.2,0.8,0.2c0.3,0,0.6,0,1-0.1c0.3-0.1,0.6-0.3,0.8-0.5
	c0.8-0.7,1.5-1.6,2-2.5c0.3-0.6,0.7-1.2,1.2-1.6c0.3-0.3,0.6-0.6,0.9-0.8c0.2-0.1,0.4-0.3,0.6-0.4c0.4-0.2,0.9-0.3,1.4-0.3L141.1,80
	z"/>
<path class="egle-secondary-st5" d="M129.9,67.1c0.9,2.7,2.6,5.2,4.9,6.9c2.3,1.8,5.1,2.8,7.9,3c2.9,0.2,5.8-0.5,8.3-1.9c2.5-1.4,4.5-3.6,5.8-6.2
	c1.3-2.6,1.8-5.5,1.4-8.4c-0.4-2.9-1.6-5.6-3.5-7.7c-1.9-2.2-4.4-3.8-7.2-4.5c-2.8-0.8-5.7-0.7-8.5,0.2c-1.8,0.6-3.5,1.6-5,2.8
	c-1.5,1.3-2.6,2.8-3.5,4.5c-0.9,1.7-1.4,3.6-1.5,5.5C129.1,63.3,129.3,65.3,129.9,67.1z"/>
<path class="egle-secondary-st6" d="M167.1,98.5c-1.2,4.2-3.1,12.5-1.7,17.2c2.3,7.3,11.5,13.8,15.7,16c-2.7-4.6-3.7-8.2-2.6-10.6
	c0.3-0.8,1.4,2.1,3.9,2.9c-0.5-1.9-0.5-3.9,0-5.8c0.3-2.1,0.4-6-0.7-8.3c-3.6-7.6-11.1-11.3-12.7-12.2L167.1,98.5z"/>
<path class="egle-secondary-st7" d="M167.1,98.5c-0.7,1.8-1.7,8.5-0.3,11.8c1.4,3.3,8,7.4,10.8,10.9c-0.3-3.4-1-4.6-0.3-7.4
	c0.7-2.8,0.7-3.2,0.4-4.8c-0.2-1.6-2.7-5.2-5.3-8c-2.7-3-3.5-3.4-3.5-3.4L167.1,98.5z"/>
<path class="egle-secondary-st8" d="M167.1,98.5c-0.4,2.2-0.7,8.5,1.1,10.4c1.7,1.9,3.4,1.6,6.4,4.4c0.2-1.3-1.6-3.7-0.8-5.1c0.7,0.8,0.9,1.4,2,1.8
	c-0.8-1.3-0.5-2.9-1.1-4.6c-0.6-2.1-2.4-3.5-3.7-5c-0.7-0.8-1.4-1.7-1.9-2.7L167.1,98.5z"/>
<path class="egle-secondary-st9" d="M168.2,99.6c-3.5,1.4-6.7,1.8-7.1,0.8l0.7,1.8c0.4,1,3.6,0.7,7.1-0.8c3.5-1.4,6.1-3.4,5.7-4.4l-0.7-1.8
	C174.3,96.2,171.7,98.2,168.2,99.6z"/>
<path class="egle-secondary-st9" d="M169.1,101.7c-2.7,1.1-5,1.3-5.3,0.6l0.5,1.4c0.3,0.8,2.7,0.5,5.3-0.6c2.7-1.1,4.6-2.5,4.3-3.3l-0.6-1.4
	C173.6,99.2,171.7,100.7,169.1,101.7z"/>
<path class="egle-secondary-st10" d="M153.7,77.3c0.2,5.8,1.5,11.4,3.8,16.7l2.5,6.4c2.7-0.1,5.4-0.6,8-1.4c2.4-1.2,4.7-2.7,6.7-4.4
	c0,0-0.9-2.7-2.5-6.5c-2.1-5.4-5.1-10.3-9-14.6c-1.4,1-2.9,1.8-4.5,2.4C157.1,76.6,155.4,77.1,153.7,77.3z"/>
<path class="egle-secondary-st11" d="M155.8,68.4c-0.8,0.3-2.2,3.4-2.1,8.8c1.7-0.2,3.4-0.7,5.1-1.4c1.6-0.6,3.1-1.4,4.5-2.4
	C159.6,69.6,156.6,68.1,155.8,68.4z"/>
<path class="egle-secondary-st9" d="M167.2,97.1c-4.1,1.6-7.8,2-8.2,0.9l0.8,2.1c0.5,1.2,4.1,0.8,8.2-0.9c4.1-1.6,7-3.9,6.6-5l-0.8-2.1
	C174.3,93.2,171.3,95.5,167.2,97.1z"/>
<path class="egle-secondary-st12" d="M172.2,97.5c0.2,0.6,0.4,1.3,0.6,1.9l0.4-0.3c0.1-0.1,0.1-0.2,0.1-0.3c0-0.1,0-0.2,0-0.3l0.2,0.4
	c0.9-0.7,1.3-1.4,1.1-1.8l-0.6-1.4l-0.3,0.3C173.4,96.5,172.8,97.1,172.2,97.5z"/>
<path class="egle-secondary-st12" d="M173.3,99c-0.1,0.2-0.2,0.3-0.4,0.5c0.2,0.5,0.3,1,0.5,1.4c0.5-0.5,0.7-0.9,0.6-1.2l-0.4-1l-0.2-0.4
	c0,0.1,0,0.2,0,0.3C173.4,98.8,173.3,98.9,173.3,99z"/>
<path class="egle-secondary-st13" d="M170.3,92.2c0.4,1,0.8,1.9,1.1,2.9c1.6-1,2.6-2,2.5-2.8c-0.4-1.1-1-2.6-1.6-4.2c-2.1-5.4-5.1-10.3-9-14.6
	c-0.7,0.5-1.4,1-2.2,1.4C164.8,80.2,167.9,86.1,170.3,92.2z"/>
<path class="egle-secondary-st14" d="M163.3,73.5c-3.6-3.9-6.7-5.4-7.5-5.1c-0.1,0.1-0.2,0.2-0.3,0.3c2.2,1.8,4,3.9,5.6,6.2
	C161.8,74.4,162.6,74,163.3,73.5z"/>
<path class="egle-secondary-st12" d="M171.4,95c0.3,0.7,0.5,1.4,0.8,2.1c0.6-0.4,1.2-0.8,1.7-1.3l0.3-0.3c0.3-0.3,0.5-0.7,0.6-1.1
	c0-0.1,0-0.3,0-0.4l-0.8-2.1c0,0.1,0,0.1,0,0.2C173.9,93,173,94,171.4,95z"/>
<path class="egle-secondary-st6" d="M154.3,103.1c-1.6,4.1-4.1,12.2-3,17c1.7,7.5,10.4,14.6,14.4,17.2c-2.3-4.8-3-8.4-1.8-10.7
	c0.4-0.7,1.2,2.2,3.6,3.2c-0.3-2-0.1-3.9,0.5-5.8c0.5-2.1,0.9-5.9-0.1-8.4c-3-7.8-10.2-12.1-11.6-13.2L154.3,103.1z"/>
<path class="egle-secondary-st7" d="M154.3,103.1c-0.8,1.7-2.4,8.4-1.3,11.8c1.1,3.4,7.4,8,9.9,11.8c-0.1-3.4-0.7-4.7,0.3-7.4
	c1-2.7,0.9-3.1,0.8-4.8c-0.1-1.6-2.3-5.4-4.6-8.4c-2.5-3.2-3.2-3.6-3.2-3.6L154.3,103.1z"/>
<path class="egle-secondary-st8" d="M154.3,103.1c-0.6,2.2-1.3,8.4,0.3,10.5c1.6,2,3.2,1.9,6,4.8c0.3-1.3-1.3-3.8-0.4-5.1c0.6,0.9,0.8,1.5,1.8,2
	c-0.7-1.3-0.3-2.9-0.7-4.7c-0.5-2.1-2.1-3.7-3.3-5.3c-0.7-0.9-1.2-1.8-1.7-2.8L154.3,103.1z"/>
<path class="egle-secondary-st9" d="M155.3,104.2c-3.6,1.1-6.8,1.2-7.1,0.2l0.6,1.9c0.3,1,3.5,0.9,7.1-0.2s6.3-2.9,6-3.9l-0.6-1.9
	C161.6,101.4,158.9,103.1,155.3,104.2z"/>
<path class="egle-secondary-st9" d="M156,106.5c-2.7,0.9-5.1,0.9-5.4,0.1l0.4,1.4c0.2,0.8,2.6,0.7,5.4-0.1c2.7-0.9,4.7-2.2,4.5-2.9l-0.4-1.4
	C160.7,104.3,158.7,105.6,156,106.5z"/>
<path class="egle-secondary-st10" d="M142.6,80.9c-0.2,5.8,0.6,11.5,2.4,17c1.2,3.8,2,6.5,2,6.5c2.7,0.1,5.4-0.2,8-0.8c2.5-1,4.8-2.3,7-3.8
	c0,0-0.7-2.8-1.9-6.6c-1.6-5.5-4.3-10.7-7.8-15.3c-1.5,0.9-3,1.6-4.7,2.1C146,80.5,144.3,80.8,142.6,80.9z"/>
<path class="egle-secondary-st11" d="M145.3,72.2c-0.9,0.3-2.4,3.3-2.8,8.7c1.8-0.1,3.5-0.4,5.2-1c1.6-0.5,3.2-1.2,4.7-2.1
	C149.2,73.7,146.1,71.9,145.3,72.2z"/>
<path class="egle-secondary-st9" d="M154.5,101.7c-4.2,1.3-7.9,1.4-8.3,0.2l0.7,2.2c0.4,1.2,4.1,1.1,8.3-0.2c4.2-1.3,7.3-3.3,6.9-4.5l-0.7-2.2
	C161.8,98.4,158.7,100.4,154.5,101.7z"/>
<path class="egle-secondary-st12" d="M159.5,102.5c0.2,0.6,0.3,1.3,0.5,1.9l0.5-0.3c0.1-0.1,0.1-0.2,0.1-0.3c0-0.1,0-0.2,0-0.3l0.1,0.4
	c0.9-0.6,1.4-1.3,1.2-1.7l-0.4-1.4l-0.3,0.2C160.7,101.6,160.1,102.1,159.5,102.5z"/>
<path class="egle-secondary-st12" d="M160.4,104.1c-0.1,0.2-0.3,0.3-0.4,0.5c0.1,0.5,0.2,1,0.3,1.5c0.5-0.4,0.8-0.8,0.7-1.1l-0.3-1l-0.1-0.4
	c0,0.1,0,0.2,0,0.3C160.5,103.9,160.4,104,160.4,104.1z"/>
<path class="egle-secondary-st13" d="M157.9,97c0.3,1,0.6,2,0.9,3c1.7-0.9,2.7-1.8,2.7-2.6c-0.3-1.1-0.8-2.6-1.3-4.3c-1.6-5.5-4.3-10.7-7.8-15.3
	c-0.7,0.4-1.5,0.8-2.3,1.2C153.4,84.7,156,90.7,157.9,97z"/>
<path class="egle-secondary-st14" d="M152.5,77.8c-3.3-4.1-6.3-5.9-7.1-5.6c-0.1,0-0.3,0.1-0.4,0.2c2,1.9,3.8,4.2,5.1,6.6
	C151,78.7,151.7,78.3,152.5,77.8z"/>
<path class="egle-secondary-st12" d="M158.8,100c0.2,0.7,0.4,1.5,0.6,2.2c0.6-0.3,1.2-0.7,1.8-1.2l0.3-0.2c0.3-0.3,0.6-0.6,0.7-1c0-0.1,0-0.3,0-0.4
	l-0.7-2.1c0,0.1,0,0.1,0,0.2C161.5,98.1,160.5,99.1,158.8,100z"/>
</svg>
