<?xml version="1.0" encoding="utf-8"?>
<!-- Generator: Adobe Illustrator 24.3.0, SVG Export Plug-In . SVG Version: 6.00 Build 0)  -->
<svg version="1.1" id="Layer_1" xmlns="http://www.w3.org/2000/svg" xmlns:xlink="http://www.w3.org/1999/xlink" x="0px" y="0px"
	 viewBox="0 0 251 151" style="enable-background:new 0 0 251 151;" xml:space="preserve">
<style type="text/css">
	.st0{opacity:0.4;}
	.st1{fill:#7F8C8D;}
	.st2{fill:#CECCCA;}
	.st3{fill:#35495E;}
	.st4{fill:#2C3E50;}
	.st5{fill:#95A5A5;}
	.st6{fill:#4295CF;}
	.st7{fill:#255D7C;}
	.st8{fill:#ECF0F1;}
	.st9{fill:#5E3E21;}
	.st10{fill:#8F4729;}
	.st11{fill:#DCB680;}
	.st12{fill:#783A28;}
	.st13{fill:#E84C59;}
	.st14{fill:#EE7B5C;}
	.st15{fill:#F9C862;}
	.st16{fill:#062633;}
	.st17{fill:#9F9F9F;}
	.st18{fill:#D3D2D2;}
	.st19{fill:none;}
	.st20{fill:#ABAAAA;}
	.st21{fill:#041D26;}
	.st22{fill:#6E6E6E;}
	.st23{fill:#C0C0C0;}
	.st24{fill:#E1DFE0;}
	.st25{fill:#54371D;}
</style>
<g id="Layer_3">
	<g class="st0">
		<path class="st1" d="M102.9,101l-0.1-0.1L98.1,95c-0.2-0.2-0.2-0.5-0.1-0.8c0.1-0.3,0.3-0.5,0.6-0.5c0.3,0,0.6,0.1,0.7,0.3
			l4.8,5.9c0.3,0.3,0.3,0.8-0.1,1.1C103.7,101.2,103.2,101.2,102.9,101L102.9,101z"/>
		<path class="st1" d="M94.5,105c-0.2-0.2-0.3-0.5-0.3-0.8c0.1-0.3,0.3-0.5,0.5-0.6l8.6-3c0.3-0.1,0.6,0,0.8,0.1
			c0.2,0.2,0.3,0.5,0.3,0.8c-0.1,0.3-0.3,0.5-0.5,0.6l-8.6,3.1C95,105.3,94.7,105.2,94.5,105L94.5,105z"/>
		<path class="st1" d="M102.9,111.9c-0.2-0.1-0.3-0.3-0.3-0.5l-0.8-8.8c0-0.4,0.3-0.8,0.7-0.9c0.4,0,0.8,0.3,0.9,0.7l0,0l0.8,8.8
			c0,0.4-0.3,0.8-0.7,0.9C103.3,112.1,103.1,112.1,102.9,111.9z"/>
		<path class="st1" d="M104.5,103.5c-0.3-0.3-0.4-0.8-0.1-1.1c0.3-0.3,0.8-0.4,1.1-0.1c0,0,0,0,0,0l6,4.7c0.3,0.3,0.4,0.8,0.1,1.1
			c0,0,0,0,0,0c-0.3,0.3-0.7,0.4-1.1,0.2c0,0,0,0,0,0L104.5,103.5L104.5,103.5z"/>
		<path class="st1" d="M166.8,104.6c-0.2-0.2-0.3-0.5-0.3-0.8l1.6-7c0.1-0.4,0.6-0.6,1-0.5c0.4,0.1,0.6,0.5,0.5,0.9l-1.6,6.9
			c0,0.2-0.2,0.4-0.4,0.5c-0.2,0.1-0.4,0.1-0.6,0.1C167,104.6,166.9,104.6,166.8,104.6L166.8,104.6z"/>
		<path class="st1" d="M170.9,97.6c-0.3-0.3-0.4-0.8-0.1-1.1c0.2-0.3,0.6-0.4,0.9-0.2l6.3,2.4c0.4,0.2,0.6,0.6,0.5,1
			c0,0.1-0.1,0.2-0.2,0.3c-0.2,0.2-0.5,0.2-0.8,0.1l-6.3-2.4C171,97.7,170.9,97.7,170.9,97.6z"/>
		<path class="st1" d="M172,95.1L172,95.1c-0.3-0.3-0.4-0.8-0.1-1.1l4.5-5.4c0.1-0.2,0.3-0.3,0.5-0.3c0.2,0,0.4,0,0.6,0.2l0,0
			c0.3,0.3,0.4,0.8,0.1,1.1c0,0,0,0,0,0l-4.5,5.4C172.8,95.3,172.3,95.4,172,95.1L172,95.1z"/>
		<path class="st1" d="M168.2,92.3c-0.2-0.2-0.3-0.5-0.3-0.7l1-6.4c0.1-0.4,0.5-0.7,0.9-0.7c0.1,0,0.3,0.1,0.4,0.2
			c0.2,0.2,0.3,0.5,0.3,0.7l-1,6.4c-0.1,0.4-0.5,0.7-0.9,0.7C168.5,92.5,168.3,92.4,168.2,92.3z"/>
		<path class="st1" d="M159.8,97.8c-0.3-0.3-0.4-0.8-0.1-1.1c0.1-0.2,0.3-0.3,0.5-0.3l7.5-0.7c0.3,0,0.6,0.1,0.7,0.3
			c0.2,0.2,0.2,0.5,0.1,0.8c-0.1,0.3-0.4,0.4-0.6,0.5l-7.5,0.7C160.2,98,160,98,159.8,97.8L159.8,97.8z"/>
		<path class="st2" d="M167.8,90.3c0.4-0.2,0.8-0.3,1.2-0.3c2.6-0.2,4.9,1.7,5.1,4.3c0.2,2.6-1.7,4.9-4.3,5.1
			c-2.6,0.2-4.9-1.7-5.1-4.3c0-0.4,0-0.7,0-1.1"/>
		<path class="st3" d="M183.4,93.4c-0.7-7.8-7.7-13.5-15.5-12.8c-7.8,0.7-13.5,7.7-12.8,15.5s7.7,13.5,15.5,12.8c0,0,0,0,0,0
			C178.4,108.1,184.1,101.2,183.4,93.4z M170.4,104.1c-5.2,0.5-9.8-3.2-10.4-8.4c0,0,0,0,0-0.1c-0.2-1.7,0.1-3.4,0.8-4.9l3-3.7
			c1.4-1,3-1.6,4.6-1.8c5.2-0.4,9.7,3.5,10.1,8.7c0.4,5.1-3.3,9.5-8.3,10.1L170.4,104.1z"/>
		<path class="st4" d="M162.9,102.6c-2.1-1.7-3.4-4.2-3.7-6.9c-0.2-1.8,0.1-3.6,0.9-5.3c0-0.1,0.1-0.1,0.1-0.2l3-3.7
			c0-0.1,0.1-0.1,0.1-0.1c4.6-3.3,11-2.3,14.3,2.3c3.3,4.6,2.3,11-2.3,14.3C171.6,105.8,166.5,105.6,162.9,102.6L162.9,102.6z
			 M161.6,91.2c-0.6,1.4-0.9,2.9-0.7,4.4c0.5,4.8,4.7,8.2,9.4,7.8l0,0c4.7-0.5,8.2-4.7,7.8-9.4c-0.5-4.7-4.7-8.2-9.4-7.8
			c-1.5,0.1-2.9,0.7-4.1,1.5L161.6,91.2z"/>
		<path class="st5" d="M150.9,82.5l9.9,8.2l6.2,5.1c1,0.8,2.5,0.7,3.3-0.3c0.3-0.3,0.4-0.7,0.5-1.1c0.1-0.8-0.2-1.7-0.8-2.2l-10-8.2
			l-7.4-6.1L150.9,82.5z"/>
		<path class="st3" d="M101.5,115.9c7.7,1.4,15.1-3.7,16.5-11.4s-3.7-15.1-11.4-16.5c-7.7-1.4-15.1,3.7-16.5,11.4c0,0,0,0,0,0
			C88.7,107.1,93.8,114.5,101.5,115.9C101.5,115.9,101.5,115.9,101.5,115.9z M94.8,100.5c0.9-5.1,5.8-8.5,11-7.6c0,0,0,0,0,0
			c1.7,0.3,3.2,1,4.4,2.1l2.7,3.9c0.6,1.6,0.7,3.3,0.4,4.9c-1.1,5.1-6.1,8.4-11.2,7.3C97.2,110.1,94,105.4,94.8,100.5L94.8,100.5z"
			/>
		<path class="st4" d="M97.6,109.8c-4.3-3.7-4.8-10.1-1.1-14.4c3.4-3.9,9.2-4.7,13.5-1.8c0.4,0.3,0.4,0.7,0.2,1.1
			c-0.1,0.1-0.2,0.2-0.3,0.3c-0.3,0.1-0.6,0.1-0.8-0.1c-3.9-2.8-9.3-1.9-12.1,2c-2.6,3.7-2,8.8,1.6,11.7l0,0c3.7,3,9.1,2.5,12.2-1.2
			c1.4-1.7,2.1-4,2-6.2c0-0.3,0.1-0.6,0.3-0.7c0.4-0.2,0.9-0.1,1.1,0.2c0.1,0.1,0.1,0.2,0.1,0.4c0.5,5.6-3.7,10.6-9.4,11
			C102.3,112.3,99.6,111.5,97.6,109.8L97.6,109.8z"/>
		<path class="st6" d="M152.7,106.7l-28.3,2.7c-1.1,0.1-2.2-0.4-2.9-1.2l-2.6-3.2l-2.1-2.6c-1-1.3-2.8-1.6-4.2-0.8l-6.4,3.5
			c-1.4,0.8-3.1,0.4-4.1-0.8l0,0c-0.6-0.7-0.8-1.6-0.7-2.4c0.1-0.9,0.6-1.7,1.3-2.2L120.3,86L107,82.7l-14.6-5.9l-4-6.4l16,0.1
			c0.6,0,1.1,0.3,1.4,0.8L107,73c0.2,0.3,0.5,0.5,0.8,0.7l17.7,3.1l0.8,0.1l-0.1-0.8c-0.4-4.3,2.5-8.2,6.7-9.1l1-0.2
			c5.3-1.1,10.9-1,16.2,0.3l1.4,0.3l11.3,2.6c0.8-2.5,0.5-5.2-0.9-7.4c-0.7-1.2-1.5-2.3-2.4-3.3l-4.5-5l5,1.6
			c6.4,2,11.8,6.4,15.1,12.2l2.4,4.3c0.6,1.1,0.2,2.4-0.8,3c-0.2,0.1-0.4,0.2-0.6,0.2c-1.4,0.3-4.6,1-8.2,1.8
			c-8.1,1.8-13.5,9.3-12.8,17.5l0.8,8.1c0.1,0.9-0.2,1.8-0.8,2.5C154.4,106.2,153.6,106.7,152.7,106.7z"/>
		<path class="st4" d="M124.4,96.7c-0.2,0.1-0.3,0.2-0.4,0.4l-5.2,7.9l0,0l-2.1-2.6c-1-1.3-2.8-1.6-4.2-0.8l-6.4,3.5
			c-1.4,0.8-3.1,0.4-4.1-0.8l0,0c-0.6-0.7-0.8-1.6-0.7-2.4c0.1-0.9,0.6-1.7,1.3-2.2L120.3,86L107,82.7l-14.6-5.9l-4-6.4l16,0.1
			c0.6,0,1.1,0.3,1.4,0.8L107,73c0.2,0.3,0.5,0.5,0.8,0.7l17.7,3.1l0.8,0.1l8.4,1c1.2,0.1,2.3,0.1,3.5-0.2l0.1,0.3l-7.4,7.5
			c-0.6,0.6-0.6,1.6,0,2.2c0,0,0.1,0.1,0.1,0.1l0.8,0.7c0.3,0.3,0.5,0.7,0.6,1.1c0,0.4-0.1,0.8-0.4,1.2l-0.6,0.7l-5,3.7L124.4,96.7z
			"/>
		<path class="st7" d="M123.9,79.3c-0.7,1.1-2.1,1.7-3.4,1.4l-10.2-2.3c-1.3-0.3-2.3-1.4-2.4-2.8l-0.2-1.9c0.1,0.1,0.2,0.1,0.3,0.1
			l17.4,3L123.9,79.3z"/>
		<circle class="st3" cx="128.6" cy="93.2" r="3.1"/>
		<path class="st8" d="M131.9,99.7l-3.8,4.7l16.5-1.6c0.5-0.1,0.9-0.3,1.2-0.8l2.5-4c0.3-0.5,0.3-1,0.1-1.5
			c-0.2-0.5-0.7-0.8-1.2-0.9l-3.2-0.5c-0.5-0.1-1.1,0.1-1.4,0.6l-1.9,2.3c-0.3,0.3-0.6,0.5-1.1,0.6l-6.5,0.6
			C132.6,99.2,132.2,99.4,131.9,99.7L131.9,99.7z"/>
		<path class="st8" d="M144.3,81.2c-0.2-0.2-0.4-0.5-0.3-0.8c0.1-0.3,0.4-0.5,0.7-0.6l6.3-0.6c0.3,0,0.6,0.1,0.7,0.3
			c0.2,0.2,0.2,0.5,0.1,0.8c-0.1,0.3-0.4,0.4-0.6,0.5l-6.3,0.6C144.7,81.4,144.4,81.4,144.3,81.2z"/>
		<path class="st8" d="M153.7,80.3c-0.3-0.3-0.4-0.8-0.1-1.1c0.1-0.2,0.3-0.3,0.5-0.3l1.6-0.2c0.3,0,0.6,0.1,0.7,0.3
			c0.2,0.2,0.2,0.5,0.1,0.8c-0.1,0.3-0.4,0.4-0.6,0.5l-1.6,0.2C154.1,80.5,153.8,80.5,153.7,80.3z"/>
		<path class="st8" d="M177.3,74.9c-0.3,0.4-0.8,0.7-1.3,0.8c-1,0.2-2.8,0.6-5,1l-0.2-2.6c-0.2-1.6,0.8-3,2.3-3.5l2.8-0.8h0.1
			l1.5,2.6C177.9,73.2,177.8,74.2,177.3,74.9z"/>
		<path class="st7" d="M107.2,73.3l-4.6,1.4c-1.7,0.5-3.5,0.4-5.1-0.2L89,71.3l-0.6-0.9l16,0.1c0.6,0,1.1,0.3,1.4,0.8L107,73
			L107.2,73.3L107.2,73.3z"/>
		<path class="st3" d="M161.6,73.9l-9.9-0.7c0.1-0.2-2.8-1.1-2.8-1.4l2.5-4.4l11.3,2.6c0-0.1,0.1-0.2,0.1-0.2l0.5,2
			c0.2,0.5,0,1.1-0.3,1.5C162.7,73.7,162.1,73.9,161.6,73.9z"/>
		<path class="st7" d="M150.8,74l-12.2,3.7l-0.4,0.1c-1.1,0.3-2.3,0.4-3.5,0.2l-8.4-1l-0.1-0.8c-0.5-4.4,2.4-8.3,6.7-9.2l1-0.2
			c5.3-1.1,10.9-1,16.2,0.3l1.4,0.3l0.5,4.9C152,73.1,151.5,73.8,150.8,74z"/>
	</g>
	<path class="st9" d="M149.4,54.2c3.5-0.6,6.3-1.6,7.8-1s1.8,2,0.1,3.3s-3.3,3.7-4.3,3.8c-1.3,0.1-3.7,0.1-4.2-0.7s-1.1-5.3-1.1-5.3
		L149.4,54.2z"/>
	<path class="st10" d="M134.1,64.3l0.2-0.6c0-0.1,0-0.1,0-0.2c3-10.2,2.6-20.1-9.9-24.5l0,0c-12.7-4.5-21.1,6.4-25.2,21.4l0,0
		c-2,5.6,7.1,8.4,14.6,11c8.8,3.1,16,5.1,17.4,1.1l1.4-4.1C133.1,67.1,133.6,65.7,134.1,64.3z"/>
	<path class="st10" d="M141.2,32.4c1.5,8-3.8,15.7-11.7,17.2s-15.7-3.8-17.2-11.7c-1.5-8,3.7-15.7,11.7-17.2
		C132,19.1,139.7,24.3,141.2,32.4C141.2,32.3,141.2,32.3,141.2,32.4z"/>
	<path class="st11" d="M128.7,48.2c-0.1,0.6-0.2,0.9-0.1,1c-0.4-0.5-0.3-1.1-0.1-3c0.2-1.4,0.6-2.8,1.2-4.1
		c4.5-10.9,5.3-12.7,5.7-13c-0.1,0-0.2-0.3-0.7,0.1c0.8-2.1,1.9-4.1,3.3-5.8c-0.2-0.2-0.5-0.1-0.7-0.1c0.9-1.2,1.3-1.5,2.1-1.5
		c0.3,0,0.6,0.1,0.8,0.3c0.2-0.8,2.4-2.2,3.5-2.5c-1.8,3-1.4,2.5-1.4,2.6s1.3-1.3,2-1.1c-0.3,0.2-0.5,0.5-0.7,0.8
		c0.9-0.4,1.9,0.4,2.2,2c-0.5-0.3-0.9,0.1-1.2,0.2c0.1,0.3,5.5-1.2-6.5,24.4c0.2-0.7,0.3-1.4,0.3-2.2c-0.3,1.1-0.2,3.4-2.6,5.5
		c-0.9,0.7-2,1.2-3.1,1.4c0.5-0.5,0.8-0.7,0.8-0.9s-1.7,0.9-3.2,0.6c0.5-0.4,0.9-0.8,1.3-1.3c-0.2,0.3-1.4,0.2-1.6,0.3
		C129.1,50.9,128.6,49.5,128.7,48.2z"/>
	<path class="st12" d="M125.1,50.9c0.5,0,0.9,0.2,1.3,0.4c0.2,0.1,0.4,0.2,0.6,0.3c0.3,0.2,0.5,0.3,0.8,0.5c0.4,0.2,0.8,0.5,1.1,0.9
		c0.6,0.7,1.4,1.2,2.2,1.6c1.8,0.8,3.7,1.2,5.7,1.1c2,0,4-0.4,5.9-0.9c1-0.3,2-0.6,3-1c0.5-0.3,1-0.4,1.6-0.5c0.3,0,0.6,0,1,0
		c0.2,0,0.4,0.1,0.6,0.2l0.4,0.2c0.1,0,0.3,0.2,0.9,1.1l2,3.2c0.5,1,0.5,1.2,0.5,1.3v0.5c0,0.3-0.1,0.5-0.2,0.8
		c-0.2,0.4-0.5,0.7-0.8,1c-0.6,0.5-1.3,1-2,1.2c-1.4,0.7-2.9,1.2-4.4,1.6c-3.2,0.8-6.5,0.9-9.7,0.3c-3.3-0.6-6.4-2.2-8.9-4.4
		c-1.3-1.2-2.4-2.6-3.2-4.2c-0.4-0.8-0.6-1.8-0.6-2.7c0-0.5,0.1-1,0.4-1.4c0.1-0.2,0.3-0.5,0.4-0.7C124,51.3,124.2,51.1,125.1,50.9
		L125.1,50.9z"/>
	<path class="st13" d="M96.3,68.2c-4.1,2-11.6,6.1-14.2,10.5c-4,6.8-2.6,18.1-1.4,22.9c1.7-5.2,3.7-8.3,6.2-9.2
		c0.8-0.3-0.7,2.5,0.4,5c1.1-1.7,2.7-3,4.4-4c1.8-1.2,4.8-3.8,5.8-6.2c3.3-7.9,1-16.1,0.7-18L96.3,68.2z"/>
	<path class="st14" d="M96.3,68.2c-1.8,0.7-7.6,4.5-9.2,7.8s-0.2,11.2-0.9,15.7c2.3-2.6,2.8-4,5.4-5.3s2.9-1.7,3.9-3
		s2.1-5.6,2.5-9.5c0.4-4.1,0.2-4.9,0.2-4.9L96.3,68.2z"/>
	<path class="st15" d="M96.3,68.2c-2,1.2-6.9,5.3-7.2,7.9s1.1,3.7,1,7.8c1.2-0.8,1.7-3.7,3.3-4c-0.1,1.1-0.4,1.7,0,2.7
		c0.5-1.4,1.8-2.4,2.8-4c1.1-1.9,1-4.2,1.3-6.2c0.1-1.1,0.4-2.2,0.8-3.3L96.3,68.2z"/>
	<path class="st16" d="M96.2,69.8c-3.5-1.7-5.9-3.9-5.4-4.9l-0.9,1.8c-0.5,1,1.9,3.2,5.4,4.9s6.7,2.3,7.2,1.3l0.9-1.8
		C102.9,72.1,99.7,71.5,96.2,69.8z"/>
	<path class="st16" d="M95.2,71.9c-2.6-1.3-4.4-2.9-4.1-3.7l-0.7,1.3c-0.4,0.7,1.5,2.4,4.1,3.7s5,1.7,5.4,1l0.7-1.3
		C100.2,73.7,97.8,73.2,95.2,71.9z"/>
	<path class="st17" d="M103.2,43.6c-4.2,4.1-7.6,9-10.1,14.3L90,64.1c0,0,3.7,3.7,6.5,5.1c2.5,1,5.2,1.7,7.9,2.1
		c0,0,1.4-2.6,3.2-6.3c2.7-5.2,4.4-10.9,5-16.8c-1.7-0.4-3.3-1-4.9-1.7C106.1,45.7,104.6,44.7,103.2,43.6z"/>
	<path class="st18" d="M111.4,39.1c-0.8-0.4-4.1,0.7-8.1,4.5c1.4,1.2,2.9,2.1,4.5,2.9c1.6,0.8,3.2,1.4,4.9,1.7
		C113.1,42.8,112.2,39.5,111.4,39.1z"/>
	<path class="st16" d="M97.4,67.4c-4-2-6.8-4.5-6.3-5.7l-1,2.1c-0.6,1.1,2.3,3.7,6.3,5.6s7.8,2.7,8.3,1.5l1-2
		C105.2,70.1,101.4,69.4,97.4,67.4z"/>
	<path class="st19" d="M102.9,71.5c-0.7-0.1-1.4-0.2-2.1-0.4l-0.2,0.3C101.3,71.6,102.1,71.7,102.9,71.5z"/>
	<path class="st19" d="M100.1,73.3l-0.5-0.1l-0.1,0.2C99.7,73.3,99.9,73.3,100.1,73.3z"/>
	<path class="st20" d="M104.5,71.3L104.5,71.3z"/>
	<path class="st21" d="M100.6,71.4c-0.3,0.6-0.7,1.2-1,1.7l0.5,0.1c0.2,0,0.4-0.1,0.5-0.3l-0.2,0.4c1.1,0.2,1.9,0,2.1-0.4l0.7-1.4
		h-0.4C102.1,71.7,101.3,71.6,100.6,71.4z"/>
	<path class="st21" d="M100.1,73.3c-0.2,0-0.4,0-0.6,0c-0.3,0.4-0.5,0.9-0.8,1.3c0.7,0.1,1.1-0.1,1.3-0.3l0.5-1l0.2-0.4
		C100.5,73.1,100.3,73.2,100.1,73.3z"/>
	<path class="st22" d="M103.2,66.3c-0.5,0.9-0.9,1.9-1.4,2.8c1.9,0.5,3.3,0.5,3.8,0c0.6-1.1,1.3-2.5,2.1-4.1
		c2.7-5.2,4.4-10.9,5-16.8c-0.9-0.2-1.7-0.4-2.5-0.7C108.6,54,106.3,60.3,103.2,66.3z"/>
	<path class="st23" d="M112.7,48.2c0.5-5.4-0.5-8.7-1.3-9.1c-0.1-0.1-0.3-0.1-0.4-0.1c0.1,2.9-0.2,5.7-0.8,8.5
		C111,47.8,111.8,48,112.7,48.2z"/>
	<path class="st21" d="M101.8,69.1c-0.4,0.7-0.7,1.4-1.1,2c0.7,0.2,1.4,0.3,2.1,0.4h0.4c0.4,0,0.9-0.1,1.2-0.2l0,0
		c0.1-0.1,0.2-0.2,0.3-0.3l1-2.1c0,0.1-0.1,0.1-0.1,0.2C105.1,69.6,103.7,69.6,101.8,69.1z"/>
	<path class="st13" d="M100.9,71.9c-4,2-11.5,6.4-13.9,10.8c-3.8,6.9-2.2,18.2-0.9,22.9c1.5-5.2,3.5-8.4,6-9.3
		c0.8-0.3-0.6,2.5,0.5,5c1.1-1.7,2.6-3.1,4.3-4.1c1.8-1.2,4.7-3.9,5.7-6.4c3.1-8,0.6-16.2,0.2-18L100.9,71.9z"/>
	<path class="st14" d="M100.9,71.9c-1.8,0.8-7.5,4.7-9,8S92,91,91.3,95.6c2.3-2.6,2.7-4,5.3-5.4s2.8-1.7,3.9-3s2-5.6,2.3-9.5
		c0.3-4.1,0.1-4.9,0.1-4.9L100.9,71.9z"/>
	<path class="st15" d="M100.9,71.9c-2,1.2-6.8,5.5-7,8.1s1.2,3.6,1.2,7.8c1.2-0.8,1.6-3.8,3.2-4.1c-0.1,1.1-0.4,1.7,0,2.7
		c0.4-1.5,1.8-2.4,2.7-4.1c1.1-1.9,0.9-4.2,1.1-6.3c0.1-1.1,0.3-2.2,0.7-3.3L100.9,71.9z"/>
	<path class="st16" d="M100.9,73.5c-3.5-1.6-6-3.8-5.5-4.7l-0.8,1.8c-0.4,1,2,3.1,5.5,4.7s6.7,2.2,7.2,1.2l0.8-1.8
		C107.6,75.6,104.4,75.1,100.9,73.5z"/>
	<path class="st16" d="M99.9,75.6c-2.7-1.2-4.5-2.8-4.2-3.6l-0.6,1.3c-0.3,0.8,1.5,2.3,4.2,3.6s5.1,1.6,5.4,0.9l0.6-1.3
		C104.9,77.2,102.5,76.8,99.9,75.6z"/>
	<path class="st20" d="M107.3,47.1c-4.1,4.2-7.4,9.1-9.8,14.5c-1.7,3.6-2.9,6.3-2.9,6.3s3.7,3.6,6.6,4.9c2.6,1,5.2,1.6,7.9,1.9
		c0,0,1.3-2.6,3.1-6.3c2.5-5.3,4.1-11,4.6-16.9c-1.7-0.3-3.4-0.9-4.9-1.6C110.2,49.1,108.7,48.2,107.3,47.1z"/>
	<path class="st24" d="M115.3,42.4c-0.8-0.4-4.1,0.8-8,4.7c1.4,1.1,2.9,2.1,4.6,2.8c1.6,0.7,3.2,1.3,4.9,1.6
		C117.1,46.1,116.1,42.8,115.3,42.4z"/>
	<path class="st16" d="M102,71c-4.1-1.9-7-4.4-6.4-5.5l-1,2.1c-0.5,1.2,2.3,3.6,6.4,5.5s7.8,2.5,8.3,1.3l1-2.1
		C109.8,73.5,106.1,72.9,102,71z"/>
	<path class="st19" d="M107.5,75c-0.7,0-1.5-0.2-2.2-0.3l-0.1,0.3C106,75.1,106.8,75.1,107.5,75z"/>
	<path class="st19" d="M104.8,76.8c-0.2,0-0.4-0.1-0.5-0.1l-0.1,0.2C104.4,76.9,104.6,76.9,104.8,76.8z"/>
	<path class="st20" d="M109.1,74.8L109.1,74.8L109.1,74.8z"/>
	<path class="st21" d="M105.2,75c-0.3,0.6-0.7,1.2-1,1.8c0.2,0,0.4,0.1,0.5,0.1c0.2,0,0.4-0.1,0.5-0.3l-0.2,0.4
		c1.1,0.1,1.9,0,2.1-0.4l0.7-1.5c-0.1,0-0.2,0-0.4,0C106.8,75.2,106,75.2,105.2,75z"/>
	<path class="st21" d="M104.8,76.8c-0.2,0-0.4,0.1-0.6,0.1c-0.2,0.4-0.5,0.9-0.8,1.3c0.7,0,1.1-0.1,1.3-0.4l0.5-1l0.2-0.4
		C105.2,76.7,105,76.8,104.8,76.8z"/>
	<path class="st22" d="M107.8,69.8c-0.4,1-0.9,1.9-1.4,2.8c1.9,0.4,3.3,0.5,3.8-0.1c0.5-1.1,1.2-2.5,2-4.1c2.5-5.3,4.1-11,4.6-16.9
		c-0.9-0.2-1.7-0.4-2.6-0.7C112.8,57.4,110.7,63.7,107.8,69.8z"/>
	<path class="st23" d="M116.8,51.5c0.3-5.4-0.7-8.7-1.5-9.1c-0.1,0-0.3-0.1-0.4-0.1c0.2,2.8,0,5.7-0.7,8.5
		C115.1,51.1,115.9,51.3,116.8,51.5z"/>
	<path class="st21" d="M106.4,72.6c-0.3,0.7-0.7,1.4-1.1,2.1c0.7,0.2,1.4,0.3,2.2,0.3c0.1,0,0.2,0,0.4,0c0.4,0,0.9-0.1,1.2-0.3l0,0
		c0.1-0.1,0.2-0.2,0.3-0.3l1-2.1c0,0.1-0.1,0.1-0.1,0.2C109.8,73.1,108.3,73.1,106.4,72.6z"/>
	<path class="st25" d="M120.4,82.1c-3,1.1-3,2.2-3,2.2l1.5,1.5l0,0c0.9,0.9,2.1,2,3.3,3.2c2.3,2.4,4.5,5.1,5.5,4.1
		c1.4-1.4,0.4-4.7-2.2-7.4c-0.4-0.4-0.9-0.9-1.4-1.2c1-0.3,1.9-0.6,2.8-1.1c0,0-5.1-4.5-5.3-4S120.9,81.9,120.4,82.1z"/>
	<path class="st12" d="M114,63.9c0.6-0.3,1.3-0.5,2-0.7c0.6-0.1,1.2-0.2,1.8-0.1c1.1,0.1,2.2,0.4,3.2,0.9c1.2,0.4,2.3,0.9,3.4,1.5
		c0.7,0.4,1.3,0.7,1.9,1.2c0.9,0.6,1.7,1.4,2.4,2.2c0.2,0.2,0.5,0.6,0.7,1l0.5,0.7c0.3,0.4,0.6,0.9,0.8,1.2s0.4,0.8,0.6,1.1l0.5,1
		c0.5,1.2,0.9,2.5,1.3,3.8c0.3,1.2,0.5,2.4,0.7,3.5c0.1,0.6,0.2,1.2,0.2,1.7c0,0.3,0,0.6-0.2,0.9c-0.3,0.4-0.6,0.7-1,1l-17.4,0.2
		c-0.4,0-0.8-0.2-1.1-0.4c-0.2-0.1-0.3-0.3-0.3-0.5v-1.1c0-0.7,0-1.4,0-2.1s0-1.2,0-1.7v-0.3c0-0.1,0-0.1,0.1-0.2c0-0.1,0.1,0,0.1,0
		h0.1c0,0,0,0.1,0.1,0.1c0.1,0.1,0.2,0.3,0.3,0.4c0.4,0.4,0.4,0.3,0.4,0.2c-0.1-0.2-0.2-0.4-0.3-0.5c-0.4-0.5-0.9-1-1.4-1.5
		c-0.6-0.5-1.2-1.1-1.8-1.7c-0.3-0.4-0.6-0.8-0.8-1.3c-0.3-0.6-0.5-1.2-0.6-1.8L114,63.9z"/>
</g>
</svg>
