<?xml version="1.0" encoding="utf-8"?>
<!-- Generator: Adobe Illustrator 24.3.0, SVG Export Plug-In . SVG Version: 6.00 Build 0)  -->
<svg version="1.1" id="Layer_2" xmlns="http://www.w3.org/2000/svg" xmlns:xlink="http://www.w3.org/1999/xlink" x="0px" y="0px"
	 viewBox="0 0 251 151" style="enable-background:new 0 0 251 151;" xml:space="preserve">
<style type="text/css">
	.lauras-st0{clip-path:url(#SVGID_2_);}
	.lauras-st1{fill:#D8585D;}
	.lauras-st2{fill:#E08064;}
	.lauras-st3{fill:#F2C972;}
	.lauras-st4{fill:#0E2532;}
	.lauras-st5{fill:#ABAAAA;}
	.lauras-st6{fill:#E1E0E0;}
	.lauras-st7{fill:#0A1D25;}
	.lauras-st8{fill:#6E6E6E;}
	.lauras-st9{fill:#C0C0C0;}
	.lauras-st10{fill:#503822;}
	.lauras-st11{fill:#663629;}
	.lauras-st12{fill:#5A3F26;}
	.lauras-st13{fill:#703D2D;}
	.lauras-st14{fill:#864A30;}
	.lauras-st15{fill:#D6B787;}
	.lauras-st16{fill:#BF976D;}
	.lauras-st17{fill:#5F3122;}
	.lauras-st18{fill:#221E14;}
	.lauras-st19{fill:#554D40;}
	.lauras-st20{fill:#412C1D;}
	.lauras-st21{fill:#B2424C;}
	.lauras-st22{fill:#8E353C;}
	.lauras-st23{fill:#9D3A43;}
	.lauras-st24{fill:#B3B2B2;}
	.lauras-st25{fill:#A13C44;}
</style>
<g>
	<defs>
		<rect id="SVGID_1_" x="48.2" y="5.9" width="152.8" height="140"/>
	</defs>
	<clipPath id="SVGID_2_">
		<use xlink:href="#SVGID_1_"  style="overflow:visible;"/>
	</clipPath>
	<g class="lauras-st0">
		<path class="lauras-st1" d="M112,93c2.3,4.8,6.3,14.1,5.5,20c-1.2,9.2-10.8,18.6-15.3,22.2c2.2-6,2.6-10.4,0.9-13c-0.5-0.8-1.2,2.8-4,4.3
			c0.1-2.4-0.3-4.7-1.2-6.9c-0.8-2.4-1.7-7-0.9-10c2.7-9.7,10.8-15.7,12.4-17.1L112,93z"/>
		<path class="lauras-st2" d="M112,93c1.2,2,3.8,9.7,2.8,13.9c-1,4.2-7.9,10.4-10.6,15.2c-0.3-4.1,0.3-5.7-1.2-8.8
			c-1.5-3.1-1.4-3.6-1.5-5.5c-0.1-1.9,2-6.7,4.6-10.6c2.6-4.1,3.4-4.7,3.4-4.7L112,93z"/>
		<path class="lauras-st3" d="M112,93c1,2.5,2.5,10,0.9,12.5c-1.7,2.6-3.7,2.6-6.6,6.5c-0.5-1.5,1.1-4.7-0.1-6.1c-0.7,1.1-0.8,1.8-1.9,2.6
			c0.6-1.7,0-3.5,0.3-5.7c0.3-2.6,2.1-4.6,3.3-6.7c0.7-1.1,1.3-2.3,1.7-3.6L112,93z"/>
		<path class="lauras-st4" d="M111,94.5c4.4,0.9,8.3,0.7,8.6-0.6l-0.5,2.2c-0.3,1.3-4.1,1.5-8.5,0.6c-4.5-0.9-7.9-2.7-7.6-4l0.5-2.2
			C103.1,91.8,106.5,93.6,111,94.5z"/>
		<path class="lauras-st4" d="M110.4,97.3c3.3,0.7,6.2,0.5,6.4-0.4l-0.4,1.7c-0.2,0.9-3.1,1.1-6.4,0.4c-3.4-0.7-5.9-2-5.7-3l0.4-1.7
			C104.5,95.2,107,96.5,110.4,97.3z"/>
		<path class="lauras-st5" d="M123.6,65.1c0.9,6.9,0.6,13.8-1,20.6c-1,4.6-1.7,8-1.7,8s-6,0.8-9.7,0c-3.7-0.8-8.9-3.8-8.9-3.8
			s0.6-3.4,1.6-8.1c1.3-6.8,3.9-13.3,7.6-19.1c1.8,0.9,3.8,1.5,5.8,1.9C119.3,65,121.4,65.2,123.6,65.1z"/>
		<path class="lauras-st6" d="M119.3,55.1c1.1,0.2,3.3,3.6,4.3,10c-2.1,0.1-4.2-0.1-6.3-0.6c-2-0.4-4-1.1-5.8-1.9
			C114.9,57.3,118.3,54.9,119.3,55.1z"/>
		<path class="lauras-st4" d="M111.6,91.4c5.2,1.1,9.6,0.8,10-0.7l-0.6,2.6c-0.3,1.5-4.8,1.7-10,0.7c-5.2-1.1-9.1-3.2-8.9-4.6l0.6-2.6
			C102.5,88.3,106.4,90.3,111.6,91.4z"/>
		<path class="lauras-st7" d="M105.8,92.8c-0.1,0.8-0.2,1.6-0.3,2.3l-0.6-0.3c-0.1-0.1-0.2-0.2-0.2-0.3c0-0.1-0.1-0.2,0-0.4l-0.1,0.5
			c-1.1-0.7-1.8-1.3-1.7-1.9l0.4-1.7c0.1,0.1,0.2,0.2,0.3,0.3C104.2,92,104.9,92.5,105.8,92.8z"/>
		<path class="lauras-st7" d="M104.9,94.9c0.2,0.2,0.3,0.3,0.6,0.5c-0.1,0.6-0.2,1.2-0.2,1.8c-0.7-0.4-1-0.9-0.9-1.2l0.3-1.3l0.1-0.5
			c0,0.1,0,0.2,0,0.4C104.7,94.7,104.8,94.8,104.9,94.9z"/>
		<path class="lauras-st8" d="M107,86.2c-0.3,1.2-0.5,2.4-0.7,3.6c-2.1-0.9-3.4-1.9-3.5-2.7c0.3-1.4,0.6-3.2,1.1-5.3
			c1.3-6.8,3.9-13.3,7.6-19.1c0.9,0.5,1.9,0.8,2.9,1.2C111,70.9,108.5,78.4,107,86.2z"/>
		<path class="lauras-st9" d="M111.4,62.6c3.5-5.3,6.8-7.7,7.8-7.5c0.2,0,0.3,0.1,0.5,0.2c-2.2,2.5-4,5.4-5.4,8.5
			C113.2,63.5,112.3,63.1,111.4,62.6z"/>
		<path class="lauras-st7" d="M106.3,89.8c-0.2,0.9-0.3,1.8-0.5,2.7c-0.8-0.3-1.6-0.7-2.3-1.2c-0.1-0.1-0.2-0.2-0.3-0.3
			c-0.4-0.3-0.8-0.7-1-1.1c0-0.1,0-0.3,0-0.5l0.6-2.6c0,0.1,0,0.2,0,0.3C102.9,87.9,104.2,88.9,106.3,89.8z"/>
		<path class="lauras-st1" d="M101,94.8c2.3,4.8,6.3,14.1,5.5,20c-1.2,9.2-10.7,18.6-15.3,22.2c2.2-6,2.6-10.4,0.9-13
			c-0.5-0.8-1.2,2.8-4,4.3c0.1-2.4-0.3-4.7-1.2-6.9c-0.8-2.4-1.7-7-0.9-10c2.7-9.7,10.8-15.6,12.4-17.1L101,94.8z"/>
		<path class="lauras-st2" d="M101,94.8c1.2,2,3.8,9.7,2.8,13.9c-1,4.2-7.9,10.4-10.6,15.2c-0.3-4.1,0.3-5.7-1.2-8.8
			c-1.5-3.1-1.4-3.6-1.5-5.6c-0.1-2,2.1-6.6,4.6-10.6c2.6-4.1,3.4-4.7,3.4-4.7L101,94.8z"/>
		<path class="lauras-st3" d="M101,94.8c1,2.5,2.5,10,0.9,12.5c-1.7,2.6-3.7,2.6-6.6,6.4c-0.5-1.5,1.1-4.7-0.1-6.1
			c-0.7,1.1-0.8,1.8-1.9,2.6c0.6-1.7,0.1-3.5,0.4-5.7c0.3-2.6,2.1-4.6,3.3-6.7c0.7-1.1,1.3-2.3,1.7-3.6L101,94.8z"/>
		<path class="lauras-st4" d="M99.9,96.3c4.4,0.9,8.3,0.7,8.6-0.6l-0.5,2.2c-0.3,1.3-4.1,1.5-8.6,0.6c-4.5-0.9-7.9-2.7-7.6-4l0.5-2.3
			C92,93.5,95.4,95.3,99.9,96.3z"/>
		<path class="lauras-st4" d="M99.3,99c3.3,0.7,6.2,0.5,6.4-0.4l-0.4,1.7c-0.2,1-3.1,1.1-6.5,0.4c-3.4-0.7-5.9-2.1-5.7-3l0.4-1.7
			C93.4,97,95.9,98.3,99.3,99z"/>
		<path class="lauras-st5" d="M112.5,66.9c0.9,6.9,0.6,13.8-1,20.6c-1,4.6-1.7,8-1.7,8s-6,0.7-9.7,0c-3.7-0.7-8.9-3.8-8.9-3.8
			s0.6-3.4,1.6-8.1c1.3-6.8,3.9-13.3,7.6-19.1C104.2,66.2,108.3,67,112.5,66.9z"/>
		<path class="lauras-st6" d="M108.2,56.9c1.1,0.2,3.3,3.6,4.3,10c-4.2,0.1-8.3-0.7-12.1-2.5C103.8,59.1,107.2,56.6,108.2,56.9z"/>
		<path class="lauras-st4" d="M100.5,93.2c5.2,1.1,9.6,0.8,10-0.7l-0.6,2.6c-0.3,1.5-4.8,1.8-10,0.7c-5.2-1.1-9.1-3.2-8.9-4.6l0.6-2.6
			C91.5,90,95.4,92.1,100.5,93.2z"/>
		<path class="lauras-st7" d="M94.7,94.6c-0.1,0.8-0.2,1.6-0.3,2.3l-0.6-0.3c-0.1-0.1-0.2-0.2-0.2-0.3c0-0.1-0.1-0.2,0-0.4l-0.1,0.5
			c-1.1-0.7-1.8-1.3-1.7-1.9l0.4-1.7l0.4,0.3C93.1,93.7,93.9,94.2,94.7,94.6z"/>
		<path class="lauras-st7" d="M93.8,96.6c0.2,0.2,0.4,0.3,0.6,0.5c-0.1,0.6-0.2,1.2-0.2,1.8c-0.7-0.4-1-0.9-0.9-1.2l0.3-1.2l0.1-0.5
			c0,0.1,0,0.2,0,0.4C93.6,96.4,93.7,96.5,93.8,96.6z"/>
		<path class="lauras-st8" d="M95.9,87.9c-0.3,1.2-0.5,2.4-0.7,3.6c-2.1-0.9-3.4-1.9-3.5-2.7c0.3-1.4,0.6-3.2,1.1-5.3
			c1.3-6.8,3.9-13.3,7.6-19.1c0.9,0.4,1.9,0.8,2.9,1.1C99.9,72.7,97.4,80.2,95.9,87.9z"/>
		<path class="lauras-st9" d="M100.3,64.4c3.5-5.3,6.8-7.7,7.8-7.5c0.2,0,0.3,0.1,0.4,0.2c-2.2,2.5-4,5.4-5.4,8.5
			C102.2,65.2,101.2,64.8,100.3,64.4z"/>
		<path class="lauras-st7" d="M95.2,91.5c-0.2,0.9-0.3,1.8-0.4,2.7c-0.8-0.3-1.6-0.7-2.3-1.2l-0.4-0.3c-0.4-0.3-0.7-0.7-1-1.1
			c0-0.1,0-0.3,0-0.5l0.6-2.6c0,0.1,0,0.2,0,0.3C91.8,89.6,93.1,90.6,95.2,91.5z"/>
		<path class="lauras-st10" d="M120.6,100.9c0-0.6,7.5,0.8,7.5,0.8c-0.6,1-1.3,1.9-2.1,2.7c0.7,0.1,1.4,0.2,2.1,0.4c4.1,1.1,7,3.7,6.4,5.9
			c-0.4,1.5-4.1,0.3-7.8-0.8c-1.9-0.5-3.7-0.8-5.1-1.2l-2.4-0.6c0,0-0.7-1.1,1.6-3.9C121.3,103.6,120.6,101.5,120.6,100.9z"/>
		<path class="lauras-st11" d="M126,87.7c-0.3,0.1-0.6,0.2-0.9,0.4c-0.2,0.1-0.5,0.3-0.7,0.4c-0.4,0.3-0.7,0.6-0.9,1
			c-0.4,0.7-0.6,1.4-1,2.1c-0.6,1.4-1.2,2.8-1.7,4.2s-0.9,2.8-1.3,4.2c-0.2,0.7-0.4,1.4-0.6,2.1l-0.1,0.5c-0.1,0.2-0.1,0.4-0.1,0.5
			c0,0.3,0.1,0.5,0.3,0.7c0.1,0.2,0.3,0.4,0.6,0.5l14,2.6c0.3,0,0.5-0.1,0.7-0.3c0.2-0.2,0.4-0.4,0.5-0.6c0.1-0.2,0.1-0.4,0.1-0.5
			l0.1-0.6c0.1-0.7,0.2-1.5,0.3-2.2c0.2-1.5,0.3-2.9,0.3-4.4c0-1.5,0-3,0-4.4c0-0.8-0.1-1.5-0.2-2.2c-0.1-0.4-0.2-0.8-0.5-1.2
			c-0.1-0.2-0.3-0.4-0.5-0.6c-0.2-0.3-0.5-0.5-0.7-0.7L126,87.7z"/>
		<path class="lauras-st12" d="M108.4,97.7c0-0.6,7.5,0.8,7.5,0.8c-0.6,1-1.3,1.8-2.1,2.7c0.7,0.1,1.4,0.2,2.1,0.4c4.1,1.1,7,3.7,6.4,5.9
			c-0.4,1.5-4.1,0.3-7.8-0.8c-1.8-0.5-3.7-0.8-5.1-1.2l-2.4-0.6c0,0-0.7-1.1,1.6-3.9C109.2,100.5,108.4,98.4,108.4,97.7z"/>
		<path class="lauras-st13" d="M114.2,84.5c-0.3,0.1-0.6,0.2-0.9,0.4c-0.2,0.1-0.5,0.3-0.7,0.4c-0.4,0.3-0.7,0.6-0.9,1
			c-0.4,0.7-0.6,1.4-1,2.1c-0.6,1.4-1.2,2.8-1.7,4.2c-0.5,1.4-0.9,2.8-1.3,4.2c-0.2,0.7-0.4,1.4-0.6,2.1l-0.1,0.5
			c-0.1,0.2-0.1,0.4-0.1,0.5c0,0.3,0.1,0.5,0.3,0.7c0.1,0.2,0.3,0.4,0.6,0.5l14,2.6c0.4,0,0.7-0.2,1-0.4c0.3-0.3,0.4-0.6,0.4-1
			l0.1-0.5c0.1-0.7,0.2-1.5,0.3-2.2c0.2-1.5,0.3-2.9,0.3-4.4c0-1.5,0-3,0-4.5c0-0.8-0.1-1.5-0.2-2.2c-0.1-0.4-0.2-0.8-0.5-1.2
			c-0.2-0.2-0.3-0.5-0.5-0.7c-0.2-0.3-0.5-0.5-0.7-0.7L114.2,84.5z"/>
		<path class="lauras-st13" d="M125.4,67.5c-0.3,0.4-0.4,1-0.3,1.5c0,0.3,0.1,0.5,0.1,0.7c0.1,0.4,0.3,0.8,0.5,1.1c0.2,0.3,0.4,0.6,0.7,0.9
			c0.2,0.3,0.5,0.5,0.8,0.7c1.1,0.8,2.3,1.7,3.6,2.5c1.3,0.8,2.6,1.6,4,2.2c1.5,0.7,3,1.2,4.6,1.6c1.8,0.4,3.6,0.5,5.4,0.4
			c2.9-0.2,5.7-1.2,8.1-3c0.7-0.5,1.4-1.1,2.1-1.7c0.7-0.6,1.2-1.3,1.6-2c0.2-0.4,0.3-0.8,0.4-1.3c0-0.3,0-0.6-0.1-0.8l-0.2-0.5
			c0-0.1-0.1-0.2-0.2-0.3v-0.1l-0.1-0.1l-0.2-0.2l-0.1-0.1l-0.2-0.1l-0.3-0.3l-3.3-2.4l-0.3-0.2l-0.2-0.1l-0.1-0.1l-0.2-0.1
			l-0.1-0.1h-0.1c-0.1-0.1-0.2-0.1-0.4-0.1l-0.5-0.1c-0.2,0-0.5,0-0.7,0c-0.2,0-0.3,0.1-0.5,0.1l-0.4,0.1c-0.2,0.1-0.5,0.2-0.7,0.4
			c-0.2,0.1-0.4,0.3-0.5,0.5c-0.6,0.5-1.3,0.9-1.9,1.2c-0.7,0.3-1.4,0.6-2.1,0.8c-0.9,0.2-1.8,0.3-2.7,0.3c-2.3-0.1-4.5-0.4-6.6-1.1
			c-0.6-0.2-1.2-0.3-1.8-0.6l-0.9-0.3l-0.9-0.4c-0.3-0.1-0.6-0.2-0.9-0.3c-0.4-0.1-0.7-0.1-1.1-0.1c-0.4,0-0.8,0-1.2,0.1
			c-0.2,0.1-0.5,0.1-0.7,0.2C126.4,66.5,126.1,66.7,125.4,67.5L125.4,67.5z"/>
		<path class="lauras-st14" d="M146.5,55.2c-0.3,3.3-1.5,6.4-3.6,8.9c-2.1,2.6-4.8,4.5-7.9,5.4c-3.1,1-6.5,1-9.6,0.1
			c-3.2-0.9-6-2.7-8.1-5.2c-2.1-2.5-3.4-5.6-3.8-8.8c-0.4-3.3,0.2-6.6,1.8-9.5c1.5-2.9,3.8-5.3,6.7-6.9c2.9-1.6,6.2-2.3,9.4-2
			c2.2,0.2,4.3,0.8,6.2,1.8c1.9,1,3.7,2.4,5.1,4c1.4,1.7,2.5,3.6,3.1,5.7C146.4,50.8,146.7,53,146.5,55.2z"/>
		<path class="lauras-st14" d="M144.6,92.7l-1,4.8c-0.9,4.7-9.3,3.6-19.6,1.6c-8.9-1.8-19.4-3.3-18.1-10c2.2-17.4,9.9-30.9,24.8-28
			c14.8,2.9,16.7,13.8,15,25.8c0,0.1,0,0.1,0,0.2l-0.1,0.7C145.4,89.4,145,91.1,144.6,92.7z"/>
		<path class="lauras-st15" d="M138.1,77.4c-1.7-0.5-3.1-2.9-5.4-4.3c-3.2-1.8-4-4.9-3.8-3.6c0.2,1.4-0.9,2-0.9,1.8c0-0.2,0.4,0.2,0.1-1.9
			c-0.3-2.1-2.9-3.1-4.7-6.6c-0.7-1.3-1.2-2.7-1.6-4c-0.1,0.6-0.2,1.2-0.2,1.7c-3.7-12.2,0.8-19.3,1.5-19.8c-0.7,0.2-1.3,0.5-1.9,1
			c1.4-3.9,4-4.3,4.4-4.4c-0.3-0.2-0.6-0.4-1-0.4c-0.4-0.1-0.7,0-1.1,0.1c1.1-1.7,2.2-2.8,4.2-2.9c0.3,0,0.7,0.1,1,0.3
			c0.3,0.2,0.5,0.4,0.7,0.7c-0.3-0.9-0.2-1.8,0.2-2.6c0.4-0.8,1.1-1.4,2-1.7c-1.3,3.9-0.7,3.2-0.6,3.3c0.1,0.1,2-2,3.9-2.2
			c-0.5,0.3-0.8,0.7-1,1.2c1.9-0.9,4-2.2,8.2,0.4c-1,0-2,0.3-2.9,0.9c2.3,0.7,4.4,2,6.1,3.8c1.7,1.7,2.9,3.9,3.6,6.2
			c-0.3-0.2-2.1-1.2-2.3-1c1.4,0.9,5.6,4.2,3.5,17.8c-0.1-0.7-0.7-2.3-1-2.2c0.5,1.2-0.4,5-3.9,8.5
			C140.6,72.2,138.6,74.8,138.1,77.4z"/>
		<path class="lauras-st12" d="M146.1,51.9c-0.3-6.4-4.6-11.4-9.2-11.2c-4.6,0.2-8,5.6-7.7,12c0.1,3.4,1.4,6.6,3.7,9
			c2.2,2.3,4.1,4.3,4.6,6.7c0.6-3.4,2.9-4.6,5.4-7.1c1.1-1.3,2-2.8,2.5-4.4C146.1,55.4,146.3,53.7,146.1,51.9z"/>
		<path class="lauras-st16" d="M146.1,51.5c0.3,6.2-2.7,11.5-7.5,11.8c-4.8,0.2-10.1-4.8-10.5-11c-0.3-6.2,3.3-11.4,8.1-11.6
			C141,40.4,145.8,45.3,146.1,51.5z"/>
		<path class="lauras-st17" d="M139.7,49.5c0.3-0.1,0.6-0.1,0.9-0.1c0.3,0,0.6,0,0.9,0c0.6,0,1.3,0.1,1.8,0.4c-0.3-0.2-0.5-0.4-0.9-0.5
			c-0.3-0.1-0.6-0.2-1-0.3c-0.3-0.1-0.7-0.1-1-0.1c-0.3,0-0.7,0-1,0L139.7,49.5z"/>
		<path class="lauras-st17" d="M136.6,49.1c-0.3,0-0.7,0.1-1,0.2c-0.3,0.1-0.6,0.1-1,0.3c-0.6,0.2-1.2,0.5-1.7,1c0.5-0.4,1.1-0.6,1.8-0.7
			c0.3-0.1,0.6-0.1,1-0.1c0.3,0,0.6,0,0.9,0V49.1z"/>
		<path class="lauras-st18" d="M136.9,50.8c-0.7,0-1.5,0-2.2,0c0.7,0.1,1.5,0.3,2.2,0.5V50.8z"/>
		<path class="lauras-st18" d="M140,51l1.1-0.5l0.5-0.2c0.2-0.1,0.4-0.1,0.6-0.2c-0.2,0-0.4,0-0.6,0.1l-0.6,0.1l-1.2,0.3L140,51z"/>
		<path class="lauras-st19" d="M136.9,53.3c-0.1,0.3-0.1,0.7,0,1c0.1,0.3,0.3,0.6,0.5,0.8c0.3,0.2,0.6,0.4,0.9,0.5c0.3,0.1,0.7,0.2,1,0.1
			c0.4,0,0.7-0.1,1-0.3c0.3-0.2,0.6-0.4,0.7-0.7c0.2-0.3,0.3-0.6,0.3-1c0-0.3-0.1-0.7-0.3-0.9c0.1,0.3,0.1,0.6,0,0.9
			c-0.1,0.3-0.2,0.6-0.4,0.8c-0.2,0.2-0.4,0.4-0.6,0.6c-0.3,0.1-0.5,0.2-0.8,0.2c-0.6,0.1-1.2-0.1-1.6-0.5c-0.2-0.2-0.4-0.4-0.5-0.7
			C136.9,53.9,136.8,53.6,136.9,53.3z"/>
		<path class="lauras-st18" d="M136.6,58.1c0.1,0.4,0.4,0.8,0.8,1c0.4,0.3,0.8,0.4,1.3,0.5c0.5,0.1,0.9,0,1.4-0.2c0.4-0.2,0.8-0.4,1.1-0.8
			c-0.4,0.1-0.8,0.2-1.2,0.3c-0.4,0-0.7,0-1.1,0c-0.4,0-0.8-0.1-1.1-0.3C137.3,58.5,136.9,58.3,136.6,58.1z"/>
		<path class="lauras-st20" d="M134.6,40.9c1.2-0.3,2.5-0.4,3.7-0.1c3.2,0.6,5.5,3.9,6.1,4.8c-0.4-0.2-0.9-0.2-1.4-0.2s-0.9,0.1-1.3,0.4
			l-0.4,0.2l-1.5-2.8v3.6c-4.9,2-10.7-1.9-11.4,2.2C129.1,45,131.6,41.8,134.6,40.9"/>
		<path class="lauras-st13" d="M124.3,71.1c-0.9,0.5-1.1,0.8-1.2,1.1c-0.1,0.3-0.3,0.5-0.4,0.8c-0.2,0.5-0.3,0.9-0.3,1.4c0,0.5,0,0.9,0,1.4
			c0,0.4,0.1,0.9,0.2,1.3c0.4,1.8,1,3.6,1.7,5.3c0.2,0.5,0.4,0.9,0.6,1.4s0.5,1,0.8,1.4c0.6,1,1.4,2,2.2,2.8c1,0.9,2,1.6,3.2,2.2
			c1.1,0.5,2.3,1,3.5,1.2c0.6,0.1,1.1,0.2,1.7,0.3c0.5,0,1.1,0.1,1.6,0.1c0.5,0,1.1,0.1,1.6,0c0.4-0.1,1,0,1.5,0
			c1.9-0.1,3.7-0.3,5.5-0.7c1.8-0.3,3.5-0.8,5.1-1.2c0.9-0.2,1.7-0.5,2.4-0.9c0.2-0.1,0.4-0.3,0.6-0.4c0.2-0.1,0.4-0.3,0.5-0.5
			c0.2-0.2,0.4-0.5,0.5-0.8c0.1-0.2,0.1-0.4,0.2-0.6c0-0.1,0-0.3,0-0.4v-0.1v-0.1v-0.3c0,0,0-0.1,0-0.1v-0.2l-0.1-0.4l-1.1-4.1
			l-0.1-0.4l-0.1-0.1l-0.1-0.1l-0.1-0.2l-0.1-0.1v-0.1c-0.1-0.1-0.1-0.2-0.3-0.3l-0.4-0.4c-0.2-0.2-0.5-0.3-0.8-0.4
			c-0.4-0.1-0.9-0.2-1.3-0.3c-0.8,0-1.6,0.1-2.4,0.3c-1.6,0.4-3.1,0.6-4.7,1c-1.5,0.3-3,0.6-4.4,0.8c-1.2,0.2-2.4,0.3-3.7,0.3
			c-0.2,0-0.4,0-0.7,0c-0.2,0-0.4,0-0.6-0.1c-0.4-0.1-0.8-0.2-1.1-0.3c-0.4-0.2-0.8-0.5-1.2-0.8c-0.2-0.2-0.4-0.4-0.6-0.6
			c-0.2-0.2-0.4-0.5-0.6-0.8c-0.9-1.2-1.7-2.5-2.3-3.9c-0.2-0.4-0.4-0.7-0.6-1.1c-0.3-0.3-0.5-0.7-0.8-1c-0.3-0.4-0.7-0.7-1.1-0.9
			c-0.2-0.1-0.5-0.3-0.8-0.4C125.7,71.1,125.3,71,124.3,71.1L124.3,71.1z"/>
		<path class="lauras-st21" d="M159.3,70.1c0.1,0,0.2,0,0.9,0.1c0.2,0,0.5,0,0.7,0c0.3,0,0.6,0,0.9-0.1c0.3-0.1,0.6-0.2,0.9-0.4
			c0.4-0.2,0.6-0.4,1-0.6c0.4-0.2,0.5-0.3,1.2-0.7s0.7-0.5,1.3-0.9c0.3-0.2,0.7-0.4,1.2-0.7l0.7-0.4c0.3-0.1,0.5-0.3,0.7-0.5
			c0.2-0.2,0.4-0.3,0.8-0.7c0.2-0.1,0.4-0.3,0.5-0.5c0.2-0.2,0.4-0.5,0.6-0.7c0.2-0.2,0.3-0.4,0.4-0.7c0.1-0.3,0.3-0.5,0.4-0.8
			c0.1-0.3,0.2-0.6,0.3-0.9c0.1-0.6,0.1-1.1,0.2-1.7c0-0.3,0-0.6-0.1-0.9c0-0.3-0.1-0.5-0.2-0.8c-0.1-0.3-0.2-0.5-0.3-0.8
			c-0.1-0.2-0.2-0.4-0.3-0.6c-0.2-0.3-0.3-0.4-0.4-0.6c-0.2-0.2-0.2-0.3-0.4-0.5c-0.2-0.2-0.5-0.5-0.7-0.8l-0.2-0.2
			c-0.1-0.1-0.3-0.3-0.4-0.5c-0.1-0.1-0.2-0.2-0.3-0.3l-0.2-0.3c-0.3-0.4-0.7-0.8-1.1-1.1c-0.2-0.2-0.5-0.3-0.7-0.5
			c-0.8-0.4-1.7-0.7-2.6-0.7c-0.3,0-0.6,0-0.9,0.1c-0.3,0-0.6,0.1-0.9,0.2c-0.2,0.1-0.5,0.1-0.7,0.2c-0.5,0.3-0.7,0.6-1,0.6
			c-0.1,0-0.2,0-0.2,0h-0.2c-0.4-0.1-0.8-0.1-1.2-0.1c-0.3,0-0.5,0.1-0.8,0.2c-0.2,0.1-0.4,0.2-0.6,0.3c-0.3,0.2-0.6,0.4-0.9,0.7
			c-0.3,0.3-0.6,0.6-0.8,0.9c-0.2,0.3-0.3,0.6-0.4,1l-0.4,0.9l-0.3,0.8l-0.3,0.8c-0.2,0.4-0.2,0.4-0.3,0.7l-0.2,0.6
			c-0.1,0.3-0.2,0.3-0.2,0.6c-0.1,0.2-0.1,0.3-0.2,0.5c0,0.2,0,0.2,0,0.5c0,0.3-0.1,0.4-0.1,0.6c0,0.2,0,0.4,0,0.6
			c0.1,0.3,0.2,0.4,0.1,0.5c-0.1,0.1-0.1,0-0.2,0.1c-0.2,0-0.4,0.1-0.6,0.1l-0.3,0.1h-0.1l-0.2,0.1c-0.2,0.1-0.5,0.2-0.5,0.2
			s-0.3,0.2-0.6,0.4l-0.1,0.1l-0.3,0.2l-0.5,0.3c-0.2,0.2-0.2,0.2-0.4,0.4c-0.2,0.2-0.2,0.1-0.2,0.2c-0.1,0.1-0.1,0.1-0.2,0.2
			c-0.2,0.2-0.4,0.5-0.5,0.9c0,0,0,0.3,0,0.4c0,0.1,0,0.1,0,0.2c0,0.4,0,0.7,0.1,1.1c0.1,0.3,0.2,0.5,0.3,0.8
			c0.1,0.2,0.2,0.4,0.3,0.6c0.2,0.3,0.3,0.6,0.5,0.9c0.3,0.4,0.5,0.7,0.5,0.8c0.3,0.3,0.5,0.7,0.9,1c0.3,0.3,0.6,0.6,1,0.9
			c0.3,0.2,0.5,0.4,0.6,0.5c0.2,0.2,0.4,0.3,0.6,0.4c0.2,0.1,0.4,0.2,0.7,0.3c0.2,0.1,0.4,0.1,0.5,0.1c0,0,0.3,0,0.6,0.1
			c0.3,0.1,0.7-0.1,2.2-1.2c0,0,0.2-0.1,0.4-0.3l0.2-0.2l0.3-0.3l0.2-0.2l0.1-0.3c0.2-0.2,0.3-0.4,0.4-0.7
			C159,70.2,159.2,70.1,159.3,70.1z"/>
		<path class="lauras-st22" d="M159.3,70.1c-0.1,0.2-0.2,0.4-0.3,0.5c-0.2,0.3-0.4,0.6-0.7,0.9c-0.2,0.3-0.5,0.5-0.7,0.7
			c-1.2,1.1-1.8,1.6-2.2,1.7c-0.5,0-1.1-0.1-1.6-0.4c-0.2-0.1-0.4-0.2-0.7-0.3c-0.2-0.1-0.4-0.3-0.6-0.4c-0.1-0.1-0.3-0.2-0.6-0.5
			c-0.3-0.3-0.7-0.6-1-0.9c-0.3-0.3-0.6-0.6-0.9-1c-0.1-0.1-0.3-0.4-0.5-0.8c-0.2-0.3-0.4-0.7-0.5-1c-0.1-0.1-0.2-0.3-0.3-0.6
			c-0.1-0.2-0.2-0.4-0.3-0.8c-0.2-0.4-0.3-0.9-0.2-1.4c0.1-0.3,0.3-0.6,0.5-0.8L149,65c0.2-0.2,0.3-0.3,0.5-0.4l0.1-0.1
			c0.1-0.1,0.2-0.2,0.3-0.3c0.2-0.1,0.2-0.1,0.5-0.3l0.3-0.2l0.1-0.1c0.3-0.2,0.6-0.4,0.6-0.4s0.2-0.1,0.5-0.2l0.2-0.1h0.1l0.2-0.1
			c0.2-0.1,0.4-0.1,0.6-0.1c0.1,0,0.2,0,0.2-0.1c0,0,0-0.1,0-0.1c1.8,2.3,3.7,4.7,5.5,7L159.3,70.1z"/>
		<path class="lauras-st21" d="M156.4,87.5c0.2,0,0.3,0.1,0.8,0.4c0.2,0.1,0.4,0.2,0.7,0.3c0.3,0.1,0.6,0.1,0.9,0.2c0.3,0,0.6,0,0.9-0.1
			c0.5-0.1,0.7-0.1,1.1-0.2c0.4-0.1,0.5-0.1,1.4-0.3c0.8-0.2,0.9-0.2,1.6-0.3c0.4-0.1,0.8-0.2,1.4-0.2l0.8-0.1
			c0.2,0,0.5-0.1,0.9-0.2c0.4-0.1,0.5-0.2,1-0.3c0.2-0.1,0.5-0.2,0.7-0.3c0.3-0.1,0.5-0.3,0.8-0.5c0.2-0.1,0.4-0.3,0.6-0.5
			c0.2-0.2,0.4-0.4,0.6-0.6c0.2-0.2,0.4-0.5,0.6-0.7c0.1-0.2,0.2-0.4,0.3-0.6c0.2-0.3,0.3-0.6,0.4-0.9c0.1-0.3,0.2-0.6,0.2-0.9
			c0.1-0.3,0.1-0.5,0.1-0.8c0-0.3,0-0.6,0-0.9c0-0.3-0.1-0.4-0.1-0.6c0-0.3-0.1-0.5-0.2-0.8l-0.2-0.6c-0.2-0.4-0.3-0.6-0.4-1
			c0-0.1-0.1-0.2-0.1-0.3c-0.1-0.2-0.1-0.2-0.2-0.6s-0.1-0.2-0.1-0.4c-0.1-0.2,0-0.1-0.1-0.3c-0.2-0.5-0.4-0.9-0.6-1.4
			c-0.1-0.3-0.3-0.5-0.5-0.7c-0.6-0.7-1.3-1.2-2.1-1.5c-0.3-0.1-0.5-0.2-0.8-0.2c-0.3-0.1-0.6-0.1-0.9-0.2c-0.2,0-0.5,0-0.8,0
			c-0.5,0.1-0.8,0.3-1.1,0.2c-0.1,0-0.1-0.1-0.2-0.1l-0.2-0.1c-0.3-0.2-0.7-0.4-1.1-0.5c-0.3-0.1-0.5-0.1-0.8-0.1
			c-0.2,0-0.5,0-0.7,0c-0.4,0.1-0.8,0.2-1.1,0.3c-0.4,0.2-0.8,0.4-1.1,0.6c-0.1,0.1-0.1,0.1-0.7,0.8l-0.7,0.7
			c-0.3,0.3-0.3,0.3-0.6,0.6c-0.3,0.3-0.4,0.4-0.6,0.6l-0.5,0.5c-0.2,0.2-0.2,0.2-0.4,0.5c-0.2,0.2-0.3,0.3-0.4,0.4
			c-0.1,0.1-0.2,0.3-0.3,0.4c-0.1,0.1-0.2,0.3-0.2,0.5c-0.2,0.3-0.2,0.3-0.3,0.5c-0.1,0.2-0.2,0.4-0.2,0.5c0,0.3,0,0.4-0.1,0.5
			c-0.1,0.1-0.1,0-0.2,0c-0.2,0-0.4-0.1-0.6-0.1h-0.6c-0.3,0-0.5,0.1-0.5,0.1c-0.2,0-0.4,0.1-0.7,0.1h-0.1l-0.3,0.1l-0.6,0.1
			c-0.3,0.1-0.3,0.1-0.5,0.2c-0.3,0.1-0.3,0.1-0.5,0.1c-0.3,0.1-0.6,0.4-0.8,0.7c-0.1,0.1-0.1,0.2-0.2,0.3c0,0-0.1,0.1-0.1,0.1
			c-0.2,0.4-0.3,0.7-0.3,1.1c0,0.3,0,0.6,0,0.8c0,0.3,0,0.5,0,0.6c0,0.4,0.1,0.7,0.2,1.1c0.1,0.5,0.2,0.8,0.2,0.9
			c0.1,0.4,0.3,0.8,0.4,1.2c0.2,0.4,0.4,0.7,0.6,1.1c0.2,0.3,0.3,0.6,0.4,0.6c0.1,0.2,0.3,0.4,0.4,0.6c0.1,0.2,0.3,0.4,0.5,0.5
			c0.1,0.1,0.3,0.2,0.4,0.3c0,0,0.3,0.2,0.5,0.3c0.2,0.1,0.7,0.2,2.5-0.3l0.7-0.3l0.4-0.1l0.3-0.1c0.3-0.2,0.6-0.5,0.9-0.8
			C156,87.9,156.2,87.6,156.4,87.5z"/>
		<path class="lauras-st23" d="M156.2,86.7c0,0.1,0,0.3,0,0.4c0,0.1,0.1,0.3,0.2,0.4c0.3,0.2,0.6,0.4,0.9,0.5h0.1c0.1,0.1,0.3,0.1,0.4,0.2
			c0.3,0.1,0.6,0.1,0.9,0.1c0.3,0,0.6,0,0.9-0.1c0.5-0.1,0.7-0.1,1.1-0.2c0.4-0.1,0.5-0.1,1.4-0.3c0.8-0.2,0.9-0.2,1.6-0.3
			c0.4-0.1,0.8-0.1,1.4-0.2c0.3,0,0.5-0.1,0.8-0.1c0.3,0,0.6-0.1,0.9-0.2c0.3-0.1,0.5-0.2,1-0.3c0.2-0.1,0.5-0.2,0.7-0.3
			c0.3-0.1,0.5-0.3,0.8-0.5c0.2-0.1,0.4-0.3,0.6-0.5c0.2-0.2,0.4-0.4,0.6-0.6c0.2-0.2,0.4-0.5,0.6-0.7c0.1-0.2,0.2-0.3,0.3-0.6
			c0.2-0.3,0.3-0.6,0.4-0.9c0.1-0.3,0.2-0.6,0.2-0.9c0.1-0.3,0.1-0.5,0.1-0.8c0-0.3,0-0.6,0-0.9c0-0.3-0.1-0.4-0.1-0.7
			c0-0.3-0.1-0.5-0.2-0.8c0,0,0-0.1-0.1-0.2c0-0.1-0.1-0.2-0.1-0.3c-0.2-0.1-2.4,5.6-6.4,7.5C161.4,87.5,156.4,85.7,156.2,86.7z"/>
		<path class="lauras-st23" d="M158.6,69.2c0,0,0,0,0.3,0.3l0.4,0.5c0.4,0.2,0.8,0.2,1.2,0.2c0.1,0,0.3,0,0.5,0c0.3,0,0.6-0.1,0.9-0.2
			c0.3-0.1,0.6-0.3,0.9-0.4c0.4-0.2,0.6-0.4,0.9-0.6c0.4-0.2,0.5-0.3,1.2-0.7c0.7-0.4,0.7-0.5,1.3-0.9c0.3-0.2,0.7-0.4,1.2-0.7
			c0.2-0.1,0.4-0.2,0.7-0.4c0.2-0.1,0.5-0.3,0.7-0.5c0.3-0.2,0.5-0.4,0.8-0.6c0.3-0.3,0.4-0.4,0.6-0.5c0.2-0.2,0.4-0.4,0.6-0.7
			c0.2-0.2,0.3-0.4,0.4-0.7c0.1-0.3,0.3-0.5,0.4-0.8c0.1-0.3,0.2-0.6,0.3-0.9c0-0.2,0.1-0.5,0.1-0.7c0.1-0.3,0.1-0.7,0.1-1
			c0-0.3,0-0.6-0.1-0.9c0-0.3-0.1-0.5-0.2-0.8c-0.1-0.3-0.2-0.5-0.3-0.8c-0.1-0.2-0.2-0.4-0.3-0.6c-0.1-0.2-0.3-0.4-0.4-0.6
			l-0.1-0.2c-0.1-0.1-0.1-0.2-0.2-0.3c-0.2-0.1-0.2,6.1-3.3,9.3C164,68.1,158.5,68.8,158.6,69.2z"/>
		<path class="lauras-st22" d="M156.4,87.5l-0.5,0.4c-0.2,0.2-0.4,0.4-0.7,0.6c-0.3,0.2-0.6,0.4-1,0.6c-0.7,0.4-1.5,0.7-2.4,0.8h-0.1
			c-0.2-0.1-0.4-0.2-0.6-0.3c-0.4-0.2-0.7-0.5-1-0.9c-0.2-0.2-0.3-0.3-0.5-0.5c-0.2-0.2-0.3-0.4-0.4-0.6c-0.1-0.2-0.3-0.4-0.4-0.6
			c-0.2-0.4-0.4-0.7-0.6-1.1c-0.2-0.4-0.3-0.8-0.4-1.2c0-0.1-0.1-0.5-0.2-0.9c-0.1-0.4-0.1-0.7-0.2-1.1c0-0.1,0-0.4,0-0.6
			c0-0.3,0-0.5,0-0.8c0.1-0.4,0.2-0.8,0.3-1.1c0-0.1,0-0.1,0.1-0.2c0-0.1,0.2-0.3,0.2-0.3c0.2-0.3,0.5-0.6,0.8-0.7
			c0.1,0,0.1,0,0.5-0.1c0.2-0.1,0.5-0.1,0.7-0.2h0.2h0.2l0.3-0.1h0.1c0.3-0.1,0.7-0.1,0.7-0.1h0.5h0.6c0.2,0,0.5,0,0.6,0.1
			c0.1,0.1,0.2,0.1,0.2,0c0,0,0.1-0.1,0.1-0.1L156.4,87.5z"/>
		<path class="lauras-st24" d="M153.3,85.6l-0.2-0.4c0,0-0.1-0.2-0.2-0.4c-0.1-0.3-0.1-0.4-0.2-0.6c-0.1-0.3-0.2-0.5-0.2-0.7
			c-0.1-0.2-0.1-0.4-0.2-0.6c0-0.2-0.1-0.5-0.2-0.7c-0.1-0.3-0.1-0.5-0.1-0.5c0-0.1-0.1-0.2-0.1-0.3c0-0.1-0.1-0.1-0.1-0.2
			c0,0-0.1-0.1-0.2-0.1c-0.1,0-0.1,0-0.3,0.1l-0.2,0.1l-0.4,0.1l-0.3,0.1l-0.3,0.1l-0.3,0.1c-0.1,0-0.2,0.1-0.3,0.2
			c-0.1,0.1-0.1,0.1-0.1,0.2c0,0.1,0,0.2,0,0.3c0,0.2,0.1,0.4,0.1,0.6c0.2,0.7,0.1,0.6,0.3,1.1c0.1,0.2,0,0.2,0.2,0.7l0.3,0.8
			c0,0.2,0.1,0.4,0.2,0.5c0.1,0.2,0.1,0.3,0.2,0.4c0.2,0.4,0.3,0.4,0.3,0.4c0.1,0,0.2,0,0.4,0c0.2,0,0.4-0.1,0.5-0.2l0.4-0.1
			l0.4-0.1c0.1,0,0.2-0.1,0.3-0.1c0.1,0,0.1-0.1,0.2-0.2C153.5,85.9,153.5,85.8,153.3,85.6z"/>
		<path class="lauras-st25" d="M158.1,69.5l1.7,0.2L158.1,69.5z"/>
	</g>
</g>
</svg>
