<svg id="Layer_3" data-name="Layer 3" xmlns="http://www.w3.org/2000/svg" xmlns:xlink="http://www.w3.org/1999/xlink" viewBox="0 0 251 151"><defs><style>.cls-1{fill:none;}.cls-2{fill:#f4ed97;}.cls-3{fill:#e0d67c;}.cls-4{opacity:0.3;}.cls-5{fill:#5e3e21;}.cls-6{fill:#783a28;}.cls-7{opacity:0.15;}.cls-8{fill:#cecece;}.cls-9{fill:#4b5c61;}.cls-10{fill:#54371d;}.cls-11{fill:#6d3325;}.cls-12{fill:#dcb680;}.cls-13{fill:#8f4729;}.cls-14{opacity:0.2;}.cls-15{fill:#062633;opacity:0.1;isolation:isolate;}.cls-16{clip-path:url(#clip-path);}.cls-17{fill:#15576b;}.cls-18{fill:#5b5b5b;opacity:0.5;}</style><clipPath id="clip-path"><rect class="cls-1" x="229.33" y="54.73" width="4.38" height="5.4"/></clipPath></defs><title>Alina</title><path class="cls-2" d="M238.09,57.66a25.1,25.1,0,0,1-15.81,2.71,24.92,24.92,0,0,1,7.79-49.23,24.93,24.93,0,0,0,8,46.52Z"/><path class="cls-3" d="M201.61,40A24.94,24.94,0,0,0,237.1,58.15c-.83.14-1.68.24-2.54.31a28.63,28.63,0,0,1-30.21-34.74A24.73,24.73,0,0,0,201.61,40Z"/><g class="cls-4"><path class="cls-5" d="M82,95.1c-2.33-.13-4.28-.61-5.2-.08s-1,1.46.17,2.22,2.24,2.23,3.08,2.18,2.43-.18,2.75-.75a17.92,17.92,0,0,0,.31-3.58Z"/><path class="cls-6" d="M102.18,92.4c.39.32.45.54.46.71a4.64,4.64,0,0,1,0,.53,2.76,2.76,0,0,1-.34,1A3.82,3.82,0,0,1,101.08,96a16.27,16.27,0,0,1-2.92,1.68,28.86,28.86,0,0,1-6,1.87,32.25,32.25,0,0,1-6.11.71c-1.06,0-2.09,0-3.1-.08a5.25,5.25,0,0,1-1.53-.23,4.32,4.32,0,0,1-.76-.42,1.33,1.33,0,0,1-.36-.35l-.17-.26C80,98.82,80,98.68,80,98l.24-2.15a2.9,2.9,0,0,1,.26-.8l.14-.26a1.72,1.72,0,0,1,.37-.28,5.73,5.73,0,0,1,.7-.23,4.79,4.79,0,0,1,1.36-.08c.92,0,1.84,0,2.76,0,1.85,0,3.71,0,5.53-.12a37,37,0,0,0,5.34-.63,10,10,0,0,0,2.38-.76l.53-.22.57-.17c.21-.06.43-.11.64-.15a3,3,0,0,0,.42-.06,1.72,1.72,0,0,1,.81.09Z"/></g><g class="cls-4"><path class="cls-5" d="M94,78c-1-2.08-1.6-4-2.52-4.54s-1.8-.13-1.84,1.26-.69,3.2-.34,3.73c.47.71,1.39,2.05,2,2a18.4,18.4,0,0,0,3.24-1.52Z"/><path class="cls-6" d="M106.6,93.93c-.1.49-.25.65-.4.73a2.23,2.23,0,0,1-.48.26,2.72,2.72,0,0,1-1,.21,4.19,4.19,0,0,1-1.78-.38A15.41,15.41,0,0,1,100,93a28.17,28.17,0,0,1-4.67-4.26,34.82,34.82,0,0,1-3.68-4.94c-.55-.89-1-1.81-1.47-2.71a5.18,5.18,0,0,1-.53-1.42,3.2,3.2,0,0,1-.07-.87,1.21,1.21,0,0,1,.11-.49l.15-.28c0-.07.11-.19.67-.5l2-.87c.61-.2.75-.22.83-.17l.3,0a1.56,1.56,0,0,1,.4.22,4.15,4.15,0,0,1,1.31,1.65c.45.81.93,1.6,1.39,2.39,1,1.58,1.87,3.19,2.88,4.72a34.38,34.38,0,0,0,3.19,4.39,10.24,10.24,0,0,0,1.85,1.69l.46.34.43.4c.16.16.32.32.46.49a2.85,2.85,0,0,0,.25.33c.1.08.19.25.34.75Z"/></g><g class="cls-7"><path class="cls-8" d="M231.27,55.35a4,4,0,0,1,1.26,1.41,2.82,2.82,0,0,1,.28,1.89,4.22,4.22,0,0,1-.88,1.69c-.42.47-.85.89-1.28,1.33-1.73,1.73-3.53,3.37-5.35,5Q219.83,71.53,214,76q-11.6,9-24,16.72A331.49,331.49,0,0,1,137.62,119c-9.08,3.66-18.35,6.85-27.71,9.66s-18.9,5-28.49,7c-9.59,1.72-19.26,3.31-29,4.13-4.86.53-9.75.76-14.62,1.07-2.43.16-4.88.16-7.32.22s-4.88.11-7.32.11v-.3c9.69-.9,19.38-1.76,29-3.18l7.21-1,7.18-1.22,3.59-.61,3.58-.71,7.14-1.41,7.1-1.57c1.18-.27,2.37-.51,3.55-.81l3.53-.89c2.34-.61,4.72-1.12,7.06-1.76l7-1.93c9.33-2.62,18.59-5.56,27.67-9A328.72,328.72,0,0,0,189.2,91.47c8.34-5,16.47-10.35,24.28-16.15q5.86-4.36,11.43-9.07c1.84-1.59,3.68-3.19,5.43-4.87.43-.42.87-.85,1.28-1.28a3.86,3.86,0,0,0,.82-1.5,3,3,0,0,0-1.33-3Z"/></g><path class="cls-5" d="M88.15,85.59c-1.85-1.42-3.22-3-4.25-3s-1.63.64-1.08,1.94.75,3.23,1.31,3.54c.72.44,2.13,1.25,2.69.94a18.43,18.43,0,0,0,2.28-2.78Z"/><path class="cls-6" d="M106.3,94.72a.91.91,0,0,1,0,.84A2.73,2.73,0,0,1,106,96a2.47,2.47,0,0,1-.79.61,3.89,3.89,0,0,1-1.77.43,17.19,17.19,0,0,1-3.36-.27,28.46,28.46,0,0,1-6-1.84,31.92,31.92,0,0,1-5.46-2.87c-.88-.59-1.71-1.19-2.5-1.82a5.16,5.16,0,0,1-1.14-1,3.55,3.55,0,0,1-.45-.75,1.33,1.33,0,0,1-.09-.49v-.31a2.48,2.48,0,0,1,.42-.74l1.39-1.64c.45-.44.6-.54.66-.5l.29-.1a1.44,1.44,0,0,1,.46,0c.25.06.48.13.72.21a5.62,5.62,0,0,1,1.2.66c.76.54,1.52,1,2.28,1.56,1.55,1,3.07,2.07,4.63,3a36.4,36.4,0,0,0,4.78,2.53,10.64,10.64,0,0,0,2.39.73,4,4,0,0,1,.58.11l.55.18a3.41,3.41,0,0,1,.63.24l.36.2a1.91,1.91,0,0,1,.63.54Z"/><path class="cls-9" d="M109.35,90s-1,.09-4-3.29-2.83-4.52-2.83-4.52l15.4-12a8.75,8.75,0,0,0,2.21,3.37,11,11,0,0,0,3.14,2.73L109.35,90"/><path class="cls-5" d="M97.1,118.67c-1.86,2.09-1.36,3-1.36,3l1.82.57h0c1,.34,2.51.65,4,1.11,2.87,1,5.69,2.07,6,.88.52-1.69-1.65-3.83-4.81-4.8a9.8,9.8,0,0,0-1.6-.38,3.31,3.31,0,0,0-.35-2.43s-3.76-.91-3.79-.43S97.5,118.34,97.1,118.67Z"/><path class="cls-10" d="M114,122.2c-.08,2.76.88,3.11.88,3.11l1.74-.77h0c1-.41,2.32-1.17,3.72-1.7,2.76-1.14,5.63-2.11,5.12-3.25-.69-1.59-3.73-1.85-6.77-.52a9.51,9.51,0,0,0-1.45.76,12.18,12.18,0,0,0,0-2.63s-5.31,2.73-5,3.11S114,121.67,114,122.2Z"/><path class="cls-11" d="M108.29,107.25a3.38,3.38,0,0,1,1.06,2.14c0,.61-.06,1.18-.07,1.78-.09,1.15-.26,2.29-.37,3.43a27.64,27.64,0,0,1-.66,3.38l-.4,1.67a3.35,3.35,0,0,1-.2.83,1.28,1.28,0,0,1-1,.6L96,117.77c-.46-.44-.6-.78-.53-1.07a3.94,3.94,0,0,1,.27-.82l.63-1.61c.42-1.08.85-2.13,1.36-3.17S98.8,109,99.35,108c.39-.5.6-1,1-1.5a3.42,3.42,0,0,1,2.09-1.15Z"/><path class="cls-6" d="M115.07,106.51a3.67,3.67,0,0,1,2.25.84c.36.43.75.92,1.14,1.38.73.94,1.47,1.85,2.1,2.85s1.25,2,1.82,3l.85,1.51a4.23,4.23,0,0,1,.4.76,1.37,1.37,0,0,1-.36,1.11l-10.1,4.85a1.37,1.37,0,0,1-1.08-.41,4.51,4.51,0,0,1-.32-.79l-.63-1.65c-.41-1.07-.79-2.16-1.12-3.25s-.6-2.23-.86-3.35c-.11-.6-.24-1.16-.33-1.76a3.41,3.41,0,0,1,.76-2.27Z"/><path class="cls-12" d="M108.26,96.18c-4-.92-6.09-3.17-6.19-4.29-.24.13,0,1.51.16,2.07-6.81-8.74-5-13-4.41-14.23-.25-.07-1.17,1.47-1.32,1.74a13.17,13.17,0,0,1,3.38-11.4,4.71,4.71,0,0,0-2.47.54c2.06-3.7,4.14-3.74,5.91-4a1.69,1.69,0,0,0-1.16-.42c1.56-.69,3.74,0,3.78-.16s.77.1-1.74-2.12l.31-.08A2.67,2.67,0,0,1,107.58,66a1.78,1.78,0,0,1,.91-1.44,4.22,4.22,0,0,1,4.22.2A2.08,2.08,0,0,0,111.42,66a4.83,4.83,0,0,1,5,1.18,3.71,3.71,0,0,0-1.78.11c.66.07,6.76,3.13,8.79,13.43a6.75,6.75,0,0,0-.82-1.16,19.06,19.06,0,0,1,.37,3.61c0,3.44-1.48,5.24-.89,6.85s.7,1.15.77,1.29-1,.18-1.41-.89.23,1.52-1.43,4.23c-1.2,2-1.24,4.29-2.32,5.43C116.25,98.33,113.74,97.41,108.26,96.18Z"/><path class="cls-13" d="M124.4,106.6l0-.55a.86.86,0,0,0,0-.17c0-9.43-2.77-17.69-14.54-18.32h0C98,86.89,93.58,98.18,93.82,112h0c-.3,5.24,8.05,5.33,15.15,5.72,8.2.42,14.82.31,15-3.43l.19-3.83C124.23,109.06,124.32,107.78,124.4,106.6Z"/><path class="cls-5" d="M139.47,91.76a21.7,21.7,0,0,0,1.08,4c.45.62,2.33.49,3.3.4.74-.06,1.84-2,3.06-3s.93-2.1-.25-2.57-3.29.43-5.91,1Z"/><path class="cls-6" d="M116.66,92.39c.58-.25.83-.33,1-.27a2.05,2.05,0,0,0,.49,0,6.83,6.83,0,0,1,.78.06l.69.07c.23,0,.44.1.66.15a11.32,11.32,0,0,0,3,.33,42.4,42.4,0,0,0,6.37-.38c2.15-.28,4.32-.66,6.48-1,1.09-.18,2.17-.36,3.26-.57a6.7,6.7,0,0,1,1.61-.2,5.07,5.07,0,0,1,.87.13,1.66,1.66,0,0,1,.47.26l.24.25c.09,0,.19.18.44.88l.63,2.44c.14.76.06.91,0,1l-.18.32a1.76,1.76,0,0,1-.37.49,4.23,4.23,0,0,1-.86.59,6.11,6.11,0,0,1-1.81.55c-1.17.29-8.72,2.38-11.16,2.33a34.31,34.31,0,0,1-7.35-.92,18.11,18.11,0,0,1-3.69-1.34,4.55,4.55,0,0,1-1.66-1.32c-.24-.31-.16-1.77-.27-2.15a4.37,4.37,0,0,1-.11-.63,1.33,1.33,0,0,1,.42-.91Z"/><path class="cls-13" d="M104.2,69.7h0a13,13,0,1,0,15.19,10.36A13,13,0,0,0,104.18,69.71Z"/><g class="cls-14"><path class="cls-8" d="M231.31,60.07a5.35,5.35,0,0,0,1.53.32c.25,0,.48-.07.69,0a3.81,3.81,0,0,1,.79.31v.09a1.12,1.12,0,0,1-.8.6,1.52,1.52,0,0,1-.91-.19,3.68,3.68,0,0,1-1.4-1Z"/></g><g class="cls-14"><path class="cls-8" d="M231.52,60.26a3.48,3.48,0,0,1-1.4,1,1.53,1.53,0,0,1-.91.2,1.16,1.16,0,0,1-.79-.61v-.09a3.14,3.14,0,0,1,.79-.3c.21-.09.44,0,.69,0a5,5,0,0,0,1.52-.32Z"/></g><g class="cls-4"><path class="cls-5" d="M136,107.17a22.9,22.9,0,0,0-2.1,3.62c-.13.75,1.29,2,2.05,2.62.56.47,2.69-.07,4.31,0s2.12-.85,1.63-2-2.63-2-4.87-3.49Z"/><path class="cls-6" d="M119.39,91.46a2,2,0,0,1,.86.47,2.82,2.82,0,0,0,.36.33,5.67,5.67,0,0,1,.52.58l.44.54c.14.2.24.39.36.58a12.7,12.7,0,0,0,1.81,2.32,41,41,0,0,0,4.81,4.22c1.72,1.34,3.53,2.58,5.31,3.87.89.63,1.75,1.25,2.7,1.89a6.28,6.28,0,0,1,1.29,1,5.17,5.17,0,0,1,.52.71,1.32,1.32,0,0,1,.16.51v.34c0,.11,0,.26-.3.94l-1.29,2.17c-.44.6-.61.75-.68.71l-.35.14a1.77,1.77,0,0,1-.6.08,4.46,4.46,0,0,1-1-.19,6.79,6.79,0,0,1-1.66-.83c-1-.63-7.88-4.49-9.52-6.24a33.55,33.55,0,0,1-4.58-5.9,18.55,18.55,0,0,1-1.67-3.55,4.41,4.41,0,0,1-.23-2.1c0-.39,1.13-1.38,1.32-1.72a5.88,5.88,0,0,1,.36-.51c.13-.16.33-.32,1-.37Z"/></g><g class="cls-4"><path class="cls-5" d="M134.62,80.16a21.82,21.82,0,0,0,3,2.87c.74.32,2.23-.81,3-1.4s.56-2.65,1-4.19-.36-2.27-1.58-2-2.55,2.1-4.5,4Z"/><path class="cls-6" d="M115.49,92.8a2.2,2.2,0,0,1,.66-.73,3.62,3.62,0,0,0,.41-.27,6.52,6.52,0,0,1,.68-.38l.63-.3c.22-.09.43-.14.64-.22a11.41,11.41,0,0,0,2.67-1.25,42.56,42.56,0,0,0,5.21-3.73c1.71-1.36,3.34-2.83,5-4.27.82-.74,1.64-1.46,2.45-2.21a7.41,7.41,0,0,1,1.28-1,5.58,5.58,0,0,1,.79-.35,2,2,0,0,1,.54,0l.34.09c.12,0,.27,0,.86.48l1.82,1.74c.48.57.57.75.53.82l0,.38a1.78,1.78,0,0,1,0,.61,5.82,5.82,0,0,1-.42,1,6.7,6.7,0,0,1-1.19,1.41c-.89.84-6.19,6.63-8.29,7.84a32.46,32.46,0,0,1-6.78,3.1,18.88,18.88,0,0,1-3.79.84,4.3,4.3,0,0,1-2.1-.25c-.37-.13-1.07-1.41-1.37-1.67a3.72,3.72,0,0,1-.41-.48c-.13-.15-.24-.4-.14-1Z"/></g><g class="cls-4"><path class="cls-5" d="M138.22,99.25a21.46,21.46,0,0,0,0,4.24c.26.73,2.1,1.09,3.07,1.26.74.15,2.33-1.41,3.78-2.08s1.39-1.74.43-2.55-3.25-.5-5.93-.68Z"/><path class="cls-6" d="M116.09,93.82c.63-.1.85-.09,1,0l.48.1a6.44,6.44,0,0,1,.74.25l.64.25.6.33a11.51,11.51,0,0,0,2.71,1.13,43.23,43.23,0,0,0,6.28,1.31c2.15.32,4.35.51,6.52.74,1.09.11,2.18.23,3.29.31a6.88,6.88,0,0,1,1.62.23,8.08,8.08,0,0,1,.8.35,1.49,1.49,0,0,1,.38.37l.17.31c.08.07.14.22.2,1l-.08,2.49a2.82,2.82,0,0,1-.25,1l-.24.28a1.61,1.61,0,0,1-.48.38,5.82,5.82,0,0,1-1,.35,6.69,6.69,0,0,1-1.84.08c-1.22,0-9,0-11.38-.72a33.61,33.61,0,0,1-6.87-2.87,19,19,0,0,1-3.21-2.27,4.39,4.39,0,0,1-1.24-1.71c-.16-.37.31-1.75.31-2.15a3.36,3.36,0,0,1,.06-.63c0-.19.14-.44.64-.78Z"/></g><path class="cls-15" d="M82.83,84.61c.56,1.3.74,3.23,1.3,3.54l.36.2,0,.11a3.55,3.55,0,0,0,.45.75,5,5,0,0,0,1.14,1.05c.8.62,1.62,1.23,2.49,1.82A34.24,34.24,0,0,0,94.05,95c.82.35,1.65.66,2.5.93-2,4.33-2.87,10-2.76,16.21a3.7,3.7,0,0,0,2,3.61l-.15.27a4.14,4.14,0,0,0-.27.82c-.07.29.07.63.53,1.06l1.34.42a.68.68,0,0,1-.12.48c-1.86,2.09-1.36,3-1.36,3l1.82.57c1.06.34,2.52.65,4,1.11,2.88.95,5.74,1.95,6,.88s-.42-2.31-1.81-3.34l.83.26a1.33,1.33,0,0,0,1.05-.58,4,4,0,0,0,.2-.83l.4-1.68a3.38,3.38,0,0,0,.08-.34l.57,0,1.53.07c.23.7.48,1.43.74,2.13l.65,1.6a4.71,4.71,0,0,0,.32.81,1.39,1.39,0,0,0,1.08.4l.72-.35c0,2.59.9,2.93.9,2.93l1.74-.78c1-.42,2.31-1.17,3.72-1.7,2.75-1.13,5.62-2.1,5.12-3.25a2.93,2.93,0,0,0-2.77-1.35l.64-.3a1.41,1.41,0,0,0,.35-1.11,5.05,5.05,0,0,0-.39-.77l-.08-.12a2.59,2.59,0,0,0,.7-1.68l.19-3.82c.14-1.39.21-2.67.26-3.79l0-.54a.86.86,0,0,0,0-.17,33.59,33.59,0,0,0-.62-6.71,34.46,34.46,0,0,0,5.45.62c2.43.07,10-2,11.16-2.32a6.32,6.32,0,0,0,1.75-.58,5.18,5.18,0,0,0,.87-.6h0c.3,0,.59,0,.83-.06.73-.06,1.85-2,3.07-3s.9-2.11-.26-2.57c-.93-.37-2.41.07-4.23.54h0l-.25-.26a1.46,1.46,0,0,0-.46-.25,7.91,7.91,0,0,0-.87-.13,6.37,6.37,0,0,0-1.62.21c-1.08.21-2.17.39-3.25.57-2.17.33-4.33.75-6.48,1a42.39,42.39,0,0,1-6.37.37,12,12,0,0,1-2.23-.24c.48-1.73.24-2.9.53-2.11.4,1.07,1.51,1,1.42.88s-.19.33-.78-1.29,1-3.45.89-6.84a20.85,20.85,0,0,0-.37-3.61,7.23,7.23,0,0,1,.83,1.14,28.65,28.65,0,0,0-1-3.63l.83-.84a12.8,12.8,0,0,1-1.55-1.1c-2.63-5.9-6.59-7.83-7.11-7.89a3.43,3.43,0,0,1,1.77-.11,4.83,4.83,0,0,0-5-1.18,2.13,2.13,0,0,1,1.29-1.15,4.27,4.27,0,0,0-4.14-.27,1.76,1.76,0,0,0-.9,1.44v0a2.64,2.64,0,0,0-3.07-2.13l-.31.07c2.51,2.22,1.78,2,1.74,2.12s-2.22-.53-3.78.16a1.74,1.74,0,0,1,1.17.42c-1.78.21-3.86.26-5.92,4A4.91,4.91,0,0,1,99.9,70a13.24,13.24,0,0,0-2,2.82,13,13,0,0,0-2.22,16.8c-1.32-.83-2.61-1.7-3.92-2.56l-2.29-1.56a5.42,5.42,0,0,0-1.2-.67q-.36-.12-.72-.21a1.42,1.42,0,0,0-.46,0l-.15.06c-1.27-1-2.24-2-3.06-2C82.83,82.62,82.27,83.3,82.83,84.61Z"/><g class="cls-16"><g class="cls-14"><path class="cls-17" d="M231.27,55.35a4,4,0,0,1,1.26,1.41,2.82,2.82,0,0,1,.28,1.89,4.22,4.22,0,0,1-.88,1.69c-.42.47-.85.89-1.28,1.33-1.73,1.73-3.53,3.37-5.35,5Q219.83,71.53,214,76q-11.6,9-24,16.72A331.49,331.49,0,0,1,137.62,119c-9.08,3.66-18.35,6.85-27.71,9.66s-18.9,5-28.49,7c-9.59,1.72-19.26,3.31-29,4.13-4.86.53-9.75.76-14.62,1.07-2.43.16-4.88.16-7.32.22s-4.88.11-7.32.11v-.3c9.69-.9,19.38-1.76,29-3.18l7.21-1,7.18-1.22,3.59-.61,3.58-.71,7.14-1.41,7.1-1.57c1.18-.27,2.37-.51,3.55-.81l3.53-.89c2.34-.61,4.72-1.12,7.06-1.76l7-1.93c9.33-2.62,18.59-5.56,27.67-9A328.72,328.72,0,0,0,189.2,91.47c8.34-5,16.47-10.35,24.28-16.15q5.86-4.36,11.43-9.07c1.84-1.59,3.68-3.19,5.43-4.87.43-.42.87-.85,1.28-1.28a3.86,3.86,0,0,0,.82-1.5,3,3,0,0,0-1.33-3Z"/></g></g><path class="cls-18" d="M238.09,57.66a25.1,25.1,0,0,1-15.81,2.71,24.92,24.92,0,0,1,7.79-49.23,24.93,24.93,0,0,0,8,46.52Z"/></svg>