<?xml version="1.0" encoding="utf-8"?>
<!-- Generator: Adobe Illustrator 22.1.0, SVG Export Plug-In . SVG Version: 6.00 Build 0)  -->
<svg version="1.1" id="Layer_3" xmlns="http://www.w3.org/2000/svg" xmlns:xlink="http://www.w3.org/1999/xlink" x="0px" y="0px"
	 viewBox="0 0 251 151" style="enable-background:new 0 0 251 151;" xml:space="preserve">
<style type="text/css">
	.st0{fill:#F4ED97;}
	.st1{fill:#E0D67C;}
	.st2{opacity:0.3;}
	.st3{fill:#5E3E21;}
	.st4{fill:#783A28;}
	.st5{opacity:0.15;}
	.st6{fill:#CECECE;}
	.st7{fill:#54371D;}
	.st8{fill:#6D3325;}
	.st9{fill:#DCB680;}
	.st10{fill:#8F4729;}
	.st11{opacity:0.2;}
	.st12{opacity:0.1;fill:#062633;enable-background:new    ;}
	.st13{clip-path:url(#SVGID_2_);}
	.st14{fill:#15576B;}
	.st15{opacity:0.5;fill:#5B5B5B;enable-background:new    ;}
</style>
<title>Alina</title>
<path class="st0" d="M216.3,59.4c-4.4,2.4-9.4,3.2-14.3,2.5c-12.3-2-20.7-13.5-18.8-25.8c2-12.3,13.5-20.7,25.8-18.8
	c-10.9,6-15,19.7-9.1,30.6C203.3,54,209.4,58.3,216.3,59.4L216.3,59.4z"/>
<path class="st1" d="M183.3,43.4c2.1,12.3,13.8,20.5,26.1,18.4c2.1-0.3,4.1-1,6-2c-0.7,0.2-1.6,0.2-2.3,0.2
	c-14.3,1.1-26.7-9.6-27.9-23.8c-0.2-2.5,0-5.1,0.6-7.7C183.3,33.2,182.4,38.3,183.3,43.4z"/>
<g class="st2">
	<path class="st3" d="M58.4,82.2c-3.1-0.2-5.8-0.8-7-0.1c-1.3,0.7-1.3,2,0.3,3c1.6,1,3.1,3.1,4.1,3c1.2-0.1,3.3-0.3,3.7-1
		c0.3-1.6,0.4-3.2,0.4-4.9L58.4,82.2z"/>
	<path class="st4" d="M85.7,78.5c0.5,0.4,0.6,0.7,0.6,1c0,0.3,0,0.4,0,0.7c-0.1,0.4-0.2,0.9-0.4,1.3c-0.4,0.7-1,1.3-1.6,1.8
		c-1.3,0.9-2.5,1.6-4,2.2c-2.6,1.2-5.3,2-8.1,2.5c-2.7,0.5-5.5,0.9-8.3,1c-1.4,0-2.8,0-4.2-0.1c-0.7,0-1.4-0.1-2.1-0.3
		c-0.4-0.2-0.7-0.4-1-0.5c-0.2-0.1-0.4-0.3-0.4-0.4l-0.3-0.4c-0.2-0.2-0.2-0.4-0.2-1.3l0.4-2.9c0.1-0.4,0.2-0.7,0.4-1.1l0.2-0.4
		c0.2-0.2,0.4-0.3,0.5-0.4c0.3-0.1,0.6-0.3,1-0.3c0.6-0.1,1.3-0.2,1.8-0.1c1.3,0,2.5,0,3.7,0c2.5,0,5,0,7.5-0.2
		c2.4-0.1,4.9-0.4,7.2-0.8c1.1-0.2,2.2-0.5,3.2-1l0.7-0.3l0.8-0.3c0.3-0.1,0.5-0.2,0.9-0.2c0.2,0,0.4,0,0.5-0.1
		C84.9,78.2,85.2,78.3,85.7,78.5L85.7,78.5z"/>
</g>
<g class="st2">
	<path class="st3" d="M74.6,59.1c-1.3-2.8-2.2-5.4-3.4-6.1c-1.3-0.7-2.4-0.2-2.5,1.7c-0.1,1.9-0.9,4.3-0.4,5c0.6,1,1.9,2.8,2.7,2.7
		c1.5-0.5,3-1.3,4.4-2.1L74.6,59.1z"/>
	<path class="st4" d="M91.6,80.6c-0.2,0.6-0.4,0.9-0.5,1c-0.2,0.2-0.4,0.3-0.6,0.4c-0.4,0.2-0.9,0.3-1.3,0.3c-0.8,0-1.6-0.2-2.4-0.5
		c-1.4-0.6-2.7-1.4-4-2.3c-2.3-1.7-4.4-3.6-6.3-5.8c-1.9-2.1-3.5-4.3-4.9-6.7c-0.7-1.2-1.3-2.4-2-3.7c-0.4-0.6-0.5-1.3-0.7-1.9
		c-0.1-0.4-0.1-0.8-0.1-1.2c0-0.3,0.1-0.4,0.2-0.6l0.2-0.4c0-0.1,0.2-0.3,0.9-0.7l2.7-1.2c0.8-0.3,1-0.3,1.1-0.3h0.4
		c0.2,0.1,0.4,0.2,0.5,0.3c0.8,0.5,1.3,1.3,1.8,2.2c0.6,1.1,1.3,2.2,1.9,3.2c1.3,2.2,2.5,4.3,3.9,6.4c1.3,2.1,2.7,4,4.3,5.9
		c0.7,0.9,1.6,1.6,2.5,2.2l0.6,0.4l0.5,0.5c0.2,0.2,0.4,0.4,0.6,0.6c0.1,0.2,0.2,0.3,0.4,0.4c0.2,0.1,0.3,0.4,0.4,1L91.6,80.6
		L91.6,80.6z"/>
</g>
<g class="st5">
	<path class="st6" d="M210.1,57.3c0.5,0.3,0.9,0.7,1.1,1.3c0.2,0.5,0.4,1.1,0.2,1.7c-0.2,0.6-0.4,1.1-0.8,1.6
		c-0.4,0.4-0.7,0.8-1.1,1.2c-1.6,1.6-3.2,3-4.8,4.5c-3.3,2.9-6.7,5.7-10.2,8.4c-7,5.4-14.2,10.5-21.7,15.1
		c-15,9.3-31,17.2-47.4,23.8c-8.3,3.3-16.6,6.2-25.1,8.7c-8.5,2.5-17.1,4.5-25.8,6.4c-8.7,1.6-17.4,3-26.2,3.8
		c-4.4,0.5-8.8,0.7-13.2,1c-2.2,0.2-4.4,0.2-6.6,0.2c-2.2,0.1-4.4,0.1-6.6,0.1v-0.2c8.7-0.8,17.6-1.6,26.2-2.9l6.5-0.9l6.5-1.1
		l3.3-0.6l3.3-0.7l6.5-1.3l6.5-1.4c1.1-0.2,2.1-0.5,3.2-0.7l3.2-0.8c2.1-0.6,4.2-1,6.4-1.6l6.4-1.7c8.4-2.4,16.8-5.1,25.1-8.2
		c16.5-6.2,32.3-13.9,47.5-23c7.5-4.5,14.9-9.4,22-14.6c3.5-2.6,6.9-5.4,10.4-8.2c1.6-1.5,3.3-2.9,4.9-4.4c0.4-0.4,0.8-0.7,1.1-1.1
		c0.3-0.4,0.6-0.8,0.7-1.4c0.2-1.1-0.3-2.1-1.2-2.7L210.1,57.3z"/>
</g>
<path class="st3" d="M66.7,69.3c-2.5-1.9-4.3-4-5.8-4c-1.4,0-2.2,0.9-1.4,2.6c0.7,1.8,1,4.4,1.8,4.8c1,0.6,2.9,1.7,3.6,1.3
	c1.2-1.2,2.2-2.4,3.1-3.8L66.7,69.3z"/>
<path class="st4" d="M91.3,81.6c0.2,0.4,0.2,0.8,0,1.2c-0.1,0.2-0.3,0.4-0.4,0.6c-0.3,0.4-0.6,0.6-1.1,0.8c-0.7,0.4-1.5,0.5-2.4,0.5
	c-1.5,0-3.1-0.1-4.5-0.4c-2.8-0.5-5.5-1.3-8.1-2.5c-2.6-1.1-5-2.3-7.4-3.9c-1.2-0.8-2.3-1.6-3.4-2.4c-0.5-0.4-1.1-0.8-1.5-1.3
	c-0.3-0.3-0.4-0.6-0.6-1c0-0.3-0.1-0.5-0.1-0.7v-0.4c0.1-0.4,0.4-0.7,0.5-1l1.9-2.2c0.6-0.6,0.8-0.7,0.9-0.7l0.4-0.2
	c0.2,0,0.4,0,0.6,0c0.4,0.1,0.6,0.2,1,0.3c0.5,0.3,1.1,0.5,1.6,0.9c1,0.7,2.1,1.3,3.1,2.1c2.1,1.3,4.1,2.8,6.3,4
	c2.1,1.3,4.2,2.4,6.5,3.4c1.1,0.4,2.2,0.8,3.2,1c0.3,0,0.5,0.1,0.8,0.2l0.7,0.3c0.3,0.1,0.5,0.2,0.8,0.4l0.4,0.3
	c0.4,0.2,0.6,0.4,0.8,0.7V81.6z"/>
<path class="st3" d="M78.9,114c-2.5,2.8-1.8,4-1.8,4l2.4,0.8l0,0c1.3,0.4,3.4,0.9,5.4,1.5c3.9,1.3,7.7,2.8,8.1,1.2
	c0.7-2.2-2.2-5.2-6.5-6.5c-0.7-0.3-1.4-0.4-2.2-0.5c0.3-1.1,0.1-2.2-0.4-3.3c0,0-5.1-1.3-5.1-0.5C78.7,111.3,79.4,113.6,78.9,114z"
	/>
<path class="st7" d="M101.7,118.8c-0.1,3.7,1.2,4.2,1.2,4.2l2.3-1.1l0,0c1.3-0.5,3.1-1.6,5-2.3c3.7-1.5,7.6-2.9,6.9-4.4
	c-0.9-2.2-5-2.5-9.2-0.7c-0.7,0.3-1.3,0.6-2,1c0.1-1.2,0.1-2.3,0-3.6c0,0-7.2,3.7-6.7,4.2C99.7,116.7,101.7,118.1,101.7,118.8z"/>
<path class="st8" d="M94,98.6c0.8,0.7,1.3,1.8,1.4,2.9c0,0.8-0.1,1.6-0.1,2.4c-0.1,1.5-0.4,3.1-0.5,4.7c-0.2,1.5-0.5,3.1-0.9,4.6
	l-0.5,2.2c0,0.4-0.1,0.7-0.3,1.1c-0.3,0.4-0.8,0.8-1.3,0.8l-14.4-4.5c-0.6-0.6-0.8-1.1-0.7-1.4c0.1-0.4,0.2-0.7,0.4-1.1l0.9-2.2
	c0.5-1.4,1.2-2.9,1.8-4.3c0.7-1.4,1.4-2.9,2.2-4.2c0.5-0.7,0.8-1.3,1.3-2.1c0.7-0.8,1.7-1.3,2.8-1.5L94,98.6z"/>
<path class="st4" d="M103.2,97.6c1.1,0,2.2,0.4,3.1,1.2c0.4,0.5,1,1.3,1.5,1.9c1,1.3,2,2.5,2.9,3.9c0.8,1.3,1.7,2.7,2.4,4l1.2,2.1
	c0.2,0.4,0.4,0.6,0.5,1c0.1,0.5-0.1,1.1-0.4,1.5l-13.7,6.6c-0.5,0-1.1-0.2-1.4-0.5c-0.2-0.4-0.4-0.7-0.4-1.1l-0.8-2.2
	c-0.5-1.4-1.1-2.9-1.5-4.4c-0.4-1.4-0.8-3.1-1.2-4.5c-0.2-0.8-0.4-1.5-0.4-2.3c0-1.1,0.4-2.2,1-3.1L103.2,97.6z"/>
<path class="st9" d="M93.9,83.6c-5.4-1.3-8.3-4.3-8.4-5.8c-0.4,0.2,0,2.1,0.2,2.8c-9.2-11.8-6.7-17.5-5.9-19.3
	c-0.4-0.1-1.6,2-1.8,2.3c-1-5.6,0.7-11.3,4.6-15.4c-1.2-0.1-2.3,0.2-3.3,0.7c2.8-5,5.6-5,8-5.4c-0.4-0.4-1-0.5-1.5-0.5
	c2.1-0.9,5,0,5.1-0.2s1.1,0.2-2.3-2.9l0.4-0.1c2-0.4,3.8,1,4.1,3c0.1-0.8,0.5-1.5,1.3-2c1.8-0.9,4-0.8,5.7,0.3
	c-0.8,0.3-1.4,0.9-1.7,1.7c2.3-0.8,5-0.2,6.7,1.6c-0.8-0.2-1.6-0.1-2.4,0.2c0.9,0.1,9.2,4.2,11.9,18.2c-0.3-0.5-0.7-1.1-1.1-1.5
	c0.4,1.6,0.4,3.2,0.5,4.9c0,4.7-2,7.1-1.2,9.3c0.8,2.2,1,1.5,1.1,1.7c0.1,0.2-1.3,0.3-1.9-1.2c-0.5-1.4,0.3,2.1-1.9,5.8
	c-1.6,2.7-1.7,5.8-3.1,7.4C104.7,86.5,101.4,85.2,93.9,83.6z"/>
<path class="st10" d="M115.7,97.7V97c0-0.1,0-0.2,0-0.3C115.7,84,112,72.8,96,72l0,0c-16-0.9-22,14.4-21.7,33l0,0
	c-0.4,7.1,10.9,7.2,20.5,7.7c11.1,0.5,20.1,0.4,20.2-4.7l0.3-5.2C115.5,101,115.7,99.3,115.7,97.7z"/>
<path class="st3" d="M136.1,77.6c0.3,1.9,0.8,3.7,1.4,5.4c0.6,0.8,3.1,0.6,4.5,0.5c1-0.1,2.5-2.7,4.1-4s1.3-2.9-0.4-3.5
	c-1.6-0.6-4.4,0.5-8,1.3L136.1,77.6z"/>
<path class="st4" d="M105.3,78.5c0.8-0.4,1.1-0.4,1.3-0.4c0.2,0,0.4,0,0.6,0c0.4,0,0.7,0,1.1,0.1l0.9,0.1c0.3,0,0.6,0.2,0.9,0.2
	c1.3,0.4,2.7,0.4,4,0.4c2.9,0.1,5.8-0.1,8.6-0.5c2.9-0.4,5.8-0.9,8.7-1.3c1.4-0.3,3-0.4,4.4-0.8c0.7-0.2,1.4-0.3,2.2-0.3
	c0.4,0,0.8,0.1,1.2,0.2c0.3,0.1,0.4,0.2,0.6,0.4l0.4,0.4c0.1,0,0.3,0.3,0.6,1.2l0.8,3.3c0.2,1,0.1,1.3,0,1.3l-0.3,0.4
	c-0.1,0.3-0.3,0.4-0.5,0.6c-0.4,0.3-0.7,0.5-1.2,0.8c-0.8,0.4-1.6,0.6-2.4,0.7c-1.6,0.4-11.8,3.2-15.1,3.1c-3.3-0.1-6.7-0.4-9.9-1.3
	c-1.7-0.4-3.4-1-4.9-1.8c-0.9-0.4-1.6-1-2.2-1.8c-0.4-0.4-0.2-2.4-0.4-2.9c-0.1-0.3-0.1-0.5-0.2-0.8c0-0.4,0.3-0.9,0.5-1.3
	L105.3,78.5z"/>
<path class="st10" d="M88.4,47.8L88.4,47.8c-9.5,1.8-15.8,11-14,20.5s11,15.8,20.5,14s15.8-11,14-20.5C107.2,52.3,97.9,46,88.4,47.8
	L88.4,47.8L88.4,47.8z"/>
<g class="st11">
	<path class="st6" d="M210.2,61.6c0.4,0.2,0.9,0.2,1.4,0.3c0.2,0,0.4-0.1,0.7,0c0.2,0.1,0.5,0.2,0.7,0.2v0.1
		c-0.2,0.2-0.4,0.5-0.7,0.6c-0.2,0-0.6,0-0.8-0.2c-0.5-0.2-0.9-0.5-1.3-0.9L210.2,61.6z"/>
</g>
<g class="st11">
	<path class="st6" d="M210.3,61.8c-0.3,0.4-0.7,0.7-1.3,0.9c-0.2,0.2-0.6,0.2-0.8,0.2c-0.3-0.1-0.6-0.2-0.7-0.6v-0.1
		c0.2-0.1,0.5-0.2,0.7-0.2c0.2-0.1,0.4,0,0.7,0c0.5,0,0.9-0.1,1.4-0.3L210.3,61.8z"/>
</g>
<g class="st2">
	<path class="st3" d="M131.4,98.5c-1.1,1.5-2.1,3.1-2.9,4.9c-0.2,1,1.7,2.7,2.8,3.5c0.7,0.6,3.6-0.1,5.8,0c2.2,0.1,2.9-1.2,2.2-2.7
		c-0.7-1.5-3.6-2.7-6.6-4.7L131.4,98.5z"/>
	<path class="st4" d="M109,77.2c0.4,0.1,0.8,0.4,1.2,0.6c0.2,0.2,0.3,0.3,0.4,0.4c0.3,0.3,0.4,0.5,0.7,0.8l0.6,0.7
		c0.2,0.3,0.4,0.5,0.4,0.8c0.7,1.2,1.5,2.2,2.4,3.1c2,2.1,4.2,4,6.5,5.7c2.3,1.8,4.8,3.5,7.2,5.2c1.2,0.8,2.3,1.7,3.7,2.5
		c0.6,0.4,1.3,0.8,1.7,1.3c0.3,0.3,0.5,0.6,0.7,1c0.1,0.2,0.2,0.4,0.2,0.7v0.4c0,0.2,0,0.4-0.4,1.3l-1.7,3c-0.6,0.8-0.8,1-0.9,1
		l-0.4,0.2c-0.3,0.1-0.5,0.1-0.8,0.1c-0.4,0-0.9-0.1-1.3-0.3c-0.8-0.3-1.5-0.6-2.2-1.1c-1.3-0.8-10.6-6-12.9-8.5
		c-2.3-2.4-4.4-5.1-6.2-8c-0.9-1.5-1.7-3.1-2.2-4.8c-0.4-0.9-0.4-1.9-0.3-2.9c0-0.5,1.5-1.9,1.8-2.3c0.2-0.3,0.3-0.4,0.4-0.7
		C107.7,77.5,108,77.3,109,77.2L109,77.2z"/>
</g>
<g class="st2">
	<path class="st3" d="M129.6,61.9c1.3,1.4,2.6,2.7,4,3.9c1,0.4,3.1-1.1,4-1.9c1.1-0.8,0.7-3.6,1.3-5.7s-0.4-3.1-2.2-2.7
		c-1.6,0.4-3.4,2.9-6.1,5.4L129.6,61.9z"/>
	<path class="st4" d="M103.7,79c0.2-0.4,0.5-0.7,0.9-1c0.2-0.1,0.4-0.3,0.5-0.4c0.3-0.2,0.6-0.4,0.9-0.5l0.8-0.4
		c0.3-0.1,0.5-0.2,0.9-0.3c1.3-0.4,2.5-1,3.6-1.7c2.4-1.5,4.9-3.1,7-5c2.3-1.8,4.5-3.9,6.7-5.8c1.1-1,2.2-2,3.3-3
		c0.5-0.5,1.1-1,1.7-1.3c0.4-0.2,0.7-0.4,1.1-0.4c0.3,0,0.4,0,0.7,0l0.4,0.1c0.2,0,0.4,0,1.2,0.6l2.4,2.3c0.6,0.8,0.8,1,0.7,1.1v0.5
		c0.1,0.3,0.1,0.5,0,0.8c-0.2,0.4-0.4,0.9-0.5,1.3c-0.4,0.7-1,1.3-1.6,1.9c-1.2,1.2-8.4,9-11.2,10.6c-2.9,1.7-5.9,3.1-9.2,4.2
		c-1.7,0.5-3.4,0.9-5.1,1.2c-1,0.1-2,0-2.9-0.4c-0.5-0.2-1.4-1.9-1.9-2.2c-0.2-0.2-0.4-0.4-0.5-0.6c-0.2-0.2-0.4-0.5-0.2-1.3
		L103.7,79z"/>
</g>
<g class="st2">
	<path class="st3" d="M134.5,87.8c-0.2,1.9-0.2,3.9,0,5.8c0.4,1,2.9,1.4,4.1,1.7c1,0.2,3.1-1.9,5.1-2.8c2-0.9,1.9-2.3,0.5-3.4
		c-1.3-1.1-4.4-0.7-8-0.9L134.5,87.8z"/>
	<path class="st4" d="M104.5,80.4c0.8-0.2,1.2-0.1,1.3,0l0.6,0.2c0.4,0.1,0.6,0.2,1,0.4l0.9,0.4l0.8,0.4c1.2,0.6,2.3,1.2,3.7,1.5
		c2.8,0.8,5.6,1.3,8.5,1.8c2.9,0.4,5.8,0.7,8.8,1c1.4,0.2,3,0.3,4.4,0.4c0.7,0,1.4,0.1,2.2,0.3c0.4,0.2,0.7,0.3,1.1,0.4
		c0.2,0.1,0.4,0.3,0.5,0.5l0.3,0.4c0.1,0.1,0.2,0.3,0.3,1.3l-0.1,3.3c0,0.4-0.2,0.9-0.4,1.3l-0.4,0.4c-0.2,0.2-0.4,0.4-0.6,0.5
		c-0.4,0.2-0.9,0.4-1.3,0.4c-0.8,0.2-1.6,0.2-2.5,0.1c-1.6,0-12.1,0-15.4-1c-3.2-1-6.4-2.2-9.3-3.9c-1.5-0.9-3-1.9-4.3-3.1
		c-0.7-0.6-1.3-1.4-1.7-2.3c-0.2-0.5,0.4-2.3,0.4-2.9c0-0.3,0-0.5,0.1-0.8c0-0.3,0.2-0.6,0.9-1.1L104.5,80.4z"/>
</g>
<path class="st12" d="M59.5,68c0.7,1.8,1,4.4,1.8,4.8l0.4,0.3v0.2c0.2,0.4,0.4,0.7,0.6,1c0.4,0.5,1,1,1.5,1.4
	c1.1,0.8,2.2,1.6,3.3,2.4c2.3,1.5,4.9,2.9,7.4,4c1.1,0.4,2.2,0.9,3.4,1.3c-2.7,5.8-3.9,13.5-3.7,22c-0.2,2.1,0.9,4,2.7,4.9l-0.2,0.4
	c-0.2,0.4-0.3,0.7-0.4,1.1c-0.1,0.4,0.1,0.8,0.7,1.4l1.8,0.5c0,0.3,0,0.4-0.2,0.6c-2.5,2.8-1.8,4-1.8,4l2.4,0.8
	c1.4,0.4,3.4,0.9,5.4,1.5c3.9,1.3,7.7,2.6,8.1,1.2c0.4-1.4-0.5-3.1-2.4-4.5l1.1,0.4c0.5,0,1.1-0.3,1.4-0.8c0.1-0.4,0.2-0.7,0.3-1.1
	l0.5-2.2c0-0.2,0.1-0.3,0.1-0.4h0.8l2.1,0.1c0.3,1,0.6,1.9,1,2.9l0.9,2.2c0.1,0.4,0.3,0.7,0.4,1.1c0.4,0.4,0.9,0.5,1.4,0.5l1-0.4
	c0,3.5,1.3,4,1.3,4l2.3-1.1c1.3-0.5,3.1-1.6,5-2.3c3.7-1.5,7.6-2.9,6.9-4.4c-0.8-1.3-2.2-2-3.8-1.8l0.9-0.4c0.4-0.4,0.5-1,0.4-1.5
	c-0.2-0.4-0.4-0.7-0.5-1.1l-0.1-0.2c0.5-0.6,0.9-1.4,1-2.2l0.3-5.1c0.2-1.9,0.3-3.6,0.4-5.1v-0.7c0-0.1,0-0.2,0-0.3
	c0-3.1-0.3-6.1-0.8-9.1c2.4,0.4,4.9,0.7,7.4,0.8c3.3,0.1,13.5-2.7,15.1-3.1c0.8-0.2,1.6-0.4,2.3-0.8c0.4-0.3,0.8-0.5,1.2-0.8l0,0
	c0.4,0,0.8,0,1.1-0.1c1-0.1,2.5-2.7,4.1-4c1.6-1.3,1.3-2.9-0.4-3.5c-1.3-0.5-3.2,0.1-5.8,0.7l0,0l-0.4-0.4c-0.2-0.2-0.4-0.3-0.6-0.4
	c-0.4-0.1-0.8-0.2-1.2-0.2c-0.7,0-1.4,0.1-2.2,0.3c-1.4,0.3-3,0.5-4.4,0.8c-3,0.4-5.8,1-8.7,1.3s-5.8,0.5-8.6,0.5
	c-1,0-2-0.1-3.1-0.4c0.6-2.3,0.4-4,0.7-2.9c0.5,1.4,2.1,1.3,1.9,1.2c-0.2-0.2-0.3,0.4-1.1-1.7c-0.8-2.2,1.3-4.7,1.2-9.3
	c0-1.6-0.2-3.2-0.5-4.9c0.4,0.4,0.8,1,1.1,1.5c-0.4-1.6-0.8-3.3-1.3-4.9l1.1-1.2c-0.7-0.4-1.4-0.9-2.1-1.5c-3.6-8-8.9-10.6-9.6-10.7
	c0.8-0.3,1.6-0.3,2.4-0.2c-1.8-1.8-4.4-2.4-6.7-1.6c0.4-0.7,1-1.3,1.7-1.5c-1.7-1.1-3.8-1.3-5.6-0.4c-0.7,0.4-1.2,1.2-1.3,2l0,0
	c-0.4-2-2.2-3.2-4.1-2.9l0,0l-0.4,0.1c3.4,3,2.4,2.7,2.3,2.9s-3-0.7-5.1,0.2c0.5,0,1.2,0.2,1.6,0.5c-2.4,0.3-5.2,0.4-8,5.4
	c1.1-0.6,2.2-1,3.4-1c-1.1,1.2-2,2.4-2.7,3.8c-6.5,5.8-7.7,15.5-3,22.7c-1.8-1.1-3.5-2.3-5.3-3.4l-3.1-2.1c-0.5-0.4-1.1-0.6-1.6-0.9
	c-0.4-0.1-0.6-0.2-1-0.3c-0.2,0-0.4,0-0.6,0l-0.2,0.1c-1.7-1.3-3.1-2.7-4.1-2.7C59.5,65.3,58.8,66.2,59.5,68z"/>
<g>
	<g>
		<defs>
			<rect id="SVGID_1_" x="208.4" y="56.7" width="4" height="4.9"/>
		</defs>
		<clipPath id="SVGID_2_">
			<use xlink:href="#SVGID_1_"  style="overflow:visible;"/>
		</clipPath>
		<g class="st13">
			<g class="st11">
				<path class="st14" d="M210.1,57.3c0.5,0.3,0.9,0.7,1.1,1.3c0.2,0.5,0.4,1.1,0.2,1.7c-0.2,0.6-0.4,1.1-0.8,1.6
					c-0.4,0.4-0.7,0.8-1.1,1.2c-1.6,1.6-3.2,3-4.8,4.5c-3.3,2.9-6.7,5.7-10.2,8.4c-7,5.4-14.2,10.5-21.7,15.1
					c-15,9.3-31,17.2-47.4,23.8c-8.3,3.3-16.6,6.2-25.1,8.7c-8.5,2.5-17.1,4.5-25.8,6.4c-8.7,1.6-17.4,3-26.2,3.8
					c-4.4,0.5-8.8,0.7-13.2,1c-2.2,0.2-4.4,0.2-6.6,0.2c-2.2,0.1-4.4,0.1-6.6,0.1v-0.2c8.7-0.8,17.6-1.6,26.2-2.9l6.5-0.9l6.5-1.1
					l3.3-0.6l3.3-0.7l6.5-1.3l6.5-1.4c1.1-0.2,2.1-0.5,3.2-0.7l3.2-0.8c2.1-0.6,4.2-1,6.4-1.6l6.4-1.7c8.4-2.4,16.8-5.1,25.1-8.2
					c16.5-6.2,32.3-13.9,47.5-23c7.5-4.5,14.9-9.4,22-14.6c3.5-2.6,6.9-5.4,10.4-8.2c1.6-1.5,3.3-2.9,4.9-4.4
					c0.4-0.4,0.8-0.7,1.1-1.1c0.3-0.4,0.6-0.8,0.7-1.4c0.2-1.1-0.3-2.1-1.2-2.7L210.1,57.3z"/>
			</g>
		</g>
	</g>
</g>
<path class="st15" d="M216.3,59.4c-4.4,2.4-9.4,3.2-14.3,2.5c-12.3-2-20.7-13.5-18.8-25.8c2-12.3,13.5-20.7,25.8-18.8
	c-10.9,6-15,19.7-9.1,30.6C203.3,54,209.4,58.3,216.3,59.4L216.3,59.4z"/>
</svg>
