<?xml version="1.0" encoding="utf-8"?>
<!-- Generator: Adobe Illustrator 22.1.0, SVG Export Plug-In . SVG Version: 6.00 Build 0)  -->
<svg version="1.1" id="Layer_3" xmlns="http://www.w3.org/2000/svg" xmlns:xlink="http://www.w3.org/1999/xlink" x="0px" y="0px"
	 viewBox="0 0 251 151" style="enable-background:new 0 0 251 151;" xml:space="preserve">
<style type="text/css">
	.st0{opacity:0.25;}
	.st1{fill:#E6EEEA;}
	.st2{fill:#E6EEEA;stroke:#FFFFFF;stroke-width:2;stroke-miterlimit:10;}
	.st3{fill:#E6EEEA;stroke:#FFFFFF;stroke-miterlimit:10;}
	.st4{fill:#FFFFFF;}
	.st5{fill:#B28A6A;}
	.st6{fill:#9E7855;}
	.st7{fill:#54371D;}
	.st8{fill:#5E3E21;}
	.st9{fill:#DCB680;}
	.st10{fill:#6D3325;}
	.st11{fill:#783A28;}
	.st12{fill:#8F4729;}
	.st13{fill:#E84C59;}
	.st14{fill:#EE7B5C;}
	.st15{fill:#F9C862;}
	.st16{fill:#062633;}
	.st17{fill:#ABAAAA;}
	.st18{fill:#E1DFE0;}
	.st19{fill:#6E6E6E;}
	.st20{fill:#C0C0C0;}
	.st21{fill:none;}
	.st22{fill:#041D26;}
</style>
<title>Anton</title>
<g class="st0">
	<path class="st1" d="M144.8,7c-0.1,0-0.1-0.1-0.1-0.1l0,0V6.1c0-0.1,0.1-0.1,0.1-0.1l0,0l0,0c0.1,0,0.1,0.1,0.1,0.1v0.8
		C144.9,6.9,144.9,7,144.8,7C144.8,7,144.8,7,144.8,7L144.8,7z"/>
	<path class="st1" d="M144.1,7.2L144.1,7.2l-0.6-0.5c0-0.1,0-0.1,0-0.2c0,0,0.1,0,0.1,0c0,0,0.1,0,0.1,0l0.5,0.5
		C144.2,7.1,144.2,7.1,144.1,7.2C144.2,7.2,144.2,7.2,144.1,7.2L144.1,7.2z"/>
	<path class="st1" d="M143.1,7.8c-0.1,0-0.1-0.1-0.1-0.1c0-0.1,0.1-0.1,0.1-0.1h0.7c0.1,0,0.1,0.1,0.1,0.1l0,0
		c0,0.1-0.1,0.1-0.1,0.1L143.1,7.8L143.1,7.8z"/>
	<path class="st1" d="M143.5,9c-0.1,0-0.1-0.1-0.1-0.1c0,0,0-0.1,0-0.1l0.5-0.5h0.2c0,0,0,0.1,0,0.1c0,0,0,0.1,0,0.1L143.5,9
		C143.5,9,143.5,9,143.5,9z"/>
	<path class="st1" d="M144.7,9.6c-0.1,0-0.1-0.1-0.1-0.1l0,0V8.7c0-0.1,0-0.1,0.1-0.1c0,0,0,0,0,0l0,0c0.1,0,0.1,0,0.1,0.1
		c0,0,0,0,0,0v0.8C144.8,9.5,144.7,9.6,144.7,9.6C144.7,9.6,144.7,9.6,144.7,9.6L144.7,9.6z"/>
	<path class="st1" d="M145.9,9.1L145.9,9.1l-0.6-0.5c0-0.1,0-0.1,0-0.2h0.2L146,9C146,9,146,9,145.9,9.1
		C146,9.1,145.9,9.2,145.9,9.1L145.9,9.1z"/>
	<path class="st1" d="M145.6,8c-0.1,0-0.1-0.1-0.1-0.1c0-0.1,0.1-0.1,0.1-0.1l0,0h0.7c0.1,0,0.1,0,0.1,0.1c0,0,0,0,0,0
		c0,0.1-0.1,0.1-0.1,0.1l0,0H145.6L145.6,8z"/>
	<path class="st1" d="M145.4,7.3c-0.1,0-0.1-0.1-0.1-0.1l0,0V7.1l0.5-0.5c0,0,0.1,0,0.1,0c0,0,0.1,0,0.1,0c0,0,0,0.1,0,0.2
		c0,0,0,0,0,0l0,0L145.4,7.3L145.4,7.3z"/>
	<path class="st1" d="M150.7,16.4c-0.1,0-0.2-0.1-0.2-0.2c0,0,0,0,0,0l0,0v-2.4c0-0.1,0.1-0.2,0.1-0.2c0,0,0,0,0,0l0,0
		c0.1,0,0.2,0.1,0.2,0.2l0,0v2.4C150.8,16.2,150.7,16.3,150.7,16.4C150.6,16.3,150.6,16.3,150.7,16.4L150.7,16.4z"/>
	<path class="st1" d="M149.5,15.2c-0.1,0-0.2-0.1-0.2-0.2c0-0.1,0.1-0.2,0.2-0.2h2.4c0.1,0,0.2,0.1,0.2,0.2c0,0,0,0,0,0
		c0,0.1-0.1,0.2-0.2,0.2l0,0C151.8,15.2,149.5,15.2,149.5,15.2z"/>
	<path class="st1" d="M171.8,30.6c-0.2,0-0.4-0.2-0.5-0.4l0,0c0.1-0.3,0.3-0.4,0.6-0.4c0.2,0,0.3,0.2,0.4,0.4
		C172.3,30.4,172.1,30.6,171.8,30.6z M170,29.8h-0.3c-0.2-0.2-0.2-0.4,0-0.6l0,0c0.1-0.1,0.2-0.1,0.3-0.1c0.1,0,0.2,0,0.3,0.1
		c0.2,0.2,0.2,0.4,0,0.6c0,0,0,0,0,0l0,0C170.3,29.9,170.1,29.9,170,29.8z M173.6,29.8c-0.3,0-0.4-0.2-0.4-0.5c0,0,0,0,0,0
		c0-0.1,0.1-0.2,0.1-0.3c0.2-0.2,0.4-0.2,0.6,0c0.1,0.1,0.1,0.2,0.1,0.3C174.1,29.6,173.9,29.8,173.6,29.8L173.6,29.8z M169.3,28
		c-0.3,0-0.5-0.2-0.5-0.4c0-0.3,0.2-0.5,0.4-0.5c0,0,0,0,0,0c0.2,0,0.5,0.2,0.5,0.4c0,0,0,0,0,0l0,0C169.7,27.8,169.5,28,169.3,28
		C169.3,28,169.3,28,169.3,28L169.3,28z M174.4,28c-0.2,0-0.4-0.2-0.5-0.4l0,0c0-0.3,0.1-0.5,0.4-0.6c0.3,0,0.5,0.1,0.5,0.4
		c0,0.1,0,0.1,0,0.2C174.8,27.8,174.6,28,174.4,28C174.4,28,174.4,28,174.4,28z M170,26.2c-0.3-0.1-0.4-0.3-0.4-0.6c0,0,0,0,0,0
		c0-0.2,0.2-0.3,0.4-0.4c0.1,0,0.2,0,0.3,0.1c0.2,0.2,0.2,0.5,0,0.6c0,0,0,0,0,0C170.2,26.2,170.1,26.2,170,26.2L170,26.2z
		 M173.6,26.2c-0.1,0-0.2,0-0.3-0.1c-0.2-0.2-0.2-0.5,0-0.6c0.1-0.1,0.2-0.2,0.3-0.2c0.1,0,0.2,0,0.3,0.1c0.2,0.2,0.2,0.4,0,0.6
		c0,0,0,0,0,0l0,0C173.8,26.1,173.7,26.2,173.6,26.2L173.6,26.2z M171.8,25.5c-0.2,0-0.4-0.2-0.4-0.4c0-0.2,0.2-0.4,0.4-0.4
		c0.2,0,0.4,0.2,0.4,0.4l0,0C172.2,25.3,172,25.4,171.8,25.5L171.8,25.5z"/>
	<path class="st1" d="M150.9,32.5c-0.3,0.1-0.5-0.1-0.6-0.4l-0.6-2.7c-0.1-0.3,0.1-0.5,0.4-0.6c0.2-0.1,0.5,0.1,0.6,0.3c0,0,0,0,0,0
		l0,0l0.6,2.7c0.1,0.2,0,0.5-0.3,0.6L150.9,32.5z"/>
	<path class="st1" d="M148.9,33.8c-0.1,0-0.3,0-0.4,0l-2.5-1.5c-0.1-0.1-0.2-0.2-0.2-0.3c0-0.1,0-0.2,0-0.4c0.1-0.1,0.2-0.2,0.3-0.2
		c0.1-0.1,0.3-0.1,0.4,0l2.3,1.5c0.2,0.1,0.3,0.4,0.2,0.6c0,0,0,0,0,0C149,33.7,148.9,33.8,148.9,33.8z"/>
	<path class="st1" d="M145.6,37c-0.2,0.1-0.5-0.1-0.6-0.3l0,0c-0.1-0.3,0.1-0.5,0.4-0.6l2.7-0.6c0.2-0.1,0.5,0.1,0.6,0.3
		c0,0,0,0,0,0l0,0c0.1,0.3-0.1,0.5-0.4,0.6L145.6,37z"/>
	<path class="st1" d="M156.7,39.2c-0.1,0-0.2,0-0.4,0l-2.4-1.5c-0.1-0.1-0.2-0.2-0.2-0.3c0-0.1,0-0.2,0-0.4c0.1-0.1,0.2-0.2,0.3-0.2
		c0.1-0.1,0.3-0.1,0.4,0l2.3,1.5c0.1,0.1,0.2,0.2,0.2,0.3c0,0.1,0,0.2,0,0.4C156.9,39.1,156.8,39.2,156.7,39.2z"/>
	<path class="st1" d="M154.9,35.2c-0.3,0.1-0.5-0.1-0.6-0.4c-0.1-0.3,0.1-0.5,0.4-0.6l2.7-0.6c0.2-0.1,0.5,0,0.7,0.2
		c0.1,0.2,0,0.5-0.2,0.7c0,0-0.1,0-0.1,0h-0.1L154.9,35.2z"/>
	<path class="st1" d="M153.6,33.1c-0.1,0-0.2,0-0.4,0c-0.2-0.1-0.3-0.4-0.2-0.6c0,0,0,0,0,0l0,0l1.5-2.4c0.1-0.1,0.2-0.2,0.3-0.2
		c0.1,0,0.2,0,0.4,0c0.2,0.1,0.3,0.4,0.2,0.6c0,0,0,0,0,0l-1.5,2.4C153.8,33,153.7,33.1,153.6,33.1z"/>
	<path class="st2" d="M159.1,8.7c-0.1,0-0.2-0.1-0.2-0.2V6c0-0.1,0.1-0.2,0.2-0.2c0.1,0,0.2,0.1,0.2,0.2l0,0v2.6
		C159.3,8.6,159.2,8.7,159.1,8.7z"/>
	<path class="st2" d="M157.8,7.4c-0.1,0-0.2-0.1-0.2-0.2c0-0.1,0.1-0.2,0.2-0.2h2.6c0.1,0,0.2,0.1,0.2,0.2c0,0.1-0.1,0.2-0.2,0.2
		c0,0,0,0,0,0H157.8z"/>
	<path class="st3" d="M139.4,31.9c-0.1,0-0.3-0.1-0.3-0.2l0,0v-3.7c0-0.1,0.1-0.3,0.3-0.3l0,0c0.1,0,0.3,0.1,0.3,0.3v3.7
		C139.6,31.7,139.5,31.8,139.4,31.9z"/>
	<path class="st3" d="M137.5,30c-0.1,0-0.3-0.1-0.3-0.3c0-0.1,0.1-0.3,0.3-0.3l0,0h3.6c0.1,0,0.3,0.1,0.3,0.3c0,0.1-0.1,0.3-0.3,0.3
		H137.5z"/>
	<path class="st2" d="M162.6,37.5c-0.5,0-0.9-0.4-0.9-0.9c0-0.5,0.4-0.9,0.9-0.9c0.5,0,0.9,0.4,0.9,0.9c0,0,0,0,0,0l0,0
		C163.6,37.1,163.2,37.5,162.6,37.5C162.7,37.5,162.7,37.5,162.6,37.5L162.6,37.5z M162.6,36c-0.3,0-0.6,0.2-0.6,0.6c0,0,0,0,0,0
		c0,0.3,0.2,0.6,0.6,0.6c0,0,0,0,0,0c0.3,0,0.6-0.2,0.6-0.6c0,0,0,0,0,0l0,0C163.2,36.3,163,36,162.6,36C162.7,36,162.7,36,162.6,36
		z"/>
	<path class="st2" d="M170.9,15.7c-0.7,0-1.2-0.5-1.2-1.2s0.5-1.2,1.2-1.2c0.7,0,1.2,0.5,1.2,1.2c0,0,0,0,0,0l0,0
		C172.1,15.2,171.6,15.7,170.9,15.7z M170.9,13.8c-0.4,0-0.8,0.3-0.8,0.8c0,0,0,0,0,0c0,0.4,0.3,0.8,0.8,0.8c0.4,0,0.8-0.3,0.8-0.8
		c0,0,0,0,0,0l0,0C171.7,14.1,171.4,13.8,170.9,13.8C170.9,13.8,170.9,13.8,170.9,13.8L170.9,13.8z"/>
	<g>
		<g>
			<path class="st4" d="M141.5,22.8V22l3.1-1.2v0.9l-1.1,0.3l-0.9,0.3v0l0.9,0.3l1.1,0.3V24L141.5,22.8z"/>
			<path class="st4" d="M145.3,20.3h1.2l0.7,1.8c0.1,0.2,0.1,0.5,0.2,0.8h0c0.1-0.3,0.1-0.5,0.2-0.8l0.6-1.8h1.2v4.3h-1v-1.3
				c0-0.4,0.1-1.1,0.1-1.5h0l-0.4,1l-0.5,1.4h-0.6l-0.5-1.4l-0.3-1h0c0.1,0.4,0.1,1.1,0.1,1.5v1.3h-1V20.3z"/>
			<path class="st4" d="M151.3,20.3h1.4l1.3,4.3h-1.2l-0.2-0.9h-1.2l-0.2,0.9H150L151.3,20.3z M151.6,22.8h0.8l-0.1-0.3
				c-0.1-0.4-0.2-0.9-0.3-1.4h0c-0.1,0.4-0.2,1-0.3,1.4L151.6,22.8z"/>
			<path class="st4" d="M154.2,22.5c0-1.5,1-2.3,2.2-2.3c0.6,0,1.1,0.3,1.4,0.6l-0.6,0.7c-0.2-0.2-0.4-0.3-0.8-0.3
				c-0.6,0-1,0.5-1,1.3c0,0.8,0.4,1.3,1.1,1.3c0.1,0,0.3,0,0.3-0.1V23h-0.6v-0.9h1.7v2.1c-0.3,0.3-0.9,0.5-1.5,0.5
				C155.1,24.7,154.2,24,154.2,22.5z"/>
			<path class="st4" d="M158.7,20.3h1.1v4.3h-1.1V20.3z"/>
			<path class="st4" d="M160.6,22.5c0-1.5,1-2.3,2.1-2.3c0.6,0,1,0.3,1.3,0.6l-0.6,0.7c-0.2-0.2-0.4-0.3-0.7-0.3
				c-0.5,0-0.9,0.5-0.9,1.3c0,0.8,0.4,1.3,0.9,1.3c0.3,0,0.6-0.2,0.8-0.4l0.6,0.7c-0.4,0.4-0.9,0.6-1.4,0.6
				C161.5,24.7,160.6,24,160.6,22.5z"/>
			<path class="st4" d="M164.4,23l1.1-0.3l0.9-0.3v0l-0.9-0.3l-1.1-0.3v-0.9l3.1,1.2v0.8l-3.1,1.2V23z"/>
		</g>
	</g>
	<path class="st5" d="M151.9,33.8L151.9,33.8c0.6,0.1,1,0.8,0.9,1.4c0,0,0,0,0,0l-15.1,64.9c-0.1,0.6-0.8,1-1.4,0.9c0,0,0,0,0,0l0,0
		c-0.6-0.1-1-0.8-0.9-1.4c0,0,0,0,0,0l15.1-64.9C150.7,34.1,151.3,33.7,151.9,33.8C151.9,33.8,151.9,33.8,151.9,33.8z"/>
	<path class="st4" d="M149.4,50.3l-2.3-0.5l3.5-15c0.1-0.6,0.8-1,1.4-0.9c0,0,0,0,0,0l0,0c0.6,0.1,1,0.8,0.9,1.4L149.4,50.3z"/>
	<rect x="147.3" y="47.6" transform="matrix(0.226 -0.9741 0.9741 0.226 67.363 182.4071)" class="st6" width="2.4" height="2.4"/>
	<circle class="st2" cx="137" cy="15.2" r="0.6"/>
</g>
<path class="st7" d="M88.3,105.1c-2.1,4-5.3,6.2-7.3,5.2c-2-1-2-4.9,0.1-8.9c2.1-4,5.5-6.4,7.5-5.3C90.5,97.1,90.4,101.1,88.3,105.1
	z"/>
<ellipse transform="matrix(0.4696 -0.8829 0.8829 0.4696 -45.4873 143.5852)" class="st8" cx="96.8" cy="109.7" rx="8.2" ry="4.1"/>
<path class="st9" d="M112.6,85.4c2-0.6,3.5-3.3,6.2-4.8c3.7-2.1,4.6-5.5,4.4-4s1,2.2,1.1,1.9c0-0.2-0.4,0.2-0.1-2
	c0.3-2.2,3.3-3.4,5.5-7.4c0.8-1.4,1.4-2.9,1.9-4.4c0.1,0.6,0.2,1.2,0.2,1.9c4.3-13.3-0.8-20.6-1.5-21.2c0.8,0.2,1.5,0.5,2.1,1
	c-1.6-4.1-4.6-4.5-5-4.5c0.6-0.5,1.5-0.7,2.2-0.5c-1.3-1.8-2.6-2.9-4.8-3c-0.8,0-1.5,0.4-2,1.1c0.6-1.8-0.3-3.8-2.1-4.5
	c-0.1-0.1-0.3-0.1-0.4-0.1c1.5,4.2,0.8,3.4,0.6,3.6c-0.2,0.2-2.3-2.1-4.5-2.3c0.5,0.3,0.9,0.7,1.1,1.3c-2.2-0.9-4.6-2.2-9.4,0.8
	c1.2,0,2.3,0.3,3.3,0.9c-0.6,0.2-8.7,2.7-11.3,11c0.4-0.2,2.4-1.4,2.6-1.2c-1.5,1.1-6.3,4.8-4.1,19.3c0.1-0.8,0.8-2.5,1.2-2.5
	c-0.6,1.3,0.4,5.3,4.4,9C109.7,79.9,112.1,82.5,112.6,85.4z"/>
<path class="st10" d="M97.3,88.9c0.7,0.8,1.1,1.9,1.1,3c-0.1,0.8-0.3,1.6-0.4,2.3c-0.3,1.5-0.6,3.1-1,4.5c-0.4,1.5-0.9,2.9-1.4,4.4
	l-0.8,2.2c-0.1,0.4-0.2,0.7-0.4,1.1c-0.4,0.4-0.9,0.6-1.5,0.6l-13.6-6c-0.4-0.4-0.6-0.9-0.5-1.5c0.1-0.4,0.3-0.7,0.5-1l1.1-2
	c0.7-1.3,1.5-2.7,2.3-4c0.8-1.3,1.7-2.6,2.7-3.9c0.5-0.6,0.9-1.3,1.5-1.8c0.8-0.7,1.8-1.2,2.9-1.2L97.3,88.9z"/>
<path class="st11" d="M107.9,94.5c0.7,0.8,1.1,1.9,1.1,3c-0.1,0.8-0.3,1.5-0.4,2.3c-0.3,1.5-0.6,3.1-1,4.5s-0.9,2.9-1.4,4.4
	l-0.8,2.2c-0.1,0.4-0.3,0.7-0.4,1.1c-0.4,0.4-0.9,0.6-1.5,0.6l-13.5-6c-0.4-0.4-0.6-0.9-0.5-1.5c0.1-0.4,0.3-0.7,0.5-1l1.1-2
	c0.7-1.3,1.5-2.7,2.3-4c0.8-1.3,1.7-2.6,2.7-3.9c0.5-0.6,0.9-1.3,1.5-1.8c0.8-0.7,1.9-1.1,2.9-1.1L107.9,94.5z"/>
<path class="st12" d="M119,95.5l0.3-0.7c0-0.1,0-0.1,0-0.2c4.6-11.6,5.3-23.1-8.9-29.7l0,0c-14.3-6.6-25.3,5.2-31.7,22.2l0,0
	c-2.9,6.3,7.3,10.5,15.9,14.5c9.9,4.6,18.1,7.7,20.2,3.2l2.1-4.6C117.6,98.6,118.4,97.1,119,95.5z"/>
<path class="st8" d="M138.1,75.1c0.6-2.1,2.6-6.4,7.3-4.4c6.3,2.8-6.4,14.9-0.1,7.6L138.1,75.1z"/>
<path class="st11" d="M114.2,78.7c0.6-0.1,1.2,0,1.7,0.3c0.2,0.2,0.5,0.3,0.7,0.5c0.4,0.3,0.7,0.6,1.1,1c0.6,0.6,1,1.2,1.4,1.9
	c0.6,1.1,1.4,2.2,2.4,3c0.6,0.5,1.3,0.8,2.1,0.7c0.3,0,0.7-0.1,1-0.2c0.4-0.2,0.9-0.4,1.3-0.6c1-0.6,2-1.3,2.8-2
	c1-0.9,1.9-1.9,2.9-2.9c1-1.1,1.9-2.2,2.7-3.4c0.4-0.6,0.9-1.2,1.4-1.7c0.3-0.3,0.7-0.5,1.1-0.7c0.3-0.1,0.5-0.2,0.8-0.2h0.6
	c0.1,0,0.3,0,0.4,0h0.2l0.3,0.1l0.3,0.1l0.4,0.2l4,1.9l0.4,0.2c0.1,0.1,0.3,0.2,0.3,0.2l0.2,0.2l0.1,0.1h0.1
	c0.1,0.1,0.2,0.2,0.3,0.3l0.3,0.6c0.1,0.3,0.2,0.6,0.2,0.9c0,0.5-0.1,1.1-0.2,1.6c-0.3,1-0.7,1.9-1.3,2.7c-1.1,1.8-2.4,3.4-3.7,4.9
	c-1.4,1.5-3,2.9-4.7,4.1c-1.9,1.3-3.9,2.3-6.1,3c-1.2,0.4-2.5,0.6-3.8,0.7c-1.4,0.1-2.8-0.1-4.2-0.4c-0.7-0.2-1.4-0.5-2-0.8
	c-0.6-0.3-1.2-0.7-1.8-1.1c-0.5-0.4-1-0.8-1.5-1.3l-0.7-0.7L115,91c-1.3-1.8-2.2-3.8-2.8-6c-0.1-0.5-0.2-1-0.3-1.5c0-0.5,0-1,0-1.5
	c0-0.5,0.2-1.1,0.4-1.5c0.1-0.3,0.3-0.5,0.4-0.8c0.1-0.3,0.4-0.6,1.4-1L114.2,78.7z"/>
<path class="st12" d="M127.4,63.4c-3,9-12.8,13.9-21.8,10.9c-9-3-13.9-12.8-10.9-21.8c3-9,12.8-13.9,21.8-10.9
	C125.6,44.6,130.5,54.4,127.4,63.4C127.4,63.4,127.4,63.4,127.4,63.4z"/>
<path class="st13" d="M83.6,100.5c1.5,5,3.7,14.7,1.9,20.3c-2.7,8.7-13.5,16.2-18.5,18.9c3.1-5.4,4.3-9.6,3.1-12.5
	c-0.4-0.9-1.7,2.6-4.6,3.5c0.5-2.3,0.5-4.6,0-6.9c-0.4-2.5-0.5-7.1,0.9-9.9c4.3-8.9,13.1-13.3,14.9-14.4L83.6,100.5z"/>
<path class="st14" d="M83.6,100.5c0.8,2.1,2.1,10,0.4,13.9c-1.7,3.9-9.4,8.8-12.8,12.9c0.4-4,1.3-5.5,0.3-8.7
	c-0.7-1.8-0.9-3.8-0.5-5.7c0.3-1.9,3.1-6.1,6.2-9.5c1.2-1.5,2.6-2.8,4.1-4L83.6,100.5z"/>
<path class="st15" d="M83.6,100.5c0.5,2.6,0.8,10-1.3,12.3c-2.1,2.2-4,1.9-7.5,5.2c-0.2-1.6,1.9-4.4,0.9-6c-0.8,0.9-1.1,1.7-2.3,2.2
	c0.9-1.5,0.6-3.4,1.3-5.5c0.7-2.4,2.8-4.1,4.4-5.9c0.9-1,1.6-2,2.2-3.2L83.6,100.5z"/>
<path class="st16" d="M82.3,101.8c4.2,1.7,7.9,2.1,8.4,0.9l-0.8,2.1c-0.5,1.2-4.2,0.8-8.4-0.9c-4.2-1.7-7.1-4-6.7-5.2l0.9-2.1
	C75.2,97.8,78.2,100.1,82.3,101.8z"/>
<path class="st16" d="M81.3,104.3c3.1,1.3,5.9,1.6,6.3,0.7l-0.6,1.6c-0.3,0.9-3.2,0.6-6.3-0.7c-3.1-1.3-5.4-3-5-3.9l0.6-1.6
	C76,101.3,78.2,103.1,81.3,104.3z"/>
<path class="st17" d="M99.5,75.4c-0.3,6.8-1.8,13.5-4.4,19.7l-3,7.5c-3.2-0.2-6.3-0.7-9.4-1.7c-2.8-1.4-5.5-3.1-7.9-5.2
	c0,0,1.1-3.2,2.9-7.6C80.1,81.9,83.7,76,88.3,71C91.6,73.3,95.4,74.9,99.5,75.4z"/>
<path class="st18" d="M97,65c1,0.4,2.6,4,2.4,10.4c-4-0.6-7.9-2.1-11.2-4.5C92.4,66.4,96,64.6,97,65z"/>
<path class="st16" d="M83.5,98.9c4.8,1.9,9.2,2.4,9.7,1l-1,2.6c-0.5,1.3-4.9,0.9-9.7-1c-4.8-1.9-8.3-4.6-7.7-6l1-2.5
	C75.2,94.3,78.7,96.9,83.5,98.9z"/>
<path class="st19" d="M79.9,93c-0.5,1.1-0.9,2.3-1.3,3.4c-1.9-1.2-3-2.4-3-3.2c0.5-1.3,1.1-3,1.9-5c2.4-6.3,6-12.2,10.6-17.2
	c0.8,0.6,1.7,1.1,2.6,1.6C86.4,78.9,82.7,85.8,79.9,93z"/>
<path class="st20" d="M88.2,71c4.2-4.6,7.9-6.3,8.8-5.9c0.2,0.1,0.3,0.2,0.4,0.3c-2.5,2.1-4.8,4.6-6.6,7.3
	C89.9,72.1,89,71.6,88.2,71z"/>
<path class="st13" d="M98.8,105.9c1.9,4.9,4.9,14.4,3.5,20.1c-2,8.9-12.2,17.2-17,20.3c2.7-5.7,3.5-9.9,2.1-12.7
	c-0.5-0.9-1.4,2.6-4.3,3.9c0.4-2.3,0.2-4.7-0.5-6.9c-0.6-2.5-1-7,0.1-9.9c3.6-9.2,12-14.3,13.7-15.6L98.8,105.9z"/>
<path class="st14" d="M98.8,105.9c1,2.1,2.8,9.9,1.5,13.9c-1.3,4-8.7,9.5-11.7,13.9c0.1-4,0.8-5.5-0.3-8.7c-1.1-3.2-1.1-3.7-1-5.6
	c0.1-1.9,2.6-6.3,5.4-9.9c1.1-1.6,2.3-3,3.8-4.3L98.8,105.9z"/>
<path class="st15" d="M98.8,105.9c0.7,2.6,1.6,9.9-0.3,12.3c-1.9,2.4-3.9,2.2-7.1,5.7c-0.4-1.6,1.5-4.5,0.4-6c-0.8,1-1,1.7-2.1,2.3
	c0.8-1.6,0.4-3.4,0.9-5.5c0.6-2.5,2.5-4.3,3.9-6.3c0.8-1,1.5-2.1,2-3.3L98.8,105.9z"/>
<path class="st16" d="M97.6,107.2c4.3,1.3,8,1.4,8.4,0.2l-0.7,2.2c-0.4,1.2-4.2,1.1-8.4-0.2c-4.3-1.3-7.4-3.4-7.1-4.6l0.7-2.2
	C90.2,103.9,93.3,105.9,97.6,107.2z"/>
<path class="st16" d="M96.8,109.9c3.2,1,6.1,1.1,6.3,0.2l-0.5,1.7c-0.3,0.9-3.1,0.8-6.3-0.2c-3.2-1-5.6-2.6-5.3-3.5l0.5-1.6
	C91.2,107.3,93.6,108.9,96.8,109.9z"/>
<path class="st17" d="M112.6,79.7c0.3,6.8-0.7,13.6-2.9,20l-2.4,7.7c-3.2,0.1-6.4-0.2-9.5-0.9c-2.9-1.2-5.7-2.7-8.3-4.5
	c0,0,0.9-3.3,2.3-7.8c1.9-6.5,5-12.6,9.2-18.1C104.6,78.2,108.5,79.4,112.6,79.7L112.6,79.7z"/>
<path class="st18" d="M109.3,69.5c1,0.3,2.9,3.9,3.2,10.2c-4.1-0.3-8.1-1.5-11.6-3.6C104.9,71.2,108.3,69.2,109.3,69.5z"/>
<path class="st16" d="M98.5,104.3c5,1.5,9.3,1.7,9.8,0.3l-0.8,2.6c-0.4,1.4-4.8,1.3-9.8-0.3c-5-1.6-8.6-3.9-8.2-5.3l0.8-2.6
	C89.9,100.4,93.6,102.8,98.5,104.3z"/>
<path class="st21" d="M90.7,103.4c0.7,0.5,1.4,1,2.1,1.4c0,0.1-0.1,0.2-0.1,0.3C91.9,104.7,91.2,104.1,90.7,103.4z"/>
<path class="st21" d="M91.6,107.1l0.5,0.3v0.2C91.9,107.4,91.8,107.3,91.6,107.1z"/>
<path class="st22" d="M92.7,105.1c-0.2,0.8-0.4,1.5-0.6,2.3l-0.5-0.3c-0.2-0.2-0.2-0.4-0.2-0.7l-0.1,0.5c-1.1-0.7-1.6-1.5-1.5-2
	l0.5-1.7l0.3,0.3C91.2,104.1,91.9,104.7,92.7,105.1z"/>
<path class="st22" d="M91.6,107.1c0.1,0.2,0.3,0.4,0.5,0.5c-0.1,0.6-0.3,1.2-0.4,1.8c-0.6-0.5-0.9-0.9-0.8-1.3l0.4-1.2l0.1-0.5
	C91.4,106.6,91.4,106.9,91.6,107.1z"/>
<path class="st19" d="M94.5,98.7c-0.4,1.2-0.7,2.3-1,3.5c-2-1.1-3.2-2.2-3.2-3c0.4-1.3,0.9-3.1,1.5-5.1c1.9-6.5,5-12.6,9.2-18.1
	c0.9,0.5,1.8,1,2.7,1.4C99.8,84.2,96.7,91.3,94.5,98.7z"/>
<path class="st20" d="M101,76.1c3.9-4.9,7.4-7,8.3-6.7c0.2,0,0.3,0.1,0.4,0.3c-2.4,2.3-4.4,4.9-6,7.7
	C102.7,77.1,101.8,76.6,101,76.1z"/>
<path class="st22" d="M93.4,102.2c-0.2,0.9-0.5,1.7-0.7,2.6c-0.7-0.4-1.5-0.9-2.1-1.4l-0.3-0.3c-0.4-0.3-0.7-0.7-0.8-1.2l0,0
	c0-0.1,0-0.3,0-0.5l0.8-2.6c0,0.1,0,0.2,0,0.3C90.3,100,91.5,101.1,93.4,102.2z"/>
</svg>
