<svg id="Layer_3" data-name="Layer 3" xmlns="http://www.w3.org/2000/svg" viewBox="0 0 251 151"><defs><style>.cls-1{opacity:0.25;}.cls-2,.cls-3,.cls-4{fill:#e6eeea;}.cls-3,.cls-4{stroke:#fff;stroke-miterlimit:10;}.cls-3{stroke-width:3px;}.cls-4{stroke-width:2px;}.cls-5,.cls-6,.cls-7{isolation:isolate;}.cls-6,.cls-7{font-size:5.56px;font-family:SourceSansPro-Black, Source Sans Pro;}.cls-6,.cls-7,.cls-9{fill:#fff;}.cls-7{letter-spacing:-0.01em;}.cls-8{fill:#b28a6a;}.cls-10{fill:#9e7855;}.cls-11{fill:#54371d;}.cls-12{fill:#5e3e21;}.cls-13{fill:#dcb680;}.cls-14{fill:#6d3325;}.cls-15{fill:#783a28;}.cls-16{fill:#8f4729;}.cls-17{fill:#e84c59;}.cls-18{fill:#ee7b5c;}.cls-19{fill:#f9c862;}.cls-20{fill:#062633;}.cls-21{fill:#abaaaa;}.cls-22{fill:#e1dfe0;}.cls-23{fill:#6e6e6e;}.cls-24{fill:silver;}.cls-25{fill:none;}.cls-26{fill:#041d26;}</style></defs><title>Anton</title><g class="cls-1"><path class="cls-2" d="M128.83,32.73a.11.11,0,0,1-.1-.1h0V32a.1.1,0,0,1,.1-.1h0a.1.1,0,0,1,.09.1v.59a.1.1,0,0,1-.09.11Z"/><path class="cls-2" d="M128.31,32.89h-.07l-.42-.41a.17.17,0,0,1,0-.14.08.08,0,0,1,.07,0,.08.08,0,0,1,.07,0l.42.42a.09.09,0,0,1,0,.07.06.06,0,0,1,0,.06Z"/><path class="cls-2" d="M127.48,33.38a.11.11,0,0,1-.1-.09.1.1,0,0,1,.1-.1H128a.09.09,0,0,1,.09.09h0a.09.09,0,0,1-.09.09h-.56Z"/><path class="cls-2" d="M127.83,34.32a.11.11,0,0,1-.1-.1.09.09,0,0,1,0-.07l.42-.42h.13a.09.09,0,0,1,0,.07.09.09,0,0,1,0,.07l-.41.42A.09.09,0,0,1,127.83,34.32Z"/><path class="cls-2" d="M128.73,34.73a.09.09,0,0,1-.09-.09h0v-.58a.09.09,0,0,1,.08-.1h0a.08.08,0,0,1,.1.08v.6a.09.09,0,0,1-.08.1Z"/><path class="cls-2" d="M129.67,34.38h-.07l-.42-.41a.1.1,0,0,1,0-.14h.14l.42.42a.08.08,0,0,1,0,.07.09.09,0,0,1-.09.09Z"/><path class="cls-2" d="M129.49,33.48a.11.11,0,0,1-.1-.1.1.1,0,0,1,.1-.1H130a.09.09,0,0,1,.1.1.1.1,0,0,1-.1.1h-.55Z"/><path class="cls-2" d="M129.32,33a.11.11,0,0,1-.1-.1h0v-.07l.42-.41a.06.06,0,0,1,.06,0,.08.08,0,0,1,.07,0,.09.09,0,0,1,0,.13h0l-.41.42Z"/><path class="cls-2" d="M133.37,40a.13.13,0,0,1-.13-.13h0V38a.12.12,0,0,1,.11-.13h0a.12.12,0,0,1,.12.12h0v1.84a.12.12,0,0,1-.11.13Z"/><path class="cls-2" d="M132.44,39.07a.13.13,0,0,1,0-.26h1.85a.13.13,0,0,1,.13.13.13.13,0,0,1-.13.13h-1.85Z"/><path class="cls-2" d="M150.13,50.42a.24.24,0,0,1-.24-.22h0a.25.25,0,0,1,.29-.19.24.24,0,0,1,.18.19A.23.23,0,0,1,150.13,50.42ZM149.2,50h-.13a.22.22,0,0,1,0-.31h0a.23.23,0,0,1,.17-.07.2.2,0,0,1,.16.07.21.21,0,0,1,0,.31h0A.23.23,0,0,1,149.2,50Zm1.85,0a.24.24,0,0,1-.22-.26.35.35,0,0,1,.06-.14.24.24,0,0,1,.32,0,.21.21,0,0,1,.07.17.24.24,0,0,1-.23.23Zm-2.24-.92a.25.25,0,0,1-.25-.23.24.24,0,0,1,.23-.25.23.23,0,0,1,.25.23h0a.23.23,0,0,1-.22.24Zm2.63,0a.24.24,0,0,1-.24-.22h0a.26.26,0,0,1,.19-.29.24.24,0,0,1,.28.19.17.17,0,0,1,0,.1.22.22,0,0,1-.23.22Zm-2.25-.92a.24.24,0,0,1-.18-.29.24.24,0,0,1,.18-.18.21.21,0,0,1,.17.07.23.23,0,0,1,0,.33.25.25,0,0,1-.17.06Zm1.86,0a.27.27,0,0,1-.17-.06.26.26,0,0,1,0-.33.21.21,0,0,1,.16-.08.2.2,0,0,1,.16.07.21.21,0,0,1,0,.31h0a.23.23,0,0,1-.16.06Zm-.93-.38a.24.24,0,0,1-.23-.23.23.23,0,0,1,.23-.23.23.23,0,0,1,.23.23h0a.23.23,0,0,1-.23.21Z"/><path class="cls-2" d="M134,52.62a.3.3,0,0,1-.36-.22l-.34-1.67a.3.3,0,0,1,.22-.35.28.28,0,0,1,.35.22h0l.39,1.65a.28.28,0,0,1-.17.35Z"/><path class="cls-2" d="M132.75,53.46a.45.45,0,0,1-.23,0L131,52.53a.41.41,0,0,1-.13-.19.28.28,0,0,1,0-.22.31.31,0,0,1,.18-.14.3.3,0,0,1,.23,0l1.43.89a.29.29,0,0,1,.1.41A.27.27,0,0,1,132.75,53.46Z"/><path class="cls-2" d="M130.74,55.37a.28.28,0,0,1-.34-.2v0a.31.31,0,0,1,.22-.36l1.65-.38a.28.28,0,0,1,.35.19v0a.3.3,0,0,1-.22.36Z"/><path class="cls-2" d="M137.52,56.73a.41.41,0,0,1-.22,0l-1.44-.89a.36.36,0,0,1-.13-.19.28.28,0,0,1,0-.22.31.31,0,0,1,.18-.14.3.3,0,0,1,.23,0l1.43.89a.3.3,0,0,1,.14.19.28.28,0,0,1,0,.22A.3.3,0,0,1,137.52,56.73Z"/><path class="cls-2" d="M136.44,54.31a.3.3,0,0,1-.36-.22.31.31,0,0,1,.23-.36l1.64-.38a.3.3,0,1,1,.2.56l-.06,0Z"/><path class="cls-2" d="M135.61,53a.28.28,0,0,1-.22,0,.29.29,0,0,1-.11-.4h0l.89-1.44a.35.35,0,0,1,.19-.13.28.28,0,0,1,.22,0,.29.29,0,0,1,.1.41l-.9,1.44A.3.3,0,0,1,135.61,53Z"/><path class="cls-3" d="M139.92,34.06a.14.14,0,0,1-.14-.14v-2a.14.14,0,0,1,.14-.14.14.14,0,0,1,.14.14h0v2A.14.14,0,0,1,139.92,34.06Z"/><path class="cls-3" d="M138.92,33.05a.15.15,0,0,1-.14-.14.14.14,0,0,1,.14-.14h2a.14.14,0,1,1,0,.28Z"/><path class="cls-4" d="M124.64,52a.21.21,0,0,1-.21-.19h0v-2.9a.2.2,0,0,1,.2-.2h0a.2.2,0,0,1,.2.2v2.9A.2.2,0,0,1,124.64,52Z"/><path class="cls-4" d="M123.19,50.53a.2.2,0,1,1,0-.4H126a.2.2,0,0,1,0,.4Z"/><path class="cls-4" d="M142.67,56.37a.72.72,0,0,1,0-1.44.71.71,0,0,1,.73.71h0a.71.71,0,0,1-.7.72Zm0-1.16a.45.45,0,0,0-.46.44.45.45,0,0,0,.44.46.45.45,0,0,0,.46-.44v0A.44.44,0,0,0,142.67,55.21Z"/><path class="cls-4" d="M124.76,40.26a.66.66,0,0,1-.64-.67.67.67,0,0,1,.68-.64.65.65,0,0,1,.63.67h0a.64.64,0,0,1-.65.63Zm0-1.06a.41.41,0,0,0-.41.41.42.42,0,0,0,.41.41h0a.42.42,0,0,0,.42-.4.4.4,0,0,0-.39-.42Z"/><path class="cls-4" d="M150.19,41.49a.95.95,0,0,1,0-1.9.94.94,0,0,1,.95.95h0A1,1,0,0,1,150.19,41.49Zm0-1.55a.6.6,0,0,0-.61.59.61.61,0,0,0,.59.61.6.6,0,0,0,.61-.59h0a.58.58,0,0,0-.58-.6Z"/><g class="cls-5"><text class="cls-6" transform="translate(124.97 46.49)">&lt; M</text><text class="cls-7" transform="translate(133.41 46.49)">A</text><text class="cls-6" transform="translate(136.6 46.49)">GIC &gt;</text></g><path class="cls-8" d="M134.37,53.53h0a.91.91,0,0,1,.69,1.11L123.38,105a.91.91,0,0,1-1.11.69h0a.91.91,0,0,1-.69-1.11l11.68-50.36A.92.92,0,0,1,134.37,53.53Z"/><path class="cls-9" d="M132.37,66.27l-1.81-.42,2.7-11.63a.91.91,0,0,1,1.08-.7h0a.93.93,0,0,1,.7,1.11Z"/><rect class="cls-10" x="130.75" y="64.23" width="1.85" height="1.85" transform="translate(38.45 178.7) rotate(-76.94)"/></g><path class="cls-11" d="M85,108.83c-1.65,3.11-4.14,4.77-5.69,4s-1.56-3.81.1-6.93,4.25-5,5.79-4.14S86.66,105.73,85,108.83Z"/><ellipse class="cls-12" cx="91.59" cy="112.32" rx="6.38" ry="3.17" transform="translate(-50.59 140.44) rotate(-61.99)"/><path class="cls-13" d="M103.85,93.52c1.55-.48,2.74-2.53,4.8-3.7,2.85-1.61,3.58-4.24,3.4-3.08s.81,1.67.83,1.5-.33.19-.06-1.54,2.58-2.63,4.24-5.72a19.3,19.3,0,0,0,1.45-3.41,6.4,6.4,0,0,1,.18,1.45c3.35-10.29-.65-16-1.18-16.44a3.66,3.66,0,0,1,1.66.79c-1.22-3.19-3.53-3.47-3.89-3.52a2.17,2.17,0,0,1,1.74-.38c-1-1.38-2-2.28-3.7-2.3a1.8,1.8,0,0,0-1.53.85,2.72,2.72,0,0,0-1.66-3.47,1.89,1.89,0,0,0-.34-.09c1.14,3.24.61,2.65.49,2.77s-1.75-1.61-3.47-1.75a1.61,1.61,0,0,1,.84,1c-1.7-.7-3.57-1.73-7.28.6a4.67,4.67,0,0,1,2.55.68c-.48.16-6.71,2.06-8.74,8.54.29-.15,1.86-1.09,2-.9-1.14.82-4.9,3.73-3.17,15,.11-.6.61-1.93.91-1.91-.47,1,.31,4.13,3.41,7C101.63,89.23,103.44,91.31,103.85,93.52Z"/><path class="cls-14" d="M92,96.22a3.62,3.62,0,0,1,.83,2.31c-.08.62-.21,1.21-.31,1.81-.24,1.19-.48,2.37-.81,3.52s-.69,2.28-1.1,3.39L90,108.92a4.14,4.14,0,0,1-.33.82,1.41,1.41,0,0,1-1.14.46L78,105.52a1.45,1.45,0,0,1-.41-1.15,6.55,6.55,0,0,1,.38-.8l.84-1.57c.56-1,1.15-2.07,1.8-3.08s1.35-2,2.08-3c.38-.48.73-1,1.14-1.43a3.6,3.6,0,0,1,2.28-.93Z"/><path class="cls-15" d="M100.24,100.6a3.62,3.62,0,0,1,.83,2.32c-.08.61-.21,1.2-.31,1.8-.24,1.19-.48,2.38-.81,3.52s-.7,2.28-1.1,3.4l-.61,1.67a4.18,4.18,0,0,1-.34.82,1.45,1.45,0,0,1-1.13.46l-10.48-4.68a1.47,1.47,0,0,1-.41-1.16,4.52,4.52,0,0,1,.38-.8l.84-1.57c.56-1,1.15-2.07,1.8-3.08s1.35-2,2.08-3c.38-.48.73-1,1.14-1.43A3.6,3.6,0,0,1,94.4,98Z"/><path class="cls-16" d="M108.85,101.33l.24-.51a.48.48,0,0,0,0-.17c3.56-9,4.08-17.94-6.92-23h0c-11.1-5.11-19.6,4-24.61,17.24h0c-2.24,4.91,5.67,8.15,12.3,11.21,7.7,3.55,14.06,6,15.64,2.45l1.65-3.59A37.77,37.77,0,0,0,108.85,101.33Z"/><path class="cls-12" d="M123.65,85.56c.49-1.6,2-5,5.69-3.4,4.88,2.2-5,11.59-.06,5.91Z"/><path class="cls-15" d="M105.14,88.3a2.15,2.15,0,0,1,1.29.23c.17.13.38.24.56.36a4.87,4.87,0,0,1,.82.75,5.58,5.58,0,0,1,1.07,1.49,7.44,7.44,0,0,0,1.86,2.31,2,2,0,0,0,1.63.51,3.16,3.16,0,0,0,.75-.18,10.16,10.16,0,0,0,1-.46,12.71,12.71,0,0,0,2.19-1.58c.76-.68,1.51-1.46,2.25-2.27a30.72,30.72,0,0,0,2.11-2.6,6.38,6.38,0,0,1,1.1-1.32,4.8,4.8,0,0,1,.83-.52,1.59,1.59,0,0,1,.64-.16h.45a.92.92,0,0,1,.33,0h.16l.21.06.26.1.31.12,3.08,1.5.28.17c.1.07.2.12.24.16l.18.12.08.06h.05a.56.56,0,0,1,.22.26l.22.43a1.87,1.87,0,0,1,.18.73,5.77,5.77,0,0,1-.16,1.24,7.19,7.19,0,0,1-1,2.09,27.53,27.53,0,0,1-2.9,3.83,21,21,0,0,1-3.66,3.19,17.75,17.75,0,0,1-4.74,2.34,12.12,12.12,0,0,1-2.93.54,10.49,10.49,0,0,1-3.25-.33,10,10,0,0,1-1.58-.59,11.3,11.3,0,0,1-1.41-.86,10.23,10.23,0,0,1-1.18-1l-.51-.55-.43-.57a15,15,0,0,1-2.16-4.62,7.58,7.58,0,0,1-.24-1.15,7.75,7.75,0,0,1,0-1.18,3.29,3.29,0,0,1,.32-1.2c.1-.21.23-.42.34-.62s.33-.43,1.06-.75Z"/><path class="cls-16" d="M115.37,76.47a13.37,13.37,0,1,1-8.44-16.92,13.37,13.37,0,0,1,8.44,16.92Z"/><path class="cls-17" d="M81.41,105.22c1.13,3.88,2.87,11.41,1.51,15.75-2.12,6.76-10.49,12.59-14.36,14.66,2.44-4.21,3.33-7.47,2.4-9.66-.3-.7-1.28,2-3.55,2.69a11.47,11.47,0,0,0,0-5.34c-.29-1.93-.36-5.47.67-7.64,3.32-6.92,10.14-10.33,11.56-11.2Z"/><path class="cls-18" d="M81.41,105.22C82,106.87,83,113,81.7,116s-7.32,6.79-9.91,10c.31-3.1,1-4.24.27-6.76a7.58,7.58,0,0,1-.4-4.39c.21-1.48,2.44-4.75,4.82-7.35a18.36,18.36,0,0,1,3.16-3.07Z"/><path class="cls-19" d="M81.41,105.22c.4,2,.6,7.78-1,9.52s-3.07,1.47-5.81,4c-.19-1.23,1.44-3.38.7-4.63-.64.73-.84,1.28-1.79,1.67.7-1.17.5-2.62,1-4.23.58-1.88,2.19-3.21,3.4-4.59a11.58,11.58,0,0,0,1.72-2.46Z"/><path class="cls-20" d="M80.41,106.2c3.22,1.29,6.13,1.6,6.49.69l-.65,1.65c-.37.9-3.28.59-6.5-.7s-5.53-3.07-5.17-4l.66-1.64C74.88,103.13,77.19,104.91,80.41,106.2Z"/><path class="cls-20" d="M79.62,108.18c2.42,1,4.61,1.21,4.89.52l-.5,1.24c-.27.68-2.46.45-4.89-.52s-4.17-2.32-3.89-3l.49-1.24C75.45,105.87,77.19,107.21,79.62,108.18Z"/><path class="cls-21" d="M93.68,85.8a43.46,43.46,0,0,1-3.45,15.31l-2.32,5.8a29,29,0,0,1-7.27-1.29,30.2,30.2,0,0,1-6.13-4s.86-2.48,2.24-5.91A42.82,42.82,0,0,1,85,82.34,20.11,20.11,0,0,0,93.68,85.8Z"/><path class="cls-22" d="M91.79,77.73c.76.31,2,3.14,1.89,8.09A20.11,20.11,0,0,1,85,82.36C88.24,78.81,91,77.42,91.79,77.73Z"/><path class="cls-20" d="M81.31,104c3.74,1.5,7.11,1.86,7.53.8l-.8,2c-.42,1-3.79.69-7.53-.8s-6.42-3.57-6-4.62l.77-1.91C74.88,100.4,77.57,102.47,81.31,104Z"/><path class="cls-23" d="M78.54,99.42c-.35.88-.69,1.76-1,2.63-1.45-.94-2.33-1.88-2.29-2.52.37-1,.88-2.33,1.48-3.84a43.43,43.43,0,0,1,8.2-13.37,18.05,18.05,0,0,0,2,1.25A77.81,77.81,0,0,0,78.54,99.42Z"/><path class="cls-24" d="M84.92,82.32c3.29-3.53,6.12-4.92,6.84-4.59a.76.76,0,0,1,.3.23,27.51,27.51,0,0,0-5.13,5.64A17.52,17.52,0,0,1,84.92,82.32Z"/><path class="cls-17" d="M93.14,109.41c1.44,3.77,3.77,11.15,2.75,15.58-1.58,6.87-9.47,13.37-13.17,15.74,2.11-4.39,2.74-7.71,1.64-9.81-.35-.67-1.12,2.05-3.33,3a11.46,11.46,0,0,0-.42-5.33c-.44-1.9-.79-5.42.07-7.66,2.76-7.17,9.3-11.1,10.64-12.08Z"/><path class="cls-18" d="M93.14,109.41c.77,1.59,2.17,7.64,1.15,10.76s-6.76,7.34-9.09,10.76c.06-3.12.61-4.3-.27-6.76s-.83-2.85-.74-4.35,2-4.92,4.22-7.7a18.37,18.37,0,0,1,2.91-3.31Z"/><path class="cls-19" d="M93.14,109.41c.56,2,1.21,7.71-.24,9.56s-3,1.71-5.48,4.43c-.29-1.21,1.16-3.48.34-4.67-.59.78-.74,1.34-1.66,1.81.6-1.23.29-2.66.67-4.3.44-1.92,1.93-3.37,3-4.85a11.36,11.36,0,0,0,1.52-2.58Z"/><path class="cls-20" d="M92.23,110.46c3.31,1,6.23,1.11,6.52.18l-.52,1.69c-.3.94-3.22.86-6.53-.18s-5.76-2.62-5.47-3.56l.53-1.69C86.47,107.84,88.91,109.43,92.23,110.46Z"/><path class="cls-20" d="M91.59,112.5c2.5.78,4.7.84,4.92.13l-.4,1.28c-.22.7-2.42.64-4.91-.14s-4.34-2-4.12-2.68l.39-1.27C87.25,110.52,89.1,111.73,91.59,112.5Z"/><path class="cls-21" d="M103.84,89.08a43.33,43.33,0,0,1-2.22,15.53l-1.86,6a29.77,29.77,0,0,1-7.35-.71A31.11,31.11,0,0,1,86,106.39s.67-2.54,1.77-6.07a43.12,43.12,0,0,1,7.12-14,20.19,20.19,0,0,0,9,2.76Z"/><path class="cls-22" d="M101.32,81.17c.79.24,2.22,3,2.52,7.91a20.19,20.19,0,0,1-9-2.76C97.87,82.54,100.57,80.93,101.32,81.17Z"/><path class="cls-20" d="M92.94,108.17c3.85,1.19,7.24,1.29,7.58.2l-.62,2c-.33,1.08-3.72,1-7.57-.21s-6.68-3-6.35-4.13l.61-2C86.26,105.12,89.1,107,92.94,108.17Z"/><path class="cls-25" d="M86.85,107.49a11.08,11.08,0,0,0,1.65,1.07,2.68,2.68,0,0,0-.07.27A5.09,5.09,0,0,1,86.85,107.49Z"/><path class="cls-25" d="M87.58,110.32l.42.26v.15A2.33,2.33,0,0,1,87.58,110.32Z"/><path class="cls-26" d="M88.43,108.83c-.15.59-.29,1.17-.43,1.75l-.42-.26a.66.66,0,0,1-.14-.52l-.1.35c-.83-.58-1.27-1.15-1.14-1.57l.41-1.3.24.21A5.09,5.09,0,0,0,88.43,108.83Z"/><path class="cls-26" d="M87.58,110.32a2.16,2.16,0,0,0,.39.41c-.11.46-.21.91-.3,1.36-.47-.38-.71-.73-.62-1l.29-.93.1-.35A.63.63,0,0,0,87.58,110.32Z"/><path class="cls-23" d="M89.83,103.85c-.28.91-.55,1.81-.8,2.7-1.52-.83-2.48-1.68-2.49-2.33.3-1,.7-2.39,1.18-3.94a43.12,43.12,0,0,1,7.12-14,20.8,20.8,0,0,0,2.1,1.08A77.71,77.71,0,0,0,89.83,103.85Z"/><path class="cls-24" d="M94.84,86.31c3-3.78,5.7-5.39,6.45-5.16a.72.72,0,0,1,.33.21,27.23,27.23,0,0,0-4.68,6A20.56,20.56,0,0,1,94.84,86.31Z"/><path class="cls-26" d="M89,106.55c-.19.68-.36,1.34-.53,2a11.08,11.08,0,0,1-1.65-1.07l-.24-.21a2.1,2.1,0,0,1-.65-.93h0a1,1,0,0,1,0-.35l.62-2a.67.67,0,0,0,0,.2C86.55,104.87,87.51,105.73,89,106.55Z"/></svg>