<?xml version="1.0" encoding="utf-8"?>
<!-- Generator: Adobe Illustrator 22.1.0, SVG Export Plug-In . SVG Version: 6.00 Build 0)  -->
<svg version="1.1" id="Layer_3" xmlns="http://www.w3.org/2000/svg" xmlns:xlink="http://www.w3.org/1999/xlink" x="0px" y="0px"
	 viewBox="0 0 251 151" style="enable-background:new 0 0 251 151;" xml:space="preserve">
<style type="text/css">
	.st0{opacity:0.17;}
	.st1{fill:#FFDC8E;}
	.st2{fill:#4D2D54;}
	.st3{fill:#D1A7F1;}
	.st4{fill:#8190EB;}
	.st5{fill:#FBF5F9;}
	.st6{fill:#E16D90;}
	.st7{fill:#F0D9E9;}
	.st8{fill:#FF9AA5;}
	.st9{fill:#FFFFFF;}
	.st10{fill:#54371D;}
	.st11{fill:#5E3E21;}
	.st12{fill:#DCB680;}
	.st13{fill:#6D3325;}
	.st14{fill:#783A28;}
	.st15{fill:#8F4729;}
	.st16{fill:#E84C59;}
	.st17{fill:#EE7B5C;}
	.st18{fill:#F9C862;}
	.st19{fill:#062633;}
	.st20{fill:#ABAAAA;}
	.st21{fill:#E1DFE0;}
	.st22{fill:none;}
	.st23{fill:#041D26;}
	.st24{fill:#6E6E6E;}
	.st25{fill:#C0C0C0;}
</style>
<title>Egle</title>
<g class="st0">
	<path class="st1" d="M78.2,52.8c0.6-0.3,1.1-0.7,1.3-1.3c0.2-0.6,0.4-1.2,0.8-1.7c0.4-0.4,1-0.8,1.6-1c0.7-0.2,1.5-0.5,2.1-0.8
		c0.6-0.4,1.1-0.9,1.4-1.5c0.2-0.4,0.3-1,0.4-1.4s0.1-0.8,0.2-1.2c-1.1,1.2-2.5,2.1-4.1,2.7c-1.2,0.1-2.2,0.4-3.3,0.6
		c-1,0.5-1.9,1.3-2.4,2.4c-0.3,0.4-0.5,0.8-0.8,1.2c-0.3,0.4-0.4,0.9-0.4,1.4C75.5,53,77.4,53.2,78.2,52.8z"/>
	<path class="st2" d="M78.5,53.3c0.8-0.5,1.4-1.2,1.8-2.1c1-1.7,2.3-1.7,3.7-2.5c1.9-1,2.3-2.7,2.5-4.8c0.1-0.3-0.1-0.6-0.4-0.6l0,0
		c-0.2,0-0.4,0-0.5,0.2c-1.1,1.2-2.4,2-3.9,2.5c-1.1,0.1-2.2,0.4-3.3,0.6c-1.4,0.8-2.6,2-3.3,3.5c-1.4,2.5,0.6,4.1,3.1,3.3
		c0.6-0.2,0.4-1.2-0.3-1.1c-0.9,0.3-2.4,0.4-2.1-1.4c0.2-0.4,0.4-0.8,0.8-1.2c1.1-1.5,2.7-2.5,4.6-2.7c1.9-0.4,3.7-1.4,5-2.9
		l-0.9-0.5c0,1.1-0.3,2.1-0.8,3c-0.8,1.3-2.3,1.2-3.5,1.9c-1.7,0.9-1.7,2.8-3.2,3.8c-0.3,0.2-0.4,0.5-0.2,0.7
		C77.8,53.3,78.2,53.4,78.5,53.3L78.5,53.3z"/>
	<path class="st3" d="M76.8,51.8c1.2-0.8,0.7-2.5,1.7-3.5c0.4-0.4,0.9-0.6,1.4-0.7c0.9-0.3,1.8-0.4,2.7-0.5c0.9-0.2,1.8-0.5,2.5-1.2
		c0.7-0.6,1.2-1.5,1.1-2.5c-0.4,0.6-1.1,1.2-1.9,1.4c-1.1,0.2-2.2,0.3-3.3,0.1c-0.9,0-1.7,0.1-2.6,0.3c-0.4,0-0.6,0.1-1,0.2
		c-0.4,0.1-0.7,0.3-1,0.5c-0.6,0.4-1.2,1-1.7,1.6c-0.8,1-1.1,2.1-1,3.4c0.1,0.5,0.4,1.1,1.1,1.2C75.5,52.1,76.2,52.1,76.8,51.8z"/>
	<path class="st2" d="M77.1,52.1c0.8-0.7,0.7-1.2,1.2-2.1c1-2.2,3.1-2,5.1-2.7c1.9-0.4,3.2-2,3.3-3.9c0-0.4-0.6-0.8-0.9-0.4
		c-1.8,2.3-5.3,1.1-7.9,1.7c-1.7,0.4-3.1,1.6-3.9,3.1C72.5,50.6,73.8,53.7,77.1,52.1c0.6-0.2,0.1-1.1-0.5-0.8
		c-0.7,0.5-1.2,0.4-1.6-0.4c-0.9-0.6-0.9-1.4,0-2.5c0.4-0.8,1.2-1.5,1.9-2c1.4-0.7,3-1.1,4.6-0.9c2,0,3.7,0,5-1.7l-0.9-0.4
		c-0.3,1.3-1.2,2.4-2.5,2.8c-0.7,0.2-1.3,0.4-2,0.4c-0.9,0.1-1.7,0.4-2.5,0.7c-1.4,1-1,2.7-2.2,3.9C75.9,51.9,76.7,52.6,77.1,52.1z"
		/>
	<path class="st4" d="M73.3,47.7c0.4-0.6,0.8-1.2,1.3-1.5c1.7-1.2,3.8-1.8,5.8-1.7c1.1,0.1,2.1,0.1,3.2,0.1c1.1-0.1,2-0.6,2.7-1.5
		c0,0.8-0.4,1.5-1.2,1.9c-0.4,0.3-1,0.4-1.4,0.4c-1.2,0.2-2.3,0.3-3.5,0.4c-1.2,0-2.3,0.4-3.3,0.9c-1,0.7-1.6,1.8-1.8,3
		c-0.1,0.4-0.2,0.8-0.3,1.2c-0.2,0.4-0.5,0.7-0.9,0.7c-0.4,0-0.6-0.2-0.8-0.4C72.6,50,72.7,48.7,73.3,47.7z"/>
	<path class="st2" d="M73.8,48c2.1-3.3,5.8-2.8,9.1-2.8c1.5,0.1,3-0.5,3.9-1.8l-1-0.4c-0.6,3.3-6.5,1.9-8.8,3.1
		c-0.7,0.4-1.3,1-1.7,1.7c-0.2,0.4-0.4,0.7-0.5,1.2l-0.1,0.6C74.6,50.9,74.3,50.4,73.8,48c0.3-0.6-0.6-1.2-0.9-0.5
		c-0.5,1.2-1,3.1,0.2,4.2c0.5,0.5,1.5,0.5,2,0c0.2-0.2,0.3-0.4,0.4-0.5c0.6-1.2,0.3-2.7,1.4-3.6c1.6-1.4,4.1-1.2,6-1.4
		c1.9-0.3,3.5-0.7,4-2.8c0.1-0.3-0.1-0.6-0.4-0.6c-0.2-0.1-0.4,0-0.5,0.3c-1.7,2.3-6.1,0.8-8.6,1.5c-1.9,0.4-3.4,1.6-4.4,3.1
		C72.4,48,73.4,48.5,73.8,48z"/>
	<path class="st1" d="M85.3,55.7c0.7-0.1,1.4-0.4,1.9-0.9c0.4-0.5,0.9-1,1.4-1.3c0.6-0.4,1.3-0.4,2-0.4c0.9,0,1.8,0,2.7-0.1
		c0.8-0.2,1.5-0.5,2-1.1c0.4-0.4,0.6-0.8,0.9-1.3l0.6-1.2c-1.7,0.9-3.5,1.3-5.5,1.3c-1.3-0.2-2.7-0.4-4-0.4C86.2,50.6,85,51.1,84,52
		c-0.4,0.3-0.8,0.6-1.2,1c-0.4,0.4-0.8,0.7-0.8,1.2C82.1,55.2,84.3,55.8,85.3,55.7z"/>
	<path class="st2" d="M85.4,56.2c0.9-0.3,1.8-0.7,2.4-1.3c0.8-0.8,1.8-1.2,2.9-1.4c0.9,0,1.8,0,2.7-0.1c2.1-0.4,3-1.9,4-3.8
		c0.2-0.3,0.1-0.5-0.2-0.7l0,0c-0.2-0.1-0.4-0.1-0.5,0c-1.9,1-4,1.3-6.1,1.2c-1-0.2-2-0.3-3.1-0.2c-2,0.4-3.9,1.4-5.3,3
		c-1.9,2.2,1.2,3.5,3.1,3.5c0.3,0,0.5-0.3,0.5-0.5c0-0.3-0.3-0.5-0.5-0.5c-0.4,0-1.7,0-2-0.4c-1.1-1.3,0.6-2.1,1.4-2.7
		c1.9-1.2,3.5-1.2,5.8-1c2.3,0.2,4.7-0.3,6.7-1.3l-0.7-0.7c-0.9,1.8-1.2,2.9-3.9,3.5c-0.9,0.2-1.8-0.1-2.7,0.1
		c-2,0.4-2.7,2.2-4.8,2.7C84.5,55.3,84.7,56.4,85.4,56.2z"/>
	<path class="st3" d="M83.9,54.3c1.7-0.4,1.6-2.1,2.9-2.8c0.6-0.3,1.2-0.4,1.9-0.3c1.2,0,2.2,0.2,3.3,0.3c1.1,0.1,2.1,0,3.2-0.4
		c1-0.3,1.7-1.1,1.9-2c-0.7,0.5-1.6,0.8-2.5,0.8c-1.3-0.1-2.6-0.4-3.8-0.8c-1-0.3-1.9-0.4-3-0.5c-0.4-0.1-0.8-0.1-1.2-0.1
		c-0.4,0-0.9,0.1-1.3,0.2c-0.9,0.2-1.7,0.5-2.5,1.1c-1.1,0.6-1.9,1.7-2,2.9c-0.1,0.6,0.3,1.2,0.8,1.4C82.4,54.4,83.2,54.4,83.9,54.3
		z"/>
	<path class="st2" d="M84.2,54.7c0.7-0.4,1.3-0.9,1.8-1.5c2.7-2.4,4.6-1.1,7.7-1.3c1.9-0.2,3.5-0.9,4-2.7c0.1-0.3-0.1-0.5-0.4-0.6
		c-0.2,0-0.3,0-0.4,0.1c-2.9,1.7-6.5-0.5-9.7-0.6c-1.9-0.1-3.9,0.6-5.4,1.9c-2.7,2.5-1.4,5.1,2.1,5c0.7,0,0.7-1.2,0-1.1l-0.8-3.6
		l0.8-0.4c0.8-0.4,1.8-0.7,2.7-0.7c1.9,0,3.6,0.4,5.4,1c1.8,0.6,3.7,0.4,5.3-0.4L96.6,49c-1.2,3.7-7,1.2-9.4,1.9
		c-1.7,0.5-1.9,2.3-3.5,3C83.1,54.1,83.5,55,84.2,54.7z"/>
	<path class="st4" d="M81.2,49.4c0.5-0.5,1.2-0.9,1.9-1.2c2.4-0.7,4.9-0.7,7.3,0c1.2,0.4,2.4,0.8,3.6,1.1s2.5,0,3.5-0.6
		c-0.3,0.8-1,1.3-1.8,1.5c-0.6,0.1-1.2,0.1-1.8,0c-1.4-0.2-2.7-0.4-4.2-0.6c-1.3-0.4-2.7-0.4-4.1-0.1c-1.2,0.4-2.2,1.2-2.8,2.3
		c-0.2,0.4-0.4,0.7-0.6,1.1c-0.4,0.4-0.8,0.5-1.2,0.4c-0.4-0.1-0.6-0.3-0.8-0.6C79.9,51.4,80.2,50.1,81.2,49.4z"/>
	<path class="st2" d="M81.5,49.8c3.9-2.7,7.7-1,11.8-0.1c1.5,0.4,3.2,0.3,4.6-0.5l-0.7-0.7c-1.8,3-7.7,0-10.4,0.4
		c-1.1,0.1-2,0.4-2.8,1.2c-0.3,0.3-0.5,0.5-0.8,0.8l-0.5,0.7c-0.5,1.2-0.8,0.7-0.8-1.8c0.4-0.5-0.3-1.2-0.8-0.8
		c-1,1.1-2.1,3-0.9,4.3c0.7,0.7,1.9,0.7,2.6,0l0,0c1.8-1.5,2.3-3.5,5.1-3.5c1.7,0.2,3.4,0.4,5,0.8c2.1,0.3,4,0.4,5.2-1.6
		c0.2-0.3,0.1-0.5-0.2-0.7l0,0c-0.2-0.1-0.4-0.1-0.5,0c-2.9,1.8-6.7-0.7-9.9-1c-2.3-0.3-4.5,0.4-6.5,1.6
		C80.4,49.3,80.9,50.3,81.5,49.8z"/>
	<path class="st1" d="M91.5,60.5c0.7-0.1,1.4-0.4,1.9-0.9c0.4-0.5,0.9-1,1.4-1.3c0.6-0.4,1.3-0.4,2-0.4c0.9,0,1.8,0,2.7-0.1
		c0.8-0.2,1.5-0.5,2-1.1c0.4-0.4,0.6-0.8,0.9-1.3c0.2-0.4,0.4-0.8,0.6-1.2c-1.7,0.9-3.5,1.3-5.5,1.3c-1.3-0.2-2.7-0.4-4-0.4
		c-1.2,0.2-2.5,0.7-3.5,1.6c-0.4,0.3-0.8,0.6-1.2,1c-0.4,0.4-0.9,0.7-0.8,1.2C88.3,59.8,90.4,60.6,91.5,60.5z"/>
	<path class="st2" d="M91.6,61c0.9-0.3,1.8-0.7,2.4-1.3c0.8-0.8,1.8-1.3,2.9-1.4c0.9,0,1.8,0,2.7-0.1c2.1-0.4,3-1.9,4-3.8
		c0.2-0.3,0.1-0.5-0.2-0.7l0,0c-0.2-0.1-0.4-0.1-0.5,0c-1.9,1-4,1.3-6.1,1.2c-1-0.2-2-0.3-3-0.3c-2,0.4-3.9,1.4-5.3,2.9
		C86.5,59.7,89.5,61,91.6,61c0.2,0,0.4-0.3,0.4-0.5s-0.3-0.5-0.5-0.5c-0.4,0-1.7,0-2-0.4c-1.1-1.3,0.6-2.1,1.4-2.7
		c1.9-1.2,3.5-1.2,5.8-1c2.3,0.2,4.7-0.3,6.7-1.3l-0.7-0.7c-0.9,1.8-1.2,2.9-3.9,3.5c-0.9,0.2-1.8-0.1-2.7,0.1
		c-2,0.4-2.7,2.2-4.8,2.7C90.7,60.1,90.9,61.1,91.6,61z"/>
	<path class="st3" d="M90.1,59.1c1.7-0.4,1.6-2.1,2.9-2.8c0.6-0.3,1.2-0.4,1.9-0.4c1.2,0,2.2,0.2,3.3,0.3c1.1,0.1,2.1,0,3.2-0.4
		c1-0.3,1.7-1.1,1.9-2c-0.7,0.5-1.6,0.8-2.5,0.8c-1.3-0.1-2.6-0.4-3.8-0.9c-1-0.3-1.9-0.4-3-0.5C93.8,53,93.3,53,93,53
		c-0.4,0-0.9,0.1-1.2,0.2c-0.9,0.2-1.7,0.5-2.5,1.1c-1.2,0.5-1.9,1.7-2.2,2.9c-0.1,0.6,0.3,1.2,0.8,1.4
		C88.5,59.1,89.3,59.2,90.1,59.1z"/>
	<path class="st2" d="M90.4,59.5c0.9-0.4,1.1-0.9,1.8-1.5c2.7-2.4,4.6-1.1,7.7-1.3c1.9-0.2,3.5-0.9,4-2.7c0.1-0.3-0.1-0.5-0.4-0.6
		c-0.2,0-0.3,0-0.4,0.1c-2.9,1.7-6.5-0.5-9.7-0.6c-1.9-0.1-3.9,0.6-5.3,1.9c-2.7,2.5-1.4,5.1,2.1,5c0.3,0,0.5-0.4,0.4-0.6
		c0-0.3-0.2-0.4-0.4-0.4L89.4,55l0.8-0.4c0.8-0.4,1.8-0.7,2.7-0.7c1.9,0,3.7,0.4,5.4,1c1.8,0.6,3.7,0.4,5.3-0.4l-0.8-0.6
		c-1.2,3.7-7,1.2-9.4,1.9c-1.7,0.5-1.9,2.3-3.5,3C89.3,58.9,89.8,59.8,90.4,59.5z"/>
	<path class="st4" d="M87.4,54.2c0.5-0.5,1.2-0.9,1.9-1.2c2.4-0.7,4.9-0.7,7.3,0c1.2,0.4,2.4,0.8,3.6,1.1s2.5,0,3.5-0.6
		c-0.3,0.8-1,1.3-1.9,1.5c-0.6,0.1-1.2,0.1-1.8,0c-1.4-0.2-2.7-0.4-4.1-0.6C94.7,54,93.3,54,92,54.3c-1.2,0.4-2.2,1.2-2.9,2.3
		c-0.2,0.4-0.4,0.7-0.6,1.1c-0.4,0.4-0.8,0.5-1.2,0.4c-0.4-0.1-0.6-0.4-0.8-0.7C86,56,86.4,54.9,87.4,54.2z"/>
	<path class="st2" d="M87.7,54.6c3.9-2.7,7.7-1,11.8-0.1c1.5,0.4,3.2,0.3,4.6-0.5l-0.7-0.7c-1.8,3-7.7,0-10.5,0.4
		c-1.1,0.1-2,0.4-2.8,1.2c-0.3,0.3-0.5,0.5-0.8,0.8l-0.5,0.7c-0.5,1.2-0.8,0.7-0.8-1.8c0.4-0.5-0.3-1.2-0.8-0.8
		c-1,1.1-2.1,3-0.9,4.3c0.7,0.7,1.9,0.7,2.6,0c1.8-1.5,2.3-3.5,5.1-3.5c1.7,0.2,3.4,0.4,5,0.8c2.1,0.3,4,0.4,5.2-1.6
		c0.2-0.3,0.1-0.5-0.2-0.7l0,0c-0.2-0.1-0.4-0.1-0.5,0c-2.9,1.8-6.7-0.7-9.9-1c-2.3-0.3-4.6,0.4-6.5,1.7C86.5,54.1,87,55,87.7,54.6z
		"/>
	<path class="st1" d="M97.1,66.7c0.4-0.2,0.7-0.4,1-0.7c0.6-0.5,1-1.3,1.5-1.9c1.4-1.6,3.5-0.8,5.2-1.2c1.2-0.3,2.1-1,2.7-1.9
		c0.2-0.2,0.3-0.4,0.4-0.5c0.3-0.8,0.2-1.7-0.2-2.5c0.1,0.4,0.1,0.9,0,1.3c0,0.2-0.1,0.3-0.2,0.4c-0.1,0.1-0.3,0.4-0.4,0.4
		c-1.3,0.5-2.8,0.7-4.2,0.5c-1.3-0.2-2.7-0.4-4-0.4c-1.2,0.2-2.5,0.8-3.5,1.6l-1.2,0.9c-0.8,0.7-1.7,1.7-1.2,2.8
		c0.3,0.5,0.7,1,1.3,1.2C95.4,67.1,96.3,67,97.1,66.7z"/>
	<path class="st2" d="M97.4,67.1c1.2-0.7,1.6-1.9,2.7-2.7c1.8-1.5,4-0.4,5.8-1.3c2.1-0.8,3.2-3.2,2.4-5.3c-0.2-0.5-1.2-0.4-1.1,0.2
		c0.3,3.7-5.6,1.8-7.9,1.9c-2.1,0.2-4.1,1.2-5.6,2.7c-3.2,2.8-0.2,5.8,3.5,4.7c0.6-0.2,0.4-1.2-0.3-1.1c-2.8-1.5-3.3-2.8-1.2-3.8
		l0.8-0.5c1.9-1.2,3.2-1,5.2-0.7c1.3,0.2,2.6,0.3,3.9,0.1c2-0.4,2.8-1.2,2.7-3.2l-1.1,0.2c1.4,5.2-4,3.7-6.6,4.6
		c-1.8,0.7-2.3,2.6-3.9,3.5C96.2,66.5,96.8,67.5,97.4,67.1z"/>
	<path class="st3" d="M95.4,64.3c1.7-0.4,1.6-2.1,2.9-2.8c0.6-0.3,1.2-0.4,1.9-0.3c1.2,0,2.1,0.2,3.3,0.3c1.1,0.1,2.7,0.2,3.6-0.6
		c0.4-0.4,0.8-0.9,0.8-1.5c0-0.4-0.1-1-0.2-1.4c0,0.3,0,0.5,0,0.9c0,0.3-0.2,0.5-0.4,0.8c-0.5,0.5-1.7,0.4-2.4,0.2
		c-0.9-0.2-1.9-0.5-2.7-0.7c-1-0.3-1.9-0.4-3-0.5c-0.4,0-0.8-0.1-1.2-0.1c-0.4,0-0.9,0.1-1.3,0.2c-0.9,0.2-1.7,0.5-2.5,1.1
		c-1.1,0.6-1.9,1.7-2,2.9c-0.1,0.6,0.3,1.2,0.8,1.4C93.9,64.4,94.7,64.5,95.4,64.3z"/>
	<path class="st2" d="M95.6,64.8c1.7-0.8,2.6-2.6,4.6-3.1c1.7-0.4,3.8,0.6,5.6,0.2c2.2-0.4,2.9-2,2.5-4.2c-0.1-0.3-0.4-0.4-0.7-0.4
		c-0.3,0.1-0.4,0.3-0.4,0.5c0,1.2-1.2,1.3-2,1.3c-0.8-0.1-1.5-0.4-2.3-0.6c-1.2-0.4-2.4-0.5-3.6-0.6c-2.1-0.3-4.3,0.4-5.9,1.9
		c-2.7,2.5-1.5,5.1,2,5c0.7,0,0.7-1.2,0-1.1c-1.6-1.9-1.8-3.2-0.4-3.9c0.6-0.4,1.2-0.6,1.9-0.8c1.4-0.3,2.8-0.2,4.2,0.2
		c1.4,0.4,2.9,0.8,4.4,1.1c1.9,0.2,2.8-0.5,2.7-2.5l-1.1,0.2c1,4.4-6.6,2.3-8.1,2.7c-2,0.5-2.1,2.3-4,3.2
		C94.5,64.1,95,65.1,95.6,64.8z"/>
	<path class="st4" d="M92.6,59.4c0.5-0.5,1.2-0.9,1.9-1.2c2.4-0.7,4.9-0.7,7.3,0c1.4,0.5,2.8,0.9,4.3,1.1c0.4,0,0.9-0.2,1.2-0.5
		c0.2-0.3,0.3-0.6,0.3-0.9c0-0.4-0.1-0.7-0.4-1.1c0.1-0.1,0.3,0,0.3,0.1c0.5,0.5,0.8,1.3,0.6,2c-0.4,1.3-1.8,1.2-2.8,1.2
		c-1.4-0.2-2.7-0.4-4.2-0.6c-1.3-0.3-2.7-0.3-4,0c-1.2,0.4-2.2,1.2-2.8,2.3c-0.2,0.4-0.4,0.7-0.7,1.1c-0.4,0.4-0.8,0.5-1.2,0.4
		c-0.4-0.1-0.6-0.4-0.8-0.7C91.2,61.4,91.6,60.1,92.6,59.4z"/>
	<path class="st2" d="M92.9,59.8c2.7-1.9,5.8-1.8,8.8-1c1.4,0.4,3.1,1.2,4.6,1.1c1.2-0.1,1.9-1.2,1.8-2.3l0,0c0-0.4-0.2-0.7-0.4-1
		l-0.6,0.8c0.1,1.7-0.4,2.5-1.4,2.3c-0.4,0-0.9-0.1-1.3-0.2c-1.1-0.2-2-0.4-3-0.5c-1.1-0.3-2.2-0.4-3.4-0.3c-1.1,0.1-2,0.5-2.8,1.2
		c-0.3,0.3-0.5,0.5-0.8,0.8l-0.5,0.7c-0.5,1.2-0.8,0.7-0.8-1.8c0.4-0.5-0.3-1.2-0.8-0.8c-1.1,1.2-2.4,3.9-0.2,4.8
		c0.6,0.2,1.3,0.1,1.9-0.4c0.3-0.2,0.4-0.5,0.5-0.7c2.2-2,2.7-2.9,5.8-2.7c2,0.2,6.4,1.9,8.1,0.2c1-1.1,0.6-3.4-0.8-3.7
		c-0.3-0.1-0.5,0.1-0.6,0.4l0,0c-0.1,0.1-0.1,0.3,0,0.4c1.2,2.3-5.6,0.4-5.8,0.4c-0.9-0.2-1.9-0.3-2.7-0.3c-2-0.1-4.1,0.4-5.8,1.7
		C91.8,59.3,92.4,60.2,92.9,59.8z"/>
	<path class="st1" d="M101.7,110.1c1,0,2-0.1,3-0.4c1.9-0.7,3.5-2.3,5.4-2.7c2.2-0.5,3.6,0.7,5.5,1.9c1.2,0.7,2.6,1.1,4,1.2
		c1.1,0.2,2.2,0,3.2-0.4c1.3-0.8,2.3-2,2.8-3.5c0.5-1.5,1-3.1,1.2-4.7c-2,3.4-6.1,4.9-9.8,3.7c-1.4-0.5-2.4-1.7-3.6-2.5
		c-1.5-0.7-3.3-0.9-5-0.4c-0.9,0.1-1.8,0.4-2.7,0.6c-0.4,0.2-1,0.4-1.4,0.5c-1.1,0.4-2.1,1-3.1,1.6c-0.4,0.4-0.8,0.7-1.2,1
		c-0.4,0.3-0.8,0.7-1.1,1.2C97.1,109.7,100.1,110.1,101.7,110.1z"/>
	<path class="st2" d="M101.7,110.7c2.8-0.1,4.3-1.2,6.8-2.5c3.8-1.9,6.4,1.7,9.9,2.2c6,1,7.8-3.9,8.6-8.9c0.1-0.3-0.1-0.6-0.4-0.6
		c-0.2-0.1-0.4,0-0.5,0.3c-2.1,2.9-5.7,4.8-9.3,3.5c-1.9-0.7-3.1-2.5-5-2.9c-2.9-0.7-6.5,0.5-9.1,1.8c-1.7,0.8-5.3,2.7-5,5.1
		C98,110.4,100.2,110.7,101.7,110.7c0.3,0,0.5-0.3,0.4-0.5c0-0.3-0.2-0.4-0.4-0.4c-0.5,0.1-1.2,0-1.7-0.2c-2.7-1.9,0.4-3.5,1.4-4.1
		c1.4-1,2.9-1.7,4.6-2.1c2-0.6,4.8-1.1,6.7-0.1c1.4,0.7,2.3,1.9,3.7,2.5c4.1,1.6,8.1-0.7,10.5-4l-1-0.4c-0.6,3.7-1.3,8.1-6,8.2
		c-2.9,0.2-4.5-1.8-6.9-2.7c-4.1-1.6-7.4,2.7-11.3,2.9c-0.3-0.1-0.5,0.1-0.6,0.4C101.1,110.4,101.3,110.7,101.7,110.7
		C101.6,110.7,101.6,110.7,101.7,110.7z"/>
	<path class="st3" d="M100.3,107.5c2,0.4,4.2-0.1,5.8-1.4c1.5-1,3.2-2.3,5-2.4c1.8-0.1,2.8,1.2,4.2,2c1.4,1,3,1.4,4.7,1.5
		c1.8,0.1,3.5-0.6,4.7-1.8c1.2-1.5,2-3.2,2.6-5c-1.9,1.7-4.3,3.1-6.7,2.8c-3.3-0.4-5.8-3.5-8.9-4.7c-2-0.8-4.2-0.8-6.4-0.2
		c-1.7,0.5-3.3,1.4-4.7,2.5c-1.2,1.1-1.9,2.6-1.9,4.2C98.5,106.3,99.2,107.3,100.3,107.5z"/>
	<path class="st2" d="M100.1,108c2.4,0.4,4.8-0.3,6.6-1.8c0.9-0.5,2.3-1.8,3.4-1.9c1.4,0.1,2.8,0.5,4,1.3c1.2,0.8,2.5,1.4,3.8,1.9
		c5.4,1.3,8.1-2.4,9.7-6.9c0.2-0.5-0.5-0.8-0.9-0.5c-2.8,2.3-5.8,3.5-9.3,1.6c-1.7-0.9-3.1-2.2-4.8-3.1c-2.7-1.3-5.8-1.4-8.7-0.3
		c-2.3,0.9-4.8,2.3-5.7,4.7c-0.7,2-0.5,4,1.6,4.9c0.6,0.3,1.2-0.6,0.5-0.9c-3.8-1.6,0.4-5.8,2-6.7c1.8-1.1,3.7-1.7,5.8-1.7
		c3.5,0.1,5.8,2.4,8.6,4.1c3.9,2.3,7.3,0.9,10.6-1.8l-0.9-0.5c-1.4,4.1-4.2,7.5-9,6c-1.9-0.6-3.2-2.2-5-2.9
		c-4.3-1.6-7.5,4.2-12.1,3.5C99.8,106.9,99.4,107.9,100.1,108z"/>
	<path class="st4" d="M108,96.5c2.1-0.1,4.2,0.4,5.9,1.7c1.2,0.9,2.1,2.1,3.3,3.2c1.1,0.9,2.4,1.3,3.7,1.3c2.9,0.2,5.7-1.1,7.3-3.5
		c-1.1,3.6-4.3,6.2-8.1,6.4c-4.1,0.3-6.5-4.8-10.4-5.1c-2.3-0.2-4.5,0.4-6.3,1.9c-1.2,0.9-1.9,2.5-3.2,3c-0.6,0.4-1.4,0.2-1.9-0.4
		c-1.9-2.4,3.3-6.6,4.8-7.3C104.7,96.9,106.3,96.5,108,96.5z"/>
	<path class="st2" d="M108,97c4.1,0.1,5.8,1.8,8.5,4.2c1,1,2.2,1.6,3.5,1.8c3.4,0.5,6.6-0.8,8.8-3.5l-0.9-0.5c-0.9,2.8-3.2,5-6,5.8
		c-2.6,0.7-4.5-0.4-6.5-1.9c-2.3-1.8-4.2-3.2-7.2-2.9c-2.1,0.2-4.2,1.1-5.7,2.7c-1.2,1.1-0.7,1.7-2.4,0.6c-1.7-1.1-1.1-1.2,0-2.4
		c0.5-0.5,1.1-1.1,1.7-1.5C103.6,97.9,105.7,97.1,108,97c0.6,0,0.6-1.2,0-1.1c-4.2,0.2-7.9,2.5-10,6.1c-1.3,2.7,0.7,5.2,3.5,3.5
		c1.2-0.9,2-2.4,3.5-3.2c2.4-1.5,5.5-1.5,7.9,0c2,1.2,3.7,3.4,6.2,3.8c4.5,0.9,8.7-2.7,10-6.6c0.2-0.4-0.5-1-0.9-0.5
		c-1.4,1.9-3.6,3.1-6,3.2c-3.1,0.2-4.6-1.8-6.7-3.6c-2-1.7-4.6-2.7-7.3-2.6c-0.3,0.1-0.4,0.4-0.3,0.7l0,0
		C107.8,96.9,107.9,96.9,108,97z"/>
	<path class="st5" d="M66.4,119.3c-1.2,2.3-2.9,5.8-1.7,7.8c1.2,1.9,3.6,0.4,4.6-0.7c0.8-1,1.5-2,2.1-3.2c2.3-4.2,5.9-5.8,10-7.9
		c2.4-1.2,5-3.1,5-6c0-5.9-8.1-6.6-12.1-4.4c-2.3,1.2-3.3,3.9-4.3,6.1c-1.1,2.2-2,4.9-3.2,7.3C66.8,118.5,66.6,118.9,66.4,119.3z"/>
	<path class="st6" d="M69.4,126.3c0.5-0.6,1-1.3,1.4-2c-0.1-0.2-0.3-0.3-0.4-0.4c-0.5-0.2-1.1-0.1-1.5,0.2c0.3-0.2-0.3-0.9-0.4-1.1
		c-0.4-0.3-0.7-0.4-1.2-0.5c-0.2,0-1.1,0.3-0.9,0.6c-0.1-0.3,0-0.5-0.2-0.7c-0.1-0.2-0.3-0.4-0.4-0.4s-0.4-0.1-0.6-0.1
		c-0.7,1.8-1.2,3.7-0.4,5C65.8,128.9,68.4,127.5,69.4,126.3z"/>
	<path class="st7" d="M81.6,104c0.6,0.8,1.1,1.7,1.2,2.7c0.4,2.9-1.9,5.1-4.2,6.6c-3.8,2.5-7.2,4.7-8.9,9.2c-0.4,1.2-1,2.4-1.7,3.5
		c-0.6,0.9-1.6,1.6-2.7,1.9c1.2,0.4,2.9-0.5,3.8-1.4c0.8-1,1.5-2,2.1-3.2c2.3-4.2,5.9-5.8,10-7.9c2.4-1.2,5-3.1,5-6
		S84.1,104.6,81.6,104z"/>
	<path class="st2" d="M66,119c-1.1,2.1-3.3,5.9-1.7,8.3c1.2,1.9,3.5,1.2,5-0.1c1.2-1.2,2-2.4,2.7-3.8c1.5-2.5,3.6-4.5,6.2-5.8
		c2.8-1.6,6.6-2.7,8.2-5.8c2.7-5.2-2.8-8.7-7.3-8.6C70.5,103.4,69,112.7,66,119c-0.3,0.6,0.6,1.2,0.9,0.5c2.1-4.3,3.8-12.7,8.8-14.7
		c4.6-1.8,13.8,1.2,9,7.4c-2.7,3.5-8.3,4.3-11.4,7.6c-1.6,1.6-2.3,3.6-3.7,5.4c-0.4,0.6-1,1.2-1.6,1.6c-2.7,0-3.6-1-2.8-3
		c0.4-1.5,1.1-2.9,1.8-4.3C67.2,118.9,66.2,118.4,66,119z"/>
	<path class="st5" d="M76.9,86.7c-0.3,0.1-0.5,0.2-0.8,0.2c-2.5,0.5-7,1.2-9.2-0.5c-1.2-1.2-1.6-2.8-1.1-4.3
		c0.6-1.3,1.8-2.3,3.1-2.7c3.2-1.2,7.2-2,10.3-0.2c1.4,0.8,2,2.4,1.7,4C80.6,85.1,78.8,86.1,76.9,86.7z"/>
	<path class="st7" d="M77,86.7l-0.8,0.2c-2.5,0.5-7,1.2-9.2-0.5c-1.2-1.1-1.7-2.8-1.2-4.3c0.6-1.3,1.8-2.3,3.1-2.7
		c3.2-1.2,7.2-2,10.3-0.2c1.3,0.8,2,2.4,1.7,3.9C80.8,85.1,78.9,86.1,77,86.7z"/>
	<path class="st5" d="M77.5,50.1c-1.9,0.1-3.7,0.6-5.3,1.6c-4.2,2.1-2.7,6.2-0.6,9.3c1.5,2.3,3.3,4.4,4.6,6.9
		c1.3,2.5,2.1,5.2,2.6,8.1c1,5.8,0.1,11.8-2.7,17c-2.7,4.9-5.8,10.3-3.6,16c1.9,4.8,6.5,7.3,11.4,7.7c11.4,0.8,18.5-8.6,20.6-18.9
		c3.5-17.6-8.7-38.2-23.9-46.7C79.6,50.5,78.5,50.2,77.5,50.1z"/>
	<path class="st7" d="M88.6,113.3c-4.8,1.3-10.9-1.8-12.7-6.5c-2.3-5.8,0.9-11.2,3.6-16c2.7-5.2,3.7-11.2,2.7-17
		c-0.4-2.8-1.2-5.5-2.6-8.1c-1.3-2.4-3.2-4.5-4.6-6.9c-1.7-2.7-3-5.9-1-8.1c-0.6,0.3-1.2,0.5-1.9,0.8c-4.2,2.1-2.7,6.2-0.6,9.3
		c1.5,2.3,3.3,4.4,4.6,6.9c1.3,2.5,2.1,5.2,2.6,8.1c1,5.8,0.1,11.8-2.7,17c-2.7,4.9-5.8,10.3-3.6,16c1.9,4.8,6.5,7.3,11.4,7.7
		c4.2,0.4,8.3-0.9,11.7-3.5C92.7,111.9,91.5,112.5,88.6,113.3z"/>
	<path class="st2" d="M77.5,49.6c-3.9,0.1-8.9,2.3-8.4,6.9c0.5,2.3,1.5,4.4,3,6.3c2.5,3.5,4.7,6.6,5.8,10.9c1,4.2,1.1,8.4,0.2,12.6
		c-1,4.3-3.5,7.9-5.2,11.9c-2.1,4.9-2.4,10.4,1.3,14.6c7,7.9,19.7,4.7,25.5-2.7c7.1-9,7.2-21.6,3.5-32c-2.2-6.3-5.7-12.1-10-17.2
		c-3.7-4.3-9.7-10.4-15.5-11.2c-0.7-0.1-1,0.9-0.3,1.1c4.9,0.7,9.6,5.2,12.9,8.6c3.6,3.7,6.6,7.9,9,12.5c4.7,8.9,6.9,19.7,3.6,29.6
		c-3.2,9.8-13.7,18.7-24.5,13.4c-7.5-3.7-7-11.8-3.7-18.3c2.3-4.5,4.3-8.4,4.8-13.5c0.5-5.7-0.6-11.3-3.5-16.3
		c-1.4-2.4-3.4-4.4-4.7-6.9c-1-1.8-1.6-3.4-0.8-5.2c1.1-2.5,4.3-3.6,6.9-3.7c0.3,0,0.5-0.3,0.5-0.5C78,49.8,77.7,49.6,77.5,49.6z"/>
	<path class="st5" d="M87.6,69.2c7.3-8.1-4.3-16.6-11.6-17.7c-1.2-0.3-2.6-0.2-3.8,0.3c-2.9,1.1-2.9,4.7-2.8,7.3
		c0.1,3.1,0.4,6.1,0.7,9.2c0.5,4.7,0.7,9,2.5,13.5c0.5,1.8,1.7,3.3,3.2,4.3c3,1.8,7-0.2,8.7-3.2c1.7-3,1.7-6.6,1.6-10.1
		c-0.1-0.6,0-1.2,0.3-1.9C86.6,70.3,87,69.8,87.6,69.2z"/>
	<path class="st7" d="M72,54.8c1.6-1,3.5-1.5,5.3-1.6c1.1,0.1,2,0.4,3,1c13,7.2,23.7,23.2,24.4,38.7c0.7-16.5-10.5-34.3-24.5-41.9
		c-0.9-0.5-1.9-0.9-3-0.9c-1.9,0.1-3.7,0.6-5.3,1.6c-2.2,0.9-3.3,3.4-2.4,5.6C70,56.1,70.9,55.2,72,54.8z"/>
	<path class="st7" d="M86.4,70.2c-0.6,0.4-1.2,0.9-1.8,1.4c-0.4,0.5-0.5,1.2-0.6,1.8c-0.7,3.5-1.5,6.9-3.8,9.5
		c-1.4,1.5-3.4,2.4-5.5,2.5c0.3,0.3,0.6,0.5,1,0.8c3,1.8,7-0.2,8.7-3.2c1.7-3,1.7-6.7,1.6-10.2c-0.1-0.6,0-1.2,0.3-1.9
		c0.4-0.6,0.8-1.2,1.3-1.7l0.1-0.2C87.4,69.5,87,69.9,86.4,70.2z"/>
	<path class="st7" d="M69.7,64.1c0.3-2.7,0.6-5.3,1.2-7.9c0.3-1.6,0.8-3.2,1.5-4.6h-0.2c-2.9,1.2-2.9,4.8-2.9,7.4
		C69.4,60.8,69.5,62.5,69.7,64.1z"/>
	<path class="st2" d="M71.9,51.4c-4.8,2.4-3.1,10.2-2.7,14.3c0.6,6.1,0.4,15.1,4.9,19.8c3.2,3.4,8.2,1.6,10.5-1.9
		c1.6-2.5,1.9-5.6,1.9-8.5c0.1-2.4,0.9-4.6,2.3-6.6c0.8-1.2,1.3-2.4,1.6-3.7c0.2-0.7-0.9-1-1.1-0.3c-0.5,2.7-2.7,3.8-3.5,6.1
		c-0.5,1.3-0.3,3-0.3,4.4c-0.1,2.8-0.3,5.9-2.1,8.2c-2.7,3.7-7.3,3.9-9.7-0.3c-2.7-4.6-2.7-10.9-3.3-16c-0.4-3.9-2.4-12.6,2-14.8
		C73.1,52,72.6,51,71.9,51.4L71.9,51.4z"/>
	<path class="st5" d="M118.5,60.5c0.7,0,1.4,0.2,2,0.4c0.4,0.1,0.8,0.4,1.2,0.6c1.2,1.1,0.2,3.1-0.8,3.9c-1.2,0.8-2.6,1.4-4,1.7
		c-3.5,1.2-6.5,3.5-9.4,5.7c-2.5,1.9-6.8,5.8-10.1,5.2c-2.6-0.4-3.3-3.5-2.8-5.7c0.8-3.9,4.1-6.2,7.5-7.7c2.9-1.3,5.8-2.4,8.9-3.1
		C113.4,60.8,115.9,60.5,118.5,60.5z"/>
	<path class="st6" d="M121.7,61.4c-0.4-0.3-0.7-0.5-1.2-0.6c-0.7-0.2-1.3-0.3-2-0.4c-1.1-0.1-2.2,0-3.3,0.2v0.3
		c0.1,0.6,0.7,0.9,1.2,1.2c-0.4-0.2-0.6,0.8-0.6,1c0,0.4,0.1,1,0.4,1.3c0.1,0.2,0.9,0.7,1.2,0.4c-0.1,0.3-0.4,0.4-0.5,0.6
		c-0.1,0.2-0.1,0.4,0,0.7c0.1,0.4,0.4,0.7,0.7,0.9c1.2-0.3,2.5-0.8,3.5-1.5C121.9,64.5,122.8,62.5,121.7,61.4z"/>
	<path class="st7" d="M100.9,77.3c2.4-1.3,4.6-2.8,6.6-4.6c2.9-2.2,5.8-4.5,9.4-5.7c1.4-0.4,2.7-0.9,4-1.7c0.9-0.7,1.7-2.5,1.1-3.6
		c-0.3,0.5-0.5,1.1-1.1,1.4c-1.2,0.8-2.6,1.4-4,1.7c-3.5,1.2-6.5,3.5-9.4,5.7c-1.9,1.3-4.7,3.9-7.4,4.9"/>
	<path class="st5" d="M80.9,70.9c0.9-0.3,1.9-0.2,2.7,0.3c4.8,3.2-7.7,11.3-9.9,13.1c-0.9,0.8-1.8,1.4-2.8,1.9
		c-1.1,0.5-2.3,0.5-3.4,0.1c-1.5-0.9-2.3-2.6-2-4.2c0.4-2.6,2.8-4.2,4.7-5.6C73.3,74.2,77.1,71.6,80.9,70.9z"/>
	<path class="st6" d="M83.7,71.2c-0.8-0.4-1.9-0.6-2.7-0.3c-1.4,0.4-2.8,0.8-4.1,1.5c0,0.3,0.1,0.5,0.2,0.8c0.4,0.4,1,0.7,1.6,0.7
		c-0.4,0-0.3,1-0.3,1.2c0.1,0.4,0.4,0.9,0.8,1.2c0.2,0.1,1.2,0.4,1.2-0.1c0,0.3-0.3,0.5-0.3,0.8s0.1,0.4,0.2,0.6
		c0.3,0.4,0.8,0.7,1.3,0.5C84.3,75.5,86.1,72.7,83.7,71.2z"/>
	<path class="st7" d="M83.7,71.2L83.7,71.2c1.9,3.6-8.9,10.5-10.9,12.2c-0.9,0.8-1.9,1.4-2.8,1.9c-1.1,0.5-2.3,0.5-3.4,0.2l-0.4-0.3
		c0.4,0.5,0.8,0.9,1.3,1.2c1.2,0.4,2.4,0.4,3.5-0.2c1.1-0.5,1.9-1.2,2.8-1.9C76,82.5,88.5,74.4,83.7,71.2z"/>
	<path class="st5" d="M69.7,54.4c-1-0.4-1.9-0.7-3-0.9c-1.1-0.2-2.1,0.1-3,0.6c-0.2,0.1-0.3,0.3-0.4,0.4s-0.1,0.4,0,0.5
		c0.2,0.8,0.5,1.4,1.1,2c0.7,0.8,1.5,1.4,2.5,1.8c1,0.4,2,0.3,2.9-0.1"/>
	<path class="st2" d="M69.8,53.8c-1.6-0.8-3.5-1.1-5.2-0.7c-1.2,0.4-2,1.1-1.8,2.3c0.8,3,4,4.8,7,4h0.1l0.4-0.1
		c0.6-0.3,0.1-1.2-0.5-0.9c-2.3,0.7-4.8-0.4-5.7-2.7c-0.8-2.7,4.5-1.2,5.6-0.7C70.1,55.2,70.5,54.1,69.8,53.8L69.8,53.8z"/>
	<path class="st8" d="M69.1,55.5c0.4,0.1,0.6,0.3,0.9,0.4c0.2,0.1,0.3,0.2,0.3,0.4c0.1,0.4,0.1,0.6,0,1c0,0.1,0,0.1-0.1,0.2
		C70,57.5,70,57.5,70,57.5c-0.3,0.1-0.6,0.1-0.9,0c-0.3-0.1-0.5-0.2-0.8-0.3c-0.4-0.2-0.6-0.4-0.9-0.6S66.9,56,67,55.5
		c0-0.2,0.4-0.2,0.4-0.2h0.7C68.5,55.3,68.8,55.4,69.1,55.5z"/>
	<path class="st2" d="M70,56.9c-0.4,0.1-0.9,0-1.3-0.1c-0.4-0.2-1.2-0.5-1.1-1.2c0.1-0.5-0.9-1-1.1-0.3c-0.2,0.8,0.2,1.7,1,2.1
		c0.7,0.4,1.6,0.6,2.5,0.5C70.6,58,70.7,56.8,70,56.9L70,56.9z"/>
	<path class="st2" d="M70.2,55.4c-1.7-1-3.8-0.9-5.4,0.3c-0.5,0.4,0,1.3,0.5,0.9c1.2-0.9,3-1,4.3-0.3C70.3,56.8,70.8,55.8,70.2,55.4
		z"/>
	<path class="st6" d="M74.9,56c1.2-2.1-0.1-6.4-3-6.3c-2.1,0.3-3.6,2.1-3.5,4.2c0,0,0,0,0,0.1c0,0.2,0.1,0.4,0.1,0.4
		C69.4,57.2,73.3,58.7,74.9,56L74.9,56z"/>
	<path class="st9" d="M75.5,56.2c0.3-1.4-0.1-2.9-1.1-4.1c-1.1-1.2-2.6-1.9-4.2-1.9c-0.9-0.1-0.9,1.3,0,1.4c1.2,0,2.2,0.5,3,1.3
		c0.7,0.8,1,1.9,0.8,2.9C74,56.8,75.4,57.2,75.5,56.2z"/>
	<path class="st2" d="M75.4,56.3c1-1.9,0.6-4.3-0.9-6c-1.4-1.4-3.7-1.4-5.1,0l0,0c-0.2,0.2-0.4,0.4-0.5,0.6
		c-1.4,1.9-1.1,4.5,0.9,5.9l0.1,0.1C71.6,58.3,74.2,58.3,75.4,56.3c0.2-0.3,0.1-0.6-0.2-0.8c-0.3-0.2-0.6-0.1-0.7,0.2
		c-0.9,1.6-2.9,1.3-4.2,0.3c-1.4-1.2-1.6-3.1-0.4-4.5l0,0l0.2-0.2c2.8-3.2,5.8,1.7,4.4,4.4C74.2,56.3,75.1,56.8,75.4,56.3z"/>
	<path class="st6" d="M71.3,54.4c0.7-1.8-0.3-5.5-2.1-5.5c-1.4,0-2.4,2.2-1.9,4C67.8,55.2,70.4,56.6,71.3,54.4L71.3,54.4z"/>
	<path class="st9" d="M71.5,54.9c0.5-1.3,0.4-2.9-0.4-4.1c-0.9-1.1-2.3-1.7-3.6-1.6c-0.4,0-0.7,0.4-0.7,0.7c0,0.4,0.4,0.7,0.7,0.7
		l0,0c1-0.2,2,0.3,2.7,1.1c0.4,0.9,0.4,1.9,0.1,2.7C69.9,55.3,71.2,55.7,71.5,54.9z"/>
	<path class="st2" d="M71.8,54.4c0.5-1.8,0.3-3.7-0.9-5.1c-0.7-1-2-1.2-3-0.5c-0.4,0.3-0.6,0.5-0.7,0.9c-1.1,1.9-0.6,4.2,1,5.6
		c0.9,0.9,2.2,0.9,3.1,0l0,0C71.5,55.1,71.7,54.8,71.8,54.4c0.3-0.6-0.7-0.9-1-0.3c-0.6,1.5-2.1,0.3-2.7-0.5c-0.8-1.2-0.6-2.8,0.4-4
		c1.2-1,1.9,0.6,2.3,1.5c0.4,1,0.4,2,0.1,3C70.5,54.9,71.5,55.1,71.8,54.4z"/>
	<path class="st6" d="M68.5,51.7c0.2-1.7-1.4-5-2.8-4.7c-1.2,0.3-1.3,2.3-0.5,3.9C66.1,52.9,68.4,53.9,68.5,51.7L68.5,51.7z"/>
	<path class="st9" d="M64.8,48.5c0.8,0.3,1.5,0.8,1.9,1.6c0.3,0.4,1,1.7,0.5,2.1c-0.6,0.7,0.4,1.7,1,1c1.8-2.1-1-5.6-3.1-6.1
		c-0.4-0.1-0.8,0.1-0.9,0.5C64.2,48,64.5,48.4,64.8,48.5z"/>
	<path class="st2" d="M69.1,51.7c0-1.7-0.7-3.4-1.9-4.6c-1.2-1.2-2.7-0.4-3,1.2c-0.3,1.9,0.5,3.8,2.1,4.8c0.7,0.6,1.8,0.4,2.4-0.3
		C69,52.5,69.1,52.1,69.1,51.7c0-0.7-1-0.7-1.1,0c-0.1,1.3-1.4,0.4-1.9-0.2c-0.9-0.9-1.2-2.2-0.8-3.5c0.5-1.2,1.5,0.3,1.9,0.8
		c0.5,0.9,0.8,1.9,0.8,2.8C68,52.4,69.1,52.4,69.1,51.7z"/>
	<path class="st6" d="M65.6,49.4c0-1.4-1.7-3.8-2.8-3.5c-0.9,0.4-1,2-0.2,3.3C63.6,50.6,65.7,51.1,65.6,49.4L65.6,49.4z"/>
	<path class="st9" d="M62.2,47.2c1.8,0.2,2.2,1.6,2,3.2c-0.1,0.9,1.3,0.9,1.4,0c0.2-1.2-0.1-2.4-0.8-3.4c-0.7-0.8-1.7-1.2-2.7-1.2
		C61.3,45.6,61.3,47,62.2,47.2L62.2,47.2z"/>
	<path class="st2" d="M66.1,49.4c-0.1-1.5-0.9-2.8-2.1-3.6c-0.7-0.5-1.7-0.4-2.2,0.4c0,0,0,0-0.1,0.1c-0.2,0.3-0.4,0.6-0.3,1
		c-0.1,1.6,0.7,3,2.1,3.7c0.8,0.4,1.8,0.3,2.2-0.5C66,50.1,66.1,49.8,66.1,49.4c-0.1-0.3-0.4-0.5-0.6-0.5S65,49.1,65,49.4
		c0,0.9-0.9,0.6-1.4,0.3c-0.8-0.5-1.2-1.5-1.2-2.5c0.2-1,1-0.5,1.4,0c0.6,0.6,1.1,1.4,1.2,2.3C65.2,50,66.2,50,66.1,49.4z"/>
	<path class="st6" d="M63.5,47.6c-0.3-1.2-1.9-3.3-2.8-2.9c-0.8,0.4-0.4,1.8,0.4,2.7C62.2,48.7,63.8,49.1,63.5,47.6L63.5,47.6z"/>
	<path class="st9" d="M60.7,46c0.9,0.4,1.5,1.4,1.5,2.5c-0.1,0.9,1.3,0.9,1.4,0c0-1.6-0.9-3-2.2-3.7C60.7,44.2,59.9,45.4,60.7,46z"
		/>
	<path class="st2" d="M63.9,47.5c-0.4-1.2-1.2-2.3-2.2-3c-0.5-0.4-1.3-0.4-1.8,0.1c-0.3,0.3-0.4,0.6-0.3,1.1
		c0.2,1.4,1.1,2.7,2.4,3.4C63.2,49.4,64.2,48.7,63.9,47.5c-0.2-0.7-1.2-0.4-1.1,0.3c0,0.3,0.1,0.4-0.1,0.3c-0.4-0.1-0.6-0.3-0.9-0.4
		c-0.7-0.5-1.1-1.3-1.2-2.2c0-0.2,0-0.2,0.3-0.1c0.3,0.2,0.5,0.4,0.8,0.6c0.5,0.5,0.9,1.2,1.2,1.9c0.1,0.3,0.4,0.4,0.7,0.3l0,0
		C63.8,47.9,64,47.7,63.9,47.5z"/>
	<path class="st6" d="M61.5,45.3c-0.4-0.9-2.2-2.3-2.8-1.8c-0.6,0.5,0,1.6,0.9,2.2C60.5,46.6,62,46.5,61.5,45.3L61.5,45.3z"/>
	<path class="st9" d="M58.1,44.3c0.7,0.4,1.7,1,1.9,1.9c0,0.4,0.4,0.7,0.7,0.7c0.4,0,0.7-0.4,0.7-0.7c-0.3-1.4-1.2-2.6-2.5-3.1
		c-0.4-0.2-0.8-0.1-1,0.3C57.6,43.6,57.8,44,58.1,44.3L58.1,44.3L58.1,44.3L58.1,44.3z"/>
	<path class="st2" d="M61.9,45.1c-0.5-1-1.4-1.7-2.4-2c-0.5-0.3-1.2,0-1.5,0.5c-0.2,0.4-0.2,0.7,0,1.1c0.4,1.2,1.5,2.1,2.7,2.3
		c0.6,0.2,1.2-0.2,1.4-0.8C62.2,45.8,62.2,45.4,61.9,45.1c-0.2-0.5-1.1,0-0.9,0.6c0.1,0.2,0.1,0.2-0.1,0.2c-0.3,0-0.5-0.1-0.8-0.3
		c-0.6-0.3-1.1-0.8-1.2-1.5V44c0,0.1,0.2,0,0.2,0c0.3,0.1,0.5,0.2,0.8,0.4c0.4,0.4,0.9,0.7,1.2,1.2C61.3,46.2,62.2,45.7,61.9,45.1z"
		/>
	<path class="st5" d="M111.4,122.2c0.5,1.8,1.2,4.6-0.1,6.2c-2,2.6-5-0.1-6.6-1.8c-2.1-2.4-4.5-4.4-7.2-6.2
		c-2.9-1.9-7.7-3.6-8.9-7.1c-0.9-2.5-0.1-5.2,1.9-6.8c0.9-0.5,1.9-0.8,2.8-0.8c8.1-0.3,14.6,8.6,17.4,15.2
		C111,121.3,111.2,121.7,111.4,122.2z"/>
	<path class="st6" d="M109.6,121.4c-0.4,0.4-0.8,1-0.8,1.5c0.1-0.4-1-0.4-1.2-0.3c-0.4,0.1-0.9,0.4-1.2,0.7c-0.1,0.2-0.4,1.2,0,1.2
		c-0.3,0-0.5-0.3-0.8-0.3c-0.3,0-0.4,0-0.7,0.2c-0.7,0.4-0.7,1.3-0.4,2.1l0,0c1.5,1.7,4.5,4.3,6.6,1.8c1.3-1.7,0.6-4.4,0.1-6.2
		l-0.2-0.4C110.9,121.2,110.1,121,109.6,121.4z"/>
	<path class="st7" d="M88.6,113.3c1.2,3.5,6,5.2,8.9,7.1c2.7,1.8,5,3.8,7.2,6.2c1.5,1.7,4.5,4.3,6.6,1.8c0.3-0.3,0.4-0.6,0.5-1
		c-2,1.5-4.6-0.9-5.9-2.4c-2.1-2.4-4.5-4.4-7.2-6.2c-2.7-1.7-6.7-3.3-8.4-6"/>
	<path class="st1" d="M70.9,62c-0.4,0.3-1,0.4-1.5,0.4c-0.4-0.1-1-0.2-1.4-0.1c-0.4,0.1-1,0.4-1.3,0.6c-0.4,0.4-0.9,0.8-1.4,1.2
		c-0.5,0.3-1.1,0.4-1.6,0.3c-0.4-0.1-0.8-0.2-1.2-0.4l-0.9-0.4c1.2-0.3,2.5-0.8,3.5-1.7c0.5-0.7,1.2-1.3,1.8-1.9
		c0.8-0.4,1.7-0.7,2.6-0.6h1.2c0.4,0,0.8,0.1,1.1,0.4C72.1,60.3,71.5,61.6,70.9,62z"/>
	<path class="st2" d="M70.6,61.5c-1.2,0.6-2.6-0.2-3.8,0.6c-0.4,0.3-0.6,0.5-1,0.8c-1.5,1.2-2.4,0.9-4,0.2l-0.1,1
		c1.6-0.4,3.1-1.2,4.2-2.4c0.7-1,1.8-1.7,2.9-1.8c0.4-0.1,0.8-0.1,1.2,0c0.5-0.2,0.8,0,0.8,0.6C71.2,60.9,71.1,61.4,70.6,61.5
		c-0.6,0.4,0.2,1.2,0.7,0.8c1.9-1.7,1.2-3.6-1.3-3.6c-1.2-0.1-2.4,0.2-3.5,0.8c-0.5,0.4-1.1,1-1.5,1.6c-1,1-2.2,1.7-3.6,1.9
		c-0.4,0.1-0.5,0.8-0.1,1c1.4,0.6,2.7,1.2,4.2,0.4c0.3-0.2,0.5-0.4,0.8-0.6c0.8-0.6,1.8-1,2.8-1c0.6,0,1.3-0.1,1.9-0.4
		C71.7,62.2,71.2,61.3,70.6,61.5z"/>
	<path class="st3" d="M70.7,60.6c-1.1,0.5-1.9-0.5-3-0.3c-0.4,0.1-0.8,0.4-1.2,0.7c-0.5,0.5-1,1.1-1.5,1.6c-0.5,0.5-1.1,1-1.8,1.2
		c-0.7,0.3-1.5,0.1-2-0.3c0.6,0,1.2-0.3,1.7-0.6c0.6-0.6,1.1-1.3,1.4-2.1c0.4-0.5,0.8-1.1,1.2-1.6c0.2-0.2,0.4-0.4,0.5-0.5
		c0.3-0.2,0.5-0.4,0.8-0.4c0.5-0.3,1.2-0.4,1.8-0.5c1-0.1,1.9,0.2,2.7,0.7c0.4,0.3,0.5,0.7,0.4,1.2C71.5,59.9,71.2,60.4,70.7,60.6z"
		/>
	<path class="st2" d="M70.7,60.1c-1.4,0.4-2.4-0.8-3.7,0c-1.6,0.9-2.8,4.3-5.3,2.9l-0.1,1c1.4-0.3,2.6-1.2,3.1-2.5
		c0.5-1.1,1.3-2,2.3-2.8c0.6-0.4,1.2-0.6,1.9-0.6c0.4-0.1,0.8,0,1.2,0.2C71.1,58.3,71.2,59,70.7,60.1c-0.6,0.4-0.1,1.3,0.4,0.9
		c2.3-1.5,1-3.8-1.4-4.1C68.4,56.8,67,57.2,66,58c-1.7,1.3-2.4,4.6-4.7,4.9c-0.4,0.1-0.4,0.8-0.1,1c1.2,0.7,2.8,0.5,3.9-0.4
		c1.2-1,1.9-2.7,3.7-2.6c0.9,0,1.3,0.4,2.3,0.2c0.3-0.1,0.4-0.4,0.3-0.7C71.1,60.2,70.8,60,70.7,60.1z"/>
	<path class="st4" d="M69.4,56.6c-0.5,0-1.1,0.1-1.6,0.3c-1.5,0.6-2.7,1.8-3.5,3.3c-0.4,0.7-0.8,1.5-1.2,2.2
		c-0.4,0.7-1.2,1.2-2.1,1.2c0.5,0.3,1.2,0.3,1.8,0c0.4-0.2,0.6-0.4,0.9-0.8c0.6-0.7,1.2-1.4,1.7-2.2s1.2-1.4,1.9-1.9
		c0.9-0.4,1.9-0.4,2.7,0c0.3,0.2,0.6,0.3,0.9,0.3c0.4,0.1,0.6-0.1,0.9-0.4c0.2-0.3,0.2-0.5,0-0.7C71.3,57,70.4,56.6,69.4,56.6z"/>
	<path class="st2" d="M69.4,56c-1.5,0-2.9,0.6-4,1.7c-1.5,1.4-2.4,4.9-4.5,5.1c-0.3,0-0.5,0.3-0.5,0.6l0,0c0,0.2,0.2,0.4,0.4,0.4
		c1.6,0.6,2.6-0.2,3.6-1.4c0.6-1,1.3-1.9,2.1-2.7c1.9-1.7,2.5-0.4,4.3-0.3c0.8,0,1.6-0.4,1.6-1.2c0-1.3-1.7-2-2.7-2.2
		c-0.7-0.1-1,1-0.3,1.1c0.4-0.1,0.8,0.2,0.9,0.5l0,0v0.1c0.5,0.6,0.5,0.8-0.1,0.4c-0.4-0.1-0.7-0.2-1.1-0.3c-0.7-0.1-1.3,0-2,0.3
		c-1.9,0.8-3.6,5.7-5.9,4.8L61,64c4.2-0.5,3.7-6.8,8.5-6.9c0.3-0.1,0.4-0.4,0.4-0.6l0,0C69.8,56.2,69.6,56,69.4,56z"/>
	<path class="st2" d="M97.2,68.5c3.1-2.9,7.3-4.4,11.3-5.8c2-0.6,4.2-1.2,6.3-1.5c1.2-0.3,2.4-0.4,3.6-0.3l1.9,0.4
		c0.9,2.6,0.4,4.1-1.6,4.5c-3.1,1.6-6.1,2.5-9,4.6c-2.9,2.1-5.6,4.5-8.8,6.3c-0.6,0.4,0,1.2,0.5,0.9c5.5-3,9.7-7.9,15.6-10
		c2.2-0.8,7.3-2.6,5.3-6c-1.9-3.1-8.2-1.2-10.9-0.6c-5.1,1.2-11.1,3.1-15.1,6.9C96,68.3,96.7,69,97.2,68.5L97.2,68.5z"/>
	<path class="st2" d="M73.4,85.3c3.7-3,8.6-5.7,11-9.8c0.9-1.2,1-2.7,0.4-3.9c-1.7-2.4-5.4-0.8-7.3,0c-4.2,1.9-14.9,7.3-12.2,13.5
		c1.9,4.4,8.1,2.8,11.8,2.2c0.7-0.1,0.4-1.2-0.3-1.1c-2.9,0.5-6.8,1.9-9.3-0.3c-6.3-5.1,9.7-14.1,13.5-14.5c7.1-0.8,0.3,6.3-1.7,7.9
		c-2.1,1.9-4.4,3.5-6.6,5.1C72.2,84.9,72.9,85.6,73.4,85.3z"/>
	<path class="st2" d="M76.9,65.8c0.2,1.2,1.4,2.1,2.7,1.9l0,0h0.1c1.4-0.3,2.5-1.3,2.7-2.7c0.1-0.7-0.9-1-1.1-0.3
		c-0.1,0.8-0.6,1.5-1.4,1.9c-0.6,0.4-1.4,0.1-1.8-0.5c-0.1-0.1-0.1-0.3-0.2-0.4C77.8,64.8,76.8,65.1,76.9,65.8z"/>
	<path class="st2" d="M77.9,66.8L77.5,68c-0.1,0.3,0.1,0.5,0.4,0.6c0.3,0.1,0.5-0.1,0.7-0.4l0.4-1.2c0.1-0.3-0.1-0.5-0.4-0.6l0,0
		l0,0C78.3,66.4,78,66.5,77.9,66.8L77.9,66.8z"/>
	<path class="st2" d="M79.2,67.3l0.1,0.9c0.1,0.3,0.4,0.4,0.6,0.4s0.4-0.4,0.4-0.6L80.2,67c-0.1-0.3-0.4-0.4-0.7-0.3
		C79.3,66.8,79.2,67,79.2,67.3z"/>
	<path class="st2" d="M80.5,66.7l0.5,1c0.4,0.6,1.2,0,0.9-0.5l-0.5-1C81.1,65.5,80.1,66.1,80.5,66.7z"/>
	<path class="st2" d="M69.9,67.4c0.2,1.1,1.2,1.8,2.2,1.6l0,0l0,0c1.2-0.2,2-1.2,2.2-2.3c0.1-0.7-0.9-1-1.1-0.3
		c-0.1,0.6-0.4,1.2-1.1,1.4c-0.4,0.2-1.1,0-1.2-0.4c-0.1-0.1-0.1-0.2-0.1-0.3C70.8,66.4,69.8,66.7,69.9,67.4L69.9,67.4z"/>
	<path class="st2" d="M70.7,68.3l-0.4,0.9c-0.1,0.3,0.1,0.6,0.4,0.7c0.3,0.1,0.5-0.1,0.7-0.4l0.4-0.9c0.1-0.3-0.1-0.5-0.4-0.6l0,0
		l0,0C71.1,67.7,70.8,67.9,70.7,68.3C70.7,68.2,70.7,68.2,70.7,68.3z"/>
	<path class="st2" d="M71.7,68.6l0.1,0.7c0.1,0.3,0.4,0.4,0.6,0.4s0.4-0.4,0.4-0.6l-0.1-0.7c-0.1-0.3-0.4-0.4-0.6-0.4l0,0
		C71.9,68.1,71.7,68.3,71.7,68.6z"/>
	<path class="st2" d="M72.8,68.3l0.4,0.8c0.4,0.6,1.2,0,0.9-0.5l-0.4-0.8c-0.2-0.3-0.5-0.4-0.7-0.2l0,0C72.8,67.7,72.7,68,72.8,68.3
		z"/>
	<path class="st2" d="M100.1,108.2c3.7,2.6,6.7,5.9,8.8,9.9c0.9,1.5,1.6,3.1,2.1,4.7c0.4,1,0.5,2,0.5,3.1c-1.1,5.4-4.4,2.3-5.9,1
		c-2.6-2.4-4.8-5-7.8-6.9c-3-1.9-7.1-3.3-8.8-6.9c-0.3-0.6-1.2-0.1-0.9,0.5c2.1,4.7,8.1,6.3,12,9.3c2.4,1.9,6.6,8.5,10.4,6.8
		c3.6-1.6,1.9-6.9,0.7-9.5c-2.2-5.2-5.8-9.7-10.4-12.9C100.1,106.9,99.6,107.8,100.1,108.2L100.1,108.2z"/>
	<path class="st2" d="M80.4,83.2c0,0.1-0.1,0.2-0.1,0.3c0.1,0,0.1,0,0.2,0c0.1,0.1,0.2,0.1,0.2,0v-0.3c0-0.1,0.1-0.3,0.1-0.3
		c0-0.1-0.4-0.1-0.4,0C80.4,83,80.4,83.1,80.4,83.2c-0.1,0.7,0.9,1,1.1,0.3c0.2-0.7,0-1.4-0.7-1.5s-1.1,0.5-1.2,1.1
		c-0.1,0.5,0,1.3,0.6,1.5s1.1-0.4,1.2-1.1c0-0.3-0.2-0.5-0.4-0.6l0,0C80.8,82.9,80.5,83,80.4,83.2z"/>
	<path class="st2" d="M75.1,85.3c0.3,0.4,0.9,0.6,1.4,0.4c0.6-0.4,0.4-1.2,0-1.6c-0.3-0.5-0.9-0.7-1.4-0.5
		C74.6,83.8,74.6,84.7,75.1,85.3c0.3,0.4,1.2-0.1,0.8-0.6c0-0.1-0.1-0.2-0.2-0.3c-0.1-0.1,0.2-0.2-0.2,0c-0.4,0.2-0.2,0-0.1,0.2
		s0.1,0.1,0.2,0.2c0.1,0.1,0.1,0.2,0.1,0.2v0l0.4-0.2l-0.3-0.3C75.4,83.9,74.6,84.7,75.1,85.3z"/>
	<path class="st5" d="M78,50.6c0-1.1,0.2-2.1,0.4-3.1c0.3-1.1,1-1.9,1.9-2.5c0.2-0.1,0.4-0.2,0.5-0.2s0.4,0.1,0.4,0.2
		c0.6,0.4,1.1,1.1,1.4,1.8c0.4,1,0.6,1.9,0.5,3c-0.1,1.1-0.5,2-1.4,2.7"/>
	<path class="st2" d="M78.5,50.6c0.1-1.2,1-6.8,3-4.6c1.6,1.8,1.6,4.4,0,6.2c-0.5,0.4,0.3,1.2,0.8,0.8c2.3-2,2-6.7-0.6-8.3
		c-1.1-0.6-2,0.1-2.7,1c-1,1.5-1.5,3.3-1.4,5c0,0.3,0.4,0.5,0.6,0.4C78.4,51,78.5,50.8,78.5,50.6L78.5,50.6z"/>
	<path class="st8" d="M79.4,50.6c0,0.4,0,0.7,0,1c0,0.1,0,0.1,0,0.2c0,0.1,0.1,0.2,0.2,0.3c0.3,0.3,0.5,0.4,0.9,0.4h0.2
		c0.1,0,0.2-0.1,0.2-0.1c0.2-0.2,0.4-0.4,0.4-0.8c0.1-0.3,0.1-0.6,0.1-0.9c0-0.4,0-0.8-0.2-1.2c-0.1-0.4-0.4-0.8-0.8-0.8
		c-0.2,0-0.3,0.3-0.4,0.4c-0.1,0.2-0.2,0.4-0.3,0.7C79.5,50,79.4,50.3,79.4,50.6z"/>
	<path class="st2" d="M81.2,52.5c0.4-0.7,0.7-1.6,0.6-2.5c0-0.9-0.6-1.6-1.4-1.8c-0.7-0.2-1,0.9-0.3,1.1c1.2,0.3,0.4,2.1,0.1,2.7
		C80,52.6,80.8,53.1,81.2,52.5L81.2,52.5z"/>
	<path class="st2" d="M79.9,51.6c-0.2-1.6,0.6-3.1,2-3.9c0.3-0.2,0.4-0.4,0.2-0.7c-0.2-0.3-0.4-0.4-0.7-0.2c-1.7,1-2.7,2.8-2.6,4.8
		C78.8,52.2,80,52.2,79.9,51.6z"/>
</g>
<path class="st10" d="M171.8,90.6c2,3.9,5.2,5.9,7.1,5c1.9-1,1.9-4.8-0.1-8.7c-2-3.9-5.3-6.2-7.3-5.2
	C169.6,82.7,169.7,86.7,171.8,90.6z"/>
<ellipse transform="matrix(0.8829 -0.4696 0.4696 0.8829 -25.4254 87.9048)" class="st11" cx="163.5" cy="94.9" rx="4" ry="8"/>
<path class="st12" d="M148.2,71.4c-1.9-0.6-3.5-3.2-6-4.6c-3.5-2-4.5-5.3-4.2-3.9s-1.1,2.1-1.1,1.9c0-0.2,0.4,0.3,0.1-1.9
	c-0.4-2.2-3.3-3.3-5.3-7.2c-0.7-1.4-1.3-2.8-1.8-4.3c-0.2,0.6-0.2,1.2-0.3,1.8c-4.2-12.8,0.8-20.1,1.5-20.6c-0.8,0.2-1.5,0.5-2,1
	c1.5-4,4.4-4.3,5-4.3c-0.6-0.4-1.4-0.6-2.2-0.4c1.2-1.7,2.5-2.8,4.6-2.8c0.8,0,1.5,0.4,1.9,1.1c-0.6-1.8,0.4-3.7,2.1-4.3l0,0
	l0.4-0.1c-1.4,4.1-0.8,3.3-0.6,3.5c0.2,0.1,2.2-2,4.3-2.2c-0.5,0.3-0.9,0.7-1.1,1.2c2.1-0.9,4.4-2.2,9.2,0.7c-1.2,0-2.2,0.3-3.2,0.9
	c0.6,0.2,8.4,2.6,11,10.7c-0.4-0.2-2.3-1.3-2.6-1.2c1.4,1.1,6.1,4.7,4,18.8c-0.2-0.7-0.8-2.4-1.2-2.4c0.6,1.3-0.4,5.1-4.2,8.7
	C151,66,148.7,68.6,148.2,71.4z"/>
<path class="st13" d="M170.4,71.5c1.1,0,2,0.4,2.8,1.2c0.5,0.6,1,1.2,1.4,1.8c0.9,1.2,1.8,2.5,2.6,3.7c0.8,1.2,1.5,2.6,2.3,3.9
	l1.1,1.9c0.2,0.4,0.4,0.6,0.4,1c0.1,0.5-0.1,1.1-0.5,1.4l-13.1,5.8c-0.5,0-1.1-0.2-1.4-0.5c-0.2-0.4-0.4-0.7-0.4-1.1l-0.8-2.1
	c-0.5-1.4-1-2.8-1.3-4.2c-0.4-1.4-0.7-2.9-1.1-4.4c-0.1-0.8-0.3-1.5-0.4-2.3c0-1.1,0.4-2.1,1.1-2.9L170.4,71.5z"/>
<path class="st14" d="M160.1,77c1.1,0,2,0.4,2.8,1.2c0.5,0.6,1,1.2,1.4,1.8c0.9,1.2,1.8,2.5,2.6,3.7s1.5,2.6,2.3,3.9l1.1,1.9
	c0.2,0.4,0.4,0.6,0.4,1c0.1,0.5-0.2,1.1-0.5,1.4l-13.1,5.8c-0.5,0-1.1-0.2-1.4-0.5c-0.2-0.4-0.4-0.7-0.4-1.1l-0.8-2.1
	c-0.5-1.4-1-2.8-1.4-4.2c-0.4-1.4-0.7-2.9-1.1-4.4c-0.1-0.8-0.3-1.5-0.4-2.3c0-1.1,0.4-2.1,1.1-2.9L160.1,77z"/>
<path class="st15" d="M144.1,85.7l2,4.5c1.9,4.4,9.9,1.4,19.6-3.1c8.3-3.8,18.2-7.9,15.4-14.1l0,0c-6.3-16.6-16.9-28-30.8-21.6l0,0
	c-13.7,6.4-13.1,17.5-8.7,28.8c0,0.1,0,0.2,0,0.2l0.4,0.7C142.6,82.6,143.3,84.1,144.1,85.7z"/>
<path class="st11" d="M123.4,61.4c-0.6-2-2.5-6.3-7.1-4.2c-6.1,2.7,6.3,14.5,0.1,7.4L123.4,61.4z"/>
<path class="st14" d="M146.5,64.8c0.9,0.4,1.2,0.7,1.3,1c0.1,0.3,0.3,0.5,0.4,0.8c0.3,0.4,0.4,1,0.4,1.5c0.1,0.5,0.1,1,0.1,1.5
	c-0.1,0.4-0.2,1-0.3,1.4c-0.5,2-1.5,4-2.7,5.8c-0.2,0.3-0.4,0.4-0.5,0.7l-0.6,0.7c-0.4,0.5-1,1-1.5,1.3c-0.5,0.4-1.2,0.8-1.8,1.1
	c-0.6,0.3-1.3,0.5-1.9,0.7c-1.3,0.4-2.7,0.5-4.1,0.4c-1.2-0.1-2.5-0.3-3.6-0.7c-2.1-0.7-4.1-1.7-5.9-2.9c-1.7-1.2-3.2-2.5-4.6-4
	c-1.3-1.4-2.5-3-3.5-4.7c-0.6-0.8-1.1-1.7-1.3-2.7c-0.1-0.5-0.2-1.1-0.2-1.5c0-0.4,0.1-0.6,0.3-0.9l0.3-0.5c0.1-0.1,0.2-0.3,0.3-0.4
	h0.1l0.1-0.1l0.2-0.2l0.3-0.2l0.4-0.3l3.9-1.9l0.4-0.2l0.4-0.1l0.3-0.1h0.2c0.2,0,0.3,0,0.4,0h0.5c0.3,0,0.5,0.1,0.8,0.2
	c0.4,0.2,0.7,0.4,1.1,0.7c0.5,0.4,1,1.1,1.4,1.7c0.8,1.2,1.7,2.2,2.7,3.3c1,1.1,1.9,1.9,2.8,2.8c0.9,0.8,1.8,1.4,2.8,2
	c0.4,0.2,0.8,0.4,1.2,0.5c0.3,0.1,0.6,0.2,1,0.3c0.7,0.1,1.5-0.2,2-0.6c1-0.8,1.8-1.8,2.3-2.9c0.4-0.7,0.8-1.3,1.4-1.9
	c0.3-0.4,0.6-0.7,1.1-1c0.2-0.2,0.4-0.3,0.7-0.4c0.5-0.3,1.1-0.4,1.6-0.3L146.5,64.8z"/>
<path class="st15" d="M133.8,50c2.9,8.8,12.4,13.5,21.2,10.5c8.8-2.9,13.5-12.4,10.5-21.2c-2.9-8.8-12.4-13.5-21.2-10.5l0,0l0,0
	C135.6,31.8,130.9,41.3,133.8,50z"/>
<path class="st16" d="M176.4,86.1c-1.4,4.9-3.6,14.3-1.9,19.7c2.7,8.4,13.1,15.8,18,18.3c-3.1-5.2-4.2-9.4-3-12.1
	c0.4-0.9,1.6,2.5,4.4,3.4c-0.5-2.2-0.5-4.5,0-6.7c0.4-2.4,0.4-6.9-0.9-9.6c-4.2-8.7-12.7-12.9-14.4-14L176.4,86.1z"/>
<path class="st17" d="M176.4,86.1c-0.8,2-1.9,9.7-0.4,13.5c1.6,3.8,9.2,8.5,12.4,12.6c-0.4-3.9-1.2-5.3-0.4-8.5
	c0.8-3.2,0.8-3.6,0.5-5.5c-0.3-1.9-3.1-5.9-6-9.2c-3.1-3.5-4-3.8-4-3.8L176.4,86.1z"/>
<path class="st18" d="M176.4,86.1c-0.5,2.6-0.7,9.7,1.2,12c2,2.2,3.8,1.9,7.3,5c0.3-1.5-1.8-4.2-0.9-5.8c0.8,0.9,1.1,1.6,2.3,2.1
	c-0.9-1.5-0.6-3.3-1.2-5.3c-0.7-2.4-2.7-4-4.2-5.8c-0.9-0.9-1.6-1.9-2.1-3.1L176.4,86.1z"/>
<path class="st19" d="M177.4,87.3c-4.1,1.6-7.7,2-8.1,0.9l0.8,2c0.4,1.2,4.1,0.7,8.1-0.9c4.1-1.6,6.9-3.8,6.5-5l-0.8-2
	C184.5,83.4,181.6,85.6,177.4,87.3z"/>
<path class="st19" d="M178.5,89.8c-3,1.2-5.8,1.5-6.1,0.6l0.6,1.5c0.4,0.9,3.1,0.5,6.1-0.6c3-1.2,5.2-2.9,4.9-3.7l-0.6-1.6
	C183.7,86.9,181.6,88.5,178.5,89.8z"/>
<path class="st20" d="M161,61.7c0.3,6.6,1.8,13.1,4.3,19.1l2.9,7.3c3.1-0.2,6.1-0.7,9.1-1.6c2.7-1.3,5.3-3,7.7-5
	c0,0-1.1-3.1-2.8-7.4c-2.4-6.2-5.8-11.9-10.3-16.7c-1.6,1.2-3.3,2-5.1,2.8C164.9,61,162.9,61.4,161,61.7z"/>
<path class="st21" d="M163.3,51.6c-1,0.4-2.5,4-2.4,10.1c1.9-0.3,3.9-0.8,5.8-1.5c1.8-0.7,3.5-1.7,5.1-2.7
	C167.8,52.9,164.2,51.3,163.3,51.6z"/>
<path class="st19" d="M176.5,84.5c-4.7,1.9-8.9,2.3-9.4,1l1,2.4c0.5,1.3,4.8,0.9,9.4-1c4.7-1.9,8.1-4.4,7.5-5.8l-1-2.4
	C184.4,80,181.1,82.6,176.5,84.5z"/>
<path class="st22" d="M184,83c-0.6,0.5-1.2,1.1-1.9,1.5c0,0.1,0.1,0.3,0.1,0.4C182.8,84.4,183.5,83.8,184,83z"/>
<path class="st22" d="M183.4,86.6l-0.5,0.4c0,0.1,0.1,0.1,0.1,0.2C183,87,183.2,86.9,183.4,86.6z"/>
<path class="st23" d="M182,84.8c0.3,0.7,0.4,1.4,0.7,2.1l0.5-0.4c0.2-0.2,0.2-0.4,0.1-0.6l0.2,0.4c1-0.8,1.5-1.6,1.2-2l-0.6-1.6
	l-0.3,0.3C183.5,83.8,182.8,84.4,182,84.8z"/>
<path class="st23" d="M183.4,86.6c-0.1,0.2-0.3,0.4-0.4,0.5c0.2,0.5,0.4,1.2,0.5,1.7c0.5-0.5,0.8-1,0.7-1.3l-0.4-1.2l-0.2-0.4
	C183.5,86.1,183.5,86.4,183.4,86.6z"/>
<path class="st24" d="M179.9,78.8c0.4,1.2,0.9,2.2,1.2,3.3c1.8-1.2,2.9-2.3,2.8-3.2c-0.4-1.2-1.2-2.9-1.9-4.8
	c-2.4-6.2-5.8-11.9-10.3-16.7c-0.8,0.5-1.7,1.1-2.5,1.6C173.6,65.1,177.2,71.8,179.9,78.8z"/>
<path class="st25" d="M171.9,57.4c-4.2-4.4-7.6-6.2-8.6-5.8c-0.2,0.1-0.3,0.2-0.4,0.3c2.5,2,4.6,4.4,6.5,7.1
	C170.3,58.4,171.1,57.9,171.9,57.4z"/>
<path class="st23" d="M181.2,82.1c0.3,0.8,0.6,1.7,0.9,2.5c0.7-0.4,1.3-1,1.9-1.5l0.3-0.3c0.4-0.4,0.6-0.8,0.7-1.2l0,0
	c0-0.2,0-0.3,0-0.4l-1-2.4c0,0.1,0.1,0.2,0.1,0.3C184.1,79.7,182.9,80.9,181.2,82.1z"/>
<path class="st16" d="M161.6,91.3c-1.8,4.7-4.7,14-3.5,19.5c1.9,8.6,11.9,16.7,16.5,19.7c-2.7-5.5-3.5-9.7-2-12.3
	c0.4-0.9,1.4,2.6,4.2,3.7c-0.4-2.2-0.2-4.5,0.5-6.6c0.5-2.4,1-6.8-0.1-9.6c-3.5-8.9-11.6-13.9-13.3-15.1L161.6,91.3z"/>
<path class="st17" d="M161.6,91.3c-1,2-2.7,9.6-1.4,13.5c1.2,3.9,8.5,9.2,11.3,13.5c-0.1-3.9-0.8-5.4,0.4-8.5
	c1.2-3.1,1.1-3.5,0.9-5.4c-0.2-1.9-2.6-6.2-5.3-9.7c-2.8-3.6-3.6-4.2-3.6-4.2L161.6,91.3z"/>
<path class="st18" d="M161.6,91.3c-0.7,2.5-1.5,9.7,0.3,12s3.7,2.1,6.9,5.6c0.4-1.5-1.4-4.3-0.4-5.8c0.7,1,0.9,1.7,2,2.3
	c-0.8-1.5-0.4-3.4-0.8-5.4c-0.5-2.4-2.4-4.2-3.8-6.1c-0.8-1-1.4-2-1.9-3.2L161.6,91.3z"/>
<path class="st19" d="M162.7,92.6c-4.2,1.3-7.8,1.4-8.1,0.3l0.7,2.1c0.4,1.2,4,1.1,8.1-0.3c4.2-1.3,7.2-3.3,6.9-4.4l-0.7-2.1
	C170,89.3,166.9,91.3,162.7,92.6z"/>
<path class="st19" d="M163.5,95.2c-3.1,1-5.8,1.1-6.1,0.2l0.5,1.6c0.3,0.9,3,0.8,6.1-0.2c3.1-1,5.4-2.5,5.1-3.4l-0.5-1.6
	C168.9,92.7,166.6,94.2,163.5,95.2z"/>
<path class="st20" d="M148.2,65.8c-0.3,6.6,0.7,13.2,2.7,19.5c1.3,4.3,2.3,7.4,2.3,7.4c3.1,0.1,6.2-0.2,9.2-0.9
	c2.8-1.2,5.5-2.7,8.1-4.4c0,0-0.8-3.2-2.1-7.6c-1.9-6.3-4.9-12.2-8.9-17.5C156,64.5,152.2,65.6,148.2,65.8L148.2,65.8z"/>
<path class="st21" d="M151.4,56c-1,0.3-2.7,3.7-3.2,9.9c2-0.1,4-0.5,5.9-1.2c1.9-0.5,3.6-1.3,5.3-2.4
	C155.7,57.6,152.3,55.6,151.4,56z"/>
<path class="st19" d="M161.9,89.7c-4.8,1.5-9,1.6-9.5,0.3l0.8,2.5c0.4,1.3,4.7,1.2,9.5-0.3c4.8-1.5,8.3-3.8,8-5.1l-0.8-2.5
	C170.3,85.9,166.6,88.2,161.9,89.7z"/>
<path class="st22" d="M169.5,88.8c-0.6,0.5-1.3,1-2,1.3c0,0.1,0,0.3,0.1,0.4C168.2,90.1,168.9,89.5,169.5,88.8z"/>
<path class="st22" d="M168.6,92.4l-0.5,0.4V93C168.2,92.8,168.4,92.6,168.6,92.4z"/>
<path class="st23" d="M167.5,90.6c0.2,0.7,0.4,1.5,0.5,2.2l0.5-0.4c0.2-0.2,0.2-0.4,0.2-0.6l0.1,0.4c1.1-0.7,1.6-1.4,1.4-1.9
	l-0.5-1.7l-0.4,0.3C168.9,89.5,168.2,90.1,167.5,90.6z"/>
<path class="st23" d="M168.6,92.4c-0.2,0.2-0.3,0.4-0.5,0.5c0.2,0.5,0.3,1.2,0.4,1.7c0.6-0.4,0.9-0.9,0.8-1.2l-0.4-1.2l-0.1-0.4
	C168.8,92,168.8,92.3,168.6,92.4z"/>
<path class="st24" d="M165.7,84.3c0.4,1.2,0.7,2.3,1,3.5c1.9-1.1,3.1-2.1,3.1-2.9c-0.4-1.3-0.9-3-1.5-5c-1.9-6.3-4.9-12.2-8.9-17.5
	c-0.9,0.5-1.8,1-2.7,1.3C160.6,70.2,163.6,77.1,165.7,84.3z"/>
<path class="st25" d="M159.5,62.3c-3.8-4.7-7.3-6.7-8.1-6.5c-0.2,0.1-0.3,0.2-0.4,0.3c2.3,2.2,4.2,4.8,5.8,7.5
	C157.8,63.3,158.7,62.9,159.5,62.3z"/>
<path class="st23" d="M166.7,87.7c0.3,0.9,0.4,1.7,0.7,2.5c0.7-0.4,1.4-0.9,2-1.3l0.3-0.3c0.4-0.3,0.6-0.7,0.8-1.2l0,0
	c0-0.2,0-0.3,0-0.4l-0.8-2.5c0,0.1,0,0.2,0,0.3C169.8,85.6,168.7,86.7,166.7,87.7z"/>
</svg>
