<?xml version="1.0" encoding="utf-8"?>
<!-- Generator: Adobe Illustrator 22.1.0, SVG Export Plug-In . SVG Version: 6.00 Build 0)  -->
<svg version="1.1" id="Layer_3" xmlns="http://www.w3.org/2000/svg" xmlns:xlink="http://www.w3.org/1999/xlink" x="0px" y="0px"
	 viewBox="0 0 251 151" style="enable-background:new 0 0 251 151;" xml:space="preserve">
<style type="text/css">
	.st0{opacity:0.17;}
	.st1{fill:#E1DEEE;}
	.st2{fill:#FCFDFF;}
	.st3{fill:#E5E5E4;}
	.st4{fill:#151314;}
	.st5{fill:#BDBAC1;}
	.st6{fill:#B3B3B4;}
	.st7{fill:#DEDBDC;}
	.st8{fill:#9B9597;}
	.st9{fill:#22212C;}
	.st10{fill:#514B4D;}
	.st11{fill:#CBC9D5;}
	.st12{fill:#B9B7C4;}
	.st13{fill:#252527;}
	.st14{fill:#313133;}
	.st15{fill:#FFFFFF;}
	.st16{fill:#312F33;}
	.st17{fill:#19181D;}
	.st18{fill:#373638;}
	.st19{fill:#E84C59;}
	.st20{fill:#EE7B5C;}
	.st21{fill:#F9C862;}
	.st22{fill:#062633;}
	.st23{fill:#ABAAAA;}
	.st24{fill:#E1DFE0;}
	.st25{fill:none;}
	.st26{fill:#041D26;}
	.st27{fill:#6E6E6E;}
	.st28{fill:#C0C0C0;}
	.st29{fill:#54371D;}
	.st30{fill:#6D3325;}
	.st31{fill:#5E3E21;}
	.st32{fill:#783A28;}
	.st33{fill:#8F4729;}
	.st34{fill:#DCB680;}
	.st35{fill:#C69666;}
	.st36{fill:#662F1E;}
	.st37{fill:#231D13;}
	.st38{fill:#574C3E;}
	.st39{fill:#442C1A;}
	.st40{fill:#2B4A54;}
</style>
<title>Harles</title>
<g class="st0">
	
		<image style="overflow:visible;opacity:0.75;enable-background:new    ;" width="89" height="50" xlink:href="AA9B4EC91BCA4371.png"  transform="matrix(0.98 0 0 0.98 31.74 14.55)">
	</image>
	<path class="st1" d="M61.1,49.2c-0.3,0-0.5-0.2-0.5-0.5c0-2.3,0.4-4.7,1.4-6.8c0.7-1.6,1.8-3,3.1-4.1c1-0.8,2-1.5,3.1-2
		c0.5-0.2,1-0.4,1.5-0.5c0.3-0.1,0.6,0.1,0.6,0.4l0,0c0.1,0.3-0.1,0.6-0.4,0.6c0,0,0,0,0,0l0,0c-0.4,0.1-0.9,0.3-1.3,0.5
		c-1,0.5-2,1.1-2.9,1.8c-2.7,2.4-4.1,5.7-4.1,10C61.7,48.9,61.5,49.1,61.1,49.2L61.1,49.2z"/>
	<path class="st1" d="M88.9,49.2c0.3,0,0.5-0.2,0.5-0.5l0,0c0-2.3-0.5-4.7-1.4-6.8c-0.7-1.6-1.8-3-3.1-4.1c-0.9-0.8-2-1.5-3.1-2
		c-0.5-0.2-0.9-0.4-1.4-0.5c-0.3-0.1-0.6,0.1-0.6,0.4l0,0c-0.1,0.3,0.1,0.6,0.4,0.6c0,0,0,0,0,0l0,0c0.5,0.1,0.9,0.3,1.3,0.5
		c1,0.5,2,1.1,2.8,1.8c2.8,2.3,4.1,5.7,4.1,10C88.3,49,88.6,49.2,88.9,49.2L88.9,49.2z"/>
	<path class="st2" d="M75.3,26.9c-4.3,0-7.9,2.3-8,5.2h16.1C83.2,29.2,79.6,26.9,75.3,26.9z"/>
	<path class="st3" d="M63.5,33.9c1-0.2,8.6-0.6,8.6-0.6c0.2,0,6.1,0.1,6.4,0s6.2,0.2,6.2,0.2l2.8,0.3c0.4,0,7.9,0.9,9,1
		c0.7,0,1.5-0.1,2.2-0.3c0,0.9-1,1-1.4,1c-1,0.1-2,0-3-0.1c-0.4-0.1-5.3-0.5-5.7-0.4c-1.2-0.2-2.4-0.3-3.7-0.2
		c-1.1,0.2-1.3,0.3-1.2,0.7L81.6,36c-0.3,0-0.7,0.2-0.8,0.2h-1.7c-0.1,0.2-0.3,0.4-0.4,0.7c-0.1,0.3-0.3,0.6-0.6,0.7V38l0,0v-0.7
		h-5.3v0.3c-0.3-0.1-0.5-0.4-0.6-0.7c-0.1-0.2-0.2-0.5-0.4-0.7h-1.6c-0.1,0-0.5-0.2-0.8-0.2l-2.2-0.5c0,0-3-0.2-3.6-0.2
		C63,35.1,62.2,35,61.4,35c-1,0.2-2,0.2-3,0.1C58,35.2,56.9,35,57,34C57.9,34.7,62.6,34.1,63.5,33.9z"/>
	<path class="st2" d="M57.9,33.1l3.5-0.3l1.9-0.1c0.3-0.1,6.2-0.8,6.2-0.8c0.6-0.6,1.4-1.1,2.3-1.3c0.8-1.6,1.4-1.7,1.4-1.7
		c-0.4,0.3-0.7,0.8-0.8,1.3c0,0.3,0,0.4,0.8,0.6s1.4,1.3,1.4,1.3c0.3,0.5,0.9,0.7,1.3,0.4c0.2-0.1,0.3-0.2,0.4-0.4
		c0,0,0.6-1.1,1.4-1.3s0.9-0.3,0.8-0.6c-0.1-0.5-0.4-0.9-0.8-1.3c0,0,0.6,0.1,1.4,1.7c0.9,0.2,1.6,0.7,2.2,1.3c0,0,5.8,0.7,6.2,0.8
		l6.5,0.5l3.5,0.3c0.6,0,1,0.4,1,1v0.2c-0.7,0.2-1.5,0.2-2.2,0.3c-1,0-8.6-0.9-9-1l-2.8-0.2c0,0-5.8-0.3-6.2-0.3s-6.2-0.1-6.4,0
		c0,0-7.6,0.4-8.6,0.6s-5.6,0.7-6.5,0.2V34C57,33.5,57.4,33.1,57.9,33.1z"/>
	<path class="st4" d="M78.6,44c0.1-0.6-3.4-0.5-3.4-0.5s-2.6,0.2-2.9,0.2c-0.2,0-0.4,0.1-0.4,0.3c0,0.7-0.3,0.5-0.3,0.5v3.8h7.4
		v-3.9C78.6,44.4,78.6,44,78.6,44z"/>
	<path class="st5" d="M71.9,44h6.6c0.3,0,0.5,0.2,0.5,0.5v3.6c0,0.3-0.2,0.5-0.5,0.5h-6.6c-0.3,0-0.5-0.2-0.5-0.5v-3.6
		C71.5,44.3,71.7,44,71.9,44z"/>
	<path class="st3" d="M79.3,43.4c0-0.4-3-0.4-3-0.4c-0.2-0.2-0.3-0.4-0.4-0.6h0v-0.1l-0.6,0.1l-0.6-0.1v0.1l0,0
		c0,0.2-0.2,0.5-0.4,0.6c0,0-3,0-3,0.4v5.4c0,0-0.1,0.8,0.6,0.8h6.8c0.7,0,0.6-0.8,0.6-0.8S79.3,43.8,79.3,43.4z M78.9,48.3h-7.4
		v-3.8c0,0,0.4,0.2,0.4-0.5c0.1-0.2,0.3-0.3,0.5-0.3c0.4,0,2.9-0.2,2.9-0.2s3.5,0,3.4,0.5c0,0-0.1,0.4,0.2,0.5L78.9,48.3z"/>
	<path class="st6" d="M87.5,49.2c0,0.8,0.6,1.5,1.4,1.5c0.8,0,1.5-0.6,1.5-1.4c0-0.8-0.6-1.5-1.4-1.5c0,0,0,0,0,0l0,0
		C88.2,47.8,87.6,48.4,87.5,49.2L87.5,49.2z"/>
	<path class="st6" d="M62.7,49c0,0.8-0.6,1.5-1.4,1.5c-0.8,0-1.5-0.6-1.5-1.4s0.6-1.5,1.4-1.5c0,0,0,0,0,0h0.1
		C62.1,47.6,62.7,48.2,62.7,49z"/>
	<path class="st3" d="M87.4,33.9c-1-0.2-8.6-0.6-8.6-0.6c-0.2,0-6.1,0.1-6.4,0s-6.2,0.2-6.2,0.2l-2.8,0.3c-0.4,0-7.9,0.9-9,1
		c-0.7,0-1.5-0.1-2.2-0.3c0,0.9,1,1,1.4,1c1,0.1,2,0,3-0.1c0.4-0.1,5.3-0.5,5.7-0.4c1.2-0.2,2.4-0.3,3.7-0.2
		c1.1,0.2,1.3,0.3,1.2,0.7l2.1,0.5c0.3,0,0.7,0.2,0.8,0.2h1.6c0.1,0.2,0.3,0.4,0.4,0.7c0.1,0.3,0.3,0.6,0.6,0.7V38l0,0v-0.7H78v0.3
		c0.3-0.1,0.5-0.4,0.6-0.7c0.1-0.2,0.2-0.5,0.4-0.7h1.6c0.1,0,0.5-0.2,0.8-0.2l2.2-0.5c0,0,3-0.2,3.6-0.2c0.7-0.2,1.5-0.3,2.3-0.3
		c1,0.2,2,0.2,3,0.1c0.4,0,2,0.5,1.9-0.4C93.5,35.3,88.3,34.1,87.4,33.9z"/>
	<path class="st2" d="M93,33.1l-3.5-0.3l-2-0.1c-0.3-0.1-6.2-0.8-6.2-0.8c-0.6-0.6-1.4-1.1-2.2-1.3c-0.8-1.6-1.4-1.7-1.4-1.7
		c0.4,0.3,0.6,0.8,0.8,1.3c0,0.3,0,0.4-0.8,0.6s-1.4,1.3-1.4,1.3s-0.2-0.9-0.9-0.8s-0.9,0.8-0.9,0.8s-0.6-1.2-1.4-1.3
		c-0.8-0.2-0.9-0.3-0.8-0.6c0.1-0.5,0.4-0.9,0.8-1.3c0,0-0.6,0.1-1.4,1.7c-0.9,0.3-1.6,0.7-2.2,1.3c0,0-5.8,0.7-6.1,0.8l-6.5,0.5
		l-3.5,0.3c-0.6,0-1,0.4-1,1v0.2c0.7,0.2,1.5,0.2,2.2,0.3c1,0,8.6-0.9,9-1l2.8-0.2c0,0,5.8-0.3,6.2-0.3s6.2-0.1,6.4,0
		c0,0,7.6,0.4,8.6,0.6s5.6,0.7,6.5,0.2v-0.1C93.8,33,93,33.1,93,33.1z"/>
	<path class="st7" d="M72.7,37.4v0.7l0,0v2.1c0.1,0.1,0.2,0.3,0.4,0.4c0,0,0,0.7,0.2,0.7V42c0,0,0,0.2,0.5,0.2
		c0.2,0.1,0.4,0.2,0.7,0.2h1.9c0.2,0,0.5-0.1,0.7-0.2c0.4-0.1,0.5-0.2,0.5-0.2v-0.8c0.2,0,0.2-0.7,0.2-0.7c0.1-0.1,0.3-0.2,0.4-0.4
		v-2.5l0,0v-0.3L72.7,37.4z"/>
	<path class="st8" d="M66.1,34.9c-1.2-0.1-2.5-0.1-3.7,0.2c0.4,0.1,0.8,0.2,1.1,0.3c0.6,0.1,3.6,0.2,3.6,0.2h0.1
		C67.5,35.2,67.2,35.2,66.1,34.9z"/>
	<path class="st9" d="M53.6,30.3c0,0-0.1-0.1-0.1-0.2s0.3-1.6,1-1.6s1,1.6,1,1.6s0,0.2-0.1,0.2H53.6z"/>
	<path class="st9" d="M97.2,30.6c0.1,0,0.1-0.1,0.1-0.2c0-0.1-0.3-1.6-1-1.6s-1,1.6-1,1.6s0,0.2,0.1,0.2H97.2z"/>
	<path class="st10" d="M98.2,34.2v-1.3h-3.7v1.3c0,0,0,0.2,1.8,0.2S98.2,34.2,98.2,34.2z"/>
	<path class="st9" d="M97.3,31.7L97.3,31.7l0.9,0.6v0.7c0,0,0,0.1-1.8,0.1s-1.9-0.2-1.9-0.2v-0.7l1-0.5L97.3,31.7z"/>
	<path class="st11" d="M85.7,31c0.3,0,3.5-0.2,4-0.2s2.9-0.2,3.1-0.2s1.8,0.1,2,0.2l0.5,0.1c0-0.1,0.1-0.1,0.2-0.1h1.8
		c0,0,0.1,0,0.1,0.1c0.2,0,0.4-0.1,0.6-0.1c0.7-0.2,1.4-0.3,2.1-0.3c0.8,0,2.4,0,2.8-0.1s3.9-0.3,3.9-0.3s-0.4,0.2-1.5,0.4
		s-5.2,0.9-5.9,0.9l-2,0.1c0,0.2-0.1,0.3-0.3,0.3h-1.5c-0.1,0-0.2,0-0.2-0.1c-1,0-3.2,0.2-4.2,0.3s-3-0.1-3.6-0.2
		c-0.8,0-1.5-0.2-2.2-0.4C85.1,31.2,85.4,31,85.7,31z"/>
	<path class="st10" d="M52.7,33.9v-1.3l3.7-0.1v1.3c0,0,0,0.2-1.8,0.2S52.7,33.9,52.7,33.9z"/>
	<path class="st9" d="M53.6,31.4L53.6,31.4l-0.9,0.6v0.7c0,0,0,0.1,1.8,0.1s1.8-0.1,1.8-0.1v-0.7l-1-0.5H53.6z"/>
	<path class="st8" d="M84.6,34.9c1.2-0.1,2.5-0.1,3.7,0.2c-0.4,0.1-0.8,0.2-1.1,0.3c-0.6,0.1-3.6,0.2-3.6,0.2h-0.1
		C83.2,35.2,83.5,35.2,84.6,34.9z"/>
	<path class="st12" d="M51.2,30.2c-1.6,0.1-3.2,0-4.8-0.1c-0.5,0-1.1,0-1.6-0.1l0.8,0.1c1.2,0.2,5.2,0.9,5.9,0.9s1.7,0.1,2,0.1
		C53.3,30.8,51.4,30.2,51.2,30.2z"/>
	<path class="st11" d="M65.2,30.7c-0.3,0-3.5-0.2-4-0.2s-2.9-0.3-3.1-0.3s-1.8,0.1-2,0.2l-0.5,0.1c0-0.1-0.1-0.1-0.2-0.1h-1.7
		c0,0-0.1,0-0.1,0.1c-0.2,0-0.4-0.1-0.6-0.1c-0.7-0.2-1.4-0.2-2.1-0.3c-0.8,0-2.4,0-2.8-0.1S44,29.6,44,29.7s0.2,0.1,0.8,0.2
		c0.4,0.1,0.9,0.1,1.6,0.2c3.2,0.2,4.5,0.1,4.8,0.1s2.2,0.5,2.3,0.9l0,0c0,0.2,0.1,0.3,0.3,0.3h1.5c0.1,0,0.2,0,0.2-0.1
		c1,0,3.2,0.2,4.2,0.2s3-0.1,3.6-0.2c0.8,0,1.5-0.2,2.2-0.4C65.8,30.9,65.5,30.7,65.2,30.7z"/>
	<path class="st13" d="M72.9,38.6v1.5c0,0-0.2,0.3,2.5,0.3s2.4-0.2,2.4-0.2v-1.7c0,0-1.5,0.1-2.2,0.1S72.9,38.6,72.9,38.6z"/>
	<path d="M76,39.5c0,0.4-0.3,0.7-0.7,0.7s-0.7-0.3-0.7-0.7c0-0.4,0.3-0.7,0.7-0.7l0,0C75.7,38.9,76,39.2,76,39.5L76,39.5z"/>
	<path class="st14" d="M75.9,39.5c0,0.3-0.2,0.5-0.5,0.5l0,0c-0.3,0-0.5-0.2-0.5-0.5l0,0c0-0.3,0.2-0.5,0.5-0.5l0,0
		C75.6,39,75.9,39.3,75.9,39.5L75.9,39.5z"/>
	<path class="st15" d="M73.5,45.2c0,0.3-0.3,0.6-0.6,0.6s-0.6-0.3-0.6-0.6s0.3-0.6,0.6-0.6S73.5,44.9,73.5,45.2L73.5,45.2z"/>
	<path class="st16" d="M78.7,45.9c0,0.9-0.7,1.6-1.6,1.6c-0.9,0-1.6-0.7-1.6-1.6c0-0.9,0.7-1.6,1.6-1.6c0,0,0,0,0,0l0,0
		C77.9,44.2,78.7,45,78.7,45.9L78.7,45.9z"/>
	<path class="st17" d="M78.3,45.9c0,0.7-0.6,1.2-1.2,1.2c-0.7,0-1.2-0.6-1.2-1.2s0.6-1.2,1.2-1.2l0,0l0,0
		C77.7,44.6,78.3,45.2,78.3,45.9L78.3,45.9z"/>
	<path class="st4" d="M77.1,47.1c-0.7,0-1.2-0.6-1.2-1.2s0.6-1.2,1.2-1.2c0.7,0,1.2,0.6,1.2,1.2l0,0l0,0
		C78.3,46.5,77.7,47.1,77.1,47.1z M77.1,44.6c-0.7,0-1.2,0.5-1.2,1.2c0,0.7,0.5,1.2,1.2,1.2c0.7,0,1.2-0.5,1.2-1.2
		C78.3,45.2,77.7,44.6,77.1,44.6z"/>
	<path class="st18" d="M77.9,45.9c-0.1,0.5-0.5,0.9-1,0.8c0,0,0,0,0,0c-0.4-0.1-0.7-0.4-0.8-0.8c-0.1-0.5,0.3-0.9,0.8-1c0,0,0,0,0,0
		c0.5-0.1,0.9,0.3,1,0.7c0,0,0,0,0,0C78,45.7,78,45.8,77.9,45.9z"/>
	<path class="st4" d="M76.9,45.5c0,0.1-0.1,0.2-0.2,0.2s-0.2-0.1-0.2-0.2c0-0.1,0.1-0.2,0.2-0.2C76.8,45.3,76.9,45.4,76.9,45.5z"/>
	<path class="st18" d="M75.3,47.4c0,0.2-0.2,0.4-0.4,0.4c0,0,0,0,0,0h-2.7c-0.2,0-0.4-0.2-0.4-0.4l0,0c0-0.2,0.2-0.4,0.4-0.4h2.7
		C75.2,47,75.4,47.1,75.3,47.4L75.3,47.4z"/>
</g>
<path class="st19" d="M189.3,90.2c-3.9,4.5-10.8,13.6-11.6,20.3c-1.2,10.3,6.5,23.4,10.4,28.5c-0.7-7.2,0.1-12.1,2.6-14.5
	c0.8-0.8,0.5,3.4,3.1,5.8c0.5-2.6,1.6-5.1,3.3-7.2c1.6-2.4,3.8-7.1,3.7-10.7c-0.3-11.4-7.4-20.1-8.8-22.1L189.3,90.2z"/>
<path class="st20" d="M189.3,90.2c-1.9,1.8-6.8,9.5-7,14.4s5.7,13.6,7.2,19.5c1.5-4.4,1.3-6.3,3.8-9.3s2.6-3.5,3.2-5.7
	c0.6-2.1-0.4-7.9-2-12.8c-1.7-5.2-2.4-6.1-2.4-6.1L189.3,90.2z"/>
<path class="st21" d="M189.3,90.2c-1.8,2.5-5.5,10.1-4.5,13.4s3.2,3.9,5.4,8.9c1-1.5,0.1-5.4,1.9-6.6c0.4,1.3,0.4,2.2,1.4,3.3
	c-0.2-2,0.9-3.8,1.2-6.3c0.3-2.9-1-5.7-1.8-8.3c-0.5-1.4-0.7-2.9-0.8-4.4L189.3,90.2z"/>
<path class="st22" d="M190.1,92.1c-5.1-0.2-9.3-1.6-9.2-3l-0.1,2.6c-0.1,1.4,4,2.8,9.2,3s9.3-0.8,9.4-2.2l0.1-2.6
	C199.4,91.3,195.2,92.3,190.1,92.1z"/>
<path class="st22" d="M189.9,95.2c-3.9-0.2-7-1.2-6.9-2.3l-0.1,2c0,1.1,3,2.1,6.9,2.3c3.9,0.2,7-0.6,7.1-1.7l0.1-2
	C197,94.6,193.8,95.4,189.9,95.2z"/>
<path class="st23" d="M184.7,56.5c-2.9,7.2-4.5,14.9-4.7,22.7c-0.2,5.3-0.4,9.3-0.4,9.3s6.4,2.5,10.6,2.6c3.6-0.1,7.2-0.7,10.7-1.7
	c0,0,0.3-3.9,0.6-9.3c0.5-7.8-0.5-15.6-2.9-23c-2.3,0.4-4.6,0.6-6.9,0.5C189.3,57.6,186.9,57.2,184.7,56.5z"/>
<path class="st24" d="M192.1,46.8c-1.2,0-4.6,3-7.5,9.7c2.3,0.7,4.6,1.1,7,1.2c2.3,0.1,4.6,0,6.9-0.5
	C196.3,50.4,193.3,46.8,192.1,46.8z"/>
<path class="st22" d="M190.3,88.5c-6-0.3-10.7-1.8-10.6-3.5l-0.1,3c0,1.7,4.7,3.2,10.6,3.5c5.9,0.3,10.8-0.9,10.9-2.6l0.1-3
	C201.1,87.6,196.2,88.8,190.3,88.5z"/>
<path class="st25" d="M199,90.7c-0.9,0.3-1.9,0.5-2.8,0.6v0.4C197.2,91.6,198.2,91.2,199,90.7z"/>
<path class="st25" d="M196.6,94.2l-0.7,0.2c0,0.1,0,0.2,0,0.2C196.2,94.5,196.4,94.4,196.6,94.2z"/>
<path class="st23" d="M200.9,89.5L200.9,89.5z"/>
<path class="st26" d="M196.2,91.7c-0.1,0.9-0.2,1.8-0.3,2.6l0.7-0.2c0.2-0.1,0.4-0.4,0.5-0.6v0.5c1.5-0.4,2.3-1,2.4-1.6l0.1-2
	l-0.5,0.2C198.2,91.2,197.2,91.6,196.2,91.7z"/>
<path class="st26" d="M196.6,94.2c-0.2,0.2-0.5,0.3-0.7,0.4c-0.1,0.7-0.2,1.3-0.3,2c0.8-0.3,1.3-0.7,1.3-1.1v-1.4v-0.5
	C196.9,93.8,196.8,94.1,196.6,94.2z"/>
<path class="st27" d="M196.7,84.1c0,1.4-0.1,2.8-0.2,4.2c2.5-0.4,4.3-1.1,4.6-2c0.1-1.6,0.2-3.7,0.3-6.1c0.5-7.8-0.5-15.6-2.9-23
	c-1.2,0.2-2.3,0.4-3.5,0.5C196.7,66.4,197.2,75.2,196.7,84.1z"/>
<path class="st28" d="M198.6,57.2c-2.3-6.8-5.2-10.4-6.4-10.4c-0.2,0-0.4,0-0.6,0.1c1.7,3.4,2.8,7,3.5,10.7
	C196.3,57.5,197.4,57.4,198.6,57.2z"/>
<path class="st26" d="M196.5,88.3c-0.1,1-0.2,2-0.3,3c0.9-0.1,1.9-0.3,2.8-0.6l0.5-0.2c0.5-0.2,1-0.5,1.3-1l0,0
	c0.1-0.1,0.2-0.3,0.2-0.5l0.1-3c0,0.1,0,0.2,0,0.3C200.8,87.1,199,87.9,196.5,88.3z"/>
<path class="st19" d="M200.9,95.2c-3.9,4.5-10.8,13.6-11.6,20.3c-1.2,10.4,6.5,23.4,10.4,28.5c-0.7-7.2,0-12.1,2.6-14.5
	c0.8-0.8,0.5,3.4,3.1,5.8c0.5-2.6,1.6-5.1,3.3-7.2c1.6-2.4,3.8-7.2,3.7-10.7c-0.2-11.4-7.4-20.1-8.7-22.1L200.9,95.2z"/>
<path class="st20" d="M200.9,95.2c-1.9,1.8-6.9,9.6-7,14.4c-0.1,4.8,5.7,13.6,7.2,19.5c1.5-4.4,1.3-6.3,3.8-9.3
	c2.5-3,2.6-3.6,3.2-5.7s-0.4-7.9-2-12.8c-1.7-5.2-2.4-6.1-2.4-6.1L200.9,95.2z"/>
<path class="st21" d="M200.9,95.2c-1.8,2.5-5.6,10.1-4.5,13.4s3.2,3.9,5.4,8.9c1-1.5,0.1-5.4,1.9-6.6c0.4,1.3,0.4,2.2,1.4,3.3
	c-0.2-2,0.9-3.8,1.2-6.3c0.3-2.9-1-5.7-1.8-8.3c-0.5-1.4-0.7-2.9-0.8-4.4L200.9,95.2z"/>
<path class="st22" d="M201.7,97.1c-5.1-0.2-9.3-1.6-9.2-3l-0.1,2.6c0,1.4,4,2.8,9.2,3c5.1,0.2,9.3-0.8,9.4-2.2l0.1-2.6
	C211,96.4,206.8,97.3,201.7,97.1z"/>
<path class="st22" d="M201.5,100.3c-3.9-0.2-7-1.2-6.9-2.3l-0.1,2c0,1.1,3,2.1,6.9,2.3c3.9,0.2,7-0.6,7.1-1.7l0.1-2
	C208.6,99.7,205.4,100.4,201.5,100.3z"/>
<path class="st23" d="M196.2,61.5c-2.9,7.2-4.5,14.9-4.7,22.7c-0.2,5.3-0.4,9.3-0.4,9.3s6.4,2.5,10.6,2.6c3.6-0.1,7.2-0.7,10.7-1.7
	c0,0,0.3-3.9,0.6-9.3c0.4-7.8-0.5-15.6-2.9-23C205.5,63.1,200.8,62.9,196.2,61.5L196.2,61.5z"/>
<path class="st24" d="M203.7,51.8c-1.2,0-4.6,3-7.5,9.7c4.5,1.3,9.3,1.6,13.9,0.7C207.8,55.4,204.9,51.8,203.7,51.8z"/>
<path class="st22" d="M201.8,93.6c-5.9-0.3-10.7-1.8-10.6-3.5l-0.1,3c-0.1,1.7,4.7,3.2,10.6,3.5c5.9,0.3,10.8-0.9,10.9-2.6l0.1-3
	C212.7,92.7,207.8,93.8,201.8,93.6z"/>
<path class="st25" d="M210.6,95.7c-0.9,0.3-1.9,0.5-2.8,0.7v0.4C208.8,96.6,209.8,96.2,210.6,95.7z"/>
<path class="st25" d="M208.2,99.3l-0.7,0.1v0.2C207.8,99.5,208,99.4,208.2,99.3z"/>
<path class="st23" d="M212.5,94.5L212.5,94.5L212.5,94.5z"/>
<path class="st26" d="M207.8,96.8c-0.1,0.9-0.2,1.8-0.3,2.6l0.7-0.1c0.2-0.1,0.4-0.4,0.5-0.6v0.5c1.4-0.4,2.3-1,2.4-1.6l0.1-2
	l-0.5,0.2C209.8,96.2,208.8,96.6,207.8,96.8z"/>
<path class="st26" d="M208.2,99.3c-0.2,0.2-0.5,0.3-0.7,0.4c-0.1,0.7-0.2,1.3-0.3,2c0.8-0.3,1.3-0.7,1.3-1.1l0.1-1.4v-0.5
	C208.6,98.9,208.4,99.1,208.2,99.3z"/>
<path class="st27" d="M208.3,89.1c0,1.4-0.1,2.8-0.2,4.2c2.5-0.4,4.3-1.1,4.6-2c0.1-1.6,0.2-3.7,0.3-6.1c0.5-7.8-0.5-15.6-2.9-23
	c-1.1,0.2-2.3,0.4-3.5,0.5C208.3,71.4,208.8,80.3,208.3,89.1z"/>
<path class="st28" d="M210.2,62.2c-2.3-6.8-5.3-10.4-6.4-10.4c-0.2,0-0.4,0.1-0.6,0.1c1.7,3.4,2.8,7,3.5,10.7
	C207.9,62.6,209,62.4,210.2,62.2z"/>
<path class="st26" d="M208.1,93.3c-0.1,1-0.2,2.1-0.3,3.1c1-0.1,1.9-0.3,2.8-0.7l0.5-0.2c0.5-0.2,1-0.5,1.3-1l0,0
	c0.1-0.1,0.2-0.3,0.2-0.5l0.1-3c0,0.1,0,0.2,0,0.3C212.4,92.2,210.6,92.9,208.1,93.3z"/>
<path class="st29" d="M177.8,96.3c0.2-0.7-8.4-1.2-8.4-1.2c0.4,1.2,0.9,2.4,1.5,3.5c-0.8-0.1-1.6-0.2-2.4-0.2
	c-4.8,0-8.6,2.1-8.6,4.6c0,1.8,4.4,1.4,8.6,1.3c2.2,0,4.3,0.1,5.9,0.1h2.7c0,0,1.1-1-0.6-4.7C176.3,99.1,177.7,97,177.8,96.3z"/>
<path class="st30" d="M175.3,80.3c1,0.6,1.8,1.5,2.2,2.6c0.2,0.8,0.3,1.7,0.5,2.5c0.3,1.7,0.5,3.4,0.6,5c0.1,1.7,0.2,3.3,0.2,5V98
	c0,0.4,0,0.8,0,1.2c-0.1,0.4-0.5,0.8-1.3,1.2l-16-1.1c-0.7-0.5-1-0.9-1.1-1.3c0-0.4,0-0.8,0.1-1.2l0.3-2.5c0.2-1.6,0.5-3.3,0.9-4.9
	c0.4-1.6,0.8-3.3,1.3-4.9c0.3-0.8,0.5-1.6,0.8-2.4c0.6-1,1.5-1.9,2.5-2.3L175.3,80.3z"/>
<path class="st31" d="M191.9,96.3c0.2-0.7-8.4-1.2-8.4-1.2c0.4,1.2,0.9,2.4,1.5,3.5c-0.8-0.1-1.6-0.2-2.4-0.2
	c-4.8,0-8.6,2.1-8.6,4.6c0,1.8,4.4,1.4,8.6,1.3c2.2,0,4.3,0.1,5.9,0.1h2.7c0,0,1.1-1-0.6-4.7C190.4,99.1,191.8,97,191.9,96.3z"/>
<path class="st32" d="M189.4,80.3c1,0.6,1.8,1.5,2.2,2.6c0.2,0.8,0.3,1.7,0.5,2.5c0.3,1.7,0.5,3.4,0.6,5c0.1,1.7,0.2,3.3,0.2,5V98
	c0,0.4,0,0.8,0,1.2c-0.1,0.4-0.5,0.8-1.3,1.2l-16-1.1c-0.8-0.5-1-0.9-1.1-1.3c0-0.4,0.1-0.8,0.1-1.2l0.3-2.5
	c0.2-1.6,0.5-3.3,0.9-4.9c0.4-1.6,0.8-3.3,1.3-4.9c0.3-0.8,0.5-1.6,0.8-2.4c0.5-1,1.4-1.9,2.5-2.3L189.4,80.3z"/>
<path class="st31" d="M147.9,58.9c-2.2,0.8-7,3.1-4.4,8.1c2.5,5,3.7,2.1,4.6,1.2c0.9-1,2.3-1.6,3.6-1.6L147.9,58.9z"/>
<path class="st32" d="M170.8,59.6c-0.1,0.5-0.3,1.1-0.7,1.5c-0.2,0.2-0.3,0.4-0.5,0.6c-0.2,0.3-0.5,0.5-0.8,0.7
	c-0.4,0.3-1,0.5-1.5,0.5c-0.9,0.1-1.9,0.2-2.8,0.4c-1.7,0.4-3.4,0.8-5,1.4c-1.4,0.5-2.7,1.1-4,1.8c-0.6,0.3-1.1,0.6-1.5,0.9
	c-0.2,0.2-0.5,0.3-0.7,0.3c-0.2,0-0.5-0.1-0.7-0.2l-0.3-0.1l-0.4-0.2l-0.5-0.2c-0.5-0.3-1-0.6-1.5-0.9l-3.8-2.6
	c-1-0.8-1.2-1-1.3-1.2l-0.3-0.5c0-0.2-0.1-0.3-0.1-0.5c0-0.1,0-0.3,0-0.4c0-0.5,0.2-0.9,0.3-1.3c0.3-0.7,0.9-1.3,1.5-1.8
	c1.1-0.9,2.4-1.7,3.7-2.3c2.4-1.1,5-1.7,7.7-1.8c2.4-0.1,4.9,0.2,7.2,0.8l1.7,0.4l1.6,0.5c0.3,0.1,0.6,0.2,0.8,0.3
	c0.3,0.2,0.5,0.4,0.7,0.6c0.3,0.3,0.5,0.6,0.7,0.9c0.1,0.2,0.2,0.5,0.3,0.7C170.8,58.5,170.9,59.1,170.8,59.6L170.8,59.6z"/>
<path class="st33" d="M162.5,39.2c-1.7,10.2,5.2,19.8,15.4,21.5c10.2,1.7,19.8-5.2,21.5-15.4c1.7-10.2-5.2-19.8-15.4-21.5
	c0,0,0,0,0,0C173.8,22.1,164.2,29,162.5,39.2z"/>
<path class="st33" d="M153.9,80.7l-0.3,5.5c-0.4,5.3,9.1,6.6,20.9,7.2c10.2,0.6,22.1,1.8,22.5-5.7l0,0c2.5-19.7-2-36.5-19.1-37.5
	l0,0c-16.9-1-22.1,10.4-23.7,23.8c0,0.1,0,0.2,0,0.2v0.8C154,76.9,154,78.7,153.9,80.7z"/>
<path class="st34" d="M165.3,65.8c2-0.1,4.1-2.3,7-3.1c4-1.1,5.7-4.3,5.1-2.8c-0.6,1.5,0.4,2.5,0.5,2.3c0.1-0.2-0.5,0.1,0.5-2
	s4-2.5,7-6c1.1-1.2,2-2.6,2.9-4c0,0.7-0.1,1.3-0.3,2c7.4-12.3,4.5-21.3,4-22c0.7,0.4,1.3,0.9,1.7,1.6c-0.4-4.6-3.1-5.8-3.6-6
	c0.7-0.3,1.5-0.2,2.2,0.1c-0.7-2.2-1.6-3.7-3.7-4.3c-0.8-0.2-1.6,0-2.1,0.6c1.1-1.8,0.6-4.2-1.2-5.3c0,0,0,0-0.1,0
	c0.3,4.7-0.1,3.7-0.3,3.8s-1.6-2.7-3.6-3.5c0.4,0.4,0.7,1,0.7,1.6c-1.8-1.5-3.7-3.6-9-1.8c1.1,0.3,2.1,0.9,2.9,1.8
	c-5.5,0.3-10.6,3.3-13.4,8.1c0.4-0.1,2.6-0.8,2.8-0.5c-1.6,0.7-7.2,3.1-8.8,18.5c0.3-0.7,1.3-2.3,1.7-2.2c-0.9,1.2-1,5.5,1.8,10.3
	C164,59.4,165.5,62.8,165.3,65.8z"/>
<path class="st31" d="M163.8,35.8c2.2-6.9,8.2-11.2,13.1-9.6s7.2,8.4,5,15.3c-1.1,3.6-3.4,6.8-6.6,8.8c-3.1,1.9-5.7,3.5-6.8,6
	c0.3-4-1.8-5.8-4-9.3C162.7,43.5,162.5,39.4,163.8,35.8z"/>
<path class="st35" d="M163.9,35.2c-2.1,6.6-0.3,13.3,4.9,14.9c5.2,1.6,12.4-2.3,14.5-9s-0.4-13.4-5.6-15
	C172.5,24.6,166,28.6,163.9,35.2z"/>
<path class="st36" d="M171.5,34.9c-0.6-0.3-1.3-0.6-2-0.7c-0.7-0.2-1.4-0.2-2.1-0.1c0.7-0.3,1.4-0.4,2.2-0.3
	c0.7,0.1,1.5,0.2,2.2,0.4L171.5,34.9z"/>
<path class="st36" d="M174.9,35.3c0.7,0.3,1.4,0.6,2,1c0.6,0.4,1.2,0.9,1.6,1.6c-0.5-0.6-1.1-1-1.8-1.2c-0.7-0.3-1.3-0.5-2-0.6
	L174.9,35.3z"/>
<polygon class="st37" points="174.2,37.2 176.7,37.8 174.2,37.7 "/>
<path class="st37" d="M170.7,36.4c-0.3-0.3-0.7-0.6-1-0.9c-0.3-0.3-0.7-0.6-1.1-0.8c0.4,0.2,0.8,0.3,1.2,0.6L171,36L170.7,36.4z"/>
<path class="st38" d="M173.5,39.9c0,0.8-0.4,1.5-1.1,1.9c-0.7,0.4-1.5,0.4-2.3,0.2c-0.8-0.2-1.4-0.8-1.6-1.6c-0.2-0.7,0-1.6,0.5-2.1
	c-0.4,0.6-0.4,1.3-0.2,2c0.2,0.6,0.8,1.1,1.4,1.2c0.6,0.2,1.3,0.2,1.9,0C172.9,41.1,173.4,40.6,173.5,39.9z"/>
<path class="st37" d="M172.5,45.1c-0.3,0.4-0.7,0.7-1.2,0.9c-1.5,0.6-3.3,0-4-1.5c0.5,0.2,0.8,0.5,1.2,0.6c0.4,0.2,0.8,0.3,1.2,0.3
	c0.4,0.1,0.9,0.1,1.3,0C171.6,45.4,172,45.3,172.5,45.1z"/>
<path class="st39" d="M179.4,26.9c-1.2-0.7-2.6-1.1-4-1.2c-3.7-0.2-7.1,2.6-7.9,3.5c1.1-0.1,2.1,0.2,2.9,0.9l0.4,0.4l2.4-2.6l-1,3.9
	c4.8,3.6,12.2,0.9,11.9,5.6C184.4,33,182.6,28.8,179.4,26.9"/>
<path class="st31" d="M146.7,79.7c-2.3-0.4-7.4-1.8-5.9-7.2c1.5-5.4,8.2-1.1,8.2-1.1L146.7,79.7z"/>
<path class="st32" d="M185.8,58.5c1.1,0,1.5,0.3,1.8,0.6c0.3,0.3,0.5,0.6,0.7,0.9c0.2,0.3,0.3,0.7,0.4,1.1c0.1,0.4,0.1,0.7,0.1,1.1
	c0,0.7,0,1.5-0.2,2.2c-0.2,0.7-0.5,1.3-0.8,1.9c-1.3,2.1-2.9,4-4.8,5.6c-3.4,2.8-7.2,5-11.3,6.6c-3.9,1.7-8.1,2.8-12.3,3.5
	c-2.2,0.3-4.4,0.4-6.6,0.4c-1.2,0-2.5-0.2-3.6-0.6c-0.7-0.3-1.3-0.6-1.9-1c-0.3-0.3-0.6-0.6-0.8-0.9l-0.3-0.7
	c-0.1-0.2-0.2-0.5,0.1-1.9l1.7-4.5c0.2-0.6,0.5-1.1,0.8-1.7c0.1-0.1,0.2-0.3,0.3-0.5c0.2-0.2,0.3-0.4,0.6-0.6c0.3-0.2,0.6-0.4,1-0.5
	c0.7-0.2,1.4-0.2,2.1-0.1c1.5,0,3.2-0.2,4.9-0.4c3.5-0.4,6.9-0.9,10.3-1.7c3.4-0.7,6.6-1.8,9.7-3.2c1.3-0.6,2.5-1.4,3.6-2.4
	c0.4-0.4,0.8-0.8,1.3-1.2l1-0.7c0.2-0.2,0.4-0.3,0.6-0.5C184.6,59,185.1,58.7,185.8,58.5L185.8,58.5z"/>
<polygon class="st22" points="142.2,70.3 149.2,71.8 149.8,65.4 144.4,64.2 "/>
<ellipse class="st31" cx="144.7" cy="72.6" rx="3.2" ry="2.8"/>
<polygon class="st40" points="143.1,69.7 148.5,70.9 149,66 144.8,65 "/>
</svg>
