<?xml version="1.0" encoding="utf-8"?>
<!-- Generator: Adobe Illustrator 22.1.0, SVG Export Plug-In . SVG Version: 6.00 Build 0)  -->
<svg version="1.1" id="Layer_3" xmlns="http://www.w3.org/2000/svg" xmlns:xlink="http://www.w3.org/1999/xlink" x="0px" y="0px"
	 viewBox="0 0 251 151" style="enable-background:new 0 0 251 151;" xml:space="preserve">
<style type="text/css">
	.st0{fill:#5E3E21;}
	.st1{fill:#54371D;}
	.st2{fill:#6D3325;}
	.st3{fill:#783A28;}
	.st4{fill:#8F4729;}
	.st5{fill:#DCB680;}
	.st6{fill:#E84C59;}
	.st7{fill:#EE7B5C;}
	.st8{fill:#F9C862;}
	.st9{fill:#062633;}
	.st10{fill:#9F9F9F;}
	.st11{fill:#D3D2D2;}
	.st12{fill:none;}
	.st13{fill:#041D26;}
	.st14{fill:#6E6E6E;}
	.st15{fill:#C0C0C0;}
	.st16{fill:#ABAAAA;}
	.st17{fill:#E1DFE0;}
	.st18{opacity:0.22;}
	.st19{fill:#E2E4E3;}
	.st20{fill:#DEDBDB;}
	.st21{fill:#FFDA7F;}
	.st22{fill:#756153;}
	.st23{fill:#B4A8A8;}
	.st24{fill:#F3E4E5;}
	.st25{fill:#F0E0E0;}
	.st26{fill:#93B79B;}
	.st27{fill:#ABC1BB;}
	.st28{fill:#8EC39E;}
	.st29{fill:#4284AF;}
	.st30{fill:#F3D7C4;}
	.st31{fill:#CE6255;}
	.st32{fill:#CCA184;}
	.st33{fill:#DD6854;}
	.st34{fill:#EF6982;}
	.st35{fill:#7F9198;}
	.st36{fill:#DFB291;}
	.st37{fill:#F2C5A2;}
	.st38{fill:#5EA192;}
	.st39{fill:#E5D6BB;}
	.st40{fill:#FFE3A6;}
	.st41{opacity:0.13;enable-background:new    ;}
	.st42{opacity:0.64;fill:#4284AF;enable-background:new    ;}
	.st43{opacity:0.11;enable-background:new    ;}
	.st44{fill:#E7D9D9;}
</style>
<title>Ivar</title>
<path class="st0" d="M92.2,95.1c-3.8-0.3-4.3,1-4.3,1l0.9,2.4l0,0c0.5,1.4,1.4,3.2,2,5.2c1.4,3.8,2.5,7.7,4.1,7.2
	c2.2-0.8,2.8-4.9,1.2-9.1c-0.3-0.7-0.6-1.4-0.9-2c1.1-0.4,1.6-1,2.4-2.3c0,0-2.1-4.8-2.6-4.4C94.4,93.2,93,95.2,92.2,95.1z"/>
<path class="st1" d="M108.2,100.6c-3.8,0.5-4.1,1.8-4.1,1.8l1.4,2.2l0,0c0.7,1.4,1.9,2.9,3,4.6c2.1,3.5,4,7.1,5.4,6.2
	c2-1.3,1.7-5.4-0.6-9.2c-0.4-0.6-0.9-1.2-1.4-1.8c1.2,0,2.4-0.2,3.5-0.5c0,0-4.7-6.5-5.1-6.1C109.9,98.4,108.9,100.5,108.2,100.6z"
	/>
<path class="st2" d="M103.5,83.7c0.4,0.5,0.8,1,1.1,1.6c0.2,0.4,0.3,0.9,0.3,1.4c0,0.8-0.2,1.6-0.2,2.4c-0.1,1.6-0.3,3.1-0.6,4.7
	c-0.3,1.6-0.6,3.1-1,4.6c-0.2,0.8-0.4,1.5-0.6,2.3l-0.1,0.6c0,0.2-0.1,0.4-0.2,0.6c-0.3,0.5-0.9,0.7-1.4,0.8l-14.3-4.7
	c-0.4-0.4-0.7-0.9-0.6-1.5c0-0.2,0.1-0.4,0.2-0.6l0.2-0.5c0.3-0.7,0.6-1.4,0.9-2.2c0.6-1.4,1.2-2.8,1.9-4.3c0.7-1.4,1.5-2.8,2.3-4.1
	c0.5-0.7,0.9-1.4,1.4-2c0.3-0.4,0.6-0.6,1-0.9c0.5-0.3,1.1-0.5,1.7-0.6L103.5,83.7z"/>
<path class="st3" d="M117.4,86.6c0.5,0.4,0.9,0.8,1.3,1.4c0.2,0.4,0.4,0.9,0.5,1.4c0.1,0.8,0.2,1.6,0.1,2.4c0,1.6,0,3.2,0,4.7
	c0,1.6-0.2,3.1-0.4,4.7c-0.1,0.8-0.2,1.6-0.3,2.3v0.5c0,0.2-0.1,0.4-0.1,0.6c-0.3,0.5-0.8,0.8-1.4,0.9l-14.9-2.8
	c-0.5-0.3-0.8-0.8-0.9-1.4c0-0.2,0-0.4,0.1-0.6l0.1-0.6c0.2-0.8,0.4-1.5,0.6-2.3c0.4-1.5,0.8-3,1.4-4.5s1.1-2.9,1.8-4.4
	c0.4-0.7,0.6-1.4,1-2.2c0.2-0.4,0.6-0.7,0.9-1c0.5-0.4,1.1-0.6,1.7-0.8L117.4,86.6z"/>
<path class="st0" d="M142.4,78.8c0,0,1.4,5.2,2.1,6.1s3.6,0.4,5.1,0.1c1.1-0.2,2.6-3.3,4.4-5.2c1.8-1.8,1.2-3.5-0.6-3.9
	s-5,1.2-9.1,2.5L142.4,78.8z"/>
<path class="st4" d="M125.7,84.2l0.1-0.7c0-0.1,0-0.2,0-0.2c1.8-12.6-0.1-24.2-15.7-27.4l0,0c-15.7-3.2-23.9,10.9-26.3,29.4l0,0
	c-1.4,6.9,9.6,8.7,19.1,10.7c10.9,2.3,19.8,3.4,20.7-1.5l1.1-5.1C125,87.4,125.4,85.7,125.7,84.2z"/>
<path class="st4" d="M129,45.1c-3.1-9.2-13-14.1-22.2-11.1c-9.2,3.1-14.1,13-11.1,22.2c3.1,9.2,13,14.1,22.2,11.1
	C127.1,64.3,132,54.3,129,45.1C129,45.1,129,45.1,129,45.1z"/>
<path class="st5" d="M118.9,70c0.3-0.1,1.7-0.3,1.9-0.6c-0.4,0.6-0.8,1.2-1.4,1.7c1.8,0.2,3.6-1.4,3.6-1.2c0,0.2-0.2,0.4-0.8,1.2
	c1.3-0.5,2.4-1.3,3.4-2.2c2.5-2.9,2-5.6,2.2-7c0.2,0.9,0.2,1.8,0,2.7c10-32.2,3.8-29.6,3.7-29.9c0.3-0.2,0.8-0.7,1.4-0.4
	c-0.6-1.9-1.9-2.6-2.9-2c0.1-0.4,0.4-0.8,0.7-1.1c-0.8-0.1-2.1,1.7-2.1,1.6c0-0.2-0.5,0.5,1.2-3.3c-1.3,0.5-3.6,2.7-3.7,3.6
	c-0.3-0.2-0.7-0.2-1-0.2c-0.9,0.2-1.4,0.6-2.2,2.2c0.2,0,0.6-0.2,0.9,0c-1.4,2.3-2.4,4.8-3.1,7.5c0.5-0.6,0.7-0.2,0.8-0.2
	c-0.4,0.3-1.1,2.6-4.6,16.2c-0.4,1.6-0.7,3.3-0.7,5c0,2.2,0,3.1,0.5,3.6c-0.1-0.2,0-0.5,0-1.2C116.9,67.4,117.6,69,118.9,70z"/>
<path class="st3" d="M113,69.6c0.7-0.8,1.1-0.9,1.4-1c0.3-0.1,0.5-0.2,0.8-0.2c0.5-0.1,1-0.1,1.4,0c0.4,0,0.9,0.1,1.3,0.2
	c0.4,0.1,0.8,0.2,1.1,0.4l2.1,0.9c0.7,0.3,1.4,0.6,2.1,0.9c2.7,1.1,5.5,2,8.3,2.7c2.6,0.7,5.3,1.1,8,1.4c0.3,0,0.6,0.1,1,0.1h1
	c0.7,0.1,1.3,0.1,2,0.1c0.7,0,1.3,0,2,0.2c0.4,0.1,0.7,0.3,1.1,0.5c0.2,0.2,0.4,0.4,0.6,0.6l0.3,0.5c0.1,0.1,0.2,0.3,0.2,0.4v0.2
	l0.1,0.3v0.4l0.1,0.4l0.7,4.4v1.4c0,0.1,0,0.3-0.1,0.4l-0.3,0.6c-0.2,0.3-0.4,0.5-0.6,0.7c-0.4,0.3-0.9,0.5-1.4,0.8
	c-0.9,0.3-1.8,0.4-2.7,0.4c-0.9,0-1.9,0-2.8,0h-1.4l-1.4-0.2c-3.6-0.5-7.1-1.6-10.4-3.2c-3.1-1.5-6-3.3-8.7-5.4
	c-1.4-1-2.6-2.1-3.9-3.1c-0.3-0.2-0.6-0.5-0.9-0.8c-0.3-0.3-0.5-0.7-0.7-1.1c-0.3-0.4-0.5-0.9-0.6-1.4c-0.1-0.3-0.2-0.6-0.2-0.8
	c-0.1-0.6,0-1.1,0.3-1.6L113,69.6z"/>
<path class="st6" d="M84.2,95.6c0.7,2.1,4.7,11.4,2.1,21.3c-0.8,3.1-3.9,6.6-5.9,8.3c-1.9,1.4-3.5,3.3-4.6,5.4
	c-1.7-2.7-0.5-6.2-1.4-5.8c-2.8,1.4-4.7,5.5-5.9,11.9c-2.2-5.4-5.6-18.6-2-27.2c2.3-5.6,10.6-11.7,15.1-14.7L84.2,95.6z"/>
<path class="st7" d="M84.1,95.6c0.4,1.9,0.6,3.9,0.6,5.8c0.3,4.7-0.3,9.9-1.4,11.6c-1,1.7-2.4,3.1-4.2,4.1c-2.8,2-3.2,3.7-5.5,7.1
	c0.1-5.5-2.7-14.4-1.5-18.7s7.5-9.7,9.6-10.8L84.1,95.6z"/>
<path class="st8" d="M84.2,95.6c-0.3,1.3-0.4,2.6-0.4,4c0,2.4,0.5,5.2-0.5,7.6c-0.9,2.1-2.3,3.4-2.6,5.2c-0.4-1-0.6-2.1-0.4-3.2
	c-1.8,0.6-2,4.2-3.3,5.3c-0.6-4.9-2.4-5.9-2.5-9s5-8.8,7.2-10.5L84.2,95.6z"/>
<path class="st9" d="M90.6,97l-0.7,2.2c-0.4,1.2-4.3,1.1-8.7-0.4S73.6,95.3,74,94l0.7-2.2c-0.4,1.2,2.8,3.4,7.2,4.9
	S90.2,98.3,90.6,97z"/>
<path class="st9" d="M87.5,99.6l-0.6,1.6c-0.3,0.9-3.2,0.8-6.5-0.3c-3.3-1.1-5.7-2.7-5.4-3.7l0.6-1.7c-0.3,1,2.1,2.6,5.4,3.7
	C84.3,100.4,87.2,100.6,87.5,99.6z"/>
<path class="st10" d="M91.7,67.3c2,0.7,4,1.1,6.1,1.3c0.2,7-0.9,14-3.2,20.6c-1.5,4.7-2.8,7.9-2.8,7.9c-3.3,0-6.5-0.4-9.7-1.2
	c-3-1.3-5.9-3-8.5-5c0,0,1.1-3.3,2.6-7.9c2.1-6.7,5.3-13,9.7-18.5C87.8,65.7,89.7,66.6,91.7,67.3z"/>
<path class="st11" d="M97.8,68.5c-4.2-0.4-8.3-1.7-11.8-4c4.2-5.1,7.8-6.9,8.9-6.6C95.8,58.3,97.5,62.1,97.8,68.5z"/>
<path class="st9" d="M93,94.1l-0.9,2.6c-0.5,1.4-5,1.2-10.1-0.5c-5.1-1.7-8.8-4.2-8.3-5.7l0.9-2.6c-0.5,1.4,3.3,4,8.3,5.7
	C88,95.3,92.5,95.5,93,94.1z"/>
<path class="st12" d="M87.2,97.8l0.1-0.4c0.9,0.1,1.7,0.2,2.6,0.1C89.1,97.9,88.1,98,87.2,97.8z"/>
<path class="st12" d="M86.3,100.3l0.1-0.2H87C86.8,100.2,86.5,100.2,86.3,100.3z"/>
<path class="st13" d="M90,97.5h0.4l-0.6,1.7c-0.2,0.6-1.1,0.8-2.4,0.8l0.1-0.5c-0.1,0.2-0.3,0.4-0.6,0.4h-0.7
	c0.3-0.7,0.6-1.5,0.9-2.2C88.2,97.9,89.2,97.8,90,97.5z"/>
<path class="st13" d="M87.6,99.6l-0.1,0.5l-0.4,1.2c-0.1,0.4-0.7,0.6-1.5,0.6l0.7-1.7c0.2,0,0.5-0.1,0.7-0.1
	C87.3,100,87.5,99.9,87.6,99.6z"/>
<path class="st14" d="M94.7,68.1c1,0.2,2.1,0.4,3.1,0.5c0.2,7-0.9,14-3.2,20.6c-0.7,2.1-1.4,3.8-1.8,5.2c-0.5,0.7-2.2,0.9-4.5,0.6
	c0.4-1.2,0.8-2.3,1.2-3.5C92.2,83.8,93.9,76,94.7,68.1z"/>
<path class="st15" d="M94.7,68.1c0.4-3.4,0.2-6.8-0.4-10.1c0.2,0,0.3,0,0.5,0c1,0.3,2.7,4.2,3,10.6C96.8,68.4,95.7,68.3,94.7,68.1z"
	/>
<path class="st13" d="M92.9,94.4c0.1-0.1,0.1-0.2,0.1-0.2l-0.9,2.6c-0.1,0.1-0.2,0.3-0.3,0.4l0,0c-0.4,0.3-0.9,0.4-1.4,0.5H90
	c-0.9,0-1.7,0-2.6-0.1c0.3-0.8,0.6-1.7,1-2.6C90.7,95.2,92.4,95,92.9,94.4z"/>
<path class="st6" d="M90.2,99.1c0.7,2.1,5,11.3,2.6,21.3c-0.7,3.1-3.8,6.8-5.7,8.5c-1.9,1.5-3.4,3.4-4.5,5.5
	c-1.7-2.7-0.5-6.2-1.4-5.8c-2.8,1.5-4.6,5.6-5.6,12c-2.3-5.4-6.1-18.4-2.7-27.2c2.2-5.6,10.3-12,14.7-15.1L90.2,99.1z"/>
<path class="st7" d="M90.2,99.1c0.5,1.9,0.7,3.9,0.7,5.8c0.3,4.7-0.2,9.9-1.1,11.6s-1.2,2.2-4.1,4.2c-2.8,2.1-3.1,3.8-5.4,7.2
	c0-5.5-3.1-14.4-1.9-18.6c1.2-4.2,7.3-9.8,9.3-11L90.2,99.1z"/>
<path class="st8" d="M90.2,99.1c-0.3,1.3-0.3,2.6-0.3,4c0.1,2.4,0.7,5.2-0.3,7.6c-0.8,2.1-2.2,3.4-2.5,5.2c-0.5-1-0.6-2.1-0.5-3.2
	c-1.8,0.7-1.9,4.3-3.1,5.4c-0.7-4.9-2.5-5.8-2.7-9c-0.2-3.1,4.8-8.9,6.9-10.7L90.2,99.1z"/>
<path class="st9" d="M96.7,100.4l-0.7,2.2c-0.4,1.2-4.3,1.2-8.7-0.2c-4.4-1.4-7.7-3.5-7.3-4.7l0.7-2.3c-0.4,1.3,2.9,3.4,7.3,4.7
	C92.4,101.5,96.3,101.7,96.7,100.4z"/>
<path class="st9" d="M93.7,103.1l-0.5,1.7c-0.3,0.9-3.2,0.9-6.5-0.1c-3.3-1-5.8-2.6-5.5-3.5l0.5-1.7c-0.3,0.9,2.2,2.5,5.5,3.6
	S93.4,104,93.7,103.1z"/>
<path class="st16" d="M91.3,68c3.6,2.1,7.7,3.4,11.9,3.7c0.4,7-0.5,14-2.7,20.7c-1.4,4.7-2.6,8-2.6,8c-3.3,0.1-6.5-0.3-9.7-1
	c-3.1-1.2-5.9-2.8-8.6-4.7l2.4-8C83.9,80,87.1,73.6,91.3,68z"/>
<path class="st17" d="M103.2,71.7c-4.2-0.3-8.3-1.6-11.9-3.8c4.1-5.1,7.7-7.1,8.7-6.8C101,61.5,102.7,65.3,103.2,71.7z"/>
<path class="st9" d="M99,97.4l-0.8,2.6c-0.4,1.4-5,1.4-10.1-0.2s-8.9-4-8.5-5.4l0.9-2.6c-0.4,1.4,3.3,3.8,8.5,5.4
	C94.1,98.7,98.5,98.8,99,97.4z"/>
<path class="st12" d="M93.4,101.3l0.1-0.4c0.9,0.1,1.7,0.1,2.6,0C95.2,101.2,94.3,101.4,93.4,101.3z"/>
<path class="st12" d="M92.4,103.8l0.1-0.2h0.7C92.9,103.6,92.7,103.7,92.4,103.8z"/>
<path class="st13" d="M96.1,100.9h0.4l-0.5,1.7c-0.2,0.6-1.1,0.9-2.4,0.9l0.1-0.5c-0.1,0.2-0.3,0.4-0.5,0.5h-0.7
	c0.3-0.7,0.6-1.5,0.9-2.2C94.3,101.4,95.2,101.2,96.1,100.9z"/>
<path class="st13" d="M93.7,103.1l-0.1,0.5l-0.4,1.2c-0.1,0.4-0.6,0.6-1.4,0.6c0.2-0.6,0.5-1.1,0.7-1.7c0.3,0,0.5-0.1,0.7-0.2
	C93.4,103.5,93.6,103.3,93.7,103.1z"/>
<path class="st14" d="M100.1,71.3c1,0.2,2.1,0.3,3.1,0.4c0.4,7-0.5,14-2.7,20.7c-0.6,2.1-1.2,3.9-1.7,5.2c-0.5,0.7-2.2,0.9-4.5,0.7
	c0.4-1.2,0.8-2.3,1.2-3.6C98,87.2,99.5,79.3,100.1,71.3z"/>
<path class="st15" d="M100.1,71.4c0.3-3.4,0.1-6.8-0.6-10.1c0.2,0,0.3,0,0.5,0c1,0.3,2.8,4.1,3.2,10.5
	C102.2,71.7,101.1,71.5,100.1,71.4z"/>
<path class="st13" d="M98.8,97.6l0.1-0.2l-0.8,2.6c-0.1,0.1-0.1,0.3-0.3,0.4l0,0c-0.4,0.3-0.9,0.5-1.4,0.5h-0.4
	c-0.9,0.1-1.7,0.1-2.6,0c0.3-0.9,0.6-1.7,0.9-2.6C96.7,98.6,98.4,98.3,98.8,97.6z"/>
<g class="st18">
	<path class="st19" d="M166.9,56.2v7.3l1.7-0.2c-0.8-2-0.2-6.6-0.2-6.6L166.9,56.2z"/>
	<path class="st20" d="M166.9,62.8C166.9,62.8,166.9,62.8,166.9,62.8h1.5c0,0,0.1-0.1,0-0.1c-0.5,0-1,0-1.5,0L166.9,62.8z"/>
	<path class="st20" d="M167,62.1h1.4V62H167C166.9,62,166.9,62.1,167,62.1z"/>
	<path class="st20" d="M167,61.6c0.4,0,0.8,0,1.3,0 M168.2,61.4c-0.4,0-0.8,0-1.3,0H168.2z"/>
	<path class="st20" d="M166.9,60.8c0.4,0.1,0.9,0.1,1.4,0.1c0,0,0.1-0.1,0-0.1c-0.5,0-0.9-0.1-1.4-0.1
		C166.9,60.6,166.8,60.8,166.9,60.8z"/>
	<path class="st20" d="M166.9,59.9C166.9,59.9,166.9,59.9,166.9,59.9h1.4l0,0l0,0H166.9L166.9,59.9z"/>
	<path class="st20" d="M167,59.3c0.4,0,0.8,0,1.2,0c0,0,0.1-0.1,0-0.1c-0.4-0.1-0.8-0.1-1.2-0.1V59.3z"/>
	<path class="st20" d="M167,58.3c0.4,0.1,0.9,0.1,1.4,0.1l0,0v-0.1l0,0C167.8,58.3,167.4,58.2,167,58.3L167,58.3z"/>
	<path class="st20" d="M166.9,57.5l1.4,0.1c0.1,0,0.1-0.1,0-0.1L166.9,57.5C166.9,57.4,166.9,57.6,166.9,57.5z"/>
	<path class="st21" d="M139.1,72.8v-5.2c0,0,0.1,0,0.1,0l31.1-0.1l0,0v5.3c0,0,0,0.1-0.1,0.1L139.1,72.8L139.1,72.8z"/>
	<polygon class="st22" points="164.7,67.5 168,67.5 168,72.8 164.7,72.8 	"/>
	<rect x="163.2" y="67.5" transform="matrix(1 -2.443451e-03 2.443451e-03 1 -0.1709 0.4)" class="st22" width="0.7" height="5.3"/>
	<path class="st22" d="M160.5,70.2c0-0.5,0.4-0.9,0.9-1c0.5,0,0.9,0.4,1,0.9c0,0.5-0.4,0.9-0.9,1C160.9,71.2,160.5,70.7,160.5,70.2
		C160.5,70.2,160.5,70.2,160.5,70.2z"/>
	<path class="st23" d="M138.8,67.5v-4.2l0,0l31.1-0.1h0.1v4.3l0,0H138.8L138.8,67.5z"/>
	<polygon class="st24" points="165.1,65.5 166,66.3 166,64.4 	"/>
	<polygon class="st24" points="164,65.5 164.8,66.1 164.8,64.6 	"/>
	
		<rect x="168.2" y="63.2" transform="matrix(1 -2.443451e-03 2.443451e-03 1 -0.1592 0.4113)" class="st24" width="0.1" height="4.3"/>
	
		<rect x="167.5" y="63.2" transform="matrix(1 -2.443451e-03 2.443451e-03 1 -0.1592 0.4097)" class="st24" width="0.1" height="4.3"/>
	<path class="st25" d="M157.9,9.5L160,11l0.1,0.1c-0.4,1.7-0.4,3.4-0.2,5.1l0.1,0.5l-2.3-0.6L157.9,9.5z"/>
	<polygon class="st26" points="146.2,17.4 160,16.7 157.9,15.8 145.1,16.4 	"/>
	<path class="st27" d="M160.1,16.6v0.2c-0.4-0.1-0.7-0.2-1.1-0.4l-1.1-0.5c-0.1,0,0-0.2,0-0.2l1,0.5
		C159.3,16.3,159.7,16.5,160.1,16.6L160.1,16.6z"/>
	<path class="st27" d="M157.9,9.5c0.8,0.5,1.6,1,2.3,1.6c0.1,0,0,0.2-0.1,0.2c-0.7-0.6-1.5-1.2-2.3-1.6
		C157.8,9.6,157.8,9.5,157.9,9.5z"/>
	<path class="st28" d="M145.1,10.1c-0.3,2.1-0.3,4.1,0,6.2v0.1l12.8-0.5v-1.4c-0.1-1.1,0-2.3,0-3.5l0.1-1.4L145.1,10.1L145.1,10.1z"
		/>
	<path class="st29" d="M156.1,15.5c0,0.3,0.3,0.2,0.3,0c-0.3-1.9-0.3-3.9-0.1-5.8c0-0.2-0.3-0.2-0.3,0
		C155.8,11.6,155.8,13.6,156.1,15.5z"/>
	<path class="st29" d="M146.6,16c0,0.3,0.3,0.2,0.3,0c-0.3-1.9-0.3-3.9,0-5.8c0-0.2-0.3-0.2-0.3,0C146.4,12.1,146.4,14.1,146.6,16z"
		/>
	<path class="st30" d="M164.9,15.2l4.8,2.1l0.2,0.1c-0.8,2.2-0.9,4.6-0.5,6.8l0.2,0.7l-5-0.8L164.9,15.2z"/>
	<polygon class="st31" points="138.9,25.7 169.8,24.9 165,23.7 136.5,24.4 	"/>
	<path class="st32" d="M169.8,24.7c0.1,0,0.1,0.2,0,0.2c-0.8-0.1-1.6-0.3-2.3-0.6l-2.5-0.7c-0.1,0-0.1-0.1-0.1-0.2
		c0,0,0-0.1,0.1-0.1l2.3,0.6C168.1,24.4,169,24.6,169.8,24.7L169.8,24.7z"/>
	<path class="st32" d="M165,15.1c1.8,0.6,3.5,1.3,5.2,2.2c0.2,0.1,0,0.4-0.2,0.3c-1.6-0.8-3.3-1.6-5.1-2.1
		C164.8,15.4,164.9,15,165,15.1z"/>
	<path class="st33" d="M136.5,16c-0.6,2.7-0.6,5.6,0,8.3v0.1l28.5-0.7l-0.1-1.9c-0.1-1.6,0-3.1,0.1-4.7l0.2-1.9L136.5,16L136.5,16z"
		/>
	<path class="st34" d="M141,63.2c-0.6-2-0.6-4.2,0-6.2v-0.1h26.3v6.4L141,63.2L141,63.2z"/>
	<polygon class="st35" points="161,56.9 164.6,56.9 164.7,63.2 161,63.2 	"/>
	<path class="st30" d="M167.4,57.2l4.7-1.8l0.3-0.1c-0.7-1.7-0.8-3.6-0.3-5.4l0.2-0.6l-4.9,0.7L167.4,57.2z"/>
	<polygon class="st36" points="141.3,49.2 172.2,49.5 167.6,50.5 138.7,50.3 	"/>
	<path class="st32" d="M172.3,49.6C172.3,49.6,172.4,49.6,172.3,49.6c0.1-0.1,0.1-0.2,0-0.2c-0.8,0.1-1.5,0.3-2.3,0.5l-2.4,0.6
		c-0.2,0-0.1,0.2,0,0.2l2.2-0.5C170.6,49.9,171.4,49.7,172.3,49.6L172.3,49.6z"/>
	<path class="st32" d="M167.3,57.1c0,0.1,0.1,0.1,0.2,0.1c1.7-0.5,3.4-1.1,5-1.8c0.2-0.1,0-0.3-0.1-0.3c-1.6,0.7-3.3,1.3-5,1.7
		C167.3,56.9,167.3,57,167.3,57.1C167.3,57.1,167.3,57.1,167.3,57.1z"/>
	<path class="st37" d="M138.7,57.3c-0.7-2.2-0.7-4.6,0-6.8v-0.1l28.9,0.2l-0.1,1.6c-0.1,1.2-0.1,2.4,0,3.7l0.1,1.5L138.7,57.3
		L138.7,57.3z"/>
	<path class="st29" d="M141.5,49.8v-6.4h27.4v6.5c0,0-0.1,0-0.1,0L141.5,49.8C141.5,49.9,141.5,49.8,141.5,49.8z"/>
	<path class="st38" d="M171.5,38.6l-33.8,0.1 M137.7,38.7C137.7,38.7,137.6,38.7,137.7,38.7l-0.1-4.7c0,0,0-0.1,0.1-0.1c0,0,0,0,0,0
		l33.8-0.1c0,0,0.1,0,0.1,0.1v4.7L137.7,38.7z"/>
	<path class="st39" d="M143,33.4c-0.4-2.8-0.4-5.6,0-8.4l0.1-0.5h21.6v9.5h-21.6L143,33.4z"/>
	<polygon class="st21" points="158,24.5 162.3,24.5 162.3,33.9 158,33.9 	"/>
	<polygon class="st40" points="159,24.5 161.4,24.5 161.4,33.9 159,33.9 	"/>
	<polygon class="st41" points="164.7,25 142.8,27 143.1,24.6 164.7,24.5 	"/>
	<path class="st42" d="M153.9,11.2c0.8,0,1.5,0.6,1.5,1.5c0,0,0,0,0,0c0,0.8-0.6,1.5-1.5,1.5c-0.8,0-1.5-0.6-1.5-1.5c0,0,0,0,0,0
		C152.4,11.8,153.1,11.2,153.9,11.2z"/>
	<path class="st39" d="M168.2,36.4c0.3,0.4,0.6,0.7,1,1c0.1,0.1,0.3-0.1,0.2-0.2c-0.3-0.3-0.6-0.6-0.9-0.9c0.2-0.3,0.5-0.6,0.9-0.8
		c0.1-0.1,0-0.4-0.1-0.2c-0.4,0.3-0.7,0.6-1,0.9C168.2,36.2,168.2,36.3,168.2,36.4z"/>
	<path class="st39" d="M166.6,36.2c0.1,0.2,0.3,0.3,0.4,0.4l0.6,0.5c0.1,0.1,0.3-0.1,0.2-0.2l-0.5-0.4l-0.4-0.4
		c0.2-0.2,0.4-0.5,0.7-0.7c0.1-0.2-0.1-0.3-0.2-0.2c-0.3,0.2-0.6,0.5-0.8,0.8C166.5,36.1,166.5,36.2,166.6,36.2z"/>
	<path class="st39" d="M165.5,35.5c0,0.2,0.1,0.3,0.3,0.4c0,0,0.1-0.1,0.1-0.1c0-0.1,0-0.1-0.1-0.2c-0.2,0-0.1-0.3,0-0.4l0,0
		c0.1-0.1,0.1-0.1,0-0.2c0-0.1-0.1-0.1-0.2,0c0,0,0,0,0,0C165.5,35.1,165.5,35.3,165.5,35.5z"/>
	<path class="st39" d="M164.2,36.6c0.2,0.2,0.5,0.2,0.8,0c0.2-0.2,0.2-0.5,0-0.7c-0.2-0.2-0.5-0.3-0.7-0.1c0,0-0.1,0-0.2,0
		C163.9,36,163.9,36.4,164.2,36.6z M164.3,36.3c-0.1-0.1-0.2-0.3-0.1-0.4h0.1c0.1-0.1,0.2-0.1,0.3,0c0.1,0.1,0.1,0.3,0,0.4l0,0
		C164.6,36.4,164.4,36.4,164.3,36.3L164.3,36.3z"/>
	<polygon class="st39" points="145.1,43.3 145.4,43.3 145.5,49.9 145.1,49.9 	"/>
	<polygon class="st39" points="143.8,43.3 144.1,43.3 144.1,49.9 143.8,49.9 	"/>
	<path class="st43" d="M167.3,57.3l-26.7,1c0.1-0.4,0.1-0.7,0.2-1.1L167.3,57.3L167.3,57.3z"/>
	<path class="st22" d="M139.5,38.7l33.8-0.1l0,0v4.7c0,0-0.1,0-0.1,0l-33.8,0.1 M139.4,43.2L139.4,43.2z"/>
	<polygon class="st39" points="168.9,39.9 169.4,39.9 169.4,41.9 168.9,41.9 	"/>
	
		<rect x="167.3" y="39.9" transform="matrix(1 -2.443451e-03 2.443451e-03 1 -9.943473e-02 0.4095)" class="st39" width="0.5" height="2"/>
	<path class="st24" d="M137.6,38.2l34,0.2l0,0l0,0c0,0.1-0.1,0.2-0.1,0.2h-33.9L137.6,38.2z"/>
	<path class="st44" d="M137.8,38l34,0.2l0,0l0,0c0,0.1-0.1,0.1-0.1,0.1l0,0h-33.9L137.8,38z"/>
	<path class="st19" d="M164.7,24.5v9.5l1.7-0.2c-1.2-2.5-0.2-8.5-0.2-8.5L164.7,24.5z"/>
</g>
</svg>
