<?xml version="1.0" encoding="utf-8"?>
<!-- Generator: Adobe Illustrator 22.1.0, SVG Export Plug-In . SVG Version: 6.00 Build 0)  -->
<svg version="1.1" id="Layer_1" xmlns="http://www.w3.org/2000/svg" xmlns:xlink="http://www.w3.org/1999/xlink" x="0px" y="0px"
	 viewBox="0 0 251 151" style="enable-background:new 0 0 251 151;" xml:space="preserve">
<style type="text/css">
	.st0{fill:#E84C59;}
	.st1{fill:#EE7B5C;}
	.st2{fill:#F9C862;}
	.st3{fill:#062633;}
	.st4{fill:#ABAAAA;}
	.st5{fill:#E1DFE0;}
	.st6{fill:none;}
	.st7{fill:#041D26;}
	.st8{fill:#6E6E6E;}
	.st9{fill:#C0C0C0;}
	.st10{fill:#5E3E21;}
	.st11{fill:#783A28;}
	.st12{fill:#54371D;}
	.st13{fill:#6D3325;}
	.st14{fill:#8F4729;}
	.st15{fill:#DCB680;}
	.st16{fill:#C69666;}
	.st17{fill:#662F1E;}
	.st18{fill:#231D13;}
	.st19{fill:#574C3E;}
	.st20{fill:#442C1A;}
	.st21{fill:#BDBBBB;}
	.st22{fill:#3A5056;}
	.st23{fill:#CC6F00;}
	.st24{opacity:0.3;fill:#002735;enable-background:new    ;}
</style>
<title>Joonas_front</title>
<g id="Layer_2_1_">
	<path class="st0" d="M144.2,93c4.4,3.5,12.4,10.6,14.2,16.6c3,9.3-1.8,22.5-4.5,27.9c-0.6-6.7-2.2-11.1-5-12.8
		c-0.9-0.5,0.1,3.2-1.8,5.8c-0.9-2.3-2.4-4.4-4.3-6.1c-1.8-1.9-4.8-5.8-5.3-9.2c-1.8-10.5,3.2-19.7,4-21.9L144.2,93z"/>
	<path class="st1" d="M144.2,93c2.1,1.3,8,7.5,8.9,11.9s-2.8,13.5-3.2,19.1c-2.1-3.8-2.3-5.6-5-7.9s-3-2.8-3.9-4.5s-1-7.2-0.4-12.2
		c0.1-2,0.5-4,1.2-6L144.2,93z"/>
	<path class="st2" d="M144.2,93c2.1,1.9,6.9,8.3,6.5,11.5s-2.3,4.1-3.4,9.1c-1.2-1.2-1-4.9-2.8-5.8c-0.1,1.3,0.1,2.1-0.8,3.4
		c-0.1-1.9-1.6-3.4-2.3-5.6c-0.8-2.6-0.1-5.4,0.1-7.9c0.1-1.4,0.1-2.8,0-4.1L144.2,93z"/>
	<path class="st3" d="M143.8,95c4.7-1.2,8.2-3.1,7.9-4.4l0.5,2.3c0.3,1.3-3.2,3.2-7.9,4.4c-4.7,1.2-8.7,0.9-9.1-0.4l-0.5-2.3
		C135.1,95.9,139.1,96.1,143.8,95z"/>
	<path class="st3" d="M144.6,97.8c3.5-0.8,6.2-2.5,6-3.4l0.4,1.8c0.3,1-2.5,2.5-6,3.4s-6.6,0.8-6.7-0.3l-0.4-1.8
		C138,98.5,140.9,98.6,144.6,97.8z"/>
	<path class="st4" d="M142.5,61.3c4,6.1,6.9,12.9,8.4,20.1c1.2,4.8,2.1,8.4,2.1,8.4c-2.9,1.9-5.9,3.3-9.2,4.4
		c-3.3,0.5-6.7,0.6-10.1,0.4c0,0-1-3.5-2.2-8.4c-1.8-7-2.3-14.4-1.4-21.6c2.2,0,4.4-0.3,6.5-0.8C138.6,63.1,140.6,62.3,142.5,61.3z"
		/>
	<path class="st5" d="M133.8,53.7c1.2-0.3,4.8,1.9,8.5,7.6c-2,1-4,1.8-6.2,2.3c-2.1,0.5-4.3,0.8-6.5,0.8
		C130.7,57.8,132.9,54,133.8,53.7z"/>
	<path class="st3" d="M143,91.7c5.4-1.3,9.4-3.6,9.2-5l0.6,2.7c0.4,1.6-3.8,3.8-9.2,5s-10.1,1.2-10.5-0.4l-0.6-2.7
		C132.9,92.8,137.6,93,143,91.7z"/>
	<path class="st6" d="M135.4,95.2c0.9,0.1,1.7,0.1,2.6,0.1l0.1,0.4C137.2,95.8,136.2,95.6,135.4,95.2z"/>
	<path class="st6" d="M138.2,98.1h0.6v0.3C138.7,98.2,138.5,98.1,138.2,98.1z"/>
	<path class="st7" d="M138.1,95.6l0.8,2.3h-0.6c-0.2-0.1-0.4-0.3-0.5-0.5l0.1,0.5c-1.3-0.1-2.3-0.5-2.5-1l-0.4-1.8l0.4,0.1
		C136.2,95.6,137.2,95.8,138.1,95.6z"/>
	<path class="st7" d="M138.2,98.1c0.3,0.1,0.5,0.1,0.8,0.3c0.1,0.6,0.4,1.2,0.6,1.8c-0.8-0.1-1.4-0.4-1.4-0.8l-0.3-1.3l-0.1-0.5
		C137.8,97.8,138,97.9,138.2,98.1z"/>
	<path class="st8" d="M136.3,88.8c0.3,1.3,0.6,2.5,0.9,3.8c-2.3,0.1-4.1-0.3-4.7-1c-0.4-1.4-0.9-3.4-1.4-5.4
		c-1.8-7-2.3-14.4-1.4-21.6c1.1,0,2.2,0,3.2-0.3C133.1,72.5,134.3,80.7,136.3,88.8z"/>
	<path class="st9" d="M129.8,64.4c0.9-6.6,3-10.4,4-10.6h0.5c-0.9,3.4-1.3,6.9-1.3,10.5C132,64.3,130.9,64.4,129.8,64.4z"/>
	<path class="st7" d="M137.2,92.5l0.8,2.7c-0.9,0-1.7,0-2.6-0.1L135,95c-0.5-0.1-1-0.3-1.4-0.6l0,0c-0.1-0.1-0.3-0.3-0.3-0.4
		l-0.6-2.7v0.3C133.1,92.3,134.9,92.6,137.2,92.5z"/>
	<path class="st0" d="M158.3,94.5c4.1,3.8,11.8,11.3,13.3,17.3c2.5,9.4-3,22.4-6,27.7c-0.3-6.7-1.6-11.1-4.3-13.1
		c-0.9-0.6,0,3.2-2.2,5.7c-0.8-2.3-2.1-4.5-3.9-6.2c-1.8-2.1-4.4-6.1-4.8-9.4c-1.2-10.5,4.3-19.5,5.3-21.6L158.3,94.5z"/>
	<path class="st1" d="M158.3,94.5c1.9,1.4,7.5,7.9,8.3,12.4s-3.5,13.3-4.3,19c-1.9-3.9-2.1-5.7-4.7-8.2c-1.6-1.3-2.9-2.9-3.8-4.8
		c-0.9-1.9-0.6-7.4,0.3-12.2c0.2-2,0.7-4,1.4-6L158.3,94.5z"/>
	<path class="st2" d="M158.3,94.5c1.9,2.1,6.5,8.7,5.8,11.9c-0.6,3.2-2.5,4-3.9,8.9c-1.2-1.3-0.8-5-2.6-6c-0.3,1.3,0,2.1-0.9,3.2
		c0-1.8-1.3-3.5-1.9-5.7c-0.6-2.6,0.3-5.3,0.6-7.9c0.2-1.4,0.3-2.8,0.3-4.1L158.3,94.5z"/>
	<path class="st3" d="M157.8,96.4c4.7-0.8,8.3-2.6,8.2-4l0.4,2.5c0.3,1.3-3.4,3.1-8.2,4s-8.7,0.5-8.9-0.9l-0.4-2.5
		C149.1,96.8,153.1,97.2,157.8,96.4z"/>
	<path class="st3" d="M158.3,99.2c3.5-0.6,6.2-1.9,6.1-3l0.3,1.8c0.1,1-2.6,2.3-6.1,3c-3.5,0.6-6.5,0.4-6.7-0.6l-0.3-1.8
		C151.8,99.6,154.8,99.9,158.3,99.2z"/>
	<path class="st4" d="M158.3,62.8c3.6,6.3,6.1,13.2,7.2,20.4c0.9,4.9,1.6,8.5,1.6,8.5c-3,1.7-6.1,3-9.4,3.9
		c-3.4,0.3-6.7,0.3-10.1-0.1c0,0-0.8-3.5-1.7-8.5c-1.4-7.1-1.5-14.5-0.3-21.6C150,65.4,154.3,64.5,158.3,62.8z"/>
	<path class="st5" d="M150.1,54.7c1.2-0.3,4.7,2.2,8.2,8c-4,1.8-8.3,2.6-12.7,2.3C146.8,58.6,149.1,54.9,150.1,54.7z"/>
	<path class="st3" d="M157.3,93c5.4-0.9,9.7-3,9.4-4.7l0.5,2.8c0.3,1.6-3.9,3.6-9.4,4.7c-5.6,1-10.1,0.5-10.4-1l-0.5-2.8
		C147,93.7,151.7,94.1,157.3,93z"/>
	<path class="st6" d="M149.4,96.1c0.9,0.2,1.8,0.2,2.7,0.3c0,0.1,0,0.3,0.1,0.4C151.2,96.8,150.2,96.6,149.4,96.1z"/>
	<path class="st6" d="M152.1,99.1h0.6v0.3C152.5,99.4,152.3,99.3,152.1,99.1z"/>
	<path class="st7" d="M152.1,96.8c0.2,0.8,0.4,1.7,0.6,2.5h-0.6c-0.2-0.1-0.4-0.3-0.5-0.5l0.1,0.5c-1.3-0.3-2.3-0.6-2.3-1.2
		l-0.4-1.8c0.1,0,0.3,0.1,0.4,0.1C150.2,96.7,151.2,96.8,152.1,96.8z"/>
	<path class="st7" d="M152.1,99.1c0.2,0.1,0.5,0.2,0.8,0.3c0.1,0.6,0.4,1.3,0.5,1.8c-0.8-0.1-1.4-0.4-1.4-0.8l-0.3-1.8
		C151.6,98.9,151.8,99.1,152.1,99.1z"/>
	<path class="st8" d="M150.7,89.8c0.2,1.3,0.4,2.5,0.8,3.8c-2.5,0-4.1-0.5-4.5-1.3c-0.3-1.4-0.6-3.4-1-5.6
		c-1.4-7.1-1.5-14.5-0.3-21.6h3.2C148.5,73.4,149.1,81.7,150.7,89.8z"/>
	<path class="st9" d="M145.5,65.1c1.3-6.6,3.5-10.2,4.5-10.5h0.5c-1.1,3.4-1.7,6.8-1.8,10.4C147.6,65.2,146.6,65.2,145.5,65.1z"/>
	<path class="st7" d="M151.4,93.5c0.2,1,0.4,1.9,0.6,2.8c-0.9,0-1.8-0.1-2.7-0.3c-0.1,0-0.3,0-0.4-0.1c-0.5-0.1-1-0.4-1.4-0.6l0,0
		c-0.1-0.1-0.1-0.3-0.3-0.4l-0.5-2.8v0.3C147.3,93.2,149,93.5,151.4,93.5z"/>
	<path class="st10" d="M100.1,88.1c0.6,2.2,1.3,7.4-4.1,8s-4.1-7-4.1-7L100.1,88.1z"/>
	<path class="st11" d="M124.5,66c0,1-0.1,1.3-0.4,1.6l-0.5,0.6c-0.3,0.4-0.6,0.8-1,1c-0.4,0.3-0.6,0.5-1,0.8c-0.3,0.2-0.7,0.4-1,0.5
		c-1.4,0.6-2.7,1.4-4,2.3c-2.5,1.8-4.9,3.7-7.2,5.8c-2.2,2.1-4.2,4.3-6,6.7c-0.8,1.1-1.5,2.2-2.2,3.4c-0.3,0.5-0.4,1-0.8,1.3
		s-0.4,0.3-0.6,0.4L99,90.6l-0.5,0.1c-0.5,0.1-1,0.2-1.6,0.3l-4.1,0.8c-1.3,0-1.6-0.1-1.7-0.4c-0.2-0.2-0.4-0.4-0.5-0.6
		c-0.3-0.3-0.5-0.7-0.5-1.2c-0.2-0.7-0.2-1.5-0.1-2.2c0.1-1.2,0.5-2.4,1-3.5c0.9-1.9,2-3.7,3.4-5.3c2.4-3,5.3-5.6,8.5-7.8
		c3.1-2.2,6.5-3.9,10.1-5.2c1.8-0.6,3.6-1.2,5.4-1.6c0.9-0.2,1.9-0.3,2.8-0.1c0.5,0,1.1,0.1,1.6,0.4l0.8,0.4
		C123.9,64.7,124.1,65,124.5,66L124.5,66z"/>
	<path class="st12" d="M134,97.7c-0.4-0.5-6,5.7-6,5.7c1.2,0.4,2.4,0.7,3.6,0.9c-0.5,0.5-1,1.2-1.6,1.7c-2.8,3.6-3.6,7.9-1.7,9.4
		c1.4,1,3.8-2.5,6.2-5.8c1.3-1.7,2.7-3.2,3.6-4.4l0,0l1.7-2.1c0,0-0.1-1.4-4-2.3C135.3,100.7,134.5,98.2,134,97.7z"/>
	<path class="st13" d="M135.1,86c2.7,1.3,2.5,3,3.1,4.5s1.1,3.1,1.4,4.7c0.4,1.6,0.6,3.2,1,4.8l0.4,2.3c0.1,0.4,0.1,0.8,0.3,1.2
		c-0.1,0.5-0.4,1-0.9,1.3l-14.1,1.6c-0.6-0.1-1-0.6-1.2-1.2c0-0.4-0.1-0.8-0.1-1.2l-0.1-2.5c-0.1-1.6-0.1-3.3,0-4.9
		c0-1.6,0.1-3.3,0.4-4.9c0.1-1.7-0.3-3.2,2.2-5L135.1,86z"/>
	<path class="st10" d="M145.9,94.7c-0.5-0.4-3.6,7.4-3.6,7.4c1.2,0,2.4-0.1,3.6-0.4c-0.4,0.7-0.7,1.4-0.9,2.2
		c-1.4,4.4-0.6,8.7,1.7,9.3c1.7,0.5,2.6-3.6,3.9-7.6c0.6-2.1,1.4-3.9,1.8-5.4l0,0l0.9-2.6c0,0-0.6-1.3-4.5-0.8
		C147.9,97,146.4,95.1,145.9,94.7z"/>
	<path class="st11" d="M148.7,83.7c2.7,1.3,2.5,3,3.1,4.5s1.1,3.1,1.4,4.7c0.4,1.6,0.6,3.2,1,4.8l0.4,2.3c0.1,0.4,0.1,0.8,0.3,1.2
		c-0.1,0.5-0.4,1-0.9,1.3l-14.1,1.6c-0.6-0.1-1-0.6-1.2-1.2c0-0.4-0.1-0.8-0.1-1.2l-0.1-2.5c-0.1-1.6-0.1-3.3,0-4.9
		c0-1.6,0.1-3.3,0.4-4.9c0.1-1.7-0.3-3.2,2.2-5L148.7,83.7z"/>
	<path class="st14" d="M116,49c0.1,10.1,8.3,18.2,18.4,18.1c10.1-0.1,18.2-8.3,18.1-18.4c-0.1-10.1-8.3-18.2-18.4-18.1l0,0
		C124,30.8,115.9,39,116,49z"/>
	<path class="st14" d="M115.1,90.1l0.6,5.3c0.5,5.2,9.8,4.8,21.3,3.5c9.8-1.2,21.5-2.1,20.7-9.3l0,0c-0.9-19.3-8-34.7-24.6-32.7l0,0
		c-16.4,1.9-19.5,13.7-18.6,26.9V84l0.1,0.8C114.6,86.5,114.7,88.3,115.1,90.1z"/>
	<path class="st15" d="M123.5,73.9c1.9-0.4,3.6-3,6.2-4.1c3.6-1.7,4.8-5,4.4-3.6c-0.4,1.4,0.8,2.3,0.9,2.1s-0.4,0.3,0.1-2.1
		c0.5-2.3,3.4-3.1,5.7-6.9c0.8-1.4,1.5-2.8,2.1-4.3c0.1,0.6,0.2,1.3,0.1,1.9c5-13.1,0.8-21.2,0.1-21.7c0.8,0.2,1.4,0.7,1.9,1.3
		c-1.2-4.4-4-5-4.4-5.2c0.7-0.4,1.5-0.5,2.2-0.3c-1-1.9-2.2-3.2-4.3-3.5c-0.8-0.1-1.5,0.2-1.9,0.9c0.8-1.9-0.1-4.1-2.1-4.9l0,0l0,0
		c1,4.4,0.5,3.6,0.4,3.8s-1.9-2.3-4.1-2.7c0.5,0.3,0.8,0.8,0.9,1.4c-2.1-1.2-4.3-2.7-8.9-0.3c1.1,0.1,2.2,0.6,3.1,1.3
		c-5.3,1.3-9.6,5-11.5,10.1c0.4-0.1,2.5-1.2,2.6-0.9c-1.4,0.9-6.3,4.3-5.3,19.3c0.1-0.8,0.9-2.5,1.3-2.3c-0.6,1.3,0,5.4,3.5,9.6
		C121.2,67.9,123.2,70.9,123.5,73.9z"/>
	<path class="st10" d="M116.9,45.3c0.9-7,6-12.2,11-11.5c5,0.6,8.3,6.9,7.4,13.8c-0.4,3.7-2.2,7.1-4.9,9.6c-2.7,2.3-4.9,4.3-5.6,7
		c-0.4-3.9-2.7-5.3-5.4-8.3C117.1,52.8,116.2,49,116.9,45.3z"/>
	<path class="st16" d="M117,44.8c-0.9,6.7,1.9,12.8,7.2,13.6c5.3,0.8,11.5-4.4,12.4-11.1s-2.6-12.8-7.9-13.5
		C123.5,33.1,117.8,37.9,117,44.8z"/>
	<path class="st17" d="M123.9,43.9c-0.6-0.4-1.3-0.8-1.9-1c-0.7-0.3-1.4-0.4-2.1-0.4c0.7-0.2,1.5-0.1,2.2,0.1
		c0.8,0.1,1.5,0.4,2.2,0.8L123.9,43.9z"/>
	<path class="st17" d="M127.1,43.5c0.8,0,1.6,0.1,2.5,0.3c0.8,0.1,1.5,0.5,2.1,1c-0.7-0.4-1.4-0.6-2.2-0.6h-2.3v-0.7H127.1z"/>
	<polygon class="st18" points="127.2,44.9 129.6,45 127.2,45.3 	"/>
	<path class="st18" d="M123.6,44.8l-1.3-0.6c-0.4-0.2-0.8-0.4-1.3-0.5c0.5,0.1,1,0.2,1.4,0.4l1.4,0.4L123.6,44.8z"/>
	<path class="st19" d="M127,47.5c0.2,0.7-0.1,1.5-0.8,1.9c-0.6,0.5-1.3,0.7-2.1,0.5c-0.8,0-1.5-0.5-1.8-1.3
		c-0.3-0.7-0.3-1.5,0.1-2.1c-0.1,0.3-0.2,0.7-0.1,1c0,0.3,0.1,0.6,0.3,0.9c0.3,0.5,0.9,0.9,1.6,0.9c0.6,0.1,1.3,0,1.8-0.4
		C126.6,48.8,127,48.2,127,47.5z"/>
	<path class="st18" d="M127,52.9l-0.8,0.8c-0.3,0.3-0.6,0.4-0.9,0.6c-0.7,0.4-1.6,0.4-2.3,0.1c-0.7-0.3-1.3-0.8-1.7-1.4
		c-0.4-0.6-0.7-1.3-0.8-2.1c0.4,0.6,0.7,1.1,1.2,1.7c0.4,0.5,0.9,0.9,1.6,1.2c0.6,0.3,1.2,0.3,1.8,0c0.3-0.1,0.6-0.3,0.9-0.4
		L127,52.9z"/>
	<path class="st20" d="M130.3,34.2c-1.3-0.4-2.7-0.6-4-0.4c-3.5,0.4-6.3,3.8-7.1,4.7c1-0.3,2.1-0.1,3,0.4c0.1,0.2,0.3,0.3,0.5,0.3
		l1.8-3l-0.3,3.9c5.2,2.6,11.9-1.2,12.3,3.4C136.2,39.1,133.7,35.3,130.3,34.2"/>
	<path class="st10" d="M180.7,39.1c0.5-2.6,0.8-10.5-5.3-10.4s-3.8,4.8-3.4,6.1c0.4,1.5,0.2,3-0.5,4.4L180.7,39.1z"/>
	<path class="st11" d="M142.1,68.8c-0.1-0.6-0.1-1.2,0.1-1.7l0.4-0.8c0.3-0.5,0.6-0.9,1-1.3c0.7-0.8,1.5-1.4,2.3-1.9
		c1.7-1,3.4-2.2,4.9-3.2c3.1-2.2,6.2-4.7,9.1-7.1c2.7-2.3,5.1-4.9,7.2-7.8c0.9-1.2,1.7-2.5,2.3-3.9c0.2-0.6,0.5-1.2,0.9-1.8
		c0.2-0.3,0.5-0.6,0.8-0.9c0.2-0.2,0.4-0.4,0.6-0.5l0.5-0.3c0.6-0.1,1.1-0.2,1.7-0.3h4.4c1.3,0.1,1.6,0.4,1.7,0.5l0.5,0.5
		c0.2,0.3,0.4,0.7,0.5,1c0.1,0.7,0.2,1.4,0.3,2.1c0,1.4-0.3,2.7-0.9,4c-0.9,2.4-2.2,4.6-3.8,6.6c-1.4,1.9-3,3.6-4.8,5.2
		c-1.7,1.4-3.5,2.8-5.3,4c-3.6,2.3-7.4,4.4-11.4,6.1c-1.9,0.9-3.9,1.6-5.8,2.3c-1,0.4-2,0.6-3.1,0.6c-0.6,0.1-1.2,0.1-1.8,0
		c-0.3,0-0.6-0.1-0.9-0.3C143,69.9,142.5,69.4,142.1,68.8L142.1,68.8z"/>
	<path class="st21" d="M160.1,24.2c-9.3,3.6-6.3,19.1,0.6,19.4c7.8,0.1,14.6-2.2,15-7.4S170.4,20.2,160.1,24.2z"/>
	<path class="st22" d="M159.2,27c-0.8,0.3-1.8,0.3-1.4,2.3c0.4,2.1,1.6,2.2,2.3,2.2c1.3-0.1,1.4-1,1.8-1.8c0.4-0.8,0.6-1.7,0-2.3
		C161.1,27,160.1,26.8,159.2,27z"/>
	<path class="st22" d="M159.3,36.4c-0.3-0.1-0.6-0.4-1,0.4c-0.3,0.4-0.3,0.9,0,1.3c0.4,0.3,0.9,0,1.2-0.1s0.6-0.4,0.5-0.6
		C159.9,36.9,159.7,36.5,159.3,36.4z"/>
	<path class="st22" d="M165.4,27c-0.8,0.3-1.3,0.5-1.4,2.3c-0.1,2.2,2.3,2.5,2.7,2.3c0.8-0.2,1.4-0.8,1.7-1.6c0.3-0.9,0-1.8-0.6-2.5
		C167,27.2,166.2,27,165.4,27z"/>
	<path class="st22" d="M168.1,36.1c-0.4,0.1-0.5,0.3-0.5,0.9s0.9,0.9,1.2,0.9c0.4-0.1,0.7-0.5,0.7-0.9c0-0.2-0.1-0.4-0.3-0.5
		C168.9,36.1,168.5,36,168.1,36.1z"/>
	<path class="st22" d="M166.3,37.3c-0.4,0.1-0.6,0.3-0.8,1.2c0,0.6,0.5,1.2,1.1,1.2c0.1,0,0.2,0,0.3,0c0.4-0.1,0.7-0.4,0.9-0.8
		c0.3-0.4,0-0.9-0.3-1.3C167.2,37.4,166.6,37.1,166.3,37.3z"/>
	<path class="st22" d="M163.3,37.9c-0.5,0.1-0.9,0.4-0.9,1.4c0,0.8,0.6,1.5,1.4,1.5c0.1,0,0.3,0,0.4,0c0.8-0.2,1.3-0.9,1.1-1.7
		c-0.1-0.3-0.2-0.6-0.4-0.8C164.4,38,163.9,37.9,163.3,37.9z"/>
	<path class="st22" d="M161.4,37.5c-0.5-0.3-0.8-0.3-1.4,0.5c-0.9,0.9,0.1,1.9,0.4,2.1c0.4,0.2,0.9,0.2,1.3,0
		c0.4-0.1,0.6-0.8,0.6-1.3C162.2,38.3,161.9,37.8,161.4,37.5z"/>
	<path class="st22" d="M169,34.7c-0.3,0.1-0.4,0.1-0.4,0.6s0.6,0.6,0.8,0.6s0.4-0.2,0.4-0.4c0.1-0.1,0-0.5-0.1-0.6
		C169.5,34.8,169.2,34.6,169,34.7z"/>
	<path class="st22" d="M157.6,34.9c-0.3,0.1-0.4,0.1-0.4,0.6s0.6,0.6,0.8,0.6s0.4-0.3,0.5-0.4s0-0.5-0.1-0.6
		C158.3,35.1,157.8,34.8,157.6,34.9z"/>
	<path class="st23" d="M162.8,31.8c-1.4-0.4-5.3,0.9-6.7,1.2s-5.7,0.4-5.4,0.5c2.3,1.1,4.8,1.5,7.2,1.3c2.3-0.3,4,0.3,5.2-0.1
		C164.2,34.6,164.2,32.2,162.8,31.8z"/>
	<path class="st24" d="M175.6,36.2c-0.4,5.2-7.1,7.5-14.9,7.4c-3.6-0.1-6.1-4.3-6.5-8.7c-1.3-0.1-2.5-0.5-3.6-1.2
		c1.2-0.2,2.4-0.3,3.6-0.3c0.1-3.9,1.8-7.6,5.8-9.2C170.4,20.2,176,31.1,175.6,36.2z"/>
</g>
</svg>
