<svg id="Layer_3" data-name="Layer 3" xmlns="http://www.w3.org/2000/svg" viewBox="0 0 251 151"><defs><style>.cls-1{fill:#e84c59;}.cls-2{fill:#ee7b5c;}.cls-3{fill:#f9c862;}.cls-4{fill:#062633;}.cls-5{fill:#abaaaa;}.cls-6{fill:#e1dfe0;}.cls-7{fill:none;}.cls-8{fill:#041d26;}.cls-9{fill:#6e6e6e;}.cls-10{fill:silver;}.cls-11{fill:#5e3e21;}.cls-12{fill:#783a28;}.cls-13{fill:#54371d;}.cls-14{fill:#6d3325;}.cls-15{fill:#8f4729;}.cls-16{fill:#dcb680;}.cls-17{fill:#c69666;}.cls-18{fill:#662f1e;}.cls-19{fill:#231d13;}.cls-20{fill:#574c3e;}.cls-21{fill:#442c1a;}.cls-22{fill:#bdbbbb;}</style></defs><title>Joonas</title><path class="cls-1" d="M163.24,66.4c3.37,2.68,9.56,8.16,11,12.79,2.28,7.16-1.37,17.43-3.47,21.62-.47-5.18-1.7-8.57-3.86-9.89-.69-.42.09,2.49-1.43,4.53a12.37,12.37,0,0,0-3.3-4.66c-1.44-1.5-3.69-4.53-4.11-7.06-1.43-8.07,2.45-15.25,3.11-16.88Z"/><path class="cls-2" d="M163.24,66.4c1.56,1,6.16,5.82,6.92,9.24S168,86.07,167.69,90.48c-1.64-2.89-1.77-4.29-3.94-6.06s-2.32-2.15-3.05-3.53-.81-5.63-.34-9.36a20.33,20.33,0,0,1,.86-4.63Z"/><path class="cls-3" d="M163.24,66.4c1.58,1.52,5.31,6.41,5,8.9s-1.78,3.18-2.61,7c-.93-.94-.84-3.82-2.24-4.46-.12,1,.06,1.64-.56,2.57-.11-1.45-1.19-2.59-1.77-4.3-.64-2-.06-4.15.14-6.12a12.17,12.17,0,0,0,0-3.19Z"/><path class="cls-4" d="M163,67.87c3.6-.87,6.32-2.39,6.08-3.4l.45,1.84c.23,1-2.49,2.54-6.09,3.39s-6.72.75-7-.27L156,67.6C156.25,68.61,159.38,68.77,163,67.87Z"/><path class="cls-4" d="M163.53,70.07c2.71-.65,4.75-1.85,4.57-2.56l.34,1.38c.18.77-1.87,1.91-4.58,2.56s-5.06.56-5.24-.21l-.33-1.38C158.44,70.64,160.79,70.73,163.53,70.07Z"/><path class="cls-5" d="M161.94,41.92a46.78,46.78,0,0,1,6.46,15.46c.9,3.72,1.56,6.48,1.56,6.48a31.24,31.24,0,0,1-7.13,3.37,32.34,32.34,0,0,1-7.8.29s-.78-2.7-1.7-6.53a46,46,0,0,1-1.11-16.69,20.88,20.88,0,0,0,5-.6A20.25,20.25,0,0,0,161.94,41.92Z"/><path class="cls-6" d="M155.3,36.05c.87-.15,3.67,1.52,6.64,5.88a20.37,20.37,0,0,1-4.76,1.77,20.88,20.88,0,0,1-5,.6C152.89,39.2,154.52,36.24,155.3,36.05Z"/><path class="cls-4" d="M162.38,65.38c4.17-1,7.33-2.78,7.05-3.95l.5,2.13c.29,1.18-2.87,2.94-7.05,3.94s-7.79.87-8.07-.31l-.51-2.13C154.58,66.23,158.2,66.38,162.38,65.38Z"/><path class="cls-7" d="M156.42,68.08a10.06,10.06,0,0,0,2.05.09l.05.28A4.74,4.74,0,0,1,156.42,68.08Z"/><path class="cls-7" d="M158.64,70.28h.52l0,.17A2.69,2.69,0,0,1,158.64,70.28Z"/><path class="cls-8" d="M158.59,68.44c.19.63.38,1.24.57,1.84h-.52a.67.67,0,0,1-.42-.4l.07.38c-1-.09-1.79-.35-1.9-.82L156.05,68l.35.06A4.68,4.68,0,0,0,158.59,68.44Z"/><path class="cls-8" d="M158.64,70.28a2.38,2.38,0,0,0,.58.16c.14.48.31,1,.46,1.4-.64-.08-1.07-.27-1.12-.58l-.23-1-.07-.39A.6.6,0,0,0,158.64,70.28Z"/><path class="cls-9" d="M157.15,63.12c.25,1,.49,1.95.75,2.91-1.84.08-3.19-.19-3.55-.78-.29-1.11-.67-2.57-1.07-4.25a46.05,46.05,0,0,1-1.12-16.7,18,18,0,0,0,2.54-.15A82.56,82.56,0,0,0,157.15,63.12Z"/><path class="cls-10" d="M152.16,44.3c.7-5.1,2.29-8,3.11-8.24a.71.71,0,0,1,.41,0,28.52,28.52,0,0,0-1,8.07A18,18,0,0,1,152.16,44.3Z"/><path class="cls-8" d="M157.9,66c.2.72.4,1.43.61,2.13a10.82,10.82,0,0,1-2-.08l-.34-.07a2.21,2.21,0,0,1-1.1-.49h0a.73.73,0,0,1-.19-.31l-.51-2.14a.45.45,0,0,0,0,.2C154.71,65.84,156.06,66.11,157.9,66Z"/><path class="cls-1" d="M174.13,67.52c3.22,2.86,9.08,8.67,10.32,13.41,1.91,7.27-2.31,17.33-4.63,21.4-.19-5.18-1.24-8.64-3.32-10.09-.67-.46-.05,2.5-1.67,4.45a12.51,12.51,0,0,0-3-4.82c-1.37-1.58-3.44-4.74-3.73-7.28-.95-8.14,3.28-15.09,4.06-16.68Z"/><path class="cls-2" d="M174.13,67.52c1.51,1.13,5.83,6.14,6.41,9.6s-2.75,10.3-3.25,14.67c-1.49-3-1.56-4.37-3.61-6.26s-2.19-2.27-2.86-3.73-.5-5.67.18-9.37a19.87,19.87,0,0,1,1.11-4.57Z"/><path class="cls-3" d="M174.13,67.52c1.51,1.6,5,6.69,4.51,9.16s-1.94,3.07-3,6.9c-.87-1-.62-3.86-2-4.58a4.76,4.76,0,0,1-.67,2.52c0-1.44-1-2.65-1.5-4.39-.54-2,.16-4.15.47-6.08a12.63,12.63,0,0,0,.15-3.19Z"/><path class="cls-4" d="M173.78,69c3.65-.64,6.45-2,6.26-3.06l.32,1.85c.18,1-2.62,2.4-6.26,3.08s-6.74.37-6.93-.66l-.33-1.86C167.05,69.35,170.14,69.64,173.78,69Z"/><path class="cls-4" d="M174.2,71.24c2.75-.49,4.81-1.53,4.67-2.3l.25,1.4c.14.78-2,1.81-4.67,2.3s-5,.27-5.22-.49L169,70.74C169.12,71.49,171.45,71.72,174.2,71.24Z"/><path class="cls-5" d="M174.16,43a46.34,46.34,0,0,1,5.6,15.78c.66,3.77,1.2,6.56,1.2,6.56a30.43,30.43,0,0,1-7.29,3,32,32,0,0,1-7.82-.13s-.63-2.73-1.33-6.61a46.12,46.12,0,0,1-.21-16.73A21.54,21.54,0,0,0,174.14,43Z"/><path class="cls-6" d="M167.82,36.82c.87-.15,3.57,1.72,6.31,6.23a21.58,21.58,0,0,1-9.83,1.83C165.3,39.79,167,37,167.82,36.82Z"/><path class="cls-4" d="M173.33,66.44c4.22-.74,7.48-2.33,7.25-3.55l.38,2.16c.21,1.19-3,2.79-7.26,3.56s-7.83.43-8-.76l-.38-2.16C165.49,66.88,169.12,67.22,173.33,66.44Z"/><path class="cls-7" d="M167.24,68.83a11,11,0,0,0,2.06.19l.06.3A5,5,0,0,1,167.24,68.83Z"/><path class="cls-7" d="M169.33,71.14l.52,0a.78.78,0,0,1,0,.16A2.7,2.7,0,0,1,169.33,71.14Z"/><path class="cls-8" d="M169.38,69.31c.12.63.31,1.25.47,1.87l-.52,0a.65.65,0,0,1-.39-.42l.08.41c-1.05-.15-1.77-.46-1.85-.92l-.26-1.44a1.4,1.4,0,0,0,.34.08A4.92,4.92,0,0,0,169.38,69.31Z"/><path class="cls-8" d="M169.33,71.14a2.31,2.31,0,0,0,.56.19c.09.5.27,1,.4,1.44-.63-.12-1.08-.34-1.13-.65l-.25-1.39A.66.66,0,0,0,169.33,71.14Z"/><path class="cls-9" d="M168.24,63.91c.17,1,.35,2,.59,2.94-1.85,0-3.18-.36-3.51-1-.2-1.14-.53-2.6-.84-4.31a45.85,45.85,0,0,1-.2-16.72,23.73,23.73,0,0,0,2.53,0A82,82,0,0,0,168.24,63.91Z"/><path class="cls-10" d="M164.28,44.86c1-5.07,2.67-7.92,3.55-8.07a.69.69,0,0,1,.4,0,28.69,28.69,0,0,0-1.42,8A23.73,23.73,0,0,1,164.28,44.86Z"/><path class="cls-8" d="M168.83,66.86c.13.74.32,1.45.48,2.16a11,11,0,0,1-2.06-.19,1.89,1.89,0,0,1-.34-.09,2.19,2.19,0,0,1-1.11-.54h0a.72.72,0,0,1-.18-.33l-.38-2.16a.63.63,0,0,0,0,.19C165.65,66.5,167,66.82,168.83,66.86Z"/><path class="cls-11" d="M129.14,62.57c.46,1.71,1,5.66-3.23,6.2s-3.16-5.36-3.16-5.36Z"/><path class="cls-12" d="M148.08,45.49c0,.78-.14,1-.28,1.21l-.36.54a4.74,4.74,0,0,1-.76.79c-.26.2-.52.42-.77.59a7.05,7.05,0,0,1-.82.42,25.78,25.78,0,0,0-3.15,1.79,42.7,42.7,0,0,0-5.57,4.55,46.25,46.25,0,0,0-4.6,5.19,17.5,17.5,0,0,0-1.7,2.56c-.24.4-.34.77-.63,1a1.52,1.52,0,0,1-.51.25l-.47.08-.36.06-1.25.22-3.22.57c-1,0-1.17-.11-1.28-.25s-.28-.3-.41-.46a2.16,2.16,0,0,1-.44-.93,6.48,6.48,0,0,1-.14-1.7,7.06,7.06,0,0,1,.8-2.72,20.93,20.93,0,0,1,2.56-4.13,29.21,29.21,0,0,1,6.61-6,34.07,34.07,0,0,1,7.82-4,36.69,36.69,0,0,1,4.2-1.24,5.25,5.25,0,0,1,2.23-.1,3.19,3.19,0,0,1,1.17.32c.2.09.41.22.61.33s.41.31.71,1Z"/><path class="cls-13" d="M155.4,70.05c-.33-.41-4.63,4.41-4.63,4.41a12.58,12.58,0,0,0,2.76.71,12.53,12.53,0,0,0-1.2,1.32c-2.21,2.83-2.79,6.07-1.29,7.25,1.06.83,2.86-1.91,4.8-4.49,1-1.3,2.09-2.47,2.8-3.44h0l1.28-1.62s-.1-1.1-3-1.81C156.34,72.28,155.72,70.43,155.4,70.05Z"/><path class="cls-14" d="M156.29,61c2.07,1,1.94,2.3,2.44,3.5a22.14,22.14,0,0,1,1.06,3.64c.3,1.22.55,2.45.76,3.68l.33,1.84a5.91,5.91,0,0,1,.16.92,1.43,1.43,0,0,1-.71,1L149.42,76.8a1.45,1.45,0,0,1-.91-.85,5.86,5.86,0,0,1-.07-.94l-.08-1.87c-.06-1.24-.07-2.5,0-3.75s.14-2.53.27-3.79-.16-2.49,1.65-3.93Z"/><path class="cls-11" d="M164.52,67.7c-.43-.28-2.83,5.73-2.83,5.73a13,13,0,0,0,2.85-.28,11.62,11.62,0,0,0-.73,1.66c-1.1,3.42-.53,6.66,1.28,7.25,1.28.41,2-2.78,3-5.87.47-1.56,1.1-3,1.43-4.2h0l.67-2s-.47-1-3.48-.65C166.16,69.47,165,68,164.52,67.7Z"/><path class="cls-12" d="M166.75,59.2c2.07,1,1.94,2.29,2.44,3.49a22.25,22.25,0,0,1,1.06,3.65c.3,1.21.55,2.45.76,3.68l.33,1.84a5.71,5.71,0,0,1,.16.92,1.43,1.43,0,0,1-.72,1L159.88,75a1.46,1.46,0,0,1-.91-.86,4.86,4.86,0,0,1-.07-.93l-.08-1.87c-.06-1.24-.08-2.5,0-3.76s.14-2.52.26-3.78-.15-2.49,1.66-3.94Z"/><path class="cls-15" d="M141.5,32.43a14.09,14.09,0,1,0,14-14.2h0A14.09,14.09,0,0,0,141.5,32.43Z"/><path class="cls-15" d="M140.73,64.07l.49,4.13c.42,4,7.6,3.74,16.47,2.66,7.64-.92,16.63-1.57,16-7.23h0c-.69-14.9-6.24-26.81-19-25.31h0C142,39.81,139.57,49,140.2,59.14a.58.58,0,0,0,0,.19l.1.58A29.35,29.35,0,0,0,140.73,64.07Z"/><path class="cls-16" d="M147.28,51.61c1.49-.33,2.77-2.29,4.81-3.24,2.81-1.34,3.69-3.93,3.44-2.77s.65,1.77.67,1.6-.33.16.06-1.57,2.62-2.39,4.42-5.35A19,19,0,0,0,162.3,37a7.41,7.41,0,0,1,.07,1.49c3.92-10.08.59-16.35.08-16.83a3.83,3.83,0,0,1,1.52,1c-.92-3.36-3.1-3.9-3.43-4a2,2,0,0,1,1.67-.2c-.82-1.51-1.69-2.52-3.33-2.73a1.66,1.66,0,0,0-1.51.69,2.91,2.91,0,0,0-1.59-3.81h0c.84,3.42.38,2.76.27,2.86s-1.55-1.82-3.16-2.14a1.78,1.78,0,0,1,.72,1.07c-1.56-.9-3.25-2.14-6.93-.18a4.41,4.41,0,0,1,2.36,1,12.6,12.6,0,0,0-8.89,7.75c.29-.13,1.87-.91,2-.7-1.13.71-4.91,3.27-4.08,14.93.14-.59.68-1.9,1-1.84-.53,1,0,4.24,2.71,7.42C145.49,47,147,49.29,147.28,51.61Z"/><path class="cls-11" d="M142.16,29.47c.7-5.39,4.63-9.36,8.48-8.85s6.4,5.27,5.7,10.67a11.91,11.91,0,0,1-3.78,7.4c-2.05,1.83-3.76,3.34-4.28,5.38-.29-3-2.12-4-4.16-6.37A10.8,10.8,0,0,1,142.16,29.47Z"/><path class="cls-17" d="M142.23,29.06c-.7,5.2,1.51,9.89,5.56,10.46s8.87-3.35,9.56-8.58-2-9.88-6.07-10.4S142.91,23.84,142.23,29.06Z"/><path class="cls-18" d="M147.61,28.42a8.1,8.1,0,0,0-1.46-.76,3.42,3.42,0,0,0-1.64-.32,3.74,3.74,0,0,1,1.73.06,7.64,7.64,0,0,1,1.66.59Z"/><path class="cls-18" d="M150.1,28.13a9,9,0,0,1,1.85.25,3.74,3.74,0,0,1,1.62.8,3.58,3.58,0,0,0-1.68-.54,8,8,0,0,0-1.76.05Z"/><polygon class="cls-19" points="150.15 29.16 151.97 29.34 150.16 29.52 150.15 29.16"/><path class="cls-19" d="M147.37,29.06l-1-.52a7.6,7.6,0,0,0-1-.43,7.46,7.46,0,0,1,1.06.26l1.08.35Z"/><path class="cls-20" d="M150,31.25a1.53,1.53,0,0,1-.56,1.52,2.1,2.1,0,0,1-1.64.41,1.68,1.68,0,0,1-1.4-1,1.57,1.57,0,0,1,.1-1.62,1.36,1.36,0,0,0-.11.77,1.81,1.81,0,0,0,.24.72,1.55,1.55,0,0,0,1.21.74,2.08,2.08,0,0,0,1.44-.26A1.59,1.59,0,0,0,150,31.25Z"/><path class="cls-19" d="M150,35.37c-.17.21-.38.4-.57.61a3.79,3.79,0,0,1-.72.45,2.14,2.14,0,0,1-1.75.09,2.75,2.75,0,0,1-1.28-1.15,3.81,3.81,0,0,1-.59-1.55,9.88,9.88,0,0,0,.91,1.31,3.12,3.12,0,0,0,1.17.9,2,2,0,0,0,1.41,0,7.22,7.22,0,0,0,.72-.29C149.52,35.64,149.75,35.49,150,35.37Z"/><path class="cls-21" d="M152.61,20.88a7,7,0,0,0-3.11-.35c-2.75.33-4.94,2.9-5.46,3.62a3,3,0,0,1,2.28.29c.11.08.23.17.35.24l1.43-2.29-.23,3c4,2,9.17-.88,9.53,2.63-.35-3.32-2.22-6.21-4.82-7.17"/><path class="cls-11" d="M191.43,24.72c.4-2,.6-8.14-4.11-8s-2.91,3.71-2.65,4.74a4.89,4.89,0,0,1-.41,3.44Z"/><path class="cls-12" d="M161.62,47.71a2,2,0,0,1,.06-1.31c.12-.21.23-.45.34-.65a5.56,5.56,0,0,1,.84-1,8.15,8.15,0,0,1,1.84-1.47c1.31-.79,2.58-1.65,3.82-2.52a86.72,86.72,0,0,0,7-5.53,41,41,0,0,0,5.57-6,15.93,15.93,0,0,0,1.8-3,6.9,6.9,0,0,1,.67-1.43,5.54,5.54,0,0,1,.57-.71,2.08,2.08,0,0,1,.51-.37l.4-.2a5.33,5.33,0,0,1,1.29-.23h3.35c1,.11,1.17.25,1.25.37l.38.39a2.43,2.43,0,0,1,.43.81,8,8,0,0,1,.21,1.62,8.74,8.74,0,0,1-.69,3.06,21.28,21.28,0,0,1-2.85,5.13,25.77,25.77,0,0,1-3.75,4,36,36,0,0,1-4.14,3.13,54.33,54.33,0,0,1-8.83,4.66c-1.5.66-3,1.25-4.54,1.82a7.36,7.36,0,0,1-2.41.55,4.76,4.76,0,0,1-1.41,0l-.73-.17c-.25-.06-.52-.21-1-.84Z"/><path class="cls-22" d="M181,15.87c-4.3,1.65-2.92,8.83.31,8.92,3.59.09,6.72-1,6.88-3.38S185.8,14,181,15.87Z"/></svg>