<svg xmlns="http://www.w3.org/2000/svg" viewBox="0 0 251 151"><defs><style>.cls-1{fill:#e84c59;}.cls-2{fill:#ee7b5c;}.cls-3{fill:#f9c862;}.cls-4{fill:#062633;}.cls-5{fill:#abaaaa;}.cls-6{fill:#e1dfe0;}.cls-7{fill:none;}.cls-8{fill:#041d26;}.cls-9{fill:#6e6e6e;}.cls-10{fill:silver;}.cls-11{fill:#5e3e21;}.cls-12{fill:#783a28;}.cls-13{fill:#54371d;}.cls-14{fill:#6d3325;}.cls-15{fill:#8f4729;}.cls-16{fill:#dcb680;}.cls-17{fill:#c69666;}.cls-18{fill:#662f1e;}.cls-19{fill:#231d13;}.cls-20{fill:#574c3e;}.cls-21{fill:#442c1a;}.cls-22{fill:#bdbbbb;}.cls-23{fill:#3a5056;}.cls-24{fill:#cc6f00;}.cls-25{fill:#002735;opacity:0.3;isolation:isolate;}</style></defs><title>Joonas_front</title><g id="Layer_2" data-name="Layer 2"><path class="cls-1" d="M163.3,66.4c3.4,2.7,9.6,8.2,11,12.8,2.3,7.2-1.4,17.4-3.5,21.6-.5-5.2-1.7-8.6-3.9-9.9-.7-.4.1,2.5-1.4,4.5a11.85,11.85,0,0,0-3.3-4.7c-1.4-1.5-3.7-4.5-4.1-7.1-1.4-8.1,2.5-15.2,3.1-16.9Z"/><path class="cls-2" d="M163.3,66.4c1.6,1,6.2,5.8,6.9,9.2S168,86,167.7,90.4c-1.6-2.9-1.8-4.3-3.9-6.1s-2.3-2.2-3-3.5-.8-5.6-.3-9.4a17.86,17.86,0,0,1,.9-4.6Z"/><path class="cls-3" d="M163.3,66.4c1.6,1.5,5.3,6.4,5,8.9s-1.8,3.2-2.6,7c-.9-.9-.8-3.8-2.2-4.5-.1,1,.1,1.6-.6,2.6-.1-1.5-1.2-2.6-1.8-4.3-.6-2-.1-4.2.1-6.1a17.1,17.1,0,0,0,0-3.2Z"/><path class="cls-4" d="M163,67.9c3.6-.9,6.3-2.4,6.1-3.4l.4,1.8c.2,1-2.5,2.5-6.1,3.4s-6.7.7-7-.3l-.4-1.8C156.3,68.6,159.4,68.8,163,67.9Z"/><path class="cls-4" d="M163.6,70.1c2.7-.6,4.8-1.9,4.6-2.6l.3,1.4c.2.8-1.9,1.9-4.6,2.6s-5.1.6-5.2-.2l-.3-1.4C158.5,70.6,160.8,70.7,163.6,70.1Z"/><path class="cls-5" d="M162,41.9a46.06,46.06,0,0,1,6.5,15.5c.9,3.7,1.6,6.5,1.6,6.5a30.92,30.92,0,0,1-7.1,3.4,34,34,0,0,1-7.8.3s-.8-2.7-1.7-6.5a44.67,44.67,0,0,1-1.1-16.7,21.36,21.36,0,0,0,5-.6A29.82,29.82,0,0,0,162,41.9Z"/><path class="cls-6" d="M155.3,36c.9-.2,3.7,1.5,6.6,5.9a19.78,19.78,0,0,1-4.8,1.8,20.74,20.74,0,0,1-5,.6C152.9,39.2,154.6,36.2,155.3,36Z"/><path class="cls-4" d="M162.4,65.4c4.2-1,7.3-2.8,7.1-3.9l.5,2.1c.3,1.2-2.9,2.9-7.1,3.9s-7.8.9-8.1-.3l-.5-2.1C154.6,66.2,158.2,66.4,162.4,65.4Z"/><path class="cls-7" d="M156.5,68.1a14.08,14.08,0,0,0,2,.1l.1.3A4.64,4.64,0,0,1,156.5,68.1Z"/><path class="cls-7" d="M158.7,70.3h.5v.2A1.69,1.69,0,0,0,158.7,70.3Z"/><path class="cls-8" d="M158.6,68.4l.6,1.8h-.5a.78.78,0,0,1-.4-.4l.1.4c-1-.1-1.8-.4-1.9-.8l-.3-1.4.3.1A3.73,3.73,0,0,0,158.6,68.4Z"/><path class="cls-8" d="M158.7,70.3c.2.1.4.1.6.2a5.78,5.78,0,0,0,.5,1.4c-.6-.1-1.1-.3-1.1-.6l-.2-1-.1-.4C158.4,70.1,158.5,70.2,158.7,70.3Z"/><path class="cls-9" d="M157.2,63.1c.2,1,.5,1.9.7,2.9-1.8.1-3.2-.2-3.6-.8-.3-1.1-.7-2.6-1.1-4.2a44.81,44.81,0,0,1-1.1-16.7,10.55,10.55,0,0,0,2.5-.2A87,87,0,0,0,157.2,63.1Z"/><path class="cls-10" d="M152.2,44.3c.7-5.1,2.3-8,3.1-8.2h.4a31,31,0,0,0-1,8.1C153.9,44.2,153,44.3,152.2,44.3Z"/><path class="cls-8" d="M157.9,66l.6,2.1a12.75,12.75,0,0,1-2-.1l-.3-.1a2.22,2.22,0,0,1-1.1-.5h0c-.1-.1-.2-.2-.2-.3l-.5-2.1v.2C154.7,65.8,156.1,66.1,157.9,66Z"/><path class="cls-1" d="M174.2,67.5c3.2,2.9,9.1,8.7,10.3,13.4,1.9,7.3-2.3,17.3-4.6,21.4-.2-5.2-1.2-8.6-3.3-10.1-.7-.5,0,2.5-1.7,4.4a12.6,12.6,0,0,0-3-4.8c-1.4-1.6-3.4-4.7-3.7-7.3-.9-8.1,3.3-15.1,4.1-16.7Z"/><path class="cls-2" d="M174.2,67.5c1.5,1.1,5.8,6.1,6.4,9.6s-2.7,10.3-3.3,14.7c-1.5-3-1.6-4.4-3.6-6.3a10.08,10.08,0,0,1-2.9-3.7c-.7-1.5-.5-5.7.2-9.4a20.09,20.09,0,0,1,1.1-4.6Z"/><path class="cls-3" d="M174.2,67.5c1.5,1.6,5,6.7,4.5,9.2s-1.9,3.1-3,6.9c-.9-1-.6-3.9-2-4.6-.2,1,0,1.6-.7,2.5,0-1.4-1-2.7-1.5-4.4-.5-2,.2-4.1.5-6.1a17.2,17.2,0,0,0,.2-3.2Z"/><path class="cls-4" d="M173.8,69c3.6-.6,6.4-2,6.3-3.1l.3,1.9c.2,1-2.6,2.4-6.3,3.1s-6.7.4-6.9-.7l-.3-1.9C167.1,69.3,170.2,69.6,173.8,69Z"/><path class="cls-4" d="M174.2,71.2c2.7-.5,4.8-1.5,4.7-2.3l.2,1.4c.1.8-2,1.8-4.7,2.3s-5,.3-5.2-.5l-.2-1.4C169.2,71.5,171.5,71.7,174.2,71.2Z"/><path class="cls-5" d="M174.2,43a46.64,46.64,0,0,1,5.6,15.8c.7,3.8,1.2,6.6,1.2,6.6a31.16,31.16,0,0,1-7.3,3,33.92,33.92,0,0,1-7.8-.1s-.6-2.7-1.3-6.6a44.67,44.67,0,0,1-.2-16.7,23.89,23.89,0,0,0,9.8-2Z"/><path class="cls-6" d="M167.9,36.8c.9-.2,3.6,1.7,6.3,6.2a20.86,20.86,0,0,1-9.8,1.8C165.3,39.8,167.1,36.9,167.9,36.8Z"/><path class="cls-4" d="M173.4,66.4c4.2-.7,7.5-2.3,7.3-3.6l.4,2.2c.2,1.2-3,2.8-7.3,3.6s-7.8.4-8-.8l-.4-2.2C165.5,66.9,169.1,67.2,173.4,66.4Z"/><path class="cls-7" d="M167.3,68.8a14.92,14.92,0,0,0,2.1.2.37.37,0,0,0,.1.3A5.09,5.09,0,0,1,167.3,68.8Z"/><path class="cls-7" d="M169.4,71.1h.5v.2A.76.76,0,0,1,169.4,71.1Z"/><path class="cls-8" d="M169.4,69.3a18,18,0,0,0,.5,1.9h-.5a.78.78,0,0,1-.4-.4l.1.4c-1-.2-1.8-.5-1.8-.9l-.3-1.4c.1,0,.2.1.3.1A7.61,7.61,0,0,0,169.4,69.3Z"/><path class="cls-8" d="M169.4,71.1a1.42,1.42,0,0,0,.6.2c.1.5.3,1,.4,1.4-.6-.1-1.1-.3-1.1-.6l-.2-1.4C169,70.9,169.2,71.1,169.4,71.1Z"/><path class="cls-9" d="M168.3,63.9a24.75,24.75,0,0,0,.6,2.9c-1.9,0-3.2-.4-3.5-1-.2-1.1-.5-2.6-.8-4.3a44.67,44.67,0,0,1-.2-16.7h2.5A81.61,81.61,0,0,0,168.3,63.9Z"/><path class="cls-10" d="M164.3,44.8c1-5.1,2.7-7.9,3.5-8.1h.4a31.24,31.24,0,0,0-1.4,8A6.92,6.92,0,0,1,164.3,44.8Z"/><path class="cls-8" d="M168.9,66.8a22.5,22.5,0,0,0,.5,2.2,14.92,14.92,0,0,1-2.1-.2.37.37,0,0,1-.3-.1,3.7,3.7,0,0,1-1.1-.5h0c-.1-.1-.1-.2-.2-.3l-.4-2.2v.2C165.7,66.5,167,66.8,168.9,66.8Z"/><path class="cls-11" d="M129.2,62.6c.5,1.7,1,5.7-3.2,6.2s-3.2-5.4-3.2-5.4Z"/><path class="cls-12" d="M148.1,45.5c0,.8-.1,1-.3,1.2l-.4.5a3,3,0,0,1-.8.8c-.3.2-.5.4-.8.6a3,3,0,0,1-.8.4,19.23,19.23,0,0,0-3.1,1.8,61.23,61.23,0,0,0-5.6,4.5,38,38,0,0,0-4.6,5.2,23.26,23.26,0,0,0-1.7,2.6c-.2.4-.3.8-.6,1s-.3.2-.5.3l-.5.1-.4.1a11.31,11.31,0,0,1-1.2.2l-3.2.6c-1,0-1.2-.1-1.3-.3a2.18,2.18,0,0,1-.4-.5,1.8,1.8,0,0,1-.4-.9,4.88,4.88,0,0,1-.1-1.7,7.73,7.73,0,0,1,.8-2.7,19.05,19.05,0,0,1,2.6-4.1,29,29,0,0,1,6.6-6,33.85,33.85,0,0,1,7.8-4,33.11,33.11,0,0,1,4.2-1.2,5.45,5.45,0,0,1,2.2-.1,2.66,2.66,0,0,1,1.2.3l.6.3c.2,0,.4.2.7,1Z"/><path class="cls-13" d="M155.4,70c-.3-.4-4.6,4.4-4.6,4.4a12.76,12.76,0,0,0,2.8.7c-.4.4-.8.9-1.2,1.3-2.2,2.8-2.8,6.1-1.3,7.3,1.1.8,2.9-1.9,4.8-4.5,1-1.3,2.1-2.5,2.8-3.4h0l1.3-1.6s-.1-1.1-3.1-1.8C156.4,72.3,155.8,70.4,155.4,70Z"/><path class="cls-14" d="M156.3,61c2.1,1,1.9,2.3,2.4,3.5a24.73,24.73,0,0,1,1.1,3.6c.3,1.2.5,2.5.8,3.7l.3,1.8c.1.3.1.6.2.9a1.45,1.45,0,0,1-.7,1l-10.9,1.2a1.18,1.18,0,0,1-.9-.9c0-.3-.1-.6-.1-.9l-.1-1.9a24.09,24.09,0,0,1,0-3.8,24.33,24.33,0,0,1,.3-3.8c.1-1.3-.2-2.5,1.7-3.9Z"/><path class="cls-11" d="M164.6,67.7c-.4-.3-2.8,5.7-2.8,5.7a12.65,12.65,0,0,0,2.8-.3,8.65,8.65,0,0,0-.7,1.7c-1.1,3.4-.5,6.7,1.3,7.2,1.3.4,2-2.8,3-5.9.5-1.6,1.1-3,1.4-4.2h0l.7-2s-.5-1-3.5-.6C166.2,69.5,165,68,164.6,67.7Z"/><path class="cls-12" d="M166.8,59.2c2.1,1,1.9,2.3,2.4,3.5a24.73,24.73,0,0,1,1.1,3.6c.3,1.2.5,2.5.8,3.7l.3,1.8c.1.3.1.6.2.9a1.45,1.45,0,0,1-.7,1L160,74.9a1.18,1.18,0,0,1-.9-.9c0-.3-.1-.6-.1-.9l-.1-1.9a24.09,24.09,0,0,1,0-3.8,24.33,24.33,0,0,1,.3-3.8c.1-1.3-.2-2.5,1.7-3.9Z"/><path class="cls-15" d="M141.5,32.4a14.1,14.1,0,1,0,14-14.2h0A14.15,14.15,0,0,0,141.5,32.4Z"/><path class="cls-15" d="M140.8,64.1l.5,4.1c.4,4,7.6,3.7,16.5,2.7,7.6-.9,16.6-1.6,16-7.2h0c-.7-14.9-6.2-26.8-19-25.3h0c-12.7,1.5-15.1,10.6-14.4,20.8v.2l.1.6A15,15,0,0,0,140.8,64.1Z"/><path class="cls-16" d="M147.3,51.6c1.5-.3,2.8-2.3,4.8-3.2,2.8-1.3,3.7-3.9,3.4-2.8s.6,1.8.7,1.6-.3.2.1-1.6,2.6-2.4,4.4-5.3a24.94,24.94,0,0,0,1.6-3.3,7.57,7.57,0,0,1,.1,1.5c3.9-10.1.6-16.4.1-16.8a3.07,3.07,0,0,1,1.5,1c-.9-3.4-3.1-3.9-3.4-4a2,2,0,0,1,1.7-.2c-.8-1.5-1.7-2.5-3.3-2.7a1.49,1.49,0,0,0-1.5.7,2.91,2.91,0,0,0-1.6-3.8h0c.8,3.4.4,2.8.3,2.9s-1.5-1.8-3.2-2.1a1.64,1.64,0,0,1,.7,1.1c-1.6-.9-3.3-2.1-6.9-.2a4.29,4.29,0,0,1,2.4,1,12.72,12.72,0,0,0-8.9,7.8c.3-.1,1.9-.9,2-.7-1.1.7-4.9,3.3-4.1,14.9.1-.6.7-1.9,1-1.8-.5,1,0,4.2,2.7,7.4C145.5,47,147.1,49.3,147.3,51.6Z"/><path class="cls-11" d="M142.2,29.5c.7-5.4,4.6-9.4,8.5-8.9s6.4,5.3,5.7,10.7a11.84,11.84,0,0,1-3.8,7.4c-2.1,1.8-3.8,3.3-4.3,5.4-.3-3-2.1-4.1-4.2-6.4A10.89,10.89,0,0,1,142.2,29.5Z"/><path class="cls-17" d="M142.3,29.1c-.7,5.2,1.5,9.9,5.6,10.5s8.9-3.4,9.6-8.6-2-9.9-6.1-10.4S142.9,23.8,142.3,29.1Z"/><path class="cls-18" d="M147.6,28.4a7.14,7.14,0,0,0-1.5-.8,4.53,4.53,0,0,0-1.6-.3,3.22,3.22,0,0,1,1.7.1,5.78,5.78,0,0,1,1.7.6Z"/><path class="cls-18" d="M150.1,28.1a13.66,13.66,0,0,1,1.9.2,3,3,0,0,1,1.6.8,3.37,3.37,0,0,0-1.7-.5h-1.8Z"/><polygon class="cls-19" points="150.2 29.2 152 29.3 150.2 29.5 150.2 29.2"/><path class="cls-19" d="M147.4,29.1l-1-.5a4.18,4.18,0,0,0-1-.4,4.51,4.51,0,0,1,1.1.3l1.1.3Z"/><path class="cls-20" d="M150,31.2a1.43,1.43,0,0,1-.6,1.5,2,2,0,0,1-1.6.4,1.61,1.61,0,0,1-1.4-1,1.54,1.54,0,0,1,.1-1.6,2,2,0,0,0-.1.8,1.45,1.45,0,0,0,.2.7,1.52,1.52,0,0,0,1.2.7,1.74,1.74,0,0,0,1.4-.3A1.13,1.13,0,0,0,150,31.2Z"/><path class="cls-19" d="M150,35.4l-.6.6c-.2.2-.5.3-.7.5a2.24,2.24,0,0,1-1.8.1,2.76,2.76,0,0,1-1.3-1.1,4.42,4.42,0,0,1-.6-1.6,14.63,14.63,0,0,0,.9,1.3,2.73,2.73,0,0,0,1.2.9,1.71,1.71,0,0,0,1.4,0c.2-.1.5-.2.7-.3Z"/><path class="cls-21" d="M152.6,20.9a6.59,6.59,0,0,0-3.1-.3c-2.7.3-4.9,2.9-5.5,3.6a3.06,3.06,0,0,1,2.3.3.52.52,0,0,0,.4.2l1.4-2.3-.2,3c4,2,9.2-.9,9.5,2.6-.3-3.3-2.2-6.2-4.8-7.1"/><path class="cls-11" d="M191.5,24.7c.4-2,.6-8.1-4.1-8s-2.9,3.7-2.6,4.7a4.93,4.93,0,0,1-.4,3.4Z"/><path class="cls-12" d="M161.7,47.7a2,2,0,0,1,.1-1.3l.3-.6a3.92,3.92,0,0,1,.8-1,8.45,8.45,0,0,1,1.8-1.5c1.3-.8,2.6-1.7,3.8-2.5,2.4-1.7,4.8-3.6,7-5.5a39.82,39.82,0,0,0,5.6-6,18.34,18.34,0,0,0,1.8-3,6.11,6.11,0,0,1,.7-1.4,4.35,4.35,0,0,1,.6-.7,2.18,2.18,0,0,1,.5-.4l.4-.2a11.14,11.14,0,0,1,1.3-.2h3.4c1,.1,1.2.3,1.3.4l.4.4a2,2,0,0,1,.4.8,8.75,8.75,0,0,1,.2,1.6,8.24,8.24,0,0,1-.7,3.1,19.79,19.79,0,0,1-2.9,5.1,28.3,28.3,0,0,1-3.7,4,40.1,40.1,0,0,1-4.1,3.1,62.08,62.08,0,0,1-8.8,4.7c-1.5.7-3,1.2-4.5,1.8a6.87,6.87,0,0,1-2.4.5,3.3,3.3,0,0,1-1.4,0,1.85,1.85,0,0,1-.7-.2,2.35,2.35,0,0,1-1.2-1Z"/><path class="cls-22" d="M175.6,13.2c-7.2,2.8-4.9,14.8.5,15,6,.1,11.3-1.7,11.6-5.7S183.6,10.1,175.6,13.2Z"/><path class="cls-23" d="M174.9,15.4c-.6.2-1.4.2-1.1,1.8s1.2,1.7,1.8,1.7c1-.1,1.1-.8,1.4-1.4s.5-1.3,0-1.8A3,3,0,0,0,174.9,15.4Z"/><path class="cls-23" d="M175,22.6c-.2-.1-.5-.3-.8.3a.85.85,0,0,0,0,1c.3.2.7,0,.9-.1s.5-.3.4-.5A.94.94,0,0,0,175,22.6Z"/><path class="cls-23" d="M179.7,15.4c-.6.2-1,.4-1.1,1.8-.1,1.7,1.8,1.9,2.1,1.8a1.93,1.93,0,0,0,1.3-1.2,1.76,1.76,0,0,0-.5-1.9A2.9,2.9,0,0,0,179.7,15.4Z"/><path class="cls-23" d="M181.8,22.4c-.3.1-.4.2-.4.7s.7.7.9.7a.62.62,0,0,0,.3-1.1A.71.71,0,0,0,181.8,22.4Z"/><path class="cls-23" d="M180.4,23.3c-.3.1-.5.2-.6.9a.89.89,0,0,0,1.1.9,1.34,1.34,0,0,0,.7-.6c.2-.3,0-.7-.2-1C181.1,23.4,180.6,23.2,180.4,23.3Z"/><path class="cls-23" d="M178.1,23.8c-.4.1-.7.3-.7,1.1a1.12,1.12,0,0,0,1.4,1.1,1.1,1.1,0,0,0,.5-1.9A1.8,1.8,0,0,0,178.1,23.8Z"/><path class="cls-23" d="M176.6,23.5c-.4-.2-.6-.2-1.1.4-.7.7.1,1.5.3,1.6a1.17,1.17,0,0,0,1,0c.3-.1.5-.6.5-1A1.53,1.53,0,0,0,176.6,23.5Z"/><path class="cls-23" d="M182.5,21.3c-.2.1-.3.1-.3.5s.5.5.6.5a.32.32,0,0,0,.3-.3c.1-.1,0-.4-.1-.5S182.6,21.2,182.5,21.3Z"/><path class="cls-23" d="M173.7,21.5c-.2.1-.3.1-.3.5s.5.5.6.5.3-.2.4-.3,0-.4-.1-.5S173.8,21.4,173.7,21.5Z"/><path class="cls-24" d="M177.7,19.1c-1.1-.3-4.1.7-5.2.9s-4.4.3-4.2.4a10.66,10.66,0,0,0,5.6,1c1.8-.2,3.1.2,4-.1C178.8,21.2,178.8,19.4,177.7,19.1Z"/><path class="cls-25" d="M187.6,22.5c-.3,4-5.5,5.8-11.5,5.7-2.8-.1-4.7-3.3-5-6.7a7.51,7.51,0,0,1-2.8-.9,20.68,20.68,0,0,1,2.8-.2c.1-3,1.4-5.9,4.5-7.1C183.6,10.1,187.9,18.5,187.6,22.5Z"/></g></svg>