<svg id="Layer_3" data-name="Layer 3" xmlns="http://www.w3.org/2000/svg" viewBox="0 0 251 151"><defs><style>.cls-1{fill:#5e3e21;}.cls-2{fill:#54371d;}.cls-3{fill:#6d3325;}.cls-4{fill:#783a28;}.cls-5{fill:#8f4729;}.cls-6{fill:#dcb680;}.cls-7{fill:#e84c59;}.cls-8{fill:#ee7b5c;}.cls-9{fill:#f9c862;}.cls-10{fill:#062633;}.cls-11{fill:#9f9f9f;}.cls-12{fill:#d3d2d2;}.cls-13{fill:none;}.cls-14{fill:#041d26;}.cls-15{fill:#6e6e6e;}.cls-16{fill:silver;}.cls-17{fill:#abaaaa;}.cls-18{fill:#e1dfe0;}</style></defs><title>Kadi</title><path class="cls-1" d="M73.58,85.55c-2.94-.12-3.32.88-3.32.88L71,88.28h0c.41,1.09,1.14,2.46,1.71,3.93,1.14,2.91,2.11,5.94,3.32,5.44,1.7-.71,2-3.89.68-7.09A12.48,12.48,0,0,0,76,89c.85-.31,1.16-.87,1.76-1.91,0,0-1.76-3.65-2.16-3.35S74.1,85.6,73.58,85.55Z"/><path class="cls-2" d="M86.12,89.33c-2.9.48-3.06,1.54-3.06,1.54l1.12,1.65h0c.62,1,1.61,2.19,2.47,3.52,1.7,2.61,3.26,5.38,4.34,4.65,1.53-1,1.19-4.21-.76-7.09a15.46,15.46,0,0,0-1.07-1.35,12.67,12.67,0,0,0,2.72-.51S88,86.8,87.7,87.18,86.64,89.27,86.12,89.33Z"/><path class="cls-3" d="M81.89,76.34a3.58,3.58,0,0,1,1.18,2.22c0,.63,0,1.24,0,1.86-.07,1.24-.15,2.47-.32,3.68s-.36,2.4-.61,3.58l-.38,1.75a4.27,4.27,0,0,1-.22.87,1.41,1.41,0,0,1-1.08.64L69.15,87.75a1.46,1.46,0,0,1-.58-1.11,4.54,4.54,0,0,1,.28-.86l.62-1.71c.41-1.13.86-2.26,1.37-3.37s1.08-2.2,1.67-3.28a18.5,18.5,0,0,1,1-1.61,3.64,3.64,0,0,1,2.13-1.26Z"/><path class="cls-4" d="M92.76,78.21a3.6,3.6,0,0,1,1.45,2c.1.62.13,1.23.2,1.85.09,1.24.17,2.47.16,3.69s0,2.43-.14,3.63l-.15,1.81a3.94,3.94,0,0,1-.1.9,1.41,1.41,0,0,1-1,.77L81.64,91.18a1.5,1.5,0,0,1-.73-1,6.63,6.63,0,0,1,.16-.89l.4-1.77c.27-1.18.56-2.36.92-3.53s.78-2.32,1.23-3.47c.26-.57.46-1.15.74-1.72a3.65,3.65,0,0,1,2-1.53Z"/><path class="cls-1" d="M113.43,71c3.06-1.09,5.49-2.51,7-2.2s2,1.56.63,3-2.42,4-3.3,4.17c-1.15.27-3.37.74-4,.06s-1.82-4.67-1.82-4.67Z"/><path class="cls-5" d="M99.14,76l.09-.56a.61.61,0,0,0,0-.19c1-9.79-.87-18.79-13.06-20.79h0c-12.31-2-18.19,9.3-19.53,23.69h0c-.87,5.43,7.79,6.47,15.15,7.68,8.54,1.4,15.45,2,16-1.84l.65-4A37.61,37.61,0,0,0,99.14,76Z"/><path class="cls-5" d="M100.48,45.63a13.64,13.64,0,1,1-17.6-7.9A13.63,13.63,0,0,1,100.48,45.63Z"/><path class="cls-6" d="M91.64,62.09c0,.58-.07.82.07,1-.44-.34-.46-1-.54-2.78a17.72,17.72,0,0,1,.4-3.91c2.29-10.73,2.77-12.49,3.07-12.8-.1,0-.26-.27-.63.21A22.21,22.21,0,0,1,96.07,38c-.19-.18-.48,0-.67,0,.67-1.23,1-1.58,1.66-1.75a1.32,1.32,0,0,1,.76.13c0-.71,1.81-2.44,2.78-2.87-1.18,3-.86,2.51-.84,2.64s1-1.36,1.6-1.29a2.14,2.14,0,0,0-.51.84c.75-.48,1.77,0,2.33,1.46-.47-.22-.8.22-1,.36.13.22,4.83-2-1.92,23.33a5.18,5.18,0,0,0-.11-2c-.08,1,.39,3.14-1.48,5.46a8,8,0,0,1-2.59,1.81c.41-.57.6-.74.56-.92s-1.39,1.07-2.79,1a7.39,7.39,0,0,0,1-1.37c-.12.28-1.21.45-1.42.54A4.9,4.9,0,0,1,91.64,62.09Z"/><path class="cls-4" d="M88.76,65.18c.53-.63.8-.78,1-.84s.43-.14.64-.19a3.78,3.78,0,0,1,1.11-.08,6.51,6.51,0,0,1,1,.11,4.35,4.35,0,0,1,.88.3c.55.24,1.12.46,1.68.66s1.13.42,1.68.6a55.54,55.54,0,0,0,6.56,1.84,43.82,43.82,0,0,0,6.23.86l.77.07h.75a12.68,12.68,0,0,0,1.51,0A3.59,3.59,0,0,1,115,69a1.45,1.45,0,0,1,.48.44l.27.37a.64.64,0,0,1,.16.29v.17l.06.21a.52.52,0,0,0,.08.27l.09.33.65,3.44v1a.54.54,0,0,1-.07.33l-.18.44a1.62,1.62,0,0,1-.44.57,4.69,4.69,0,0,1-1,.63,6.1,6.1,0,0,1-2.12.41c-.72.08-1.44.07-2.16.08h-1.08l-1.08-.08a26.27,26.27,0,0,1-8-2.12,39.8,39.8,0,0,1-7-4c-1.07-.73-2.08-1.52-3.1-2.25a4.22,4.22,0,0,1-.73-.61,7.9,7.9,0,0,1-.61-.79,4,4,0,0,1-.49-1c-.06-.2-.1-.43-.16-.64a2.29,2.29,0,0,1,.2-1.29Z"/><path class="cls-7" d="M65.35,85.68C62,88.12,55.77,93.16,54.13,97.57c-2.54,6.83.57,16.93,2.42,21.07.67-5,2-8.21,4.17-9.4.68-.38-.21,2.41,1.18,4.45a12.18,12.18,0,0,1,3.39-4.37c1.47-1.38,3.77-4.23,4.3-6.65,1.69-7.76-1.72-14.87-2.32-16.48Z"/><path class="cls-8" d="M65.35,85.68c-1.56.94-6.21,5.36-7.1,8.64S59.91,104.5,60,108.78c1.72-2.73,1.92-4.07,4.08-5.69s2.34-2,3.11-3.33,1-5.42.73-9a18.66,18.66,0,0,0-.63-4.52Z"/><path class="cls-9" d="M65.35,85.68c-1.6,1.4-5.42,6-5.22,8.39s1.57,3.15,2.21,6.94c.94-.88,1-3.67,2.37-4.22a4.66,4.66,0,0,0,.4,2.5c.18-1.4,1.26-2.46,1.87-4.1.71-1.9.24-4,.13-5.9a12.86,12.86,0,0,1,.16-3.1Z"/><path class="cls-10" d="M65.55,87.1c-3.45-1-6-2.58-5.74-3.55l-.51,1.76c-.28,1,2.29,2.56,5.74,3.55s6.47,1,6.75,0l.5-1.76C72,88.11,69,88.1,65.55,87.1Z"/><path class="cls-10" d="M64.94,89.22c-2.6-.74-4.53-1.94-4.32-2.67l-.38,1.32C60,88.6,62,89.8,64.56,90.55s4.87.76,5.08,0L70,89.22C69.81,90,67.53,90,64.94,89.22Z"/><path class="cls-11" d="M67.64,62a45.25,45.25,0,0,0-6.91,14.68c-1,3.57-1.78,6.21-1.78,6.21a30,30,0,0,0,6.74,3.56,31.45,31.45,0,0,0,7.56.62s.87-2.57,1.92-6.24A44.53,44.53,0,0,0,77,64.76,21,21,0,0,1,67.64,62Z"/><path class="cls-12" d="M74.35,56.64c-.82-.24-3.61,1.31-6.68,5.4A20.87,20.87,0,0,0,77,64.76C76.56,59.79,75.13,56.86,74.35,56.64Z"/><path class="cls-10" d="M66.23,84.72c-4-1.16-7-3-6.65-4.13l-.59,2c-.35,1.17,2.65,3,6.65,4.17s7.5,1.17,7.83,0l.59-2C73.74,85.88,70.23,85.87,66.23,84.72Z"/><path class="cls-13" d="M71.88,87.59a11.13,11.13,0,0,1-2,0l-.09.27A4.63,4.63,0,0,0,71.88,87.59Z"/><path class="cls-13" d="M69.64,89.62h-.51l-.06.15A2.65,2.65,0,0,0,69.64,89.62Z"/><path class="cls-14" d="M69.76,87.85l-.62,1.76h.5a.65.65,0,0,0,.42-.37l-.1.37c1,0,1.73-.27,1.87-.72l.39-1.35h-.33A4.83,4.83,0,0,1,69.76,87.85Z"/><path class="cls-14" d="M69.64,89.62a2.16,2.16,0,0,1-.57.14l-.51,1.34c.62-.06,1-.23,1.11-.52l.28-1,.1-.37A.6.6,0,0,1,69.64,89.62Z"/><path class="cls-15" d="M71.38,82.76c-.27.94-.56,1.87-.84,2.78,1.78.16,3.08,0,3.48-.6.33-1.06.75-2.46,1.22-4.07A44.77,44.77,0,0,0,77,64.76a17.47,17.47,0,0,1-2.39-.26A80.36,80.36,0,0,1,71.38,82.76Z"/><path class="cls-16" d="M77,64.76c-.44-5-1.86-7.89-2.64-8.12a.9.9,0,0,0-.4,0,27.35,27.35,0,0,1,.66,7.86A17.49,17.49,0,0,0,77,64.76Z"/><path class="cls-14" d="M70.53,85.54c-.22.69-.45,1.37-.68,2a11.13,11.13,0,0,0,2,0h.33a2.26,2.26,0,0,0,1.09-.43h0a.55.55,0,0,0,.2-.3l.59-2A.76.76,0,0,1,74,85C73.64,85.5,72.31,85.7,70.53,85.54Z"/><path class="cls-7" d="M70.14,88.26c-3.33,2.52-9.42,7.71-11,12.15-2.38,6.89,1,16.91,2.91,21,.56-5,1.82-8.25,3.94-9.49.68-.4-.14,2.41,1.29,4.42a12.12,12.12,0,0,1,3.36-4.44c1.44-1.42,3.67-4.31,4.14-6.75,1.51-7.79-2.06-14.82-2.7-16.42Z"/><path class="cls-8" d="M70.14,88.26c-1.55,1-6.09,5.51-6.9,8.8s1.89,10.15,2.06,14.42c1.66-2.77,1.82-4.11,3.94-5.78s2.29-2,3-3.4.9-5.45.52-9.07a18.65,18.65,0,0,0-.74-4.5Z"/><path class="cls-9" d="M70.14,88.26c-1.58,1.44-5.29,6.09-5,8.52s1.66,3.11,2.38,6.88c.92-.9.9-3.69,2.27-4.28a4.65,4.65,0,0,0,.46,2.49c.14-1.4,1.2-2.48,1.77-4.13.67-1.93.15-4,0-5.91a13.41,13.41,0,0,1,.09-3.1Z"/><path class="cls-10" d="M70.36,89.68c-3.47-.91-6.07-2.44-5.82-3.42L64.08,88c-.25,1,2.35,2.51,5.82,3.43s6.49.85,6.74-.13l.47-1.77C76.85,90.54,73.83,90.6,70.36,89.68Z"/><path class="cls-10" d="M69.81,91.82c-2.62-.69-4.57-1.84-4.39-2.58l-.34,1.33c-.19.74,1.77,1.89,4.38,2.58s4.89.65,5.08-.09l.35-1.33C74.69,92.43,72.41,92.5,69.81,91.82Z"/><path class="cls-17" d="M71.9,64.58a45.48,45.48,0,0,0-6.56,14.85c-1,3.59-1.64,6.25-1.64,6.25a29.44,29.44,0,0,0,6.83,3.4,30.94,30.94,0,0,0,7.57.45s.8-2.59,1.76-6.29A44,44,0,0,0,81.28,67.1a20.24,20.24,0,0,1-4.76-.67A19.84,19.84,0,0,1,71.9,64.58Z"/><path class="cls-18" d="M78.45,59c-.82-.21-3.57,1.4-6.55,5.56a19.84,19.84,0,0,0,4.62,1.85,20.25,20.25,0,0,0,4.76.68C80.72,62.12,79.24,59.23,78.45,59Z"/><path class="cls-10" d="M71,87.28c-4-1.06-7-2.83-6.75-4l-.54,2.06c-.3,1.13,2.73,2.91,6.75,4s7.53,1,7.83-.15l.54-2C78.52,88.27,75,88.34,71,87.28Z"/><path class="cls-13" d="M76.7,90a11.13,11.13,0,0,1-2,0l-.06.3A4.79,4.79,0,0,0,76.7,90Z"/><path class="cls-13" d="M74.51,92.11H74v.16A2.76,2.76,0,0,0,74.51,92.11Z"/><path class="cls-14" d="M74.64,90.33c-.19.6-.39,1.19-.58,1.77h.51a.65.65,0,0,0,.4-.38l-.09.36c1,0,1.74-.31,1.86-.75L77.09,90l-.33.06A5,5,0,0,1,74.64,90.33Z"/><path class="cls-14" d="M74.51,92.11a2.64,2.64,0,0,1-.55.15l-.49,1.35c.61-.07,1-.26,1.09-.55l.26-1,.09-.36A.59.59,0,0,1,74.51,92.11Z"/><path class="cls-15" d="M76.09,85.2c-.25,1-.51,1.89-.78,2.81,1.78.11,3.09-.12,3.46-.68.31-1.07.7-2.48,1.12-4.1a44.23,44.23,0,0,0,1.43-16.15,18.24,18.24,0,0,1-2.44-.2A79.47,79.47,0,0,1,76.09,85.2Z"/><path class="cls-16" d="M81.32,67.08c-.56-5-2-7.85-2.83-8a.9.9,0,0,0-.4,0,27.69,27.69,0,0,1,.79,7.85A20,20,0,0,0,81.32,67.08Z"/><path class="cls-14" d="M75.31,88c-.21.69-.42,1.38-.63,2a11.13,11.13,0,0,0,2,0L77,90a2.19,2.19,0,0,0,1.09-.45h0a.77.77,0,0,0,.19-.3l.54-2.06a.64.64,0,0,1-.08.19C78.4,87.89,77.09,88.12,75.31,88Z"/></svg>