<?xml version="1.0" encoding="utf-8"?>
<!-- Generator: Adobe Illustrator 22.1.0, SVG Export Plug-In . SVG Version: 6.00 Build 0)  -->
<svg version="1.1" id="Layer_3" xmlns="http://www.w3.org/2000/svg" xmlns:xlink="http://www.w3.org/1999/xlink" x="0px" y="0px"
	 viewBox="0 0 251 151" style="enable-background:new 0 0 251 151;" xml:space="preserve">
<style type="text/css">
	.st0{fill:#5E3E21;}
	.st1{fill:#54371D;}
	.st2{fill:#6D3325;}
	.st3{fill:#783A28;}
	.st4{fill:#8F4729;}
	.st5{fill:#DCB680;}
	.st6{fill:#E84C59;}
	.st7{fill:#EE7B5C;}
	.st8{fill:#F9C862;}
	.st9{fill:#062633;}
	.st10{fill:#9F9F9F;}
	.st11{fill:#D3D2D2;}
	.st12{fill:none;}
	.st13{fill:#041D26;}
	.st14{fill:#6E6E6E;}
	.st15{fill:#C0C0C0;}
	.st16{fill:#ABAAAA;}
	.st17{fill:#E1DFE0;}
	.st18{opacity:0.1;}
	.st19{fill:#111212;}
	.st20{fill:#FDFDF4;}
	.st21{fill:#272022;}
	.st22{fill:#EFEDE8;}
	.st23{fill:#F3CEE3;}
	.st24{fill:#FBFBF5;}
	.st25{fill:#F0EDE9;}
	.st26{fill:#E694C1;}
	.st27{fill:#FAFAF5;}
	.st28{fill:#ECB7D6;}
	.st29{fill:#965F6C;}
	.st30{fill:#4C4C49;}
	.st31{fill:#B7B8B5;}
	.st32{fill:#898883;}
	.st33{fill:#0F100F;}
	.st34{fill:#121413;}
	.st35{fill:#121313;}
	.st36{fill:#080807;}
	.st37{fill:#282826;}
	.st38{fill:#593840;}
	.st39{fill:#794B55;}
	.st40{fill:#ECEDEC;}
	.st41{fill:#E3E3E3;}
	.st42{fill:#6B6C6E;}
	.st43{fill:#D3D5D4;}
	.st44{fill:#757676;}
	.st45{fill:#945866;}
</style>
<title>Kadi</title>
<path class="st0" d="M61.9,92.2c-3.9-0.2-4.4,1.2-4.4,1.2l1,2.4l0,0C59,97.2,60,99,60.7,101c1.5,3.8,2.8,7.8,4.4,7.1
	c2.2-0.9,2.6-5.1,0.9-9.3c-0.3-0.7-0.6-1.4-0.9-2c1.1-0.4,1.5-1.1,2.3-2.5c0,0-2.3-4.8-2.8-4.4C64.1,90.2,62.6,92.3,61.9,92.2z"/>
<path class="st1" d="M78.4,97.2c-3.8,0.6-4,2-4,2l1.5,2.2l0,0c0.8,1.3,2.1,2.9,3.2,4.6c2.2,3.4,4.3,7.1,5.7,6.1c2-1.3,1.6-5.5-1-9.3
	c-0.4-0.6-0.9-1.2-1.4-1.8c1.2-0.1,2.4-0.3,3.6-0.7c0,0-5.1-6.5-5.5-6C80.1,94.8,79.1,97.1,78.4,97.2z"/>
<path class="st2" d="M72.8,80.1c0.9,0.8,1.4,1.8,1.5,2.9c0,0.8,0,1.6,0,2.4c-0.1,1.6-0.2,3.2-0.4,4.8c-0.2,1.6-0.5,3.1-0.8,4.7
	l-0.5,2.3c-0.1,0.4-0.2,0.8-0.3,1.1c-0.3,0.5-0.8,0.8-1.4,0.8l-14.8-4.2c-0.5-0.3-0.7-0.9-0.8-1.5c0.1-0.4,0.2-0.8,0.4-1.1l0.8-2.2
	c0.5-1.5,1.1-3,1.8-4.4s1.4-2.9,2.2-4.3c0.4-0.7,0.8-1.4,1.3-2.1c0.7-0.9,1.7-1.4,2.8-1.7L72.8,80.1z"/>
<path class="st3" d="M87.1,82.6c0.9,0.6,1.6,1.6,1.9,2.6c0.1,0.8,0.2,1.6,0.3,2.4c0.1,1.6,0.2,3.2,0.2,4.8s0,3.2-0.2,4.8l-0.2,2.4
	c0,0.4,0,0.8-0.1,1.2c-0.3,0.5-0.7,0.9-1.3,1l-15.1-2.2c-0.5-0.3-0.8-0.8-1-1.3c0-0.4,0.1-0.8,0.2-1.2l0.5-2.3
	c0.4-1.5,0.7-3.1,1.2-4.6s1-3,1.6-4.5c0.3-0.7,0.6-1.5,1-2.3c0.6-1,1.5-1.7,2.6-2L87.1,82.6z"/>
<path class="st0" d="M114.2,73.1c4-1.4,7.2-3.3,9.2-2.9s2.6,2,0.8,3.9c-1.8,1.9-3.2,5.2-4.3,5.5c-1.5,0.4-4.4,1-5.2,0.1
	c-0.8-0.9-2.4-6.1-2.4-6.1L114.2,73.1z"/>
<path class="st4" d="M95.4,79.7l0.1-0.7c0-0.1,0-0.2,0-0.2c1.3-12.8-1.1-24.6-17.1-27.2l0,0c-16.1-2.6-23.8,12.2-25.6,31l0,0
	c-1.1,7.1,10.2,8.5,19.9,10.1c11.2,1.8,20.2,2.6,21-2.4l0.9-5.2C94.9,83.2,95.2,81.4,95.4,79.7z"/>
<path class="st4" d="M97.2,39.9c3.5,9.2-1.1,19.6-10.4,23.1c-9.2,3.5-19.6-1.1-23.1-10.4c-3.5-9.2,1.1-19.6,10.4-23.1
	C83.3,26,93.7,30.6,97.2,39.9L97.2,39.9z"/>
<path class="st5" d="M85.6,61.5c0,0.8-0.1,1.1,0.1,1.3c-0.6-0.4-0.6-1.3-0.7-3.6c0-1.7,0.2-3.4,0.5-5.1c3-14.1,3.6-16.4,4-16.8
	c-0.1,0-0.3-0.4-0.8,0.3c0.5-2.7,1.5-5.2,2.7-7.6c-0.2-0.2-0.6,0-0.9,0c0.9-1.6,1.3-2.1,2.2-2.3c0.3,0,0.7,0,1,0.2
	c0-0.9,2.4-3.2,3.6-3.8c-1.5,3.9-1.1,3.3-1.1,3.5s1.3-1.8,2.1-1.7c-0.3,0.3-0.5,0.7-0.7,1.1c1-0.6,2.3,0,3.1,1.9
	c-0.6-0.3-1,0.3-1.3,0.5c0.2,0.3,6.3-2.6-2.5,30.6c0.1-0.9,0.1-1.8-0.1-2.6c-0.1,1.3,0.5,4.1-1.9,7.2c-1,1-2.1,1.8-3.4,2.4
	c0.5-0.7,0.8-1,0.7-1.2c-0.1-0.2-1.8,1.4-3.7,1.3c0.5-0.5,0.9-1.1,1.3-1.8c-0.2,0.4-1.6,0.6-1.9,0.7C86.6,64.7,85.8,63.1,85.6,61.5z
	"/>
<path class="st3" d="M81.8,65.5c0.7-0.8,1-1,1.3-1.1s0.6-0.2,0.8-0.2c0.5-0.1,1-0.1,1.5-0.1c0.4,0,0.9,0.1,1.3,0.1
	c0.4,0.1,0.8,0.2,1.2,0.4c0.7,0.3,1.5,0.6,2.2,0.9s1.5,0.6,2.2,0.8c2.8,1,5.7,1.8,8.6,2.4c2.7,0.6,5.4,0.9,8.2,1.1l1,0.1h1
	c0.7,0,1.3,0,2,0c1.1-0.2,2.2,0.1,3.2,0.6c0.3,0.1,0.5,0.3,0.6,0.6l0.4,0.5c0.1,0.1,0.2,0.2,0.2,0.4v0.2l0.1,0.3
	c0,0.1,0,0.2,0.1,0.4l0.1,0.4l0.9,4.5v1.3c0,0.2,0,0.3-0.1,0.4l-0.2,0.6c-0.1,0.3-0.3,0.5-0.6,0.7c-0.4,0.3-0.8,0.6-1.3,0.8
	c-0.9,0.3-1.8,0.5-2.8,0.5c-0.9,0.1-1.9,0.1-2.8,0.1h-1.4l-1.4-0.1c-3.6-0.4-7.2-1.3-10.5-2.8c-3.2-1.4-6.3-3.2-9.2-5.2
	c-1.4-1-2.7-2-4.1-2.9c-0.3-0.2-0.7-0.5-1-0.8s-0.6-0.7-0.8-1c-0.3-0.4-0.5-0.8-0.6-1.3c-0.1-0.3-0.1-0.6-0.2-0.8
	C81.5,66.6,81.6,66.1,81.8,65.5L81.8,65.5z"/>
<path class="st6" d="M51.2,92.4c-4.4,3.2-12.6,9.8-14.7,15.6c-3.3,9,0.7,22.2,3.2,27.6c0.9-6.6,2.6-10.8,5.5-12.3
	c0.9-0.5-0.3,3.2,1.5,5.8c1-2.2,2.5-4.2,4.4-5.7c1.9-1.8,4.9-5.5,5.6-8.7c2.2-10.2-2.3-19.5-3-21.6L51.2,92.4z"/>
<path class="st7" d="M51.2,92.4c-2,1.2-8.1,7-9.3,11.3c-1.2,4.3,2.2,13.3,2.3,19c2.3-3.6,2.5-5.3,5.3-7.5c2.8-2.1,3.1-2.6,4.1-4.4
	c1-1.7,1.3-7.1,1-11.8c0-2-0.3-4-0.8-5.9L51.2,92.4z"/>
<path class="st8" d="M51.2,92.4c-2.1,1.8-7.1,7.9-6.8,11s2.1,4.1,2.9,9.1c1.2-1.2,1.3-4.8,3.1-5.5c-0.1,1.1,0.1,2.3,0.5,3.3
	c0.2-1.8,1.7-3.2,2.5-5.4c0.9-2.5,0.3-5.2,0.2-7.7c-0.1-1.4,0-2.7,0.2-4.1L51.2,92.4z"/>
<path class="st9" d="M51.4,94.2c-4.5-1.3-7.9-3.4-7.5-4.7l-0.7,2.3c-0.4,1.3,3,3.4,7.5,4.7c4.5,1.3,8.5,1.3,8.8,0l0.7-2.3
	C59.9,95.6,55.9,95.5,51.4,94.2z"/>
<path class="st9" d="M50.6,97c-3.4-1-5.9-2.5-5.7-3.5l-0.5,1.7c-0.3,1,2.3,2.5,5.7,3.5s6.4,1,6.7,0l0.5-1.7C57,98,54,98,50.6,97z"/>
<path class="st10" d="M54.2,61.3C50,67.1,47,73.6,45.1,80.5c-1.3,4.7-2.3,8.1-2.3,8.1c2.7,1.9,5.7,3.5,8.8,4.7
	c3.3,0.7,6.6,0.9,9.9,0.8c0,0,1.1-3.4,2.5-8.2c2.1-6.8,2.9-14,2.4-21.1C62.1,64.7,57.9,63.5,54.2,61.3z"/>
<path class="st11" d="M63,54.3c-1.1-0.3-4.7,1.7-8.8,7.1c3.7,2.1,7.9,3.4,12.2,3.6C65.8,58.4,64,54.6,63,54.3z"/>
<path class="st9" d="M52.3,91.1c-5.2-1.5-9.2-3.9-8.7-5.4l-0.8,2.6c-0.5,1.5,3.5,3.9,8.7,5.5s9.8,1.5,10.3,0l0.8-2.6
	C62.2,92.6,57.6,92.6,52.3,91.1z"/>
<path class="st12" d="M59.7,94.9c-0.9,0.1-1.7,0.1-2.6,0L57,95.2C57.9,95.3,58.8,95.2,59.7,94.9z"/>
<path class="st12" d="M56.8,97.5h-0.7L56,97.7C56.3,97.7,56.5,97.6,56.8,97.5z"/>
<path class="st13" d="M56.9,95.2l-0.8,2.3h0.7c0.2-0.1,0.4-0.2,0.6-0.5l-0.1,0.5c1.3,0,2.3-0.4,2.5-0.9l0.5-1.8h-0.4
	C58.8,95.2,57.9,95.3,56.9,95.2z"/>
<path class="st13" d="M56.8,97.5c-0.2,0.1-0.5,0.2-0.7,0.2l-0.7,1.8c0.8-0.1,1.3-0.3,1.5-0.7l0.4-1.3l0.1-0.5
	C57.2,97.3,57,97.5,56.8,97.5z"/>
<path class="st14" d="M59.1,88.5c-0.4,1.2-0.7,2.5-1.1,3.6c2.3,0.2,4,0,4.6-0.8c0.4-1.4,1-3.2,1.6-5.3c2-6.8,2.8-14,2.3-21.1
	c-1.1,0-2.1-0.2-3.1-0.3C62.8,72.7,61.4,80.8,59.1,88.5z"/>
<path class="st15" d="M66.4,65C65.8,58.4,64,54.6,63,54.3c-0.2,0-0.4,0-0.5,0c0.8,3.4,1.1,6.8,0.9,10.3C64.3,64.8,65.4,64.9,66.4,65
	z"/>
<path class="st13" d="M57.9,92.2c-0.3,0.9-0.6,1.8-0.9,2.6c0.9,0.1,1.7,0.1,2.6,0H60c0.5-0.1,1-0.3,1.4-0.6l0,0
	c0.1-0.1,0.2-0.2,0.3-0.4l0.8-2.6c0,0.1,0,0.2-0.1,0.2C62,92.1,60.3,92.4,57.9,92.2z"/>
<path class="st6" d="M57.4,95.8C53,99.1,45.1,105.9,43,111.7c-3.1,9,1.3,22.2,3.8,27.5c0.7-6.6,2.4-10.8,5.2-12.4
	c0.9-0.5-0.2,3.2,1.7,5.8c1-2.3,2.5-4.2,4.4-5.8c1.9-1.9,4.8-5.6,5.4-8.8c2-10.2-2.7-19.4-3.5-21.5L57.4,95.8z"/>
<path class="st7" d="M57.4,95.8c-2,1.3-8,7.2-9,11.5s2.5,13.3,2.7,18.9c2.2-3.6,2.4-5.4,5.2-7.6s3-2.6,3.9-4.5
	c0.9-1.8,1.2-7.1,0.7-11.9c-0.1-2-0.4-4-1-5.9L57.4,95.8z"/>
<path class="st8" d="M57.4,95.8c-2.1,1.9-6.9,8-6.6,11.2s2.2,4.1,3.1,9c1.2-1.2,1.2-4.8,3-5.6c-0.1,1.1,0.1,2.3,0.6,3.3
	c0.2-1.8,1.6-3.3,2.3-5.4c0.9-2.5,0.2-5.2,0-7.7c-0.1-1.4-0.1-2.7,0.1-4.1L57.4,95.8z"/>
<path class="st9" d="M57.7,97.6c-4.5-1.2-8-3.2-7.6-4.5l-0.6,2.3c-0.3,1.3,3.1,3.3,7.6,4.5s8.5,1.1,8.8-0.2l0.6-2.3
	C66.2,98.7,62.3,98.8,57.7,97.6z"/>
<path class="st9" d="M57,100.4c-3.4-0.9-6-2.4-5.8-3.4l-0.4,1.7c-0.2,1,2.3,2.5,5.7,3.4s6.4,0.9,6.7-0.1l0.5-1.7
	C63.4,101.2,60.4,101.3,57,100.4z"/>
<path class="st16" d="M59.7,64.7c-4,5.9-6.9,12.5-8.6,19.5c-1.3,4.7-2.1,8.2-2.1,8.2c2.8,1.9,5.8,3.4,9,4.5c3.3,0.6,6.6,0.8,9.9,0.6
	c0,0,1-3.4,2.3-8.2c1.9-6.9,2.6-14,1.9-21.2c-2.1,0-4.2-0.3-6.2-0.9C63.7,66.6,61.6,65.8,59.7,64.7z"/>
<path class="st17" d="M68.3,57.4c-1.1-0.3-4.7,1.8-8.6,7.3c1.9,1.1,3.9,1.9,6.1,2.4c2,0.5,4.1,0.8,6.2,0.9
	C71.3,61.5,69.4,57.7,68.3,57.4z"/>
<path class="st9" d="M58.6,94.5c-5.2-1.4-9.2-3.7-8.8-5.2L49,91.9c-0.4,1.5,3.6,3.8,8.8,5.2s9.9,1.3,10.3-0.2l0.7-2.6
	C68.4,95.8,63.8,95.9,58.6,94.5z"/>
<path class="st12" d="M66,98c-0.9,0.1-1.7,0.1-2.6,0l-0.1,0.4C64.2,98.5,65.2,98.4,66,98z"/>
<path class="st12" d="M63.2,100.8h-0.7v0.2C62.7,101,62.9,100.9,63.2,100.8z"/>
<path class="st13" d="M63.3,98.5c-0.2,0.8-0.5,1.6-0.8,2.3h0.7c0.2-0.1,0.4-0.3,0.5-0.5l-0.1,0.5c1.3,0,2.3-0.4,2.4-1l0.5-1.7
	l-0.4,0.1C65.2,98.4,64.3,98.6,63.3,98.5z"/>
<path class="st13" d="M63.2,100.8c-0.2,0.1-0.5,0.2-0.7,0.2l-0.6,1.8c0.8-0.1,1.3-0.3,1.4-0.7l0.3-1.3l0.1-0.5
	C63.6,100.5,63.4,100.7,63.2,100.8z"/>
<path class="st14" d="M65.2,91.7c-0.3,1.3-0.7,2.5-1,3.7c2.3,0.1,4-0.2,4.5-0.9c0.4-1.4,0.9-3.3,1.5-5.4c1.9-6.9,2.6-14.1,1.9-21.2
	c-1.1,0-2.1-0.1-3.2-0.3C68.6,75.9,67.4,83.9,65.2,91.7z"/>
<path class="st15" d="M72.1,68c-0.7-6.6-2.6-10.3-3.7-10.5c-0.2,0-0.4,0-0.5,0c0.8,3.4,1.2,6.8,1,10.3C69.9,67.9,71,68,72.1,68z"/>
<path class="st13" d="M64.2,95.4c-0.3,0.9-0.6,1.8-0.8,2.6c0.9,0.1,1.7,0.1,2.6,0h0.4c0.5-0.1,1-0.3,1.4-0.6l0,0
	c0.1-0.1,0.2-0.2,0.2-0.4l0.7-2.7c0,0.1-0.1,0.2-0.1,0.2C68.3,95.3,66.5,95.6,64.2,95.4z"/>
<g class="st18">
	
		<image style="overflow:visible;opacity:0.75;enable-background:new    ;" width="64" height="64" xlink:href="750595B269278789.png"  transform="matrix(1.1225 0 0 1.1225 124.0788 75.1577)">
	</image>
	<path class="st19" d="M142.3,124.6c0.2,0,0.5-0.1,0.7-0.2l-0.3,1.3c-0.1,0.2-0.2,0-0.3,0c-0.7,0-1.3,0.5-1.4,1.2
		c-0.2,0.5-0.4,1-0.8,1.4c-0.2,0.3-0.6,0.3-0.9,0.6c-0.2,0.2-0.4,0.4-0.6,0.7c-0.2,0.3-0.3,0.6-0.4,0.9c-0.2,0.5-0.2,1,0,1.5
		c0.3,0.4,0.7,0.7,1.2,0.8c0.3,0,0.6-0.1,0.7-0.3c0.7-0.7,1.5-1.2,2.1-1.9c0.1-0.2,0.3-0.3,0.5-0.4c0.2-0.2,0.4-0.2,0.6-0.1
		c0.4,0.2,0.9,0.3,1.4,0.1h0.2h0.1c0.3-0.1,0.5-0.3,0.6-0.6c-0.1-0.2-0.3,0-0.4,0c-0.4,0.2-0.9,0.2-1.3,0.2
		c-0.8-0.2-1.4-0.8-1.7-1.5c0-0.1,0-0.3-0.1-0.3c-0.1,0-0.1,0.2-0.1,0.3c0,0.4,0.1,0.8,0.4,1.1c0.2,0.3,0.2,0.3-0.1,0.5
		c-0.5,0.3-0.9,0.8-1.3,1.2c-0.1,0.1-0.2,0.2-0.4,0.3c-0.3,0.1-0.5,0.3-0.7,0.6c-0.1,0.1-0.2,0.2-0.4,0.3c-0.1,0.1-0.3,0.1-0.4,0
		c-0.1-0.1-0.1-0.2-0.2-0.2c-0.4-0.1-0.5-0.4-0.6-0.7c-0.1-0.2,0-0.3,0.1-0.5c0.1-0.1,0.3-0.2,0.5-0.1c0.2,0.1,0.3,0,0.3-0.1
		s0.2-0.5,0.2-0.7c0,0-0.1,0-0.1,0c0,0,0,0,0,0c-0.1,0.1-0.2,0.2-0.2,0.4s-0.1,0.2-0.3,0.2s-0.2,0-0.3,0c0.1-0.2,0.2-0.3,0.4-0.4
		c0.1,0,0.3-0.1,0-0.2c-0.3-0.1,0-0.1,0-0.2c0.2-0.3,0.4-0.4,0.7-0.5c0.2,0,0.4-0.2,0.5-0.3c0.2-0.2,0.3-0.5,0.5-0.7
		c0.2-0.3,0.3-0.5,0.4-0.9c0.1-0.3,0.2-0.6,0.4-0.8c0.2-0.2,0.5-0.3,0.7-0.1c0,0,0,0,0,0c0.3,0.2,0.3,0.1,0.5-0.2
		c0.1-0.4,0.2-0.7,0.3-1.1c0.1-0.5,0.2-1,0.4-1.5c0-0.1,0.1-0.2,0-0.3c-0.1-0.1-0.2,0.1-0.3,0.1c-0.2,0.1-0.4,0.3-0.5,0.5
		c-0.2,0.3-0.6,0.4-0.9,0.2c-0.1-0.1-0.2-0.2-0.2-0.3c0,0-0.1-0.1-0.1-0.1c-0.1-0.1-0.3-0.1-0.3-0.3c0-0.3,0-0.5,0.1-0.8
		c0,0,0,0,0-0.1c0.1,0,0.1-0.2,0.2-0.1c0.1,0.1,0,0.2,0,0.2c0,0-0.1,0.1-0.1,0.1c-0.1,0.1-0.1,0.2,0.1,0.2l0,0c0.3,0,0.3,0,0.2,0.3
		c-0.1,0.3-0.1,0.1,0,0.2c0.1,0.1,0.1,0,0.2,0c0.2-0.1,0.3-0.1,0.5-0.2c0.1-0.1,0.3-0.3,0.2-0.5c0,0,0-0.1,0-0.1
		c0.2-0.3,0.1-0.7-0.2-0.9c-0.1-0.1-0.1-0.2,0-0.3c0,0,0.1,0,0.1,0c0.5-0.2,0.7-0.7,1.1-1c0.1-0.1,0.2-0.2,0.2-0.3
		c0-0.1,0.1-0.2,0.1-0.3c0-0.1,0.1-0.2,0.2-0.2c0.1,0.1,0.1,0.2,0.1,0.3c-0.1,0.9-0.3,1.8-0.5,2.7c0,0.1,0,0.2,0,0.3
		c0,0.1,0,0.1,0,0.2s0.1,0,0.2-0.1c0-0.1,0.1-0.1,0.1-0.2c0-0.1,0.2-0.2,0.3-0.2c0.2,0,0.3-0.1,0.4-0.2c0.1-0.1,0.1-0.2,0.1-0.4
		c0-1.1-0.1-2.2-0.3-3.3l0,0c0-0.6,0-1.2-0.2-1.7c0-0.1,0-0.3,0.1-0.4c0.2-0.7,0.6-1.4,1.2-1.9c0.2-0.1,0.3-0.3,0.4-0.4
		c-0.4,0.3-0.7,0.8-0.8,1.2c0,0.1,0,0.1,0,0.2c0,0.1,0,0.3,0.1,0.3c0.1,0.1,0.2,0.1,0.3,0c0.2-0.2,0.4-0.3,0.7-0.4
		c0.1-0.1,0.2-0.2,0.3-0.3c0.2-0.4,0.5-0.7,0.6-1.1c0.3-0.7,0.8-1.4,1.3-1.9c0.4-0.5,0.9-0.9,1.3-1.3c-0.1,0.2-0.3,0.3-0.4,0.5
		c-0.1,0.1-0.2,0.2-0.3,0.3c-0.4,0.3-0.7,0.7-0.9,1.1c-0.2,0.3-0.1,0.8,0.2,1c0.1,0.1,0.1,0.1,0,0.2c-0.1,0.1-0.1,0.3-0.1,0.4
		c0,0.1,0,0.1,0,0.2c0.1,0.1,0.2,0.1,0.2,0c0.1,0,0.1-0.1,0.2-0.2c0.1,0-0.1,0.2,0,0.3c0.1,0.1,0.2-0.1,0.2-0.2
		c0.1-0.2,0.3-0.5,0.5-0.6c0.3-0.1,0.5-0.4,0.4-0.7c0-0.6,0.3-1.2,0.9-1.6c0.1-0.1,0.2-0.2,0.2-0.4c0-0.2,0.1-0.3,0.2-0.4
		c0.2-0.1,0.3-0.3,0.2-0.5c0,0,0,0,0,0c-0.1-0.4,0-0.8,0.3-1c0.7-0.5,1.4-1,2-1.6c0.2-0.2,0.4-0.5,0.6-0.8c0.2-0.3,0.3-0.7,0.5-1.1
		c0.4-0.9,1-1.6,1.8-2.1c0.1,0,0.1-0.1,0.2-0.2s-0.1-0.1-0.1-0.1c-0.2,0-0.4,0-0.6-0.1c-0.7-0.2-1.5-0.4-2.2-0.4
		c-0.8-0.1-1.6-0.4-2.3-0.8c-0.6-0.3-1.1-0.6-1.5-1.1c-0.6-0.6-0.6-1.5-0.1-2.1c0.1-0.2,0.3-0.3,0.5-0.4c0.6-0.3,1.2-0.6,1.9-0.8
		c1.2-0.4,2.3-0.8,3.4-1.4l0.3-0.2c0.2-0.1,0.3-0.3,0.3-0.5c0-0.4,0-0.8,0-1.3c0-0.1,0-0.1-0.1-0.2c-0.1,0.1-0.2,0.1-0.3-0.1
		c0,0,0-0.1,0-0.1c-0.3-0.6-0.8-1.1-1.4-1.5c-0.4-0.3-0.8-0.8-1-1.2c-0.1-0.1-0.1-0.2-0.1-0.3c-0.1-0.5,0.1-0.7,0.6-0.7
		c0.5,0,1,0.1,1.5,0.3c0.6,0.2,1.3,0.6,1.8,0.9c0.1,0.1,0.1,0.2,0,0.3c-0.2,0.2-0.3,0.4-0.5,0.6c0,0-0.1,0.1,0,0.2
		c0.1,0,0.1,0,0.1,0c0.3-0.4,0.7-0.8,1.1-1.1c0.4-0.4,0.9-0.8,1.4-1.1c0.4-0.3,0.9-0.5,1.4-0.6c0.3,0,0.4-0.2,0.7-0.4
		c0.1-0.1,0.2-0.1,0.3-0.1l0,0c-0.1,0-0.2,0-0.2,0.1c-0.3,0.2-0.3,0.2,0,0.5c0,0.1,0,0.1,0,0.2s0,0.2,0.1,0.2c0.2,0,0.4-0.1,0.6-0.2
		c0.2-0.1,0.5-0.1,0.8-0.1c0.2-0.1,0.5-0.2,0.5-0.5c-0.1-0.1-0.2,0-0.3,0.1c-0.1,0.1-0.3,0.2-0.3-0.1c0-0.1-0.1-0.1-0.2-0.1
		c0,0,0,0,0,0c0.4-0.1,0.7-0.1,1.1,0c0.1,0,0.3,0,0.4,0c0.4-0.1,0.7-0.2,1.1-0.3c0.5-0.1,1,0,1.4,0.3c0.4,0.3,0.8,0.7,1,1.1
		c0.2,0.3,0.1,0.7-0.1,0.9c0.1,0,0.1-0.1,0-0.2c-0.1-0.1-0.2-0.1-0.3-0.2c-0.1-0.1-0.2-0.1-0.3-0.2c-0.6-0.1-1.1-0.2-1.7-0.5
		c-0.1,0-0.3-0.2-0.4,0c-0.1,0.2,0.2,0.2,0.3,0.2l0.6,0.3c0.5,0.2,0.6,0.4,0.6,1c0,0.4,0,0.4,0.1,0.6c-0.1-0.1-0.1-0.3-0.1-0.5
		c0,0,0-0.2-0.1-0.1c-0.1,0.2-0.1,0.4,0,0.5c0.1,0.3,0.3,0.6,0.4,0.9c0.4,1,0.3,2.2-0.3,3.1c-0.2,0.4-0.6,0.7-1,0.9
		c0.1,0.1,0.1,0.1,0.4,0.1c-0.3,0.3-0.5,0.7-0.8,1c-0.1,0.1-0.2,0.2-0.3,0.4c0,0-0.3,0.2,0.1,0.2c0.1,0,0,0.1,0,0.2
		c0,0.3,0.2,0.5,0.5,0.4c0.1,0,0.1,0,0.1-0.1c0-0.1-0.1-0.1-0.1-0.1c-0.3-0.1-0.2-0.3-0.2-0.5c0-0.2,0.2-0.3,0.3-0.3c0,0,0,0,0,0
		c0.6-0.1,1.1-0.3,1.5-0.7c0.1-0.1,0.2-0.1,0.2-0.2c0-0.1,0.1-0.2-0.1-0.2c-0.2,0.2-0.4,0.3-0.6,0.4c-0.1,0.1-0.3,0.1-0.4,0.3
		c-0.1,0.1-0.2,0.1-0.3,0s0-0.2,0.1-0.2c0.1,0,0.1-0.1,0.1-0.2c0-0.2,0.1-0.2,0.3-0.2c0.2,0.1,0.2,0,0.3-0.1c0-0.1,0-0.1,0.1-0.1
		c0.3-0.1,0.2-0.3,0.1-0.4c-0.1-0.2-0.1-0.2,0.2-0.2s0.2,0,0.2-0.1s0.1-0.1,0.1,0c0.1,0.1,0,0.1,0,0.1c0,0-0.2,0.3,0,0.4
		c0.1-0.2,0.3-0.4,0.2-0.7c0-0.1,0-0.1,0.1-0.2c0.4-0.6,0.9-1.1,1.2-1.7c0.2-0.3,0.3-0.6,0.4-1c0.1-0.2,0.2-0.4,0.3-0.6
		c0.4-0.4,0.7-0.9,1-1.3c0-0.1,0.1-0.1,0.2,0c0.1,0.1,0.2,0.2,0.3,0.3c0.1,0.5,0.2,1.1,0.1,1.6c-0.1,0.4-0.3,0.8-0.3,1.3
		c-0.3,0.9-0.7,1.7-1.2,2.4c-0.4,0.6-0.7,1.2-1.1,1.8c0,0.1,0,0.2,0,0.3c0.4-0.4,0.7-0.8,1-1.3c0,0.9-0.1,1.8-0.2,2.7
		c-0.1,0.3,0,0.5,0.2,0.7c0.5,0.5,0.9,1.1,1.2,1.8c0.1,0.1,0.1,0.3,0.2,0.2s0-0.2,0-0.3c-0.3-0.6-0.6-1.2-1-1.7
		c0-0.1-0.1-0.1-0.1-0.2c-0.1-0.1-0.2-0.2-0.1-0.4c0.1-0.3,0.1-0.7,0.1-1c0-0.2,0.1-0.2,0.3-0.2c0.3,0.1,0.6,0.2,0.8,0.5
		c0.1,0.1,0.2,0.2,0.3,0.1c1.3-0.3,2.5-0.5,3.8-0.7c1-0.2,2-0.7,2.8-1.4c0.8-0.8,1.7-1.4,2.7-1.8c0.1-0.1,0.3-0.1,0.4-0.1
		c-0.3,0.1-0.6,0.3-0.9,0.4c-0.2,0.1-0.4,0.3-0.7,0.4c-0.1,0-0.2,0.1-0.1,0.2c0.1,0.1,0.1,0,0.2,0c0.5-0.3,1.1-0.5,1.7-0.7
		c0.1,0,0.2,0,0.3,0c-0.1,0.1-0.1,0.3,0,0.4c0,0.1,0,0.3,0,0.4c0,0.2-0.2,0.3-0.3,0.3c-0.4,0-0.9,0.1-1.3,0.3
		c-0.2,0.1-0.3,0.2-0.5,0.3c-0.1,0-0.1,0.1-0.1,0.2c0,0.1,0.1,0,0.2,0c0.5-0.1,1-0.2,1.5-0.2c0.2-0.1,0.5-0.1,0.7,0
		c-0.3,0.2-0.2,0.4-0.3,0.6c0,0.4-0.3,0.8-0.7,0.9c-0.6,0.1-1.1,0.3-1.6,0.6c-0.2,0.1-0.4,0.1-0.6,0c-0.1,0-0.2,0-0.2,0.1
		c0,0.1,0.1,0.1,0.2,0.1h0.1c0.1,0,0.3,0.1,0.3,0.2c0,0.2-0.1,0.2-0.3,0.3c-0.3,0.1-0.5,0.2-0.8,0.2c-0.1,0-0.3,0.1-0.4,0.2
		c-0.4,0.4-0.9,0.6-1.4,0.7c-0.4,0.1-0.8,0.3-1.1,0.5l-1.4,0.8c-0.1,0.1-0.2,0.1-0.3,0.1c-0.1-0.1,0-0.2,0-0.3
		c0-0.6-0.2-1.2-0.6-1.6c-0.1-0.1-0.1-0.2-0.2-0.3c-0.2-0.2-0.4-0.3-0.5-0.5c-0.1-0.2-0.3-0.3-0.5-0.3c0.1,0.3,0.2,0.5,0.4,0.8
		c0.7,0.8,1,1.9,0.8,2.9c-0.1,0.7-0.1,1.4,0,2c0,0.2,0.1,0.5,0.2,0.7c0.1,0.1,0.1,0.3-0.1,0.4c-0.9,1-1.5,2.1-1.8,3.4
		c0,0.2-0.2,0.3-0.3,0.4c-0.9,0.3-1.8,0.7-2.7,1.1c-0.4,0.2-0.8,0.4-1.1,0.7c-0.1,0-0.2,0.1-0.1,0.2c0,0.1,0.2,0,0.2,0
		c1.1-0.5,2.2-0.9,3.3-1.3c0.4-0.2,0.9-0.2,1.4-0.2l2.3-0.1c0.7-0.1,1.3-0.3,1.9-0.6c0.3-0.2,0.7-0.2,1-0.1c0.2,0,0.3,0,0.5,0
		c0.7-0.2,1.4-0.2,2-0.1c0.3,0,0.5,0.2,0.7,0.4c-0.2,0-0.4-0.1-0.6-0.1c-0.3-0.1-0.6-0.1-0.9-0.1c-0.1,0-0.3,0-0.3,0.1
		s0.2,0.1,0.3,0.1c0.5,0,1,0.1,1.4,0.3c0.2,0.1,0.4,0.2,0.5,0.5s-0.5,0.4-0.7,0.4c-0.1,0-0.3-0.1-0.4-0.1c-0.3-0.1-0.7-0.2-1.1-0.1
		c-0.1,0-0.2,0-0.3,0.1c0,0,0,0.1,0,0.1c0.1,0.1,0.3,0.1,0.4,0.1c0.6,0.1,1.1,0.3,1.6,0.6c0.3,0.2,0.3,0.2,0.1,0.4
		c-0.1,0.1-0.1,0.2-0.1,0.3c-0.2,0.4-0.4,0.7-0.7,1c-0.2,0.1-0.3,0.1-0.4-0.1c-0.3-0.5-0.7-0.8-1.3-1h-0.1c-0.1,0-0.3-0.1-0.3,0
		c0,0.1,0.1,0.1,0.2,0.2c0.5,0.2,0.9,0.6,1.1,1.1c0.1,0.1,0.1,0.3-0.2,0.2c-0.2-0.1-0.2,0-0.2,0.1c-0.2,0.8-0.9,0.7-1.4,0.4
		c-0.3-0.2-0.6-0.2-0.9-0.2c-0.4,0-0.9,0-1.3-0.2c-0.2-0.1-0.4-0.1-0.5,0c-0.4,0.4-1.1,0.4-1.5,0c-0.1-0.1-0.3-0.1-0.4,0l-1.4,0.7
		c-0.1,0-0.2,0.1-0.1,0.2c0,0.1,0.1,0,0.2,0c0.3-0.1,0.7-0.2,1.1-0.3c0.1,0,0.2-0.1,0.3-0.1c0.1,0,0.1,0,0.1,0s0,0.1-0.1,0.1
		c-1.1,0.8-2.4,1.5-3.7,2c-0.1,0-0.2,0.1-0.3,0.1c-0.2,0-0.4,0.1-0.6,0.3c-0.3,0.3-0.8,0.4-1.1,0.1c-0.1,0-0.1-0.1-0.2-0.2
		c-0.3-0.3-0.7-0.6-1.1-0.9c-0.4-0.4-0.8-0.8-1.1-1.3c-0.4-0.5-0.7-1.1-1.1-1.7c-0.1-0.1-0.1-0.2-0.3-0.3c0,0.1,0,0.1,0,0.2
		c0.4,0.8,0.8,1.6,1.2,2.4c0.1,0.1,0.1,0.2,0.2,0.3c0.2,0.2,0.2,0.2-0.1,0.4c-0.6,0.3-1.2,0.5-1.8,0.8c-1.2,0.5-2.4,1-3.6,1.6
		c-0.1,0-5.7,2.4-5.7,2.5c0,0.1,0.1,0.2,0.3,0.3c0.1,0,5.7-2.2,5.8-2.3l5.4-2.3c0.2-0.1,0.5-0.1,0.6,0.1c0.3,0.2,0.6,0.5,0.9,0.8
		c0.5,0.6,1.3,0.6,1.9,0.1c0,0,0,0,0,0c0.1-0.1,0.2-0.2,0.4-0.2c0.9-0.2,1.8-0.6,2.6-1.1c0.6-0.3,1.2-0.7,1.8-1.1
		c0.1-0.1,0.3-0.2,0.5-0.1c0.4,0,0.7-0.1,1-0.2c0.1-0.1,0.3-0.1,0.4,0c0.4,0.2,0.9,0.3,1.3,0.3c0.2,0,0.5,0,0.7,0.2
		c0.1,0.1,0.2,0.1,0.3,0.1c0.5,0.2,1,0.1,1.4-0.1l0.2-0.2c0,0,0.1-0.1,0.1-0.1c0.4,0,0.6-0.4,0.8-0.6c0.5-0.3,0.9-0.6,1.1-1.1
		c0.1-0.1,0.1-0.2,0.3-0.3c0.2-0.1,0.3-0.4,0.2-0.7c0-0.1-0.1-0.1-0.1-0.1c-0.2-0.3-0.2-0.3,0.1-0.4c0.3-0.1,0.5-0.5,0.1-1
		c-0.1-0.1-0.2-0.3-0.3-0.5c-0.1-0.3-0.3-0.4-0.6-0.6c-0.5-0.2-1-0.3-1.5-0.2c-0.3,0-0.6,0-0.8,0.1c-0.4,0.1-0.8,0.1-1.1,0
		c-0.2-0.1-0.4-0.1-0.6,0l-0.2,0.1c-1,0.5-2.1,0.7-3.2,0.7h-1.2c-0.1-0.1,0-0.1,0-0.2c0.3-1.1,0.9-2.1,1.6-2.9
		c0.3-0.3,0.4-0.8,0.2-1.1c-0.3-0.7-0.3-1.5-0.1-2.2c0-0.1,0.1-0.1,0.2-0.2c0.8-0.5,1.7-1,2.5-1.4c0.1-0.1,0.2-0.1,0.3-0.1
		c0.6-0.1,1.1-0.3,1.5-0.7c0.1-0.1,0.3-0.2,0.4-0.2c0.4,0,0.7-0.2,1-0.4c0.2-0.1,0.4-0.4,0.4-0.6c0-0.1,0.1-0.2,0.2-0.2
		c0.5-0.2,0.9-0.3,1.4-0.4c0.6-0.2,1-0.8,1-1.4c0-0.1,0.1-0.2,0.1-0.2c0.2-0.2,0.2-0.6-0.1-0.8c0,0,0,0,0,0c-0.1-0.1-0.1-0.1,0-0.2
		c0.1-0.2,0.1-0.4,0.1-0.6c0-0.1,0-0.2,0.1-0.3c0.2-0.2,0.1-0.5-0.1-0.7c-0.1,0-0.1-0.1-0.2-0.1c0,0-0.1,0-0.1,0
		c-0.2-0.4-0.5-0.3-0.8-0.2c-1.1,0.4-2.1,0.9-2.9,1.7c-1,1-2.2,1.6-3.6,1.7c-0.9,0.1-1.8,0.3-2.8,0.5c-0.1,0-0.3,0-0.3-0.1
		c-0.3-0.2-0.6-0.4-0.9-0.4c-0.1,0-0.2-0.1-0.2-0.2c0-0.4,0-0.8,0-1.2c0-0.1,0-0.2,0.1-0.3c0.7-0.9,1.2-2,1.4-3.2
		c0-0.1,0.1-0.3,0.1-0.4c0.2-0.8,0.1-1.6-0.2-2.4c-0.1-0.2-0.3-0.4-0.5-0.4c-0.2,0-0.2-0.2-0.2-0.3c0.1-0.3,0.1-0.5,0-0.8
		c0-0.3-0.3-0.6-0.6-0.6c-0.1,0-0.2,0.1-0.3,0.1c-0.2,0.2-0.5,0.4-0.7,0.6l-0.6,0.5c-0.2-1.1-1-2-2.1-2.4c-0.3-0.1-0.6-0.1-0.9-0.1
		c-0.2,0-0.5,0.1-0.7,0.1c-0.4,0.2-0.9,0.3-1.4,0.2c-0.1,0-0.2,0-0.2,0c-0.4,0.1-0.8,0.1-1.2,0c-0.2,0-0.5,0-0.7,0.2
		c-0.2,0.1-0.5,0.2-0.7,0.3c-0.6,0.2-1.2,0.5-1.7,0.9c-0.4,0.2-0.7,0.5-1,0.8c-0.2,0.2-0.3,0.2-0.4,0c-0.9-0.6-1.9-1-2.9-1.1
		c-0.3-0.1-0.6,0-0.9,0.1c-0.4,0.1-0.6,0.5-0.6,0.9c0.1,0.6,0.3,1.1,0.7,1.4c0.4,0.4,0.9,0.8,1.3,1.2c0.2,0.1,0.3,0.3,0.3,0.4
		c0.1,0.1,0.1,0.3,0.2,0.4c0.4,0.4,0.2,0.9,0.3,1.3c0,0.1,0,0.1-0.1,0.1c-0.8,0.3-1.5,0.8-2.3,1.1c-0.6,0.2-1.2,0.3-1.8,0.6
		c-0.6,0.3-1.2,0.6-1.7,0.9c-0.5,0.3-0.8,0.9-0.6,1.5c0.2,0.8,0.6,1.5,1.3,1.9c0.6,0.4,1.2,0.8,1.9,1.1c0.5,0.3,1.2,0.4,1.8,0.4
		c0.5,0,1.1,0.1,1.5,0.3c-0.8,0.7-1.4,1.6-1.8,2.6c-0.3,0.6-0.8,1.1-1.4,1.5c-0.9,0.8-2,1.4-3,2.1c-0.5,0.3-0.9,0.7-1.3,1.2
		c-0.7,0.8-1.5,1.5-2.4,2c-0.9,0.6-1.6,1.3-2.2,2.2c-0.2,0.3-0.5,0.5-0.7,0.8c-0.5,0.7-0.4,1.7,0.2,2.4c0.1,0.1,0.3,0.2,0.3,0.3
		c-0.1,0.2-0.2,0.4-0.3,0.6c-0.3,0.3-0.6,0.6-0.9,0.9c-0.4,0.3-0.8,0.6-1,1.1c0,0.1-0.1,0.1-0.1,0.2c-0.1,0.1-0.2,0.3-0.3,0.4
		c-0.1,0.3,0,0.6-0.1,0.9c0,0.2,0.1,0.3,0.2,0.4c0.2,0.1,0.4,0.3,0.5,0.5C141.8,124.4,142,124.5,142.3,124.6z"/>
	<path class="st19" d="M145.7,129.6c-0.1,0.3-0.4,0.4-0.5,0.6c0.5-0.1,1-0.3,1.5-0.5h0.1c0.5-0.1,1-0.3,1.3-0.7
		c1.1-0.8,2-1.9,2.6-3.2c0-0.1,0-0.1,0-0.2l0.1-0.1c0.3-0.3,0.5-0.7,0.7-1.1c0.3-0.5,0.7-0.9,1.2-1.1c0.3-0.1,0.7-0.3,1-0.4
		c0.1-0.1,0.3-0.1,0.4-0.2c0.1-0.1,0.1-0.1,0.1-0.2c0-0.1,0,0,0,0s0.2,0.2,0.3,0.1c0.1-0.1,0-0.1,0-0.1c0,0,0.2,0.1,0.3,0
		c0.1-0.1-0.1-0.2-0.1-0.3c-0.1-0.1-0.2-0.1-0.3,0c-0.4,0.2-0.9,0.4-1.3,0.5c-0.2,0.1-0.5,0.2-0.7,0.3c-0.1,0-0.1,0.1-0.2,0.1
		c-0.4,0.4-0.8,0.8-1.2,1.2c-0.1,0.1-0.2,0.2-0.2,0.3c-0.5,0.8-0.9,1.8-1.5,2.5c-0.7,1-1.8,1.8-2.9,2.2l-0.5,0.2
		C145.8,129.5,145.7,129.5,145.7,129.6z"/>
	<path class="st20" d="M158.3,120.5L158.3,120.5l3-1.3l3-1.3c-0.7-1-1.2-2-1.7-3.1c0.3,0.3,0.5,0.6,0.7,1c0.4,0.6,0.8,1.2,1.3,1.8
		c0.3,0.3,0.7,0.6,1,0.9c0.2,0.1,0.4,0.3,0.5,0.5c0.3,0.4,0.8,0.4,1.2,0.1c0.1,0,0.1-0.1,0.1-0.1c0.2-0.1,0.3-0.2,0.6-0.2
		c0.7-0.2,1.4-0.4,2.1-0.8c0.7-0.4,1.3-0.8,2-1.2c0.1,0,0.3-0.1,0.2-0.2c-0.1-0.1-0.2-0.1-0.4-0.1c-0.5,0.2-0.9,0.3-1.4,0.4l1.7-0.8
		c0.1,0,0.1,0,0.2,0c0.5,0.5,1.2,0.5,1.7,0c0.1-0.1,0.1-0.1,0.3,0c0.5,0.2,1.1,0.3,1.6,0.3c0.2,0,0.4,0,0.6,0.2
		c0.2,0.2,0.5,0.2,0.8,0.2c0.4,0,0.7-0.2,0.9-0.8l0,0c0.1,0.1,0.2,0.2,0.4,0.1c0.1-0.1,0-0.2-0.1-0.3c-0.2-0.7-0.8-1.1-1.5-1.2
		c0.6,0,1.2,0.2,1.6,0.7c0,0.1,0.1,0.1,0.1,0.2c0.2,0.3,0.2,0.3,0.5,0.1c0.4-0.3,0.7-0.7,0.8-1.1c0-0.1,0-0.1,0.2-0.2
		c0.2,0,0.2-0.1,0-0.3c-0.6-0.5-1.3-0.7-2.1-0.8h0c0,0-0.1,0-0.1,0c0.1,0,0.1,0,0.1-0.1c0.5,0,1.1,0,1.6,0.2c0.2,0.1,0.5,0,0.7-0.1
		c0.1-0.1,0.1-0.2,0.3-0.2c0.2,0,0.1-0.1,0-0.1c-0.1,0-0.3-0.4-0.5-0.5c-0.5-0.2-0.9-0.3-1.4-0.3c-0.1,0-0.2,0-0.3,0
		c0.5-0.1,1.1,0,1.6,0.1c0.1,0,0.2,0.1,0.3,0c0.1-0.1-0.1-0.2-0.1-0.2c-0.2-0.2-0.5-0.3-0.8-0.3c-0.6-0.1-1.3,0-1.9,0.1
		c-0.2,0.1-0.5,0.1-0.7,0c-0.2-0.1-0.5-0.1-0.7,0l-0.2,0.1c-1.1,0.5-2.2,0.7-3.4,0.7l-1.5,0.1c-0.3,0-0.5,0.1-0.7,0.2
		c-1.1,0.5-2.2,0.9-3.4,1.4h-0.1c0.5-0.5,1.1-0.8,1.8-1c0.8-0.3,1.5-0.7,2.4-0.9c0.1,0,0.1-0.1,0.1-0.2c0.4-1.4,1-2.6,2-3.6
		c0,0,0.1-0.1,0-0.2c-0.4-0.9-0.5-1.9-0.3-2.9c0.2-1.1-0.1-2.2-0.8-3c-0.2-0.2-0.2-0.5-0.4-0.7c0.4,0.5,0.9,1,1.2,1.5
		c0.2,0.5,0.4,1.1,0.4,1.7c0.6-0.3,1.2-0.7,1.8-1c0.4-0.3,0.9-0.5,1.4-0.6c0.4-0.1,0.8-0.3,1.1-0.6c0.1-0.1,0.3-0.2,0.5-0.2
		c0.4,0,0.7-0.1,1-0.3c0.2-0.2,0.2-0.4-0.1-0.5c-0.3-0.1-0.3-0.1-0.5-0.2l0,0c0.4,0.1,0.9,0,1.3-0.2c0.3-0.1,0.7-0.3,1.1-0.4
		c0.6-0.1,1-0.6,0.9-1.2c0-0.1,0-0.3,0.2-0.3s0.1-0.1,0.1-0.2c0-0.1-0.1-0.1-0.2-0.1c-0.8,0-1.6,0.1-2.3,0.3
		c0.2-0.2,0.5-0.3,0.8-0.4c0.4-0.1,0.8-0.2,1.2-0.2c0.2,0,0.3-0.1,0.3-0.3c0-0.2,0-0.3,0-0.5c0-0.1-0.1-0.3,0.1-0.4
		c0.2-0.1,0-0.2-0.1-0.2c-0.1,0-0.2,0-0.4,0.1c-0.6,0.2-1.3,0.5-1.9,0.8c0.3-0.3,0.7-0.5,1.1-0.7c0.2-0.1,0.4-0.2,0.6-0.2
		c0.1,0,0.2,0,0.1-0.1c0-0.1-0.1,0-0.2,0c-0.6,0.2-1.2,0.5-1.7,0.8c-0.5,0.3-1,0.7-1.4,1.1c-1,0.9-2.2,1.4-3.6,1.6
		c-1,0.1-2,0.3-3,0.6c-0.1,0-0.2,0-0.3-0.1c-0.2-0.4-0.7-0.4-1.1-0.6c0,0.5-0.1,1-0.2,1.5c0,0,0,0.1,0,0.1c0.5,0.5,1,1.2,1.2,1.9
		c0.1,0.1,0.1,0.2,0.2,0.4c0.1,0.1-0.1,0-0.1-0.1c-0.4-0.8-0.9-1.5-1.5-2.1c-0.1-0.1-0.1-0.3,0-0.4c0.1-1,0.2-2,0.2-3
		c-0.4,0.5-0.8,1.1-1.2,1.5c0.5-0.8,0.9-1.6,1.5-2.2c0.6-0.8,1-1.8,1.2-2.8c0.1-0.3,0.2-0.6,0.3-0.8c-0.3,0.1-0.6,0.1-0.7,0.4
		c-0.1,0.2-0.2,0.4-0.5,0.5c-0.3,0.1-0.4,0.4-0.4,0.7c0,0.3,0,0.5,0.1,0.8c0,0.2,0,0.4-0.1,0.5c-0.1,0.2-0.4,0.2-0.6,0.1
		c0,0,0,0,0,0c-0.3-0.2-0.5-0.1-0.5,0.2c-0.1,0.4-0.3,0.7-0.5,1c-0.1,0.2-0.3,0.4-0.4,0.7c-0.1,0.2-0.1,0.4,0.1,0.5c0,0,0,0,0,0
		c0.2,0.2,0.3,0.3,0.1,0.6c-0.1,0.3-0.4,0.6-0.7,0.8c-0.3,0.2-0.5,0.4-0.6,0.7c-0.5,1-1.5,1.7-2.6,1.7c-0.4,0-0.8,0-1.2-0.2
		l-0.3-0.1c-0.4,0-0.7-0.2-1.1-0.2c-0.2,0-0.3,0-0.5,0c-0.1,0-0.2,0.1-0.2,0.2c0,0.3-0.1,0.4-0.5,0.5c-0.4,0-0.9-0.1-1.3-0.2
		l-0.3-0.1c-0.2-0.1-0.4,0-0.5,0.1c-0.2,0.3-0.6,0.5-0.9,0.6c-0.2,0.1-0.3,0.1-0.5,0c-0.9,0.5-1.6,1.4-2,2.4c-0.4,1-1.1,1.8-2,2.3
		c-0.4,0.3-0.8,0.6-1.2,0.9c-0.1,0.1-0.1,0.2-0.1,0.3c0,0.1-0.2,0.5,0,0.8c0.1,0.1-0.1,0.2-0.2,0.2c-0.1,0-0.3,0.2-0.3,0.5
		c0,0.1-0.1,0.3-0.2,0.3c-0.5,0.4-0.8,0.9-0.8,1.6c0,0.3-0.1,0.5-0.4,0.6c-0.1,0-0.2,0.2-0.2,0.3s-0.1,0.3-0.3,0.4
		c0-0.2,0.1-0.3,0.1-0.4c-0.2,0-0.3,0.2-0.4,0.3c-0.1,0.1-0.1,0.1-0.2,0c-0.1-0.1,0-0.1,0-0.2s0.1-0.3,0.2-0.5
		c0.1-0.2,0.1-0.1,0-0.1c-0.3,0-0.4-0.3-0.4-0.5c0-0.1,0-0.1,0-0.2c0.1-0.5,0.4-0.9,0.8-1.2c0.5-0.3,0.7-0.8,1-1.2
		c-0.7,0.5-1.3,1.1-1.9,1.8c-0.5,0.5-0.9,1.1-1.1,1.7c-0.1,0.3-0.4,0.6-0.5,0.9c-0.1,0.1-0.1,0.2-0.2,0.2c-0.3,0.1-0.6,0.3-0.8,0.5
		c-0.1,0-0.1,0-0.2,0c-0.1,0-0.1-0.1-0.1-0.2c0.1-0.4,0.2-0.8,0.5-1.1c0.2-0.2,0.3-0.4,0.5-0.6c-1.1,0.6-1.8,1.7-2,2.9
		c0,0.1,0,0.2,0,0.3c0.2,0.4,0.2,0.8,0.1,1.2c0,0.1,0,0.2,0,0.3c0.2,0.9,0.4,1.9,0.3,2.9c0,0.2,0,0.5,0,0.7
		c-0.1,0.3-0.2,0.4-0.5,0.3c-0.3-0.1-0.1,0-0.2,0.1c-0.1,0.2-0.2,0.3-0.3,0.5c0.1-0.7,0.2-1.3,0.3-2c0.1-0.4,0.1-0.8,0.2-1.3
		c0.1-0.1,0-0.3-0.1-0.3c0,0,0,0,0,0c-0.2-0.1-0.2,0.1-0.2,0.2c-0.3,0.5-0.6,0.9-1,1.3c-0.1,0.1-0.2,0.2-0.3,0.2
		c-0.2,0-0.4,0.2-0.4,0.4c0,0.2,0,0.3,0.2,0.2c0,0.2,0,0.4,0.1,0.5c0,0,0,0,0,0.1c-0.3,0.2,0,0.5-0.3,0.7c-0.2,0.2-0.5,0.3-0.7,0.4
		c0-0.2,0.1-0.2,0.3-0.3c-0.2-0.3-0.2-0.3-0.6-0.2c0.1-0.1,0.1-0.2,0.2-0.2c0.2,0,0.2-0.2,0.2-0.3c0-0.1-0.1-0.2-0.2-0.1
		c-0.1,0.1-0.2,0.2-0.3,0.3c0,0.2,0,0.5,0,0.7c0,0,0,0.1,0,0.1c0.3,0.1,0.4,0.4,0.7,0.6c0.3,0.2,0.7,0.1,1.1-0.3
		c0.2-0.2,0.5-0.4,0.7-0.6c-0.4,1.1-0.5,2.2-1,3.2h-0.1c-0.4-0.4-0.8-0.4-1.1,0.1c-0.1,0.2-0.2,0.4-0.3,0.6
		c-0.1,0.5-0.3,0.9-0.6,1.2c-0.2,0.2-0.3,0.4-0.4,0.6c0,0.1-0.1,0.1-0.2,0.1c-0.5,0.1-0.9,0.4-1.1,0.9c0.1,0,0.3,0,0.4,0
		c-0.2,0.1-0.3,0.1-0.5,0.2c-0.1,0.1-0.3,0.3-0.3,0.5c0.2-0.1,0.4-0.2,0.7,0c0.2,0.2,0.1,0,0.1-0.1c0.1-0.2,0.1-0.4,0.2-0.6
		c0.1-0.1,0.2-0.2,0.2-0.3s0.1,0,0,0l0,0c0,0.1-0.2,0.2-0.1,0.3c-0.2,0.3-0.3,0.6-0.3,0.9c-0.3-0.2-0.5-0.2-0.7,0
		c-0.2,0.2-0.3,0.4-0.1,0.7c0,0.1,0,0.1,0,0.2c0,0.1,0,0.2,0.2,0.3c0.2,0.1,0.5,0.2,0.7,0.4c0.1,0.1,0.3,0.1,0.4,0
		c0.4-0.5,1.1-0.8,1.5-1.3c0.4-0.5,0.9-0.9,1.5-1.3c-0.5-0.4-0.7-1.1-0.6-1.7c0.1,0.6,0.4,1.2,0.9,1.5c0.5,0.3,1.1,0.5,1.6,0.4
		c0.3-0.1,0.6-0.2,0.9-0.3l0.1-0.1c0.2-0.1,0.5-0.1,0.6-0.3c1.3-0.6,1.5-0.8,2.8-2.2c0.2-0.2,1.4-2.4,1.6-2.6l0.2-0.2
		c0.1,0,0.1-0.1,0.2-0.2c0.3-0.4,0.7-0.8,1.1-1.1l0.2-0.1c0.2-0.1,0.7-0.3,1.2-0.6c1.1-0.5,2.6-1.1,3.5-1.4
		C157.3,121,158.2,120.5,158.3,120.5z"/>
	<path class="st21" d="M156.2,96c0,0.4-0.4,0.6-0.7,0.7l-1.4,0.7c-0.5,0.3-1.1,0.4-1.7,0.6c-0.9,0.2-1.7,0.7-2.4,1.2
		c-0.5,0.5-0.6,1.3-0.2,1.9c0.5,0.8,1.3,1.4,2.2,1.8l0.6,0.2c0.6,0.2,1.2,0.3,1.8,0.3c0.6,0.1,1.1,0.2,1.7,0.4
		c0.2,0.1,0.4,0.1,0.6,0l0,0c0,0,0.2,0.1,0.3,0c0.4-0.1,0.7-0.3,0.9-0.6c0.1-0.2,0.3-0.2,0.5-0.1c0.4,0.2,0.9,0.3,1.3,0.4h0.2
		c0.2,0,0.3,0,0.4-0.2c0.1-0.2,0-0.3-0.1-0.4c0,0-0.1-0.1-0.1-0.1c0.2,0,0.4,0,0.6,0c0.7,0,1.3,0.2,2,0.4c0.7,0.2,1.4,0.1,2.1-0.1
		l0.2-0.1c0.5-0.2,1-0.6,1.2-1.1c0.2-0.4,0.5-0.8,0.9-1c0.2-0.2,0.4-0.4,0.5-0.7c0.1-0.2,0-0.4-0.1-0.5c0,0,0,0,0,0
		c-0.2-0.1-0.3-0.2-0.2-0.5c0.1-0.3,0.3-0.6,0.5-0.8c0.2-0.3,0.4-0.5,0.4-0.9c0-0.1,0.1-0.2,0.1-0.3c0.1-0.2,0.3-0.3,0.5-0.1
		c0.1,0.1,0.3,0.2,0.5,0.1c0.2-0.1,0.2-0.3,0.2-0.5c0-0.2-0.1-0.3-0.1-0.5c-0.1-0.4,0.1-0.9,0.5-1.1c0.3-0.2,0.5-0.5,0.5-0.9
		c0-0.1,0-0.2,0-0.4c0.1,0,0.1,0.1,0.2,0.2c0,0.1,0.1,0.2,0.3,0.2c0.1,0,0.2-0.1,0.2-0.2c0.1-0.3,0-0.5-0.1-0.8
		c-0.1-0.1-0.2-0.3-0.3-0.4s0-0.2,0.1-0.2c0.1,0,0.1-0.2,0.1-0.2c-0.1-0.1-0.2-0.3-0.5-0.2c-0.1,0-0.1,0.1-0.2,0.2
		c-0.2,0.3-0.4,0.6-0.7,0.9c-0.2,0.2-0.4,0.5-0.5,0.9c-0.2,0.7-0.6,1.4-1.1,1.9c-0.1,0.1-0.2,0.4-0.3,0.5c-0.3,0.3-0.2,0.7-0.4,1
		c0,0,0,0.2-0.1,0.2c-0.1,0-0.2,0.1-0.2,0.2c-0.1,0.1-0.1,0.2,0,0.2c0.1,0.1,0,0.1,0,0.1c-0.4,0.4-0.9,0.7-1.5,0.8
		c-0.5,0-0.6,0.1-0.7,0.6c0,0.3,0.2,0.3,0.4,0.4c-0.1,0.1-0.3,0.1-0.5,0c-0.2-0.2-0.1-0.5-0.1-0.7c-0.1,0-0.1,0.1-0.2,0.1l1.5-1.5
		c-0.2-0.1-0.3,0.2-0.5,0c-0.2-0.2,0,0,0,0c-0.4,0-0.8-0.1-1.1-0.4c-0.1,0.1-0.1,0.2-0.1,0.4c0,0.5,0,0.9-0.1,1.4c0,0.2,0,0.4,0,0.6
		c0,0.3,0.2,0.6,0.5,0.7c0,0,0,0,0.1,0c0.3,0,0.6,0,1-0.1c-0.3,0.1-0.6,0.1-0.9,0.1c-0.5,0-0.8-0.3-0.7-0.8c0.1-0.5,0.2-1.1,0.2-1.6
		c0-0.2,0-0.4-0.1-0.6c-0.2,0.1-0.3,0-0.5-0.1c-0.2-0.1,0.1,0.2-0.1,0.1c-0.2-0.1-0.1,0.1-0.1,0.2c0,0.5-0.1,1-0.1,1.5
		c-0.1,0.4-0.1,0.8,0,1.1c0,0.4,0.3,0.7,0.7,0.7c0,0,0.1,0,0.1,0c0.6,0,1.2-0.2,1.8-0.3c-0.6,0.1-1.2,0.3-1.9,0.3
		c-0.2,0-0.4,0-0.6,0c-0.1,0-0.1,0-0.2,0c0,0.1,0,0.1,0,0.2c0.1,0.2,0.3,0.3,0.5,0.3c0.1,0,0.2,0,0.3,0c-0.2,0-0.4,0-0.6-0.1
		c-0.3-0.1-0.6-0.4-0.5-0.7c0-0.7,0.1-1.4,0.3-2.1c0.1-0.6,0.1-1.3,0-1.9c-0.1-0.5-0.3-1-0.5-1.5c-0.3-0.7-0.8-1.3-1.4-1.9
		c-0.4-0.1-0.9,0-1.3,0.1c-0.8,0.3-1.5,0.6-2.1,1.1c-0.2,0.2-0.4,0.2-0.6,0.2c-0.2,0-0.5,0.1-0.5,0.4c0,0,0,0,0,0
		c0,0.2-0.1,0.4-0.2,0.6C156.4,95.8,156.3,95.9,156.2,96z"/>
	<path class="st20" d="M163.4,97.2c0.1,0.2,0.3,0.3,0.5,0.1c0-0.1,0-0.1,0-0.2c0-0.8-0.2-1.7-0.7-2.4c-0.4-0.5-0.8-0.9-1.1-1.4
		c0.3,0.4,0.6,0.8,0.9,1.2c0.5,0.6,0.9,1.4,0.9,2.2c0,0.2,0,0.4,0.1,0.5c0.3,0.3,0.8,0.5,1.2,0.4c1-0.4,1.6-1.4,1.6-2.4
		c0.1-0.9-0.1-1.7-0.6-2.5c-0.1-0.2-0.2-0.4-0.1-0.6c0.1-0.4,0.1-0.5-0.3-0.6c-0.1,0-0.3-0.1-0.4-0.2c-0.2-0.1-0.4,0-0.4,0.2
		c0,0.5-0.2,0.7-0.7,0.6c-0.3,0-0.6,0.2-0.9,0.2c-0.1,0-0.1,0.1-0.1,0.1c0,0.1-0.1,0.2-0.2,0.1c0,0,0,0,0,0c-0.1,0-0.2-0.1-0.2-0.2
		c0,0,0,0,0,0c0-0.1,0-0.2,0-0.3c0-0.2-0.1-0.3-0.2-0.3c-0.1,0-0.3,0-0.3,0.2c0,0.1-0.1,0.1-0.1,0.2c0.1-0.1,0-0.4,0.1-0.6
		c0.2-0.3,0.3-0.7,0.4-1c0-0.1,0.1-0.1,0.2-0.2s0.2-0.1,0.1-0.2c-0.3-0.1-0.7,0-1,0.2c-0.1,0.1-0.3,0-0.5,0.1l0.2-0.3
		c-0.1-0.1-0.3-0.1-0.4-0.2c0-0.1,0.2-0.2,0.3-0.3c0.1-0.1,0,0,0,0l0,0c-0.2,0-0.3,0.1-0.4,0.2c-0.1,0.1-0.2,0.1-0.3,0.1
		c-0.3,0-0.7,0.1-0.9,0.3h-0.1c-0.5,0-0.7,0.4-1,0.7c-0.7,0.6-1.4,1.2-1.9,1.9c-0.4,0.5-0.7,1.1-0.7,1.7c-0.1,0.4-0.1,0.9,0,1.4
		c0.1-0.1,0.3-0.1,0.1-0.3c-0.1-0.2,0-0.5,0.1-0.7c0.1-0.4,0.2-0.5,0.7-0.5c0.2,0,0.4-0.1,0.5-0.2c0.8-0.6,1.8-1,2.8-1.2h0.1
		c0.5-0.1,1,0.1,1.2,0.5c0.4,0.5,0.8,1.1,1.1,1.7c0.3,0.4,0.5,0.9,0.5,1.4c0,0.2,0.1,0.4,0.2,0.5c-0.2,0-0.1-0.3-0.3-0.3
		C163.2,97,163.2,97.1,163.4,97.2z"/>
	<path class="st21" d="M162.9,90.2c0,0.1-0.1,0.2-0.2,0.2c-0.2,0.1-0.3,0.3-0.3,0.5c0,0.2,0,0.3-0.2,0.4c-0.1,0-0.2,0.2-0.2,0.3
		c0,0.3-0.1,0.6-0.1,0.9c0.1-0.1,0.1-0.3,0.2-0.4c0.1-0.1,0.2-0.3,0.4-0.2c0.2,0.1,0.1,0,0.1,0.1c0,0.1,0,0.2,0,0.3
		c0,0.3,0.1,0.4,0.4,0.4c0.3,0,0.3,0,0.3-0.1s0.1-0.2,0.3-0.2c0,0,0.1,0,0.1,0c0.2-0.2,0.4-0.1,0.7-0.2c0.5,0,0.7-0.2,0.7-0.7
		c0-0.1,0-0.1,0.1-0.2c0.1,0,0.1-0.1,0.2,0c0.1,0.2,0.3,0.2,0.5,0.2c0.2,0,0.3,0.1,0.3,0.3v0.2c0,0.2,0.1,0.5,0.2,0.7
		c0,0.1,0.1,0.1,0.1,0.2c0-0.1,0-0.2-0.1-0.3c-0.1-0.1-0.1-0.3-0.1-0.4c0.1-0.3,0.1-0.5,0-0.8c0-0.2-0.2-0.3-0.3-0.3l-1.1-0.5v-0.1
		c0.3,0.1,0.6,0.2,0.9,0.3c0.3,0.2,0.7,0.3,1,0.3c0.2,0,0.4,0.1,0.5,0.2c0.1,0.1,0.2,0.1,0.3,0.1c0.1-0.2,0.1-0.5-0.1-0.7
		c0,0,0,0,0,0c-0.3-0.2-0.6-0.5-0.9-0.9c-0.4-0.4-1-0.5-1.5-0.4c-0.2,0.1-0.4,0.1-0.6,0.1c-0.3,0-0.5,0-0.8,0c-0.1,0-0.1,0-0.1,0.1
		C163.3,90,163.2,90.1,162.9,90.2z"/>
	<path class="st21" d="M156.2,94.6c0.2-0.6,0.4-1.2,0.7-1.7c0,0-0.1,0.1,0,0c0.1-0.3,0.3-0.5,0.6-0.7c0.1-0.1,0.2-0.2,0-0.3
		c-0.6-0.4-1.2-0.7-1.8-0.9c-0.5-0.2-1.1-0.3-1.7-0.3c-0.4,0-0.7,0.2-0.7,0.6c0,0.1,0,0.2,0.1,0.3c0.2,0.6,0.6,1.1,1.1,1.4
		c0.4,0.3,0.7,0.5,1,0.9c0.1,0.2,0.3,0.4,0.4,0.6c0.1,0.1,0.1,0.2,0.2,0.3S156,94.6,156.2,94.6z"/>
	<path class="st22" d="M170.5,92.1c0.2,0,0.4,0.2,0.5,0.4c-0.1,0.1-0.3-0.1-0.3,0.1s0.1,0.2,0.1,0.3c0.1,0.1,0.2,0.3,0.3,0.5
		c0.1,0.2,0.1,0.5,0,0.7c0,0.1-0.1,0.1-0.2,0.1c-0.1,0-0.1,0-0.2-0.1c0-0.1,0,0,0,0s0-0.3-0.2-0.3c-0.2,0-0.1,0.2-0.1,0.3
		c0.1,0.4-0.2,0.8-0.6,1c-0.4,0.2-0.6,0.7-0.4,1.1c0,0.2,0.1,0.4,0.1,0.6c0,0.2,0,0.3-0.2,0.4c-0.2,0.1-0.3,0-0.4-0.1
		c-0.1-0.1-0.4-0.2-0.6,0.1c0,0,0,0,0,0.1c-0.2,0.6-0.5,1.2-0.9,1.6c-0.1,0.1-0.1,0.2-0.2,0.4c-0.1,0.3-0.1,0.5,0.2,0.6
		c0.1,0,0.2,0.1,0.2,0.2c0,0,0,0,0,0.1c-0.1,0.3-0.3,0.6-0.6,0.8c-0.3,0.2-0.5,0.4-0.7,0.7c-0.2,0.6-0.7,1.1-1.3,1.4
		c-0.5,0.3-1.1,0.4-1.7,0.4c-0.3-0.1-0.6-0.1-0.9-0.2c-0.1-0.1-0.2,0-0.1,0.1c0.4,0.2,0.9,0.3,1.3,0.3c0.3,0,0.6,0,0.9-0.1
		c0.4-0.1,0.8-0.3,1.2-0.6c0.3-0.3,0.6-0.6,0.8-1c0.2-0.3,0.4-0.6,0.7-0.8c0.3-0.2,0.5-0.5,0.6-0.8c0.1-0.2,0.1-0.4-0.1-0.5
		c0,0,0,0-0.1,0c-0.2-0.1-0.2-0.3-0.1-0.4c0.1-0.2,0.3-0.5,0.4-0.7c0.3-0.3,0.5-0.7,0.5-1.1c0-0.2,0.2-0.2,0.3-0.1
		c0.1,0.2,0.4,0.2,0.6,0.1c0.2-0.1,0.4-0.4,0.3-0.7c-0.1-0.3-0.1-0.6-0.1-0.9c0-0.2,0.1-0.5,0.3-0.6c0.3-0.1,0.5-0.4,0.6-0.7
		c0-0.1,0.1-0.2,0.2-0.2c0.2,0.1,0.2-0.2,0.3-0.2c0.1-0.6,0.1-1.3-0.2-1.9C171,92.2,170.8,92.1,170.5,92.1
		C170.4,92,170.5,92.1,170.5,92.1z"/>
	<path class="st23" d="M169.7,90.6c-0.4,0.2-0.7,0.4-1,0.7c-0.5,0.4-0.9,0.9-1.2,1.5c0.1,0.1,0.2,0,0.2-0.1c0-0.1,0.2-0.3,0.3-0.5
		c-0.1,0.1-0.2,0.3-0.3,0.4c-0.1,0.1-0.1,0.2-0.1,0.4c0,0.1-0.1,0.3,0,0.3c0.1,0.1,0.2-0.1,0.3-0.2c0.3-0.3,0.6-0.4,0.9-0.6
		c-0.2,0.1-0.3,0.2-0.5,0.4c-0.7,0.5-1,1.3-0.9,2.2c0.2,0.1,0.3,0,0.4-0.1c0.3-0.3,0.6-0.7,0.7-1.1c0.2-0.5,0.5-1.1,0.9-1.5l0.4-0.6
		c0.1-0.1,0.1-0.2,0.1-0.4c0-0.1,0-0.1,0-0.2c0-0.1,0.1-0.3-0.1-0.4l0,0C169.6,90.7,169.8,90.6,169.7,90.6z"/>
	<path class="st24" d="M163.5,89.8c0.3-0.1,0.6-0.1,0.9,0c0.2,0.1,0.5,0,0.7-0.1c0.2-0.1,0.4-0.1,0.6,0c0.1,0,0.2,0,0.2,0
		c0.2,0.1,0.4,0.2,0.6,0.4c0.3,0.2,0.4,0.6,0.8,0.8c0.3,0.1,0.4,0.4,0.3,0.7c0,0.1,0,0.1,0,0.2c0.3-0.2,0.4-0.5,0.3-0.8
		c-0.3-0.6-0.8-1.1-1.4-1.5c-0.4-0.2-0.9-0.3-1.4-0.1l-0.6,0.1c-0.4,0.1-0.7,0.2-1.1,0.1c-0.3-0.1-0.7,0-1,0.1
		c0.1,0.2,0.6-0.2,0.4,0.3c0.2,0.1,0.4,0.1,0.5-0.1c0,0,0,0,0-0.1C163.4,89.8,163.4,89.8,163.5,89.8z"/>
	<path class="st25" d="M162.4,103.2c0-0.1,0-0.2,0.1-0.1c0.6,0.2,1.2,0.3,1.8,0.3c0.1,0,0.1,0,0.2-0.1c0.2-0.1,0.3-0.2,0.5-0.2
		c0.1,0,0.2,0,0.2-0.2c-0.2,0.1-0.5,0.2-0.7,0.2c-0.4,0.1-0.9,0.1-1.3,0c-0.8-0.2-1.6-0.4-2.4-0.4c-0.2,0-0.4,0-0.6,0
		c0.1,0.1,0.2,0.2,0.3,0.3s0.1,0.4-0.2,0.4c-0.3,0-0.6,0-0.8-0.1c-0.3-0.1-0.6-0.2-0.9-0.3c-0.2-0.1-0.4,0-0.5,0.1c0,0,0,0,0,0
		c-0.3,0.4-0.7,0.6-1.2,0.6l-0.2,0.1c0,0.2,0.2,0.2,0.3,0.1c0.5,0,0.9-0.3,1.2-0.6c0.1-0.2,0.3-0.1,0.4-0.1c0.5,0.2,1,0.4,1.5,0.4
		c0.2,0,0.3,0,0.4-0.1c0.2,0,0.3-0.2,0.2-0.4c0,0,0,0,0,0c0-0.2,0.1-0.3,0.2-0.2c0.4,0,0.7,0.1,1.1,0.1
		C162.1,103.2,162.3,103.3,162.4,103.2z"/>
	<path class="st26" d="M167.7,95.8c-0.2-0.2-0.3-0.5-0.3-0.9c-0.1-0.5,0.1-1.1,0.4-1.5c0.3-0.5,0.8-0.7,1.1-1.1
		c-0.4,0.3-0.9,0.5-1.3,0.9c0-0.5,0.2-0.9,0.5-1.2c-0.1,0-0.2,0.2-0.3,0.3c-0.1,0.1-0.2,0.2-0.2,0.3c-0.1,0.1-0.1,0.2-0.2,0.2
		l-0.2,0.4c-0.1,0.2-0.2,0.5-0.1,0.7c0.2,0.8,0.2,1.6-0.1,2.3C167.3,96.1,167.6,96.1,167.7,95.8z"/>
	<path class="st27" d="M167,98c0,0-0.1-0.1,0-0.2c0.1,0,0.1-0.1,0.2-0.2s0-0.3,0.1-0.4c0.1-0.1,0.1-0.1,0-0.1
		c-0.1-0.1-0.1-0.1-0.2-0.1c-0.1,0-0.1,0-0.1,0.1c0,0,0,0.1,0,0.1l0,0c0,0-0.3-0.2-0.4,0c-0.1,0.2,0.1,0.2,0.1,0.4s0.1,0.1,0.1,0.2
		c0,0.1-0.4-0.1-0.2,0.3c-0.7-0.1-0.7-0.1-0.5,0.3c-0.1,0.1-0.2-0.1-0.3,0.1c0,0.2,0,0.2,0,0.3c0.1,0.1,0.2,0.1,0.3,0
		c0.3-0.2,0.6-0.4,0.9-0.6C166.9,98.2,167,98.1,167,98z"/>
	<path class="st28" d="M167.4,95c0.1,0,0.3,0,0.3-0.1c0.2-0.2,0.4-0.5,0.5-0.8c0.2-0.5,0.4-1,0.7-1.5c0.2-0.3,0.4-0.6,0.6-0.9
		c0.2-0.2,0.2-0.4-0.1-0.6c0.1,0,0.2,0,0.2,0c0-0.1,0-0.2,0-0.3c-0.1-0.1-0.2,0-0.3,0c-0.1,0,0.2-0.1,0.2-0.2c0-0.2,0.3-0.1,0.3,0.1
		c0.1,0.3,0.2,0.6,0.2,0.9c-0.1,0.4-0.3,0.8-0.6,1.1l0,0c-0.5,0.5-0.8,1.1-1,1.7c-0.2,0.6-0.5,1.1-0.9,1.5
		C167.4,95.7,167.3,95.3,167.4,95z"/>
	<path class="st29" d="M142.2,121.8c-0.2,0.2-0.4,0.3-0.2,0.5s0,0.1,0,0.2c-0.1,0.1-0.1,0.2,0,0.3c0,0.1,0.2,0.2,0.2,0.2
		c0,0,0.2-0.2,0.2-0.4C142.2,122.3,142.2,122.1,142.2,121.8z"/>
	<path class="st30" d="M178,113h-0.4v0.1L178,113L178,113z"/>
	<path class="st31" d="M161.5,89.6L161.5,89.6c0.1,0,0.3,0,0.4,0C161.8,89.6,161.6,89.6,161.5,89.6z"/>
	<path class="st32" d="M139.7,129.9c0.1-0.1,0.2-0.3,0.2-0.4C139.7,129.7,139.6,129.8,139.7,129.9L139.7,129.9z"/>
	<path class="st33" d="M152.3,123c-0.6,0.3-1,0.7-1.3,1.3c0.2,0,0.3-0.2,0.4-0.3C151.8,123.7,152.1,123.4,152.3,123z"/>
	<path class="st34" d="M154,119.3c0.2-0.2,0.3-0.4,0.4-0.6c0.1-0.2,0-0.5-0.2-0.6c-0.3-0.3-0.5-0.6-0.6-0.9c0,0,0-0.1,0-0.1
		c0.2-0.3,0-0.6-0.3-0.8c-0.2-0.2-0.4-0.4-0.4-0.7c0-0.3-0.2-0.6-0.5-0.7c-0.2-0.1-0.3-0.2-0.4-0.4c-0.1-0.2-0.2-0.2-0.3-0.1
		c-0.1,0.2-0.2,0.2-0.3,0.1c-0.1-0.1-0.2,0-0.2,0.1c0,0.1,0,0.1,0,0.2c0,0.3-0.2,0.5-0.5,0.6c0,0,0,0,0,0c-0.3,0-0.4,0.4-0.6,0.6
		l0,0c0.3,0.2,0,0.3-0.1,0.4c0,0.1,0,0.2,0,0.2c0.1,0.3,0.2,0.5,0.3,0.8c0.1,0.4,0.3,0.8,0.8,0.9c0.1,0,0.1,0.2,0.1,0.3
		c-0.1,0.2,0,0.5,0.3,0.5c0,0,0,0,0,0c0.1,0.1,0.2,0.1,0.3,0.2C152.5,120,153.4,120,154,119.3C154,119.3,154,119.3,154,119.3z"/>
	<path class="st33" d="M161.5,103.5c0.5,0.7,1.2,1.1,2.1,1.3c1.1,0.2,2,1,2.4,2.1c0,0.1,0.1,0.1,0.1,0.2c0,0,0,0,0.1,0
		c-0.2-0.9-0.6-1.7-1.3-2.2c-0.2-0.2-0.4-0.2-0.6-0.3C163.2,104.5,162.3,104.1,161.5,103.5z"/>
	<path class="st35" d="M160.2,96.9c0.2-0.3,0.5-0.4,0.6-0.7c0.3-0.4,0.5-0.9,0.5-1.4c0-0.1,0-0.2,0-0.4c0-0.3-0.2-0.4-0.5-0.3
		c-0.2,0.1-0.4,0.2-0.5,0.3c-0.1,0-0.2,0-0.2,0c-0.3,0-0.5,0.1-0.5,0.4c0,0.7,0.1,1.4,0.3,2C160,97.1,160.1,96.9,160.2,96.9z"/>
	<path class="st34" d="M163.4,97.2c-0.1-0.1-0.1-0.2-0.1-0.3c0.1-0.2,0.1-0.5,0-0.8c-0.4-1.1-1-2.1-1.9-2.9c-0.1,0-0.1-0.1-0.2,0
		c0.2,0.3,0.5,0.5,0.7,0.8c0.4,0.6,0.7,1.3,1,2c0.1,0.4,0.2,0.8,0.2,1.2c0,0.3,0,0.6-0.1,1c-0.1,0.7-0.2,1.5-0.3,2.2
		c-0.1,0.4,0.2,0.7,0.6,0.8c0,0,0,0,0,0c0.3,0.1,0.5,0.1,0.8,0h-0.5c-0.2,0-0.4-0.1-0.5-0.4c0,0,0-0.1,0.1-0.1
		c0.6,0.1,1.2,0.1,1.7-0.1c0.4,0,0.8-0.2,1.1-0.3c-0.3,0-0.7,0.1-1,0.2c-0.4,0.1-0.7,0.1-1.1,0.1c-0.3,0-0.5-0.2-0.6-0.5
		c-0.1-0.4-0.1-0.9,0-1.3c0.1-0.4,0.1-0.9,0.1-1.4c0-0.3,0.1-0.2,0.2-0.1L163.4,97.2z"/>
	<path class="st22" d="M163.1,96.2c0,0.2,0.1,0.5,0.1,0.7c0.1,0,0.1,0.2,0.2,0.3c0,0.1,0.1,0.1,0.2,0.1c0,0,0.1,0,0.1-0.1
		c0-0.1-0.1-0.1-0.1-0.1c-0.1-0.1-0.2-0.3-0.2-0.5c0-0.2-0.1-0.3-0.1-0.5c-0.4-0.9-1-1.8-1.6-2.6c-0.3-0.4-0.8-0.5-1.2-0.4
		c-1.1,0.2-2.1,0.7-2.9,1.3c-0.1,0.1-0.2,0.1-0.3,0.1c-0.1,0-0.2,0-0.4,0c-0.2,0.1-0.4,0.2-0.4,0.5c0,0.2-0.1,0.4-0.1,0.6
		c0,0.1,0,0.2,0,0.2c0,0,0.1,0,0.1,0v-0.1c0.3,0,0.2-0.2,0.2-0.4c0-0.4,0.2-0.6,0.6-0.5c0.1,0,0.2,0,0.3-0.1c0.8-0.6,1.6-1,2.5-1.3
		c0.3-0.1,0.7-0.1,1-0.1c0.1,0,0.1,0.1,0.2,0.1c0.1,0.1,0.3,0.2,0.4,0.4c0.6,0.7,1.1,1.5,1.4,2.4C163.1,96.1,163.1,96.1,163.1,96.2z
		"/>
	<path class="st36" d="M164,97.2c0-0.8-0.2-1.5-0.6-2.2c-0.3-0.5-0.7-0.9-1-1.3c-0.1-0.2-0.3-0.4-0.4-0.5c0.1,0.3,0.3,0.7,0.6,0.9
		c0.2,0.3,0.4,0.6,0.6,0.8c0.4,0.6,0.5,1.2,0.6,1.9c0,0.1,0,0.3,0,0.4c0,0.8,0,1.5-0.2,2.2c-0.1,0.3,0.1,0.7,0.4,0.8
		c0.1,0,0.2,0,0.3,0c0.4,0,0.8-0.1,1.2-0.2c-0.2-0.1-0.4,0-0.7,0.1c-0.2,0-0.5,0-0.7,0c-0.2,0-0.4-0.2-0.3-0.4c0-0.2,0-0.5,0-0.7
		c0.1-0.5,0.1-1.1,0.1-1.6C163.9,97.4,164,97.3,164,97.2z"/>
	<path class="st35" d="M165.5,94.8c0.1,0.1,0.1-0.1,0.2-0.1c0.2-0.1,0.4-0.2,0.6-0.2c0.2,0,0.4-0.4,0.3-0.6c0-0.1-0.1-0.2-0.1-0.2
		c0-0.1-0.2-0.2-0.3-0.2c0,0-0.1,0-0.1,0c-0.1,0.1-0.3,0.2-0.4,0.3c-0.1,0.1-0.2,0.2,0,0.4c0.2,0.2,0,0.3-0.1,0.4
		C165.5,94.8,165.4,94.7,165.5,94.8z"/>
	<path class="st37" d="M165.3,95c0,0-0.1,0.1,0,0.1c0,0,0.1,0,0.1,0c0,0,0,0,0,0c0,0,0-0.1,0-0.1C165.5,95,165.4,94.9,165.3,95z"/>
	<path class="st38" d="M154.4,92.1c0.3,0.3,0.6,0.5,0.9,0.7c0.1,0,0.2,0.1,0.2,0c0.2-0.2,0.5-0.4,0.7-0.7c0,0,0.1-0.1,0-0.1
		c0,0,0,0,0,0c-0.3-0.3-0.7-0.5-1.1-0.6C154.8,91.5,154.5,91.6,154.4,92.1z"/>
	<path class="st39" d="M154.4,92.1c0.2-0.3,0.4-0.5,0.7-0.7c0,0,0-0.1,0-0.1c-0.4-0.2-0.8-0.4-1.2-0.5c-0.1,0-0.2,0-0.3,0.1
		c-0.1,0.1,0,0.2,0,0.3C153.8,91.5,154.1,91.8,154.4,92.1z"/>
	<path class="st40" d="M160.5,95.1c0.1,0.1,0.2,0.1,0.3,0c0,0,0,0,0,0c0.1-0.1,0-0.1,0-0.2c-0.1-0.1-0.2-0.1-0.3,0
		C160.4,94.9,160.4,95,160.5,95.1z"/>
	<path class="st41" d="M160.6,94.5c0.2,0,0.3,0,0.4,0.1s0.1,0.1,0.1,0c0,0,0-0.1,0-0.2c0-0.1-0.1,0-0.1,0L160.6,94.5z"/>
	<path class="st42" d="M160.3,96L160.3,96c0.1,0.1,0.2,0.2,0.3,0.2l0,0C160.5,96.1,160.4,96,160.3,96z"/>
	<path class="st43" d="M160.4,95.9c0-0.2-0.1-0.3-0.2-0.4C160.2,95.7,160.3,95.9,160.4,95.9z"/>
	<path class="st44" d="M160.2,96.4c0,0.1,0,0.2,0,0.3C160.4,96.6,160.4,96.5,160.2,96.4z"/>
	<path class="st20" d="M163.1,96.2c0-0.4-0.2-0.8-0.4-1.1c-0.3-0.6-0.7-1.1-1.2-1.6c-0.1-0.1-0.1-0.1-0.1-0.2c0-0.1-0.1,0-0.1,0
		C162.1,94.1,162.7,95.1,163.1,96.2z"/>
	<path class="st6" d="M147.4,111.7c0,1.8-0.3,5.4-1.4,7.1c-1.8,2.6-6.3,4.1-8.2,4.5c1.6-1.5,2.5-2.8,2.3-3.9c0-0.3-0.8,0.7-1.9,0.7
		c0.4-0.7,0.7-1.5,0.7-2.3c0.2-1.2,0.6-2.3,1.3-3.2c1.8-1.8,4.1-2.9,6.5-3.4L147.4,111.7z"/>
	<path class="st7" d="M147.4,111.7c0,1.7-0.5,3.3-1.3,4.8c-1,1.1-4.1,2-5.6,3c0.5-0.9,0.9-1.9,1-2.9c0-0.7,0.1-1.4,0.4-2
		c0.8-1.1,1.9-1.9,3.1-2.6c0.6-0.4,1.2-0.7,1.8-0.9L147.4,111.7z"/>
	<path class="st8" d="M147.4,111.7c-0.1,0.9-0.8,3.5-1.7,4c-0.9,0.5-1.5,0.2-3.1,1c0.1-0.6,1.1-1.3,0.9-1.9c-0.4,0.2-0.5,0.4-1,0.5
		c0.5-0.4,0.6-1.1,1-1.7c0.6-0.7,1.3-1.2,2.1-1.5c0.4-0.2,0.8-0.5,1.1-0.8L147.4,111.7z"/>
	<path class="st9" d="M146.8,112c1.2,1,2.5,1.5,2.7,1.1l-0.5,0.6c-0.3,0.3-1.5-0.2-2.7-1.1c-1.2-0.9-2-2.1-1.7-2.4l0.5-0.6
		C144.8,110,145.6,111.1,146.8,112z"/>
	<path class="st9" d="M146.2,112.8c0.9,0.8,1.9,1.1,2.1,0.9l-0.4,0.5c-0.2,0.3-1.1-0.1-2.1-0.9c-0.9-0.8-1.5-1.6-1.3-1.8l0.4-0.5
		C144.7,111.2,145.3,112,146.2,112.8z"/>
	<path class="st16" d="M155.7,104.1c-0.9,2.5-2.2,4.9-3.9,7l-1.8,2.2c-1.1-0.4-2.1-0.9-3-1.5c-0.8-0.8-1.5-1.6-2.1-2.6
		c0,0,0.7-1,1.8-2.2c1.9-2.3,2.8-3.5,4.4-4.4c0.8,0.5,1.6,0.8,2.5,1.1C154.2,103.8,155,103.9,155.7,104.1z"/>
	<path class="st9" d="M147.5,111.2c1.4,1.1,2.9,1.8,3.2,1.4l-0.6,0.7c-0.3,0.4-1.8-0.2-3.2-1.4c-1.4-1.2-2.3-2.4-2-2.8l0.6-0.7
		C145.2,108.7,146.1,110,147.5,111.2z"/>
	<polygon class="st16" points="144.8,109.2 144.9,109.2 144.9,109.2 	"/>
	<path class="st13" d="M145.5,110.7c-0.2,0.2-0.3,0.4-0.5,0.7c-0.1-0.1-0.1-0.1-0.1-0.2c0-0.1,0-0.2,0-0.2l-0.1,0.1
		c-0.3-0.4-0.3-0.7-0.2-0.9l0.4-0.5l0.1,0.1C145.1,110.2,145.3,110.4,145.5,110.7z"/>
	<path class="st13" d="M144.9,111.2c0,0.1,0,0.2,0.1,0.2c-0.1,0.2-0.2,0.3-0.3,0.5c-0.1-0.2-0.2-0.4-0.1-0.5l0.3-0.3l0.1-0.1
		C144.9,111,144.9,111.1,144.9,111.2z"/>
	<path class="st14" d="M146.9,108.8l-0.8,1c-0.5-0.6-0.8-1.1-0.7-1.4c0.3-0.4,0.7-0.9,1.1-1.5c1.9-2.3,2.8-3.5,4.4-4.4
		c0.3,0.1,0.7,0.3,1,0.5C150.1,104.5,148.9,106.4,146.9,108.8z"/>
	<path class="st13" d="M146.1,109.8c-0.2,0.2-0.4,0.5-0.6,0.8c-0.2-0.2-0.4-0.5-0.5-0.7l-0.1-0.1c-0.1-0.2-0.1-0.3-0.1-0.5l0,0
		c0,0,0-0.1,0-0.1l0.6-0.7c0,0,0,0.1,0,0.1C145.4,108.7,145.6,109.2,146.1,109.8z"/>
	<path class="st45" d="M151.4,100.1c-0.3-0.3-0.2-0.5,0.1-0.7c0.3-0.1,0.6-0.2,1-0.2c0.7-0.1,1.4-0.1,2.1-0.1h0.9
		c0.1,0,0.2,0,0.2,0.1c0.2,0.2,0.5,0.4,0.8,0.6c0.1,0,0.2,0.1,0.4,0.1c0.1,0,0.4,0.3,0.4,0.5c0,0.3,0,0.6,0.1,0.9
		c0.1,0.4,0.1,0.8-0.4,1c0,0,0,0,0,0.1c0,0.1,0.3,0,0.5,0.1c-0.1,0.1-0.2,0.2,0,0.3c0.2,0.1,0.1,0.3-0.1,0.4c-0.2,0.1-0.4,0-0.6,0
		l0,0c-0.2,0-0.4,0-0.3-0.3c0.1-0.3-0.1-0.3-0.3-0.3c-0.1,0-0.1,0-0.2-0.1l0,0c-0.2-0.1-0.4-0.1-0.6-0.2c-0.1,0-0.2-0.1-0.2-0.2
		c0-0.1-0.1-0.2-0.2-0.2l0,0c-0.6-0.1-1.1-0.3-1.6-0.6C152.6,101.1,151.9,100.6,151.4,100.1z"/>
</g>
</svg>
