<svg id="Layer_3" data-name="Layer 3" xmlns="http://www.w3.org/2000/svg" viewBox="0 0 251 151"><defs><style>.cls-1{fill:#e84c59;}.cls-2{fill:#ee7b5c;}.cls-3{fill:#f9c862;}.cls-4{fill:#062633;}.cls-5{fill:#abaaaa;}.cls-6{fill:#e1dfe0;}.cls-7{fill:none;}.cls-8{fill:#041d26;}.cls-9{fill:#6e6e6e;}.cls-10{fill:silver;}.cls-11{fill:#5e3e21;}.cls-12{fill:#54371d;}.cls-13{fill:#6d3325;}.cls-14{fill:#783a28;}.cls-15{fill:#8f4729;}.cls-16{fill:#dcb680;}.cls-17{fill:#c69666;}.cls-18{fill:#662f1e;}.cls-19{fill:#231d13;}.cls-20{fill:#574c3e;}.cls-21{fill:#442c1a;}.cls-22{fill:#2096d4;}</style></defs><title>Kaspar</title><path class="cls-1" d="M167.87,103.26c-1.05,3.16-2.72,9.3-1.73,12.92,1.53,5.6,8.24,10.7,11.36,12.52-1.87-3.54-2.51-6.26-1.67-8,.27-.56,1,1.65,2.84,2.33a9.62,9.62,0,0,1,.16-4.4,12.5,12.5,0,0,0-.31-6.31c-2.52-5.81-8-8.82-9.17-9.58Z"/><path class="cls-2" d="M167.87,103.26c-.57,1.34-1.53,6.36-.58,8.9s5.81,5.82,7.85,8.55c-.16-2.56-.65-3.52,0-5.57a6.67,6.67,0,0,0,.47-3.61c-.13-1.23-1.86-4-3.74-6.19a13.9,13.9,0,0,0-2.51-2.63Z"/><path class="cls-3" d="M167.87,103.26c-.39,1.66-.73,6.39.52,7.87s2.49,1.3,4.66,3.46c.2-1-1.07-2.83-.43-3.83.51.61.65,1.08,1.42,1.42-.53-1-.32-2.17-.69-3.51-.43-1.57-1.71-2.71-2.66-3.89a10,10,0,0,1-1.34-2.07Z"/><path class="cls-4" d="M168.66,104.1c-2.69,1-5.09,1.12-5.37.36l.5,1.38c.27.76,2.67.59,5.36-.37s4.66-2.36,4.39-3.11l-.49-1.38C173.32,101.74,171.35,103.13,168.66,104.1Z"/><path class="cls-4" d="M169.25,105.75c-2,.73-3.84.85-4,.28l.37,1c.2.57,2,.45,4-.27s3.51-1.78,3.3-2.35l-.37-1C172.76,104,171.28,105,169.25,105.75Z"/><path class="cls-5" d="M158.38,86.88a36.19,36.19,0,0,0,2.35,12.72l1.74,4.85a24.26,24.26,0,0,0,6-.84,24.69,24.69,0,0,0,5.18-3.1S173,98.44,172,95.57a35.73,35.73,0,0,0-6.33-11.27,15.92,15.92,0,0,1-7.28,2.58Z"/><path class="cls-6" d="M160.19,80.28c-.64.23-1.73,2.53-1.81,6.6a16.27,16.27,0,0,0,3.85-.86,16.08,16.08,0,0,0,3.45-1.71C163.08,81.3,160.8,80,160.19,80.28Z"/><path class="cls-4" d="M168,102.23c-3.12,1.12-5.91,1.31-6.22.43l.57,1.59c.31.88,3.1.69,6.22-.42s5.41-2.74,5.09-3.62l-.57-1.6C173.4,99.5,171.12,101.11,168,102.23Z"/><path class="cls-7" d="M173,101.47a8.71,8.71,0,0,1-1.32.93l.06.22A3.66,3.66,0,0,0,173,101.47Z"/><path class="cls-7" d="M172.48,103.82c-.1.08-.22.15-.34.23a.28.28,0,0,1,0,.13A2.31,2.31,0,0,0,172.48,103.82Z"/><path class="cls-8" d="M171.73,102.62c.15.48.28,1,.41,1.43.12-.08.24-.15.34-.23a.49.49,0,0,0,.1-.43l.1.29c.66-.51,1-1,.88-1.34l-.38-1.06-.19.19A3.66,3.66,0,0,1,171.73,102.62Z"/><path class="cls-8" d="M172.48,103.82a1.69,1.69,0,0,1-.3.36c.1.37.2.74.29,1.1.37-.33.56-.63.48-.85l-.27-.75-.1-.29A.49.49,0,0,1,172.48,103.82Z"/><path class="cls-9" d="M170.41,98.57c.27.74.52,1.47.75,2.2,1.23-.73,2-1.47,2-2-.28-.84-.65-1.94-1.1-3.2a35.43,35.43,0,0,0-6.33-11.27,15.15,15.15,0,0,1-1.7,1A62.84,62.84,0,0,1,170.41,98.57Z"/><path class="cls-10" d="M165.7,84.29c-2.6-3-4.88-4.24-5.49-4a.87.87,0,0,0-.26.18,21.47,21.47,0,0,1,4,4.81A14.32,14.32,0,0,0,165.7,84.29Z"/><path class="cls-8" d="M171.16,100.77c.18.55.35,1.09.51,1.63a8.71,8.71,0,0,0,1.32-.93l.19-.19a1.6,1.6,0,0,0,.5-.78h0a.45.45,0,0,0,0-.28l-.57-1.6a.43.43,0,0,1,0,.16C173.14,99.3,172.39,100,171.16,100.77Z"/><path class="cls-1" d="M176.54,103.5c-1,3.16-2.73,9.31-1.74,12.92,1.54,5.61,8.24,10.7,11.37,12.52-1.88-3.54-2.51-6.25-1.68-8,.27-.57,1,1.65,2.84,2.33a9.66,9.66,0,0,1,.17-4.41c.3-1.58.47-4.49-.32-6.3-2.51-5.81-8-8.83-9.16-9.59Z"/><path class="cls-2" d="M176.54,103.5c-.58,1.34-1.53,6.36-.58,8.9s5.81,5.82,7.84,8.55c-.15-2.56-.64-3.52,0-5.57a6.58,6.58,0,0,0,.46-3.61c-.12-1.22-1.85-4-3.73-6.19A14.54,14.54,0,0,0,178,103Z"/><path class="cls-3" d="M176.54,103.5c-.39,1.66-.74,6.39.52,7.87s2.49,1.31,4.66,3.46c.2-1-1.08-2.82-.43-3.83.51.62.65,1.08,1.42,1.43-.54-1-.33-2.18-.69-3.52-.43-1.57-1.71-2.71-2.67-3.88A10.35,10.35,0,0,1,178,103Z"/><path class="cls-4" d="M177.33,104.34c-2.7,1-5.1,1.12-5.37.37l.49,1.37c.27.76,2.68.59,5.37-.37s4.65-2.35,4.38-3.11l-.49-1.38C182,102,180,103.38,177.33,104.34Z"/><path class="cls-4" d="M177.93,106c-2,.73-3.84.85-4,.28l.37,1c.2.57,2,.44,4-.28s3.5-1.78,3.3-2.35l-.37-1C181.42,104.22,179.93,105.27,177.93,106Z"/><path class="cls-5" d="M167,87.12a36.43,36.43,0,0,0,2.36,12.72c1,2.79,1.73,4.85,1.73,4.85a24.73,24.73,0,0,0,6-.83,25.16,25.16,0,0,0,5.18-3.11s-.63-2.07-1.66-4.94a35.19,35.19,0,0,0-6.33-11.26,16.2,16.2,0,0,1-3.44,1.7A15.63,15.63,0,0,1,167,87.12Z"/><path class="cls-6" d="M168.86,80.52c-.64.23-1.73,2.53-1.82,6.6a15.89,15.89,0,0,0,3.86-.87,16.2,16.2,0,0,0,3.44-1.7C171.74,81.54,169.46,80.3,168.86,80.52Z"/><path class="cls-4" d="M176.66,102.47c-3.12,1.12-5.91,1.31-6.23.43l.57,1.59c.32.88,3.11.69,6.23-.42s5.4-2.74,5.09-3.62l-.57-1.59C182.06,99.74,179.79,101.36,176.66,102.47Z"/><path class="cls-7" d="M181.65,101.71a8.15,8.15,0,0,1-1.31.93l.06.22A3.83,3.83,0,0,0,181.65,101.71Z"/><path class="cls-7" d="M181.15,104.07l-.34.22v.13A1.61,1.61,0,0,0,181.15,104.07Z"/><path class="cls-8" d="M180.4,102.86c.14.48.28,1,.41,1.43l.34-.22a.48.48,0,0,0,.09-.43l.1.28c.67-.51,1-1,.89-1.33l-.38-1.06-.2.18A3.83,3.83,0,0,1,180.4,102.86Z"/><path class="cls-8" d="M181.15,104.07a1.47,1.47,0,0,1-.31.35c.11.37.2.74.29,1.1.38-.32.56-.62.48-.85l-.27-.75-.1-.28A.48.48,0,0,1,181.15,104.07Z"/><path class="cls-9" d="M179.08,98.81c.26.74.51,1.47.75,2.2,1.22-.73,2-1.47,2-2-.28-.85-.66-2-1.11-3.21a35.36,35.36,0,0,0-6.32-11.26,15.15,15.15,0,0,1-1.7,1A63.83,63.83,0,0,1,179.08,98.81Z"/><path class="cls-10" d="M174.37,84.54c-2.6-3-4.88-4.25-5.49-4a.87.87,0,0,0-.26.18,22,22,0,0,1,4,4.81A16.77,16.77,0,0,0,174.37,84.54Z"/><path class="cls-8" d="M179.83,101c.18.55.34,1.09.51,1.63a8.15,8.15,0,0,0,1.31-.93l.2-.18a1.75,1.75,0,0,0,.5-.79h0a.48.48,0,0,0,0-.29l-.57-1.59a.43.43,0,0,1,0,.16C181.81,99.54,181.05,100.28,179.83,101Z"/><path class="cls-11" d="M135,69.84c-.58-1.34-2.24-4.18-5.15-2.4s.68,5.1.68,5.1Z"/><path class="cls-12" d="M160.71,107.28c-.33-.23-2.48,4.34-2.48,4.34a10.36,10.36,0,0,0,2.23-.09,12.19,12.19,0,0,0-.6,1.26c-1,2.61-.72,5.16.67,5.7,1,.39,1.71-2.07,2.58-4.43.45-1.19,1-2.32,1.32-3.2h0l.59-1.5s-.33-.8-2.69-.67C161.93,108.74,161,107.52,160.71,107.28Z"/><path class="cls-13" d="M163.65,101c1.66,1,1.41,2,1.73,2.94a15.16,15.16,0,0,1,.52,2.93c.12.93.22,2,.27,2.92l.08,1.46a4.45,4.45,0,0,1,0,.73,1.15,1.15,0,0,1-.71.72l-9.44-.15a1.2,1.2,0,0,1-.69-.74,4.45,4.45,0,0,1,0-.73l.12-1.46q.12-1.45.36-2.91c.16-1,.38-1.94.62-2.91s.12-1.94,1.82-2.89Z"/><path class="cls-11" d="M169.08,107.85c-.4.08.86,3.11.86,3.11a2.82,2.82,0,0,0,2.1,0,8.92,8.92,0,0,0,.52,1.29c1.22,2.52,3.31,4,4.65,3.38.94-.46-.37-2.67-1.51-4.91-.58-1.13-1-2.3-1.47-3.13h0l-.71-1.45s-.8-.31-2.31,1.53C170.93,108,169.48,107.77,169.08,107.85Z"/><path class="cls-14" d="M169.35,98.85c1.94.2,2.12,1.18,2.82,1.93a16,16,0,0,1,1.72,2.43c.53.83,1,1.67,1.48,2.53l.69,1.29a3.35,3.35,0,0,1,.32.66,1.14,1.14,0,0,1-.34,1l-8.61,3.87a1.2,1.2,0,0,1-.94-.38,5.72,5.72,0,0,1-.28-.68l-.5-1.37c-.34-.91-.64-1.84-.91-2.79s-.48-1.92-.67-2.9-.71-1.81.42-3.39Z"/><path class="cls-14" d="M155.45,90.73c-.16.62-.34.82-.53.93s-.38.25-.57.36a5,5,0,0,1-1.19.36c-.39,0-.8.07-1.2.08a11.54,11.54,0,0,1-1.16-.16,24.24,24.24,0,0,1-4.36-1.45A32.3,32.3,0,0,1,138.93,86a38,38,0,0,1-6-6.41,35.29,35.29,0,0,1-2.38-3.78,8.75,8.75,0,0,1-.9-2.14,7.83,7.83,0,0,1-.14-1.27,1.75,1.75,0,0,1,.15-.72l.2-.41c0-.12.16-.27.89-.57l2.58-.72c.78-.14,1-.13,1-.09l.35.09a1.34,1.34,0,0,1,.5.23,4.63,4.63,0,0,1,.65.6,7.78,7.78,0,0,1,1,1.47c.61,1,1.3,2.06,2,3.07a69.42,69.42,0,0,0,4.64,5.89,34.87,34.87,0,0,0,5.44,5A16.25,16.25,0,0,0,152,88a4.83,4.83,0,0,1,.81.35,5.67,5.67,0,0,1,.8.45,3.42,3.42,0,0,1,.84.56l.44.38c.16.12.31.32.5,1Z"/><path class="cls-15" d="M146.29,81.74A11,11,0,1,0,154,68.19h0A11,11,0,0,0,146.29,81.74Z"/><path class="cls-15" d="M151.8,104.49l.87,3.13c.81,3.06,6.3,2,13,.08,5.79-1.61,12.64-3.19,11.47-7.47h0c-2.31-11.42-8-19.94-17.7-17.26h0c-9.6,2.66-10.36,10-8.67,17.77v.15l.13.44C151.17,102.35,151.46,103.4,151.8,104.49Z"/><path class="cls-16" d="M152.87,95.34c1.11-.46,1.82-2.13,3.26-3.15,2-1.4,2.32-3.51,2.28-2.59s.73,1.28.73,1.15-.23.17-.17-1.22,1.71-2.2,2.69-4.71a15.89,15.89,0,0,0,.79-2.77,5.54,5.54,0,0,1,.26,1.14c1.65-8.29-1.76-12.67-2.21-13a3,3,0,0,1,1.3.55c-1.16-2.46-2.91-2.58-3.18-2.61a1.5,1.5,0,0,1,1.26-.37,3.34,3.34,0,0,0-2.95-1.61,1.27,1.27,0,0,0-1.06.73,2.25,2.25,0,0,0-1.72-2.71h-.05c1.11,2.51.67,2.07.6,2.17s-1.44-1.2-2.72-1.23a1.39,1.39,0,0,1,.7.73c-1.32-.49-2.79-1.21-5.36.79a3.31,3.31,0,0,1,2,.43,9.8,9.8,0,0,0-5.79,7.16c.2-.14,1.29-1,1.45-.81-.78.7-3.34,3.17-1.14,12,0-.47.29-1.55.52-1.54-.27.84.56,3.25,3.09,5.34C150.93,92,152.38,93.6,152.87,95.34Z"/><path class="cls-11" d="M146,79.11c-.24-4.24,2.2-7.86,5.22-8s5.68,3.13,5.92,7.38a9.21,9.21,0,0,1-1.8,6.2c-1.31,1.7-2.41,3.11-2.51,4.75-.64-2.22-2.21-2.8-4.09-4.29A8.45,8.45,0,0,1,146,79.11Z"/><path class="cls-17" d="M145.84,78c-.07,4.11,2,7.58,5.16,7.64s6.5-3.36,6.58-7.47-2.4-7.49-5.54-7.55S145.93,73.88,145.84,78Z"/><path class="cls-18" d="M150,76.73a4.78,4.78,0,0,0-1.19-.27,2.31,2.31,0,0,0-1.22.11,2.67,2.67,0,0,1,1.22-.34,5.14,5.14,0,0,1,1.3.07Z"/><path class="cls-18" d="M151.66,76.37a4.94,4.94,0,0,1,1.33,0,2.43,2.43,0,0,1,1.23.37,2.35,2.35,0,0,0-1.23-.15,5.68,5.68,0,0,0-1.21.26Z"/><polygon class="cls-19" points="151.91 77.39 153.16 77.4 151.96 77.68 151.91 77.39"/><path class="cls-19" d="M149.82,77.54l-.71-.31a3.09,3.09,0,0,0-.74-.26,3.34,3.34,0,0,1,.78.11l.77.18Z"/><path class="cls-20" d="M151.93,79a1.17,1.17,0,0,1-.29,1.23,1.61,1.61,0,0,1-1.24.47,1.34,1.34,0,0,1-1.16-.63,1.25,1.25,0,0,1,0-1.27,1.06,1.06,0,0,0,0,.61,1.52,1.52,0,0,0,.25.53,1.15,1.15,0,0,0,1,.46,1.58,1.58,0,0,0,1.07-.34A1.21,1.21,0,0,0,151.93,79Z"/><path class="cls-19" d="M152.34,82.22a1,1,0,0,1-.33.94,1.29,1.29,0,0,1-.45.27,1.51,1.51,0,0,1-.52,0,2.35,2.35,0,0,1-.92-.32,1.57,1.57,0,0,1-.62-.68,1.78,1.78,0,0,0,1.53.44l.35-.09a2,2,0,0,0,.35-.09A1.11,1.11,0,0,0,152.34,82.22Z"/><path class="cls-21" d="M153.08,70.76a5.4,5.4,0,0,0-2.4,0c-2.08.49-3.53,2.7-3.88,3.29a2.18,2.18,0,0,1,1.77,0l.29.14.89-1.9.09,2.37c3.24,1.22,6.93-1.48,7.52,1.22-.56-2.55-2.24-4.63-4.31-5.15"/><path class="cls-11" d="M183.23,97.76c1.36.22,4.47.34,4.58-3s-1.34-2.13-2.06-1.91a3.17,3.17,0,0,1-2.34-.18Z"/><path class="cls-14" d="M163.93,86.85c.5-.4.72-.48.88-.49l.51-.07a2.57,2.57,0,0,1,.83.07c.24.06.49.11.71.18a3.23,3.23,0,0,1,.62.3c.38.23.79.42,1.19.62s.8.39,1.21.56a40.7,40.7,0,0,0,4.91,1.7c1.64.46,3.29.77,5,1.09.41.09.83.15,1.24.22l1.26.2a3.27,3.27,0,0,1,1.27.29,2.93,2.93,0,0,1,.63.4,1.11,1.11,0,0,1,.31.4l.16.32c0,.07.1.23.13,1l-.09,2.67c-.08.79-.15.94-.22,1l-.2.3a1.29,1.29,0,0,1-.4.37,4.21,4.21,0,0,1-.79.32,4.6,4.6,0,0,1-1.57,0,27.52,27.52,0,0,1-3.12-.43,24.15,24.15,0,0,1-6-2.09,28.26,28.26,0,0,1-5.24-3.42c-.4-.32-.79-.66-1.17-1l-1.13-1a3.6,3.6,0,0,1-.93-1.26,3.17,3.17,0,0,1-.27-.84,1.8,1.8,0,0,0-.05-.51,1.74,1.74,0,0,1,.34-1Z"/><path class="cls-22" d="M156.28,77.48s-.3.74-.15.93S156.46,78.22,156.28,77.48Z"/><path class="cls-22" d="M155.77,74.72s-.2.5-.1.63S155.93,75.22,155.77,74.72Z"/><path class="cls-22" d="M147.13,74s-.29.74-.15.93S147.32,74.79,147.13,74Z"/></svg>