<?xml version="1.0" encoding="utf-8"?>
<!-- Generator: Adobe Illustrator 22.1.0, SVG Export Plug-In . SVG Version: 6.00 Build 0)  -->
<svg version="1.1" id="Layer_3" xmlns="http://www.w3.org/2000/svg" xmlns:xlink="http://www.w3.org/1999/xlink" x="0px" y="0px"
	 viewBox="0 0 251 151" style="enable-background:new 0 0 251 151;" xml:space="preserve">
<style type="text/css">
	.st0{fill:#E84C59;}
	.st1{fill:#EE7B5C;}
	.st2{fill:#F9C862;}
	.st3{fill:#062633;}
	.st4{fill:#ABAAAA;}
	.st5{fill:#E1DFE0;}
	.st6{fill:none;}
	.st7{fill:#041D26;}
	.st8{fill:#6E6E6E;}
	.st9{fill:#C0C0C0;}
	.st10{fill:#5E3E21;}
	.st11{fill:#54371D;}
	.st12{fill:#6D3325;}
	.st13{fill:#783A28;}
	.st14{fill:#8F4729;}
	.st15{fill:#DCB680;}
	.st16{fill:#C69666;}
	.st17{fill:#662F1E;}
	.st18{fill:#231D13;}
	.st19{fill:#574C3E;}
	.st20{fill:#442C1A;}
	.st21{fill:#2096D4;}
</style>
<title>Kaspar</title>
<path class="st0" d="M170.8,104.2c-1.7,5-4.3,14.8-2.8,20.6c2.4,8.9,13.1,17,18.1,19.9c-3-5.6-4-10-2.7-12.7
	c0.4-0.9,1.6,2.6,4.5,3.7c-0.5-2.3-0.4-4.7,0.3-7c0.7-3.3,0.5-6.8-0.5-10c-4-9.2-12.7-14-14.6-15.3L170.8,104.2z"/>
<path class="st1" d="M170.8,104.2c-0.9,2.1-2.4,10.1-0.9,14.2c1.5,4,9.2,9.3,12.5,13.6c-0.3-4.1-1-5.6,0-8.9c0.8-1.8,1-3.8,0.7-5.7
	c-0.2-2-3-6.4-6-9.9c-1.1-1.6-2.5-3-4-4.2L170.8,104.2z"/>
<path class="st2" d="M170.8,104.2c-0.6,2.6-1.2,10.2,0.8,12.5s4,2.1,7.4,5.5c0.3-1.6-1.7-4.5-0.7-6.1c0.8,1,1,1.7,2.3,2.3
	c-0.8-1.6-0.5-3.5-1.1-5.6c-0.7-2.5-2.7-4.3-4.2-6.2c-0.8-1-1.6-2.1-2.1-3.3L170.8,104.2z"/>
<path class="st3" d="M172.1,105.6c-4.3,1.6-8.1,1.8-8.5,0.6l0.8,2.2c0.4,1.2,4.3,0.9,8.5-0.6c4.3-1.5,7.4-3.8,7-5l-0.8-2.2
	C179.5,101.8,176.4,104,172.1,105.6z"/>
<path class="st3" d="M173,108.2c-3.2,1.2-6.1,1.4-6.4,0.4l0.6,1.6c0.3,0.9,3.2,0.7,6.4-0.4c3.2-1.1,5.6-2.8,5.3-3.7l-0.6-1.6
	C178.6,105.4,176.2,107,173,108.2z"/>
<path class="st4" d="M155.7,78.2c0,6.9,1.3,13.8,3.7,20.2l2.8,7.7c3.2,0,6.4-0.5,9.6-1.3c2.9-1.3,5.7-3,8.2-4.9c0,0-1-3.3-2.6-7.9
	c-2.2-6.5-5.7-12.6-10.1-17.9C163.8,76.3,159.9,77.8,155.7,78.2L155.7,78.2z"/>
<path class="st5" d="M158.6,67.6c-1,0.4-2.8,4-2.9,10.5c2.1-0.2,4.1-0.7,6.1-1.4c1.9-0.7,3.8-1.6,5.5-2.7
	C163.2,69.3,159.6,67.2,158.6,67.6z"/>
<path class="st3" d="M171,102.6c-5,1.8-9.4,2.1-9.9,0.7l0.9,2.5c0.5,1.4,4.9,1.1,9.9-0.7c5-1.8,8.6-4.4,8.1-5.8l-0.9-2.5
	C179.6,98.2,176,100.8,171,102.6z"/>
<path class="st6" d="M179,101.4c-0.7,0.6-1.4,1.1-2.1,1.5l0.1,0.4C177.8,102.8,178.5,102.1,179,101.4z"/>
<path class="st6" d="M178.2,105.1c-0.2,0.1-0.4,0.2-0.5,0.4c0,0.1,0,0.1,0,0.2C177.8,105.5,178,105.3,178.2,105.1z"/>
<path class="st7" d="M177,103.2c0.2,0.8,0.4,1.6,0.7,2.3c0.2-0.1,0.4-0.2,0.5-0.4c0.2-0.2,0.2-0.4,0.2-0.7l0.2,0.5
	c1.1-0.8,1.6-1.6,1.4-2.1l-0.6-1.7l-0.3,0.3C178.5,102.1,177.8,102.8,177,103.2z"/>
<path class="st7" d="M178.2,105.1c-0.1,0.2-0.3,0.4-0.5,0.6c0.2,0.6,0.3,1.2,0.5,1.8c0.6-0.5,0.9-1,0.8-1.4l-0.4-1.2l-0.2-0.5
	C178.4,104.7,178.3,104.9,178.2,105.1z"/>
<path class="st8" d="M174.9,96.8c0.4,1.2,0.8,2.3,1.2,3.5c2-1.2,3.2-2.3,3.2-3.2c-0.4-1.3-1-3.1-1.8-5.1
	c-2.2-6.5-5.6-12.6-10.1-17.9c-0.9,0.6-1.8,1.1-2.7,1.6C168.9,82.3,172.3,89.3,174.9,96.8z"/>
<path class="st9" d="M167.4,74c-4.1-4.8-7.8-6.7-8.7-6.4c-0.2,0.1-0.3,0.2-0.4,0.3c2.5,2.2,4.6,4.8,6.4,7.7
	C165.5,75.1,166.5,74.6,167.4,74z"/>
<path class="st7" d="M176.1,100.3c0.3,0.9,0.6,1.7,0.8,2.6c0.7-0.4,1.4-0.9,2.1-1.5l0.3-0.3c0.4-0.3,0.7-0.8,0.8-1.2l0,0
	c0-0.1,0-0.3,0-0.4l-0.9-2.5c0,0.1,0,0.2,0,0.3C179.2,97.9,178,99,176.1,100.3z"/>
<path class="st0" d="M184.6,104.6c-1.6,5-4.3,14.8-2.8,20.6c2.5,8.9,13.1,17,18.1,19.9c-3-5.6-4-9.9-2.7-12.7
	c0.4-0.9,1.6,2.6,4.5,3.7c-0.5-2.3-0.4-4.7,0.3-7c0.5-2.5,0.7-7.1-0.5-10c-4-9.2-12.7-14.1-14.6-15.3L184.6,104.6z"/>
<path class="st1" d="M184.6,104.6c-0.9,2.1-2.4,10.1-0.9,14.2c1.5,4,9.2,9.3,12.5,13.6c-0.2-4.1-1-5.6,0-8.9c0.8-1.8,1-3.8,0.7-5.7
	c-0.2-1.9-2.9-6.4-5.9-9.9c-1.2-1.5-2.5-2.9-4-4.1L184.6,104.6z"/>
<path class="st2" d="M184.6,104.6c-0.6,2.6-1.2,10.2,0.8,12.5c2,2.4,4,2.1,7.4,5.5c0.3-1.6-1.7-4.5-0.7-6.1c0.8,1,1,1.7,2.3,2.3
	c-0.9-1.6-0.5-3.5-1.1-5.6c-0.7-2.5-2.7-4.3-4.3-6.2c-0.8-1-1.6-2.1-2.1-3.2L184.6,104.6z"/>
<path class="st3" d="M185.9,105.9c-4.3,1.6-8.1,1.8-8.5,0.6l0.8,2.2c0.4,1.2,4.3,0.9,8.5-0.6c4.3-1.5,7.4-3.7,7-5l-0.8-2.2
	C193.3,102.2,190.1,104.4,185.9,105.9z"/>
<path class="st3" d="M186.8,108.6c-3.2,1.2-6.1,1.4-6.4,0.4l0.6,1.6c0.3,0.9,3.2,0.7,6.4-0.4c3.2-1.1,5.6-2.8,5.3-3.7l-0.6-1.6
	C192.4,105.8,190,107.4,186.8,108.6z"/>
<path class="st4" d="M169.4,78.5c0,6.9,1.3,13.8,3.8,20.2c1.6,4.4,2.8,7.7,2.8,7.7c3.2,0,6.4-0.5,9.6-1.3c2.9-1.3,5.7-3,8.2-5
	c0,0-1-3.3-2.6-7.9c-2.2-6.5-5.6-12.6-10.1-17.9c-1.7,1.1-3.6,2-5.5,2.7C173.6,77.9,171.5,78.3,169.4,78.5z"/>
<path class="st5" d="M172.4,68c-1,0.4-2.8,4-2.9,10.5c2.1-0.2,4.2-0.7,6.1-1.4c1.9-0.7,3.8-1.6,5.5-2.7
	C177,69.7,173.3,67.7,172.4,68z"/>
<path class="st3" d="M184.8,103c-5,1.8-9.4,2.1-9.9,0.7l0.9,2.5c0.5,1.4,5,1.1,9.9-0.7c5-1.8,8.6-4.4,8.1-5.8l-0.9-2.5
	C193.4,98.6,189.8,101.2,184.8,103z"/>
<path class="st6" d="M192.8,101.8c-0.6,0.6-1.3,1.1-2.1,1.5l0.1,0.4C191.6,103.1,192.2,102.5,192.8,101.8z"/>
<path class="st6" d="M192,105.5l-0.5,0.4v0.2C191.6,105.9,191.8,105.7,192,105.5z"/>
<path class="st7" d="M190.8,103.6c0.2,0.8,0.4,1.6,0.7,2.3l0.5-0.4c0.2-0.2,0.2-0.4,0.1-0.7l0.2,0.4c1.1-0.8,1.6-1.6,1.4-2.1
	l-0.6-1.7l-0.3,0.3C192.2,102.5,191.6,103.1,190.8,103.6z"/>
<path class="st7" d="M192,105.5c-0.1,0.2-0.3,0.4-0.5,0.6c0.2,0.6,0.3,1.2,0.5,1.8c0.6-0.5,0.9-1,0.8-1.4l-0.4-1.2l-0.2-0.4
	C192.2,105.1,192.1,105.3,192,105.5z"/>
<path class="st8" d="M188.7,97.1c0.4,1.2,0.8,2.3,1.2,3.5c1.9-1.2,3.2-2.3,3.2-3.2c-0.4-1.4-1.1-3.2-1.8-5.1
	c-2.2-6.5-5.6-12.6-10.1-17.9c-0.9,0.6-1.8,1.1-2.7,1.6C182.7,82.6,186.1,89.7,188.7,97.1z"/>
<path class="st9" d="M181.2,74.4c-4.1-4.8-7.8-6.8-8.7-6.4c-0.2,0.1-0.3,0.2-0.4,0.3c2.5,2.2,4.6,4.8,6.4,7.7
	C179.3,75.5,180.3,75,181.2,74.4z"/>
<path class="st7" d="M189.9,100.6c0.3,0.9,0.5,1.7,0.8,2.6c0.7-0.4,1.4-0.9,2.1-1.5l0.3-0.3c0.4-0.3,0.6-0.8,0.8-1.3l0,0
	c0-0.2,0-0.3,0-0.5l-0.9-2.5c0,0.1,0,0.2,0,0.3C193,98.3,191.8,99.5,189.9,100.6z"/>
<path class="st10" d="M118.5,51c-0.9-2.1-3.6-6.7-8.2-3.8c-4.6,2.8,1.1,8.1,1.1,8.1L118.5,51z"/>
<path class="st11" d="M159.4,110.6c-0.5-0.4-3.9,6.9-3.9,6.9c1.2,0.1,2.4,0,3.6-0.1c-0.4,0.6-0.7,1.3-1,2c-1.6,4.2-1.1,8.2,1.1,9.1
	c1.6,0.6,2.7-3.3,4.1-7.1c0.7-1.9,1.6-3.7,2.1-5.1l0,0l0.9-2.4c0,0-0.5-1.3-4.3-1.1C161.4,113,159.9,111,159.4,110.6z"/>
<path class="st12" d="M164.1,100.6c2.6,1.6,2.2,3.2,2.8,4.7c0.4,1.5,0.7,3.1,0.8,4.7c0.2,1.5,0.4,3.2,0.4,4.6l0.1,2.3
	c0,0.4,0,0.8,0,1.2c-0.2,0.5-0.6,1-1.1,1.1l-15-0.2c-0.5-0.2-0.9-0.6-1.1-1.2c0-0.4,0-0.8,0-1.2l0.2-2.3c0.1-1.5,0.3-3.1,0.6-4.6
	c0.3-1.6,0.6-3.1,1-4.6c0.4-1.5,0.2-3.1,2.9-4.6L164.1,100.6z"/>
<path class="st10" d="M172.7,111.5c-0.6,0.1,1.4,5,1.4,5c1.1,0.4,2.3,0.4,3.3,0c0.2,0.7,0.5,1.4,0.8,2.1c1.9,4,5.3,6.4,7.4,5.4
	c1.5-0.7-0.6-4.3-2.4-7.8c-0.9-1.8-1.6-3.7-2.3-5l0,0l-1.1-2.3c0,0-1.3-0.5-3.7,2.4C175.7,111.8,173.4,111.4,172.7,111.5z"/>
<path class="st13" d="M173.2,97.2c3.1,0.3,3.4,1.9,4.5,3.1c1,1.2,1.9,2.5,2.7,3.9c0.8,1.3,1.6,2.7,2.4,4l1.1,2.1
	c0.2,0.3,0.4,0.7,0.5,1.1c0.1,0.6-0.1,1.2-0.5,1.6l-13.7,6.2c-0.6,0-1.1-0.2-1.5-0.6c-0.2-0.4-0.3-0.7-0.4-1.1l-0.8-2.2
	c-0.5-1.4-1-2.9-1.4-4.4c-0.4-1.5-0.8-3.1-1.1-4.6c-0.3-1.6-1.1-2.9,0.7-5.4L173.2,97.2z"/>
<path class="st13" d="M151,84.3c-0.3,1-0.5,1.3-0.8,1.5c-0.3,0.2-0.6,0.4-0.9,0.6c-0.6,0.3-1.2,0.5-1.9,0.6c-0.6,0-1.3,0.1-1.9,0.1
	c-0.6-0.1-1.2-0.1-1.8-0.3c-2.4-0.5-4.7-1.3-6.9-2.3c-4.3-2-8.3-4.6-12-7.7c-3.6-3-6.8-6.4-9.6-10.2c-1.4-1.9-2.7-3.9-3.8-6
	c-0.6-1.1-1.1-2.2-1.4-3.4c-0.1-0.7-0.2-1.3-0.2-2c0-0.4,0.1-0.8,0.2-1.1l0.3-0.7c0-0.2,0.3-0.4,1.4-0.9l4.1-1.1
	c1.2-0.2,1.6-0.2,1.6-0.1l0.6,0.1c0.3,0.1,0.6,0.2,0.8,0.4c0.4,0.3,0.7,0.6,1,1c0.6,0.7,1.2,1.5,1.6,2.3c1,1.6,2.1,3.3,3.2,4.9
	c2.3,3.3,4.8,6.4,7.4,9.4c2.6,3,5.5,5.6,8.7,8c1.5,1.1,3.2,2.1,4.9,2.8c0.4,0.1,0.9,0.3,1.3,0.6c0.4,0.2,0.9,0.4,1.3,0.7
	c0.5,0.2,0.9,0.5,1.3,0.9l0.7,0.6C150.4,82.9,150.6,83.2,151,84.3L151,84.3z"/>
<path class="st14" d="M136.5,70c2.6,9.3,12.2,14.8,21.6,12.2c9.3-2.6,14.8-12.2,12.2-21.6c-2.6-9.3-12.2-14.8-21.5-12.2l0,0
	C139.4,50.9,133.9,60.6,136.5,70C136.5,69.9,136.5,69.9,136.5,70z"/>
<path class="st14" d="M145.2,106.2l1.4,5c1.3,4.9,10,3.2,20.7,0.1c9.2-2.6,20.1-5.1,18.3-11.9l0,0c-3.7-18.2-12.7-31.7-28.2-27.5
	l0,0c-15.3,4.2-16.5,15.9-13.8,28.3v0.2l0.2,0.7C144.2,102.8,144.7,104.5,145.2,106.2z"/>
<path class="st15" d="M146.9,91.6c1.8-0.7,2.9-3.4,5.2-5c3.2-2.2,3.7-5.6,3.6-4.1c-0.1,1.5,1.2,2,1.2,1.8s-0.4,0.3-0.3-1.9
	c0.1-2.2,2.7-3.5,4.3-7.5c0.6-1.4,1-2.9,1.3-4.4c0.2,0.6,0.3,1.2,0.4,1.8c2.6-13.2-2.8-20.2-3.5-20.7c0.7,0.1,1.5,0.4,2.1,0.9
	c-1.8-3.9-4.6-4.1-5.1-4.2c0.5-0.5,1.3-0.7,2-0.6c-1-1.6-2.8-2.6-4.7-2.6c-0.7,0.1-1.4,0.5-1.7,1.2c0.4-1.9-0.8-3.9-2.7-4.3
	c0,0,0,0-0.1,0h-0.1c1.8,4,1.1,3.3,1,3.5s-2.3-1.9-4.3-2c0.5,0.2,0.9,0.6,1.1,1.2c-2.1-0.8-4.4-1.9-8.5,1.3c1.1-0.1,2.2,0.1,3.2,0.7
	c-4.8,2-8.2,6.3-9.2,11.4c0.3-0.2,2.1-1.6,2.3-1.3c-1.2,1.1-5.3,5-1.8,19.1c0-0.7,0.5-2.5,0.8-2.5c-0.4,1.3,0.9,5.2,4.9,8.5
	C143.9,86.3,146.2,88.9,146.9,91.6z"/>
<path class="st10" d="M136,65.8c-0.4-6.7,3.5-12.5,8.3-12.7c4.8-0.2,9,5,9.4,11.7c0.3,3.5-0.8,7-2.9,9.9c-2.1,2.7-3.8,5-4,7.6
	c-1-3.5-3.5-4.5-6.5-6.8C137.7,72.9,136.1,69.4,136,65.8z"/>
<path class="st16" d="M135.7,64c-0.1,6.5,3.2,12.1,8.2,12.2c5,0.1,10.3-5.3,10.5-11.9c0.1-6.5-3.8-11.9-8.8-12
	C140.6,52.2,135.9,57.5,135.7,64z"/>
<path class="st17" d="M142.4,62c-0.6-0.2-1.2-0.4-1.9-0.4c-0.7-0.1-1.3-0.1-1.9,0.2c0.6-0.3,1.3-0.5,1.9-0.5c0.7-0.1,1.4,0,2.1,0.1
	L142.4,62z"/>
<path class="st17" d="M145,61.4c0.7-0.1,1.4-0.1,2.1,0c0.7,0,1.4,0.2,2,0.6c-0.6-0.3-1.3-0.3-2-0.2c-0.7,0.1-1.3,0.2-1.9,0.4
	L145,61.4z"/>
<polygon class="st18" points="145.4,63 147.4,63.1 145.5,63.5 "/>
<path class="st18" d="M142.1,63.3l-1.1-0.5c-0.4-0.2-0.8-0.3-1.2-0.4c0.4,0,0.8,0.1,1.2,0.2l1.2,0.3L142.1,63.3z"/>
<path class="st19" d="M145.4,65.6c0.2,0.7,0.1,1.5-0.5,2c-0.5,0.5-1.2,0.8-2,0.7c-0.7,0-1.4-0.4-1.8-1c-0.4-0.6-0.4-1.4,0-2
	c-0.1,0.3-0.1,0.7,0,1c0.1,0.3,0.2,0.6,0.4,0.8c0.4,0.5,1,0.8,1.6,0.7c0.6,0,1.2-0.2,1.7-0.5C145.3,66.9,145.5,66.2,145.4,65.6z"/>
<path class="st18" d="M146.1,70.7c0.1,0.6-0.1,1.1-0.5,1.5c-0.2,0.2-0.5,0.3-0.7,0.4c-0.3,0-0.6,0-0.8,0c-0.5-0.1-1-0.2-1.5-0.5
	c-0.4-0.3-0.8-0.6-1-1.1c0.7,0.6,1.6,0.9,2.4,0.7l0.6-0.1c0.2,0,0.4-0.1,0.6-0.1C145.5,71.4,145.9,71.1,146.1,70.7z"/>
<path class="st20" d="M147.3,52.5c-1.3-0.3-2.6-0.3-3.8,0c-3.3,0.8-5.6,4.3-6.2,5.2c0.9-0.4,1.9-0.4,2.8,0l0.5,0.2l1.4-3l0.1,3.8
	c5.2,1.9,11-2.4,12,1.9C153.2,56.6,150.5,53.3,147.3,52.5"/>
<path class="st10" d="M195.3,95.5c2.2,0.4,7.1,0.5,7.3-4.8c0.2-5.3-2.1-3.4-3.3-3c-1.2,0.4-2.6,0.3-3.7-0.3L195.3,95.5z"/>
<path class="st13" d="M164.5,78.1c0.8-0.6,1.1-0.8,1.4-0.8l0.8-0.1c0.4,0,0.9,0,1.3,0.1c0.4,0.1,0.8,0.2,1.1,0.3
	c0.3,0.1,0.7,0.3,1,0.5c0.6,0.4,1.3,0.7,1.9,1c0.6,0.3,1.3,0.6,1.9,0.9c2.5,1.1,5.2,2,7.8,2.7c2.6,0.7,5.2,1.2,8,1.7
	c0.7,0.1,1.3,0.2,2,0.4l2,0.3c0.7,0,1.4,0.2,2,0.5c0.4,0.2,0.7,0.4,1,0.6c0.2,0.2,0.4,0.4,0.5,0.6l0.3,0.5c0,0.1,0.2,0.4,0.2,1.6
	l-0.1,4.3c-0.1,1.3-0.2,1.5-0.4,1.6l-0.3,0.5c-0.2,0.2-0.4,0.4-0.6,0.6c-0.4,0.2-0.8,0.4-1.3,0.5c-0.8,0.1-1.7,0.1-2.5,0
	c-1.7-0.1-3.3-0.4-5-0.7c-3.3-0.7-6.5-1.8-9.6-3.3c-3-1.5-5.8-3.3-8.3-5.4c-0.6-0.5-1.3-1.1-1.9-1.6l-1.8-1.6
	c-0.6-0.6-1.1-1.2-1.5-2c-0.2-0.4-0.3-0.9-0.4-1.3c0-0.3,0-0.5-0.1-0.8c0-0.6,0.2-1.1,0.5-1.6L164.5,78.1z"/>
<path class="st21" d="M152.4,63.2c0,0-0.5,1.2-0.2,1.5C152.4,65,152.7,64.4,152.4,63.2z"/>
<path class="st21" d="M151.6,58.8c0,0-0.3,0.8-0.2,1C151.6,60,151.8,59.6,151.6,58.8z"/>
<path class="st21" d="M137.8,57.6c0,0-0.5,1.2-0.2,1.5C137.8,59.4,138.1,58.9,137.8,57.6z"/>
</svg>
