<?xml version="1.0" encoding="utf-8"?>
<!-- Generator: Adobe Illustrator 24.3.0, SVG Export Plug-In . SVG Version: 6.00 Build 0)  -->
<svg version="1.1" id="Layer_1" xmlns="http://www.w3.org/2000/svg" xmlns:xlink="http://www.w3.org/1999/xlink" x="0px" y="0px"
	 viewBox="0 0 251 151" style="enable-background:new 0 0 251 151;" xml:space="preserve">
<style type="text/css">
	.st0{fill:#E84C59;}
	.st1{fill:#EE7B5C;}
	.st2{fill:#F9C862;}
	.st3{fill:#062633;}
	.st4{fill:#ABAAAA;}
	.st5{fill:#E1DFE0;}
	.st6{fill:none;}
	.st7{fill:#041D26;}
	.st8{fill:#6E6E6E;}
	.st9{fill:#C0C0C0;}
	.st10{fill:#5E3E21;}
	.st11{fill:#54371D;}
	.st12{fill:#6D3325;}
	.st13{fill:#783A28;}
	.st14{fill:#8F4729;}
	.st15{opacity:0.5;fill:#F9C862;enable-background:new    ;}
	.st16{fill:#DCB680;}
	.st17{fill:#C69666;}
	.st18{fill:#662F1E;}
	.st19{fill:#231D13;}
	.st20{fill:#574C3E;}
	.st21{fill:#442C1A;}
	.st22{fill:url(#SVGID_1_);}
</style>
<g id="Layer_3">
	<path class="st0" d="M141.4,90.9c0.9,4,2.1,11.8,0.4,16c-2.6,6.7-11.5,12-15.6,13.8c2.8-4.1,3.9-7.3,3.1-9.6
		c-0.2-0.7-1.4,1.9-3.8,2.5c0.6-1.7,0.7-3.6,0.4-5.4c-0.2-2.6,0.2-5.3,1.2-7.7c3.9-6.8,11-9.7,12.5-10.5L141.4,90.9z"/>
	<path class="st1" d="M141.4,90.9c0.5,1.7,1,8-0.5,11s-7.9,6.3-10.8,9.4c0.5-3.1,1.3-4.2,0.8-6.8c-0.4-1.5-0.5-3-0.1-4.5
		c0.3-1.5,2.8-4.6,5.4-7.1c1-1.1,2.2-2.1,3.4-2.9L141.4,90.9z"/>
	<path class="st2" d="M141.4,90.9c0.2,2.1,0,7.9-1.7,9.6s-3.2,1.2-6.2,3.6c-0.1-1.2,1.7-3.3,1.1-4.6c-0.7,0.7-0.9,1.2-1.9,1.6
		c0.8-1.2,0.7-2.6,1.3-4.2c0.7-1.9,2.5-3.1,3.8-4.4c0.7-0.7,1.4-1.5,1.9-2.3L141.4,90.9z"/>
	<path class="st3" d="M140.3,91.8c3.1,1.6,6.1,2.1,6.5,1.2l-0.8,1.6c-0.4,0.9-3.4,0.4-6.5-1.2s-5.4-3.5-5-4.4l0.8-1.6
		C134.9,88.3,137.1,90.3,140.3,91.8z"/>
	<path class="st3" d="M139.4,93.8c2.4,1.2,4.6,1.6,4.9,0.9l-0.6,1.2c-0.3,0.7-2.5,0.3-4.9-0.9s-4.1-2.7-3.7-3.3l0.6-1.2
		C135.3,91.2,137,92.6,139.4,93.8z"/>
	<path class="st4" d="M155.2,72.2c-0.6,5.3-2.2,10.5-4.6,15.2l-2.8,5.7c-2.5-0.3-4.9-0.9-7.2-1.8c-2.2-1.2-4.1-2.8-5.9-4.5
		c0,0,1.1-2.4,2.7-5.8c2.3-4.8,5.4-9.2,9.3-13c1.2,1,2.6,1.9,4,2.6C152.1,71.3,153.6,71.8,155.2,72.2z"/>
	<path class="st5" d="M153.9,63.8c0.8,0.4,1.8,3.3,1.3,8.3c-3.2-0.7-6.1-2.1-8.6-4.2C150.2,64.7,153.2,63.5,153.9,63.8z"/>
	<path class="st3" d="M141.4,89.7c3.7,1.8,7.1,2.4,7.6,1.4l-0.9,1.9c-0.5,1-3.9,0.4-7.6-1.4s-6.2-4.1-5.7-5.1l0.9-1.9
		C135.1,85.6,137.7,87.8,141.4,89.7z"/>
	<path class="st6" d="M135.4,88c0.5,0.5,1,0.9,1.5,1.3l-0.1,0.3C136.2,89.2,135.7,88.6,135.4,88z"/>
	<path class="st6" d="M135.7,91c0.1,0.1,0.3,0.2,0.4,0.3c0,0.1,0,0.1,0,0.2C135.9,91.3,135.8,91.2,135.7,91z"/>
	<path class="st7" d="M136.8,89.6c-0.2,0.6-0.5,1.2-0.7,1.7c-0.1-0.1-0.3-0.2-0.4-0.3c-0.1-0.2-0.1-0.4-0.1-0.5l-0.2,0.3
		c-0.7-0.7-1.1-1.4-0.9-1.8l0.6-1.2l0.2,0.3C135.7,88.7,136.2,89.2,136.8,89.6z"/>
	<path class="st7" d="M135.7,91c0.1,0.2,0.2,0.3,0.3,0.5c-0.2,0.4-0.3,0.9-0.5,1.3c-0.4-0.4-0.6-0.8-0.5-1.1l0.4-0.9l0.2-0.3
		C135.5,90.6,135.6,90.8,135.7,91z"/>
	<path class="st8" d="M138.9,84.8c-0.4,0.9-0.8,1.7-1.2,2.6c-1.4-1.1-2.2-2.1-2.2-2.7c0.4-1,1.1-2.3,1.8-3.8
		c2.3-4.8,5.4-9.2,9.3-12.9c0.6,0.5,1.3,1,1.9,1.4C144.7,74.2,141.5,79.4,138.9,84.8z"/>
	<path class="st9" d="M146.6,68c3.6-3.3,6.5-4.5,7.3-4.2c0.1,0.1,0.2,0.2,0.3,0.3c-2.1,1.5-4,3.3-5.5,5.3
		C147.9,69,147.3,68.5,146.6,68z"/>
	<path class="st7" d="M137.7,87.4c-0.3,0.7-0.6,1.3-0.8,1.9c-0.5-0.4-1-0.9-1.5-1.4l-0.2-0.3c-0.3-0.3-0.4-0.6-0.5-1l0,0
		c0-0.1,0-0.2,0-0.3l0.9-1.9c0,0.1,0,0.1,0,0.2C135.5,85.4,136.3,86.3,137.7,87.4z"/>
	<path class="st0" d="M130.8,90c0.9,4,2.1,11.8,0.4,16c-2.6,6.7-11.5,12-15.6,13.8c2.8-4.1,3.9-7.3,3.2-9.6
		c-0.3-0.7-1.4,1.9-3.8,2.5c0.6-1.8,0.7-3.6,0.4-5.4c-0.2-2,0-5.6,1.2-7.7c3.9-6.8,11-9.7,12.5-10.5L130.8,90z"/>
	<path class="st1" d="M130.8,90c0.5,1.7,1,8-0.5,11s-7.9,6.3-10.8,9.4c0.5-3.1,1.3-4.2,0.8-6.8c-0.4-1.5-0.5-3-0.1-4.5
		c0.3-1.5,2.8-4.6,5.4-7.1c1-1.1,2.2-2,3.4-2.9L130.8,90z"/>
	<path class="st2" d="M130.8,90c0.2,2.1,0,7.9-1.7,9.6s-3.2,1.3-6.2,3.6c-0.1-1.2,1.7-3.3,1-4.6c-0.7,0.7-0.9,1.2-1.9,1.6
		c0.8-1.2,0.7-2.6,1.3-4.2c0.7-1.9,2.5-3.1,3.8-4.4c0.7-0.7,1.4-1.5,2-2.3L130.8,90z"/>
	<path class="st3" d="M129.7,91c3.2,1.6,6.1,2.1,6.5,1.2l-0.8,1.6c-0.4,0.9-3.4,0.4-6.5-1.2s-5.4-3.5-4.9-4.4l0.8-1.6
		C124.3,87.5,126.5,89.4,129.7,91z"/>
	<path class="st3" d="M128.7,92.9c2.3,1.2,4.6,1.6,4.9,0.9L133,95c-0.3,0.7-2.5,0.3-4.9-0.9s-4-2.7-3.7-3.3l0.6-1.2
		C124.7,90.3,126.4,91.8,128.7,92.9z"/>
	<path class="st4" d="M144.6,71.3c-0.6,5.3-2.2,10.5-4.6,15.2c-1.6,3.3-2.8,5.7-2.8,5.7c-2.5-0.3-4.9-0.9-7.2-1.8
		c-2.1-1.3-4.1-2.8-5.9-4.5c0,0,1-2.4,2.7-5.8c2.3-4.8,5.4-9.2,9.2-12.9c1.2,1,2.6,1.9,4,2.5C141.5,70.4,143,71,144.6,71.3z"/>
	<path class="st5" d="M143.3,63c0.8,0.4,1.8,3.3,1.3,8.3c-1.6-0.3-3.1-0.9-4.6-1.6c-1.4-0.7-2.8-1.5-4-2.6
		C139.6,63.8,142.6,62.6,143.3,63z"/>
	<path class="st3" d="M130.7,88.8c3.7,1.8,7,2.4,7.6,1.4l-0.9,1.9c-0.5,1-3.9,0.4-7.6-1.4s-6.2-4.1-5.7-5.1l0.9-1.9
		C124.5,84.7,127.1,87,130.7,88.8z"/>
	<path class="st6" d="M124.7,87.2c0.5,0.5,0.9,0.9,1.5,1.3l-0.1,0.3C125.5,88.3,125.1,87.8,124.7,87.2z"/>
	<path class="st6" d="M125,90.1l0.4,0.3v0.2C125.2,90.5,125.1,90.3,125,90.1z"/>
	<path class="st7" d="M126.1,88.7c-0.2,0.6-0.5,1.2-0.7,1.7l-0.4-0.3c-0.1-0.2-0.1-0.4,0-0.5l-0.2,0.3c-0.8-0.7-1.1-1.4-0.9-1.8
		l0.6-1.2l0.2,0.2C125.1,87.8,125.6,88.3,126.1,88.7z"/>
	<path class="st7" d="M125,90.1c0.1,0.2,0.2,0.3,0.3,0.5c-0.2,0.4-0.3,0.9-0.5,1.3c-0.4-0.4-0.6-0.8-0.5-1.1l0.4-0.9l0.2-0.3
		C124.9,89.7,124.9,89.9,125,90.1z"/>
	<path class="st8" d="M128.3,84c-0.4,0.9-0.8,1.7-1.2,2.6c-1.4-1.1-2.2-2.1-2.2-2.7c0.4-1,1.1-2.3,1.8-3.8c2.3-4.8,5.4-9.2,9.3-12.9
		c0.6,0.5,1.3,1,1.9,1.5C134.1,73.4,130.9,78.5,128.3,84z"/>
	<path class="st9" d="M136,67.1c3.6-3.3,6.6-4.5,7.3-4.2c0.1,0.1,0.2,0.2,0.3,0.3c-2.1,1.5-4,3.3-5.6,5.3
		C137.3,68.1,136.6,67.7,136,67.1z"/>
	<path class="st7" d="M127.1,86.6c-0.3,0.7-0.6,1.3-0.8,1.9c-0.5-0.4-1-0.8-1.5-1.3l-0.2-0.2c-0.3-0.3-0.4-0.6-0.5-1l0,0
		c0-0.1,0-0.2,0-0.4l0.9-1.9c0,0.1,0,0.1,0,0.2C124.8,84.5,125.7,85.5,127.1,86.6z"/>
	<path class="st10" d="M186.1,54.5c0.9-1.6,3.3-4.8,6.6-2.2s-1.5,6.1-1.5,6.1L186.1,54.5z"/>
	<path class="st11" d="M149.6,96.8c0.4-0.2,2.4,5.7,2.4,5.7c-0.9,0-1.8-0.2-2.7-0.4c0.2,0.5,0.4,1.1,0.6,1.6
		c0.9,3.3,0.2,6.4-1.6,6.9c-1.3,0.3-1.8-2.8-2.6-5.8c-0.4-1.5-0.9-3-1.2-4.1l0,0l-0.5-1.9c0,0,0.5-0.9,3.4-0.4
		C147.9,98.4,149.2,97.1,149.6,96.8z"/>
	<path class="st12" d="M146.9,88.8c-2.2,1-2,2.2-2.5,3.4c-0.5,1.1-0.8,2.3-1,3.5c-0.3,1.1-0.5,2.4-0.7,3.5l-0.3,1.8
		c-0.1,0.3-0.1,0.6-0.1,0.9c0.1,0.4,0.4,0.8,0.8,1l11.6,1.1c0.4-0.1,0.8-0.4,0.9-0.8c0.1-0.3,0.1-0.6,0.1-0.9l0.1-1.8
		c0-1.2,0-2.4-0.1-3.6s-0.2-2.4-0.4-3.6s0.1-2.4-1.8-3.8L146.9,88.8z"/>
	<path class="st10" d="M139.3,96.4c0.5,0.2-1.5,3.7-1.5,3.7c-0.9,0.2-1.8,0.1-2.6-0.3c-0.2,0.5-0.5,1-0.8,1.5
		c-1.8,2.9-4.6,4.4-6.1,3.5c-1.1-0.7,0.8-3.2,2.5-5.8c0.9-1.3,1.5-2.7,2.2-3.6l0,0l1.1-1.7c0,0,1-0.3,2.6,2.2
		C137,96.3,138.8,96.2,139.3,96.4z"/>
	<path class="st13" d="M140.2,85.3c-2.4,0-2.8,1.2-3.7,2c-0.9,0.8-1.7,1.7-2.5,2.7c-0.8,0.9-1.4,1.9-2.1,2.9l-1,1.5
		c-0.2,0.2-0.3,0.5-0.5,0.8c-0.1,0.4,0,0.9,0.3,1.3l10,5.9c0.4,0.1,0.9,0,1.2-0.3c0.2-0.2,0.3-0.5,0.4-0.8l0.8-1.6
		c0.5-1.1,1-2.2,1.5-3.3s0.9-2.3,1.2-3.5s1.1-2.1-0.1-4.2L140.2,85.3z"/>
	<path class="st13" d="M158.3,77.3c0.1,0.8,0.3,1,0.5,1.2s0.4,0.4,0.6,0.5c0.4,0.3,0.9,0.5,1.4,0.6c0.5,0.1,1,0.2,1.5,0.3
		c0.5,0,1,0,1.4,0c1.9-0.2,3.7-0.6,5.5-1.2c3.5-1.2,6.8-2.8,9.9-4.9c3-2,5.8-4.4,8.2-7c1.2-1.4,2.4-2.8,3.4-4.3
		c0.6-0.8,1.1-1.6,1.4-2.5c0.2-0.5,0.3-1,0.4-1.5c0-0.3,0-0.6-0.1-0.9l-0.2-0.5c0-0.2-0.2-0.3-1-0.8l-3.1-1.2
		c-0.9-0.3-1.2-0.3-1.2-0.2l-0.4,0.1c-0.2,0-0.4,0.1-0.6,0.2c-0.3,0.2-0.6,0.4-0.9,0.7c-0.5,0.5-1,1.1-1.4,1.7
		c-0.9,1.1-1.9,2.3-2.9,3.5c-2,2.3-4.2,4.5-6.5,6.6c-2.2,2.1-4.7,3.9-7.3,5.4c-1.3,0.7-2.6,1.3-4,1.7c-0.3,0.1-0.7,0.2-1,0.3
		c-0.3,0.1-0.7,0.3-1,0.4c-0.4,0.1-0.8,0.3-1.1,0.6l-0.6,0.4c-0.2,0.1-0.4,0.3-0.7,1.2L158.3,77.3z"/>
	<path class="st14" d="M170.7,67.5c-2.8,6.9-10.7,10.3-17.6,7.5c-6.9-2.8-10.3-10.7-7.5-17.6s10.7-10.3,17.6-7.5c0,0,0,0,0,0l0,0
		C170.1,52.7,173.5,60.6,170.7,67.5z"/>
	<path class="st14" d="M161.3,91.1c3.1-9.3,4.5-19.3-6.9-23.8l0,0c-11.5-4.6-19.6,5.1-24,18.8l0,0c-2,5.1,6.1,7.9,13,10.7
		c7.9,3.3,13.2,3.2,14.3,1.3L161.3,91.1L161.3,91.1z"/>
	<path class="st15" d="M143,66.9c4.8,1.2,6.9,3.5,5.8,5.9s-5.8,15.8-11.3,12.4s-3-9.4-3-9.4s-5.9,7.2-5.2,10.9
		c0.3,1.6,2.5,6.4,8.8,9.6c4.2,2.1,15.8,4.9,18.2,3.9c2.6-1.1,8.3-16.6,7.6-20.3s-1.2-0.7-1.2-0.7s-1,6.9-4.2,6.5
		c-5.5-0.7-4.8-10.6-6.8-13.8s-3.9-5.4-6.2-5.5"/>
	<path class="st10" d="M124.8,46c0.5-2.1,1.6-6.9,6.1-5.2c4.7,1.7,1.3,7.9,1.3,7.9L124.8,46z"/>
	<path class="st13" d="M146.6,71.4c0.2,0.4,0.1,0.9-0.1,1.3c-0.2,0.2-0.3,0.5-0.5,0.7c-0.2,0.2-0.4,0.4-0.7,0.5
		c-0.2,0.1-0.5,0.2-0.8,0.3c-0.5,0.2-1,0.3-1.6,0.3c-0.5,0-1.1,0-1.6-0.1c-1.9-0.4-3.7-1.2-5.4-2.2c-3-2-5.6-4.6-7.5-7.6
		c-2-3-3.4-6.4-4.1-10c-0.3-1.9-0.4-3.8-0.3-5.7c0-1,0.2-2,0.6-2.9c0.2-0.5,0.5-0.9,0.8-1.3c0.2-0.2,0.4-0.4,0.7-0.5l0.5-0.2
		c0.1-0.1,0.3-0.1,1.3,0.1l3.1,1.2c0.9,0.4,1.1,0.6,1.1,0.7l0.3,0.3c0.1,0.2,0.3,0.4,0.3,0.6c0.1,0.3,0.2,0.6,0.2,0.9
		c0.1,0.6,0.1,1.1,0,1.7c0,1.2,0.1,2.4,0.3,3.6c0.4,2.6,1.2,5.1,2.3,7.4c1.1,2.4,2.5,4.7,4.4,6.6c0.8,0.8,1.8,1.5,2.8,2
		c0.5,0.2,1,0.4,1.4,0.7c0.1,0.1,0.3,0.1,0.4,0.2c0.1,0.1,0.3,0.2,0.5,0.2c0.2,0.1,0.4,0.2,0.6,0.3
		C145.9,70.5,146.1,70.7,146.6,71.4L146.6,71.4z"/>
	<path class="st16" d="M160.8,83.3c-1.3-0.7-1.9-2.8-3.6-4.3c-2.2-2-2.4-4.6-2.4-3.5s-1.1,1.5-1,1.3s0.3,0.2,0.4-1.5
		s-1.8-2.9-2.6-6.1c-0.3-1.1-0.5-2.3-0.6-3.5c-0.2,0.4-0.4,0.9-0.5,1.4c-0.9-10.4,3.9-15.3,4.5-15.6c-0.6,0-1.2,0.2-1.7,0.5
		c1.8-2.8,3.9-2.8,4.2-2.8c-0.4-0.4-0.9-0.7-1.5-0.6c0.9-1.2,2.3-1.8,3.8-1.6c0.6,0.1,1,0.5,1.2,1c-0.1-1.5,1-2.8,2.5-3h0.1
		c-1.7,2.9-1.1,2.4-1,2.6s1.9-1.3,3.5-1.1c-0.4,0.1-0.8,0.4-1,0.8c1.7-0.4,3.6-1.1,6.4,1.7c-0.8-0.2-1.7-0.1-2.5,0.2
		c3.5,2,5.8,5.5,6.1,9.5c-0.2-0.2-1.4-1.4-1.7-1.2c0.9,1,3.6,4.3-0.2,14.8c0.1-0.6-0.1-1.9-0.4-2c0.2,1.1-1.1,3.9-4.5,6.1
		C163.6,79.5,161.6,81.2,160.8,83.3z"/>
	<path class="st10" d="M171.4,64.3c0.9-5.2-1.6-9.9-5.3-10.5s-7.4,3.1-8.2,8.2c-0.5,2.7,0,5.5,1.4,7.8c1.4,2.3,2.5,4.1,2.4,6.2
		c1.1-2.6,3.1-3.1,5.6-4.7C169.6,69.7,171.1,67.2,171.4,64.3z"/>
	<path class="st17" d="M171.8,63c-0.5,5-3.5,9-7.4,8.7s-7.5-5-7-10s4-8.8,7.8-8.5S172.2,58,171.8,63z"/>
	<path class="st18" d="M166.9,60.9c0.5-0.1,1-0.2,1.5-0.2c0.5,0,1,0.1,1.5,0.3c-0.4-0.3-0.9-0.5-1.4-0.6c-0.5-0.1-1.1-0.1-1.6-0.1
		L166.9,60.9z"/>
	<path class="st18" d="M164.9,60.2c-0.5-0.1-1.1-0.2-1.6-0.2c-0.5,0-1.1,0.1-1.6,0.3c0.5-0.1,1-0.1,1.5,0c0.5,0.1,1,0.3,1.4,0.5
		L164.9,60.2z"/>
	<polygon class="st19" points="164.4,61.4 162.9,61.3 164.3,61.8 	"/>
	<path class="st19" d="M167,61.9l0.9-0.3c0.3-0.1,0.6-0.2,0.9-0.2c-0.3,0-0.7,0-1,0l-1,0.1L167,61.9z"/>
	<path class="st20" d="M164.2,63.4c-0.2,0.5-0.2,1.1,0.2,1.6c0.4,0.4,0.9,0.7,1.4,0.7c0.6,0.1,1.2-0.2,1.5-0.6
		c0.3-0.5,0.4-1,0.2-1.6c0,0.3,0,0.5-0.1,0.8c-0.1,0.2-0.2,0.4-0.4,0.6c-0.3,0.4-0.8,0.5-1.3,0.4c-0.5,0-0.9-0.2-1.3-0.6
		C164.2,64.4,164.1,63.9,164.2,63.4z"/>
	<path class="st19" d="M163.2,67.3c-0.1,0.4,0,0.9,0.3,1.2c0.1,0.2,0.3,0.3,0.5,0.4c0.2,0.1,0.4,0.1,0.6,0.1c0.4,0,0.8-0.1,1.2-0.3
		c0.4-0.1,0.7-0.4,0.9-0.8c-0.6,0.4-1.3,0.5-1.9,0.3c-0.1,0-0.3-0.1-0.4-0.2l-0.4-0.2C163.6,67.8,163.4,67.6,163.2,67.3z"/>
	<path class="st21" d="M163.9,53.2c1-0.1,2,0,2.9,0.3c2.5,0.9,3.9,3.8,4.3,4.5c-0.7-0.4-1.4-0.5-2.2-0.2l-0.4,0.1l-0.8-2.5l-0.4,2.9
		c-4.1,1-8.3-2.8-9.4,0.5C159,55.8,161.3,53.5,163.9,53.2"/>
	
		<linearGradient id="SVGID_1_" gradientUnits="userSpaceOnUse" x1="32" y1="77.5075" x2="199.94" y2="77.5075" gradientTransform="matrix(1 0 0 -1 0 152)">
		<stop  offset="9.000000e-02" style="stop-color:#F9C862;stop-opacity:0.1"/>
		<stop  offset="0.65" style="stop-color:#E84C59"/>
		<stop  offset="0.81" style="stop-color:#EE7D5C"/>
		<stop  offset="1" style="stop-color:#EE7B5C;stop-opacity:0.1"/>
	</linearGradient>
	<path class="st22" d="M32,57.3c18.3-2.2,33.8-5.2,40.4,8s20.7,24.1,31.1,16.8s32.1-4.1,39.7,5.8s17.2,8.3,20.2,4.3
		s14.6-14.8,23.6-14.5s6.7-12.8,12.9-18.9c-8.1,10.7-5.3,15-13.4,17.1s-10.6,0.2-16.9,6.7s-9.6,9.8-14.6,8s-13.4-13.1-22.2-14.1
		s-12.5-3-24.8,0.9s-17.6,4.8-22.5,1.2S74.5,52.7,61.1,53.8S32,57.3,32,57.3z"/>
</g>
</svg>
