<svg xmlns="http://www.w3.org/2000/svg" viewBox="0 0 251 151"><defs><style>.cls-1{fill:#e84c59;}.cls-2{fill:#ee7b5c;}.cls-3{fill:#f9c862;}.cls-4{fill:#062633;}.cls-5{fill:#abaaaa;}.cls-6{fill:#e1dfe0;}.cls-7{fill:none;}.cls-8{fill:#041d26;}.cls-9{fill:#6e6e6e;}.cls-10{fill:silver;}.cls-11{fill:#5e3e21;}.cls-12{fill:#783a28;}.cls-13{fill:#8f4729;}.cls-14{fill:#dcb680;}.cls-15{fill:#c69666;}.cls-16{fill:#662f1e;}.cls-17{fill:#231d13;}.cls-18{fill:#574c3e;}.cls-19{fill:#442c1a;}</style></defs><title>Kristo_front</title><g id="Layer_2" data-name="Layer 2"><path class="cls-1" d="M145.8,96c1.1,1.4,6.3,7.1,7,14.9.2,2.4-1.1,5.8-2.1,7.5a11.72,11.72,0,0,0-1.9,5.1c-1.9-1.6-1.9-4.4-2.4-3.9-1.7,1.8-2,5.2-1.2,10.1-2.9-3.4-8.8-12-8.4-19.2.2-4.7,4.6-11.2,7.1-14.5Z"/><path class="cls-2" d="M145.9,95.88a21.72,21.72,0,0,1,1.9,4.1c1.3,3.4,2.3,7.4,1.9,8.8a8.59,8.59,0,0,1-2,4c-1.6,2.1-1.4,3.4-2.2,6.5-1.3-4-5.7-9.8-5.8-13.1s3-8.9,4.2-10.2Z"/><path class="cls-3" d="M145.8,95.78a16.66,16.66,0,0,0,.8,3c.7,1.7,1.7,3.6,1.6,5.6-.1,1.7-.8,3-.6,4.4-.8-.7-.8-1.3-1.1-2.2-1.2,1-.4,3.6-1,4.7-1.7-3.4-3.2-3.7-4.1-5.9s1.4-7.6,2.5-9.4Z"/><path class="cls-4" d="M150.9,95.28v1.8c0,1-2.9,1.8-6.4,1.9s-6.4-.7-6.4-1.7v-1.8c0,1,2.9,1.8,6.4,1.7S150.9,96.28,150.9,95.28Z"/><path class="cls-4" d="M149.3,98v1.4c0,.7-2.1,1.4-4.8,1.4s-4.8-.5-4.8-1.3v-1.4c0,.8,2.1,1.3,4.8,1.3S149.4,98.68,149.3,98Z"/><path class="cls-5" d="M144.1,73.48a18.35,18.35,0,0,0,4.7-.6,42.14,42.14,0,0,1,3,15.7c.1,3.8,0,6.5,0,6.5a30.76,30.76,0,0,1-7.3,1.6,31.2,31.2,0,0,1-7.4-1.4s0-2.7-.1-6.4A42.85,42.85,0,0,1,139.2,73,26.26,26.26,0,0,0,144.1,73.48Z"/><path class="cls-6" d="M148.8,72.88a18.35,18.35,0,0,1-4.7.6,19.89,19.89,0,0,1-4.9-.5c1.7-4.7,3.9-7,4.7-7S146.9,68.28,148.8,72.88Z"/><path class="cls-4" d="M151.9,92.58v2.1c0,1.1-3.3,2.2-7.4,2.2s-7.5-.8-7.5-2v-2.1c0,1.2,3.4,2.1,7.5,2S151.9,93.68,151.9,92.58Z"/><path class="cls-7" d="M148.7,96.78v-.3a13.89,13.89,0,0,0,1.9-.6A6.63,6.63,0,0,1,148.7,96.78Z"/><path class="cls-7" d="M148.6,98.68v-.2l.5-.1A2.19,2.19,0,0,0,148.6,98.68Z"/><path class="cls-8" d="M150.7,95.78l.3-.1v1.4c0,.4-.6.9-1.6,1.2v-.4a.55.55,0,0,1-.3.5l-.5.1a10.87,10.87,0,0,0,.1-1.8A4.45,4.45,0,0,0,150.7,95.78Z"/><path class="cls-8" d="M149.4,97.88v1.4c0,.3-.3.6-.9.8l.1-1.4c.2-.1.3-.2.5-.3A2.19,2.19,0,0,0,149.4,97.88Z"/><path class="cls-9" d="M146.4,73.28a20.48,20.48,0,0,0,2.4-.5,42.14,42.14,0,0,1,3,15.7v4.2c-.2.6-1.4,1.2-3.1,1.6v-2.9A73.61,73.61,0,0,0,146.4,73.28Z"/><path class="cls-10" d="M146.4,73.18a27.87,27.87,0,0,0-2.9-7.2.6.6,0,0,1,.4-.1c.8,0,3,2.3,4.9,6.9A8.6,8.6,0,0,1,146.4,73.18Z"/><path class="cls-8" d="M151.9,92.78v1.9a.37.37,0,0,1-.1.3h0a2.18,2.18,0,0,1-.9.7l-.3.1a6,6,0,0,1-1.9.6v-2.1C150.5,94,151.7,93.38,151.9,92.78Z"/><path class="cls-1" d="M133.2,95.78c.9,1.4,5.8,7.6,5.8,15.4,0,2.4-1.6,5.6-2.7,7.3a12.3,12.3,0,0,0-2.3,4.9c-1.8-1.6-1.5-4.5-2.1-4-1.8,1.6-2.4,5-2,10-2.7-3.6-7.9-12.7-6.9-19.8.6-4.6,5.5-10.8,8.2-13.9Z"/><path class="cls-2" d="M133.2,95.78a19.22,19.22,0,0,1,1.6,4.2c1,3.5,1.7,7.4,1.2,8.9a8.66,8.66,0,0,1-2.3,3.9c-1.7,2.1-1.6,3.4-2.7,6.4-1-4.1-5-10.2-4.8-13.6s3.7-8.7,5-9.9Z"/><path class="cls-3" d="M133.1,95.78a10.47,10.47,0,0,0,.5,3c.6,1.8,1.5,3.7,1.2,5.7-.2,1.7-1,2.9-.9,4.3-.7-.8-.6-1.3-.9-2.3-1.2.9-.7,3.6-1.4,4.6-1.4-3.5-2.9-3.9-3.6-6.2s2-7.5,3.2-9.2Z"/><path class="cls-4" d="M138.2,95.58l-.1,1.8c0,1-3,1.6-6.5,1.4s-6.4-1.2-6.3-2.2l.1-1.8c-.1,1,2.8,2,6.3,2.2S138.1,96.58,138.2,95.58Z"/><path class="cls-4" d="M136.4,98l-.1,1.4c0,.8-2.2,1.3-4.9,1.1s-4.7-.8-4.7-1.6l.1-1.4c-.1.8,2,1.5,4.7,1.7S136.4,98.88,136.4,98Z"/><path class="cls-5" d="M128.3,72.38a20.5,20.5,0,0,0,9.5.7A42.61,42.61,0,0,1,139.6,89c-.2,3.7-.5,6.4-.5,6.4a30.68,30.68,0,0,1-7.4,1,30.36,30.36,0,0,1-7.3-2s.2-2.7.4-6.4a44.74,44.74,0,0,1,3.5-15.6Z"/><path class="cls-6" d="M137.9,73.08a20.8,20.8,0,0,1-9.6-.6c2.1-4.7,4.5-6.7,5.3-6.7S136.4,68.28,137.9,73.08Z"/><path class="cls-4" d="M139.4,93l-.1,2.1c-.1,1.1-3.5,1.8-7.6,1.6s-7.4-1.3-7.3-2.5l.1-2.1c-.1,1.1,3.2,2.3,7.3,2.5S139.3,94.08,139.4,93Z"/><path class="cls-7" d="M135.9,96.78v-.3a14.16,14.16,0,0,0,2-.4A3.72,3.72,0,0,1,135.9,96.78Z"/><path class="cls-7" d="M135.7,98.88v-.2l.5-.1A2.19,2.19,0,0,0,135.7,98.88Z"/><path class="cls-8" d="M138,96.08l.3-.1-.1,1.4c-.1.5-.7.8-1.7,1.1v-.4a.54.54,0,0,1-.3.4l-.5.1c.1-.6.1-1.2.2-1.8A4.37,4.37,0,0,0,138,96.08Z"/><path class="cls-8" d="M136.5,98.18v1.4c-.1.3-.4.5-1,.7.1-.5.1-.9.2-1.4.2-.1.3-.2.5-.3S136.5,98.28,136.5,98.18Z"/><path class="cls-9" d="M135.6,73.38l2.4-.3A44.73,44.73,0,0,1,139.7,89q-.15,2.55-.3,4.2c-.2.6-1.4,1.1-3.2,1.3.1-1,.1-1.9.2-2.9A84.85,84.85,0,0,0,135.6,73.38Z"/><path class="cls-10" d="M135.5,73.18a28.8,28.8,0,0,0-2.3-7.4.6.6,0,0,1,.4-.1c.8.1,2.8,2.6,4.3,7.3A6.52,6.52,0,0,1,135.5,73.18Z"/><path class="cls-8" d="M139.4,93.28v-.2l-.1,2.1a.37.37,0,0,1-.1.3h0a2.07,2.07,0,0,1-1,.6l-.3.1a14.16,14.16,0,0,1-2,.4c.1-.7.1-1.4.2-2.1C137.9,94.18,139.1,93.68,139.4,93.28Z"/><path class="cls-4" d="M135.6,96.08l-.1,2c-.1,1.1-3.4,1.8-7.4,1.5s-7.2-1.4-7.1-2.5l.1-2c-.1,1.1,3.1,2.2,7.1,2.5S135.5,97.18,135.6,96.08Z"/><path class="cls-4" d="M133.6,98.78l-.1,1.5c0,.9-2.5,1.4-5.5,1.2s-5.3-1.1-5.3-1.9l.1-1.5c-.1.8,2.3,1.7,5.3,1.9S133.5,99.68,133.6,98.78Z"/><path class="cls-5" d="M130.1,70.78a19.57,19.57,0,0,0,5.4-.2,49.57,49.57,0,0,1,1.8,18c-.3,4.2-.6,7.2-.6,7.2a35.15,35.15,0,0,1-8.4,1.1c-3.3-.2-8.2-2.3-8.2-2.3s.2-3.1.5-7.2a50.83,50.83,0,0,1,4.1-17.6A19.81,19.81,0,0,0,130.1,70.78Z"/><path class="cls-6" d="M135.5,70.58a32.52,32.52,0,0,1-5.4.2,20.54,20.54,0,0,1-5.4-1c2.4-5.1,5-7.5,6-7.4S133.8,65.28,135.5,70.58Z"/><path class="cls-4" d="M136.9,93l-.2,2.4c-.1,1.3-3.9,2.1-8.5,1.8s-8.3-1.6-8.2-2.9l.2-2.4c-.1,1.3,3.6,2.6,8.2,2.9S136.9,94.28,136.9,93Z"/><path class="cls-7" d="M133,97.38v-.3a17.42,17.42,0,0,0,2.2-.5A4.19,4.19,0,0,1,133,97.38Z"/><path class="cls-7" d="M132.7,99.68v-.2l.6-.1Z"/><path class="cls-8" d="M135.3,96.58c.2,0,.3,0,.4-.1l-.1,1.6c-.1.5-.8.9-1.9,1.2v-.4a1,1,0,0,1-.4.5l-.6.1.3-2.1A4.89,4.89,0,0,0,135.3,96.58Z"/><path class="cls-8" d="M133.7,99v.4l-.1,1.1c0,.3-.4.6-1.1.8a7.77,7.77,0,0,1,.2-1.6l.6-.3Z"/><path class="cls-9" d="M132.8,70.78a24.77,24.77,0,0,0,2.7-.3,49.57,49.57,0,0,1,1.8,18c-.2,1.8-.3,3.5-.4,4.7-.2.7-1.6,1.3-3.6,1.5.1-1,.2-2.1.3-3.2A95.71,95.71,0,0,0,132.8,70.78Z"/><path class="cls-10" d="M132.8,70.88a31.23,31.23,0,0,0-2.5-8.4.6.6,0,0,1,.4-.1c.9,0,3.1,2.9,4.8,8.2Z"/><path class="cls-8" d="M137,93.18c.1-.1.1-.1.1-.2l-.2,2.4c-.1.2-.1.3-.2.4h0a2.59,2.59,0,0,1-1.1.7c-.2,0-.3.1-.4.1a8.73,8.73,0,0,1-2.2.5l.3-2.4C135.3,94.48,136.6,94,137,93.18Z"/><path class="cls-4" d="M151.7,98.38l-.1,2c-.1,1.1-3.4,1.7-7.4,1.5s-7.2-1.4-7.1-2.5l.1-2c-.1,1.1,3.1,2.2,7.1,2.5S151.6,99.48,151.7,98.38Z"/><path class="cls-4" d="M149.6,101.08l-.1,1.5c0,.9-2.5,1.4-5.5,1.2s-5.4-1-5.3-1.9l.1-1.5c-.1.8,2.3,1.7,5.3,1.9S149.6,102,149.6,101.08Z"/><path class="cls-5" d="M146.2,73.08a19.57,19.57,0,0,0,5.4-.2,49.57,49.57,0,0,1,1.8,18c-.3,4.2-.6,7.2-.6,7.2a35.15,35.15,0,0,1-8.4,1.1c-3.3-.2-8.2-2.3-8.2-2.3s.2-3.1.5-7.2a50.83,50.83,0,0,1,4.1-17.6A23.47,23.47,0,0,0,146.2,73.08Z"/><path class="cls-6" d="M151.6,72.78a24.42,24.42,0,0,1-5.4.2,20.54,20.54,0,0,1-5.4-1c2.4-5.1,5.1-7.5,6-7.4S149.9,67.58,151.6,72.78Z"/><path class="cls-4" d="M153,95.28l-.2,2.4c0,1.3-3.9,2.1-8.5,1.8s-8.3-1.6-8.2-2.9l.2-2.4c-.1,1.3,3.6,2.6,8.2,2.9S152.9,96.58,153,95.28Z"/><path class="cls-7" d="M149.1,99.78v-.3a17.42,17.42,0,0,0,2.2-.5A8.26,8.26,0,0,1,149.1,99.78Z"/><path class="cls-7" d="M148.8,102v-.2l.6-.1Z"/><path class="cls-8" d="M151.4,98.88l.4-.1-.1,1.6c-.1.5-.8.9-1.9,1.2v-.4a1,1,0,0,1-.4.5l-.6.1.3-2.1A5.29,5.29,0,0,0,151.4,98.88Z"/><path class="cls-8" d="M149.8,101.28v.4l-.1,1.1c0,.3-.4.6-1.1.8l.2-1.6.6-.3Z"/><path class="cls-9" d="M148.9,73.08a24.77,24.77,0,0,0,2.7-.3,49.57,49.57,0,0,1,1.8,18c-.2,1.8-.3,3.5-.4,4.7-.3.7-1.7,1.3-3.7,1.5.1-1,.2-2.1.3-3.2A89.53,89.53,0,0,0,148.9,73.08Z"/><path class="cls-10" d="M148.9,73.18a31.23,31.23,0,0,0-2.5-8.4c.1-.1.2-.1.4-.1.9,0,3.2,2.9,4.8,8.2Z"/><path class="cls-8" d="M153,95.48c.1-.1.1-.1.1-.2l-.2,2.4c0,.2,0,.3-.1.4h0a2.59,2.59,0,0,1-1.1.7l-.4.1a7.85,7.85,0,0,1-2.2.5l.3-2.4C151.3,96.78,152.7,96.18,153,95.48Z"/><path class="cls-11" d="M162.7,64.08l5.2,3.8a14.31,14.31,0,0,0,1.1-1.5c1.5-1.7,3.8-4.4,2.9-6s-1.7-2.5-3.4-2.1a2.76,2.76,0,0,0-1.3,1.1,1.08,1.08,0,0,0-.8-.9c-1.5-.5-2.2,4-2.2,4.1A3.62,3.62,0,0,1,162.7,64.08Z"/><path class="cls-11" d="M143.6,109.38c-1.8,2.4-1.1,3.3-1.1,3.3l2,.4h0c1.1.2,2.7.4,4.3.7,3.1.7,6.3,1.5,6.5.2.3-1.8-2.2-3.8-5.7-4.5a11,11,0,0,0-1.8-.2,11.87,11.87,0,0,0,1.6-2.3s-6.3-.7-6.3-.2S143.9,109.08,143.6,109.38Z"/><path class="cls-12" d="M147.5,95.88l1.5,1.2c.2.3.3.2.4.1s.2-.2.9.2a6.53,6.53,0,0,1,1.5,1,5.78,5.78,0,0,1,1.8,2.3,7.86,7.86,0,0,1,.8,2.6,3.4,3.4,0,0,1,.1,1v.9a15.44,15.44,0,0,1-.4,3,21.72,21.72,0,0,0-.7,2.4,4.87,4.87,0,0,1-.4,1.1,1.78,1.78,0,0,1-1.1.8l-8.7-3.5c-.7-.9-.2-1.4,0-2a16.59,16.59,0,0,0,.6-1.6,5.4,5.4,0,0,0,.4-1.2v-.1h0c0,.2.1.3.2.5l.6.6c.1.1.1,0-.1-.2a18.78,18.78,0,0,1-2.4-2.5,7.33,7.33,0,0,1-1.4-3.7,3.77,3.77,0,0,1,1.1-3Z"/><path class="cls-11" d="M126.8,110.58c.4-.3-3.8-5.1-3.8-5.1a11.66,11.66,0,0,0-1,2.6c-.4-.4-.8-.9-1.2-1.3-2.5-2.5-5.7-3.4-7-2.1-1,1,1.5,3.1,3.8,5.3,1.1,1.2,2.1,2.4,3,3.2h0l1.4,1.4s1.1,0,2.1-2.8C124.3,111.28,126.2,110.88,126.8,110.58Z"/><path class="cls-12" d="M133.2,100.18c.2,2.1-.8,2.8-1.6,3.8s-1.6,2-2.4,2.9a33.15,33.15,0,0,1-2.6,2.7l-1.3,1.3c-.2.2-.5.4-.7.6a1.67,1.67,0,0,1-1.2.1l-6.2-7.1a1.39,1.39,0,0,1,.2-1.1,4.35,4.35,0,0,1,.7-.6l1.5-1.1c1-.8,2-1.5,3-2.2a34.47,34.47,0,0,1,3.2-2c1.2-.6,2-1.5,4-1.1Z"/><path class="cls-13" d="M121.2,91.08l-.3,4.1c-.3,4,6.8,5,15.6,5.5,7.6.5,16.4,1.4,16.8-4.2h0c1.9-14.6-1.4-27.2-14.1-28h0c-12.6-.8-16.5,7.7-17.7,17.7V87C121.4,88.28,121.3,89.68,121.2,91.08Z"/><path class="cls-12" d="M147.1,76a1.43,1.43,0,0,1,.3-1.1c.1-.1.2-.3.3-.4s.4-.4.6-.6a3.53,3.53,0,0,1,1.3-.8l1.3-.6c.4-.2.9-.5,1.3-.7a39.41,39.41,0,0,0,4.8-3.1,45.92,45.92,0,0,0,4.1-3.6,17,17,0,0,0,1.9-1.9,9,9,0,0,1,1-.9c.2-.1.5-.2.7-.3a.75.75,0,0,1,.5-.1h.4c.1,0,.3,0,1,.4l2.3,1.5c.7.5.8.6.8.7l.2.4a1.27,1.27,0,0,1,.1.6,2.92,2.92,0,0,1-.2.9,4.92,4.92,0,0,1-1,1.5,19.47,19.47,0,0,1-2.4,2.6,26.83,26.83,0,0,1-12.2,6.3,10.46,10.46,0,0,1-1.7.4l-1.7.3a2,2,0,0,1-.8.1,2.77,2.77,0,0,1-.9-.1l-.9-.3-.5-.3c-.2-.1-.4-.3-.6-.9Z"/><path class="cls-11" d="M124,86.48a3.74,3.74,0,0,0,1.7,2.4c.7.6,3.1,1.1-.3,3.6s-5.7-.7-6.6-2.2Z"/><path class="cls-12" d="M131.4,71.18a.9.9,0,0,1,0,1,1.09,1.09,0,0,1-.1.5,3.55,3.55,0,0,1-.4.9,4.89,4.89,0,0,1-1.2,1.3l-2.6,2.2-2.6,2.1a25.4,25.4,0,0,0-2.4,2l-.9.9c-.2.2-.3.4-.2.4a.35.35,0,0,0,.1-.2V82c0-.1.1,0,.2.3a17.68,17.68,0,0,0,1.6,2.2,3.81,3.81,0,0,1,.9,1.3,3.18,3.18,0,0,1,.3.9v.6l-.1.4c0,.1,0,.2-.6.8l-2.1,1.8c-.6.5-.8.5-.9.5H120c-.2.1-.4,0-.6,0a3,3,0,0,1-.8-.4,4.89,4.89,0,0,1-1.3-1.2,19.1,19.1,0,0,1-2.4-3.2,9.38,9.38,0,0,1-1-2.8,6.7,6.7,0,0,1,0-2,13.36,13.36,0,0,1,.7-1.8,9.62,9.62,0,0,1,1.8-2.2,10.92,10.92,0,0,1,1.7-1.3c2-1.2,4.1-2.3,6.2-3.3l3-1.5a7.49,7.49,0,0,1,1.6-.5,3.4,3.4,0,0,1,1-.1l.6.1a2.13,2.13,0,0,1,.9.6Z"/><path class="cls-14" d="M129.2,76.18c-3.9-2.9-5-6.1-4.5-7.1-.4,0-.9,1.3-1,1.9-2.7-11.4,1.7-14.2,3-15a8.93,8.93,0,0,0-2.4.9c2.1-6.5,9.5-8.2,10.1-8.4a6.5,6.5,0,0,0-3.1-.8c4.4-2.3,6.7-1.2,8.8-.4a2.13,2.13,0,0,0-1.1-1c2.1.2,4.2,2,4.3,1.9s.8.5-.8-2.8c2.8.8,3,2.9,2.6,3.6a2.34,2.34,0,0,1,1.8-.8,5.74,5.74,0,0,1,4.6,2.4,2.58,2.58,0,0,0-2.1.3,6.27,6.27,0,0,1,4.9,3.7,5,5,0,0,0-2-.8c.7.4,5.8,6.3,2.3,16.6a4,4,0,0,0-.3-1.5,21.1,21.1,0,0,1-1.6,3.4c-1.8,3.1-4.6,3.9-4.8,5.7s.2,1.4.2,1.6-1.3-.3-1.1-1.5-.6,1.4-3.9,3c-2.4,1.1-3.8,3.2-5.6,3.6C136.9,82.48,134.6,80.28,129.2,76.18Z"/><path class="cls-11" d="M133.2,71.28c2.6,2.5,4.9,4.4,5.5,6.3,1.6-2.4,3.6-3.8,6.2-5.7a9.93,9.93,0,0,0,4.3-7.5,9.72,9.72,0,0,0-19.4-1.2A10.52,10.52,0,0,0,133.2,71.28Z"/><ellipse class="cls-15" cx="139.45" cy="63.29" rx="9.4" ry="9.2" transform="translate(67.63 198.54) rotate(-86.44)"/><path class="cls-16" d="M138.2,61.18a12.25,12.25,0,0,0-1.9.2,3.59,3.59,0,0,0-1.8.7,5.56,5.56,0,0,1,1.7-.9,10.62,10.62,0,0,1,1.9-.4Z"/><path class="cls-16" d="M141.6,60.88a11.69,11.69,0,0,1,2,.6,6.19,6.19,0,0,1,1.7,1.1,4.17,4.17,0,0,0-1.8-.8,6.93,6.93,0,0,0-2-.3Z"/><polygon class="cls-17" points="141.2 62.38 143.2 62.68 141.2 62.78 141.2 62.38"/><path class="cls-17" d="M138.1,62.48c-.4-.1-.8-.1-1.2-.2s-.9-.1-1.3-.1h2.6Z"/><path class="cls-18" d="M141.7,64.78a1.34,1.34,0,0,1-.6.7,2.9,2.9,0,0,1-1.8.5,2.34,2.34,0,0,1-1.7-.7,2,2,0,0,1-.4-.8,1.49,1.49,0,0,1,.2-.9,1.39,1.39,0,0,0,0,.9,1,1,0,0,0,.4.7,3,3,0,0,0,1.6.5,3.29,3.29,0,0,0,1.7-.4,1.17,1.17,0,0,0,.6-.6,1.06,1.06,0,0,0,.1-.8A1,1,0,0,1,141.7,64.78Z"/><path class="cls-19" d="M141.8,54.18a10.12,10.12,0,0,1,7,6.5c-1.3-3.4-6.9.1-12.1-1.7V56l-1.5,2.3c-.2-.1-.4-.1-.5-.2a4.16,4.16,0,0,0-2.9-.2,11,11,0,0,1,6.4-3.9,8.77,8.77,0,0,1,3.6.2"/><path class="cls-17" d="M139.6,68.58c1.4,0,2.5-.7,2.8-.4s-.8,1.9-2.8,1.9-3.1-1.6-2.8-1.9S138.2,68.58,139.6,68.58Z"/></g></svg>