<svg id="Layer_3" data-name="Layer 3" xmlns="http://www.w3.org/2000/svg" viewBox="0 0 251 151"><defs><style>.cls-1{fill:#e84c59;}.cls-2{fill:#ee7b5c;}.cls-3{fill:#f9c862;}.cls-4{fill:#062633;}.cls-5{fill:#abaaaa;}.cls-6{fill:#e1dfe0;}.cls-7{fill:none;}.cls-8{fill:#041d26;}.cls-9{fill:#6e6e6e;}.cls-10{fill:silver;}.cls-11{fill:#5e3e21;}.cls-12{fill:#783a28;}.cls-13{fill:#8f4729;}.cls-14{fill:#dcb680;}.cls-15{fill:#c69666;}.cls-16{fill:#662f1e;}.cls-17{fill:#231d13;}.cls-18{fill:#574c3e;}.cls-19{fill:#442c1a;}</style></defs><title>Kristo</title><path class="cls-1" d="M99.55,96.17c2.49,3.29,6.87,9.85,7.14,14.48.41,7.19-5.46,15.81-8.41,19.19.81-4.9.48-8.34-1.2-10.09-.54-.55-.51,2.33-2.41,3.86a11.72,11.72,0,0,0-1.94-5.11c-1-1.73-2.32-5.09-2.11-7.53.66-7.81,5.94-13.53,7-14.87Z"/><path class="cls-2" d="M99.55,96.17c1.21,1.34,4.31,6.87,4.19,10.22s-4.53,9.13-5.83,13.14c-.83-3.07-.63-4.39-2.2-6.55a8.78,8.78,0,0,1-2-4c-.38-1.44.6-5.41,1.94-8.75a18.31,18.31,0,0,1,1.91-4.08Z"/><path class="cls-3" d="M99.55,96.17c1.11,1.79,3.39,7.21,2.5,9.44s-2.41,2.52-4.11,5.9c-.63-1.1.15-3.74-1-4.67-.35.93-.34,1.53-1.1,2.24.24-1.37-.48-2.68-.58-4.4-.11-2,.94-3.86,1.6-5.61a12.11,12.11,0,0,0,.75-3Z"/><path class="cls-4" d="M99,97.45c3.54.07,6.42-.69,6.44-1.68v1.8c0,1-2.91,1.76-6.45,1.69s-6.39-.93-6.37-1.93V95.52C92.56,96.52,95.4,97.38,99,97.45Z"/><path class="cls-4" d="M98.92,99.63c2.66.05,4.84-.52,4.85-1.27v1.36c0,.75-2.18,1.32-4.85,1.27s-4.82-.7-4.8-1.45V98.18C94.1,98.93,96.25,99.58,98.92,99.63Z"/><path class="cls-5" d="M104.24,73.17A44.67,44.67,0,0,1,106.49,89c-.07,3.67-.12,6.38-.12,6.38a30.53,30.53,0,0,1-7.4,1.4,31.08,31.08,0,0,1-7.31-1.64s-.07-2.68,0-6.45a43.81,43.81,0,0,1,3-15.72,20.79,20.79,0,0,0,4.71.64A19.45,19.45,0,0,0,104.24,73.17Z"/><path class="cls-6" d="M99.51,66.17c.84,0,3,2.29,4.73,7a19.47,19.47,0,0,1-4.87.5A20.79,20.79,0,0,1,94.66,73C96.52,68.48,98.71,66.17,99.51,66.17Z"/><path class="cls-4" d="M99,95c4.11.08,7.46-.8,7.48-2v2.1c0,1.16-3.37,2-7.48,2S91.58,96,91.6,94.86v-2.1C91.58,93.92,94.89,94.92,99,95Z"/><path class="cls-7" d="M92.84,96.07a11.5,11.5,0,0,0,1.92.58v.28A5,5,0,0,1,92.84,96.07Z"/><path class="cls-7" d="M94.4,98.64l.49.13v.16A3,3,0,0,1,94.4,98.64Z"/><path class="cls-8" d="M94.77,96.93a14,14,0,0,0,.08,1.84l-.45-.13a.65.65,0,0,1-.28-.47v.37c-1-.33-1.56-.76-1.56-1.21v-1.4l.3.14A5,5,0,0,0,94.77,96.93Z"/><path class="cls-8" d="M94.4,98.64a3.1,3.1,0,0,0,.5.29l.09,1.41c-.56-.23-.9-.51-.89-.81V98.17A.64.64,0,0,0,94.4,98.64Z"/><path class="cls-9" d="M94.72,91.66v2.87c-1.73-.38-2.91-1-3.11-1.58V88.76a44,44,0,0,1,3-15.73,17.54,17.54,0,0,0,2.38.46A78.83,78.83,0,0,0,94.72,91.66Z"/><path class="cls-10" d="M94.62,73c1.87-4.56,4.06-6.91,4.86-6.89a.76.76,0,0,1,.38.11A26.93,26.93,0,0,0,97,73.49,17.54,17.54,0,0,1,94.62,73Z"/><path class="cls-8" d="M94.71,94.53v2.12a11.5,11.5,0,0,1-1.92-.58l-.3-.14a2.27,2.27,0,0,1-.9-.72h0a.7.7,0,0,1-.1-.34v-2.1a.67.67,0,0,0,0,.2C91.8,93.58,93,94.17,94.71,94.53Z"/><path class="cls-1" d="M112.27,95.91c2.73,3.09,7.62,9.28,8.25,13.88,1,7.13-4.2,16.19-6.87,19.79.42-5-.17-8.35-2-10-.58-.51-.33,2.36-2.1,4a11.8,11.8,0,0,0-2.33-4.94c-1.11-1.65-2.72-4.89-2.7-7.33,0-7.84,4.85-14,5.78-15.38Z"/><path class="cls-2" d="M112.27,95.91c1.3,1.25,4.83,6.51,5,9.86s-3.79,9.46-4.78,13.56c-1.07-3-1-4.33-2.71-6.36s-1.82-2.42-2.28-3.88.19-5.44,1.25-8.88A18.41,18.41,0,0,1,110.33,96Z"/><path class="cls-3" d="M112.27,95.91c1.25,1.7,3.94,6.92,3.23,9.22s-2.2,2.7-3.63,6.21c-.72-1-.15-3.74-1.37-4.58-.28,1-.22,1.55-.93,2.32.13-1.38-.68-2.64-.92-4.34-.27-2,.63-3.92,1.15-5.73a11.86,11.86,0,0,0,.51-3Z"/><path class="cls-4" d="M111.78,97.25c3.53-.21,6.35-1.19,6.29-2.19l.11,1.8c.06,1-2.76,2-6.3,2.19s-6.48-.42-6.48-1.42l-.1-1.8C105.33,96.82,108.24,97.46,111.78,97.25Z"/><path class="cls-4" d="M111.91,99.42c2.66-.16,4.78-.9,4.74-1.65l.08,1.36c0,.75-2.08,1.49-4.74,1.65s-4.86-.32-4.9-1.07L107,98.35C107.05,99.1,109.24,99.58,111.91,99.42Z"/><path class="cls-5" d="M115.13,72.64a44.7,44.7,0,0,1,3.5,15.63c.21,3.66.38,6.37.38,6.37a30,30,0,0,1-7.27,2,30.9,30.9,0,0,1-7.41-1s-.28-2.67-.51-6.43a44.1,44.1,0,0,1,1.75-15.91,20.91,20.91,0,0,0,9.56-.61Z"/><path class="cls-6" d="M109.86,66c.84,0,3.2,2,5.27,6.65a20.91,20.91,0,0,1-9.56.61C107.06,68.55,109.06,66,109.86,66Z"/><path class="cls-4" d="M111.63,94.8c4.1-.25,7.37-1.38,7.3-2.54l.13,2.09c.07,1.16-3.2,2.3-7.3,2.54s-7.49-.49-7.56-1.65l-.12-2.07C104.14,94.31,107.53,95,111.63,94.8Z"/><path class="cls-7" d="M105.57,96.36a12.25,12.25,0,0,0,2,.42v.28A5.09,5.09,0,0,1,105.57,96.36Z"/><path class="cls-7" d="M107.29,98.79l.5.1v.16A2.62,2.62,0,0,1,107.29,98.79Z"/><path class="cls-8" d="M107.56,97.06c.07.62.14,1.23.23,1.83l-.5-.1a.65.65,0,0,1-.32-.44v.37c-1-.26-1.63-.64-1.66-1.09l-.08-1.39.31.12A4.83,4.83,0,0,0,107.56,97.06Z"/><path class="cls-8" d="M107.29,98.79a2.53,2.53,0,0,0,.52.26c.06.47.13.93.2,1.4-.58-.19-.94-.44-1-.74l-.05-1v-.37A.66.66,0,0,0,107.29,98.79Z"/><path class="cls-9" d="M107.1,91.8c.06,1,.13,1.93.21,2.87-1.75-.24-3-.71-3.22-1.33-.09-1.09-.2-2.53-.3-4.18a44.32,44.32,0,0,1,1.74-15.91,19.53,19.53,0,0,0,2.41.27A78.75,78.75,0,0,0,107.1,91.8Z"/><path class="cls-10" d="M105.53,73.25c1.5-4.7,3.5-7.21,4.3-7.26a.86.86,0,0,1,.39.09,26.85,26.85,0,0,0-2.28,7.44A19.53,19.53,0,0,1,105.53,73.25Z"/><path class="cls-8" d="M107.31,94.67c.06.71.14,1.41.22,2.11a12.25,12.25,0,0,1-2-.42l-.31-.12a2,2,0,0,1-1-.65h0a.7.7,0,0,1-.12-.33L104,93.17a.6.6,0,0,0,0,.19C104.34,94,105.56,94.43,107.31,94.67Z"/><path class="cls-4" d="M115.23,97.8c4-.28,7.16-1.41,7.08-2.53l.14,2c.08,1.13-3.09,2.26-7.08,2.53s-7.28-.41-7.35-1.54l-.14-2C108,97.38,111.25,98.07,115.23,97.8Z"/><path class="cls-4" d="M115.4,100.25c3-.21,5.39-1.06,5.33-1.91l.11,1.54c0,.84-2.33,1.69-5.33,1.9s-5.48-.31-5.54-1.16l-.11-1.53C109.92,99.94,112.4,100.46,115.4,100.25Z"/><path class="cls-5" d="M118.77,70a50.06,50.06,0,0,1,4.1,17.59c.28,4.13.49,7.18.49,7.18s-4.91,2.08-8.18,2.31S106.82,96,106.82,96s-.35-3-.64-7.25a49.49,49.49,0,0,1,1.81-18,22.9,22.9,0,0,0,5.36.25A22.23,22.23,0,0,0,118.77,70Z"/><path class="cls-6" d="M112.76,62.57c1-.07,3.63,2.27,6,7.44a22.24,22.24,0,0,1-5.42,1,22.9,22.9,0,0,1-5.36-.25C109.63,65.48,111.86,62.63,112.76,62.57Z"/><path class="cls-4" d="M115,95c4.63-.31,8.3-1.63,8.21-2.93l.17,2.36c.09,1.3-3.59,2.62-8.22,2.94s-8.44-.48-8.53-1.79l-.16-2.36C106.6,94.56,110.4,95.35,115,95Z"/><path class="cls-7" d="M108.23,96.85a11.79,11.79,0,0,0,2.2.46v.32A5.43,5.43,0,0,1,108.23,96.85Z"/><path class="cls-7" d="M110.19,99.58l.56.11v.18A2.7,2.7,0,0,1,110.19,99.58Z"/><path class="cls-8" d="M110.47,97.63c.09.69.18,1.38.28,2.06l-.56-.11a.67.67,0,0,1-.36-.49v.42c-1.13-.28-1.83-.71-1.87-1.22l-.11-1.57.36.13A5.35,5.35,0,0,0,110.47,97.63Z"/><path class="cls-8" d="M110.19,99.58a2.94,2.94,0,0,0,.59.29c.07.53.15,1,.24,1.57-.66-.2-1.07-.49-1.09-.82l-.08-1.11v-.42A.71.71,0,0,0,110.19,99.58Z"/><path class="cls-9" d="M109.9,91.7c.07,1.1.17,2.17.27,3.23-2-.25-3.36-.77-3.64-1.46-.12-1.24-.25-2.86-.38-4.72a49.51,49.51,0,0,1,1.8-18,22.59,22.59,0,0,0,2.72.28A88.8,88.8,0,0,0,109.9,91.7Z"/><path class="cls-10" d="M108,70.79c1.65-5.31,3.88-8.16,4.78-8.23a.94.94,0,0,1,.43.1,30.86,30.86,0,0,0-2.49,8.41A22.59,22.59,0,0,1,108,70.79Z"/><path class="cls-8" d="M110.17,94.93c.08.81.17,1.6.26,2.38a11.79,11.79,0,0,1-2.2-.46l-.36-.13a2.27,2.27,0,0,1-1.08-.72h0a.85.85,0,0,1-.15-.37l-.16-2.36a.9.9,0,0,0,.06.22C106.81,94.17,108.19,94.68,110.17,94.93Z"/><path class="cls-4" d="M99.15,100.09c4-.28,7.15-1.41,7.07-2.53l.14,2c.08,1.12-3.09,2.26-7.07,2.53s-7.28-.41-7.36-1.54l-.14-2C91.87,99.67,95.16,100.36,99.15,100.09Z"/><path class="cls-4" d="M99.32,102.54c3-.21,5.38-1.06,5.33-1.91l.1,1.53c.06.85-2.33,1.7-5.33,1.91s-5.48-.31-5.54-1.16l-.1-1.53C93.83,102.23,96.31,102.74,99.32,102.54Z"/><path class="cls-5" d="M102.69,72.3a50,50,0,0,1,4.09,17.59c.29,4.13.5,7.18.5,7.18s-4.88,2.1-8.18,2.3a35.2,35.2,0,0,1-8.37-1.08s-.34-3-.63-7.25a50,50,0,0,1,1.8-18,22.38,22.38,0,0,0,5.36.25A22.79,22.79,0,0,0,102.69,72.3Z"/><path class="cls-6" d="M96.68,64.86c.94-.07,3.62,2.27,6,7.44a22.81,22.81,0,0,1-5.43,1,22.38,22.38,0,0,1-5.36-.25C93.55,67.77,95.78,64.92,96.68,64.86Z"/><path class="cls-4" d="M99,97.32c4.62-.31,8.3-1.63,8.21-2.93l.16,2.36c.09,1.3-3.59,2.62-8.21,2.94s-8.45-.48-8.54-1.79l-.18-2.36C90.51,96.85,94.33,97.64,99,97.32Z"/><path class="cls-7" d="M92.14,99.17a11.89,11.89,0,0,0,2.21.46V100A5.42,5.42,0,0,1,92.14,99.17Z"/><path class="cls-7" d="M94.1,101.87l.56.11v.18A2.7,2.7,0,0,1,94.1,101.87Z"/><path class="cls-8" d="M94.4,99.92c.08.69.17,1.38.27,2.06l-.56-.11a.67.67,0,0,1-.36-.49v.42c-1.13-.29-1.84-.71-1.87-1.22L91.77,99l.35.13A5.44,5.44,0,0,0,94.4,99.92Z"/><path class="cls-8" d="M94.1,101.87a2.94,2.94,0,0,0,.59.29l.24,1.57c-.66-.2-1.06-.49-1.08-.82l-.08-1.11v-.42A.7.7,0,0,0,94.1,101.87Z"/><path class="cls-9" d="M93.81,94c.08,1.1.17,2.17.28,3.23-2-.25-3.37-.77-3.65-1.46-.11-1.24-.25-2.86-.38-4.72a49.49,49.49,0,0,1,1.81-18,22.42,22.42,0,0,0,2.71.28A89.91,89.91,0,0,0,93.81,94Z"/><path class="cls-10" d="M91.87,73.08c1.64-5.31,3.87-8.17,4.77-8.23a1.12,1.12,0,0,1,.44.09,30.5,30.5,0,0,0-2.5,8.42A22.42,22.42,0,0,1,91.87,73.08Z"/><path class="cls-8" d="M94.09,97.22c.08.81.16,1.6.26,2.38a11.89,11.89,0,0,1-2.21-.46L91.79,99a2.51,2.51,0,0,1-1.09-.72h0a.73.73,0,0,1-.14-.37l-.16-2.38a1,1,0,0,0,.06.22C90.72,96.45,92.11,97,94.09,97.22Z"/><path class="cls-11" d="M79.26,62.81c0-.07-.65-4.61-2.22-4.12a1,1,0,0,0-.77.86,2.11,2.11,0,0,0-1.33-1.06c-1.73-.43-2.52.54-3.4,2.08s1.4,4.27,2.88,6.05a10.25,10.25,0,0,0,1.13,1.49l5.21-3.77A3.81,3.81,0,0,1,79.26,62.81Z"/><path class="cls-11" d="M100.4,107c0-.52-6.33.23-6.33.23a13.12,13.12,0,0,0,1.59,2.35,11.55,11.55,0,0,0-1.76.19c-3.49.65-6,2.68-5.7,4.54.24,1.31,3.38.45,6.51-.19,1.58-.32,3.16-.47,4.32-.72h0l2-.37s.65-.89-1.08-3.34C99.58,109.31,100.32,107.56,100.4,107Z"/><path class="cls-12" d="M101.28,96a3.77,3.77,0,0,1,1,3A8.21,8.21,0,0,1,101,102.7a14.91,14.91,0,0,1-2.37,2.46c-.21.19-.25.3-.12.24a2,2,0,0,0,.56-.6,4.11,4.11,0,0,0,.25-.52h0v.13a6.49,6.49,0,0,0,.36,1.18c.15.47.37,1,.6,1.59s.67,1.06,0,2l-8.73,3.46a1.8,1.8,0,0,1-1.06-.83,9.38,9.38,0,0,1-.38-1.13c-.23-.76-.45-1.57-.65-2.43a18,18,0,0,1-.41-3v-.92a3.73,3.73,0,0,1,.09-1,8.14,8.14,0,0,1,.76-2.56,7.39,7.39,0,0,1,1.76-2.31,8,8,0,0,1,1.55-1c.73-.39.81-.34.86-.23s.18.18.39-.06A10,10,0,0,1,95.92,96Z"/><path class="cls-11" d="M119.33,112c1,2.81,2.14,2.78,2.14,2.78l1.44-1.44h0c.87-.82,1.88-2,3-3.16,2.29-2.21,4.78-4.32,3.83-5.26-1.34-1.34-4.46-.38-7,2.13a12.3,12.3,0,0,0-1.15,1.34,12.09,12.09,0,0,0-1-2.63s-4.21,4.82-3.77,5.08S119.17,111.49,119.33,112Z"/><path class="cls-12" d="M113.64,96.59c2-.45,2.81.53,4,1.09a22.32,22.32,0,0,1,3.16,2c1,.7,2,1.44,3,2.19l1.46,1.14a6.63,6.63,0,0,1,.72.59,1.41,1.41,0,0,1,.24,1.13l-6.16,7.09a1.51,1.51,0,0,1-1.16-.08,8.18,8.18,0,0,1-.68-.63l-1.33-1.29c-.89-.86-1.75-1.74-2.59-2.66s-1.63-1.88-2.42-2.85-1.79-1.69-1.63-3.77Z"/><path class="cls-13" d="M122,87.17v-.58a.54.54,0,0,0,0-.18c-1.19-10-5.13-18.5-17.73-17.72h0c-12.73.8-16,13.37-14.09,28h0c.37,5.62,9.23,4.68,16.84,4.21,8.83-.54,15.86-1.48,15.58-5.48l-.26-4.11C122.17,89.92,122.09,88.53,122,87.17Z"/><path class="cls-12" d="M96.34,76.17c-.24.6-.41.77-.57.86l-.46.29a3.53,3.53,0,0,1-.9.3,6.5,6.5,0,0,1-.87.12,4.58,4.58,0,0,1-.83-.08l-1.65-.28c-.55-.11-1.09-.24-1.65-.37A28.77,28.77,0,0,1,83,74.7a24.89,24.89,0,0,1-5.75-4,26.89,26.89,0,0,1-2.4-2.61,5.59,5.59,0,0,1-1-1.51,5.29,5.29,0,0,1-.21-.94,1.26,1.26,0,0,1,.08-.58l.15-.36c0-.1.11-.25.76-.74l2.3-1.47c.71-.38.88-.42,1-.41h.36a1.51,1.51,0,0,1,.52.06,3.68,3.68,0,0,1,.69.34,3.89,3.89,0,0,1,1,.94c.6.66,1.23,1.31,1.88,1.93a47.21,47.21,0,0,0,4.13,3.59A38.55,38.55,0,0,0,91.26,72c.43.21.86.45,1.3.66l1.34.58a4.67,4.67,0,0,1,1.33.77,2.94,2.94,0,0,1,.63.64c.1.14.19.3.29.45a1.72,1.72,0,0,1,.2,1Z"/><path class="cls-11" d="M124.61,90.52c-.86,1.51-3.2,4.69-6.56,2.17s-1-3-.27-3.55a4,4,0,0,0,1.67-2.45Z"/><path class="cls-12" d="M112.08,71.44c.46-.45.69-.54.87-.56l.56-.09a3.37,3.37,0,0,1,1,.06,4.54,4.54,0,0,1,1.63.54c1,.51,2,1,3,1.49a54,54,0,0,1,6.19,3.3A13.71,13.71,0,0,1,127,77.45a7.53,7.53,0,0,1,1.8,2.2,5.8,5.8,0,0,1,.65,3.83,8.32,8.32,0,0,1-1,2.8,20.15,20.15,0,0,1-2.37,3.23,6.17,6.17,0,0,1-1.27,1.23,6.46,6.46,0,0,1-.84.4,1.89,1.89,0,0,1-.58,0H123c-.1,0-.27,0-.92-.53L120,88.85c-.56-.58-.64-.74-.65-.84l-.1-.37a1.82,1.82,0,0,1,0-.57,5.13,5.13,0,0,1,.26-.87,5.08,5.08,0,0,1,.9-1.34A25.91,25.91,0,0,0,122,82.65c.14-.26.22-.43.2-.32a.86.86,0,0,0,0,.32.64.64,0,0,0,.12.25c.07,0,0-.17-.25-.44a8.42,8.42,0,0,0-.88-.91c-.71-.64-1.53-1.36-2.38-2l-2.59-2.13-2.59-2.25a5,5,0,0,1-1.18-1.29A3.71,3.71,0,0,1,112,73c-.06-.17-.1-.36-.15-.54a1.64,1.64,0,0,1,.18-1Z"/><path class="cls-14" d="M106,85c-1.84-.44-3.16-2.48-5.58-3.6-3.35-1.55-4.09-4.18-3.93-3S95.4,80,95.4,79.87s.39.19.15-1.56-3-2.58-4.8-5.66a17.35,17.35,0,0,1-1.55-3.4,5.2,5.2,0,0,0-.3,1.47c-3.5-10.29,1.63-16.23,2.32-16.63a5.21,5.21,0,0,0-2,.84,6.33,6.33,0,0,1,4.89-3.66A3,3,0,0,0,92,50.94a6,6,0,0,1,4.59-2.43,2.05,2.05,0,0,1,1.79.81c-.41-.68-.24-2.83,2.6-3.64-1.55,3.31-.88,2.69-.75,2.81s2.21-1.67,4.29-1.86a2,2,0,0,0-1.07,1c2.09-.76,4.4-1.85,8.75.39a7.07,7.07,0,0,0-3.12.76c.58.16,8,1.9,10.06,8.39-.34-.15-2.17-1-2.42-.85,1.33.79,5.7,3.63,3,15-.09-.6-.62-1.93-1-1.9.5,1-.61,4.18-4.5,7.11C108.89,80.56,106.6,82.71,106,85Z"/><path class="cls-11" d="M113.69,63.4a9.75,9.75,0,1,0-19.47,1.21,10,10,0,0,0,4.28,7.48c2.62,1.9,4.64,3.34,6.25,5.69.61-1.86,2.92-3.81,5.5-6.32A10.39,10.39,0,0,0,113.69,63.4Z"/><ellipse class="cls-15" cx="103.91" cy="63.54" rx="9.23" ry="9.44" transform="translate(-3.75 6.57) rotate(-3.56)"/><path class="cls-16" d="M105.4,61a10.71,10.71,0,0,1,1.94.45,4.41,4.41,0,0,1,1.73.93,4.17,4.17,0,0,0-1.79-.68,10.23,10.23,0,0,0-1.91-.2Z"/><path class="cls-16" d="M101.91,61.73a10.53,10.53,0,0,0-2,.31,4.3,4.3,0,0,0-1.79.82,4.51,4.51,0,0,1,1.72-1.06,10.12,10.12,0,0,1,2-.57Z"/><polygon class="cls-17" points="102.26 62.98 100.25 62.94 102.25 62.65 102.26 62.98"/><path class="cls-17" d="M105.23,62.46h1.28a9,9,0,0,1,1.27,0,9,9,0,0,0-1.26.12c-.42.06-.84.13-1.25.21Z"/><path class="cls-18" d="M101.69,64.11a1.09,1.09,0,0,0,.13.84,1.78,1.78,0,0,0,.59.6,3,3,0,0,0,1.65.38,2.31,2.31,0,0,0,1.57-.54,1.6,1.6,0,0,0,.45-.7,1.07,1.07,0,0,0,0-.86,1.1,1.1,0,0,1,.16.9,1.77,1.77,0,0,1-.43.85,2.44,2.44,0,0,1-1.74.69,2.94,2.94,0,0,1-1.8-.51,1.85,1.85,0,0,1-.59-.74A1.07,1.07,0,0,1,101.69,64.11Z"/><path class="cls-19" d="M101.64,54.38a9.44,9.44,0,0,1,3.59-.21A11.08,11.08,0,0,1,111.67,58a4.45,4.45,0,0,0-2.86.17l-.46.21-1.54-2.34v3c-5.2,1.81-10.8-1.66-12.11,1.71a10.2,10.2,0,0,1,7-6.41"/><path class="cls-17" d="M106.66,68.42c.29.3-.8,1.89-2.78,1.89s-3.07-1.59-2.78-1.89,1.43.38,2.78.38S106.4,68.17,106.66,68.42Z"/></svg>