<?xml version="1.0" encoding="utf-8"?>
<!-- Generator: Adobe Illustrator 22.1.0, SVG Export Plug-In . SVG Version: 6.00 Build 0)  -->
<svg version="1.1" id="Layer_1" xmlns="http://www.w3.org/2000/svg" xmlns:xlink="http://www.w3.org/1999/xlink" x="0px" y="0px"
	 viewBox="0 0 251 151" style="enable-background:new 0 0 251 151;" xml:space="preserve">
<style type="text/css">
	.st0{fill:#E84C59;}
	.st1{fill:#EE7B5C;}
	.st2{fill:#F9C862;}
	.st3{fill:#062633;}
	.st4{fill:#ABAAAA;}
	.st5{fill:#E1DFE0;}
	.st6{fill:none;}
	.st7{fill:#041D26;}
	.st8{fill:#6E6E6E;}
	.st9{fill:#C0C0C0;}
	.st10{fill:#5E3E21;}
	.st11{fill:#783A28;}
	.st12{fill:#8F4729;}
	.st13{fill:#DCB680;}
	.st14{fill:#C69666;}
	.st15{fill:#662F1E;}
	.st16{fill:#231D13;}
	.st17{fill:#574C3E;}
	.st18{fill:#442C1A;}
</style>
<title>Kristo_front</title>
<g id="Layer_2_1_">
	<path class="st0" d="M150.1,95.4c1.5,2,8.8,9.9,9.8,20.9c0.3,3.4-1.5,8.1-2.9,10.5c-1.4,2.1-2.3,4.6-2.7,7.1
		c-2.7-2.2-2.7-6.2-3.4-5.5c-2.4,2.5-2.8,7.3-1.7,14.2c-4.1-4.8-12.3-16.8-11.8-26.9c0.3-6.6,6.4-15.7,9.9-20.3
		C147.3,95.4,150.1,95.4,150.1,95.4z"/>
	<path class="st1" d="M150.3,95.2c1.1,1.8,2,3.7,2.7,5.7c1.8,4.8,3.2,10.4,2.7,12.3c-0.4,2.1-1.4,4-2.8,5.6c-2.2,2.9-2,4.8-3.1,9.1
		c-1.8-5.6-8-13.7-8.1-18.4c-0.1-4.6,4.2-12.5,5.9-14.3L150.3,95.2z"/>
	<path class="st2" d="M150.1,95.1c0.2,1.4,0.6,2.8,1.1,4.2c1,2.4,2.4,5,2.2,7.8c-0.1,2.4-1.1,4.2-0.8,6.2c-1.1-1-1.1-1.8-1.5-3.1
		c-1.7,1.4-0.6,5-1.4,6.6c-2.4-4.8-4.5-5.2-5.7-8.3c-1.3-3.1,2-10.7,3.5-13.2L150.1,95.1z"/>
	<path class="st3" d="M157.3,94.4v2.5c0,1.4-4.1,2.5-9,2.7c-4.9,0.1-9-1-9-2.4v-2.5c0,1.4,4.1,2.5,9,2.4
		C153.2,96.9,157.3,95.8,157.3,94.4z"/>
	<path class="st3" d="M155,98.2v2c0,1-2.9,2-6.7,2s-6.7-0.7-6.7-1.8v-2c0,1.1,2.9,1.8,6.7,1.8S155.2,99.2,155,98.2z"/>
	<path class="st4" d="M147.8,63.8c2.2,0,4.4-0.3,6.6-0.8c2.8,7,4.2,14.5,4.2,22c0.1,5.3,0,9.1,0,9.1c-3.3,1.2-6.7,1.9-10.2,2.2
		c-3.5-0.2-7-0.9-10.4-2c0,0,0-3.8-0.1-9c-0.4-7.5,0.7-15.1,3.1-22.3C143.2,63.6,145.5,63.8,147.8,63.8z"/>
	<path class="st5" d="M154.3,63c-2.1,0.6-4.4,0.8-6.6,0.8c-2.3,0.1-4.6-0.2-6.9-0.7c2.4-6.6,5.5-9.8,6.6-9.8S151.7,56.6,154.3,63z"
		/>
	<path class="st3" d="M158.7,90.6v2.9c0,1.5-4.6,3.1-10.4,3.1s-10.5-1.1-10.5-2.8v-2.9c0,1.7,4.8,2.9,10.5,2.8
		C154.1,93.5,158.7,92.1,158.7,90.6z"/>
	<path class="st6" d="M154.2,96.5v-0.4c0.9-0.2,1.8-0.5,2.7-0.8C156.1,95.8,155.2,96.2,154.2,96.5z"/>
	<path class="st6" d="M154.1,99.2v-0.3l0.7-0.1C154.5,98.8,154.3,99,154.1,99.2z"/>
	<path class="st7" d="M157,95.1l0.4-0.1v2c0,0.6-0.8,1.3-2.2,1.7V98c0,0.3-0.2,0.6-0.4,0.7l-0.7,0.1c0.1-0.8,0.2-1.7,0.1-2.5
		C155.2,96.2,156.2,95.7,157,95.1z"/>
	<path class="st7" d="M155.2,98v2c0,0.4-0.4,0.8-1.3,1.1l0.1-2c0.3-0.1,0.4-0.3,0.7-0.4C154.9,98.5,155.1,98.3,155.2,98z"/>
	<path class="st8" d="M151,63.6c1.1-0.2,2.3-0.4,3.4-0.7c2.8,7,4.2,14.5,4.2,22v5.9c-0.3,0.8-2,1.7-4.3,2.2v-4.1
		C154.2,80.4,153.1,71.8,151,63.6z"/>
	<path class="st9" d="M151,63.4c-0.9-3.5-2.2-6.9-4.1-10.1c0.2-0.1,0.4-0.2,0.6-0.1c1.1,0,4.2,3.2,6.9,9.7
		C153.3,63.2,152.1,63.4,151,63.4z"/>
	<path class="st7" d="M158.7,90.9v2.7c0,0.2,0,0.3-0.1,0.4l0,0c-0.3,0.4-0.8,0.8-1.3,1l-0.4,0.1c-0.8,0.4-1.7,0.7-2.7,0.8V93
		C156.7,92.6,158.4,91.7,158.7,90.9z"/>
	<path class="st0" d="M132.5,95.1c1.3,2,8.1,10.7,8.1,21.6c0,3.4-2.2,7.8-3.8,10.2c-1.6,2-2.7,4.4-3.2,6.9c-2.5-2.2-2.1-6.3-2.9-5.6
		c-2.5,2.2-3.4,7-2.8,14c-3.8-5-11.1-17.8-9.7-27.7c0.8-6.4,7.7-15.1,11.5-19.5L132.5,95.1z"/>
	<path class="st1" d="M132.5,95.1c1,1.9,1.7,3.8,2.2,5.9c1.4,4.9,2.4,10.4,1.7,12.5c-0.6,2.1-1.7,4-3.2,5.5c-2.4,2.9-2.2,4.8-3.8,9
		c-1.4-5.7-7-14.3-6.7-19.1s5.2-12.2,7-13.9L132.5,95.1z"/>
	<path class="st2" d="M132.3,95.1c0,1.4,0.3,2.8,0.7,4.2c0.8,2.5,2.1,5.2,1.7,8c-0.3,2.4-1.4,4.1-1.3,6c-1-1.1-0.8-1.8-1.3-3.2
		c-1.7,1.3-1,5-2,6.4c-2-4.9-4.1-5.5-5-8.7c-1-3.2,2.8-10.5,4.5-12.9L132.3,95.1z"/>
	<path class="st3" d="M139.5,94.8l-0.1,2.5c0,1.4-4.2,2.2-9.1,2c-4.9-0.3-9-1.7-8.8-3.1l0.1-2.5c-0.1,1.4,3.9,2.8,8.8,3.1
		C135.3,97,139.4,96.2,139.5,94.8z"/>
	<path class="st3" d="M137,98.2l-0.1,2c0,1.1-3.1,1.8-6.9,1.5c-3.8-0.3-6.6-1.1-6.6-2.2l0.1-2c-0.1,1.1,2.8,2.1,6.6,2.4
		C133.9,100.2,137,99.4,137,98.2z"/>
	<path class="st4" d="M125.6,62.3c4.3,1.4,8.9,1.7,13.3,1c2.2,7.2,3.1,14.8,2.5,22.3c-0.3,5.2-0.7,9-0.7,9
		c-3.4,0.9-6.9,1.4-10.4,1.4c-3.5-0.5-7-1.4-10.2-2.8c0,0,0.3-3.8,0.6-9C121,76.7,122.7,69.3,125.6,62.3L125.6,62.3z"/>
	<path class="st5" d="M139.1,63.3c-4.5,0.8-9.1,0.5-13.5-0.8c2.9-6.6,6.3-9.4,7.4-9.4S137,56.6,139.1,63.3z"/>
	<path class="st3" d="M141.2,91.2l-0.1,2.9c-0.1,1.5-4.9,2.5-10.7,2.2c-5.7-0.3-10.4-1.8-10.2-3.5l0.1-2.9
		c-0.1,1.5,4.5,3.2,10.2,3.5C136.3,93.7,141,92.7,141.2,91.2z"/>
	<path class="st6" d="M136.3,96.5v-0.4c0.9-0.1,1.9-0.3,2.8-0.6C138.3,96.1,137.3,96.4,136.3,96.5z"/>
	<path class="st6" d="M136,99.4v-0.3l0.7-0.1C136.4,99.1,136.2,99.3,136,99.4z"/>
	<path class="st7" d="M139.2,95.5l0.4-0.1l-0.1,2c-0.1,0.7-1,1.1-2.4,1.5v-0.6c0,0.2-0.2,0.5-0.4,0.6L136,99
		c0.1-0.8,0.1-1.7,0.3-2.5C137.3,96.4,138.3,96.1,139.2,95.5z"/>
	<path class="st7" d="M137.1,98.5v2c-0.1,0.4-0.6,0.7-1.4,1c0.1-0.7,0.1-1.3,0.3-2c0.3-0.1,0.4-0.3,0.7-0.4
		C137,98.9,137.1,98.6,137.1,98.5z"/>
	<path class="st8" d="M135.8,63.7l3.4-0.4c2.1,7.2,2.9,14.8,2.4,22.3c-0.1,2.4-0.3,4.3-0.4,5.9c-0.3,0.8-2,1.5-4.5,1.8
		c0.1-1.4,0.1-2.7,0.3-4.1C137.5,80.7,137.1,72.1,135.8,63.7z"/>
	<path class="st9" d="M135.7,63.4c-0.6-3.6-1.7-7.1-3.2-10.4c0.2-0.1,0.4-0.2,0.6-0.1c1.1,0.1,3.9,3.6,6,10.2
		C138,63.4,136.8,63.5,135.7,63.4z"/>
	<path class="st7" d="M141.2,91.6v-0.3l-0.1,2.9c0,0.2,0,0.3-0.1,0.4l0,0c-0.4,0.4-0.9,0.7-1.4,0.8l-0.4,0.1
		c-0.9,0.3-1.9,0.4-2.8,0.6c0.1-1,0.1-2,0.3-2.9C139.1,92.8,140.8,92.1,141.2,91.6z"/>
	<path class="st3" d="M135.8,95.5l-0.1,2.8c-0.1,1.5-4.8,2.5-10.4,2.1s-10.1-2-9.9-3.5l0.1-2.8c-0.1,1.5,4.3,3.1,9.9,3.5
		C131.1,98,135.7,97,135.8,95.5z"/>
	<path class="st3" d="M133,99.3l-0.1,2.1c0,1.3-3.5,2-7.7,1.7s-7.4-1.5-7.4-2.7l0.1-2.1c-0.1,1.1,3.2,2.4,7.4,2.7
		C129.5,101.3,132.9,100.6,133,99.3z"/>
	<path class="st4" d="M128.1,60.1c2.5,0.3,5.1,0.2,7.6-0.3c2.4,8.2,3.2,16.7,2.5,25.2c-0.4,5.9-0.8,10.1-0.8,10.1
		c-3.8,1-7.8,1.5-11.8,1.5c-4.6-0.3-11.5-3.2-11.5-3.2s0.3-4.3,0.7-10.1c0.4-8.5,2.4-16.9,5.7-24.7C123,59.5,125.6,59.9,128.1,60.1z
		"/>
	<path class="st5" d="M135.7,59.8c-2.5,0.3-5,0.4-7.6,0.3c-2.6-0.1-5.1-0.6-7.6-1.4c3.4-7.1,7-10.5,8.4-10.4
		C130.3,48.4,133.3,52.3,135.7,59.8z"/>
	<path class="st3" d="M137.7,91.2l-0.3,3.4c-0.1,1.8-5.5,2.9-11.9,2.5S113.9,94.9,114,93l0.3-3.4c-0.1,1.8,5,3.6,11.5,4.1
		C132.2,94.1,137.7,93,137.7,91.2z"/>
	<path class="st6" d="M132.2,97.3v-0.4c1-0.2,2.1-0.4,3.1-0.7C134.4,96.9,133.3,97.3,132.2,97.3z"/>
	<path class="st6" d="M131.8,100.6v-0.3l0.8-0.1L131.8,100.6z"/>
	<path class="st7" d="M135.4,96.2c0.3,0,0.4,0,0.6-0.1l-0.1,2.2c-0.1,0.7-1.1,1.3-2.7,1.7v-0.6c-0.1,0.3-0.3,0.5-0.6,0.7l-0.8,0.1
		l0.4-2.9C133.4,97.2,134.5,96.8,135.4,96.2z"/>
	<path class="st7" d="M133.2,99.6v0.6l-0.1,1.5c0,0.4-0.6,0.8-1.5,1.1c0-0.8,0.1-1.5,0.3-2.2l0.8-0.4L133.2,99.6z"/>
	<path class="st8" d="M131.9,60.1c1.3-0.1,2.5-0.2,3.8-0.4c2.4,8.2,3.2,16.7,2.5,25.2c-0.3,2.5-0.4,4.9-0.6,6.6
		c-0.3,1-2.2,1.8-5,2.1c0.1-1.4,0.3-2.9,0.4-4.5C133.7,79.4,133.3,69.7,131.9,60.1z"/>
	<path class="st9" d="M131.9,60.2c-0.6-4.1-1.8-8-3.5-11.8c0.2-0.1,0.4-0.2,0.6-0.1c1.3,0,4.3,4.1,6.7,11.5L131.9,60.2z"/>
	<path class="st7" d="M137.8,91.4c0.1-0.1,0.1-0.1,0.1-0.3l-0.3,3.4c-0.1,0.3-0.1,0.4-0.3,0.6l0,0c-0.4,0.5-1,0.8-1.5,1
		c-0.3,0-0.4,0.1-0.6,0.1c-1,0.4-2,0.6-3.1,0.7l0.4-3.4C135.4,93.3,137.2,92.6,137.8,91.4z"/>
	<path class="st3" d="M158.4,98.7l-0.1,2.8c-0.1,1.5-4.8,2.4-10.4,2.1c-5.6-0.3-10.1-2-9.9-3.5l0.1-2.8c-0.1,1.5,4.3,3.1,9.9,3.5
		C153.6,101.3,158.3,100.3,158.4,98.7z"/>
	<path class="st3" d="M155.5,102.5l-0.1,2.1c0,1.3-3.5,2-7.7,1.7s-7.6-1.4-7.4-2.7l0.1-2.1c-0.1,1.1,3.2,2.4,7.4,2.7
		C152,104.5,155.5,103.8,155.5,102.5z"/>
	<path class="st4" d="M150.7,63.3c2.5,0.3,5.1,0.2,7.6-0.3c2.4,8.2,3.2,16.7,2.5,25.2c-0.4,5.9-0.8,10.1-0.8,10.1
		c-3.8,1-7.8,1.5-11.8,1.5c-4.6-0.3-11.5-3.2-11.5-3.2s0.3-4.3,0.7-10.1c0.4-8.5,2.4-16.9,5.7-24.7
		C145.6,62.6,148.1,63.1,150.7,63.3z"/>
	<path class="st5" d="M158.3,62.9c-2.5,0.4-5,0.5-7.6,0.3c-2.6-0.1-5.1-0.6-7.6-1.4c3.4-7.1,7.1-10.5,8.4-10.4
		S155.9,55.6,158.3,62.9z"/>
	<path class="st3" d="M160.2,94.4l-0.3,3.4c0,1.8-5.5,2.9-11.9,2.5s-11.6-2.2-11.5-4.1l0.3-3.4c-0.1,1.8,5,3.6,11.5,4.1
		C154.8,97.3,160.1,96.2,160.2,94.4z"/>
	<path class="st6" d="M154.8,100.7v-0.4c1-0.2,2.1-0.4,3.1-0.7C156.9,100.1,155.8,100.5,154.8,100.7z"/>
	<path class="st6" d="M154.3,103.8v-0.3l0.8-0.1L154.3,103.8z"/>
	<path class="st7" d="M158,99.4l0.6-0.1l-0.1,2.2c-0.1,0.7-1.1,1.3-2.7,1.7v-0.6c-0.1,0.3-0.3,0.5-0.6,0.7l-0.8,0.1l0.4-2.9
		C155.9,100.4,157,100.1,158,99.4z"/>
	<path class="st7" d="M155.7,102.8v0.6l-0.1,1.5c0,0.4-0.6,0.8-1.5,1.1l0.3-2.2l0.8-0.4L155.7,102.8z"/>
	<path class="st8" d="M154.5,63.3c1.3-0.1,2.5-0.2,3.8-0.4c2.4,8.2,3.2,16.7,2.5,25.2c-0.3,2.5-0.4,4.9-0.6,6.6
		c-0.4,1-2.4,1.8-5.2,2.1c0.1-1.4,0.3-2.9,0.4-4.5C156.3,82.6,155.9,72.9,154.5,63.3z"/>
	<path class="st9" d="M154.5,63.4c-0.6-4.1-1.8-8-3.5-11.8c0.1-0.1,0.3-0.1,0.6-0.1c1.3,0,4.5,4.1,6.7,11.5L154.5,63.4z"/>
	<path class="st7" d="M160.2,94.7c0.1-0.1,0.1-0.1,0.1-0.3l-0.3,3.4c0,0.3,0,0.4-0.1,0.6l0,0c-0.4,0.5-1,0.8-1.5,1l-0.6,0.1
		c-1,0.4-2,0.6-3.1,0.7l0.4-3.4C157.8,96.5,159.8,95.6,160.2,94.7z"/>
	<path class="st10" d="M173.8,50.7l7.3,5.3c0.6-0.7,1.1-1.4,1.5-2.1c2.1-2.4,5.3-6.2,4.1-8.4c-1.3-2.2-2.4-3.5-4.8-2.9
		c-0.8,0.3-1.4,0.8-1.8,1.5c-0.1-0.6-0.5-1.1-1.1-1.3c-2.1-0.7-3.1,5.6-3.1,5.7C175.5,49.5,174.7,50.2,173.8,50.7z"/>
	<path class="st10" d="M147.1,114.1c-2.5,3.4-1.5,4.6-1.5,4.6l2.8,0.6l0,0c1.5,0.3,3.8,0.6,6,1c4.3,1,8.8,2.1,9.1,0.3
		c0.4-2.5-3.1-5.3-8-6.3c-0.8-0.2-1.7-0.3-2.5-0.3c0.9-1,1.6-2.1,2.2-3.2c0,0-8.8-1-8.8-0.3C146.4,111.2,147.5,113.7,147.1,114.1z"
		/>
	<path class="st11" d="M152.5,95.2l2.1,1.7c0.3,0.4,0.4,0.3,0.6,0.1c0.1-0.1,0.3-0.3,1.3,0.3c0.8,0.4,1.5,0.8,2.1,1.4
		c1.1,0.8,2,2,2.5,3.2c0.6,1.1,1,2.4,1.1,3.6c0.1,0.5,0.2,0.9,0.1,1.4v1.3c0,1.4-0.2,2.8-0.6,4.2c-0.4,1.1-0.7,2.2-1,3.4
		c-0.1,0.5-0.3,1.1-0.6,1.5c-0.3,0.6-0.9,1-1.5,1.1l-12.2-4.9c-1-1.3-0.3-2,0-2.8c0.3-0.7,0.6-1.5,0.8-2.2c0.3-0.5,0.4-1.1,0.6-1.7
		v-0.1l0,0c0,0.3,0.1,0.4,0.3,0.7l0.8,0.8c0.1,0.1,0.1,0-0.1-0.3c-1.2-1.1-2.4-2.2-3.4-3.5c-1.1-1.5-1.8-3.3-2-5.2
		c-0.1-1.6,0.4-3.1,1.5-4.2L152.5,95.2z"/>
	<path class="st10" d="M123.5,115.8c0.6-0.4-5.3-7.1-5.3-7.1c-0.6,1.2-1.1,2.4-1.4,3.6c-0.6-0.6-1.1-1.3-1.7-1.8
		c-3.5-3.5-8-4.8-9.8-2.9c-1.4,1.4,2.1,4.3,5.3,7.4c1.5,1.7,2.9,3.4,4.2,4.5l0,0l2,2c0,0,1.5,0,2.9-3.9
		C120,116.8,122.7,116.2,123.5,115.8z"/>
	<path class="st11" d="M132.5,101.3c0.3,2.9-1.1,3.9-2.2,5.3c-1.1,1.4-2.2,2.8-3.4,4.1c-1.1,1.3-2.4,2.6-3.6,3.8l-1.8,1.8
		c-0.3,0.3-0.7,0.6-1,0.8c-0.5,0.3-1.1,0.3-1.7,0.1l-8.7-9.9c-0.1-0.5,0-1.1,0.3-1.5c0.3-0.3,0.6-0.6,1-0.8l2.1-1.5
		c1.4-1.1,2.8-2.1,4.2-3.1c1.4-1,2.9-2,4.5-2.8c1.7-0.8,2.8-2.1,5.6-1.5L132.5,101.3z"/>
	<path class="st12" d="M115.7,88.5l-0.4,5.7c-0.4,5.6,9.5,7,21.9,7.7c10.7,0.7,23,2,23.5-5.9l0,0c2.7-20.5-2-38.1-19.8-39.2l0,0
		c-17.7-1.1-23.1,10.8-24.8,24.8v1.1C115.9,84.6,115.8,86.5,115.7,88.5z"/>
	<path class="st11" d="M152,67.4c-0.1-0.5,0.1-1.1,0.4-1.5c0.1-0.1,0.3-0.4,0.4-0.6c0.1-0.1,0.6-0.6,0.8-0.8
		c0.5-0.5,1.1-0.9,1.8-1.1l1.8-0.8c0.6-0.3,1.3-0.7,1.8-1c2.3-1.3,4.6-2.7,6.7-4.3c2-1.6,3.9-3.3,5.7-5c1-0.8,1.8-1.7,2.7-2.7
		c0.4-0.5,0.9-0.9,1.4-1.3c0.3-0.1,0.7-0.3,1-0.4c0.2-0.1,0.5-0.2,0.7-0.1h0.6c0.1,0,0.4,0,1.4,0.6l3.2,2.1c1,0.7,1.1,0.8,1.1,1
		l0.3,0.6c0.1,0.3,0.2,0.6,0.1,0.8c0,0.4-0.1,0.9-0.3,1.3c-0.3,0.8-0.8,1.5-1.4,2.1c-1,1.3-2.1,2.5-3.4,3.6
		c-4.8,4.4-10.7,7.4-17.1,8.8c-0.8,0.3-1.6,0.4-2.4,0.6l-2.4,0.4c-0.4,0.1-0.7,0.2-1.1,0.1c-0.4,0-0.9,0-1.3-0.1l-1.3-0.4l-0.7-0.4
		C152.5,68.5,152.2,68.2,152,67.4L152,67.4z"/>
	<path class="st10" d="M119.6,82.1c0.3,1.4,1.2,2.6,2.4,3.4c1,0.8,4.3,1.5-0.4,5c-4.8,3.5-8-1-9.2-3.1L119.6,82.1z"/>
	<path class="st11" d="M130,60.6c0.3,0.4,0.3,1,0,1.4c0,0.2,0,0.5-0.1,0.7c-0.1,0.4-0.3,0.9-0.6,1.3c-0.4,0.7-1,1.3-1.7,1.8
		l-3.6,3.1l-3.6,2.9c-1.2,0.9-2.3,1.8-3.4,2.8l-1.3,1.3c-0.3,0.3-0.4,0.6-0.3,0.6c0.1-0.1,0.1-0.2,0.1-0.3v-0.4c0-0.1,0.1,0,0.3,0.4
		c0.7,1.1,1.4,2.1,2.2,3.1c0.5,0.5,1,1.1,1.3,1.8c0.2,0.4,0.3,0.8,0.4,1.3v0.8l-0.1,0.6c0,0.1,0,0.3-0.8,1.1l-2.9,2.5
		c-0.8,0.7-1.1,0.7-1.3,0.7H114c-0.3,0.1-0.6,0-0.8,0c-0.4-0.1-0.8-0.3-1.1-0.6c-0.7-0.4-1.3-1-1.8-1.7c-1.3-1.4-2.4-2.9-3.4-4.5
		c-0.7-1.2-1.1-2.5-1.4-3.9c-0.1-0.9-0.1-1.9,0-2.8c0.3-0.9,0.6-1.7,1-2.5c0.7-1.1,1.5-2.2,2.5-3.1c0.7-0.7,1.5-1.3,2.4-1.8
		c2.8-1.7,5.7-3.2,8.7-4.6l4.2-2.1c0.7-0.3,1.5-0.6,2.2-0.7c0.5-0.1,0.9-0.2,1.4-0.1l0.8,0.1C129.2,60,129.6,60.3,130,60.6L130,60.6
		z"/>
	<path class="st13" d="M126.9,67.6c-5.5-4.1-7-8.5-6.3-9.9c-0.6,0-1.3,1.8-1.4,2.7c-3.8-16,2.4-19.9,4.2-21
		c-1.2,0.3-2.3,0.7-3.4,1.3c2.9-9.1,13.3-11.5,14.2-11.8c-1.3-0.7-2.8-1.1-4.3-1.1c6.2-3.2,9.4-1.7,12.3-0.6
		c-0.3-0.6-0.9-1.1-1.5-1.4c2.9,0.3,5.9,2.8,6,2.7s1.1,0.7-1.1-3.9c3.9,1.1,4.2,4.1,3.6,5c0.6-0.7,1.6-1.1,2.5-1.1
		c2.6,0,5,1.3,6.4,3.4c-1-0.3-2.1-0.1-2.9,0.4c3,0.4,5.6,2.4,6.9,5.2c-0.8-0.6-1.8-1-2.8-1.1c1,0.6,8.1,8.8,3.2,23.3
		c0-0.7-0.1-1.4-0.4-2.1c-0.6,1.7-1.4,3.2-2.2,4.8c-2.5,4.3-6.4,5.5-6.7,8s0.3,2,0.3,2.2s-1.8-0.4-1.5-2.1s-0.8,2-5.5,4.2
		c-3.4,1.5-5.3,4.5-7.8,5C137.7,76.4,134.4,73.4,126.9,67.6z"/>
	<path class="st10" d="M132.5,60.8c3.6,3.5,6.9,6.2,7.7,8.8c2.2-3.4,5-5.3,8.7-8c3.5-2.4,5.7-6.3,6-10.5c0.3-7.5-5.5-13.9-13-14.2
		c-7.3-0.3-13.6,5.2-14.2,12.5C127.6,53.7,129.3,57.8,132.5,60.8z"/>
	
		<ellipse transform="matrix(6.209187e-02 -0.9981 0.9981 6.209187e-02 83.1161 187.4601)" class="st14" cx="141.3" cy="49.5" rx="13.2" ry="12.9"/>
	<path class="st15" d="M139.5,46.6c-0.9,0-1.8,0.1-2.7,0.3c-0.9,0.1-1.8,0.4-2.5,1c0.7-0.6,1.5-1,2.4-1.3s1.8-0.5,2.7-0.6
		L139.5,46.6z"/>
	<path class="st15" d="M144.3,46.2c1,0.2,1.9,0.5,2.8,0.8c0.9,0.4,1.7,0.9,2.4,1.5c-0.7-0.6-1.6-1-2.5-1.1c-0.9-0.3-1.9-0.4-2.8-0.4
		L144.3,46.2z"/>
	<polygon class="st16" points="143.7,48.3 146.5,48.7 143.7,48.8 	"/>
	<path class="st16" d="M139.4,48.4c-0.6-0.1-1.1-0.1-1.7-0.3c-0.6-0.1-1.3-0.1-1.8-0.1h3.6L139.4,48.4z"/>
	<path class="st17" d="M144.4,51.6c-0.2,0.4-0.5,0.8-0.8,1c-0.7,0.5-1.6,0.8-2.5,0.7c-0.9,0-1.8-0.3-2.4-1c-0.3-0.3-0.5-0.7-0.6-1.1
		c0-0.4,0.1-0.9,0.3-1.3c-0.1,0.4-0.1,0.9,0,1.3c0,0.4,0.2,0.7,0.6,1c0.7,0.4,1.4,0.7,2.2,0.7s1.7-0.2,2.4-0.6
		C144,52.1,144.3,51.8,144.4,51.6c0.2-0.4,0.2-0.8,0.1-1.2C144.7,50.8,144.6,51.3,144.4,51.6z"/>
	<path class="st18" d="M144.5,36.8c4.6,1.2,8.3,4.6,9.8,9.1c-1.8-4.8-9.7,0.1-17-2.4v-4.2l-2.1,3.2c-0.3-0.1-0.6-0.1-0.7-0.3
		c-1.3-0.6-2.7-0.7-4.1-0.3c2.3-2.8,5.4-4.7,9-5.5C141.2,36.3,142.9,36.4,144.5,36.8"/>
	<path class="st16" d="M141.5,57c2,0,3.5-1,3.9-0.6s-1.1,2.7-3.9,2.7c-2.8,0-4.3-2.2-3.9-2.7C137.9,56,139.5,57,141.5,57z"/>
</g>
</svg>
