<svg xmlns="http://www.w3.org/2000/svg" viewBox="0 0 251 151"><defs><style>.cls-1{fill:#5e3e21;}.cls-2{fill:#e84c59;}.cls-3{fill:#ee7b5c;}.cls-4{fill:#f9c862;}.cls-5{fill:#062633;}.cls-6{fill:#abaaaa;}.cls-7{fill:#e1dfe0;}.cls-14,.cls-17,.cls-8{fill:none;}.cls-9{fill:#041d26;}.cls-10{fill:#6e6e6e;}.cls-11{fill:silver;}.cls-12{fill:#783a28;}.cls-13{fill:#8f4729;}.cls-14{stroke:#8c9699;stroke-width:0.64px;}.cls-14,.cls-17{stroke-miterlimit:10;}.cls-15{fill:#8c9699;}.cls-16{fill:#d1d9db;}.cls-17{stroke:#505d60;stroke-linecap:round;stroke-width:0.95px;}.cls-18{fill:#dcb680;}.cls-19{fill:#c69666;}.cls-20{fill:#662f1e;}.cls-21{fill:#231d13;}.cls-22{fill:#574c3e;}.cls-23{fill:#442c1a;}</style></defs><title>Laura_front</title><g id="Layer_2" data-name="Layer 2"><path class="cls-1" d="M134,95.78l5,3.6a7.27,7.27,0,0,0,1.05-1.7,36.48,36.48,0,0,1,5.88-6.45c2.28-1.52-.41-2.32-2.41-2.24-2.45.09-4.42.94-4.62,1.5,0-.67,0-1.33-1-1.3-1.55.06-2.38,4.76-2.38,4.87C134.83,95.31,134,95.89,134,95.78Z"/><path class="cls-2" d="M139.8,94.46c1.06,1.52,6.87,8.31,7.19,17.2.1,2.77-1.65,6.51-2.8,8.44a12.68,12.68,0,0,0-2.46,5.76c-2.07-1.82-1.86-5-2.5-4.47-1.93,2-2.46,5.76-1.81,11.41-3.15-4-9.41-14.11-8.6-22.26.59-5.25,5.89-12.45,8.87-16.12Z"/><path class="cls-3" d="M139.91,94.45s.58.65,2,4.72c1.36,3.84,2.3,8.36,1.81,10s-.48,2.13-2.39,4.53-1.76,3.85-2.85,7.34c-1.28-4.63-6.09-11.46-6-15.24s3.87-9.93,5.26-11.43Z"/><path class="cls-4" d="M139.8,94.46a14.73,14.73,0,0,0,.68,3.42c.75,2.09,1.83,4.27,1.58,6.5-.16,1.9-1,3.38-.83,4.93-.81-.86-.72-1.53-1.09-2.63-1.3,1-.63,4-1.37,5.27-1.7-3.94-3.49-4.43-4.36-7s1.9-8.63,3.28-10.58Z"/><path class="cls-5" d="M145.68,94l0,2c-.07,1.11-3.37,1.9-7.38,1.82s-7.27-1.07-7.2-2.18l0-2c-.07,1.12,3.19,2.11,7.2,2.19S145.61,95.14,145.68,94Z"/><path class="cls-5" d="M143.79,97l-.06,1.56c0,.89-2.5,1.54-5.5,1.43s-5.37-.81-5.4-1.7l0-1.56c-.08.9,2.39,1.58,5.4,1.7S143.7,97.76,143.79,97Z"/><path class="cls-6" d="M138.87,68.81a21.43,21.43,0,0,0,5.43-.54,49.74,49.74,0,0,1,2.66,18c-.07,4.34-.29,7.35-.29,7.35s-5.17,1.53-8.4,1.42-8.3-1.92-8.3-1.92.11-3.12.18-7.24A49.45,49.45,0,0,1,133.5,68,20.08,20.08,0,0,0,138.87,68.81Z"/><path class="cls-7" d="M144.41,68.27a21.53,21.53,0,0,1-5.43.53,19.87,19.87,0,0,1-5.48-.8c2.14-5.3,4.72-7.84,5.72-7.77S142.55,63.11,144.41,68.27Z"/><path class="cls-5" d="M146.9,90.86l0,2.34c0,1.33-3.8,2.36-8.48,2.2s-8.49-1.25-8.43-2.58l0-2.34c.05,1.33,3.76,2.42,8.44,2.58S146.84,92.2,146.9,90.86Z"/><path class="cls-8" d="M143.18,95.45l0-.34a9.74,9.74,0,0,0,2.21-.52A4.7,4.7,0,0,1,143.18,95.45Z"/><path class="cls-8" d="M142.93,97.79v-.22c.22,0,.33-.12.55-.13A2.66,2.66,0,0,1,142.93,97.79Z"/><path class="cls-9" d="M145.37,94.59c.11,0,.22-.12.33-.12L145.64,96c0,.55-.74.91-1.84,1.29l0-.45a.61.61,0,0,1-.31.57c-.22,0-.33.12-.55.13a15.1,15.1,0,0,1,.14-2.12A4.71,4.71,0,0,0,145.37,94.59Z"/><path class="cls-9" d="M143.89,96.87l0,.44-.07,1.12c0,.33-.42.68-1.08.93.1-.45.08-1,.17-1.57a2.66,2.66,0,0,0,.54-.35A1.1,1.1,0,0,0,143.89,96.87Z"/><path class="cls-10" d="M141.65,68.7c1-.14,1.88-.29,2.76-.43a49.49,49.49,0,0,1,2.66,18c0,1.89-.09,3.56-.16,4.79-.31.79-1.62,1.39-3.61,1.68.08-1,0-2.11.11-3.22A88.48,88.48,0,0,0,141.65,68.7Z"/><path class="cls-11" d="M141.65,68.82a28,28,0,0,0-2.86-8.35.91.91,0,0,1,.44-.13c.89,0,3.32,2.77,5.18,8C143.64,68.52,142.64,68.67,141.65,68.82Z"/><path class="cls-9" d="M146.92,91.31v-.22l0,2.33a.39.39,0,0,1-.1.34h0a2.17,2.17,0,0,1-1.08.82c-.11,0-.22.12-.33.12a10.14,10.14,0,0,1-2.2.53c.08-.9.05-1.67.13-2.46C145.29,92.48,146.6,91.88,146.92,91.31Z"/><path class="cls-2" d="M125.36,94.87c1.28,1.51,7.3,8,8.18,16.83.21,2.77-1.32,6.5-2.36,8.54a14.8,14.8,0,0,0-2.12,5.86c-2.18-1.7-2.19-5-2.83-4.35-1.93,2.07-2.23,6-1.25,11.5-3.36-3.77-10.17-13.53-9.79-21.66.25-5.23,5.2-12.75,8-16.52Z"/><path class="cls-3" d="M125.26,95s.58.65,2.16,4.59c1.59,3.72,2.75,8.24,2.37,9.92s-.37,2.13-2.17,4.64-1.52,4-2.4,7.43c-1.5-4.51-6.63-11.1-6.77-14.88s3.3-10.13,4.7-11.62Z"/><path class="cls-4" d="M125.25,94.77a15.68,15.68,0,0,0,.9,3.41c.74,2,2,4,1.9,6.38,0,2-.87,3.48-.59,5-.92-.75-.95-1.41-1.32-2.51-1.29,1.16-.29,4.12-1,5.37-1.91-3.82-3.7-4.09-4.69-6.61s1.47-8.73,2.73-10.77Z"/><path class="cls-5" d="M131.12,94.22l.07,2c0,1.11-3.25,2.12-7.25,2.26s-7.37-.73-7.41-1.84l-.07-2c0,1.11,3.41,2,7.4,1.85S131.05,95.33,131.12,94.22Z"/><path class="cls-5" d="M129.34,97.18l.06,1.55c-.08.89-2.5,1.65-5.5,1.76s-5.47-.47-5.5-1.36l-.06-1.55c0,.77,2.5,1.46,5.5,1.35S129.37,98.06,129.34,97.18Z"/><path class="cls-6" d="M123.21,69.27a26.43,26.43,0,0,0,5.31-.75,53.89,53.89,0,0,1,3.54,17.88c.05,4.34,0,7.34,0,7.34s-5,1.85-8.26,2-8.4-1.48-8.4-1.48L115.18,87a48.89,48.89,0,0,1,2.34-18.1A17.79,17.79,0,0,0,123.21,69.27Z"/><path class="cls-7" d="M128.41,68.63a25.14,25.14,0,0,1-5.31.75,22.07,22.07,0,0,1-5.58-.46c1.81-5.41,4.27-8.05,5.27-8.09S126.22,63.48,128.41,68.63Z"/><path class="cls-5" d="M132.12,91.07l.08,2.33c.05,1.33-3.69,2.47-8.35,2.64s-8.48-.8-8.53-2.13l-.09-2.34c0,1.34,3.87,2.31,8.53,2.14S132.17,92.4,132.12,91.07Z"/><path class="cls-8" d="M128.51,95.76v-.33a9.74,9.74,0,0,0,2.2-.64A3.18,3.18,0,0,1,128.51,95.76Z"/><path class="cls-8" d="M128.48,98.1v-.23c.23,0,.33-.12.56-.13A2.38,2.38,0,0,1,128.48,98.1Z"/><path class="cls-9" d="M130.81,94.9c.11,0,.22-.12.33-.13l.06,1.56c0,.55-.63,1-1.73,1.4l0-.45a.61.61,0,0,1-.31.57c-.22,0-.33.12-.55.13,0-.67.06-1.45,0-2.11A6,6,0,0,0,130.81,94.9Z"/><path class="cls-9" d="M129.34,97.18v.44l.05,1.11c0,.33-.31.68-1,.93,0-.45.07-1,0-1.56a2.38,2.38,0,0,0,.55-.36A.61.61,0,0,0,129.34,97.18Z"/><path class="cls-10" d="M125.76,69.17a20.41,20.41,0,0,0,2.65-.54A53.7,53.7,0,0,1,132,86.52c.07,1.88,0,3.55.07,4.78-.2.67-1.51,1.38-3.5,1.79a28.8,28.8,0,0,0,0-3.22A88,88,0,0,0,125.76,69.17Z"/><path class="cls-11" d="M125.65,69.18a28.62,28.62,0,0,0-3.3-8.22.81.81,0,0,1,.44-.13c.89,0,3.43,2.65,5.62,7.8A17,17,0,0,1,125.65,69.18Z"/><path class="cls-9" d="M132.13,91.51v-.22l.08,2.33a.38.38,0,0,1-.1.34h0a1.87,1.87,0,0,1-1,.81c-.11,0-.22.12-.33.13a10.93,10.93,0,0,1-2.2.63c0-.77,0-1.67,0-2.44C130.62,92.68,131.93,92,132.13,91.51Z"/><path class="cls-1" d="M101.55,56.8c0-.11-.78-5.11-2.45-4.56a1.22,1.22,0,0,0-.89,1A3,3,0,0,0,96.77,52c-1.89-.44-2.78.56-3.78,2.33s1.56,4.78,3.22,6.67a16.2,16.2,0,0,0,1.23,1.67l5.77-4.22A4.11,4.11,0,0,1,101.55,56.8Z"/><path class="cls-1" d="M119.61,89.45C119,89.2,117.26,96,117.26,96a23.84,23.84,0,0,0,3.69-.64,9.29,9.29,0,0,0-.51,1.87c-.59,3.87-.16,7.22,2.27,7.65,1.77.28,3.12-3.23,3.59-6.77.28-1.77.68-3.42.84-4.75h0l.41-2.21s-.85-1-4.77-.28C122.21,91.21,120.27,89.69,119.61,89.45Zm7.48,2.16Z"/><path class="cls-1" d="M134.16,90c-.66-.25-2.36,6.58-2.36,6.58a24,24,0,0,0,3.7-.64,9.29,9.29,0,0,0-.52,1.87c-.58,3.87-.15,7.22,2.28,7.65,1.77.28,3.12-3.23,3.59-6.77.28-1.77.68-3.42.84-4.75h0l.41-2.21s-.85-1-4.77-.28C136.76,91.74,134.81,90.22,134.16,90Zm7.48,2.16Z"/><path class="cls-12" d="M127.38,83.61c2.16,1.75,1.67,3.18,2,4.63s.22,3,.28,4.35l.08,3.9a6.32,6.32,0,0,0,.17,1.56c0,.22.09.45.09.67a1.64,1.64,0,0,1-.93.86L116,101.21c-1.41-.72-1.15-1.82-1.12-2.71a23.64,23.64,0,0,1,.21-2.77,30.26,30.26,0,0,1,.84-4.75c.39-1.43.89-2.86,1.27-4.18.6-1.31.43-2.76,2.92-3.9Z"/><path class="cls-12" d="M141.06,83.67a4,4,0,0,1,2,2l.59,2c.4,1.34.68,2.69,1,4a25.41,25.41,0,0,1,.52,4l.26,2c0,.66.39,1.35-.86,2.08l-13.13.41c-1.31-.6-.95-1.37-1-2l.07-2c.05-1.33.1-2.66.26-4.1s.44-2.77.71-4.09c.13-.66.27-1.33.41-2.1a3.77,3.77,0,0,1,1.85-2Z"/><path class="cls-13" d="M148.73,80.72l0-.66v-.23C148.5,68.7,145.18,59,131.3,58.51h0c-14-.5-18.93,12.88-18.41,29.14h0c-.23,6.21,9.56,6.13,18,6.43,9.78.36,17.57.09,17.62-4.36l.17-4.55C148.73,83.73,148.79,82.17,148.73,80.72Z"/><path class="cls-12" d="M121.91,64.3c.4.78.43,1.09.38,1.31s-.06.47-.11.7a3.69,3.69,0,0,1-.49,1.12,4.87,4.87,0,0,1-1.6,1.5c-.62.37-1.29.68-2,1s-1.38.53-2.09.8a17.29,17.29,0,0,1-9.15.36,18.15,18.15,0,0,1-8.19-4.3c-.54-.56-1.12-1.08-1.6-1.67s-1-1.2-1.39-1.83a6.67,6.67,0,0,1-1-2.05A6.11,6.11,0,0,1,94.63,60a1.93,1.93,0,0,1,.23-.72l.27-.43c.05-.12.21-.29,1.17-.82l3.38-1.54c1-.4,1.26-.44,1.38-.42l.47,0a2.15,2.15,0,0,1,.65.08,3.74,3.74,0,0,1,.75.37,2.71,2.71,0,0,1,.93,1,21.08,21.08,0,0,0,1.74,1.9,16.8,16.8,0,0,0,4.08,3,12,12,0,0,0,5.06,1.26c.45,0,.92,0,1.39-.08a13.94,13.94,0,0,0,1.41-.26,2.78,2.78,0,0,1,.73-.17c.26,0,.57,0,.86,0a3.29,3.29,0,0,1,1,.13l.63.19a3.12,3.12,0,0,1,1.12.81Z"/><path class="cls-1" d="M144.6,84c-.11,0-4.73,1.83-5.38,4.25a3.59,3.59,0,0,0,2.63,4.21c1.88.18,4.09-2.41,6.25-3.66.68-.31,1.36-.73,1.81-.94l-3.37-5.12C146.43,82.64,145.85,83.51,144.6,84Z"/><path class="cls-12" d="M140.8,63.2c.8-.53,1-.52,1.36-.51l.66,0A3.92,3.92,0,0,1,144,63a4.83,4.83,0,0,1,1.84,1.18c1,1,2.05,1.86,3,3a24.32,24.32,0,0,1,5.05,7.75,16.23,16.23,0,0,1,1,5.37,12.5,12.5,0,0,1-1.55,6,14.48,14.48,0,0,1-1.76,2.49,17.39,17.39,0,0,1-2.18,1.93,7,7,0,0,1-1.14.73,4,4,0,0,1-1.24.51,5.68,5.68,0,0,1-1.34.18,2.93,2.93,0,0,1-.77-.25l-.44-.24c-.11,0-.32-.23-.84-1.25l-1.54-3.51a3.76,3.76,0,0,1-.4-1.46l0-.44c0-.34,0-.56.14-.66a5.14,5.14,0,0,1,.36-.77,1.12,1.12,0,0,1,.46-.54l.46-.43c.34-.21.47-.54.7-.75s.35-.43.47-.65a5.52,5.52,0,0,0,.6-1.42,8,8,0,0,0,0-2.23,22.08,22.08,0,0,0-2-6.08,10.92,10.92,0,0,0-.83-1.58l-.94-1.59a4.39,4.39,0,0,1-.72-1.81,1.86,1.86,0,0,1-.07-1.11l0-.67c-.32-.35-.2-.67.38-1.43Z"/><path class="cls-14" d="M126,86.67s1.72.62,2.52-.71c.61-1-1-8.76-2.79-10.38a5,5,0,0,0-6.56.23c-1.65,1.74-2.74,9.59-2.07,10.55.89,1.27,2.57.53,2.57.53"/><path class="cls-14" d="M141.7,74.48c.46-2.6,2-15-10.08-15-11.74,0-9.2,15-9.2,15"/><circle class="cls-15" cx="141.7" cy="75.92" r="1.98"/><circle class="cls-16" cx="141.7" cy="75.92" r="1.1"/><circle class="cls-16" cx="119.36" cy="87" r="0.52"/><path class="cls-17" d="M127.81,80.18c-.54-2-1.29-3.88-2.07-4.6a5,5,0,0,0-6.56.23,10.79,10.79,0,0,0-1.68,4.38"/><circle class="cls-16" cx="126.02" cy="86.65" r="0.52"/><path class="cls-18" d="M131.53,76.54c-2-.74-3.22-3-5.73-4.55-3.48-2-4-5-4-3.7s-1.39,1.73-1.38,1.51.43.23.28-1.66-3-3.11-4.65-6.73a15,15,0,0,1-1.3-3.94,8.13,8.13,0,0,0-.5,1.54c-2.69-11.67,3.53-17.56,4.32-18a6.07,6.07,0,0,0-2.36.69,6.86,6.86,0,0,1,5.8-3.46,3.68,3.68,0,0,0-2.2-.63,6.46,6.46,0,0,1,5.3-2.15A2.17,2.17,0,0,1,127,36.56c-.41-.79,0-3.11,3.25-3.66-2,3.48-1.21,2.85-1.11,3s2.62-1.57,4.84-1.6a2.37,2.37,0,0,0-1.26,1c2.36-.58,5.07-1.59,9.52,1.35a7.43,7.43,0,0,0-3.47.54c.66.25,8.57,3,10.08,10.27-.32-.24-2.28-1.42-2.51-1.21,1.4,1.05,5.84,4.55,1.61,16.74-.09-.67-.48-2.13-.92-2.14.4,1.23-1.17,4.51-5.71,7.24C135.14,72,132.4,74.12,131.53,76.54Z"/><path class="cls-1" d="M142.26,53.8a10.67,10.67,0,1,0-17.41,7.82c2.69,2.32,4.74,4.17,6.2,6.89.85-2,3.58-3.87,6.68-6.31A11.45,11.45,0,0,0,142.26,53.8Z"/><path class="cls-19" d="M141.72,53.22A10.11,10.11,0,1,1,132,42.53,10.19,10.19,0,0,1,141.72,53.22Z"/><path class="cls-20" d="M133.49,50.14a11.43,11.43,0,0,1,2.09.75,5,5,0,0,1,1.73,1.28,5.8,5.8,0,0,0-1.85-1c-.66-.14-1.44-.28-2.1-.41Z"/><path class="cls-20" d="M129.58,50.78a14.86,14.86,0,0,0-2.11,0,4.42,4.42,0,0,0-2,.71,4.32,4.32,0,0,1,2-1,12.49,12.49,0,0,1,2.24-.47Z"/><polygon class="cls-21" points="129.86 52.12 127.65 51.82 129.88 51.68 129.86 52.12"/><path class="cls-21" d="M133.1,51.8l1.44.16c.44,0,.89.14,1.44.16a7.38,7.38,0,0,0-1.45.06l-1.33.07Z"/><path class="cls-22" d="M129.05,53.21a1.41,1.41,0,0,0,.61,1.58,3.43,3.43,0,0,0,1.75.62,3.35,3.35,0,0,0,1.8-.38,2,2,0,0,0,.58-.76c.12-.33.25-.66.14-.89a1.53,1.53,0,0,1-.4,1.88,2.68,2.68,0,0,1-2,.59,3.28,3.28,0,0,1-2-.74A1.56,1.56,0,0,1,129.05,53.21Z"/><path class="cls-21" d="M128.74,58.53c.66.25,1.21.49,1.86.74a10.58,10.58,0,0,0,1.88.29,7.15,7.15,0,0,0,3.6-1,4.34,4.34,0,0,1-3.62,1.65,6,6,0,0,1-2-.41A10.11,10.11,0,0,1,128.74,58.53Z"/><path class="cls-23" d="M130.1,42.57a11.88,11.88,0,0,1,4,.15,12.39,12.39,0,0,1,6.6,4.91,4.3,4.3,0,0,0-3.11-.12c-.22.11-.33.1-.56.2L135.57,45l-.34,3.33c-5.84,1.45-11.68-3-13.47.51a11.36,11.36,0,0,1,8.34-6.26"/></g></svg>