<svg id="Layer_3" data-name="Layer 3" xmlns="http://www.w3.org/2000/svg" viewBox="0 0 251 151"><defs><style>.cls-1{fill:#e84c59;}.cls-2{fill:#ee7b5c;}.cls-3{fill:#f9c862;}.cls-4{fill:#062633;}.cls-5{fill:#abaaaa;}.cls-6{fill:#e1dfe0;}.cls-7{fill:none;}.cls-8{fill:#041d26;}.cls-9{fill:#6e6e6e;}.cls-10{fill:silver;}.cls-11{fill:#5e3e21;}.cls-12{fill:#54371d;}.cls-13{fill:#6d3325;}.cls-14{fill:#783a28;}.cls-15{fill:#8f4729;}.cls-16{fill:#dcb680;}.cls-17{fill:#c69666;}.cls-18{fill:#662f1e;}.cls-19{fill:#231d13;}.cls-20{fill:#574c3e;}.cls-21{fill:#442c1a;}</style></defs><title>Laura</title><path class="cls-1" d="M172.53,50c.53,3.49,1.16,10.22-.52,13.82-2.62,5.58-10.56,9.69-14.15,11,2.6-3.36,3.76-6.08,3.2-8.08-.18-.64-1.34,1.54-3.39,1.92A10.35,10.35,0,0,0,158.3,64c0-1.7.31-4.78,1.46-6.53,3.68-5.62,10-7.78,11.32-8.37Z"/><path class="cls-2" d="M172.53,50c.36,1.5.45,6.93-1,9.41s-7.13,5-9.75,7.52c.63-2.65,1.32-3.56,1-5.83a6.91,6.91,0,0,1,.17-3.85c.35-1.26,2.66-3.83,5-5.8a15.58,15.58,0,0,1,3.1-2.3Z"/><path class="cls-3" d="M172.53,50c.11,1.8-.39,6.81-2,8.13s-2.84.92-5.5,2.78c0-1.09,1.64-2.76,1.14-3.93-.64.55-.88,1-1.75,1.23.75-.93.75-2.21,1.36-3.55.73-1.56,2.28-2.52,3.5-3.58a10.79,10.79,0,0,0,1.77-1.93Z"/><path class="cls-4" d="M171.54,50.72c2.64,1.49,5.12,2.1,5.55,1.36l-.78,1.34c-.41.75-2.89.14-5.53-1.35s-4.44-3.31-4-4l.75-1.35C167.1,47.41,168.9,49.23,171.54,50.72Z"/><path class="cls-4" d="M170.62,52.35c2,1.12,3.86,1.58,4.18,1l-.58,1c-.31.56-2.18.1-4.17-1s-3.34-2.49-3-3.05l.58-1C167.31,49.86,168.64,51.22,170.62,52.35Z"/><path class="cls-5" d="M185.42,34.58a38.33,38.33,0,0,1-4.77,12.87c-1.54,2.74-2.7,4.76-2.7,4.76a26.11,26.11,0,0,1-6.14-2A26.56,26.56,0,0,1,167,46s1-2,2.63-4.86a37.5,37.5,0,0,1,8.65-10.63,17.61,17.61,0,0,0,7.17,4Z"/><path class="cls-6" d="M184.71,27.35c.62.36,1.34,3,.7,7.23a17.61,17.61,0,0,1-7.17-4C181.51,27.89,184.12,27,184.71,27.35Z"/><path class="cls-4" d="M172.59,48.89c3.06,1.73,5.94,2.44,6.42,1.57L178.13,52c-.49.86-3.37.16-6.44-1.57s-5.15-3.84-4.66-4.7l.88-1.57C167.42,45.05,169.51,47.16,172.59,48.89Z"/><path class="cls-7" d="M167.49,47.19a10,10,0,0,0,1.21,1.22,1.06,1.06,0,0,1-.11.21A4.28,4.28,0,0,1,167.49,47.19Z"/><path class="cls-7" d="M167.6,49.75l.31.29-.06.13A2.22,2.22,0,0,1,167.6,49.75Z"/><path class="cls-8" d="M168.59,48.62c-.22.48-.46,1-.67,1.42l-.31-.29a.55.55,0,0,1,0-.47l-.15.28c-.6-.66-.88-1.22-.68-1.56l.58-1,.17.23A4.22,4.22,0,0,0,168.59,48.62Z"/><path class="cls-8" d="M167.6,49.75a2.22,2.22,0,0,0,.25.42l-.54,1.13c-.33-.41-.47-.75-.35-1l.42-.73.15-.28A.62.62,0,0,0,167.6,49.75Z"/><path class="cls-9" d="M170.71,44.63c-.41.72-.8,1.44-1.18,2.16-1.14-1-1.8-1.9-1.69-2.45.44-.83,1-1.92,1.74-3.15a37.2,37.2,0,0,1,8.65-10.64,15.81,15.81,0,0,0,1.6,1.32A68,68,0,0,0,170.71,44.63Z"/><path class="cls-10" d="M178.23,30.55c3.25-2.67,5.86-3.55,6.46-3.21a.69.69,0,0,1,.24.24,22.79,22.79,0,0,0-5.1,4.29A15.81,15.81,0,0,1,178.23,30.55Z"/><path class="cls-8" d="M169.53,46.79l-.83,1.62a10,10,0,0,1-1.21-1.22l-.17-.23a1.93,1.93,0,0,1-.38-.91h0a.73.73,0,0,1,.06-.3l.89-1.57a.49.49,0,0,0-.06.17C167.73,44.89,168.39,45.8,169.53,46.79Z"/><path class="cls-1" d="M163.42,48.68c.53,3.49,1.17,10.22-.52,13.82-2.62,5.58-10.56,9.69-14.15,11,2.61-3.36,3.76-6.09,3.21-8.09-.18-.64-1.34,1.55-3.39,1.92a10.3,10.3,0,0,0,.62-4.63c0-1.71.32-4.78,1.47-6.54,3.68-5.61,10-7.77,11.32-8.36Z"/><path class="cls-2" d="M163.42,48.68c.36,1.5.45,6.92-1,9.4s-7.14,5-9.75,7.53c.63-2.65,1.31-3.57,1-5.83a6.91,6.91,0,0,1,.16-3.85c.36-1.27,2.66-3.83,5-5.8a14.84,14.84,0,0,1,3.1-2.3Z"/><path class="cls-3" d="M163.42,48.68c.11,1.8-.39,6.81-2,8.13s-2.84.91-5.5,2.77c0-1.08,1.63-2.75,1.14-3.93-.64.56-.89,1-1.75,1.24.73-.93.73-2.21,1.36-3.55.73-1.56,2.28-2.53,3.48-3.58a10.49,10.49,0,0,0,1.78-1.93Z"/><path class="cls-4" d="M162.45,49.41c2.64,1.49,5.11,2.1,5.53,1.35l-.75,1.35c-.42.75-2.9.14-5.54-1.35s-4.45-3.31-4-4l.77-1.35C158,46.1,159.81,47.92,162.45,49.41Z"/><path class="cls-4" d="M161.53,51c2,1.13,3.86,1.58,4.17,1l-.58,1c-.32.56-2.19.1-4.17-1s-3.35-2.49-3-3l.58-1C158.18,48.54,159.53,49.91,161.53,51Z"/><path class="cls-5" d="M176.31,33.3a38.3,38.3,0,0,1-4.75,12.87c-1.55,2.73-2.69,4.76-2.69,4.76a25.89,25.89,0,0,1-6.15-2,27,27,0,0,1-4.85-4.19s1-2.05,2.63-4.86a37.43,37.43,0,0,1,8.65-10.58,17.6,17.6,0,0,0,3.28,2.4A17.25,17.25,0,0,0,176.31,33.3Z"/><path class="cls-6" d="M175.6,26c.63.35,1.35,3,.7,7.23a17.43,17.43,0,0,1-7.15-4C172.4,26.58,175,25.7,175.6,26Z"/><path class="cls-4" d="M163.48,47.58c3.07,1.73,6,2.43,6.44,1.57L169,50.71c-.5.87-3.37.16-6.43-1.57s-5.16-3.83-4.67-4.7l.89-1.56C158.31,43.74,160.42,45.85,163.48,47.58Z"/><path class="cls-7" d="M158.4,45.88a8.65,8.65,0,0,0,1.21,1.21l-.11.22A4.13,4.13,0,0,1,158.4,45.88Z"/><path class="cls-7" d="M158.49,48.43l.31.3-.05.12A2.26,2.26,0,0,1,158.49,48.43Z"/><path class="cls-8" d="M159.49,47.3c-.24.48-.47,1-.69,1.42l-.31-.3a.64.64,0,0,1,0-.47l-.16.28c-.6-.65-.87-1.21-.68-1.55l.59-1,.17.23A4.42,4.42,0,0,0,159.49,47.3Z"/><path class="cls-8" d="M158.49,48.43a2.26,2.26,0,0,0,.26.42c-.18.37-.34.74-.51,1.11-.33-.41-.47-.76-.34-1l.41-.74.17-.28A.56.56,0,0,0,158.49,48.43Z"/><path class="cls-9" d="M161.62,43.3c-.42.72-.81,1.44-1.2,2.16-1.14-1-1.8-1.9-1.69-2.46.44-.83,1-1.91,1.73-3.15a37.5,37.5,0,0,1,8.65-10.63,18.38,18.38,0,0,0,1.6,1.32A66.63,66.63,0,0,0,161.62,43.3Z"/><path class="cls-10" d="M169.12,29.24c3.27-2.68,5.86-3.55,6.47-3.22a.91.91,0,0,1,.24.24,22.67,22.67,0,0,0-5.11,4.3A15.81,15.81,0,0,1,169.12,29.24Z"/><path class="cls-8" d="M160.42,45.48l-.82,1.61a9.88,9.88,0,0,1-1.21-1.21l-.17-.23a1.83,1.83,0,0,1-.38-.91h0a.46.46,0,0,1,.06-.29l.88-1.57s0,.1-.05.16C158.62,43.58,159.31,44.49,160.42,45.48Z"/><path class="cls-11" d="M212.9,21c.86-1.29,3.09-4,5.81-1.58s-1.63,5.22-1.63,5.22Z"/><path class="cls-12" d="M177.31,56.67c-2.44-.56-2.92.21-2.92.21l.34,1.68h0c.17,1,.55,2.25.8,3.58.49,2.62.8,5.33,1.89,5.11,1.56-.32,2.33-2.94,1.73-5.85a9.59,9.59,0,0,0-.39-1.42,11.36,11.36,0,0,0,2.3.49s-1.41-5.17-1.8-5S177.76,56.8,177.31,56.67Zm-2.58.48Z"/><path class="cls-13" d="M183.37,49.38a3.33,3.33,0,0,1,1.5,1.8c.11.54.16,1.07.23,1.6a28,28,0,0,1,.23,3.17c0,1,0,2.09-.08,3.12l-.11,1.55a3.46,3.46,0,0,1-.1.77c-.11.24-.36.46-1,.62l-11.73-1.84c-.55-.34-.72-.63-.75-.9a4.64,4.64,0,0,1,.14-.76l.37-1.51c.25-1,.53-2,.87-3s.76-2,1.19-3c.24-.48.44-1,.71-1.45a3.38,3.38,0,0,1,2-1.26Z"/><path class="cls-11" d="M168.23,53.94c-1.22-2.19-2.13-2-2.13-2l-1,1.39h0c-.61.79-1.29,1.93-2.1,3-1.6,2.14-3.38,4.21-2.47,4.86,1.28.92,3.73-.28,5.47-2.69a8.75,8.75,0,0,0,.78-1.26c.6.48,1.15.46,2.18.43,0,0,1.87-2.93,1.46-3.09S168.45,54.3,168.23,53.94Z"/><path class="cls-14" d="M176.84,48.52a3.43,3.43,0,0,1,.58,2.27c-.13.54-.3,1-.47,1.55-.33,1-.69,2-1.13,3a30.25,30.25,0,0,1-1.4,2.79l-.75,1.36a4.43,4.43,0,0,1-.41.65,1.38,1.38,0,0,1-1.17.15l-9.86-6.65a1.33,1.33,0,0,1-.3-1.13,3.23,3.23,0,0,1,.47-.63l1-1.21c.64-.8,1.33-1.59,2-2.34s1.53-1.47,2.33-2.17c.42-.33.82-.69,1.27-1a3.28,3.28,0,0,1,2.32-.3Z"/><path class="cls-14" d="M187.78,39.11c.34-.73.53-1,.72-1.09l.53-.38a3.59,3.59,0,0,1,.95-.54,6,6,0,0,1,1.78-.62,16.8,16.8,0,0,0,3.44-1.3,39.37,39.37,0,0,0,6.39-4.28c2-1.65,3.92-3.48,5.76-5.3.92-.91,1.81-1.84,2.62-2.78a7,7,0,0,1,1.26-1.29,6,6,0,0,1,.83-.44,1.47,1.47,0,0,1,.62-.1h.43a3.44,3.44,0,0,1,1.25.38l3,1.44c.85.52,1,.72,1,.86l.18.5a1.83,1.83,0,0,1,.08.84,6.79,6.79,0,0,1-.31,1.39A8.39,8.39,0,0,1,217,28.55a36.39,36.39,0,0,1-3.22,3.58,33,33,0,0,1-3.6,3.06,44,44,0,0,1-3.95,2.59,33.66,33.66,0,0,1-8.91,3.6,24.69,24.69,0,0,1-4.93.67,9.21,9.21,0,0,1-1.28-.06c-.43-.1-.85-.22-1.27-.36a4.57,4.57,0,0,1-1.19-.69,6.75,6.75,0,0,1-.53-.54c-.18-.17-.33-.47-.36-1.26Z"/><path class="cls-15" d="M199,31.39a11.67,11.67,0,1,1-5.57-15.54h0A11.66,11.66,0,0,1,199,31.39Z"/><path class="cls-15" d="M190.59,51l.21-.44v-.16C194,42.61,194.51,34.81,185,30.3h0c-9.64-4.56-17.11,3.32-21.64,14.84h0c-2,4.27,4.89,7.16,10.64,9.89,6.7,3.17,12.23,5.32,13.64,2.27l1.47-3.12C189.65,53.11,190.15,52.06,190.59,51Z"/><path class="cls-16" d="M189.65,44.42c-1.09-.67-1.53-2.56-2.86-3.88-1.82-1.83-1.78-4.09-1.91-3.12s-1,1.21-1,1.07.21.22.4-1.24-1.39-2.61-2-5.42a19,19,0,0,1-.33-3,6.35,6.35,0,0,0-.47,1.14c-.24-9,4.13-12.93,4.65-13.14a2.9,2.9,0,0,0-1.46.34c1.66-2.37,3.5-2.18,3.79-2.16a1.56,1.56,0,0,0-1.25-.62c1.07-.94,2-1.5,3.37-1.2a1.34,1.34,0,0,1,1,1,2.42,2.42,0,0,1,2.31-2.53h0c-1.61,2.43-1.07,2-1,2.16s1.72-1,3.07-.79a1.53,1.53,0,0,0-.87.63c1.47-.26,3.13-.76,5.46,1.8a3.65,3.65,0,0,0-2.12.09,10.36,10.36,0,0,1,4.76,8.53c-.19-.17-1.17-1.22-1.37-1.1.69.87,2.92,3.92-1,12.74.05-.5,0-1.68-.26-1.71.12.93-1.18,3.3-4.2,5C192.31,41.3,190.46,42.7,189.65,44.42Z"/><path class="cls-11" d="M199.78,28.7c1-4.39-.88-8.61-4-9.33s-6.49,2.24-7.5,6.63a9.83,9.83,0,0,0,.75,6.82c1.07,2,2,3.68,1.77,5.42,1.07-2.21,2.82-2.53,5.06-3.75A9,9,0,0,0,199.78,28.7Z"/><path class="cls-17" d="M200.12,27.56c-.67,4.31-3.49,7.56-6.78,7.05s-6.19-4.69-5.52-9,3.87-7.39,7.16-6.89S200.78,23.3,200.12,27.56Z"/><path class="cls-18" d="M196,25a5.66,5.66,0,0,1,1.37.19,2.6,2.6,0,0,1,1.22.6,2.59,2.59,0,0,0-1.26-.32,5.57,5.57,0,0,0-1.28.1Z"/><path class="cls-18" d="M194.12,25.3a5.48,5.48,0,0,0-1.2-.51,2.61,2.61,0,0,0-1.33-.09,2.81,2.81,0,0,1,1.37-.19,5.37,5.37,0,0,1,1.38.28Z"/><polygon class="cls-19" points="193.78 26.16 192.59 25.61 193.9 25.8 193.78 26.16"/><path class="cls-19" d="M196,26h.84a3.93,3.93,0,0,1,.84,0,3.28,3.28,0,0,0-.81.14l-.81.22Z"/><path class="cls-20" d="M193.56,27.54a1.34,1.34,0,0,0,.28,1.18,1.77,1.77,0,0,0,1.06.53A1.25,1.25,0,0,0,196,29a1.92,1.92,0,0,0,.36-.5,1.26,1.26,0,0,0,.11-.63,1.32,1.32,0,0,1-.25,1.33,1.45,1.45,0,0,1-1.36.46,1.69,1.69,0,0,1-1.22-.73A1.23,1.23,0,0,1,193.56,27.54Z"/><path class="cls-19" d="M192.56,30.81a1.27,1.27,0,0,0,.59.6c.11.06.22.09.33.14l.34.16a2.25,2.25,0,0,0,.81.13,1.7,1.7,0,0,0,.86-.26,1.7,1.7,0,0,1-.76.64,2.57,2.57,0,0,1-1,.18,1.83,1.83,0,0,1-.55-.13,1.56,1.56,0,0,1-.42-.39A1.08,1.08,0,0,1,192.56,30.81Z"/><path class="cls-21" d="M193.87,18.68a5.51,5.51,0,0,1,2.5.43c2.08.89,3.2,3.46,3.47,4.14A2.27,2.27,0,0,0,198,23l-.33.1-.59-2.15-.52,2.46c-3.61.7-7-2.79-8.08-.08,1-2.56,3.18-4.44,5.43-4.61"/><path class="cls-11" d="M157.45,41.47c-1.46,0-4.72-.46-4.24-3.94s1.78-2,2.5-1.63a3.32,3.32,0,0,0,2.47.24Z"/><path class="cls-14" d="M179.59,33.56a2.29,2.29,0,0,1,.27,1.21,2.45,2.45,0,0,1-.11.59,3.1,3.1,0,0,1-.44.94,3.31,3.31,0,0,1-1.16,1.22c-.45.32-.9.62-1.37.92s-.93.59-1.41.87a30.32,30.32,0,0,1-6.17,2.79,25.36,25.36,0,0,1-6.69,1.2,32.58,32.58,0,0,1-3.42-.13,4.22,4.22,0,0,1-1.64-.37,3.65,3.65,0,0,1-.78-.55,1.6,1.6,0,0,1-.34-.53l-.15-.41c-.06-.1-.1-.31,0-1.3l.47-3.34c.2-1,.28-1.17.35-1.25l.23-.37a1.53,1.53,0,0,1,.4-.44,3.89,3.89,0,0,1,.73-.38,3.22,3.22,0,0,1,1.35-.11h2.6c1.75,0,3.48,0,5.25-.16a42.56,42.56,0,0,0,5.39-.73c.45-.09.91-.19,1.36-.32a11.05,11.05,0,0,0,1.36-.39,2.39,2.39,0,0,1,.7-.17,5.34,5.34,0,0,1,.8,0,2.67,2.67,0,0,1,.92.17l.55.22c.18.07.42.22.92.83Z"/></svg>