<?xml version="1.0" encoding="utf-8"?>
<!-- Generator: Adobe Illustrator 22.1.0, SVG Export Plug-In . SVG Version: 6.00 Build 0)  -->
<svg version="1.1" id="Layer_1" xmlns="http://www.w3.org/2000/svg" xmlns:xlink="http://www.w3.org/1999/xlink" x="0px" y="0px"
	 viewBox="0 0 251 151" style="enable-background:new 0 0 251 151;" xml:space="preserve">
<style type="text/css">
	.st0{fill:#5E3E21;}
	.st1{fill:#E84C59;}
	.st2{fill:#EE7B5C;}
	.st3{fill:#F9C862;}
	.st4{fill:#062633;}
	.st5{fill:#ABAAAA;}
	.st6{fill:#E1DFE0;}
	.st7{fill:none;}
	.st8{fill:#041D26;}
	.st9{fill:#6E6E6E;}
	.st10{fill:#C0C0C0;}
	.st11{fill:#783A28;}
	.st12{fill:#8F4729;}
	.st13{fill:none;stroke:#8C9699;stroke-width:0.64;stroke-miterlimit:10;}
	.st14{fill:#8C9699;}
	.st15{fill:#D1D9DB;}
	.st16{fill:none;stroke:#505D60;stroke-width:0.95;stroke-linecap:round;stroke-miterlimit:10;}
	.st17{fill:#DCB680;}
	.st18{fill:#C69666;}
	.st19{fill:#662F1E;}
	.st20{fill:#231D13;}
	.st21{fill:#574C3E;}
	.st22{fill:#442C1A;}
</style>
<title>Laura_front</title>
<g id="Layer_2_1_">
	<path class="st0" d="M130.9,91.1l6.3,4.6c0.5-0.7,1-1.4,1.3-2.2c2.1-3,4.7-5.8,7.5-8.2c2.9-1.9-0.5-2.9-3.1-2.8
		c-3.1,0.1-5.6,1.2-5.9,1.9c0-0.8,0-1.7-1.3-1.6c-2,0.1-3,6-3,6.2C132,90.5,130.9,91.3,130.9,91.1z"/>
	<path class="st1" d="M138.3,89.4c1.3,1.9,8.7,10.5,9.1,21.8c0.1,3.5-2.1,8.3-3.6,10.7c-1.6,2.1-2.7,4.6-3.1,7.3
		c-2.6-2.3-2.4-6.3-3.2-5.7c-2.4,2.5-3.1,7.3-2.3,14.5c-4-5.1-11.9-17.9-10.9-28.2c0.7-6.7,7.5-15.8,11.2-20.4H138.3z"/>
	<path class="st2" d="M138.4,89.4c0,0,0.7,0.8,2.5,6c1.7,4.9,2.9,10.6,2.3,12.7c-0.6,2.1-0.6,2.7-3,5.7s-2.2,4.9-3.6,9.3
		c-1.6-5.9-7.7-14.5-7.6-19.3s4.9-12.6,6.7-14.5L138.4,89.4z"/>
	<path class="st3" d="M138.3,89.4c0.1,1.5,0.4,2.9,0.9,4.3c1,2.7,2.3,5.4,2,8.2c-0.2,2.4-1.3,4.3-1.1,6.3c-1-1.1-0.9-1.9-1.4-3.3
		c-1.6,1.3-0.8,5.1-1.7,6.7c-2.2-5-4.4-5.6-5.5-8.9s2.4-10.9,4.2-13.4L138.3,89.4z"/>
	<path class="st4" d="M145.8,88.9v2.5c-0.1,1.4-4.3,2.4-9.4,2.3c-5.1-0.1-9.2-1.4-9.1-2.8v-2.5c-0.1,1.4,4,2.7,9.1,2.8
		C141.5,91.3,145.7,90.3,145.8,88.9z"/>
	<path class="st4" d="M143.4,92.7l-0.1,2c0,1.1-3.2,2-7,1.8s-6.8-1-6.8-2.2v-2c-0.1,1.1,3,2,6.8,2.2
		C140.1,94.6,143.2,93.6,143.4,92.7z"/>
	<path class="st5" d="M137.1,56.9c2.3,0.1,4.6-0.2,6.9-0.7c2.5,7.3,3.7,15.1,3.4,22.8c-0.1,5.5-0.4,9.3-0.4,9.3s-6.6,1.9-10.7,1.8
		c-4.1-0.1-10.5-2.4-10.5-2.4s0.1-4,0.2-9.2c0-7.8,1.4-15.4,4.2-22.7C132.5,56.5,134.8,56.9,137.1,56.9z"/>
	<path class="st6" d="M144.1,56.2c-2.3,0.5-4.6,0.7-6.9,0.7c-2.4,0-4.7-0.4-6.9-1c2.7-6.7,6-9.9,7.3-9.9S141.8,49.7,144.1,56.2z"/>
	<path class="st4" d="M147.3,84.9v3c0,1.7-4.8,3-10.8,2.8c-5.9-0.2-10.8-1.6-10.7-3.3v-3c0.1,1.7,4.8,3.1,10.7,3.3
		C142.5,87.9,147.2,86.6,147.3,84.9z"/>
	<path class="st7" d="M142.6,90.7v-0.4c1-0.1,1.9-0.3,2.8-0.7C144.6,90.2,143.6,90.6,142.6,90.7z"/>
	<path class="st7" d="M142.3,93.7v-0.3c0.3,0,0.4-0.2,0.7-0.2C142.8,93.4,142.5,93.6,142.3,93.7z"/>
	<path class="st8" d="M145.4,89.6c0.1,0,0.3-0.2,0.4-0.2l-0.1,1.9c0,0.7-0.9,1.2-2.3,1.6v-0.6c0,0.3-0.1,0.6-0.4,0.7
		c-0.3,0-0.4,0.2-0.7,0.2c0-0.9,0.1-1.8,0.2-2.7C143.5,90.6,144.5,90.2,145.4,89.6z"/>
	<path class="st8" d="M143.5,92.5v0.6l-0.1,1.4c0,0.4-0.5,0.9-1.4,1.2c0.1-0.6,0.1-1.3,0.2-2c0.2-0.1,0.5-0.3,0.7-0.4
		C143.2,93.1,143.4,92.8,143.5,92.5z"/>
	<path class="st9" d="M140.6,56.8c1.3-0.2,2.4-0.4,3.5-0.5c2.5,7.3,3.7,15.1,3.4,22.8c0,2.4-0.1,4.5-0.2,6.1c-0.4,1-2.1,1.8-4.6,2.1
		c0.1-1.3,0-2.7,0.1-4.1C143.2,74.3,142.4,65.5,140.6,56.8z"/>
	<path class="st10" d="M140.6,56.9c-0.6-3.7-1.9-7.3-3.6-10.6c0.2-0.1,0.4-0.2,0.6-0.2c1.1,0,4.2,3.5,6.6,10.1
		C143.2,56.6,141.9,56.7,140.6,56.9z"/>
	<path class="st8" d="M147.3,85.5v-0.3v3c0,0.2,0,0.3-0.1,0.4l0,0c-0.3,0.5-0.8,0.8-1.4,1c-0.1,0-0.3,0.2-0.4,0.2
		c-0.9,0.3-1.8,0.6-2.8,0.7c0.1-1.1,0.1-2.1,0.2-3.1C145.3,86.9,146.9,86.2,147.3,85.5z"/>
	<path class="st1" d="M120,90c1.6,1.9,9.3,10.1,10.4,21.3c0.3,3.5-1.7,8.2-3,10.8c-1.4,2.3-2.3,4.8-2.7,7.4
		c-2.8-2.2-2.8-6.3-3.6-5.5c-2.4,2.6-2.8,7.6-1.6,14.6c-4.3-4.8-12.9-17.2-12.4-27.5c0.3-6.6,6.6-16.2,10.1-20.9L120,90z"/>
	<path class="st2" d="M119.9,90.1c0,0,0.7,0.8,2.7,5.8c2,4.7,3.5,10.4,3,12.6c-0.5,2.1-0.5,2.7-2.8,5.9c-2.3,3.2-1.9,5.1-3,9.4
		c-1.9-5.7-8.4-14.1-8.6-18.9s4.2-12.8,6-14.7L119.9,90.1z"/>
	<path class="st3" d="M119.9,89.8c0.2,1.5,0.6,2.9,1.1,4.3c0.9,2.5,2.5,5.1,2.4,8.1c0,2.5-1.1,4.4-0.7,6.3c-1.2-1-1.2-1.8-1.7-3.2
		c-1.6,1.5-0.4,5.2-1.3,6.8c-2.4-4.8-4.7-5.2-5.9-8.4c-1.3-3.2,1.9-11.1,3.5-13.7L119.9,89.8z"/>
	<path class="st4" d="M127.3,89.1l0.1,2.5c0,1.4-4.1,2.7-9.2,2.9c-5.1,0.2-9.3-0.9-9.4-2.3l-0.1-2.5c0,1.4,4.3,2.5,9.4,2.3
		S127.2,90.6,127.3,89.1z"/>
	<path class="st4" d="M125,92.9l0.1,2c-0.1,1.1-3.2,2.1-7,2.2s-6.9-0.6-7-1.7l-0.1-2c0,1,3.2,1.9,7,1.7S125.1,94,125,92.9z"/>
	<path class="st5" d="M117.3,57.5c2.3-0.1,4.5-0.4,6.7-1c2.8,7.2,4.3,14.9,4.5,22.7c0.1,5.5,0,9.3,0,9.3s-6.3,2.3-10.5,2.5
		c-4.1,0.2-10.7-1.9-10.7-1.9l-0.3-9.2c-0.5-7.8,0.5-15.6,3-23C112.4,57.6,114.9,57.7,117.3,57.5z"/>
	<path class="st6" d="M123.9,56.7c-2.2,0.6-4.5,0.9-6.7,1c-2.4,0.1-4.8-0.1-7.1-0.6c2.3-6.9,5.4-10.2,6.7-10.3
		S121.1,50.2,123.9,56.7z"/>
	<path class="st4" d="M128.6,85.1l0.1,3c0.1,1.7-4.7,3.1-10.6,3.3c-5.9,0.2-10.8-1-10.8-2.7l-0.1-3c0,1.7,4.9,2.9,10.8,2.7
		C123.9,88.3,128.6,86.8,128.6,85.1z"/>
	<path class="st7" d="M124,91.1v-0.4c1-0.2,1.9-0.4,2.8-0.8C126,90.6,125,91.1,124,91.1z"/>
	<path class="st7" d="M123.9,94.1v-0.3c0.3,0,0.4-0.2,0.7-0.2C124.4,93.8,124.2,93.9,123.9,94.1z"/>
	<path class="st8" d="M126.9,90c0.1,0,0.3-0.2,0.4-0.2l0.1,2c0,0.7-0.8,1.3-2.2,1.8V93c0,0.3-0.1,0.6-0.4,0.7
		c-0.3,0-0.4,0.2-0.7,0.2c0-0.8,0.1-1.8,0-2.7C125.1,91,126.1,90.6,126.9,90z"/>
	<path class="st8" d="M125,92.9v0.6l0.1,1.4c0,0.4-0.4,0.9-1.3,1.2c0-0.6,0.1-1.3,0-2c0.3-0.1,0.5-0.3,0.7-0.5
		C124.8,93.5,125,93.2,125,92.9z"/>
	<path class="st9" d="M120.5,57.4c1.1-0.2,2.3-0.4,3.4-0.7c2.8,7.2,4.3,14.9,4.6,22.7c0.1,2.4,0,4.5,0.1,6.1
		c-0.3,0.8-1.9,1.7-4.4,2.3c0.1-1.4,0.1-2.7,0-4.1C123.9,74.8,122.7,66,120.5,57.4z"/>
	<path class="st10" d="M120.4,57.4c-0.8-3.7-2.3-7.2-4.2-10.4c0.2-0.1,0.4-0.2,0.6-0.2c1.1,0,4.3,3.4,7.1,9.9
		C122.7,57,121.5,57.3,120.4,57.4z"/>
	<path class="st8" d="M128.6,85.7v-0.3l0.1,3c0,0.2,0,0.3-0.1,0.4l0,0c-0.3,0.5-0.7,0.8-1.3,1c-0.1,0-0.3,0.2-0.4,0.2
		c-0.9,0.4-1.8,0.6-2.8,0.8c0-1,0-2.1,0-3.1C126.7,87.2,128.3,86.3,128.6,85.7z"/>
	<path class="st0" d="M89.8,41.7c0-0.1-1-6.5-3.1-5.8c-0.6,0.2-1,0.7-1.1,1.3c-0.4-0.7-1.1-1.3-1.8-1.6c-2.4-0.6-3.5,0.7-4.8,3
		c-1.3,2.2,2,6.1,4.1,8.5c0.5,0.7,1,1.4,1.6,2.1l7.3-5.4C91,43.3,90.3,42.6,89.8,41.7z"/>
	<path class="st0" d="M112.7,83.1c-0.8-0.3-3,8.3-3,8.3c1.6-0.1,3.1-0.4,4.7-0.8c-0.3,0.8-0.5,1.6-0.6,2.4c-0.7,4.9-0.2,9.2,2.9,9.7
		c2.2,0.4,4-4.1,4.6-8.6c0.4-2.2,0.9-4.3,1.1-6l0,0l0.5-2.8c0,0-1.1-1.3-6-0.4C116,85.3,113.5,83.4,112.7,83.1z"/>
	<path class="st0" d="M131.2,83.8c-0.8-0.3-3,8.3-3,8.3c1.6-0.1,3.2-0.4,4.7-0.8c-0.3,0.8-0.5,1.6-0.7,2.4c-0.7,4.9-0.2,9.2,2.9,9.7
		c2.2,0.4,4-4.1,4.6-8.6c0.4-2.2,0.9-4.3,1.1-6l0,0l0.5-2.8c0,0-1.1-1.3-6-0.4C134.4,86,132,84.1,131.2,83.8z"/>
	<path class="st11" d="M122.6,75.7c2.7,2.2,2.1,4,2.5,5.9c0.4,1.8,0.3,3.8,0.4,5.5l0.1,4.9c0,0.7,0.1,1.3,0.2,2
		c0,0.3,0.1,0.6,0.1,0.8c-0.2,0.5-0.7,0.9-1.2,1.1L108.1,98c-1.8-0.9-1.5-2.3-1.4-3.4c0-1.2,0.1-2.3,0.3-3.5c0.2-2,0.6-4,1.1-6
		c0.5-1.8,1.1-3.6,1.6-5.3c0.8-1.7,0.5-3.5,3.7-4.9L122.6,75.7z"/>
	<path class="st11" d="M139.9,75.8c1.1,0.5,2,1.4,2.5,2.5l0.7,2.5c0.5,1.7,0.9,3.4,1.3,5.1c0.4,1.7,0.6,3.4,0.7,5.1l0.3,2.5
		c0,0.8,0.5,1.7-1.1,2.6l-16.6,0.5c-1.7-0.8-1.2-1.7-1.3-2.5l0.1-2.5c0.1-1.7,0.1-3.4,0.3-5.2s0.6-3.5,0.9-5.2
		c0.2-0.8,0.3-1.7,0.5-2.7c0.4-1.1,1.3-2,2.3-2.5L139.9,75.8z"/>
	<path class="st12" d="M149.6,72v-0.8v-0.3c-0.3-14.1-4.5-26.4-22.1-27l0,0c-17.8-0.6-24,16.3-23.3,37l0,0
		c-0.3,7.9,12.1,7.8,22.8,8.2c12.4,0.5,22.3,0.1,22.3-5.5l0.2-5.8C149.6,75.8,149.7,73.9,149.6,72z"/>
	<path class="st11" d="M115.6,51.2c0.5,1,0.5,1.4,0.5,1.7c-0.1,0.3-0.1,0.6-0.1,0.9c-0.1,0.5-0.3,1-0.6,1.4c-0.5,0.8-1.2,1.4-2,1.9
		s-1.6,0.9-2.5,1.3c-0.9,0.4-1.7,0.7-2.7,1c-3.8,1.2-7.8,1.3-11.6,0.5c-3.9-0.9-7.5-2.8-10.4-5.5c-0.7-0.7-1.4-1.4-2-2.1
		c-0.6-0.7-1.3-1.5-1.8-2.3c-0.6-0.8-1-1.7-1.3-2.6c-0.1-0.5-0.1-1-0.1-1.6c0-0.3,0.1-0.6,0.3-0.9l0.3-0.5c0.1-0.2,0.3-0.4,1.5-1
		l4.3-2c1.3-0.5,1.6-0.6,1.7-0.5h0.6c0.3,0,0.6,0,0.8,0.1c0.3,0.1,0.7,0.3,1,0.5c0.5,0.3,0.9,0.8,1.2,1.3c0.7,0.8,1.4,1.7,2.2,2.4
		c1.5,1.5,3.3,2.8,5.2,3.8c2,1,4.2,1.5,6.4,1.6c0.6,0,1.2,0,1.8-0.1c0.6-0.1,1.2-0.2,1.8-0.3c0.3-0.1,0.6-0.2,0.9-0.2s0.7,0,1.1,0
		s0.9,0,1.3,0.2l0.8,0.2C114.7,50.4,115.2,50.8,115.6,51.2L115.6,51.2z"/>
	<path class="st0" d="M144.4,76.2c-0.1,0-6,2.3-6.8,5.4c-0.5,2.4,1,4.7,3.3,5.3c2.4,0.2,5.2-3.1,7.9-4.6c0.9-0.4,1.7-0.9,2.3-1.2
		l-4.3-6.5C146.7,74.5,146,75.6,144.4,76.2z"/>
	<path class="st11" d="M139.6,49.8c1-0.7,1.3-0.7,1.7-0.6h0.8c0.5,0.1,1,0.2,1.5,0.4c0.9,0.3,1.7,0.8,2.3,1.5
		c1.3,1.3,2.6,2.4,3.8,3.8c2.7,2.8,4.9,6.2,6.4,9.8c0.8,2.2,1.2,4.5,1.3,6.8c0,2.7-0.7,5.3-2,7.6c-0.6,1.1-1.4,2.2-2.2,3.2
		c-0.9,0.9-1.8,1.7-2.8,2.4c-0.5,0.4-0.9,0.7-1.4,0.9c-0.5,0.3-1,0.5-1.6,0.6s-1.1,0.2-1.7,0.2c-0.3-0.1-0.7-0.2-1-0.3l-0.6-0.3
		c-0.1,0-0.4-0.3-1.1-1.6l-2-4.5c-0.3-0.6-0.5-1.2-0.5-1.9v-0.6c0-0.4,0-0.7,0.2-0.8c0.1-0.3,0.3-0.7,0.5-1c0.1-0.3,0.3-0.5,0.6-0.7
		l0.6-0.5c0.4-0.3,0.6-0.7,0.9-1c0.3-0.3,0.4-0.5,0.6-0.8c0.3-0.6,0.6-1.2,0.8-1.8c0.1-0.9,0.1-1.9,0-2.8c-0.5-2.7-1.3-5.3-2.5-7.7
		c-0.3-0.7-0.6-1.4-1.1-2l-1.2-2c-0.5-0.7-0.8-1.5-0.9-2.3c-0.2-0.4-0.2-0.9-0.1-1.4v-0.8c-0.4-0.4-0.3-0.8,0.5-1.8L139.6,49.8z"/>
	<path class="st13" d="M120.8,79.6c0,0,2.2,0.8,3.2-0.9c0.8-1.3-1.3-11.1-3.5-13.2c-2.5-2-6-1.9-8.3,0.3c-2.1,2.2-3.5,12.2-2.6,13.4
		c1.1,1.6,3.3,0.7,3.3,0.7"/>
	<path class="st13" d="M140.7,64.1c0.6-3.3,2.5-19-12.8-19c-14.9,0-11.7,19-11.7,19"/>
	<circle class="st14" cx="140.7" cy="65.9" r="2.5"/>
	<circle class="st15" cx="140.7" cy="65.9" r="1.4"/>
	<circle class="st15" cx="112.4" cy="80" r="0.7"/>
	<path class="st16" d="M123.1,71.3c-0.7-2.5-1.6-4.9-2.6-5.8c-2.5-2-6-1.9-8.3,0.3c-1.1,1.7-1.8,3.6-2.1,5.6"/>
	<circle class="st15" cx="120.8" cy="79.5" r="0.7"/>
	<path class="st17" d="M127.8,66.7c-2.5-0.9-4.1-3.8-7.3-5.8c-4.4-2.5-5.1-6.3-5.1-4.7s-1.8,2.2-1.7,1.9c0-0.3,0.5,0.3,0.4-2.1
		c-0.2-2.4-3.8-3.9-5.9-8.5c-0.8-1.6-1.3-3.3-1.6-5c-0.3,0.6-0.5,1.3-0.6,2c-3.4-14.8,4.5-22.3,5.5-22.8c-1,0.1-2.1,0.4-3,0.9
		c1.5-2.7,4.3-4.3,7.4-4.4c-0.8-0.6-1.8-0.8-2.8-0.8c1.7-1.9,4.2-2.9,6.7-2.7c1,0,1.9,0.5,2.4,1.4c-0.5-1,0-3.9,4.1-4.6
		c-2.5,4.4-1.5,3.6-1.4,3.8c0.1,0.2,3.3-2,6.1-2c-0.7,0.2-1.2,0.7-1.6,1.3c3-0.7,6.4-2,12.1,1.7c-1.5-0.1-3,0.1-4.4,0.7
		c0.8,0.3,10.9,3.8,12.8,13c-0.4-0.3-2.9-1.8-3.2-1.5c1.8,1.3,7.4,5.8,2,21.2c-0.1-0.8-0.6-2.7-1.2-2.7c0.5,1.6-1.5,5.7-7.2,9.2
		C132.4,61,128.9,63.7,127.8,66.7z"/>
	<path class="st0" d="M141.4,37.9c0.3-7.5-5.5-13.8-13-14.1c-7.5-0.3-13.8,5.5-14.1,13c-0.2,4.3,1.7,8.3,5,11c3.4,2.9,6,5.3,7.9,8.7
		c1.1-2.5,4.5-4.9,8.5-8C139.1,46,141.1,42.1,141.4,37.9z"/>
	<path class="st18" d="M140.7,37.2c-0.4,7.1-6.5,12.5-13.5,12.1c-7.1-0.4-12.5-6.5-12.1-13.5s6.3-12.3,13.3-12.1
		C135.5,23.9,141.1,30,140.7,37.2C140.7,37.1,140.7,37.1,140.7,37.2z"/>
	<path class="st19" d="M130.3,33.2c0.9,0.2,1.8,0.5,2.7,1c0.8,0.4,1.6,0.9,2.2,1.6c-0.7-0.6-1.5-1-2.3-1.3c-0.8-0.2-1.8-0.4-2.7-0.5
		L130.3,33.2z"/>
	<path class="st19" d="M125.3,34.1c-0.9-0.1-1.8-0.1-2.7,0c-0.9,0.1-1.8,0.4-2.5,0.9c0.7-0.6,1.6-1.1,2.5-1.3
		c0.9-0.3,1.9-0.5,2.8-0.6L125.3,34.1z"/>
	<polygon class="st20" points="125.7,35.8 122.9,35.4 125.7,35.2 	"/>
	<path class="st20" d="M129.8,35.4l1.8,0.2c0.6,0,1.1,0.2,1.8,0.2c-0.6,0-1.2,0-1.8,0.1l-1.7,0.1L129.8,35.4z"/>
	<path class="st21" d="M124.7,37.1c-0.2,0.8,0.1,1.6,0.8,2c0.7,0.5,1.4,0.7,2.2,0.8c0.8,0.1,1.6-0.1,2.3-0.5c0.3-0.3,0.6-0.6,0.7-1
		c0.2-0.4,0.3-0.8,0.2-1.1c0.4,0.8,0.2,1.8-0.5,2.4c-0.7,0.6-1.6,0.9-2.5,0.7c-0.9,0-1.8-0.4-2.5-0.9C124.5,39,124.3,38,124.7,37.1z
		"/>
	<path class="st20" d="M124.3,43.9c0.8,0.3,1.5,0.6,2.4,0.9c0.8,0.2,1.6,0.3,2.4,0.4c1.6,0,3.2-0.4,4.6-1.3
		c-1.1,1.4-2.8,2.2-4.6,2.1c-0.9,0-1.7-0.2-2.5-0.5C125.7,45,124.9,44.5,124.3,43.9z"/>
	<path class="st22" d="M126,23.6c1.7-0.2,3.4-0.2,5.1,0.2c3.4,1.1,6.4,3.3,8.4,6.2c-1.2-0.5-2.7-0.6-3.9-0.2
		c-0.3,0.1-0.4,0.1-0.7,0.3l-1.9-3.4l-0.4,4.2c-7.4,1.8-14.8-3.8-17.1,0.6C117.5,27.4,121.4,24.4,126,23.6"/>
</g>
</svg>
