<?xml version="1.0" encoding="utf-8"?>
<!-- Generator: Adobe Illustrator 22.1.0, SVG Export Plug-In . SVG Version: 6.00 Build 0)  -->
<svg version="1.1" id="Layer_3" xmlns="http://www.w3.org/2000/svg" xmlns:xlink="http://www.w3.org/1999/xlink" x="0px" y="0px"
	 viewBox="0 0 251 151" style="enable-background:new 0 0 251 151;" xml:space="preserve">
<style type="text/css">
	.st0{fill:#E84C59;}
	.st1{fill:#EE7B5C;}
	.st2{fill:#F9C862;}
	.st3{fill:#062633;}
	.st4{fill:#ABAAAA;}
	.st5{fill:#E1DFE0;}
	.st6{fill:none;}
	.st7{fill:#041D26;}
	.st8{fill:#6E6E6E;}
	.st9{fill:#C0C0C0;}
	.st10{fill:#5E3E21;}
	.st11{fill:#783A28;}
	.st12{fill:#8F4729;}
	.st13{fill:#AF9987;}
	.st14{fill:#DCB680;}
	.st15{fill:#C69666;}
	.st16{fill:#662F1E;}
	.st17{fill:#231D13;}
	.st18{fill:#574C3E;}
	.st19{fill:#442C1A;}
	.st20{opacity:0.3;fill:#B78FA5;enable-background:new    ;}
	.st21{opacity:0.3;fill:#EABEE8;enable-background:new    ;}
	.st22{opacity:0.3;}
	.st23{fill:#F4C9E3;}
	.st24{opacity:0.3;fill:#EFABD7;enable-background:new    ;}
	.st25{opacity:0.3;fill:#FFFFFF;enable-background:new    ;}
	.st26{opacity:0.3;fill:#AF899A;enable-background:new    ;}
</style>
<title>Tõnis</title>
<path class="st0" d="M124.9,92.9c3.7,4.1,10.3,12.6,11.2,18.7c1.3,9.6-5.6,21.9-9.2,26.7c0.6-6.7-0.2-11.3-2.7-13.4
	c-0.8-0.7-0.4,3.1-2.8,5.5c-0.6-2.5-1.6-4.7-3.1-6.7c-1.5-2.2-3.7-6.6-3.7-9.9c0-10.5,6.6-18.8,7.8-20.7L124.9,92.9z"/>
<path class="st1" d="M124.9,92.9c1.8,1.7,6.6,8.7,6.7,13.3c0.1,4.6-5.2,12.8-6.4,18.3c-1.5-4-1.3-5.8-3.7-8.6
	c-2.4-2.7-2.5-3.2-3.1-5.3c-0.7-2,0.2-7.4,1.7-12c1.5-4.9,2.1-5.7,2.1-5.7L124.9,92.9z"/>
<path class="st2" d="M124.9,92.9c1.7,2.2,5.3,9.3,4.4,12.4c-0.9,3.1-2.9,3.6-4.9,8.4c-1-1.5-0.2-5-1.9-6.2c-0.3,1.3-0.3,2.1-1.3,3.1
	c0.2-1.9-0.9-3.6-1.2-5.8c-0.3-2.7,0.9-5.3,1.6-7.7c0.4-1.3,0.7-2.7,0.7-4L124.9,92.9z"/>
<path class="st3" d="M124.4,94.7c4.8-0.3,8.5-1.6,8.5-2.9l0.1,2.5c0.1,1.3-3.7,2.7-8.5,2.9c-4.8,0.3-8.7-0.6-8.7-1.9l-0.1-2.5
	C115.6,94.1,119.5,94.9,124.4,94.7z"/>
<path class="st3" d="M124.5,97.6c3.6-0.2,6.5-1.2,6.4-2.2l0.1,1.8c0,1-2.8,2-6.4,2.2c-3.6,0.2-6.6-0.4-6.6-1.5l-0.1-1.8
	C118,97.2,120.9,97.8,124.5,97.6z"/>
<path class="st4" d="M128.8,61.4c2.8,6.7,4.5,13.8,4.7,21.1l0.6,8.6c-3.1,1.3-6.4,2.1-9.9,2.7c-3.4,0-6.7-0.4-10-1.3
	c0,0-0.3-3.6-0.7-8.6c-0.6-7.3,0.2-14.6,2.4-21.5c2.1,0.3,4.3,0.4,6.4,0.3C124.5,62.5,126.7,62.2,128.8,61.4z"/>
<path class="st5" d="M121.7,52.6c1.1-0.1,4.4,2.7,7.2,9c-2.1,0.7-4.3,1.1-6.5,1.2c-2.1,0.1-4.3,0-6.4-0.3
	C118,55.9,120.7,52.6,121.7,52.6z"/>
<path class="st3" d="M124.1,91.3c5.5-0.3,10-1.9,9.9-3.5l0.2,2.8c0.1,1.6-4.3,3.1-9.9,3.5c-5.5,0.3-10.1-0.7-10.2-2.2l-0.2-2.8
	C114.1,90.7,118.5,91.7,124.1,91.3z"/>
<path class="st6" d="M116,93.6c0.9,0.2,1.8,0.4,2.7,0.6v0.3C117.6,94.4,116.7,94,116,93.6z"/>
<path class="st6" d="M118.3,96.7l0.7,0.1c0,0.1,0,0.1,0,0.2C118.7,97.1,118.4,96.9,118.3,96.7z"/>
<path class="st4" d="M114.2,92.5L114.2,92.5z"/>
<path class="st7" d="M118.7,94.5c0.1,0.8,0.2,1.7,0.3,2.5l-0.7-0.1c-0.2-0.1-0.3-0.3-0.4-0.6v0.4c-1.3-0.3-2.2-0.9-2.2-1.5l-0.1-1.9
	c0.1,0.1,0.2,0.1,0.4,0.1C116.7,94,117.6,94.4,118.7,94.5z"/>
<path class="st7" d="M118.3,96.7c0.2,0.1,0.4,0.2,0.7,0.3l0.2,1.9c-0.8-0.2-1.3-0.6-1.3-1l-0.1-1.3v-0.4
	C117.9,96.4,118.1,96.6,118.3,96.7z"/>
<path class="st8" d="M118,87.3c0.1,1.3,0.2,2.7,0.3,3.9c-2.4-0.3-3.9-1-4.4-1.8c-0.1-1.5-0.2-3.4-0.4-5.6
	c-0.6-7.3,0.2-14.6,2.2-21.5c1.1,0.2,2.1,0.3,3.2,0.3C117.8,70.8,117.4,79.1,118,87.3z"/>
<path class="st9" d="M115.9,62.3c2-6.3,4.7-9.7,5.8-9.7c0.2,0,0.3,0,0.6,0.1c-1.5,3.1-2.6,6.6-3,10.1
	C118,62.6,116.9,62.5,115.9,62.3z"/>
<path class="st7" d="M118.3,91.2c0.1,1,0.2,1.9,0.3,2.8c-0.9-0.1-1.8-0.3-2.7-0.6c-0.1,0-0.3-0.1-0.4-0.1c-0.6-0.1-1-0.4-1.3-0.9
	l0,0c-0.1-0.1-0.1-0.3-0.2-0.4l-0.2-2.8c0,0.1,0,0.2,0,0.2C114.3,90.2,116,90.9,118.3,91.2z"/>
<path class="st0" d="M142.3,93c3.5,4.4,9.6,13,10.1,19.3c0.8,9.6-6.8,21.5-10.6,26.1c0.9-6.6,0.3-11.3-2-13.6
	c-0.8-0.8-0.6,3.1-3.1,5.3c-0.3-2.5-1.3-4.8-2.8-6.8c-1.3-2.4-3.4-6.7-3.1-10.1c0.7-10.5,7.5-18.5,9-20.3L142.3,93z"/>
<path class="st1" d="M142.3,93c1.7,1.8,6.1,9.1,6.1,13.7c0,4.5-5.8,12.4-7.4,17.9c-1.2-4.1-1-5.9-3.1-8.7c-2.2-2.9-2.2-3.4-2.8-5.4
	c-0.6-2,0.7-7.3,2.4-11.9c1.8-4.8,2.5-5.6,2.5-5.6L142.3,93z"/>
<path class="st2" d="M142.3,93c1.6,2.4,4.8,9.6,3.7,12.7c-1.1,3-3.1,3.5-5.3,8.1c-0.9-1.5,0.1-5-1.6-6.3c-0.4,1.3-0.4,2-1.5,3
	c0.2-1.8-0.7-3.6-0.9-5.9c-0.2-2.7,1.1-5.3,2-7.6c0.4-1.2,0.8-2.6,0.9-3.9L142.3,93z"/>
<path class="st3" d="M141.5,94.7c4.8,0,8.6-1.1,8.6-2.5v2.5c0,1.3-3.8,2.5-8.6,2.5c-4.8,0-8.6-1-8.6-2.4v-2.5
	C132.9,93.7,136.8,94.8,141.5,94.7z"/>
<path class="st3" d="M141.5,97.7c3.6,0,6.5-0.9,6.5-1.9v1.8c0,1-2.9,1.9-6.5,1.9s-6.6-0.8-6.6-1.8v-1.8
	C135,96.9,137.9,97.7,141.5,97.7z"/>
<path class="st4" d="M147.8,61.9c2.5,6.8,3.7,14,3.6,21.3c0,4.9,0,8.6,0,8.6c-3.2,1.1-6.5,1.9-10,2.1c-3.4-0.2-6.6-0.9-9.9-1.9
	c0,0-0.2-3.6-0.2-8.7c-0.1-7.3,1-14.5,3.5-21.3c2.1,0.4,4.3,0.7,6.4,0.7C143.5,62.6,145.7,62.4,147.8,61.9z"/>
<path class="st5" d="M141.2,52.6c1.1,0,4.1,3,6.6,9.3c-2.1,0.6-4.4,0.8-6.6,0.8c-2.1,0-4.3-0.2-6.4-0.7
	C137.3,55.8,140.1,52.6,141.2,52.6z"/>
<path class="st3" d="M141.5,91.4c5.5,0,10.1-1.3,10-2.9v2.8c0,1.6-4.5,2.9-10,2.9c-5.6,0-10.1-1.2-10.1-2.8v-2.8
	C131.4,90.2,135.9,91.4,141.5,91.4z"/>
<path class="st6" d="M133.2,93.1c0.9,0.3,1.7,0.6,2.7,0.7c0,0.1,0,0.2,0,0.3C134.9,94,134,93.7,133.2,93.1z"/>
<path class="st6" d="M135.3,96.5l0.7,0.1c0,0.1,0,0.1,0,0.2C135.8,96.8,135.6,96.7,135.3,96.5z"/>
<path class="st4" d="M131.5,92L131.5,92z"/>
<path class="st7" d="M135.9,94.2c0,0.9,0.1,1.7,0.2,2.5l-0.7-0.1c-0.2-0.1-0.3-0.3-0.4-0.7v0.4c-1.3-0.4-2.1-1-2.1-1.6v-1.9l0.4,0.2
	C134,93.7,134.9,94,135.9,94.2z"/>
<path class="st7" d="M135.3,96.5c0.2,0.1,0.4,0.2,0.7,0.3c0,0.7,0.1,1.3,0.2,1.9c-0.8-0.3-1.2-0.7-1.2-1.1v-1.8
	C135,96.2,135.1,96.4,135.3,96.5z"/>
<path class="st8" d="M135.6,87.1c0,1.3,0,2.7,0.1,3.9c-2.4-0.4-3.9-1.1-4.3-2c0-1.5-0.1-3.5-0.1-5.6c-0.1-7.3,1-14.5,3.5-21.3
	c1,0.2,2.1,0.4,3.2,0.6C136.2,70.6,135.5,78.8,135.6,87.1z"/>
<path class="st9" d="M134.8,62c2.4-6.2,5.3-9.4,6.3-9.4c0.2,0,0.3,0.1,0.6,0.1c-1.7,3.1-2.9,6.4-3.6,9.9
	C136.9,62.4,135.9,62.2,134.8,62z"/>
<path class="st7" d="M135.7,91c0,1,0.1,1.9,0.1,2.9c-0.9-0.1-1.8-0.3-2.7-0.7l-0.4-0.2c-0.4-0.2-0.9-0.6-1.2-0.9l0,0
	c-0.1-0.1-0.1-0.3-0.1-0.4v-2.8c0,0.1,0,0.2,0,0.2C131.8,89.8,133.3,90.6,135.7,91z"/>
<path class="st10" d="M96.7,49.7c0-0.1-1.1-5.6-3-5.6c-1.1,0-1.1,0.9-1.1,1.6c-0.3-0.7-2.7-1.6-5.6-1.6c-2.4,0-5.5,1.1-2.7,2.8
	c2.7,2.1,5.2,4.6,7.2,7.4c0.3,0.7,0.8,1.5,1.3,2l5.7-4.5C97.7,51.2,97,50.5,96.7,49.7z"/>
<path class="st10" d="M123.1,104.6c0.6-0.4-5.9-5.7-5.9-5.7c-0.3,1.1-0.7,2.4-0.8,3.6c-0.6-0.6-1.1-1-1.8-1.5
	c-3.7-2.7-8-3.2-9.4-1.3c-1,1.5,2.6,3.6,6.1,5.9c1.7,1.2,3.2,2.6,4.6,3.5l0,0l2.1,1.6c0,0,1.3-0.2,2.1-4
	C120.4,105.8,122.7,105,123.1,104.6z"/>
<path class="st11" d="M127.8,86.1c2.2,2.4,1.5,3.9,1.6,5.7c-0.1,1.9-0.3,3.8-0.8,5.6c-0.4,2.2-1.3,4.3-2.4,6.3
	c-0.6,1.1-1.3,2.1-2,3.1c-0.8,0.9-1.3,2.1-3.1,1.8l-10.8-11.2c-0.7-1.6,0-1.6,0.2-1.9c0.3-0.3,0.6-0.6,0.9-0.9
	c0.7-0.9,1.3-1.8,1.8-2.8l2.2-3.9c0.9-1.3,1-3,4-3.9L127.8,86.1z"/>
<path class="st10" d="M139.9,105.6c-1.2,3.7,0,4.6,0,4.6l2.6-0.3c1.6-0.2,3.6-0.6,5.6-0.8c4.1-0.4,8.4-0.6,8.2-2.4
	c-0.3-2.5-4.3-3.9-8.9-3.4c-0.8,0.1-1.6,0.2-2.2,0.4c0.4-1.1,0.8-2.4,1-3.6c0,0-8.2,1.6-8,2.2C138.5,103.1,140.2,104.8,139.9,105.6z
	"/>
<path class="st11" d="M144,85.3c1.1,0.1,2.2,0.6,3,1.5c0.6,0.7,1,1.3,1.5,2c0.9,1.3,1.8,2.7,2.7,4.1c0.8,1.5,1.6,2.8,2.2,4.3l1,2.2
	c0.2,0.8,1,1.3-0.2,2.7l-14.6,5.6c-1.8-0.2-1.6-1.1-1.9-1.8l-0.7-2.4c-0.4-1.6-0.9-3.1-1.2-4.7c-0.3-1.6-0.6-3.2-0.9-4.8
	c-0.1-0.8-0.2-1.7-0.2-2.5c0.1-1.1,0.6-2.2,1.3-3.1L144,85.3z"/>
<path class="st12" d="M152.7,80.1v-0.8c0-0.1,0-0.1,0-0.2c-0.8-13.2-5.2-24.5-21.6-24.5l0,0c-16.6,0-22,16.1-20.6,35.3l0,0
	c0,7.4,11.7,6.8,21.6,6.8c11.4,0,20.6-0.7,20.6-5.9v-5.4C152.7,83.7,152.7,81.8,152.7,80.1z"/>
<path class="st11" d="M120.2,63.7c0.1,0.6,0.1,1.1-0.1,1.7l-0.4,0.8c-0.2,0.4-0.6,0.8-0.9,1s-0.7,0.6-1,0.8
	c-0.3,0.1-0.8,0.2-1.1,0.3c-0.8,0.1-1.6,0.3-2.5,0.4l-2.5,0.2c-3.5,0.1-6.8-0.4-10.1-1.7c-3.1-1.2-6.1-3.1-8.4-5.5
	c-1.1-1.1-2.2-2.4-3.2-3.7c-0.6-0.7-1-1.3-1.2-2.1c-0.1-0.4-0.1-0.9-0.1-1.3c0-0.3,0.1-0.7,0.2-0.9l0.3-0.6c0-0.1,0.2-0.3,1.3-1.1
	l3.9-2.2c0.4-0.3,1-0.6,1.6-0.7l0.6-0.1c0.2,0,0.6,0,0.8,0c0.3,0.1,0.7,0.2,1,0.3c0.4,0.3,0.9,0.7,1.2,1.2c0.7,0.9,1.6,1.7,2.2,2.5
	c1.5,1.6,3.1,3,4.8,4.3c1.8,1.2,3.7,2.2,5.7,2.9l1.7,0.3c0.6,0.1,1.1,0.1,1.7,0.2c0.7,0,1.2,0.2,1.8,0.4c0.3,0.1,0.8,0.3,1.1,0.6
	l0.7,0.4C119.7,62.6,120,63.2,120.2,63.7L120.2,63.7z"/>
<path class="st13" d="M139.7,72.6l-4.8,3.2c-0.8,0.6-1,1.6-0.4,2.4l0,0l4.7,6.9c0.6,0.8,1.6,1,2.4,0.4l0,0l1.6-1.1l10.5,15.5
	c0.2,0.3,0.7,0.4,1,0.2l0.7-0.4c0.3-0.2,0.4-0.7,0.2-1L145,83.4l1.3-0.9c0.8-0.6,1-1.6,0.4-2.4l0,0l-4.7-6.9
	C141.5,72.3,140.4,72.1,139.7,72.6z M141,82.5c0.2,0.2,0.1,0.7-0.2,0.8c-0.2,0.1-0.6,0.1-0.8-0.1l-3.6-5.3c-0.2-0.2-0.1-0.7,0.1-0.8
	l0,0c0.2-0.2,0.7-0.1,0.8,0.1L141,82.5z M142.9,81.1c0.2,0.2,0.1,0.7-0.1,0.8l0,0c-0.2,0.2-0.7,0.1-0.8-0.1l-3.6-5.3
	c-0.2-0.2-0.1-0.7,0.1-0.8l0,0c0.2-0.2,0.6-0.1,0.8,0.1l0,0L142.9,81.1z M144.8,79.8c0.2,0.2,0.1,0.6-0.1,0.8l0,0
	c-0.2,0.2-0.7,0.1-0.8-0.1l-3.6-5.3c-0.2-0.2-0.1-0.7,0.1-0.8l0,0c0.2-0.2,0.7-0.1,0.8,0.1L144.8,79.8z"/>
<path class="st10" d="M155.7,90.4c-1.2,1.9-4.6,5.8-8.7,2.2c-4.1-3.6-1.1-3.9,0-4.6c1.1-0.7,2-1.8,2.4-3L155.7,90.4z"/>
<path class="st11" d="M142.4,59.6c0.7-0.8,1-1,1.3-1l0.8-0.2c0.4-0.1,1-0.1,1.5,0c0.4,0,0.9,0.1,1.3,0.2c0.4,0.1,0.8,0.3,1.1,0.6
	l2.1,1.2l2.1,1.3c3.1,2.1,5.6,4.8,7.5,8.1c2.1,3.8,2.8,8.3,1.9,12.6c-0.4,2.1-1.3,4.1-2.6,5.9c-0.6,0.9-1.2,1.7-2,2.4
	c-0.4,0.3-0.9,0.6-1.5,0.7c-0.3,0.1-0.7,0.1-1,0l-0.7-0.1c-0.1,0-0.4-0.1-1.5-1l-3.1-3.2c-0.9-1-1-1.3-1-1.5l-0.2-0.6
	c-0.1-0.2-0.1-0.4-0.2-0.8c0-0.3,0-0.7,0-1c0-0.6,0.4-0.9,0.6-1.3l0.3-0.6c0-0.2,0.1-0.4,0.2-0.6c0.1-0.3,0.2-0.8,0.3-1.1
	c0.4-1.7,0.4-3.5-0.1-5.2c-0.7-2.2-1.8-4.4-3.4-6.3l-1.3-1.6l-1.5-1.5c-0.6-0.6-1-1.1-1.3-1.8c-0.2-0.4-0.3-0.9-0.4-1.3l-0.1-0.8
	c0-0.6,0.1-1.1,0.3-1.7L142.4,59.6z"/>
<path class="st14" d="M132.1,75.9c-2.4-0.7-3.9-3.5-6.9-5.2c-4.3-2.2-4.9-5.8-4.8-4.3c0.1,1.6-1.6,2.1-1.6,1.9c0-0.2,0.4,0.2,0.3-2
	c-0.1-2.2-3.7-3.6-5.8-7.7c-0.8-1.5-1.3-3-1.8-4.6c-0.2,0.6-0.4,1.2-0.6,1.9c-3.7-13.7,3.5-21,4.4-21.4c-1,0.1-1.9,0.4-2.7,0.9
	c1.3-2.5,3.8-4.1,6.6-4.4c-0.8-0.6-1.7-0.7-2.7-0.6c1.6-1.8,3.8-2.8,6.2-2.8c0.9,0,1.8,0.4,2.2,1.2c-0.4-0.9-0.1-3.7,3.7-4.5
	c-2.2,4.1-1.3,3.5-1.2,3.6c0.1,0.2,3-2,5.7-2.1c-0.7,0.2-1.1,0.7-1.5,1.2c2.8-0.8,5.8-2,11.3,1.2c-1.5-0.1-2.8,0.2-4.1,0.8
	c0.8,0.2,10.2,3.1,12.4,11.8c-0.4-0.2-2.8-1.6-3.1-1.3c1.7,1.1,7.2,5.2,2.7,19.7c-0.1-0.8-0.7-2.6-1.1-2.6c0.6,1.3-1.1,5.4-6.4,8.9
	C136.2,70.4,133.1,73,132.1,75.9z"/>
<path class="st10" d="M143.9,48.4c0-7.1-5.7-12.8-12.8-12.8c-7.1,0-12.8,5.7-12.8,12.8c0,3.9,1.9,7.6,4.9,10.1
	c3.2,2.7,5.8,4.7,7.6,8c0.9-2.4,4.1-4.7,7.6-7.7C141.8,56.2,143.8,52.5,143.9,48.4z"/>
<path class="st15" d="M143.2,47.9c-0.1,6.6-5.7,11.9-12.3,11.8c-6.6-0.1-11.9-5.7-11.8-12.3c0.1-6.5,5.5-11.8,12-11.8
	C137.8,35.6,143.2,41.1,143.2,47.9L143.2,47.9z"/>
<path class="st16" d="M133.3,44.6c0.9,0.2,1.7,0.4,2.5,0.8s1.6,0.8,2.1,1.3c-0.7-0.4-1.5-0.9-2.2-1c-0.8-0.2-1.7-0.3-2.5-0.3
	L133.3,44.6z"/>
<path class="st16" d="M128.7,45.4c-0.9,0-1.7,0-2.6,0.2c-0.9,0.1-1.7,0.4-2.5,0.9c0.7-0.6,1.5-1,2.4-1.3c0.9-0.3,1.8-0.4,2.7-0.7
	V45.4z"/>
<polygon class="st17" points="129,47.1 126.4,46.7 129.1,46.5 "/>
<path class="st17" d="M133,46.5l1.7,0.1c0.6,0,1.1,0.1,1.7,0.2c-0.6,0-1.1,0-1.7,0.1l-1.7,0.2V46.5z"/>
<path class="st18" d="M128.2,48.4c-0.1,0.8,0.2,1.6,0.9,1.9c0.7,0.4,1.3,0.6,2.1,0.6c0.7,0.1,1.5-0.1,2-0.6c0.3-0.2,0.6-0.6,0.7-0.9
	c0.2-0.3,0.2-0.8,0.1-1.1c0.3,0.8,0.2,1.7-0.4,2.2c-0.7,0.6-1.5,0.9-2.4,0.8c-0.9,0-1.7-0.3-2.4-0.8
	C128.1,50.1,127.8,49.2,128.2,48.4z"/>
<path class="st17" d="M128.1,54.6c0.7,0.3,1.5,0.6,2.1,0.8c0.7,0.2,1.5,0.2,2.1,0.2c1.5-0.1,3-0.6,4.3-1.3c-1,1.3-2.6,2.1-4.3,2.1
	c-0.8,0-1.7-0.1-2.5-0.4C129.3,55.7,128.6,55.3,128.1,54.6z"/>
<path class="st19" d="M129,35.8c1.6-0.3,3.1-0.3,4.7,0c3.2,0.9,6.2,2.8,8.1,5.6c-1.2-0.4-2.6-0.4-3.7,0l-0.7,0.2l-1.8-3.1l-0.2,3.9
	c-6.9,1.9-13.9-3-15.9,1.2C121.1,39.6,124.6,36.7,129,35.8"/>
<path class="st20" d="M66.1,40.8h37.3c0.9,0,1.6,0.7,1.6,1.6l0,0c0,0.9-0.7,1.6-1.6,1.6H66.1c-0.9,0-1.6-0.7-1.6-1.6l0,0
	C64.4,41.5,65.2,40.8,66.1,40.8z"/>
<rect x="66" y="35.5" class="st21" width="37.4" height="5.3"/>
<g class="st22">
	<path class="st23" d="M104.2,28.8v1.5c-0.3,1.2-1.6,1.9-2.8,1.6c-0.8-0.2-1.5-0.8-1.6-1.6c-0.1,1-1.1,1.8-2.1,1.7
		c-1,0.1-2-0.7-2.2-1.7c-0.3,1.2-1.6,1.9-2.8,1.6c-0.8-0.2-1.5-0.8-1.6-1.6c-0.1,1-1.1,1.8-2.1,1.7c-1,0.1-2-0.7-2.2-1.7
		c-0.3,1.2-1.6,1.9-2.8,1.6c-0.8-0.2-1.5-0.8-1.6-1.6c-0.1,1-1.1,1.8-2.1,1.7c-1.1,0.1-2-0.7-2.2-1.7c-0.3,1.2-1.6,1.9-2.7,1.7
		c-0.8-0.2-1.5-0.8-1.7-1.7c-0.1,1-1.1,1.8-2.1,1.7c-1,0.1-2-0.7-2.1-1.7c-0.3,1.2-1.6,1.9-2.8,1.6c-0.8-0.2-1.5-0.8-1.6-1.6v-1.5
		H104.2z"/>
</g>
<rect x="83.5" y="23" class="st24" width="2.1" height="5.8"/>
<path class="st25" d="M85.1,12c-1.6,1.3-2.2,3.5-1.6,5.5c-1.6-1.5-1.1-2.6-1.1-2.6s-1.9,3.2-0.1,5.6c1.6,2,4.5,0.9,5.3-0.8
	c0.9-1.9-0.4-3.9-1.2-4.7C85.5,14.4,85,13.2,85.1,12z"/>
<path class="st26" d="M102,31.9c-1.1,0.1-2-0.7-2.1-1.7c-0.3,1.2-1.6,1.9-2.8,1.6c-0.8-0.2-1.5-0.8-1.6-1.6
	c-0.3,1.2-1.6,1.9-2.8,1.6c-0.8-0.2-1.3-0.8-1.6-1.6c-0.3,1.2-1.6,1.9-2.8,1.6c-0.8-0.2-1.5-0.8-1.6-1.6c-0.3,1.2-1.6,1.9-2.8,1.6
	c-0.8-0.2-1.3-0.8-1.6-1.6c-0.3,1.2-1.6,1.9-2.8,1.6c-0.8-0.2-1.5-0.8-1.6-1.6c-0.3,1.2-1.6,1.9-2.7,1.7c-0.8-0.2-1.5-0.8-1.7-1.7
	c-0.3,1.2-1.6,1.9-2.8,1.6c-0.8-0.2-1.5-0.8-1.6-1.6c-0.1,1-1.1,1.8-2.1,1.7c-0.4,0-0.8-0.1-1.1-0.2v3.9h37.4v-3.9
	C103,31.8,102.5,31.9,102,31.9z"/>
</svg>
