<svg id="Layer_1" data-name="Layer 1" xmlns="http://www.w3.org/2000/svg" viewBox="0 0 251 151"><defs><style>.cls-2{fill:#54371d}.cls-3{fill:#5e3e21}.cls-4{fill:#dcb680}.cls-5{fill:#6d3325}.cls-6{fill:#783a28}.cls-7{fill:#8f4729}.cls-8{fill:#e84c59}.cls-9{fill:#ee7b5c}.cls-10{fill:#f9c862}.cls-11{fill:#062633}.cls-12{fill:#abaaaa}.cls-13{fill:#e1dfe0}.cls-14{fill:none}.cls-15{fill:#041d26}.cls-16{fill:#6e6e6e}.cls-17{fill:silver}.cls-18{opacity:.2}</style></defs><path d="M42.59 121.92l.87-4.76.16 4.76 4.3.62-4.35.51-.88 5.02-.2-5.02-4.25-.51 4.35-.62zm168.17-27.94l.79-4.32.14 4.32 3.91.56-3.95.46-.79 4.56-.19-4.56-3.86-.46 3.95-.56zm-80.51-70.77l-1.39 5.66.16-5.74-5.13-1.05 5.27-.3 1.42-5.97-.12 6.05 5.07.92-5.28.43zm-68.5 32.14l-.51 2.72-.09-2.72L58.6 55l2.58-.29.51-2.87.12 2.87 2.52.29-2.58.35zm112.32 62.39l.79-4.32.14 4.32 3.91.56-3.95.47-.8 4.55-.18-4.55-3.86-.47 3.95-.56z" fill="#e1f1f9"/><path class="cls-2" d="M148.13 60.69c-1.91 2.34-4.27 3.32-5.44 2.37s-.67-3.46 1.23-5.8 4.4-3.46 5.56-2.52.52 3.61-1.35 5.95z"/><ellipse class="cls-3" cx="153.08" cy="64.73" rx="5.46" ry="2.71" transform="rotate(-50.8 153.085 64.728)"/><path class="cls-4" d="M166.5 51c1.38-.15 2.72-1.67 4.65-2.31 2.66-.88 3.71-3 3.36-2s.41 1.53.45 1.4-.31.1.21-1.31 2.6-1.78 4.51-4.1a16.78 16.78 0 0 0 1.78-2.68 5.22 5.22 0 0 1-.09 1.24c4.53-8.07 2.15-13.58 1.74-14a3.36 3.36 0 0 1 1.26.94c-.49-2.87-2.39-3.5-2.68-3.6a1.87 1.87 0 0 1 1.52 0 3.71 3.71 0 0 0-2.72-2.58 1.55 1.55 0 0 0-1.42.45 2.33 2.33 0 0 0-1.07-3.3c.42 2.91.07 2.32 0 2.4s-1.21-1.64-2.63-2.05a1.42 1.42 0 0 1 .54 1c-1.31-.88-2.7-2.05-6.21-.72a4.12 4.12 0 0 1 2 1 11.65 11.65 0 0 0-8.76 5.73c.28-.08 1.74-.61 1.88-.42-1.1.5-4.74 2.32-5.15 12.05.18-.48.83-1.52 1.08-1.45-.57.8-.43 3.52 1.71 6.4C165.35 47 166.52 49 166.5 51z"/><path class="cls-5" d="M156 51.19a3.08 3.08 0 0 1 .26 2c-.17.5-.39 1-.57 1.46-.41 1-.82 1.9-1.29 2.8s-1 1.8-1.5 2.66l-.79 1.3a5.75 5.75 0 0 1-.42.63 1.18 1.18 0 0 1-1 .22L143 56.89a1.2 1.2 0 0 1-.13-1 4.64 4.64 0 0 1 .46-.61l1-1.18c.64-.79 1.31-1.56 2-2.3s1.45-1.45 2.21-2.15c.4-.34.77-.7 1.19-1a3 3 0 0 1 2-.44z"/><path class="cls-6" d="M162.19 56.24a3 3 0 0 1 .26 2c-.17.5-.38 1-.57 1.46-.41.95-.82 1.9-1.29 2.8s-1 1.8-1.5 2.66l-.79 1.3a3.84 3.84 0 0 1-.42.63 1.18 1.18 0 0 1-1 .22l-7.65-5.41a1.18 1.18 0 0 1-.13-1 4.27 4.27 0 0 1 .45-.6l1-1.18c.64-.79 1.31-1.56 2-2.3s1.45-1.45 2.21-2.15c.4-.34.77-.7 1.19-1a3 3 0 0 1 2-.44z"/><path class="cls-7" d="M169.41 58.35l.28-.38a.42.42 0 0 0 .06-.14c4.48-7 6.4-14.4-2-20.47-8.48-6.14-17.12.1-23.53 10.39-2.7 3.75 3.41 7.78 8.47 11.45 5.87 4.26 10.82 7.34 12.73 4.65l2-2.73c.71-.94 1.38-1.86 1.99-2.77z"/><path class="cls-3" d="M184.45 47.57c.67-1.27 2.54-3.92 5.34-1.92 3.74 2.66-6.15 8.9-1 5z"/><path class="cls-6" d="M168.45 46.79a1.79 1.79 0 0 1 1 .41l.4.4a5 5 0 0 1 .55.77 5.36 5.36 0 0 1 .62 1.44 6.56 6.56 0 0 0 1.18 2.29 1.89 1.89 0 0 0 1.34.77 2.36 2.36 0 0 0 .7 0 7.88 7.88 0 0 0 .92-.21 11 11 0 0 0 2.2-1c.76-.45 1.53-1 2.29-1.54a27.81 27.81 0 0 0 2.23-1.86 5.55 5.55 0 0 1 1.14-.94 6.15 6.15 0 0 1 .77-.32 1.52 1.52 0 0 1 .55 0h.37c.1 0 .27 0 1 .49l2.23 1.69c.61.56.69.72.7.83l.11.39a1.54 1.54 0 0 1 0 .64 5.51 5.51 0 0 1-.34 1 6.29 6.29 0 0 1-1.23 1.57 23.56 23.56 0 0 1-3 2.62 17.6 17.6 0 0 1-3.57 2.06 14.75 14.75 0 0 1-4.32 1.18 10.58 10.58 0 0 1-2.51 0 8.85 8.85 0 0 1-2.63-.8 7.18 7.18 0 0 1-2.26-1.67 7 7 0 0 1-.8-1l-.34-.54c-.1-.18-.18-.36-.27-.54a12.49 12.49 0 0 1-1-4.2 5.46 5.46 0 0 1 0-1 6.61 6.61 0 0 1 .22-1 2.66 2.66 0 0 1 .45-.95c.11-.16.25-.31.37-.47s.32-.3 1-.45z"/><path class="cls-7" d="M179 38.56A11.45 11.45 0 1 1 174.73 23 11.44 11.44 0 0 1 179 38.56z"/><path class="cls-8" d="M145.71 57.06c.31 3.45.52 10.06-1.35 13.48-2.89 5.29-10.89 8.83-14.49 9.92 2.75-3.12 4-5.72 3.62-7.71-.14-.63-1.4 1.43-3.43 1.68a9.94 9.94 0 0 0 .89-4.5c.07-1.66.6-4.65 1.83-6.29 3.94-5.27 10.23-7 11.57-7.49z"/><path class="cls-9" d="M145.71 57.06c.26 1.49 0 6.8-1.55 9.14s-7.27 4.48-10 6.76c.77-2.56 1.5-3.41 1.34-5.64a6.91 6.91 0 0 1 .4-3.75c.42-1.21 2.83-3.58 5.26-5.37a16 16 0 0 1 3.17-2.05z"/><path class="cls-10" d="M145.71 57.06c0 1.77-.79 6.64-2.41 7.83s-2.83.72-5.55 2.38c.05-1.07 1.77-2.6 1.36-3.77-.66.5-.92.93-1.78 1.1.78-.87.85-2.12 1.55-3.39.8-1.48 2.37-2.33 3.62-3.28a10 10 0 0 0 1.85-1.78z"/><path class="cls-11" d="M144.71 57.72c2.49 1.62 4.88 2.36 5.34 1.66l-.83 1.27c-.45.7-2.84 0-5.33-1.66s-4.14-3.5-3.69-4.2l.83-1.27c-.46.7 1.19 2.58 3.68 4.2z"/><path class="cls-11" d="M143.72 59.25c1.87 1.22 3.67 1.78 4 1.25l-.63 1c-.34.53-2.14 0-4-1.25S140 57.57 140.32 57l.62-.95c-.34.56.9 1.95 2.78 3.2z"/><path class="cls-12" d="M159.24 42.79a37.52 37.52 0 0 1-5.43 12.28l-2.92 4.49a24.59 24.59 0 0 1-5.89-2.29 26 26 0 0 1-4.49-4.38s1.14-1.94 2.87-4.59a36.92 36.92 0 0 1 9.1-9.87 16.7 16.7 0 0 0 3.07 2.57 16.5 16.5 0 0 0 3.69 1.79z"/><path class="cls-13" d="M159 35.68c.59.38 1.14 3 .25 7.11a16.5 16.5 0 0 1-3.7-1.79 16.7 16.7 0 0 1-3.07-2.55c3.35-2.45 5.95-3.14 6.52-2.77z"/><path class="cls-11" d="M145.83 56c2.89 1.88 5.67 2.74 6.2 1.93l-1 1.47c-.53.82-3.3 0-6.19-1.92s-4.81-4.06-4.28-4.88l1-1.47c-.56.8 1.38 2.98 4.27 4.87z"/><path class="cls-14" d="M141 54a9.08 9.08 0 0 0 1.11 1.25l-.12.21A4.06 4.06 0 0 1 141 54zm-.08 2.53l.28.31-.06.12a2 2 0 0 1-.22-.43z"/><path class="cls-15" d="M142 55.49c-.26.45-.51.9-.76 1.35l-.28-.31a.52.52 0 0 1 0-.46l-.17.26c-.54-.67-.77-1.24-.57-1.56l.64-1 .14.23a4.06 4.06 0 0 0 1 1.49z"/><path class="cls-15" d="M140.92 56.53a2 2 0 0 0 .22.43l-.56 1c-.3-.42-.41-.77-.28-1l.45-.7.17-.26a.52.52 0 0 0 0 .53z"/><path class="cls-16" d="M144.27 51.72c-.45.68-.87 1.36-1.29 2-1.06-1-1.65-2-1.51-2.5.49-.79 1.13-1.81 1.89-3a36.85 36.85 0 0 1 9.1-9.86 15.31 15.31 0 0 0 1.48 1.38 66 66 0 0 0-9.67 11.98z"/><path class="cls-17" d="M152.46 38.42c3.35-2.42 5.95-3.12 6.51-2.76a.79.79 0 0 1 .22.25 23.21 23.21 0 0 0-5.25 3.89 15.31 15.31 0 0 1-1.48-1.38z"/><path class="cls-15" d="M143 53.76c-.31.51-.61 1-.9 1.52A9.08 9.08 0 0 1 141 54l-.15-.24a1.69 1.69 0 0 1-.32-.91.61.61 0 0 1 .08-.28l1-1.48a.77.77 0 0 0-.07.16c-.21.54.38 1.47 1.46 2.51z"/><path class="cls-8" d="M154.87 62.53c.58 3.41 1.31 10-.28 13.54-2.47 5.5-10.17 9.66-13.67 11 2.49-3.33 3.58-6 3-8-.18-.62-1.28 1.54-3.28 1.94a10 10 0 0 0 .53-4.55c-.06-1.67.23-4.68 1.33-6.42 3.51-5.56 9.65-7.78 10.94-8.38z"/><path class="cls-9" d="M154.87 62.53c.38 1.46.55 6.77-.83 9.22s-6.89 5-9.42 7.53c.57-2.61 1.23-3.51.9-5.72a7 7 0 0 1 .1-3.78c.33-1.24 2.54-3.79 4.82-5.76a15.89 15.89 0 0 1 3-2.3z"/><path class="cls-10" d="M154.87 62.53c.14 1.76-.26 6.67-1.79 8s-2.76.94-5.34 2.81c0-1.07 1.56-2.73 1.06-3.87-.62.56-.84 1-1.69 1.24.71-.92.68-2.18 1.27-3.5.69-1.54 2.19-2.51 3.36-3.56a10.13 10.13 0 0 0 1.7-1.92z"/><path class="cls-11" d="M153.93 63.26c2.61 1.42 5 2 5.45 1.23l-.73 1.34c-.4.73-2.84.18-5.45-1.24s-4.4-3.16-4-3.9l.72-1.33c-.4.74 1.4 2.48 4.01 3.9z"/><path class="cls-11" d="M153.06 64.86c2 1.07 3.8 1.49 4.1.93l-.54 1c-.31.55-2.14.14-4.11-.93s-3.31-2.38-3-2.94l.54-1c-.31.56 1.04 1.88 3.01 2.94z"/><path class="cls-12" d="M167.23 47.23a37.31 37.31 0 0 1-4.45 12.68l-2.55 4.7a24.87 24.87 0 0 1-6-1.82 25.61 25.61 0 0 1-4.82-4s1-2 2.5-4.81a36.85 36.85 0 0 1 8.29-10.55 17.05 17.05 0 0 0 7.08 3.81z"/><path class="cls-13" d="M166.43 40.17c.62.33 1.37 2.87.8 7.06a17.05 17.05 0 0 1-7.08-3.81c3.15-2.67 5.69-3.58 6.28-3.25z"/><path class="cls-11" d="M154.91 61.45c3 1.65 5.86 2.29 6.32 1.43l-.84 1.55c-.46.85-3.29.21-6.32-1.43s-5.11-3.67-4.65-4.53l.84-1.54c-.46.85 1.62 2.88 4.65 4.52z"/><path class="cls-14" d="M149.91 59.87a8.41 8.41 0 0 0 1.2 1.17c0 .07-.07.14-.1.22a4 4 0 0 1-1.1-1.39zm.14 2.5l.31.29a.61.61 0 0 0-.05.12 1.62 1.62 0 0 1-.26-.41z"/><path class="cls-15" d="M151 61.26c-.22.47-.44.93-.65 1.4l-.31-.29a.51.51 0 0 1 0-.46l-.15.28c-.6-.63-.87-1.18-.69-1.51l.56-1a1.63 1.63 0 0 0 .17.22 4 4 0 0 0 1.07 1.36z"/><path class="cls-15" d="M150.05 62.37a1.62 1.62 0 0 0 .26.41c-.17.36-.33.73-.48 1.09-.33-.4-.47-.73-.36-.95l.4-.73.15-.28a.51.51 0 0 0 .03.46z"/><path class="cls-16" d="M153 57.31c-.39.71-.76 1.43-1.12 2.13-1.14-.94-1.8-1.82-1.7-2.37.42-.82 1-1.89 1.64-3.11a36.89 36.89 0 0 1 8.3-10.55 15.21 15.21 0 0 0 1.59 1.26A66.05 66.05 0 0 0 153 57.31z"/><path class="cls-17" d="M160.13 43.41c3.15-2.68 5.69-3.58 6.28-3.26a.83.83 0 0 1 .23.23 22.69 22.69 0 0 0-4.92 4.29 15.21 15.21 0 0 1-1.59-1.26z"/><path class="cls-15" d="M151.89 59.44c-.27.54-.53 1.07-.78 1.6a8.41 8.41 0 0 1-1.2-1.17 1.63 1.63 0 0 1-.17-.22 1.77 1.77 0 0 1-.4-.88.65.65 0 0 1 .06-.29l.84-1.55a1 1 0 0 0-.05.16c-.1.53.56 1.41 1.7 2.35z"/><g class="cls-18"><path class="cls-2" d="M92.55 67c-1.53 1.54-3.43 2.19-4.37 1.56s-.54-2.28 1-3.82S92.7 62.4 93.64 63s.45 2.41-1.09 4z"/><ellipse class="cls-3" cx="96.53" cy="69.61" rx="3.96" ry="1.98" transform="rotate(-41.34 96.523 69.6)"/><path class="cls-4" d="M107.32 60.54c1.11-.1 2.19-1.11 3.74-1.53 2.14-.58 3-1.95 2.71-1.33s.32 1 .35.92-.24.07.17-.86 2.1-1.17 3.63-2.7a11.14 11.14 0 0 0 1.43-1.73 2.88 2.88 0 0 1-.07.82c3.64-5.32 1.73-9 1.4-9.23a2.71 2.71 0 0 1 1 .62 3 3 0 0 0-2.15-2.37 1.82 1.82 0 0 1 1.22 0 2.84 2.84 0 0 0-2.19-1.68 1.38 1.38 0 0 0-1.14.3c.34-.34.59-1.52-.88-2.18.34 1.92.06 1.53 0 1.58a6 6 0 0 0-2.11-1.35 1 1 0 0 1 .44.63c-1.06-.58-2.18-1.35-5-.47a3.55 3.55 0 0 1 1.63.66c-.35 0-4.81.4-7 3.77.22 0 1.4-.4 1.51-.27-.88.33-3.81 1.52-4.14 7.94.15-.32.66-1 .86-1-.45.52-.34 2.32 1.38 4.21 2.29 2.63 3.23 3.98 3.21 5.25z"/><path class="cls-5" d="M99.14 61.4a2.61 2.61 0 0 1 .35 1.72c-.12.37-.28.71-.42 1.07a19.5 19.5 0 0 1-1 2A20.47 20.47 0 0 1 96.92 68l-.63.88a2.27 2.27 0 0 1-.33.42c-.17.1-.41.13-.88 0L88 63.16c-.24-.44-.25-.68-.18-.86a2.28 2.28 0 0 1 .37-.39l.78-.75a20.1 20.1 0 0 1 3.49-2.7c.33-.18.64-.39 1-.57a2.62 2.62 0 0 1 1.75.09z"/><path class="cls-6" d="M104.12 64.73a2.61 2.61 0 0 1 .35 1.72c-.12.37-.28.71-.42 1.06-.31.69-.62 1.37-1 2s-.76 1.25-1.17 1.84l-.63.88a2.31 2.31 0 0 1-.34.42c-.16.1-.4.13-.88 0L93 66.49c-.24-.44-.24-.68-.17-.86a2.79 2.79 0 0 1 .37-.4l.78-.75a20.52 20.52 0 0 1 1.65-1.42 19.82 19.82 0 0 1 1.83-1.27c.34-.19.65-.39 1-.57a2.65 2.65 0 0 1 1.76.09z"/><path class="cls-7" d="M109.66 65.41l.23-.26a.26.26 0 0 0 0-.09c3.6-4.59 5.15-9.48-1.6-13.49-6.82-4-13.77.07-18.92 6.85-2.17 2.47 2.74 5.13 6.81 7.55 4.72 2.81 8.7 4.83 10.23 3.06l1.59-1.8c.64-.62 1.17-1.23 1.66-1.82z"/><path class="cls-3" d="M121.76 58.3c.54-.83 2-2.58 4.29-1.27 3 1.76-4.94 5.87-.83 3.27z"/><path class="cls-6" d="M108.9 57.79a2.14 2.14 0 0 1 1 .29l.39.27a3.37 3.37 0 0 1 .54.5c.15.16.27.32.38.46a3 3 0 0 1 .23.42 1.9 1.9 0 0 0 .91 1 1.3 1.3 0 0 0 .83 0 7 7 0 0 0 1.26-.33 19 19 0 0 0 3.3-1.71c.56-.35 1.14-.72 1.68-1.13a2.61 2.61 0 0 1 .89-.52 3 3 0 0 1 .64-.08 1.46 1.46 0 0 1 .47.1l.32.12c.09 0 .24.1.88.63l2 1.9c.57.6.64.76.66.85l.1.36a1.18 1.18 0 0 1 0 .55 3.44 3.44 0 0 1-.28.8 3.8 3.8 0 0 1-1 1.14 17.47 17.47 0 0 1-2.47 1.79 14.43 14.43 0 0 1-6.11 2 9.82 9.82 0 0 1-3.8-.4 6.9 6.9 0 0 1-3.48-2.49 7.6 7.6 0 0 1-1.35-3.48 3 3 0 0 1 .17-1.63 2 2 0 0 1 .44-.76c.11-.13.25-.25.37-.37a1.78 1.78 0 0 1 1-.34z"/><path class="cls-7" d="M117.38 52.36c-2.52 3.62-8.14 4.88-12.55 2.82s-6-6.67-3.44-10.29 8.14-4.88 12.55-2.82 5.96 6.67 3.44 10.29z"/><path class="cls-8" d="M90.61 64.56c.24 2.27.42 6.63-1.08 8.88-2.33 3.49-8.77 5.82-11.66 6.56 2.21-2.06 3.25-3.77 2.91-5.08-.11-.42-1.12.94-2.75 1.1a5.56 5.56 0 0 0 .71-3 7.49 7.49 0 0 1 1.47-4.15c3.17-3.47 8.23-4.61 9.3-4.93z"/><path class="cls-9" d="M90.61 64.56c.21 1 0 4.48-1.25 6s-5.85 3-8 4.45c.62-1.68 1.21-2.24 1.09-3.71a3.74 3.74 0 0 1 .31-2.47c.34-.8 2.28-2.36 4.24-3.54A12.74 12.74 0 0 1 89.51 64z"/><path class="cls-10" d="M90.61 64.56c0 1.16-.64 4.37-1.94 5.16s-2.28.47-4.46 1.56c0-.7 1.42-1.71 1.09-2.48a3.25 3.25 0 0 1-1.43.73c.63-.57.69-1.4 1.24-2.24A9.11 9.11 0 0 1 88 65.13 7.4 7.4 0 0 0 89.51 64z"/><path class="cls-11" d="M89.81 65c2 1.07 3.92 1.56 4.29 1.09l-.67.84c-.37.46-2.29 0-4.29-1.09s-3.33-2.31-3-2.77l.66-.84c-.32.45 1 1.69 3.01 2.77z"/><path class="cls-11" d="M89 66c1.5.8 2.95 1.17 3.23.82l-.5.63c-.28.35-1.73 0-3.23-.82s-2.5-1.74-2.22-2.09l.5-.63c-.28.35.72 1.29 2.22 2.09z"/><path class="cls-12" d="M101.49 55.15a22.74 22.74 0 0 1-4.37 8.1l-2.35 3A23.08 23.08 0 0 1 90 64.7a19.62 19.62 0 0 1-3.61-2.89s.92-1.28 2.3-3a27.17 27.17 0 0 1 7.32-6.5A13.28 13.28 0 0 0 98.52 54a15.21 15.21 0 0 0 2.97 1.15z"/><path class="cls-13" d="M101.29 50.47c.47.25.91 2 .2 4.68a15.21 15.21 0 0 1-3-1.19 13.28 13.28 0 0 1-2.47-1.68c2.72-1.59 4.81-2.06 5.27-1.81z"/><path class="cls-11" d="M90.71 63.85c2.32 1.24 4.55 1.81 5 1.27l-.77 1c-.43.54-2.66 0-5-1.26s-3.87-2.68-3.44-3.22l.77-1c-.43.54 1.11 1.97 3.44 3.21z"/><path class="cls-14" d="M86.8 62.56a6.18 6.18 0 0 0 .89.83l-.1.13a2.74 2.74 0 0 1-.79-.96zm-.05 1.64l.23.21v.08a1.65 1.65 0 0 1-.23-.29z"/><path class="cls-15" d="M87.59 63.52l-.61.89-.23-.21a.29.29 0 0 1 0-.3l-.14.17c-.44-.44-.62-.81-.46-1l.51-.65.13.16a2.74 2.74 0 0 0 .8.94z"/><path class="cls-15" d="M86.75 64.2a1.65 1.65 0 0 0 .18.29l-.45.69c-.24-.28-.33-.51-.22-.65l.36-.46.14-.17a.29.29 0 0 0-.01.3z"/><path class="cls-16" d="M89.45 61c-.36.45-.7.9-1 1.35-.86-.68-1.33-1.3-1.22-1.65.39-.52.91-1.19 1.52-2A27 27 0 0 1 96 52.27a12.5 12.5 0 0 0 1.2.91A46.63 46.63 0 0 0 89.45 61z"/><path class="cls-17" d="M96 52.27c2.7-1.6 4.79-2.06 5.24-1.82a.7.7 0 0 1 .18.17 18.62 18.62 0 0 0-4.22 2.56 12.5 12.5 0 0 1-1.2-.91z"/><path class="cls-15" d="M88.42 62.38c-.26.34-.5.67-.73 1a6.18 6.18 0 0 1-.89-.83l-.13-.16a1 1 0 0 1-.25-.6.31.31 0 0 1 .06-.19l.77-1a.31.31 0 0 0 0 .1c-.16.38.31 1 1.17 1.68z"/><path class="cls-8" d="M98 68.16c.47 2.25 1.06 6.58-.22 8.92-2 3.63-8.18 6.37-11 7.28 2-2.2 2.87-4 2.41-5.26-.15-.41-1 1-2.64 1.28a5.44 5.44 0 0 0 .43-3A7.27 7.27 0 0 1 88 73.15c2.82-3.67 7.75-5.13 8.79-5.52z"/><path class="cls-9" d="M98 68.16c.31 1 .45 4.47-.66 6.08s-5.55 3.33-7.58 5c.46-1.72 1-2.31.73-3.77a3.68 3.68 0 0 1 .08-2.49c.26-.82 2-2.5 3.87-3.8a13 13 0 0 1 2.41-1.51z"/><path class="cls-10" d="M98 68.16c.11 1.16-.21 4.4-1.44 5.27s-2.22.62-4.29 1.85c0-.7 1.25-1.8.85-2.55a3.13 3.13 0 0 1-1.36.82c.57-.61.55-1.44 1-2.31a8.77 8.77 0 0 1 2.69-2.35 7.07 7.07 0 0 0 1.37-1.26z"/><path class="cls-11" d="M97.21 68.64c2.1.94 4.07 1.3 4.39.82l-.58.87c-.33.49-2.29.12-4.39-.81s-3.54-2.08-3.22-2.52l.59-.88c-.33.44 1.12 1.59 3.21 2.52z"/><path class="cls-11" d="M96.51 69.7c1.58.7 3.06 1 3.3.61l-.43.66c-.25.37-1.72.09-3.3-.61s-2.67-1.57-2.43-1.93l.44-.67c-.24.37.84 1.24 2.42 1.94z"/><path class="cls-12" d="M107.91 58.08a21.74 21.74 0 0 1-3.57 8.35l-2.06 3.1a23.07 23.07 0 0 1-4.86-1.2 20 20 0 0 1-3.88-2.64s.79-1.34 2-3.17a25.81 25.81 0 0 1 6.67-7 13.6 13.6 0 0 0 2.62 1.51 15.41 15.41 0 0 0 3.08 1.05z"/><path class="cls-13" d="M107.27 53.42c.49.22 1.1 1.89.64 4.66a15.41 15.41 0 0 1-3.07-1 13.6 13.6 0 0 1-2.62-1.51c2.53-1.77 4.57-2.36 5.05-2.15z"/><path class="cls-11" d="M98 67.45c2.44 1.08 4.72 1.51 5.09.94l-.68 1c-.37.57-2.65.14-5.08-.94s-4.11-2.42-3.74-3l.68-1c-.37.55 1.3 1.92 3.73 3z"/><path class="cls-14" d="M94 66.41a6.69 6.69 0 0 0 1 .77 1 1 0 0 0-.08.14 2.83 2.83 0 0 1-.92-.91zm.1 1.65l.25.18v.09a1.32 1.32 0 0 1-.25-.27z"/><path class="cls-15" d="M94.87 67.32c-.18.31-.36.62-.52.92l-.25-.18a.3.3 0 0 1 0-.31l-.12.19c-.48-.42-.7-.78-.55-1l.44-.68.14.15a2.83 2.83 0 0 0 .86.91z"/><path class="cls-15" d="M94.1 68.06a1.32 1.32 0 0 0 .2.27c-.13.24-.26.47-.38.71-.27-.26-.38-.48-.29-.62l.32-.48.12-.19a.3.3 0 0 0 .03.31z"/><path class="cls-16" d="M96.48 64.72q-.47.7-.9 1.41c-.92-.63-1.45-1.21-1.37-1.57.34-.54.79-1.24 1.32-2.05a25.81 25.81 0 0 1 6.67-6.95 13.52 13.52 0 0 0 1.28.83 44.32 44.32 0 0 0-7 8.33z"/><path class="cls-17" d="M102.2 55.56c2.53-1.77 4.57-2.36 5-2.15a.62.62 0 0 1 .19.15 18.05 18.05 0 0 0-4 2.83 13.52 13.52 0 0 1-1.19-.83z"/><path class="cls-15" d="M95.58 66.13q-.33.53-.63 1.05a6.69 6.69 0 0 1-1-.77l-.14-.15a1.1 1.1 0 0 1-.31-.58.3.3 0 0 1 0-.19l.67-1a.42.42 0 0 0 0 .1c-.04.33.49.91 1.41 1.54z"/></g><g class="cls-18"><path class="cls-2" d="M137 119.59c-1.53 1.54-3.44 2.19-4.37 1.56s-.54-2.28 1-3.82 3.53-2.28 4.47-1.66.45 2.38-1.1 3.92z"/><ellipse class="cls-3" cx="141" cy="122.25" rx="3.96" ry="1.98" transform="rotate(-41.34 140.99 122.242)"/><path class="cls-4" d="M151.79 113.18c1.11-.1 2.19-1.1 3.74-1.52 2.14-.58 3-2 2.7-1.33s.33 1 .36.91-.25.08.17-.86 2.1-1.17 3.63-2.7a10.69 10.69 0 0 0 1.43-1.73 3 3 0 0 1-.07.83c3.64-5.33 1.72-9 1.4-9.23a2.45 2.45 0 0 1 1 .62 3 3 0 0 0-2.15-2.38 1.85 1.85 0 0 1 1.23 0A2.83 2.83 0 0 0 163 94.1a1.42 1.42 0 0 0-1.15.3c.35-.34.6-1.53-.87-2.19.34 1.92.06 1.53 0 1.59a5.85 5.85 0 0 0-2.12-1.35.9.9 0 0 1 .44.62c-1.05-.57-2.17-1.35-5-.47a3.55 3.55 0 0 1 1.63.66c-.35 0-4.81.41-7 3.78.22-.06 1.4-.4 1.5-.28-.87.33-3.8 1.53-4.14 7.94.15-.31.67-1 .87-1-.45.52-.34 2.32 1.38 4.22 2.33 2.64 3.27 3.99 3.25 5.26z"/><path class="cls-5" d="M143.61 114a2.64 2.64 0 0 1 .35 1.73c-.12.37-.28.71-.42 1.06-.31.69-.62 1.37-1 2s-.76 1.25-1.17 1.84l-.63.88a2.38 2.38 0 0 1-.34.43c-.16.09-.4.12-.88 0l-7.1-6.12c-.24-.45-.24-.69-.17-.87a2.28 2.28 0 0 1 .37-.39l.78-.75a20.63 20.63 0 0 1 1.65-1.43 21.89 21.89 0 0 1 1.83-1.26c.33-.19.64-.4 1-.57a2.52 2.52 0 0 1 1.76.09z"/><path class="cls-6" d="M148.59 117.37a2.63 2.63 0 0 1 .35 1.73c-.13.37-.29.7-.42 1.06a20.66 20.66 0 0 1-1 2 18.47 18.47 0 0 1-1.17 1.84l-.62.88a2.79 2.79 0 0 1-.34.43c-.16.09-.4.12-.88 0l-7.1-6.13c-.24-.44-.24-.68-.17-.86a2.28 2.28 0 0 1 .37-.39l.78-.75a20.48 20.48 0 0 1 1.61-1.48 21.33 21.33 0 0 1 1.84-1.26c.33-.19.64-.4 1-.58a2.6 2.6 0 0 1 1.76.1z"/><path class="cls-7" d="M154.13 118.05l.22-.25a.33.33 0 0 0 .06-.1c3.6-4.59 5.14-9.48-1.61-13.49-6.81-4-13.77.07-18.92 6.85-2.17 2.48 2.74 5.13 6.81 7.55 4.73 2.81 8.7 4.83 10.24 3.07l1.59-1.81c.58-.61 1.12-1.22 1.61-1.82z"/><path class="cls-3" d="M166.23 110.94c.54-.83 2-2.58 4.29-1.26 3 1.75-4.94 5.86-.83 3.26z"/><path class="cls-6" d="M153.36 110.43a2.17 2.17 0 0 1 1 .29l.4.27a3.38 3.38 0 0 1 .54.51c.14.16.26.32.38.45a2.6 2.6 0 0 1 .23.43 1.93 1.93 0 0 0 .9 1 1.38 1.38 0 0 0 .83 0 6.18 6.18 0 0 0 1.26-.34 18 18 0 0 0 3.3-1.71c.57-.35 1.15-.72 1.69-1.12a2.48 2.48 0 0 1 .89-.53 3.86 3.86 0 0 1 .63-.08 1.46 1.46 0 0 1 .47.1l.33.13c.09 0 .24.1.88.62l2 1.9c.57.6.64.76.66.86l.1.35a1.37 1.37 0 0 1 0 .56 4.23 4.23 0 0 1-.29.8 4 4 0 0 1-1 1.14 19.32 19.32 0 0 1-2.48 1.79 14.34 14.34 0 0 1-6.1 2 9.8 9.8 0 0 1-3.8-.4 6.87 6.87 0 0 1-3.49-2.49 7.65 7.65 0 0 1-1.34-3.48 2.85 2.85 0 0 1 .17-1.63 2 2 0 0 1 .44-.76c.11-.12.25-.24.37-.36s.32-.24 1-.35z"/><path class="cls-7" d="M161.85 105c-2.52 3.62-8.14 4.88-12.55 2.82s-6-6.67-3.44-10.29 8.13-4.88 12.55-2.81 5.95 6.66 3.44 10.28z"/><path class="cls-8" d="M135.08 117.2c.24 2.27.41 6.63-1.09 8.88-2.32 3.49-8.76 5.82-11.65 6.54 2.21-2.06 3.25-3.77 2.91-5.08-.11-.42-1.13 1-2.76 1.1a5.47 5.47 0 0 0 .72-3 7.49 7.49 0 0 1 1.47-4.15c3.17-3.47 8.23-4.61 9.3-4.93z"/><path class="cls-9" d="M135.08 117.2c.21 1 0 4.48-1.25 6s-5.85 3-8 4.46c.62-1.69 1.21-2.25 1.08-3.72a3.79 3.79 0 0 1 .32-2.47c.34-.8 2.28-2.36 4.23-3.54a13.84 13.84 0 0 1 2.54-1.33z"/><path class="cls-10" d="M135.08 117.2c0 1.17-.64 4.37-2 5.16s-2.27.48-4.45 1.57c0-.7 1.42-1.71 1.09-2.49a3.2 3.2 0 0 1-1.43.73c.62-.57.68-1.4 1.24-2.23a9.06 9.06 0 0 1 2.91-2.17 7.32 7.32 0 0 0 1.56-1.17z"/><path class="cls-11" d="M134.27 117.63c2 1.07 3.93 1.56 4.29 1.1l-.66.84c-.37.46-2.29 0-4.29-1.1s-3.33-2.31-3-2.77l.66-.84c-.33.47 1 1.71 3 2.77z"/><path class="cls-11" d="M133.47 118.64c1.51.81 3 1.17 3.23.83l-.5.63c-.27.35-1.72 0-3.23-.83s-2.5-1.73-2.23-2.08l.5-.63c-.24.35.76 1.28 2.23 2.08z"/><path class="cls-12" d="M146 107.79a22.58 22.58 0 0 1-4.37 8.1l-2.34 3a23.08 23.08 0 0 1-4.73-1.51 19.19 19.19 0 0 1-3.61-2.89s.91-1.28 2.3-3a27.19 27.19 0 0 1 7.32-6.5 13 13 0 0 0 2.43 1.61 13.78 13.78 0 0 0 3 1.19z"/><path class="cls-13" d="M145.76 103.11c.47.25.91 2 .19 4.68a13.78 13.78 0 0 1-3-1.19 13 13 0 0 1-2.47-1.68c2.73-1.59 4.82-2.05 5.28-1.81z"/><path class="cls-11" d="M135.17 116.5c2.33 1.23 4.56 1.8 5 1.26l-.77 1c-.42.53-2.65 0-5-1.27s-3.86-2.68-3.43-3.21l.77-1c-.43.54 1.11 1.98 3.43 3.22z"/><path class="cls-14" d="M131.26 115.2a6.28 6.28 0 0 0 .9.83 1.13 1.13 0 0 0-.1.13 2.6 2.6 0 0 1-.8-.96zm-.04 1.65l.23.2v.08a1.61 1.61 0 0 1-.23-.28z"/><path class="cls-15" d="M132.06 116.16l-.61.89-.23-.2a.28.28 0 0 1 0-.3l-.14.17c-.44-.45-.63-.82-.46-1l.51-.65.12.16a2.6 2.6 0 0 0 .81.93z"/><path class="cls-15" d="M131.22 116.85a1.61 1.61 0 0 0 .18.28l-.45.69c-.24-.28-.33-.51-.22-.64l.36-.46.14-.17a.28.28 0 0 0-.01.3z"/><path class="cls-16" d="M133.91 113.68c-.35.45-.7.9-1 1.34-.85-.68-1.32-1.29-1.21-1.65l1.51-2a27.34 27.34 0 0 1 7.32-6.5 11.05 11.05 0 0 0 1.2.91 46.38 46.38 0 0 0-7.82 7.9z"/><path class="cls-17" d="M140.5 104.91c2.7-1.59 4.79-2 5.24-1.81a.42.42 0 0 1 .17.16 18.73 18.73 0 0 0-4.21 2.56 11.05 11.05 0 0 1-1.2-.91z"/><path class="cls-15" d="M132.88 115c-.25.34-.49.67-.72 1a6.28 6.28 0 0 1-.9-.83l-.12-.16a1.08 1.08 0 0 1-.26-.6.33.33 0 0 1 .06-.19l.77-1a.47.47 0 0 0-.05.1c-.1.41.34 1.02 1.22 1.68z"/><path class="cls-8" d="M142.44 120.8c.46 2.25 1.05 6.59-.23 8.93-2 3.63-8.17 6.37-11 7.27 2-2.2 2.88-4 2.42-5.25-.15-.41-1 1-2.64 1.27a5.49 5.49 0 0 0 .43-3 7.3 7.3 0 0 1 1.06-4.24c2.82-3.66 7.76-5.12 8.8-5.52z"/><path class="cls-9" d="M142.44 120.8c.3 1 .45 4.47-.66 6.08s-5.55 3.33-7.58 5c.46-1.72 1-2.32.72-3.78a3.77 3.77 0 0 1 .08-2.48c.26-.82 2.05-2.5 3.88-3.8a12.9 12.9 0 0 1 2.41-1.52z"/><path class="cls-10" d="M142.44 120.8c.11 1.16-.21 4.4-1.44 5.27s-2.22.62-4.29 1.85c0-.7 1.25-1.8.85-2.55a3 3 0 0 1-1.36.82c.57-.61.55-1.44 1-2.3a8.66 8.66 0 0 1 2.7-2.35 7.27 7.27 0 0 0 1.37-1.27z"/><path class="cls-11" d="M141.68 121.29c2.1.93 4.06 1.29 4.38.81l-.58.88c-.32.48-2.28.12-4.38-.82s-3.54-2.08-3.22-2.57l.58-.87c-.32.48 1.12 1.63 3.22 2.57z"/><path class="cls-11" d="M141 122.34c1.58.71 3.06 1 3.3.62l-.44.66c-.24.36-1.72.09-3.3-.62s-2.66-1.57-2.42-1.93l.44-.66c-.26.36.82 1.23 2.42 1.93z"/><path class="cls-12" d="M152.38 110.72a21.89 21.89 0 0 1-3.58 8.36l-2.05 3.1a23.6 23.6 0 0 1-4.86-1.2 20.39 20.39 0 0 1-3.88-2.65s.79-1.33 2-3.16a25.72 25.72 0 0 1 6.67-7 13.1 13.1 0 0 0 2.62 1.51 14.6 14.6 0 0 0 3.08 1.04z"/><path class="cls-13" d="M151.73 106.06c.5.23 1.1 1.9.65 4.66a14.6 14.6 0 0 1-3.07-1 13.1 13.1 0 0 1-2.62-1.51c2.53-1.76 4.57-2.36 5.04-2.15z"/><path class="cls-11" d="M142.47 120.09c2.44 1.09 4.71 1.51 5.09 1l-.68 1c-.37.56-2.65.14-5.08-1s-4.11-2.42-3.74-3l.68-1c-.38.58 1.26 1.91 3.73 3z"/><path class="cls-14" d="M138.45 119.05a6.69 6.69 0 0 0 1 .77l-.09.14a2.68 2.68 0 0 1-.91-.91zm.11 1.65l.25.19v.08a2 2 0 0 1-.25-.27z"/><path class="cls-15" d="M139.33 120l-.52.93-.25-.19a.3.3 0 0 1 0-.3l-.12.18c-.48-.42-.7-.78-.56-1l.45-.67.14.14a2.68 2.68 0 0 0 .86.91z"/><path class="cls-15" d="M138.56 120.7a2 2 0 0 0 .21.27c-.13.24-.26.48-.38.72-.27-.26-.38-.49-.29-.63l.32-.48.12-.18a.3.3 0 0 0 .02.3z"/><path class="cls-16" d="M141 117.36c-.32.48-.62.94-.91 1.41-.91-.62-1.44-1.2-1.36-1.56.33-.54.79-1.25 1.32-2a25.87 25.87 0 0 1 6.67-7 13.52 13.52 0 0 0 1.28.79 45 45 0 0 0-7 8.36z"/><path class="cls-17" d="M146.67 108.2c2.53-1.76 4.57-2.36 5.05-2.15a.64.64 0 0 1 .19.16 17.64 17.64 0 0 0-4 2.82 13.52 13.52 0 0 1-1.24-.83z"/><path class="cls-15" d="M140 118.77c-.21.35-.42.7-.62 1a6.69 6.69 0 0 1-1-.77l-.14-.14a1.09 1.09 0 0 1-.31-.59.41.41 0 0 1 0-.19l.68-1a.21.21 0 0 0 0 .11c-.01.38.52.96 1.39 1.58z"/></g></svg>