<?xml version="1.0" encoding="utf-8"?>
<!-- Generator: Adobe Illustrator 22.1.0, SVG Export Plug-In . SVG Version: 6.00 Build 0)  -->
<svg version="1.1" id="Layer_3" xmlns="http://www.w3.org/2000/svg" xmlns:xlink="http://www.w3.org/1999/xlink" x="0px" y="0px"
	 viewBox="0 0 251 151" style="enable-background:new 0 0 251 151;" xml:space="preserve">
<style type="text/css">
	.st0{opacity:0.2;}
	.st1{fill:none;stroke:#FFFFFF;stroke-linecap:round;stroke-linejoin:round;}
	.st2{fill:none;stroke:#FFFFFF;stroke-width:0.95;stroke-linecap:round;stroke-linejoin:round;}
	.st3{fill:none;stroke:#FFFFFF;stroke-width:1.11;stroke-linecap:round;stroke-linejoin:round;}
	.st4{fill:#B1B1B1;}
	.st5{fill:#E84C59;}
	.st6{fill:#EE7B5C;}
	.st7{fill:#F9C862;}
	.st8{fill:#062633;}
	.st9{fill:#ABAAAA;}
	.st10{fill:#E1DFE0;}
	.st11{fill:none;}
	.st12{fill:#041D26;}
	.st13{fill:#6E6E6E;}
	.st14{fill:#C0C0C0;}
	.st15{fill:#5E3E21;}
	.st16{fill:#783A28;}
	.st17{fill:#54371D;}
	.st18{fill:#6D3325;}
	.st19{fill:#8F4729;}
	.st20{fill:#DCB680;}
	.st21{fill:#C69666;}
	.st22{fill:#662F1E;}
	.st23{fill:#231D13;}
	.st24{fill:#574C3E;}
	.st25{fill:#442C1A;}
</style>
<title>Viljar</title>
<g class="st0">
	<path class="st1" d="M149.5,99.1h44"/>
	<path class="st2" d="M184.8,132.7c0-15.9,8.7-33.3,8.7-33.3"/>
	<path class="st3" d="M171,99.4c0,14.8-12.6,31.2-12.6,31.2"/>
	<path class="st3" d="M182.9,99.4c0,14.8-11.2,31.2-11.2,31.2"/>
	<path class="st3" d="M159.6,99.4c0,4.8-2.2,10.4-4.5,14.3"/>
	<path class="st3" d="M172,99.4c0,14.8,12.5,31.2,12.5,31.2"/>
	<path class="st3" d="M160.1,99.4c0,14.8,11.2,31.2,11.2,31.2"/>
	<path class="st3" d="M183.2,99.4c0,4.9,2.3,10.1,4.5,14.5"/>
	<path class="st2" d="M158.3,132.7c0-15.9-8.7-33.3-8.7-33.3"/>
</g>
<g class="st0">
	<path class="st4" d="M103.7,27.8c1.5-0.5,3.1-0.6,4.7-0.3c2.5,0.4,4.9,1.2,7.1,2.3c2.3,1.1,4.6,2.3,6.8,3.6l0.5,0.3l-1.1,2.1
		l-1.4-0.4c-0.9-0.2-1.8-0.2-2.7-0.1c-2.2,0.1-4.3,0.3-6.5,0.5c-1.5,0.1-3.1,0-4.6-0.3c-0.9-0.2-1.8-0.4-2.6-0.5
		c-0.4,0-0.5-0.3-0.6-0.7c-0.3-1.5-0.3-3-0.1-4.5C103.2,29.8,103.5,28.4,103.7,27.8z"/>
	<path class="st4" d="M121.3,21.2c0.8,1.1,1.5,2.2,2,3.5c0.6,1.5,0.8,3.1,0.8,4.7c0,0.1,0,0.2,0,0.2c-0.1,0-0.3-0.1-0.4-0.2
		c-0.9-0.5-1.8-1.2-2.5-2c-1.1-1.2-2.1-2.5-3-3.8c-0.9-1.4-2-2.6-3.3-3.5l-0.6-0.5c0.9-0.1,1.9-0.1,2.9,0
		C118.6,19.9,120,20.4,121.3,21.2z"/>
	<path class="st4" d="M112.8,44c0.2-0.1,0.4-0.2,0.6-0.3c3-1,5.7-2.8,7.8-5.2l0.7-0.8h0.1c0.7,1,1,2.1,1.1,3.3
		c0,0.3-0.2,0.7-0.4,0.8c-2.4,1.7-5.3,2.5-8.2,2.3l-1-0.1H112.8z"/>
	<path class="st4" d="M127.1,35.9c-0.2-0.1-0.4-0.3-0.5-0.4c-0.7-0.6-1.3-1.2-2.1-1.8c-0.3-0.1-0.4-0.5-0.2-0.7
		c0.2-0.6,0.4-1.1,0.5-1.7c0-0.3,0.3-0.4,0.5-0.4l0,0c0.6,0,1.2,0,1.9,0c0.6,0,0.5,0,0.5,0.5c0,0.8,0,1.7-0.1,2.5
		C127.5,34.6,127.3,35.2,127.1,35.9z"/>
	<path class="st4" d="M123.8,30.8c-0.1,0.7-0.3,1.4-0.7,1.9l-2-1.2c-2.4-1.4-4.9-2.6-7.4-3.7c-2.5-1.1-5.2-1.6-7.9-1.5H105l-0.8,0.1
		c0.2-0.3,0.3-0.6,0.4-0.8c1.7-2.8,4.3-4.8,7.5-5.6c0.3-0.1,0.6-0.1,0.9,0.1c1.6,1,3.1,2.4,4.1,4c0.7,1,1.4,2,2.1,2.9
		C120.4,28.7,122,29.9,123.8,30.8z"/>
	<path class="st4" d="M121.1,36.9c-0.4,0.6-0.8,1.1-1.2,1.5c-2.3,2.5-5.4,4.2-8.8,4.8c-0.5,0.1-1,0-1.5-0.2
		c-2.7-1.4-4.9-3.8-5.9-6.7c0-0.1-0.1-0.3-0.1-0.4l1.3,0.3c2.2,0.6,4.4,0.8,6.7,0.6c0.9-0.1,1.8-0.1,2.6-0.2c1.5,0,3.1-0.1,4.6-0.1
		c0.6,0,1.2,0.2,1.8,0.3C120.8,36.7,121,36.8,121.1,36.9z"/>
	<path class="st4" d="M123.8,34.4c0.6,0.5,1.1,0.9,1.5,1.3c0.5,0.4,0.8,0.7,1.1,1.1c0.1,0.1,0.1,0.4,0,0.5c-0.6,1.2-1.3,2.3-2.2,3.2
		l-0.1,0.1l-0.1-0.1c-0.2-1.2-0.6-2.3-1.2-3.3c-0.2-0.3-0.2-0.7,0-1C123.1,35.6,123.4,35.1,123.8,34.4z"/>
	<path class="st4" d="M127.5,29.8c-0.8,0.1-1.5,0.1-2.3,0c-0.1-1.2-0.2-2.4-0.4-3.6c-0.3-1.1-0.7-2.2-1.1-3.3
		C125.7,24.7,127.1,27.2,127.5,29.8z"/>
</g>
<path class="st5" d="M97.8,94.7c-5.2,0.8-14.9,2.9-19.2,6.9c-6.7,6.2-8.9,19.2-9.3,24.9c3.6-5.2,6.9-8,10-8.1c1,0-1.6,2.6-1.2,5.6
	c1.8-1.5,4-2.5,6.3-3c2.4-0.7,6.6-2.6,8.5-5c6.3-7.7,6.5-17.5,6.7-19.7L97.8,94.7z"/>
<path class="st6" d="M97.8,94.7c-2.3,0.2-10,2.5-12.8,5.6c-2.8,3.2-4,12.3-6.2,17.1c3.4-2.1,4.4-3.4,7.8-4c1.9-0.1,3.8-0.8,5.4-2
	c1.6-1.1,4.2-5.5,5.9-9.7c0.8-1.7,1.5-3.5,1.8-5.4L97.8,94.7z"/>
<path class="st7" d="M97.8,94.7c-2.6,0.6-9.4,3.6-10.6,6.4c-1.1,2.8,0,4.4-1.4,9c1.5-0.4,3.2-3.5,5-3.4c-0.5,1.2-1,1.7-1,3
	c1-1.5,2.8-2,4.4-3.5c1.9-1.7,2.5-4.3,3.5-6.5c0.5-1.2,1.1-2.3,1.9-3.4L97.8,94.7z"/>
<path class="st8" d="M97.2,96.4c-3.3-3-5.3-6.3-4.4-7.2l-1.6,1.7c-0.9,0.9,1.1,4.1,4.4,7.2c3.3,3,6.6,4.8,7.5,3.8l1.5-1.7
	C103.9,101.2,100.5,99.5,97.2,96.4z"/>
<path class="st8" d="M95.3,98.4c-2.5-2.3-4-4.7-3.3-5.4l-1.2,1.3c-0.6,0.7,0.8,3.1,3.3,5.4s5,3.6,5.6,2.9l1.2-1.3
	C100.3,102,97.8,100.7,95.3,98.4z"/>
<path class="st9" d="M113.7,69.7c-6,3.2-11.5,7.4-16,12.5l-5.5,5.9c1.5,2.8,3.4,5.4,5.5,7.8c2.5,2,5.2,3.6,8.1,5
	c0,0,2.4-2.4,5.7-5.9c4.7-4.9,8.5-10.7,11.1-17c-1.8-1-3.4-2.2-4.9-3.6C116.2,73,114.8,71.4,113.7,69.7z"/>
<path class="st10" d="M124.2,67.4c-0.8-0.7-4.8-0.6-10.5,2.3c1.1,1.7,2.4,3.3,4,4.7c1.5,1.4,3.1,2.6,4.9,3.6
	C124.9,72.2,124.9,68.1,124.2,67.4z"/>
<path class="st8" d="M99.3,94.1c-3.8-3.5-6.1-7.3-5.1-8.4l-1.8,1.9c-1,1.1,1.3,4.8,5.1,8.4s7.7,5.5,8.7,4.5l1.8-2
	C107,99.7,103.1,97.7,99.3,94.1z"/>
<path class="st11" d="M104,100.5c-0.8-0.3-1.5-0.7-2.2-1.2l-0.3,0.3C102.2,100.1,103.1,100.4,104,100.5z"/>
<path class="st11" d="M100.4,101.5c-0.2-0.1-0.4-0.2-0.6-0.3l-0.2,0.1C99.9,101.5,100.1,101.5,100.4,101.5z"/>
<path class="st9" d="M105.9,100.8L105.9,100.8L105.9,100.8z"/>
<path class="st12" d="M101.5,99.6l-1.7,1.6c0.2,0.1,0.4,0.2,0.6,0.3c0.2,0,0.5,0,0.7-0.2l-0.3,0.3c1.2,0.6,2.1,0.7,2.5,0.3l1.2-1.3
	l-0.4-0.1C103.1,100.4,102.2,100.1,101.5,99.6z"/>
<path class="st12" d="M100.4,101.5c-0.2,0-0.5-0.1-0.7-0.2l-1.3,1.2c0.7,0.3,1.3,0.3,1.5,0l0.8-0.9l0.3-0.3
	C100.9,101.5,100.6,101.6,100.4,101.5z"/>
<path class="st13" d="M106.2,94.9c-0.8,0.9-1.7,1.8-2.5,2.6c1.9,1.2,3.5,1.7,4.2,1.3c1-1,2.2-2.3,3.7-3.9c4.7-4.9,8.5-10.7,11.1-17
	c-0.9-0.5-1.8-1-2.6-1.7C116.2,83,111.5,89.2,106.2,94.9z"/>
<path class="st14" d="M122.6,78c2.3-5.8,2.4-9.9,1.6-10.6c-0.1-0.1-0.3-0.2-0.4-0.2c-0.8,3.2-2.1,6.3-3.8,9.1
	C120.9,76.9,121.7,77.5,122.6,78z"/>
<path class="st12" d="M103.6,97.5c-0.6,0.6-1.3,1.3-1.9,1.9c0.7,0.5,1.5,0.8,2.2,1.2l0.4,0.1c0.5,0.2,1,0.2,1.5,0.1l0,0
	c0.1,0,0.3-0.1,0.4-0.2l1.8-2c-0.1,0.1-0.1,0.1-0.2,0.2C107.1,99.2,105.6,98.7,103.6,97.5z"/>
<path class="st5" d="M85.6,89.4c-5.1,1.1-14.7,3.8-18.8,7.9c-6.3,6.6-7.8,19.7-7.8,25.4c3.3-5.3,6.4-8.4,9.5-8.7
	c1-0.1-1.4,2.6-0.9,5.7c1.7-1.5,3.8-2.6,6-3.2c2.4-0.9,6.4-2.9,8.3-5.5c5.8-8,5.5-17.9,5.6-20L85.6,89.4z"/>
<path class="st6" d="M85.6,89.4c-2.3,0.3-9.8,3-12.5,6.3s-3.2,12.5-5.3,17.4c3.3-2.3,4.2-3.7,7.5-4.5s3.7-1.1,5.3-2.2
	c1.6-1.1,4-5.7,5.4-10c0.7-1.8,1.3-3.6,1.5-5.5L85.6,89.4z"/>
<path class="st7" d="M85.6,89.4c-2.5,0.8-9.3,4.1-10.2,7c-0.9,2.9,0.2,4.4-1,9.1c1.5-0.5,2.9-3.7,4.8-3.6c-0.5,0.9-0.8,2-0.8,3.1
	c0.9-1.5,2.6-2.2,4.2-3.8c1.8-1.8,2.3-4.4,3.1-6.7c0.4-1.2,1-2.4,1.7-3.5L85.6,89.4z"/>
<path class="st8" d="M85.1,91.2c-3.4-2.9-5.6-6-4.8-7L78.8,86c-0.8,1,1.3,4.1,4.8,7s6.9,4.4,7.7,3.4l1.5-1.8
	C92.1,95.6,88.6,94.1,85.1,91.2z"/>
<path class="st8" d="M83.4,93.3c-2.6-2.2-4.2-4.5-3.6-5.3l-1.1,1.3c-0.6,0.7,1,3.1,3.6,5.3s5.2,3.3,5.8,2.6l1.1-1.3
	C88.6,96.6,86,95.4,83.4,93.3z"/>
<path class="st9" d="M100.2,63.5c-5.9,3.5-11,8-15.3,13.3L79.7,83c1.6,2.7,3.6,5.2,5.9,7.5c2.6,1.8,5.4,3.4,8.3,4.5
	c0,0,2.3-2.5,5.3-6.2c4.4-5.2,7.9-11.1,10.1-17.5c-1.8-0.9-3.5-2-5-3.3S101.4,65.2,100.2,63.5z"/>
<path class="st10" d="M110.6,60.7c-0.8-0.7-4.8-0.3-10.3,2.8c1.2,1.7,2.7,3.2,4.3,4.5c1.5,1.3,3.2,2.4,5,3.3
	C111.5,65.4,111.3,61.4,110.6,60.7z"/>
<path class="st8" d="M87.1,88.8c-4-3.3-6.5-6.9-5.5-8.1l-1.7,2c-0.9,1.1,1.5,4.7,5.6,8.1c4,3.3,7.9,5.1,8.9,4l1.7-2
	C95.1,93.9,91.1,92.1,87.1,88.8z"/>
<path class="st11" d="M92.1,94.9c-0.8-0.3-1.6-0.6-2.3-1l-0.3,0.3C90.4,94.6,91.2,94.8,92.1,94.9z"/>
<path class="st11" d="M88.6,96.1L88,95.8l-0.1,0.1C88.1,96,88.3,96.1,88.6,96.1z"/>
<path class="st9" d="M94,95.1L94,95.1z"/>
<path class="st12" d="M89.6,94.1L88,95.8l0.6,0.3c0.2,0,0.5,0,0.7-0.2L89,96.3c1.2,0.5,2.1,0.6,2.5,0.1l1.1-1.3L92.2,95
	C91.2,94.9,90.4,94.6,89.6,94.1z"/>
<path class="st12" d="M88.6,96.1c-0.2,0-0.5-0.1-0.7-0.1c-0.4,0.4-0.8,0.9-1.3,1.3c0.7,0.3,1.3,0.3,1.5,0l0.8-1l0.3-0.4
	C89,96.1,88.8,96.1,88.6,96.1z"/>
<path class="st13" d="M94,89.1c-0.8,1-1.6,1.9-2.4,2.8c2,1.1,3.6,1.5,4.3,1.1c0.9-1.1,2.1-2.4,3.4-4.1c4.4-5.2,7.9-11.1,10.1-17.5
	c-0.9-0.4-1.8-1-2.6-1.5C103.3,76.7,99,83.2,94,89.1z"/>
<path class="st14" d="M109.5,71.3c2-5.9,1.8-10,1.1-10.6c-0.1-0.1-0.3-0.2-0.5-0.2c-0.6,3.2-1.7,6.3-3.3,9.3
	C107.7,70.4,108.6,70.9,109.5,71.3z"/>
<path class="st12" d="M91.6,91.9l-1.8,2c0.7,0.4,1.5,0.8,2.3,1l0.4,0.1c0.5,0.1,1,0.1,1.5,0l0,0c0.1,0,0.3-0.1,0.4-0.2l1.7-2
	C96,92.9,96,92.9,95.9,93C95.2,93.4,93.6,92.9,91.6,91.9z"/>
<path class="st15" d="M149.2,98.7c1.5,1.6,5.2,4.6,8.4,0.7c3.3-4-3.4-6.7-3.4-6.7L149.2,98.7z"/>
<path class="st16" d="M127.2,83.2c0.5-0.2,1.1-0.3,1.6-0.2l0.8,0.1c0.4,0.1,0.8,0.2,1.1,0.4c0.5,0.3,1,0.6,1.5,1
	c0.7,0.7,1.5,1.3,2.4,1.8c1.8,0.9,3.7,1.5,5.7,1.7c2.1,0.3,4.4,0.4,7.1,0.8l2.1,0.4c0.8,0.2,1.6,0.4,2.4,0.6c1,0.2,1.9,0.7,2.7,1.3
	c0.5,0.4,0.9,0.8,1.2,1.3c0.2,0.3,0.3,0.7,0.4,1.1c0,0.2,0,0.4,0,0.6s0,0.5-0.8,1.5l-3.1,3.1c-1,0.9-1.1,1.1-1.2,1.1
	c-0.1,0.1-0.3,0.2-0.4,0.4c-0.2,0.1-0.3,0.3-0.4,0.4c-0.1,0.2-0.4,0.3-0.5,0.4s-0.6,0-1,0s-0.9-0.2-1.4-0.3l-1.8-0.2
	c-2.9-0.4-5.7-1.2-8.4-2.2c-3.1-1.2-6-3.2-8.2-5.7c-1.1-1.2-2-2.5-2.8-4c-0.2-0.3-0.4-0.7-0.5-1.1s-0.2-0.8-0.1-1.2
	c0-0.4,0-0.9,0.2-1.3c0.1-0.3,0.2-0.5,0.3-0.7C126.1,84.1,126.3,83.8,127.2,83.2L127.2,83.2z"/>
<path class="st17" d="M100,111.2c-1.2-3.5-2.5-3.5-2.5-3.5l-1.8,1.7l0,0c-1.1,1-2.4,2.4-3.9,3.7c-2.9,2.6-6,5.1-4.9,6.3
	c1.6,1.7,5.4,0.7,8.6-2.3c0.5-0.5,1-1,1.5-1.6c0.3,1.1,0.6,2.2,1.1,3.3c0,0,5.4-5.7,4.8-6.1S100.1,111.8,100,111.2z"/>
<path class="st18" d="M109.9,104.5c0.7,2.9-0.6,3.7-1.3,5.1c-0.7,1.4-1.7,2.6-2.6,3.8c-0.9,1.1-1.9,2.4-2.9,3.5l-1.5,1.7
	c-0.5,0.5-0.8,1.3-2.4,0.8l-10.1-10.6c-0.5-1.6,0.4-1.8,0.9-2.3l1.7-1.5c1.2-1,2.4-1.9,3.6-2.8s2.6-1.7,3.9-2.5s2.3-2,5.2-1.1
	L109.9,104.5z"/>
<path class="st15" d="M86.4,95.4c-0.6-3.6-1.9-3.9-1.9-3.9l-2.1,1.3l0,0c-1.2,0.8-2.7,2-4.4,3.1c-3.3,2.1-6.8,4-5.9,5.4
	c1.3,1.9,5.3,1.5,8.9-0.9c0.6-0.4,1.2-0.8,1.7-1.3c0.1,1.2,0.3,2.3,0.6,3.4c0,0,6.2-4.8,5.8-5.2C88.6,96.9,86.5,96.1,86.4,95.4z"/>
<path class="st16" d="M99.6,99.7c-1.1,2.8-2.6,2.7-4,3.5c-1.3,0.8-2.9,1.2-4.3,1.6c-1.5,0.5-2.9,0.9-4.4,1.2l-2.2,0.5
	c-0.8,0.1-1.4,0.7-2.4-0.6l-2.5-14.4c0.5-1.6,1.3-1.3,2.1-1.4l2.2-0.2c1.5-0.1,3-0.2,4.5-0.3c1.5,0,3.1,0,4.6,0.1s3-0.3,4.9,2
	L99.6,99.7z"/>
<path class="st19" d="M141,71.8c-4.7,8.2-15.1,11-23.3,6.3s-11-15.1-6.3-23.3s15.1-11,23.3-6.3C142.8,53.2,145.6,63.6,141,71.8z"/>
<path class="st19" d="M125.9,101.5l0.4-0.6c0-0.1,0.1-0.2,0.1-0.3c6.7-10.4,9.6-21.4-2.9-30.5l0,0C111,61,98,70.3,88.4,85.6l0,0
	c-4,5.6,5,11.6,12.6,17.2c8.7,6.4,16.1,11,19,7l3-4.1C124,104.2,125,102.9,125.9,101.5z"/>
<path class="st20" d="M123.5,88.6c-1.3-1.2-1.6-4.1-3.1-6.3c-2.2-3.1-1.6-6.3-2-5c-0.4,1.4-1.7,1.5-1.7,1.3c0.1-0.2,0.3,0.4,0.9-1.7
	s-1.3-4.1-1.5-8.3c0-1.5,0-3,0.3-4.5c-0.4,0.5-0.7,1-1,1.5c1.9-13,9.1-17.6,9.9-17.8c-0.7-0.1-1.5-0.1-2.2,0.1c3-3,5.6-2.3,6-2.2
	c-0.3-0.6-0.9-1.1-1.7-1.2c1.8-1.1,3.3-1.7,5.1-0.9c0.7,0.3,1.1,0.9,1.2,1.6c0.2-1.9,2-3.3,4-3.1l0,0c-2.9,3.1-2,2.6-2,2.9
	c0.1,0.2,2.6-1,4.6-0.4c-0.5,0.1-1,0.3-1.4,0.7c2.2,0,4.7-0.3,7.4,4c-1-0.4-2-0.6-3.1-0.4c3.7,3.4,5.5,8.5,4.8,13.5
	c-0.2-0.3-1.4-2-1.7-1.9c0.8,1.4,3.2,6.4-4.5,18.1c0.2-0.7,0.4-2.4,0-2.5c0,1.3-2.5,4.5-7.3,6.2C128.1,84.8,125.1,86.3,123.5,88.6z"
	/>
<path class="st15" d="M142,68.2c2.5-6.1,0.7-12.6-3.7-14.4s-9.9,1.8-12.4,7.9c-1.3,3.2-1.5,6.7-0.5,10c1.1,3.2,2,5.8,1.3,8.2
	c2-2.9,4.6-3,8.2-4.3C138.2,74.3,140.7,71.6,142,68.2z"/>
<path class="st21" d="M142.2,67.8c-2.4,5.9-7.5,9.6-12.1,7.7c-4.6-1.9-7.4-8.8-5-14.7c2.4-5.9,8-9.3,12.6-7.4S144.5,61.9,142.2,67.8
	z"/>
<path class="st22" d="M136.8,63.2c0.7,0,1.4,0.2,2.1,0.4c0.7,0.2,1.3,0.5,1.9,1c-0.6-0.4-1.2-0.6-1.9-0.6c-0.7-0.1-1.3-0.1-2,0
	L136.8,63.2z"/>
<path class="st22" d="M134,62.7c-0.6-0.4-1.2-0.8-1.8-1.1c-0.6-0.3-1.4-0.5-2.1-0.5c0.7-0.2,1.5-0.1,2.2,0.1s1.4,0.5,2.1,0.8
	L134,62.7z"/>
<polygon class="st23" points="133.5,63.6 131.7,62.3 133.8,63.2 "/>
<path class="st23" d="M136.8,64.3c0.4,0.1,0.9,0.2,1.3,0.3c0.5,0.1,0.9,0.2,1.3,0.4c-0.4-0.1-0.9-0.1-1.3-0.1c-0.4,0-0.9,0-1.3,0
	V64.3z"/>
<path class="st24" d="M132.7,65.5c-0.3,0.6-0.3,1.2,0,1.8c0.3,0.5,0.8,0.9,1.3,1.1c0.5,0.3,1.2,0.3,1.7,0c0.6-0.3,0.9-0.9,1-1.5
	c0.1,0.7-0.2,1.4-0.8,1.8s-1.4,0.5-2.1,0.2c-0.7-0.3-1.2-0.8-1.5-1.4C132.1,66.8,132.2,66,132.7,65.5z"/>
<path class="st23" d="M130.2,69.8c0.3,0.6,0.7,1.1,1.1,1.5c0.4,0.4,0.9,0.7,1.5,0.8c1.2,0,2.5-0.4,3.5-1.1c-0.4,0.5-0.9,1-1.5,1.3
	c-0.6,0.4-1.3,0.5-2.1,0.4c-0.7-0.1-1.4-0.5-1.8-1.1c-0.2-0.3-0.3-0.6-0.5-0.9C130.4,70.5,130.3,70.2,130.2,69.8z"/>
<path class="st25" d="M136.1,53c1.3,0.2,2.4,0.7,3.5,1.4c2.6,2,3.5,6,3.6,7.1c-0.7-0.7-1.6-1.1-2.6-1h-0.5l-0.1-3.3l-1.6,3.3
	c-5.4-0.2-9.1-6.4-11.6-2.9C129.1,54.3,132.8,52.3,136.1,53"/>
<path class="st15" d="M96.9,32.3c0.9-2.3,4.6-8.7,9.4-5.6s0.6,5.7-0.3,6.6c-1,1-1.7,2.3-1.8,3.8L96.9,32.3z"/>
<path class="st16" d="M110.8,74.3c-0.5,0.9-0.9,1.1-1.2,1.2c-0.3,0.1-0.7,0.2-1,0.3c-0.7,0.1-1.4,0.1-2,0c-1.3-0.2-2.5-0.7-3.6-1.5
	c-2.1-1.5-4-3.2-5.5-5.3c-6.1-8.1-8.4-18.4-6.1-28.3c0.6-2.6,1.6-5.1,3-7.3c0.3-0.6,0.7-1.2,1.1-1.7s0.9-1.1,1.4-1.5
	c0.6-0.4,1.2-0.8,1.8-1.1c0.4-0.2,0.8-0.2,1.2-0.2h0.7c0.2,0,0.5,0,1.5,0.9l2.8,3.3c0.8,1.1,0.9,1.3,0.9,1.5l0.1,0.6
	c0,0.3,0,0.6,0,0.8c-0.1,0.4-0.2,0.8-0.3,1.2c-0.1,0.4-0.3,0.7-0.5,1l-0.6,1c-0.7,1.4-1.3,2.9-1.7,4.4c-0.9,3.4-1.2,6.9-0.9,10.3
	c0.2,3.6,1.1,7.1,2.6,10.3c0.7,1.5,1.7,3,2.9,4.2c0.6,0.6,1.2,1.2,1.7,1.9c0.3,0.4,0.6,0.9,0.9,1.3l0.5,0.8
	C110.7,73.1,110.9,73.7,110.8,74.3L110.8,74.3z"/>
</svg>
