<svg xmlns="http://www.w3.org/2000/svg" fill="none" viewBox="0 0 300 150"><path fill="#fff" d="M18 110.138h8.747v1.734H19.75v3.988h6.473v1.734H19.75v4.334h7.347v1.734H18v-13.524zm17.145 0h1.925v11.79h6.298v1.734H35.32v-13.524h-.175zm17.145 0v8.322c0 .347 0 .867.175 1.388.175.52.35.867.525 1.213.35.347.7.694 1.05.867.35.174 1.05.347 1.574.347.525 0 1.225-.173 1.575-.347.35-.173.875-.52 1.05-.867.175-.346.524-.867.524-1.213.35-.521.35-1.041.35-1.388v-8.322h1.925v8.496c0 .867-.175 1.56-.35 2.081-.35.693-.7 1.213-1.05 1.733-.525.521-1.05.867-1.75 1.041-.7.173-1.399.347-2.099.347-.7 0-1.4-.174-2.1-.347-.699-.174-1.224-.694-1.749-1.041-.524-.52-.874-1.04-1.05-1.733-.174-.694-.524-1.214-.524-1.908v-8.496h1.924v-.173zm28.342 0h1.925v13.524h-1.925v-13.524zm10.847 0h1.925v11.79h6.298v1.734h-8.048v-13.524h-.175zm15.221 0h2.799l4.374 10.23 4.374-10.23h2.799v13.524h-1.925v-11.097l-4.723 11.097h-1.225l-4.549-11.097v11.097H106.7v-13.524zm27.467 0h1.75l5.773 13.524h-2.1l-1.399-3.294h-6.473l-1.4 3.294h-2.099l5.948-13.524zm3.149 8.669l-2.624-6.242-2.624 6.242h5.248zm22.044-8.669h4.723c1.05 0 1.75.173 2.45.346.7.174 1.399.521 1.924.867.525.347 1.05.694 1.4 1.214.35.52.7.867.875 1.387l.524 1.561c.175.52.175.867.175 1.387 0 .867-.175 1.734-.524 2.427a6.231 6.231 0 01-1.4 2.081c-.7.694-1.4 1.214-2.274 1.561-.875.346-1.925.52-3.15.52h-4.373v-13.351h-.35zm1.924 11.79h2.275c.699 0 1.574-.173 2.274-.346.7-.174 1.225-.521 1.924-.867.7-.347.875-.867 1.225-1.561.35-.694.525-1.387.525-2.254 0-.347 0-.867-.175-1.561-.175-.693-.35-1.213-.875-1.733a4.112 4.112 0 00-1.574-1.388c-.7-.346-1.575-.52-2.625-.52h-2.799v10.23h-.175zm18.195-11.79h1.925v13.524h-1.925v-13.524zm10.847 0h8.748v1.734h-6.998v3.988h6.473v1.734h-6.473v4.334h7.347v1.734h-9.097v-13.524zm17.32 0h8.748v1.734h-6.998v3.988h6.473v1.734h-6.473v4.334h7.348v1.734h-9.098v-13.524zm16.795 0h4.724c1.05 0 1.75.173 2.449.346.7.174 1.4.521 1.925.867.525.347 1.049.694 1.399 1.214.35.52.7.867.875 1.387l.525 1.561c.175.52.175.867.175 1.387 0 .867-.175 1.734-.525 2.427a6.231 6.231 0 01-1.4 2.081c-.699.694-1.399 1.214-2.274 1.561-.875.346-1.924.52-3.149.52h-4.374v-13.351h-.35zm1.925 11.79h2.274c.7 0 1.575-.173 2.275-.346.699-.174 1.224-.521 1.924-.867.525-.347.875-.867 1.225-1.561.35-.694.524-1.387.524-2.254 0-.347 0-.867-.174-1.561-.175-.693-.35-1.213-.875-1.733a4.116 4.116 0 00-1.575-1.388c-.7-.346-1.574-.52-2.624-.52h-2.799v10.23h-.175zm18.195-11.79h1.924v13.524h-1.924v-13.524zm13.646 1.734h-4.374v-1.734h10.672v1.734h-4.374v11.79h-1.924v-11.79zm16.27-1.734h1.75L282 123.662h-2.099l-1.4-3.294h-6.473l-1.4 3.294h-2.099l5.948-13.524zm3.324 8.669l-2.624-6.242-2.624 6.242h5.248zM209.92 56.734a18.666 18.666 0 013.499-5.722c1.925-2.08 4.549-3.12 7.523-3.12 1.05 0 1.925.173 2.624.693.7.52.875 1.04.875 1.387 0 .52-.35.693-.875.52h-.874c-2.1 0-4.024.867-5.599 2.774-1.574 1.908-2.799 4.162-3.674 6.763a23.7 23.7 0 00-1.224 7.455c0 2.428.525 3.988 1.399 4.682 2.625-2.428 6.298-8.843 11.022-19.246.35-.694.875-1.04 1.925-1.04.874 0 1.749.346 2.449 1.04.7.693 1.05 1.733.875 2.947-.7 11.097-2.1 20.634-4.199 28.783-2.1 7.976-5.599 12.137-10.497 12.137-1.75-.173-3.149-.693-4.374-1.56-1.225-1.04-1.924-2.08-1.924-3.294 0-.694.175-1.214.524-1.561.35-.347.7-.52 1.05-.52.35 0 .7.173.875.347.175.346.35.693.35 1.387 0 .867.35 1.56.875 2.08.524.52 1.399.694 2.624.694 2.099 0 3.674-1.734 5.073-5.375 1.4-3.641 2.45-7.976 3.15-13.004.699-5.029 1.224-10.057 1.399-14.912-1.4 3.468-2.799 6.415-4.374 9.19-1.574 2.6-2.799 4.334-3.849 4.855-.874.52-1.749.693-2.624.693-1.224 0-2.274-.347-3.324-.867-1.05-.52-1.749-1.387-1.924-2.254-.35-1.214-.525-2.948-.525-5.028 0-.867 0-1.734.175-2.601-.875 1.387-1.75 2.427-2.45 3.294-1.399 1.734-2.799 3.121-4.198 4.162-1.05.693-2.1 1.04-3.324 1.04-1.925 0-3.324-.867-4.374-2.6-.35-.694-.525-1.561-.525-2.949 0-2.08.525-4.508 1.4-7.455.874-2.948 1.924-5.549 2.799-7.976-.35-.174-.875-.347-1.575-.867-.7-.347-1.224-.867-1.749-1.387-.525 1.56-1.4 3.12-2.275 4.855v.173c0 .52-.175 1.04-.524 1.56-1.575 2.948-3.15 5.376-4.899 7.283-1.75 1.907-3.849 3.468-6.473 4.681-1.75 3.468-3.849 6.243-6.123 8.323-2.275 2.08-4.549 3.121-6.999 3.121-3.499 0-6.298-1.04-8.397-3.12-2.1-2.081-3.674-4.856-4.549-8.497-2.449-1.734-4.374-4.161-5.773-7.282-1.4-3.121-2.1-6.416-2.1-9.884 0-3.814.875-7.282 2.45-10.75 1.574-3.468 4.024-6.069 7.348-8.15 3.324-2.08 7.348-3.12 12.071-3.12 5.949 0 10.322 1.734 13.121 5.375 2.8 3.641 4.199 8.15 4.199 13.698 0 4.508-.874 9.363-2.624 14.218 1.4-1.04 2.449-2.254 3.324-3.641.175-.347.35-.52.525-.867 0-.174.175-.347.175-.52.7-1.04 1.749-3.122 2.974-6.07 1.225-2.947 1.924-5.028 2.099-6.415-.175-.346 0-.52.35-.693.35-.174.7-.347 1.225-.347.525 0 .875 0 1.225.173.35.174.699.347.874.52v.694c0 1.387.525 2.6 1.575 3.294a10.915 10.915 0 002.974 1.734c.875.347 1.4.52 1.575.694.175.173.175.867-.175 1.734s-.7 2.427-1.4 4.681c-.875 2.601-1.574 4.855-2.099 6.416-.525 1.734-.7 3.121-.7 4.161 0 1.387.35 2.081 1.225 2.081 1.224 0 2.449-1.04 4.198-3.121 1.75-2.08 3.499-4.855 5.774-8.323l.874-1.387c0-.347.175-.694.525-.867zM157.96 34.54c-2.799 1.907-4.724 4.508-6.123 7.456-1.4 2.947-2.1 6.242-2.1 9.71 0 2.254.35 4.334.875 6.242.525 1.907 1.4 3.815 2.624 5.202-.175-2.775.175-5.549.7-8.15.525-2.6 1.4-4.855 2.624-6.762 1.225-1.907 2.625-3.121 4.199-3.815.35-.173.7-.173 1.225-.173.7 0 1.4.173 1.924.347.7.173.875.52.7.693-1.924 2.428-3.149 5.202-4.199 8.15-.874 2.947-1.399 5.895-1.399 9.016 0 1.907.175 3.641.525 5.202 1.399.346 2.449.52 3.674.52 6.298 0 11.196-.867 15.045-2.774 1.75-5.029 2.625-10.057 2.625-15.259 0-5.375-1.05-9.883-3.324-13.35-2.275-3.469-5.599-5.203-9.973-5.203-3.674.174-6.823 1.04-9.622 2.948zm13.996 41.094c1.575-1.387 3.149-3.295 4.374-5.722-3.499 1.04-7.873 1.56-13.121 1.56-1.05 0-1.925 0-2.625-.173.7 2.08 1.575 3.641 2.625 4.681 1.049 1.214 2.274 1.734 3.674 1.734 1.924-.173 3.499-.693 5.073-2.08zm81.702-24.448c-.175.52-.175 1.04-.35 1.733-1.05 5.722-1.575 10.057-1.575 13.005 0 1.387.175 2.427.35 2.947s.35.867.35 1.388c0 .693-.175 1.213-.525 1.56-.35.347-.874.52-1.399.52-.7 0-1.225-.173-1.75-.693-.525-.52-.874-1.04-1.049-1.908-.175-.693-.35-1.907-.35-3.467 0-1.734.175-3.468.35-5.202-.875 1.907-2.275 3.814-3.849 5.722a49.687 49.687 0 01-4.724 5.375c-1.575 1.56-2.624 2.427-3.149 2.948-.7.52-1.225.693-1.75.693-.699 0-1.224-.347-1.749-.867-.525-.52-.7-1.214-.875-1.907-.175-.52-.175-1.04-.175-1.734 0-2.6.35-5.895 1.225-10.23.875-4.335 1.574-7.11 2.449-8.67.35-1.213 1.225-1.734 2.449-1.734.7 0 1.225.174 1.575.52.525.347.7.694.525.868-.875 1.907-1.75 4.855-2.799 8.496-.875 3.814-1.4 6.589-1.4 8.496 0 1.214.175 1.734.525 1.734.875 0 2.099-1.04 3.849-2.948 1.749-1.907 3.674-4.335 5.423-6.936 1.75-2.6 2.974-4.855 3.674-6.762.525-2.08 1.05-3.468 1.575-4.161.525-.52 1.224-.867 1.924-.867.525 0 .875.173 1.225.347.35.173.525.346.525.52-.35.52-.35.867-.525 1.214zM112.473 61.243c.175-4.162.175-8.15.35-12.138.175-6.762.35-10.577.7-11.444-.175-.52.175-.867.7-1.213.525-.347 1.224-.52 2.099-.52.7 0 1.225 0 1.75.173.35.173.525.52.175.867-.175.347-.525 2.427-.875 6.242s-.7 8.323-1.05 13.524c1.4-5.895 3.674-8.843 6.823-9.016 1.225 0 2.275.52 2.974 1.56.7 1.214 1.225 2.775 1.225 4.682.175 2.08-.175 4.335-.875 6.762-.699 2.428-1.749 4.335-3.149 6.242-1.399 1.734-3.149 2.948-5.248 3.468a36.376 36.376 0 006.648 5.202c2.274 1.387 4.374 2.08 6.123 1.907.35 0 .525 0 .7-.173.35 0 .7 0 .875.173.175.174.35.52.35.867 0 .52-.175.867-.35 1.214-.35.347-.7.694-1.225.867-.35.173-.7.173-1.05.173-2.099.174-4.373-.693-6.998-2.427-2.624-1.734-5.073-3.815-7.348-6.242V78.755c0 .867-.175 1.56-.524 2.08-.35.52-.875.694-1.225.694-.35 0-.7 0-1.05-.346-.35-.174-.35-.52-.35-.867l.175-10.404v-2.427c-.7 1.04-1.399 2.08-2.274 3.294-2.1 2.948-3.849 5.028-5.074 6.242-1.049 1.04-2.274 1.56-3.674 1.56-1.049 0-1.924-.173-2.799-.693s-1.4-1.214-1.924-2.08c-.35-.868-.525-2.081-.7-3.815v-.52c-.35.693-.875 1.213-1.05 1.734a16.305 16.305 0 01-4.024 4.334c-1.05.694-2.1 1.214-3.324 1.214-1.924.174-3.324-.694-4.548-2.427-.35-.52-.7-1.56-.7-2.775-.175-2.08.175-4.508.874-7.456.7-2.947 1.575-5.548 2.45-8.149-.35-.173-.875-.347-1.575-.693-.7-.347-1.224-.867-1.75-1.388-.524 1.734-1.224 3.468-2.099 5.549-.874 1.907-1.574 3.294-1.924 4.161-.35.52-.7.867-1.225.867-.525 0-.874-.173-1.224-.347-.35-.346-.525-.693-.525-1.04 0-.347 0-.693.175-.867.7-1.04 1.574-3.12 2.624-6.069 1.05-2.947 1.75-5.201 1.75-6.588-.175-.174 0-.52.174-.694.35-.173.7-.347 1.225-.347.525 0 .875 0 1.225.174.35.173.7.347.874.52v.347c0 1.387.7 2.6 1.75 3.294s2.1 1.214 2.974 1.56c.875.347 1.4.52 1.575.52.175.174.175.868 0 1.735-.175.867-.7 2.6-1.225 4.855-.7 2.774-1.225 4.855-1.75 6.588-.35 1.734-.524 3.122-.524 4.162 0 1.387.525 2.08 1.4 1.907 1.224 0 2.449-1.213 4.023-3.294 1.4-1.907 2.8-4.335 4.549-7.456.175-2.254.525-4.335.875-6.069.35-1.907.7-3.12.874-3.468.35-.346.7-.693 1.4-.693s1.225.173 1.749.347c.525.346.875.693.875 1.213 0 .347-.175 1.734-.7 4.335-.35 2.601-.699 4.855-1.049 6.762-.175 1.908-.35 3.468-.175 4.682.175 2.08.7 2.948 1.574 2.948.525 0 1.4-.867 2.799-2.428 1.4-1.56 2.8-3.468 4.374-5.548a34.533 34.533 0 003.324-5.376c-.175-.52-.175-.693 0-.866zM83.781 31.419c0 1.04-.35 1.734-1.05 2.428-.699.693-1.399 1.04-2.274 1.04-.35 0-.7 0-.874-.173-.175-.174-.35-.347-.35-.694s0-.693.35-1.04c.175-.694-.175-1.214-1.225-1.734-1.05-.347-2.45-.52-4.374-.52-2.1.173-4.548.52-7.173 1.213.35.174.7.347.7.694s-.175.52-.525.867c-1.4 1.387-2.624 3.815-3.849 7.282-1.05 3.468-2.1 7.456-2.974 11.791 4.024-.867 7.523-1.56 10.497-1.734h2.624c.525 0 .875.174 1.225.52.35.347.525.694.525 1.04 0 .347 0 .52-.175.868-.175.173-.35.346-.7.346-3.149.174-5.948.52-8.223.867-2.274.347-4.373 1.04-6.473 1.734-.35 2.948-.7 5.722-.874 8.496-.175 2.775-.175 5.029-.175 6.936 0 .694.175 1.56.175 2.254 2.449-.694 4.898-1.04 7.347-1.214 3.5-.173 6.998.174 10.497.867.7.174 1.225.347 1.575.694.35.347.525.694.525 1.04 0 .347-.175.694-.525 1.04-.35.347-.875.52-1.4.52h-.7c-3.323-.52-6.297-.866-8.747-.693-2.45.174-4.724.52-6.998 1.387-2.274.694-4.723 1.908-7.523 3.468-.35.174-.7.347-1.05.347-.7 0-1.224-.173-1.749-.694-.525-.52-.7-1.04-.7-1.734 0-.693.175-1.213.7-1.56 1.225-.694 2.8-1.56 4.374-2.254-.35-1.04-.525-2.601-.7-4.508-.175-3.468 0-7.803.7-12.658-.35.173-.7.173-1.05.173-.525 0-.875-.173-1.05-.346-.175-.347-.35-.694-.35-1.04 0-.52.175-1.04.35-1.561.35-.52.7-.867 1.225-1.214h2.274c.875-4.508 1.925-8.67 3.15-12.484 1.224-3.815 2.624-6.416 3.848-7.976-2.274 1.04-4.373 2.254-5.948 3.988-1.574 1.56-2.624 3.468-2.974 5.722 0 .173 0 .347.175.694 0 .346 0 .693-.35 1.04a1.343 1.343 0 01-.875.347c-.35 0-.7-.174-1.05-.347-.35-.174-.524-.52-.7-1.04-.174-.868-.35-1.388-.35-1.734-.174-2.775 1.05-5.376 3.325-7.63 2.274-2.254 5.598-4.508 9.272-5.895 3.674-1.387 7.173-2.427 10.672-2.6 2.45-.174 4.549.173 6.299.866 1.749.694 2.974 1.734 3.498 3.295.175.346.175.693.175 1.213zm17.495 21.5a2.975 2.975 0 01-1.749-.52c-.525-.346-.7-.866-.7-1.386 0-.52.175-1.04.525-1.561.35-.52.875-.867 1.4-.867.699 0 1.224.173 1.749.694.525.52.7 1.04.7 1.733 0 .52-.175 1.04-.35 1.388-.35.173-.875.52-1.575.52zm16.796 2.775c-1.05 3.121-1.75 7.11-2.275 12.137h.175c1.575 0 2.8-1.04 4.024-2.774 1.225-1.734 2.1-3.814 2.624-6.069.525-2.254.875-4.334.7-5.895 0-.693-.175-1.214-.35-1.56-.175-.347-.35-.52-.699-.52-1.75 0-3.15 1.56-4.199 4.681z"/></svg>
