<svg xmlns="http://www.w3.org/2000/svg" fill="none" viewBox="0 0 300 150"><path fill="#fff" d="M32.142 35.887c.418 0 .76-.354.76-.747a.768.768 0 00-.76-.747H15.76c-.418 0-.76.354-.76.787v27.524c0 .432.342.786.76.786s.76-.354.76-.786V35.887h15.622zm-14.14 26.11a.768.768 0 00-.76.746c0 .393.342.747.76.747h14.14c.418 0 .76-.354.76-.747a.768.768 0 00-.76-.747h-14.14zm0-14.156a.768.768 0 00-.76.747c0 .393.342.747.76.747h13.38c.418 0 .76-.354.76-.747a.768.768 0 00-.76-.747h-13.38zM47.636 53.62c.304 0 .532-.353.532-.746s-.228-.747-.532-.747H35.397c-.266 0-.532.354-.532.747s.266.747.532.747h12.239zM51.633 57.592c-.19-.314-.684-.432-.988-.196-.342.236-.456.707-.228 1.061 1.976 3.107 6.727 5.387 10.87 5.387 7.488 0 10.832-3.735 11.174-6.999.038-.393-.304-.786-.684-.826-.38-.039-.798.276-.836.669-.266 2.792-3.535 5.701-9.654 5.701-3.687 0-7.906-2.005-9.654-4.797zm-.342-16.318c0 .393.38.747.76.747s.76-.354.76-.747c0-2.595 3.269-5.78 8.4-5.78 4.409 0 7.335 1.298 9.312 3.146a.74.74 0 001.026-.04.806.806 0 00-.038-1.061c-2.204-2.084-5.435-3.5-10.3-3.5-6.5 0-9.92 4.168-9.92 7.235zm19.612 13.37c.076.392.494.668.874.628.38-.078.684-.471.646-.865-.38-2.477-2.812-3.932-5.435-4.718-3.23-.983-6.803-1.73-9.768-2.674-2.014-.63-4.029-1.69-4.333-3.617-.076-.394-.494-.669-.874-.63-.38.08-.684.472-.646.865.38 2.438 2.85 4.011 5.397 4.798 2.965.943 6.613 1.69 9.844 2.673 1.938.63 3.991 1.573 4.295 3.54zM81.844 47.84a.768.768 0 00-.76.748c0 .393.342.747.76.747h16.762c.418 0 .76-.354.76-.747a.768.768 0 00-.76-.747H81.844zm19.764-12.66c0-.433-.342-.787-.76-.787s-.76.354-.76.787v27.524c0 .432.342.786.76.786s.76-.354.76-.786V35.18zm-21.246 0c0-.433-.342-.787-.76-.787s-.76.354-.76.787v27.524c0 .432.342.786.76.786s.76-.354.76-.786V35.18zM108.92 50.003c0-.432-.38-.747-.798-.747-.418 0-.722.394-.722.826.304 7.51 6.043 13.801 14.025 13.801 8.171 0 13.949-6.645 13.949-14.902 0-8.375-5.702-14.981-13.949-14.981-7.906 0-13.645 6.213-14.025 13.684-.038.432.304.786.722.825.418.04.76-.314.798-.747.304-6.724 5.435-12.268 12.505-12.268 7.411 0 12.428 6.016 12.428 13.487 0 7.392-5.093 13.408-12.428 13.408-7.146 0-12.201-5.662-12.505-12.386zM147.082 63.097c.114.393.532.63.95.472.38-.079.609-.55.456-.983l-8.209-27.642a.781.781 0 00-.95-.512c-.381.118-.609.551-.495.983l8.248 27.682zm11.897-27.681c.114-.394-.038-.826-.456-.983-.38-.118-.799.078-.951.51l-8.285 27.643c-.152.393.076.826.494.944.38.118.76-.079.874-.512l8.324-27.602zm18.776.039c.152-.433-.038-.865-.418-.983a.715.715 0 00-.951.472l-8.247 27.642c-.152.432.076.865.456.983.418.157.798-.079.912-.472l8.248-27.642zm-11.897 27.603c.152.432.57.629.95.51.418-.117.608-.589.494-.982l-6.993-23.592c-.152-.433-.57-.63-.95-.511a.803.803 0 00-.494.983l6.993 23.592zM184.57 58.93c.304.274.798.314 1.102.038.266-.314.304-.825.038-1.14-1.672-1.848-2.927-4.954-2.927-8.69 0-3.774 1.141-6.802 3.117-9.122a.818.818 0 00-.076-1.1.753.753 0 00-1.064.078c-2.205 2.556-3.497 5.898-3.497 10.144 0 4.208 1.482 7.707 3.307 9.791zm20.41 1.847a.868.868 0 00.038-1.14.798.798 0 00-1.102-.04c-1.939 1.888-5.131 2.792-8.172 2.792-2.432 0-6.385-1.022-8.514-2.91a.753.753 0 00-1.064.08.818.818 0 00.076 1.1c2.357 2.123 6.765 3.224 9.502 3.224 3.421 0 6.994-.983 9.236-3.106zm-18.51-23.553a.829.829 0 00-.152 1.101.765.765 0 001.064.157c2.357-1.847 4.713-2.988 8.362-2.988 2.851 0 6.119 1.023 8.172 3.106a.718.718 0 001.064 0c.304-.275.304-.825 0-1.1-2.242-2.36-6.005-3.5-9.236-3.5-4.029 0-6.727 1.219-9.274 3.224zM208.719 62.39c-.152.392-.038.864.342 1.022.38.196.836 0 .988-.394l10.947-27.917c.152-.393 0-.865-.38-1.022-.38-.197-.799 0-.951.393l-10.946 27.917zM223.2 34.471c-.152-.393-.608-.59-.988-.393-.38.157-.532.629-.38 1.022l10.946 27.917c.152.394.608.59.988.394.38-.158.532-.63.38-1.023L223.2 34.472zm-6.917 15.925a.768.768 0 00-.76.747c0 .393.342.747.76.747h10.262c.418 0 .76-.354.76-.747a.768.768 0 00-.76-.747h-10.262zM238.889 57.592c-.19-.314-.684-.432-.988-.196-.342.236-.456.707-.228 1.061 1.977 3.107 6.728 5.387 10.87 5.387 7.488 0 10.833-3.735 11.175-6.999.038-.393-.304-.786-.684-.826-.38-.039-.798.276-.836.669-.267 2.792-3.535 5.701-9.655 5.701-3.686 0-7.905-2.005-9.654-4.797zm-.342-16.318c0 .393.38.747.761.747.38 0 .76-.354.76-.747 0-2.595 3.268-5.78 8.399-5.78 4.409 0 7.336 1.298 9.312 3.146a.742.742 0 001.027-.04.806.806 0 00-.038-1.061c-2.205-2.084-5.436-3.5-10.301-3.5-6.499 0-9.92 4.168-9.92 7.235zm19.613 13.37c.076.392.494.668.874.628.38-.078.684-.471.646-.865-.38-2.477-2.813-3.932-5.435-4.718-3.231-.983-6.804-1.73-9.768-2.674-2.015-.63-4.029-1.69-4.333-3.617-.076-.394-.494-.669-.874-.63-.381.08-.685.472-.647.865.38 2.438 2.851 4.011 5.398 4.798 2.964.943 6.613 1.69 9.844 2.673 1.938.63 3.99 1.573 4.295 3.54zM283.24 35.887c.418 0 .76-.354.76-.747a.768.768 0 00-.76-.747h-16.382c-.418 0-.76.354-.76.787v27.524c0 .432.342.786.76.786s.76-.354.76-.786V35.887h15.622zm-14.139 26.11a.768.768 0 00-.76.746c0 .393.342.747.76.747h14.139c.418 0 .76-.354.76-.747a.768.768 0 00-.76-.747h-14.139zm0-14.156a.768.768 0 00-.76.747c0 .393.342.747.76.747h13.379c.418 0 .76-.354.76-.747a.768.768 0 00-.76-.747h-13.379zM75.832 106.782c0-2.713-1.102-4.994-3.116-6.331l-1.445-.353v-.394l.989-.393c1.938-1.258 3.192-3.303 3.192-6.252 0-4.679-3.724-7.55-8.704-7.55h-6.005a.742.742 0 00-.76.748c0 .432.342.747.76.747h6.005c3.915 0 7.184 2.162 7.184 6.055 0 3.775-2.699 5.623-5.815 6.213a.798.798 0 00-.608.786c0 .393.304.708.874.708 3.687 0 5.929 2.556 5.929 6.016 0 4.011-2.965 6.331-7.602 6.331h-5.967a.742.742 0 00-.76.747c0 .432.342.747.76.747h5.967c5.778 0 9.122-3.028 9.122-7.825zM58.501 85.51c-.418 0-.76.354-.76.786v27.524c0 .433.342.787.76.787s.76-.354.76-.787V86.296c0-.432-.342-.786-.76-.786zm1.482 14.509c0 .432.342.747.76.747h5.283c.418 0 .76-.315.76-.747a.742.742 0 00-.76-.747h-5.283a.742.742 0 00-.76.747zM85.686 85.51a.742.742 0 00-.76.747c0 .432.342.747.76.747h7.373c3.84 0 6.956 2.674 6.956 6.488 0 3.932-3.193 6.527-7.07 6.527h-2.128c-.684 0-1.026.668-.57 1.219l10.414 13.094c.228.314.722.393 1.064.118.304-.236.342-.787.076-1.141l-8.856-11.088-.836-.787v-.353l.837.432c4.788 0 8.589-3.224 8.589-8.021 0-4.68-3.724-7.982-8.475-7.982h-7.374zm-3.003 28.31c0 .433.342.787.76.787.419 0 .76-.354.76-.787v-12.307h4.371c.419 0 .76-.314.76-.747a.742.742 0 00-.76-.747h-5.13a.742.742 0 00-.76.747v13.054zm0-15.335c0 .433.342.787.76.787.419 0 .76-.354.76-.787V86.296c0-.432-.341-.786-.76-.786-.418 0-.76.354-.76.786v12.19zM113.275 88.537c0-.432-.342-.786-.76-.786s-.76.354-.76.786v23.042c0 .433.342.787.76.787s.76-.354.76-.787V88.537zm-4.865 24.576a.767.767 0 00-.76.747c0 .393.342.747.76.747h8.21c.418 0 .76-.354.76-.747a.767.767 0 00-.76-.747h-8.21zm0-27.603a.768.768 0 00-.76.747c0 .393.342.747.76.747h8.21c.418 0 .76-.354.76-.747a.768.768 0 00-.76-.747h-8.21zM141.174 87.004c.418 0 .76-.354.76-.747a.768.768 0 00-.76-.747h-16.382c-.418 0-.76.354-.76.786v27.524c0 .433.342.787.76.787s.76-.354.76-.787V87.004h15.622zm-14.139 26.109a.767.767 0 00-.761.747c0 .393.342.747.761.747h14.139c.418 0 .76-.354.76-.747a.767.767 0 00-.76-.747h-14.139zm0-14.156a.768.768 0 00-.761.747c0 .394.342.747.761.747h13.378a.768.768 0 00.761-.747.769.769 0 00-.761-.747h-13.378zM150.492 85.51a.768.768 0 00-.76.747c0 .393.342.747.76.747h12.276a.769.769 0 00.761-.747.769.769 0 00-.761-.747h-12.276zm.038 13.447a.768.768 0 00-.76.747c0 .433.342.747.76.747h11.592c.418 0 .76-.314.76-.747a.768.768 0 00-.76-.747H150.53zm-1.483-12.7c0-.433-.342-.787-.76-.787s-.76.354-.76.787v27.563c0 .433.342.787.76.787s.76-.354.76-.787V86.257zM174.296 88.537c0-.432-.342-.786-.76-.786a.777.777 0 00-.761.786v23.042c0 .433.343.787.761.787s.76-.354.76-.787V88.537zm-4.865 24.576a.767.767 0 00-.76.747c0 .393.342.747.76.747h8.21c.418 0 .76-.354.76-.747a.767.767 0 00-.76-.747h-8.21zm0-27.603a.768.768 0 00-.76.747c0 .393.342.747.76.747h8.21c.418 0 .76-.354.76-.747a.768.768 0 00-.76-.747h-8.21zM185.053 113.82c0 .433.342.787.76.787s.76-.354.76-.787V86.296c0-.432-.342-.786-.76-.786s-.76.354-.76.786v27.524zm3.61-27.956c-.228-.354-.684-.472-1.026-.236-.342.236-.418.747-.19 1.1l17.294 27.525c.228.354.684.472 1.026.236.342-.236.418-.747.19-1.101l-17.294-27.524zm18.168 27.956c0 .433.342.787.76.787a.776.776 0 00.761-.787V86.296a.776.776 0 00-.761-.786c-.418 0-.76.354-.76.786v27.524zM229.752 101.395a.769.769 0 00-.761.747c0 .393.343.747.761.747h11.212c.418 0 .76-.354.76-.747a.768.768 0 00-.76-.747h-11.212zm8.855 3.028c0-.433-.342-.787-.76-.787s-.76.354-.76.787v9.397c0 .433.342.787.76.787s.76-.354.76-.787v-9.397zm-2.66 6.96c.38-.236.494-.708.266-1.062-.228-.393-.684-.511-1.026-.275l-5.245 3.381c-.342.039-.76.079-1.331.079-6.461 0-12.96-4.168-12.96-13.251 0-8.021 5.207-13.644 12.96-13.644 2.851 0 6.12 1.022 8.172 3.106a.718.718 0 001.064 0c.304-.275.304-.826 0-1.101-2.242-2.36-6.005-3.5-9.236-3.5-8.665 0-14.481 6.213-14.481 15.139 0 10.145 7.26 14.745 14.481 14.745.685 0 1.673-.079 2.015-.275l5.321-3.342z"/></svg>
