<svg width="284" height="83" viewBox="0 0 284 83" fill="none" xmlns="http://www.w3.org/2000/svg">
  <path d="M18.6525 1.92C19.0925 1.92 19.4525 1.56 19.4525 1.16C19.4525 0.76 19.0925 0.4 18.6525 0.4H1.4125C0.9725 0.4 0.6125 0.76 0.6125 1.2V29.2C0.6125 29.64 0.9725 30 1.4125 30C1.8525 30 2.2125 29.64 2.2125 29.2V1.92H18.6525ZM3.7725 28.48C3.3325 28.48 2.9725 28.84 2.9725 29.24C2.9725 29.64 3.3325 30 3.7725 30H18.6525C19.0925 30 19.4525 29.64 19.4525 29.24C19.4525 28.84 19.0925 28.48 18.6525 28.48H3.7725ZM3.7725 14.08C3.3325 14.08 2.9725 14.44 2.9725 14.84C2.9725 15.24 3.3325 15.6 3.7725 15.6H17.8525C18.2925 15.6 18.6525 15.24 18.6525 14.84C18.6525 14.44 18.2925 14.08 17.8525 14.08H3.7725ZM34.9588 19.96C35.2788 19.96 35.5188 19.6 35.5188 19.2C35.5188 18.8 35.2788 18.44 34.9588 18.44H22.0788C21.7988 18.44 21.5188 18.8 21.5188 19.2C21.5188 19.6 21.7988 19.96 22.0788 19.96H34.9588ZM39.1653 24C38.9653 23.68 38.4453 23.56 38.1253 23.8C37.7653 24.04 37.6453 24.52 37.8853 24.88C39.9653 28.04 44.9653 30.36 49.3253 30.36C57.2053 30.36 60.7253 26.56 61.0853 23.24C61.1253 22.84 60.7653 22.44 60.3653 22.4C59.9653 22.36 59.5253 22.68 59.4853 23.08C59.2053 25.92 55.7653 28.88 49.3253 28.88C45.4453 28.88 41.0053 26.84 39.1653 24ZM38.8053 7.4C38.8053 7.8 39.2053 8.16 39.6053 8.16C40.0053 8.16 40.4053 7.8 40.4053 7.4C40.4053 4.76 43.8453 1.52 49.2453 1.52C53.8853 1.52 56.9653 2.84 59.0453 4.72C59.3653 5 59.8453 4.96 60.1253 4.68C60.4053 4.36 60.3653 3.88 60.0853 3.6C57.7653 1.48 54.3653 0.0399995 49.2453 0.0399995C42.4053 0.0399995 38.8053 4.28 38.8053 7.4ZM59.4453 21C59.5253 21.4 59.9653 21.68 60.3653 21.64C60.7653 21.56 61.0853 21.16 61.0453 20.76C60.6453 18.24 58.0853 16.76 55.3253 15.96C51.9253 14.96 48.1653 14.2 45.0453 13.24C42.9253 12.6 40.8053 11.52 40.4853 9.56C40.4053 9.16 39.9653 8.88 39.5653 8.92C39.1653 9 38.8453 9.4 38.8853 9.8C39.2853 12.28 41.8853 13.88 44.5653 14.68C47.6853 15.64 51.5253 16.4 54.9253 17.4C56.9653 18.04 59.1253 19 59.4453 21ZM70.96 14.08C70.52 14.08 70.16 14.44 70.16 14.84C70.16 15.24 70.52 15.6 70.96 15.6H88.6C89.04 15.6 89.4 15.24 89.4 14.84C89.4 14.44 89.04 14.08 88.6 14.08H70.96ZM91.76 1.2C91.76 0.76 91.4 0.4 90.96 0.4C90.52 0.4 90.16 0.76 90.16 1.2V29.2C90.16 29.64 90.52 30 90.96 30C91.4 30 91.76 29.64 91.76 29.2V1.2ZM69.4 1.2C69.4 0.76 69.04 0.4 68.6 0.4C68.16 0.4 67.8 0.76 67.8 1.2V29.2C67.8 29.64 68.16 30 68.6 30C69.04 30 69.4 29.64 69.4 29.2V1.2ZM99.4547 16.28C99.4547 15.84 99.0547 15.52 98.6147 15.52C98.1747 15.52 97.8547 15.92 97.8547 16.36C98.1747 24 104.215 30.4 112.615 30.4C121.215 30.4 127.295 23.64 127.295 15.24C127.295 6.72 121.295 -2.38419e-06 112.615 -2.38419e-06C104.295 -2.38419e-06 98.2547 6.32 97.8547 13.92C97.8147 14.36 98.1747 14.72 98.6147 14.76C99.0547 14.8 99.4147 14.44 99.4547 14C99.7747 7.16 105.175 1.52 112.615 1.52C120.415 1.52 125.695 7.64 125.695 15.24C125.695 22.76 120.335 28.88 112.615 28.88C105.095 28.88 99.7747 23.12 99.4547 16.28ZM139.617 29.6C139.737 30 140.177 30.24 140.617 30.08C141.017 30 141.257 29.52 141.097 29.08L132.457 0.96C132.337 0.559998 131.857 0.319998 131.457 0.439999C131.057 0.559998 130.817 0.999999 130.937 1.44L139.617 29.6ZM152.137 1.44C152.257 1.04 152.097 0.599999 151.657 0.439999C151.257 0.319998 150.817 0.519998 150.657 0.96L141.937 29.08C141.777 29.48 142.017 29.92 142.457 30.04C142.857 30.16 143.257 29.96 143.377 29.52L152.137 1.44ZM171.897 1.48C172.057 1.04 171.857 0.599999 171.457 0.479999C171.017 0.319998 170.577 0.559998 170.457 0.96L161.777 29.08C161.617 29.52 161.857 29.96 162.257 30.08C162.697 30.24 163.097 30 163.217 29.6L171.897 1.48ZM159.377 29.56C159.537 30 159.977 30.2 160.377 30.08C160.817 29.96 161.017 29.48 160.897 29.08L153.537 5.08C153.377 4.64 152.937 4.44 152.537 4.56C152.097 4.72 151.897 5.16 152.017 5.56L159.377 29.56ZM179.069 25.36C179.389 25.64 179.909 25.68 180.229 25.4C180.509 25.08 180.549 24.56 180.269 24.24C178.509 22.36 177.189 19.2 177.189 15.4C177.189 11.56 178.389 8.48 180.469 6.12C180.749 5.8 180.709 5.28 180.389 5C180.069 4.72 179.549 4.76 179.269 5.08C176.949 7.68 175.589 11.08 175.589 15.4C175.589 19.68 177.149 23.24 179.069 25.36ZM200.549 27.24C200.869 26.92 200.869 26.4 200.589 26.08C200.269 25.76 199.749 25.76 199.429 26.04C197.389 27.96 194.029 28.88 190.829 28.88C188.269 28.88 184.109 27.84 181.869 25.92C181.549 25.64 181.029 25.68 180.749 26C180.469 26.32 180.509 26.84 180.829 27.12C183.309 29.28 187.949 30.4 190.829 30.4C194.429 30.4 198.189 29.4 200.549 27.24ZM181.069 3.28C180.709 3.56 180.669 4.08 180.909 4.4C181.189 4.76 181.709 4.8 182.029 4.56C184.509 2.68 186.989 1.52 190.829 1.52C193.829 1.52 197.269 2.56 199.429 4.68C199.709 5 200.269 5 200.549 4.68C200.869 4.4 200.869 3.84 200.549 3.56C198.189 1.16 194.229 -2.38419e-06 190.829 -2.38419e-06C186.589 -2.38419e-06 183.749 1.24 181.069 3.28ZM204.484 28.88C204.324 29.28 204.444 29.76 204.844 29.92C205.244 30.12 205.724 29.92 205.884 29.52L217.404 1.12C217.564 0.719998 217.404 0.239999 217.004 0.079999C216.604 -0.120001 216.164 0.079999 216.004 0.479999L204.484 28.88ZM219.724 0.479999C219.564 0.079999 219.084 -0.120001 218.684 0.079999C218.284 0.239999 218.124 0.719998 218.284 1.12L229.804 29.52C229.964 29.92 230.444 30.12 230.844 29.92C231.244 29.76 231.404 29.28 231.244 28.88L219.724 0.479999ZM212.444 16.68C212.004 16.68 211.644 17.04 211.644 17.44C211.644 17.84 212.004 18.2 212.444 18.2H223.244C223.684 18.2 224.044 17.84 224.044 17.44C224.044 17.04 223.684 16.68 223.244 16.68H212.444ZM236.236 24C236.036 23.68 235.516 23.56 235.196 23.8C234.836 24.04 234.716 24.52 234.956 24.88C237.036 28.04 242.036 30.36 246.396 30.36C254.276 30.36 257.796 26.56 258.156 23.24C258.196 22.84 257.836 22.44 257.436 22.4C257.036 22.36 256.596 22.68 256.556 23.08C256.276 25.92 252.836 28.88 246.396 28.88C242.516 28.88 238.076 26.84 236.236 24ZM235.876 7.4C235.876 7.8 236.276 8.16 236.676 8.16C237.076 8.16 237.476 7.8 237.476 7.4C237.476 4.76 240.916 1.52 246.316 1.52C250.956 1.52 254.036 2.84 256.116 4.72C256.436 5 256.916 4.96 257.196 4.68C257.476 4.36 257.436 3.88 257.156 3.6C254.836 1.48 251.436 0.0399995 246.316 0.0399995C239.476 0.0399995 235.876 4.28 235.876 7.4ZM256.516 21C256.596 21.4 257.036 21.68 257.436 21.64C257.836 21.56 258.156 21.16 258.116 20.76C257.716 18.24 255.156 16.76 252.396 15.96C248.996 14.96 245.236 14.2 242.116 13.24C239.996 12.6 237.876 11.52 237.556 9.56C237.476 9.16 237.036 8.88 236.636 8.92C236.236 9 235.916 9.4 235.956 9.8C236.356 12.28 238.956 13.88 241.636 14.68C244.756 15.64 248.596 16.4 251.996 17.4C254.036 18.04 256.196 19 256.516 21ZM282.91 1.92C283.35 1.92 283.71 1.56 283.71 1.16C283.71 0.76 283.35 0.4 282.91 0.4H265.67C265.23 0.4 264.87 0.76 264.87 1.2V29.2C264.87 29.64 265.23 30 265.67 30C266.11 30 266.47 29.64 266.47 29.2V1.92H282.91ZM268.03 28.48C267.59 28.48 267.23 28.84 267.23 29.24C267.23 29.64 267.59 30 268.03 30H282.91C283.35 30 283.71 29.64 283.71 29.24C283.71 28.84 283.35 28.48 282.91 28.48H268.03ZM268.03 14.08C267.59 14.08 267.23 14.44 267.23 14.84C267.23 15.24 267.59 15.6 268.03 15.6H282.11C282.55 15.6 282.91 15.24 282.91 14.84C282.91 14.44 282.55 14.08 282.11 14.08H268.03ZM64.633 74.04C64.633 71.28 63.473 68.96 61.353 67.6L59.833 67.24V66.84L60.873 66.44C62.913 65.16 64.233 63.08 64.233 60.08C64.233 55.32 60.313 52.4 55.073 52.4H48.753C48.313 52.4 47.953 52.72 47.953 53.16C47.953 53.6 48.313 53.92 48.753 53.92H55.073C59.193 53.92 62.633 56.12 62.633 60.08C62.633 63.92 59.793 65.8 56.513 66.4C56.153 66.48 55.873 66.8 55.873 67.2C55.873 67.6 56.193 67.92 56.793 67.92C60.673 67.92 63.033 70.52 63.033 74.04C63.033 78.12 59.913 80.48 55.033 80.48H48.753C48.313 80.48 47.953 80.8 47.953 81.24C47.953 81.68 48.313 82 48.753 82H55.033C61.113 82 64.633 78.92 64.633 74.04ZM46.393 52.4C45.953 52.4 45.593 52.76 45.593 53.2V81.2C45.593 81.64 45.953 82 46.393 82C46.833 82 47.193 81.64 47.193 81.2V53.2C47.193 52.76 46.833 52.4 46.393 52.4ZM47.953 67.16C47.953 67.6 48.313 67.92 48.753 67.92H54.313C54.753 67.92 55.113 67.6 55.113 67.16C55.113 66.72 54.753 66.4 54.313 66.4H48.753C48.313 66.4 47.953 66.72 47.953 67.16ZM75.003 52.4C74.563 52.4 74.203 52.72 74.203 53.16C74.203 53.6 74.563 53.92 75.003 53.92H82.763C86.803 53.92 90.083 56.64 90.083 60.52C90.083 64.52 86.723 67.16 82.643 67.16H80.403C79.683 67.16 79.323 67.84 79.803 68.4L90.763 81.72C91.003 82.04 91.523 82.12 91.883 81.84C92.203 81.6 92.243 81.04 91.963 80.68L82.643 69.4L81.763 68.6V68.24L82.643 68.68C87.683 68.68 91.683 65.4 91.683 60.52C91.683 55.76 87.763 52.4 82.763 52.4H75.003ZM71.843 81.2C71.843 81.64 72.203 82 72.643 82C73.083 82 73.443 81.64 73.443 81.2V68.68H78.043C78.483 68.68 78.843 68.36 78.843 67.92C78.843 67.48 78.483 67.16 78.043 67.16H72.643C72.203 67.16 71.843 67.48 71.843 67.92V81.2ZM71.843 65.6C71.843 66.04 72.203 66.4 72.643 66.4C73.083 66.4 73.443 66.04 73.443 65.6V53.2C73.443 52.76 73.083 52.4 72.643 52.4C72.203 52.4 71.843 52.76 71.843 53.2V65.6ZM104.038 55.48C104.038 55.04 103.678 54.68 103.238 54.68C102.798 54.68 102.438 55.04 102.438 55.48V78.92C102.438 79.36 102.798 79.72 103.238 79.72C103.678 79.72 104.038 79.36 104.038 78.92V55.48ZM98.918 80.48C98.478 80.48 98.118 80.84 98.118 81.24C98.118 81.64 98.478 82 98.918 82H107.558C107.998 82 108.358 81.64 108.358 81.24C108.358 80.84 107.998 80.48 107.558 80.48H98.918ZM98.918 52.4C98.478 52.4 98.118 52.76 98.118 53.16C98.118 53.56 98.478 53.92 98.918 53.92H107.558C107.998 53.92 108.358 53.56 108.358 53.16C108.358 52.76 107.998 52.4 107.558 52.4H98.918ZM133.399 53.92C133.839 53.92 134.199 53.56 134.199 53.16C134.199 52.76 133.839 52.4 133.399 52.4H116.159C115.719 52.4 115.359 52.76 115.359 53.2V81.2C115.359 81.64 115.719 82 116.159 82C116.599 82 116.959 81.64 116.959 81.2V53.92H133.399ZM118.519 80.48C118.079 80.48 117.719 80.84 117.719 81.24C117.719 81.64 118.079 82 118.519 82H133.399C133.839 82 134.199 81.64 134.199 81.24C134.199 80.84 133.839 80.48 133.399 80.48H118.519ZM118.519 66.08C118.079 66.08 117.719 66.44 117.719 66.84C117.719 67.24 118.079 67.6 118.519 67.6H132.599C133.039 67.6 133.399 67.24 133.399 66.84C133.399 66.44 133.039 66.08 132.599 66.08H118.519ZM143.205 52.4C142.765 52.4 142.405 52.76 142.405 53.16C142.405 53.56 142.765 53.92 143.205 53.92H156.125C156.565 53.92 156.925 53.56 156.925 53.16C156.925 52.76 156.565 52.4 156.125 52.4H143.205ZM143.245 66.08C142.805 66.08 142.445 66.44 142.445 66.84C142.445 67.28 142.805 67.6 143.245 67.6H155.445C155.885 67.6 156.245 67.28 156.245 66.84C156.245 66.44 155.885 66.08 155.445 66.08H143.245ZM141.685 53.16C141.685 52.72 141.325 52.36 140.885 52.36C140.445 52.36 140.085 52.72 140.085 53.16V81.2C140.085 81.64 140.445 82 140.885 82C141.325 82 141.685 81.64 141.685 81.2V53.16ZM168.257 55.48C168.257 55.04 167.897 54.68 167.457 54.68C167.017 54.68 166.657 55.04 166.657 55.48V78.92C166.657 79.36 167.017 79.72 167.457 79.72C167.897 79.72 168.257 79.36 168.257 78.92V55.48ZM163.137 80.48C162.697 80.48 162.337 80.84 162.337 81.24C162.337 81.64 162.697 82 163.137 82H171.777C172.217 82 172.577 81.64 172.577 81.24C172.577 80.84 172.217 80.48 171.777 80.48H163.137ZM163.137 52.4C162.697 52.4 162.337 52.76 162.337 53.16C162.337 53.56 162.697 53.92 163.137 53.92H171.777C172.217 53.92 172.577 53.56 172.577 53.16C172.577 52.76 172.217 52.4 171.777 52.4H163.137ZM179.577 81.2C179.577 81.64 179.937 82 180.377 82C180.817 82 181.177 81.64 181.177 81.2V53.2C181.177 52.76 180.817 52.4 180.377 52.4C179.937 52.4 179.577 52.76 179.577 53.2V81.2ZM183.377 52.76C183.137 52.4 182.657 52.28 182.297 52.52C181.937 52.76 181.857 53.28 182.097 53.64L200.297 81.64C200.537 82 201.017 82.12 201.377 81.88C201.737 81.64 201.817 81.12 201.577 80.76L183.377 52.76ZM202.497 81.2C202.497 81.64 202.857 82 203.297 82C203.737 82 204.097 81.64 204.097 81.2V53.2C204.097 52.76 203.737 52.4 203.297 52.4C202.857 52.4 202.497 52.76 202.497 53.2V81.2ZM226.619 68.56C226.179 68.56 225.819 68.92 225.819 69.32C225.819 69.72 226.179 70.08 226.619 70.08H238.419C238.859 70.08 239.219 69.72 239.219 69.32C239.219 68.92 238.859 68.56 238.419 68.56H226.619ZM235.939 71.64C235.939 71.2 235.579 70.84 235.139 70.84C234.699 70.84 234.339 71.2 234.339 71.64V81.2C234.339 81.64 234.699 82 235.139 82C235.579 82 235.939 81.64 235.939 81.2V71.64ZM233.139 78.72C233.539 78.48 233.659 78 233.419 77.64C233.179 77.24 232.699 77.12 232.339 77.36L226.819 80.8C226.459 80.84 226.019 80.88 225.419 80.88C218.619 80.88 211.779 76.64 211.779 67.4C211.779 59.24 217.259 53.52 225.419 53.52C228.419 53.52 231.859 54.56 234.019 56.68C234.299 57 234.859 57 235.139 56.68C235.459 56.4 235.459 55.84 235.139 55.56C232.779 53.16 228.819 52 225.419 52C216.299 52 210.179 58.32 210.179 67.4C210.179 77.72 217.819 82.4 225.419 82.4C226.139 82.4 227.179 82.32 227.539 82.12L233.139 78.72Z" fill="white"/>
</svg>
