<svg width="97" height="141" viewBox="0 0 97 141" fill="none" xmlns="http://www.w3.org/2000/svg">
  <path d="M58.5515 82.991C58.6242 85.0416 59.4008 87.0012 60.7461 88.5287C63.0645 91.2875 65.5066 93.9535 67.9747 96.5864C70.2931 99.0667 72.8133 101.355 75.0601 103.881C76.4906 105.531 77.7437 107.332 78.7981 109.253C79.2862 110.185 79.4638 111.252 79.3041 112.295C79.1443 113.339 78.6559 114.3 77.9124 115.036C77.1699 115.841 76.1992 116.39 75.1358 116.607C74.0723 116.823 72.969 116.696 71.9798 116.243C70.9103 115.71 69.9336 115.002 69.0883 114.148C65.6759 110.599 62.4393 106.852 58.9553 103.404C56.1745 100.632 53.1398 98.1316 50.1898 95.5385C49.9228 95.3064 49.4539 95.313 49.0762 95.2069C49.0176 95.6247 48.7636 96.1686 48.9329 96.4338C49.7551 97.8411 50.6964 99.1726 51.7462 100.413C56.0117 105.108 60.4075 109.698 64.6665 114.406C66.1969 116.104 67.4733 118.047 68.8604 119.877C69.6679 120.939 70.3712 121.953 69.7395 123.472C69.3912 124.468 68.7817 125.349 67.9771 126.018C67.1726 126.686 66.2037 127.118 65.1754 127.267C64.147 127.415 63.0984 127.274 62.1432 126.859C61.188 126.443 60.3625 125.77 59.7563 124.911C59.1359 123.935 58.313 123.109 57.3454 122.491C56.3778 121.874 55.289 121.479 54.1557 121.336C52.3323 121.091 52.0718 120.176 52.2476 118.684C52.277 118.242 52.277 117.799 52.2476 117.357C52.1239 113.252 49.76 110.513 45.7875 109.93C44.8367 109.784 43.8664 109.804 42.7137 109.737C42.857 108.577 43.0458 107.536 43.0979 106.488C43.3128 101.912 40.6558 98.629 36.234 97.9326C34.0654 97.5944 34.0654 97.5944 33.9287 95.4589C33.4663 88.1971 28.0676 85.1663 21.868 88.9199C19.7645 90.1999 17.9606 92.0502 16.1632 93.7811C13.8905 95.963 11.7479 98.2841 9.25375 100.851C6.53163 94.7692 2.51356 89.8086 1.17204 83.6078C-1.04864 73.3748 -0.442997 63.4005 5.81528 54.547C11.0707 47.1326 18.143 43.107 27.3122 42.8617C34.391 42.6693 40.4865 44.9905 46.0154 49.2349C47.8844 50.674 47.93 51.0454 46.3931 52.9222C45.6312 53.8507 44.7585 54.6929 43.938 55.5749C39.666 60.1244 35.3809 64.6606 31.1349 69.2366C30.2497 70.2046 29.4438 71.2448 28.7254 72.3469C26.8173 75.2185 26.8433 76.2067 29.1357 78.7599C31.8382 81.7708 35.153 82.9645 39.1255 81.7973C43.2041 80.582 46.9289 78.3689 49.9749 75.3511C52.163 73.229 54.1362 70.8614 56.1159 68.5336C57.77 66.5905 57.7896 66.544 59.6521 68.1821C64.4386 72.3602 68.5478 77.2014 72.7352 81.9764C74.5051 83.9147 76.3699 85.7607 78.3227 87.5073C82.0803 91.0222 86.0267 94.3514 88.4688 99.0401C89.6345 101.282 89.3284 102.979 87.5831 104.717C86.1179 106.169 84.327 106.707 82.5426 105.752C80.7007 104.821 79.0007 103.624 77.4956 102.197C71.83 96.5665 66.3076 90.7835 60.7266 85.0602C60.2121 84.523 59.6521 84.0256 58.5515 82.991Z" fill="white"/>
  <path d="M96.9215 77.2014C97.1546 83.4183 95.3618 89.5391 91.8224 94.61C90.774 96.1619 90.6437 96.2348 89.3934 94.9615C83.2718 88.7143 77.1959 82.414 71.1135 76.127C66.95 71.7986 62.7821 67.4658 58.6099 63.1286C57.7894 62.2665 57.1642 62.4057 56.4804 63.248C54.5485 65.6266 52.6078 67.9964 50.6585 70.3573C47.9103 73.6732 44.9277 76.6708 40.9878 78.5344C37.927 79.9801 35.0616 79.4496 32.3134 77.8115C30.4965 76.7239 30.2556 75.5235 31.2845 73.6335C31.4889 73.246 31.7358 72.8833 32.0204 72.5525C37.5232 66.4512 42.9805 60.3034 48.529 54.2883C53.4396 48.865 60.2334 45.6055 67.4666 45.2027C73.4709 44.8114 79.0063 46.8142 83.8514 50.4551C91.2949 56.0524 95.3846 63.7188 96.8759 72.904C97.0052 74.3328 97.0205 75.77 96.9215 77.2014Z" fill="white"/>
  <path d="M48.8873 38.4648C45.9568 30.8713 46.4712 23.4768 49.4473 16.2016C51.6243 11.0202 54.5287 6.18821 58.0695 1.85692C58.3444 1.4532 58.7101 1.1222 59.136 0.891483C59.5619 0.660771 60.0358 0.537025 60.5181 0.530551C65.487 0.358123 70.4558 -0.132635 75.4117 2.224e-06C82.0932 0.172431 88.4948 1.6447 93.9716 5.90899C94.5186 6.34006 94.994 6.87724 95.9904 7.83886C93.4571 7.26189 91.5751 6.86398 89.7126 6.40638C86.1699 5.53098 82.6337 5.94215 79.0911 6.40638C71.1657 7.45422 64.0348 10.3855 58.1607 16.0027C55.3207 18.6582 53.0361 21.87 51.4437 25.4459C49.8514 29.0218 48.9841 32.8882 48.8938 36.8135C48.8417 37.3573 48.8873 37.9011 48.8873 38.4648Z" fill="white"/>
  <path d="M54.3057 24.4191C62.7716 10.9498 79.9639 5.90962 93.7113 9.48419C88.5927 11.3345 85.1998 14.9091 82.5949 19.3259C81.833 20.6058 80.8952 21.2425 79.4039 21.0104C78.3359 20.8446 77.2613 20.765 76.1868 20.6721C68.7824 19.9957 61.5147 20.1946 54.3057 24.4191Z" fill="white"/>
  <path d="M40.8579 105.951C40.1611 107.648 39.6597 109.472 38.7349 111.024C36.4947 114.778 33.2516 117.537 29.6178 119.851C29.0772 120.203 28.413 120.342 27.8464 120.66C25.1308 122.166 21.6663 119.506 21.5686 116.509C21.4842 115.303 21.6461 114.093 22.044 112.954C23.1081 110.169 24.7658 107.659 26.8976 105.605C29.0293 103.551 31.5821 102.004 34.3717 101.076C34.4694 101.076 34.5736 100.99 34.6778 100.963C38.3181 100.055 40.5844 101.945 40.8579 105.951Z" fill="white"/>
  <path d="M30.6987 94.4108C30.6362 95.1986 30.472 95.9746 30.2103 96.7187C29.0622 99.5204 27.3764 102.061 25.2517 104.19C23.127 106.32 20.6062 107.996 17.837 109.12C15.5252 110.082 13.8125 109.412 12.6272 107.356C12.3465 106.89 12.171 106.366 12.1136 105.823C12.0561 105.279 12.1181 104.729 12.2951 104.213C13.4087 100.234 15.7987 97.1365 18.6381 94.4042C20.6699 92.461 22.8515 90.624 25.7104 89.8813C28.8623 89.0523 30.7118 90.4317 30.6987 94.4108Z" fill="white"/>
  <path d="M49.5386 117.536C49.3549 118.401 49.1 119.248 48.7767 120.069C46.4062 125.302 42.4077 128.863 37.3672 131.277C35.6089 132.12 33.9092 132.159 32.2941 130.614C30.6791 129.069 30.2753 127.298 31.2392 125.309C34.0459 119.433 38.2203 114.996 44.4395 112.967C47.5393 111.926 49.6232 113.709 49.5386 117.536Z" fill="white"/>
  <path d="M51.0753 38.8172C50.6623 36.0755 51.0827 33.2708 52.28 30.7794C53.0454 29.22 54.1106 27.833 55.4124 26.7008C57.848 24.5521 60.9022 23.7032 64.0346 23.1395C68.8863 22.2773 73.7314 22.5426 78.583 23.1395C80.1069 23.3185 80.2632 23.544 79.7682 24.9964C79.5924 25.5137 79.3319 26.0111 79.1561 26.5283C78.0686 29.6586 78.0751 29.5856 74.6822 29.6851C71.2893 29.7846 67.9811 29.9835 64.6403 30.2621C58.8183 30.7329 53.9927 33.0209 51.0753 38.8172Z" fill="white"/>
  <path d="M47.4352 43.87C44.0162 39.1282 40.8187 34.2671 37.2305 29.7508C33.2124 24.6973 28.8492 19.8958 23.1054 16.7987C21.1874 15.8101 19.1669 15.0427 17.0816 14.5108C15.7075 14.1394 15.5968 13.3966 15.9354 12.3554C16.1833 11.626 16.5391 10.9395 16.9904 10.3194C18.4491 8.23038 19.4911 7.8391 21.6206 9.21852C24.4675 11.0025 27.166 13.0209 29.6893 15.2535C34.9772 20.0815 38.9693 25.9772 42.3296 32.3173C44.1074 35.7062 45.5857 39.2542 47.2007 42.7426C47.3184 43.1087 47.397 43.4867 47.4352 43.87Z" fill="white"/>
  <path d="M57.399 128.546C57.2807 129.324 57.0617 130.082 56.7477 130.801C54.3903 135.37 50.7044 138.467 46.1328 140.589C45.4664 140.963 44.6925 141.088 43.9455 140.941C43.1984 140.795 42.5253 140.386 42.0431 139.787C40.4736 138.142 40.1936 137.579 41.2095 135.403C43.5214 130.476 46.9989 126.616 51.9743 124.401C55.1587 122.982 57.4706 124.58 57.399 128.546Z" fill="white"/>
</svg>
