<svg width="114" height="165" viewBox="0 0 114 165" fill="none" xmlns="http://www.w3.org/2000/svg">
  <path d="M68.7854 97.1174C68.8708 99.517 69.7831 101.81 71.3635 103.598C74.087 106.826 76.9558 109.946 79.8553 113.027C82.5788 115.929 85.5394 118.607 88.1787 121.564C89.8592 123.494 91.3313 125.602 92.57 127.85C93.1434 128.94 93.352 130.189 93.1643 131.41C92.9767 132.63 92.4029 133.756 91.5295 134.617C90.6573 135.559 89.517 136.201 88.2677 136.455C87.0183 136.708 85.7223 136.559 84.5602 136.03C83.3038 135.405 82.1564 134.577 81.1635 133.577C77.1547 129.425 73.3526 125.04 69.2597 121.005C65.993 117.761 62.428 114.835 58.9625 111.801C58.6488 111.529 58.098 111.537 57.6543 111.413C57.5854 111.902 57.2871 112.538 57.486 112.848C58.4518 114.495 59.5576 116.053 60.7909 117.505C65.8018 122.999 70.9657 128.37 75.969 133.88C77.7668 135.867 79.2662 138.14 80.8957 140.282C81.8443 141.524 82.6706 142.711 81.9285 144.489C81.5192 145.655 80.8032 146.685 79.8581 147.468C78.913 148.25 77.7748 148.756 76.5667 148.929C75.3587 149.103 74.1269 148.938 73.0047 148.452C71.8826 147.966 70.9129 147.178 70.2007 146.173C69.4719 145.03 68.5052 144.064 67.3685 143.341C66.2318 142.618 64.9528 142.157 63.6215 141.99C61.4794 141.703 61.1734 140.632 61.38 138.885C61.4144 138.369 61.4144 137.85 61.38 137.333C61.2346 132.529 58.4576 129.324 53.7909 128.641C52.674 128.471 51.5341 128.494 50.18 128.416C50.3483 127.058 50.5702 125.84 50.6314 124.614C50.8838 119.259 47.7625 115.417 42.568 114.602C40.0205 114.206 40.0205 114.206 39.8598 111.708C39.3167 103.21 32.9746 99.6629 25.6916 104.055C23.2206 105.553 21.1015 107.719 18.99 109.744C16.3201 112.297 13.8031 115.014 10.8731 118.017C7.67529 110.9 2.95509 105.095 1.37914 97.8392C-1.22959 85.8644 -0.518114 74.1923 6.83376 63.8318C13.0075 55.1554 21.3157 50.4446 32.0872 50.1575C40.403 49.9324 47.5636 52.6487 54.0587 57.6155C56.2543 59.2996 56.3078 59.7342 54.5024 61.9305C53.6073 63.017 52.5822 64.0026 51.6183 65.0347C46.5997 70.3586 41.5658 75.6669 36.5779 81.0217C35.5379 82.1545 34.5912 83.3719 33.7473 84.6615C31.5058 88.0219 31.5364 89.1782 34.2293 92.1661C37.4041 95.6894 41.2981 97.0864 45.9647 95.7205C50.7561 94.2983 55.1318 91.7086 58.71 88.1771C61.2805 85.6937 63.5985 82.9231 65.9242 80.1991C67.8674 77.9252 67.8903 77.8709 70.0783 79.7878C75.7012 84.677 80.5285 90.3423 85.4476 95.93C87.5267 98.1982 89.7175 100.358 92.0115 102.402C96.4257 106.516 101.062 110.411 103.931 115.898C105.3 118.521 104.94 120.508 102.89 122.541C101.169 124.241 99.065 124.87 96.9689 123.752C94.805 122.663 92.808 121.262 91.0399 119.592C84.3842 113.004 77.8968 106.236 71.3406 99.5387C70.7362 98.9101 70.0783 98.3281 68.7854 97.1174Z" fill="white"/>
  <path d="M113.86 90.3428C114.134 97.6178 112.028 104.78 107.87 110.715C106.639 112.531 106.486 112.616 105.017 111.126C97.8256 103.815 90.6879 96.4426 83.5426 89.0855C78.6515 84.0204 73.7554 78.9501 68.8541 73.8746C67.8902 72.8657 67.1558 73.0287 66.3525 74.0143C64.0829 76.7978 61.8032 79.5709 59.5132 82.3337C56.2848 86.2141 52.781 89.7219 48.1526 91.9026C44.557 93.5945 41.1909 92.9736 37.9625 91.0567C35.8281 89.784 35.545 88.3793 36.7537 86.1675C36.9939 85.7141 37.2839 85.2897 37.6182 84.9025C44.0827 77.7627 50.4936 70.5685 57.0116 63.5296C62.7803 57.1831 70.7613 53.3689 79.2585 52.8974C86.312 52.4396 92.8147 54.7833 98.5065 59.0439C107.251 65.5939 112.055 74.5653 113.807 85.3138C113.959 86.9859 113.977 88.6677 113.86 90.3428Z" fill="white"/>
  <path d="M57.4322 45.0129C53.9896 36.1269 54.594 27.4737 58.0901 18.9603C60.6475 12.8969 64.0594 7.24241 68.219 2.17389C68.5419 1.70144 68.9715 1.3141 69.4718 1.04412C69.9721 0.774136 70.5288 0.629327 71.0955 0.621751C76.9326 0.419973 82.7698 -0.154318 88.5916 0.000896053C96.4407 0.202674 103.961 1.92555 110.395 6.91567C111.037 7.42012 111.596 8.04873 112.766 9.17403C109.79 8.49885 107.579 8.03321 105.392 7.49772C101.23 6.47331 97.0757 6.95447 92.914 7.49772C83.6036 8.72391 75.2266 12.1541 68.3261 18.7274C64.9898 21.8349 62.306 25.5935 60.4354 29.778C58.5648 33.9626 57.546 38.487 57.4398 43.0805C57.3786 43.7169 57.4322 44.3532 57.4322 45.0129Z" fill="white"/>
  <path d="M63.7974 28.5767C73.7427 12.8147 93.9393 6.91659 110.089 11.0996C104.076 13.2648 100.09 17.4478 97.03 22.6165C96.1349 24.1143 95.0333 24.8593 93.2814 24.5877C92.0267 24.3937 90.7645 24.3005 89.5022 24.1919C80.8038 23.4003 72.2662 23.6331 63.7974 28.5767Z" fill="white"/>
  <path d="M48 123.986C47.1814 125.973 46.5924 128.107 45.506 129.923C42.8743 134.316 39.0645 137.544 34.7957 140.253C34.1607 140.664 33.3804 140.827 32.7148 141.199C29.5247 142.961 25.4547 139.849 25.34 136.341C25.2409 134.93 25.431 133.514 25.8985 132.181C27.1485 128.922 29.0959 125.985 31.6002 123.581C34.1044 121.178 37.1032 119.368 40.3804 118.282C40.4951 118.282 40.6175 118.181 40.7399 118.15C45.0164 117.087 47.6787 119.299 48 123.986Z" fill="white"/>
  <path d="M36.0653 110.482C35.9919 111.404 35.7989 112.312 35.4915 113.183C34.1428 116.461 32.1624 119.434 29.6664 121.926C27.1704 124.418 24.2091 126.379 20.9561 127.695C18.2402 128.82 16.2282 128.036 14.8359 125.631C14.506 125.085 14.2999 124.472 14.2324 123.836C14.1649 123.2 14.2378 122.556 14.4457 121.952C15.7539 117.296 18.5615 113.671 21.897 110.474C24.2839 108.2 26.8467 106.05 30.2052 105.181C33.9079 104.211 36.0806 105.825 36.0653 110.482Z" fill="white"/>
  <path d="M58.1972 137.543C57.9814 138.555 57.682 139.547 57.3021 140.508C54.5174 146.631 49.8202 150.799 43.8989 153.624C41.8333 154.609 39.8366 154.656 37.9394 152.847C36.0421 151.039 35.5678 148.967 36.7 146.639C39.9973 139.763 44.9011 134.571 52.207 132.196C55.8486 130.978 58.2966 133.065 58.1972 137.543Z" fill="white"/>
  <path d="M60.0031 45.4253C59.518 42.217 60.0118 38.9348 61.4184 36.0194C62.3176 34.1945 63.5689 32.5715 65.0982 31.2465C67.9594 28.7321 71.5473 27.7387 75.2271 27.0791C80.9265 26.0702 86.6183 26.3806 92.3177 27.0791C94.1079 27.2886 94.2915 27.5525 93.7101 29.252C93.5035 29.8574 93.1975 30.4394 92.991 31.0448C91.7134 34.7078 91.721 34.6224 87.7352 34.7389C83.7495 34.8553 79.8631 35.0881 75.9386 35.414C69.0992 35.965 63.4304 38.6425 60.0031 45.4253Z" fill="white"/>
  <path d="M55.7266 51.3377C51.7102 45.7888 47.954 40.1002 43.7387 34.8152C39.0185 28.9015 33.8928 23.2828 27.1453 19.6586C24.8921 18.5016 22.5186 17.6036 20.0689 16.9811C18.4547 16.5465 18.3246 15.6773 18.7224 14.4589C19.0137 13.6054 19.4316 12.802 19.9618 12.0764C21.6754 9.63175 22.8995 9.17387 25.4011 10.7881C28.7454 12.8757 31.9155 15.2377 34.8797 17.8503C41.0917 23.5001 45.7813 30.3994 49.7288 37.8186C51.8173 41.7843 53.554 45.9363 55.4512 50.0184C55.5894 50.4468 55.6818 50.8892 55.7266 51.3377Z" fill="white"/>
  <path d="M67.4315 150.426C67.2926 151.336 67.0354 152.223 66.6665 153.065C63.8971 158.412 59.5671 162.036 54.1966 164.519C53.4138 164.957 52.5047 165.103 51.6271 164.931C50.7495 164.76 49.9588 164.282 49.3923 163.58C47.5486 161.656 47.2196 160.996 48.4131 158.451C51.1289 152.684 55.2141 148.168 61.0589 145.576C64.7999 143.915 67.5157 145.785 67.4315 150.426Z" fill="white"/>
</svg>
