<svg width="202" height="113" fill="none" xmlns="http://www.w3.org/2000/svg"><path d="M17.032 109.533a2.16 2.16 0 01-1.253-.37 2.404 2.404 0 01-.825-1.023h-.086l-.028.284c0 .114-.029.284-.086.512-.057.227-.313 1.591-.854 4.064h-1.225l2.478-11.681h1.025l-.2 1.535h.058c.883-1.109 1.822-1.677 2.762-1.677a1.92 1.92 0 011.595.71c.37.484.57 1.137.57 2.018a8.25 8.25 0 01-.513 2.871 4.782 4.782 0 01-1.396 2.018c-.54.483-1.281.739-2.021.739zm1.367-7.304a2.095 2.095 0 00-1.452.71 4.892 4.892 0 00-1.168 1.762 5.618 5.618 0 00-.427 2.16c-.028.455.114.91.399 1.251.313.312.74.454 1.196.426.513 0 .997-.228 1.367-.597.456-.483.826-1.052 1.025-1.705a6.453 6.453 0 00.37-2.331c.029-1.137-.427-1.676-1.31-1.676zM26.46 101.177c.427 0 .854.113 1.195.369.37.256.655.625.826 1.052h.086l.484-1.279h.94l-1.71 8.071h-.996l.2-1.534h-.058c-.882 1.108-1.794 1.676-2.79 1.676a1.994 1.994 0 01-1.624-.739 3.255 3.255 0 01-.57-1.989c0-.966.172-1.933.513-2.842a4.747 4.747 0 011.453-2.046c.598-.455 1.31-.739 2.05-.739zm-1.425 7.332a2.115 2.115 0 001.424-.682 5.065 5.065 0 001.14-1.762c.284-.682.427-1.449.455-2.188a1.69 1.69 0 00-.399-1.194 1.443 1.443 0 00-1.082-.455c-.54 0-1.053.228-1.424.626a4.033 4.033 0 00-1.025 1.705 6.915 6.915 0 00-.37 2.273c-.029.455.085.881.342 1.251.227.284.57.455.94.426zM35.8 101.177c.285 0 .598.028.883.113l-.257 1.109a3.531 3.531 0 00-.769-.085c-.455 0-.91.17-1.253.454a3.86 3.86 0 00-1.025 1.222c-.313.54-.512 1.137-.655 1.734l-.797 3.695h-1.225l1.737-8.072h1.026l-.171 1.507h.057c.256-.37.54-.711.883-.995.227-.199.455-.341.712-.455.284-.17.57-.227.854-.227zM39.16 108.538c.37-.029.712-.085 1.054-.199v.938a2.26 2.26 0 01-.626.17c-.2.029-.4.057-.598.057a2.111 2.111 0 01-1.424-.426c-.342-.341-.541-.824-.485-1.307 0-.37.057-.739.143-1.109l.94-4.433H36.91l.114-.54 1.367-.569.91-1.677h.713l-.37 1.848h2.021l-.199.938h-2.022l-.94 4.433c-.085.313-.114.654-.142.966a.754.754 0 00.228.626c.114.199.342.284.57.284zM49.783 101.234c.826-.057 1.623.256 2.221.824.57.626.855 1.45.826 2.274 0 .909-.17 1.79-.541 2.615-.285.739-.797 1.392-1.424 1.904a3.354 3.354 0 01-2.05.682c-.826.057-1.624-.256-2.222-.824a3.069 3.069 0 01-.797-2.274c0-.909.17-1.79.541-2.615a4.471 4.471 0 011.452-1.875 3.064 3.064 0 011.994-.711zm1.737 2.927a1.938 1.938 0 00-.456-1.364 1.701 1.701 0 00-1.253-.54c-.54 0-1.053.199-1.452.54a3.59 3.59 0 00-.997 1.507c-.227.682-.37 1.421-.342 2.16-.028.54.143 1.08.456 1.477.342.37.855.569 1.339.54.512 0 .996-.199 1.367-.54.455-.426.768-.937.968-1.534a5.484 5.484 0 00.37-2.246zM52.744 113a3.19 3.19 0 01-.911-.142v-1.023c.256.085.541.142.826.171.342 0 .683-.171.854-.455.228-.398.399-.853.484-1.307l1.68-7.958h-1.423l.085-.483 1.51-.483.17-.739c.228-.995.541-1.677.94-2.075.399-.398.997-.597 1.766-.597.256 0 .484.029.712.085.227.029.455.114.655.2l-.313.937c-.314-.142-.656-.199-.997-.227-.37-.028-.712.114-.997.34-.285.37-.484.825-.541 1.308l-.171.796h1.766l-.171.938H56.93l-1.71 8.071c-.198.938-.483 1.592-.882 2.018a2.1 2.1 0 01-1.595.625zM65.503 101.318l-1.11 5.116c-.086.341-.115.682-.143 1.023 0 .711.37 1.052 1.082 1.052.456 0 .911-.171 1.282-.455a4.012 4.012 0 001.11-1.279 6.975 6.975 0 00.74-1.989l.741-3.496h1.225l-1.709 8.071h-1.025l.17-1.506h-.085a4.88 4.88 0 01-1.367 1.279c-.427.227-.883.37-1.367.37a2.02 2.02 0 01-1.48-.512 1.964 1.964 0 01-.542-1.449c.029-.427.057-.853.171-1.279l1.082-4.974 1.225.028zM76.24 109.39l1.082-5.087c.085-.341.114-.71.142-1.051 0-.285-.085-.54-.256-.739a1.135 1.135 0 00-.826-.285c-.456 0-.912.171-1.282.427a4.24 4.24 0 00-1.11 1.25c-.342.625-.599 1.279-.712 1.99l-.74 3.495h-1.225l1.737-8.071h1.025l-.17 1.506h.056c.37-.511.826-.938 1.367-1.279.427-.227.883-.369 1.367-.369a2.015 2.015 0 011.48.511c.371.37.57.881.542 1.421 0 .455-.057.882-.17 1.336l-1.083 4.945h-1.225zM81.252 109.39h-1.253l1.737-8.071h1.224l-1.708 8.071zm.854-10.117c0-.256.085-.483.228-.682a.776.776 0 01.598-.256c.313-.057.598.17.655.483v.199c0 .256-.086.483-.257.682a.744.744 0 01-.57.284c-.34.029-.654-.255-.683-.597.029-.056.029-.085.029-.113zM82.647 113a3.19 3.19 0 01-.912-.142v-1.023c.257.085.541.142.826.171.342 0 .684-.171.854-.455.228-.398.4-.853.485-1.307l1.68-7.958h-1.424l.085-.483 1.51-.483.17-.739c.228-.995.542-1.677.94-2.075.399-.398.997-.597 1.766-.597.256 0 .484.029.712.085.228.029.456.114.655.2l-.285.937c-.313-.142-.655-.199-.997-.227-.37-.028-.712.114-.996.34-.285.37-.484.825-.57 1.308l-.17.796h1.765l-.171.938h-1.737l-1.709 8.071c-.2.938-.484 1.592-.883 2.018a2.1 2.1 0 01-1.594.625zm7.176-3.609H88.6l1.708-8.071h1.253l-1.737 8.071zm.854-10.118c0-.255.086-.483.228-.682a.776.776 0 01.598-.255c.314-.057.598.17.655.483v.199c0 .255-.085.483-.256.682a.744.744 0 01-.57.284.775.775 0 01-.484-.17c-.114-.171-.2-.342-.17-.54zM95.633 109.532c-.797.057-1.566-.255-2.136-.795-.513-.54-.769-1.279-.769-2.217 0-.91.171-1.819.541-2.643a5.006 5.006 0 011.453-1.99 3.229 3.229 0 011.993-.71c.769 0 1.339.17 1.709.483.398.341.598.853.57 1.364 0 .853-.456 1.677-1.225 2.075-.826.511-1.994.739-3.503.739h-.256l-.029.597c-.028.54.114 1.08.456 1.506.37.398.883.597 1.395.54.314 0 .655-.057.969-.142a6.469 6.469 0 001.224-.483v1.08a6.362 6.362 0 01-1.225.454c-.37.114-.768.142-1.167.142zm1.025-7.304a2.124 2.124 0 00-1.424.682 4.383 4.383 0 00-1.025 1.933h.085c1.111 0 1.994-.142 2.564-.426.57-.285.882-.711.882-1.279a.823.823 0 00-.284-.654 1.13 1.13 0 00-.798-.256zM104.148 101.206c.94 0 1.652.455 2.079 1.392h.057c.085-.682.171-1.364.342-2.017l.569-2.644h1.225l-2.421 11.454h-1.025l.171-1.535h-.057a6.11 6.11 0 01-1.395 1.308 2.446 2.446 0 01-1.339.369c-.626.028-1.225-.227-1.595-.71a3.26 3.26 0 01-.569-1.99c0-.995.171-1.961.541-2.87a4.604 4.604 0 011.424-2.018 2.983 2.983 0 011.993-.739zm-1.395 7.304a2.117 2.117 0 001.424-.682 4.902 4.902 0 001.167-1.762 5.653 5.653 0 00.427-2.189 1.826 1.826 0 00-.398-1.25 1.499 1.499 0 00-1.168-.426c-.512 0-1.025.227-1.395.596a4.053 4.053 0 00-1.026 1.706 7.121 7.121 0 00-.398 2.302c.057 1.165.484 1.705 1.367 1.705zM112.179 109.533c-.456 0-.883-.114-1.253-.37a2.407 2.407 0 01-.826-1.023h-.086l-.028.284c0 .114-.028.284-.085.512-.057.227-.314 1.591-.855 4.064h-1.224l2.477-11.681h1.025l-.199 1.535h.057c.883-1.109 1.794-1.677 2.734-1.677a1.92 1.92 0 011.595.71c.37.484.569 1.137.569 2.018 0 .967-.17 1.961-.512 2.871a4.604 4.604 0 01-1.424 2.018c-.513.483-1.225.739-1.965.739zm1.367-7.304a2.098 2.098 0 00-1.453.71 4.894 4.894 0 00-1.167 1.762 5.614 5.614 0 00-.427 2.16c-.029.455.114.91.398 1.251.314.312.741.454 1.168.426.513 0 .997-.228 1.367-.597.456-.483.826-1.052.997-1.705a7.165 7.165 0 00.398-2.331c.029-1.137-.398-1.676-1.281-1.676zM121.605 101.234c.826-.057 1.623.256 2.221.824.57.626.855 1.45.826 2.274 0 .909-.171 1.79-.541 2.615-.285.739-.797 1.392-1.424 1.904a3.354 3.354 0 01-2.05.682c-.826.057-1.623-.256-2.221-.824a3.068 3.068 0 01-.798-2.274c0-.909.171-1.79.541-2.615a4.471 4.471 0 011.453-1.875 3.061 3.061 0 011.993-.711zm1.737 2.927a1.936 1.936 0 00-.455-1.364 1.702 1.702 0 00-1.253-.54c-.542 0-1.054.199-1.453.54a3.602 3.602 0 00-.997 1.507c-.227.682-.37 1.421-.341 2.16-.029.54.142 1.08.455 1.477.342.37.855.569 1.339.54.512 0 .997-.199 1.367-.54.455-.426.769-.937.968-1.534.256-.711.37-1.478.37-2.246zM130.747 107.088c.028.682-.256 1.364-.826 1.79-.541.427-1.31.654-2.307.654a5.203 5.203 0 01-2.249-.512v-1.165c.341.199.712.37 1.11.483.37.114.741.171 1.111.171.484.028.997-.085 1.395-.37.314-.227.484-.568.484-.938a1.09 1.09 0 00-.256-.71 6.134 6.134 0 00-1.11-.796 4.876 4.876 0 01-1.367-1.051 2.086 2.086 0 01-.399-1.222 2.045 2.045 0 01.74-1.649 3.063 3.063 0 011.965-.625c.855 0 1.681.17 2.421.54l-.399.995-.427-.171c-.513-.227-1.054-.313-1.623-.313a1.67 1.67 0 00-1.082.313 1.048 1.048 0 00-.399.824c0 .256.085.512.256.711.314.312.684.568 1.082.767.399.199.798.455 1.14.767.199.199.398.427.512.683.171.284.228.568.228.824zM134.705 108.538c.37-.029.712-.085 1.054-.199v.938a2.258 2.258 0 01-.627.17 4.158 4.158 0 01-.598.057 2.113 2.113 0 01-1.424-.426 1.712 1.712 0 01-.484-1.307c0-.37.057-.739.143-1.109l.939-4.433h-1.253l.114-.54 1.367-.569.912-1.677h.74l-.399 1.848h2.022l-.199.938h-2.022l-.94 4.433c-.085.313-.114.654-.142.966a.752.752 0 00.228.626.7.7 0 00.569.284zM148.717 101.319l-.171.796-1.566.171c.199.341.313.767.313 1.165.028.824-.256 1.648-.855 2.245a3.125 3.125 0 01-2.306.824c-.2 0-.427 0-.627-.056-.683.255-1.025.596-1.025.966-.028.17.085.341.256.398.228.085.456.142.712.17l.855.114c.882.114 1.537.313 1.936.654.427.341.627.881.598 1.421.029.852-.37 1.62-1.082 2.103-.712.483-1.737.739-3.019.739-.939 0-1.708-.171-2.249-.54a1.837 1.837 0 01-.826-1.535c0-.512.171-.966.541-1.336a4.096 4.096 0 011.708-.966c-.341-.171-.569-.512-.569-.881 0-.341.142-.654.37-.881a3.715 3.715 0 011.054-.682c-.655-.341-1.082-1.023-1.054-1.762a3.234 3.234 0 01.883-2.331c.598-.597 1.395-.938 2.25-.909.37 0 .769.057 1.139.142l2.734-.029zm-7.832 9.493c0 .369.171.71.484.909.428.256.94.37 1.424.341a4.152 4.152 0 002.108-.454c.484-.256.769-.768.74-1.308a.808.808 0 00-.399-.71 3.265 3.265 0 00-1.367-.37l-1.167-.113a2.783 2.783 0 00-1.367.653 1.301 1.301 0 00-.456 1.052zm2.051-6.423c-.029.341.085.682.341.966a1.2 1.2 0 00.912.313c.37 0 .712-.085 1.025-.313.285-.227.541-.511.655-.852.171-.37.228-.768.228-1.166a1.156 1.156 0 00-.314-.909 1.261 1.261 0 00-.939-.313c-.342 0-.712.114-.997.313a1.949 1.949 0 00-.684.824 3.006 3.006 0 00-.227 1.137zM153.729 101.177c.285 0 .598.028.883.113l-.257 1.109a3.526 3.526 0 00-.769-.085c-.455 0-.911.17-1.253.454a3.87 3.87 0 00-1.025 1.222c-.313.54-.512 1.137-.655 1.734l-.797 3.695h-1.225l1.709-8.072h1.025l-.171 1.507h.086c.256-.37.541-.711.883-.995.227-.199.455-.341.712-.455.256-.17.541-.227.854-.227zM158.883 101.234a2.939 2.939 0 012.222.824c.569.626.854 1.45.797 2.274 0 .909-.171 1.79-.541 2.615-.285.739-.797 1.392-1.424 1.904a3.354 3.354 0 01-2.05.682 2.939 2.939 0 01-2.222-.824 3.07 3.07 0 01-.797-2.274c0-.909.171-1.79.541-2.615a4.469 4.469 0 011.452-1.875 3.197 3.197 0 012.022-.711zm1.766 2.927a1.932 1.932 0 00-.456-1.364 1.699 1.699 0 00-1.253-.54c-.541 0-1.053.199-1.452.54a3.593 3.593 0 00-.997 1.507c-.228.682-.37 1.421-.341 2.16-.029.54.142 1.08.484 1.477.341.37.854.569 1.338.54.513 0 .997-.199 1.367-.54.456-.426.769-.937.94-1.534.256-.711.37-1.478.37-2.246zM165.946 101.318l-1.111 5.116a6.308 6.308 0 00-.142 1.023c0 .711.37 1.052 1.082 1.052.456 0 .911-.171 1.282-.455a4.008 4.008 0 001.11-1.279 6.988 6.988 0 00.741-1.989l.74-3.496h1.225l-1.709 8.071h-1.025l.171-1.506h-.086c-.37.512-.826.938-1.367 1.279-.427.227-.883.37-1.367.37a2.02 2.02 0 01-1.481-.512 1.966 1.966 0 01-.541-1.449c.029-.427.057-.853.171-1.279l1.082-4.974 1.225.028zM175.344 109.533c-.456 0-.883-.113-1.253-.369a2.407 2.407 0 01-.826-1.023h-.085l-.029.284c0 .114-.028.284-.085.512-.057.227-.314 1.591-.855 4.064h-1.224l2.477-11.681h1.026l-.171 1.563h.057c.882-1.108 1.794-1.677 2.734-1.677a1.92 1.92 0 011.594.711c.428.597.627 1.307.57 2.018 0 .966-.171 1.961-.513 2.87a4.78 4.78 0 01-1.395 2.018c-.57.455-1.282.71-2.022.71zm1.395-7.304a2.099 2.099 0 00-1.452.711 4.896 4.896 0 00-1.168 1.762 5.633 5.633 0 00-.427 2.16 1.83 1.83 0 00.399 1.25c.313.313.74.455 1.196.427.513 0 .997-.228 1.367-.597.456-.483.826-1.052 1.025-1.705a6.448 6.448 0 00.37-2.331c-.028-1.137-.455-1.677-1.31-1.677zM56.133 15.006c.798.056 1.14.568.997 1.506l-1.281 6.537c-.143.824-.627 1.222-1.453 1.222h-17.23c-1.566 0-2.676.34-3.331 1.051-.655.71-1.11 1.79-1.367 3.269l-1.823 9.236h17.4c.855 0 1.225.427 1.054 1.28l-1.281 6.678c-.143.853-.655 1.279-1.51 1.279h-17.4l-4.1 20.747c-.086.767-.542 1.137-1.368 1.137h-9.398c-.768 0-1.082-.37-.996-1.137l8.116-41.494c.313-1.819.883-3.61 1.68-5.286a9.668 9.668 0 012.848-3.496 11.284 11.284 0 014.357-1.904 26.291 26.291 0 016.152-.625h19.934zM59.836 31.093c.142-.91.655-1.364 1.51-1.364h8.514c.855 0 1.225.454 1.054 1.364L63.766 67.67c-.142.852-.655 1.279-1.51 1.279h-8.514c-.855 0-1.225-.427-1.054-1.28l7.148-36.576zM80.34 29.727l1.822-9.094c.143-.91.655-1.364 1.51-1.364h8.515c.854 0 1.224.454 1.053 1.364l-1.822 9.094h9.796c.855 0 1.225.427 1.054 1.28l-1.224 6.053c-.143.88-.656 1.307-1.51 1.307h-9.796l-3.275 16.797c-.2.824-.285 1.676-.314 2.53a3.394 3.394 0 00.456 1.818c.342.512.854.881 1.452 1.052.855.255 1.766.369 2.649.34.854 0 1.709-.028 2.591-.085.855-.056 1.71-.113 2.592-.227.769-.057 1.054.284.911.995l-.996 5.23c-.143.653-.627 1.136-1.453 1.449a17.576 17.576 0 01-3.787.937c-1.396.228-2.82.341-4.244.341-2.534 0-4.613-.312-6.236-.909a8.118 8.118 0 01-3.731-2.643 8.617 8.617 0 01-1.566-4.206 18.258 18.258 0 01.341-5.57l3.503-17.877 1.709-8.612zM138.692 33.48c-2.363-2.9-6.436-4.35-12.245-4.35-6.579 0-11.733 1.678-15.493 5.031-3.759 3.354-6.179 7.93-7.29 13.756l-.456 2.359c-.598 3.04-.769 5.74-.484 8.156.2 2.217 1.025 4.32 2.392 6.11 1.31 1.678 3.161 2.928 5.554 3.78 2.392.853 5.382 1.28 9.027 1.28 2.136 0 4.301-.142 6.408-.427a42.875 42.875 0 006.322-1.25 1.874 1.874 0 001.367-1.45l1.054-5.371c.142-.767-.2-1.052-1.054-.91a55.007 55.007 0 01-5.382.569c-1.965.114-3.902.199-5.753.199-2.876 0-5.098-.512-6.607-1.563-1.509-1.023-2.25-2.785-2.193-5.258h13.67c3.531 0 6.493-.71 8.828-2.16 2.364-1.45 3.816-3.666 4.357-6.707 1.026-4.974.342-8.896-2.022-11.795zm-8.771 10.401a3.087 3.087 0 01-.94 1.705 3.032 3.032 0 01-2.022.654h-11.932c.854-3.126 2.107-5.343 3.759-6.593a9.088 9.088 0 015.667-1.905c2.335 0 3.93.512 4.785 1.563.882 1.023 1.11 2.558.683 4.576zM167.769 48.911l10.536 18.218c.228.37.314.824.2 1.25-.143.37-.484.569-1.025.569h-9.455a1.637 1.637 0 01-1.595-.91l-9.255-17.336-3.275 16.967c-.143.853-.655 1.279-1.51 1.279h-8.543c-.855 0-1.225-.426-1.054-1.279l9.967-51.299c.143-.91.655-1.364 1.51-1.364h8.486c.855 0 1.225.455 1.054 1.364l-5.781 29.7 14.866-15.518a2.224 2.224 0 011.908-.824h9.398c.569 0 .854.17.911.483.057.313-.143.682-.541 1.108l-16.802 17.592zM.031 2.245h107.876L108.334 0H.487L.03 2.245zM69.889 83.87h130.687l.455-2.274H70.316l-.427 2.273zM61.146 24.27l1.623-8.184c.114-.625.655-1.052 1.31-1.052h9.028c.427 0 .74.341.74.74v.141l-1.082 5.969a2.904 2.904 0 01-2.876 2.387h-8.743z" fill="#fff"/></svg>