<svg width="234" height="176" viewBox="0 0 234 176" fill="none" xmlns="http://www.w3.org/2000/svg">
  <g clip-path="url(#clip0)">
    <path d="M116.715 142.775C39.5091 142.775 4.04788 119.076 0.586428 116.627H0.295898V153.981C0.295898 153.981 33.9309 175.389 116.757 175.389C197.732 175.389 233.135 153.981 233.135 153.981V116.627H232.869C229.706 119.076 197.026 142.775 116.715 142.775Z" fill="#6DADD3"/>
    <path d="M207.925 129.128C189.472 135.852 160.021 142.741 116.715 142.741C39.5091 142.775 4.04788 119.076 0.586428 116.627H0.295898V153.981C0.295898 153.981 33.9309 175.389 116.757 175.389C159.157 175.389 189.049 169.52 207.925 163.925V129.128Z" fill="#4F8FAF"/>
    <path d="M160.22 140.143C145.788 141.936 131.258 142.814 116.715 142.775C39.5091 142.775 4.04788 119.076 0.586428 116.627H0.295898V153.981C0.295898 153.981 33.9309 175.389 116.757 175.389C131.275 175.425 145.784 174.671 160.22 173.131V140.143Z" fill="#508099"/>
    <path d="M105.061 142.55C35.9314 140.342 3.86526 118.951 0.586428 116.627H0.295898V153.981C0.295898 153.981 30.7517 173.363 105.061 175.239V142.55Z" fill="#316C7F"/>
    <path d="M116.715 106.251C52.6493 106.251 17.3292 89.9234 5.17681 83.0088C1.93555 93.8495 0.291309 105.105 0.295908 116.42C0.295908 116.42 35.3006 142.775 116.715 142.775C201.384 142.775 233.135 116.453 233.135 116.453C233.142 105.19 231.515 93.9864 228.303 83.1914C216.616 90.1973 182.765 106.251 116.715 106.251Z" fill="#6BADD6"/>
    <path d="M116.715 106.807C179.196 106.807 213.835 92.139 228.602 84.1868C225.647 73.9013 221.278 64.0761 215.62 54.9927C198.686 62.4469 168.413 71.3869 120.866 71.3869C68.1553 71.3869 35.616 59.5084 19.9274 51.7139C13.2957 61.6137 8.23074 72.4771 4.91113 83.9211C20.2179 91.8318 55.953 106.807 116.715 106.807Z" fill="#46A2D0"/>
    <path d="M120.866 71.3871C168.413 71.3871 198.686 62.447 215.62 54.9929C209.07 44.4747 200.892 35.0634 191.39 27.1104C172.755 32.8296 146.856 37.5943 112.291 37.5943C82.209 37.5943 58.3357 33.6846 40.1652 28.7124C32.4407 35.4598 25.6366 43.1932 19.9277 51.7141C35.6246 59.5085 68.1557 71.3871 120.866 71.3871Z" fill="#89BFE2"/>
    <path d="M120.866 71.3871C168.413 71.3871 198.686 62.447 215.62 54.9929C209.07 44.4747 200.892 35.0634 191.39 27.1104C172.755 32.8296 146.856 37.5943 112.291 37.5943C82.209 37.5943 58.3357 33.6846 40.1652 28.7124C32.4407 35.4598 25.6366 43.1932 19.9277 51.7141C35.6246 59.5085 68.1557 71.3871 120.866 71.3871Z" fill="#89BFE2"/>
    <path d="M85.7946 69.4694C53.2636 65.8087 31.781 57.5992 19.9274 51.7139C13.2957 61.6137 8.23074 72.4771 4.91113 83.9212C17.0138 90.1966 42.0242 100.896 82.1505 105.063C82.8893 92.4212 84.1344 80.4597 85.7946 69.4694Z" fill="#289DC1"/>
    <path d="M144.789 105.653C187.123 103.271 216.815 90.5374 228.627 84.1872C225.664 73.9004 221.287 64.0751 215.62 54.9932C201.301 61.8414 173.775 69.5528 141.676 70.7648C143.561 82.303 144.601 93.9635 144.789 105.653Z" fill="#72CAD8"/>
    <path d="M44.7469 61.3179C36.2164 58.8259 27.9133 55.613 19.9274 51.7139C13.2957 61.6137 8.23074 72.4771 4.91113 83.9211C14.938 89.0402 25.4344 93.1821 36.2551 96.2894C37.6838 84.3358 40.5345 72.5956 44.7469 61.3179Z" fill="#329ACE"/>
    <path d="M44.7469 61.3179C36.2164 58.8259 27.9133 55.613 19.9274 51.7139C13.2957 61.6137 8.23074 72.4771 4.91113 83.9211C14.938 89.0402 25.4344 93.1821 36.2551 96.2894C37.6838 84.3358 40.5345 72.5956 44.7469 61.3179Z" fill="#3684B6"/>
    <path d="M197.216 96.6551C208.09 93.6294 218.611 89.4555 228.602 84.2038C225.648 73.9126 221.279 64.0817 215.619 54.9932C207.189 58.6253 198.47 61.549 189.555 63.734C193.325 74.3887 195.894 85.4307 197.216 96.6551Z" fill="#A7D1DB"/>
    <path d="M101.417 37.4205C76.3984 36.607 56.1028 33.0708 40.1403 28.7129C32.4246 35.4619 25.6289 43.1953 19.9277 51.7145C33.1593 58.2888 58.4021 67.7518 97.5572 70.5575C98.5035 58.2722 99.8151 47.0827 101.417 37.4205Z" fill="#4894B5"/>
    <path d="M149.711 70.1834C179.594 67.8924 200.529 61.6253 215.636 54.9929C209.086 44.4747 200.908 35.0634 191.406 27.1104C176.465 31.6924 154.957 35.3282 143.618 36.1832C145.253 46.0612 148.731 57.5495 149.711 70.1834Z" fill="#DFEFF3"/>
    <path d="M187.588 28.2232L188.874 27.8496C188.451 27.9907 188.02 28.1152 187.588 28.2232Z" fill="#9ACAED"/>
    <path d="M187.587 28.2227C186.434 28.5547 185.255 28.8784 184.06 29.1939L187.587 28.2227Z" fill="#9ACAED"/>
    <path d="M179.387 30.3809L180.814 30.0322L179.387 30.3809Z" fill="#9ACAED"/>
    <path d="M173.484 31.7095L174.995 31.3857C174.497 31.5435 173.991 31.6099 173.484 31.7095Z" fill="#9ACAED"/>
    <path d="M102.745 12.7917C92.3775 11.6212 84.085 9.13099 80.084 5.88536C91.9006 1.97453 104.269 -0.0125581 116.716 5.97146e-05H116.774C117.853 5.97146e-05 118.924 5.97155e-05 119.994 0.0498648C121.264 0.0498648 122.535 0.132873 123.796 0.215882C125.058 0.29889 126.104 0.365297 127.258 0.473208L128.851 0.630924C136.705 1.43925 144.454 3.05256 151.978 5.44541C148.392 8.69104 140.481 11.2975 130.395 12.5924C125.548 13.2115 120.665 13.5165 115.778 13.5055C111.424 13.5135 107.072 13.2752 102.745 12.7917Z" fill="#C6E6F3"/>
    <path d="M163.955 33.5273C162.848 33.7155 161.742 33.8981 160.635 34.0752C161.742 33.9036 162.848 33.721 163.955 33.5273Z" fill="#9ACAED"/>
    <path d="M159.506 8.11818C161.772 9.01468 164.005 9.98588 166.197 11.0152L166.446 11.1314C168.687 12.1828 170.881 13.309 173.028 14.5098C179.536 18.1164 185.684 22.3358 191.39 27.1105C190.56 27.3595 189.729 27.6169 188.899 27.8576L187.613 28.2311L184.085 29.2023C183.022 29.4846 181.943 29.7585 180.839 30.0324L179.412 30.3811C178.465 30.6052 177.494 30.8376 176.506 31.0534L175.02 31.3855L173.51 31.7092C172.497 31.925 171.468 32.1408 170.422 32.34L168.845 32.6472C168.322 32.7551 167.782 32.8547 167.242 32.946C166.172 33.1452 165.084 33.3361 163.98 33.5271C162.876 33.718 161.756 33.9006 160.66 34.0749L159.207 34.299L158.726 34.3738L157.207 34.5896C156.036 34.7556 154.858 34.9216 153.654 35.071L152.251 35.2536C150.906 35.4197 149.537 35.5774 148.159 35.7268L146.275 35.926C144.382 36.1252 142.456 36.2996 140.464 36.4656C137.534 26.5046 134.147 18.4112 130.437 12.5923C140.522 11.2974 148.433 8.69094 152.019 5.44531C154.542 6.24219 157.038 7.13315 159.506 8.11818Z" fill="#99CBE5"/>
    <path d="M168.803 32.647L170.38 32.3398C169.874 32.4478 169.351 32.5557 168.803 32.647Z" fill="#9ACAED"/>
    <path d="M130.395 12.5928C134.106 18.4034 137.492 26.5382 140.423 36.466C131.765 37.1882 122.401 37.5949 112.291 37.5949C92.8328 37.7196 73.4121 35.8729 54.3262 32.0832C66.9801 34.627 79.7982 36.2719 92.6844 37.0056C95.6229 26.9449 99.0179 18.7437 102.745 12.792C107.072 13.2755 111.423 13.5138 115.777 13.5059C120.665 13.5169 125.547 13.2119 130.395 12.5928Z" fill="#80B3D4"/>
    <path d="M146.208 35.9258L148.092 35.7266C147.47 35.8013 146.839 35.8677 146.208 35.9258Z" fill="#9ACAED"/>
    <path d="M174.995 31.3857L176.481 31.0537L174.995 31.3857Z" fill="#9ACAED"/>
    <path d="M163.955 33.5273C165.059 33.3364 166.147 33.1455 167.217 32.9463C166.147 33.1538 165.059 33.3447 163.955 33.5273Z" fill="#9ACAED"/>
    <path d="M158.66 34.374L157.141 34.5898L158.66 34.374Z" fill="#9ACAED"/>
    <path d="M152.201 35.2539L153.604 35.0713L152.201 35.2539Z" fill="#9ACAED"/>
    <path d="M45.585 30.1242L47.2452 30.5226L49.0963 30.9543C49.7216 31.1037 50.3525 31.2448 50.9889 31.3776C52.0846 31.6184 53.1886 31.8591 54.3092 32.0832C66.9631 34.6271 79.7812 36.272 92.6674 37.0056C95.6059 26.945 99.0009 18.7437 102.728 12.792C92.3769 11.6216 84.0843 9.13137 80.0833 5.88574C65.3818 10.7596 51.8016 18.5205 40.1396 28.7131C41.9105 29.1945 43.7256 29.6649 45.585 30.1242Z" fill="#3684B6"/>
    <path d="M159.141 34.2993L160.593 34.0752L159.141 34.2993Z" fill="#9ACAED"/>
    <path d="M196.552 61.8411C201.118 60.7952 207.792 58.4294 215.644 54.9929C209.094 44.4747 200.916 35.0634 191.414 27.1104C184.657 29.1856 180.839 30.0322 180.839 30.0322C186.965 39.3458 192.742 49.6803 196.552 61.8411Z" fill="#B4DBF1"/>
    <path d="M64.4618 33.9341C56.268 32.6247 48.1495 30.8819 40.1403 28.7129C32.4246 35.4619 25.6289 43.1953 19.9277 51.7145C29.8245 56.5127 40.1777 60.3058 50.8318 63.0369C54.1403 52.8042 58.7194 43.027 64.4618 33.9341Z" fill="#59AACC"/>
    <path d="M143.602 141.795C206.265 137.645 233.134 116.42 233.134 116.42C233.142 105.157 231.515 93.9532 228.303 83.1582C219.704 88.5039 192.933 103.587 141.676 105.977C142.697 117.532 143.377 129.203 143.602 141.795Z" fill="#6CB2DD"/>
    <path d="M77.3278 103.968C37.7659 99.2618 14.5568 88.3379 5.1768 83.0088C1.93555 93.8495 0.291309 105.105 0.295908 116.42C0.295908 116.42 23.3141 133.727 75.4352 140.285C75.6593 127.684 76.3067 115.523 77.3278 103.968Z" fill="#44ACCC"/>
    <path d="M196.371 132.872C221.78 125.725 233.135 116.27 233.135 116.27C233.236 105.086 231.697 93.9468 228.57 83.208C223.888 86.3291 200.131 96.6222 192.693 97.8424C194.212 108.932 195.599 120.728 196.371 132.872Z" fill="#D1E8F7"/>
    <path d="M27.3484 92.2471C19.7653 89.5226 12.4376 86.1338 5.45072 82.1201C2.11546 93.18 0.379605 104.66 0.295898 116.212C0.295898 116.212 7.65045 121.881 23.447 128.015C23.7821 116.007 25.0868 104.045 27.3484 92.2471Z" fill="#1D71A5"/>
    <path d="M47.9594 135.362C17.7277 128.19 2.78615 118.179 0.586428 116.627H0.295898V153.981C0.295898 153.981 14.7228 163.161 47.9594 169.503V135.362Z" fill="#0D4D6B"/>
    <path d="M11.2031 122.67V159.194C18.9478 162.315 31.0006 166.283 47.9593 169.52V135.362C31.1003 131.361 18.9976 126.48 11.2031 122.67Z" fill="#17556E"/>
    <path d="M120.401 89.6494C100.155 89.6494 83.6782 106.567 83.1719 127.626H83.0225V175.887H157.655V128.663C157.655 128.323 157.655 127.991 157.655 127.651C157.182 106.55 140.655 89.6494 120.401 89.6494ZM148.051 131.311V175.87H92.6016V130.564H92.7095C93.0914 114.909 105.335 102.341 120.385 102.341C135.434 102.341 147.694 114.917 148.068 130.564L148.051 131.311Z" fill="#E7F6FD"/>
    <path d="M120.384 102.333C105.335 102.333 93.0913 114.909 92.7095 130.556H92.6016V175.862H148.051V131.311C148.051 131.062 148.051 130.813 148.051 130.564C147.694 114.909 135.442 102.333 120.384 102.333Z" fill="#607B80"/>
  </g>
  <g opacity="0.7" clip-path="url(#clip1)">
    <path d="M116.715 142.775C39.5091 142.775 4.04788 119.076 0.586428 116.627H0.295898V153.981C0.295898 153.981 33.9309 175.389 116.757 175.389C197.732 175.389 233.135 153.981 233.135 153.981V116.627H232.869C229.706 119.076 197.026 142.775 116.715 142.775Z" fill="#032230"/>
    <path d="M207.925 129.128C189.472 135.852 160.021 142.741 116.715 142.741C39.5091 142.775 4.04788 119.076 0.586428 116.627H0.295898V153.981C0.295898 153.981 33.9309 175.389 116.757 175.389C159.157 175.389 189.049 169.52 207.925 163.925V129.128Z" fill="#032230"/>
    <path d="M160.22 140.143C145.788 141.936 131.258 142.814 116.715 142.775C39.5091 142.775 4.04788 119.076 0.586428 116.627H0.295898V153.981C0.295898 153.981 33.9309 175.389 116.757 175.389C131.275 175.425 145.784 174.671 160.22 173.131V140.143Z" fill="#032230"/>
    <path d="M105.061 142.55C35.9314 140.342 3.86526 118.951 0.586428 116.627H0.295898V153.981C0.295898 153.981 30.7517 173.363 105.061 175.239V142.55Z" fill="#032230"/>
    <path d="M116.715 106.251C52.6493 106.251 17.3292 89.9234 5.17681 83.0088C1.93555 93.8495 0.291309 105.105 0.295908 116.42C0.295908 116.42 35.3006 142.775 116.715 142.775C201.384 142.775 233.135 116.453 233.135 116.453C233.142 105.19 231.515 93.9864 228.303 83.1914C216.616 90.1973 182.765 106.251 116.715 106.251Z" fill="#032230"/>
    <path d="M116.715 106.807C179.196 106.807 213.835 92.139 228.602 84.1868C225.647 73.9013 221.278 64.0761 215.62 54.9927C198.686 62.4469 168.413 71.3869 120.866 71.3869C68.1553 71.3869 35.616 59.5084 19.9274 51.7139C13.2957 61.6137 8.23074 72.4771 4.91113 83.9211C20.2179 91.8318 55.953 106.807 116.715 106.807Z" fill="#032230"/>
    <path d="M120.866 71.3871C168.413 71.3871 198.686 62.447 215.62 54.9929C209.07 44.4747 200.892 35.0634 191.39 27.1104C172.755 32.8296 146.856 37.5943 112.291 37.5943C82.209 37.5943 58.3357 33.6846 40.1652 28.7124C32.4407 35.4598 25.6366 43.1932 19.9277 51.7141C35.6246 59.5085 68.1557 71.3871 120.866 71.3871Z" fill="#032230"/>
    <path d="M120.866 71.3871C168.413 71.3871 198.686 62.447 215.62 54.9929C209.07 44.4747 200.892 35.0634 191.39 27.1104C172.755 32.8296 146.856 37.5943 112.291 37.5943C82.209 37.5943 58.3357 33.6846 40.1652 28.7124C32.4407 35.4598 25.6366 43.1932 19.9277 51.7141C35.6246 59.5085 68.1557 71.3871 120.866 71.3871Z" fill="#032230"/>
    <path d="M85.7946 69.4694C53.2636 65.8087 31.781 57.5992 19.9274 51.7139C13.2957 61.6137 8.23074 72.4771 4.91113 83.9212C17.0138 90.1966 42.0242 100.896 82.1505 105.063C82.8893 92.4212 84.1344 80.4597 85.7946 69.4694Z" fill="#032230"/>
    <path d="M144.789 105.653C187.123 103.271 216.815 90.5374 228.627 84.1872C225.664 73.9004 221.287 64.0751 215.62 54.9932C201.301 61.8414 173.775 69.5528 141.676 70.7648C143.561 82.303 144.601 93.9635 144.789 105.653Z" fill="#032230"/>
    <path d="M44.7469 61.3179C36.2164 58.8259 27.9133 55.613 19.9274 51.7139C13.2957 61.6137 8.23074 72.4771 4.91113 83.9211C14.938 89.0402 25.4344 93.1821 36.2551 96.2894C37.6838 84.3358 40.5345 72.5956 44.7469 61.3179Z" fill="#032230"/>
    <path d="M44.7469 61.3179C36.2164 58.8259 27.9133 55.613 19.9274 51.7139C13.2957 61.6137 8.23074 72.4771 4.91113 83.9211C14.938 89.0402 25.4344 93.1821 36.2551 96.2894C37.6838 84.3358 40.5345 72.5956 44.7469 61.3179Z" fill="#032230"/>
    <path d="M197.216 96.6551C208.09 93.6294 218.611 89.4555 228.602 84.2038C225.648 73.9126 221.279 64.0817 215.619 54.9932C207.189 58.6253 198.47 61.549 189.555 63.734C193.325 74.3887 195.894 85.4307 197.216 96.6551Z" fill="#032230"/>
    <path d="M101.417 37.4205C76.3984 36.607 56.1028 33.0708 40.1403 28.7129C32.4246 35.4619 25.6289 43.1953 19.9277 51.7145C33.1593 58.2888 58.4021 67.7518 97.5572 70.5575C98.5035 58.2722 99.8151 47.0827 101.417 37.4205Z" fill="#032230"/>
    <path d="M149.711 70.1834C179.594 67.8924 200.529 61.6253 215.636 54.9929C209.086 44.4747 200.908 35.0634 191.406 27.1104C176.465 31.6924 154.957 35.3282 143.618 36.1832C145.253 46.0612 148.731 57.5495 149.711 70.1834Z" fill="#032230"/>
    <path d="M187.588 28.2232L188.874 27.8496C188.451 27.9907 188.02 28.1152 187.588 28.2232Z" fill="#032230"/>
    <path d="M187.587 28.2227C186.434 28.5547 185.255 28.8784 184.06 29.1939L187.587 28.2227Z" fill="#032230"/>
    <path d="M179.387 30.3809L180.814 30.0322L179.387 30.3809Z" fill="#032230"/>
    <path d="M173.484 31.7095L174.995 31.3857C174.497 31.5435 173.991 31.6099 173.484 31.7095Z" fill="#032230"/>
    <path d="M102.745 12.7917C92.3775 11.6212 84.085 9.13099 80.084 5.88536C91.9006 1.97453 104.269 -0.0125581 116.716 5.97146e-05H116.774C117.853 5.97146e-05 118.924 5.97155e-05 119.994 0.0498648C121.264 0.0498648 122.535 0.132873 123.796 0.215882C125.058 0.29889 126.104 0.365297 127.258 0.473208L128.851 0.630924C136.705 1.43925 144.454 3.05256 151.978 5.44541C148.392 8.69104 140.481 11.2975 130.395 12.5924C125.548 13.2115 120.665 13.5165 115.778 13.5055C111.424 13.5135 107.072 13.2752 102.745 12.7917Z" fill="#032230"/>
    <path d="M163.955 33.5273C162.848 33.7155 161.742 33.8981 160.635 34.0752C161.742 33.9036 162.848 33.721 163.955 33.5273Z" fill="#032230"/>
    <path d="M159.506 8.11818C161.772 9.01468 164.005 9.98588 166.197 11.0152L166.446 11.1314C168.687 12.1828 170.881 13.309 173.028 14.5098C179.536 18.1164 185.684 22.3358 191.39 27.1105C190.56 27.3595 189.729 27.6169 188.899 27.8576L187.613 28.2311L184.085 29.2023C183.022 29.4846 181.943 29.7585 180.839 30.0324L179.412 30.3811C178.465 30.6052 177.494 30.8376 176.506 31.0534L175.02 31.3855L173.51 31.7092C172.497 31.925 171.468 32.1408 170.422 32.34L168.845 32.6472C168.322 32.7551 167.782 32.8547 167.242 32.946C166.172 33.1452 165.084 33.3361 163.98 33.5271C162.876 33.718 161.756 33.9006 160.66 34.0749L159.207 34.299L158.726 34.3738L157.207 34.5896C156.036 34.7556 154.858 34.9216 153.654 35.071L152.251 35.2536C150.906 35.4197 149.537 35.5774 148.159 35.7268L146.275 35.926C144.382 36.1252 142.456 36.2996 140.464 36.4656C137.534 26.5046 134.147 18.4112 130.437 12.5923C140.522 11.2974 148.433 8.69094 152.019 5.44531C154.542 6.24219 157.038 7.13315 159.506 8.11818Z" fill="#032230"/>
    <path d="M168.803 32.647L170.38 32.3398C169.874 32.4478 169.351 32.5557 168.803 32.647Z" fill="#032230"/>
    <path d="M130.395 12.5928C134.106 18.4034 137.492 26.5382 140.423 36.466C131.765 37.1882 122.401 37.5949 112.291 37.5949C92.8328 37.7196 73.4121 35.8729 54.3262 32.0832C66.9801 34.627 79.7982 36.2719 92.6844 37.0056C95.6229 26.9449 99.0179 18.7437 102.745 12.792C107.072 13.2755 111.423 13.5138 115.777 13.5059C120.665 13.5169 125.547 13.2119 130.395 12.5928Z" fill="#032230"/>
    <path d="M146.208 35.9258L148.092 35.7266C147.47 35.8013 146.839 35.8677 146.208 35.9258Z" fill="#032230"/>
    <path d="M174.995 31.3857L176.481 31.0537L174.995 31.3857Z" fill="#032230"/>
    <path d="M163.955 33.5273C165.059 33.3364 166.147 33.1455 167.217 32.9463C166.147 33.1538 165.059 33.3447 163.955 33.5273Z" fill="#032230"/>
    <path d="M158.66 34.374L157.141 34.5898L158.66 34.374Z" fill="#032230"/>
    <path d="M152.201 35.2539L153.604 35.0713L152.201 35.2539Z" fill="#032230"/>
    <path d="M45.585 30.1242L47.2452 30.5226L49.0963 30.9543C49.7216 31.1037 50.3525 31.2448 50.9889 31.3776C52.0846 31.6184 53.1886 31.8591 54.3092 32.0832C66.9631 34.6271 79.7812 36.272 92.6674 37.0056C95.6059 26.945 99.0009 18.7437 102.728 12.792C92.3769 11.6216 84.0843 9.13137 80.0833 5.88574C65.3818 10.7596 51.8016 18.5205 40.1396 28.7131C41.9105 29.1945 43.7256 29.6649 45.585 30.1242Z" fill="#032230"/>
    <path d="M159.141 34.2993L160.593 34.0752L159.141 34.2993Z" fill="#032230"/>
    <path d="M196.552 61.8411C201.118 60.7952 207.792 58.4294 215.644 54.9929C209.094 44.4747 200.916 35.0634 191.414 27.1104C184.657 29.1856 180.839 30.0322 180.839 30.0322C186.965 39.3458 192.742 49.6803 196.552 61.8411Z" fill="#032230"/>
    <path d="M64.4618 33.9341C56.268 32.6247 48.1495 30.8819 40.1403 28.7129C32.4246 35.4619 25.6289 43.1953 19.9277 51.7145C29.8245 56.5127 40.1777 60.3058 50.8318 63.0369C54.1403 52.8042 58.7194 43.027 64.4618 33.9341Z" fill="#032230"/>
    <path d="M143.602 141.795C206.265 137.645 233.134 116.42 233.134 116.42C233.142 105.157 231.515 93.9532 228.303 83.1582C219.704 88.5039 192.933 103.587 141.676 105.977C142.697 117.532 143.377 129.203 143.602 141.795Z" fill="#032230"/>
    <path d="M77.3278 103.968C37.7659 99.2618 14.5568 88.3379 5.1768 83.0088C1.93555 93.8495 0.291309 105.105 0.295908 116.42C0.295908 116.42 23.3141 133.727 75.4352 140.285C75.6593 127.684 76.3067 115.523 77.3278 103.968Z" fill="#032230"/>
    <path d="M196.371 132.872C221.78 125.725 233.135 116.27 233.135 116.27C233.236 105.086 231.697 93.9468 228.57 83.208C223.888 86.3291 200.131 96.6222 192.693 97.8424C194.212 108.932 195.599 120.728 196.371 132.872Z" fill="#032230"/>
    <path d="M27.3484 92.2471C19.7653 89.5226 12.4376 86.1338 5.45072 82.1201C2.11546 93.18 0.379605 104.66 0.295898 116.212C0.295898 116.212 7.65045 121.881 23.447 128.015C23.7821 116.007 25.0868 104.045 27.3484 92.2471Z" fill="#032230"/>
    <path d="M47.9594 135.362C17.7277 128.19 2.78615 118.179 0.586428 116.627H0.295898V153.981C0.295898 153.981 14.7228 163.161 47.9594 169.503V135.362Z" fill="#032230"/>
    <path d="M11.2031 122.67V159.194C18.9478 162.315 31.0006 166.283 47.9593 169.52V135.362C31.1003 131.361 18.9976 126.48 11.2031 122.67Z" fill="#032230"/>
    <path d="M120.401 89.6494C100.155 89.6494 83.6782 106.567 83.1719 127.626H83.0225V175.887H157.655V128.663C157.655 128.323 157.655 127.991 157.655 127.651C157.182 106.55 140.655 89.6494 120.401 89.6494ZM148.051 131.311V175.87H92.6016V130.564H92.7095C93.0914 114.909 105.335 102.341 120.385 102.341C135.434 102.341 147.694 114.917 148.068 130.564L148.051 131.311Z" fill="#032230"/>
    <path d="M147.551 131.311V175.362H93.1016V131.056H93.1974L93.2093 130.568C93.5851 115.171 105.628 102.833 120.384 102.833C135.148 102.833 147.197 115.168 147.551 130.57V130.57V130.571V130.573V130.574V130.576V130.577V130.579V130.58V130.582V130.583V130.585V130.586V130.588V130.589V130.59V130.592V130.593V130.595V130.596V130.598V130.599V130.601V130.602V130.604V130.605V130.606V130.608V130.609V130.611V130.612V130.614V130.615V130.617V130.618V130.62V130.621V130.623V130.624V130.625V130.627V130.628V130.63V130.631V130.633V130.634V130.636V130.637V130.639V130.64V130.642V130.643V130.644V130.646V130.647V130.649V130.65V130.652V130.653V130.655V130.656V130.658V130.659V130.66V130.662V130.663V130.665V130.666V130.668V130.669V130.671V130.672V130.674V130.675V130.677V130.678V130.679V130.681V130.682V130.684V130.685V130.687V130.688V130.69V130.691V130.693V130.694V130.695V130.697V130.698V130.7V130.701V130.703V130.704V130.706V130.707V130.709V130.71V130.712V130.713V130.714V130.716V130.717V130.719V130.72V130.722V130.723V130.725V130.726V130.728V130.729V130.731V130.732V130.733V130.735V130.736V130.738V130.739V130.741V130.742V130.744V130.745V130.747V130.748V130.749V130.751V130.752V130.754V130.755V130.757V130.758V130.76V130.761V130.763V130.764V130.766V130.767V130.768V130.77V130.771V130.773V130.774V130.776V130.777V130.779V130.78V130.782V130.783V130.785V130.786V130.787V130.789V130.79V130.792V130.793V130.795V130.796V130.798V130.799V130.801V130.802V130.803V130.805V130.806V130.808V130.809V130.811V130.812V130.814V130.815V130.817V130.818V130.82V130.821V130.822V130.824V130.825V130.827V130.828V130.83V130.831V130.833V130.834V130.836V130.837V130.838V130.84V130.841V130.843V130.844V130.846V130.847V130.849V130.85V130.852V130.853V130.855V130.856V130.857V130.859V130.86V130.862V130.863V130.865V130.866V130.868V130.869V130.871V130.872V130.874V130.875V130.876V130.878V130.879V130.881V130.882V130.884V130.885V130.887V130.888V130.89V130.891V130.892V130.894V130.895V130.897V130.898V130.9V130.901V130.903V130.904V130.906V130.907V130.909V130.91V130.911V130.913V130.914V130.916V130.917V130.919V130.92V130.922V130.923V130.925V130.926V130.928V130.929V130.93V130.932V130.933V130.935V130.936V130.938V130.939V130.941V130.942V130.944V130.945V130.946V130.948V130.949V130.951V130.952V130.954V130.955V130.957V130.958V130.96V130.961V130.963V130.964V130.965V130.967V130.968V130.97V130.971V130.973V130.974V130.976V130.977V130.979V130.98V130.981V130.983V130.984V130.986V130.987V130.989V130.99V130.992V130.993V130.995V130.996V130.998V130.999V131V131.002V131.003V131.005V131.006V131.008V131.009V131.011V131.012V131.014V131.015V131.017V131.018V131.019V131.021V131.022V131.024V131.025V131.027V131.028V131.03V131.031V131.033V131.034V131.035V131.037V131.038V131.04V131.041V131.043V131.044V131.046V131.047V131.049V131.05V131.052V131.053V131.054V131.056V131.057V131.059V131.06V131.062V131.063V131.065V131.066V131.068V131.069V131.071V131.072V131.073V131.075V131.076V131.078V131.079V131.081V131.082V131.084V131.085V131.087V131.088V131.089V131.091V131.092V131.094V131.095V131.097V131.098V131.1V131.101V131.103V131.104V131.106V131.107V131.108V131.11V131.111V131.113V131.114V131.116V131.117V131.119V131.12V131.122V131.123V131.124V131.126V131.127V131.129V131.13V131.132V131.133V131.135V131.136V131.138V131.139V131.141V131.142V131.143V131.145V131.146V131.148V131.149V131.151V131.152V131.154V131.155V131.157V131.158V131.16V131.161V131.162V131.164V131.165V131.167V131.168V131.17V131.171V131.173V131.174V131.176V131.177V131.178V131.18V131.181V131.183V131.184V131.186V131.187V131.189V131.19V131.192V131.193V131.195V131.196V131.197V131.199V131.2V131.202V131.203V131.205V131.206V131.208V131.209V131.211V131.212V131.213V131.215V131.216V131.218V131.219V131.221V131.222V131.224V131.225V131.227V131.228V131.23V131.231V131.232V131.234V131.235V131.237V131.238V131.24V131.241V131.243V131.244V131.246V131.247V131.249V131.25V131.251V131.253V131.254V131.256V131.257V131.259V131.26V131.262V131.263V131.265V131.266V131.267V131.269V131.27V131.272V131.273V131.275V131.276V131.278V131.279V131.281V131.282V131.284V131.285V131.286V131.288V131.289V131.291V131.292V131.294V131.295V131.297V131.298V131.3V131.301V131.303V131.304V131.305V131.307V131.308V131.31V131.311Z" fill="#032230" stroke="black"/>
  </g>
  <defs>
    <clipPath id="clip0">
      <rect width="232.839" height="175.87" fill="white" transform="translate(0.295898)"/>
    </clipPath>
    <clipPath id="clip1">
      <rect width="232.839" height="175.87" fill="white" transform="translate(0.295898)"/>
    </clipPath>
  </defs>
</svg>
