<svg id="Layer_1" xmlns="http://www.w3.org/2000/svg" viewBox="0 0 48 36"><style>.st1{fill:#fff}</style><g id="Spread"><path d="M19 289.7c-.2-.1-.4-.1-.7-.1-.6 0-1 .1-1.4.3-.4.2-.6.5-.8.9-.2.3-.3.7-.4 1.2-.1.4-.1.8-.1 1.2 0 .4 0 .7.1 1.1 0 .4.1.7.3 1 .2.3.4.6.7.9.3.3.7.4 1.2.5.3.1.5.1.8 0 .2 0 .5-.1.7-.2.2-.1.5-.2.7-.3v-6.1c-.1-.1-.3-.2-.5-.3-.2 0-.4-.1-.6-.1z" fill="none" transform="translate(0 -269.292)"/><path class="st1" d="M10.4 287.7H7.2c-.2 0-.3.1-.3.3v10.6c0 .2.1.3.3.3h3.1c.2 0 .3-.1.3-.3V288c.1-.2-.1-.3-.2-.3zm0-3.9H7.2c-.2 0-.3.1-.3.3v2c0 .2.1.3.3.3h3.1c.2 0 .3-.1.3-.3v-2c.1-.2-.1-.3-.2-.3zm13.1 4.5c-.4-.2-1.3-.4-1.8-.6-.6-.2-1.9-.6-3.9-.6-1 0-2.1.2-2.9.6-.7.3-1.3.8-1.8 1.3s-.8 1.2-1 1.9c-.2.7-.3 1.5-.3 2.3 0 .7.1 1.5.3 2.2.2.7.5 1.4.9 1.9.4.6 1 1 1.8 1.4.7.3 1.7.5 2.8.5.4 0 .7 0 1-.1.3 0 .5-.1.7-.2.2-.1.5-.2.6-.3-.1 1.3-.9 2.5-2.1 3-.6.3-1.4.6-2.1.6-.2 0-.3.2-.2.3l.9 2.5c0 .1.2.2.3.2.5 0 2.1-.5 2.7-.7.8-.3 2-.9 2.8-2 1.2-1.6 1.4-3.5 1.5-6.3v-7.6c.1-.1 0-.2-.2-.3zm-3.5 7.9c-.2.1-.5.2-.7.3-.2.1-.4.1-.7.2h-.8c-.5-.1-.9-.3-1.2-.5-.3-.3-.5-.5-.7-.9-.2-.3-.3-.7-.3-1 0-.4-.1-.7-.1-1.1 0-.4 0-.8.1-1.2.1-.4.2-.8.4-1.2.2-.3.5-.6.8-.9.4-.2.8-.3 1.4-.3.2 0 .5 0 .7.1.2.1.4.1.5.2.2.1.3.2.5.3v6z" transform="translate(0 -269.292)"/><path class="st1" d="M23.6 269.3c-11.4 0-21.1 7.6-23.6 18.1-.1.3.3.4.5.2 3.9-8.2 12.3-14 22.1-14 13.5 0 24.4 10.8 24.4 24.1v.8c0 .5.4.6.6.1.4-1.6.5-3.4.5-5.1-.1-13.4-11-24.2-24.5-24.2z" transform="translate(0 -269.292)"/><path class="st1" d="M41.2 288c0-.2-.1-.3-.3-.3h-3.1c-.2 0-.3.1-.3.3v6.6c0 .4 0 .7-.1 1-.1.3-.3.5-.5.7-.3.2-.5.3-1 .3s-.7-.1-1-.3c-.3-.2-.4-.4-.5-.7-.1-.3-.1-.6-.1-1V288c0-.2-.1-.3-.3-.3h-3.1c-.2 0-.3.1-.3.3v5.8c0 1.3-.1 2.9.8 3.9 1 1.2 2.6 1.6 4.6 1.6 1.9 0 3.5-.3 4.6-1.6.8-1 .8-2.5.8-3.9V288zm-12.5-4.2h-3.1c-.2 0-.3.1-.3.3v14.5c0 .2.1.3.3.3h3.1c.2 0 .3-.1.3-.3v-14.5c0-.2-.1-.3-.3-.3z" transform="translate(0 -269.292)"/></g></svg>