<svg width="180" height="100" fill="none" xmlns="http://www.w3.org/2000/svg"><path d="M12.881 48.07V12.693H.031V0h40.14v12.693H27.366V48.07H12.88zM68.967 48.07l-1.72-5.617H50.015l-1.72 5.617h-16.46L49.498 0H67.72l17.664 48.07H68.967zM58.609 14.28l-4.727 15.48h9.455l-4.728-15.48zM88.005 48.07V0h14.484v35.377h18.179V48.07H88.005zM12.881 99.1V63.722H.031V51.03h40.14v12.693H27.366V99.1H12.88zM43.481 99.1V51.072h36.316v12.693H57.965v4.76H79.28v12.693H57.965v5.275h21.832v12.693H43.481V99.1zM82.247 75.13c0-14.838 11.346-24.872 26.345-24.872 12.549 0 18.867 7.333 21.746 13.98l-12.506 5.831c-1.204-3.73-4.943-6.99-9.283-6.99-6.963 0-11.647 5.318-11.647 12.05 0 6.69 4.684 12.05 11.647 12.05 4.297 0 8.036-3.26 9.283-6.99l12.506 5.746c-2.793 6.433-9.197 14.066-21.746 14.066-15 0-26.345-10.12-26.345-24.872zM164.548 99.1V80.746H147.4V99.1h-14.483V51.072H147.4v17.024h17.148V51.072h14.483v48.07h-14.483V99.1z" fill="#fff"/></svg>