<svg width="322" height="120" fill="none" version="1.1" viewBox="0 0 322 120" xmlns="http://www.w3.org/2000/svg">
 <g fill="#fff">
  <path d="m0.4375 102.83h10.625v2.106h-8.5v4.844h7.8625v2.106h-7.8625v5.265h8.925v2.106h-11.05v-16.427zm20.825 0h2.3375v14.321h7.65v2.106h-9.775v-16.427h-0.2125zm20.825 0v10.109c0 0.421 0 1.053 0.2125 1.685s0.425 1.053 0.6375 1.474c0.425 0.421 0.85 0.843 1.275 1.053 0.425 0.211 1.275 0.422 1.9125 0.422s1.4875-0.211 1.9125-0.422c0.425-0.21 1.0625-0.632 1.275-1.053s0.6375-1.053 0.6375-1.474c0.425-0.632 0.425-1.264 0.425-1.685v-10.109h2.3375v10.32c0 1.053-0.2125 1.895-0.425 2.527-0.425 0.842-0.85 1.474-1.275 2.106-0.6375 0.632-1.275 1.053-2.125 1.264-0.85 0.21-1.7 0.421-2.55 0.421s-1.7-0.211-2.55-0.421c-0.85-0.211-1.4875-0.843-2.125-1.264-0.6375-0.632-1.0625-1.264-1.275-2.106s-0.6375-1.474-0.6375-2.317v-10.319h2.3375v-0.211zm34.425 0h2.3375v16.427h-2.3375v-16.427zm13.175 0h2.3375v14.321h7.65v2.106h-9.775v-16.427h-0.2125zm18.488 0h3.4l5.313 12.426 5.312-12.426h3.4v16.427h-2.337v-13.478l-5.738 13.478h-1.487l-5.525-13.478v13.478h-2.338v-16.427zm33.363 0h2.125l7.012 16.427h-2.55l-1.7-4.001h-7.862l-1.7 4.001h-2.55l7.225-16.427zm3.825 10.53-3.188-7.581-3.187 7.581h6.375zm26.775-10.53h5.737c1.275 0 2.125 0.211 2.975 0.421 0.85 0.211 1.7 0.632 2.338 1.053 0.637 0.422 1.275 0.843 1.7 1.475 0.425 0.631 0.85 1.053 1.062 1.684 0.213 0.632 0.425 1.264 0.638 1.896 0.212 0.632 0.212 1.053 0.212 1.685 0 1.053-0.212 2.106-0.637 2.948-0.425 1.053-1.063 1.896-1.7 2.527-0.85 0.843-1.7 1.475-2.763 1.896-1.062 0.421-2.337 0.632-3.825 0.632h-5.312v-16.217h-0.425zm2.337 14.321h2.763c0.85 0 1.912-0.21 2.762-0.421s1.488-0.632 2.338-1.053 1.062-1.053 1.487-1.895c0.425-0.843 0.638-1.685 0.638-2.738 0-0.422 0-1.053-0.213-1.896-0.212-0.842-0.425-1.474-1.062-2.106-0.425-0.632-1.063-1.263-1.913-1.685-0.85-0.421-1.912-0.631-3.187-0.631h-3.4v12.425h-0.213zm22.1-14.321h2.338v16.427h-2.338v-16.427zm13.175 0h10.625v2.106h-8.5v4.844h7.863v2.106h-7.863v5.265h8.925v2.106h-11.05v-16.427zm21.038 0h10.625v2.106h-8.5v4.844h7.862v2.106h-7.862v5.265h8.925v2.106h-11.05v-16.427zm20.4 0h5.737c1.275 0 2.125 0.211 2.975 0.421 0.85 0.211 1.7 0.632 2.338 1.053 0.637 0.422 1.275 0.843 1.7 1.475 0.425 0.631 0.85 1.053 1.062 1.684 0.213 0.632 0.425 1.264 0.638 1.896 0.212 0.632 0.212 1.053 0.212 1.685 0 1.053-0.212 2.106-0.637 2.948-0.425 1.053-1.063 1.896-1.7 2.527-0.85 0.843-1.7 1.475-2.763 1.896-1.062 0.421-2.337 0.632-3.825 0.632h-5.312v-16.217h-0.425zm2.337 14.321h2.763c0.85 0 1.912-0.21 2.762-0.421s1.488-0.632 2.338-1.053c0.637-0.421 1.062-1.053 1.487-1.895 0.425-0.843 0.638-1.685 0.638-2.738 0-0.422 0-1.053-0.213-1.896-0.212-0.842-0.425-1.474-1.062-2.106-0.425-0.632-1.063-1.263-1.913-1.685-0.85-0.421-1.912-0.631-3.187-0.631h-3.4v12.425h-0.213zm22.1-14.321h2.338v16.427h-2.338v-16.427zm16.575 2.106h-5.312v-2.106h12.962v2.106h-5.312v14.321h-2.338v-14.321zm19.763-2.106h2.125l7.012 16.427h-2.55l-1.7-4.001h-7.862l-1.7 4.001h-2.55l7.225-16.427zm4.037 10.53-3.187-7.581-3.188 7.581h6.375z"/>
  <path d="m233.55 37.964c1.063-2.7379 2.55-5.0546 4.25-6.95 2.338-2.5273 5.525-3.7909 9.138-3.7909 1.275 0 2.337 0.2106 3.187 0.8424s1.063 1.2636 1.063 1.6848c0 0.6319-0.425 0.8425-1.063 0.6319h-1.062c-2.55 0-4.888 1.053-6.8 3.3697-1.913 2.3166-3.4 5.0545-4.463 8.2136-1.062 3.1591-1.487 6.3182-1.487 9.0561 0 2.9484 0.637 4.8439 1.7 5.6863 3.187-2.9485 7.65-10.741 13.387-23.377 0.425-0.8425 1.063-1.2637 2.338-1.2637 1.062 0 2.125 0.4212 2.975 1.2637 0.85 0.8424 1.275 2.106 1.062 3.5803-0.85 13.479-2.55 25.062-5.1 34.961-2.55 9.6878-6.8 14.742-12.75 14.742-2.125-0.2106-3.825-0.8425-5.312-1.8955-1.488-1.2636-2.338-2.5273-2.338-4.0015 0-0.8424 0.213-1.4742 0.638-1.8955 0.425-0.4212 0.85-0.6318 1.275-0.6318s0.85 0.2106 1.062 0.4212c0.213 0.4213 0.425 0.8425 0.425 1.6849 0 1.053 0.425 1.8954 1.063 2.5273 0.637 0.6318 1.7 0.8424 3.187 0.8424 2.55 0 4.463-2.1061 6.163-6.5288s2.975-9.6879 3.825-15.795c0.85-6.1076 1.487-12.215 1.7-18.112-1.7 4.2122-3.4 7.7925-5.313 11.162-1.912 3.159-3.4 5.2651-4.675 5.8969-1.062 0.6318-2.125 0.8424-3.187 0.8424-1.488 0-2.763-0.4212-4.038-1.053s-2.125-1.6848-2.337-2.7379c-0.425-1.4742-0.638-3.5803-0.638-6.1075 0-1.0531 0-2.1061 0.213-3.1591-1.063 1.6848-2.125 2.9485-2.975 4.0015-1.7 2.1061-3.4 3.7909-5.1 5.0545-1.275 0.8425-2.55 1.2637-4.038 1.2637-2.337 0-4.037-1.0531-5.312-3.1591-0.425-0.8424-0.638-1.8955-0.638-3.5803 0-2.5273 0.638-5.4758 1.7-9.0561 1.063-3.5803 2.338-6.7394 3.4-9.6879-0.425-0.2106-1.062-0.4212-1.912-1.053-0.85-0.4212-1.488-1.053-2.125-1.6848-0.638 1.8954-1.7 3.7909-2.763 5.8969v0.2106c0 0.6319-0.212 1.2637-0.637 1.8955-1.913 3.5803-3.825 6.5288-5.95 8.8454-2.125 2.3167-4.675 4.2122-7.863 5.6864-2.125 4.2121-4.675 7.5818-7.437 10.109-2.763 2.5273-5.525 3.7909-8.5 3.7909-4.25 0-7.65-1.2636-10.2-3.7909s-4.463-5.897-5.525-10.32c-2.975-2.1061-5.313-5.0545-7.013-8.8455-1.7-3.7909-2.55-7.7924-2.55-12.004 0-4.6333 1.063-8.8455 2.975-13.058 1.913-4.2121 4.888-7.3712 8.925-9.8984 4.038-2.5273 8.925-3.7909 14.663-3.7909 7.225 0 12.537 2.1061 15.937 6.5288 3.4 4.4228 5.1 9.8985 5.1 16.638 0 5.4758-1.062 11.373-3.187 17.27 1.7-1.2636 2.975-2.7379 4.037-4.4227 0.213-0.4212 0.425-0.6319 0.638-1.0531 0-0.2106 0.212-0.4212 0.212-0.6318 0.85-1.2636 2.125-3.7909 3.613-7.3712 1.487-3.5803 2.337-6.1076 2.55-7.7924-0.213-0.4212 0-0.6318 0.425-0.8424s0.85-0.4213 1.487-0.4213c0.638 0 1.063 1e-4 1.488 0.2107s0.85 0.4212 1.062 0.6318v0.8424c0 1.6848 0.638 3.1591 1.913 4.0015 1.275 1.053 2.55 1.6849 3.612 2.1061 1.063 0.4212 1.7 0.6318 1.913 0.8424 0.212 0.2106 0.212 1.053-0.213 2.1061-0.425 1.053-0.85 2.9484-1.7 5.6863-1.062 3.1591-1.912 5.897-2.55 7.7924-0.637 2.1061-0.85 3.791-0.85 5.0546 0 1.6848 0.425 2.5273 1.488 2.5273 1.487 0 2.975-1.2637 5.1-3.791 2.125-2.5272 4.25-5.8969 7.012-10.109l1.063-1.6849c0-0.4212 0.212-0.8424 0.637-1.053zm-63.112-26.958c-3.4 2.3167-5.738 5.4758-7.438 9.0561s-2.55 7.5818-2.55 11.794c0 2.7379 0.425 5.2652 1.063 7.5818 0.637 2.3167 1.7 4.6334 3.187 6.3182-0.212-3.3697 0.213-6.7394 0.85-9.8985 0.638-3.1591 1.7-5.8969 3.188-8.2136 1.487-2.3167 3.187-3.7909 5.1-4.6333 0.425-0.2106 0.85-0.2107 1.487-0.2107 0.85 0 1.7 0.2107 2.338 0.4213 0.85 0.2106 1.062 0.6318 0.85 0.8424-2.338 2.9485-3.825 6.3182-5.1 9.8985-1.063 3.5803-1.7 7.1606-1.7 10.952 0 2.3166 0.212 4.4227 0.637 6.3182 1.7 0.4212 2.975 0.6318 4.463 0.6318 7.65 0 13.6-1.053 18.275-3.3697 2.125-6.1076 3.187-12.215 3.187-18.533 0-6.5288-1.275-12.005-4.037-16.217-2.763-4.2121-6.8-6.3182-12.113-6.3182-4.462 0.21061-8.287 1.2636-11.687 3.5803zm17 49.914c1.912-1.6848 3.825-4.0015 5.312-6.95-4.25 1.2637-9.562 1.8955-15.937 1.8955-1.275 0-2.338 0-3.188-0.2106 0.85 2.5273 1.913 4.4227 3.188 5.6864 1.275 1.4742 2.762 2.106 4.462 2.106 2.338-0.2106 4.25-0.8424 6.163-2.5273zm99.237-29.695c-0.212 0.6318-0.212 1.2636-0.425 2.1061-1.275 6.95-1.912 12.215-1.912 15.795 0 1.6849 0.212 2.9485 0.425 3.5803 0.212 0.6318 0.425 1.053 0.425 1.6849 0 0.8424-0.213 1.4742-0.638 1.8954s-1.062 0.6318-1.7 0.6318c-0.85 0-1.487-0.2106-2.125-0.8424-0.637-0.6318-1.062-1.2636-1.275-2.3167-0.212-0.8424-0.425-2.3166-0.425-4.2121 0-2.106 0.213-4.2121 0.425-6.3182-1.062 2.3167-2.762 4.6334-4.675 6.95-1.912 2.5273-3.825 4.6334-5.737 6.5288-1.913 1.8955-3.188 2.9485-3.825 3.5803-0.85 0.6318-1.488 0.8424-2.125 0.8424-0.85 0-1.488-0.4212-2.125-1.053-0.638-0.6318-0.85-1.4742-1.063-2.3167-0.212-0.6318-0.212-1.2636-0.212-2.106 0-3.1591 0.425-7.1606 1.487-12.426 1.063-5.2651 1.913-8.6348 2.975-10.53 0.425-1.4742 1.488-2.106 2.975-2.106 0.85 0 1.488 0.2106 1.913 0.6318 0.637 0.4212 0.85 0.8424 0.637 1.053-1.062 2.3167-2.125 5.897-3.4 10.32-1.062 4.6334-1.7 8.003-1.7 10.32 0 1.4743 0.213 2.1061 0.638 2.1061 1.062 0 2.55-1.2637 4.675-3.5803 2.125-2.3167 4.462-5.2652 6.587-8.4243s3.613-5.8969 4.463-8.2136c0.637-2.5273 1.275-4.2121 1.912-5.0546 0.638-0.6318 1.488-1.053 2.338-1.053 0.637 0 1.062 0.2106 1.487 0.4212s0.638 0.4212 0.638 0.6318c-0.425 0.6319-0.425 1.0531-0.638 1.4743z"/>
  <path d="m115.19 43.44c0.212-5.0545 0.212-9.8985 0.425-14.742 0.212-8.2136 0.425-12.847 0.85-13.9-0.213-0.6318 0.212-1.053 0.85-1.4743 0.637-0.4212 1.487-0.6318 2.55-0.6318 0.85 0 1.487 0 2.125 0.2106 0.425 0.2106 0.637 0.6319 0.212 1.0531-0.212 0.4212-0.637 2.9485-1.062 7.5818s-0.85 10.109-1.275 16.427c1.7-7.1607 4.462-10.741 8.287-10.952 1.488 0 2.763 0.6319 3.613 1.8955 0.85 1.4742 1.487 3.3697 1.487 5.6864 0.213 2.5272-0.212 5.2651-1.062 8.2136s-2.125 5.2651-3.825 7.5818c-1.7 2.1061-3.825 3.5803-6.375 4.2121 2.55 2.5273 5.312 4.6334 8.075 6.3182 2.762 1.6849 5.312 2.5273 7.437 2.3167 0.425 0 0.638 0 0.85-0.2106 0.425 0 0.85 0 1.063 0.2106 0.212 0.2106 0.425 0.6318 0.425 1.053 0 0.6318-0.213 1.053-0.425 1.4743-0.425 0.4212-0.85 0.8424-1.488 1.053-0.425 0.2106-0.85 0.2106-1.275 0.2106-2.55 0.2106-5.312-0.8424-8.5-2.9485-3.187-2.1061-6.162-4.6333-8.925-7.5818v2.5273 5.6863c0 1.0531-0.212 1.8955-0.637 2.5273s-1.063 0.8424-1.488 0.8424-0.85 0-1.275-0.4212c-0.425-0.2106-0.425-0.6318-0.425-1.053l0.213-12.636v-2.9485c-0.85 1.2637-1.7 2.5273-2.763 4.0015-2.55 3.5804-4.675 6.1076-6.162 7.5819-1.275 1.2636-2.763 1.8954-4.463 1.8954-1.275 0-2.3373-0.2106-3.3998-0.8424s-1.7-1.4742-2.3375-2.5273c-0.425-1.053-0.6375-2.5272-0.85-4.6333v-0.6318c-0.425 0.8424-1.0625 1.4742-1.275 2.106-1.4875 2.3167-3.1875 4.0016-4.8875 5.2652-1.275 0.8424-2.55 1.4742-4.0375 1.4742-2.3375 0.2106-4.0375-0.8424-5.525-2.9485-0.425-0.6318-0.85-1.8954-0.85-3.3697-0.2125-2.5272 0.2125-5.4757 1.0625-9.056s1.9125-6.7394 2.975-9.8985c-0.425-0.2106-1.0625-0.4212-1.9125-0.8424s-1.4875-1.0531-2.125-1.6849c-0.6375 2.1061-1.4875 4.2121-2.55 6.7394-1.0625 2.3167-1.9125 4.0015-2.3375 5.0546-0.425 0.6318-0.85 1.053-1.4875 1.053s-1.0625-0.2106-1.4875-0.4212c-0.425-0.4212-0.6375-0.8424-0.6375-1.2636 0-0.4213 0-0.8425 0.2125-1.0531 0.85-1.2636 1.9125-3.7909 3.1875-7.3712s2.125-6.3182 2.125-8.003c-0.2125-0.2106 0-0.6318 0.2125-0.8424 0.425-0.2107 0.85-0.4213 1.4875-0.4213s1.0625 0 1.4875 0.2106 0.85 0.4213 1.0625 0.6319v0.4212c0 1.6848 0.85 3.1591 2.125 4.0015s2.55 1.4742 3.6125 1.8954c1.0625 0.4213 1.7 0.6319 1.9125 0.6319 0.2125 0.2106 0.2125 1.053 0 2.106-0.2125 1.0531-0.85 3.1591-1.4875 5.897-0.85 3.3697-1.4875 5.897-2.125 8.003-0.425 2.1061-0.6375 3.7909-0.6375 5.0546 0 1.6848 0.6375 2.5272 1.7 2.3166 1.4875 0 2.975-1.4742 4.8875-4.0015 1.7-2.3166 3.4-5.2651 5.525-9.056 0.2125-2.7379 0.6375-5.2652 1.0625-7.3713 0.425-2.3166 0.85-3.7909 1.0625-4.2121 0.425-0.4212 0.85-0.8424 1.7-0.8424 0.8498 0 1.4878 0.2106 2.1248 0.4212 0.638 0.4212 1.063 0.8424 1.063 1.4743 0 0.4212-0.213 2.106-0.85 5.2651-0.425 3.1591-0.85 5.897-1.275 8.2136-0.213 2.3167-0.425 4.2122-0.213 5.6864 0.213 2.5273 0.85 3.5803 1.913 3.5803 0.637 0 1.7-1.053 3.4-2.9485 1.7-1.8954 3.4-4.2121 5.312-6.7394 1.913-2.5272 3.188-4.8439 4.038-6.5288-0.213-0.6318-0.213-0.8424 0-1.053zm-34.85-36.224c0 1.2636-0.425 2.1061-1.275 2.9485-0.85 0.8424-1.7 1.2636-2.7625 1.2636-0.425 0-0.85 0-1.0625-0.2106s-0.425-0.4212-0.425-0.8424c0-0.42125 0-0.84246 0.425-1.2637 0.2125-0.84242-0.2125-1.4742-1.4875-2.1061-1.275-0.42121-2.975-0.63181-5.3125-0.63181-2.55 0.2106-5.525 0.63181-8.7125 1.4742 0.425 0.2106 0.85 0.42121 0.85 0.84242s-0.2125 0.63182-0.6375 1.053c-1.7 1.6849-3.1875 4.6334-4.675 8.8455-1.275 4.2121-2.55 9.0561-3.6125 14.321 4.8875-1.053 9.1375-1.8954 12.75-2.106h3.1875c0.6375 0 1.0625 0.2106 1.4875 0.6318s0.6375 0.8424 0.6375 1.2636 0 0.6318-0.2125 1.053c-0.2125 0.2106-0.425 0.4212-0.85 0.4212-3.825 0.2107-7.225 0.6319-9.9875 1.0531s-5.3125 1.2636-7.8625 2.106c-0.425 3.5803-0.85 6.95-1.0625 10.32s-0.2125 6.1076-0.2125 8.4243c0 0.8424 0.2125 1.8954 0.2125 2.7379 2.975-0.8425 5.95-1.2637 8.925-1.4743 4.25-0.2106 8.5 0.2106 12.75 1.053 0.85 0.2107 1.4875 0.4213 1.9125 0.8425s0.6375 0.8424 0.6375 1.2636-0.2125 0.8424-0.6375 1.2636c-0.425 0.4213-1.0625 0.6319-1.7 0.6319h-0.85c-4.0375-0.6319-7.65-1.0531-10.625-0.8425s-5.7375 0.6319-8.5 1.6849c-2.7625 0.8424-5.7375 2.3167-9.1375 4.2121-0.425 0.2106-0.85 0.4212-1.275 0.4212-0.85 0-1.4875-0.2106-2.125-0.8424s-0.85-1.2636-0.85-2.1061c0-0.8424 0.2125-1.4742 0.85-1.8954 1.4875-0.8424 3.4-1.8955 5.3125-2.7379-0.425-1.2636-0.6375-3.1591-0.85-5.4758-0.2125-4.2121 0-9.4772 0.85-15.374-0.425 0.2106-0.85 0.2106-1.275 0.2106-0.6375 0-1.0625-0.2106-1.275-0.4212-0.2125-0.4212-0.425-0.8424-0.425-1.2636 0-0.6319 0.2125-1.2637 0.425-1.8955 0.425-0.6318 0.85-1.053 1.4875-1.4742h2.7625c1.0625-5.4758 2.3375-10.53 3.825-15.164 1.4875-4.6333 3.1875-7.7924 4.675-9.6879-2.7625 1.2637-5.3125 2.7379-7.225 4.844-1.9125 1.8954-3.1875 4.2121-3.6125 6.95 0 0.2106 0 0.4212 0.2125 0.8424 0 0.4212 0 0.8424-0.425 1.2636-0.2125 0.2107-0.6375 0.4213-1.0625 0.4213s-0.85-0.2106-1.275-0.4213c-0.425-0.2106-0.6375-0.6318-0.85-1.2636-0.2125-1.053-0.425-1.6848-0.425-2.1061-0.2125-3.3697 1.275-6.5287 4.0375-9.2666s6.8-5.4758 11.262-7.1606 8.7125-2.9485 12.962-3.1591c2.975-0.21061 5.525 0.21061 7.65 1.053 2.125 0.84243 3.6125 2.1061 4.25 4.0015 0.2125 0.42121 0.2125 0.84242 0.2125 1.4742zm21.25 26.115c-0.85 0-1.488-0.2106-2.1253-0.6318-0.6375-0.4212-0.85-1.053-0.85-1.6848 0-0.6319 0.2125-1.2637 0.6375-1.8955s1.0628-1.053 1.6998-1.053c0.85 0 1.488 0.2106 2.125 0.8424 0.638 0.6318 0.85 1.2636 0.85 2.1061 0 0.6318-0.212 1.2636-0.425 1.6848-0.425 0.2106-1.062 0.6318-1.912 0.6318zm20.4 3.3697c-1.275 3.7909-2.125 8.6349-2.763 14.742h0.213c1.912 0 3.4-1.2636 4.887-3.3696 1.488-2.1061 2.55-4.6334 3.188-7.3713 0.637-2.7378 1.062-5.2651 0.85-7.1606 0-0.8424-0.213-1.4742-0.425-1.8954-0.213-0.4212-0.425-0.6318-0.85-0.6318-2.125 0-3.825 1.8954-5.1 5.6863z"/>
 </g>
</svg>
