<svg width="9209" height="801" fill="none" version="1.1" viewBox="0 0 9209 801" xmlns="http://www.w3.org/2000/svg">
 <path d="m9208.5 121.69v678.5l-9208.5-0.188v-553.79c126.65-71.201 276.45-102.21 422.1-105.06 204.49-3.639 406.26 5.483 608.02 40.214 302.12 51.976 609.2 78.954 914.66 57.356 350.88-24.762 694.34-144.54 1042.6-194.86 295.94-42.8 596.45-58.148 893.94-28.56 270.72 31.655 631.22 99.43 903.96 115.04 237.44 13.566 476.14-3.404 710.98-36.128 156.79-21.978 313.67-51.153 472.62-48.722 86.22 1.2589 167.6 15.006 254.6 31.006 95.5 17.563 192.12 36.694 287.85 54.772 263.03 49.649 530.37 75.417 796.31 54.787 305.48-23.653 604.5-81.911 907.72-129.97 257.64-40.882 519.27-20.543 778.26 7.7198 81.88 8.9347 214.88 57.881 214.88 57.881z" fill="url(#paint0_linear)"/>
 <defs>
  <linearGradient id="paint0_linear" x1="4604.3" x2="4604.3" y2="741.41" gradientUnits="userSpaceOnUse">
   <stop stop-color="#074461" offset="0"/>
   <stop stop-color="#053349" offset=".5"/>
   <stop stop-color="#032230" offset="1"/>
  </linearGradient>
 </defs>
</svg>
