<svg width="6304" height="800" fill="none" version="1.1" viewBox="0 0 6304 800" xmlns="http://www.w3.org/2000/svg">
 <path d="m4792.3 130.34c-272.74-15.608-539.71-71.137-810.43-102.79-130.84-15.294-250.82-25.204-382.87-27.317-200.06-1.2224-413.36 14.959-611.6 43.629-348.28 50.315-691.74 170.1-1042.6 194.86-305.46 21.597-612.54-5.38-914.66-57.357-201.77-34.73-403.54-43.852-608.02-40.213-145.65 2.848-295.44 33.86-422.1 105.06v553.79h3586 2718v-688.57c-98.45-44.783-214.88-64.281-328.1-65.934-158.95-2.4312-315.83 26.744-472.62 48.722-234.84 32.724-473.54 49.695-710.98 36.128z" fill="url(#paint0_linear)"/>
 <defs>
  <linearGradient id="paint0_linear" x1="3152" x2="3152" y1=".16992" y2="741.25" gradientUnits="userSpaceOnUse">
   <stop stop-color="#054462" offset="0"/>
   <stop stop-color="#032230" offset="1"/>
  </linearGradient>
 </defs>
</svg>
