<svg id="Layer_1" xmlns="http://www.w3.org/2000/svg" viewBox="0 0 48 48"><style>.st0{fill:#5e3e21}.st1{fill:#783a28}.st5{fill:#662f1e}.st6{fill:#231d13}</style><path class="st0" d="M23.1 42.7c.1-.4-4.5-.7-4.5-.7.1.5.5 1.3.8 1.9-.4-.1-.8-.1-1.3-.1-2.5 0-4.6 1.1-4.6 2.5 0 1 2.3.8 4.6.7 1.2 0 2.3.1 3.1.1h1.5s.6-.5-.3-2.5c-.2-.4.6-1.6.7-1.9zm-.7 4.1z"/><path class="st1" d="M21.7 34.1c.4.2.6.5.8.7.2.2.3.5.4.7 0 .1.1.2.1.3l.1.3.1.7c.1.9.3 1.8.3 2.7.1.9.1 1.8.1 2.7V44.1c0 .1-.1.2-.2.3-.1.1-.2.2-.5.3l-8.6-.6c-.2-.1-.3-.2-.4-.4-.1-.1-.1-.2-.2-.3v-.6c.1-.4.1-.9.2-1.3.1-.9.3-1.8.5-2.6.2-.9.4-1.7.7-2.6l.2-.7.1-.3c0-.1.1-.2.1-.3.1-.2.2-.4.5-.6.2-.2.5-.4.9-.6l4.8.3z"/><path class="st0" d="M25.2 44.5c-.9 2-.3 2.5-.3 2.5h1.5c.9 0 2-.1 3.1-.1 2.3 0 4.6.2 4.6-.7 0-1.4-2.1-2.5-4.6-2.5-.4 0-.9 0-1.3.1.3-.5.7-1.3.8-1.9 0 0-4.6.3-4.5.7.1.4.9 1.6.7 1.9zm-.1 2.3z"/><path class="st1" d="M30.6 33.8c.4.2.7.4.9.6.2.2.4.4.5.6.1.1.1.2.1.3l.1.3.2.7c.3.9.5 1.7.7 2.6.2.9.3 1.8.5 2.6.1.4.1.9.2 1.3v.6c0 .1-.1.2-.2.3l-.4.4-8.6.6c-.2-.1-.4-.2-.5-.3-.1-.1-.2-.2-.2-.3v-.6-1.3c0-.9 0-1.8.1-2.7l.3-2.7.1-.7.1-.3c0-.1 0-.2.1-.3.1-.2.2-.5.4-.7.2-.2.4-.5.8-.7l4.8-.3z"/><path d="M35.6 31.7v-.4-.1c-.4-7.2-2.8-13.5-11.9-13.5-9.2 0-12.1 8.9-11.3 19.4 0 4 6.4 3.8 11.9 3.8 6.3 0 11.4-.4 11.4-3.2v-3c-.1-1.1-.1-2.1-.1-3z" fill="#8f4729"/><path class="st0" d="M8.2 32.3c-.5 1.1-1.5 3.8 1.4 4.8s2.2-.6 2.2-1.3c0-1.3.8-2 .8-2l-4.4-1.5z"/><path class="st1" d="M18.8 19.7c.2.5.3.7.3.9v.4c0 .3-.1.5-.2.7-.1.4-.3.7-.6 1-.2.3-.5.5-.7.8l-.6.7-.2.2c0 .1-.1.1-.1.2l-.3.4-.3.4c-.1.1-.2.3-.2.4-.2.3-.3.6-.5.8l-.2.4c0 .1-.1.1-.1.2l-.1.4c-.5 1.1-.9 2.2-1.2 3.3l-.1.2-.1.2c0 .1-.1.3-.1.4 0 .1-.1.3-.1.4 0 .1-.1.3-.1.5s-.1.3-.1.5-.1.3-.2.5c0 .1-.1.2-.2.2-.1.1-.1.2-.2.2-.1.1-.2.2-.4.2l-.2.2h-.5-.4l-2.4-.2H8.4 8h-.1l-.3-.2c-.2-.1-.3-.2-.3-.3-.1-.1-.1-.2-.2-.3 0-.1-.1-.2-.1-.3-.1-.2-.1-.4-.1-.6 0-.2 0-.4.1-.6 0-.2.1-.4.1-.6 0-.2.1-.4.1-.6 0-.2.1-.4.2-.6 0-.1.1-.2.1-.3V29c.1-.2.1-.4.2-.6l.3-.6.1-.3c0-.1.1-.2.1-.3l.3-.6c.2-.4.5-.8.7-1.1l.2-.3c.1-.1.1-.2.2-.3.1-.2.3-.4.4-.5.3-.4.6-.7.9-1l.2-.2.1-.1.1-.1.5-.4c.2-.1.3-.3.5-.4l.5-.4.5-.4c.1-.1.2-.1.2-.2l.3-.2 1-.7c.3-.2.7-.4 1-.6.2-.1.3-.2.5-.3.2-.1.4-.1.6-.1h.7c.1 0 .3.1.4.1.2-.2.4-.1.8.3z"/><g><path class="st0" d="M39.7 32.3c.5 1.1 1.5 3.8-1.4 4.8s-2.2-.6-2.2-1.3c0-1.3-.8-2-.8-2l4.4-1.5z"/><path class="st1" d="M29.1 19.7c.4-.4.6-.5.7-.5.1 0 .3-.1.4-.1h.7c.2 0 .4.1.6.1.2.1.4.2.5.3.3.2.7.4 1 .6l1 .7.3.2c.1.1.2.1.2.2l.5.4.5.4c.2.1.3.3.5.4l.5.4.1.1.1.1.2.2c.3.3.6.6.9 1 .1.2.3.3.4.5.1.1.1.2.2.3l.2.3c.2.4.5.7.7 1.1l.3.6c.1.1.1.2.1.3l.1.3.3.6c.1.2.1.4.2.6l.1.3c0 .1.1.2.1.3.1.2.1.4.2.6 0 .2.1.4.1.6 0 .2.1.4.1.6 0 .2.1.4.1.6 0 .2 0 .4-.1.6 0 .1-.1.2-.1.3 0 .1-.1.2-.2.3l-.3.3-.2.7H39.8h-.4l-2.4.2H36.7h-.5-.1l-.3-.1c-.2-.1-.3-.1-.4-.2-.3.1-.4 0-.4-.1-.1-.1-.1-.2-.2-.2-.1-.2-.2-.3-.2-.5s-.1-.3-.1-.5-.1-.3-.1-.5c0-.1-.1-.3-.1-.4 0-.1-.1-.3-.1-.4l-.1-.2-.1-.2c-.3-1.1-.7-2.2-1.2-3.3l-.1-.2c0-.1-.1-.1-.1-.2l-.2-.4c-.1-.3-.3-.6-.5-.8-.1-.1-.2-.3-.2-.4l-.3-.4-.3-.4c0-.1-.1-.1-.1-.2l-.2-.2-.6-.8c-.2-.3-.4-.5-.7-.8-.2-.2-.4-.6-.6-1-.1-.2-.1-.4-.2-.7v-.4c.1-.3.1-.5.4-1z"/></g><g><path d="M24.3 29.4c-1.3-.4-2.2-1.9-3.8-2.8-2.3-1.3-2.7-3.2-2.7-2.3.1.8-.8 1.2-.8 1.1 0-.1.3.2.2-1.1-.1-1.3-2-2-3.2-4.3-.3-.6-.8-1.8-1-2.5-.1.3-.2.7-.3 1-2-7.5 1.9-11.5 2.4-11.8-.2 0-.9.1-1.5.5 1.3-2.3 3.3-2.4 3.7-2.4-.3-.3-1-.4-1.5-.3 1-1 1.9-1.6 3.4-1.5.9 0 1.2.7 1.2.7-.3-.5 0-2 2-2.5-1.3 2.3-.8 1.9-.7 2 .1.1 1.7-1.1 3.2-1.1-.4.1-.7.4-.8.7 1.5-.5 3.2-1.1 6.2.7-1.2-.1-1.8.3-2.3.4.4.1 5.6 1.7 6.8 6.5-.2-.1-1.5-.8-1.7-.7.9.6 3.9 2.9 1.5 10.9 0-.4-.4-1.4-.6-1.4.3.8-.6 3-3.5 4.9-4 2.2-5.7 3.7-6.2 5.3z" fill="#dcb680"/><path class="st0" d="M30.8 14.3c0-3.9-3.1-7-7-7s-7 3.1-7 7c0 2.3 1.1 4.2 2.7 5.5 1.8 1.5 3.2 2.6 4.2 4.4.5-1.3 2.3-2.6 4.2-4.3 1.6-1.4 2.9-3.3 2.9-5.6z"/><path d="M30.4 13.9c0 3.7-3 6.8-6.6 6.8-3.7 0-6.6-3-6.6-6.8 0-3.7 3-6.8 6.6-6.8 3.6 0 6.6 3.1 6.6 6.8z" fill="#c69666"/><path class="st5" d="M25 12.1c.2.1.5.1.7.2.2.1.5.2.7.2l.6.3c.2.1.4.3.6.4-.2-.2-.4-.3-.6-.3-.2-.1-.4-.1-.7-.2-.2-.1-.5-.1-.7-.1-.2 0-.5-.1-.7-.1l.1-.4zM22.4 12.6h-.7c-.2 0-.5 0-.7.1-.2 0-.5.1-.7.2l-.6.3c.2-.2.4-.3.6-.4.2-.1.4-.2.7-.3.2-.1.5-.1.7-.2.2-.1.5-.1.7-.1v.4z"/><path class="st6" d="M22.6 13.5c-.5-.1-1-.1-1.4-.2.5-.1 1-.1 1.4-.2v.4zM24.7 13.2h1.4c.2 0 .3 0 .5.1h-1c-.3 0-.6.1-.9.1v-.2z"/><path d="M22.1 14.2c-.1.2 0 .4.1.6.1.2.2.3.4.4.3.2.7.3 1.1.3h.6c.2 0 .4-.1.5-.3.2-.1.3-.3.4-.5.1-.2.1-.4 0-.6.1.1.1.2.1.3v.4l-.3.6c-.2.2-.4.3-.6.4-.2.1-.5.1-.7.1-.2 0-.5 0-.7-.1l-.6-.3c-.2-.2-.3-.4-.4-.6v-.3c0-.2.1-.3.1-.4z" fill="#574c3e"/><path class="st6" d="M20.2 16.5l1.8.9c.6.3 1.2.4 1.9.6.6.1 1.3.1 1.9-.1.2 0 .3-.1.5-.1.2-.1.3-.1.4-.2.3-.2.6-.4.8-.6-.2.3-.4.6-.7.8-.3.2-.6.4-.9.5-.7.3-1.4.3-2.1.2-.7-.1-1.4-.4-2-.7-.5-.5-1.1-.9-1.6-1.3z"/><path d="M22.5 7.3c.8-.2 1.7-.2 2.6 0 2.4.5 4.1 2.5 4.4 3.1-.6-.2-1.4-.3-2.1 0-.1 0-.2.1-.3.1l-1-1.7-.1 2.1c-3.8 1.1-7.7-1.7-8.7.7 1.1-2.4 3-3.9 5.2-4.3" fill="#442c1a"/></g></svg>