<?xml version="1.0" encoding="utf-8"?>
<!-- Generator: Adobe Illustrator 22.0.1, SVG Export Plug-In . SVG Version: 6.00 Build 0)  -->
<svg version="1.1" id="Layer_1" xmlns="http://www.w3.org/2000/svg" xmlns:xlink="http://www.w3.org/1999/xlink" x="0px" y="0px"
	 viewBox="0 0 48 48" style="enable-background:new 0 0 48 48;" xml:space="preserve">
<style type="text/css">
	.st0{fill:#5E3E21;}
	.st1{fill:#783A28;}
	.st2{fill:#8F4729;}
	.st3{fill:#DCB680;}
	.st4{fill:#C69666;}
	.st5{fill:#662F1E;}
	.st6{fill:#231D13;}
	.st7{fill:#574C3E;}
	.st8{fill:#442C1A;}
</style>
<g>
	<path class="st0" d="M23.1,42.7c0.1-0.4-4.5-0.7-4.5-0.7c0.1,0.5,0.5,1.3,0.8,1.9c-0.4-0.1-0.8-0.1-1.3-0.1c-2.5,0-4.6,1.1-4.6,2.5
		c0,1,2.3,0.8,4.6,0.7c1.2,0,2.3,0.1,3.1,0.1l0,0h1.5c0,0,0.6-0.5-0.3-2.5C22.2,44.2,23,43,23.1,42.7z M22.4,46.8L22.4,46.8
		L22.4,46.8L22.4,46.8z"/>
	<path class="st1" d="M21.7,34.1c0.4,0.2,0.6,0.5,0.8,0.7c0.2,0.2,0.3,0.5,0.4,0.7c0,0.1,0.1,0.2,0.1,0.3l0.1,0.3l0.1,0.7
		c0.1,0.9,0.3,1.8,0.3,2.7c0.1,0.9,0.1,1.8,0.1,2.7c0,0.4,0,0.9,0,1.3l0,0.3c0,0.1,0,0.2,0,0.3c0,0.1-0.1,0.2-0.2,0.3
		c-0.1,0.1-0.2,0.2-0.5,0.3l-8.6-0.6c-0.2-0.1-0.3-0.2-0.4-0.4c-0.1-0.1-0.1-0.2-0.2-0.3c0-0.1,0-0.2,0-0.3l0-0.3
		c0.1-0.4,0.1-0.9,0.2-1.3c0.1-0.9,0.3-1.8,0.5-2.6c0.2-0.9,0.4-1.7,0.7-2.6l0.2-0.7l0.1-0.3c0-0.1,0.1-0.2,0.1-0.3
		c0.1-0.2,0.2-0.4,0.5-0.6c0.2-0.2,0.5-0.4,0.9-0.6L21.7,34.1z"/>
</g>
<g>
	<path class="st0" d="M25.2,44.5c-0.9,2-0.3,2.5-0.3,2.5h1.5l0,0c0.9,0,2-0.1,3.1-0.1c2.3,0,4.6,0.2,4.6-0.7c0-1.4-2.1-2.5-4.6-2.5
		c-0.4,0-0.9,0-1.3,0.1c0.3-0.5,0.7-1.3,0.8-1.9c0,0-4.6,0.3-4.5,0.7C24.6,43,25.4,44.2,25.2,44.5z M25.1,46.8L25.1,46.8L25.1,46.8
		L25.1,46.8z"/>
	<path class="st1" d="M30.6,33.8c0.4,0.2,0.7,0.4,0.9,0.6c0.2,0.2,0.4,0.4,0.5,0.6c0.1,0.1,0.1,0.2,0.1,0.3l0.1,0.3l0.2,0.7
		c0.3,0.9,0.5,1.7,0.7,2.6c0.2,0.9,0.3,1.8,0.5,2.6c0.1,0.4,0.1,0.9,0.2,1.3l0,0.3c0,0.1,0,0.2,0,0.3c0,0.1-0.1,0.2-0.2,0.3
		c-0.1,0.1-0.2,0.2-0.4,0.4l-8.6,0.6c-0.2-0.1-0.4-0.2-0.5-0.3c-0.1-0.1-0.2-0.2-0.2-0.3c0-0.1,0-0.2,0-0.3l0-0.3c0-0.4,0-0.9,0-1.3
		c0-0.9,0-1.8,0.1-2.7c0.1-0.9,0.2-1.8,0.3-2.7l0.1-0.7l0.1-0.3c0-0.1,0-0.2,0.1-0.3c0.1-0.2,0.2-0.5,0.4-0.7
		c0.2-0.2,0.4-0.5,0.8-0.7L30.6,33.8z"/>
</g>
<path class="st2" d="M35.6,31.7v-0.4c0,0,0-0.1,0-0.1c-0.4-7.2-2.8-13.5-11.9-13.5l0,0c-9.2,0-12.1,8.9-11.3,19.4l0,0
	c0,4,6.4,3.8,11.9,3.8c6.3,0,11.4-0.4,11.4-3.2v-3C35.6,33.6,35.6,32.6,35.6,31.7z"/>
<g>
	<g>
		<path class="st0" d="M8.2,32.3c-0.5,1.1-1.5,3.8,1.4,4.8c2.9,1,2.2-0.6,2.2-1.3c0-1.3,0.8-2,0.8-2L8.2,32.3z"/>
	</g>
	<path class="st1" d="M18.8,19.7c0.2,0.5,0.3,0.7,0.3,0.9c0,0.2,0,0.3,0,0.4c0,0.3-0.1,0.5-0.2,0.7c-0.1,0.4-0.3,0.7-0.6,1
		c-0.2,0.3-0.5,0.5-0.7,0.8L17,24.2l-0.2,0.2c0,0.1-0.1,0.1-0.1,0.2l-0.3,0.4l-0.3,0.4c-0.1,0.1-0.2,0.3-0.2,0.4
		c-0.2,0.3-0.3,0.6-0.5,0.8l-0.2,0.4c0,0.1-0.1,0.1-0.1,0.2L15,27.6c-0.5,1.1-0.9,2.2-1.2,3.3l-0.1,0.2l-0.1,0.2
		c0,0.1-0.1,0.3-0.1,0.4c0,0.1-0.1,0.3-0.1,0.4c0,0.1-0.1,0.3-0.1,0.5c0,0.2-0.1,0.3-0.1,0.5c0,0.2-0.1,0.3-0.2,0.5
		c0,0.1-0.1,0.2-0.2,0.2c-0.1,0.1-0.1,0.2-0.2,0.2c-0.1,0.1-0.2,0.2-0.4,0.2L12,34.4c0,0,0,0-0.1,0l-0.1,0l0,0l0,0l0,0l0,0l-0.1,0
		l-0.2,0c0,0,0,0-0.1,0l-0.1,0l-0.2,0l-2.4-0.2l-0.2,0l-0.1,0c0,0-0.1,0-0.1,0l-0.1,0l-0.1,0l0,0l0,0l0,0l0,0l-0.1,0c0,0,0,0-0.1,0
		l-0.3-0.2c-0.2-0.1-0.3-0.2-0.3-0.3c-0.1-0.1-0.1-0.2-0.2-0.3c0-0.1-0.1-0.2-0.1-0.3c-0.1-0.2-0.1-0.4-0.1-0.6c0-0.2,0-0.4,0.1-0.6
		c0-0.2,0.1-0.4,0.1-0.6c0-0.2,0.1-0.4,0.1-0.6c0-0.2,0.1-0.4,0.2-0.6c0-0.1,0.1-0.2,0.1-0.3L7.5,29c0.1-0.2,0.1-0.4,0.2-0.6
		c0.1-0.2,0.2-0.4,0.3-0.6l0.1-0.3c0-0.1,0.1-0.2,0.1-0.3l0.3-0.6c0.2-0.4,0.5-0.8,0.7-1.1l0.2-0.3c0.1-0.1,0.1-0.2,0.2-0.3
		c0.1-0.2,0.3-0.4,0.4-0.5c0.3-0.4,0.6-0.7,0.9-1l0.2-0.2c0,0,0.1-0.1,0.1-0.1l0.1-0.1l0.5-0.4c0.2-0.1,0.3-0.3,0.5-0.4l0.5-0.4
		l0.5-0.4c0.1-0.1,0.2-0.1,0.2-0.2l0.3-0.2l1-0.7c0.3-0.2,0.7-0.4,1-0.6c0.2-0.1,0.3-0.2,0.5-0.3c0.2-0.1,0.4-0.1,0.6-0.1
		c0.2,0,0.5,0,0.7,0c0.1,0,0.3,0.1,0.4,0.1C18.2,19.2,18.4,19.3,18.8,19.7L18.8,19.7z"/>
</g>
<g>
	<g>
		<path class="st0" d="M39.7,32.3c0.5,1.1,1.5,3.8-1.4,4.8c-2.9,1-2.2-0.6-2.2-1.3c0-1.3-0.8-2-0.8-2L39.7,32.3z"/>
	</g>
	<path class="st1" d="M29.1,19.7c0.4-0.4,0.6-0.5,0.7-0.5c0.1,0,0.3-0.1,0.4-0.1c0.3,0,0.5,0,0.7,0c0.2,0,0.4,0.1,0.6,0.1
		c0.2,0.1,0.4,0.2,0.5,0.3c0.3,0.2,0.7,0.4,1,0.6l1,0.7l0.3,0.2c0.1,0.1,0.2,0.1,0.2,0.2l0.5,0.4l0.5,0.4c0.2,0.1,0.3,0.3,0.5,0.4
		l0.5,0.4l0.1,0.1c0,0,0.1,0.1,0.1,0.1l0.2,0.2c0.3,0.3,0.6,0.6,0.9,1c0.1,0.2,0.3,0.3,0.4,0.5c0.1,0.1,0.1,0.2,0.2,0.3l0.2,0.3
		c0.2,0.4,0.5,0.7,0.7,1.1l0.3,0.6c0.1,0.1,0.1,0.2,0.1,0.3l0.1,0.3c0.1,0.2,0.2,0.4,0.3,0.6c0.1,0.2,0.1,0.4,0.2,0.6l0.1,0.3
		c0,0.1,0.1,0.2,0.1,0.3c0.1,0.2,0.1,0.4,0.2,0.6c0,0.2,0.1,0.4,0.1,0.6c0,0.2,0.1,0.4,0.1,0.6c0,0.2,0.1,0.4,0.1,0.6
		c0,0.2,0,0.4-0.1,0.6c0,0.1-0.1,0.2-0.1,0.3c0,0.1-0.1,0.2-0.2,0.3c-0.1,0.1-0.2,0.2-0.3,0.3L40.1,34c0,0,0,0-0.1,0L40,34l0,0l0,0
		l0,0l0,0l-0.1,0l-0.1,0c0,0,0,0-0.1,0l-0.1,0l-0.2,0l-2.4,0.2l-0.2,0l-0.1,0c0,0-0.1,0-0.1,0l-0.2,0l-0.1,0l0,0l0,0l0,0l0,0l-0.1,0
		c0,0-0.1,0-0.1,0l-0.3-0.1c-0.2-0.1-0.3-0.1-0.4-0.2C35.1,34,35,33.9,35,33.8c-0.1-0.1-0.1-0.2-0.2-0.2c-0.1-0.2-0.2-0.3-0.2-0.5
		c0-0.2-0.1-0.3-0.1-0.5c0-0.2-0.1-0.3-0.1-0.5c0-0.1-0.1-0.3-0.1-0.4c0-0.1-0.1-0.3-0.1-0.4l-0.1-0.2l-0.1-0.2
		c-0.3-1.1-0.7-2.2-1.2-3.3l-0.1-0.2c0-0.1-0.1-0.1-0.1-0.2l-0.2-0.4c-0.1-0.3-0.3-0.6-0.5-0.8c-0.1-0.1-0.2-0.3-0.2-0.4l-0.3-0.4
		l-0.3-0.4c0-0.1-0.1-0.1-0.1-0.2l-0.2-0.2l-0.6-0.8c-0.2-0.3-0.4-0.5-0.7-0.8c-0.2-0.2-0.4-0.6-0.6-1c-0.1-0.2-0.1-0.4-0.2-0.7
		c0-0.1,0-0.3,0-0.4C28.8,20.4,28.8,20.2,29.1,19.7L29.1,19.7z"/>
</g>
<g>
	<path class="st3" d="M24.3,29.4c-1.3-0.4-2.2-1.9-3.8-2.8c-2.3-1.3-2.7-3.2-2.7-2.3c0.1,0.8-0.8,1.2-0.8,1.1c0-0.1,0.3,0.2,0.2-1.1
		c-0.1-1.3-2-2-3.2-4.3c-0.3-0.6-0.8-1.8-1-2.5c-0.1,0.3-0.2,0.7-0.3,1c-2-7.5,1.9-11.5,2.4-11.8c-0.2,0-0.9,0.1-1.5,0.5
		c1.3-2.3,3.3-2.4,3.7-2.4c-0.3-0.3-1-0.4-1.5-0.3c1-1,1.9-1.6,3.4-1.5c0.9,0,1.2,0.7,1.2,0.7c-0.3-0.5,0-2,2-2.5
		c-1.3,2.3-0.8,1.9-0.7,2c0.1,0.1,1.7-1.1,3.2-1.1c-0.4,0.1-0.7,0.4-0.8,0.7c1.5-0.5,3.2-1.1,6.2,0.7c-1.2-0.1-1.8,0.3-2.3,0.4
		c0.4,0.1,5.6,1.7,6.8,6.5c-0.2-0.1-1.5-0.8-1.7-0.7c0.9,0.6,3.9,2.9,1.5,10.9c0-0.4-0.4-1.4-0.6-1.4c0.3,0.8-0.6,3-3.5,4.9
		C26.5,26.3,24.8,27.8,24.3,29.4z"/>
	<path class="st0" d="M30.8,14.3c0-3.9-3.1-7-7-7c-3.9,0-7,3.1-7,7c0,2.3,1.1,4.2,2.7,5.5c1.8,1.5,3.2,2.6,4.2,4.4
		c0.5-1.3,2.3-2.6,4.2-4.3C29.5,18.5,30.8,16.6,30.8,14.3z"/>
	<g>
		<path class="st4" d="M30.4,13.9c0,3.7-3,6.8-6.6,6.8c-3.7,0-6.6-3-6.6-6.8c0-3.7,3-6.8,6.6-6.8C27.4,7.1,30.4,10.2,30.4,13.9z"/>
		<path class="st5" d="M25,12.1c0.2,0.1,0.5,0.1,0.7,0.2c0.2,0.1,0.5,0.2,0.7,0.2c0.2,0.1,0.4,0.2,0.6,0.3c0.2,0.1,0.4,0.3,0.6,0.4
			c-0.2-0.2-0.4-0.3-0.6-0.3c-0.2-0.1-0.4-0.1-0.7-0.2c-0.2-0.1-0.5-0.1-0.7-0.1c-0.2,0-0.5-0.1-0.7-0.1L25,12.1z"/>
		<path class="st5" d="M22.4,12.6c-0.2,0-0.5,0-0.7,0c-0.2,0-0.5,0-0.7,0.1c-0.2,0-0.5,0.1-0.7,0.2c-0.2,0.1-0.4,0.2-0.6,0.3
			c0.2-0.2,0.4-0.3,0.6-0.4c0.2-0.1,0.4-0.2,0.7-0.3c0.2-0.1,0.5-0.1,0.7-0.2c0.2-0.1,0.5-0.1,0.7-0.1L22.4,12.6z"/>
		<path class="st6" d="M22.6,13.5c-0.5-0.1-1-0.1-1.4-0.2c0.5-0.1,1-0.1,1.4-0.2L22.6,13.5z"/>
		<path class="st6" d="M24.7,13.2c0.3,0,0.6,0,0.9,0c0.2,0,0.3,0,0.5,0c0.2,0,0.3,0,0.5,0.1c-0.2,0-0.3,0-0.5,0c-0.2,0-0.3,0-0.5,0
			c-0.3,0-0.6,0.1-0.9,0.1L24.7,13.2z"/>
		<path class="st7" d="M22.1,14.2c-0.1,0.2,0,0.4,0.1,0.6c0.1,0.2,0.2,0.3,0.4,0.4c0.3,0.2,0.7,0.3,1.1,0.3c0.2,0,0.4,0,0.6,0
			c0.2,0,0.4-0.1,0.5-0.3c0.2-0.1,0.3-0.3,0.4-0.5c0.1-0.2,0.1-0.4,0-0.6c0.1,0.1,0.1,0.2,0.1,0.3c0,0.1,0,0.1,0,0.2
			c0,0.1,0,0.1,0,0.2c-0.1,0.2-0.2,0.4-0.3,0.6c-0.2,0.2-0.4,0.3-0.6,0.4c-0.2,0.1-0.5,0.1-0.7,0.1c-0.2,0-0.5,0-0.7-0.1
			c-0.2-0.1-0.4-0.2-0.6-0.3c-0.2-0.2-0.3-0.4-0.4-0.6c0-0.1,0-0.2,0-0.3C22,14.4,22.1,14.3,22.1,14.2z"/>
		<path class="st6" d="M20.2,16.5c0.6,0.3,1.2,0.6,1.8,0.9c0.6,0.3,1.2,0.4,1.9,0.6c0.6,0.1,1.3,0.1,1.9-0.1c0.2,0,0.3-0.1,0.5-0.1
			c0.2-0.1,0.3-0.1,0.4-0.2c0.3-0.2,0.6-0.4,0.8-0.6c-0.2,0.3-0.4,0.6-0.7,0.8c-0.3,0.2-0.6,0.4-0.9,0.5c-0.7,0.3-1.4,0.3-2.1,0.2
			c-0.7-0.1-1.4-0.4-2-0.7C21.3,17.3,20.7,16.9,20.2,16.5z"/>
		<path class="st8" d="M22.5,7.3c0.8-0.2,1.7-0.2,2.6,0c2.4,0.5,4.1,2.5,4.4,3.1c-0.6-0.2-1.4-0.3-2.1,0c-0.1,0-0.2,0.1-0.3,0.1
			l-1-1.7L26,10.9c-3.8,1.1-7.7-1.7-8.7,0.7C18.4,9.2,20.3,7.7,22.5,7.3"/>
	</g>
</g>
</svg>
