<svg
   xmlns="http://www.w3.org/2000/svg"
   version="1.1"
   viewBox="0 0 1919.2 1072.9"
   id="Layer_1">
  <style
     id="style2">.st0{display:none}.st1{display:inline}.st4{fill:#224f67}.st5{fill:#0b4559}.st6{fill:#1d4859}.st8{fill:#d6eef4}.st9{fill:#ddeffa}.st10{fill:#a1cada}.st11{fill:none}.st12{fill:#99bdc6}.st13{fill:#fff}.st14{fill:#e9e9ea}.st15{fill:#799fa5}.st22{fill:#4fbbe7}.st25{font-family:'SourceSansPro-Regular'}.st26{font-size:24px}.st27{fill:#56bce5}.st28{font-size:18px}.st29{fill:#e84c59}.st30{fill:#ee7b5c}.st31{fill:#f9c862}.st32{fill:#062633}.st33{fill:#abaaaa}.st34{fill:#e1dfe0}.st35{fill:#041d26}.st36{fill:#6e6e6e}.st37{fill:silver}.st38{fill:#5e3e21}.st41{fill:#783a28}.st42{fill:#8f4729}.st46{fill:#231d13}</style>
  <g
     id="g26"
     class="st0">
    <g
       id="g14"
       class="st1">
      <path
         id="path4"
         fill="#082d3a"
         d="M1228.9 170.3c1.1-.4 2.2-.7 3.4-.7.9 0 1.7-.8 2.2-1.5 5.4-7.5 12.7-10.9 21.5-10.5 1.6.1 3 0 4.1-.4v-.8c0-10.1 8.5-18.4 19-18.4 2.9 0 5.7.8 8.2 2 1 .2 1.9.3 2.9.6.8.2 1.6.5 2.4.6 1.8-1.6 4.3 1.9 6.9 1.9 1.8 0 2 17.5 3.5 18.3 1.9-2.3 4.8-2.4 8-2.4.7 0 1.3.1 2 .2 1.9-.8 1.8-3.3 2.7-4.9 4.4-8.2 9.8-15.1 18.5-18.8 12.9-5.5 24.9-3.9 36.4 3.9.6.4 1.1.8 1.7 1.1h1.1c8.3 0 15.6 8.3 19.8 14.6 1.5 1.8 2.8 3.8 3.2 6.3.3 1.6-4.6 3.4-3.7 4.4 5.1.6 5.1 14.2 5.1 14.2-2.7-4.3 5.1-20.6 15.7-21.3 6.4-.5 10.1 1.7 12.8 5.4.2 0-1.8-12.7 11.2-14.5 2.7-.4 4.3.2 5.8.9 1.9-4.5 9.9-9.5 16.8-9.5 10.6 0 20.6 7 23.8 15.1.9 2.2 1.4 5.1 1.4 5.1 3.2-2.2 7.4-3.5 12-3.5 8.4 0 14.1 7.8 16.4 13.9.3.2.6.3.9.5.7-.2 1.3-.3 2.1-.3 3.6 0 6.6 2.4 7.5 5.7 1.4-.3 2.9-.5 4.5-.5 6.3 0 11.7 1.4 13.7 5.3 1.5 0 2.9 1.1 4.4 1.1 21.3 0 38.7.1 38.5 1.8-.2 1.9-17.2 2.4-38.5 2.4-9.6 0-18.4-.5-25.1-1-2.1 1.1-5.5 1.7-9.2 1.6-2-.1-3.8-.3-5.5-.8-.2 0-.3.1-.5.1-4.5 1.5-14.9-.6-19.5-.7-5.9-.1-14.5-.4-20.4.6-1.3.2-6.5-.2-7.8-.5-9-2.2-15.9-3.5-26.9-3.1-4.5.2-27.9 2.6-32 .9-.5-.2-1.2-.4-1.8-.3-6.1.9-6.1-1.2-12.3-1.1-7.5.1-13.6.6-21.2.3-6.1-.3-12 1.9-18 2.3-8.6.6-6.9 1.6-15.5 1-5.7-.4-11.3-2-17.1-1.9-5.4.1-10.9 3.7-16.3 3.9-6.3.2-12.4-1-18.4-2.8-5.4-1.6-10.9-2.5-16.4-2.1-3.8.3-7.5.3-11.1-.7-5.5-1.4-11-3.5-16.8-1.4-.7.3-1.7 0-2.5-.1-.4.1-.9.1-1.3.1-3.2.3-6.3.2-8.9-.1-.5 0-.9 0-1.4-.2-3.7-.7-6.1-2.1-6.2-3.8-.3-3.6 6-6.6 14.2-7.5z" />
      <path
         id="path6"
         fill="#173a4b"
         d="M1479.4 122.4c-.4-.1-.7-.2-.7-.7 0-.3-.2-.4-.5-.4-.8.1-1.7.2-2.5.2-2 .1-4.1.2-6.1.1-2.3 0-4.6-.1-6.9-.2-.8 0-1.6-.2-2.4-.5-.4-.2-.4-.4 0-.6.7-.4 1.5-.4 2.2-.5 2.4-.4 4.9-.5 7.4-.6.8 0 1.6.2 2.1-.7.1-.1.1-.2.2-.3-.2-.2-.2-.5-.2-.7.1-.8 1.5-1.2 3.1-1h.2c.5 0 .6-.2.5-.6-.2-.8.3-1.4.9-1.8.5-.4 1.1-.5 1.8-.3.4.1.6.6 1 .7.5-.2 1.3-.3 2.1-.1h.2c-.1-.2-.2-.5-.2-.7 0-1.2 1.3-2.2 3-2.3.1-.1.2-.1.2-.2 0 0 0-.1.1-.1.3-1 1.5-1.7 2.9-1.7s2.7.7 3 1.6c.2 0 .4-.1.6-.1 1.7 0 3.1.9 3.1 2.1v.3c.1.1.1.3.2.4.7.3 1.2.8 1.2 1.2.1.1.3.2.6.1.5-.1 1 0 1.5.2.9.2 1.5.7 1.5 1.2 0 .3-.2.6-.6.9v.1l.1.1c.4 0 .7 0 1.1.1.6.1 1.2.3 1.6.6.4.1.7.1 1.1 0 .5-.1.7-.2.9-.6.3-.9 1-1.2 1.9-1.2s1.5.5 1.8 1.4c.1.5.4.6.8.5.4 0 .8.1 1.2.1 1 .1 1.7.7 2.7.9.4 0 .9-.1 1.3-.1 2.2-.1 4.1.3 4.1.8s-1.8.9-4 1c-.7 0-1.4 0-2-.1-.9 0-1.9-.1-2.8-.2-1-.2-1.8-.3-2.6.7-1 1.2-2.6 1.1-4 1-.8-.1-1.5-.2-2.3.3-1.5 1-3.3.9-5.1.8-.8-.1-1.6-.2-2.3-.7-.5-.4-.9-.2-1.4-.1-1.5.4-3 .3-4.4-.1-.4-.1-.8-.3-1.2-.2-1.9.5-4 .5-6 0z" />
      <path
         id="path8"
         d="M1630.9 175.2c-1.9.6-3.8.7-5.7.5-.9-.1-1.7 0-2.4.4s-1.6.6-2.3.6c-1.8 0-3.7.5-5.5-.2-.4-.2-.9-.2-1.3 0-1.9.7-3.8.6-5.7.1-.4-.1-.9-.2-1.2-.1-1.6.6-3.2.4-4.8.3-.8 0-1.4-.6-2.2-.3-1.1.4-2.2.5-3.2.4-1.6 0-3 .1-4.3-.5-.5-.2-1.3-.4-1.2-1.2 0-.4-.1-.5-.5-.6-.9 0-1.8 0-2.6-.1-.4 0-1.1-.1-1.1-.6 0-.6.7-.5 1.2-.6 3.1-.5 6.2.3 9.4.2.9 0 1.9.5 2.8.1.1 0 .2-.1.3-.2-.1-.1-.2-.2-.3-.2-.2-.2-.5-.4-.5-.7 0-.1.2-.3.4-.3 4-.7 7.9-.5 11.9-.4 1.9.1 3.7 1 5.7.9 1.5-.1 3 0 4.4.5.5.2 1.1.4 1.7.4 2.3-.2 4.6 0 6.9.5.3.1.5.2.5.5 0 .4-.2.5-.4.6z"
         class="st4" />
      <path
         id="path10"
         d="M1627.2 153.2h-8.1c-2.3-.2-4.7-.3-7-.3-.6 0-1.3.2-2 0-.2-1.7-3.5-3-7.6-3-1.3 0-2.6.1-3.7.4-.1-.2-.1-.5 0-1 .9-3.7-2-7.9-6.7-9.2-3.7-1-6.7-.1-9.5 1.8-.1.1-.4.2-.5.2-.2-.1-.3-.3-.3-.4-.1-1.8-1.1-3.3-2.3-4.5-2.1-2.3-5-3.7-8.6-4.1-7.6-.8-14.2 3.8-14.7 10.3 0 .3-.1.6-.6.4-1.7-.6-3.4-.6-5.1-.3-3.5.6-6.1 3.7-5.9 6.7-.7-.2-1.5-.2-2.4-.2-3.4 0-6.2 1.4-6.9 3.3-3.6-.1-7.2.1-10.8.8-.5.1-1.1.1-1.1.8.1.6.5.7 1.1.8 1.4.3 2.9.3 4.3.4 5.5.7 10.9.4 16.4.2 1.6-.1 3.2-.6 4.9-.1 1.5.5 3 .5 4.6 0 .9-.3 1.6-1.1 2.7-.6 2.2 1 4.5 1.4 7 .6 1-.3 1.9-1.1 3-.7 1.2.4 2.5.4 3.8.7 2.9.6 5.7.4 8.6.1 1.7-.2 3.2-1.3 5.1-.6 1.4.5 6.4 1 8 .9 1 0 1.9-.5 2.8-.6 2.3-.3 4.5.2 6.8.4 3.3.3 6.7.1 10.1.2 3.1.1 2.6-.1 5.6-.3 2.5-.1 4.8-.2 6.6-.4h2.2c19 0 34.4-.6 34.4-1.3.2-.8-15.2-1.4-34.2-1.4z"
         class="st5" />
      <path
         id="path12"
         d="M1630.8 174.2c-.1 0-.2 0-.3-.1-1.6.3-3.2.4-4.7.3-.9-.1-1.7.1-2.4.5s-1.6.6-2.4.6c-1.9 0-3.8.5-5.6-.1-.4-.1-.9-.1-1.3 0-1.9.7-3.8.6-5.8.2-.4-.1-.9-.2-1.3 0-1.6.6-3.2.4-4.9.4-.8 0-1.5-.6-2.3-.3-1.1.4-2.3.5-3.3.5-1.6 0-3 .1-4.4-.4-.5-.2-1.3-.4-1.2-1.1 0-.4-.1-.5-.5-.5h-2.7c-.3 0-.8-.1-1-.2v.2c0 .5.7.5 1.1.6.9.1 1.8.1 2.6.1.4 0 .6.1.5.6-.1.8.7 1 1.2 1.2 1.3.6 2.7.5 4.3.5 1 0 2.1 0 3.2-.4.8-.3 1.5.3 2.2.3 1.6.1 3.2.2 4.8-.3.4-.1.8 0 1.2.1 1.9.5 3.8.7 5.7-.1.4-.2.9-.2 1.3 0 1.8.7 3.7.2 5.5.2.7 0 1.6-.2 2.3-.6.7-.4 1.5-.5 2.4-.4 1.9.2 3.8.1 5.7-.5.3-.1.5-.2.5-.6.1-.6-.1-.7-.4-.7z"
         class="st6" />
    </g>
    <g
       id="g24"
       class="st1">
      <path
         id="path16"
         d="M987 273.5c-3.8 1.2-7.8 1.4-11.7 1-1.8-.2-3.4.1-4.9.9-1.5.9-3.3 1.3-4.8 1.3-3.8 0-7.6 1-11.3-.5-.9-.3-1.8-.3-2.7 0-3.9 1.5-7.7 1.2-11.7.2-.8-.2-1.8-.4-2.6-.1-3.2 1.2-6.5.8-9.8.7-1.5-.1-2.9-1.3-4.5-.7-2.3.8-4.6.9-6.6.8-3.2 0-6.1.1-8.8-1-1.1-.5-2.6-.8-2.4-2.6.1-.9-.3-1.1-1-1.1-1.8 0-3.6 0-5.4-.2-.9-.1-2.3-.2-2.2-1.2.1-1.2 1.5-1.1 2.5-1.3 6.4-1.1 12.8.7 19.3.5 1.9-.1 3.9 1 5.8.2.2-.1.4-.2.7-.4l-.5-.5c-.5-.3-1-.7-.9-1.3 0-.2.5-.5.8-.6 8.1-1.4 16.3-1.1 24.5-.8 4 .1 7.6 2.1 11.7 1.7 3.1-.3 6.2-.1 9.1 1 1.1.4 2.2.9 3.5.8 4.7-.4 9.5-.1 14.1 1.1.6.1 1 .3 1 1-.2.7-.7 1-1.2 1.1z"
         class="st4" />
      <path
         id="path18"
         d="M979.5 228.3c-5.7 0-11.3 0-16.6.1-4.8-.3-9.6-.5-14.4-.6-1.3 0-2.8.4-4 0-.4-3.4-7.2-6.1-15.5-6.1-2.7 0-5.3.3-7.6.8-.2-.4-.2-1.1.1-2.1 1.9-7.6-4-16.2-13.8-18.9-7.7-2.1-13.7-.2-19.6 3.6-.3.2-.8.4-1 .3-.3-.2-.6-.6-.6-.9-.2-3.6-2.4-6.7-4.8-9.3-4.4-4.7-10.2-7.7-17.6-8.5-15.5-1.7-29.2 7.8-30.1 21.2 0 .7-.2 1.2-1.2.8-3.4-1.2-6.9-1.2-10.5-.6-7.2 1.1-12.5 7.6-12.2 13.8-1.5-.3-3.1-.5-4.8-.5-7 0-12.8 2.9-14.2 6.8-7.4-.1-14.8.1-22.1 1.6-1.1.2-2.3.3-2.2 1.7.1 1.2 1.1 1.4 2.2 1.7 2.9.7 5.9.5 8.8.9 11.2 1.5 22.5.9 33.7.5 3.3-.1 6.6-1.3 10-.3 3.2 1 6.3 1 9.5 0 1.8-.6 3.3-2.3 5.5-1.3 4.6 2.2 9.3 2.8 14.4 1.2 2-.6 3.9-2.2 6.2-1.4 2.5.9 5.2.9 7.7 1.4 5.9 1.3 11.7.8 17.7.2 3.5-.4 6.6-2.6 10.5-1.2 2.9 1.1 13.1 2 16.5 1.9 2.1-.1 3.9-1 5.8-1.2 4.7-.5 9.3.3 14 .8 6.9.6 13.8.2 20.7.4 6.3.1 5.4-.1 11.5-.7 5.2-.1 9.9-.4 13.6-.8h4.5c39 0 70.7-1.2 70.7-2.7-.1-1.4-31.8-2.6-70.8-2.6z"
         class="st5" />
      <path
         id="path20"
         fill="#093f4c"
         d="M921.8 217.7c0-.5 0-.9-.1-1.4-.1.7 0 1.1.1 1.4zm57.7 10.6h-3c-3.7.4-8.4.8-13.6 1-6.2.7-5.3.9-11.7.9-7.1 0-14.2.5-21.2 0-4.8-.3-9.5-1.1-14.2-.5-2 .3-3.7 1.2-5.9 1.3-3.5.1-13.8-.6-16.9-1.7-3.9-1.4-7.1 1-10.7 1.4-6.1.8-12 1.3-18 .2-2.6-.5-5.3-.4-7.9-1.3-2.3-.8-4.3.9-6.3 1.5-5.2 1.7-10 1.1-14.7-1-2.3-1-3.8.8-5.6 1.4-3.3 1.1-6.4 1.1-9.7.2-3.5-1-6.8.3-10.2.4-11.5.6-22.9 1.4-34.4.1-3-.3-6-.1-8.9-.7.2 1.1 1.1 1.4 2.2 1.6 2.9.7 5.9.5 8.8.9 11.2 1.5 22.5.9 33.7.5 3.3-.1 6.6-1.3 10-.3 3.2 1 6.3 1 9.5 0 1.8-.6 3.3-2.3 5.5-1.3 4.6 2.2 9.3 2.8 14.4 1.2 2-.6 3.9-2.2 6.2-1.4 2.5.9 5.2.9 7.7 1.4 5.9 1.3 11.7.8 17.7.2 3.5-.4 6.6-2.6 10.5-1.2 2.9 1.1 13.1 2 16.5 1.9 2.1-.1 3.9-1 5.8-1.2 4.7-.5 9.3.3 14 .8 6.9.6 13.8.2 20.7.4 6.3.1 5.4-.1 11.5-.7 5.2-.1 9.9-.4 13.6-.8h4.5c39 0 70.7-1.2 70.7-2.7.1-1.3-31.6-2.5-70.6-2.5z" />
      <path
         id="path22"
         d="M986.9 271.4c-.2-.1-.4-.1-.7-.1-3.2.7-6.5.8-9.7.6-1.9-.1-3.5.1-5 1s-3.3 1.3-4.9 1.3c-3.8.1-7.7 1.1-11.6-.2-.9-.3-1.9-.3-2.8.1-3.9 1.5-7.9 1.3-11.9.4-.8-.2-1.9-.3-2.6-.1-3.3 1.2-6.6.9-10 .9-1.6 0-3-1.1-4.6-.6-2.3.8-4.6 1-6.7.9-3.3.1-6.2.2-9-.8-1.1-.4-2.7-.7-2.5-2.4.1-.8-.3-1.1-1.1-1.1-1.8 0-3.7 0-5.5-.1-.6 0-1.6-.1-2-.5 0 .1-.1.2-.1.3-.1 1 1.4 1.1 2.2 1.2 1.8.2 3.6.2 5.4.2.8 0 1.1.2 1 1.1-.2 1.7 1.3 2.1 2.4 2.6 2.7 1.2 5.6 1.1 8.8 1 2 .1 4.3-.1 6.6-.8 1.6-.6 3 .7 4.5.7 3.3.1 6.6.5 9.8-.7.7-.3 1.7-.1 2.6.1 3.9 1 7.8 1.4 11.7-.2.9-.4 1.9-.4 2.7 0 3.7 1.5 7.6.5 11.3.5 1.5 0 3.3-.4 4.8-1.3s3-1.1 4.9-.9c3.9.3 7.9.2 11.7-1 .6-.2 1-.5 1-1.2.3-.6-.1-.8-.7-.9z"
         class="st6" />
    </g>
  </g>
  <path
     id="path36"
     d="M1402.4 537.4c2.2 2.1 3.7 4.6 4.1 7.1 2.8.8 5.8 1.5 8.8 2.1l5.2.4c-3.7-2.2-8.6-4.1-14.4-5.6 9.8.9 19.1 2.6 27.2 4.7-7.8-3.4-16.1-6.3-24.7-8.7h-6.2z"
     class="st11" />
  <g
     id="g113"
     class="st0">
    <radialGradient
       gradientUnits="userSpaceOnUse"
       gradientTransform="matrix(1 0 0 1.2158 0 -845.073)"
       r="693.11"
       cy="1374.889"
       cx="959.65"
       id="SVGID_1_">
      <stop
         id="stop86"
         stop-opacity=".5"
         stop-color="#01323e"
         offset="0" />
      <stop
         id="stop88"
         stop-opacity="0"
         stop-color="#01323e"
         offset="1" />
    </radialGradient>
    <path
       id="path91"
       fill="url(#SVGID_1_)"
       opacity=".8"
       d="M1919.3 595.9c-62.8-4.4-126-7.9-190-10-132.5-4.2-266.4-2-398.3 4.1-155.2 7.2-308.2 19.9-464.5 23.5-136.1 3.1-273-.8-407.5-8.2-89.9-5-179.8-11.6-270.9-11.1-64.9.3-131.6 4.8-188.1 15v460.1h1919.2V595.9h.1z" />
    <linearGradient
       gradientTransform="translate(0 -8)"
       y2="781.522"
       x2="1919.6"
       y1="781.522"
       gradientUnits="userSpaceOnUse"
       id="SVGID_2_">
      <stop
         id="stop93"
         stop-color="#01323e"
         offset="0" />
      <stop
         id="stop95"
         stop-opacity="0"
         stop-color="#01323e"
         offset="1" />
    </linearGradient>
    <path
       id="path98"
       fill="url(#SVGID_2_)"
       opacity=".8"
       d="M1919.6 1067.7l-.4-485.5c-162.4-37-322.6-83.8-489.2-98-109.6-9.4-220.3-4.5-329.4 9.1-128.3 16-254.9 44.1-384.1 52-112.5 6.9-225.7-1.7-337-18.3-74.3-11.1-148.7-25.7-224-24.6-53.6.7-108.8 10.6-155.5 33.2l.4 532h1919.2v.1z" />
    <radialGradient
       gradientUnits="userSpaceOnUse"
       gradientTransform="translate(0 -8)"
       r="721.019"
       cy="737.191"
       cx="960"
       id="SVGID_3_">
      <stop
         id="stop100"
         stop-opacity=".5"
         stop-color="#01323e"
         offset="0" />
      <stop
         id="stop102"
         stop-opacity="0"
         stop-color="#01323e"
         offset="1" />
    </radialGradient>
    <path
       id="path105"
       fill="url(#SVGID_3_)"
       opacity=".8"
       d="M1920 391.2c-62.8-3.6-224.8 14.7-288.9 13-132.5-3.5-167.6-22.9-299.4-17.9-155.2 6-264.1 3.3-420.4 6.3-136.1 2.6-317.1 12.4-451.6 6.3-89.9-4.1-179.8-9.6-270.9-9.1-64.9.3-131.6 4-188.1 12.4L0 1072.9h1919.2l.8-681.7z" />
    <path
       id="path107"
       fill="#08353f"
       opacity=".3"
       d="M0 1069.4V752.7c162.4-38.9 322.6-87.9 489.2-102.9 109.6-9.9 220.3-4.8 329.4 9.5 128.3 16.8 254.9 46.3 384.1 54.5 112.5 7.2 225.7-1.8 337-19.2 74.3-11.6 148.7-27 224-25.8 53.7.9 108.8 11.2 155.5 35v365.5L0 1069.4z" />
    <path
       id="path109"
       fill="#022f3d"
       opacity=".3"
       d="M1919.3 1066.8V868.4c-162.4-24.4-322.6-55.1-489.2-64.5-109.6-6.2-220.3-3-329.4 6-128.3 10.5-254.9 29-384.1 34.2-112.5 4.5-225.7-1.1-337-12-74.3-7.3-148.7-16.9-224-16.2-53.7.5-108.8 7-155.5 21.9v229h1919.2z" />
    <path
       id="path111"
       fill="#02272b"
       opacity=".3"
       d="M0 1069.4V924.2c162.4-17.8 322.6-40.3 489.2-47.2 109.6-4.5 220.3-2.2 329.4 4.4 128.3 7.7 254.9 21.2 384.1 25 112.5 3.3 225.7-.8 337-8.8 74.3-5.3 148.7-12.4 224-11.8 53.7.4 108.8 5.1 155.5 16v167.5L0 1069.4z" />
  </g>
  <g
     id="g155"
     class="st0">
    <g
       id="g117"
       class="st1">
      <text
         id="text115"
         font-family="SourceSansPro-Bold"
         font-size="48"
         class="st22"
         transform="translate(486.507 292.306)">HOW WE WORK</text>
    </g>
    <g
       id="g123"
       class="st1">
      <text
         id="text119"
         class="st22 st25 st26"
         transform="translate(486.506 412.762)">FE DEVELOPMENT</text>
      <text
         id="text121"
         class="st27 st25 st28"
         transform="translate(486.506 438.68)">BE collaboration with other teams</text>
    </g>
    <g
       id="g129"
       class="st1">
      <text
         id="text125"
         class="st22 st25 st26"
         transform="translate(486.506 510.41)">UI DESIGN</text>
      <text
         id="text127"
         class="st27 st25 st28"
         transform="translate(486.506 536.328)">Design thinking</text>
    </g>
    <g
       id="g135"
       class="st1">
      <text
         id="text131"
         class="st22 st25 st26"
         transform="translate(486.507 901.004)">GATHER REQUIREMENTS</text>
      <text
         id="text133"
         class="st27 st25 st28"
         transform="translate(486.507 926.921)">Identify and prioritize needs</text>
    </g>
    <g
       id="g141"
       class="st1">
      <text
         id="text137"
         class="st22 st25 st26"
         transform="translate(486.506 705.707)">IDEATE</text>
      <text
         id="text139"
         class="st27 st25 st28"
         transform="translate(486.507 731.624)">Whiteboarding, HTML prototype</text>
    </g>
    <g
       id="g147"
       class="st1">
      <text
         id="text143"
         class="st22 st25 st26"
         transform="translate(486.507 608.059)">EVALUATE</text>
      <text
         id="text145"
         class="st27 st25 st28"
         transform="translate(486.507 633.976)">User testing, Iteration</text>
    </g>
    <g
       id="g153"
       class="st1">
      <text
         id="text149"
         class="st22 st25 st26"
         transform="translate(486.507 803.356)">USER RESEARCH</text>
      <text
         id="text151"
         class="st27 st25 st28"
         transform="translate(486.507 829.273)">Interviews, Data analyse</text>
    </g>
  </g>
  <g
     id="g251"
     class="st0">
    <g
       id="g247"
       class="st1">
      <path
         id="path157"
         d="M1158.5 177.4c-.4 2.9-1 8.3.4 11.3 2.1 4.6 8.6 7.9 11.6 9-2.1-2.7-3.1-5-2.6-6.6.1-.5 1.1 1.3 2.8 1.6-.6-1.9-.5-2.4-.5-3.8s-.3-3.9-1.2-5.3c-3-4.6-8.2-6.3-9.2-6.8l-1.3.6z"
         class="st29" />
      <path
         id="path159"
         d="M1158.5 177.4c-.3 1.2-.4 5.7.8 7.7 1.2 2 5.8 4.1 8 6.1-.5-2.2-1.1-2.9-.8-4.8.2-1.8.2-2.1-.1-3.1-.3-1-2.2-3.1-4.1-4.7-2-1.7-2.5-1.9-2.5-1.9l-1.3.7z"
         class="st30" />
      <path
         id="path161"
         d="M1158.5 177.4c-.1 1.5.3 5.6 1.6 6.6 1.3 1.1 2.3.7 4.5 2.3 0-.9-1.3-2.3-.9-3.2.5.5.7.8 1.4 1-.6-.8-.6-1.8-1.1-2.9-.6-1.3-1.9-2.1-2.8-2.9-1-.9-1.4-1.6-1.4-1.6l-1.3.7z"
         class="st31" />
      <path
         id="path163"
         d="M1159.3 178c-2.2 1.2-4.2 1.7-4.5 1.1l.6 1.1c.3.6 2.4.1 4.5-1.1 2.2-1.2 3.6-2.7 3.3-3.3l-.6-1.1c.3.6-1.2 2.1-3.3 3.3z"
         class="st32" />
      <path
         id="path165"
         d="M1160 179.3c-1.6.9-3.2 1.3-3.4.8l.5.8c.3.5 1.8.1 3.4-.8 1.6-.9 2.7-2 2.5-2.5l-.5-.8c.3.5-.9 1.6-2.5 2.5z"
         class="st32" />
      <path
         id="path167"
         d="M1148 164.8c.4 2.7 1.5 6.3 3.9 10.5 1.3 2.2 2.2 3.9 2.2 3.9s3.3-.6 5-1.6 4-3.4 4-3.4-.8-1.7-2.1-4c-2.3-4.1-4.9-6.9-7.1-8.7-.7.7-1.6 1.4-2.7 2-1.2.6-2.3 1-3.2 1.3z"
         class="st33" />
      <path
         id="path169"
         d="M1148.5 158.9c-.5.3-1.1 2.4-.6 5.9 1-.3 2.1-.7 3.2-1.3 1-.6 2-1.3 2.7-2-2.7-2.2-4.8-2.9-5.3-2.6z"
         class="st34" />
      <path
         id="path171"
         d="M1158.4 176.5c-2.5 1.4-4.9 2-5.3 1.3l.7 1.3c.4.7 2.8.1 5.3-1.3 2.5-1.4 4.2-3.1 3.8-3.8l-.7-1.3c.4.7-1.3 2.4-3.8 3.8z"
         class="st32" />
      <path
         id="path173"
         d="M1162.6 175.1c-.2.3-.6.6-1 1 0 .1.1.1.1.2.5-.5.8-.9.9-1.2zm-.1 2.1c-.1.1-.2.2-.3.2v.1c.2-.1.3-.2.3-.3z"
         class="st11" />
      <path
         id="path175"
         d="M1161.7 176.3l.6 1.2c.1-.1.2-.2.3-.2.1-.2.1-.3 0-.4l.1.2c.5-.5.7-1 .6-1.3l-.5-.8c0 .1-.1.1-.1.2-.2.2-.5.6-1 1.1z"
         class="st35" />
      <path
         id="path177"
         d="M1162.5 177.2c0 .1-.1.2-.2.3.1.3.3.6.4.9.3-.3.4-.6.3-.8l-.3-.6-.1-.2c0 .1 0 .2-.1.4z"
         class="st35" />
      <path
         id="path179"
         d="M1160 173c.3.6.7 1.2 1 1.8.9-.8 1.5-1.5 1.4-2-.4-.7-.8-1.6-1.4-2.6-2.3-4.1-4.9-6.9-7.1-8.7-.4.4-.8.7-1.3 1.1 2.3 2.6 5 6.2 7.4 10.4z"
         class="st36" />
      <path
         id="path181"
         d="M1153.8 161.5c-2.7-2.2-4.8-2.9-5.3-2.6-.1 0-.1.1-.2.2 1.2.7 2.7 1.9 4.2 3.5.5-.4.9-.7 1.3-1.1z"
         class="st37" />
      <path
         id="path183"
         d="M1160.9 174.8c.2.4.5.9.7 1.3.4-.3.7-.7 1-1 .1-.1.1-.1.1-.2.2-.3.3-.5.3-.7 0-.1 0-.2-.1-.2l-.7-1.3v.1c.2.4-.3 1.2-1.3 2z"
         class="st35" />
      <path
         id="path185"
         d="M1165.9 176.3c-.4 2.8-1 8.3.4 11.3 2.1 4.6 8.6 7.9 11.6 9-2.1-2.7-3.1-5-2.6-6.6.1-.5 1.1 1.3 2.8 1.6-.6-1.9-.5-2.4-.5-3.8s-.3-3.9-1.2-5.3c-3-4.6-8.2-6.3-9.2-6.8l-1.3.6z"
         class="st29" />
      <path
         id="path187"
         d="M1165.9 176.3c-.3 1.2-.4 5.7.8 7.7 1.2 2 5.8 4.1 8 6.1-.5-2.2-1.1-2.9-.8-4.8.2-1.8.2-2.1-.1-3.1-.3-1-2.2-3.1-4.1-4.7-2-1.7-2.5-1.9-2.5-1.9l-1.3.7z"
         class="st30" />
      <path
         id="path189"
         d="M1165.9 176.3c-.1 1.5.3 5.6 1.6 6.6 1.3 1.1 2.3.7 4.5 2.3 0-.9-1.3-2.3-.9-3.2.5.5.7.8 1.4 1-.6-.8-.6-1.8-1.1-2.9-.6-1.3-1.9-2.1-2.8-2.9-1-.9-1.4-1.6-1.4-1.6l-1.3.7z"
         class="st31" />
      <path
         id="path191"
         d="M1166.7 176.9c-2.2 1.2-4.2 1.7-4.5 1.1l.6 1.1c.3.6 2.4.1 4.5-1.1 2.2-1.2 3.6-2.7 3.3-3.3l-.6-1.1c.3.6-1.1 2.1-3.3 3.3z"
         class="st32" />
      <path
         id="path193"
         d="M1167.5 178.2c-1.6.9-3.2 1.3-3.4.8l.5.8c.3.5 1.8.1 3.4-.8 1.6-.9 2.7-2 2.5-2.5l-.5-.8c.2.5-.9 1.6-2.5 2.5z"
         class="st32" />
      <path
         id="path195"
         d="M1155.4 163.7c.4 2.7 1.5 6.3 3.9 10.5 1.3 2.2 2.2 3.9 2.2 3.9s3.3-.6 5-1.6 4-3.4 4-3.4-.8-1.7-2.1-4c-2.3-4.1-4.9-6.9-7.1-8.7-.7.7-1.6 1.4-2.7 2s-2.2 1.1-3.2 1.3z"
         class="st33" />
      <path
         id="path197"
         d="M1156 157.8c-.5.3-1.1 2.4-.6 5.9 1-.3 2.1-.7 3.2-1.3 1-.6 2-1.3 2.7-2-2.7-2.1-4.9-2.9-5.3-2.6z"
         class="st34" />
      <path
         id="path199"
         d="M1165.9 175.4c-2.5 1.4-4.9 2-5.3 1.3l.7 1.3c.4.7 2.8.1 5.3-1.3 2.5-1.4 4.2-3.1 3.8-3.8l-.7-1.3c.4.7-1.3 2.4-3.8 3.8z"
         class="st32" />
      <path
         id="path201"
         d="M1170 174c-.2.3-.6.6-1 1 0 .1.1.1.1.2.5-.4.8-.8.9-1.2zm-.1 2.1c-.1.1-.2.2-.3.2v.1c.2-.1.3-.2.3-.3z"
         class="st11" />
      <path
         id="path203"
         d="M1169.1 175.2l.6 1.2c.1-.1.2-.2.3-.2.1-.2.1-.3 0-.4l.1.2c.5-.5.7-1 .6-1.3l-.5-.8c0 .1-.1.1-.1.2-.2.3-.5.7-1 1.1z"
         class="st35" />
      <path
         id="path205"
         d="M1169.9 176.1c0 .1-.1.2-.2.3.1.3.3.6.4.9.3-.3.4-.6.3-.8l-.3-.6-.1-.2c0 .1 0 .3-.1.4z"
         class="st35" />
      <path
         id="path207"
         d="M1167.4 171.9c.3.6.7 1.2 1 1.8.9-.8 1.5-1.5 1.4-2-.4-.7-.8-1.6-1.4-2.6-2.3-4.1-4.9-6.9-7.1-8.7-.4.4-.8.7-1.3 1.1 2.4 2.6 5 6.2 7.4 10.4z"
         class="st36" />
      <path
         id="path209"
         d="M1161.3 160.4c-2.7-2.2-4.8-2.9-5.3-2.6-.1 0-.1.1-.2.2 1.2.7 2.7 1.9 4.2 3.5.4-.3.9-.7 1.3-1.1z"
         class="st37" />
      <path
         id="path211"
         d="M1168.4 173.7c.2.4.5.9.7 1.3.4-.3.7-.7 1-1 .1-.1.1-.1.1-.2.2-.3.3-.5.3-.7 0-.1 0-.2-.1-.2l-.7-1.3v.1c.1.4-.4 1.2-1.3 2z"
         class="st35" />
      <path
         id="path213"
         d="M1125.5 153.7c-.7-1.1-2.5-3.2-4.7-1.3s1.3 4.3 1.3 4.3l3.4-3z"
         class="st38" />
      <path
         id="path215"
         fill="#54371d"
         d="M1153 181.9c-.3-.2-1.5 4.1-1.5 4.1.5 0 1.3-.2 1.9-.4l-.3 1.2c-.5 2.4.1 4.5 1.4 4.8.9.2 1.2-2 1.6-4.2.2-1.1.5-2.1.6-2.9l.3-1.4s-.4-.6-2.4-.2c-.4 0-1.3-.9-1.6-1z" />
      <path
         id="path217"
         fill="#6d3325"
         d="M1154.5 176.1c.8.3 1.2.7 1.4 1.1.2.4.3.8.5 1.2l.9 2.4c.3.8.5 1.6.7 2.5l.3 1.2.1.3c0 .1.1.2 0 .3 0 .2-.1.4-.5.7l-8.1 1.3c-.4-.1-.6-.3-.7-.5 0-.1 0-.2-.1-.3v-.3l-.1-1.3c-.1-.8-.1-1.7-.1-2.5 0-.9 0-1.7.1-2.6 0-.4.1-.9.1-1.3.1-.4.3-.9 1-1.4l4.5-.8z" />
      <path
         id="path219"
         d="M1160.2 181.1c-.3.1 1.2 2.5 1.2 2.5.8 0 1.3 0 1.8-.4.2.3.4.7.6 1 1.4 2 3.4 3 4.5 2.2.7-.5-.7-2.2-2-4-.7-.9-1.2-1.8-1.7-2.5l-.8-1.1s-.7-.1-1.7 1.6c-.3.5-1.6.6-1.9.7z"
         class="st38" />
      <path
         id="path221"
         d="M1159.1 173.4c.8-.1 1.3.1 1.7.4.3.3.7.6 1 .9.6.6 1.3 1.2 1.8 1.8.6.6 1.1 1.3 1.6 1.9l.8 1 .2.2c.1.1.1.2.2.3.1.2.1.5-.2.9l-6.8 4.6c-.5.1-.7 0-.9-.2-.1-.1-.1-.2-.2-.3l-.2-.3-.6-1.1c-.4-.7-.8-1.5-1.2-2.2-.4-.8-.7-1.6-1-2.4-.1-.4-.3-.8-.4-1.2s-.1-1 .3-1.7l3.9-2.6zm-13.1-4.9c0 .5-.2.8-.3.9l-.4.4c-.3.2-.6.4-1 .5-.3.1-.7.2-1 .2h-1c-1.3-.1-2.7-.3-3.9-.6-2.5-.6-4.9-1.7-7.1-3-1.1-.7-2.2-1.3-3.2-2.1s-2-1.6-2.9-2.5-1.8-1.8-2.6-2.9c-.4-.5-.8-1-1.1-1.7-.1-.2-.1-.3-.2-.5s-.1-.3-.1-.5v-.6c0-.1.1-.2.1-.4 0-.1 0-.1.1-.2h.1l.1-.1s.1-.1.2-.1l.2-.1 2.1-1 .2-.1c.1 0 .1-.1.2-.1h.7c.2 0 .3.1.5.1.2.1.4.3.6.4.4.3.7.7 1 1.1.7.8 1.4 1.6 2.2 2.3 1.5 1.5 3.1 3 4.8 4.3 1.7 1.3 3.5 2.6 5.4 3.5.9.4 1.9.8 2.9 1 .2 0 .5.1.7.2.2.1.5.2.8.3s.5.2.8.4c.1.1.3.2.4.3.3-.1.5.1.7.6z"
         class="st41" />
      <ellipse
         id="ellipse223"
         ry="9.5"
         rx="9.5"
         cy="158"
         cx="1145.5"
         class="st42" />
      <path
         id="path225"
         d="M1144.9 180.8l1.2 2.5c1.1 2.5 5.7.7 11.1-1.9 4.7-2.2 10.3-4.6 8.7-8.1-3.7-9.4-9.8-15.8-17.7-12.1-7.8 3.7-7.4 10.1-4.8 16.5v.1l.2.4c.5.9.9 1.7 1.3 2.6z"
         class="st42" />
      <path
         id="path227"
         fill="#dcb680"
         d="M1144.5 172.8c.9-.5 1.2-2.1 2.3-3.2 1.5-1.5 1.5-3.3 1.6-2.5s.8 1 .8.9-.2.2-.3-1c-.2-1.2 1.1-2.1 1.6-4.4.1-.6.3-1.8.3-2.5.2.3.3.6.4.9.2-7.3-3.4-10.6-3.8-10.7.2 0 .7 0 1.2.3-1.4-1.9-2.9-1.8-3.1-1.8.2-.3.7-.5 1-.5-.9-.8-1.7-1.2-2.7-1-.6.1-.8.8-.8.8.1-.5-.3-1.9-1.9-2.1 1.3 2 .9 1.7.8 1.8 0 .1-1.4-.8-2.5-.6.3.1.6.3.7.5-1.2-.2-2.6-.6-4.5 1.5.9-.2 1.3 0 1.7.1-.3.2-3.8 2.4-3.9 7 .2-.1 1-1 1.1-.9-.6.7-2.4 3.2.8 10.4 0-.4 0-1.4.2-1.4-.1.8 1 2.7 3.4 4.1 3.4 1.8 4.9 2.9 5.6 4.3z" />
      <path
         id="path229"
         d="M1136.2 160c-.8-3.6.7-7 3.3-7.6 2.6-.6 5.3 1.8 6.1 5.4.5 2.1.2 4.1-.6 5.6-.9 1.6-1.6 3-1.4 4.4-.9-1.8-2.3-2.1-4.1-3.1-1.5-.8-2.8-2.6-3.3-4.7z"
         class="st38" />
      <path
         id="path231"
         fill="#c69666"
         d="M1135.9 159.1c.5 3.5 2.8 6.2 5.5 5.8s5.1-3.8 4.5-7.3c-.5-3.5-3.2-6-5.9-5.6-2.6.3-4.6 3.5-4.1 7.1z" />
      <path
         id="path233"
         fill="#662f1e"
         d="M1139.2 157c-.3.1-.7.2-1 .3s-.6.3-.9.6c.2-.3.5-.6.8-.8s.6-.4 1-.5l.1.4zm1.7-.6c.4 0 .8.1 1.1.2.4.1.7.3 1 .6-.3-.2-.6-.3-1-.4-.4-.1-.7-.1-1.1 0v-.4z" />
      <path
         id="path235"
         d="M1140.9 157.3l1.1.3h-1.1v-.3zm-1.5.4c-.2 0-.4 0-.7.1-.2 0-.4.1-.7.1l.6-.3c.2-.1.4-.1.7-.2l.1.3z"
         class="st46" />
      <path
         id="path237"
         fill="#574c3e"
         d="M1141.3 159c.2.3.2.8-.1 1.1-.2.3-.6.5-1 .6s-.8-.1-1.1-.4c-.2-.3-.4-.7-.2-1.1 0 .2 0 .4.1.5.1.2.2.3.3.4.2.2.6.3.9.3s.7-.2.9-.5c.2-.1.3-.5.2-.9z" />
      <path
         id="path239"
         d="M1142.1 161.7c.1.3.1.6-.1.8l-.3.3c-.1.1-.3.1-.4.1-.3 0-.6 0-.8-.1-.3-.1-.5-.3-.6-.5.2.2.5.2.7.2s.5 0 .7-.1c.1 0 .2-.1.3-.1.1 0 .2-.1.3-.1-.1-.1.1-.2.2-.5z"
         class="st46" />
      <path
         id="path241"
         fill="#442c1a"
         d="M1141 151.8c-.6 0-1.4.1-2 .3-1.7.7-2.6 2.8-2.8 3.4.4-.3 1-.4 1.5-.2.1 0 .2.1.3.1l.5-1.8.4 2c2.9.6 5.7-2.3 6.6-.1-.9-2-2.6-3.5-4.5-3.7" />
      <path
         id="path243"
         d="M1170.8 170.4c1.2 0 3.9-.4 3.5-3.2s-1.5-1.6-2-1.3c-1.1.5-2 .2-2 .2l.5 4.3z"
         class="st38" />
      <path
         id="path245"
         d="M1152.7 163.9c.4-.4.5-.5.7-.5.1 0 .3-.1.4-.1.3-.1.5-.1.7-.1h.6c.2 0 .4.1.6.2.4.1.7.2 1.1.4l.6.2.6.1c1.5.4 3 .6 4.4.7 1.5.1 2.9.2 4.4.2h2.2c.4 0 .7-.1 1.1.1.2.1.4.1.6.2l.3.3.2.2s.1.1.1.2v.6l.3 2.3v.6c0 .1 0 .2-.1.2l-.1.3c-.1.2-.2.3-.3.4-.2.2-.4.3-.6.4-.4.2-.9.2-1.3.3-.9.1-1.8.1-2.7.1-1.8 0-3.7-.4-5.4-.9-1.8-.5-3.4-1.3-5-2.1l-.6-.3-.6-.4c-.4-.2-.8-.5-1.1-.7-.4-.2-.7-.5-1-.9-.1-.2-.3-.4-.4-.7 0-.1-.1-.3-.1-.4.2-.1.2-.3.4-.9z"
         class="st41" />
    </g>
    <path
       id="path249"
       fill="#052532"
       opacity=".3"
       d="M1121.3 156c0 .2-.1.3-.1.5s0 .4.1.7c.1.5.3 1 .7 1.5.3.5.8 1 1.2 1.6.2.3.5.6.7.9.3.3.5.6.8.9.6.6 1.2 1.2 1.9 1.8.7.6 1.4 1.1 2.2 1.7l2.4 1.5c.8.5 1.7.9 2.5 1.3.4.2.9.4 1.3.6.4.2.9.3 1.3.5.9.3 1.7.5 2.5.7.4.1.8.2 1.2.2.4.1.8.1 1.2.2h.6c0 2.3.7 4.8 1.7 7.2v.1l.2.4c.4.8.8 1.7 1.2 2.6l1.2 2.5c.5 1 1.4 1.3 2.8 1.2 0 .4.1.8.1 1.1 0 .2 0 .5.1.6 0 .2 0 .4.2.5.1.1.3.2.4.3s.2.1.2.1l3.3-.5v.1c-.5 2.4.1 4.5 1.4 4.8.9.2 1.2-2 1.6-4.2l.3-1.2 1.6-.3s.1-.1.2-.1l.1-.1c.1 1.2.4 2.2.8 3.1 2.1 4.6 8.6 7.9 11.6 9-2.1-2.7-3.1-5-2.6-6.6.1-.5 1.1 1.3 2.8 1.6 0-.1 0-.1-.1-.2 2.6 2 5.6 3.5 7.3 4.1-2.1-2.7-3.1-5-2.6-6.6.1-.5 1.1 1.3 2.8 1.6-.6-1.9-.5-2.4-.5-3.8s-.3-3.9-1.2-5.3c-1.7-2.6-4.1-4.3-6-5.3.1-.2.2-.4.1-.5l-.3-.6c.5-.5.7-1 .6-1.3l-.5-.8c.2-.3.3-.5.3-.7 0-.1 0-.2-.1-.2l-.7-1.3v.1-.1c-.1-.1-.1-.3-.2-.4.2 0 .4 0 .6-.1.4-.1.8-.2 1-.4.1-.1.3-.2.4-.3v-.1c1.3-.2 3-.8 2.7-3.2-.4-2.8-1.5-1.6-2-1.3-.3.1-.6.2-.8.3-.1-.3-.1-.3-.2-.4-.1-.1-.2-.3-.3-.3-.1-.1-.2-.1-.4-.2-.3-.1-.6-.2-.9-.2h-4c-1.5-1.9-3-3.4-4.3-4.5-2.7-2.2-4.8-2.9-5.3-2.6-.3.2-.7 1.2-.8 2.8-.2 0-.3-.1-.5-.1.5-2.1.4-4.3-.6-6.4-1.6-3.4-5-5.4-8.5-5.5.2-.2.6-.3.9-.3-.9-.8-1.7-1.2-2.7-1-.6.1-.8.8-.8.8.1-.5-.3-1.9-1.9-2.1 1.3 2 .9 1.7.8 1.8 0 .1-1.4-.8-2.5-.6.3.1.6.3.7.5-1.2-.2-2.6-.6-4.5 1.5.9-.2 1.3 0 1.7.1-.3.2-3.8 2.4-3.9 7 .2-.1 1-1 1.1-.9-.4.6-1.7 2.3-.6 6.5-.5-.4-.9-.7-1.3-1.1-.6-.5-1.2-1.1-1.7-1.6s-1.1-1-1.6-1.5-.9-1-1.3-1.4-.7-.9-1-1.2c-.3-.4-.6-.6-.9-.8-.2-.1-.3-.2-.4-.2s-.2 0-.3-.1l.2-.2c-.7-1.1-2.5-3.2-4.7-1.3-2 .8-.9 2.3 0 3.1zm46.8 20c-.1 0-.2-.1-.3-.1.4-.3.9-.6 1.2-.9 0 .1.1.1.1.2-.3.3-.6.5-1 .8zm-3.5 1.6c.4-.2.8-.3 1.2-.5v.3c-.3.2-.7.3-1 .4-.1 0-.1-.1-.2-.2zm1 1.2s0 .1 0 0c0 .1 0 .1 0 0zm3.9-2.1s-.1 0-.1-.1l.3-.3v.1c0 .1-.1.2-.2.3z" />
  </g>
  <g
     transform="matrix(0.79498683,0,0,0.79498683,691.23238,142.12616)"
     id="g2144">
    <path
       style="fill:#ddeffa"
       id="path37"
       d="m 543.16,413.69 c -0.56,0.41 -1.11,0.82 -1.63,1.28 z"
       class="cls-3" />
    <polygon
       style="fill:#d6eef4"
       id="polygon43"
       points="621.09,394.12 621.22,391.61 624.81,391.29 621.17,391.02 620.45,388.38 620.27,391.02 616.72,391.29 620.36,391.61 "
       class="cls-2" />
    <path
       style="fill:#a1cada"
       id="path47"
       d="m 471.42109,326.765 c 0,0 11.61,8.235 12.9,13.235 1.29,5 0,31.28 0,31.28 l 19.89,17.85 c 0,0 -0.63,7.76 3.54,13.43 4.17,5.67 10.91,16.38 10.27,24.78 -0.3677,6.43142 -0.3677,12.87858 0,19.31 l 3.17,4.62 c 0,0 -1,5 1.6,6.51 2.6,1.51 8.35,8.82 6.74,13.22 -1.61,4.4 -6.74,8.61 -6.74,8.61 0,0 8,35.69 12.2,42 4.2,6.31 9.95,16.8 9.95,16.8 0,0 -0.64,0.84 4.82,-3.15 5.46,-3.99 8.34,1.89 8.66,6.72 0.32,4.83 1.93,52.06 6.74,58.15 4.81,6.09 7.71,5.25 7.38,9.24 -0.33,3.99 2.89,23.51 2.89,23.51 l 7.71,6.51 v 12.81 l 3.53,3.35 c 0,0 14.12,-18.89 18.61,-20.57 4.49,-1.68 3.53,0.63 6.74,1.26 3.21,0.63 5.14,0 5.14,4.83 v 26.24 c 0,0 6.74,2.52 7.38,5.88 0.64,3.36 0,18.47 2.57,20.57 2.57,2.1 -0.64,16 4.81,20.79 5.45,4.79 10.96,15.75 12.56,21.45 1.6,5.7 -1.6,27.09 0,31.28 1.6,4.19 12.84,23.31 12.84,23.31 0,0 1,2.73 5.46,-3.15 4.46,-5.88 5.13,-6.93 5.13,-6.93 l 1.93,-16.79 c 0,0 5.77,-17.22 11.87,-23.94 6.1,-6.72 5.78,-11.13 5.78,-16.16 0,-5.03 2.25,-6.3 3.21,-9 0.96,-2.7 1.93,-17.43 1.93,-23.1 0,-5.67 -3.86,-8.81 0,-10.28 3.86,-1.47 9.95,-3.78 12.19,-12.39 2.24,-8.61 9,-40.1 9,-40.1 0,0 10.27,-18.68 14.44,-22.25 4.17,-3.57 15.41,-11.13 17.66,-13.65 2.25,-2.52 4.81,-26.45 4.81,-26.45 l 3.85,-21.21 c 0,0 15.73,-11.33 16,-13.43 0.27,-2.1 1.93,-17.22 3.21,-19.74 1.28,-2.52 14.44,-16.16 14.44,-16.16 l 2.25,-23.52 12.2,-26.87 v -5 l 8.66,-5.67 v -5.45 c 0,0 9.63,-9.45 12.2,-12.6 2.57,-3.15 4.81,-5.46 10,-6.51 5.19,-1.05 8,-5.88 8,-7.14 0,-1.26 5.14,-23.3 11.88,-29.18 6.74,-5.88 11.88,-11.13 11.23,-15.95 -0.65,-4.82 9.95,-11.55 9.95,-13.86 0,-2.31 7.22,-7.14 7.22,-7.14 l 6,-10.205 z"
       class="cls-4" />
    <path
       style="fill:#99bdc6"
       id="path51"
       d="m 618,379 c 6.25,-3 18.32,-11.28 26.81,-11.94 -2.91,2.43 -12.14,9.86 -14.9,12.11 1.77,0.17 -5.59,15.24 -2.77,16.46 1.87,0.81 1.09,3.61 3.49,4.43 1.84,0.63 5.14,0.5 7.19,1.32 5.7,2.28 4.05,5.94 7.57,8.52 a 9,9 0 0 0 1.81,1 c 3.78,-3 17.05,-20.46 24.14,-21.59 2.36,-0.31 8.11,-9.12 10.44,-10.72 1.48,-1.38 5.14,-1.38 7.06,-2.22 6,-2.91 9.3,-7.71 16.85,-8.1 6,-0.32 11.38,-7.5 17.86,-7.29 1.3,0.3 2.85,1.52 4.77,0.68 7.5,-1.69 13.75,-7.81 21.7,-9 -2.91,4 -10.94,8 -16.26,11.09 -1.27,1 -3.4,7.63 -4.7,7.33 -2.81,-0.22 -5.45,-2.12 -8.67,-1.58 -10.7,3.52 -24.13,15.69 -27.39,23.08 3.19,-1.83 10.23,-10.34 14.52,-11.49 a 27.27,27.27 0 0 0 -4,5.94 c 6.42,-2.37 10,-5 13.79,-9.23 0.83,-1.52 4.91,-2.29 7,-3.51 a 23.2,23.2 0 0 1 -6.07,7.16 c -2.7,1.55 -4.12,4.61 -5.49,7.37 3.1,0.34 5.09,1.4 8.25,3.32 1.79,1.09 6,-0.36 7.7,0.46 a 5.94,5.94 0 0 0 2.93,0.9 122.36,122.36 0 0 0 7,-13.18 c -0.83,1.52 0.71,2.73 0.09,3.88 -1.36,3.66 -1.88,5.78 -1.51,9.48 3.7,0.82 8.89,-4.31 11.29,-3 a 10.94,10.94 0 0 0 2.89,1 c 4.23,0.86 10.83,-0.74 15.35,-0.12 4.52,0.62 7.2,1.7 9.88,3.95 3.89,-4.66 12.15,-5.36 20.31,-7.83 1.71,-0.46 1.64,-3 4,-3.35 9.87,-2 12.48,-4.11 17.12,-8.61 -7.27,2.6 -13.62,2.13 -20.2,6.18 -3.4,2.21 -9.67,1.62 -13.72,3.68 -2.12,1.22 -3.56,1.17 -5,2.54 0.38,-2.05 0.72,-2.69 2.41,-4.44 0.61,-1.14 4.93,-1 5.55,-2.14 4.63,-4.5 12.52,-2.82 16.5,-7.46 -9.61,4.2 -19.38,4.65 -29.84,9.08 -4.69,1.92 -7.61,3.24 -12.51,5.53 -1.72,0.46 -5.18,0.09 -7.1,0.93 1.24,-2.29 0.72,-5.4 2.64,-6.24 4.23,-3.74 3.23,-6 6,-8.33 3.36,-3.51 13.51,-3.3 21.91,-3.93 a 85.75,85.75 0 0 0 13.4,-1.75 c 4.29,-1.15 5.7,-5.11 9.57,-5.49 6.89,-0.55 11.38,3.34 17.89,4.85 0.59,-2.43 2.71,-3.65 6.14,-4.57 a 168.12,168.12 0 0 0 30.43,-10.7 L 846.68,350 829.93,346.12 a 48.21,48.21 0 0 0 -18.18,6.24 c -2,-1.74 -4.63,-3.64 -7.2,-3 -18.24,3.92 -35.65,-1.83 -53.75,-0.88 -8.19,0.25 -15,2.09 -23.07,0.66 7.1,-0.93 14.43,-0.94 21.09,-2.4 1.92,-0.84 5.82,0.06 7.54,-0.4 5.79,-1.23 10.25,-4.05 15.6,-5.81 -0.38,2.05 -5.93,4.2 -4,4.65 4.38,2.73 10.83,1.65 15.7,-1.94 0.41,-0.76 3,-1.45 4.94,-1 -1.89,2.14 -4.22,3.74 -6.11,5.87 a 10.15,10.15 0 0 1 3.22,-0.53 c 8.91,2.49 15.88,-3.61 25.58,-3.94 -1.27,1 -0.55,3.73 0.51,3.12 3.55,-0.79 7,-1.62 10.47,-2.46 L 784,335.47 c -6.64,0.81 -13.37,1.74 -20.31,2.76 -2.36,0.31 -4.7,1.91 -7.27,2.6 -4.49,1.53 -10.59,-0.74 -16.42,-0.8 -0.85,0.23 0,1.29 -1.68,1.75 -7.51,1.69 -14.16,3.15 -18.79,7.64 -0.41,0.76 -4.32,-0.14 -5.38,0.47 -1.92,0.84 -2.75,2.36 -2.07,3.81 -11.44,-0.51 -23.31,5.17 -30.93,11.11 -1.47,1.38 -9.56,-2.64 -16.45,-2.09 -13.54,2 -25.43,1 -38.8,1.29 -6.37,-0.21 -11.68,7.54 -15.56,10.89 3.14,0.22 4.51,3.85 7.66,4.1 z"
       class="cls-6" />
    <path
       style="fill:#99bdc6"
       id="path53"
       d="m 761.48,455.27 c -1.93,-1.69 1.67,-3.46 0.51,-5.49 -1.61,-2.57 -4.74,-4.45 -6.35,-7 3.85,3.38 4.62,5.36 5.88,10.66 -0.16,0.44 2.52,1.78 2.36,2.22 0.25,2.83 -0.7,5.46 0.91,8 0.44,0.53 2.72,-0.51 3.32,-0.42 2.45,5.49 8.46,4.1 14.91,5.56 a 42.88,42.88 0 0 1 -9.75,-7.55 c 5.92,2.59 8.49,5.79 14.38,7.92 a 5.87,5.87 0 0 0 -0.83,-2.1 c -4,-2.95 -6.34,-4.7 -9.75,-7.55 -7.42,-6 -9,-11.85 -15.79,-17.43 a 37.17,37.17 0 0 1 -5.57,-3.05 c -1.64,-0.72 -1,-2.48 -2.65,-3.2 2.25,0.81 2.65,3.2 4.46,3.47 5.24,1.28 5.13,2.19 9.3,4.7 0.6,0.09 1.52,-0.7 2.12,-0.6 a 20.38,20.38 0 0 0 12.14,9.95 l -1.47,-0.87 c -3.57,-2.41 -3.34,-6.56 -7.07,-8.53 -6.85,-3.84 -6.82,-8 -11.56,-12.47 l 2.27,0.78 a 43.84,43.84 0 0 0 -8.46,-8.23 c 3.29,1.43 6.42,3.31 8.19,5.44 2.37,2.23 1.77,4.46 6.9,4.32 -0.32,0.88 1.48,1.16 0.56,1.94 4.21,0.66 5.66,3.67 8.79,5.54 -0.09,-3.26 -3.66,-5.67 -6.63,-8 -1,-0.62 -1,-2.48 -2.05,-3.1 -3,-2.32 -4.21,-3 -5.66,-6 -2.15,-3.14 -1.39,-6.51 -2.73,-9.72 -0.73,-0.12 -1.21,-0.44 -0.83,-1.51 a 8.35,8.35 0 0 1 0.83,1.51 8.16,8.16 0 0 1 2.3,0.36 c 1.17,2 0.66,5.21 2.58,6.9 1.65,0.72 4.05,1.09 4.93,2.16 1,0.63 -2.08,1.07 -1.35,2.58 2.33,4.07 6.22,5.6 8.39,10.12 0.45,0.53 1.81,0.28 3.17,0 2.45,6.56 6,12 13,16 -1.49,-2.65 -5,-5.65 -6.59,-8 -1.76,-2.61 -1.06,-5 -2.92,-7.49 -4.18,-5.48 -9.86,-10.45 -11.34,-16.89 -1,-4.5 3.54,-3.81 -2.93,-5.24 0.48,-1.32 0.51,-3.17 -0.09,-3.27 -4.65,-1.18 -5.49,-4.1 -8.46,-6.41 -0.76,0.34 -1.68,1.13 -2.28,1 -1.61,-2.57 -2.87,-1 -8,8.05 a 12,12 0 0 0 -0.23,4.14 c -5.57,-0.4 -2,-2.16 -3.1,-6.05 0.16,-0.44 -2.56,0.07 -3.61,-0.56 -1.32,-1.6 -0.21,-4.68 -1.69,-5.83 -1.77,-2.14 -7.69,0.2 -9.62,-1.49 A 66,66 0 0 0 725,398 l -2.64,7.3 c 7.46,5.73 14.45,11.75 19.54,18.63 1.77,2.13 3.85,3.39 7.62,3.5 -1.59,4.4 -7,7.74 -5.46,12.16 1,2.48 7.18,3 9.39,5.63 a 12.59,12.59 0 0 0 1,1.23 l -0.07,-0.16 0.07,0.16 c 2.52,2.91 2,4.26 3.15,7.3 q 0.28,0.83 0.54,1.68 c 1.15,1.06 2.31,2.09 3.44,3.11 1.07,-1.23 0.18,-2.3 -0.1,-3.27 z"
       class="cls-6" />
    <path
       style="fill:#99bdc6"
       id="path55"
       d="m 674.34,607.24 c 2.56,-2.24 6.4,-0.75 9,-0.75 11.53,-2.24 14.09,-17 24.33,-20 12.8,-3.74 14.09,-13.47 21.77,-21 2.56,-2.25 9,-3.74 10.24,-6.74 2.56,-3.74 4.27,-21.46 8.11,-23 11.31,-4.84 18.48,-40.51 22.22,-47.31 -5.88,-0.94 -10.28,1.07 -15,3.12 -7.36,6.74 -15.74,13.11 -20.05,21.18 -2.57,3 -11.91,46.72 -17,48.22 9.04,-6.39 14.04,-23.27 19.75,-32.96 0.87,-1.45 -15.39,-21.84 -14.48,-22.92 -2.65,0.23 1.51,8.15 -1.06,8.36 -0.64,1 -3.65,20.1 -1.8,22.9 9.06,13.63 -8.41,28.31 -10.18,41.25 -1.28,-0.75 -5.12,1.5 -6.4,-0.75 -3.84,6 -5.12,20.71 -14.09,24.45 6.4,-9 14.09,-26.7 16.65,-36.43 2.56,3 1.28,5.24 1.28,8.24 5.68,-11.29 3.16,-44.45 8.16,-55.74 -2.44,1.08 -12.73,5 -15.26,5.82 -9.8,3.12 -9.71,15.61 -19.79,18.5 -2.85,0.81 -11,11.37 -13.18,11.63 0.21,5.36 8.75,11.5 5.5,15.29 a 30.43,30.43 0 0 0 -3.84,15 c 2.56,-3 9,-6 9,-9 2.56,-9 6.4,-15 15.37,-21.71 0,3.74 0,8.24 -1.28,12 6.4,-3.74 10.66,-21.46 14.51,-26 1.28,14.22 -10.68,40.92 -26,51.41 -5.12,2.24 -11.52,0 -16.64,0.74 -2.56,0 0,12.48 -1.28,14.73 -6.4,7.48 -16.65,17.71 -17.93,26 12.73,-5.31 17.85,-18.54 29.37,-24.53 z"
       class="cls-6" />
    <path
       style="fill:#99bdc6"
       id="path57"
       d="m 507.33,391.44 c 4.89,3.23 9.75,6.49 14.12,10 6.43,5.32 13.83,9.95 20.26,15.27 -6.19,-3.47 -12.94,-5.4 -19.9,-7.76 3.45,4.5 8.85,7.65 14.24,10.81 1,0.74 1.24,2.59 4.22,3.4 -1.92,2.76 -3.24,5.39 -1.8,8.41 0.59,-0.12 1.39,0.19 2,0.07 2.38,0.93 1.06,3.57 2.44,3.76 2.6,1.36 5.31,-1.09 8.46,-1.26 -2.5,2.88 -5.6,5.88 -6.51,9.38 1.77,-0.36 3.74,-0.29 4.72,-1 3.06,-4.42 5.53,-8.71 12.6,-10.16 2.06,6.91 1.16,14 0.17,21.06 a 3.16,3.16 0 0 1 1.29,0.89 c 3.21,2.66 4.3,7.65 7.66,7.9 5,0.88 9.52,2.31 14.47,3.19 -1.92,-6.7 2.29,-12.78 0,-17.52 -2.86,-4.62 -4.95,-10.35 -9.79,-15 -2.41,-2.34 -8.16,-3.53 -9.43,-7.53 -0.41,-0.87 -4.74,-0.45 -5.95,-1.62 -1.63,-2 -2.07,-4.32 -3.1,-6.47 -3.54,0.72 -6.34,-1.07 -8.93,-2.43 -5.81,-4 -8.08,-8.76 -16.42,-11.32 -2.18,-0.5 1.5,-3.62 -2.09,-5.72 -4.81,-3.28 -10.79,-6.32 -13.65,-10.94 -0.41,-0.86 -2.77,-0.38 -3.57,-0.69 -6.19,-3.46 -7.87,-8.33 -10.73,-12.95 a 36.7,36.7 0 0 0 13,8.23 c 4.57,1.43 5.45,6 8.87,9.07 1.8,1.05 4.95,0.88 5.75,1.19 3,2.22 4.86,6.1 7.67,7.9 7.63,6.48 15.27,13 26,17.86 0.21,0.44 2.39,0.94 2.6,1.37 5.8,4 9.25,8.52 16.41,11.31 -3.86,-5.36 -10.25,-9.26 -14.5,-14.07 4.74,0.45 9.05,-1.38 13.58,-1.37 -7.57,-3.65 -15.23,-2.08 -23.19,-5.19 -1.38,-0.19 -2.59,-1.36 -3.8,-2.53 6.27,-1.76 14,0.91 19.47,-2.57 -10.31,-2.62 -22.68,-0.09 -30.5,-5.59 9.11,1.45 17.77,0.62 26.64,0.23 -4.36,-1 -10.08,-0.78 -14.26,-2.76 -7.16,-2.8 -15.8,-0.56 -20.66,-6.66 10.31,2.62 20.54,1 30.82,2.21 2,0.07 13.62,0.52 16.42,2.31 3.39,1.68 1.51,5.85 4.52,8.07 5,3.71 3.92,8.2 8.93,11.9 2,1.49 6.13,0.64 8.31,1.14 3,0.81 2.68,5.61 4.87,6.11 5.74,1.19 16.38,-2.73 22.27,-3.93 2.85,-0.59 5,-1.94 7.66,-2.57 -8.77,6.57 -12,13.2 -11.81,21.47 0.19,7 -5.29,12.49 -3.43,19.62 0.35,1.36 2.28,3.22 2.05,4.59 -0.23,1.37 -2.92,2 -3.27,3.53 -0.31,1.39 1.76,3.14 1.49,4.7 -0.41,2.41 -5.85,3.17 -7.53,4.9 -6.56,6.73 -17.24,20.42 -20.44,28.6 -1.26,3.24 -15.6,10.74 -21.18,15.8 -0.8,0.73 -10.63,13.55 -11.91,13.85 l -3.91,2 a 17.25,17.25 0 0 0 -9.25,1.92 c -2.36,1.32 -4.78,2.56 -4.78,2.56 0,0 -11,-17.3 -13.32,-25.09 -2.32,-7.79 -8.83,-33.7 -8.83,-33.7 0,0 11.25,-4.67 4.83,-16.5 a 31,31 0 0 0 -4.83,-5.33 c -2.12,-1.58 -1.6,-6.51 -1.6,-6.51 l -3.17,-4.62 z"
       class="cls-6" />
    <path
       style="fill:#99bdc6"
       id="path59"
       d="m 492.80609,326.72734 c 0,0 -4.07609,3.78266 -4.49609,6.14266 -0.42,2.36 3.22,3.75 2.25,6.39 -0.97,2.64 5.83,-6.28 5.83,-6.28 0,0 7,2 5.72,7.26 -1.28,5.26 15.14,14.61 15.14,14.61 0,0 -1.49,-10 2.13,-13.08 0,0 -4.24,-6.88 -9.37,-8.51 -2.98695,-0.94515 -5.19971,-3.47402 -5.74,-6.56 z"
       class="cls-6" />
    <path
       class="cls-6"
       d="m 538.41,326.67 c 0,0 -5.7,5.71 -6.06,8.52 -0.36,2.81 3.6,6.1 0,9.4 -3.6,3.3 7.08,-2.16 6.06,-6.26 -1.02,-4.1 8.11,-11.66 8.11,-11.66 z"
       id="path61"
       style="fill:#99bdc6" />
    <path
       class="cls-6"
       d="m 584.91,323.58 c -8.63,3.37 -14.62,7.73 -20.49,12 q 8.88,-4.35 18.58,-8.35 l -6.42,4.5 c 2,-1 2.87,-2.38 4.28,-3.59 a 11.13,11.13 0 0 1 7.12,-2.4 31,31 0 0 0 3.85,0 4.4,4.4 0 0 0 3.1,-1.74 z"
       id="path63"
       style="fill:#99bdc6" />
    <path
       class="cls-4"
       d="m 709.24,340.83 c -1.69,-1.71 -5.33,-2.16 -7.69,-1 a 19.19,19.19 0 0 0 -1,-9 43.18,43.18 0 0 1 -13.23,4.5 l 1.76,-6.1 c -5.62,0.58 -11.31,1.17 -16.57,2.75 -2.36,0.71 -4.6,1.61 -6.94,2.35 a 55.78,55.78 0 0 1 -15.44,2.57 22.07,22.07 0 0 0 -4.24,0.34 c -3.18,0.74 -5.09,-22.19 -6.82,-20.1 a 117,117 0 0 1 -21.61,20 48,48 0 0 1 3.43,-13.49 l -8.68,2.91 c -0.12,-3.8 3.82,-7.46 8.9,-8.26 a 10.91,10.91 0 0 0 2.54,-0.53 c 1.18,-0.5 1.76,23.73 2.34,22.82 a 28.48,28.48 0 0 1 10.36,-9.4 l -1.66,4 a 9,9 0 0 1 5.23,-0.65 6.2,6.2 0 0 0 2,0.2 3.65,3.65 0 0 0 1.68,-0.83 l 10.91,-8 c 4.14,2.12 9.92,0.74 14.17,-1.26 4.25,-2 8.3,-4.64 13.32,-5.06 2.82,-0.23 6,0.21 8.25,-1 a 10.44,10.44 0 0 0 2.5,-2.19 21.67,21.67 0 0 1 7.36,-4.81 l 0.52,3.22 15.73,-4.33 a 11,11 0 0 1 2.43,-0.48 c 1.4,-0.05 2.74,0.4 4.14,0.49 1.4,0.09 3.1,-0.43 3.21,-1.45 l 6.84,1.63 a 22.31,22.31 0 0 1 8.45,1 c 2.07,0.69 4.77,1.62 6.34,0.41 0.73,-0.57 0.86,-1.42 1.41,-2.08 1,-1.15 3.1,-1.53 4.91,-1.25 a 15.62,15.62 0 0 1 4.87,1.85 l 18,9.28 c 6,3.1 12.08,6.26 16.71,10.44 l -21.34,-0.08 c -3,0 -6.17,-0.07 -8.54,-1.38 a 6.46,6.46 0 0 0 -3,4.57 c -1.84,-1.35 -3.59,-2.77 -5.25,-4.23 -5.68,3 -4.77,-15.89 -7.91,-11.32 -2.47,3.61 -7.38,6 -10.49,9.29 a 27.42,27.42 0 0 1 4,-6.37 c -5,-2.36 -9.58,20.17 -13.83,17.17 l 1.92,3.52 c -0.69,-2.61 -3.12,-4.95 -6.37,-6.14 l -1.55,2.43 a 15.5,15.5 0 0 0 -4.12,-3.09 z"
       id="path83"
       style="fill:#a1cada" />
    <path
       class="cls-4"
       d="m 568.93963,339.99492 c -4.65,2.78 -9.29,-19.68 -13.93,-16.9 3.27,-3 5.75,18.7 7.24,15 l -4.61,2.49 0.5,-2.8 c -0.87,1.48 -4.33,0.83 -5,-0.7 -0.67,-1.53 0.36,-3.17 1.45,-4.57 a 80.86,80.86 0 0 1 14.76,-14.42 5,5 0 0 0 1.9,2.19 l 7.51,-8.73 c 2.11,-2.46 4.31,-5 7.59,-6.63 a 36,36 0 0 1 8.38,-2.53 q -1,3.24 -2,6.47 c -1.73,5.23 -3.62,10.49 -6.94,15.3 -4.1,5.94 -10.23,11 -16.28,15.94 0.08,0.18 0.44,-0.12 0.22,-0.22 a 0.77,0.77 0 0 0 -0.79,0.11 z"
       id="path85"
       style="fill:#a1cada" />
    <path
       class="cls-5"
       d="m 738.93,333.79 c 0.76,-0.37 1.52,-0.76 2.26,-1.15 l -5.4,0.63 z"
       id="path121"
       style="fill:none" />
    <path
       class="cls-5"
       d="m 640.4,338.85 3.59,-0.88 a 5,5 0 0 1 -0.8,-0.49 c -0.92,0.47 -1.85,0.92 -2.79,1.37 z"
       id="path123"
       style="fill:none" />
    <path
       class="cls-5"
       d="m 654.09,335.54 0.4,-0.09 c 0,-0.19 -0.11,-0.38 -0.16,-0.57 a 2.61,2.61 0 0 1 -0.24,0.66 z"
       id="path125"
       style="fill:none" />
    <polygon
       style="fill:#d6eef4"
       id="polygon33"
       points="541.2,240.25 538.96,239.79 541.29,239.59 541.91,236.82 541.84,239.62 544.11,240.14 541.78,240.28 541.15,243.2 "
       class="cls-2"
       transform="translate(0,-2.77)" />
    <polygon
       style="fill:#d6eef4"
       id="polygon35"
       points="648.04,299.99 650.09,299.58 647.96,299.39 647.4,296.87 647.46,299.43 645.39,299.89 647.52,300.03 648.09,302.69 "
       class="cls-2"
       transform="translate(0,-2.77)" />
    <polygon
       style="fill:#d6eef4"
       id="polygon39"
       points="701.98,254.57 695.42,253.66 702.14,252.58 703.48,244.15 703.72,252.58 710.37,253.66 703.64,254.57 702.3,263.45 "
       class="cls-2"
       transform="translate(0,-2.77)" />
    <polygon
       style="fill:#d6eef4"
       id="polygon41"
       points="566.4,289.53 570.29,290.05 566.3,290.67 565.51,295.48 565.37,290.67 561.43,290.05 565.41,289.53 566.21,284.47 "
       class="cls-2"
       transform="translate(0,-2.77)" />
    <path
       style="fill:#ffffff"
       id="path65"
       d="m 887.85,326.7 -29,-31.6 c -2.08,-2.27 -10,-11.79 -11.1,-14.83 -1.2049,-3.49052 -3.1029,-6.70148 -5.58,-9.44 l -5,-6.72 -2,-3.84 0.07,0.1 -0.07,-0.05 c -1.65,0 -3.29,0 -4.92,-0.17 -1.21,-0.08 -2.42,-0.21 -3.61,-0.39 -0.55,-0.08 -1.09,-0.18 -1.63,-0.28 -1,-0.2 -2.06,-0.46 -3.07,-0.76 -1.28393,-0.3865 -2.53737,-0.86782 -3.75,-1.44 -1.88586,-1.00547 -3.63933,-2.24163 -5.22,-3.68 -0.88,-1 -1.72,-2.1 -2.51,-3.18 -2,-2.74 -1.51,-9.1 -4.89,-10.8 -2.21,-1.11 -5.37,0.23 -7.3,-0.83 -2.18,-1.2 -2.41,-4.53 -4.19,-5.43 -1.78,-0.9 -5.21,0.17 -7.31,-0.16 -10.95,-1.69 -17.25,-10.54 -27.59,-14 -12.13,-4.08 -20.83,-11.13 -27.79,-24.15 v 0 l -0.71,0.2 c -3.07,0.83 -6.21,-4.65 -9.28,-3.92 -1.64516,0.37213 -3.25463,0.88743 -4.81,1.54 -3,1.31 -4.7,2.31 -6.5,2.73 -1.8,0.42 -4.07,-7.11 -6.42,-7.68 -6.53,-1.6 2,-3.95 -2.59,-6.86 -0.79,-0.51 -1.88,-14.45 -2.59,-14.65 -3.17,-0.88 -9.9,-14.73 -12.45,-12.79 -1.42,1.07 -6.76,-4.55 -8.46,-3.92 -0.63,0.23 -8.55,1 -9.2,1.07 -1.43,0.21 -4,3.44 -7.8,9.2 -1.80604,2.84475 -4.69604,4.82801 -8,5.49 -0.87,0.35 0.24,7.26 -0.57,7.89 -1.32,1 -2.08,3 -3.45,3.71 -5.28,2.95 -12.16,30 -17.59,32.73 -1.26192,0.6706 -2.60688,1.1716 -4,1.49 -3.1,0.62 -5.52,-0.38 -9.47,-2.34 -2.25,-1.11 -5.46,2.89 -7.5,2.19 -2.04,-0.7 -2.66,-0.66 -3.22,-0.37 -1.01781,0.83034 -2.22839,1.39092 -3.52,1.63 -0.60577,0.12522 -1.2216,0.1955 -1.84,0.21 -3.9,0.06 -6.18,10.52 -9.1,9.33 -1.0249,-0.42772 -2.13011,-0.62898 -3.24,-0.59 -4.43,0.19 -9.84,5.36 -14.41,6.07 -4.00307,0.85488 -8.17753,-0.16113 -11.34,-2.76 -0.66,-0.49 -1.35,-1 -2.07,-1.65 -0.35,0.49 -1.07,2.14 -1.51,2.36 -0.65242,0.33425 -1.27183,0.72934 -1.85,1.18 -3.6,2.74 -7.24,7.88 -10.36,10.58 -3.47,3 -7.25,3.21 -10.46,6.27 -7.2,6.87 -13.28,15.21 -22.51,19.46 -3.22,1.48 -9.49,0.76 -10.33,0.53 -0.61,-0.25 -4,12 -7.5,23.29 -2.65,8.44 -5.82,16.69 -5.82,16.69 l -19.44,23.34 306.29,0.03 c 16,0.002 31.9,-0.15 47.83,-0.03 h 0.47 55.82 z M 534.41,273.13 c 0.21,-0.95 0.42,-1.89 0.62,-2.84 0.58473,-3.32984 1.7167,-6.53991 3.35,-9.5 l 0.17,0.08 v -0.37 c 1.62,-2.61 3.93,-5 7.59,-8.12 -8.28,7.07 -9.66,11.55 -11.73,20.75 z m 22.1,2.83 c 0.57,-0.5 1.11,-1 1.61,-1.56 3.75,-4 5.87,-4 10.13,-6.46 -4.83,2.83 -6.91,3.78 -11.74,8.02 z m 111.49,11.08 0.09,-0.24 z m 2.26,-6.54 c 1.06,-3.52 2,-7.08 3.1,-10.58 -1.16,3.5 -2.09,7.06 -3.15,10.58 z m 5.8,-17.74 c 0.64,-2 4.26,-14 7.54,-16.26 0.25,-0.17 0.5,-0.34 0.75,-0.49 -3.51,2.13 -7.65,14.62 -8.35,16.75 z m 53.67,-62.72 c -0.50713,3.03324 -1.17473,6.03746 -2,9 1.2,-4.58 1.94,-9.7 2.84,-13.22 -0.37,1.35 -0.64,2.79 -0.89,4.22 z"
       class="cls-7" />
    <path
       style="fill:#a1cada"
       id="path67"
       d="m 777.77,326.7 c 18,-0.05 35.89,-0.22 53.83,0 h 56.25 c 0,0 -36.78,-35.51 -41.73,-39.02 -11,-7.78 -27.76,-26.63 -35.62,-37.32 -2,-2.74 -1.51,-9.1 -4.89,-10.81 -2.21,-1.1 -5.37,0.24 -7.3,-0.83 -2.18,-1.2 -2.41,-4.53 -4.19,-5.42 -1.78,-0.89 -5.21,0.16 -7.31,-0.16 -10.95,-1.7 -17.25,-10.55 -27.59,-14 -12.13,-4.08 -20.83,-11.13 -27.79,-24.16 0.13,3.22 1.45,6.3 1.45,9.73 0,7.07 2.53,20.75 -0.92,26.41 -1.38,2.12 -8.29,-0.71 -10.36,2.12 -1.38,2.13 -1.38,7.08 -4.15,8.49 -6.9,3.54 -13.12,0 -20,3.54 -4.14,2.13 -9.67,-2.12 -13.12,0.71 -3.46,2.12 -7.6,14.62 -8.29,16.74 -4.84,10.62 -5.53,22.65 -12.44,32.55 10.37,-2.12 9.68,-12.74 15.89,-19.1 4.15,-3.54 5.53,-9.91 8.29,-14.15 -2.07,9.9 -3.45,19.81 -8.29,29 10.36,-5.66 10.36,-20.52 17.27,-30.43 3.46,7.78 -2.76,14.86 -2.07,22.64 2.07,-0.71 4.14,-1.41 4.84,-2.83 6.9,-7.07 6.9,-16.27 14.5,-22.64 -1.38,5 0,10.61 -2.07,15.57 8.29,-2.13 15.88,-7.08 24.86,-8.49 -6.21,6.36 -13.81,7.78 -21.41,12 -0.69,0 -2.07,2.13 -2.76,2.13 -10.36,9.2 -22.11,14.15 -33.85,19.1 -3.48,2.16 -9.7,2.16 -13.8,4.26 -0.69,0.7 -1.39,4.24 -3.46,5.66 -5.52,2.12 -12.43,0.71 -15.88,4.95 -4.38702,4.57718 -9.84956,7.98397 -15.89,9.91 7.6,-0.71 15.19,0 22.1,-5 0.69,-0.7 0.69,-3.53 2.07,-3.53 7.6,-0.71 13.82,-5.66 20,-9.2 4.14,-2.83 7.59,2.83 9,0.7 6.21,-7.78 13.81,-7.78 21.41,-12 2.76,-2.13 6.22,-4.25 6.22,-8.49 3.45,0 6.9,0.7 10.36,0 2.07,-0.71 2.76,-5.66 4.14,-5.66 6.22,0.7 9.67,-5 13.82,-6.37 8.29,-2.83 17.27,-2.13 24.86,-2.83 7.6,0 15.2,7.78 25.56,9.2 -2.76,5 -6.22,9.19 -9,14.15 -1.38,3.53 -9,2.12 -13.81,4.24 -0.64602,0.14134 -1.23681,0.46801 -1.7,0.94 -10,-4.79 -20.07,-9.47 -30.77,-10.84 0,8.49 5.53,13.44 11.05,19.1 0.69,1.42 0,3.54 0,5.66 -4.83,-2.83 -8.29,-7.78 -11.74,-12 -0.69,3.54 2.07,7.79 -0.69,9.91 -0.69,1.41 -4.14,-1.42 -6.22,0.71 0,0.7 -0.69,1.41 -0.69,2.12 -4.83,0 -8.29,-2.83 -11.74,-6.37 -2.07,2.83 -4.83,2.12 -6.22,2.83 -6.21,4.25 -12.43,8.49 -20,9.91 5.53,-6.37 10.36,-12.74 17.27,-17.69 -9.67,4.24 -18.65,9.9 -28.32,14.15 -6.45579,3.06478 -12.74461,6.47956 -18.84,10.21 z"
       class="cls-4" />
    <path
       style="fill:#a1cada"
       id="path69"
       d="m 721.43,191.23 c -4.35,7.35 -11.5,25.64 -19.17,30 1.5,-5.12 6.41,-20.92 7.86,-25.69 -1.75,0.41 -2.5,-27.31 -5.79,-28.24 -2.18,-0.62 -2.86,-5.55 -5.55,-6 -2.06,-0.33 -5.1,1.15 -7.45,0.57 -6.53,-1.59 -6.85,-8.25 -11.48,-11.17 -0.69524,-0.43829 -1.44953,-0.77503 -2.24,-1 -2,6.43 -5.63,40.31 -11.73,44.9 -2.07,1.41 -3,18.15 -4.38,21.69 -0.69,2.83 -4.14,4.25 -5.52,6.37 -4.15,7.08 -4.84,16.27 -11.75,19.81 -5.52,2.83 -6.9,16.75 -13.12,18.87 -1.38,0 -3.45,-1.42 -4.83,0.71 -6.22,5.66 -9,18.16 -15.89,23.11 0.69,-7.78 6.22,-17.45 9.67,-24.53 0.69,-2.12 -0.69,-13.91 0.69,-13.91 2.76,-0.71 6.22,1.41 9,-0.71 8.29,-9.91 14.73,-35.14 14,-48.58 -2.07,4.24 -4.37,21 -7.82,24.52 0.57324,-3.74455 0.80419,-7.53354 0.69,-11.32 -4.84,6.37 -6.91,12 -8.29,20.52 0,2.83 -3.46,5.66 -4.84,8.49 -0.0402,-4.79495 0.65794,-9.56751 2.07,-14.15 1.76,-3.59 1.53,-9.2 1.42,-14.27 -3.1,0.63 -5.52,-0.37 -9.47,-2.33 -2.25,-1.11 -5.46,2.88 -7.5,2.18 -2.04,-0.7 -2.66,-0.65 -3.22,-0.36 -0.16,8.92 -0.37,15.33 0.12,24.45 0,-2.83 -2.07,-4.25 -2.07,-6.37 -0.58,-6.56 -1.17,-10.26 -3.41,-16.25 -3.9,0.07 -6.18,10.53 -9.1,9.34 -1.02207,-0.43721 -2.12942,-0.63886 -3.24,-0.59 -4.43,0.19 -9.84,5.36 -14.41,6.06 -4.00156,0.85913 -8.17649,-0.15331 -11.34,-2.75 -1.28,9.18 -8.7,13.51 -15.14,20.7 -1.38,1.41 0,5.66 -2.07,7.07 -8.29,7.08 -9.67,11.56 -11.74,20.76 5.52,-7.08 11.74,-8.73 15.88,-17.93 2.07,-5 8.29,-6.36 11.05,-11.32 1.39,-2.83 2.77,-3.3 3.46,-6.13 0.68996,2.70672 0.68996,5.54328 0,8.25 0,2.13 -4.15,3.54 -4.15,5.67 -2.07,9.19 -10.36,9.43 -11.74,18.63 6.91,-10.61 15.89,-15.1 23.49,-26.42 3.45,-4.95 5.52,-8.25 9,-13.91 1.38,-1.42 4.83,-2.13 6.21,-4.25 0,4.25 2.08,9.2 0.69,11.32 -2.07,7.79 0,11.09 -1.38,16 -1.38,7.08 -11,10.61 -18.65,14.86 -4.83,2.83 -6.91,3.77 -11.74,8 -3.45,3.54 -2.76,10.61 -6.22,12.74 -6.21,3.53 -12.43,-1.18 -19.34,-1.18 0.69,4.24 -0.69,7.07 -3.45,9.9 -9.08,8.46 -16.42,18.71 -23.23,29.34 h 34.14 c 6.11075,-4.42262 10.94118,-10.41475 14,-17.31 2.77,2.13 6.22,4.25 8.29,2.13 15.2,-13.45 34.54,-10.62 51.12,-19.11 7.6,-3.54 13.12,-9.2 21.41,-9.91 -6.21,4.25 -13.12,7.08 -18.65,12 -1.38,2.13 -5.52,2.13 -6.9,3.54 -4.84,4.25 -7.6,10.62 -11.75,15.57 -0.69,-3.54 3.46,-9.2 1.38,-9.2 -5.52,-2.83 -11,1.41 -13.81,9.2 0,1.41 -2.07,3.54 -4.15,3.54 0.69,-4.25 2.08,-7.79 2.77,-12 -0.69,0.7 -2.08,2.12 -2.77,2.12 -9.67,-0.71 -13.12,12 -22.1,16.27 0.69,-2.12 -1.38,-6.36 -2.07,-4.95 -2.94,2.66 -5.8,5.39 -8.61,8.11 h 40.61 c 5.84,-3.88 11.72,-8.03 17.73,-12.35 2.07,-1.42 3.46,-5 5.53,-7.08 3.45,-4.25 10.36,-2.83 15.89,-4.95 0.69,-0.71 -0.7,-2.13 0.69,-3.54 6.21,-5.66 11.74,-10.61 13.81,-19.81 0,-1.42 4.14,-1.42 4.84,-2.83 1.38035,-2.15816 1.38035,-4.92184 0,-7.08 11,-3.54 19.34,-17.45 23.48,-30.19 0.69,-2.83 10.36,0.71 16.58,-2.83 11.74,-8.49 23.49,-11.32 35.92,-17 6.11,-2.09 7.16,-16.9 9.11,-23.93 -3.12,0.86 -6.26,-4.61 -9.33,-3.88 z"
       class="cls-4" />
    <path
       style="fill:#a1cada"
       id="path71"
       d="m 835.21,260.23 a 1.77,1.77 0 0 0 0.33,0.34 c 0.82,1.28 1.22,3.2 2.44,4.48 1.63,1.92 3.66,3.52 4.48,6.08 -4,-3.73 -8.41,-7.19 -12.17,-11.07 1.63,0.17 3.27,0.17 4.92,0.17 z"
       class="cls-4" />
    <path
       style="fill:#a1cada"
       id="path73"
       d="m 825.05,259.43 1.63,0.28 c 3,4.62 7.33,8.28 10.49,12.42 a 37.5,37.5 0 0 0 9.76,8.63 5.35,5.35 0 0 1 2.81,4.58 c -0.2,-0.36 -0.55,-0.71 -0.77,-1.06 -9.06,-7.71 -18.11,-15.15 -23.92,-24.85 z"
       class="cls-4" />
    <path
       style="fill:#a1cada"
       id="path75"
       d="m 846.12,287.69 a 7.4,7.4 0 0 0 -3.66,-4 c -2.85,-1.6 -7.33,-1 -9.77,-2.56 -1.62,-1 0.82,-4.16 -2,-5.44 -4.47,-1.6 -6.1,-4.47 -7.32,-7.67 -2.26,-5.55 -7.06,-9.86 -10.74,-14.76 a 29.11,29.11 0 0 0 5.63,4 27.08,27.08 0 0 0 3.75,1.44 c 1.16,2 2.36,4.07 3.39,6.1 0.41,1 2.44,1.28 3.26,2.56 2.44,4.48 3.66,8.95 10.57,10.87 1.22,0.32 0.82,1.6 1.63,2.56 5.29,4.48 11.39,8 14.64,13.43 a 36.8,36.8 0 0 0 -9.38,-6.53 z"
       class="cls-4" />
    <path
       style="fill:#a1cada"
       id="path77"
       d="m 820.49,294.23 c 2,1.28 3.25,3.51 5.29,4.15 a 93,93 0 0 1 14.64,6.08 c 1.22,0.64 2.85,0.32 4.48,0.32 -2.85,4.48 4.07,7.35 7.73,10.23 0.4,0 0.4,1.28 0.81,1.92 2.44,3.84 9.36,3.84 11.8,8 -2.85,-2.55 -7.33,-3.51 -11,-5.75 -1.22,-0.64 -2,-1.92 -3.25,-3.52 -0.41,-1 -2.85,-1.28 -3.66,-2.24 -2.44,-1.6 -3.26,-3.51 -6.1,-5.11 -1.22,-0.64 0.81,-1.6 0,-1.92 -2,-1 -4.88,-1.28 -6.92,-2.24 a 18.29,18.29 0 0 1 4.07,5.44 c -3.26,-2.88 -6.51,-5.12 -9.36,-8.64 -0.81,-1.28 -3.66,-1 -5.69,-1.92 -2.49,-1.24 -5,-2.38 -7.54,-3.37 a 12.3,12.3 0 0 0 -2.23,-2.38 3.13,3.13 0 0 0 -0.63,-0.47 c 2.67,0.3 5.75,-0.04 7.56,1.42 z"
       class="cls-4" />
    <path
       style="fill:#a1cada"
       id="path79"
       d="m 835.54,316.57 c 0.82,2.56 1.22,6.4 4.48,7.35 -0.41,0.32 0.4,1 -0.41,1 -6.92,-1.6 -6.1,-7.35 -10.58,-10.55 a 28.12,28.12 0 0 1 -2.85,-2 c 4.53,1.13 9,2.49 12.77,5.08 1.95,1.85 2.45,4.17 4.32,6.22 -2.85,-2.3 -5.69,-4.22 -7.73,-7.1 z"
       class="cls-4" />
    <path
       style="fill:#e9e9ea"
       id="path81"
       d="m 782.66,297.39 c 1.63,3.83 5.29,6.07 9.76,7.67 2.85,1 3.66,-1.6 5.7,-2.56 0,1 1.22,1 1.62,1 3.26,1.28 6.51,0.64 9.77,1.28 2,0.64 2.44,3.52 4.47,4.16 a 101.23,101.23 0 0 0 12.2,3.4 28.12,28.12 0 0 0 2.85,2 c 4.48,3.2 3.66,8.95 10.58,10.55 0.81,0 0,-0.64 0.41,-1 -3.26,-0.95 -3.66,-4.79 -4.48,-7.35 2,2.88 4.88,4.8 7.73,7 -1.87,-2.05 -2.37,-4.37 -4.32,-6.22 l 0.66,0.47 c -4.07,-3.52 -9.36,-6.4 -11,-11.51 -1.22,-2.24 -5.7,-3.2 -8.14,-4.8 -2,-1.56 -3.18,-3.9 -4.69,-5.93 2.56,1 5.05,2.13 7.54,3.37 2,1 4.88,0.64 5.69,1.92 2.85,3.52 6.1,5.76 9.36,8.64 a 18.29,18.29 0 0 0 -4.07,-5.44 c 2,1 4.88,1.28 6.92,2.24 0.81,0.32 -1.22,1.28 0,1.92 2.84,1.6 3.66,3.51 6.1,5.11 0.81,1 3.25,1.28 3.66,2.24 1.22,1.6 2,2.88 3.25,3.52 3.66,2.24 8.14,3.2 11,5.75 -2.44,-4.15 -9.36,-4.15 -11.8,-8 -0.41,-0.64 -0.41,-1.92 -0.81,-1.92 -3.66,-2.88 -10.58,-5.75 -7.73,-10.23 -1.63,0 -3.26,0.32 -4.48,-0.32 a 93,93 0 0 0 -14.64,-6.08 c -2,-0.64 -3.26,-2.87 -5.29,-4.15 -1.81,-1.42 -4.89,-1.08 -7.55,-1.43 -2,-1.19 -6.31,-1.42 -9.94,-1.13 2,-4.8 -3.26,-8.31 -5.29,-12.47 -1.44,-2.26 1.25,-5.26 3.3,-8.14 3,5.54 5.14,11.52 11.34,15.17 3.26,1.92 8.55,-0.64 11.39,1.6 3.67,3.52 9.77,3.52 15.06,4.16 -3.26,1.92 -0.82,4.48 1.62,5.75 7.33,4.16 16.27,8.32 19.53,14.71 1.63,3.2 8.13,2.88 11,5.12 3.61,3.12 7.13,6.29 11,9.15 h -55.87 a 39.92,39.92 0 0 0 -8.43,-3.4 c -2,-0.31 -4.47,-1.91 -4.47,-3.51 0,-3.52 -3.66,-6.4 -6.1,-6.72 -9.77,-1.6 -18.72,-4.47 -26,-9.91 -4.88,-4.16 -12.61,-5.75 -17.49,-10.23 6.06,1.67 12.16,6.46 19.08,4.55 z"
       class="cls-8" />
    <path
       style="fill:#ddeffa"
       id="path87"
       d="m 471.48,293.47 -1.31,0.36 c 0.45,-0.1 0.88,-0.23 1.31,-0.36 z"
       class="cls-3" />
    <path
       style="fill:#ffffff"
       id="path89"
       d="m 508.84,278.63 a 15.37,15.37 0 0 0 -2.06,1.52 c 1.68,0 2.05,-0.67 2.06,-1.52 z"
       class="cls-7" />
    <path
       style="fill:#ffffff"
       id="path91-0"
       d="m 561.29,222.9 c -0.35,0.49 -1.07,2.14 -1.51,2.36 a 11.65,11.65 0 0 0 -1.85,1.18 c -4.26,9.33 -11.57,15.55 -20.76,20.93 0.69,1.41 1.38,2.83 0.69,3.54 -6.22,4.24 -7.6,9.19 -13.12,13.44 -2.08,1.42 -3.46,-1.89 -4.15,-0.47 -1.38,1.41 -1.38,4.25 -2.07,6.37 -2.07,2.83 -6.91,3.54 -9.67,5.66 -0.36,0.72 0,1.82 0,2.72 4.46,-2.8 9.65,-3.31 13.82,-7 4.15,-2.83 4.84,-4.48 7.6,-8.73 0.69,-1.41 3.45,-2.12 4.15,-3.53 2.76,-4.25 5.52,-9.2 10.36,-10.62 -2.08,4.25 -6.22,7.08 -6.22,12 -1.38,-0.71 -1.38,1.42 -2.76,1.42 1.38,5.66 -2.08,5.9 -4.84,9.43 -2.76,2.83 -4.83,7.08 -6.21,11.32 A 66.81,66.81 0 0 1 535,270.23 c 1.81,-8.23 3.68,-11.57 11.12,-17.92 2.07,-1.41 0.69,-5.66 2.07,-7.07 6.44,-7.19 13.86,-11.52 15.14,-20.71 -0.63,-0.47 -1.33,-1.02 -2.04,-1.63 z"
       class="cls-7" />
    <path
       style="fill:#ffffff"
       id="path93"
       d="m 560.65,251.61 c 0,-2.12 4.15,-3.53 4.15,-5.66 a 16.7,16.7 0 0 0 0,-8.25 c -0.53,2.17 -1.47,2 -2.5,4.15 -1.45,7.17 -5.92,13.18 -12,17.55 0,0.7 1.38,1.41 1.38,2.12 -2.76,5.66 -4.14,5.9 -4.83,12.27 0,2.12 -3.45,3.53 -4.15,6.36 0.7,-2.12 3.46,-2.12 4.15,-4.24 1.55,-2.39 2.23,-5 3.26,-7.45 -0.4,0.59 -0.8,1.19 -1.19,1.79 1.37,-9.2 9.66,-9.44 11.73,-18.64 z"
       class="cls-7" />
    <path
       style="fill:#ffffff"
       id="path95"
       d="m 587.59,225.67 a 8.12,8.12 0 0 1 -3.27,2.47 c -1.81,7.43 -6,11.58 -8.47,19.23 a 59.51,59.51 0 0 0 9,-13.92 c -0.69,7.79 2.76,13.92 -4.84,18.87 0,0.71 2.08,2.83 1.39,3.54 -3.46,2.83 -7.6,2.83 -11.75,4.24 -0.69,0 -2.07,3.54 -2.76,3.54 -7.6,3.54 -10.36,5.19 -14.51,10.85 3.46,-2.83 5.53,-7.07 9,-9.9 2.77,-2.13 6.22,1.18 8.29,-1.66 1.38,-0.7 2.77,-2.12 4.84,-1.41 -1.27,1.67 -2.54,3.39 -3.84,5.09 7.11,-3.73 15,-7.23 16.27,-13.58 1.38,-5 -0.69,-8.26 1.38,-16 1.35,-2.16 -0.73,-7.12 -0.73,-11.36 z"
       class="cls-7" />
    <path
       style="fill:#e9e9ea"
       id="path97"
       d="m 569.63,262.93 c -2.07,2.84 -5.52,-0.47 -8.29,1.66 -3.45,2.83 -5.52,7.07 -9,9.9 4.15,-5.66 6.91,-7.31 14.51,-10.85 0.69,0 2.07,-3.54 2.76,-3.54 4.15,-1.41 8.29,-1.41 11.75,-4.24 0.69,-0.71 -1.39,-2.83 -1.39,-3.54 7.6,-5 4.15,-11.08 4.84,-18.87 -2.33593,5.03714 -5.36531,9.72258 -9,13.92 2.49,-7.65 6.66,-11.8 8.47,-19.23 -1.06167,0.44229 -2.05232,1.03871 -2.94,1.77 -3.46,5.66 -5.53,9 -9,13.92 -7.17,10.68 -15.57,14.76 -22.3,24.63 -1,2.46 -1.71,5.06 -3.26,7.45 -0.69,2.12 -3.45,2.12 -4.15,4.24 0.7,-2.83 4.15,-4.24 4.15,-6.36 0.69,-6.37 2.07,-6.61 4.83,-12.27 0,-0.71 -1.38,-1.42 -1.38,-2.12 6.09,-4.37 10.56,-10.38 12,-17.55 -0.30667,0.66667 -0.64,1.33333 -1,2 -2.76,5 -9,6.37 -11.05,11.32 -4.14,9.2 -10.36,10.85 -15.88,17.93 0.21,-1 0.42,-1.9 0.62,-2.84 -3.93947,3.80862 -7.39542,8.08743 -10.29,12.74 1.38,-4.24 3.45,-8.49 6.21,-11.32 2.76,-3.53 6.22,-3.77 4.84,-9.43 1.38,0 1.38,-2.13 2.76,-1.42 0,-4.95 4.14,-7.78 6.22,-12 -4.84,1.42 -7.6,6.37 -10.36,10.62 -0.7,1.41 -3.46,2.12 -4.15,3.53 -2.76,4.25 -3.45,5.9 -7.6,8.73 -4.17,3.66 -9.36,4.17 -13.82,7 0,0.85 -0.38,1.52 -2.06,1.52 0.6432,-0.56307 1.33226,-1.0715 2.06,-1.52 0,-0.9 -0.35,-2 0,-2.72 2.76,-2.12 7.6,-2.83 9.67,-5.66 0.69,-2.12 0.69,-5 2.07,-6.37 0.69,-1.42 2.07,1.89 4.15,0.47 5.52,-4.25 6.9,-9.2 13.12,-13.44 0.69,-0.71 0,-2.13 -0.69,-3.54 9.19,-5.38 16.5,-11.6 20.76,-20.93 -3.6,2.73 -7.24,7.88 -10.36,10.57 -3.47,3 -7.25,3.21 -10.46,6.28 -7.2,6.86 -13.28,15.2 -22.51,19.46 -6.46,3 -6.5,-2.42 -7.13,5.38 -2.08,0 -4.84,0.7 -4.84,1.41 -0.69,5.66 -4.83,7.78 -7.6,12 0.69,0.71 2.08,1.41 2.08,2.12 -3.46,2.83 -0.88,3.61 13.81,5.66 2.12427,-0.20722 4.21402,-0.68094 6.22,-1.41 0.69,6.36 -2.77,3.06 -8.29,5.89 -0.69,0 0.69,2.83 0,4.25 -2.07,2.12 -6.91,2.12 -8.29,4.25 -2.76,2.83 2.07,8.49 0,11.32 -2.95009,4.1039 -5.42683,8.48049 -7.63391,13.02734 L 504.27,326.7 c 6.81,-10.62 14.03,-20.85 23.11,-29.3 2.76,-2.83 4.14,-5.66 3.45,-9.9 6.91,0 13.13,4.71 19.34,1.17 3.46,-2.12 2.77,-9.19 6.22,-12.73 0.57,-0.51 1.11,-1 1.61,-1.57 -0.08,0.05 -0.15,0.11 -0.23,0.15 0.08,0 0.15,-0.1 0.23,-0.15 3.75,-4 5.87,-4 10.13,-6.45 0.78,-0.43 1.57,-0.86 2.38,-1.28 1.3,-1.7 2.57,-3.42 3.84,-5.09 -1.95,-0.74 -3.35,0.68 -4.72,1.38 z"
       class="cls-8" />
    <path
       style="fill:#e9e9ea"
       id="path99"
       d="m 606.93,235.11 c -0.49,-9.13 -0.28,-15.53 -0.12,-24.45 a 7.85,7.85 0 0 1 -3.52,1.62 9.44,9.44 0 0 1 -1.84,0.21 c 2.24,6 2.83,9.69 3.41,16.25 0,2.12 2.07,3.54 2.07,6.37 z"
       class="cls-8" />
    <path
       style="fill:#ffffff"
       id="path101"
       d="m 663.82,182.98 a 10.06,10.06 0 0 1 -1.93,0.47 c -3.77,7.81 -6.48,27.84 -12.13,34.91 2.76,-1.41 6.45,-15.32 7.83,-18.15 2.33,-7.63 6.85,-13.66 10.82,-20 a 18.54,18.54 0 0 1 -4.59,2.77 z"
       class="cls-7" />
    <path
       style="fill:#ffffff"
       id="path103"
       d="m 642.16,233.23 c 0.69,2.12 2.76,0 3.46,0.71 1,-13.26 7.56,-37.52 12,-50.09 a 9,9 0 0 0 -2.08,0.51 10.69,10.69 0 0 0 -2.5,1.54 c -2.7,10.67 -5.74,33.13 -8.81,43.79 0,-2.83 0.69,-4.95 -0.69,-7.78 -1.38,9.2 -5.52,25.94 -9,34.43 4.86,-3.54 5.55,-17.46 7.62,-23.11 z"
       class="cls-7" />
    <path
       style="fill:#e9e9ea"
       id="path105-6"
       d="m 626.28,261.99 c 1.38,-2.12 3.45,-0.7 4.83,-0.7 6.22,-2.13 7.6,-16 13.12,-18.87 6.91,-3.54 7.6,-12.74 11.75,-19.81 1.38,-2.12 4.83,-3.54 5.52,-6.37 1.38,-3.54 2.31,-20.28 4.38,-21.7 6.1,-4.58 10,-38.29 12,-44.72 -3.17,-0.87 -5.55,1 -8.1,3 -4,6.36 -8.49,12.39 -10.82,20 -1.38,2.83 -6.43,44.15 -9.19,45.56 4.91,-6.15 7.6,-22.1 10.7,-31.29 0.47,-1.38 -8.3,-20.65 -7.81,-21.66 -1.43,0.21 0.81,7.7 -0.57,7.89 -0.35,1 -2,19 -1,21.64 4.89,12.89 -4.54,26.76 -5.49,39 -0.7,-0.71 -2.77,1.41 -3.46,-0.71 -2.07,5.66 -2.76,19.58 -7.6,23.11 3.46,-8.49 7.6,-25.23 9,-34.43 1.38,2.83 0.69,5 0.69,7.78 3.07,-10.66 1.71,-42 4.4,-52.67 -1.31,1 -6.86,4.74 -8.23,5.5 -5.28,2.95 -5.24,14.76 -10.67,17.48 -1.54,0.77 -5.91,10.75 -7.11,11 0.11,5.06 4.72,10.86 3,14.45 a 46.67,46.67 0 0 0 -2.07,14.15 c 1.38,-2.83 4.84,-5.66 4.84,-8.49 1.38,-8.49 3.45,-14.15 8.29,-20.52 a 62.38,62.38 0 0 1 -0.69,11.32 c 3.45,-3.54 5.75,-20.28 7.82,-24.52 0.69,13.44 -5.75,38.67 -14,48.58 -2.76,2.12 -6.22,0 -9,0.71 -1.38,0 0,11.79 -0.69,13.91 -3.45,7.07 -9,16.74 -9.67,24.53 6.85,-4.99 9.61,-17.49 15.83,-23.15 z"
       class="cls-8" />
    <path
       style="fill:#e9e9ea"
       id="path107-6"
       d="m 557.2,323.55 c 9,-4.24 12.43,-17 22.1,-16.27 0.69,0 2.08,-1.42 2.77,-2.12 -0.69,4.24 -2.08,7.78 -2.77,12 2.08,0 4.15,-2.12 4.15,-3.53 2.76,-7.79 8.29,-12 13.81,-9.2 2.08,0 -2.07,5.66 -1.38,9.2 4.15,-5 6.91,-11.32 11.75,-15.57 1.38,-1.42 5.52,-1.42 6.9,-3.54 5.53,-4.95 12.44,-7.78 18.65,-12 -8.29,0.71 -13.81,6.37 -21.41,9.91 -16.58,8.49 -35.92,5.66 -51.12,19.1 -2.07,2.13 -5.52,0 -8.29,-2.12 a 42.68,42.68 0 0 1 -14,17.27 h 8.11 c 2.81,-2.71 5.67,-5.41 8.61,-8.07 0.74,-1.38 2.81,2.82 2.12,4.94 z"
       class="cls-8" />
    <path
       style="fill:#e9e9ea"
       id="path109-1"
       d="m 721.43,191.23 a 28.89,28.89 0 0 0 -4.81,1.53 c -3,1.31 -4.7,2.31 -6.5,2.74 -1.45,4.77 -6.36,20.57 -7.86,25.69 7.67,-4.32 14.82,-22.61 19.17,-29.96 z"
       class="cls-8" />
    <path
       style="fill:#ffffff"
       id="path111-9"
       d="m 662.88,264.12 v -0.71 c 0,4.24 -4.14,7.07 -7.59,7.78 a 12.29,12.29 0 0 1 -0.69,5 c -5.53,6.37 -10.37,12.74 -13.82,20.52 -0.69,1.42 -3.45,2.13 -4.83,3.54 a 9.08,9.08 0 0 1 -0.7,4.25 c -3.45,4.95 -8.28,7.78 -10.36,14.15 4.15,-6.37 10.36,-10.61 13.82,-17.69 0.69,-2.12 5.52,-1.42 6.21,-3.54 1.39,-4.24 4.15,-6.37 6.91,-9.2 0.69,-0.7 -0.69,-3.53 0,-4.24 4.84,-2.83 6.91,-7.79 11,-11.32 1.39,9.2 -6.21,14.15 -8.28,22.64 5.52,-7.08 8.28,-14.15 11.74,-22.64 0.69,-2.13 4.14,-2.83 4.83,-5.66 -0.62,7 -2.93,13.49 -3.37,20.41 3.3,-8 4.6,-16.74 8.21,-24.66 0.64,-2 4.26,-14 7.54,-16.25 -3.68,1.23 -7.41,10.59 -11.69,10.59 0.74,5.61 -4.81,8.44 -8.93,7.03 z"
       class="cls-7" />
    <path
       style="fill:#ffffff"
       id="path113"
       d="m 730.58,286.76 c -3.46,3.54 -8.29,2.83 -12.44,5.66 -0.69,0.71 0.7,2.83 0,3.54 -3.45,2.83 -8.28,0.7 -9,5.66 0.69,-1.42 2.76,-2.13 3.45,-2.83 1.38,-0.71 4.14,0 5.52,-1.42 3.46,-2.12 5.53,-4.95 9.67,-6.37 -2.07,3.54 -2.76,7.08 -5.52,10.62 l -2.07,2.12 c -0.69,0.71 0,2.12 0,3.54 1.38,-2.12 4.14,-4.25 4.83,-6.37 1.38,-4.25 4.84,-6.37 6.22,-9.91 a 7.52,7.52 0 0 0 4.12,4 17.35,17.35 0 0 1 -1.36,-6.82 l 0.82,0.12 c -1.18,-1.93 -3.67,-2.72 -4.24,-1.54 z"
       class="cls-7" />
    <path
       style="fill:#e9e9ea"
       id="path115"
       d="m 763.73,270.48 c -7.59,0.71 -16.57,0 -24.86,2.84 -4.15,1.41 -7.6,7.07 -13.82,6.36 -1.38,0 -2.07,5 -4.14,5.66 -3.46,0.71 -6.91,0 -10.36,0 0,4.25 -3.46,6.37 -6.22,8.49 -7.6,4.25 -15.2,4.25 -21.41,12 -1.39,2.13 -4.84,-3.53 -9,-0.7 -6.22,3.53 -12.44,8.49 -20,9.19 -1.38,0 -1.38,2.83 -2.07,3.54 -6.91,4.95 -14.5,4.25 -22.1,4.95 a 37.89,37.89 0 0 0 15.89,-9.9 c 3.45,-4.25 10.36,-2.83 15.88,-4.95 2.07,-1.42 2.77,-5 3.46,-5.66 4.14,-2.13 10.36,-2.13 13.81,-4.25 11.74,-5 23.49,-9.91 33.85,-19.1 0.69,0 2.07,-2.13 2.76,-2.13 7.6,-4.24 15.2,-5.66 21.41,-12 -9,1.42 -16.57,6.37 -24.86,8.5 2.07,-5 0.69,-10.62 2.07,-15.57 -7.6,6.37 -7.6,15.57 -14.5,22.64 -0.7,1.42 -2.77,2.12 -4.84,2.83 -0.69,-7.78 5.53,-14.86 2.07,-22.64 -6.91,9.9 -6.91,24.76 -17.27,30.42 4.84,-9.19 6.22,-19.1 8.29,-29 -2.76,4.25 -4.14,10.62 -8.29,14.15 -6.21,6.37 -5.52,17 -15.89,19.11 a 40.11,40.11 0 0 0 4.23,-7.89 c 0.44,-6.92 2.75,-13.38 3.37,-20.41 -0.69,2.83 -4.14,3.53 -4.83,5.66 -3.46,8.49 -6.22,15.56 -11.74,22.64 2.07,-8.49 9.67,-13.44 8.28,-22.64 -4.14,3.53 -6.21,8.49 -11,11.32 -0.69,0.71 0.69,3.54 0,4.24 -2.76,2.83 -5.52,5 -6.91,9.2 -0.69,2.12 -5.52,1.42 -6.21,3.54 -3.46,7.08 -9.67,11.32 -13.82,17.69 2.08,-6.37 6.91,-9.2 10.36,-14.15 a 9.08,9.08 0 0 0 0.68,-4.23 c 1.38,-1.41 4.14,-2.12 4.83,-3.54 3.45,-7.78 8.29,-14.15 13.82,-20.52 a 12.29,12.29 0 0 0 0.69,-5 c 3.45,-0.71 7.59,-3.54 7.59,-7.78 v 0.71 c 4.15,1.41 9.67,-1.42 9,-7.08 4.28,0 8,-9.36 11.69,-10.59 0.25,-0.17 0.5,-0.34 0.75,-0.49 3.45,-2.83 9,1.41 13.12,-0.71 6.61,-3.38 12.58,0 19.13,-3.1 a 35.17,35.17 0 0 0 2.29,-6.81 c -4.15,3.54 -9.67,2.13 -13.82,6.37 -3.45,3.54 -9,1.42 -14.51,2.13 7.6,-2.84 13.82,-4.25 19.35,-9.2 2.76,-2.83 7.59,0 10.36,-2.83 0.69,-0.71 0,-2.83 0,-3.54 2.07,-0.71 5.52,-1.42 6.21,-2.83 4.43,-5.19 6.4,-19.22 3.25,-25.45 -1,5.79 -3.32,17.45 -8.08,19.08 -12.43,5.66 -24.18,8.49 -35.92,17 -6.22,3.54 -15.89,0 -16.58,2.83 -4.14,12.74 -12.43,26.65 -23.48,30.19 a 6.55,6.55 0 0 1 0,7.07 c -0.7,1.42 -4.84,1.42 -4.84,2.84 -2.07,9.19 -7.6,14.15 -13.81,19.81 -1.39,1.41 0,2.83 -0.69,3.54 -5.53,2.12 -12.44,0.7 -15.89,4.95 -2.07,2.12 -3.46,5.66 -5.53,7.07 -6,4.34 -11.89,8.45 -17.73,12.32 h 70.73 a 204.53,204.53 0 0 1 18.84,-10.19 c 9.67,-4.25 18.65,-9.91 28.32,-14.15 -6.91,4.95 -11.74,11.32 -17.27,17.68 7.6,-1.41 13.82,-5.66 20,-9.9 1.39,-0.71 4.15,0 6.22,-2.83 3.45,3.54 6.91,6.37 11.74,6.37 0,-0.71 0.69,-1.42 0.69,-2.13 2.08,-2.12 5.53,0.71 6.22,-0.7 2.76,-2.13 0,-6.37 0.69,-9.91 3.45,4.25 6.91,9.2 11.74,12 0,-2.12 0.69,-4.25 0,-5.66 -3.86,-4 -7.72,-7.58 -9.69,-12.29 a 7.52,7.52 0 0 1 -4.12,-4 c -1.38,3.54 -4.84,5.66 -6.22,9.91 -0.69,2.12 -3.45,4.25 -4.83,6.37 0,-1.42 -0.69,-2.83 0,-3.54 l 2.07,-2.12 c 2.76,-3.54 3.45,-7.08 5.52,-10.62 -4.14,1.42 -6.21,4.25 -9.67,6.37 -1.38,1.42 -4.14,0.71 -5.52,1.42 -0.69,0.7 -2.76,1.41 -3.45,2.83 0.69,-5 5.52,-2.83 9,-5.66 0.7,-0.71 -0.69,-2.83 0,-3.54 4.15,-2.83 9,-2.12 12.44,-5.66 0.57,-1.18 3.06,-0.39 4.27,1.53 10.39,1.5 20.18,6.06 29.95,10.73 a 3.4,3.4 0 0 1 1.7,-0.94 c 4.83,-2.12 12.43,-0.71 13.81,-4.25 2.76,-5 6.22,-9.19 9,-14.15 -10.45,-1.41 -18.05,-9.16 -25.65,-9.16 z"
       class="cls-8" />
    <path
       style="fill:#ffffff"
       id="path117"
       d="m 726.43,225.44 c -0.69,1.41 -4.14,2.12 -6.21,2.83 0,0.71 0.69,2.83 0,3.54 -2.77,2.83 -7.6,0 -10.36,2.83 -5.53,5 -11.75,6.36 -19.35,9.2 5.53,-0.71 11.06,1.41 14.51,-2.13 4.15,-4.24 9.67,-2.83 13.82,-6.37 a 35.17,35.17 0 0 1 -2.29,6.81 c 0.3,-0.14 0.6,-0.28 0.9,-0.44 2.77,-1.41 2.77,-6.37 4.15,-8.49 2.07,-2.83 9,0 10.36,-2.12 3.45,-5.66 0.92,-19.34 0.92,-26.42 0,-3.42 -1.32,-6.5 -1.45,-9.72 v 0 l -0.71,0.2 c -0.43,1.56 -0.74,3.2 -1,4.85 3.11,6.22 1.14,20.22 -3.29,25.43 z"
       class="cls-7" />
    <path
       style="fill:#a1cada"
       id="path119"
       d="m 849.74,285.33 a 0.79,0.79 0 0 1 0,0.86 8.38,8.38 0 0 0 0,-0.86 z"
       class="cls-4" />
    <path
       style="fill:#ddeffa"
       id="path127"
       d="m 478.24,322.1 v 0.94 a 0.61,0.61 0 0 0 0,-0.94 z"
       class="cls-3" />
    <path
       style="fill:#ddeffa"
       id="path129"
       d="m 826,321.1 a 9.48,9.48 0 0 1 -3.15,-1 c -0.19,1.21 3.07,2.5 3.15,1 z"
       class="cls-3" />
    <path
       style="fill:#99bdc6"
       id="path133"
       d="m 826.07,326.7 h 55.82 c 0,0 5.39,0.54 -4.47,6.56 -9.86,6.02 -11.21,5.89 -12.18,8.41 -0.97,2.52 -3.13,7.13 -3.13,7.13 v 4.76 l -32.18,-7.45 c 0,0 4.38,-2.66 4.8,-4.44 0.42,-1.78 8.54,-3.31 8.54,-3.31 h -13 l -8,6 -38.27,-8.89 c 0,0 10.26,1.84 17.31,-0.25 7.05,-2.09 11.28,-3.65 11.28,-3.65 0,0 2.34,1.2 6.1,0 3.76,-1.2 7.38,-4.87 7.38,-4.87 z"
       class="cls-6" />
    <polygon
       style="fill:#99bdc6"
       id="polygon135"
       points="644.54,767.25 644.54,735.97 657.38,790.56 "
       class="cls-6" />
    <path
       style="fill:#99bdc6"
       id="path137"
       d="m 673.55,442.3 -39.44,38.95 -8.29,39 c 0,0 -33.22,18 -29.14,33.18 4.08,15.18 0,31.73 0,31.73 l 31.31,-23 3.24,-9.2 11.37,-0.35 c 0,0 14.07,-6.73 11.9,-9.21 -2.17,-2.48 3.81,-20.17 3.81,-20.17 l 22.28,-7.79 c 0,0 35.09,-29.38 27.77,-35 -7.32,-5.62 -23,-23.72 -11.11,-29.38 11.89,-5.66 21.65,-17.35 21.65,-17.35 0,0 -8.12,10.79 -21.65,12.3 -13.53,1.51 -2.7,-7.7 -2.7,-9.47 0,-1.77 1.52,1.91 -9.74,3.9 l -11.26,2 z"
       class="cls-6" />
    <path
       style="fill:#99bdc6"
       id="path139"
       d="m 575.53,632.89 c 0,0 -0.37,-2.81 1.5,-3.32 1.87,-0.51 2.2,-3.08 2.2,-3.08 0,0 1.25,5.09 2.5,5.21 1.25,0.12 5,-2.44 5,-2.44 0,0 1.25,-3.48 6,-3.79 4.75,-0.31 10,-2.15 10.64,-3.07 0.64,-0.92 -0.62,4 3.13,4.2 3.75,0.2 -0.94,-0.31 -0.78,1.84 0.16,2.15 2.24,5.95 2.24,5.95 0,0 -2.42,-0.7 -6.49,3.67 -4.07,4.37 -14.66,17.5 -14.66,17.5 l -3.53,-3.35 V 639.4 Z"
       class="cls-6" />
    <path
       style="fill:#99bdc6"
       id="path141"
       d="m 559.64,562.7 c 0,0 5.27,18.16 8.79,19.7 3.52,1.54 -1.17,5.11 0,6.64 1.17,1.53 7.07,3.32 7.07,3.32 l 4.65,-2.3 c 0,0 -2,17.12 0,19.42 2,2.3 -6.72,9.15 -6.72,9.15 l -0.79,-9.25 a 68,68 0 0 0 -5,-6.56 c -2.38,-2.68 -6.64,-6.17 -8,-40.12 z"
       class="cls-6" />
    <path
       style="fill:#99bdc6"
       id="path143"
       d="m 566.71,338.68 c 0,0 7.15,-3.49 11.81,-5.49 4.66,-2 -3,1.58 -4.27,4.27 -1.27,2.69 1.28,5.68 1.54,8.49 0.26,2.81 0.52,5.5 0.26,6.34 0.72797,-3.33815 1.67332,-6.62515 2.83,-9.84 0.78324,-1.44588 1.83939,-2.72617 3.11,-3.77 0,0 -0.51,2.75 0,3.8 0.51,1.05 2.82,-2.15 2.82,-2.15 l 7.73,-1.65 2.06,-2.2 c 0,0 5.15,4.1 5.15,6 v 5.94 l 2.83,-4.89 c 0,0 1.55,-4.3 4.12,-4.85 2.57,-0.55 6.31,-0.21 7.8,1.48 1.49,1.69 2.51,2 3.28,4.89 0.77,2.89 3.48,3 2,7.3 -1.48,4.3 -3,5.17 -3,5.17 l 3.47,-2.35 c 0,0 1.43,-2.54 2.46,-4.06 1.03,-1.52 0,3.37 0,3.37 0,0 3.86,-6.74 6.44,-7.75 2.58,-1.01 6.8,-5.56 13.57,-4.89 6.77,0.67 5.49,2.06 9.1,3.22 3.61,1.16 8,-2.54 12.62,2.18 4.62,4.72 15.75,8.59 15.75,8.59 l 1.79,-7.08 -6.46,-7.66 c 0,0 -9.79,-3.06 -10.05,-4.61 -0.26,-1.55 2.83,-6.26 0.26,-6.94 -2.57,-0.68 -10.49219,-1.37719 -8.44844,-2.55906 C 657.7165,326.72942 657.93,326.67 657.93,326.67 h -70.75 z"
       class="cls-6" />
    <path
       style="fill:#799fa5"
       id="path145"
       d="m 856.12,333.37 a 9.16,9.16 0 0 1 -3.28,1.41 c -1.81,4.24 -6,6.61 -8.46,11 a 39.56,39.56 0 0 0 9,-7.95 c -0.69,4.44 2.77,7.95 -4.83,10.77 0,0.41 2.07,1.62 1.38,2 -3.45,1.62 -7.6,1.62 -11.74,2.43 -0.69,0 -2.07,2 -2.76,2 -7.6,2 -10.37,3 -14.51,6.19 3.45,-1.62 5.53,-4 9,-5.66 2.76,-1.21 6.22,0.68 8.29,-0.94 1.38,-0.4 2.76,-1.21 4.83,-0.81 -1.26,1 -2.53,1.94 -3.84,2.91 7.11,-2.13 15,-4.13 16.28,-7.75 1.38,-2.83 -0.69,-4.72 1.38,-9.16 1.33,-1.19 -0.74,-4.02 -0.74,-6.44 z"
       class="cls-9" />
    <path
       style="fill:#799fa5"
       id="path147"
       d="m 639.77,528 c 1.38,-1.21 3.45,-0.4 4.83,-0.4 6.22,-1.21 7.6,-9.16 13.12,-10.77 6.91,-2 7.6,-7.27 11.75,-11.31 1.38,-1.21 4.83,-2 5.52,-3.64 1.38,-2 2.31,-11.57 4.38,-12.38 6.1,-2.62 10,-21.86 12,-25.53 -3.17,-0.5 -5.55,0.58 -8.1,1.69 -4,3.63 -8.49,7.07 -10.82,11.43 -1.38,1.61 -6.43,25.2 -9.19,26 4.91,-3.51 7.6,-12.62 10.7,-17.87 0.47,-0.78 -8.3,-11.78 -7.81,-12.36 -1.43,0.12 0.81,4.39 -0.57,4.5 -0.35,0.56 -2,10.85 -1,12.36 4.89,7.35 -4.54,15.27 -5.49,22.25 -0.69,-0.4 -2.77,0.81 -3.46,-0.4 -2.07,3.23 -2.76,11.17 -7.6,13.19 3.46,-4.85 7.6,-14.4 9,-19.65 1.39,1.61 0.69,2.82 0.69,4.44 3.07,-6.09 1.71,-24 4.41,-30.07 -1.32,0.58 -6.87,2.7 -8.24,3.14 -5.28,1.68 -5.24,8.42 -10.67,10 -1.54,0.44 -5.91,6.14 -7.11,6.28 0.11,2.89 4.72,6.2 3,8.25 a 16.38,16.38 0 0 0 -2.07,8.07 c 1.38,-1.61 4.84,-3.23 4.84,-4.84 1.38,-4.85 3.45,-8.08 8.29,-11.72 a 20.7,20.7 0 0 1 -0.69,6.47 c 3.45,-2 5.75,-11.58 7.82,-14 0.69,7.67 -5.75,22.07 -14,27.73 -2.76,1.21 -6.22,0 -9,0.4 -1.38,0 0,6.73 -0.69,7.94 -3.45,4 -9,9.56 -9.67,14 6.85,-2.81 9.61,-9.95 15.83,-13.2 z"
       class="cls-9" />
    <path
       style="fill:#799fa5"
       id="path149"
       d="M 669.7,346.35 A 6.31,6.31 0 0 0 666,344 c -2.85,-0.92 -7.32,-0.55 -9.76,-1.46 -1.63,-0.55 0.81,-2.38 -2,-3.11 -4.47,-0.91 -6.1,-2.55 -7.32,-4.38 -2.26,-3.16 -7.06,-5.63 -10.74,-8.42 a 34.76,34.76 0 0 0 5.63,2.29 c 1.22,0.33 2.47,0.6 3.75,0.82 1.16,1.16 2.36,2.33 3.39,3.49 0.41,0.54 2.45,0.73 3.26,1.46 2.44,2.55 3.66,5.11 10.58,6.2 1.22,0.19 0.81,0.92 1.62,1.46 5.29,2.56 11.39,4.57 14.65,7.67 a 43.67,43.67 0 0 0 -9.36,-3.67 z"
       class="cls-9" />
    <path
       style="fill:#799fa5"
       id="path151"
       d="m 531.72,513.33 a 86.92,86.92 0 0 0 5.81,12.41 c 3.18,5.25 7.51,12.68 7.51,12.68 0,0 7.21,-5.09 14,-4.48 6.79,0.61 13.12,-12.57 13.12,-12.57 0,0 -6.29,6.51 -9.35,6.28 -3.06,-0.23 -5.37,-1.78 -3.2,-4.67 2.17,-2.89 4.56,-6.91 4.56,-8.24 0,-1.33 8,-3.57 8,-3.57 l -3.91,-7.57 v 4.46 c 0,0 -5.78,4.67 -6.8,3.56 a 1.67,1.67 0 0 1 0,-2.26 l -3.75,6 -10.89,-2.68 c 0,0 2,4.46 2,7.35 0,2.89 1.36,9.13 -2,7.13 -3.36,-2 -9.82,-4.98 -15.1,-13.83 z"
       class="cls-9" />
    <path
       style="fill:#799fa5"
       id="path153"
       d="m 738,416.83 c 3.93,5.81 15.13,7.89 14.75,14.23 0,0.45 1.28,1.33 1.92,1.77 -3.72,-0.39 -6.84,-1.24 -10.56,-1.63 0,1.35 1.95,2.68 3.18,2.66 6.86,1.69 10.7,5.25 8.37,8.9 0.05,1.35 -5,-1.28 -8.06,-0.77 4.43,2.63 10,4.35 13.87,7.45 1.27,0.89 1.38,3.6 3.26,4.47 4.46,3.54 7.1,8 11,12 -0.83,-5.41 -5.9,-8.95 -9.17,-13.87 -7.82,-10.72 -5.83,-23.4 -17.94,-33.15 -1.9,-1.33 -0.13,-3.61 1.65,-5.45 a 38.36,38.36 0 0 1 -15.42,-8.88 l 0.21,5.3 c 2.43,1.8 4.86,3.63 7.25,5.52 1.19,0.46 -2.46,1.87 -4.31,1.45 z"
       class="cls-9" />
    <path
       style="fill:#99bdc6"
       id="path155"
       d="m 704.68,668.79 c -2.24,8.61 -8.34,10.92 -12.19,12.39 -3.85,1.47 0,4.62 0,10.28 0,5.66 -1,20.37 -1.93,23.1 -0.93,2.73 -3.21,4 -3.21,9 0,5 0.32,9.44 -5.77,16.16 -6.09,6.72 -11.88,23.94 -11.88,23.94 l -1.93,16.79 c 0,0 -0.64,1 -5.13,6.93 -4.49,5.93 -5.46,3.15 -5.46,3.15 0,0 -11.18,-19.08 -12.84,-23.28 -1.66,-4.2 1.61,-25.61 0,-31.28 -1.61,-5.67 -7.06,-16.58 -12.51,-21.41 -5.45,-4.83 -2.25,-18.69 -4.82,-20.79 -2.57,-2.1 -1.92,-17.21 -2.57,-20.57 -0.65,-3.36 -7.38,-5.88 -7.38,-5.88 a 15.13,15.13 0 0 1 6.73,-5.43 c 4.76,-2.07 9.91,-6 9.91,-8 0,-2 2.38,-7.78 -2,-11.41 -4.38,-3.63 14.69,4.63 16.3,8.52 1.61,3.89 -0.8,11.93 -0.8,11.93 l 13.69,12.71 c 0,0 3,5.19 3,6.23 0,1.04 -0.79,-9.08 7.93,-11.42 8.72,-2.34 4.36,-7.52 12.69,-8.81 8.33,-1.29 23,-6.23 23,-6.23 z"
       class="cls-6" />
    <path
       style="fill:#799fa5"
       id="path157-2"
       d="m 670,763.69 -2,16.79 c 0,0 -0.65,1 -5.19,6.93 -4.54,5.93 -5.51,3.15 -5.51,3.15 0,0 -11.35,-19.11 -13,-23.31 0,0 -0.83,-4.52 -0.46,-5.71 0.37,-1.19 0.54,2.59 2,2.8 a 7.33,7.33 0 0 1 2.64,1 c 0,0 -1.48,-3.56 0.66,-5.18 2.14,-1.62 3.47,-4.42 3.3,-5.39 -0.17,-0.97 1.82,-5.18 1.82,-5.18 0,0 2.14,4.86 1.64,6.15 -0.5,1.29 3.63,4 3.63,4.75 0,0.75 3.47,2.81 3.47,2.81 a 14.69,14.69 0 0 1 2.14,-1 2.35,2.35 0 0 0 1.32,-1.51 c 0,0 2.02,4.29 3.54,2.9 z"
       class="cls-9" />
    <path
       style="fill:#799fa5"
       id="path159-9"
       d="m 679.66,672.34 c 0,0 -7.53,2 -7.53,5.48 0,3.48 -2.15,8.23 -2.15,8.23 l 4.84,3.65 a 4.09,4.09 0 0 1 1.5,4.8 c -1.05,3.2 3.34,6.63 3.34,6.63 v 6.62 c 0,0 5,-4.57 5,-8 0,-3.43 1,-2.06 0,-6.17 -1,-4.11 2.8,-9.37 2.8,-9.37 0,0 -12.59,-1.21 -7.8,-11.87 z"
       class="cls-9" />
    <path
       style="fill:#799fa5"
       id="path161-1"
       d="m 602.58,435.14 c 0,0 5.78,3.69 3.42,5.83 -2.36,2.14 4,-0.88 4,-0.88 l -8.86,13.34 6.21,3.92 c 0,0 -1.06,0.2 -0.6,1.83 0.46,1.63 7.62,-10.67 7.62,-10.67 0,0 -1.79,-4.09 -0.68,-6.47 1.11,-2.38 2.67,-4.11 2,-5.08 -0.67,-0.97 2.31,-8.16 2.31,-8.16 0,0 -2.45,4.44 -4.68,4.13 -2.23,-0.31 -9.67,-0.04 -10.74,2.21 z"
       class="cls-9" />
    <path
       style="fill:#799fa5"
       id="path163-7"
       d="m 629.52,692.74 c 3.09,6 13.94,8.78 12.66,15.06 0,0.45 1.09,1.41 1.66,1.88 -3.65,-0.61 -6.64,-1.65 -10.29,-2.27 -0.14,1.35 1.57,2.79 2.8,2.84 6.59,2.11 9.9,5.88 7.06,9.38 -0.14,1.35 -4.78,-1.58 -7.91,-1.26 4,2.89 9.38,5 12.75,8.27 1.13,1 0.85,3.66 2.6,4.64 3.94,3.8 5.93,8.42 9.2,12.65 0,-5.44 -4.6,-9.27 -7.16,-14.37 -6.26,-11.15 -2.47,-23.66 -13.13,-34.1 -1.71,-1.43 0.38,-3.61 2.42,-5.33 -5.61,-2.22 -10.75,-5.62 -14.09,-9.78 l -0.55,5.3 c 2.17,1.94 4.33,3.9 6.44,5.93 1.18,0.5 -2.65,1.69 -4.46,1.16 z"
       class="cls-9" />
  </g>
</svg>
