<?xml version="1.0" encoding="utf-8"?>
<!-- Generator: Adobe Illustrator 21.1.0, SVG Export Plug-In . SVG Version: 6.00 Build 0)  -->
<svg version="1.1" id="Layer_1" xmlns="http://www.w3.org/2000/svg" xmlns:xlink="http://www.w3.org/1999/xlink" x="0px" y="0px"
	 viewBox="0 0 1919.2 1072.9" style="enable-background:new 0 0 1919.2 1072.9;" xml:space="preserve">
<style type="text/css">
	.st0{display:none;}
	.st1{display:inline;opacity:0.29;fill:#99BCC6;}
	.st2{display:inline;fill:#002735;}
	.st3{display:inline;}
	.st4{fill:#D6EEF4;}
	.st5{fill:#F6F4D5;}
	.st6{fill-rule:evenodd;clip-rule:evenodd;fill:#082D3A;}
	.st7{fill-rule:evenodd;clip-rule:evenodd;fill:#173A4B;}
	.st8{fill-rule:evenodd;clip-rule:evenodd;fill:#224F67;}
	.st9{fill-rule:evenodd;clip-rule:evenodd;fill:#0B4559;}
	.st10{fill-rule:evenodd;clip-rule:evenodd;fill:#1D4859;}
	.st11{fill-rule:evenodd;clip-rule:evenodd;fill:#093F4C;}
	.st12{display:inline;fill:#D6EEF4;}
	.st13{display:inline;fill:#DDEFFA;}
	.st14{display:inline;fill:#A1CADA;}
	.st15{display:inline;fill:none;}
	.st16{display:inline;fill:#99BDC6;}
	.st17{display:inline;fill:#FFFFFF;}
	.st18{display:inline;fill:#E9E9EA;}
	.st19{display:inline;fill:#799FA5;}
	.st20{display:inline;opacity:0.8;fill:url(#SVGID_1_);}
	.st21{display:inline;opacity:0.8;fill:url(#SVGID_2_);}
	.st22{display:inline;opacity:0.8;fill:url(#SVGID_3_);}
	.st23{display:inline;opacity:0.3;fill:#08353F;}
	.st24{display:inline;opacity:0.3;fill:#022F3D;}
	.st25{display:inline;opacity:0.3;fill:#02272B;}
	.st26{fill:#4FBBE7;}
	.st27{font-family:'SourceSansPro-Bold';}
	.st28{font-size:48px;}
	.st29{font-family:'SourceSansPro-Regular';}
	.st30{font-size:24px;}
	.st31{fill:#56BCE5;}
	.st32{font-size:18px;}
	.st33{fill:#E84C59;}
	.st34{fill:#EE7B5C;}
	.st35{fill:#F9C862;}
	.st36{fill:#062633;}
	.st37{fill:#ABAAAA;}
	.st38{fill:#E1DFE0;}
	.st39{fill:none;}
	.st40{fill:#041D26;}
	.st41{fill:#6E6E6E;}
	.st42{fill:#C0C0C0;}
	.st43{fill:#5E3E21;}
	.st44{fill:#54371D;}
	.st45{fill:#6D3325;}
	.st46{fill:#783A28;}
	.st47{fill:#8F4729;}
	.st48{fill:#DCB680;}
	.st49{fill:#C69666;}
	.st50{fill:#662F1E;}
	.st51{fill:#231D13;}
	.st52{fill:#574C3E;}
	.st53{fill:#442C1A;}
	.st54{opacity:0.3;fill:#052532;}
</style>
<g class="st0">
	<rect y="-3.3" class="st1" width="1920" height="1080"/>
	<rect class="st2" width="1919.2" height="1072.9"/>
	<g class="st3">
		<polygon class="st4" points="965.4,141.3 966.4,135.8 966.6,141.3 971.6,142.1 966.5,142.6 965.5,148.5 965.3,142.6 960.4,142.1 
					"/>
		<polygon class="st4" points="1864,215.2 1866.3,202.6 1866.7,215.2 1878.1,216.8 1866.6,218.1 1864.3,231.4 1863.7,218.1 
			1852.5,216.8 		"/>
		<polygon class="st4" points="473,62.8 474,57.3 474.2,62.8 479.2,63.6 474.2,64.1 473.1,70 472.9,64.1 468,63.6 		"/>
		<polygon class="st4" points="1251.7,59.3 1252.7,53.8 1252.8,59.3 1257.8,60 1252.8,60.6 1251.8,66.4 1251.5,60.6 1246.6,60 		"/>
		<polygon class="st4" points="856,125.4 857,119.9 857.2,125.4 862.1,126.1 857.1,126.7 856.1,132.5 855.9,126.7 850.9,126.1 		"/>
		<polygon class="st4" points="1071.1,187.9 1072.4,180.7 1072.6,187.9 1079.2,188.8 1072.5,189.6 1071.2,197.3 1070.9,189.6 
			1064.4,188.8 		"/>
		<polygon class="st4" points="1102.5,89.5 1103.5,84 1103.7,89.5 1108.6,90.2 1103.6,90.8 1102.6,96.6 1102.4,90.8 1097.4,90.2 		
			"/>
		<polygon class="st4" points="1557.3,56.2 1559.6,43.6 1560,56.2 1571.3,57.8 1559.9,59.2 1557.6,72.4 1557,59.2 1545.8,57.8 		"/>
		<polygon class="st4" points="106,39.7 107,34.2 107.2,39.7 112.2,40.4 107.1,41 106.1,46.8 105.9,41 100.9,40.4 		"/>
		<polygon class="st4" points="59.7,130.4 60.7,124.9 60.9,130.4 65.9,131.1 60.8,131.7 59.8,137.5 59.6,131.7 54.7,131.1 		"/>
		<polygon class="st4" points="222.7,130.4 223.7,124.9 223.9,130.4 228.9,131.1 223.8,131.7 222.8,137.5 222.6,131.7 217.6,131.1 
					"/>
		<polygon class="st4" points="164,218.9 165.1,213.4 165.2,218.9 170.2,219.6 165.2,220.2 164.2,226 163.9,220.2 159,219.6 		"/>
		<polygon class="st4" points="660.1,185.5 661.1,179.9 661.3,185.5 666.2,186.2 661.2,186.8 660.2,192.6 660,186.8 655,186.2 		"/>
		<polygon class="st4" points="319.7,70.2 320.7,64.7 320.9,70.2 325.9,70.9 320.9,71.5 319.8,77.3 319.6,71.5 314.7,70.9 		"/>
		<polygon class="st4" points="1811.1,124.1 1812.1,118.6 1812.3,124.1 1817.3,124.8 1812.2,125.4 1811.2,131.2 1811,125.4 
			1806.1,124.8 		"/>
		<polygon class="st4" points="1695.4,73.5 1693.6,80.8 1693.8,73.4 1687.3,72.1 1694,71.7 1695.8,64.1 1695.7,71.8 1702.1,73 		"/>
		<polygon class="st4" points="1599.5,207 1598.8,210.2 1598.9,207 1596,206.4 1598.9,206.2 1599.7,202.9 1599.7,206.3 
			1602.5,206.8 		"/>
		<polygon class="st4" points="1465.3,209.3 1463.6,216.6 1463.8,209.2 1457.2,207.9 1463.9,207.5 1465.7,199.9 1465.6,207.6 
			1472.1,208.8 		"/>
		<polygon class="st4" points="1890.1,80.9 1888.3,88.1 1888.5,80.8 1882,79.4 1888.7,79.1 1890.5,71.4 1890.4,79.2 1896.8,80.3 		
			"/>
		<polygon class="st4" points="1405.7,156.5 1404.9,159.7 1405,156.4 1402.1,155.9 1405.1,155.7 1405.9,152.3 1405.8,155.7 
			1408.6,156.3 		"/>
		<polygon class="st4" points="1721.7,202.3 1721.1,205.7 1721,202.3 1717.7,201.8 1721,201.4 1721.7,197.8 1721.8,201.4 
			1725,201.8 		"/>
		<polygon class="st4" points="1563,121.1 1562.3,124.9 1562.1,121.1 1558.6,120.6 1562.2,120.2 1562.9,116.2 1563.1,120.2 
			1566.6,120.6 		"/>
		<polygon class="st4" points="1198.6,221.7 1199.1,219.7 1199.1,221.7 1201,222.1 1199,222.2 1198.5,224.3 1198.6,222.1 
			1196.7,221.8 		"/>
		<polygon class="st4" points="1361.8,235 1362.3,233 1362.3,235 1364.2,235.4 1362.2,235.5 1361.7,237.6 1361.8,235.5 
			1359.9,235.1 		"/>
		<polygon class="st4" points="1432.8,60.5 1432,63.6 1432.1,60.4 1429.2,59.8 1432.2,59.7 1432.9,56.3 1432.9,59.7 1435.7,60.2 		
			"/>
		<polygon class="st4" points="957.5,41 956.8,44.5 956.7,41 953.4,40.6 956.7,40.2 957.4,36.6 957.5,40.2 960.8,40.6 		"/>
		<polygon class="st4" points="823.5,76.1 822.8,79.6 822.7,76.1 819.4,75.7 822.7,75.3 823.4,71.6 823.5,75.3 826.7,75.7 		"/>
		<polygon class="st4" points="705.7,44.8 706.2,42.8 706.1,44.9 708,45.2 706.1,45.3 705.6,47.4 705.6,45.3 703.8,45 		"/>
		<polygon class="st4" points="511.1,197.1 510.5,200.5 510.4,197.1 507.1,196.6 510.4,196.2 511.1,192.6 511.2,196.2 514.4,196.6 
					"/>
		<polygon class="st4" points="66.3,252.2 65.6,255.7 65.5,252.2 62.2,251.8 65.5,251.4 66.2,247.8 66.3,251.4 69.5,251.8 		"/>
		<polygon class="st4" points="346.9,194.4 347.4,192.4 347.4,194.5 349.2,194.8 347.3,194.9 346.8,197 346.8,194.9 345,194.6 		"/>
		<polygon class="st4" points="766.4,195.1 766.9,193.1 766.9,195.2 768.8,195.5 766.8,195.6 766.3,197.7 766.4,195.6 764.5,195.3 
					"/>
		<polygon class="st4" points="1702.6,276.2 1701.7,271.2 1701.6,276.2 1697,276.9 1701.6,277.4 1702.5,282.7 1702.8,277.4 
			1707.3,276.9 		"/>
		<polygon class="st4" points="629.7,276.5 630.3,279.6 630.4,276.5 633.4,276 630.4,275.7 629.8,272.4 629.6,275.7 626.7,276 		"/>
		<polygon class="st4" points="1085.7,255.8 1086.3,259 1086.4,255.8 1089.4,255.4 1086.3,255.1 1085.7,251.7 1085.6,255.1 
			1082.7,255.4 		"/>
		<polygon class="st4" points="826.9,270.9 826.5,269.1 826.5,270.9 824.8,271.3 826.6,271.4 827,273.3 827,271.3 828.7,271 		"/>
		<polygon class="st4" points="382.1,265.2 381.6,263.4 381.7,265.3 380,265.6 381.7,265.7 382.2,267.6 382.2,265.7 383.9,265.4 		
			"/>
		<polygon class="st4" points="241.3,220.2 241.9,223.3 242,220.2 245,219.7 242,219.4 241.4,216.1 241.2,219.4 238.3,219.7 		"/>
		<polygon class="st5" points="583.8,90.8 583.1,94.3 583,90.8 579.8,90.4 583.1,90 583.7,86.3 583.9,90 587.1,90.4 		"/>
		<polygon class="st4" points="569.4,163.3 571.7,150.7 572.1,163.3 583.4,164.9 571.9,166.3 569.7,179.5 569.1,166.3 557.9,164.9 
					"/>
	</g>
</g>
<g>
	<g>
		<g>
			<path class="st6" d="M1228.9,170.3c1.1-0.4,2.2-0.7,3.4-0.7c0.9,0,1.7-0.8,2.2-1.5c5.4-7.5,12.7-10.9,21.5-10.5
				c1.6,0.1,3,0,4.1-0.4c0-0.3,0-0.6,0-0.8c0-10.1,8.5-18.4,19-18.4c2.9,0,5.7,0.8,8.2,2c1,0.2,1.9,0.3,2.9,0.6
				c0.8,0.2,1.6,0.5,2.4,0.6c1.8-1.6,4.3,1.9,6.9,1.9c1.8,0,2,17.5,3.5,18.3c1.9-2.3,4.8-2.4,8-2.4c0.7,0,1.3,0.1,2,0.2
				c1.9-0.8,1.8-3.3,2.7-4.9c4.4-8.2,9.8-15.1,18.5-18.8c12.9-5.5,24.9-3.9,36.4,3.9c0.6,0.4,1.1,0.8,1.7,1.1c0.4,0,0.7,0,1.1,0
				c8.3,0,15.6,8.3,19.8,14.6c1.5,1.8,2.8,3.8,3.2,6.3c0.3,1.6-4.6,3.4-3.7,4.4c5.1,0.6,5.1,14.2,5.1,14.2
				c-2.7-4.3,5.1-20.6,15.7-21.3c6.4-0.5,10.1,1.7,12.8,5.4c0.2,0-1.8-12.7,11.2-14.5c2.7-0.4,4.3,0.2,5.8,0.9
				c1.9-4.5,9.9-9.5,16.8-9.5c10.6,0,20.6,7,23.8,15.1c0.9,2.2,1.4,5.1,1.4,5.1c3.2-2.2,7.4-3.5,12-3.5c8.4,0,14.1,7.8,16.4,13.9
				c0.3,0.2,0.6,0.3,0.9,0.5c0.7-0.2,1.3-0.3,2.1-0.3c3.6,0,6.6,2.4,7.5,5.7c1.4-0.3,2.9-0.5,4.5-0.5c6.3,0,11.7,1.4,13.7,5.3
				c1.5,0,2.9,1.1,4.4,1.1c21.3,0,38.7,0.1,38.5,1.8c-0.2,1.9-17.2,2.4-38.5,2.4c-9.6,0-18.4-0.5-25.1-1c-2.1,1.1-5.5,1.7-9.2,1.6
				c-2-0.1-3.8-0.3-5.5-0.8c-0.2,0-0.3,0.1-0.5,0.1c-4.5,1.5-14.9-0.6-19.5-0.7c-5.9-0.1-14.5-0.4-20.4,0.6
				c-1.3,0.2-6.5-0.2-7.8-0.5c-9-2.2-15.9-3.5-26.9-3.1c-4.5,0.2-27.9,2.6-32,0.9c-0.5-0.2-1.2-0.4-1.8-0.3
				c-6.1,0.9-6.1-1.2-12.3-1.1c-7.5,0.1-13.6,0.6-21.2,0.3c-6.1-0.3-12,1.9-18,2.3c-8.6,0.6-6.9,1.6-15.5,1
				c-5.7-0.4-11.3-2-17.1-1.9c-5.4,0.1-10.9,3.7-16.3,3.9c-6.3,0.2-12.4-1-18.4-2.8c-5.4-1.6-10.9-2.5-16.4-2.1
				c-3.8,0.3-7.5,0.3-11.1-0.7c-5.5-1.4-11-3.5-16.8-1.4c-0.7,0.3-1.7,0-2.5-0.1c0,0,0,0,0,0c-0.4,0.1-0.9,0.1-1.3,0.1
				c-3.2,0.3-6.3,0.2-8.9-0.1c-0.5,0-0.9,0-1.4-0.2c-3.7-0.7-6.1-2.1-6.2-3.8C1214.4,174.2,1220.7,171.2,1228.9,170.3z"/>
		</g>
		<path class="st7" d="M1479.4,122.4c-0.4-0.1-0.7-0.2-0.7-0.7c0-0.3-0.2-0.4-0.5-0.4c-0.8,0.1-1.7,0.2-2.5,0.2
			c-2,0.1-4.1,0.2-6.1,0.1c-2.3,0-4.6-0.1-6.9-0.2c-0.8,0-1.6-0.2-2.4-0.5c-0.4-0.2-0.4-0.4,0-0.6c0.7-0.4,1.5-0.4,2.2-0.5
			c2.4-0.4,4.9-0.5,7.4-0.6c0.8,0,1.6,0.2,2.1-0.7c0.1-0.1,0.1-0.2,0.2-0.3c-0.2-0.2-0.2-0.5-0.2-0.7c0.1-0.8,1.5-1.2,3.1-1
			c0.1,0,0.2,0,0.2,0c0.5,0,0.6-0.2,0.5-0.6c-0.2-0.8,0.3-1.4,0.9-1.8c0.5-0.4,1.1-0.5,1.8-0.3c0.4,0.1,0.6,0.6,1,0.7
			c0.5-0.2,1.3-0.3,2.1-0.1c0.1,0,0.1,0,0.2,0c-0.1-0.2-0.2-0.5-0.2-0.7c0-1.2,1.3-2.2,3-2.3c0.1-0.1,0.2-0.1,0.2-0.2
			c0,0,0-0.1,0.1-0.1c0.3-1,1.5-1.7,2.9-1.7c1.4,0,2.7,0.7,3,1.6c0,0,0,0,0,0c0.2,0,0.4-0.1,0.6-0.1c1.7,0,3.1,0.9,3.1,2.1
			c0,0.1,0,0.2,0,0.3c0.1,0.1,0.1,0.3,0.2,0.4c0,0,0,0,0,0c0.7,0.3,1.2,0.8,1.2,1.2c0.1,0.1,0.3,0.2,0.6,0.1c0.5-0.1,1,0,1.5,0.2
			c0.9,0.2,1.5,0.7,1.5,1.2c0,0.3-0.2,0.6-0.6,0.9c0,0,0,0.1,0,0.1c0,0,0.1,0.1,0.1,0.1c0.4,0,0.7,0,1.1,0.1
			c0.6,0.1,1.2,0.3,1.6,0.6c0.4,0.1,0.7,0.1,1.1,0c0.5-0.1,0.7-0.2,0.9-0.6c0.3-0.9,1-1.2,1.9-1.2c0.9,0,1.5,0.5,1.8,1.4
			c0.1,0.5,0.4,0.6,0.8,0.5c0.4,0,0.8,0.1,1.2,0.1c1,0.1,1.7,0.7,2.7,0.9c0.4,0,0.9-0.1,1.3-0.1c2.2-0.1,4.1,0.3,4.1,0.8
			c0,0.5-1.8,0.9-4,1c-0.7,0-1.4,0-2-0.1c-0.9,0-1.9-0.1-2.8-0.2c-1-0.2-1.8-0.3-2.6,0.7c-1,1.2-2.6,1.1-4,1
			c-0.8-0.1-1.5-0.2-2.3,0.3c-1.5,1-3.3,0.9-5.1,0.8c-0.8-0.1-1.6-0.2-2.3-0.7c-0.5-0.4-0.9-0.2-1.4-0.1c-1.5,0.4-3,0.3-4.4-0.1
			c-0.4-0.1-0.8-0.3-1.2-0.2C1483.5,122.9,1481.4,122.9,1479.4,122.4z"/>
		<path class="st8" d="M1630.9,175.2c-1.9,0.6-3.8,0.7-5.7,0.5c-0.9-0.1-1.7,0-2.4,0.4c-0.7,0.4-1.6,0.6-2.3,0.6
			c-1.8,0-3.7,0.5-5.5-0.2c-0.4-0.2-0.9-0.2-1.3,0c-1.9,0.7-3.8,0.6-5.7,0.1c-0.4-0.1-0.9-0.2-1.2-0.1c-1.6,0.6-3.2,0.4-4.8,0.3
			c-0.8,0-1.4-0.6-2.2-0.3c-1.1,0.4-2.2,0.5-3.2,0.4c-1.6,0-3,0.1-4.3-0.5c-0.5-0.2-1.3-0.4-1.2-1.2c0-0.4-0.1-0.5-0.5-0.6
			c-0.9,0-1.8,0-2.6-0.1c-0.4,0-1.1-0.1-1.1-0.6c0-0.6,0.7-0.5,1.2-0.6c3.1-0.5,6.2,0.3,9.4,0.2c0.9,0,1.9,0.5,2.8,0.1
			c0.1,0,0.2-0.1,0.3-0.2c-0.1-0.1-0.2-0.2-0.3-0.2c-0.2-0.2-0.5-0.4-0.5-0.7c0-0.1,0.2-0.3,0.4-0.3c4-0.7,7.9-0.5,11.9-0.4
			c1.9,0.1,3.7,1,5.7,0.9c1.5-0.1,3,0,4.4,0.5c0.5,0.2,1.1,0.4,1.7,0.4c2.3-0.2,4.6,0,6.9,0.5c0.3,0.1,0.5,0.2,0.5,0.5
			C1631.3,175,1631.1,175.1,1630.9,175.2z"/>
		<path class="st9" d="M1627.2,153.2c-2.8,0-5.5,0-8.1,0c-2.3-0.2-4.7-0.3-7-0.3c-0.6,0-1.3,0.2-2,0c-0.2-1.7-3.5-3-7.6-3
			c-1.3,0-2.6,0.1-3.7,0.4c-0.1-0.2-0.1-0.5,0-1c0.9-3.7-2-7.9-6.7-9.2c-3.7-1-6.7-0.1-9.5,1.8c-0.1,0.1-0.4,0.2-0.5,0.2
			c-0.2-0.1-0.3-0.3-0.3-0.4c-0.1-1.8-1.1-3.3-2.3-4.5c-2.1-2.3-5-3.7-8.6-4.1c-7.6-0.8-14.2,3.8-14.7,10.3c0,0.3-0.1,0.6-0.6,0.4
			c-1.7-0.6-3.4-0.6-5.1-0.3c-3.5,0.6-6.1,3.7-5.9,6.7c-0.7-0.2-1.5-0.2-2.4-0.2c-3.4,0-6.2,1.4-6.9,3.3c-3.6-0.1-7.2,0.1-10.8,0.8
			c-0.5,0.1-1.1,0.1-1.1,0.8c0.1,0.6,0.5,0.7,1.1,0.8c1.4,0.3,2.9,0.3,4.3,0.4c5.5,0.7,10.9,0.4,16.4,0.2c1.6-0.1,3.2-0.6,4.9-0.1
			c1.5,0.5,3,0.5,4.6,0c0.9-0.3,1.6-1.1,2.7-0.6c2.2,1,4.5,1.4,7,0.6c1-0.3,1.9-1.1,3-0.7c1.2,0.4,2.5,0.4,3.8,0.7
			c2.9,0.6,5.7,0.4,8.6,0.1c1.7-0.2,3.2-1.3,5.1-0.6c1.4,0.5,6.4,1,8,0.9c1,0,1.9-0.5,2.8-0.6c2.3-0.3,4.5,0.2,6.8,0.4
			c3.3,0.3,6.7,0.1,10.1,0.2c3.1,0.1,2.6-0.1,5.6-0.3c2.5-0.1,4.8-0.2,6.6-0.4c0.7,0,1.5,0,2.2,0c19,0,34.4-0.6,34.4-1.3
			C1661.6,153.8,1646.2,153.2,1627.2,153.2z"/>
		<g>
			<path class="st10" d="M1630.8,174.2c-0.1,0-0.2,0-0.3-0.1c-1.6,0.3-3.2,0.4-4.7,0.3c-0.9-0.1-1.7,0.1-2.4,0.5
				c-0.7,0.4-1.6,0.6-2.4,0.6c-1.9,0-3.8,0.5-5.6-0.1c-0.4-0.1-0.9-0.1-1.3,0c-1.9,0.7-3.8,0.6-5.8,0.2c-0.4-0.1-0.9-0.2-1.3,0
				c-1.6,0.6-3.2,0.4-4.9,0.4c-0.8,0-1.5-0.6-2.3-0.3c-1.1,0.4-2.3,0.5-3.3,0.5c-1.6,0-3,0.1-4.4-0.4c-0.5-0.2-1.3-0.4-1.2-1.1
				c0-0.4-0.1-0.5-0.5-0.5c-0.9,0-1.8,0-2.7,0c-0.3,0-0.8-0.1-1-0.2c0,0,0,0.1,0,0.2c0,0.5,0.7,0.5,1.1,0.6c0.9,0.1,1.8,0.1,2.6,0.1
				c0.4,0,0.6,0.1,0.5,0.6c-0.1,0.8,0.7,1,1.2,1.2c1.3,0.6,2.7,0.5,4.3,0.5c1,0,2.1,0,3.2-0.4c0.8-0.3,1.5,0.3,2.2,0.3
				c1.6,0.1,3.2,0.2,4.8-0.3c0.4-0.1,0.8,0,1.2,0.1c1.9,0.5,3.8,0.7,5.7-0.1c0.4-0.2,0.9-0.2,1.3,0c1.8,0.7,3.7,0.2,5.5,0.2
				c0.7,0,1.6-0.2,2.3-0.6c0.7-0.4,1.5-0.5,2.4-0.4c1.9,0.2,3.8,0.1,5.7-0.5c0.3-0.1,0.5-0.2,0.5-0.6
				C1631.3,174.3,1631.1,174.2,1630.8,174.2z"/>
		</g>
	</g>
	<g>
		<path class="st8" d="M987,273.5c-3.8,1.2-7.8,1.4-11.7,1c-1.8-0.2-3.4,0.1-4.9,0.9c-1.5,0.9-3.3,1.3-4.8,1.3
			c-3.8,0-7.6,1-11.3-0.5c-0.9-0.3-1.8-0.3-2.7,0c-3.9,1.5-7.7,1.2-11.7,0.2c-0.8-0.2-1.8-0.4-2.6-0.1c-3.2,1.2-6.5,0.8-9.8,0.7
			c-1.5-0.1-2.9-1.3-4.5-0.7c-2.3,0.8-4.6,0.9-6.6,0.8c-3.2,0-6.1,0.1-8.8-1c-1.1-0.5-2.6-0.8-2.4-2.6c0.1-0.9-0.3-1.1-1-1.1
			c-1.8,0-3.6,0-5.4-0.2c-0.9-0.1-2.3-0.2-2.2-1.2c0.1-1.2,1.5-1.1,2.5-1.3c6.4-1.1,12.8,0.7,19.3,0.5c1.9-0.1,3.9,1,5.8,0.2
			c0.2-0.1,0.4-0.2,0.7-0.4c-0.2-0.2-0.3-0.3-0.5-0.5c-0.5-0.3-1-0.7-0.9-1.3c0-0.2,0.5-0.5,0.8-0.6c8.1-1.4,16.3-1.1,24.5-0.8
			c4,0.1,7.6,2.1,11.7,1.7c3.1-0.3,6.2-0.1,9.1,1c1.1,0.4,2.2,0.9,3.5,0.8c4.7-0.4,9.5-0.1,14.1,1.1c0.6,0.1,1,0.3,1,1
			C988,273.1,987.5,273.4,987,273.5z"/>
		<path class="st9" d="M979.5,228.3c-5.7,0-11.3,0-16.6,0.1c-4.8-0.3-9.6-0.5-14.4-0.6c-1.3,0-2.8,0.4-4,0
			c-0.4-3.4-7.2-6.1-15.5-6.1c-2.7,0-5.3,0.3-7.6,0.8c-0.2-0.4-0.2-1.1,0.1-2.1c1.9-7.6-4-16.2-13.8-18.9
			c-7.7-2.1-13.7-0.2-19.6,3.6c-0.3,0.2-0.8,0.4-1,0.3c-0.3-0.2-0.6-0.6-0.6-0.9c-0.2-3.6-2.4-6.7-4.8-9.3
			c-4.4-4.7-10.2-7.7-17.6-8.5c-15.5-1.7-29.2,7.8-30.1,21.2c0,0.7-0.2,1.2-1.2,0.8c-3.4-1.2-6.9-1.2-10.5-0.6
			c-7.2,1.1-12.5,7.6-12.2,13.8c-1.5-0.3-3.1-0.5-4.8-0.5c-7,0-12.8,2.9-14.2,6.8c-7.4-0.1-14.8,0.1-22.1,1.6
			c-1.1,0.2-2.3,0.3-2.2,1.7c0.1,1.2,1.1,1.4,2.2,1.7c2.9,0.7,5.9,0.5,8.8,0.9c11.2,1.5,22.5,0.9,33.7,0.5c3.3-0.1,6.6-1.3,10-0.3
			c3.2,1,6.3,1,9.5,0c1.8-0.6,3.3-2.3,5.5-1.3c4.6,2.2,9.3,2.8,14.4,1.2c2-0.6,3.9-2.2,6.2-1.4c2.5,0.9,5.2,0.9,7.7,1.4
			c5.9,1.3,11.7,0.8,17.7,0.2c3.5-0.4,6.6-2.6,10.5-1.2c2.9,1.1,13.1,2,16.5,1.9c2.1-0.1,3.9-1,5.8-1.2c4.7-0.5,9.3,0.3,14,0.8
			c6.9,0.6,13.8,0.2,20.7,0.4c6.3,0.1,5.4-0.1,11.5-0.7c5.2-0.1,9.9-0.4,13.6-0.8c1.5,0,3,0,4.5,0c39,0,70.7-1.2,70.7-2.7
			C1050.2,229.5,1018.5,228.3,979.5,228.3z"/>
		<g>
			<path class="st11" d="M921.8,217.7c0-0.5,0-0.9-0.1-1.4C921.6,217,921.7,217.4,921.8,217.7z"/>
			<path class="st11" d="M979.5,228.3c-1,0-2,0-3,0c-3.7,0.4-8.4,0.8-13.6,1c-6.2,0.7-5.3,0.9-11.7,0.9c-7.1,0-14.2,0.5-21.2,0
				c-4.8-0.3-9.5-1.1-14.2-0.5c-2,0.3-3.7,1.2-5.9,1.3c-3.5,0.1-13.8-0.6-16.9-1.7c-3.9-1.4-7.1,1-10.7,1.4c-6.1,0.8-12,1.3-18,0.2
				c-2.6-0.5-5.3-0.4-7.9-1.3c-2.3-0.8-4.3,0.9-6.3,1.5c-5.2,1.7-10,1.1-14.7-1c-2.3-1-3.8,0.8-5.6,1.4c-3.3,1.1-6.4,1.1-9.7,0.2
				c-3.5-1-6.8,0.3-10.2,0.4c-11.5,0.6-22.9,1.4-34.4,0.1c-3-0.3-6-0.1-8.9-0.7c0.2,1.1,1.1,1.4,2.2,1.6c2.9,0.7,5.9,0.5,8.8,0.9
				c11.2,1.5,22.5,0.9,33.7,0.5c3.3-0.1,6.6-1.3,10-0.3c3.2,1,6.3,1,9.5,0c1.8-0.6,3.3-2.3,5.5-1.3c4.6,2.2,9.3,2.8,14.4,1.2
				c2-0.6,3.9-2.2,6.2-1.4c2.5,0.9,5.2,0.9,7.7,1.4c5.9,1.3,11.7,0.8,17.7,0.2c3.5-0.4,6.6-2.6,10.5-1.2c2.9,1.1,13.1,2,16.5,1.9
				c2.1-0.1,3.9-1,5.8-1.2c4.7-0.5,9.3,0.3,14,0.8c6.9,0.6,13.8,0.2,20.7,0.4c6.3,0.1,5.4-0.1,11.5-0.7c5.2-0.1,9.9-0.4,13.6-0.8
				c1.5,0,3,0,4.5,0c39,0,70.7-1.2,70.7-2.7C1050.2,229.5,1018.5,228.3,979.5,228.3z"/>
		</g>
		<g>
			<path class="st10" d="M986.9,271.4c-0.2-0.1-0.4-0.1-0.7-0.1c-3.2,0.7-6.5,0.8-9.7,0.6c-1.9-0.1-3.5,0.1-5,1
				c-1.5,0.9-3.3,1.3-4.9,1.3c-3.8,0.1-7.7,1.1-11.6-0.2c-0.9-0.3-1.9-0.3-2.8,0.1c-3.9,1.5-7.9,1.3-11.9,0.4
				c-0.8-0.2-1.9-0.3-2.6-0.1c-3.3,1.2-6.6,0.9-10,0.9c-1.6,0-3-1.1-4.6-0.6c-2.3,0.8-4.6,1-6.7,0.9c-3.3,0.1-6.2,0.2-9-0.8
				c-1.1-0.4-2.7-0.7-2.5-2.4c0.1-0.8-0.3-1.1-1.1-1.1c-1.8,0-3.7,0-5.5-0.1c-0.6,0-1.6-0.1-2-0.5c0,0.1-0.1,0.2-0.1,0.3
				c-0.1,1,1.4,1.1,2.2,1.2c1.8,0.2,3.6,0.2,5.4,0.2c0.8,0,1.1,0.2,1,1.1c-0.2,1.7,1.3,2.1,2.4,2.6c2.7,1.2,5.6,1.1,8.8,1
				c2,0.1,4.3-0.1,6.6-0.8c1.6-0.6,3,0.7,4.5,0.7c3.3,0.1,6.6,0.5,9.8-0.7c0.7-0.3,1.7-0.1,2.6,0.1c3.9,1,7.8,1.4,11.7-0.2
				c0.9-0.4,1.9-0.4,2.7,0c3.7,1.5,7.6,0.5,11.3,0.5c1.5,0,3.3-0.4,4.8-1.3c1.5-0.9,3-1.1,4.9-0.9c3.9,0.3,7.9,0.2,11.7-1
				c0.6-0.2,1-0.5,1-1.2C987.9,271.7,987.5,271.5,986.9,271.4z"/>
		</g>
	</g>
</g>
<g class="st0">
	<polygon class="st12" points="1117.3,337.1 1117.8,335.1 1117.8,337.1 1119.6,337.5 1117.7,337.6 1117.2,339.7 1117.2,337.5 
		1115.4,337.2 	"/>
	<polygon class="st12" points="1205.4,380.2 1205,378.4 1205,380.2 1203.3,380.5 1205.1,380.6 1205.5,382.6 1205.5,380.6 
		1207.2,380.3 	"/>
	<path class="st13" d="M1118.9,511.7c-0.5,0.5-0.9,1-1.3,1.6C1118,512.8,1118.4,512.3,1118.9,511.7z"/>
	<polygon class="st12" points="1250.2,346.4 1251.3,340.4 1251.5,346.4 1257,347.2 1251.4,347.9 1250.3,354.3 1250,347.9 
		1244.6,347.2 	"/>
	<polygon class="st12" points="1138,373.9 1137.3,377.4 1137.2,373.9 1133.9,373.5 1137.2,373.1 1137.9,369.4 1138.1,373.1 
		1141.3,373.5 	"/>
	<polygon class="st12" points="1182.6,483.8 1183.2,487 1183.3,483.8 1186.3,483.4 1183.3,483.1 1182.7,479.7 1182.6,483.1 
		1179.6,483.4 	"/>
	<polygon class="st12" points="1346.8,524.3 1346.4,522.4 1346.4,524.3 1344.7,524.6 1346.5,524.7 1346.9,526.6 1346.9,524.7 
		1348.6,524.4 	"/>
	<path class="st14" d="M1059.6,401.9c0,0,9.6,10.4,10.7,16.8s0,39.5,0,39.5l16.4,22.5c0,0-0.5,9.8,2.9,17c3.4,7.2,9,20.7,8.5,31.3
		s0,24.4,0,24.4l2.6,5.8c0,0-0.8,6.4,1.3,8.2c2.1,1.9,6.9,11.1,5.6,16.7c-1.3,5.6-5.6,10.9-5.6,10.9s6.6,45.1,10.1,53
		s8.2,21.2,8.2,21.2s-0.5,1.1,4-4c4.5-5,6.9,2.4,7.2,8.5c0.3,6.1,1.6,65.8,5.6,73.4c4,7.7,6.4,6.6,6.1,11.7
		c-0.3,5,2.4,29.7,2.4,29.7l6.4,8.2v16.2l2.9,4.2c0,0,11.7-23.9,15.4-26s2.9,0.8,5.6,1.6c2.7,0.8,4.2,0,4.2,6.1c0,6.1,0,33.1,0,33.1
		s5.6,3.2,6.1,7.4c0.5,4.2,0,23.3,2.1,26c2.1,2.7-0.5,20.1,4,26.2c4.5,6.1,9,19.9,10.3,27c1.3,7.2-1.3,34.2,0,39.5
		c1.3,5.3,10.6,29.4,10.6,29.4s0.8,3.4,4.5-4c3.7-7.4,4.2-8.7,4.2-8.7l1.6-21.2c0,0,4.8-21.7,9.8-30.2c5-8.5,4.8-14.1,4.8-20.4
		c0-6.4,1.9-8,2.7-11.4c0.8-3.4,1.6-22,1.6-29.2s-3.2-11.1,0-13s8.2-4.8,10.1-15.6c1.9-10.9,7.4-50.6,7.4-50.6s8.5-23.6,11.9-28.1
		c3.4-4.5,12.7-14.1,14.6-17.2c1.9-3.2,4-33.4,4-33.4l3.2-26.8c0,0,13-14.3,13.3-17c0.3-2.7,1.6-21.7,2.7-24.9
		c1.1-3.2,11.9-20.4,11.9-20.4l1.9-29.7l10.1-33.9v-6.4l7.2-7.2v-6.9c0,0,8-11.9,10.1-15.9c2.1-4,4-6.9,8.2-8.2
		c4.2-1.3,6.6-7.4,6.6-9c0-1.6,4.2-29.4,9.8-36.9c5.6-7.4,9.8-14.1,9.3-20.1s8.2-14.6,8.2-17.5s6-9,6-9l4.9-12.8"/>
	<path class="st15" d="M1402.4,537.4c2.2,2.1,3.7,4.6,4.1,7.1c2.8,0.8,5.8,1.5,8.8,2.1l5.2,0.4c-3.7-2.2-8.6-4.1-14.4-5.6
		c9.8,0.9,19.1,2.6,27.2,4.7c-7.8-3.4-16.1-6.3-24.7-8.7C1406.7,537.4,1404.6,537.4,1402.4,537.4z"/>
	<path class="st16" d="M1180.6,467.9c5.2-3.8,15.1-14.3,22.1-15.1c-2.4,3.1-10,12.5-12.3,15.3c1.5,0.2-4.6,19.2-2.3,20.8
		c1.5,1,0.9,4.6,2.9,5.6c1.5,0.8,4.2,0.6,5.9,1.7c4.7,2.9,3.3,7.5,6.2,10.8c0.5,0.6,1,1,1.5,1.3c3.1-3.8,14.1-25.8,19.9-27.3
		c2-0.4,6.7-11.5,8.6-13.5c1.2-1.7,4.2-1.7,5.8-2.8c4.9-3.7,7.7-9.7,13.9-10.2c5-0.4,9.4-9.5,14.8-9.2c1.1,0.4,2.3,1.9,3.9,0.9
		c6.2-2.1,11.4-9.9,17.9-11.3c-2.4,5.1-9,10.1-13.4,14c-1,1.3-2.8,9.6-3.9,9.3c-2.3-0.3-4.5-2.7-7.2-2c-8.8,4.4-19.9,19.8-22.6,29.1
		c2.6-2.3,8.5-13.1,12-14.5c-1.4,2.2-2.4,5.1-3.3,7.5c5.3-3,8.3-6.3,11.4-11.7c0.7-1.9,4.1-2.9,5.8-4.4c-1.2,3.4-2.9,6.5-5,9
		c-2.2,2-3.4,5.8-4.5,9.3c2.6,0.4,4.2,1.8,6.8,4.2c1.5,1.4,4.9-0.5,6.4,0.6c1.4,1,1.9,1.2,2.4,1.1c2.3-6,4-10.3,5.8-16.6
		c-0.7,1.9,0.6,3.5,0.1,4.9c-1.1,4.6-1.6,7.3-1.3,12c3.1,1,7.3-5.4,9.3-3.8c0.7,0.5,1.4,1,2.4,1.3c3.5,1.1,8.9-0.9,12.7-0.1
		c3.8,0.8,5.9,2.1,8.2,5c3.2-5.9,10-6.8,16.8-9.9c1.4-0.6,1.4-3.8,3.3-4.2c8.2-2.5,10.3-5.2,14.1-10.9c-6,3.3-11.2,2.7-16.7,7.8
		c-2.8,2.8-8,2-11.3,4.6c-1.8,1.5-2.9,1.5-4.2,3.2c0.3-2.6,0.6-3.4,2-5.6c0.5-1.4,4.1-1.3,4.6-2.7c3.8-5.7,10.3-3.6,13.6-9.4
		c-7.9,5.3-16,5.9-24.6,11.5c-3.9,2.4-6.3,4.1-10.3,7c-1.4,0.6-4.3,0.1-5.9,1.2c1-2.9,0.6-6.8,2.2-7.9c3.5-4.7,2.7-7.5,4.9-10.5
		c2.8-4.4,11.2-4.2,18.1-5c4.4-0.6,6.3-0.7,11.1-2.2c3.5-1.5,4.7-6.5,7.9-6.9c5.7-0.7,9.4,4.2,14.8,6.1c0.5-3.1,2.2-4.6,5.1-5.8
		c9.1-3.2,17.3-8.2,25.1-13.5l-12.7-4.5l-13.8-4.9c-5.8,1.2-11.1,4.2-15,7.9c-1.6-2.2-3.8-4.6-5.9-3.7c-15.1,4.9-29.4-2.3-44.4-1.1
		c-6.8,0.3-12.4,2.6-19.1,0.8c5.9-1.2,11.9-1.2,17.4-3c1.6-1.1,4.8,0.1,6.2-0.5c4.8-1.6,8.5-5.1,12.9-7.3c-0.3,2.6-4.9,5.3-3.3,5.9
		c3.6,3.4,8.9,2.1,13-2.4c0.3-1,2.5-1.8,4.1-1.3c-1.6,2.7-3.5,4.7-5,7.4c0.7-0.3,2.1-0.9,2.7-0.7c7.4,3.1,13.1-4.6,21.1-5
		c-1,1.3-0.5,4.7,0.4,3.9c2.9-1,5.8-2,8.6-3.1l-31.6-11.2c-5.5,1-11,2.2-16.8,3.5c-2,0.4-3.9,2.4-6,3.3c-3.7,1.9-8.7-0.9-13.6-1
		c-0.7,0.3,0,1.6-1.4,2.2c-6.2,2.1-11.7,4-15.5,9.7c-0.3,1-3.6-0.2-4.4,0.6c-1.6,1.1-2.3,3-1.7,4.8c-9.5-0.6-19.3,6.5-25.5,14
		c-1.2,1.7-7.9-3.3-13.6-2.6c-11.2,2.5-21,1.2-32.1,1.6c-5.3-0.3-9.6,9.5-12.8,13.7C1176.9,463,1178.1,467.6,1180.6,467.9z"/>
	<path class="st16" d="M1299.2,564.2c-1.6-2.1,1.4-4.4,0.4-6.9c-1.3-3.2-3.9-5.6-5.2-8.9c3.2,4.3,3.8,6.8,4.9,13.5
		c-0.1,0.6,2.1,2.3,2,2.8c0.2,3.6-0.6,6.9,0.7,10.1c0.4,0.7,2.2-0.6,2.7-0.5c2,6.9,7,5.2,12.3,7c-3.4-3.2-5.4-5.4-8.1-9.5
		c4.9,3.3,7,7.3,11.9,10c-0.2-1-0.3-2-0.7-2.7c-3.3-3.7-5.2-5.9-8.1-9.5c-6.1-7.5-7.4-15-13-22c-1.5-1.2-3.2-2.2-4.6-3.9
		c-1.4-0.9-0.8-3.1-2.2-4c1.9,1,2.2,4,3.7,4.4c4.3,1.6,4.2,2.8,7.7,5.9c0.5,0.1,1.3-0.9,1.8-0.8c1.9,5.6,5.3,10.2,10,12.6
		c-0.4-0.4-0.8-0.7-1.2-1.1c-2.9-3-2.8-8.3-5.8-10.8c-5.7-4.9-5.6-10.1-9.6-15.7c0.6,0.3,1.3,0.7,1.9,1c-2-3.7-4.2-7.4-7-10.4
		c2.7,1.8,5.3,4.2,6.8,6.9c2,2.8,1.5,5.6,5.7,5.5c-0.3,1.1,1.2,1.5,0.5,2.5c3.5,0.8,4.7,4.6,7.3,7c-0.1-4.1-3-7.2-5.5-10.1
		c-0.9-0.8-0.8-3.1-1.7-3.9c-2.5-2.9-3.5-3.8-4.7-7.6c-1.8-4-1.1-8.2-2.3-12.3c-0.6-0.2-1-0.6-0.7-1.9c0.3,0.6,0.5,1.3,0.7,1.9
		c0.6,0.2,1.5,0,1.9,0.5c1,2.6,0.5,6.6,2.1,8.7c1.4,0.9,3.3,1.4,4.1,2.7c0.9,0.8-1.7,1.4-1.1,3.3c1.9,5.1,5.1,7.1,6.9,12.8
		c0.4,0.7,1.5,0.4,2.6,0c2,8.3,5,15.2,10.7,20.2c-1.2-3.3-4.2-7.1-5.4-10.1c-1.4-3.3-0.9-6.4-2.4-9.5c-3.4-6.9-8.1-13.2-9.4-21.3
		c-0.9-5.7,2.9-4.8-2.4-6.6c0.4-1.7,0.4-4-0.1-4.1c-3.8-1.5-4.5-5.2-7-8.1c-0.6,0.4-1.4,1.4-1.9,1.3c-1.3-3.2-2.4-1.3-6.6,10.2
		c-0.3,1.1-0.3,3.5-0.2,5.2c-4.6-0.5-1.6-2.7-2.6-7.6c0.1-0.6-2.1,0.1-3-0.7c-1.1-2-0.2-5.9-1.4-7.4c-1.5-2.7-6.4,0.3-7.9-1.9
		c-2.4-3.1-4.9-5.9-7.7-8.4l-2.2,9.2c6.2,7.2,11.9,14.8,16.1,23.5c1.5,2.7,3.2,4.3,6.3,4.4c-1.3,5.6-5.8,9.8-4.5,15.4
		c0.8,3.1,5.9,3.7,7.8,7.1c0.2,0.5,0.5,1.1,0.8,1.6c0-0.1,0-0.1-0.1-0.2c0,0.1,0,0.1,0.1,0.2c2.1,3.7,1.7,5.4,2.6,9.2
		c0.2,0.7,0.3,1.4,0.4,2.1c0.9,1.3,1.9,2.6,2.8,3.9C1300.2,566.8,1299.4,565.4,1299.2,564.2z"/>
	<path class="st16" d="M1227.2,756.1c2.1-2.8,5.3-0.9,7.4-0.9c9.5-2.8,11.6-21.4,20.1-25.2c10.6-4.7,11.6-17,18-26.5
		c2.1-2.8,7.4-4.7,8.5-8.5c2.1-4.7,3.5-27.1,6.7-29c9.3-6.1,15.3-51.2,18.4-59.8c-4.9-1.2-8.5,1.4-12.4,3.9
		c-6.1,8.5-13,16.6-16.6,26.7c-2.1,3.8-9.8,59-14.1,60.9c7.5-8.2,11.6-29.5,16.4-41.8c0.7-1.8-12.7-27.6-12-28.9
		c-2.2,0.3,1.2,10.3-0.9,10.5c-0.5,1.3-3,25.4-1.5,28.9c7.5,17.2-6.9,35.8-8.4,52.1c-1.1-0.9-4.2,1.9-5.3-0.9
		c-3.2,7.6-4.2,26.2-11.6,30.9c5.3-11.3,11.6-33.7,13.7-46c2.1,3.8,1.1,6.6,1.1,10.4c4.7-14.3,2.6-56.1,6.7-70.4
		c-2,1.4-10.5,6.3-12.6,7.3c-8.1,3.9-8,19.7-16.3,23.4c-2.4,1-9,14.4-10.9,14.7c0.2,6.8,7.2,14.5,4.5,19.3
		c-2.1,5.7-3.2,12.3-3.2,18.9c2.1-3.8,7.4-7.6,7.4-11.3c2.1-11.3,5.3-18.9,12.7-27.4c0,4.7,0,10.4-1.1,15.1
		c5.3-4.7,8.8-27.1,12-32.8c1.1,18-8.8,51.7-21.5,64.9c-4.2,2.8-9.5,0-13.7,0.9c-2.1,0,0,15.8-1.1,18.6
		c-5.3,9.5-13.8,22.4-14.8,32.8C1213.5,780.4,1217.7,763.7,1227.2,756.1z"/>
	<path class="st16" d="M1089.3,483.6c4,4.1,8.1,8.2,11.7,12.7c5.3,6.7,11.4,12.6,16.7,19.3c-5.1-4.4-10.7-6.8-16.4-9.8
		c2.8,5.7,7.3,9.7,11.8,13.7c0.8,0.9,1,3.3,3.5,4.3c-1.6,3.5-2.7,6.8-1.5,10.6c0.5-0.2,1.1,0.2,1.6,0.1c2,1.2,0.9,4.5,2,4.7
		c2.1,1.7,4.4-1.4,7-1.6c-2.1,3.6-4.6,7.4-5.4,11.8c1.5-0.5,3.1-0.4,3.9-1.2c2.5-5.6,4.6-11,10.4-12.8c1.7,8.7,1,17.7,0.1,26.6
		c0.5,0.4,1,0.9,1.1,1.1c2.7,3.4,3.6,9.6,6.3,10c4.1,1.1,7.9,2.9,12,4c-1.6-8.5,1.9-16.1,0-22.1c-2.4-5.8-4.1-13.1-8.1-19
		c-2-3-6.7-4.5-7.8-9.5c-0.3-1.1-3.9-0.6-4.9-2c-1.3-2.6-1.7-5.4-2.6-8.2c-2.9,0.9-5.2-1.3-7.4-3.1c-4.8-5.1-6.7-11.1-13.6-14.3
		c-1.8-0.6,1.2-4.6-1.7-7.2c-4-4.1-8.9-8-11.3-13.8c-0.3-1.1-2.3-0.5-2.9-0.9c-5.1-4.4-6.5-10.5-8.9-16.4c3,4.4,6.1,7.6,10.7,10.4
		c3.8,1.8,4.5,7.6,7.3,11.5c1.5,1.3,4.1,1.1,4.7,1.5c2.5,2.8,4,7.7,6.3,10c6.3,8.2,12.6,16.4,21.5,22.6c0.2,0.5,2,1.2,2.1,1.7
		c4.8,5.1,7.6,10.8,13.6,14.3c-3.2-6.8-8.5-11.7-12-17.8c3.9,0.6,7.5-1.7,11.2-1.7c-6.3-4.6-12.6-2.6-19.2-6.6
		c-1.1-0.2-2.1-1.7-3.1-3.2c5.2-2.2,11.6,1.2,16.1-3.2c-8.5-3.3-18.7-0.1-25.2-7.1c7.5,1.8,14.7,0.8,22,0.3c-3.6-1.3-8.3-1-11.8-3.5
		c-5.9-3.5-13-0.7-17.1-8.4c8.5,3.3,17,1.3,25.5,2.8c1.6,0.1,11.3,0.7,13.6,2.9c2.8,2.1,1.2,7.4,3.7,10.2c4.1,4.7,3.2,10.3,7.4,15
		c1.7,1.9,5.1,0.8,6.9,1.4c2.5,1,2.2,7.1,4,7.7c4.7,1.5,13.5-3.4,18.4-5c2.4-0.7,4.2-2.4,6.3-3.2c-7.2,8.3-9.9,16.7-9.8,27.1
		c0.2,8.9-4.4,15.8-2.8,24.8c0.3,1.7,1.9,4.1,1.7,5.8c-0.2,1.6-2.4,2.5-2.7,4.5c-0.3,1.7,1.4,4,1.2,5.9c-0.3,3-4.8,4-6.2,6.2
		c-5.4,8.5-14.2,25.8-16.9,36.1c-1,4.1-12.9,13.6-17.5,20c-0.7,0.9-8.8,17.1-9.8,17.5l-3.2,2.5c-2.8-0.3-5.5,0.6-7.6,2.4
		c-1.9,1.7-3.9,3.2-3.9,3.2s-9.1-21.8-11-31.7c-1.9-9.8-7.3-42.6-7.3-42.6s9.3-5.9,4-20.8c0,0-2.2-4.7-4-6.7s-1.3-8.2-1.3-8.2
		l-2.6-5.8"/>
	<path class="st16" d="M1077.3,401.8c0,0-3.4,4.8-3.7,7.8c-0.4,3,2.7,4.7,1.9,8.1c-0.8,3.3,4.8-7.9,4.8-7.9s5.8,2.5,4.7,9.2
		c-1,6.7,12.5,18.5,12.5,18.5s-1.2-12.7,1.8-16.5c0,0-3.5-8.7-7.7-10.7c-4.2-2.1-4.7-8.3-4.7-8.3"/>
	<path class="st16" d="M1114.9,401.8c0,0-4.7,7.2-5,10.8c-0.3,3.6,3,7.7,0,11.9c-3,4.2,5.8-2.7,5-7.9c-0.8-5.2,6.7-14.7,6.7-14.7"/>
	<path class="st16" d="M1153.3,401.4c-7.1,4.3-12.1,9.8-16.9,15.2c4.9-3.7,10-7.2,15.4-10.6c-1.8,1.9-3.5,3.8-5.3,5.7
		c1.7-1.3,2.4-3,3.5-4.5c1.2-1.5,3.2-3,5.9-3c1.1,0,2.2,0.2,3.2,0c1.4-0.3,2.1-1.3,2.6-2.2L1153.3,401.4z"/>
	<path class="st17" d="M1403.6,401.9l-23.9-22.8c-1.7-1.6-8.3-8.5-9.2-10.7c-1.8-4.4-4.5-6.7-4.6-6.8l-4.1-4.8l-1.7-2.8
		c0,0,0,0,0.1,0.1l-0.1,0c-1.4,0-2.7,0-4.1-0.1c-1-0.1-2-0.2-3-0.3c-0.4-0.1-0.9-0.1-1.3-0.2c-0.9-0.1-1.7-0.3-2.5-0.5
		c-1.1-0.3-2.1-0.6-3.1-1c-1.7-0.7-3-1.7-4.3-2.7c-0.7-0.7-1.4-1.5-2.1-2.3c-1.7-2-1.2-6.6-4-7.8c-1.8-0.8-4.4,0.2-6-0.6
		c-1.8-0.9-2-3.3-3.5-3.9c-1.6-0.7-4.3,0.1-6-0.1c-9-1.2-14.3-7.6-22.8-10.1c-10-2.9-17.2-8-23-17.4c0,0,0,0,0,0
		c-0.2,0.1-0.4,0.1-0.6,0.1c-2.5,0.6-5.1-3.3-7.7-2.8c-1.3,0.3-2.7,0.6-4,1.1c-2.5,0.9-3.9,1.7-5.4,2c-1.4,0.3-3.4-5.1-5.3-5.5
		c-5.4-1.1,1.7-2.8-2.1-4.9c-0.7-0.4-1.6-10.4-2.1-10.6c-2.6-0.6-8.2-10.6-10.3-9.2c-1.2,0.8-5.6-3.3-7-2.8
		c-0.5,0.2-7.1,0.7-7.6,0.8c-1.2,0.2-3.3,2.5-6.4,6.6c-2.6,3.5-6,3.8-6.6,4c-0.7,0.3,0.2,5.2-0.5,5.7c-1.1,0.7-1.7,2.1-2.8,2.7
		c-4.4,2.1-10,21.6-14.5,23.6c-1.3,0.6-2.3,0.9-3.3,1.1c-2.6,0.5-4.6-0.3-7.8-1.7c-1.9-0.8-4.5,2.1-6.2,1.6
		c-1.6-0.5-2.2-0.5-2.7-0.3c-0.6,0.3-1,0.8-2.9,1.2c-0.5,0.1-1,0.1-1.5,0.1c-3.2,0-5.1,7.6-7.5,6.7c-0.8-0.3-1.7-0.5-2.7-0.4
		c-3.7,0.1-8.1,3.9-11.9,4.4c-3.9,0.5-6.3,0-9.4-2c-0.5-0.4-1.1-0.7-1.7-1.2c-0.3,0.4-0.9,1.5-1.2,1.7c-0.5,0.2-1,0.5-1.5,0.9
		c-3,2-6,5.7-8.6,7.6c-2.9,2.2-6,2.3-8.6,4.5c-5.9,4.9-11,11-18.6,14c-2.7,1.1-7.8,0.5-8.5,0.4c-0.5-0.2-3.3,8.7-6.2,16.8
		c-2.2,6.1-4.8,12-4.8,12l-16.1,16.9h27.1h13.5h14.7h6.7h33.5h58.4h99c13.2,0,26.4-0.1,39.5,0l0.4,0h4.6h41.5L1403.6,401.9z
		 M1111.6,363.3c0.2-0.7,0.3-1.4,0.5-2c0.7-2.9,1.5-5,2.8-6.8c0,0,0.1,0,0.1,0.1c0-0.1,0-0.2,0-0.3c1.3-1.9,3.2-3.6,6.3-5.9
		C1114.5,353.4,1113.3,356.6,1111.6,363.3z M1129.9,365.3c0.5-0.4,0.9-0.7,1.3-1.1c3.1-2.9,4.8-2.9,8.4-4.7
		C1135.6,361.6,1133.9,362.2,1129.9,365.3z M1221.9,373.3c0-0.1,0.1-0.1,0.1-0.2C1222,373.2,1222,373.2,1221.9,373.3z M1223.8,368.6
		c0.9-2.5,1.6-5.1,2.6-7.6C1225.4,363.5,1224.7,366,1223.8,368.6z M1228.6,355.8c0.5-1.4,3.5-10.1,6.2-11.7c0.2-0.1,0.4-0.2,0.6-0.4
		C1232.6,345.2,1229.2,354.2,1228.6,355.8z M1272.9,310.6c-0.3,1.7-0.9,4.1-1.6,6.5c1-3.3,1.6-7,2.3-9.5
		C1273.4,308.5,1273.1,309.5,1272.9,310.6z"/>
	<path class="st14" d="M1312.6,401.9c14.9,0,29.6-0.2,44.5,0h46.5c0,0-30.4-25.6-34.5-28.1c-9.1-5.6-22.9-19.2-29.4-26.9
		c-1.7-2-1.2-6.6-4-7.8c-1.8-0.8-4.4,0.2-6-0.6c-1.8-0.9-2-3.3-3.5-3.9c-1.6-0.7-4.3,0.1-6-0.1c-9-1.2-14.3-7.6-22.8-10.1
		c-10-2.9-17.2-8-23-17.4c0.1,2.3,1.2,4.5,1.2,7c0,5.1,2.1,15-0.8,19c-1.1,1.5-6.8-0.5-8.6,1.5c-1.1,1.5-1.1,5.1-3.4,6.1
		c-5.7,2.6-10.8,0-16.5,2.6c-3.4,1.5-8-1.5-10.8,0.5c-2.9,1.5-6.3,10.5-6.8,12.1c-4,7.7-4.6,16.3-10.3,23.5c8.6-1.5,8-9.2,13.1-13.8
		c3.4-2.6,4.6-7.1,6.8-10.2c-1.7,7.1-2.9,14.3-6.8,20.9c8.6-4.1,8.6-14.8,14.3-21.9c2.9,5.6-2.3,10.7-1.7,16.3c1.7-0.5,3.4-1,4-2
		c5.7-5.1,5.7-11.7,12-16.3c-1.1,3.6,0,7.7-1.7,11.2c6.8-1.5,13.1-5.1,20.5-6.1c-5.1,4.6-11.4,5.6-17.7,8.7c-0.6,0-1.7,1.5-2.3,1.5
		c-8.6,6.6-18.3,10.2-28,13.8c-2.9,1.5-8,1.5-11.4,3.1c-0.6,0.5-1.1,3.1-2.9,4.1c-4.6,1.5-10.3,0.5-13.1,3.6c-4,3.6-8,5.6-13.1,7.1
		c6.3-0.5,12.6,0,18.3-3.6c0.6-0.5,0.6-2.6,1.7-2.6c6.3-0.5,11.4-4.1,16.5-6.6c3.4-2,6.3,2,7.4,0.5c5.1-5.6,11.4-5.6,17.7-8.7
		c2.3-1.5,5.1-3.1,5.1-6.1c2.9,0,5.7,0.5,8.6,0c1.7-0.5,2.3-4.1,3.4-4.1c5.1,0.5,8-3.6,11.4-4.6c6.8-2,14.3-1.5,20.5-2
		c6.3,0,12.6,5.6,21.1,6.6c-2.3,3.6-5.1,6.6-7.4,10.2c-1.1,2.6-7.4,1.5-11.4,3.1c-0.3,0-0.9,0.3-1.4,0.7c-8.3-3.5-16.6-6.8-25.4-7.8
		c0,6.1,4.6,9.7,9.1,13.8c0.6,1,0,2.6,0,4.1c-4-2-6.8-5.6-9.7-8.7c-0.6,2.6,1.7,5.6-0.6,7.1c-0.6,1-3.4-1-5.1,0.5
		c0,0.5-0.6,1-0.6,1.5c-4,0-6.8-2-9.7-4.6c-1.7,2-4,1.5-5.1,2c-5.1,3.1-10.3,6.1-16.5,7.1c4.6-4.6,8.6-9.2,14.3-12.8
		c-8,3.1-15.4,7.1-23.4,10.2c-5.3,2.1-10.5,4.7-15.6,7.4"/>
	<path class="st14" d="M1266.1,304.2c-3.6,5.3-9.5,18.5-15.8,21.6c1.2-3.7,5.3-15.1,6.5-18.5c-1.4,0.3-2.1-19.7-4.8-20.4
		c-1.8-0.4-2.4-4-4.6-4.3c-1.7-0.2-4.2,0.8-6.2,0.4c-5.4-1.1-5.7-6-9.5-8.1c-0.7-0.4-1.3-0.6-1.9-0.7c-1.7,4.6-4.6,29.1-9.7,32.4
		c-1.7,1-2.5,13.1-3.6,15.6c-0.6,2-3.4,3.1-4.6,4.6c-3.4,5.1-4,11.7-9.7,14.3c-4.6,2-5.7,12.1-10.8,13.6c-1.1,0-2.9-1-4,0.5
		c-5.1,4.1-7.4,13.1-13.1,16.7c0.6-5.6,5.1-12.6,8-17.7c0.6-1.5-0.6-10,0.6-10c2.3-0.5,5.1,1,7.4-0.5c6.8-7.1,12.2-25.3,11.6-35
		c-1.7,3.1-3.6,15.1-6.5,17.7c0.6-2.6,0.6-5.6,0.6-8.2c-4,4.6-5.7,8.7-6.8,14.8c0,2-2.9,4.1-4,6.1c0-3.6,0.6-7.1,1.7-10.2
		c1.4-2.6,1.3-6.6,1.2-10.3c-2.6,0.5-4.6-0.3-7.8-1.7c-1.9-0.8-4.5,2.1-6.2,1.6c-1.6-0.5-2.2-0.5-2.7-0.3c-0.1,6.4-0.3,11,0.1,17.6
		c0-2-1.7-3.1-1.7-4.6c-0.5-4.7-1-7.4-2.8-11.7c-3.2,0-5.1,7.6-7.5,6.7c-0.8-0.3-1.7-0.5-2.7-0.4c-3.7,0.1-8.1,3.9-11.9,4.4
		c-3.9,0.5-6.3,0-9.4-2c-1.1,6.6-7.2,9.7-12.5,14.9c-1.1,1,0,4.1-1.7,5.1c-6.8,5.1-8,8.3-9.7,15c4.6-5.1,9.7-6.3,13.1-12.9
		c1.7-3.6,6.8-4.6,9.1-8.2c1.1-2,2.3-2.4,2.9-4.4c0.6,2.6,0.6,3.4,0,6c0,1.5-3.4,2.6-3.4,4.1c-1.7,6.6-8.6,6.8-9.7,13.4
		c5.7-7.7,13.1-10.9,19.4-19c2.9-3.6,4.6-6,7.4-10c1.1-1,4-1.5,5.1-3.1c0,3.1,1.7,6.6,0.6,8.2c-1.7,5.6,0,8-1.1,11.6
		c-1.1,5.1-9.1,7.7-15.4,10.7c-4,2-5.7,2.7-9.7,5.8c-2.9,2.6-2.3,7.7-5.1,9.2c-5.1,2.6-10.3-0.8-16-0.8c0.6,3.1-0.6,5.1-2.9,7.1
		c-7.5,6.1-13.6,13.5-19.2,21.1h13.5h14.7c5.1-3.1,9-7.6,11.5-12.5c2.3,1.5,5.1,3.1,6.8,1.5c12.6-9.7,28.5-7.7,42.2-13.8
		c6.3-2.6,10.8-6.6,17.7-7.1c-5.1,3.1-10.8,5.1-15.4,8.7c-1.1,1.5-4.6,1.5-5.7,2.6c-4,3.1-6.3,7.7-9.7,11.2
		c-0.6-2.6,2.9-6.6,1.1-6.6c-4.6-2-9.1,1-11.4,6.6c0,1-1.7,2.6-3.4,2.6c0.6-3.1,1.7-5.6,2.3-8.7c-0.6,0.5-1.7,1.5-2.3,1.5
		c-8-0.5-10.8,8.7-18.3,11.7c0.6-1.5-1.1-4.6-1.7-3.6c-2.4,1.9-4.8,3.9-7.1,5.8h33.5c4.8-2.8,9.7-5.8,14.6-8.9
		c1.7-1,2.9-3.6,4.6-5.1c2.9-3.1,8.6-2,13.1-3.6c0.6-0.5-0.6-1.5,0.6-2.6c5.1-4.1,9.7-7.7,11.4-14.3c0-1,3.4-1,4-2
		c1.1-1.5,1.1-3.6,0-5.1c9.1-2.6,16-12.6,19.4-21.8c0.6-2,8.6,0.5,13.7-2c9.7-6.1,19.4-8.2,29.7-12.2c5-1.5,5.9-12.2,7.5-17.2
		C1271.2,307.6,1268.6,303.7,1266.1,304.2z"/>
	<path class="st14" d="M1360.1,354c0.1,0.1,0.2,0.2,0.3,0.2c0.7,0.9,1,2.3,2,3.2c1.3,1.4,3,2.5,3.7,4.4c-3.3-2.7-6.9-5.2-10-8
		C1357.4,353.9,1358.7,354,1360.1,354z"/>
	<path class="st14" d="M1351.7,353.4c0.4,0.1,0.9,0.1,1.3,0.2c2.5,3.3,6.1,6,8.7,9c2,2.3,5,4.6,8.1,6.2c1.5,0.6,2.2,1.9,2.3,3.3
		c-0.2-0.3-0.5-0.5-0.6-0.8C1364,365.7,1356.5,360.4,1351.7,353.4z"/>
	<path class="st14" d="M1369.1,373.7c-0.6-1.2-1.4-2.2-3-2.9c-2.4-1.2-6-0.7-8.1-1.8c-1.3-0.7,0.7-3-1.7-3.9c-3.7-1.2-5-3.2-6-5.5
		c-1.9-4-5.8-7.1-8.9-10.6c1.5,1,2.8,2.1,4.7,2.9c1,0.4,2,0.8,3.1,1c1,1.5,1.9,2.9,2.8,4.4c0.3,0.7,2,0.9,2.7,1.8
		c2,3.2,3,6.5,8.7,7.8c1,0.2,0.7,1.2,1.3,1.8c4.4,3.2,9.4,5.8,12.1,9.7C1374.7,376.6,1372,375.1,1369.1,373.7z"/>
	<path class="st14" d="M1347.9,378.4c1.7,0.9,2.7,2.5,4.4,3c4.7,1.4,8.1,2.5,12.1,4.4c1,0.5,2.4,0.2,3.7,0.2
		c-2.4,3.2,3.4,5.3,6.4,7.4c0.3,0,0.3,0.9,0.7,1.4c2,2.8,7.7,2.8,9.7,5.8c-2.4-1.8-6-2.5-9.1-4.1c-1-0.5-1.7-1.4-2.7-2.5
		c-0.3-0.7-2.4-0.9-3-1.6c-2-1.2-2.7-2.5-5-3.7c-1-0.5,0.7-1.2,0-1.4c-1.7-0.7-4-0.9-5.7-1.6c1.3,1.2,2.7,2.5,3.4,3.9
		c-2.7-2.1-5.4-3.7-7.7-6.2c-0.7-0.9-3-0.7-4.7-1.4c-2.1-0.9-4.1-1.7-6.2-2.4c-0.5-0.6-1.1-1.2-1.8-1.7c-0.1-0.1-0.3-0.2-0.5-0.3
		C1343.9,377.7,1346.4,377.4,1347.9,378.4z"/>
	<path class="st14" d="M1360.4,394.6c0.7,1.8,1,4.6,3.7,5.3c-0.3,0.2,0.3,0.7-0.3,0.7c-5.7-1.2-5-5.3-8.7-7.6
		c-0.8-0.4-1.6-0.9-2.4-1.5c3.7,0.8,7.4,1.8,10.5,3.7c1.6,1.3,2,3,3.6,4.5C1364.4,398,1362.1,396.6,1360.4,394.6z"/>
	<path class="st18" d="M1316.7,380.7c1.3,2.8,4.4,4.4,8.1,5.5c2.4,0.7,3-1.2,4.7-1.8c0,0.7,1,0.7,1.3,0.7c2.7,0.9,5.4,0.5,8.1,0.9
		c1.7,0.5,2,2.5,3.7,3c3.1,1.1,6.6,1.7,10.1,2.5c0.7,0.5,1.5,1,2.4,1.5c3.7,2.3,3,6.5,8.7,7.6c0.7,0,0-0.5,0.3-0.7
		c-2.7-0.7-3-3.5-3.7-5.3c1.7,2.1,4,3.5,6.4,5.1c-1.5-1.5-2-3.2-3.6-4.5c0.2,0.1,0.4,0.2,0.5,0.3c-3.4-2.5-7.7-4.6-9.1-8.3
		c-1-1.6-4.7-2.3-6.7-3.5c-1.6-1.1-2.6-2.8-3.9-4.3c2.1,0.7,4.2,1.5,6.2,2.4c1.7,0.7,4,0.5,4.7,1.4c2.4,2.5,5,4.1,7.7,6.2
		c-0.7-1.4-2-2.8-3.4-3.9c1.7,0.7,4,0.9,5.7,1.6c0.7,0.2-1,0.9,0,1.4c2.4,1.2,3,2.5,5,3.7c0.7,0.7,2.7,0.9,3,1.6
		c1,1.2,1.7,2.1,2.7,2.5c3,1.6,6.7,2.3,9.1,4.1c-2-3-7.7-3-9.7-5.8c-0.3-0.5-0.3-1.4-0.7-1.4c-3-2.1-8.7-4.1-6.4-7.4
		c-1.3,0-2.7,0.2-3.7-0.2c-4-1.8-7.4-3-12.1-4.4c-1.7-0.5-2.7-2.1-4.4-3c-1.5-1-4-0.8-6.2-1c-1.7-0.9-5.2-1-8.2-0.8
		c1.7-3.5-2.7-6-4.4-9c-1.2-1.6,1-3.8,2.7-5.9c2.5,4,4.2,8.3,9.4,10.9c2.7,1.4,7.1-0.5,9.4,1.2c3,2.5,8.1,2.5,12.4,3
		c-2.7,1.4-0.7,3.2,1.3,4.1c6,3,13.4,6,16.1,10.6c1.3,2.3,6.7,2.1,9.1,3.7c3,2.2,5.9,4.5,9.1,6.6h-46.1c-2.1-1-4.4-1.8-7-2.4
		c-1.7-0.2-3.7-1.4-3.7-2.5c0-2.5-3-4.6-5-4.8c-8.1-1.2-15.5-3.2-21.5-7.1c-4-3-10.4-4.1-14.4-7.4
		C1305.9,378.7,1311,382.1,1316.7,380.7z"/>
	<path class="st14" d="M1256,412.1c-1.4-1.2-4.4-1.6-6.4-0.7c0.3-2.2,0-4.4-0.8-6.5c-3.2,1.5-7,2.7-10.9,3.2c0.5-1.5,1-2.9,1.5-4.4
		c-4.6,0.4-9.3,0.8-13.7,2c-2,0.5-3.8,1.2-5.7,1.7c-4,1.1-8.4,1.8-12.7,1.9c-1.2,0-2.4,0-3.5,0.2c-2.6,0.5-4.2-16-5.6-14.5
		c-5,5.3-11,10.1-17.9,14.4c0.4-3.3,1.3-6.6,2.8-9.7c-2.4,0.7-4.8,1.4-7.2,2.1c-0.1-2.7,3.2-5.4,7.4-6c0.7-0.1,1.5-0.1,2.1-0.4
		c1-0.4,1.5,17.1,1.9,16.4c1.9-2.7,4.9-5,8.6-6.8c-0.5,1-0.9,1.9-1.4,2.9c1.3-0.5,2.9-0.7,4.3-0.5c0.5,0.1,1.1,0.2,1.6,0.1
		c0.6-0.1,1-0.3,1.4-0.6c3-1.9,6-3.9,9-5.8c3.4,1.5,8.2,0.5,11.7-0.9c3.5-1.4,6.9-3.3,11-3.6c2.3-0.2,4.9,0.2,6.8-0.7
		c0.9-0.4,1.4-1,2.1-1.6c1.6-1.4,3.7-2.6,6.1-3.5c0.1,0.8,0.3,1.5,0.4,2.3c4.3-1,8.7-2.1,13-3.1c0.7-0.2,1.3-0.3,2-0.3
		c1.2,0,2.3,0.3,3.4,0.3c1.2,0.1,2.6-0.3,2.6-1c1.9,0.4,3.8,0.8,5.7,1.2c2.4-0.1,4.8,0.1,7,0.7c1.7,0.5,3.9,1.2,5.2,0.3
		c0.6-0.4,0.7-1,1.2-1.5c0.8-0.8,2.6-1.1,4.1-0.9s2.8,0.8,4,1.3c4.9,2.2,9.9,4.5,14.8,6.7c5,2.2,10,4.5,13.8,7.5
		c-5.9,0-11.7,0-17.6-0.1c-2.5,0-5.1-0.1-7.1-1c-1.4,0.8-2.3,2-2.5,3.3c-1.5-1-3-2-4.3-3c-4.7,2.2-3.9-11.5-6.5-8.2
		c-2,2.6-6.1,4.3-8.7,6.7c0.8-1.6,1.9-3.1,3.3-4.6c-4.1-1.7-7.9,14.5-11.4,12.4c0.5,0.8,1.1,1.7,1.6,2.5c-0.6-1.9-2.6-3.6-5.3-4.4
		c-0.4,0.6-0.9,1.2-1.3,1.8c-0.9-0.9-2.1-1.6-3.4-2.2C1260.4,409.2,1258.2,410.6,1256,412.1z"/>
	<path class="st14" d="M1141,410.5c-3.8,2-7.7-14.2-11.5-12.2c2.7-2.2,4.7,13.5,6,10.8c-1.3,0.6-2.6,1.2-3.8,1.8
		c0.1-0.7,0.3-1.3,0.4-2c-0.7,1.1-3.6,0.6-4.2-0.5c-0.6-1.1,0.3-2.3,1.2-3.3c3.4-3.8,7.5-7.3,12.2-10.4c0.3,0.6,0.8,1.2,1.6,1.6
		c2.1-2.1,4.1-4.2,6.2-6.3c1.7-1.8,3.6-3.6,6.3-4.8c2.1-0.9,4.5-1.4,6.9-1.8c-0.5,1.6-1.1,3.1-1.7,4.7c-1.4,3.8-3,7.6-5.7,11
		c-3.4,4.3-8.4,7.9-13.4,11.5c0.1,0.1,0.4-0.1,0.2-0.2C1141.4,410.3,1141.2,410.4,1141,410.5z"/>
	<path class="st13" d="M1059.6,377.9c-0.4,0.1-0.7,0.2-1.1,0.3C1058.9,378.1,1059.3,378,1059.6,377.9z"/>
	<path class="st17" d="M1090.5,367.2c-0.6,0.3-1.2,0.7-1.7,1.1C1090.2,368.3,1090.5,367.8,1090.5,367.2z"/>
	<path class="st17" d="M1133.8,327c-0.3,0.4-0.9,1.5-1.2,1.7c-0.5,0.2-1,0.5-1.5,0.9c-3.5,6.7-9.6,11.2-17.1,15.1
		c0.6,1,1.1,2,0.6,2.6c-5.1,3.1-6.3,6.6-10.8,9.7c-1.7,1-2.9-1.4-3.4-0.3c-1.1,1-1.1,3.1-1.7,4.6c-1.7,2-5.7,2.6-8,4.1
		c-0.3,0.5,0,1.3,0,2c3.7-2,8-2.4,11.4-5c3.4-2,4-3.2,6.3-6.3c0.6-1,2.9-1.5,3.4-2.6c2.3-3.1,4.6-6.6,8.6-7.7
		c-1.7,3.1-5.1,5.1-5.1,8.7c-1.1-0.5-1.1,1-2.3,1c1.1,4.1-1.7,4.3-4,6.8c-2.3,2-4,5.1-5.1,8.2c2.3-3.4,5.4-6.4,8.5-9.2
		c1.5-5.9,3-8.3,9.2-12.9c1.7-1,0.6-4.1,1.7-5.1c5.3-5.2,11.4-8.3,12.5-14.9C1135,327.9,1134.4,327.5,1133.8,327z"/>
	<path class="st17" d="M1133.3,347.7c0-1.5,3.4-2.6,3.4-4.1c0.6-2.5,0.6-3.4,0-6c-0.4,1.6-1.2,1.4-2.1,3c-1.2,5.2-4.9,9.5-9.9,12.6
		c0,0.5,1.1,1,1.1,1.5c-2.3,4.1-3.4,4.3-4,8.8c0,1.5-2.9,2.6-3.4,4.6c0.6-1.5,2.9-1.5,3.4-3.1c1.3-1.7,1.8-3.6,2.7-5.4
		c-0.3,0.4-0.7,0.9-1,1.3C1124.7,354.5,1131.6,354.4,1133.3,347.7z"/>
	<path class="st17" d="M1155.6,329c-0.6,0.8-1.7,1.3-2.7,1.8c-1.5,5.4-4.9,8.3-7,13.9c3.4-3.6,5.1-6,7.4-10c-0.6,5.6,2.3,10-4,13.6
		c0,0.5,1.7,2,1.1,2.6c-2.9,2-6.3,2-9.7,3.1c-0.6,0-1.7,2.6-2.3,2.6c-6.3,2.6-8.6,3.7-12,7.8c2.9-2,4.6-5.1,7.4-7.1
		c2.3-1.5,5.1,0.8,6.8-1.2c1.1-0.5,2.3-1.5,4-1c-1,1.2-2.1,2.4-3.2,3.7c5.9-2.7,12.4-5.2,13.4-9.8c1.1-3.6-0.6-6,1.1-11.6
		C1157.3,335.7,1155.6,332.1,1155.6,329z"/>
	<path class="st18" d="M1140.7,355.9c-1.7,2-4.6-0.3-6.8,1.2c-2.9,2-4.6,5.1-7.4,7.1c3.4-4.1,5.7-5.3,12-7.8c0.6,0,1.7-2.6,2.3-2.6
		c3.4-1,6.8-1,9.7-3.1c0.6-0.5-1.1-2-1.1-2.6c6.3-3.6,3.4-8,4-13.6c-2.3,4.1-4,6.5-7.4,10c2.1-5.5,5.5-8.5,7-13.9
		c-1,0.4-1.9,0.8-2.4,1.3c-2.9,4.1-4.6,6.5-7.4,10c-5.9,7.7-12.9,10.6-18.4,17.8c-0.9,1.8-1.4,3.6-2.7,5.4c-0.6,1.5-2.9,1.5-3.4,3.1
		c0.6-2,3.4-3.1,3.4-4.6c0.6-4.6,1.7-4.8,4-8.8c0-0.5-1.1-1-1.1-1.5c5-3.1,8.7-7.5,9.9-12.6c-0.3,0.5-0.5,1-0.8,1.4
		c-2.3,3.6-7.4,4.6-9.1,8.2c-3.4,6.6-8.6,7.8-13.1,12.9c0.2-0.7,0.3-1.4,0.5-2c-3.1,2.8-6.2,5.8-8.5,9.2c1.1-3.1,2.9-6.1,5.1-8.2
		c2.3-2.6,5.1-2.7,4-6.8c1.1,0,1.1-1.5,2.3-1c0-3.6,3.4-5.6,5.1-8.7c-4,1-6.3,4.6-8.6,7.7c-0.6,1-2.9,1.5-3.4,2.6
		c-2.3,3.1-2.9,4.3-6.3,6.3c-3.4,2.6-7.7,3-11.4,5c0,0.6-0.3,1.1-1.7,1.1c0.5-0.4,1.1-0.8,1.7-1.1c0-0.6-0.3-1.4,0-2
		c2.3-1.5,6.3-2,8-4.1c0.6-1.5,0.6-3.6,1.7-4.6c0.6-1,1.7,1.4,3.4,0.3c4.6-3.1,5.7-6.6,10.8-9.7c0.6-0.5,0-1.5-0.6-2.6
		c7.6-3.9,13.6-8.4,17.1-15.1c-3,2-6,5.7-8.6,7.6c-2.9,2.2-6,2.3-8.6,4.5c-5.9,4.9-11,11-18.6,14c-5.3,2.1-5.4-1.7-5.9,3.9
		c-1.7,0-4,0.5-4,1c-0.6,4.1-4,5.6-6.3,8.7c0.6,0.5,1.7,1,1.7,1.5c-2.9,2-0.7,2.6,11.4,4.1c1.1,0,3.4-0.5,5.1-1
		c0.6,4.6-2.3,2.2-6.8,4.3c-0.6,0,0.6,2,0,3.1c-1.7,1.5-5.7,1.5-6.8,3.1c-2.3,2,1.7,6.1,0,8.2c-2.5,3-4.6,6.2-6.4,9.4h9.5
		c5.6-7.7,11.7-15,19.2-21.1c2.3-2,3.4-4.1,2.9-7.1c5.7,0,10.8,3.4,16,0.8c2.9-1.5,2.3-6.6,5.1-9.2c0.5-0.4,0.9-0.7,1.3-1.1
		c-0.1,0-0.1,0.1-0.2,0.1c0.1,0,0.1-0.1,0.2-0.1c3.1-2.9,4.8-2.9,8.4-4.7c0.6-0.3,1.3-0.6,2-0.9c1.1-1.2,2.1-2.5,3.2-3.7
		C1143,354.4,1141.9,355.4,1140.7,355.9z"/>
	<path class="st18" d="M1171.5,335.8c-0.4-6.6-0.2-11.2-0.1-17.6c-0.6,0.3-1,0.8-2.9,1.2c-0.5,0.1-1,0.1-1.5,0.1
		c1.8,4.3,2.3,7,2.8,11.7C1169.8,332.8,1171.5,333.8,1171.5,335.8z"/>
	<path class="st17" d="M1218.5,298.3c-0.5,0.2-1.1,0.3-1.6,0.3c-3.1,5.6-5.4,20.1-10,25.2c2.3-1,5.3-11,6.5-13.1
		c1.9-5.5,5.7-9.8,8.9-14.4C1221.1,297,1219.9,297.8,1218.5,298.3z"/>
	<path class="st17" d="M1200.6,334.5c0.6,1.5,2.3,0,2.9,0.5c0.9-9.6,6.2-27,9.9-36.1c-0.6,0.1-1.2,0.2-1.7,0.4
		c-0.7,0.3-1.4,0.7-2.1,1.1c-2.2,7.7-4.7,23.9-7.3,31.6c0-2,0.6-3.6-0.6-5.6c-1.1,6.6-4.6,18.7-7.4,24.8
		C1198.4,348.6,1198.9,338.6,1200.6,334.5z"/>
	<path class="st18" d="M1187.5,355.2c1.1-1.5,2.9-0.5,4-0.5c5.1-1.5,6.3-11.6,10.8-13.6c5.7-2.6,6.3-9.2,9.7-14.3
		c1.1-1.5,4-2.6,4.6-4.6c1.1-2.6,1.9-14.6,3.6-15.6c5-3.3,8.2-27.6,9.9-32.2c-2.6-0.6-4.6,0.7-6.7,2.1c-3.3,4.6-7,8.9-8.9,14.4
		c-1.1,2-5.3,31.8-7.6,32.8c4.1-4.4,6.3-15.9,8.8-22.6c0.4-1-6.9-14.9-6.5-15.6c-1.2,0.2,0.7,5.6-0.5,5.7
		c-0.3,0.7-1.6,13.7-0.8,15.6c4,9.3-3.7,19.3-4.5,28.1c-0.6-0.5-2.3,1-2.9-0.5c-1.7,4.1-2.3,14.1-6.3,16.7
		c2.9-6.1,6.3-18.2,7.4-24.8c1.1,2,0.6,3.6,0.6,5.6c2.5-7.7,1.4-30.3,3.6-38c-1.1,0.7-5.7,3.4-6.8,4c-4.4,2.1-4.3,10.6-8.8,12.6
		c-1.3,0.6-4.9,7.8-5.9,7.9c0.1,3.7,3.9,7.8,2.4,10.4c-1.1,3.1-1.7,6.6-1.7,10.2c1.1-2,4-4.1,4-6.1c1.1-6.1,2.9-10.2,6.8-14.8
		c0,2.6,0,5.6-0.6,8.2c2.9-2.6,4.8-14.6,6.5-17.7c0.6,9.7-4.8,27.9-11.6,35c-2.3,1.5-5.1,0-7.4,0.5c-1.1,0,0,8.5-0.6,10
		c-2.9,5.1-7.4,12.1-8,17.7C1180.1,368.3,1182.4,359.3,1187.5,355.2z"/>
	<path class="st18" d="M1130.5,399.6c7.4-3.1,10.3-12.2,18.3-11.7c0.6,0,1.7-1,2.3-1.5c-0.6,3.1-1.7,5.6-2.3,8.7
		c1.7,0,3.4-1.5,3.4-2.6c2.3-5.6,6.8-8.7,11.4-6.6c1.7,0-1.7,4.1-1.1,6.6c3.4-3.6,5.7-8.2,9.7-11.2c1.1-1,4.6-1,5.7-2.6
		c4.6-3.6,10.3-5.6,15.4-8.7c-6.8,0.5-11.4,4.6-17.7,7.1c-13.7,6.1-29.7,4.1-42.2,13.8c-1.7,1.5-4.6,0-6.8-1.5
		c-2.5,4.8-6.5,9.3-11.5,12.5h6.7c2.3-2,4.7-3.9,7.1-5.8C1129.3,395,1131,398.1,1130.5,399.6z"/>
	<path class="st18" d="M1266.1,304.2c-1.3,0.3-2.7,0.6-4,1.1c-2.5,0.9-3.9,1.7-5.4,2c-1.2,3.4-5.3,14.8-6.5,18.5
		C1256.6,322.7,1262.5,309.5,1266.1,304.2z"/>
	<path class="st17" d="M1217.8,356.8v-0.5c0,3.1-3.4,5.1-6.3,5.6c0,1,0,2.6-0.6,3.6c-4.6,4.6-8.6,9.2-11.4,14.8
		c-0.6,1-2.9,1.5-4,2.6c0,1,0,2-0.6,3.1c-2.9,3.6-6.8,5.6-8.6,10.2c3.4-4.6,8.6-7.7,11.4-12.8c0.6-1.5,4.6-1,5.1-2.6
		c1.1-3.1,3.4-4.6,5.7-6.6c0.6-0.5-0.6-2.6,0-3.1c4-2,5.7-5.6,9.1-8.2c1.1,6.6-5.1,10.2-6.8,16.3c4.6-5.1,6.8-10.2,9.7-16.3
		c0.6-1.5,3.4-2,4-4.1c-0.5,5.1-2.4,9.7-2.8,14.7c2.7-5.8,3.8-12.1,6.8-17.8c0.5-1.4,3.5-10.1,6.2-11.7c-3,0.9-6.1,7.6-9.6,7.6
		C1225.7,355.7,1221.2,357.8,1217.8,356.8z"/>
	<path class="st17" d="M1273.7,373.1c-2.9,2.6-6.8,2-10.3,4.1c-0.6,0.5,0.6,2,0,2.6c-2.9,2-6.8,0.5-7.4,4.1c0.6-1,2.3-1.5,2.9-2
		c1.1-0.5,3.4,0,4.6-1c2.9-1.5,4.6-3.6,8-4.6c-1.7,2.6-2.3,5.1-4.6,7.7c0,0-1.1,1-1.7,1.5c-0.6,0.5,0,1.5,0,2.6
		c1.1-1.5,3.4-3.1,4-4.6c1.1-3.1,4-4.6,5.1-7.1c0.7,1.4,1.9,2.3,3.4,2.9c-0.7-1.5-1.1-3.1-1.1-4.9c0.2,0,0.5,0.1,0.7,0.1
		C1276.2,372.8,1274.1,372.2,1273.7,373.1z"/>
	<path class="st18" d="M1301.1,361.3c-6.3,0.5-13.7,0-20.5,2c-3.4,1-6.3,5.1-11.4,4.6c-1.1,0-1.7,3.6-3.4,4.1c-2.9,0.5-5.7,0-8.6,0
		c0,3.1-2.9,4.6-5.1,6.1c-6.3,3.1-12.6,3.1-17.7,8.7c-1.1,1.5-4-2.6-7.4-0.5c-5.1,2.6-10.3,6.1-16.5,6.6c-1.1,0-1.1,2-1.7,2.6
		c-5.7,3.6-12,3.1-18.3,3.6c5.1-1.5,9.1-3.6,13.1-7.1c2.9-3.1,8.6-2,13.1-3.6c1.7-1,2.3-3.6,2.9-4.1c3.4-1.5,8.6-1.5,11.4-3.1
		c9.7-3.6,19.4-7.1,28-13.8c0.6,0,1.7-1.5,2.3-1.5c6.3-3.1,12.6-4.1,17.7-8.7c-7.4,1-13.7,4.6-20.5,6.1c1.7-3.6,0.6-7.7,1.7-11.2
		c-6.3,4.6-6.3,11.2-12,16.3c-0.6,1-2.3,1.5-4,2c-0.6-5.6,4.6-10.7,1.7-16.3c-5.7,7.1-5.7,17.9-14.3,21.9c4-6.6,5.1-13.8,6.8-20.9
		c-2.3,3.1-3.4,7.7-6.8,10.2c-5.1,4.6-4.6,12.2-13.1,13.8c1.4-1.8,2.6-3.7,3.5-5.7c0.4-5,2.3-9.6,2.8-14.7c-0.6,2-3.4,2.6-4,4.1
		c-2.9,6.1-5.1,11.2-9.7,16.3c1.7-6.1,8-9.7,6.8-16.3c-3.4,2.6-5.1,6.1-9.1,8.2c-0.6,0.5,0.6,2.6,0,3.1c-2.3,2-4.6,3.6-5.7,6.6
		c-0.6,1.5-4.6,1-5.1,2.6c-2.9,5.1-8,8.2-11.4,12.8c1.7-4.6,5.7-6.6,8.6-10.2c0.6-1,0.6-2,0.6-3.1c1.1-1,3.4-1.5,4-2.6
		c2.9-5.6,6.8-10.2,11.4-14.8c0.6-1,0.6-2.6,0.6-3.6c2.9-0.5,6.3-2.6,6.3-5.6v0.5c3.4,1,8-1,7.4-5.1c3.5,0,6.6-6.7,9.6-7.6
		c0.2-0.1,0.4-0.2,0.6-0.4c2.9-2,7.4,1,10.8-0.5c5.5-2.4,10.4,0,15.8-2.2c0.8-1.5,1.4-3.2,1.9-4.9c-3.4,2.6-8,1.5-11.4,4.6
		c-2.9,2.6-7.4,1-12,1.5c6.3-2,11.4-3.1,16-6.6c2.3-2,6.3,0,8.6-2c0.6-0.5,0-2,0-2.5c1.7-0.5,4.6-1,5.1-2c3.7-3.7,5.3-13.9,2.7-18.3
		c-0.8,4.2-2.7,12.6-6.7,13.8c-10.3,4.1-20,6.1-29.7,12.2c-5.1,2.5-13.1,0-13.7,2c-3.4,9.2-10.3,19.2-19.4,21.8
		c1.1,1.5,1.1,3.6,0,5.1c-0.6,1-4,1-4,2c-1.7,6.6-6.3,10.2-11.4,14.3c-1.1,1,0,2-0.6,2.6c-4.6,1.5-10.3,0.5-13.1,3.6
		c-1.7,1.5-2.9,4.1-4.6,5.1c-5,3.1-9.8,6.1-14.6,8.9h58.4c5.1-2.6,10.2-5.2,15.6-7.4c8-3.1,15.4-7.1,23.4-10.2
		c-5.7,3.6-9.7,8.2-14.3,12.8c6.3-1,11.4-4.1,16.5-7.1c1.1-0.5,3.4,0,5.1-2c2.9,2.6,5.7,4.6,9.7,4.6c0-0.5,0.6-1,0.6-1.5
		c1.7-1.5,4.6,0.5,5.1-0.5c2.3-1.5,0-4.6,0.6-7.1c2.9,3.1,5.7,6.6,9.7,8.7c0-1.5,0.6-3.1,0-4.1c-3.2-2.9-6.4-5.5-8-8.9
		c-1.5-0.6-2.7-1.4-3.4-2.9c-1.1,2.6-4,4.1-5.1,7.1c-0.6,1.5-2.9,3.1-4,4.6c0-1-0.6-2,0-2.6c0.6-0.5,1.7-1.5,1.7-1.5
		c2.3-2.6,2.9-5.1,4.6-7.7c-3.4,1-5.1,3.1-8,4.6c-1.1,1-3.4,0.5-4.6,1c-0.6,0.5-2.3,1-2.9,2c0.6-3.6,4.6-2,7.4-4.1
		c0.6-0.5-0.6-2,0-2.6c3.4-2,7.4-1.5,10.3-4.1c0.5-0.8,2.5-0.3,3.5,1.1c8.6,1.1,16.7,4.4,24.7,7.7c0.5-0.4,1.1-0.7,1.4-0.7
		c4-1.5,10.3-0.5,11.4-3.1c2.3-3.6,5.1-6.6,7.4-10.2C1313.6,367,1307.3,361.3,1301.1,361.3z"/>
	<path class="st17" d="M1270.2,328.9c-0.6,1-3.4,1.5-5.1,2c0,0.5,0.6,2,0,2.5c-2.3,2-6.3,0-8.6,2c-4.6,3.6-9.7,4.6-16,6.6
		c4.6-0.5,9.1,1,12-1.5c3.4-3.1,8-2,11.4-4.6c-0.5,1.7-1.1,3.4-1.9,4.9c0.2-0.1,0.5-0.2,0.7-0.3c2.3-1,2.3-4.6,3.4-6.1
		c1.7-2,7.4,0,8.6-1.5c2.9-4.1,0.8-13.9,0.8-19c0-2.5-1.1-4.7-1.2-7c0,0,0,0,0,0c-0.2,0.1-0.4,0.1-0.6,0.1c-0.4,1.1-0.6,2.3-0.8,3.5
		C1275.5,315,1273.9,325.1,1270.2,328.9z"/>
	<path class="st14" d="M1372.1,372c0.1,0.2,0.2,0.4,0,0.6C1372.1,372.5,1372.1,372.3,1372.1,372z"/>
	<path class="st15" d="M1280.6,407c0.6-0.3,1.2-0.5,1.9-0.8c-1.5,0.2-3,0.3-4.5,0.5C1278.8,406.7,1279.7,406.9,1280.6,407z"/>
	<path class="st15" d="M1199.2,410.6c1-0.2,2-0.4,3-0.6c-0.2-0.1-0.5-0.2-0.7-0.3C1200.7,410,1200,410.3,1199.2,410.6z"/>
	<path class="st15" d="M1210.5,408.2c0.1,0,0.2,0,0.3-0.1c0-0.1-0.1-0.3-0.1-0.4C1210.6,407.9,1210.6,408.1,1210.5,408.2z"/>
	<path class="st13" d="M1065.2,398.5c0,0.2,0,0.5,0,0.7C1065.4,399,1065.5,398.8,1065.2,398.5z"/>
	<path class="st13" d="M1352.5,397.8c-0.9-0.1-1.8-0.4-2.6-0.7C1349.7,398,1352.4,398.9,1352.5,397.8z"/>
	<path class="st17" d="M1172.5,405.7c-2.1,4.4-10-11.6-14.3-7.9c-0.7,0.6-1.3,1.3-2.1,1.9c-0.8,0.6-1.8,1.2-2.7,1.7
		c-7.1,4.3-12.1,9.8-16.9,15.2c4.9-3.7,10-7.2,15.4-10.6c-1.8,1.9-3.5,3.8-5.3,5.7c1.7-1.3,2.4-3,3.5-4.5c1.2-1.5,3.2-3,5.9-3
		c1.1,0,2.2,0.2,3.2,0c1.4-0.3,2.1-1.3,2.6-2.2C1164.3,396.8,1166.2,409.3,1172.5,405.7z"/>
	<path class="st16" d="M1352.5,401.9h46.1c0,0,4.4,0.7-3.7,8.3c-8.1,7.6-9.3,7.4-10.1,10.6s-2.6,9-2.6,9v6l-26.6-9.4
		c0,0,3.6-3.4,4-5.6c0.3-2.2,7.1-4.2,7.1-4.2H1356l-6.6,7.5l-31.6-11.2c0,0,8.5,2.3,14.3-0.3c5.8-2.6,9.3-4.6,9.3-4.6s1.9,1.5,5,0
		C1349.6,406.5,1352.5,401.9,1352.5,401.9z"/>
	<polyline class="st16" points="1213.2,987.6 1202.6,958.2 1202.6,918.7 	"/>
	<path class="st16" d="M1226.6,547.8L1194,597l-6.8,49.2c0,0-27.4,22.8-24.1,41.9s0,40.1,0,40.1l25.9-29.1l2.7-11.6l9.4-0.4
		c0,0,11.6-8.5,9.8-11.6s3.1-25.5,3.1-25.5l18.4-9.8c0,0,29-37.1,22.9-44.3c-6-7.2-19-29.9-9.2-37.1c9.8-7.2,17.9-21.9,17.9-21.9
		s-6.7,13.6-17.9,15.5s-2.2-9.7-2.2-12c0-2.2,1.3,2.4-8,4.9S1226.6,547.8,1226.6,547.8"/>
	<path class="st16" d="M1145.6,788.5c0,0-0.3-3.6,1.2-4.2c1.6-0.6,1.8-3.9,1.8-3.9s1,6.4,2.1,6.6c1,0.2,4.1-3.1,4.1-3.1
		s1-4.4,4.9-4.8c3.9-0.4,8.3-2.7,8.8-3.9c0.5-1.2-0.5,5,2.6,5.3c3.1,0.3-0.8-0.4-0.6,2.3c0.1,2.7,1.9,7.5,1.9,7.5s-2-0.9-5.4,4.6
		c-3.4,5.5-12.1,22.1-12.1,22.1l-2.9-4.2v-16.2L1145.6,788.5z"/>
	<path class="st16" d="M1132.5,699.9c0,0,4.4,22.9,7.3,24.9s-1,6.5,0,8.4s5.8,4.2,5.8,4.2l3.8-2.9c0,0-1.6,21.6,0,24.5
		c1.6,2.9-5.6,11.6-5.6,11.6l-0.6-11.7c0,0-2.1-4.9-4.1-8.3C1137.1,747.2,1133.6,742.8,1132.5,699.9z"/>
	<path class="st16" d="M1136.4,416.6c0,0,5.9-4.4,9.8-6.9c3.9-2.5-2.5,2-3.5,5.4c-1.1,3.4,1.1,7.2,1.3,10.7s0.4,6.9,0.2,8
		c-0.2,1.1,1.5-9.8,2.3-12.4c0.9-2.7,2.6-4.8,2.6-4.8s-0.4,3.5,0,4.8c0.4,1.3,2.3-2.7,2.3-2.7l6.4-2.1l1.7-2.8c0,0,4.3,5.2,4.3,7.6
		c0,2.4,0,7.5,0,7.5l2.3-6.2c0,0,1.3-5.4,3.4-6.1c2.1-0.7,5.2-0.3,6.4,1.9s2.1,2.6,2.7,6.2c0.6,3.6,2.9,3.8,1.7,9.2
		c-1.2,5.5-2.5,6.5-2.5,6.5l2.9-3c0,0,1.2-3.2,2-5.1c0.9-1.9,0,4.3,0,4.3s3.2-8.5,5.3-9.8s5.6-7,11.2-6.2c5.6,0.9,4.5,2.6,7.5,4.1
		c3,1.5,6.6-3.2,10.4,2.7s13,10.9,13,10.9l1.5-8.9l-5.3-9.7c0,0-8.1-3.9-8.3-5.8c-0.2-2,2.3-7.9,0.2-8.8c-2.1-0.9-7.5-1.9-4.6-3.2
		c2.9-1.3-60.3-0.4-60.3-0.4"/>
	<path class="st19" d="M1377.4,410.3c-0.6,0.8-1.7,1.3-2.7,1.8c-1.5,5.4-4.9,8.3-7,13.9c3.4-3.6,5.1-6,7.4-10
		c-0.6,5.6,2.3,10-4,13.6c0,0.5,1.7,2,1.1,2.6c-2.9,2-6.3,2-9.7,3.1c-0.6,0-1.7,2.6-2.3,2.6c-6.3,2.6-8.6,3.7-12,7.8
		c2.9-2,4.6-5.1,7.4-7.1c2.3-1.5,5.1,0.8,6.8-1.2c1.1-0.5,2.3-1.5,4-1c-1,1.2-2.1,2.4-3.2,3.7c5.9-2.7,12.4-5.2,13.4-9.8
		c1.1-3.6-0.6-6,1.1-11.6C1379.1,416.9,1377.4,413.3,1377.4,410.3z"/>
	<path class="st19" d="M1198.7,656.1c1.1-1.5,2.9-0.5,4-0.5c5.1-1.5,6.3-11.6,10.8-13.6c5.7-2.6,6.3-9.2,9.7-14.3
		c1.1-1.5,4-2.6,4.6-4.6c1.1-2.6,1.9-14.6,3.6-15.6c5-3.3,8.2-27.6,9.9-32.2c-2.6-0.6-4.6,0.7-6.7,2.1c-3.3,4.6-7,8.9-8.9,14.4
		c-1.1,2-5.3,31.8-7.6,32.8c4.1-4.4,6.3-15.9,8.8-22.6c0.4-1-6.9-14.9-6.5-15.6c-1.2,0.2,0.7,5.6-0.5,5.7
		c-0.3,0.7-1.6,13.7-0.8,15.6c4,9.3-3.7,19.3-4.5,28.1c-0.6-0.5-2.3,1-2.9-0.5c-1.7,4.1-2.3,14.1-6.3,16.7
		c2.9-6.1,6.3-18.2,7.4-24.8c1.1,2,0.6,3.6,0.6,5.6c2.5-7.7,1.4-30.3,3.6-38c-1.1,0.7-5.7,3.4-6.8,4c-4.4,2.1-4.3,10.6-8.8,12.6
		c-1.3,0.6-4.9,7.8-5.9,7.9c0.1,3.7,3.9,7.8,2.4,10.4c-1.1,3.1-1.7,6.6-1.7,10.2c1.1-2,4-4.1,4-6.1c1.1-6.1,2.9-10.2,6.8-14.8
		c0,2.6,0,5.6-0.6,8.2c2.9-2.6,4.8-14.6,6.5-17.7c0.6,9.7-4.8,27.9-11.6,35c-2.3,1.5-5.1,0-7.4,0.5c-1.1,0,0,8.5-0.6,10
		c-2.9,5.1-7.4,12.1-8,17.7C1191.2,669.2,1193.5,660.2,1198.7,656.1z"/>
	<path class="st19" d="M1223.4,426.7c-0.6-1.2-1.4-2.2-3-2.9c-2.4-1.2-6-0.7-8.1-1.8c-1.3-0.7,0.7-3-1.7-3.9c-3.7-1.2-5-3.2-6-5.5
		c-1.9-4-5.8-7.1-8.9-10.6c1.5,1,2.8,2.1,4.7,2.9c1,0.4,2,0.8,3.1,1c1,1.5,1.9,2.9,2.8,4.4c0.3,0.7,2,0.9,2.7,1.8
		c2,3.2,3,6.5,8.7,7.8c1,0.2,0.7,1.2,1.3,1.8c4.4,3.2,9.4,5.8,12.1,9.7C1229,429.5,1226.3,428,1223.4,426.7z"/>
	<path class="st19" d="M1109.4,637.5c0,0,2.2,9,4.8,15.7c2.6,6.6,6.2,16,6.2,16s6-6.4,11.6-5.6c5.6,0.8,10.8-15.9,10.8-15.9
		s-5.2,8.2-7.7,7.9c-2.5-0.3-4.4-2.2-2.6-5.9s3.8-8.7,3.8-10.4s6.6-4.5,6.6-4.5l-3.2-9.6v5.6c0,0-4.8,5.9-5.6,4.5
		c-0.8-1.4,0-2.9,0-2.9l-3.1,7.6l-9-3.4c0,0,1.7,5.6,1.7,9.3s1.1,11.5-1.7,9S1113.8,648.7,1109.4,637.5z"/>
	<path class="st19" d="M1279.8,515.7c3.2,7.3,12.5,10,12.2,18c0,0.6,1.1,1.7,1.6,2.2c-3.1-0.5-5.7-1.6-8.7-2.1
		c0,1.7,1.6,3.4,2.6,3.4c5.7,2.1,8.8,6.6,6.9,11.2c0,1.7-4.1-1.6-6.7-1c3.7,3.3,8.3,5.5,11.5,9.4c1,1.1,1.1,4.5,2.7,5.6
		c3.7,4.5,5.9,10.1,9.1,15.2c-0.7-6.8-4.9-11.3-7.6-17.5c-6.5-13.5-4.8-29.6-14.8-41.9c-1.6-1.7-0.1-4.6,1.4-6.9
		c-4.9-2.4-9.5-6.2-12.7-11.2l0.2,6.7c2,2.3,4,4.6,6,7C1284.3,514.4,1281.3,516.2,1279.8,515.7z"/>
	<path class="st16" d="M1252.3,833.9c-1.9,10.9-6.9,13.8-10.1,15.6s0,5.8,0,13s-0.8,25.7-1.6,29.2s-2.7,5-2.7,11.4
		c0,6.4,0.3,11.9-4.8,20.4c-5,8.5-9.8,30.2-9.8,30.2l-1.6,21.2c0,0-0.5,1.3-4.2,8.7c-3.7,7.4-4.5,4-4.5,4s-9.3-24.1-10.6-29.4
		c-1.3-5.3,1.3-32.3,0-39.5c-1.3-7.2-5.8-20.9-10.3-27c-4.5-6.1-1.9-23.6-4-26.2c-2.1-2.7-1.6-21.7-2.1-26c-0.5-4.2-6.1-7.4-6.1-7.4
		s1.6-4.2,5.6-6.9c3.9-2.6,8.2-7.5,8.2-10.2s2-9.8-1.6-14.4c-3.6-4.6,12.1,5.9,13.4,10.8c1.3,4.9-0.7,15.1-0.7,15.1l11.3,16.1
		c0,0,2.5,6.6,2.5,7.9c0,1.3-0.7-11.5,6.6-14.4s3.6-9.5,10.5-11.1c6.9-1.6,19-7.9,19-7.9L1252.3,833.9z"/>
	<path class="st19" d="M1223.6,953.7l-1.6,21.2c0,0-0.5,1.3-4.3,8.7c-3.8,7.4-4.6,4-4.6,4s-9.4-24.1-10.7-29.4c0,0-0.7-5.7-0.4-7.2
		c0.3-1.5,0.4,3.3,1.7,3.5c1.2,0.3,2.2,1.2,2.2,1.2s-1.2-4.5,0.5-6.5c1.8-2,2.9-5.6,2.7-6.8c-0.1-1.2,1.5-6.5,1.5-6.5
		s1.8,6.1,1.4,7.8c-0.4,1.6,3,5,3,6c0,1,2.9,3.5,2.9,3.5s1-0.8,1.8-1.2c0.8-0.4,1.1-1.9,1.1-1.9S1222.4,955.5,1223.6,953.7z"/>
	<path class="st19" d="M1231.6,838.3c0,0-6.2,2.6-6.2,6.9c0,4.3-1.8,10.4-1.8,10.4l4,4.6c0,0,2.1,2,1.2,6.1s2.8,8.4,2.8,8.4v8.4
		c0,0,4.2-5.8,4.2-10.1c0-4.3,0.9-2.6,0-7.8s2.3-11.8,2.3-11.8S1227.6,851.9,1231.6,838.3z"/>
	<path class="st19" d="M1167.9,538.8c0,0,4.8,4.7,2.8,7.4c-2,2.7,3.3-1.1,3.3-1.1l-7.3,16.9l5.1,4.9c0,0-0.9,0.3-0.5,2.3
		c0.4,2.1,6.3-13.5,6.3-13.5s-1.5-5.2-0.6-8.2c0.9-3,2.2-5.2,1.6-6.4c-0.6-1.2,1.9-10.3,1.9-10.3s-2,5.6-3.9,5.2
		C1174.9,535.6,1168.8,536,1167.9,538.8z"/>
	<path class="st19" d="M1190.2,864.1c2.5,7.6,11.5,11.1,10.5,19c0,0.6,0.9,1.8,1.4,2.4c-3-0.8-5.5-2.1-8.5-2.9
		c-0.1,1.7,1.3,3.5,2.3,3.6c5.4,2.7,8.2,7.4,5.8,11.8c-0.1,1.7-4-2-6.5-1.6c3.3,3.7,7.8,6.3,10.5,10.4c0.9,1.2,0.7,4.6,2.2,5.9
		c3.2,4.8,4.9,10.6,7.6,16c0-6.9-3.8-11.7-5.9-18.1c-5.2-14.1-2-29.9-10.8-43.1c-1.4-1.8,0.3-4.6,2-6.7c-4.6-2.8-8.9-7.1-11.6-12.4
		l-0.5,6.7c1.8,2.5,3.6,4.9,5.3,7.5C1194.9,863.3,1191.7,864.8,1190.2,864.1z"/>
</g>
<g class="st0">
	
		<radialGradient id="SVGID_1_" cx="959.6454" cy="1347.6294" r="693.0947" gradientTransform="matrix(1 0 0 1.2158 0 -805.7819)" gradientUnits="userSpaceOnUse">
		<stop  offset="0" style="stop-color:#01323E;stop-opacity:0.5"/>
		<stop  offset="1" style="stop-color:#01323E;stop-opacity:0"/>
	</radialGradient>
	<path class="st20" d="M1919.3,602c-62.8-4.4-126-7.9-190-10c-132.5-4.2-266.4-2-398.3,4.1c-155.2,7.2-308.2,19.9-464.5,23.5
		c-136.1,3.1-273-0.8-407.5-8.2c-89.9-5-179.8-11.6-270.9-11.1C123.2,600.6,56.5,605,0,615.3v460.1h1919.2V602z"/>
	<linearGradient id="SVGID_2_" gradientUnits="userSpaceOnUse" x1="2.652219e-02" y1="779.4796" x2="1919.6259" y2="779.4796">
		<stop  offset="0" style="stop-color:#01323E"/>
		<stop  offset="1" style="stop-color:#01323E;stop-opacity:0"/>
	</linearGradient>
	<path class="st21" d="M1919.6,1073.7l-0.4-485.5c-162.4-37-322.6-83.8-489.2-98c-109.6-9.4-220.3-4.5-329.4,9.1
		c-128.3,16-254.9,44.1-384.1,52c-112.5,6.9-225.7-1.7-337-18.3c-74.3-11.1-148.7-25.7-224-24.6C101.9,509.2,46.7,519,0,541.7
		l0.4,532H1919.6z"/>
	<radialGradient id="SVGID_3_" cx="960.0132" cy="735.2408" r="721.0012" gradientUnits="userSpaceOnUse">
		<stop  offset="0" style="stop-color:#01323E;stop-opacity:0.5"/>
		<stop  offset="1" style="stop-color:#01323E;stop-opacity:0"/>
	</radialGradient>
	<path class="st22" d="M1920,397.3c-62.8-3.6-224.8,14.7-288.9,13c-132.5-3.5-167.6-22.9-299.4-17.9c-155.2,6-264.1,3.3-420.4,6.3
		c-136.1,2.6-317.1,12.4-451.6,6.3c-89.9-4.1-179.8-9.6-270.9-9.1c-64.9,0.3-131.6,4-188.1,12.4L0,1078.9h1919.2L1920,397.3z"/>
	<path class="st23" d="M0,1075.4V758.8c162.4-38.9,322.6-87.9,489.2-102.9c109.6-9.9,220.3-4.8,329.4,9.5
		c128.3,16.8,254.9,46.3,384.1,54.5c112.5,7.2,225.7-1.8,337-19.2c74.3-11.6,148.7-27,224-25.8c53.7,0.9,108.8,11.2,155.5,35v365.5
		H0z"/>
	<path class="st24" d="M1919.3,1072.9V874.5c-162.4-24.4-322.6-55.1-489.2-64.5c-109.6-6.2-220.3-3-329.4,6
		c-128.3,10.5-254.9,29-384.1,34.2c-112.5,4.5-225.7-1.1-337-12c-74.3-7.3-148.7-16.9-224-16.2c-53.7,0.5-108.8,7-155.5,21.9l0,229
		H1919.3z"/>
	<path class="st25" d="M0,1075.4l0-145.2c162.4-17.8,322.6-40.3,489.2-47.2c109.6-4.5,220.3-2.2,329.4,4.4
		c128.3,7.7,254.9,21.2,384.1,25c112.5,3.3,225.7-0.8,337-8.8c74.3-5.3,148.7-12.4,224-11.8c53.7,0.4,108.8,5.1,155.5,16v167.5H0z"
		/>
</g>
<g class="st0">
	<g class="st3">
		<text transform="matrix(1 0 0 1 486.5065 331.3057)" class="st26 st27 st28">HOW  WE WORK</text>
	</g>
	<g class="st3">
		<g>
			<text transform="matrix(1 0 0 1 486.5063 451.7621)" class="st26 st29 st30">FE DEVELOPMENT</text>
		</g>
		<g>
			<text transform="matrix(1 0 0 1 486.5063 477.6793)" class="st31 st29 st32">BE collaboration with other teams</text>
		</g>
	</g>
	<g class="st3">
		<g>
			<text transform="matrix(1 0 0 1 486.5063 549.4101)" class="st26 st29 st30">UI DESIGN</text>
		</g>
		<g>
			<text transform="matrix(1 0 0 1 486.5063 575.3276)" class="st31 st29 st32">Design thinking</text>
		</g>
	</g>
	<g class="st3">
		<g>
			<text transform="matrix(1 0 0 1 486.5065 940.0039)" class="st26 st29 st30">GATHER REQUIREMENTS</text>
		</g>
		<g>
			<text transform="matrix(1 0 0 1 486.5065 965.921)" class="st31 st29 st32">Identify and prioritize needs</text>
		</g>
	</g>
	<g class="st3">
		<g>
			<text transform="matrix(1 0 0 1 486.5063 744.7073)" class="st26 st29 st30">IDEATE</text>
		</g>
		<g>
			<text transform="matrix(1 0 0 1 486.5068 770.6243)" class="st31 st29 st32">Whiteboarding, HTML prototype</text>
		</g>
	</g>
	<g class="st3">
		<g>
			<text transform="matrix(1 0 0 1 486.5071 647.059)" class="st26 st29 st30">EVALUATE</text>
		</g>
		<g>
			<text transform="matrix(1 0 0 1 486.5066 672.976)" class="st31 st29 st32">User testing, Iteration</text>
		</g>
	</g>
	<g class="st3">
		<g>
			<text transform="matrix(1 0 0 1 486.5065 842.3556)" class="st26 st29 st30">USER RESEARCH </text>
		</g>
		<g>
			<text transform="matrix(1 0 0 1 486.507 868.2726)" class="st31 st29 st32">Interviews, Data analyse</text>
		</g>
	</g>
</g>
<g>
	<g>
		<g>
			<g>
				<path class="st33" d="M1158.5,177.4c-0.4,2.9-1,8.3,0.4,11.3c2.1,4.6,8.6,7.9,11.6,9c-2.1-2.7-3.1-5-2.6-6.6
					c0.1-0.5,1.1,1.3,2.8,1.6c-0.6-1.9-0.5-2.4-0.5-3.8c0-1.4-0.3-3.9-1.2-5.3c-3-4.6-8.2-6.3-9.2-6.8L1158.5,177.4z"/>
				<path class="st34" d="M1158.5,177.4c-0.3,1.2-0.4,5.7,0.8,7.7c1.2,2,5.8,4.1,8,6.1c-0.5-2.2-1.1-2.9-0.8-4.8
					c0.2-1.8,0.2-2.1-0.1-3.1c-0.3-1-2.2-3.1-4.1-4.7c-2-1.7-2.5-1.9-2.5-1.9L1158.5,177.4z"/>
				<path class="st35" d="M1158.5,177.4c-0.1,1.5,0.3,5.6,1.6,6.6c1.3,1.1,2.3,0.7,4.5,2.3c0-0.9-1.3-2.3-0.9-3.2
					c0.5,0.5,0.7,0.8,1.4,1c-0.6-0.8-0.6-1.8-1.1-2.9c-0.6-1.3-1.9-2.1-2.8-2.9c-1-0.9-1.4-1.6-1.4-1.6L1158.5,177.4z"/>
			</g>
			<g>
				<path class="st36" d="M1159.3,178c-2.2,1.2-4.2,1.7-4.5,1.1l0.6,1.1c0.3,0.6,2.4,0.1,4.5-1.1c2.2-1.2,3.6-2.7,3.3-3.3l-0.6-1.1
					C1162.9,175.3,1161.4,176.8,1159.3,178z"/>
				<path class="st36" d="M1160,179.3c-1.6,0.9-3.2,1.3-3.4,0.8l0.5,0.8c0.3,0.5,1.8,0.1,3.4-0.8c1.6-0.9,2.7-2,2.5-2.5l-0.5-0.8
					C1162.8,177.3,1161.6,178.4,1160,179.3z"/>
				<g>
					<path class="st37" d="M1148,164.8c0.4,2.7,1.5,6.3,3.9,10.5c1.3,2.2,2.2,3.9,2.2,3.9s3.3-0.6,5-1.6c1.7-1,4-3.4,4-3.4
						s-0.8-1.7-2.1-4c-2.3-4.1-4.9-6.9-7.1-8.7c-0.7,0.7-1.6,1.4-2.7,2C1150,164.1,1148.9,164.5,1148,164.8z"/>
					<path class="st38" d="M1148.5,158.9c-0.5,0.3-1.1,2.4-0.6,5.9c1-0.3,2.1-0.7,3.2-1.3c1-0.6,2-1.3,2.7-2
						C1151.1,159.3,1149,158.6,1148.5,158.9z"/>
				</g>
				<path class="st36" d="M1158.4,176.5c-2.5,1.4-4.9,2-5.3,1.3l0.7,1.3c0.4,0.7,2.8,0.1,5.3-1.3c2.5-1.4,4.2-3.1,3.8-3.8l-0.7-1.3
					C1162.6,173.4,1160.9,175.1,1158.4,176.5z"/>
			</g>
			<g>
				<path class="st39" d="M1162.6,175.1c-0.2,0.3-0.6,0.6-1,1c0,0.1,0.1,0.1,0.1,0.2C1162.2,175.8,1162.5,175.4,1162.6,175.1z"/>
				<path class="st39" d="M1162.5,177.2c-0.1,0.1-0.2,0.2-0.3,0.2c0,0,0,0.1,0,0.1C1162.4,177.4,1162.5,177.3,1162.5,177.2z"/>
				<path class="st37" d="M1163,174.2C1163,174.2,1163,174.2,1163,174.2C1163,174.2,1163,174.2,1163,174.2
					C1163,174.2,1163,174.2,1163,174.2z"/>
				<g>
					<path class="st40" d="M1161.7,176.3c0.2,0.4,0.4,0.8,0.6,1.2c0.1-0.1,0.2-0.2,0.3-0.2c0.1-0.2,0.1-0.3,0-0.4l0.1,0.2
						c0.5-0.5,0.7-1,0.6-1.3l-0.5-0.8c0,0.1-0.1,0.1-0.1,0.2C1162.5,175.4,1162.2,175.8,1161.7,176.3z"/>
					<path class="st40" d="M1162.5,177.2c0,0.1-0.1,0.2-0.2,0.3c0.1,0.3,0.3,0.6,0.4,0.9c0.3-0.3,0.4-0.6,0.3-0.8l-0.3-0.6l-0.1-0.2
						C1162.6,176.9,1162.6,177,1162.5,177.2z"/>
					<path class="st41" d="M1160,173c0.3,0.6,0.7,1.2,1,1.8c0.9-0.8,1.5-1.5,1.4-2c-0.4-0.7-0.8-1.6-1.4-2.6
						c-2.3-4.1-4.9-6.9-7.1-8.7c-0.4,0.4-0.8,0.7-1.3,1.1C1154.9,165.2,1157.6,168.8,1160,173z"/>
					<path class="st42" d="M1153.8,161.5c-2.7-2.2-4.8-2.9-5.3-2.6c-0.1,0-0.1,0.1-0.2,0.2c1.2,0.7,2.7,1.9,4.2,3.5
						C1153,162.2,1153.4,161.9,1153.8,161.5z"/>
					<path class="st40" d="M1160.9,174.8c0.2,0.4,0.5,0.9,0.7,1.3c0.4-0.3,0.7-0.7,1-1c0.1-0.1,0.1-0.1,0.1-0.2
						c0.2-0.3,0.3-0.5,0.3-0.7c0,0,0,0,0,0c0-0.1,0-0.2-0.1-0.2l-0.7-1.3c0,0,0,0.1,0,0.1C1162.4,173.2,1161.9,174,1160.9,174.8z"/>
				</g>
			</g>
		</g>
		<g>
			<g>
				<path class="st33" d="M1165.9,176.3c-0.4,2.8-1,8.3,0.4,11.3c2.1,4.6,8.6,7.9,11.6,9c-2.1-2.7-3.1-5-2.6-6.6
					c0.1-0.5,1.1,1.3,2.8,1.6c-0.6-1.9-0.5-2.4-0.5-3.8c0-1.4-0.3-3.9-1.2-5.3c-3-4.6-8.2-6.3-9.2-6.8L1165.9,176.3z"/>
				<path class="st34" d="M1165.9,176.3c-0.3,1.2-0.4,5.7,0.8,7.7c1.2,2,5.8,4.1,8,6.1c-0.5-2.2-1.1-2.9-0.8-4.8
					c0.2-1.8,0.2-2.1-0.1-3.1c-0.3-1-2.2-3.1-4.1-4.7c-2-1.7-2.5-1.9-2.5-1.9L1165.9,176.3z"/>
				<path class="st35" d="M1165.9,176.3c-0.1,1.5,0.3,5.6,1.6,6.6c1.3,1.1,2.3,0.7,4.5,2.3c0-0.9-1.3-2.3-0.9-3.2
					c0.5,0.5,0.7,0.8,1.4,1c-0.6-0.8-0.6-1.8-1.1-2.9c-0.6-1.3-1.9-2.1-2.8-2.9c-1-0.9-1.4-1.6-1.4-1.6L1165.9,176.3z"/>
			</g>
			<g>
				<path class="st36" d="M1166.7,176.9c-2.2,1.2-4.2,1.7-4.5,1.1l0.6,1.1c0.3,0.6,2.4,0.1,4.5-1.1c2.2-1.2,3.6-2.7,3.3-3.3
					l-0.6-1.1C1170.3,174.2,1168.9,175.7,1166.7,176.9z"/>
				<path class="st36" d="M1167.5,178.2c-1.6,0.9-3.2,1.3-3.4,0.8l0.5,0.8c0.3,0.5,1.8,0.1,3.4-0.8c1.6-0.9,2.7-2,2.5-2.5l-0.5-0.8
					C1170.2,176.2,1169.1,177.3,1167.5,178.2z"/>
				<g>
					<path class="st37" d="M1155.4,163.7c0.4,2.7,1.5,6.3,3.9,10.5c1.3,2.2,2.2,3.9,2.2,3.9s3.3-0.6,5-1.6c1.7-1,4-3.4,4-3.4
						s-0.8-1.7-2.1-4c-2.3-4.1-4.9-6.9-7.1-8.7c-0.7,0.7-1.6,1.4-2.7,2C1157.5,163,1156.4,163.5,1155.4,163.7z"/>
					<path class="st38" d="M1156,157.8c-0.5,0.3-1.1,2.4-0.6,5.9c1-0.3,2.1-0.7,3.2-1.3c1-0.6,2-1.3,2.7-2
						C1158.6,158.3,1156.4,157.5,1156,157.8z"/>
				</g>
				<path class="st36" d="M1165.9,175.4c-2.5,1.4-4.9,2-5.3,1.3l0.7,1.3c0.4,0.7,2.8,0.1,5.3-1.3c2.5-1.4,4.2-3.1,3.8-3.8l-0.7-1.3
					C1170.1,172.3,1168.4,174,1165.9,175.4z"/>
			</g>
			<g>
				<path class="st39" d="M1170,174c-0.2,0.3-0.6,0.6-1,1c0,0.1,0.1,0.1,0.1,0.2C1169.6,174.8,1169.9,174.4,1170,174z"/>
				<path class="st39" d="M1169.9,176.1c-0.1,0.1-0.2,0.2-0.3,0.2c0,0,0,0.1,0,0.1C1169.8,176.3,1169.9,176.2,1169.9,176.1z"/>
				<path class="st37" d="M1170.5,173.1C1170.5,173.1,1170.5,173.1,1170.5,173.1C1170.5,173.1,1170.5,173.1,1170.5,173.1
					C1170.5,173.1,1170.5,173.1,1170.5,173.1z"/>
				<g>
					<path class="st40" d="M1169.1,175.2c0.2,0.4,0.4,0.8,0.6,1.2c0.1-0.1,0.2-0.2,0.3-0.2c0.1-0.2,0.1-0.3,0-0.4l0.1,0.2
						c0.5-0.5,0.7-1,0.6-1.3l-0.5-0.8c0,0.1-0.1,0.1-0.1,0.2C1169.9,174.4,1169.6,174.8,1169.1,175.2z"/>
					<path class="st40" d="M1169.9,176.1c0,0.1-0.1,0.2-0.2,0.3c0.1,0.3,0.3,0.6,0.4,0.9c0.3-0.3,0.4-0.6,0.3-0.8l-0.3-0.6l-0.1-0.2
						C1170,175.8,1170,176,1169.9,176.1z"/>
					<path class="st41" d="M1167.4,171.9c0.3,0.6,0.7,1.2,1,1.8c0.9-0.8,1.5-1.5,1.4-2c-0.4-0.7-0.8-1.6-1.4-2.6
						c-2.3-4.1-4.9-6.9-7.1-8.7c-0.4,0.4-0.8,0.7-1.3,1.1C1162.4,164.1,1165,167.7,1167.4,171.9z"/>
					<path class="st42" d="M1161.3,160.4c-2.7-2.2-4.8-2.9-5.3-2.6c-0.1,0-0.1,0.1-0.2,0.2c1.2,0.7,2.7,1.9,4.2,3.5
						C1160.4,161.2,1160.9,160.8,1161.3,160.4z"/>
					<path class="st40" d="M1168.4,173.7c0.2,0.4,0.5,0.9,0.7,1.3c0.4-0.3,0.7-0.7,1-1c0.1-0.1,0.1-0.1,0.1-0.2
						c0.2-0.3,0.3-0.5,0.3-0.7c0,0,0,0,0,0c0-0.1,0-0.2-0.1-0.2l-0.7-1.3c0,0,0,0.1,0,0.1C1169.8,172.1,1169.3,172.9,1168.4,173.7z"
						/>
				</g>
			</g>
		</g>
		<g>
			<path class="st43" d="M1125.5,153.7c-0.7-1.1-2.5-3.2-4.7-1.3c-2.2,1.9,1.3,4.3,1.3,4.3L1125.5,153.7z"/>
		</g>
		<path class="st44" d="M1153,181.9c-0.3-0.2-1.5,4.1-1.5,4.1c0.5,0,1.3-0.2,1.9-0.4c-0.1,0.4-0.2,0.8-0.3,1.2
			c-0.5,2.4,0.1,4.5,1.4,4.8c0.9,0.2,1.2-2,1.6-4.2c0.2-1.1,0.5-2.1,0.6-2.9l0,0l0.3-1.4c0,0-0.4-0.6-2.4-0.2
			C1154.2,182.9,1153.3,182,1153,181.9z M1156.7,183.2L1156.7,183.2L1156.7,183.2L1156.7,183.2z"/>
		<path class="st45" d="M1154.5,176.1c0.8,0.3,1.2,0.7,1.4,1.1c0.2,0.4,0.3,0.8,0.5,1.2c0.3,0.8,0.6,1.6,0.9,2.4
			c0.3,0.8,0.5,1.6,0.7,2.5l0.3,1.2l0.1,0.3c0,0.1,0.1,0.2,0,0.3c0,0.2-0.1,0.4-0.5,0.7l-8.1,1.3c-0.4-0.1-0.6-0.3-0.7-0.5
			c0-0.1,0-0.2-0.1-0.3l0-0.3l-0.1-1.3c-0.1-0.8-0.1-1.7-0.1-2.5c0-0.9,0-1.7,0.1-2.6c0-0.4,0.1-0.9,0.1-1.3c0.1-0.4,0.3-0.9,1-1.4
			L1154.5,176.1z"/>
		<path class="st43" d="M1160.2,181.1c-0.3,0.1,1.2,2.5,1.2,2.5c0.8,0,1.3,0,1.8-0.4c0.2,0.3,0.4,0.7,0.6,1c1.4,2,3.4,3,4.5,2.2
			c0.7-0.5-0.7-2.2-2-4c-0.7-0.9-1.2-1.8-1.7-2.5l0,0l-0.8-1.1c0,0-0.7-0.1-1.7,1.6C1161.8,180.9,1160.5,181,1160.2,181.1z
			 M1163.7,179.3L1163.7,179.3L1163.7,179.3L1163.7,179.3z"/>
		<path class="st46" d="M1159.1,173.4c0.8-0.1,1.3,0.1,1.7,0.4c0.3,0.3,0.7,0.6,1,0.9c0.6,0.6,1.3,1.2,1.8,1.8
			c0.6,0.6,1.1,1.3,1.6,1.9l0.8,1l0.2,0.2c0.1,0.1,0.1,0.2,0.2,0.3c0.1,0.2,0.1,0.5-0.2,0.9l-6.8,4.6c-0.5,0.1-0.7,0-0.9-0.2
			c-0.1-0.1-0.1-0.2-0.2-0.3l-0.2-0.3l-0.6-1.1c-0.4-0.7-0.8-1.5-1.2-2.2c-0.4-0.8-0.7-1.6-1-2.4c-0.1-0.4-0.3-0.8-0.4-1.2
			c-0.1-0.4-0.1-1,0.3-1.7L1159.1,173.4z"/>
		<path class="st46" d="M1146,168.5c0,0.5-0.2,0.8-0.3,0.9c-0.1,0.1-0.3,0.3-0.4,0.4c-0.3,0.2-0.6,0.4-1,0.5c-0.3,0.1-0.7,0.2-1,0.2
			c-0.3,0-0.7,0-1,0c-1.3-0.1-2.7-0.3-3.9-0.6c-2.5-0.6-4.9-1.7-7.1-3c-1.1-0.7-2.2-1.3-3.2-2.1c-1-0.8-2-1.6-2.9-2.5
			c-0.9-0.9-1.8-1.8-2.6-2.9c-0.4-0.5-0.8-1-1.1-1.7c-0.1-0.2-0.1-0.3-0.2-0.5c-0.1-0.2-0.1-0.3-0.1-0.5c0-0.2,0-0.4,0-0.6
			c0-0.1,0.1-0.2,0.1-0.4c0-0.1,0-0.1,0.1-0.2l0,0l0.1,0l0.1-0.1c0,0,0.1-0.1,0.2-0.1l0.2-0.1l2.1-1l0.2-0.1c0.1,0,0.1-0.1,0.2-0.1
			l0.1,0l0.1,0l0,0c0.1,0,0.2,0,0.2,0c0.1,0,0.2,0,0.3,0c0.2,0,0.3,0.1,0.5,0.1c0.2,0.1,0.4,0.3,0.6,0.4c0.4,0.3,0.7,0.7,1,1.1
			c0.7,0.8,1.4,1.6,2.2,2.3c1.5,1.5,3.1,3,4.8,4.3c1.7,1.3,3.5,2.6,5.4,3.5c0.9,0.4,1.9,0.8,2.9,1c0.2,0,0.5,0.1,0.7,0.2
			c0.2,0.1,0.5,0.2,0.8,0.3c0.3,0.1,0.5,0.2,0.8,0.4c0.1,0.1,0.3,0.2,0.4,0.3C1145.6,167.8,1145.8,168,1146,168.5L1146,168.5z"/>
		
			<ellipse transform="matrix(0.9042 -0.4272 0.4272 0.9042 42.2194 504.4548)" class="st47" cx="1145.5" cy="158.1" rx="9.5" ry="9.5"/>
		<path class="st47" d="M1144.9,180.8l1.2,2.5c1.1,2.5,5.7,0.7,11.1-1.9c4.7-2.2,10.3-4.6,8.7-8.1l0,0c-3.7-9.4-9.8-15.8-17.7-12.1
			l0,0c-7.8,3.7-7.4,10.1-4.8,16.5c0,0,0,0.1,0,0.1l0.2,0.4C1144.1,179.1,1144.5,179.9,1144.9,180.8z"/>
		<path class="st48" d="M1144.5,172.8c0.9-0.5,1.2-2.1,2.3-3.2c1.5-1.5,1.5-3.3,1.6-2.5c0.1,0.8,0.8,1,0.8,0.9c0-0.1-0.2,0.2-0.3-1
			c-0.2-1.2,1.1-2.1,1.6-4.4c0.1-0.6,0.3-1.8,0.3-2.5c0.2,0.3,0.3,0.6,0.4,0.9c0.2-7.3-3.4-10.6-3.8-10.7c0.2,0,0.7,0,1.2,0.3
			c-1.4-1.9-2.9-1.8-3.1-1.8c0.2-0.3,0.7-0.5,1-0.5c-0.9-0.8-1.7-1.2-2.7-1c-0.6,0.1-0.8,0.8-0.8,0.8c0.1-0.5-0.3-1.9-1.9-2.1
			c1.3,2,0.9,1.7,0.8,1.8c0,0.1-1.4-0.8-2.5-0.6c0.3,0.1,0.6,0.3,0.7,0.5c-1.2-0.2-2.6-0.6-4.5,1.5c0.9-0.2,1.3,0,1.7,0.1
			c-0.3,0.2-3.8,2.4-3.9,7c0.2-0.1,1-1,1.1-0.9c-0.6,0.7-2.4,3.2,0.8,10.4c0-0.4,0-1.4,0.2-1.4c-0.1,0.8,1,2.7,3.4,4.1
			C1142.3,170.3,1143.8,171.4,1144.5,172.8z"/>
		<path class="st43" d="M1136.2,160c-0.8-3.6,0.7-7,3.3-7.6c2.6-0.6,5.3,1.8,6.1,5.4c0.5,2.1,0.2,4.1-0.6,5.6
			c-0.9,1.6-1.6,3-1.4,4.4c-0.9-1.8-2.3-2.1-4.1-3.1C1138,163.9,1136.7,162.1,1136.2,160z"/>
		<g>
			<path class="st49" d="M1135.9,159.1c0.5,3.5,2.8,6.2,5.5,5.8c2.7-0.4,5.1-3.8,4.5-7.3c-0.5-3.5-3.2-6-5.9-5.6
				C1137.4,152.3,1135.4,155.5,1135.9,159.1z"/>
			<path class="st50" d="M1139.2,157c-0.3,0.1-0.7,0.2-1,0.3c-0.3,0.1-0.6,0.3-0.9,0.6c0.2-0.3,0.5-0.6,0.8-0.8
				c0.3-0.2,0.6-0.4,1-0.5L1139.2,157z"/>
			<path class="st50" d="M1140.9,156.4c0.4,0,0.8,0.1,1.1,0.2c0.4,0.1,0.7,0.3,1,0.6c-0.3-0.2-0.6-0.3-1-0.4c-0.4-0.1-0.7-0.1-1.1,0
				L1140.9,156.4z"/>
			<polygon class="st51" points="1140.9,157.3 1142,157.6 1140.9,157.6 			"/>
			<path class="st51" d="M1139.4,157.7c-0.2,0-0.4,0-0.7,0.1c-0.2,0-0.4,0.1-0.7,0.1c0.2-0.1,0.4-0.2,0.6-0.3
				c0.2-0.1,0.4-0.1,0.7-0.2L1139.4,157.7z"/>
			<path class="st52" d="M1141.3,159c0.2,0.3,0.2,0.8-0.1,1.1c-0.2,0.3-0.6,0.5-1,0.6c-0.4,0.1-0.8-0.1-1.1-0.4
				c-0.2-0.3-0.4-0.7-0.2-1.1c0,0.2,0,0.4,0.1,0.5c0.1,0.2,0.2,0.3,0.3,0.4c0.2,0.2,0.6,0.3,0.9,0.3c0.3,0,0.7-0.2,0.9-0.5
				C1141.3,159.8,1141.4,159.4,1141.3,159z"/>
			<path class="st51" d="M1142.1,161.7c0.1,0.3,0.1,0.6-0.1,0.8c-0.1,0.1-0.2,0.2-0.3,0.3c-0.1,0.1-0.3,0.1-0.4,0.1
				c-0.3,0-0.6,0-0.8-0.1c-0.3-0.1-0.5-0.3-0.6-0.5c0.2,0.2,0.5,0.2,0.7,0.2c0.2,0,0.5,0,0.7-0.1c0.1,0,0.2-0.1,0.3-0.1
				c0.1,0,0.2-0.1,0.3-0.1C1141.8,162.1,1142,162,1142.1,161.7z"/>
			<path class="st53" d="M1141,151.8c-0.6,0-1.4,0.1-2,0.3c-1.7,0.7-2.6,2.8-2.8,3.4c0.4-0.3,1-0.4,1.5-0.2c0.1,0,0.2,0.1,0.3,0.1
				l0.5-1.8l0.4,2c2.9,0.6,5.7-2.3,6.6-0.1C1144.6,153.5,1142.9,152,1141,151.8"/>
		</g>
		<g>
			<g>
				<path class="st43" d="M1170.8,170.4c1.2,0,3.9-0.4,3.5-3.2c-0.4-2.8-1.5-1.6-2-1.3c-1.1,0.5-2,0.2-2,0.2L1170.8,170.4z"/>
			</g>
			<path class="st46" d="M1152.7,163.9c0.4-0.4,0.5-0.5,0.7-0.5c0.1,0,0.3-0.1,0.4-0.1c0.3-0.1,0.5-0.1,0.7-0.1c0.2,0,0.4,0,0.6,0
				c0.2,0,0.4,0.1,0.6,0.2c0.4,0.1,0.7,0.2,1.1,0.4l0.6,0.2l0.6,0.1c1.5,0.4,3,0.6,4.4,0.7c1.5,0.1,2.9,0.2,4.4,0.2
				c0.4,0,0.7,0,1.1,0c0.4,0,0.7,0,1.1,0c0.4,0,0.7-0.1,1.1,0.1c0.2,0.1,0.4,0.1,0.6,0.2c0.1,0.1,0.2,0.2,0.3,0.3l0.2,0.2
				c0,0,0.1,0.1,0.1,0.2l0,0l0,0.1l0,0.1c0,0,0,0.1,0,0.2l0,0.2l0.3,2.3l0,0.2c0,0.1,0,0.2,0,0.2l0,0.1l0,0.1l0,0
				c0,0.1,0,0.2-0.1,0.2l-0.1,0.3c-0.1,0.2-0.2,0.3-0.3,0.4c-0.2,0.2-0.4,0.3-0.6,0.4c-0.4,0.2-0.9,0.2-1.3,0.3
				c-0.9,0.1-1.8,0.1-2.7,0.1c-1.8,0-3.7-0.4-5.4-0.9c-1.8-0.5-3.4-1.3-5-2.1l-0.6-0.3l-0.6-0.4c-0.4-0.2-0.8-0.5-1.1-0.7
				c-0.4-0.2-0.7-0.5-1-0.9c-0.1-0.2-0.3-0.4-0.4-0.7c0-0.1-0.1-0.3-0.1-0.4C1152.5,164.7,1152.5,164.5,1152.7,163.9L1152.7,163.9z"
				/>
		</g>
	</g>
	<path class="st54" d="M1121.3,156c0,0.2-0.1,0.3-0.1,0.5c0,0.2,0,0.4,0.1,0.7c0.1,0.5,0.3,1,0.7,1.5c0.3,0.5,0.8,1,1.2,1.6
		c0.2,0.3,0.5,0.6,0.7,0.9c0.3,0.3,0.5,0.6,0.8,0.9c0.6,0.6,1.2,1.2,1.9,1.8c0.7,0.6,1.4,1.1,2.2,1.7c0.8,0.5,1.6,1,2.4,1.5
		c0.8,0.5,1.7,0.9,2.5,1.3c0.4,0.2,0.9,0.4,1.3,0.6c0.4,0.2,0.9,0.3,1.3,0.5c0.9,0.3,1.7,0.5,2.5,0.7c0.4,0.1,0.8,0.2,1.2,0.2
		c0.4,0.1,0.8,0.1,1.2,0.2c0.2,0,0.4,0,0.6,0c0,2.3,0.7,4.8,1.7,7.2c0,0,0,0.1,0,0.1l0.2,0.4c0.4,0.8,0.8,1.7,1.2,2.6l1.2,2.5
		c0.5,1,1.4,1.3,2.8,1.2c0,0.4,0.1,0.8,0.1,1.1c0,0.2,0,0.5,0.1,0.6c0,0.2,0,0.4,0.2,0.5c0.1,0.1,0.3,0.2,0.4,0.3
		c0.1,0.1,0.2,0.1,0.2,0.1l3.3-0.5c0,0,0,0.1,0,0.1c-0.5,2.4,0.1,4.5,1.4,4.8c0.9,0.2,1.2-2,1.6-4.2c0.1-0.4,0.2-0.8,0.3-1.2
		l1.6-0.3c0,0,0.1-0.1,0.2-0.1c0,0,0,0,0.1-0.1c0.1,1.2,0.4,2.2,0.8,3.1c2.1,4.6,8.6,7.9,11.6,9c-2.1-2.7-3.1-5-2.6-6.6
		c0.1-0.5,1.1,1.3,2.8,1.6c0-0.1,0-0.1-0.1-0.2c2.6,2,5.6,3.5,7.3,4.1c-2.1-2.7-3.1-5-2.6-6.6c0.1-0.5,1.1,1.3,2.8,1.6
		c-0.6-1.9-0.5-2.4-0.5-3.8c0-1.4-0.3-3.9-1.2-5.3c-1.7-2.6-4.1-4.3-6-5.3c0.1-0.2,0.2-0.4,0.1-0.5l-0.3-0.6c0.5-0.5,0.7-1,0.6-1.3
		l-0.5-0.8c0.2-0.3,0.3-0.5,0.3-0.7c0,0,0,0,0,0s0,0,0,0c0-0.1,0-0.2-0.1-0.2l-0.7-1.3c0,0,0,0.1,0,0.1l0-0.1
		c-0.1-0.1-0.1-0.3-0.2-0.4c0.2,0,0.4,0,0.6-0.1c0.4-0.1,0.8-0.2,1-0.4c0.1-0.1,0.3-0.2,0.4-0.3c0,0,0,0,0-0.1
		c1.3-0.2,3-0.8,2.7-3.2c-0.4-2.8-1.5-1.6-2-1.3c-0.3,0.1-0.6,0.2-0.8,0.3c-0.1-0.3-0.1-0.3-0.2-0.4c-0.1-0.1-0.2-0.3-0.3-0.3
		c-0.1-0.1-0.2-0.1-0.4-0.2c-0.3-0.1-0.6-0.2-0.9-0.2c-0.3,0-0.7,0-1.1,0c-0.4,0-0.9,0-1.3,0c-0.5,0-1,0-1.5,0c0,0,0,0-0.1,0
		c-1.5-1.9-3-3.4-4.3-4.5c-2.7-2.2-4.8-2.9-5.3-2.6c0,0,0,0,0,0c0,0,0,0,0,0c-0.3,0.2-0.7,1.2-0.8,2.8c-0.2,0-0.3-0.1-0.5-0.1
		c0.5-2.1,0.4-4.3-0.6-6.4c-1.6-3.4-5-5.4-8.5-5.5c0.2-0.2,0.6-0.3,0.9-0.3c-0.9-0.8-1.7-1.2-2.7-1c-0.6,0.1-0.8,0.8-0.8,0.8
		c0.1-0.5-0.3-1.9-1.9-2.1c1.3,2,0.9,1.7,0.8,1.8c0,0.1-1.4-0.8-2.5-0.6c0.3,0.1,0.6,0.3,0.7,0.5c-1.2-0.2-2.6-0.6-4.5,1.5
		c0.9-0.2,1.3,0,1.7,0.1c-0.3,0.2-3.8,2.4-3.9,7c0.2-0.1,1-1,1.1-0.9c-0.4,0.6-1.7,2.3-0.6,6.5c-0.5-0.4-0.9-0.7-1.3-1.1
		c-0.6-0.5-1.2-1.1-1.7-1.6c-0.5-0.5-1.1-1-1.6-1.5c-0.5-0.5-0.9-1-1.3-1.4c-0.4-0.4-0.7-0.9-1-1.2c-0.3-0.4-0.6-0.6-0.9-0.8
		c-0.2-0.1-0.3-0.2-0.4-0.2c-0.1,0-0.2,0-0.3-0.1l0.2-0.2c-0.7-1.1-2.5-3.2-4.7-1.3C1119.3,153.7,1120.4,155.2,1121.3,156z
		 M1168.1,176c-0.1,0-0.2-0.1-0.3-0.1c0.4-0.3,0.9-0.6,1.2-0.9c0,0,0,0,0,0c0,0.1,0.1,0.1,0.1,0.2
		C1168.8,175.5,1168.5,175.7,1168.1,176z M1164.6,177.6c0.4-0.2,0.8-0.3,1.2-0.5c0,0,0,0.1,0,0.1c0,0.1,0,0.1,0,0.2
		c-0.3,0.2-0.7,0.3-1,0.4C1164.7,177.8,1164.7,177.7,1164.6,177.6z M1165.6,178.8C1165.6,178.8,1165.6,178.9,1165.6,178.8
		C1165.6,178.9,1165.6,178.9,1165.6,178.8C1165.6,178.8,1165.6,178.8,1165.6,178.8z M1169.5,176.7c0,0-0.1,0-0.1-0.1
		c0.1-0.1,0.2-0.2,0.3-0.3c0,0,0,0,0,0c0,0,0,0.1,0,0.1C1169.7,176.5,1169.6,176.6,1169.5,176.7z"/>
</g>
</svg>
