<svg id="Layer_1" xmlns="http://www.w3.org/2000/svg" viewBox="0 0 1919.2 1072.9"><style>.st0{display:none}.st3{display:inline}.st4,.st6{fill:#d6eef4}.st6,.st7{display:inline}.st7{fill:#ddeffa}.st10,.st8,.st9{display:inline}.st8,.st9{fill:#a1cada}.st9{fill:none}.st10{fill:#99bdc6}.st11{fill:#fff}.st11,.st12,.st13{display:inline}.st12{fill:#e9e9ea}.st13{fill:#799fa5}.st16{fill:#224f67}.st16,.st17,.st18{fill-rule:evenodd;clip-rule:evenodd}.st17{fill:#0b4559}.st18{fill:#1d4859}.st20{fill:#e84c59}.st21{fill:#ee7b5c}.st22{fill:#f9c862}.st23{fill:#062633}.st24{fill:#abaaaa}.st25{fill:#e1dfe0}.st26{fill:none}.st27{fill:#041d26}.st28{fill:#6e6e6e}.st29{fill:silver}.st30{fill:#5e3e21}.st33{fill:#783a28}.st34{fill:#8f4729}.st38{fill:#231d13}</style><g class="st0"><path opacity=".29" fill="#99bcc6" d="M0-3.3h1920v1080H0z"/><path fill="#002735" d="M0 0h1919.2v1072.9H0z"/><g class="st3"><path class="st4" d="M965.4 141.3l1-5.5.2 5.5 5 .8-5.1.5-1 5.9-.2-5.9-4.9-.5zm898.6 73.9l2.3-12.6.4 12.6 11.4 1.6-11.5 1.3-2.3 13.3-.6-13.3-11.2-1.3zM473 62.8l1-5.5.2 5.5 5 .8-5 .5-1.1 5.9-.2-5.9-4.9-.5zm778.7-3.5l1-5.5.1 5.5 5 .7-5 .6-1 5.8-.3-5.8-4.9-.6zM856 125.4l1-5.5.2 5.5 4.9.7-5 .6-1 5.8-.2-5.8-5-.6zm215.1 62.5l1.3-7.2.2 7.2 6.6.9-6.7.8-1.3 7.7-.3-7.7-6.5-.8zm31.4-98.4l1-5.5.2 5.5 4.9.7-5 .6-1 5.8-.2-5.8-5-.6zm454.8-33.3l2.3-12.6.4 12.6 11.3 1.6-11.4 1.4-2.3 13.2-.6-13.2-11.2-1.4zM106 39.7l1-5.5.2 5.5 5 .7-5.1.6-1 5.8-.2-5.8-5-.6zm-46.3 90.7l1-5.5.2 5.5 5 .7-5.1.6-1 5.8-.2-5.8-4.9-.6zm163 0l1-5.5.2 5.5 5 .7-5.1.6-1 5.8-.2-5.8-5-.6zM164 218.9l1.1-5.5.1 5.5 5 .7-5 .6-1 5.8-.3-5.8-4.9-.6zm496.1-33.4l1-5.6.2 5.6 4.9.7-5 .6-1 5.8-.2-5.8-5-.6zM319.7 70.2l1-5.5.2 5.5 5 .7-5 .6-1.1 5.8-.2-5.8-4.9-.6zm1491.4 53.9l1-5.5.2 5.5 5 .7-5.1.6-1 5.8-.2-5.8-4.9-.6zm-115.7-50.6l-1.8 7.3.2-7.4-6.5-1.3 6.7-.4 1.8-7.6-.1 7.7 6.4 1.2zM1599.5 207l-.7 3.2.1-3.2-2.9-.6 2.9-.2.8-3.3v3.4l2.8.5zm-134.2 2.3l-1.7 7.3.2-7.4-6.6-1.3 6.7-.4 1.8-7.6-.1 7.7 6.5 1.2zM1912.5 80l-1.8 7.3.2-7.4-6.5-1.3 6.7-.4 1.8-7.6-.1 7.7 6.4 1.2zm-506.8 76.5l-.8 3.2.1-3.3-2.9-.5 3-.2.8-3.4-.1 3.4 2.8.6zm316 45.8l-.6 3.4-.1-3.4-3.3-.5 3.3-.4.7-3.6.1 3.6 3.2.4zM1563 121.1l-.7 3.8-.2-3.8-3.5-.5 3.6-.4.7-4 .2 4 3.5.4zm-364.4 100.6l.5-2v2l1.9.4-2 .1-.5 2.1.1-2.2-1.9-.3zm163.2 13.3l.5-2v2l1.9.4-2 .1-.5 2.1.1-2.1-1.9-.4zm71-174.5l-.8 3.1.1-3.2-2.9-.6 3-.1.7-3.4v3.4l2.8.5zM957.5 41l-.7 3.5-.1-3.5-3.3-.4 3.3-.4.7-3.6.1 3.6 3.3.4zm-134 35.1l-.7 3.5-.1-3.5-3.3-.4 3.3-.4.7-3.7.1 3.7 3.2.4zM705.7 44.8l.5-2-.1 2.1 1.9.3-1.9.1-.5 2.1v-2.1l-1.8-.3zM511.1 197.1l-.6 3.4-.1-3.4-3.3-.5 3.3-.4.7-3.6.1 3.6 3.2.4zM66.3 252.2l-.7 3.5-.1-3.5-3.3-.4 3.3-.4.7-3.6.1 3.6 3.2.4zm280.6-57.8l.5-2v2.1l1.8.3-1.9.1-.5 2.1v-2.1l-1.8-.3zm419.5.7l.5-2v2.1l1.9.3-2 .1-.5 2.1.1-2.1-1.9-.3zm936.2 81.1l-.9-5-.1 5-4.6.7 4.6.5.9 5.3.3-5.3 4.5-.5zm-1072.9.3l.6 3.1.1-3.1 3-.5-3-.3-.6-3.3-.2 3.3-2.9.3zm456-20.7l.6 3.2.1-3.2 3-.4-3.1-.3-.6-3.4-.1 3.4-2.9.3zm-258.8 15.1l-.4-1.8v1.8l-1.7.4 1.8.1.4 1.9v-2l1.7-.3zm-444.8-5.7l-.5-1.8.1 1.9-1.7.3 1.7.1.5 1.9v-1.9l1.7-.3zm-140.8-45l.6 3.1.1-3.1 3-.5-3-.3-.6-3.3-.2 3.3-2.9.3z"/><path fill="#f6f4d5" d="M583.8 90.8l-.7 3.5-.1-3.5-3.2-.4 3.3-.4.6-3.7.2 3.7 3.2.4z"/><path class="st4" d="M569.4 163.3l2.3-12.6.4 12.6 11.3 1.6-11.5 1.4-2.2 13.2-.6-13.2-11.2-1.4z"/></g></g><g class="st0"><path class="st6" d="M1137.9 330.2l.5-2v2l1.8.4-1.9.1-.5 2.1v-2.1l-1.8-.3zm88.1 43.1l-.4-1.8v1.9l-1.7.3 1.8.1.4 1.9v-1.9l1.7-.3zM1270.8 339.6l1.1-6.1.2 6.1 5.5.8-5.6.6-1.1 6.4-.2-6.4-5.5-.6zM1158.6 367l-.7 3.5-.1-3.5-3.2-.4 3.2-.4.7-3.6.2 3.6 3.2.4zm44.6 110l.6 3.1.1-3.1 3-.4-3-.4-.6-3.3-.1 3.3-3 .4zm164.2 40.4l-.4-1.8v1.8l-1.7.4 1.8.1.4 1.9v-2l1.7-.3z"/><path class="st8" d="M1080.3 395s9.6 10.4 10.7 16.8c1.1 6.4 0 39.5 0 39.5l16.4 22.5s-.5 9.8 2.9 17c3.4 7.2 9 20.7 8.5 31.3-.5 10.6 0 24.4 0 24.4l2.6 5.8s-.8 6.4 1.3 8.2c2.1 1.9 6.9 11.1 5.6 16.7-1.3 5.6-5.6 10.9-5.6 10.9s6.6 45.1 10.1 53c3.4 8 8.2 21.2 8.2 21.2s-.5 1.1 4-4 6.9 2.4 7.2 8.5c.3 6.1 1.6 65.8 5.6 73.4 4 7.7 6.4 6.6 6.1 11.7s2.4 29.7 2.4 29.7l6.4 8.2V806l2.9 4.2s11.7-23.9 15.4-26c3.7-2.1 2.9.8 5.6 1.6 2.7.8 4.2 0 4.2 6.1V825s5.6 3.2 6.1 7.4 0 23.3 2.1 26c2.1 2.7-.5 20.1 4 26.2s9 19.9 10.3 27c1.3 7.2-1.3 34.2 0 39.5 1.3 5.3 10.6 29.4 10.6 29.4s.8 3.4 4.5-4 4.2-8.7 4.2-8.7l1.6-21.2s4.8-21.7 9.8-30.2c5-8.5 4.8-14.1 4.8-20.4 0-6.4 1.9-8 2.7-11.4s1.6-22 1.6-29.2-3.2-11.1 0-13c3.2-1.9 8.2-4.8 10.1-15.6 1.9-10.9 7.4-50.6 7.4-50.6s8.5-23.6 11.9-28.1c3.4-4.5 12.7-14.1 14.6-17.2 1.9-3.2 4-33.4 4-33.4l3.2-26.8s13-14.3 13.3-17c.3-2.7 1.6-21.7 2.7-24.9s11.9-20.4 11.9-20.4l1.9-29.7 10.1-33.9v-6.4l7.2-7.2v-6.9s8-11.9 10.1-15.9 4-6.9 8.2-8.2c4.2-1.3 6.6-7.4 6.6-9s4.2-29.4 9.8-36.9c5.6-7.4 9.8-14.1 9.3-20.1s8.2-14.6 8.2-17.5c0-2.9 6-9 6-9l4.9-12.8"/><path class="st9" d="M1423.1 530.5c2.2 2.1 3.7 4.6 4.1 7.1 2.8.8 5.8 1.5 8.8 2.1l5.2.4c-3.7-2.2-8.6-4.1-14.4-5.6 9.8.9 19.1 2.6 27.2 4.7-7.8-3.4-16.1-6.3-24.7-8.7-2 .1-4.1 0-6.2 0z"/><path class="st10" d="M1201.2 461.1c5.2-3.8 15.1-14.3 22.1-15.1-2.4 3.1-10 12.5-12.3 15.3 1.5.2-4.6 19.2-2.3 20.8 1.5 1 .9 4.6 2.9 5.6 1.5.8 4.2.6 5.9 1.7 4.7 2.9 3.3 7.5 6.2 10.8.5.6 1 1 1.5 1.3 3.1-3.8 14.1-25.8 19.9-27.3 2-.4 6.7-11.5 8.6-13.5 1.2-1.7 4.2-1.7 5.8-2.8 4.9-3.7 7.7-9.7 13.9-10.2 5-.4 9.4-9.5 14.8-9.2 1.1.4 2.3 1.9 3.9.9 6.2-2.1 11.4-9.9 17.9-11.3-2.4 5.1-9 10.1-13.4 14-1 1.3-2.8 9.6-3.9 9.3-2.3-.3-4.5-2.7-7.2-2-8.8 4.4-19.9 19.8-22.6 29.1 2.6-2.3 8.5-13.1 12-14.5-1.4 2.2-2.4 5.1-3.3 7.5 5.3-3 8.3-6.3 11.4-11.7.7-1.9 4.1-2.9 5.8-4.4-1.2 3.4-2.9 6.5-5 9-2.2 2-3.4 5.8-4.5 9.3 2.6.4 4.2 1.8 6.8 4.2 1.5 1.4 4.9-.5 6.4.6 1.4 1 1.9 1.2 2.4 1.1 2.3-6 4-10.3 5.8-16.6-.7 1.9.6 3.5.1 4.9-1.1 4.6-1.6 7.3-1.3 12 3.1 1 7.3-5.4 9.3-3.8.7.5 1.4 1 2.4 1.3 3.5 1.1 8.9-.9 12.7-.1 3.8.8 5.9 2.1 8.2 5 3.2-5.9 10-6.8 16.8-9.9 1.4-.6 1.4-3.8 3.3-4.2 8.2-2.5 10.3-5.2 14.1-10.9-6 3.3-11.2 2.7-16.7 7.8-2.8 2.8-8 2-11.3 4.6-1.8 1.5-2.9 1.5-4.2 3.2.3-2.6.6-3.4 2-5.6.5-1.4 4.1-1.3 4.6-2.7 3.8-5.7 10.3-3.6 13.6-9.4-7.9 5.3-16 5.9-24.6 11.5-3.9 2.4-6.3 4.1-10.3 7-1.4.6-4.3.1-5.9 1.2 1-2.9.6-6.8 2.2-7.9 3.5-4.7 2.7-7.5 4.9-10.5 2.8-4.4 11.2-4.2 18.1-5 4.4-.6 6.3-.7 11.1-2.2 3.5-1.5 4.7-6.5 7.9-6.9 5.7-.7 9.4 4.2 14.8 6.1.5-3.1 2.2-4.6 5.1-5.8 9.1-3.2 17.3-8.2 25.1-13.5l-12.7-4.5-13.8-4.9c-5.8 1.2-11.1 4.2-15 7.9-1.6-2.2-3.8-4.6-5.9-3.7-15.1 4.9-29.4-2.3-44.4-1.1-6.8.3-12.4 2.6-19.1.8 5.9-1.2 11.9-1.2 17.4-3 1.6-1.1 4.8.1 6.2-.5 4.8-1.6 8.5-5.1 12.9-7.3-.3 2.6-4.9 5.3-3.3 5.9 3.6 3.4 8.9 2.1 13-2.4.3-1 2.5-1.8 4.1-1.3-1.6 2.7-3.5 4.7-5 7.4.7-.3 2.1-.9 2.7-.7 7.4 3.1 13.1-4.6 21.1-5-1 1.3-.5 4.7.4 3.9 2.9-1 5.8-2 8.6-3.1l-31.6-11.2c-5.5 1-11 2.2-16.8 3.5-2 .4-3.9 2.4-6 3.3-3.7 1.9-8.7-.9-13.6-1-.7.3 0 1.6-1.4 2.2-6.2 2.1-11.7 4-15.5 9.7-.3 1-3.6-.2-4.4.6-1.6 1.1-2.3 3-1.7 4.8-9.5-.6-19.3 6.5-25.5 14-1.2 1.7-7.9-3.3-13.6-2.6-11.2 2.5-21 1.2-32.1 1.6-5.3-.3-9.6 9.5-12.8 13.7 2.7 0 3.8 4.5 6.3 4.9z"/><path class="st10" d="M1319.8 557.4c-1.6-2.1 1.4-4.4.4-6.9-1.3-3.2-3.9-5.6-5.2-8.9 3.2 4.3 3.8 6.8 4.9 13.5-.1.6 2.1 2.3 2 2.8.2 3.6-.6 6.9.7 10.1.4.7 2.2-.6 2.7-.5 2 6.9 7 5.2 12.3 7-3.4-3.2-5.4-5.4-8.1-9.5 4.9 3.3 7 7.3 11.9 10-.2-1-.3-2-.7-2.7-3.3-3.7-5.2-5.9-8.1-9.5-6.1-7.5-7.4-15-13-22-1.5-1.2-3.2-2.2-4.6-3.9-1.4-.9-.8-3.1-2.2-4 1.9 1 2.2 4 3.7 4.4 4.3 1.6 4.2 2.8 7.7 5.9.5.1 1.3-.9 1.8-.8 1.9 5.6 5.3 10.2 10 12.6-.4-.4-.8-.7-1.2-1.1-2.9-3-2.8-8.3-5.8-10.8-5.7-4.9-5.6-10.1-9.6-15.7.6.3 1.3.7 1.9 1-2-3.7-4.2-7.4-7-10.4 2.7 1.8 5.3 4.2 6.8 6.9 2 2.8 1.5 5.6 5.7 5.5-.3 1.1 1.2 1.5.5 2.5 3.5.8 4.7 4.6 7.3 7-.1-4.1-3-7.2-5.5-10.1-.9-.8-.8-3.1-1.7-3.9-2.5-2.9-3.5-3.8-4.7-7.6-1.8-4-1.1-8.2-2.3-12.3-.6-.2-1-.6-.7-1.9.3.6.5 1.3.7 1.9.6.2 1.5 0 1.9.5 1 2.6.5 6.6 2.1 8.7 1.4.9 3.3 1.4 4.1 2.7.9.8-1.7 1.4-1.1 3.3 1.9 5.1 5.1 7.1 6.9 12.8.4.7 1.5.4 2.6 0 2 8.3 5 15.2 10.7 20.2-1.2-3.3-4.2-7.1-5.4-10.1-1.4-3.3-.9-6.4-2.4-9.5-3.4-6.9-8.1-13.2-9.4-21.3-.9-5.7 2.9-4.8-2.4-6.6.4-1.7.4-4-.1-4.1-3.8-1.5-4.5-5.2-7-8.1-.6.4-1.4 1.4-1.9 1.3-1.3-3.2-2.4-1.3-6.6 10.2-.3 1.1-.3 3.5-.2 5.2-4.6-.5-1.6-2.7-2.6-7.6.1-.6-2.1.1-3-.7-1.1-2-.2-5.9-1.4-7.4-1.5-2.7-6.4.3-7.9-1.9-2.4-3.1-4.9-5.9-7.7-8.4l-2.2 9.2c6.2 7.2 11.9 14.8 16.1 23.5 1.5 2.7 3.2 4.3 6.3 4.4-1.3 5.6-5.8 9.8-4.5 15.4.8 3.1 5.9 3.7 7.8 7.1.2.5.5 1.1.8 1.6 0-.1 0-.1-.1-.2 0 .1 0 .1.1.2 2.1 3.7 1.7 5.4 2.6 9.2.2.7.3 1.4.4 2.1.9 1.3 1.9 2.6 2.8 3.9 1.1-1.7.3-3 .1-4.2zm-72 191.9c2.1-2.8 5.3-.9 7.4-.9 9.5-2.8 11.6-21.4 20.1-25.2 10.6-4.7 11.6-17 18-26.5 2.1-2.8 7.4-4.7 8.5-8.5 2.1-4.7 3.5-27.1 6.7-29 9.3-6.1 15.3-51.2 18.4-59.8-4.9-1.2-8.5 1.4-12.4 3.9-6.1 8.5-13 16.6-16.6 26.7-2.1 3.8-9.8 59-14.1 60.9 7.5-8.2 11.6-29.5 16.4-41.8.7-1.8-12.7-27.6-12-28.9-2.2.3 1.2 10.3-.9 10.5-.5 1.3-3 25.4-1.5 28.9 7.5 17.2-6.9 35.8-8.4 52.1-1.1-.9-4.2 1.9-5.3-.9-3.2 7.6-4.2 26.2-11.6 30.9 5.3-11.3 11.6-33.7 13.7-46 2.1 3.8 1.1 6.6 1.1 10.4 4.7-14.3 2.6-56.1 6.7-70.4-2 1.4-10.5 6.3-12.6 7.3-8.1 3.9-8 19.7-16.3 23.4-2.4 1-9 14.4-10.9 14.7.2 6.8 7.2 14.5 4.5 19.3-2.1 5.7-3.2 12.3-3.2 18.9 2.1-3.8 7.4-7.6 7.4-11.3 2.1-11.3 5.3-18.9 12.7-27.4 0 4.7 0 10.4-1.1 15.1 5.3-4.7 8.8-27.1 12-32.8 1.1 18-8.8 51.7-21.5 64.9-4.2 2.8-9.5 0-13.8.9-2.1 0 0 15.8-1.1 18.6-5.3 9.5-13.8 22.4-14.8 32.8 10.8-6.6 15-23.3 24.5-30.8zm-137.9-272.5c4 4.1 8.1 8.2 11.7 12.7 5.3 6.7 11.4 12.6 16.7 19.3-5.1-4.4-10.7-6.8-16.4-9.8 2.8 5.7 7.3 9.7 11.8 13.7.8.9 1 3.3 3.5 4.3-1.6 3.5-2.7 6.8-1.5 10.6.5-.2 1.1.2 1.6.1 2 1.2.9 4.5 2 4.7 2.1 1.7 4.4-1.4 7-1.6-2.1 3.6-4.6 7.4-5.4 11.8 1.5-.5 3.1-.4 3.9-1.2 2.5-5.6 4.6-11 10.4-12.8 1.7 8.7 1 17.7.1 26.6.5.4 1 .9 1.1 1.1 2.7 3.4 3.6 9.6 6.3 10 4.1 1.1 7.9 2.9 12 4-1.6-8.5 1.9-16.1 0-22.1-2.4-5.8-4.1-13.1-8.1-19-2-3-6.7-4.5-7.8-9.5-.3-1.1-3.9-.6-4.9-2-1.3-2.6-1.7-5.4-2.6-8.2-2.9.9-5.2-1.3-7.4-3.1-4.8-5.1-6.7-11.1-13.6-14.3-1.8-.6 1.2-4.6-1.7-7.2-4-4.1-8.9-8-11.3-13.8-.3-1.1-2.3-.5-2.9-.9-5.1-4.4-6.5-10.5-8.9-16.4 3 4.4 6.1 7.6 10.7 10.4 3.8 1.8 4.5 7.6 7.3 11.5 1.5 1.3 4.1 1.1 4.7 1.5 2.5 2.8 4 7.7 6.3 10 6.3 8.2 12.6 16.4 21.5 22.6.2.5 2 1.2 2.1 1.7 4.8 5.1 7.6 10.8 13.6 14.3-3.2-6.8-8.5-11.7-12-17.8 3.9.6 7.5-1.7 11.2-1.7-6.3-4.6-12.6-2.6-19.2-6.6-1.1-.2-2.1-1.7-3.1-3.2 5.2-2.2 11.6 1.2 16.1-3.2-8.5-3.3-18.7-.1-25.2-7.1 7.5 1.8 14.7.8 22 .3-3.6-1.3-8.3-1-11.8-3.5-5.9-3.5-13-.7-17.1-8.4 8.5 3.3 17 1.3 25.5 2.8 1.6.1 11.3.7 13.6 2.9 2.8 2.1 1.2 7.4 3.7 10.2 4.1 4.7 3.2 10.3 7.4 15 1.7 1.9 5.1.8 6.9 1.4 2.5 1 2.2 7.1 4 7.7 4.7 1.5 13.5-3.4 18.4-5 2.4-.7 4.2-2.4 6.3-3.2-7.2 8.3-9.9 16.7-9.8 27.1.2 8.9-4.4 15.8-2.8 24.8.3 1.7 1.9 4.1 1.7 5.8-.2 1.6-2.4 2.5-2.7 4.5-.3 1.7 1.4 4 1.2 5.9-.3 3-4.8 4-6.2 6.2-5.4 8.5-14.2 25.8-16.9 36.1-1 4.1-12.9 13.6-17.5 20-.7.9-8.8 17.1-9.8 17.5l-3.2 2.5c-2.8-.3-5.5.6-7.6 2.4-1.9 1.7-3.9 3.2-3.9 3.2s-9.1-21.8-11-31.7c-1.9-9.8-7.3-42.6-7.3-42.6s9.3-5.9 4-20.8c0 0-2.2-4.7-4-6.7-1.8-2-1.3-8.2-1.3-8.2l-2.6-5.8M1097.9 395s-3.4 4.8-3.7 7.8c-.4 3 2.7 4.7 1.9 8.1-.8 3.3 4.8-7.9 4.8-7.9s5.8 2.5 4.7 9.2c-1 6.7 12.5 18.5 12.5 18.5s-1.2-12.7 1.8-16.5c0 0-3.5-8.7-7.7-10.7-4.2-2.1-4.7-8.3-4.7-8.3m28-.2s-4.7 7.2-5 10.8c-.3 3.6 3 7.7 0 11.9s5.8-2.7 5-7.9c-.8-5.2 6.7-14.7 6.7-14.7m31.8-.5c-7.1 4.3-12.1 9.8-16.9 15.2 4.9-3.7 10-7.2 15.4-10.6-1.8 1.9-3.5 3.8-5.3 5.7 1.7-1.3 2.4-3 3.5-4.5 1.2-1.5 3.2-3 5.9-3 1.1 0 2.2.2 3.2 0 1.4-.3 2.1-1.3 2.6-2.2l-8.4-.6z"/><path class="st11" d="M1424.2 395l-23.9-22.8c-1.7-1.6-8.3-8.5-9.2-10.7-1.8-4.4-4.5-6.7-4.6-6.8l-4.1-4.8-1.7-2.8.1.1h-.1c-1.4 0-2.7 0-4.1-.1l-3-.3c-.4-.1-.9-.1-1.3-.2-.9-.1-1.7-.3-2.5-.5-1.1-.3-2.1-.6-3.1-1-1.7-.7-3-1.7-4.3-2.7-.7-.7-1.4-1.5-2.1-2.3-1.7-2-1.2-6.6-4-7.8-1.8-.8-4.4.2-6-.6-1.8-.9-2-3.3-3.5-3.9-1.6-.7-4.3.1-6-.1-9-1.2-14.3-7.6-22.8-10.1-10-2.9-17.2-8-23-17.4-.2.1-.4.1-.6.1-2.5.6-5.1-3.3-7.7-2.8-1.3.3-2.7.6-4 1.1-2.5.9-3.9 1.7-5.4 2-1.4.3-3.4-5.1-5.3-5.5-5.4-1.1 1.7-2.8-2.1-4.9-.7-.4-1.6-10.4-2.1-10.6-2.6-.6-8.2-10.6-10.3-9.2-1.2.8-5.6-3.3-7-2.8-.5.2-7.1.7-7.6.8-1.2.2-3.3 2.5-6.4 6.6-2.6 3.5-6 3.8-6.6 4-.7.3.2 5.2-.5 5.7-1.1.7-1.7 2.1-2.8 2.7-4.4 2.1-10 21.6-14.5 23.6-1.3.6-2.3.9-3.3 1.1-2.6.5-4.6-.3-7.8-1.7-1.9-.8-4.5 2.1-6.2 1.6-1.6-.5-2.2-.5-2.7-.3-.6.3-1 .8-2.9 1.2-.5.1-1 .1-1.5.1-3.2 0-5.1 7.6-7.5 6.7-.8-.3-1.7-.5-2.7-.4-3.7.1-8.1 3.9-11.9 4.4-3.9.5-6.3 0-9.4-2-.5-.4-1.1-.7-1.7-1.2-.3.4-.9 1.5-1.2 1.7-.5.2-1 .5-1.5.9-3 2-6 5.7-8.6 7.6-2.9 2.2-6 2.3-8.6 4.5-5.9 4.9-11 11-18.6 14-2.7 1.1-7.8.5-8.5.4-.5-.2-3.3 8.7-6.2 16.8-2.2 6.1-4.8 12-4.8 12l-16.1 16.9h252.9c13.2 0 26.4-.1 39.5 0h46.5l4.9-.3zm-292-38.6c.2-.7.3-1.4.5-2 .7-2.9 1.5-5 2.8-6.8 0 0 .1 0 .1.1v-.3c1.3-1.9 3.2-3.6 6.3-5.9-6.8 5-8 8.3-9.7 14.9zm18.3 2c.5-.4.9-.7 1.3-1.1 3.1-2.9 4.8-2.9 8.4-4.7-4 2.1-5.7 2.8-9.7 5.8zm92 8c0-.1.1-.1.1-.2 0 .1 0 .2-.1.2zm1.9-4.7c.9-2.5 1.6-5.1 2.6-7.6-.9 2.5-1.7 5.1-2.6 7.6zm4.8-12.8c.5-1.4 3.5-10.1 6.2-11.7.2-.1.4-.2.6-.4-2.8 1.6-6.2 10.6-6.8 12.1zm44.3-45.2c-.3 1.7-.9 4.1-1.6 6.5 1-3.3 1.6-7 2.3-9.5-.2.9-.5 2-.7 3z"/><path class="st8" d="M1333.3 395c14.9 0 29.6-.2 44.5 0h46.5s-30.4-25.6-34.5-28.1c-9.1-5.6-22.9-19.2-29.4-26.9-1.7-2-1.2-6.6-4-7.8-1.8-.8-4.4.2-6-.6-1.8-.9-2-3.3-3.5-3.9-1.6-.7-4.3.1-6-.1-9-1.2-14.3-7.6-22.8-10.1-10-2.9-17.2-8-23-17.4.1 2.3 1.2 4.5 1.2 7 0 5.1 2.1 15-.8 19-1.1 1.5-6.8-.5-8.6 1.5-1.1 1.5-1.1 5.1-3.4 6.1-5.7 2.6-10.8 0-16.5 2.6-3.4 1.5-8-1.5-10.8.5-2.9 1.5-6.3 10.5-6.8 12.1-4 7.7-4.6 16.3-10.3 23.5 8.6-1.5 8-9.2 13.1-13.8 3.4-2.6 4.6-7.1 6.8-10.2-1.7 7.1-2.9 14.3-6.8 20.9 8.6-4.1 8.6-14.8 14.3-21.9 2.9 5.6-2.3 10.7-1.7 16.3 1.7-.5 3.4-1 4-2 5.7-5.1 5.7-11.7 12-16.3-1.1 3.6 0 7.7-1.7 11.2 6.8-1.5 13.1-5.1 20.5-6.1-5.1 4.6-11.4 5.6-17.7 8.7-.6 0-1.7 1.5-2.3 1.5-8.6 6.6-18.3 10.2-28 13.8-2.9 1.5-8 1.5-11.4 3.1-.6.5-1.1 3.1-2.9 4.1-4.6 1.5-10.3.5-13.1 3.6-4 3.6-8 5.6-13.1 7.1 6.3-.5 12.6 0 18.3-3.6.6-.5.6-2.6 1.7-2.6 6.3-.5 11.4-4.1 16.5-6.6 3.4-2 6.3 2 7.4.5 5.1-5.6 11.4-5.6 17.7-8.7 2.3-1.5 5.1-3.1 5.1-6.1 2.9 0 5.7.5 8.6 0 1.7-.5 2.3-4.1 3.4-4.1 5.1.5 8-3.6 11.4-4.6 6.8-2 14.3-1.5 20.5-2 6.3 0 12.6 5.6 21.1 6.6-2.3 3.6-5.1 6.6-7.4 10.2-1.1 2.6-7.4 1.5-11.4 3.1-.3 0-.9.3-1.4.7-8.3-3.5-16.6-6.8-25.4-7.8 0 6.1 4.6 9.7 9.1 13.8.6 1 0 2.6 0 4.1-4-2-6.8-5.6-9.7-8.7-.6 2.6 1.7 5.6-.6 7.1-.6 1-3.4-1-5.1.5 0 .5-.6 1-.6 1.5-4 0-6.8-2-9.7-4.6-1.7 2-4 1.5-5.1 2-5.1 3.1-10.3 6.1-16.5 7.1 4.6-4.6 8.6-9.2 14.3-12.8-8 3.1-15.4 7.1-23.4 10.2-5.3 2.1-10.5 4.7-15.6 7.4"/><path class="st8" d="M1286.7 297.4c-3.6 5.3-9.5 18.5-15.8 21.6 1.2-3.7 5.3-15.1 6.5-18.5-1.4.3-2.1-19.7-4.8-20.4-1.8-.4-2.4-4-4.6-4.3-1.7-.2-4.2.8-6.2.4-5.4-1.1-5.7-6-9.5-8.1-.7-.4-1.3-.6-1.9-.7-1.7 4.6-4.6 29.1-9.7 32.4-1.7 1-2.5 13.1-3.6 15.6-.6 2-3.4 3.1-4.6 4.6-3.4 5.1-4 11.7-9.7 14.3-4.6 2-5.7 12.1-10.8 13.6-1.1 0-2.9-1-4 .5-5.1 4.1-7.4 13.1-13.1 16.7.6-5.6 5.1-12.6 8-17.7.6-1.5-.6-10 .6-10 2.3-.5 5.1 1 7.4-.5 6.8-7.1 12.2-25.3 11.6-35-1.7 3.1-3.6 15.1-6.5 17.7.6-2.6.6-5.6.6-8.2-4 4.6-5.7 8.7-6.8 14.8 0 2-2.9 4.1-4 6.1 0-3.6.6-7.1 1.7-10.2 1.4-2.6 1.3-6.6 1.2-10.3-2.6.5-4.6-.3-7.8-1.7-1.9-.8-4.5 2.1-6.2 1.6-1.6-.5-2.2-.5-2.7-.3-.1 6.4-.3 11 .1 17.6 0-2-1.7-3.1-1.7-4.6-.5-4.7-1-7.4-2.8-11.7-3.2 0-5.1 7.6-7.5 6.7-.8-.3-1.7-.5-2.7-.4-3.7.1-8.1 3.9-11.9 4.4-3.9.5-6.3 0-9.4-2-1.1 6.6-7.2 9.7-12.5 14.9-1.1 1 0 4.1-1.7 5.1-6.8 5.1-8 8.3-9.7 15 4.6-5.1 9.7-6.3 13.1-12.9 1.7-3.6 6.8-4.6 9.1-8.2 1.1-2 2.3-2.4 2.9-4.4.6 2.6.6 3.4 0 6 0 1.5-3.4 2.6-3.4 4.1-1.7 6.6-8.6 6.8-9.7 13.4 5.7-7.7 13.1-10.9 19.4-19 2.9-3.6 4.6-6 7.4-10 1.1-1 4-1.5 5.1-3.1 0 3.1 1.7 6.6.6 8.2-1.7 5.6 0 8-1.1 11.6-1.1 5.1-9.1 7.7-15.4 10.7-4 2-5.7 2.7-9.7 5.8-2.9 2.6-2.3 7.7-5.1 9.2-5.1 2.6-10.3-.8-16-.8.6 3.1-.6 5.1-2.9 7.1-7.5 6.1-13.6 13.5-19.2 21.1h28.2c5.1-3.1 9-7.6 11.5-12.5 2.3 1.5 5.1 3.1 6.8 1.5 12.6-9.7 28.5-7.7 42.2-13.8 6.3-2.6 10.8-6.6 17.7-7.1-5.1 3.1-10.8 5.1-15.4 8.7-1.1 1.5-4.6 1.5-5.7 2.6-4 3.1-6.3 7.7-9.7 11.2-.6-2.6 2.9-6.6 1.1-6.6-4.6-2-9.1 1-11.4 6.6 0 1-1.7 2.6-3.4 2.6.6-3.1 1.7-5.6 2.3-8.7-.6.5-1.7 1.5-2.3 1.5-8-.5-10.8 8.7-18.3 11.7.6-1.5-1.1-4.6-1.7-3.6-2.4 1.9-4.8 3.9-7.1 5.8h33.5c4.8-2.8 9.7-5.8 14.6-8.9 1.7-1 2.9-3.6 4.6-5.1 2.9-3.1 8.6-2 13.1-3.6.6-.5-.6-1.5.6-2.6 5.1-4.1 9.7-7.7 11.4-14.3 0-1 3.4-1 4-2 1.1-1.5 1.1-3.6 0-5.1 9.1-2.6 16-12.6 19.4-21.8.6-2 8.6.5 13.7-2 9.7-6.1 19.4-8.2 29.7-12.2 5-1.5 5.9-12.2 7.5-17.2-2.3.5-4.9-3.5-7.5-2.9zm94 49.7c.1.1.2.2.3.2.7.9 1 2.3 2 3.2 1.3 1.4 3 2.5 3.7 4.4-3.3-2.7-6.9-5.2-10-8 1.3.2 2.6.2 4 .2zm-8.4-.6c.4.1.9.1 1.3.2 2.5 3.3 6.1 6 8.7 9 2 2.3 5 4.6 8.1 6.2 1.5.6 2.2 1.9 2.3 3.3-.2-.3-.5-.5-.6-.8-7.5-5.5-15-10.9-19.8-17.9z"/><path class="st8" d="M1389.7 366.9c-.6-1.2-1.4-2.2-3-2.9-2.4-1.2-6-.7-8.1-1.8-1.3-.7.7-3-1.7-3.9-3.7-1.2-5-3.2-6-5.5-1.9-4-5.8-7.1-8.9-10.6 1.5 1 2.8 2.1 4.7 2.9 1 .4 2 .8 3.1 1 1 1.5 1.9 2.9 2.8 4.4.3.7 2 .9 2.7 1.8 2 3.2 3 6.5 8.7 7.8 1 .2.7 1.2 1.3 1.8 4.4 3.2 9.4 5.8 12.1 9.7-2-1.9-4.8-3.4-7.7-4.7zm-21.2 4.7c1.7.9 2.7 2.5 4.4 3 4.7 1.4 8.1 2.5 12.1 4.4 1 .5 2.4.2 3.7.2-2.4 3.2 3.4 5.3 6.4 7.4.3 0 .3.9.7 1.4 2 2.8 7.7 2.8 9.7 5.8-2.4-1.8-6-2.5-9.1-4.1-1-.5-1.7-1.4-2.7-2.5-.3-.7-2.4-.9-3-1.6-2-1.2-2.7-2.5-5-3.7-1-.5.7-1.2 0-1.4-1.7-.7-4-.9-5.7-1.6 1.3 1.2 2.7 2.5 3.4 3.9-2.7-2.1-5.4-3.7-7.7-6.2-.7-.9-3-.7-4.7-1.4-2.1-.9-4.1-1.7-6.2-2.4-.5-.6-1.1-1.2-1.8-1.7-.1-.1-.3-.2-.5-.3 2 0 4.6-.2 6 .8zm12.5 16.1c.7 1.8 1 4.6 3.7 5.3-.3.2.3.7-.3.7-5.7-1.2-5-5.3-8.7-7.6-.8-.4-1.6-.9-2.4-1.5 3.7.8 7.4 1.8 10.5 3.7 1.6 1.3 2 3 3.6 4.5-2.4-1.6-4.7-3-6.4-5.1z"/><path class="st12" d="M1337.3 373.9c1.3 2.8 4.4 4.4 8.1 5.5 2.4.7 3-1.2 4.7-1.8 0 .7 1 .7 1.3.7 2.7.9 5.4.5 8.1.9 1.7.5 2 2.5 3.7 3 3.1 1.1 6.6 1.7 10.1 2.5.7.5 1.5 1 2.4 1.5 3.7 2.3 3 6.5 8.7 7.6.7 0 0-.5.3-.7-2.7-.7-3-3.5-3.7-5.3 1.7 2.1 4 3.5 6.4 5.1-1.5-1.5-2-3.2-3.6-4.5.2.1.4.2.5.3-3.4-2.5-7.7-4.6-9.1-8.3-1-1.6-4.7-2.3-6.7-3.5-1.6-1.1-2.6-2.8-3.9-4.3 2.1.7 4.2 1.5 6.2 2.4 1.7.7 4 .5 4.7 1.4 2.4 2.5 5 4.1 7.7 6.2-.7-1.4-2-2.8-3.4-3.9 1.7.7 4 .9 5.7 1.6.7.2-1 .9 0 1.4 2.4 1.2 3 2.5 5 3.7.7.7 2.7.9 3 1.6 1 1.2 1.7 2.1 2.7 2.5 3 1.6 6.7 2.3 9.1 4.1-2-3-7.7-3-9.7-5.8-.3-.5-.3-1.4-.7-1.4-3-2.1-8.7-4.1-6.4-7.4-1.3 0-2.7.2-3.7-.2-4-1.8-7.4-3-12.1-4.4-1.7-.5-2.7-2.1-4.4-3-1.5-1-4-.8-6.2-1-1.7-.9-5.2-1-8.2-.8 1.7-3.5-2.7-6-4.4-9-1.2-1.6 1-3.8 2.7-5.9 2.5 4 4.2 8.3 9.4 10.9 2.7 1.4 7.1-.5 9.4 1.2 3 2.5 8.1 2.5 12.4 3-2.7 1.4-.7 3.2 1.3 4.1 6 3 13.4 6 16.1 10.6 1.3 2.3 6.7 2.1 9.1 3.7 3 2.2 5.9 4.5 9.1 6.6h-46.1c-2.1-1-4.4-1.8-7-2.4-1.7-.2-3.7-1.4-3.7-2.5 0-2.5-3-4.6-5-4.8-8.1-1.2-15.5-3.2-21.5-7.1-4-3-10.4-4.1-14.4-7.4 5.2 1.2 10.3 4.7 16 3.3z"/><path class="st8" d="M1276.6 405.2c-1.4-1.2-4.4-1.6-6.4-.7.3-2.2 0-4.4-.8-6.5-3.2 1.5-7 2.7-10.9 3.2.5-1.5 1-2.9 1.5-4.4-4.6.4-9.3.8-13.7 2-2 .5-3.8 1.2-5.7 1.7-4 1.1-8.4 1.8-12.7 1.9-1.2 0-2.4 0-3.5.2-2.6.5-4.2-16-5.6-14.5-5 5.3-11 10.1-17.9 14.4.4-3.3 1.3-6.6 2.8-9.7l-7.2 2.1c-.1-2.7 3.2-5.4 7.4-6 .7-.1 1.5-.1 2.1-.4 1-.4 1.5 17.1 1.9 16.4 1.9-2.7 4.9-5 8.6-6.8-.5 1-.9 1.9-1.4 2.9 1.3-.5 2.9-.7 4.3-.5.5.1 1.1.2 1.6.1.6-.1 1-.3 1.4-.6 3-1.9 6-3.9 9-5.8 3.4 1.5 8.2.5 11.7-.9s6.9-3.3 11-3.6c2.3-.2 4.9.2 6.8-.7.9-.4 1.4-1 2.1-1.6 1.6-1.4 3.7-2.6 6.1-3.5.1.8.3 1.5.4 2.3 4.3-1 8.7-2.1 13-3.1.7-.2 1.3-.3 2-.3 1.2 0 2.3.3 3.4.3 1.2.1 2.6-.3 2.6-1l5.7 1.2c2.4-.1 4.8.1 7 .7 1.7.5 3.9 1.2 5.2.3.6-.4.7-1 1.2-1.5.8-.8 2.6-1.1 4.1-.9s2.8.8 4 1.3c4.9 2.2 9.9 4.5 14.8 6.7 5 2.2 10 4.5 13.8 7.5-5.9 0-11.7 0-17.6-.1-2.5 0-5.1-.1-7.1-1-1.4.8-2.3 2-2.5 3.3-1.5-1-3-2-4.3-3-4.7 2.2-3.9-11.5-6.5-8.2-2 2.6-6.1 4.3-8.7 6.7.8-1.6 1.9-3.1 3.3-4.6-4.1-1.7-7.9 14.5-11.4 12.4.5.8 1.1 1.7 1.6 2.5-.6-1.9-2.6-3.6-5.3-4.4-.4.6-.9 1.2-1.3 1.8-.9-.9-2.1-1.6-3.4-2.2-2.1 1.7-4.3 3.2-6.5 4.6zm-115-1.6c-3.8 2-7.7-14.2-11.5-12.2 2.7-2.2 4.7 13.5 6 10.8-1.3.6-2.6 1.2-3.8 1.8.1-.7.3-1.3.4-2-.7 1.1-3.6.6-4.2-.5-.6-1.1.3-2.3 1.2-3.3 3.4-3.8 7.5-7.3 12.2-10.4.3.6.8 1.2 1.6 1.6 2.1-2.1 4.1-4.2 6.2-6.3 1.7-1.8 3.6-3.6 6.3-4.8 2.1-.9 4.5-1.4 6.9-1.8-.5 1.6-1.1 3.1-1.7 4.7-1.4 3.8-3 7.6-5.7 11-3.4 4.3-8.4 7.9-13.4 11.5.1.1.4-.1.2-.2-.3 0-.5 0-.7.1z"/><path class="st7" d="M1080.3 371.1c-.4.1-.7.2-1.1.3.3-.2.7-.2 1.1-.3z"/><path class="st11" d="M1111.1 360.4c-.6.3-1.2.7-1.7 1.1 1.4 0 1.7-.5 1.7-1.1zm43.3-40.2c-.3.4-.9 1.5-1.2 1.7-.5.2-1 .5-1.5.9-3.5 6.7-9.6 11.2-17.1 15.1.6 1 1.1 2 .6 2.6-5.1 3.1-6.3 6.6-10.8 9.7-1.7 1-2.9-1.4-3.4-.3-1.1 1-1.1 3.1-1.7 4.6-1.7 2-5.7 2.6-8 4.1-.3.5 0 1.3 0 2 3.7-2 8-2.4 11.4-5 3.4-2 4-3.2 6.3-6.3.6-1 2.9-1.5 3.4-2.6 2.3-3.1 4.6-6.6 8.6-7.7-1.7 3.1-5.1 5.1-5.1 8.7-1.1-.5-1.1 1-2.3 1 1.1 4.1-1.7 4.3-4 6.8-2.3 2-4 5.1-5.1 8.2 2.3-3.4 5.4-6.4 8.5-9.2 1.5-5.9 3-8.3 9.2-12.9 1.7-1 .6-4.1 1.7-5.1 5.3-5.2 11.4-8.3 12.5-14.9-.8-.6-1.4-1-2-1.4zm-.5 20.7c0-1.5 3.4-2.6 3.4-4.1.6-2.5.6-3.4 0-6-.4 1.6-1.2 1.4-2.1 3-1.2 5.2-4.9 9.5-9.9 12.6 0 .5 1.1 1 1.1 1.5-2.3 4.1-3.4 4.3-4 8.8 0 1.5-2.9 2.6-3.4 4.6.6-1.5 2.9-1.5 3.4-3.1 1.3-1.7 1.8-3.6 2.7-5.4-.3.4-.7.9-1 1.3 1.3-6.4 8.1-6.6 9.8-13.2zm22.3-18.7c-.6.8-1.7 1.3-2.7 1.8-1.5 5.4-4.9 8.3-7 13.9 3.4-3.6 5.1-6 7.4-10-.6 5.6 2.3 10-4 13.6 0 .5 1.7 2 1.1 2.6-2.9 2-6.3 2-9.7 3.1-.6 0-1.7 2.6-2.3 2.6-6.3 2.6-8.6 3.7-12 7.8 2.9-2 4.6-5.1 7.4-7.1 2.3-1.5 5.1.8 6.8-1.2 1.1-.5 2.3-1.5 4-1-1 1.2-2.1 2.4-3.2 3.7 5.9-2.7 12.4-5.2 13.4-9.8 1.1-3.6-.6-6 1.1-11.6 1.4-1.8-.3-5.4-.3-8.4z"/><path class="st12" d="M1161.3 349c-1.7 2-4.6-.3-6.8 1.2-2.9 2-4.6 5.1-7.4 7.1 3.4-4.1 5.7-5.3 12-7.8.6 0 1.7-2.6 2.3-2.6 3.4-1 6.8-1 9.7-3.1.6-.5-1.1-2-1.1-2.6 6.3-3.6 3.4-8 4-13.6-2.3 4.1-4 6.5-7.4 10 2.1-5.5 5.5-8.5 7-13.9-1 .4-1.9.8-2.4 1.3-2.9 4.1-4.6 6.5-7.4 10-5.9 7.7-12.9 10.6-18.4 17.8-.9 1.8-1.4 3.6-2.7 5.4-.6 1.5-2.9 1.5-3.4 3.1.6-2 3.4-3.1 3.4-4.6.6-4.6 1.7-4.8 4-8.8 0-.5-1.1-1-1.1-1.5 5-3.1 8.7-7.5 9.9-12.6-.3.5-.5 1-.8 1.4-2.3 3.6-7.4 4.6-9.1 8.2-3.4 6.6-8.6 7.8-13.1 12.9.2-.7.3-1.4.5-2-3.1 2.8-6.2 5.8-8.5 9.2 1.1-3.1 2.9-6.1 5.1-8.2 2.3-2.6 5.1-2.7 4-6.8 1.1 0 1.1-1.5 2.3-1 0-3.6 3.4-5.6 5.1-8.7-4 1-6.3 4.6-8.6 7.7-.6 1-2.9 1.5-3.4 2.6-2.3 3.1-2.9 4.3-6.3 6.3-3.4 2.6-7.7 3-11.4 5 0 .6-.3 1.1-1.7 1.1.5-.4 1.1-.8 1.7-1.1 0-.6-.3-1.4 0-2 2.3-1.5 6.3-2 8-4.1.6-1.5.6-3.6 1.7-4.6.6-1 1.7 1.4 3.4.3 4.6-3.1 5.7-6.6 10.8-9.7.6-.5 0-1.5-.6-2.6 7.6-3.9 13.6-8.4 17.1-15.1-3 2-6 5.7-8.6 7.6-2.9 2.2-6 2.3-8.6 4.5-5.9 4.9-11 11-18.6 14-5.3 2.1-5.4-1.7-5.9 3.9-1.7 0-4 .5-4 1-.6 4.1-4 5.6-6.3 8.7.6.5 1.7 1 1.7 1.5-2.9 2-.7 2.6 11.4 4.1 1.1 0 3.4-.5 5.1-1 .6 4.6-2.3 2.2-6.8 4.3-.6 0 .6 2 0 3.1-1.7 1.5-5.7 1.5-6.8 3.1-2.3 2 1.7 6.1 0 8.2-2.5 3-4.6 6.2-6.4 9.4h9.5c5.6-7.7 11.7-15 19.2-21.1 2.3-2 3.4-4.1 2.9-7.1 5.7 0 10.8 3.4 16 .8 2.9-1.5 2.3-6.6 5.1-9.2.5-.4.9-.7 1.3-1.1-.1 0-.1.1-.2.1.1 0 .1-.1.2-.1 3.1-2.9 4.8-2.9 8.4-4.7.6-.3 1.3-.6 2-.9 1.1-1.2 2.1-2.5 3.2-3.7-1.9-.5-3 .5-4.2 1zm30.8-20c-.4-6.6-.2-11.2-.1-17.6-.6.3-1 .8-2.9 1.2-.5.1-1 .1-1.5.1 1.8 4.3 2.3 7 2.8 11.7 0 1.5 1.7 2.5 1.7 4.6z"/><path class="st11" d="M1239.1 291.4c-.5.2-1.1.3-1.6.3-3.1 5.6-5.4 20.1-10 25.2 2.3-1 5.3-11 6.5-13.1 1.9-5.5 5.7-9.8 8.9-14.4-1.1.8-2.4 1.6-3.8 2zm-17.9 36.2c.6 1.5 2.3 0 2.9.5.9-9.6 6.2-27 9.9-36.1-.6.1-1.2.2-1.7.4-.7.3-1.4.7-2.1 1.1-2.2 7.7-4.7 23.9-7.3 31.6 0-2 .6-3.6-.6-5.6-1.1 6.6-4.6 18.7-7.4 24.8 4.1-2.6 4.6-12.6 6.3-16.7z"/><path class="st12" d="M1208.1 348.4c1.1-1.5 2.9-.5 4-.5 5.1-1.5 6.3-11.6 10.8-13.6 5.7-2.6 6.3-9.2 9.7-14.3 1.1-1.5 4-2.6 4.6-4.6 1.1-2.6 1.9-14.6 3.6-15.6 5-3.3 8.2-27.6 9.9-32.2-2.6-.6-4.6.7-6.7 2.1-3.3 4.6-7 8.9-8.9 14.4-1.1 2-5.3 31.8-7.6 32.8 4.1-4.4 6.3-15.9 8.8-22.6.4-1-6.9-14.9-6.5-15.6-1.2.2.7 5.6-.5 5.7-.3.7-1.6 13.7-.8 15.6 4 9.3-3.7 19.3-4.5 28.1-.6-.5-2.3 1-2.9-.5-1.7 4.1-2.3 14.1-6.3 16.7 2.9-6.1 6.3-18.2 7.4-24.8 1.1 2 .6 3.6.6 5.6 2.5-7.7 1.4-30.3 3.6-38-1.1.7-5.7 3.4-6.8 4-4.4 2.1-4.3 10.6-8.8 12.6-1.3.6-4.9 7.8-5.9 7.9.1 3.7 3.9 7.8 2.4 10.4-1.1 3.1-1.7 6.6-1.7 10.2 1.1-2 4-4.1 4-6.1 1.1-6.1 2.9-10.2 6.8-14.8 0 2.6 0 5.6-.6 8.2 2.9-2.6 4.8-14.6 6.5-17.7.6 9.7-4.8 27.9-11.6 35-2.3 1.5-5.1 0-7.4.5-1.1 0 0 8.5-.6 10-2.9 5.1-7.4 12.1-8 17.7 6-3.5 8.3-12.6 13.4-16.6zm-57 44.3c7.4-3.1 10.3-12.2 18.3-11.7.6 0 1.7-1 2.3-1.5-.6 3.1-1.7 5.6-2.3 8.7 1.7 0 3.4-1.5 3.4-2.6 2.3-5.6 6.8-8.7 11.4-6.6 1.7 0-1.7 4.1-1.1 6.6 3.4-3.6 5.7-8.2 9.7-11.2 1.1-1 4.6-1 5.7-2.6 4.6-3.6 10.3-5.6 15.4-8.7-6.8.5-11.4 4.6-17.7 7.1-13.7 6.1-29.7 4.1-42.2 13.8-1.7 1.5-4.6 0-6.8-1.5-2.5 4.8-6.5 9.3-11.5 12.5h6.7c2.3-2 4.7-3.9 7.1-5.8.4-1 2.1 2 1.6 3.5zm135.6-95.3c-1.3.3-2.7.6-4 1.1-2.5.9-3.9 1.7-5.4 2-1.2 3.4-5.3 14.8-6.5 18.5 6.4-3.2 12.3-16.3 15.9-21.6z"/><path class="st11" d="M1238.4 349.9v-.5c0 3.1-3.4 5.1-6.3 5.6 0 1 0 2.6-.6 3.6-4.6 4.6-8.6 9.2-11.4 14.8-.6 1-2.9 1.5-4 2.6 0 1 0 2-.6 3.1-2.9 3.6-6.8 5.6-8.6 10.2 3.4-4.6 8.6-7.7 11.4-12.8.6-1.5 4.6-1 5.1-2.6 1.1-3.1 3.4-4.6 5.7-6.6.6-.5-.6-2.6 0-3.1 4-2 5.7-5.6 9.1-8.2 1.1 6.6-5.1 10.2-6.8 16.3 4.6-5.1 6.8-10.2 9.7-16.3.6-1.5 3.4-2 4-4.1-.5 5.1-2.4 9.7-2.8 14.7 2.7-5.8 3.8-12.1 6.8-17.8.5-1.4 3.5-10.1 6.2-11.7-3 .9-6.1 7.6-9.6 7.6.6 4.2-3.9 6.2-7.3 5.2zm55.9 16.3c-2.9 2.6-6.8 2-10.3 4.1-.6.5.6 2 0 2.6-2.9 2-6.8.5-7.4 4.1.6-1 2.3-1.5 2.9-2 1.1-.5 3.4 0 4.6-1 2.9-1.5 4.6-3.6 8-4.6-1.7 2.6-2.3 5.1-4.6 7.7 0 0-1.1 1-1.7 1.5-.6.5 0 1.5 0 2.6 1.1-1.5 3.4-3.1 4-4.6 1.1-3.1 4-4.6 5.1-7.1.7 1.4 1.9 2.3 3.4 2.9-.7-1.5-1.1-3.1-1.1-4.9.2 0 .5.1.7.1-1.1-1.7-3.1-2.2-3.6-1.4z"/><path class="st12" d="M1321.7 354.5c-6.3.5-13.7 0-20.5 2-3.4 1-6.3 5.1-11.4 4.6-1.1 0-1.7 3.6-3.4 4.1-2.9.5-5.7 0-8.6 0 0 3.1-2.9 4.6-5.1 6.1-6.3 3.1-12.6 3.1-17.7 8.7-1.1 1.5-4-2.6-7.4-.5-5.1 2.6-10.3 6.1-16.5 6.6-1.1 0-1.1 2-1.7 2.6-5.7 3.6-12 3.1-18.3 3.6 5.1-1.5 9.1-3.6 13.1-7.1 2.9-3.1 8.6-2 13.1-3.6 1.7-1 2.3-3.6 2.9-4.1 3.4-1.5 8.6-1.5 11.4-3.1 9.7-3.6 19.4-7.1 28-13.8.6 0 1.7-1.5 2.3-1.5 6.3-3.1 12.6-4.1 17.7-8.7-7.4 1-13.7 4.6-20.5 6.1 1.7-3.6.6-7.7 1.7-11.2-6.3 4.6-6.3 11.2-12 16.3-.6 1-2.3 1.5-4 2-.6-5.6 4.6-10.7 1.7-16.3-5.7 7.1-5.7 17.9-14.3 21.9 4-6.6 5.1-13.8 6.8-20.9-2.3 3.1-3.4 7.7-6.8 10.2-5.1 4.6-4.6 12.2-13.1 13.8 1.4-1.8 2.6-3.7 3.5-5.7.4-5 2.3-9.6 2.8-14.7-.6 2-3.4 2.6-4 4.1-2.9 6.1-5.1 11.2-9.7 16.3 1.7-6.1 8-9.7 6.8-16.3-3.4 2.6-5.1 6.1-9.1 8.2-.6.5.6 2.6 0 3.1-2.3 2-4.6 3.6-5.7 6.6-.6 1.5-4.6 1-5.1 2.6-2.9 5.1-8 8.2-11.4 12.8 1.7-4.6 5.7-6.6 8.6-10.2.6-1 .6-2 .6-3.1 1.1-1 3.4-1.5 4-2.6 2.9-5.6 6.8-10.2 11.4-14.8.6-1 .6-2.6.6-3.6 2.9-.5 6.3-2.6 6.3-5.6v.5c3.4 1 8-1 7.4-5.1 3.5 0 6.6-6.7 9.6-7.6.2-.1.4-.2.6-.4 2.9-2 7.4 1 10.8-.5 5.5-2.4 10.4 0 15.8-2.2.8-1.5 1.4-3.2 1.9-4.9-3.4 2.6-8 1.5-11.4 4.6-2.9 2.6-7.4 1-12 1.5 6.3-2 11.4-3.1 16-6.6 2.3-2 6.3 0 8.6-2 .6-.5 0-2 0-2.5 1.7-.5 4.6-1 5.1-2 3.7-3.7 5.3-13.9 2.7-18.3-.8 4.2-2.7 12.6-6.7 13.8-10.3 4.1-20 6.1-29.7 12.2-5.1 2.5-13.1 0-13.7 2-3.4 9.2-10.3 19.2-19.4 21.8 1.1 1.5 1.1 3.6 0 5.1-.6 1-4 1-4 2-1.7 6.6-6.3 10.2-11.4 14.3-1.1 1 0 2-.6 2.6-4.6 1.5-10.3.5-13.1 3.6-1.7 1.5-2.9 4.1-4.6 5.1-5 3.1-9.8 6.1-14.6 8.9h58.4c5.1-2.6 10.2-5.2 15.6-7.4 8-3.1 15.4-7.1 23.4-10.2-5.7 3.6-9.7 8.2-14.3 12.8 6.3-1 11.4-4.1 16.5-7.1 1.1-.5 3.4 0 5.1-2 2.9 2.6 5.7 4.6 9.7 4.6 0-.5.6-1 .6-1.5 1.7-1.5 4.6.5 5.1-.5 2.3-1.5 0-4.6.6-7.1 2.9 3.1 5.7 6.6 9.7 8.7 0-1.5.6-3.1 0-4.1-3.2-2.9-6.4-5.5-8-8.9-1.5-.6-2.7-1.4-3.4-2.9-1.1 2.6-4 4.1-5.1 7.1-.6 1.5-2.9 3.1-4 4.6 0-1-.6-2 0-2.6.6-.5 1.7-1.5 1.7-1.5 2.3-2.6 2.9-5.1 4.6-7.7-3.4 1-5.1 3.1-8 4.6-1.1 1-3.4.5-4.6 1-.6.5-2.3 1-2.9 2 .6-3.6 4.6-2 7.4-4.1.6-.5-.6-2 0-2.6 3.4-2 7.4-1.5 10.3-4.1.5-.8 2.5-.3 3.5 1.1 8.6 1.1 16.7 4.4 24.7 7.7.5-.4 1.1-.7 1.4-.7 4-1.5 10.3-.5 11.4-3.1 2.3-3.6 5.1-6.6 7.4-10.2-8.6-1.1-14.9-6.7-21.1-6.7z"/><path class="st11" d="M1290.9 322c-.6 1-3.4 1.5-5.1 2 0 .5.6 2 0 2.5-2.3 2-6.3 0-8.6 2-4.6 3.6-9.7 4.6-16 6.6 4.6-.5 9.1 1 12-1.5 3.4-3.1 8-2 11.4-4.6-.5 1.7-1.1 3.4-1.9 4.9.2-.1.5-.2.7-.3 2.3-1 2.3-4.6 3.4-6.1 1.7-2 7.4 0 8.6-1.5 2.9-4.1.8-13.9.8-19 0-2.5-1.1-4.7-1.2-7-.2.1-.4.1-.6.1-.4 1.1-.6 2.3-.8 3.5 2.5 4.6.9 14.7-2.7 18.4z"/><path class="st8" d="M1392.7 365.2c.1.2.2.4 0 .6v-.6z"/><path class="st9" d="M1301.2 400.1c.6-.3 1.2-.5 1.9-.8-1.5.2-3 .3-4.5.5.8.1 1.7.2 2.6.3zm-81.4 3.7l3-.6c-.2-.1-.5-.2-.7-.3-.8.2-1.5.6-2.3.9zm11.3-2.4c.1 0 .2 0 .3-.1 0-.1-.1-.3-.1-.4-.1.2-.1.3-.2.5z"/><path class="st7" d="M1085.8 391.7v.7c.2-.2.3-.4 0-.7zm287.3-.7c-.9-.1-1.8-.4-2.6-.7-.2.8 2.5 1.8 2.6.7z"/><path class="st11" d="M1193.1 398.9c-2.1 4.4-10-11.6-14.3-7.9-.7.6-1.3 1.3-2.1 1.9-.8.6-1.8 1.2-2.7 1.7-7.1 4.3-12.1 9.8-16.9 15.2 4.9-3.7 10-7.2 15.4-10.6-1.8 1.9-3.5 3.8-5.3 5.7 1.7-1.3 2.4-3 3.5-4.5 1.2-1.5 3.2-3 5.9-3 1.1 0 2.2.2 3.2 0 1.4-.3 2.1-1.3 2.6-2.2 2.5-5.3 4.4 7.2 10.7 3.7z"/><path class="st10" d="M1373.2 395h46.1s4.4.7-3.7 8.3c-8.1 7.6-9.3 7.4-10.1 10.6s-2.6 9-2.6 9v6l-26.6-9.4s3.6-3.4 4-5.6c.3-2.2 7.1-4.2 7.1-4.2h-10.7l-6.6 7.5-31.6-11.2s8.5 2.3 14.3-.3 9.3-4.6 9.3-4.6 1.9 1.5 5 0 6.1-6.1 6.1-6.1zm-139.4 585.8l-10.6-29.4v-39.5m24-370.9l-32.6 49.2-6.8 49.2s-27.4 22.8-24.1 41.9c3.4 19.1 0 40.1 0 40.1l25.9-29.1 2.7-11.6 9.4-.4s11.6-8.5 9.8-11.6c-1.8-3.1 3.1-25.5 3.1-25.5l18.4-9.8s29-37.1 22.9-44.3c-6-7.2-19-29.9-9.2-37.1 9.8-7.2 17.9-21.9 17.9-21.9s-6.7 13.6-17.9 15.5c-11.2 1.9-2.2-9.7-2.2-12s1.3 2.4-8 4.9l-9.3 2.5m-81 240.7s-.3-3.6 1.2-4.2c1.6-.6 1.8-3.9 1.8-3.9s1 6.4 2.1 6.6c1 .2 4.1-3.1 4.1-3.1s1-4.4 4.9-4.8c3.9-.4 8.3-2.7 8.8-3.9.5-1.2-.5 5 2.6 5.3 3.1.3-.8-.4-.6 2.3s1.9 7.5 1.9 7.5-2-.9-5.4 4.6c-3.4 5.5-12.1 22.1-12.1 22.1l-2.9-4.2v-16.2l-6.4-8.1zm-13.1-88.7s4.4 22.9 7.3 24.9c2.9 1.9-1 6.5 0 8.4 1 1.9 5.8 4.2 5.8 4.2l3.8-2.9s-1.6 21.6 0 24.5c1.6 2.9-5.6 11.6-5.6 11.6l-.6-11.7s-2.1-4.9-4.1-8.3c-2-3.4-5.5-7.8-6.6-50.7zm3.9-283.3s5.9-4.4 9.8-6.9c3.9-2.5-2.5 2-3.5 5.4-1.1 3.4 1.1 7.2 1.3 10.7s.4 6.9.2 8c-.2 1.1 1.5-9.8 2.3-12.4.9-2.7 2.6-4.8 2.6-4.8s-.4 3.5 0 4.8 2.3-2.7 2.3-2.7l6.4-2.1 1.7-2.8s4.3 5.2 4.3 7.6v7.5l2.3-6.2s1.3-5.4 3.4-6.1c2.1-.7 5.2-.3 6.4 1.9 1.2 2.1 2.1 2.6 2.7 6.2.6 3.6 2.9 3.8 1.7 9.2-1.2 5.5-2.5 6.5-2.5 6.5l2.9-3s1.2-3.2 2-5.1c.9-1.9 0 4.3 0 4.3s3.2-8.5 5.3-9.8c2.1-1.3 5.6-7 11.2-6.2 5.6.9 4.5 2.6 7.5 4.1 3 1.5 6.6-3.2 10.4 2.7 3.8 6 13 10.9 13 10.9l1.5-8.9-5.3-9.7s-8.1-3.9-8.3-5.8 2.3-7.9.2-8.8-7.5-1.9-4.6-3.2-60.3-.4-60.3-.4"/><path class="st13" d="M1398 403.4c-.6.8-1.7 1.3-2.7 1.8-1.5 5.4-4.9 8.3-7 13.9 3.4-3.6 5.1-6 7.4-10-.6 5.6 2.3 10-4 13.6 0 .5 1.7 2 1.1 2.6-2.9 2-6.3 2-9.7 3.1-.6 0-1.7 2.6-2.3 2.6-6.3 2.6-8.6 3.7-12 7.8 2.9-2 4.6-5.1 7.4-7.1 2.3-1.5 5.1.8 6.8-1.2 1.1-.5 2.3-1.5 4-1-1 1.2-2.1 2.4-3.2 3.7 5.9-2.7 12.4-5.2 13.4-9.8 1.1-3.6-.6-6 1.1-11.6 1.4-1.7-.3-5.3-.3-8.4zm-178.7 245.8c1.1-1.5 2.9-.5 4-.5 5.1-1.5 6.3-11.6 10.8-13.6 5.7-2.6 6.3-9.2 9.7-14.3 1.1-1.5 4-2.6 4.6-4.6 1.1-2.6 1.9-14.6 3.6-15.6 5-3.3 8.2-27.6 9.9-32.2-2.6-.6-4.6.7-6.7 2.1-3.3 4.6-7 8.9-8.9 14.4-1.1 2-5.3 31.8-7.6 32.8 4.1-4.4 6.3-15.9 8.8-22.6.4-1-6.9-14.9-6.5-15.6-1.2.2.7 5.6-.5 5.7-.3.7-1.6 13.7-.8 15.6 4 9.3-3.7 19.3-4.5 28.1-.6-.5-2.3 1-2.9-.5-1.7 4.1-2.3 14.1-6.3 16.7 2.9-6.1 6.3-18.2 7.4-24.8 1.1 2 .6 3.6.6 5.6 2.5-7.7 1.4-30.3 3.6-38-1.1.7-5.7 3.4-6.8 4-4.4 2.1-4.3 10.6-8.8 12.6-1.3.6-4.9 7.8-5.9 7.9.1 3.7 3.9 7.8 2.4 10.4-1.1 3.1-1.7 6.6-1.7 10.2 1.1-2 4-4.1 4-6.1 1.1-6.1 2.9-10.2 6.8-14.8 0 2.6 0 5.6-.6 8.2 2.9-2.6 4.8-14.6 6.5-17.7.6 9.7-4.8 27.9-11.6 35-2.3 1.5-5.1 0-7.4.5-1.1 0 0 8.5-.6 10-2.9 5.1-7.4 12.1-8 17.7 5.9-3.5 8.2-12.5 13.4-16.6zm24.7-229.4c-.6-1.2-1.4-2.2-3-2.9-2.4-1.2-6-.7-8.1-1.8-1.3-.7.7-3-1.7-3.9-3.7-1.2-5-3.2-6-5.5-1.9-4-5.8-7.1-8.9-10.6 1.5 1 2.8 2.1 4.7 2.9 1 .4 2 .8 3.1 1 1 1.5 1.9 2.9 2.8 4.4.3.7 2 .9 2.7 1.8 2 3.2 3 6.5 8.7 7.8 1 .2.7 1.2 1.3 1.8 4.4 3.2 9.4 5.8 12.1 9.7-2.1-1.9-4.8-3.4-7.7-4.7zm-114 210.9s2.2 9 4.8 15.7c2.6 6.6 6.2 16 6.2 16s6-6.4 11.6-5.6c5.6.8 10.8-15.9 10.8-15.9s-5.2 8.2-7.7 7.9c-2.5-.3-4.4-2.2-2.6-5.9 1.8-3.7 3.8-8.7 3.8-10.4 0-1.7 6.6-4.5 6.6-4.5l-3.2-9.6v5.6s-4.8 5.9-5.6 4.5c-.8-1.4 0-2.9 0-2.9l-3.1 7.6-9-3.4s1.7 5.6 1.7 9.3 1.1 11.5-1.7 9c-2.9-2.4-8.2-6.2-12.6-17.4zm170.4-121.9c3.2 7.3 12.5 10 12.2 18 0 .6 1.1 1.7 1.6 2.2-3.1-.5-5.7-1.6-8.7-2.1 0 1.7 1.6 3.4 2.6 3.4 5.7 2.1 8.8 6.6 6.9 11.2 0 1.7-4.1-1.6-6.7-1 3.7 3.3 8.3 5.5 11.5 9.4 1 1.1 1.1 4.5 2.7 5.6 3.7 4.5 5.9 10.1 9.1 15.2-.7-6.8-4.9-11.3-7.6-17.5-6.5-13.5-4.8-29.6-14.8-41.9-1.6-1.7-.1-4.6 1.4-6.9-4.9-2.4-9.5-6.2-12.7-11.2l.2 6.7c2 2.3 4 4.6 6 7 .9.7-2.2 2.5-3.7 1.9z"/><path class="st10" d="M1272.9 827c-1.9 10.9-6.9 13.8-10.1 15.6-3.2 1.9 0 5.8 0 13s-.8 25.7-1.6 29.2-2.7 5-2.7 11.4.3 11.9-4.8 20.4c-5 8.5-9.8 30.2-9.8 30.2l-1.6 21.2s-.5 1.3-4.2 8.7c-3.7 7.4-4.5 4-4.5 4s-9.3-24.1-10.6-29.4c-1.3-5.3 1.3-32.3 0-39.5-1.3-7.2-5.8-20.9-10.3-27s-1.9-23.6-4-26.2c-2.1-2.7-1.6-21.7-2.1-26-.5-4.2-6.1-7.4-6.1-7.4s1.6-4.2 5.6-6.9 8.2-7.5 8.2-10.2 2-9.8-1.6-14.4 12.1 5.9 13.4 10.8c1.3 4.9-.7 15.1-.7 15.1l11.3 16.1s2.5 6.6 2.5 7.9-.7-11.5 6.6-14.4c7.2-2.9 3.6-9.5 10.5-11.1 6.9-1.6 19-7.9 19-7.9l-2.4 16.8z"/><path class="st13" d="M1244.2 946.8l-1.6 21.2s-.5 1.3-4.3 8.7c-3.8 7.4-4.6 4-4.6 4s-9.4-24.1-10.7-29.4c0 0-.7-5.7-.4-7.2.3-1.5.4 3.3 1.7 3.5 1.2.3 2.2 1.2 2.2 1.2s-1.2-4.5.5-6.5 2.9-5.6 2.7-6.8 1.5-6.5 1.5-6.5 1.8 6.1 1.4 7.8c-.4 1.6 3 5 3 6s2.9 3.5 2.9 3.5 1-.8 1.8-1.2c.8-.4 1.1-1.9 1.1-1.9s1.6 5.4 2.8 3.6zm8-115.3s-6.2 2.6-6.2 6.9-1.8 10.4-1.8 10.4l4 4.6s2.1 2 1.2 6.1c-.9 4 2.8 8.4 2.8 8.4v8.4s4.2-5.8 4.2-10.1.9-2.6 0-7.8c-.9-5.2 2.3-11.8 2.3-11.8s-10.4-1.6-6.5-15.1zm-63.7-299.6s4.8 4.7 2.8 7.4 3.3-1.1 3.3-1.1l-7.3 16.9 5.1 4.9s-.9.3-.5 2.3c.4 2.1 6.3-13.5 6.3-13.5s-1.5-5.2-.6-8.2 2.2-5.2 1.6-6.4c-.6-1.2 1.9-10.3 1.9-10.3s-2 5.6-3.9 5.2c-1.7-.3-7.8 0-8.7 2.8zm22.3 325.4c2.5 7.6 11.5 11.1 10.5 19 0 .6.9 1.8 1.4 2.4-3-.8-5.5-2.1-8.5-2.9-.1 1.7 1.3 3.5 2.3 3.6 5.4 2.7 8.2 7.4 5.8 11.8-.1 1.7-4-2-6.5-1.6 3.3 3.7 7.8 6.3 10.5 10.4.9 1.2.7 4.6 2.2 5.9 3.2 4.8 4.9 10.6 7.6 16 0-6.9-3.8-11.7-5.9-18.1-5.2-14.1-2-29.9-10.8-43.1-1.4-1.8.3-4.6 2-6.7-4.6-2.8-8.9-7.1-11.6-12.4l-.5 6.7c1.8 2.5 3.6 4.9 5.3 7.5.9.6-2.3 2.1-3.8 1.5z"/></g><g class="st0"><g class="st3"><path d="M1228.9 170.3c1.1-.4 2.2-.7 3.4-.7.9 0 1.7-.8 2.2-1.5 5.4-7.5 12.7-10.9 21.5-10.5 1.6.1 3 0 4.1-.4v-.8c0-10.1 8.5-18.4 19-18.4 2.9 0 5.7.8 8.2 2 1 .2 1.9.3 2.9.6.8.2 1.6.5 2.4.6 1.8-1.6 4.3 1.9 6.9 1.9 1.8 0 2 17.5 3.5 18.3 1.9-2.3 4.8-2.4 8-2.4.7 0 1.3.1 2 .2 1.9-.8 1.8-3.3 2.7-4.9 4.4-8.2 9.8-15.1 18.5-18.8 12.9-5.5 24.9-3.9 36.4 3.9.6.4 1.1.8 1.7 1.1h1.1c8.3 0 15.6 8.3 19.8 14.6 1.5 1.8 2.8 3.8 3.2 6.3.3 1.6-4.6 3.4-3.7 4.4 5.1.6 5.1 14.2 5.1 14.2-2.7-4.3 5.1-20.6 15.7-21.3 6.4-.5 10.1 1.7 12.8 5.4.2 0-1.8-12.7 11.2-14.5 2.7-.4 4.3.2 5.8.9 1.9-4.5 9.9-9.5 16.8-9.5 10.6 0 20.6 7 23.8 15.1.9 2.2 1.4 5.1 1.4 5.1 3.2-2.2 7.4-3.5 12-3.5 8.4 0 14.1 7.8 16.4 13.9.3.2.6.3.9.5.7-.2 1.3-.3 2.1-.3 3.6 0 6.6 2.4 7.5 5.7 1.4-.3 2.9-.5 4.5-.5 6.3 0 11.7 1.4 13.7 5.3 1.5 0 2.9 1.1 4.4 1.1 21.3 0 38.7.1 38.5 1.8-.2 1.9-17.2 2.4-38.5 2.4-9.6 0-18.4-.5-25.1-1-2.1 1.1-5.5 1.7-9.2 1.6-2-.1-3.8-.3-5.5-.8-.2 0-.3.1-.5.1-4.5 1.5-14.9-.6-19.5-.7-5.9-.1-14.5-.4-20.4.6-1.3.2-6.5-.2-7.8-.5-9-2.2-15.9-3.5-26.9-3.1-4.5.2-27.9 2.6-32 .9-.5-.2-1.2-.4-1.8-.3-6.1.9-6.1-1.2-12.3-1.1-7.5.1-13.6.6-21.2.3-6.1-.3-12 1.9-18 2.3-8.6.6-6.9 1.6-15.5 1-5.7-.4-11.3-2-17.1-1.9-5.4.1-10.9 3.7-16.3 3.9-6.3.2-12.4-1-18.4-2.8-5.4-1.6-10.9-2.5-16.4-2.1-3.8.3-7.5.3-11.1-.7-5.5-1.4-11-3.5-16.8-1.4-.7.3-1.7 0-2.5-.1-.4.1-.9.1-1.3.1-3.2.3-6.3.2-8.9-.1-.5 0-.9 0-1.4-.2-3.7-.7-6.1-2.1-6.2-3.8-.3-3.6 6-6.6 14.2-7.5z" fill-rule="evenodd" clip-rule="evenodd" fill="#082d3a"/><path d="M1479.4 122.4c-.4-.1-.7-.2-.7-.7 0-.3-.2-.4-.5-.4-.8.1-1.7.2-2.5.2-2 .1-4.1.2-6.1.1-2.3 0-4.6-.1-6.9-.2-.8 0-1.6-.2-2.4-.5-.4-.2-.4-.4 0-.6.7-.4 1.5-.4 2.2-.5 2.4-.4 4.9-.5 7.4-.6.8 0 1.6.2 2.1-.7.1-.1.1-.2.2-.3-.2-.2-.2-.5-.2-.7.1-.8 1.5-1.2 3.1-1h.2c.5 0 .6-.2.5-.6-.2-.8.3-1.4.9-1.8.5-.4 1.1-.5 1.8-.3.4.1.6.6 1 .7.5-.2 1.3-.3 2.1-.1h.2c-.1-.2-.2-.5-.2-.7 0-1.2 1.3-2.2 3-2.3.1-.1.2-.1.2-.2 0 0 0-.1.1-.1.3-1 1.5-1.7 2.9-1.7s2.7.7 3 1.6c.2 0 .4-.1.6-.1 1.7 0 3.1.9 3.1 2.1v.3c.1.1.1.3.2.4.7.3 1.2.8 1.2 1.2.1.1.3.2.6.1.5-.1 1 0 1.5.2.9.2 1.5.7 1.5 1.2 0 .3-.2.6-.6.9v.1l.1.1c.4 0 .7 0 1.1.1.6.1 1.2.3 1.6.6.4.1.7.1 1.1 0 .5-.1.7-.2.9-.6.3-.9 1-1.2 1.9-1.2.9 0 1.5.5 1.8 1.4.1.5.4.6.8.5.4 0 .8.1 1.2.1 1 .1 1.7.7 2.7.9.4 0 .9-.1 1.3-.1 2.2-.1 4.1.3 4.1.8s-1.8.9-4 1c-.7 0-1.4 0-2-.1-.9 0-1.9-.1-2.8-.2-1-.2-1.8-.3-2.6.7-1 1.2-2.6 1.1-4 1-.8-.1-1.5-.2-2.3.3-1.5 1-3.3.9-5.1.8-.8-.1-1.6-.2-2.3-.7-.5-.4-.9-.2-1.4-.1-1.5.4-3 .3-4.4-.1-.4-.1-.8-.3-1.2-.2-1.9.5-4 .5-6 0z" fill-rule="evenodd" clip-rule="evenodd" fill="#173a4b"/><path class="st16" d="M1630.9 175.2c-1.9.6-3.8.7-5.7.5-.9-.1-1.7 0-2.4.4s-1.6.6-2.3.6c-1.8 0-3.7.5-5.5-.2-.4-.2-.9-.2-1.3 0-1.9.7-3.8.6-5.7.1-.4-.1-.9-.2-1.2-.1-1.6.6-3.2.4-4.8.3-.8 0-1.4-.6-2.2-.3-1.1.4-2.2.5-3.2.4-1.6 0-3 .1-4.3-.5-.5-.2-1.3-.4-1.2-1.2 0-.4-.1-.5-.5-.6-.9 0-1.8 0-2.6-.1-.4 0-1.1-.1-1.1-.6 0-.6.7-.5 1.2-.6 3.1-.5 6.2.3 9.4.2.9 0 1.9.5 2.8.1.1 0 .2-.1.3-.2-.1-.1-.2-.2-.3-.2-.2-.2-.5-.4-.5-.7 0-.1.2-.3.4-.3 4-.7 7.9-.5 11.9-.4 1.9.1 3.7 1 5.7.9 1.5-.1 3 0 4.4.5.5.2 1.1.4 1.7.4 2.3-.2 4.6 0 6.9.5.3.1.5.2.5.5 0 .4-.2.5-.4.6z"/><path class="st17" d="M1627.2 153.2h-8.1c-2.3-.2-4.7-.3-7-.3-.6 0-1.3.2-2 0-.2-1.7-3.5-3-7.6-3-1.3 0-2.6.1-3.7.4-.1-.2-.1-.5 0-1 .9-3.7-2-7.9-6.7-9.2-3.7-1-6.7-.1-9.5 1.8-.1.1-.4.2-.5.2-.2-.1-.3-.3-.3-.4-.1-1.8-1.1-3.3-2.3-4.5-2.1-2.3-5-3.7-8.6-4.1-7.6-.8-14.2 3.8-14.7 10.3 0 .3-.1.6-.6.4-1.7-.6-3.4-.6-5.1-.3-3.5.6-6.1 3.7-5.9 6.7-.7-.2-1.5-.2-2.4-.2-3.4 0-6.2 1.4-6.9 3.3-3.6-.1-7.2.1-10.8.8-.5.1-1.1.1-1.1.8.1.6.5.7 1.1.8 1.4.3 2.9.3 4.3.4 5.5.7 10.9.4 16.4.2 1.6-.1 3.2-.6 4.9-.1 1.5.5 3 .5 4.6 0 .9-.3 1.6-1.1 2.7-.6 2.2 1 4.5 1.4 7 .6 1-.3 1.9-1.1 3-.7 1.2.4 2.5.4 3.8.7 2.9.6 5.7.4 8.6.1 1.7-.2 3.2-1.3 5.1-.6 1.4.5 6.4 1 8 .9 1 0 1.9-.5 2.8-.6 2.3-.3 4.5.2 6.8.4 3.3.3 6.7.1 10.1.2 3.1.1 2.6-.1 5.6-.3 2.5-.1 4.8-.2 6.6-.4h2.2c19 0 34.4-.6 34.4-1.3.2-.8-15.2-1.4-34.2-1.4z"/><path class="st18" d="M1630.8 174.2c-.1 0-.2 0-.3-.1-1.6.3-3.2.4-4.7.3-.9-.1-1.7.1-2.4.5s-1.6.6-2.4.6c-1.9 0-3.8.5-5.6-.1-.4-.1-.9-.1-1.3 0-1.9.7-3.8.6-5.8.2-.4-.1-.9-.2-1.3 0-1.6.6-3.2.4-4.9.4-.8 0-1.5-.6-2.3-.3-1.1.4-2.3.5-3.3.5-1.6 0-3 .1-4.4-.4-.5-.2-1.3-.4-1.2-1.1 0-.4-.1-.5-.5-.5h-2.7c-.3 0-.8-.1-1-.2v.2c0 .5.7.5 1.1.6.9.1 1.8.1 2.6.1.4 0 .6.1.5.6-.1.8.7 1 1.2 1.2 1.3.6 2.7.5 4.3.5 1 0 2.1 0 3.2-.4.8-.3 1.5.3 2.2.3 1.6.1 3.2.2 4.8-.3.4-.1.8 0 1.2.1 1.9.5 3.8.7 5.7-.1.4-.2.9-.2 1.3 0 1.8.7 3.7.2 5.5.2.7 0 1.6-.2 2.3-.6.7-.4 1.5-.5 2.4-.4 1.9.2 3.8.1 5.7-.5.3-.1.5-.2.5-.6.1-.6-.1-.7-.4-.7z"/></g><g class="st3"><path class="st16" d="M987 273.5c-3.8 1.2-7.8 1.4-11.7 1-1.8-.2-3.4.1-4.9.9-1.5.9-3.3 1.3-4.8 1.3-3.8 0-7.6 1-11.3-.5-.9-.3-1.8-.3-2.7 0-3.9 1.5-7.7 1.2-11.7.2-.8-.2-1.8-.4-2.6-.1-3.2 1.2-6.5.8-9.8.7-1.5-.1-2.9-1.3-4.5-.7-2.3.8-4.6.9-6.6.8-3.2 0-6.1.1-8.8-1-1.1-.5-2.6-.8-2.4-2.6.1-.9-.3-1.1-1-1.1-1.8 0-3.6 0-5.4-.2-.9-.1-2.3-.2-2.2-1.2.1-1.2 1.5-1.1 2.5-1.3 6.4-1.1 12.8.7 19.3.5 1.9-.1 3.9 1 5.8.2.2-.1.4-.2.7-.4l-.5-.5c-.5-.3-1-.7-.9-1.3 0-.2.5-.5.8-.6 8.1-1.4 16.3-1.1 24.5-.8 4 .1 7.6 2.1 11.7 1.7 3.1-.3 6.2-.1 9.1 1 1.1.4 2.2.9 3.5.8 4.7-.4 9.5-.1 14.1 1.1.6.1 1 .3 1 1-.2.7-.7 1-1.2 1.1z"/><path class="st17" d="M979.5 228.3c-5.7 0-11.3 0-16.6.1-4.8-.3-9.6-.5-14.4-.6-1.3 0-2.8.4-4 0-.4-3.4-7.2-6.1-15.5-6.1-2.7 0-5.3.3-7.6.8-.2-.4-.2-1.1.1-2.1 1.9-7.6-4-16.2-13.8-18.9-7.7-2.1-13.7-.2-19.6 3.6-.3.2-.8.4-1 .3-.3-.2-.6-.6-.6-.9-.2-3.6-2.4-6.7-4.8-9.3-4.4-4.7-10.2-7.7-17.6-8.5-15.5-1.7-29.2 7.8-30.1 21.2 0 .7-.2 1.2-1.2.8-3.4-1.2-6.9-1.2-10.5-.6-7.2 1.1-12.5 7.6-12.2 13.8-1.5-.3-3.1-.5-4.8-.5-7 0-12.8 2.9-14.2 6.8-7.4-.1-14.8.1-22.1 1.6-1.1.2-2.3.3-2.2 1.7.1 1.2 1.1 1.4 2.2 1.7 2.9.7 5.9.5 8.8.9 11.2 1.5 22.5.9 33.7.5 3.3-.1 6.6-1.3 10-.3 3.2 1 6.3 1 9.5 0 1.8-.6 3.3-2.3 5.5-1.3 4.6 2.2 9.3 2.8 14.4 1.2 2-.6 3.9-2.2 6.2-1.4 2.5.9 5.2.9 7.7 1.4 5.9 1.3 11.7.8 17.7.2 3.5-.4 6.6-2.6 10.5-1.2 2.9 1.1 13.1 2 16.5 1.9 2.1-.1 3.9-1 5.8-1.2 4.7-.5 9.3.3 14 .8 6.9.6 13.8.2 20.7.4 6.3.1 5.4-.1 11.5-.7 5.2-.1 9.9-.4 13.6-.8h4.5c39 0 70.7-1.2 70.7-2.7-.1-1.4-31.8-2.6-70.8-2.6z"/><path d="M921.8 217.7c0-.5 0-.9-.1-1.4-.1.7 0 1.1.1 1.4zm57.7 10.6h-3c-3.7.4-8.4.8-13.6 1-6.2.7-5.3.9-11.7.9-7.1 0-14.2.5-21.2 0-4.8-.3-9.5-1.1-14.2-.5-2 .3-3.7 1.2-5.9 1.3-3.5.1-13.8-.6-16.9-1.7-3.9-1.4-7.1 1-10.7 1.4-6.1.8-12 1.3-18 .2-2.6-.5-5.3-.4-7.9-1.3-2.3-.8-4.3.9-6.3 1.5-5.2 1.7-10 1.1-14.7-1-2.3-1-3.8.8-5.6 1.4-3.3 1.1-6.4 1.1-9.7.2-3.5-1-6.8.3-10.2.4-11.5.6-22.9 1.4-34.4.1-3-.3-6-.1-8.9-.7.2 1.1 1.1 1.4 2.2 1.6 2.9.7 5.9.5 8.8.9 11.2 1.5 22.5.9 33.7.5 3.3-.1 6.6-1.3 10-.3 3.2 1 6.3 1 9.5 0 1.8-.6 3.3-2.3 5.5-1.3 4.6 2.2 9.3 2.8 14.4 1.2 2-.6 3.9-2.2 6.2-1.4 2.5.9 5.2.9 7.7 1.4 5.9 1.3 11.7.8 17.7.2 3.5-.4 6.6-2.6 10.5-1.2 2.9 1.1 13.1 2 16.5 1.9 2.1-.1 3.9-1 5.8-1.2 4.7-.5 9.3.3 14 .8 6.9.6 13.8.2 20.7.4 6.3.1 5.4-.1 11.5-.7 5.2-.1 9.9-.4 13.6-.8h4.5c39 0 70.7-1.2 70.7-2.7.1-1.3-31.6-2.5-70.6-2.5z" fill="#093f4c" fill-rule="evenodd" clip-rule="evenodd"/><path class="st18" d="M986.9 271.4c-.2-.1-.4-.1-.7-.1-3.2.7-6.5.8-9.7.6-1.9-.1-3.5.1-5 1s-3.3 1.3-4.9 1.3c-3.8.1-7.7 1.1-11.6-.2-.9-.3-1.9-.3-2.8.1-3.9 1.5-7.9 1.3-11.9.4-.8-.2-1.9-.3-2.6-.1-3.3 1.2-6.6.9-10 .9-1.6 0-3-1.1-4.6-.6-2.3.8-4.6 1-6.7.9-3.3.1-6.2.2-9-.8-1.1-.4-2.7-.7-2.5-2.4.1-.8-.3-1.1-1.1-1.1-1.8 0-3.7 0-5.5-.1-.6 0-1.6-.1-2-.5 0 .1-.1.2-.1.3-.1 1 1.4 1.1 2.2 1.2 1.8.2 3.6.2 5.4.2.8 0 1.1.2 1 1.1-.2 1.7 1.3 2.1 2.4 2.6 2.7 1.2 5.6 1.1 8.8 1 2 .1 4.3-.1 6.6-.8 1.6-.6 3 .7 4.5.7 3.3.1 6.6.5 9.8-.7.7-.3 1.7-.1 2.6.1 3.9 1 7.8 1.4 11.7-.2.9-.4 1.9-.4 2.7 0 3.7 1.5 7.6.5 11.3.5 1.5 0 3.3-.4 4.8-1.3s3-1.1 4.9-.9c3.9.3 7.9.2 11.7-1 .6-.2 1-.5 1-1.2.3-.6-.1-.8-.7-.9z"/></g></g><g class="st0"><g class="st3"><path class="st20" d="M1171.1 165.8c-.4 2.9-1 8.4.4 11.3 2.1 4.6 8.6 7.9 11.6 9-2.1-2.8-3.1-5-2.6-6.6.1-.5 1.1 1.3 2.8 1.6-.6-1.9-.5-2.4-.5-3.8s-.3-3.9-1.2-5.3c-3-4.6-8.2-6.4-9.3-6.8l-1.2.6z"/><path class="st21" d="M1171.1 165.8c-.3 1.2-.4 5.7.8 7.7 1.2 2 5.8 4.1 8 6.2-.5-2.2-1.1-2.9-.8-4.8.2-1.9.2-2.1-.1-3.1-.3-1-2.2-3.1-4.1-4.7-2-1.7-2.5-1.9-2.5-1.9l-1.3.6z"/><path class="st22" d="M1171.1 165.8c-.1 1.5.3 5.6 1.6 6.7 1.3 1.1 2.3.7 4.5 2.3 0-.9-1.3-2.3-.9-3.2.5.5.7.8 1.4 1-.6-.8-.6-1.8-1.1-2.9-.6-1.3-1.9-2.1-2.9-2.9-1-.9-1.5-1.6-1.5-1.6l-1.1.6z"/><path class="st23" d="M1171.9 166.4c-2.2 1.2-4.2 1.7-4.5 1.1l.6 1.1c.3.6 2.4.1 4.5-1.1 2.2-1.2 3.6-2.7 3.3-3.3l-.6-1.1c.4.6-1.1 2.1-3.3 3.3z"/><path class="st23" d="M1172.7 167.7c-1.6.9-3.2 1.3-3.4.8l.5.8c.3.5 1.8.1 3.4-.8 1.6-.9 2.7-2 2.5-2.5l-.5-.8c.2.5-.9 1.6-2.5 2.5z"/><path class="st24" d="M1160.6 153.2c.4 2.7 1.5 6.3 3.9 10.5 1.3 2.2 2.2 3.9 2.2 3.9s3.3-.6 5-1.6c1.7-1 4-3.4 4-3.4s-.9-1.7-2.2-4c-2.3-4.1-4.9-6.9-7.1-8.7-.7.7-1.6 1.4-2.7 2-1 .6-2.1 1-3.1 1.3z"/><path class="st25" d="M1161.2 147.3c-.5.3-1.1 2.4-.6 5.9 1-.3 2.1-.7 3.2-1.3 1-.6 2-1.3 2.7-2-2.7-2.2-4.9-2.9-5.3-2.6z"/><path class="st23" d="M1171.1 164.9c-2.5 1.4-4.9 2-5.3 1.3l.7 1.3c.4.7 2.8.1 5.3-1.3 2.5-1.4 4.2-3.1 3.8-3.8l-.7-1.3c.4.6-1.3 2.4-3.8 3.8z"/><path class="st26" d="M1175.2 163.5c-.2.3-.6.6-1 1 0 .1.1.1.1.2.5-.5.8-.9.9-1.2zm-.1 2.1c-.1.1-.2.2-.3.2v.1c.2-.1.3-.2.3-.3z"/><path class="st27" d="M1174.3 164.7l.6 1.2c.1-.1.2-.2.3-.2.1-.2.1-.3 0-.4l.1.2c.5-.5.7-1 .6-1.3l-.5-.9c0 .1-.1.1-.1.2-.2.3-.5.7-1 1.2z"/><path class="st27" d="M1175.1 165.6c0 .1-.1.2-.2.3.1.3.3.6.4.9.3-.3.4-.6.3-.8l-.3-.6-.1-.2c0 .1 0 .2-.1.4z"/><path class="st28" d="M1172.6 161.4c.3.6.7 1.2 1 1.8.9-.8 1.5-1.6 1.4-2-.4-.7-.8-1.6-1.4-2.6-2.3-4.1-4.9-6.9-7.1-8.7-.4.4-.8.7-1.3 1.1 2.4 2.6 5 6.2 7.4 10.4z"/><path class="st29" d="M1166.5 149.9c-2.7-2.2-4.8-2.9-5.3-2.6-.1 0-.1.1-.2.2 1.2.7 2.7 1.9 4.2 3.5.4-.4.9-.7 1.3-1.1z"/><path class="st27" d="M1173.6 163.2c.2.4.5.9.7 1.3.4-.3.7-.7 1-1 .1-.1.1-.1.1-.2.2-.3.3-.5.3-.7 0-.1 0-.2-.1-.2l-.7-1.3v.1c.1.4-.4 1.2-1.3 2z"/><path class="st20" d="M1178.6 164.7c-.4 2.9-1 8.4.4 11.3 2.1 4.6 8.6 7.9 11.6 9-2.1-2.8-3.1-5-2.6-6.6.1-.5 1.1 1.3 2.8 1.6-.6-1.9-.5-2.4-.5-3.8s-.3-3.9-1.2-5.3c-3-4.6-8.2-6.4-9.3-6.8l-1.2.6z"/><path class="st21" d="M1178.6 164.7c-.3 1.2-.4 5.7.8 7.7 1.2 2 5.8 4.1 8 6.2-.5-2.2-1.1-2.9-.8-4.8.2-1.9.2-2.1-.1-3.1-.3-1-2.2-3.1-4.1-4.7-2-1.7-2.5-1.9-2.5-1.9l-1.3.6z"/><path class="st22" d="M1178.6 164.7c-.1 1.5.3 5.6 1.6 6.6 1.3 1.1 2.3.7 4.5 2.3 0-.9-1.3-2.3-.9-3.2.5.5.7.8 1.4 1-.6-.8-.6-1.8-1.1-2.9-.6-1.3-1.9-2.1-2.9-2.9-1-.9-1.4-1.6-1.4-1.6l-1.2.7z"/><path class="st23" d="M1179.4 165.3c-2.2 1.2-4.2 1.7-4.5 1.1l.6 1.1c.3.6 2.4.1 4.5-1.1 2.2-1.2 3.6-2.7 3.3-3.3l-.6-1.1c.3.6-1.2 2.1-3.3 3.3z"/><path class="st23" d="M1180.1 166.6c-1.6.9-3.2 1.3-3.4.8l.5.8c.3.5 1.8.1 3.4-.8 1.6-.9 2.7-2 2.5-2.5l-.5-.8c.3.5-.9 1.6-2.5 2.5z"/><path class="st24" d="M1168 152.1c.4 2.7 1.5 6.3 3.9 10.5 1.3 2.2 2.2 3.9 2.2 3.9s3.3-.6 5-1.6c1.7-1 4-3.4 4-3.4s-.9-1.7-2.2-4c-2.3-4.1-4.9-6.9-7.1-8.7-.7.7-1.6 1.4-2.7 2-1 .6-2.1 1-3.1 1.3z"/><path class="st25" d="M1168.6 146.2c-.5.3-1.1 2.4-.6 5.9 1-.3 2.1-.7 3.2-1.3 1.1-.6 2-1.3 2.7-2-2.7-2.2-4.8-2.9-5.3-2.6z"/><path class="st23" d="M1178.5 163.8c-2.5 1.4-4.9 2-5.3 1.3l.7 1.3c.4.7 2.8.1 5.3-1.3 2.5-1.4 4.2-3.1 3.8-3.8l-.7-1.3c.4.7-1.3 2.4-3.8 3.8z"/><path class="st26" d="M1182.7 162.4c-.2.3-.6.6-1 1 0 .1.1.1.1.2.4-.4.8-.9.9-1.2zm-.1 2.1c-.1.1-.2.2-.3.2v.1c.2-.1.2-.2.3-.3z"/><path class="st27" d="M1181.8 163.6l.6 1.2c.1-.1.2-.2.3-.2.1-.2.1-.3 0-.4l.1.2c.5-.5.7-1 .6-1.3l-.5-.9c0 .1-.1.1-.1.2-.2.3-.6.8-1 1.2z"/><path class="st27" d="M1182.6 164.5c0 .1-.1.2-.2.3.1.3.3.6.4.9.3-.3.4-.6.3-.8l-.3-.6-.1-.2c0 .1 0 .3-.1.4z"/><path class="st28" d="M1180 160.3c.3.6.7 1.2 1 1.8.9-.8 1.5-1.6 1.4-2-.4-.7-.8-1.6-1.4-2.6-2.3-4.1-4.9-6.9-7.1-8.7-.4.4-.8.7-1.3 1.1 2.4 2.6 5.1 6.2 7.4 10.4z"/><path class="st29" d="M1173.9 148.8c-2.7-2.2-4.8-2.9-5.3-2.6-.1 0-.1.1-.2.2 1.2.7 2.7 1.9 4.2 3.5.5-.4.9-.7 1.3-1.1z"/><path class="st27" d="M1181 162.1c.2.4.5.9.7 1.3.4-.3.7-.7 1-1 .1-.1.1-.1.1-.2.2-.3.3-.5.3-.7 0-.1 0-.2-.1-.2l-.7-1.3v.1c.2.4-.3 1.2-1.3 2z"/><g><path class="st30" d="M1138.1 142.1c-.7-1.1-2.5-3.2-4.8-1.3-2.2 2 1.3 4.3 1.3 4.3l3.5-3z"/></g><path d="M1165.6 170.3c-.3-.2-1.5 4.1-1.5 4.1.5 0 1.3-.2 1.9-.4l-.3 1.2c-.5 2.4.1 4.5 1.4 4.8.9.2 1.2-2 1.6-4.2.2-1.1.5-2.1.7-2.9l.3-1.4s-.4-.6-2.4-.2c-.5.1-1.4-.9-1.7-1zm3.7 1.3z" fill="#54371d"/><g><path d="M1170.7 163.9c1.9.1 2.7.4 3.3.8.4.4.7.7 1 1.1.6.8 1.2 1.5 1.7 2.3.5.8.8 1.6 1.1 2.4.2.4.3.8.4 1.2 0 .2.2.4.1.6-.1.2-.5.5-1.4.9l-20.9 3.3c-1.1 0-1.5-.2-1.6-.4-.1-.2 0-.4-.1-.6v-1.3c0-.9.1-1.7.3-2.6.2-.9.5-1.8.9-2.7.2-.5.4-.9.6-1.4.4-.5 1.1-1 2.9-1.7l11.7-1.9z" fill="#6d3325"/></g><path class="st30" d="M1172.8 169.5c-.3.1 1.2 2.5 1.2 2.5.8 0 1.3 0 1.8-.4.2.3.4.7.6 1 1.4 2 3.4 3 4.5 2.2.7-.5-.7-2.2-2-4-.7-.9-1.2-1.8-1.7-2.5l-.8-1.1s-.7-.1-1.7 1.6c-.2.5-1.5.6-1.9.7zm3.5-1.8z"/><g><path class="st33" d="M1174.7 159.8c1.8-.7 2.7-.8 3.3-.7.5.2.9.4 1.4.6.9.4 1.7.9 2.5 1.4.7.5 1.4 1.1 2 1.7l.9.9c.1.2.3.3.4.5 0 .2-.2.6-.9 1.4l-17.5 11.8c-1 .4-1.4.5-1.7.4-.2-.1-.2-.4-.3-.5-.2-.4-.4-.8-.5-1.2-.3-.8-.6-1.6-.8-2.5-.2-.9-.3-1.8-.4-2.8v-1.5c.2-.6.6-1.4 1.9-2.8l9.7-6.7z"/></g><g><path class="st33" d="M1158.6 156.9c.1 1.4 0 1.8-.1 2.1-.1.3-.3.6-.4.9-.3.5-.7.9-1.1 1.2-.4.3-.8.5-1.2.6-.4.1-.8.2-1.3.2h-2.4c-.8-.1-1.5-.1-2.3-.2-3.1-.5-5.9-1.4-8.5-2.6-2.6-1.3-5-2.8-7-4.8-1-1-2-2.1-2.9-3.3-.5-.6-1-1.2-1.1-2.2 0-.2-.1-.5-.1-.7v-.8c0-.3.2-.7.4-1.1l.4-.6c0-.1.1-.1.1-.2l.3-.2.1-.1.2-.1.3-.2c.1-.1.2-.1.4-.2l.5-.3 5.4-2.6 1.6-.7.3-.1.2-.1.7-.2.8-.3c.3-.1.7-.1.9-.1.5 0 .7.4 1 .6l1.9 1.9c1.3 1.3 2.6 2.8 3.9 4.1 1.3 1.4 2.6 2.7 4 3.8l1 .8c.3.2.7.4 1.1.6.2.1.3.1.5.3.2.2.4.4.6.7.2.2.4.6.7 1 .1.2.3.5.4.8.1.3.3.7.7 2.1z"/></g><ellipse transform="rotate(-25.289 1157.992 146.497)" class="st34" cx="1158.1" cy="146.5" rx="9.5" ry="9.5"/><path class="st34" d="M1157.6 169.2l1.2 2.5c1.2 2.5 5.7.7 11.1-1.9 4.7-2.2 10.3-4.6 8.7-8.1-3.7-9.4-9.8-15.9-17.7-12.1-7.8 3.7-7.4 10.1-4.8 16.5v.1l.2.4c.4.9.8 1.7 1.3 2.6z"/><path d="M1157.1 161.2c.9-.6 1.2-2.1 2.3-3.2 1.5-1.5 1.5-3.3 1.6-2.5.1.8.8 1 .8.9 0-.1-.2.2-.3-1-.2-1.2 1.1-2.1 1.6-4.4.1-.6.3-1.8.3-2.5.2.3.3.6.4.9.2-7.3-3.4-10.6-3.8-10.7.2 0 .7 0 1.2.3-1.4-1.9-2.9-1.8-3.1-1.8.2-.3.7-.5 1-.5-.9-.8-1.7-1.2-2.8-1-.6.1-.8.8-.8.8.1-.5-.3-1.9-1.9-2.1 1.3 2 .9 1.7.8 1.8 0 .1-1.4-.8-2.5-.6.3.1.6.3.7.5-1.2-.2-2.6-.6-4.5 1.5.9-.2 1.3 0 1.7.1-.3.2-3.8 2.4-3.9 7 .2-.1 1-1 1.1-.9-.6.7-2.4 3.2.8 10.4 0-.4 0-1.4.2-1.4-.1.8 1 2.7 3.4 4.1 3.5 1.8 5.1 2.9 5.7 4.3z" fill="#dcb680"/><path class="st30" d="M1148.8 148.4c-.8-3.6.7-7 3.3-7.6 2.6-.6 5.3 1.8 6.1 5.4.5 2.1.2 4.1-.6 5.6-.9 1.6-1.6 3-1.4 4.4-.9-1.8-2.3-2.1-4.1-3.1-1.5-.8-2.8-2.6-3.3-4.7z"/><g><path d="M1148.6 147.4c.5 3.5 2.8 6.2 5.5 5.8 2.7-.4 5.1-3.8 4.5-7.4-.5-3.5-3.2-6-5.9-5.6-2.6.4-4.7 3.7-4.1 7.2z" fill="#c69666"/><path d="M1151.9 146.1c-.3-.1-.7-.2-1-.2-.3 0-.7 0-1.1.1.2-.3.6-.5 1-.6.4-.1.7-.2 1.2-.3l-.1 1zm1.3-1.2c.4-.1.8-.1 1.2-.1.4 0 .8.1 1.1.3-.4 0-.7.1-1.1.2-.3.1-.6.3-.9.5l-.3-.9z" fill="#662f1e"/><path class="st38" d="M1153.6 145.8h1.1l-.9.7zm-1.7.9c-.4-.2-.8-.4-1.3-.5.5-.1.9-.1 1.4-.2l-.1.7z"/><path d="M1153.9 147.4c.3.3.3.8.1 1.2-.2.4-.7.6-1.1.7-.4.1-1-.1-1.2-.5-.3-.4-.3-.8-.1-1.2 0 .4.3.6.5.8.2.2.5.2.8.2.3 0 .6-.1.8-.3.1-.2.3-.5.2-.9z" fill="#574c3e"/><path class="st38" d="M1154.7 150.1c.3.3.3.7.1 1.1-.1.2-.2.4-.4.4-.2.1-.4.1-.6.1-.4 0-.7-.1-1-.3-.3-.2-.5-.4-.6-.7.3.1.5.1.7 0 .2-.1.4-.1.6-.3l.2-.2h.2c.3.2.6.2.8-.1z"/><path d="M1153.7 140.2c-.6-.1-1.4.1-2.1.3-1.7.7-2.6 2.8-2.8 3.4.4-.3 1-.4 1.5-.2.1 0 .2.1.3.1l.5-1.8.4 2c3 .6 5.7-2.3 6.6-.1-.9-2.1-2.6-3.6-4.4-3.7" fill="#442c1a"/></g><g><path class="st30" d="M1183.4 158.8c1.2 0 3.9-.4 3.5-3.2-.4-2.8-1.5-1.6-2-1.3-1.1.5-2 .2-2 .2l.5 4.3z"/><path class="st33" d="M1165.4 152.3l.5-.7.4-.5c.2-.2.4-.4.4-.5l.7-.6c.4-.3.7-.5 1-.7.3-.1.6-.3.8-.3.2-.1.4-.1.6 0 .4.1.7.1 1.1.1h1.1c1.4 0 2.8-.3 4-.4 1.2-.1 2.4-.4 3.6-.4.6 0 1.2 0 1.8.1.3 0 .6-.1 1 .3.2.2.4.4.6.8.1.1.1.2.2.3l.2.5.2.7c0 .1 0 .1.1.2l.1.5.1.5.2 1 .8 5.9.1.6v1.7l-.1.7-.1.5c0 .2-.1.2-.1.4-.2.4-.4.7-.7.9-.5.5-1 .5-1.5.5-1 .1-2.1.2-3.2.2-2.1-.1-4.3-.6-6.2-1.5-2-.8-3.8-2-5.4-3.3-.8-.6-1.6-1.3-2.3-2-.4-.3-.7-.8-.8-1.5-.1-.3-.1-.8-.1-1.3 0-.3.1-.6.1-.9 0-.1.1-.4.2-.6l.2-.6.4-.6z"/></g></g><path d="M1133.8 144.4c0 .2-.1.3-.1.5s0 .4.1.7c.1.5.3 1 .7 1.5.3.5.8 1 1.2 1.6.2.3.5.6.7.9.3.3.5.6.8.9.6.6 1.2 1.2 1.9 1.8.7.6 1.4 1.1 2.2 1.7.8.5 1.6 1.1 2.4 1.5.8.5 1.7.9 2.5 1.3.4.2.9.4 1.3.6.4.2.9.3 1.3.5.9.3 1.7.5 2.6.7.4.1.8.2 1.2.2.4.1.8.1 1.2.2h.6c0 2.3.7 4.8 1.7 7.3v.1l.2.4c.4.8.8 1.7 1.2 2.6l1.2 2.5c.5 1 1.4 1.3 2.8 1.2 0 .4.1.8.1 1.1 0 .2 0 .5.1.6 0 .2.1.4.2.5.1.1.3.2.4.3.1.1.2.1.2.1l3.3-.5v.1c-.5 2.4.1 4.5 1.4 4.8.9.2 1.2-2 1.6-4.2l.3-1.2 1.6-.3s.1-.1.2-.1l.1-.1c.1 1.2.4 2.2.8 3.1 2.1 4.6 8.6 7.9 11.6 9-2.1-2.8-3.1-5-2.6-6.6.1-.5 1.1 1.3 2.8 1.6 0-.1 0-.1-.1-.2 2.6 2 5.6 3.5 7.3 4.1-2.1-2.8-3.1-5-2.6-6.6.1-.5 1.1 1.3 2.8 1.6-.6-1.9-.5-2.4-.5-3.8s-.3-3.9-1.2-5.3c-1.7-2.6-4.1-4.3-6-5.4.1-.2.2-.4.1-.5l-.3-.6c.5-.5.7-1 .6-1.3l-.5-.9c.2-.3.3-.5.3-.7 0-.1 0-.2-.1-.2l-.7-1.3v.1-.1c-.1-.1-.1-.3-.2-.4.2 0 .4 0 .6-.1.4-.1.8-.2 1-.4.1-.1.3-.2.4-.3v-.1c1.3-.2 3.1-.8 2.7-3.2-.4-2.8-1.5-1.6-2-1.3-.3.1-.6.2-.8.3-.1-.3-.1-.3-.2-.4-.1-.1-.2-.3-.3-.3-.1-.1-.2-.1-.4-.2-.3-.1-.6-.2-.9-.2h-4c-1.5-1.9-3-3.4-4.3-4.5-2.7-2.2-4.8-2.9-5.3-2.6-.3.2-.7 1.2-.8 2.8-.2 0-.3-.1-.5-.1.5-2.1.4-4.3-.6-6.4-1.6-3.4-5-5.4-8.6-5.5.2-.2.6-.3.9-.3-.9-.8-1.7-1.2-2.8-1-.6.1-.8.8-.8.8.1-.5-.3-1.9-1.9-2.1 1.3 2 .9 1.7.8 1.8 0 .1-1.4-.8-2.5-.6.3.1.6.3.7.5-1.2-.2-2.6-.6-4.5 1.5.9-.2 1.3 0 1.7.1-.3.2-3.8 2.4-3.9 7 .2-.1 1-1 1.1-.9-.4.6-1.7 2.3-.6 6.5-.5-.4-.9-.7-1.3-1.1-.6-.5-1.2-1.1-1.7-1.6s-1.1-1-1.6-1.5-.9-1-1.3-1.4c-.4-.4-.7-.9-1-1.2-.3-.4-.6-.6-.9-.8-.2-.1-.3-.2-.4-.2-.1 0-.2 0-.3-.1l.2-.2c-.7-1.1-2.5-3.2-4.8-1.3-1.7.9-.6 2.3.2 3.2zm46.9 20c-.1 0-.2-.1-.3-.1.4-.3.9-.6 1.2-.9 0 .1.1.1.1.2-.2.3-.6.5-1 .8zm-3.4 1.6c.4-.2.8-.3 1.2-.5v.3c-.3.2-.7.3-1 .4-.1 0-.2-.1-.2-.2zm1 1.2s0 .1 0 0c0 .1 0 .1 0 0zm3.9-2.1s-.1 0-.1-.1l.3-.3v.1c-.1.1-.1.2-.2.3z" opacity=".3" fill="#052532"/></g><radialGradient id="SVGID_1_" cx="959.645" cy="1347.629" r="693.095" gradientTransform="matrix(1 0 0 1.2158 0 -805.782)" gradientUnits="userSpaceOnUse"><stop offset="0" stop-color="#01323e" stop-opacity=".5"/><stop offset="1" stop-color="#01323e" stop-opacity="0"/></radialGradient><path d="M1919.3 602c-62.8-4.4-126-7.9-190-10-132.5-4.2-266.4-2-398.3 4.1-155.2 7.2-308.2 19.9-464.5 23.5-136.1 3.1-273-.8-407.5-8.2-89.9-5-179.8-11.6-270.9-11.1-64.9.3-131.6 4.7-188.1 15v460.1h1919.2V602z" opacity=".8" fill="url(#SVGID_1_)"/><linearGradient id="SVGID_2_" gradientUnits="userSpaceOnUse" x1=".027" y1="779.48" x2="1919.626" y2="779.48"><stop offset="0" stop-color="#01323e"/><stop offset="1" stop-color="#01323e" stop-opacity="0"/></linearGradient><path d="M1919.6 1073.7l-.4-485.5c-162.4-37-322.6-83.8-489.2-98-109.6-9.4-220.3-4.5-329.4 9.1-128.3 16-254.9 44.1-384.1 52-112.5 6.9-225.7-1.7-337-18.3-74.3-11.1-148.7-25.7-224-24.6-53.6.8-108.8 10.6-155.5 33.3l.4 532h1919.2z" opacity=".8" fill="url(#SVGID_2_)"/><radialGradient id="SVGID_3_" cx="960.013" cy="735.241" r="721.001" gradientUnits="userSpaceOnUse"><stop offset="0" stop-color="#01323e" stop-opacity=".5"/><stop offset="1" stop-color="#01323e" stop-opacity="0"/></radialGradient><path d="M1920 397.3c-62.8-3.6-224.8 14.7-288.9 13-132.5-3.5-167.6-22.9-299.4-17.9-155.2 6-264.1 3.3-420.4 6.3-136.1 2.6-317.1 12.4-451.6 6.3-89.9-4.1-179.8-9.6-270.9-9.1-64.9.3-131.6 4-188.1 12.4L0 1078.9h1919.2l.8-681.6z" opacity=".8" fill="url(#SVGID_3_)"/><path d="M0 1075.4V758.8c162.4-38.9 322.6-87.9 489.2-102.9 109.6-9.9 220.3-4.8 329.4 9.5 128.3 16.8 254.9 46.3 384.1 54.5 112.5 7.2 225.7-1.8 337-19.2 74.3-11.6 148.7-27 224-25.8 53.7.9 108.8 11.2 155.5 35v365.5H0z" opacity=".3" fill="#08353f"/><path d="M1919.3 1072.9V874.5c-162.4-24.4-322.6-55.1-489.2-64.5-109.6-6.2-220.3-3-329.4 6-128.3 10.5-254.9 29-384.1 34.2-112.5 4.5-225.7-1.1-337-12-74.3-7.3-148.7-16.9-224-16.2-53.7.5-108.8 7-155.5 21.9v229h1919.2z" opacity=".3" fill="#022f3d"/><path d="M0 1075.4V930.2c162.4-17.8 322.6-40.3 489.2-47.2 109.6-4.5 220.3-2.2 329.4 4.4 128.3 7.7 254.9 21.2 384.1 25 112.5 3.3 225.7-.8 337-8.8 74.3-5.3 148.7-12.4 224-11.8 53.7.4 108.8 5.1 155.5 16v167.5H0z" opacity=".3" fill="#02272b"/></svg>