<svg xmlns="http://www.w3.org/2000/svg" viewBox="0 0 486 500"><defs><style>.a{fill:#1b75bb;}.b{fill:#3b97bf;}.c{fill:#3b94bd;}.d{fill:#80c5e6;}.e{fill:#57a8cf;}.f{fill:#a0d3eb;}.g{fill:#67b3d6;}.h{fill:#c7e3ef;}.i{fill:#3a9cc7;}.j{fill:#ddeef5;}.k{fill:#8ecae6;}.l{fill:#6db5d6;}.m{fill:#d2e9f2;}.n{fill:#c2e3f2;}.o{fill:#b3dcef;}</style></defs><title>iceberg</title><polygon class="a" points="23.1 237.55 73.39 276.92 97.59 357.49 109.21 258.48 23.1 237.55"/><polygon class="a" points="97.59 357.49 209.13 389.72 239.29 477.92 162.9 397.13 97.59 357.49"/><polygon class="b" points="274.78 500 281.21 446.72 347.31 394.83 274.78 500"/><polygon class="c" points="323.16 174.06 347.31 291.73 439.07 258.55 323.16 174.06"/><polygon class="a" points="395.17 150.56 486 195.66 439.07 258.55 395.17 150.56"/><polygon class="a" points="439.07 258.55 397.97 371.02 347.31 291.73 439.07 258.55"/><polygon class="c" points="347 291.73 347 394.83 397.67 371.02 347 291.73"/><polygon class="d" points="323.16 174.06 274.89 278.83 285.23 342.19 347.31 291.73 323.16 174.06"/><polygon class="e" points="347 291.73 347 394.83 281.06 446.72 285 342.19 347 291.73"/><polygon class="b" points="239.29 477.92 285.23 342.19 209.13 389.72 239.29 477.92"/><polygon class="e" points="97.59 357.49 285.23 342.19 274.78 278.88 97.59 357.49"/><polygon class="f" points="265.77 85.18 219.01 258.55 203.27 207.54 161.65 155.8 265.77 85.18"/><polygon class="e" points="395.17 150.56 323.16 174.06 439.07 258.55 395.17 150.56"/><polygon class="c" points="97.59 357.49 219.01 258.55 274.78 278.88 97.59 357.49"/><polygon class="e" points="219.01 258.55 265.77 85.18 323.16 174.06 219.01 258.55"/><polygon class="c" points="23.1 237.55 56.64 155.8 109.21 258.48 23.1 237.55"/><polygon class="g" points="109.21 258.48 161.65 155.8 203.27 207.54 109.21 258.48"/><polygon class="c" points="97.59 357.49 203.27 207.54 109.21 258.48 97.59 357.49"/><polygon class="h" points="7.26 136.17 56.64 156 161.65 156 59.69 104.42 7.26 136.17"/><polygon class="i" points="219.01 258.55 274.78 278.88 323.16 174.06 219.01 258.55"/><polygon class="d" points="97.59 357.49 209.13 389.72 285.23 342.19 97.59 357.49"/><polygon class="j" points="59.69 104.27 150.43 95.28 179.88 69.33 59.69 104.27"/><polygon class="e" points="56.64 156 109.21 258.69 161.65 156 56.64 156"/><polygon class="a" points="274.78 500 239.29 477.92 285.23 342.19 281.21 446.72 274.78 500"/><polygon class="d" points="203.27 207.54 219.01 258.55 97.59 357.49 203.27 207.54"/><polygon class="k" points="395.17 150.56 265.77 85.18 369.3 92.19 395.17 150.56"/><polygon class="j" points="395.17 64.41 369.3 92.19 436.5 110.14 395.17 64.41"/><polygon class="l" points="483.62 141.1 486 195.66 395.17 150.56 483.62 141.1"/><polygon class="e" points="483.62 141.1 436.5 110.14 395.17 150.56 483.62 141.1"/><polygon class="f" points="395.17 150.56 369.3 92.19 436.5 110.14 395.17 150.56"/><polygon class="l" points="150.43 95.28 161.65 155.8 59.69 104.27 150.43 95.28"/><polygon class="h" points="161.65 155.8 226.13 28.58 150.43 95.28 161.65 155.8"/><polygon class="e" points="23.1 237.55 0 155.8 7.26 136.07 56.64 155.8 23.1 237.55"/><polygon class="l" points="323.16 174.06 265.77 85.18 395.17 150.56 323.16 174.06"/><polygon class="f" points="265.77 85.18 331.88 46.46 369.3 92.19 265.77 85.18"/><polygon class="k" points="226.13 28.58 265.77 85.18 161.65 155.8 226.13 28.58"/><polygon class="m" points="226.13 28.58 277.54 0 265.77 85.18 226.13 28.58"/><polygon class="k" points="277.54 0 265.77 85.18 331.88 46.46 277.54 0"/><polygon class="n" points="331.88 46.46 369.3 92.19 395.17 64.41 331.88 46.46"/><polygon class="o" points="265.77 85.18 292.6 12.88 277.54 0 265.77 85.18"/></svg>