<?xml version="1.0" encoding="utf-8"?>
<!-- Generator: Adobe Illustrator 22.1.0, SVG Export Plug-In . SVG Version: 6.00 Build 0)  -->
<svg version="1.1" id="Layer_1" xmlns="http://www.w3.org/2000/svg" xmlns:xlink="http://www.w3.org/1999/xlink" x="0px" y="0px"
	 viewBox="0 0 1919.2 1072.9" style="enable-background:new 0 0 1919.2 1072.9;" xml:space="preserve">
<style type="text/css">
	.st0{fill:#D6EEF4;}
	.st1{fill:#F6F4D5;}
	.st2{display:none;}
	.st3{display:inline;fill:#D6EEF4;}
	.st4{display:inline;fill:#A1CADA;}
	.st5{display:inline;fill:none;}
	.st6{display:inline;fill:#99BDC6;}
	.st7{display:inline;fill:#FFFFFF;}
	.st8{display:inline;fill:#E9E9EA;}
	.st9{display:inline;fill:#DDEFFA;}
	.st10{display:inline;fill:#799FA5;}
	.st11{display:inline;}
	.st12{fill:#082D3A;}
	.st13{fill:#173A4B;}
	.st14{fill:#224F67;}
	.st15{fill:#0B4559;}
	.st16{fill:#1D4859;}
	.st17{fill:#093F4C;}
	.st18{display:inline;opacity:0.8;fill:url(#SVGID_1_);enable-background:new    ;}
	.st19{display:inline;opacity:0.8;fill:url(#SVGID_2_);enable-background:new    ;}
	.st20{display:inline;opacity:0.8;fill:url(#SVGID_3_);enable-background:new    ;}
	.st21{display:inline;opacity:0.3;fill:#08353F;enable-background:new    ;}
	.st22{display:inline;opacity:0.3;fill:#022F3D;enable-background:new    ;}
	.st23{display:inline;opacity:0.3;fill:#02272B;enable-background:new    ;}
	.st24{fill:#E84C59;}
	.st25{fill:#EE7B5C;}
	.st26{fill:#F9C862;}
	.st27{fill:#062633;}
	.st28{fill:#ABAAAA;}
	.st29{fill:#E1DFE0;}
	.st30{fill:none;}
	.st31{fill:#041D26;}
	.st32{fill:#6E6E6E;}
	.st33{fill:#C0C0C0;}
	.st34{fill:#5E3E21;}
	.st35{fill:#54371D;}
	.st36{fill:#6D3325;}
	.st37{fill:#783A28;}
	.st38{fill:#8F4729;}
	.st39{fill:#DCB680;}
	.st40{fill:#C69666;}
	.st41{fill:#662F1E;}
	.st42{fill:#231D13;}
	.st43{fill:#574C3E;}
	.st44{fill:#442C1A;}
	.st45{display:inline;opacity:0.3;fill:#052532;enable-background:new    ;}
</style>
<path class="st0" d="M965.4,141.3l1-5.5l0.2,5.5l5,0.8l-5.1,0.5l-1,5.9l-0.2-5.9l-4.9-0.5L965.4,141.3z M1864,215.2l2.3-12.6
	l0.4,12.6l11.4,1.6l-11.5,1.3l-2.3,13.3l-0.6-13.3l-11.2-1.3L1864,215.2z M473,62.8l1-5.5l0.2,5.5l5,0.8l-5,0.5l-1.1,5.9l-0.2-5.9
	l-4.9-0.5L473,62.8z M1251.7,59.3l1-5.5l0.1,5.5l5,0.7l-5,0.6l-1,5.8l-0.3-5.8l-4.9-0.6L1251.7,59.3z M856,125.4l1-5.5l0.2,5.5
	l4.9,0.7l-5,0.6l-1,5.8l-0.2-5.8l-5-0.6L856,125.4z M1071.1,187.9l1.3-7.2l0.2,7.2l6.6,0.9l-6.7,0.8l-1.3,7.7l-0.3-7.7l-6.5-0.8
	L1071.1,187.9z M1102.5,89.5l1-5.5l0.2,5.5l4.9,0.7l-5,0.6l-1,5.8l-0.2-5.8l-5-0.6L1102.5,89.5z M1557.3,56.2l2.3-12.6l0.4,12.6
	l11.3,1.6l-11.4,1.4l-2.3,13.2l-0.6-13.2l-11.2-1.4L1557.3,56.2z M106,39.7l1-5.5l0.2,5.5l5,0.7l-5.1,0.6l-1,5.8l-0.2-5.8l-5-0.6
	L106,39.7z M59.7,130.4l1-5.5l0.2,5.5l5,0.7l-5.1,0.6l-1,5.8l-0.2-5.8l-4.9-0.6L59.7,130.4z M222.7,130.4l1-5.5l0.2,5.5l5,0.7
	l-5.1,0.6l-1,5.8l-0.2-5.8l-5-0.6L222.7,130.4z M164,218.9l1.1-5.5l0.1,5.5l5,0.7l-5,0.6l-1,5.8l-0.3-5.8l-4.9-0.6L164,218.9z
	 M660.1,185.5l1-5.6l0.2,5.6l4.9,0.7l-5,0.6l-1,5.8l-0.2-5.8l-5-0.6L660.1,185.5z M319.7,70.2l1-5.5l0.2,5.5l5,0.7l-5,0.6l-1.1,5.8
	l-0.2-5.8l-4.9-0.6L319.7,70.2z M1811.1,124.1l1-5.5l0.2,5.5l5,0.7l-5.1,0.6l-1,5.8l-0.2-5.8l-4.9-0.6L1811.1,124.1z M1695.4,73.5
	l-1.8,7.3l0.2-7.4l-6.5-1.3l6.7-0.4l1.8-7.6l-0.1,7.7l6.4,1.2L1695.4,73.5z M1599.5,207l-0.7,3.2l0.1-3.2l-2.9-0.6l2.9-0.2l0.8-3.3
	v3.4l2.8,0.5L1599.5,207z M1465.3,209.3l-1.7,7.3l0.2-7.4l-6.6-1.3l6.7-0.4l1.8-7.6l-0.1,7.7l6.5,1.2L1465.3,209.3z M1912.5,80
	l-1.8,7.3l0.2-7.4l-6.5-1.3l6.7-0.4l1.8-7.6l-0.1,7.7l6.4,1.2L1912.5,80z M1405.7,156.5l-0.8,3.2l0.1-3.3l-2.9-0.5l3-0.2l0.8-3.4
	l-0.1,3.4l2.8,0.6L1405.7,156.5z M1721.7,202.3l-0.6,3.4l-0.1-3.4l-3.3-0.5l3.3-0.4l0.7-3.6l0.1,3.6l3.2,0.4L1721.7,202.3z
	 M1563,121.1l-0.7,3.8l-0.2-3.8l-3.5-0.5l3.6-0.4l0.7-4l0.2,4l3.5,0.4L1563,121.1z M1198.6,221.7l0.5-2v2l1.9,0.4l-2,0.1l-0.5,2.1
	l0.1-2.2l-1.9-0.3L1198.6,221.7z M1361.8,235l0.5-2v2l1.9,0.4l-2,0.1l-0.5,2.1l0.1-2.1l-1.9-0.4L1361.8,235z M1432.8,60.5l-0.8,3.1
	l0.1-3.2l-2.9-0.6l3-0.1l0.7-3.4v3.4l2.8,0.5L1432.8,60.5z M957.5,41l-0.7,3.5l-0.1-3.5l-3.3-0.4l3.3-0.4l0.7-3.6l0.1,3.6l3.3,0.4
	L957.5,41z M823.5,76.1l-0.7,3.5l-0.1-3.5l-3.3-0.4l3.3-0.4l0.7-3.7l0.1,3.7l3.2,0.4L823.5,76.1z M705.7,44.8l0.5-2l-0.1,2.1
	l1.9,0.3l-1.9,0.1l-0.5,2.1v-2.1l-1.8-0.3L705.7,44.8z M511.1,197.1l-0.6,3.4l-0.1-3.4l-3.3-0.5l3.3-0.4l0.7-3.6l0.1,3.6l3.2,0.4
	L511.1,197.1z M66.3,252.2l-0.7,3.5l-0.1-3.5l-3.3-0.4l3.3-0.4l0.7-3.6l0.1,3.6l3.2,0.4L66.3,252.2z M346.9,194.4l0.5-2v2.1l1.8,0.3
	l-1.9,0.1l-0.5,2.1v-2.1l-1.8-0.3L346.9,194.4z M766.4,195.1l0.5-2v2.1l1.9,0.3l-2,0.1l-0.5,2.1l0.1-2.1l-1.9-0.3L766.4,195.1z
	 M1702.6,276.2l-0.9-5l-0.1,5l-4.6,0.7l4.6,0.5l0.9,5.3l0.3-5.3l4.5-0.5L1702.6,276.2z M629.7,276.5l0.6,3.1l0.1-3.1l3-0.5l-3-0.3
	l-0.6-3.3l-0.2,3.3l-2.9,0.3L629.7,276.5z M1085.7,255.8l0.6,3.2l0.1-3.2l3-0.4l-3.1-0.3l-0.6-3.4l-0.1,3.4l-2.9,0.3L1085.7,255.8z
	 M826.9,270.9l-0.4-1.8v1.8l-1.7,0.4l1.8,0.1l0.4,1.9v-2l1.7-0.3L826.9,270.9z M382.1,265.2l-0.5-1.8l0.1,1.9l-1.7,0.3l1.7,0.1
	l0.5,1.9v-1.9l1.7-0.3L382.1,265.2z M241.3,220.2l0.6,3.1l0.1-3.1l3-0.5l-3-0.3l-0.6-3.3l-0.2,3.3l-2.9,0.3L241.3,220.2z"/>
<path class="st1" d="M583.8,90.8l-0.7,3.5l-0.1-3.5l-3.2-0.4l3.3-0.4l0.6-3.7l0.2,3.7l3.2,0.4L583.8,90.8z"/>
<path class="st0" d="M569.4,163.3l2.3-12.6l0.4,12.6l11.3,1.6l-11.5,1.4l-2.2,13.2l-0.6-13.2l-11.2-1.4L569.4,163.3z"/>
<g class="st2">
	<path class="st3" d="M1137.9,330.2l0.5-2v2l1.8,0.4l-1.9,0.1l-0.5,2.1v-2.1l-1.8-0.3L1137.9,330.2z M1226,373.3l-0.4-1.8v1.9
		l-1.7,0.3l1.8,0.1l0.4,1.9v-1.9l1.7-0.3L1226,373.3z M1270.8,339.6l1.1-6.1l0.2,6.1l5.5,0.8l-5.6,0.6l-1.1,6.4l-0.2-6.4l-5.5-0.6
		L1270.8,339.6z M1158.6,367l-0.7,3.5l-0.1-3.5l-3.2-0.4l3.2-0.4l0.7-3.6l0.2,3.6l3.2,0.4L1158.6,367z M1203.2,477l0.6,3.1l0.1-3.1
		l3-0.4l-3-0.4l-0.6-3.3l-0.1,3.3l-3,0.4L1203.2,477z M1367.4,517.4l-0.4-1.8v1.8l-1.7,0.4l1.8,0.1l0.4,1.9v-2l1.7-0.3L1367.4,517.4
		z"/>
	<path class="st4" d="M1080.3,395c0,0,9.6,10.4,10.7,16.8s0,39.5,0,39.5l16.4,22.5c0,0-0.5,9.8,2.9,17s9,20.7,8.5,31.3
		s0,24.4,0,24.4l2.6,5.8c0,0-0.8,6.4,1.3,8.2c2.1,1.9,6.9,11.1,5.6,16.7c-1.3,5.6-5.6,10.9-5.6,10.9s6.6,45.1,10.1,53
		c3.4,8,8.2,21.2,8.2,21.2s-0.5,1.1,4-4s6.9,2.4,7.2,8.5c0.3,6.1,1.6,65.8,5.6,73.4c4,7.7,6.4,6.6,6.1,11.7s2.4,29.7,2.4,29.7
		l6.4,8.2V806l2.9,4.2c0,0,11.7-23.9,15.4-26c3.7-2.1,2.9,0.8,5.6,1.6s4.2,0,4.2,6.1V825c0,0,5.6,3.2,6.1,7.4s0,23.3,2.1,26
		s-0.5,20.1,4,26.2s9,19.9,10.3,27c1.3,7.2-1.3,34.2,0,39.5s10.6,29.4,10.6,29.4s0.8,3.4,4.5-4s4.2-8.7,4.2-8.7l1.6-21.2
		c0,0,4.8-21.7,9.8-30.2s4.8-14.1,4.8-20.4c0-6.4,1.9-8,2.7-11.4s1.6-22,1.6-29.2s-3.2-11.1,0-13s8.2-4.8,10.1-15.6
		c1.9-10.9,7.4-50.6,7.4-50.6s8.5-23.6,11.9-28.1s12.7-14.1,14.6-17.2c1.9-3.2,4-33.4,4-33.4l3.2-26.8c0,0,13-14.3,13.3-17
		s1.6-21.7,2.7-24.9s11.9-20.4,11.9-20.4l1.9-29.7l10.1-33.9v-6.4l7.2-7.2v-6.9c0,0,8-11.9,10.1-15.9s4-6.9,8.2-8.2
		c4.2-1.3,6.6-7.4,6.6-9s4.2-29.4,9.8-36.9c5.6-7.4,9.8-14.1,9.3-20.1s8.2-14.6,8.2-17.5s6-9,6-9l4.9-12.8"/>
	<path class="st5" d="M1423.1,530.5c2.2,2.1,3.7,4.6,4.1,7.1c2.8,0.8,5.8,1.5,8.8,2.1l5.2,0.4c-3.7-2.2-8.6-4.1-14.4-5.6
		c9.8,0.9,19.1,2.6,27.2,4.7c-7.8-3.4-16.1-6.3-24.7-8.7C1427.3,530.6,1425.2,530.5,1423.1,530.5z"/>
	<path class="st6" d="M1201.2,461.1c5.2-3.8,15.1-14.3,22.1-15.1c-2.4,3.1-10,12.5-12.3,15.3c1.5,0.2-4.6,19.2-2.3,20.8
		c1.5,1,0.9,4.6,2.9,5.6c1.5,0.8,4.2,0.6,5.9,1.7c4.7,2.9,3.3,7.5,6.2,10.8c0.5,0.6,1,1,1.5,1.3c3.1-3.8,14.1-25.8,19.9-27.3
		c2-0.4,6.7-11.5,8.6-13.5c1.2-1.7,4.2-1.7,5.8-2.8c4.9-3.7,7.7-9.7,13.9-10.2c5-0.4,9.4-9.5,14.8-9.2c1.1,0.4,2.3,1.9,3.9,0.9
		c6.2-2.1,11.4-9.9,17.9-11.3c-2.4,5.1-9,10.1-13.4,14c-1,1.3-2.8,9.6-3.9,9.3c-2.3-0.3-4.5-2.7-7.2-2c-8.8,4.4-19.9,19.8-22.6,29.1
		c2.6-2.3,8.5-13.1,12-14.5c-1.4,2.2-2.4,5.1-3.3,7.5c5.3-3,8.3-6.3,11.4-11.7c0.7-1.9,4.1-2.9,5.8-4.4c-1.2,3.4-2.9,6.5-5,9
		c-2.2,2-3.4,5.8-4.5,9.3c2.6,0.4,4.2,1.8,6.8,4.2c1.5,1.4,4.9-0.5,6.4,0.6c1.4,1,1.9,1.2,2.4,1.1c2.3-6,4-10.3,5.8-16.6
		c-0.7,1.9,0.6,3.5,0.1,4.9c-1.1,4.6-1.6,7.3-1.3,12c3.1,1,7.3-5.4,9.3-3.8c0.7,0.5,1.4,1,2.4,1.3c3.5,1.1,8.9-0.9,12.7-0.1
		c3.8,0.8,5.9,2.1,8.2,5c3.2-5.9,10-6.8,16.8-9.9c1.4-0.6,1.4-3.8,3.3-4.2c8.2-2.5,10.3-5.2,14.1-10.9c-6,3.3-11.2,2.7-16.7,7.8
		c-2.8,2.8-8,2-11.3,4.6c-1.8,1.5-2.9,1.5-4.2,3.2c0.3-2.6,0.6-3.4,2-5.6c0.5-1.4,4.1-1.3,4.6-2.7c3.8-5.7,10.3-3.6,13.6-9.4
		c-7.9,5.3-16,5.9-24.6,11.5c-3.9,2.4-6.3,4.1-10.3,7c-1.4,0.6-4.3,0.1-5.9,1.2c1-2.9,0.6-6.8,2.2-7.9c3.5-4.7,2.7-7.5,4.9-10.5
		c2.8-4.4,11.2-4.2,18.1-5c4.4-0.6,6.3-0.7,11.1-2.2c3.5-1.5,4.7-6.5,7.9-6.9c5.7-0.7,9.4,4.2,14.8,6.1c0.5-3.1,2.2-4.6,5.1-5.8
		c9.1-3.2,17.3-8.2,25.1-13.5l-12.7-4.5l-13.8-4.9c-5.8,1.2-11.1,4.2-15,7.9c-1.6-2.2-3.8-4.6-5.9-3.7c-15.1,4.9-29.4-2.3-44.4-1.1
		c-6.8,0.3-12.4,2.6-19.1,0.8c5.9-1.2,11.9-1.2,17.4-3c1.6-1.1,4.8,0.1,6.2-0.5c4.8-1.6,8.5-5.1,12.9-7.3c-0.3,2.6-4.9,5.3-3.3,5.9
		c3.6,3.4,8.9,2.1,13-2.4c0.3-1,2.5-1.8,4.1-1.3c-1.6,2.7-3.5,4.7-5,7.4c0.7-0.3,2.1-0.9,2.7-0.7c7.4,3.1,13.1-4.6,21.1-5
		c-1,1.3-0.5,4.7,0.4,3.9c2.9-1,5.8-2,8.6-3.1l-31.6-11.2c-5.5,1-11,2.2-16.8,3.5c-2,0.4-3.9,2.4-6,3.3c-3.7,1.9-8.7-0.9-13.6-1
		c-0.7,0.3,0,1.6-1.4,2.2c-6.2,2.1-11.7,4-15.5,9.7c-0.3,1-3.6-0.2-4.4,0.6c-1.6,1.1-2.3,3-1.7,4.8c-9.5-0.6-19.3,6.5-25.5,14
		c-1.2,1.7-7.9-3.3-13.6-2.6c-11.2,2.5-21,1.2-32.1,1.6c-5.3-0.3-9.6,9.5-12.8,13.7C1197.6,456.2,1198.7,460.7,1201.2,461.1
		L1201.2,461.1z"/>
	<path class="st6" d="M1319.8,557.4c-1.6-2.1,1.4-4.4,0.4-6.9c-1.3-3.2-3.9-5.6-5.2-8.9c3.2,4.3,3.8,6.8,4.9,13.5
		c-0.1,0.6,2.1,2.3,2,2.8c0.2,3.6-0.6,6.9,0.7,10.1c0.4,0.7,2.2-0.6,2.7-0.5c2,6.9,7,5.2,12.3,7c-3.4-3.2-5.4-5.4-8.1-9.5
		c4.9,3.3,7,7.3,11.9,10c-0.2-1-0.3-2-0.7-2.7c-3.3-3.7-5.2-5.9-8.1-9.5c-6.1-7.5-7.4-15-13-22c-1.5-1.2-3.2-2.2-4.6-3.9
		c-1.4-0.9-0.8-3.1-2.2-4c1.9,1,2.2,4,3.7,4.4c4.3,1.6,4.2,2.8,7.7,5.9c0.5,0.1,1.3-0.9,1.8-0.8c1.9,5.6,5.3,10.2,10,12.6
		c-0.4-0.4-0.8-0.7-1.2-1.1c-2.9-3-2.8-8.3-5.8-10.8c-5.7-4.9-5.6-10.1-9.6-15.7c0.6,0.3,1.3,0.7,1.9,1c-2-3.7-4.2-7.4-7-10.4
		c2.7,1.8,5.3,4.2,6.8,6.9c2,2.8,1.5,5.6,5.7,5.5c-0.3,1.1,1.2,1.5,0.5,2.5c3.5,0.8,4.7,4.6,7.3,7c-0.1-4.1-3-7.2-5.5-10.1
		c-0.9-0.8-0.8-3.1-1.7-3.9c-2.5-2.9-3.5-3.8-4.7-7.6c-1.8-4-1.1-8.2-2.3-12.3c-0.6-0.2-1-0.6-0.7-1.9c0.3,0.6,0.5,1.3,0.7,1.9
		c0.6,0.2,1.5,0,1.9,0.5c1,2.6,0.5,6.6,2.1,8.7c1.4,0.9,3.3,1.4,4.1,2.7c0.9,0.8-1.7,1.4-1.1,3.3c1.9,5.1,5.1,7.1,6.9,12.8
		c0.4,0.7,1.5,0.4,2.6,0c2,8.3,5,15.2,10.7,20.2c-1.2-3.3-4.2-7.1-5.4-10.1c-1.4-3.3-0.9-6.4-2.4-9.5c-3.4-6.9-8.1-13.2-9.4-21.3
		c-0.9-5.7,2.9-4.8-2.4-6.6c0.4-1.7,0.4-4-0.1-4.1c-3.8-1.5-4.5-5.2-7-8.1c-0.6,0.4-1.4,1.4-1.9,1.3c-1.3-3.2-2.4-1.3-6.6,10.2
		c-0.3,1.1-0.3,3.5-0.2,5.2c-4.6-0.5-1.6-2.7-2.6-7.6c0.1-0.6-2.1,0.1-3-0.7c-1.1-2-0.2-5.9-1.4-7.4c-1.5-2.7-6.4,0.3-7.9-1.9
		c-2.4-3.1-4.9-5.9-7.7-8.4l-2.2,9.2c6.2,7.2,11.9,14.8,16.1,23.5c1.5,2.7,3.2,4.3,6.3,4.4c-1.3,5.6-5.8,9.8-4.5,15.4
		c0.8,3.1,5.9,3.7,7.8,7.1c0.2,0.5,0.5,1.1,0.8,1.6c0-0.1,0-0.1-0.1-0.2c0,0.1,0,0.1,0.1,0.2c2.1,3.7,1.7,5.4,2.6,9.2
		c0.2,0.7,0.3,1.4,0.4,2.1c0.9,1.3,1.9,2.6,2.8,3.9C1320.8,559.9,1320,558.6,1319.8,557.4L1319.8,557.4z M1247.8,749.3
		c2.1-2.8,5.3-0.9,7.4-0.9c9.5-2.8,11.6-21.4,20.1-25.2c10.6-4.7,11.6-17,18-26.5c2.1-2.8,7.4-4.7,8.5-8.5c2.1-4.7,3.5-27.1,6.7-29
		c9.3-6.1,15.3-51.2,18.4-59.8c-4.9-1.2-8.5,1.4-12.4,3.9c-6.1,8.5-13,16.6-16.6,26.7c-2.1,3.8-9.8,59-14.1,60.9
		c7.5-8.2,11.6-29.5,16.4-41.8c0.7-1.8-12.7-27.6-12-28.9c-2.2,0.3,1.2,10.3-0.9,10.5c-0.5,1.3-3,25.4-1.5,28.9
		c7.5,17.2-6.9,35.8-8.4,52.1c-1.1-0.9-4.2,1.9-5.3-0.9c-3.2,7.6-4.2,26.2-11.6,30.9c5.3-11.3,11.6-33.7,13.7-46
		c2.1,3.8,1.1,6.6,1.1,10.4c4.7-14.3,2.6-56.1,6.7-70.4c-2,1.4-10.5,6.3-12.6,7.3c-8.1,3.9-8,19.7-16.3,23.4
		c-2.4,1-9,14.4-10.9,14.7c0.2,6.8,7.2,14.5,4.5,19.3c-2.1,5.7-3.2,12.3-3.2,18.9c2.1-3.8,7.4-7.6,7.4-11.3
		c2.1-11.3,5.3-18.9,12.7-27.4c0,4.7,0,10.4-1.1,15.1c5.3-4.7,8.8-27.1,12-32.8c1.1,18-8.8,51.7-21.5,64.9c-4.2,2.8-9.5,0-13.8,0.9
		c-2.1,0,0,15.8-1.1,18.6c-5.3,9.5-13.8,22.4-14.8,32.8C1234.1,773.5,1238.3,756.8,1247.8,749.3L1247.8,749.3z M1109.9,476.8
		c4,4.1,8.1,8.2,11.7,12.7c5.3,6.7,11.4,12.6,16.7,19.3c-5.1-4.4-10.7-6.8-16.4-9.8c2.8,5.7,7.3,9.7,11.8,13.7
		c0.8,0.9,1,3.3,3.5,4.3c-1.6,3.5-2.7,6.8-1.5,10.6c0.5-0.2,1.1,0.2,1.6,0.1c2,1.2,0.9,4.5,2,4.7c2.1,1.7,4.4-1.4,7-1.6
		c-2.1,3.6-4.6,7.4-5.4,11.8c1.5-0.5,3.1-0.4,3.9-1.2c2.5-5.6,4.6-11,10.4-12.8c1.7,8.7,1,17.7,0.1,26.6c0.5,0.4,1,0.9,1.1,1.1
		c2.7,3.4,3.6,9.6,6.3,10c4.1,1.1,7.9,2.9,12,4c-1.6-8.5,1.9-16.1,0-22.1c-2.4-5.8-4.1-13.1-8.1-19c-2-3-6.7-4.5-7.8-9.5
		c-0.3-1.1-3.9-0.6-4.9-2c-1.3-2.6-1.7-5.4-2.6-8.2c-2.9,0.9-5.2-1.3-7.4-3.1c-4.8-5.1-6.7-11.1-13.6-14.3c-1.8-0.6,1.2-4.6-1.7-7.2
		c-4-4.1-8.9-8-11.3-13.8c-0.3-1.1-2.3-0.5-2.9-0.9c-5.1-4.4-6.5-10.5-8.9-16.4c3,4.4,6.1,7.6,10.7,10.4c3.8,1.8,4.5,7.6,7.3,11.5
		c1.5,1.3,4.1,1.1,4.7,1.5c2.5,2.8,4,7.7,6.3,10c6.3,8.2,12.6,16.4,21.5,22.6c0.2,0.5,2,1.2,2.1,1.7c4.8,5.1,7.6,10.8,13.6,14.3
		c-3.2-6.8-8.5-11.7-12-17.8c3.9,0.6,7.5-1.7,11.2-1.7c-6.3-4.6-12.6-2.6-19.2-6.6c-1.1-0.2-2.1-1.7-3.1-3.2
		c5.2-2.2,11.6,1.2,16.1-3.2c-8.5-3.3-18.7-0.1-25.2-7.1c7.5,1.8,14.7,0.8,22,0.3c-3.6-1.3-8.3-1-11.8-3.5c-5.9-3.5-13-0.7-17.1-8.4
		c8.5,3.3,17,1.3,25.5,2.8c1.6,0.1,11.3,0.7,13.6,2.9c2.8,2.1,1.2,7.4,3.7,10.2c4.1,4.7,3.2,10.3,7.4,15c1.7,1.9,5.1,0.8,6.9,1.4
		c2.5,1,2.2,7.1,4,7.7c4.7,1.5,13.5-3.4,18.4-5c2.4-0.7,4.2-2.4,6.3-3.2c-7.2,8.3-9.9,16.7-9.8,27.1c0.2,8.9-4.4,15.8-2.8,24.8
		c0.3,1.7,1.9,4.1,1.7,5.8c-0.2,1.6-2.4,2.5-2.7,4.5c-0.3,1.7,1.4,4,1.2,5.9c-0.3,3-4.8,4-6.2,6.2c-5.4,8.5-14.2,25.8-16.9,36.1
		c-1,4.1-12.9,13.6-17.5,20c-0.7,0.9-8.8,17.1-9.8,17.5l-3.2,2.5c-2.8-0.3-5.5,0.6-7.6,2.4c-1.9,1.7-3.9,3.2-3.9,3.2
		s-9.1-21.8-11-31.7c-1.9-9.8-7.3-42.6-7.3-42.6s9.3-5.9,4-20.8c0,0-2.2-4.7-4-6.7s-1.3-8.2-1.3-8.2l-2.6-5.8 M1097.9,395
		c0,0-3.4,4.8-3.7,7.8c-0.4,3,2.7,4.7,1.9,8.1c-0.8,3.3,4.8-7.9,4.8-7.9s5.8,2.5,4.7,9.2c-1,6.7,12.5,18.5,12.5,18.5
		s-1.2-12.7,1.8-16.5c0,0-3.5-8.7-7.7-10.7c-4.2-2.1-4.7-8.3-4.7-8.3 M1135.5,395c0,0-4.7,7.2-5,10.8c-0.3,3.6,3,7.7,0,11.9
		s5.8-2.7,5-7.9c-0.8-5.2,6.7-14.7,6.7-14.7 M1174,394.6c-7.1,4.3-12.1,9.8-16.9,15.2c4.9-3.7,10-7.2,15.4-10.6
		c-1.8,1.9-3.5,3.8-5.3,5.7c1.7-1.3,2.4-3,3.5-4.5c1.2-1.5,3.2-3,5.9-3c1.1,0,2.2,0.2,3.2,0c1.4-0.3,2.1-1.3,2.6-2.2L1174,394.6
		L1174,394.6z"/>
	<path class="st7" d="M1424.2,395l-23.9-22.8c-1.7-1.6-8.3-8.5-9.2-10.7c-1.8-4.4-4.5-6.7-4.6-6.8l-4.1-4.8l-1.7-2.8l0.1,0.1h-0.1
		c-1.4,0-2.7,0-4.1-0.1l-3-0.3c-0.4-0.1-0.9-0.1-1.3-0.2c-0.9-0.1-1.7-0.3-2.5-0.5c-1.1-0.3-2.1-0.6-3.1-1c-1.7-0.7-3-1.7-4.3-2.7
		c-0.7-0.7-1.4-1.5-2.1-2.3c-1.7-2-1.2-6.6-4-7.8c-1.8-0.8-4.4,0.2-6-0.6c-1.8-0.9-2-3.3-3.5-3.9c-1.6-0.7-4.3,0.1-6-0.1
		c-9-1.2-14.3-7.6-22.8-10.1c-10-2.9-17.2-8-23-17.4c-0.2,0.1-0.4,0.1-0.6,0.1c-2.5,0.6-5.1-3.3-7.7-2.8c-1.3,0.3-2.7,0.6-4,1.1
		c-2.5,0.9-3.9,1.7-5.4,2c-1.4,0.3-3.4-5.1-5.3-5.5c-5.4-1.1,1.7-2.8-2.1-4.9c-0.7-0.4-1.6-10.4-2.1-10.6
		c-2.6-0.6-8.2-10.6-10.3-9.2c-1.2,0.8-5.6-3.3-7-2.8c-0.5,0.2-7.1,0.7-7.6,0.8c-1.2,0.2-3.3,2.5-6.4,6.6c-2.6,3.5-6,3.8-6.6,4
		c-0.7,0.3,0.2,5.2-0.5,5.7c-1.1,0.7-1.7,2.1-2.8,2.7c-4.4,2.1-10,21.6-14.5,23.6c-1.3,0.6-2.3,0.9-3.3,1.1
		c-2.6,0.5-4.6-0.3-7.8-1.7c-1.9-0.8-4.5,2.1-6.2,1.6c-1.6-0.5-2.2-0.5-2.7-0.3c-0.6,0.3-1,0.8-2.9,1.2c-0.5,0.1-1,0.1-1.5,0.1
		c-3.2,0-5.1,7.6-7.5,6.7c-0.8-0.3-1.7-0.5-2.7-0.4c-3.7,0.1-8.1,3.9-11.9,4.4c-3.9,0.5-6.3,0-9.4-2c-0.5-0.4-1.1-0.7-1.7-1.2
		c-0.3,0.4-0.9,1.5-1.2,1.7c-0.5,0.2-1,0.5-1.5,0.9c-3,2-6,5.7-8.6,7.6c-2.9,2.2-6,2.3-8.6,4.5c-5.9,4.9-11,11-18.6,14
		c-2.7,1.1-7.8,0.5-8.5,0.4c-0.5-0.2-3.3,8.7-6.2,16.8c-2.2,6.1-4.8,12-4.8,12l-16.1,16.9h252.9c13.2,0,26.4-0.1,39.5,0h46.5
		L1424.2,395L1424.2,395z M1132.2,356.4c0.2-0.7,0.3-1.4,0.5-2c0.7-2.9,1.5-5,2.8-6.8c0,0,0.1,0,0.1,0.1v-0.3
		c1.3-1.9,3.2-3.6,6.3-5.9C1135.1,346.5,1133.9,349.8,1132.2,356.4L1132.2,356.4z M1150.5,358.4c0.5-0.4,0.9-0.7,1.3-1.1
		c3.1-2.9,4.8-2.9,8.4-4.7C1156.2,354.7,1154.5,355.4,1150.5,358.4L1150.5,358.4z M1242.5,366.4c0-0.1,0.1-0.1,0.1-0.2
		C1242.6,366.3,1242.6,366.4,1242.5,366.4z M1244.4,361.7c0.9-2.5,1.6-5.1,2.6-7.6C1246.1,356.6,1245.3,359.2,1244.4,361.7z
		 M1249.2,348.9c0.5-1.4,3.5-10.1,6.2-11.7c0.2-0.1,0.4-0.2,0.6-0.4C1253.2,338.4,1249.8,347.4,1249.2,348.9L1249.2,348.9z
		 M1293.5,303.7c-0.3,1.7-0.9,4.1-1.6,6.5c1-3.3,1.6-7,2.3-9.5C1294,301.6,1293.7,302.7,1293.5,303.7L1293.5,303.7z"/>
	<path class="st4" d="M1333.3,395c14.9,0,29.6-0.2,44.5,0h46.5c0,0-30.4-25.6-34.5-28.1c-9.1-5.6-22.9-19.2-29.4-26.9
		c-1.7-2-1.2-6.6-4-7.8c-1.8-0.8-4.4,0.2-6-0.6c-1.8-0.9-2-3.3-3.5-3.9c-1.6-0.7-4.3,0.1-6-0.1c-9-1.2-14.3-7.6-22.8-10.1
		c-10-2.9-17.2-8-23-17.4c0.1,2.3,1.2,4.5,1.2,7c0,5.1,2.1,15-0.8,19c-1.1,1.5-6.8-0.5-8.6,1.5c-1.1,1.5-1.1,5.1-3.4,6.1
		c-5.7,2.6-10.8,0-16.5,2.6c-3.4,1.5-8-1.5-10.8,0.5c-2.9,1.5-6.3,10.5-6.8,12.1c-4,7.7-4.6,16.3-10.3,23.5c8.6-1.5,8-9.2,13.1-13.8
		c3.4-2.6,4.6-7.1,6.8-10.2c-1.7,7.1-2.9,14.3-6.8,20.9c8.6-4.1,8.6-14.8,14.3-21.9c2.9,5.6-2.3,10.7-1.7,16.3c1.7-0.5,3.4-1,4-2
		c5.7-5.1,5.7-11.7,12-16.3c-1.1,3.6,0,7.7-1.7,11.2c6.8-1.5,13.1-5.1,20.5-6.1c-5.1,4.6-11.4,5.6-17.7,8.7c-0.6,0-1.7,1.5-2.3,1.5
		c-8.6,6.6-18.3,10.2-28,13.8c-2.9,1.5-8,1.5-11.4,3.1c-0.6,0.5-1.1,3.1-2.9,4.1c-4.6,1.5-10.3,0.5-13.1,3.6c-4,3.6-8,5.6-13.1,7.1
		c6.3-0.5,12.6,0,18.3-3.6c0.6-0.5,0.6-2.6,1.7-2.6c6.3-0.5,11.4-4.1,16.5-6.6c3.4-2,6.3,2,7.4,0.5c5.1-5.6,11.4-5.6,17.7-8.7
		c2.3-1.5,5.1-3.1,5.1-6.1c2.9,0,5.7,0.5,8.6,0c1.7-0.5,2.3-4.1,3.4-4.1c5.1,0.5,8-3.6,11.4-4.6c6.8-2,14.3-1.5,20.5-2
		c6.3,0,12.6,5.6,21.1,6.6c-2.3,3.6-5.1,6.6-7.4,10.2c-1.1,2.6-7.4,1.5-11.4,3.1c-0.3,0-0.9,0.3-1.4,0.7c-8.3-3.5-16.6-6.8-25.4-7.8
		c0,6.1,4.6,9.7,9.1,13.8c0.6,1,0,2.6,0,4.1c-4-2-6.8-5.6-9.7-8.7c-0.6,2.6,1.7,5.6-0.6,7.1c-0.6,1-3.4-1-5.1,0.5
		c0,0.5-0.6,1-0.6,1.5c-4,0-6.8-2-9.7-4.6c-1.7,2-4,1.5-5.1,2c-5.1,3.1-10.3,6.1-16.5,7.1c4.6-4.6,8.6-9.2,14.3-12.8
		c-8,3.1-15.4,7.1-23.4,10.2c-5.3,2.1-10.5,4.7-15.6,7.4"/>
	<path class="st4" d="M1286.7,297.4c-3.6,5.3-9.5,18.5-15.8,21.6c1.2-3.7,5.3-15.1,6.5-18.5c-1.4,0.3-2.1-19.7-4.8-20.4
		c-1.8-0.4-2.4-4-4.6-4.3c-1.7-0.2-4.2,0.8-6.2,0.4c-5.4-1.1-5.7-6-9.5-8.1c-0.7-0.4-1.3-0.6-1.9-0.7c-1.7,4.6-4.6,29.1-9.7,32.4
		c-1.7,1-2.5,13.1-3.6,15.6c-0.6,2-3.4,3.1-4.6,4.6c-3.4,5.1-4,11.7-9.7,14.3c-4.6,2-5.7,12.1-10.8,13.6c-1.1,0-2.9-1-4,0.5
		c-5.1,4.1-7.4,13.1-13.1,16.7c0.6-5.6,5.1-12.6,8-17.7c0.6-1.5-0.6-10,0.6-10c2.3-0.5,5.1,1,7.4-0.5c6.8-7.1,12.2-25.3,11.6-35
		c-1.7,3.1-3.6,15.1-6.5,17.7c0.6-2.6,0.6-5.6,0.6-8.2c-4,4.6-5.7,8.7-6.8,14.8c0,2-2.9,4.1-4,6.1c0-3.6,0.6-7.1,1.7-10.2
		c1.4-2.6,1.3-6.6,1.2-10.3c-2.6,0.5-4.6-0.3-7.8-1.7c-1.9-0.8-4.5,2.1-6.2,1.6c-1.6-0.5-2.2-0.5-2.7-0.3c-0.1,6.4-0.3,11,0.1,17.6
		c0-2-1.7-3.1-1.7-4.6c-0.5-4.7-1-7.4-2.8-11.7c-3.2,0-5.1,7.6-7.5,6.7c-0.8-0.3-1.7-0.5-2.7-0.4c-3.7,0.1-8.1,3.9-11.9,4.4
		c-3.9,0.5-6.3,0-9.4-2c-1.1,6.6-7.2,9.7-12.5,14.9c-1.1,1,0,4.1-1.7,5.1c-6.8,5.1-8,8.3-9.7,15c4.6-5.1,9.7-6.3,13.1-12.9
		c1.7-3.6,6.8-4.6,9.1-8.2c1.1-2,2.3-2.4,2.9-4.4c0.6,2.6,0.6,3.4,0,6c0,1.5-3.4,2.6-3.4,4.1c-1.7,6.6-8.6,6.8-9.7,13.4
		c5.7-7.7,13.1-10.9,19.4-19c2.9-3.6,4.6-6,7.4-10c1.1-1,4-1.5,5.1-3.1c0,3.1,1.7,6.6,0.6,8.2c-1.7,5.6,0,8-1.1,11.6
		c-1.1,5.1-9.1,7.7-15.4,10.7c-4,2-5.7,2.7-9.7,5.8c-2.9,2.6-2.3,7.7-5.1,9.2c-5.1,2.6-10.3-0.8-16-0.8c0.6,3.1-0.6,5.1-2.9,7.1
		c-7.5,6.1-13.6,13.5-19.2,21.1h28.2c5.1-3.1,9-7.6,11.5-12.5c2.3,1.5,5.1,3.1,6.8,1.5c12.6-9.7,28.5-7.7,42.2-13.8
		c6.3-2.6,10.8-6.6,17.7-7.1c-5.1,3.1-10.8,5.1-15.4,8.7c-1.1,1.5-4.6,1.5-5.7,2.6c-4,3.1-6.3,7.7-9.7,11.2
		c-0.6-2.6,2.9-6.6,1.1-6.6c-4.6-2-9.1,1-11.4,6.6c0,1-1.7,2.6-3.4,2.6c0.6-3.1,1.7-5.6,2.3-8.7c-0.6,0.5-1.7,1.5-2.3,1.5
		c-8-0.5-10.8,8.7-18.3,11.7c0.6-1.5-1.1-4.6-1.7-3.6c-2.4,1.9-4.8,3.9-7.1,5.8h33.5c4.8-2.8,9.7-5.8,14.6-8.9
		c1.7-1,2.9-3.6,4.6-5.1c2.9-3.1,8.6-2,13.1-3.6c0.6-0.5-0.6-1.5,0.6-2.6c5.1-4.1,9.7-7.7,11.4-14.3c0-1,3.4-1,4-2
		c1.1-1.5,1.1-3.6,0-5.1c9.1-2.6,16-12.6,19.4-21.8c0.6-2,8.6,0.5,13.7-2c9.7-6.1,19.4-8.2,29.7-12.2c5-1.5,5.9-12.2,7.5-17.2
		C1291.9,300.8,1289.3,296.8,1286.7,297.4L1286.7,297.4z M1380.7,347.1c0.1,0.1,0.2,0.2,0.3,0.2c0.7,0.9,1,2.3,2,3.2
		c1.3,1.4,3,2.5,3.7,4.4c-3.3-2.7-6.9-5.2-10-8C1378,347.1,1379.3,347.1,1380.7,347.1L1380.7,347.1z M1372.3,346.5
		c0.4,0.1,0.9,0.1,1.3,0.2c2.5,3.3,6.1,6,8.7,9c2,2.3,5,4.6,8.1,6.2c1.5,0.6,2.2,1.9,2.3,3.3c-0.2-0.3-0.5-0.5-0.6-0.8
		C1384.6,358.9,1377.1,353.5,1372.3,346.5L1372.3,346.5z"/>
	<path class="st4" d="M1389.7,366.9c-0.6-1.2-1.4-2.2-3-2.9c-2.4-1.2-6-0.7-8.1-1.8c-1.3-0.7,0.7-3-1.7-3.9c-3.7-1.2-5-3.2-6-5.5
		c-1.9-4-5.8-7.1-8.9-10.6c1.5,1,2.8,2.1,4.7,2.9c1,0.4,2,0.8,3.1,1c1,1.5,1.9,2.9,2.8,4.4c0.3,0.7,2,0.9,2.7,1.8
		c2,3.2,3,6.5,8.7,7.8c1,0.2,0.7,1.2,1.3,1.8c4.4,3.2,9.4,5.8,12.1,9.7C1395.4,369.7,1392.6,368.2,1389.7,366.9L1389.7,366.9z
		 M1368.5,371.6c1.7,0.9,2.7,2.5,4.4,3c4.7,1.4,8.1,2.5,12.1,4.4c1,0.5,2.4,0.2,3.7,0.2c-2.4,3.2,3.4,5.3,6.4,7.4
		c0.3,0,0.3,0.9,0.7,1.4c2,2.8,7.7,2.8,9.7,5.8c-2.4-1.8-6-2.5-9.1-4.1c-1-0.5-1.7-1.4-2.7-2.5c-0.3-0.7-2.4-0.9-3-1.6
		c-2-1.2-2.7-2.5-5-3.7c-1-0.5,0.7-1.2,0-1.4c-1.7-0.7-4-0.9-5.7-1.6c1.3,1.2,2.7,2.5,3.4,3.9c-2.7-2.1-5.4-3.7-7.7-6.2
		c-0.7-0.9-3-0.7-4.7-1.4c-2.1-0.9-4.1-1.7-6.2-2.4c-0.5-0.6-1.1-1.2-1.8-1.7c-0.1-0.1-0.3-0.2-0.5-0.3
		C1364.5,370.8,1367.1,370.6,1368.5,371.6L1368.5,371.6z M1381,387.7c0.7,1.8,1,4.6,3.7,5.3c-0.3,0.2,0.3,0.7-0.3,0.7
		c-5.7-1.2-5-5.3-8.7-7.6c-0.8-0.4-1.6-0.9-2.4-1.5c3.7,0.8,7.4,1.8,10.5,3.7c1.6,1.3,2,3,3.6,4.5
		C1385,391.2,1382.7,389.8,1381,387.7L1381,387.7z"/>
	<path class="st8" d="M1337.3,373.9c1.3,2.8,4.4,4.4,8.1,5.5c2.4,0.7,3-1.2,4.7-1.8c0,0.7,1,0.7,1.3,0.7c2.7,0.9,5.4,0.5,8.1,0.9
		c1.7,0.5,2,2.5,3.7,3c3.1,1.1,6.6,1.7,10.1,2.5c0.7,0.5,1.5,1,2.4,1.5c3.7,2.3,3,6.5,8.7,7.6c0.7,0,0-0.5,0.3-0.7
		c-2.7-0.7-3-3.5-3.7-5.3c1.7,2.1,4,3.5,6.4,5.1c-1.5-1.5-2-3.2-3.6-4.5c0.2,0.1,0.4,0.2,0.5,0.3c-3.4-2.5-7.7-4.6-9.1-8.3
		c-1-1.6-4.7-2.3-6.7-3.5c-1.6-1.1-2.6-2.8-3.9-4.3c2.1,0.7,4.2,1.5,6.2,2.4c1.7,0.7,4,0.5,4.7,1.4c2.4,2.5,5,4.1,7.7,6.2
		c-0.7-1.4-2-2.8-3.4-3.9c1.7,0.7,4,0.9,5.7,1.6c0.7,0.2-1,0.9,0,1.4c2.4,1.2,3,2.5,5,3.7c0.7,0.7,2.7,0.9,3,1.6
		c1,1.2,1.7,2.1,2.7,2.5c3,1.6,6.7,2.3,9.1,4.1c-2-3-7.7-3-9.7-5.8c-0.3-0.5-0.3-1.4-0.7-1.4c-3-2.1-8.7-4.1-6.4-7.4
		c-1.3,0-2.7,0.2-3.7-0.2c-4-1.8-7.4-3-12.1-4.4c-1.7-0.5-2.7-2.1-4.4-3c-1.5-1-4-0.8-6.2-1c-1.7-0.9-5.2-1-8.2-0.8
		c1.7-3.5-2.7-6-4.4-9c-1.2-1.6,1-3.8,2.7-5.9c2.5,4,4.2,8.3,9.4,10.9c2.7,1.4,7.1-0.5,9.4,1.2c3,2.5,8.1,2.5,12.4,3
		c-2.7,1.4-0.7,3.2,1.3,4.1c6,3,13.4,6,16.1,10.6c1.3,2.3,6.7,2.1,9.1,3.7c3,2.2,5.9,4.5,9.1,6.6h-46.1c-2.1-1-4.4-1.8-7-2.4
		c-1.7-0.2-3.7-1.4-3.7-2.5c0-2.5-3-4.6-5-4.8c-8.1-1.2-15.5-3.2-21.5-7.1c-4-3-10.4-4.1-14.4-7.4
		C1326.5,371.8,1331.6,375.3,1337.3,373.9L1337.3,373.9z"/>
	<path class="st4" d="M1276.6,405.2c-1.4-1.2-4.4-1.6-6.4-0.7c0.3-2.2,0-4.4-0.8-6.5c-3.2,1.5-7,2.7-10.9,3.2c0.5-1.5,1-2.9,1.5-4.4
		c-4.6,0.4-9.3,0.8-13.7,2c-2,0.5-3.8,1.2-5.7,1.7c-4,1.1-8.4,1.8-12.7,1.9c-1.2,0-2.4,0-3.5,0.2c-2.6,0.5-4.2-16-5.6-14.5
		c-5,5.3-11,10.1-17.9,14.4c0.4-3.3,1.3-6.6,2.8-9.7l-7.2,2.1c-0.1-2.7,3.2-5.4,7.4-6c0.7-0.1,1.5-0.1,2.1-0.4
		c1-0.4,1.5,17.1,1.9,16.4c1.9-2.7,4.9-5,8.6-6.8c-0.5,1-0.9,1.9-1.4,2.9c1.3-0.5,2.9-0.7,4.3-0.5c0.5,0.1,1.1,0.2,1.6,0.1
		c0.6-0.1,1-0.3,1.4-0.6c3-1.9,6-3.9,9-5.8c3.4,1.5,8.2,0.5,11.7-0.9s6.9-3.3,11-3.6c2.3-0.2,4.9,0.2,6.8-0.7c0.9-0.4,1.4-1,2.1-1.6
		c1.6-1.4,3.7-2.6,6.1-3.5c0.1,0.8,0.3,1.5,0.4,2.3c4.3-1,8.7-2.1,13-3.1c0.7-0.2,1.3-0.3,2-0.3c1.2,0,2.3,0.3,3.4,0.3
		c1.2,0.1,2.6-0.3,2.6-1l5.7,1.2c2.4-0.1,4.8,0.1,7,0.7c1.7,0.5,3.9,1.2,5.2,0.3c0.6-0.4,0.7-1,1.2-1.5c0.8-0.8,2.6-1.1,4.1-0.9
		s2.8,0.8,4,1.3c4.9,2.2,9.9,4.5,14.8,6.7c5,2.2,10,4.5,13.8,7.5c-5.9,0-11.7,0-17.6-0.1c-2.5,0-5.1-0.1-7.1-1
		c-1.4,0.8-2.3,2-2.5,3.3c-1.5-1-3-2-4.3-3c-4.7,2.2-3.9-11.5-6.5-8.2c-2,2.6-6.1,4.3-8.7,6.7c0.8-1.6,1.9-3.1,3.3-4.6
		c-4.1-1.7-7.9,14.5-11.4,12.4c0.5,0.8,1.1,1.7,1.6,2.5c-0.6-1.9-2.6-3.6-5.3-4.4c-0.4,0.6-0.9,1.2-1.3,1.8
		c-0.9-0.9-2.1-1.6-3.4-2.2C1281,402.3,1278.8,403.8,1276.6,405.2L1276.6,405.2z M1161.6,403.6c-3.8,2-7.7-14.2-11.5-12.2
		c2.7-2.2,4.7,13.5,6,10.8c-1.3,0.6-2.6,1.2-3.8,1.8c0.1-0.7,0.3-1.3,0.4-2c-0.7,1.1-3.6,0.6-4.2-0.5s0.3-2.3,1.2-3.3
		c3.4-3.8,7.5-7.3,12.2-10.4c0.3,0.6,0.8,1.2,1.6,1.6c2.1-2.1,4.1-4.2,6.2-6.3c1.7-1.8,3.6-3.6,6.3-4.8c2.1-0.9,4.5-1.4,6.9-1.8
		c-0.5,1.6-1.1,3.1-1.7,4.7c-1.4,3.8-3,7.6-5.7,11c-3.4,4.3-8.4,7.9-13.4,11.5c0.1,0.1,0.4-0.1,0.2-0.2
		C1162,403.5,1161.8,403.5,1161.6,403.6L1161.6,403.6z"/>
	<path class="st9" d="M1080.3,371.1c-0.4,0.1-0.7,0.2-1.1,0.3C1079.5,371.2,1079.9,371.2,1080.3,371.1z"/>
	<path class="st7" d="M1111.1,360.4c-0.6,0.3-1.2,0.7-1.7,1.1C1110.8,361.5,1111.1,361,1111.1,360.4z M1154.4,320.2
		c-0.3,0.4-0.9,1.5-1.2,1.7c-0.5,0.2-1,0.5-1.5,0.9c-3.5,6.7-9.6,11.2-17.1,15.1c0.6,1,1.1,2,0.6,2.6c-5.1,3.1-6.3,6.6-10.8,9.7
		c-1.7,1-2.9-1.4-3.4-0.3c-1.1,1-1.1,3.1-1.7,4.6c-1.7,2-5.7,2.6-8,4.1c-0.3,0.5,0,1.3,0,2c3.7-2,8-2.4,11.4-5c3.4-2,4-3.2,6.3-6.3
		c0.6-1,2.9-1.5,3.4-2.6c2.3-3.1,4.6-6.6,8.6-7.7c-1.7,3.1-5.1,5.1-5.1,8.7c-1.1-0.5-1.1,1-2.3,1c1.1,4.1-1.7,4.3-4,6.8
		c-2.3,2-4,5.1-5.1,8.2c2.3-3.4,5.4-6.4,8.5-9.2c1.5-5.9,3-8.3,9.2-12.9c1.7-1,0.6-4.1,1.7-5.1c5.3-5.2,11.4-8.3,12.5-14.9
		C1155.6,321,1155,320.6,1154.4,320.2L1154.4,320.2z M1153.9,340.9c0-1.5,3.4-2.6,3.4-4.1c0.6-2.5,0.6-3.4,0-6
		c-0.4,1.6-1.2,1.4-2.1,3c-1.2,5.2-4.9,9.5-9.9,12.6c0,0.5,1.1,1,1.1,1.5c-2.3,4.1-3.4,4.3-4,8.8c0,1.5-2.9,2.6-3.4,4.6
		c0.6-1.5,2.9-1.5,3.4-3.1c1.3-1.7,1.8-3.6,2.7-5.4c-0.3,0.4-0.7,0.9-1,1.3C1145.4,347.7,1152.2,347.5,1153.9,340.9L1153.9,340.9z
		 M1176.2,322.2c-0.6,0.8-1.7,1.3-2.7,1.8c-1.5,5.4-4.9,8.3-7,13.9c3.4-3.6,5.1-6,7.4-10c-0.6,5.6,2.3,10-4,13.6
		c0,0.5,1.7,2,1.1,2.6c-2.9,2-6.3,2-9.7,3.1c-0.6,0-1.7,2.6-2.3,2.6c-6.3,2.6-8.6,3.7-12,7.8c2.9-2,4.6-5.1,7.4-7.1
		c2.3-1.5,5.1,0.8,6.8-1.2c1.1-0.5,2.3-1.5,4-1c-1,1.2-2.1,2.4-3.2,3.7c5.9-2.7,12.4-5.2,13.4-9.8c1.1-3.6-0.6-6,1.1-11.6
		C1177.9,328.8,1176.2,325.2,1176.2,322.2L1176.2,322.2z"/>
	<path class="st8" d="M1161.3,349c-1.7,2-4.6-0.3-6.8,1.2c-2.9,2-4.6,5.1-7.4,7.1c3.4-4.1,5.7-5.3,12-7.8c0.6,0,1.7-2.6,2.3-2.6
		c3.4-1,6.8-1,9.7-3.1c0.6-0.5-1.1-2-1.1-2.6c6.3-3.6,3.4-8,4-13.6c-2.3,4.1-4,6.5-7.4,10c2.1-5.5,5.5-8.5,7-13.9
		c-1,0.4-1.9,0.8-2.4,1.3c-2.9,4.1-4.6,6.5-7.4,10c-5.9,7.7-12.9,10.6-18.4,17.8c-0.9,1.8-1.4,3.6-2.7,5.4c-0.6,1.5-2.9,1.5-3.4,3.1
		c0.6-2,3.4-3.1,3.4-4.6c0.6-4.6,1.7-4.8,4-8.8c0-0.5-1.1-1-1.1-1.5c5-3.1,8.7-7.5,9.9-12.6c-0.3,0.5-0.5,1-0.8,1.4
		c-2.3,3.6-7.4,4.6-9.1,8.2c-3.4,6.6-8.6,7.8-13.1,12.9c0.2-0.7,0.3-1.4,0.5-2c-3.1,2.8-6.2,5.8-8.5,9.2c1.1-3.1,2.9-6.1,5.1-8.2
		c2.3-2.6,5.1-2.7,4-6.8c1.1,0,1.1-1.5,2.3-1c0-3.6,3.4-5.6,5.1-8.7c-4,1-6.3,4.6-8.6,7.7c-0.6,1-2.9,1.5-3.4,2.6
		c-2.3,3.1-2.9,4.3-6.3,6.3c-3.4,2.6-7.7,3-11.4,5c0,0.6-0.3,1.1-1.7,1.1c0.5-0.4,1.1-0.8,1.7-1.1c0-0.6-0.3-1.4,0-2
		c2.3-1.5,6.3-2,8-4.1c0.6-1.5,0.6-3.6,1.7-4.6c0.6-1,1.7,1.4,3.4,0.3c4.6-3.1,5.7-6.6,10.8-9.7c0.6-0.5,0-1.5-0.6-2.6
		c7.6-3.9,13.6-8.4,17.1-15.1c-3,2-6,5.7-8.6,7.6c-2.9,2.2-6,2.3-8.6,4.5c-5.9,4.9-11,11-18.6,14c-5.3,2.1-5.4-1.7-5.9,3.9
		c-1.7,0-4,0.5-4,1c-0.6,4.1-4,5.6-6.3,8.7c0.6,0.5,1.7,1,1.7,1.5c-2.9,2-0.7,2.6,11.4,4.1c1.1,0,3.4-0.5,5.1-1
		c0.6,4.6-2.3,2.2-6.8,4.3c-0.6,0,0.6,2,0,3.1c-1.7,1.5-5.7,1.5-6.8,3.1c-2.3,2,1.7,6.1,0,8.2c-2.5,3-4.6,6.2-6.4,9.4h9.5
		c5.6-7.7,11.7-15,19.2-21.1c2.3-2,3.4-4.1,2.9-7.1c5.7,0,10.8,3.4,16,0.8c2.9-1.5,2.3-6.6,5.1-9.2c0.5-0.4,0.9-0.7,1.3-1.1
		c-0.1,0-0.1,0.1-0.2,0.1c0.1,0,0.1-0.1,0.2-0.1c3.1-2.9,4.8-2.9,8.4-4.7c0.6-0.3,1.3-0.6,2-0.9c1.1-1.2,2.1-2.5,3.2-3.7
		C1163.6,347.5,1162.5,348.5,1161.3,349L1161.3,349z M1192.1,329c-0.4-6.6-0.2-11.2-0.1-17.6c-0.6,0.3-1,0.8-2.9,1.2
		c-0.5,0.1-1,0.1-1.5,0.1c1.8,4.3,2.3,7,2.8,11.7C1190.4,325.9,1192.1,326.9,1192.1,329L1192.1,329z"/>
	<path class="st7" d="M1239.1,291.4c-0.5,0.2-1.1,0.3-1.6,0.3c-3.1,5.6-5.4,20.1-10,25.2c2.3-1,5.3-11,6.5-13.1
		c1.9-5.5,5.7-9.8,8.9-14.4C1241.8,290.2,1240.5,291,1239.1,291.4z M1221.2,327.6c0.6,1.5,2.3,0,2.9,0.5c0.9-9.6,6.2-27,9.9-36.1
		c-0.6,0.1-1.2,0.2-1.7,0.4c-0.7,0.3-1.4,0.7-2.1,1.1c-2.2,7.7-4.7,23.9-7.3,31.6c0-2,0.6-3.6-0.6-5.6c-1.1,6.6-4.6,18.7-7.4,24.8
		C1219,341.7,1219.5,331.7,1221.2,327.6L1221.2,327.6z"/>
	<path class="st8" d="M1208.1,348.4c1.1-1.5,2.9-0.5,4-0.5c5.1-1.5,6.3-11.6,10.8-13.6c5.7-2.6,6.3-9.2,9.7-14.3
		c1.1-1.5,4-2.6,4.6-4.6c1.1-2.6,1.9-14.6,3.6-15.6c5-3.3,8.2-27.6,9.9-32.2c-2.6-0.6-4.6,0.7-6.7,2.1c-3.3,4.6-7,8.9-8.9,14.4
		c-1.1,2-5.3,31.8-7.6,32.8c4.1-4.4,6.3-15.9,8.8-22.6c0.4-1-6.9-14.9-6.5-15.6c-1.2,0.2,0.7,5.6-0.5,5.7
		c-0.3,0.7-1.6,13.7-0.8,15.6c4,9.3-3.7,19.3-4.5,28.1c-0.6-0.5-2.3,1-2.9-0.5c-1.7,4.1-2.3,14.1-6.3,16.7
		c2.9-6.1,6.3-18.2,7.4-24.8c1.1,2,0.6,3.6,0.6,5.6c2.5-7.7,1.4-30.3,3.6-38c-1.1,0.7-5.7,3.4-6.8,4c-4.4,2.1-4.3,10.6-8.8,12.6
		c-1.3,0.6-4.9,7.8-5.9,7.9c0.1,3.7,3.9,7.8,2.4,10.4c-1.1,3.1-1.7,6.6-1.7,10.2c1.1-2,4-4.1,4-6.1c1.1-6.1,2.9-10.2,6.8-14.8
		c0,2.6,0,5.6-0.6,8.2c2.9-2.6,4.8-14.6,6.5-17.7c0.6,9.7-4.8,27.9-11.6,35c-2.3,1.5-5.1,0-7.4,0.5c-1.1,0,0,8.5-0.6,10
		c-2.9,5.1-7.4,12.1-8,17.7C1200.7,361.5,1203,352.4,1208.1,348.4L1208.1,348.4z M1151.1,392.7c7.4-3.1,10.3-12.2,18.3-11.7
		c0.6,0,1.7-1,2.3-1.5c-0.6,3.1-1.7,5.6-2.3,8.7c1.7,0,3.4-1.5,3.4-2.6c2.3-5.6,6.8-8.7,11.4-6.6c1.7,0-1.7,4.1-1.1,6.6
		c3.4-3.6,5.7-8.2,9.7-11.2c1.1-1,4.6-1,5.7-2.6c4.6-3.6,10.3-5.6,15.4-8.7c-6.8,0.5-11.4,4.6-17.7,7.1
		c-13.7,6.1-29.7,4.1-42.2,13.8c-1.7,1.5-4.6,0-6.8-1.5c-2.5,4.8-6.5,9.3-11.5,12.5h6.7c2.3-2,4.7-3.9,7.1-5.8
		C1149.9,388.2,1151.6,391.2,1151.1,392.7L1151.1,392.7z M1286.7,297.4c-1.3,0.3-2.7,0.6-4,1.1c-2.5,0.9-3.9,1.7-5.4,2
		c-1.2,3.4-5.3,14.8-6.5,18.5C1277.2,315.8,1283.1,302.7,1286.7,297.4z"/>
	<path class="st7" d="M1238.4,349.9v-0.5c0,3.1-3.4,5.1-6.3,5.6c0,1,0,2.6-0.6,3.6c-4.6,4.6-8.6,9.2-11.4,14.8c-0.6,1-2.9,1.5-4,2.6
		c0,1,0,2-0.6,3.1c-2.9,3.6-6.8,5.6-8.6,10.2c3.4-4.6,8.6-7.7,11.4-12.8c0.6-1.5,4.6-1,5.1-2.6c1.1-3.1,3.4-4.6,5.7-6.6
		c0.6-0.5-0.6-2.6,0-3.1c4-2,5.7-5.6,9.1-8.2c1.1,6.6-5.1,10.2-6.8,16.3c4.6-5.1,6.8-10.2,9.7-16.3c0.6-1.5,3.4-2,4-4.1
		c-0.5,5.1-2.4,9.7-2.8,14.7c2.7-5.8,3.8-12.1,6.8-17.8c0.5-1.4,3.5-10.1,6.2-11.7c-3,0.9-6.1,7.6-9.6,7.6
		C1246.3,348.9,1241.8,350.9,1238.4,349.9L1238.4,349.9z M1294.3,366.2c-2.9,2.6-6.8,2-10.3,4.1c-0.6,0.5,0.6,2,0,2.6
		c-2.9,2-6.8,0.5-7.4,4.1c0.6-1,2.3-1.5,2.9-2c1.1-0.5,3.4,0,4.6-1c2.9-1.5,4.6-3.6,8-4.6c-1.7,2.6-2.3,5.1-4.6,7.7
		c0,0-1.1,1-1.7,1.5s0,1.5,0,2.6c1.1-1.5,3.4-3.1,4-4.6c1.1-3.1,4-4.6,5.1-7.1c0.7,1.4,1.9,2.3,3.4,2.9c-0.7-1.5-1.1-3.1-1.1-4.9
		c0.2,0,0.5,0.1,0.7,0.1C1296.8,365.9,1294.8,365.4,1294.3,366.2L1294.3,366.2z"/>
	<path class="st8" d="M1321.7,354.5c-6.3,0.5-13.7,0-20.5,2c-3.4,1-6.3,5.1-11.4,4.6c-1.1,0-1.7,3.6-3.4,4.1c-2.9,0.5-5.7,0-8.6,0
		c0,3.1-2.9,4.6-5.1,6.1c-6.3,3.1-12.6,3.1-17.7,8.7c-1.1,1.5-4-2.6-7.4-0.5c-5.1,2.6-10.3,6.1-16.5,6.6c-1.1,0-1.1,2-1.7,2.6
		c-5.7,3.6-12,3.1-18.3,3.6c5.1-1.5,9.1-3.6,13.1-7.1c2.9-3.1,8.6-2,13.1-3.6c1.7-1,2.3-3.6,2.9-4.1c3.4-1.5,8.6-1.5,11.4-3.1
		c9.7-3.6,19.4-7.1,28-13.8c0.6,0,1.7-1.5,2.3-1.5c6.3-3.1,12.6-4.1,17.7-8.7c-7.4,1-13.7,4.6-20.5,6.1c1.7-3.6,0.6-7.7,1.7-11.2
		c-6.3,4.6-6.3,11.2-12,16.3c-0.6,1-2.3,1.5-4,2c-0.6-5.6,4.6-10.7,1.7-16.3c-5.7,7.1-5.7,17.9-14.3,21.9c4-6.6,5.1-13.8,6.8-20.9
		c-2.3,3.1-3.4,7.7-6.8,10.2c-5.1,4.6-4.6,12.2-13.1,13.8c1.4-1.8,2.6-3.7,3.5-5.7c0.4-5,2.3-9.6,2.8-14.7c-0.6,2-3.4,2.6-4,4.1
		c-2.9,6.1-5.1,11.2-9.7,16.3c1.7-6.1,8-9.7,6.8-16.3c-3.4,2.6-5.1,6.1-9.1,8.2c-0.6,0.5,0.6,2.6,0,3.1c-2.3,2-4.6,3.6-5.7,6.6
		c-0.6,1.5-4.6,1-5.1,2.6c-2.9,5.1-8,8.2-11.4,12.8c1.7-4.6,5.7-6.6,8.6-10.2c0.6-1,0.6-2,0.6-3.1c1.1-1,3.4-1.5,4-2.6
		c2.9-5.6,6.8-10.2,11.4-14.8c0.6-1,0.6-2.6,0.6-3.6c2.9-0.5,6.3-2.6,6.3-5.6v0.5c3.4,1,8-1,7.4-5.1c3.5,0,6.6-6.7,9.6-7.6
		c0.2-0.1,0.4-0.2,0.6-0.4c2.9-2,7.4,1,10.8-0.5c5.5-2.4,10.4,0,15.8-2.2c0.8-1.5,1.4-3.2,1.9-4.9c-3.4,2.6-8,1.5-11.4,4.6
		c-2.9,2.6-7.4,1-12,1.5c6.3-2,11.4-3.1,16-6.6c2.3-2,6.3,0,8.6-2c0.6-0.5,0-2,0-2.5c1.7-0.5,4.6-1,5.1-2c3.7-3.7,5.3-13.9,2.7-18.3
		c-0.8,4.2-2.7,12.6-6.7,13.8c-10.3,4.1-20,6.1-29.7,12.2c-5.1,2.5-13.1,0-13.7,2c-3.4,9.2-10.3,19.2-19.4,21.8
		c1.1,1.5,1.1,3.6,0,5.1c-0.6,1-4,1-4,2c-1.7,6.6-6.3,10.2-11.4,14.3c-1.1,1,0,2-0.6,2.6c-4.6,1.5-10.3,0.5-13.1,3.6
		c-1.7,1.5-2.9,4.1-4.6,5.1c-5,3.1-9.8,6.1-14.6,8.9h58.4c5.1-2.6,10.2-5.2,15.6-7.4c8-3.1,15.4-7.1,23.4-10.2
		c-5.7,3.6-9.7,8.2-14.3,12.8c6.3-1,11.4-4.1,16.5-7.1c1.1-0.5,3.4,0,5.1-2c2.9,2.6,5.7,4.6,9.7,4.6c0-0.5,0.6-1,0.6-1.5
		c1.7-1.5,4.6,0.5,5.1-0.5c2.3-1.5,0-4.6,0.6-7.1c2.9,3.1,5.7,6.6,9.7,8.7c0-1.5,0.6-3.1,0-4.1c-3.2-2.9-6.4-5.5-8-8.9
		c-1.5-0.6-2.7-1.4-3.4-2.9c-1.1,2.6-4,4.1-5.1,7.1c-0.6,1.5-2.9,3.1-4,4.6c0-1-0.6-2,0-2.6c0.6-0.5,1.7-1.5,1.7-1.5
		c2.3-2.6,2.9-5.1,4.6-7.7c-3.4,1-5.1,3.1-8,4.6c-1.1,1-3.4,0.5-4.6,1c-0.6,0.5-2.3,1-2.9,2c0.6-3.6,4.6-2,7.4-4.1
		c0.6-0.5-0.6-2,0-2.6c3.4-2,7.4-1.5,10.3-4.1c0.5-0.8,2.5-0.3,3.5,1.1c8.6,1.1,16.7,4.4,24.7,7.7c0.5-0.4,1.1-0.7,1.4-0.7
		c4-1.5,10.3-0.5,11.4-3.1c2.3-3.6,5.1-6.6,7.4-10.2C1334.2,360.1,1327.9,354.5,1321.7,354.5L1321.7,354.5z"/>
	<path class="st7" d="M1290.9,322c-0.6,1-3.4,1.5-5.1,2c0,0.5,0.6,2,0,2.5c-2.3,2-6.3,0-8.6,2c-4.6,3.6-9.7,4.6-16,6.6
		c4.6-0.5,9.1,1,12-1.5c3.4-3.1,8-2,11.4-4.6c-0.5,1.7-1.1,3.4-1.9,4.9c0.2-0.1,0.5-0.2,0.7-0.3c2.3-1,2.3-4.6,3.4-6.1
		c1.7-2,7.4,0,8.6-1.5c2.9-4.1,0.8-13.9,0.8-19c0-2.5-1.1-4.7-1.2-7c-0.2,0.1-0.4,0.1-0.6,0.1c-0.4,1.1-0.6,2.3-0.8,3.5
		C1296.1,308.2,1294.5,318.3,1290.9,322L1290.9,322z"/>
	<path class="st4" d="M1392.7,365.2c0.1,0.2,0.2,0.4,0,0.6V365.2z"/>
	<path class="st5" d="M1301.2,400.1c0.6-0.3,1.2-0.5,1.9-0.8c-1.5,0.2-3,0.3-4.5,0.5C1299.4,399.9,1300.3,400,1301.2,400.1z
		 M1219.8,403.8l3-0.6c-0.2-0.1-0.5-0.2-0.7-0.3C1221.3,403.1,1220.6,403.5,1219.8,403.8z M1231.1,401.4c0.1,0,0.2,0,0.3-0.1
		c0-0.1-0.1-0.3-0.1-0.4C1231.2,401.1,1231.2,401.2,1231.1,401.4L1231.1,401.4z"/>
	<path class="st9" d="M1085.8,391.7v0.7C1086,392.2,1086.1,392,1085.8,391.7z M1373.1,391c-0.9-0.1-1.8-0.4-2.6-0.7
		C1370.3,391.1,1373,392.1,1373.1,391z"/>
	<path class="st7" d="M1193.1,398.9c-2.1,4.4-10-11.6-14.3-7.9c-0.7,0.6-1.3,1.3-2.1,1.9c-0.8,0.6-1.8,1.2-2.7,1.7
		c-7.1,4.3-12.1,9.8-16.9,15.2c4.9-3.7,10-7.2,15.4-10.6c-1.8,1.9-3.5,3.8-5.3,5.7c1.7-1.3,2.4-3,3.5-4.5c1.2-1.5,3.2-3,5.9-3
		c1.1,0,2.2,0.2,3.2,0c1.4-0.3,2.1-1.3,2.6-2.2C1184.9,389.9,1186.8,402.4,1193.1,398.9L1193.1,398.9z"/>
	<path class="st6" d="M1373.2,395h46.1c0,0,4.4,0.7-3.7,8.3c-8.1,7.6-9.3,7.4-10.1,10.6s-2.6,9-2.6,9v6l-26.6-9.4c0,0,3.6-3.4,4-5.6
		c0.3-2.2,7.1-4.2,7.1-4.2h-10.7l-6.6,7.5l-31.6-11.2c0,0,8.5,2.3,14.3-0.3s9.3-4.6,9.3-4.6s1.9,1.5,5,0S1373.2,395,1373.2,395
		L1373.2,395z M1233.8,980.8l-10.6-29.4v-39.5 M1247.2,541l-32.6,49.2l-6.8,49.2c0,0-27.4,22.8-24.1,41.9c3.4,19.1,0,40.1,0,40.1
		l25.9-29.1l2.7-11.6l9.4-0.4c0,0,11.6-8.5,9.8-11.6c-1.8-3.1,3.1-25.5,3.1-25.5l18.4-9.8c0,0,29-37.1,22.9-44.3
		c-6-7.2-19-29.9-9.2-37.1c9.8-7.2,17.9-21.9,17.9-21.9s-6.7,13.6-17.9,15.5c-11.2,1.9-2.2-9.7-2.2-12s1.3,2.4-8,4.9L1247.2,541
		 M1166.2,781.7c0,0-0.3-3.6,1.2-4.2c1.6-0.6,1.8-3.9,1.8-3.9s1,6.4,2.1,6.6c1,0.2,4.1-3.1,4.1-3.1s1-4.4,4.9-4.8
		c3.9-0.4,8.3-2.7,8.8-3.9s-0.5,5,2.6,5.3s-0.8-0.4-0.6,2.3s1.9,7.5,1.9,7.5s-2-0.9-5.4,4.6s-12.1,22.1-12.1,22.1l-2.9-4.2v-16.2
		L1166.2,781.7L1166.2,781.7z M1153.1,693c0,0,4.4,22.9,7.3,24.9c2.9,1.9-1,6.5,0,8.4s5.8,4.2,5.8,4.2l3.8-2.9c0,0-1.6,21.6,0,24.5
		s-5.6,11.6-5.6,11.6l-0.6-11.7c0,0-2.1-4.9-4.1-8.3C1157.7,740.3,1154.2,735.9,1153.1,693L1153.1,693z M1157,409.7
		c0,0,5.9-4.4,9.8-6.9s-2.5,2-3.5,5.4c-1.1,3.4,1.1,7.2,1.3,10.7s0.4,6.9,0.2,8c-0.2,1.1,1.5-9.8,2.3-12.4c0.9-2.7,2.6-4.8,2.6-4.8
		s-0.4,3.5,0,4.8s2.3-2.7,2.3-2.7l6.4-2.1l1.7-2.8c0,0,4.3,5.2,4.3,7.6v7.5l2.3-6.2c0,0,1.3-5.4,3.4-6.1s5.2-0.3,6.4,1.9
		c1.2,2.1,2.1,2.6,2.7,6.2s2.9,3.8,1.7,9.2c-1.2,5.5-2.5,6.5-2.5,6.5l2.9-3c0,0,1.2-3.2,2-5.1c0.9-1.9,0,4.3,0,4.3s3.2-8.5,5.3-9.8
		c2.1-1.3,5.6-7,11.2-6.2c5.6,0.9,4.5,2.6,7.5,4.1s6.6-3.2,10.4,2.7c3.8,6,13,10.9,13,10.9l1.5-8.9l-5.3-9.7c0,0-8.1-3.9-8.3-5.8
		s2.3-7.9,0.2-8.8s-7.5-1.9-4.6-3.2s-60.3-0.4-60.3-0.4"/>
	<path class="st10" d="M1398,403.4c-0.6,0.8-1.7,1.3-2.7,1.8c-1.5,5.4-4.9,8.3-7,13.9c3.4-3.6,5.1-6,7.4-10c-0.6,5.6,2.3,10-4,13.6
		c0,0.5,1.7,2,1.1,2.6c-2.9,2-6.3,2-9.7,3.1c-0.6,0-1.7,2.6-2.3,2.6c-6.3,2.6-8.6,3.7-12,7.8c2.9-2,4.6-5.1,7.4-7.1
		c2.3-1.5,5.1,0.8,6.8-1.2c1.1-0.5,2.3-1.5,4-1c-1,1.2-2.1,2.4-3.2,3.7c5.9-2.7,12.4-5.2,13.4-9.8c1.1-3.6-0.6-6,1.1-11.6
		C1399.7,410.1,1398,406.5,1398,403.4L1398,403.4z M1219.3,649.2c1.1-1.5,2.9-0.5,4-0.5c5.1-1.5,6.3-11.6,10.8-13.6
		c5.7-2.6,6.3-9.2,9.7-14.3c1.1-1.5,4-2.6,4.6-4.6c1.1-2.6,1.9-14.6,3.6-15.6c5-3.3,8.2-27.6,9.9-32.2c-2.6-0.6-4.6,0.7-6.7,2.1
		c-3.3,4.6-7,8.9-8.9,14.4c-1.1,2-5.3,31.8-7.6,32.8c4.1-4.4,6.3-15.9,8.8-22.6c0.4-1-6.9-14.9-6.5-15.6c-1.2,0.2,0.7,5.6-0.5,5.7
		c-0.3,0.7-1.6,13.7-0.8,15.6c4,9.3-3.7,19.3-4.5,28.1c-0.6-0.5-2.3,1-2.9-0.5c-1.7,4.1-2.3,14.1-6.3,16.7
		c2.9-6.1,6.3-18.2,7.4-24.8c1.1,2,0.6,3.6,0.6,5.6c2.5-7.7,1.4-30.3,3.6-38c-1.1,0.7-5.7,3.4-6.8,4c-4.4,2.1-4.3,10.6-8.8,12.6
		c-1.3,0.6-4.9,7.8-5.9,7.9c0.1,3.7,3.9,7.8,2.4,10.4c-1.1,3.1-1.7,6.6-1.7,10.2c1.1-2,4-4.1,4-6.1c1.1-6.1,2.9-10.2,6.8-14.8
		c0,2.6,0,5.6-0.6,8.2c2.9-2.6,4.8-14.6,6.5-17.7c0.6,9.7-4.8,27.9-11.6,35c-2.3,1.5-5.1,0-7.4,0.5c-1.1,0,0,8.5-0.6,10
		c-2.9,5.1-7.4,12.1-8,17.7C1211.8,662.3,1214.1,653.3,1219.3,649.2L1219.3,649.2z M1244,419.8c-0.6-1.2-1.4-2.2-3-2.9
		c-2.4-1.2-6-0.7-8.1-1.8c-1.3-0.7,0.7-3-1.7-3.9c-3.7-1.2-5-3.2-6-5.5c-1.9-4-5.8-7.1-8.9-10.6c1.5,1,2.8,2.1,4.7,2.9
		c1,0.4,2,0.8,3.1,1c1,1.5,1.9,2.9,2.8,4.4c0.3,0.7,2,0.9,2.7,1.8c2,3.2,3,6.5,8.7,7.8c1,0.2,0.7,1.2,1.3,1.8
		c4.4,3.2,9.4,5.8,12.1,9.7C1249.6,422.6,1246.9,421.1,1244,419.8L1244,419.8z M1130,630.7c0,0,2.2,9,4.8,15.7
		c2.6,6.6,6.2,16,6.2,16s6-6.4,11.6-5.6c5.6,0.8,10.8-15.9,10.8-15.9s-5.2,8.2-7.7,7.9s-4.4-2.2-2.6-5.9s3.8-8.7,3.8-10.4
		s6.6-4.5,6.6-4.5l-3.2-9.6v5.6c0,0-4.8,5.9-5.6,4.5c-0.8-1.4,0-2.9,0-2.9l-3.1,7.6l-9-3.4c0,0,1.7,5.6,1.7,9.3s1.1,11.5-1.7,9
		C1139.7,645.7,1134.4,641.9,1130,630.7L1130,630.7z M1300.4,508.8c3.2,7.3,12.5,10,12.2,18c0,0.6,1.1,1.7,1.6,2.2
		c-3.1-0.5-5.7-1.6-8.7-2.1c0,1.7,1.6,3.4,2.6,3.4c5.7,2.1,8.8,6.6,6.9,11.2c0,1.7-4.1-1.6-6.7-1c3.7,3.3,8.3,5.5,11.5,9.4
		c1,1.1,1.1,4.5,2.7,5.6c3.7,4.5,5.9,10.1,9.1,15.2c-0.7-6.8-4.9-11.3-7.6-17.5c-6.5-13.5-4.8-29.6-14.8-41.9
		c-1.6-1.7-0.1-4.6,1.4-6.9c-4.9-2.4-9.5-6.2-12.7-11.2l0.2,6.7c2,2.3,4,4.6,6,7C1305,507.6,1301.9,509.4,1300.4,508.8L1300.4,508.8
		z"/>
	<path class="st6" d="M1272.9,827c-1.9,10.9-6.9,13.8-10.1,15.6c-3.2,1.9,0,5.8,0,13s-0.8,25.7-1.6,29.2s-2.7,5-2.7,11.4
		s0.3,11.9-4.8,20.4c-5,8.5-9.8,30.2-9.8,30.2l-1.6,21.2c0,0-0.5,1.3-4.2,8.7s-4.5,4-4.5,4s-9.3-24.1-10.6-29.4
		c-1.3-5.3,1.3-32.3,0-39.5s-5.8-20.9-10.3-27s-1.9-23.6-4-26.2c-2.1-2.7-1.6-21.7-2.1-26c-0.5-4.2-6.1-7.4-6.1-7.4s1.6-4.2,5.6-6.9
		s8.2-7.5,8.2-10.2s2-9.8-1.6-14.4s12.1,5.9,13.4,10.8c1.3,4.9-0.7,15.1-0.7,15.1l11.3,16.1c0,0,2.5,6.6,2.5,7.9s-0.7-11.5,6.6-14.4
		c7.2-2.9,3.6-9.5,10.5-11.1s19-7.9,19-7.9L1272.9,827L1272.9,827z"/>
	<path class="st10" d="M1244.2,946.8l-1.6,21.2c0,0-0.5,1.3-4.3,8.7s-4.6,4-4.6,4s-9.4-24.1-10.7-29.4c0,0-0.7-5.7-0.4-7.2
		c0.3-1.5,0.4,3.3,1.7,3.5c1.2,0.3,2.2,1.2,2.2,1.2s-1.2-4.5,0.5-6.5s2.9-5.6,2.7-6.8s1.5-6.5,1.5-6.5s1.8,6.1,1.4,7.8
		c-0.4,1.6,3,5,3,6s2.9,3.5,2.9,3.5s1-0.8,1.8-1.2s1.1-1.9,1.1-1.9S1243,948.6,1244.2,946.8L1244.2,946.8z M1252.2,831.5
		c0,0-6.2,2.6-6.2,6.9s-1.8,10.4-1.8,10.4l4,4.6c0,0,2.1,2,1.2,6.1c-0.9,4,2.8,8.4,2.8,8.4v8.4c0,0,4.2-5.8,4.2-10.1s0.9-2.6,0-7.8
		s2.3-11.8,2.3-11.8S1248.3,845,1252.2,831.5L1252.2,831.5z M1188.5,531.9c0,0,4.8,4.7,2.8,7.4s3.3-1.1,3.3-1.1l-7.3,16.9l5.1,4.9
		c0,0-0.9,0.3-0.5,2.3c0.4,2.1,6.3-13.5,6.3-13.5s-1.5-5.2-0.6-8.2s2.2-5.2,1.6-6.4s1.9-10.3,1.9-10.3s-2,5.6-3.9,5.2
		C1195.5,528.8,1189.4,529.1,1188.5,531.9L1188.5,531.9z M1210.8,857.3c2.5,7.6,11.5,11.1,10.5,19c0,0.6,0.9,1.8,1.4,2.4
		c-3-0.8-5.5-2.1-8.5-2.9c-0.1,1.7,1.3,3.5,2.3,3.6c5.4,2.7,8.2,7.4,5.8,11.8c-0.1,1.7-4-2-6.5-1.6c3.3,3.7,7.8,6.3,10.5,10.4
		c0.9,1.2,0.7,4.6,2.2,5.9c3.2,4.8,4.9,10.6,7.6,16c0-6.9-3.8-11.7-5.9-18.1c-5.2-14.1-2-29.9-10.8-43.1c-1.4-1.8,0.3-4.6,2-6.7
		c-4.6-2.8-8.9-7.1-11.6-12.4l-0.5,6.7c1.8,2.5,3.6,4.9,5.3,7.5C1215.5,856.4,1212.3,857.9,1210.8,857.3L1210.8,857.3z"/>
</g>
<g class="st2">
	<g class="st11">
		<path class="st12" d="M1228.9,170.3c1.1-0.4,2.2-0.7,3.4-0.7c0.9,0,1.7-0.8,2.2-1.5c5.4-7.5,12.7-10.9,21.5-10.5
			c1.6,0.1,3,0,4.1-0.4v-0.8c0-10.1,8.5-18.4,19-18.4c2.9,0,5.7,0.8,8.2,2c1,0.2,1.9,0.3,2.9,0.6c0.8,0.2,1.6,0.5,2.4,0.6
			c1.8-1.6,4.3,1.9,6.9,1.9c1.8,0,2,17.5,3.5,18.3c1.9-2.3,4.8-2.4,8-2.4c0.7,0,1.3,0.1,2,0.2c1.9-0.8,1.8-3.3,2.7-4.9
			c4.4-8.2,9.8-15.1,18.5-18.8c12.9-5.5,24.9-3.9,36.4,3.9c0.6,0.4,1.1,0.8,1.7,1.1h1.1c8.3,0,15.6,8.3,19.8,14.6
			c1.5,1.8,2.8,3.8,3.2,6.3c0.3,1.6-4.6,3.4-3.7,4.4c5.1,0.6,5.1,14.2,5.1,14.2c-2.7-4.3,5.1-20.6,15.7-21.3
			c6.4-0.5,10.1,1.7,12.8,5.4c0.2,0-1.8-12.7,11.2-14.5c2.7-0.4,4.3,0.2,5.8,0.9c1.9-4.5,9.9-9.5,16.8-9.5c10.6,0,20.6,7,23.8,15.1
			c0.9,2.2,1.4,5.1,1.4,5.1c3.2-2.2,7.4-3.5,12-3.5c8.4,0,14.1,7.8,16.4,13.9c0.3,0.2,0.6,0.3,0.9,0.5c0.7-0.2,1.3-0.3,2.1-0.3
			c3.6,0,6.6,2.4,7.5,5.7c1.4-0.3,2.9-0.5,4.5-0.5c6.3,0,11.7,1.4,13.7,5.3c1.5,0,2.9,1.1,4.4,1.1c21.3,0,38.7,0.1,38.5,1.8
			c-0.2,1.9-17.2,2.4-38.5,2.4c-9.6,0-18.4-0.5-25.1-1c-2.1,1.1-5.5,1.7-9.2,1.6c-2-0.1-3.8-0.3-5.5-0.8c-0.2,0-0.3,0.1-0.5,0.1
			c-4.5,1.5-14.9-0.6-19.5-0.7c-5.9-0.1-14.5-0.4-20.4,0.6c-1.3,0.2-6.5-0.2-7.8-0.5c-9-2.2-15.9-3.5-26.9-3.1
			c-4.5,0.2-27.9,2.6-32,0.9c-0.5-0.2-1.2-0.4-1.8-0.3c-6.1,0.9-6.1-1.2-12.3-1.1c-7.5,0.1-13.6,0.6-21.2,0.3
			c-6.1-0.3-12,1.9-18,2.3c-8.6,0.6-6.9,1.6-15.5,1c-5.7-0.4-11.3-2-17.1-1.9c-5.4,0.1-10.9,3.7-16.3,3.9c-6.3,0.2-12.4-1-18.4-2.8
			c-5.4-1.6-10.9-2.5-16.4-2.1c-3.8,0.3-7.5,0.3-11.1-0.7c-5.5-1.4-11-3.5-16.8-1.4c-0.7,0.3-1.7,0-2.5-0.1
			c-0.4,0.1-0.9,0.1-1.3,0.1c-3.2,0.3-6.3,0.2-8.9-0.1c-0.5,0-0.9,0-1.4-0.2c-3.7-0.7-6.1-2.1-6.2-3.8
			C1214.4,174.2,1220.7,171.2,1228.9,170.3L1228.9,170.3z"/>
		<path class="st13" d="M1479.4,122.4c-0.4-0.1-0.7-0.2-0.7-0.7c0-0.3-0.2-0.4-0.5-0.4c-0.8,0.1-1.7,0.2-2.5,0.2
			c-2,0.1-4.1,0.2-6.1,0.1c-2.3,0-4.6-0.1-6.9-0.2c-0.8,0-1.6-0.2-2.4-0.5c-0.4-0.2-0.4-0.4,0-0.6c0.7-0.4,1.5-0.4,2.2-0.5
			c2.4-0.4,4.9-0.5,7.4-0.6c0.8,0,1.6,0.2,2.1-0.7c0.1-0.1,0.1-0.2,0.2-0.3c-0.2-0.2-0.2-0.5-0.2-0.7c0.1-0.8,1.5-1.2,3.1-1h0.2
			c0.5,0,0.6-0.2,0.5-0.6c-0.2-0.8,0.3-1.4,0.9-1.8c0.5-0.4,1.1-0.5,1.8-0.3c0.4,0.1,0.6,0.6,1,0.7c0.5-0.2,1.3-0.3,2.1-0.1h0.2
			c-0.1-0.2-0.2-0.5-0.2-0.7c0-1.2,1.3-2.2,3-2.3c0.1-0.1,0.2-0.1,0.2-0.2c0,0,0-0.1,0.1-0.1c0.3-1,1.5-1.7,2.9-1.7s2.7,0.7,3,1.6
			c0.2,0,0.4-0.1,0.6-0.1c1.7,0,3.1,0.9,3.1,2.1v0.3c0.1,0.1,0.1,0.3,0.2,0.4c0.7,0.3,1.2,0.8,1.2,1.2c0.1,0.1,0.3,0.2,0.6,0.1
			c0.5-0.1,1,0,1.5,0.2c0.9,0.2,1.5,0.7,1.5,1.2c0,0.3-0.2,0.6-0.6,0.9v0.1l0.1,0.1c0.4,0,0.7,0,1.1,0.1c0.6,0.1,1.2,0.3,1.6,0.6
			c0.4,0.1,0.7,0.1,1.1,0c0.5-0.1,0.7-0.2,0.9-0.6c0.3-0.9,1-1.2,1.9-1.2s1.5,0.5,1.8,1.4c0.1,0.5,0.4,0.6,0.8,0.5
			c0.4,0,0.8,0.1,1.2,0.1c1,0.1,1.7,0.7,2.7,0.9c0.4,0,0.9-0.1,1.3-0.1c2.2-0.1,4.1,0.3,4.1,0.8s-1.8,0.9-4,1c-0.7,0-1.4,0-2-0.1
			c-0.9,0-1.9-0.1-2.8-0.2c-1-0.2-1.8-0.3-2.6,0.7c-1,1.2-2.6,1.1-4,1c-0.8-0.1-1.5-0.2-2.3,0.3c-1.5,1-3.3,0.9-5.1,0.8
			c-0.8-0.1-1.6-0.2-2.3-0.7c-0.5-0.4-0.9-0.2-1.4-0.1c-1.5,0.4-3,0.3-4.4-0.1c-0.4-0.1-0.8-0.3-1.2-0.2
			C1483.5,122.9,1481.4,122.9,1479.4,122.4L1479.4,122.4z"/>
		<path class="st14" d="M1630.9,175.2c-1.9,0.6-3.8,0.7-5.7,0.5c-0.9-0.1-1.7,0-2.4,0.4s-1.6,0.6-2.3,0.6c-1.8,0-3.7,0.5-5.5-0.2
			c-0.4-0.2-0.9-0.2-1.3,0c-1.9,0.7-3.8,0.6-5.7,0.1c-0.4-0.1-0.9-0.2-1.2-0.1c-1.6,0.6-3.2,0.4-4.8,0.3c-0.8,0-1.4-0.6-2.2-0.3
			c-1.1,0.4-2.2,0.5-3.2,0.4c-1.6,0-3,0.1-4.3-0.5c-0.5-0.2-1.3-0.4-1.2-1.2c0-0.4-0.1-0.5-0.5-0.6c-0.9,0-1.8,0-2.6-0.1
			c-0.4,0-1.1-0.1-1.1-0.6c0-0.6,0.7-0.5,1.2-0.6c3.1-0.5,6.2,0.3,9.4,0.2c0.9,0,1.9,0.5,2.8,0.1c0.1,0,0.2-0.1,0.3-0.2
			c-0.1-0.1-0.2-0.2-0.3-0.2c-0.2-0.2-0.5-0.4-0.5-0.7c0-0.1,0.2-0.3,0.4-0.3c4-0.7,7.9-0.5,11.9-0.4c1.9,0.1,3.7,1,5.7,0.9
			c1.5-0.1,3,0,4.4,0.5c0.5,0.2,1.1,0.4,1.7,0.4c2.3-0.2,4.6,0,6.9,0.5c0.3,0.1,0.5,0.2,0.5,0.5
			C1631.3,175,1631.1,175.1,1630.9,175.2L1630.9,175.2z"/>
		<path class="st15" d="M1627.2,153.2h-8.1c-2.3-0.2-4.7-0.3-7-0.3c-0.6,0-1.3,0.2-2,0c-0.2-1.7-3.5-3-7.6-3c-1.3,0-2.6,0.1-3.7,0.4
			c-0.1-0.2-0.1-0.5,0-1c0.9-3.7-2-7.9-6.7-9.2c-3.7-1-6.7-0.1-9.5,1.8c-0.1,0.1-0.4,0.2-0.5,0.2c-0.2-0.1-0.3-0.3-0.3-0.4
			c-0.1-1.8-1.1-3.3-2.3-4.5c-2.1-2.3-5-3.7-8.6-4.1c-7.6-0.8-14.2,3.8-14.7,10.3c0,0.3-0.1,0.6-0.6,0.4c-1.7-0.6-3.4-0.6-5.1-0.3
			c-3.5,0.6-6.1,3.7-5.9,6.7c-0.7-0.2-1.5-0.2-2.4-0.2c-3.4,0-6.2,1.4-6.9,3.3c-3.6-0.1-7.2,0.1-10.8,0.8c-0.5,0.1-1.1,0.1-1.1,0.8
			c0.1,0.6,0.5,0.7,1.1,0.8c1.4,0.3,2.9,0.3,4.3,0.4c5.5,0.7,10.9,0.4,16.4,0.2c1.6-0.1,3.2-0.6,4.9-0.1c1.5,0.5,3,0.5,4.6,0
			c0.9-0.3,1.6-1.1,2.7-0.6c2.2,1,4.5,1.4,7,0.6c1-0.3,1.9-1.1,3-0.7c1.2,0.4,2.5,0.4,3.8,0.7c2.9,0.6,5.7,0.4,8.6,0.1
			c1.7-0.2,3.2-1.3,5.1-0.6c1.4,0.5,6.4,1,8,0.9c1,0,1.9-0.5,2.8-0.6c2.3-0.3,4.5,0.2,6.8,0.4c3.3,0.3,6.7,0.1,10.1,0.2
			c3.1,0.1,2.6-0.1,5.6-0.3c2.5-0.1,4.8-0.2,6.6-0.4h2.2c19,0,34.4-0.6,34.4-1.3C1661.6,153.8,1646.2,153.2,1627.2,153.2
			L1627.2,153.2z"/>
		<path class="st16" d="M1630.8,174.2c-0.1,0-0.2,0-0.3-0.1c-1.6,0.3-3.2,0.4-4.7,0.3c-0.9-0.1-1.7,0.1-2.4,0.5s-1.6,0.6-2.4,0.6
			c-1.9,0-3.8,0.5-5.6-0.1c-0.4-0.1-0.9-0.1-1.3,0c-1.9,0.7-3.8,0.6-5.8,0.2c-0.4-0.1-0.9-0.2-1.3,0c-1.6,0.6-3.2,0.4-4.9,0.4
			c-0.8,0-1.5-0.6-2.3-0.3c-1.1,0.4-2.3,0.5-3.3,0.5c-1.6,0-3,0.1-4.4-0.4c-0.5-0.2-1.3-0.4-1.2-1.1c0-0.4-0.1-0.5-0.5-0.5h-2.7
			c-0.3,0-0.8-0.1-1-0.2v0.2c0,0.5,0.7,0.5,1.1,0.6c0.9,0.1,1.8,0.1,2.6,0.1c0.4,0,0.6,0.1,0.5,0.6c-0.1,0.8,0.7,1,1.2,1.2
			c1.3,0.6,2.7,0.5,4.3,0.5c1,0,2.1,0,3.2-0.4c0.8-0.3,1.5,0.3,2.2,0.3c1.6,0.1,3.2,0.2,4.8-0.3c0.4-0.1,0.8,0,1.2,0.1
			c1.9,0.5,3.8,0.7,5.7-0.1c0.4-0.2,0.9-0.2,1.3,0c1.8,0.7,3.7,0.2,5.5,0.2c0.7,0,1.6-0.2,2.3-0.6c0.7-0.4,1.5-0.5,2.4-0.4
			c1.9,0.2,3.8,0.1,5.7-0.5c0.3-0.1,0.5-0.2,0.5-0.6C1631.3,174.3,1631.1,174.2,1630.8,174.2L1630.8,174.2z"/>
	</g>
	<g class="st11">
		<path class="st14" d="M987,273.5c-3.8,1.2-7.8,1.4-11.7,1c-1.8-0.2-3.4,0.1-4.9,0.9c-1.5,0.9-3.3,1.3-4.8,1.3
			c-3.8,0-7.6,1-11.3-0.5c-0.9-0.3-1.8-0.3-2.7,0c-3.9,1.5-7.7,1.2-11.7,0.2c-0.8-0.2-1.8-0.4-2.6-0.1c-3.2,1.2-6.5,0.8-9.8,0.7
			c-1.5-0.1-2.9-1.3-4.5-0.7c-2.3,0.8-4.6,0.9-6.6,0.8c-3.2,0-6.1,0.1-8.8-1c-1.1-0.5-2.6-0.8-2.4-2.6c0.1-0.9-0.3-1.1-1-1.1
			c-1.8,0-3.6,0-5.4-0.2c-0.9-0.1-2.3-0.2-2.2-1.2c0.1-1.2,1.5-1.1,2.5-1.3c6.4-1.1,12.8,0.7,19.3,0.5c1.9-0.1,3.9,1,5.8,0.2
			c0.2-0.1,0.4-0.2,0.7-0.4l-0.5-0.5c-0.5-0.3-1-0.7-0.9-1.3c0-0.2,0.5-0.5,0.8-0.6c8.1-1.4,16.3-1.1,24.5-0.8
			c4,0.1,7.6,2.1,11.7,1.7c3.1-0.3,6.2-0.1,9.1,1c1.1,0.4,2.2,0.9,3.5,0.8c4.7-0.4,9.5-0.1,14.1,1.1c0.6,0.1,1,0.3,1,1
			C988,273.1,987.5,273.4,987,273.5L987,273.5z"/>
		<path class="st15" d="M979.5,228.3c-5.7,0-11.3,0-16.6,0.1c-4.8-0.3-9.6-0.5-14.4-0.6c-1.3,0-2.8,0.4-4,0
			c-0.4-3.4-7.2-6.1-15.5-6.1c-2.7,0-5.3,0.3-7.6,0.8c-0.2-0.4-0.2-1.1,0.1-2.1c1.9-7.6-4-16.2-13.8-18.9
			c-7.7-2.1-13.7-0.2-19.6,3.6c-0.3,0.2-0.8,0.4-1,0.3c-0.3-0.2-0.6-0.6-0.6-0.9c-0.2-3.6-2.4-6.7-4.8-9.3
			c-4.4-4.7-10.2-7.7-17.6-8.5c-15.5-1.7-29.2,7.8-30.1,21.2c0,0.7-0.2,1.2-1.2,0.8c-3.4-1.2-6.9-1.2-10.5-0.6
			c-7.2,1.1-12.5,7.6-12.2,13.8c-1.5-0.3-3.1-0.5-4.8-0.5c-7,0-12.8,2.9-14.2,6.8c-7.4-0.1-14.8,0.1-22.1,1.6
			c-1.1,0.2-2.3,0.3-2.2,1.7c0.1,1.2,1.1,1.4,2.2,1.7c2.9,0.7,5.9,0.5,8.8,0.9c11.2,1.5,22.5,0.9,33.7,0.5c3.3-0.1,6.6-1.3,10-0.3
			c3.2,1,6.3,1,9.5,0c1.8-0.6,3.3-2.3,5.5-1.3c4.6,2.2,9.3,2.8,14.4,1.2c2-0.6,3.9-2.2,6.2-1.4c2.5,0.9,5.2,0.9,7.7,1.4
			c5.9,1.3,11.7,0.8,17.7,0.2c3.5-0.4,6.6-2.6,10.5-1.2c2.9,1.1,13.1,2,16.5,1.9c2.1-0.1,3.9-1,5.8-1.2c4.7-0.5,9.3,0.3,14,0.8
			c6.9,0.6,13.8,0.2,20.7,0.4c6.3,0.1,5.4-0.1,11.5-0.7c5.2-0.1,9.9-0.4,13.6-0.8h4.5c39,0,70.7-1.2,70.7-2.7
			C1050.2,229.5,1018.5,228.3,979.5,228.3L979.5,228.3z"/>
		<path class="st17" d="M921.8,217.7c0-0.5,0-0.9-0.1-1.4C921.6,217,921.7,217.4,921.8,217.7z M979.5,228.3h-3
			c-3.7,0.4-8.4,0.8-13.6,1c-6.2,0.7-5.3,0.9-11.7,0.9c-7.1,0-14.2,0.5-21.2,0c-4.8-0.3-9.5-1.1-14.2-0.5c-2,0.3-3.7,1.2-5.9,1.3
			c-3.5,0.1-13.8-0.6-16.9-1.7c-3.9-1.4-7.1,1-10.7,1.4c-6.1,0.8-12,1.3-18,0.2c-2.6-0.5-5.3-0.4-7.9-1.3c-2.3-0.8-4.3,0.9-6.3,1.5
			c-5.2,1.7-10,1.1-14.7-1c-2.3-1-3.8,0.8-5.6,1.4c-3.3,1.1-6.4,1.1-9.7,0.2c-3.5-1-6.8,0.3-10.2,0.4c-11.5,0.6-22.9,1.4-34.4,0.1
			c-3-0.3-6-0.1-8.9-0.7c0.2,1.1,1.1,1.4,2.2,1.6c2.9,0.7,5.9,0.5,8.8,0.9c11.2,1.5,22.5,0.9,33.7,0.5c3.3-0.1,6.6-1.3,10-0.3
			c3.2,1,6.3,1,9.5,0c1.8-0.6,3.3-2.3,5.5-1.3c4.6,2.2,9.3,2.8,14.4,1.2c2-0.6,3.9-2.2,6.2-1.4c2.5,0.9,5.2,0.9,7.7,1.4
			c5.9,1.3,11.7,0.8,17.7,0.2c3.5-0.4,6.6-2.6,10.5-1.2c2.9,1.1,13.1,2,16.5,1.9c2.1-0.1,3.9-1,5.8-1.2c4.7-0.5,9.3,0.3,14,0.8
			c6.9,0.6,13.8,0.2,20.7,0.4c6.3,0.1,5.4-0.1,11.5-0.7c5.2-0.1,9.9-0.4,13.6-0.8h4.5c39,0,70.7-1.2,70.7-2.7
			C1050.2,229.5,1018.5,228.3,979.5,228.3L979.5,228.3z"/>
		<path class="st16" d="M986.9,271.4c-0.2-0.1-0.4-0.1-0.7-0.1c-3.2,0.7-6.5,0.8-9.7,0.6c-1.9-0.1-3.5,0.1-5,1s-3.3,1.3-4.9,1.3
			c-3.8,0.1-7.7,1.1-11.6-0.2c-0.9-0.3-1.9-0.3-2.8,0.1c-3.9,1.5-7.9,1.3-11.9,0.4c-0.8-0.2-1.9-0.3-2.6-0.1
			c-3.3,1.2-6.6,0.9-10,0.9c-1.6,0-3-1.1-4.6-0.6c-2.3,0.8-4.6,1-6.7,0.9c-3.3,0.1-6.2,0.2-9-0.8c-1.1-0.4-2.7-0.7-2.5-2.4
			c0.1-0.8-0.3-1.1-1.1-1.1c-1.8,0-3.7,0-5.5-0.1c-0.6,0-1.6-0.1-2-0.5c0,0.1-0.1,0.2-0.1,0.3c-0.1,1,1.4,1.1,2.2,1.2
			c1.8,0.2,3.6,0.2,5.4,0.2c0.8,0,1.1,0.2,1,1.1c-0.2,1.7,1.3,2.1,2.4,2.6c2.7,1.2,5.6,1.1,8.8,1c2,0.1,4.3-0.1,6.6-0.8
			c1.6-0.6,3,0.7,4.5,0.7c3.3,0.1,6.6,0.5,9.8-0.7c0.7-0.3,1.7-0.1,2.6,0.1c3.9,1,7.8,1.4,11.7-0.2c0.9-0.4,1.9-0.4,2.7,0
			c3.7,1.5,7.6,0.5,11.3,0.5c1.5,0,3.3-0.4,4.8-1.3s3-1.1,4.9-0.9c3.9,0.3,7.9,0.2,11.7-1c0.6-0.2,1-0.5,1-1.2
			C987.9,271.7,987.5,271.5,986.9,271.4L986.9,271.4z"/>
	</g>
</g>
<g class="st2">
	
		<radialGradient id="SVGID_1_" cx="959.65" cy="-366.4676" r="693.1104" gradientTransform="matrix(1 0 0 -1.2158 0 387.066)" gradientUnits="userSpaceOnUse">
		<stop  offset="0" style="stop-color:#01323E;stop-opacity:0.5"/>
		<stop  offset="1" style="stop-color:#01323E;stop-opacity:0"/>
	</radialGradient>
	<path class="st18" d="M1919.3,602c-62.8-4.4-126-7.9-190-10c-132.5-4.2-266.4-2-398.3,4.1c-155.2,7.2-308.2,19.9-464.5,23.5
		c-136.1,3.1-273-0.8-407.5-8.2c-89.9-5-179.8-11.6-270.9-11.1c-64.9,0.3-131.6,4.7-188.1,15v460.1h1919.2V602H1919.3z"/>
	
		<linearGradient id="SVGID_2_" gradientUnits="userSpaceOnUse" x1="0" y1="292.4777" x2="1919.6" y2="292.4777" gradientTransform="matrix(1 0 0 -1 0 1072)">
		<stop  offset="0" style="stop-color:#01323E"/>
		<stop  offset="1" style="stop-color:#01323E;stop-opacity:0"/>
	</linearGradient>
	<path class="st19" d="M1919.6,1073.7l-0.4-485.5c-162.4-37-322.6-83.8-489.2-98c-109.6-9.4-220.3-4.5-329.4,9.1
		c-128.3,16-254.9,44.1-384.1,52c-112.5,6.9-225.7-1.7-337-18.3c-74.3-11.1-148.7-25.7-224-24.6C101.9,509.2,46.7,519,0,541.7
		l0.4,532H1919.6z"/>
	
		<radialGradient id="SVGID_3_" cx="960" cy="336.7592" r="721.0068" gradientTransform="matrix(1 0 0 -1 0 1072)" gradientUnits="userSpaceOnUse">
		<stop  offset="0" style="stop-color:#01323E;stop-opacity:0.5"/>
		<stop  offset="1" style="stop-color:#01323E;stop-opacity:0"/>
	</radialGradient>
	<path class="st20" d="M1920,397.3c-62.8-3.6-224.8,14.7-288.9,13c-132.5-3.5-167.6-22.9-299.4-17.9c-155.2,6-264.1,3.3-420.4,6.3
		c-136.1,2.6-317.1,12.4-451.6,6.3c-89.9-4.1-179.8-9.6-270.9-9.1c-64.9,0.3-131.6,4-188.1,12.4L0,1078.9h1919.2L1920,397.3
		L1920,397.3z"/>
	<path class="st21" d="M0,1075.4V758.8c162.4-38.9,322.6-87.9,489.2-102.9c109.6-9.9,220.3-4.8,329.4,9.5
		c128.3,16.8,254.9,46.3,384.1,54.5c112.5,7.2,225.7-1.8,337-19.2c74.3-11.6,148.7-27,224-25.8c53.7,0.9,108.8,11.2,155.5,35v365.5
		L0,1075.4L0,1075.4z"/>
	<path class="st22" d="M1919.3,1072.9V874.5c-162.4-24.4-322.6-55.1-489.2-64.5c-109.6-6.2-220.3-3-329.4,6
		c-128.3,10.5-254.9,29-384.1,34.2c-112.5,4.5-225.7-1.1-337-12c-74.3-7.3-148.7-16.9-224-16.2c-53.7,0.5-108.8,7-155.5,21.9v229
		H1919.3z"/>
	<path class="st23" d="M0,1075.4V930.2c162.4-17.8,322.6-40.3,489.2-47.2c109.6-4.5,220.3-2.2,329.4,4.4
		c128.3,7.7,254.9,21.2,384.1,25c112.5,3.3,225.7-0.8,337-8.8c74.3-5.3,148.7-12.4,224-11.8c53.7,0.4,108.8,5.1,155.5,16v167.5
		L0,1075.4L0,1075.4z"/>
</g>
<g class="st2">
	<g class="st11">
		<path class="st24" d="M1171.1,165.8c-0.4,2.9-1,8.4,0.4,11.3c2.1,4.6,8.6,7.9,11.6,9c-2.1-2.8-3.1-5-2.6-6.6
			c0.1-0.5,1.1,1.3,2.8,1.6c-0.6-1.9-0.5-2.4-0.5-3.8s-0.3-3.9-1.2-5.3c-3-4.6-8.2-6.4-9.3-6.8L1171.1,165.8L1171.1,165.8z"/>
		<path class="st25" d="M1171.1,165.8c-0.3,1.2-0.4,5.7,0.8,7.7c1.2,2,5.8,4.1,8,6.2c-0.5-2.2-1.1-2.9-0.8-4.8
			c0.2-1.9,0.2-2.1-0.1-3.1c-0.3-1-2.2-3.1-4.1-4.7c-2-1.7-2.5-1.9-2.5-1.9L1171.1,165.8z"/>
		<path class="st26" d="M1171.1,165.8c-0.1,1.5,0.3,5.6,1.6,6.7c1.3,1.1,2.3,0.7,4.5,2.3c0-0.9-1.3-2.3-0.9-3.2
			c0.5,0.5,0.7,0.8,1.4,1c-0.6-0.8-0.6-1.8-1.1-2.9c-0.6-1.3-1.9-2.1-2.9-2.9c-1-0.9-1.5-1.6-1.5-1.6L1171.1,165.8L1171.1,165.8z"/>
		<path class="st27" d="M1171.9,166.4c-2.2,1.2-4.2,1.7-4.5,1.1l0.6,1.1c0.3,0.6,2.4,0.1,4.5-1.1c2.2-1.2,3.6-2.7,3.3-3.3l-0.6-1.1
			C1175.6,163.7,1174.1,165.2,1171.9,166.4z"/>
		<path class="st27" d="M1172.7,167.7c-1.6,0.9-3.2,1.3-3.4,0.8l0.5,0.8c0.3,0.5,1.8,0.1,3.4-0.8c1.6-0.9,2.7-2,2.5-2.5l-0.5-0.8
			C1175.4,165.7,1174.3,166.8,1172.7,167.7z"/>
		<path class="st28" d="M1160.6,153.2c0.4,2.7,1.5,6.3,3.9,10.5c1.3,2.2,2.2,3.9,2.2,3.9s3.3-0.6,5-1.6s4-3.4,4-3.4s-0.9-1.7-2.2-4
			c-2.3-4.1-4.9-6.9-7.1-8.7c-0.7,0.7-1.6,1.4-2.7,2C1162.7,152.5,1161.6,152.9,1160.6,153.2L1160.6,153.2z"/>
		<path class="st29" d="M1161.2,147.3c-0.5,0.3-1.1,2.4-0.6,5.9c1-0.3,2.1-0.7,3.2-1.3c1-0.6,2-1.3,2.7-2
			C1163.8,147.7,1161.6,147,1161.2,147.3L1161.2,147.3z"/>
		<path class="st27" d="M1171.1,164.9c-2.5,1.4-4.9,2-5.3,1.3l0.7,1.3c0.4,0.7,2.8,0.1,5.3-1.3c2.5-1.4,4.2-3.1,3.8-3.8l-0.7-1.3
			C1175.3,161.7,1173.6,163.5,1171.1,164.9z"/>
		<path class="st30" d="M1175.2,163.5c-0.2,0.3-0.6,0.6-1,1c0,0.1,0.1,0.1,0.1,0.2C1174.8,164.2,1175.1,163.8,1175.2,163.5z
			 M1175.1,165.6c-0.1,0.1-0.2,0.2-0.3,0.2v0.1C1175,165.8,1175.1,165.7,1175.1,165.6z"/>
		<path class="st31" d="M1174.3,164.7l0.6,1.2c0.1-0.1,0.2-0.2,0.3-0.2c0.1-0.2,0.1-0.3,0-0.4l0.1,0.2c0.5-0.5,0.7-1,0.6-1.3
			l-0.5-0.9c0,0.1-0.1,0.1-0.1,0.2C1175.1,163.8,1174.8,164.2,1174.3,164.7z"/>
		<path class="st31" d="M1175.1,165.6c0,0.1-0.1,0.2-0.2,0.3c0.1,0.3,0.3,0.6,0.4,0.9c0.3-0.3,0.4-0.6,0.3-0.8l-0.3-0.6l-0.1-0.2
			C1175.2,165.3,1175.2,165.4,1175.1,165.6L1175.1,165.6z"/>
		<path class="st32" d="M1172.6,161.4c0.3,0.6,0.7,1.2,1,1.8c0.9-0.8,1.5-1.6,1.4-2c-0.4-0.7-0.8-1.6-1.4-2.6
			c-2.3-4.1-4.9-6.9-7.1-8.7c-0.4,0.4-0.8,0.7-1.3,1.1C1167.6,153.6,1170.2,157.2,1172.6,161.4z"/>
		<path class="st33" d="M1166.5,149.9c-2.7-2.2-4.8-2.9-5.3-2.6c-0.1,0-0.1,0.1-0.2,0.2c1.2,0.7,2.7,1.9,4.2,3.5
			C1165.6,150.6,1166.1,150.3,1166.5,149.9L1166.5,149.9z"/>
		<path class="st31" d="M1173.6,163.2c0.2,0.4,0.5,0.9,0.7,1.3c0.4-0.3,0.7-0.7,1-1c0.1-0.1,0.1-0.1,0.1-0.2
			c0.2-0.3,0.3-0.5,0.3-0.7c0-0.1,0-0.2-0.1-0.2l-0.7-1.3v0.1C1175,161.6,1174.5,162.4,1173.6,163.2L1173.6,163.2z"/>
		<path class="st24" d="M1178.6,164.7c-0.4,2.9-1,8.4,0.4,11.3c2.1,4.6,8.6,7.9,11.6,9c-2.1-2.8-3.1-5-2.6-6.6
			c0.1-0.5,1.1,1.3,2.8,1.6c-0.6-1.9-0.5-2.4-0.5-3.8s-0.3-3.9-1.2-5.3c-3-4.6-8.2-6.4-9.3-6.8L1178.6,164.7L1178.6,164.7z"/>
		<path class="st25" d="M1178.6,164.7c-0.3,1.2-0.4,5.7,0.8,7.7c1.2,2,5.8,4.1,8,6.2c-0.5-2.2-1.1-2.9-0.8-4.8
			c0.2-1.9,0.2-2.1-0.1-3.1c-0.3-1-2.2-3.1-4.1-4.7c-2-1.7-2.5-1.9-2.5-1.9L1178.6,164.7z"/>
		<path class="st26" d="M1178.6,164.7c-0.1,1.5,0.3,5.6,1.6,6.6c1.3,1.1,2.3,0.7,4.5,2.3c0-0.9-1.3-2.3-0.9-3.2
			c0.5,0.5,0.7,0.8,1.4,1c-0.6-0.8-0.6-1.8-1.1-2.9c-0.6-1.3-1.9-2.1-2.9-2.9c-1-0.9-1.4-1.6-1.4-1.6L1178.6,164.7L1178.6,164.7z"/>
		<path class="st27" d="M1179.4,165.3c-2.2,1.2-4.2,1.7-4.5,1.1l0.6,1.1c0.3,0.6,2.4,0.1,4.5-1.1c2.2-1.2,3.6-2.7,3.3-3.3l-0.6-1.1
			C1183,162.6,1181.5,164.1,1179.4,165.3z"/>
		<path class="st27" d="M1180.1,166.6c-1.6,0.9-3.2,1.3-3.4,0.8l0.5,0.8c0.3,0.5,1.8,0.1,3.4-0.8c1.6-0.9,2.7-2,2.5-2.5l-0.5-0.8
			C1182.9,164.6,1181.7,165.7,1180.1,166.6z"/>
		<path class="st28" d="M1168,152.1c0.4,2.7,1.5,6.3,3.9,10.5c1.3,2.2,2.2,3.9,2.2,3.9s3.3-0.6,5-1.6s4-3.4,4-3.4s-0.9-1.7-2.2-4
			c-2.3-4.1-4.9-6.9-7.1-8.7c-0.7,0.7-1.6,1.4-2.7,2C1170.1,151.4,1169,151.8,1168,152.1L1168,152.1z"/>
		<path class="st29" d="M1168.6,146.2c-0.5,0.3-1.1,2.4-0.6,5.9c1-0.3,2.1-0.7,3.2-1.3s2-1.3,2.7-2
			C1171.2,146.6,1169.1,145.9,1168.6,146.2L1168.6,146.2z"/>
		<path class="st27" d="M1178.5,163.8c-2.5,1.4-4.9,2-5.3,1.3l0.7,1.3c0.4,0.7,2.8,0.1,5.3-1.3c2.5-1.4,4.2-3.1,3.8-3.8l-0.7-1.3
			C1182.7,160.7,1181,162.4,1178.5,163.8z"/>
		<path class="st30" d="M1182.7,162.4c-0.2,0.3-0.6,0.6-1,1c0,0.1,0.1,0.1,0.1,0.2C1182.2,163.2,1182.6,162.7,1182.7,162.4z
			 M1182.6,164.5c-0.1,0.1-0.2,0.2-0.3,0.2v0.1C1182.5,164.7,1182.5,164.6,1182.6,164.5z"/>
		<path class="st31" d="M1181.8,163.6l0.6,1.2c0.1-0.1,0.2-0.2,0.3-0.2c0.1-0.2,0.1-0.3,0-0.4l0.1,0.2c0.5-0.5,0.7-1,0.6-1.3
			l-0.5-0.9c0,0.1-0.1,0.1-0.1,0.2C1182.6,162.7,1182.2,163.2,1181.8,163.6z"/>
		<path class="st31" d="M1182.6,164.5c0,0.1-0.1,0.2-0.2,0.3c0.1,0.3,0.3,0.6,0.4,0.9c0.3-0.3,0.4-0.6,0.3-0.8l-0.3-0.6l-0.1-0.2
			C1182.7,164.2,1182.7,164.4,1182.6,164.5L1182.6,164.5z"/>
		<path class="st32" d="M1180,160.3c0.3,0.6,0.7,1.2,1,1.8c0.9-0.8,1.5-1.6,1.4-2c-0.4-0.7-0.8-1.6-1.4-2.6
			c-2.3-4.1-4.9-6.9-7.1-8.7c-0.4,0.4-0.8,0.7-1.3,1.1C1175,152.5,1177.7,156.1,1180,160.3z"/>
		<path class="st33" d="M1173.9,148.8c-2.7-2.2-4.8-2.9-5.3-2.6c-0.1,0-0.1,0.1-0.2,0.2c1.2,0.7,2.7,1.9,4.2,3.5
			C1173.1,149.5,1173.5,149.2,1173.9,148.8L1173.9,148.8z"/>
		<path class="st31" d="M1181,162.1c0.2,0.4,0.5,0.9,0.7,1.3c0.4-0.3,0.7-0.7,1-1c0.1-0.1,0.1-0.1,0.1-0.2c0.2-0.3,0.3-0.5,0.3-0.7
			c0-0.1,0-0.2-0.1-0.2l-0.7-1.3v0.1C1182.5,160.5,1182,161.3,1181,162.1L1181,162.1z"/>
		<g>
			<path class="st34" d="M1138.1,142.1c-0.7-1.1-2.5-3.2-4.8-1.3c-2.2,2,1.3,4.3,1.3,4.3L1138.1,142.1z"/>
		</g>
		<path class="st35" d="M1165.6,170.3c-0.3-0.2-1.5,4.1-1.5,4.1c0.5,0,1.3-0.2,1.9-0.4l-0.3,1.2c-0.5,2.4,0.1,4.5,1.4,4.8
			c0.9,0.2,1.2-2,1.6-4.2c0.2-1.1,0.5-2.1,0.7-2.9l0.3-1.4c0,0-0.4-0.6-2.4-0.2C1166.8,171.4,1165.9,170.4,1165.6,170.3
			L1165.6,170.3z"/>
		<g>
			<path class="st36" d="M1170.7,163.9c1.9,0.1,2.7,0.4,3.3,0.8c0.4,0.4,0.7,0.7,1,1.1c0.6,0.8,1.2,1.5,1.7,2.3s0.8,1.6,1.1,2.4
				c0.2,0.4,0.3,0.8,0.4,1.2c0,0.2,0.2,0.4,0.1,0.6c-0.1,0.2-0.5,0.5-1.4,0.9l-20.9,3.3c-1.1,0-1.5-0.2-1.6-0.4s0-0.4-0.1-0.6v-1.3
				c0-0.9,0.1-1.7,0.3-2.6c0.2-0.9,0.5-1.8,0.9-2.7c0.2-0.5,0.4-0.9,0.6-1.4c0.4-0.5,1.1-1,2.9-1.7L1170.7,163.9L1170.7,163.9z"/>
		</g>
		<path class="st34" d="M1172.8,169.5c-0.3,0.1,1.2,2.5,1.2,2.5c0.8,0,1.3,0,1.8-0.4c0.2,0.3,0.4,0.7,0.6,1c1.4,2,3.4,3,4.5,2.2
			c0.7-0.5-0.7-2.2-2-4c-0.7-0.9-1.2-1.8-1.7-2.5l-0.8-1.1c0,0-0.7-0.1-1.7,1.6C1174.5,169.3,1173.2,169.4,1172.8,169.5z"/>
		<g>
			<path class="st37" d="M1174.7,159.8c1.8-0.7,2.7-0.8,3.3-0.7c0.5,0.2,0.9,0.4,1.4,0.6c0.9,0.4,1.7,0.9,2.5,1.4
				c0.7,0.5,1.4,1.1,2,1.7l0.9,0.9c0.1,0.2,0.3,0.3,0.4,0.5c0,0.2-0.2,0.6-0.9,1.4l-17.5,11.8c-1,0.4-1.4,0.5-1.7,0.4
				c-0.2-0.1-0.2-0.4-0.3-0.5c-0.2-0.4-0.4-0.8-0.5-1.2c-0.3-0.8-0.6-1.6-0.8-2.5c-0.2-0.9-0.3-1.8-0.4-2.8v-1.5
				c0.2-0.6,0.6-1.4,1.9-2.8L1174.7,159.8L1174.7,159.8z"/>
		</g>
		<g>
			<path class="st37" d="M1158.6,156.9c0.1,1.4,0,1.8-0.1,2.1s-0.3,0.6-0.4,0.9c-0.3,0.5-0.7,0.9-1.1,1.2s-0.8,0.5-1.2,0.6
				c-0.4,0.1-0.8,0.2-1.3,0.2h-2.4c-0.8-0.1-1.5-0.1-2.3-0.2c-3.1-0.5-5.9-1.4-8.5-2.6c-2.6-1.3-5-2.8-7-4.8c-1-1-2-2.1-2.9-3.3
				c-0.5-0.6-1-1.2-1.1-2.2c0-0.2-0.1-0.5-0.1-0.7v-0.8c0-0.3,0.2-0.7,0.4-1.1l0.4-0.6c0-0.1,0.1-0.1,0.1-0.2l0.3-0.2l0.1-0.1
				l0.2-0.1l0.3-0.2c0.1-0.1,0.2-0.1,0.4-0.2l0.5-0.3l5.4-2.6l1.6-0.7l0.3-0.1l0.2-0.1l0.7-0.2l0.8-0.3c0.3-0.1,0.7-0.1,0.9-0.1
				c0.5,0,0.7,0.4,1,0.6l1.9,1.9c1.3,1.3,2.6,2.8,3.9,4.1c1.3,1.4,2.6,2.7,4,3.8l1,0.8c0.3,0.2,0.7,0.4,1.1,0.6
				c0.2,0.1,0.3,0.1,0.5,0.3s0.4,0.4,0.6,0.7c0.2,0.2,0.4,0.6,0.7,1c0.1,0.2,0.3,0.5,0.4,0.8S1158.2,155.5,1158.6,156.9
				L1158.6,156.9z"/>
		</g>
		<ellipse class="st38" cx="1158.1" cy="146.5" rx="9.5" ry="9.5"/>
		<path class="st38" d="M1157.6,169.2l1.2,2.5c1.2,2.5,5.7,0.7,11.1-1.9c4.7-2.2,10.3-4.6,8.7-8.1c-3.7-9.4-9.8-15.9-17.7-12.1
			c-7.8,3.7-7.4,10.1-4.8,16.5v0.1l0.2,0.4C1156.7,167.5,1157.1,168.3,1157.6,169.2L1157.6,169.2z"/>
		<path class="st39" d="M1157.1,161.2c0.9-0.6,1.2-2.1,2.3-3.2c1.5-1.5,1.5-3.3,1.6-2.5s0.8,1,0.8,0.9s-0.2,0.2-0.3-1
			c-0.2-1.2,1.1-2.1,1.6-4.4c0.1-0.6,0.3-1.8,0.3-2.5c0.2,0.3,0.3,0.6,0.4,0.9c0.2-7.3-3.4-10.6-3.8-10.7c0.2,0,0.7,0,1.2,0.3
			c-1.4-1.9-2.9-1.8-3.1-1.8c0.2-0.3,0.7-0.5,1-0.5c-0.9-0.8-1.7-1.2-2.8-1c-0.6,0.1-0.8,0.8-0.8,0.8c0.1-0.5-0.3-1.9-1.9-2.1
			c1.3,2,0.9,1.7,0.8,1.8c0,0.1-1.4-0.8-2.5-0.6c0.3,0.1,0.6,0.3,0.7,0.5c-1.2-0.2-2.6-0.6-4.5,1.5c0.9-0.2,1.3,0,1.7,0.1
			c-0.3,0.2-3.8,2.4-3.9,7c0.2-0.1,1-1,1.1-0.9c-0.6,0.7-2.4,3.2,0.8,10.4c0-0.4,0-1.4,0.2-1.4c-0.1,0.8,1,2.7,3.4,4.1
			C1154.9,158.7,1156.5,159.8,1157.1,161.2L1157.1,161.2z"/>
		<path class="st34" d="M1148.8,148.4c-0.8-3.6,0.7-7,3.3-7.6c2.6-0.6,5.3,1.8,6.1,5.4c0.5,2.1,0.2,4.1-0.6,5.6
			c-0.9,1.6-1.6,3-1.4,4.4c-0.9-1.8-2.3-2.1-4.1-3.1C1150.6,152.3,1149.3,150.5,1148.8,148.4L1148.8,148.4z"/>
		<g>
			<path class="st40" d="M1148.6,147.4c0.5,3.5,2.8,6.2,5.5,5.8s5.1-3.8,4.5-7.4c-0.5-3.5-3.2-6-5.9-5.6
				C1150.1,140.6,1148,143.9,1148.6,147.4z"/>
			<path class="st41" d="M1151.9,146.1c-0.3-0.1-0.7-0.2-1-0.2s-0.7,0-1.1,0.1c0.2-0.3,0.6-0.5,1-0.6s0.7-0.2,1.2-0.3L1151.9,146.1z
				 M1153.2,144.9c0.4-0.1,0.8-0.1,1.2-0.1c0.4,0,0.8,0.1,1.1,0.3c-0.4,0-0.7,0.1-1.1,0.2c-0.3,0.1-0.6,0.3-0.9,0.5L1153.2,144.9
				L1153.2,144.9z"/>
			<path class="st42" d="M1153.6,145.8h1.1l-0.9,0.7L1153.6,145.8z M1151.9,146.7c-0.4-0.2-0.8-0.4-1.3-0.5c0.5-0.1,0.9-0.1,1.4-0.2
				L1151.9,146.7z"/>
			<path class="st43" d="M1153.9,147.4c0.3,0.3,0.3,0.8,0.1,1.2c-0.2,0.4-0.7,0.6-1.1,0.7c-0.4,0.1-1-0.1-1.2-0.5
				c-0.3-0.4-0.3-0.8-0.1-1.2c0,0.4,0.3,0.6,0.5,0.8s0.5,0.2,0.8,0.2s0.6-0.1,0.8-0.3C1153.8,148.1,1154,147.8,1153.9,147.4
				L1153.9,147.4z"/>
			<path class="st42" d="M1154.7,150.1c0.3,0.3,0.3,0.7,0.1,1.1c-0.1,0.2-0.2,0.4-0.4,0.4c-0.2,0.1-0.4,0.1-0.6,0.1
				c-0.4,0-0.7-0.1-1-0.3s-0.5-0.4-0.6-0.7c0.3,0.1,0.5,0.1,0.7,0s0.4-0.1,0.6-0.3l0.2-0.2h0.2
				C1154.2,150.4,1154.5,150.4,1154.7,150.1L1154.7,150.1z"/>
			<path class="st44" d="M1153.7,140.2c-0.6-0.1-1.4,0.1-2.1,0.3c-1.7,0.7-2.6,2.8-2.8,3.4c0.4-0.3,1-0.4,1.5-0.2
				c0.1,0,0.2,0.1,0.3,0.1l0.5-1.8l0.4,2c3,0.6,5.7-2.3,6.6-0.1C1157.2,141.8,1155.5,140.3,1153.7,140.2"/>
		</g>
		<g>
			<path class="st34" d="M1183.4,158.8c1.2,0,3.9-0.4,3.5-3.2s-1.5-1.6-2-1.3c-1.1,0.5-2,0.2-2,0.2L1183.4,158.8z"/>
			<path class="st37" d="M1165.4,152.3l0.5-0.7l0.4-0.5c0.2-0.2,0.4-0.4,0.4-0.5l0.7-0.6c0.4-0.3,0.7-0.5,1-0.7
				c0.3-0.1,0.6-0.3,0.8-0.3c0.2-0.1,0.4-0.1,0.6,0c0.4,0.1,0.7,0.1,1.1,0.1h1.1c1.4,0,2.8-0.3,4-0.4c1.2-0.1,2.4-0.4,3.6-0.4
				c0.6,0,1.2,0,1.8,0.1c0.3,0,0.6-0.1,1,0.3c0.2,0.2,0.4,0.4,0.6,0.8c0.1,0.1,0.1,0.2,0.2,0.3l0.2,0.5l0.2,0.7c0,0.1,0,0.1,0.1,0.2
				l0.1,0.5l0.1,0.5l0.2,1l0.8,5.9l0.1,0.6v1.7l-0.1,0.7l-0.1,0.5c0,0.2-0.1,0.2-0.1,0.4c-0.2,0.4-0.4,0.7-0.7,0.9
				c-0.5,0.5-1,0.5-1.5,0.5c-1,0.1-2.1,0.2-3.2,0.2c-2.1-0.1-4.3-0.6-6.2-1.5c-2-0.8-3.8-2-5.4-3.3c-0.8-0.6-1.6-1.3-2.3-2
				c-0.4-0.3-0.7-0.8-0.8-1.5c-0.1-0.3-0.1-0.8-0.1-1.3c0-0.3,0.1-0.6,0.1-0.9c0-0.1,0.1-0.4,0.2-0.6l0.2-0.6L1165.4,152.3
				L1165.4,152.3z"/>
		</g>
	</g>
	<path class="st45" d="M1133.8,144.4c0,0.2-0.1,0.3-0.1,0.5s0,0.4,0.1,0.7c0.1,0.5,0.3,1,0.7,1.5c0.3,0.5,0.8,1,1.2,1.6
		c0.2,0.3,0.5,0.6,0.7,0.9c0.3,0.3,0.5,0.6,0.8,0.9c0.6,0.6,1.2,1.2,1.9,1.8c0.7,0.6,1.4,1.1,2.2,1.7c0.8,0.5,1.6,1.1,2.4,1.5
		c0.8,0.5,1.7,0.9,2.5,1.3c0.4,0.2,0.9,0.4,1.3,0.6c0.4,0.2,0.9,0.3,1.3,0.5c0.9,0.3,1.7,0.5,2.6,0.7c0.4,0.1,0.8,0.2,1.2,0.2
		c0.4,0.1,0.8,0.1,1.2,0.2h0.6c0,2.3,0.7,4.8,1.7,7.3v0.1l0.2,0.4c0.4,0.8,0.8,1.7,1.2,2.6l1.2,2.5c0.5,1,1.4,1.3,2.8,1.2
		c0,0.4,0.1,0.8,0.1,1.1c0,0.2,0,0.5,0.1,0.6c0,0.2,0.1,0.4,0.2,0.5s0.3,0.2,0.4,0.3s0.2,0.1,0.2,0.1l3.3-0.5v0.1
		c-0.5,2.4,0.1,4.5,1.4,4.8c0.9,0.2,1.2-2,1.6-4.2l0.3-1.2l1.6-0.3c0,0,0.1-0.1,0.2-0.1l0.1-0.1c0.1,1.2,0.4,2.2,0.8,3.1
		c2.1,4.6,8.6,7.9,11.6,9c-2.1-2.8-3.1-5-2.6-6.6c0.1-0.5,1.1,1.3,2.8,1.6c0-0.1,0-0.1-0.1-0.2c2.6,2,5.6,3.5,7.3,4.1
		c-2.1-2.8-3.1-5-2.6-6.6c0.1-0.5,1.1,1.3,2.8,1.6c-0.6-1.9-0.5-2.4-0.5-3.8s-0.3-3.9-1.2-5.3c-1.7-2.6-4.1-4.3-6-5.4
		c0.1-0.2,0.2-0.4,0.1-0.5l-0.3-0.6c0.5-0.5,0.7-1,0.6-1.3l-0.5-0.9c0.2-0.3,0.3-0.5,0.3-0.7c0-0.1,0-0.2-0.1-0.2l-0.7-1.3v0.1v-0.1
		c-0.1-0.1-0.1-0.3-0.2-0.4c0.2,0,0.4,0,0.6-0.1c0.4-0.1,0.8-0.2,1-0.4c0.1-0.1,0.3-0.2,0.4-0.3v-0.1c1.3-0.2,3.1-0.8,2.7-3.2
		c-0.4-2.8-1.5-1.6-2-1.3c-0.3,0.1-0.6,0.2-0.8,0.3c-0.1-0.3-0.1-0.3-0.2-0.4c-0.1-0.1-0.2-0.3-0.3-0.3c-0.1-0.1-0.2-0.1-0.4-0.2
		c-0.3-0.1-0.6-0.2-0.9-0.2h-4c-1.5-1.9-3-3.4-4.3-4.5c-2.7-2.2-4.8-2.9-5.3-2.6c-0.3,0.2-0.7,1.2-0.8,2.8c-0.2,0-0.3-0.1-0.5-0.1
		c0.5-2.1,0.4-4.3-0.6-6.4c-1.6-3.4-5-5.4-8.6-5.5c0.2-0.2,0.6-0.3,0.9-0.3c-0.9-0.8-1.7-1.2-2.8-1c-0.6,0.1-0.8,0.8-0.8,0.8
		c0.1-0.5-0.3-1.9-1.9-2.1c1.3,2,0.9,1.7,0.8,1.8c0,0.1-1.4-0.8-2.5-0.6c0.3,0.1,0.6,0.3,0.7,0.5c-1.2-0.2-2.6-0.6-4.5,1.5
		c0.9-0.2,1.3,0,1.7,0.1c-0.3,0.2-3.8,2.4-3.9,7c0.2-0.1,1-1,1.1-0.9c-0.4,0.6-1.7,2.3-0.6,6.5c-0.5-0.4-0.9-0.7-1.3-1.1
		c-0.6-0.5-1.2-1.1-1.7-1.6s-1.1-1-1.6-1.5s-0.9-1-1.3-1.4s-0.7-0.9-1-1.2c-0.3-0.4-0.6-0.6-0.9-0.8c-0.2-0.1-0.3-0.2-0.4-0.2
		s-0.2,0-0.3-0.1l0.2-0.2c-0.7-1.1-2.5-3.2-4.8-1.3C1131.9,142.1,1133,143.5,1133.8,144.4L1133.8,144.4z M1180.7,164.4
		c-0.1,0-0.2-0.1-0.3-0.1c0.4-0.3,0.9-0.6,1.2-0.9c0,0.1,0.1,0.1,0.1,0.2C1181.5,163.9,1181.1,164.1,1180.7,164.4L1180.7,164.4z
		 M1177.3,166c0.4-0.2,0.8-0.3,1.2-0.5v0.3c-0.3,0.2-0.7,0.3-1,0.4C1177.4,166.2,1177.3,166.1,1177.3,166z M1178.3,167.2
		C1178.3,167.2,1178.3,167.3,1178.3,167.2C1178.3,167.3,1178.3,167.3,1178.3,167.2z M1182.2,165.1c0,0-0.1,0-0.1-0.1l0.3-0.3v0.1
		C1182.3,164.9,1182.3,165,1182.2,165.1L1182.2,165.1z"/>
</g>
</svg>
