<?xml version="1.0" encoding="utf-8"?>
<!-- Generator: Adobe Illustrator 22.0.1, SVG Export Plug-In . SVG Version: 6.00 Build 0)  -->
<svg version="1.1" id="Layer_1" xmlns="http://www.w3.org/2000/svg" xmlns:xlink="http://www.w3.org/1999/xlink" x="0px" y="0px"
	 viewBox="0 0 48 48" style="enable-background:new 0 0 48 48;" xml:space="preserve">
<style type="text/css">
	.st0{fill:#FFFFFF;}
</style>
<path class="st0" d="M43.7,0H4.3C1.9,0,0,1.9,0,4.3v39.3C0,46.1,1.9,48,4.3,48h39.3c2.4,0,4.3-1.9,4.3-4.3V4.3C48,1.9,46.1,0,43.7,0
	z M14.9,41.4c0,0.7-0.6,1.3-1.3,1.3H8.2c-0.7,0-1.3-0.6-1.3-1.3V18.9c0-0.7,0.6-1.3,1.3-1.3h5.4c0.7,0,1.3,0.6,1.3,1.3V41.4z
	 M10.9,15.5c-2.8,0-5.1-2.3-5.1-5.1s2.3-5.1,5.1-5.1S16,7.6,16,10.4S13.7,15.5,10.9,15.5z M43,41.5c0,0.6-0.5,1.2-1.2,1.2H36
	c-0.6,0-1.2-0.5-1.2-1.2V31c0-1.6,0.5-6.9-4.1-6.9c-3.6,0-4.3,3.7-4.4,5.3v12.2c0,0.6-0.5,1.2-1.2,1.2h-5.6c-0.6,0-1.2-0.5-1.2-1.2
	V18.8c0-0.6,0.5-1.2,1.2-1.2h5.6c0.6,0,1.2,0.5,1.2,1.2v2c1.3-2,3.3-3.5,7.5-3.5c9.2,0,9.2,8.6,9.2,13.4L43,41.5L43,41.5z"/>
</svg>
