<?xml version="1.0" encoding="utf-8"?>
<!-- Generator: Adobe Illustrator 22.0.1, SVG Export Plug-In . SVG Version: 6.00 Build 0)  -->
<svg version="1.1" id="Layer_1" xmlns="http://www.w3.org/2000/svg" xmlns:xlink="http://www.w3.org/1999/xlink" x="0px" y="0px"
	 viewBox="0 0 48 48" style="enable-background:new 0 0 48 48;" xml:space="preserve">
<style type="text/css">
	.st0{fill:#FCFCFC;}
</style>
<path class="st0" d="M13.9,0h20.2C41.8,0,48,6.2,48,13.9v20.2C48,41.8,41.8,48,34.1,48H13.9C6.2,48,0,41.8,0,34.1V13.9
	C0,6.2,6.2,0,13.9,0 M13.4,4.8c-4.8,0-8.6,3.9-8.6,8.6l0,0v21.1c0,4.8,3.9,8.6,8.6,8.6h21.1c4.8,0,8.6-3.9,8.6-8.6v0V13.4
	c0-4.8-3.9-8.6-8.6-8.6H13.4 M36.6,8.4c1.7,0,3,1.3,3,3s-1.3,3-3,3s-3-1.3-3-3S34.9,8.4,36.6,8.4 M24,12c6.6,0,12,5.4,12,12
	s-5.4,12-12,12s-12-5.4-12-12S17.4,12,24,12 M24,16.8c-4,0-7.2,3.2-7.2,7.2s3.2,7.2,7.2,7.2s7.2-3.2,7.2-7.2S28,16.8,24,16.8z"/>
</svg>
