<svg xmlns="http://www.w3.org/2000/svg" viewBox="0 0 48 48"><path d="M13.9 0h20.2C41.8 0 48 6.2 48 13.9v20.2C48 41.8 41.8 48 34.1 48H13.9C6.2 48 0 41.8 0 34.1V13.9C0 6.2 6.2 0 13.9 0m-.5 4.8c-4.8 0-8.6 3.9-8.6 8.6v21.1c0 4.8 3.9 8.6 8.6 8.6h21.1c4.8 0 8.6-3.9 8.6-8.6V13.4c0-4.8-3.9-8.6-8.6-8.6H13.4m23.2 3.6c1.7 0 3 1.3 3 3s-1.3 3-3 3-3-1.3-3-3 1.3-3 3-3M24 12c6.6 0 12 5.4 12 12s-5.4 12-12 12-12-5.4-12-12 5.4-12 12-12m0 4.8c-4 0-7.2 3.2-7.2 7.2s3.2 7.2 7.2 7.2 7.2-3.2 7.2-7.2-3.2-7.2-7.2-7.2z" fill="#fcfcfc"/></svg>