<svg id="Layer_1" xmlns="http://www.w3.org/2000/svg" viewBox="0 0 1919.2 1072.9"><style>.st15{fill:#fff}</style><path fill="#2096d4" d="M0 .8h1919.2v1072.9H0z"/><linearGradient id="SVGID_1_" gradientUnits="userSpaceOnUse" x1="1228.496" y1="803.476" x2="1228.496" y2="708.045" gradientTransform="translate(-239.003 191.787)"><stop offset="0" stop-color="#2096d4"/><stop offset="1" stop-color="#2096d4" stop-opacity="0"/></linearGradient><path fill="url(#SVGID_1_)" d="M961.1 896.8h56.8v107.7h-56.8z"/><path class="st15" d="M933.5 276c1.5 0 2.7 1.2 2.7 2.7s-1.2 2.7-2.7 2.7-2.7-1.2-2.7-2.7 1.2-2.7 2.7-2.7m0-2c-2.6 0-4.7 2.1-4.7 4.7s2.1 4.7 4.7 4.7 4.7-2.1 4.7-4.7c0-2.5-2.1-4.7-4.7-4.7zm-276.9 8.8v-14.1h-4.8V267h11.5v1.7h-4.8v14.1h-1.9zm9.6 0v-15.7h2v6.6h7.3v-6.6h2v15.7h-2v-7.4h-7.3v7.4h-2zm15.7 0v-15.7h9.1v1.7h-7.1v4.9h6v1.7h-6v5.7h7.3v1.7h-9.3zm17.4 0v-15.7h4.7c.8 0 1.5.1 2.2.2.7.1 1.2.4 1.7.7.5.3.8.7 1.1 1.2.3.5.4 1.1.4 1.8 0 .8-.2 1.5-.6 2.1-.4.6-1 1.1-1.7 1.3v.1c1 .2 1.7.6 2.3 1.2s.9 1.5.9 2.6c0 .8-.1 1.4-.4 2-.3.6-.7 1.1-1.2 1.4-.5.4-1.2.7-1.9.9-.7.2-1.5.3-2.4.3h-5.1zm2-9h2.3c1.3 0 2.3-.2 2.9-.7.6-.5.9-1.1.9-1.9 0-.9-.3-1.6-.9-1.9-.6-.4-1.5-.6-2.8-.6h-2.4v5.1zm0 7.4h2.7c1.4 0 2.4-.3 3.2-.8.8-.5 1.1-1.3 1.1-2.3 0-1-.4-1.7-1.1-2.1-.7-.5-1.8-.7-3.2-.7h-2.7v5.9zm12.1 1.6v-15.7h9.1v1.7h-7.1v4.9h6v1.7h-6v5.7h7.3v1.7h-9.3zm18.9.3c-1 0-2-.2-2.9-.6-.9-.4-1.6-.9-2.2-1.6-.6-.7-1.1-1.6-1.5-2.6-.4-1-.5-2.2-.5-3.4 0-1.3.2-2.4.5-3.4.4-1 .9-1.9 1.5-2.6.6-.7 1.4-1.2 2.3-1.6.9-.4 1.9-.6 2.9-.6.5 0 1 .1 1.5.2s.9.3 1.2.4c.4.2.7.4 1 .6s.6.5.8.7l-1.1 1.3c-.4-.4-.9-.8-1.4-1.1-.5-.3-1.2-.4-2-.4s-1.5.1-2.2.4c-.6.3-1.2.7-1.6 1.3s-.8 1.2-1 2c-.2.8-.4 1.7-.4 2.6 0 1 .1 1.9.3 2.7.2.8.6 1.5 1 2 .4.6 1 1 1.6 1.3.6.3 1.4.5 2.2.5.6 0 1.1-.1 1.6-.3s.9-.4 1.2-.7v-4.1h-3.3v-1.7h5.2v6.6c-.5.5-1.2 1-2 1.3-.7.6-1.7.8-2.7.8zm8.6-.3v-15.7h2v15.7h-2zm6.3 0v-15.7h2.1l5.7 9.9 1.7 3.3h.1c0-.8-.1-1.6-.2-2.5-.1-.9-.1-1.7-.1-2.5v-8.1h1.9v15.7h-2.1l-5.7-9.9-1.7-3.2h-.1c.1.8.1 1.6.2 2.4.1.8.1 1.7.1 2.5v8.2h-1.9zm15.5 0v-15.7h2.1l5.7 9.9 1.7 3.3h.1c0-.8-.1-1.6-.2-2.5-.1-.9-.1-1.7-.1-2.5v-8.1h1.9v15.7h-2.1l-5.7-9.9-1.7-3.2h-.1c.1.8.1 1.6.2 2.4.1.8.1 1.7.1 2.5v8.2h-1.9zm15.5 0v-15.7h2v15.7h-2zm6.3 0v-15.7h2.1l5.7 9.9 1.7 3.3h.1c0-.8-.1-1.6-.2-2.5-.1-.9-.1-1.7-.1-2.5v-8.1h1.9v15.7h-2.1l-5.7-9.9-1.7-3.2h-.1c.1.8.1 1.6.2 2.4.1.8.1 1.7.1 2.5v8.2h-1.9zm21.8.3c-1 0-2-.2-2.9-.6-.9-.4-1.6-.9-2.2-1.6-.6-.7-1.1-1.6-1.5-2.6-.4-1-.5-2.2-.5-3.4 0-1.3.2-2.4.5-3.4.4-1 .9-1.9 1.5-2.6s1.4-1.2 2.3-1.6c.9-.4 1.9-.6 2.9-.6.5 0 1 .1 1.5.2s.9.3 1.2.4c.4.2.7.4 1 .6.3.2.6.5.8.7l-1.1 1.3c-.4-.4-.9-.8-1.4-1.1-.5-.3-1.2-.4-2-.4s-1.5.1-2.2.4c-.6.3-1.2.7-1.6 1.3-.4.6-.8 1.2-1 2-.2.8-.4 1.7-.4 2.6 0 1 .1 1.9.3 2.7.2.8.6 1.5 1 2 .4.6 1 1 1.6 1.3.6.3 1.4.5 2.2.5.6 0 1.1-.1 1.6-.3s.9-.4 1.2-.7v-4.1H806v-1.7h5.2v6.6c-.5.5-1.2 1-2 1.3-.9.6-1.9.8-2.9.8zm19.2 0c-1 0-1.9-.2-2.7-.6s-1.5-.9-2.1-1.6c-.6-.7-1.1-1.6-1.4-2.6s-.5-2.2-.5-3.4c0-1.3.2-2.4.5-3.4s.8-1.8 1.4-2.5c.6-.7 1.3-1.2 2.1-1.6.8-.4 1.7-.6 2.7-.6s1.9.2 2.7.6 1.5.9 2.1 1.6c.6.7 1.1 1.5 1.4 2.5.3 1 .5 2.1.5 3.4 0 1.3-.2 2.4-.5 3.4s-.8 1.9-1.4 2.6-1.3 1.3-2.1 1.6-1.7.6-2.7.6zm0-1.8c.7 0 1.3-.2 1.9-.5s1.1-.7 1.5-1.3.7-1.2.9-2 .3-1.7.3-2.7c0-1-.1-1.9-.3-2.6-.2-.8-.5-1.4-.9-2-.4-.5-.9-1-1.5-1.3s-1.2-.4-1.9-.4-1.3.1-1.9.4c-.6.3-1.1.7-1.5 1.3-.4.5-.7 1.2-.9 2-.2.8-.3 1.7-.3 2.6 0 1 .1 1.9.3 2.7.2.8.5 1.5.9 2s.9 1 1.5 1.3c.6.4 1.2.5 1.9.5zm10.1 1.5v-15.7h9.1v1.7h-7.1v5.3h6v1.7h-6v7.1h-2zm16.7 0v-15.7h2v15.7h-2zm12.5.3c-1 0-2-.2-2.9-.6-.9-.4-1.6-.9-2.2-1.6-.6-.7-1.1-1.6-1.5-2.6-.4-1-.5-2.2-.5-3.4 0-1.3.2-2.4.5-3.4.4-1 .9-1.9 1.5-2.6.6-.7 1.4-1.2 2.3-1.6s1.9-.6 2.9-.6c.5 0 1 .1 1.5.2s.9.3 1.2.4c.4.2.7.4 1 .6.3.2.6.5.8.7l-1.1 1.3c-.4-.4-.9-.8-1.4-1.1-.5-.3-1.2-.4-2-.4s-1.5.1-2.2.4c-.6.3-1.2.7-1.6 1.3-.4.6-.8 1.2-1 2-.2.8-.4 1.7-.4 2.6 0 1 .1 1.9.3 2.7.2.8.6 1.5 1 2s1 1 1.6 1.3 1.4.5 2.2.5c.6 0 1.1-.1 1.6-.3s.9-.4 1.2-.7v-4.1h-3.3v-1.7h5.2v6.6c-.5.5-1.2 1-2 1.3-.7.6-1.7.8-2.7.8zm8.6-.3v-15.7h2v14h6.9v1.7h-8.9zm16.6.3c-.8 0-1.5-.1-2.2-.3s-1.3-.6-1.8-1.2-.9-1.2-1.2-2.1c-.3-.9-.4-1.9-.4-3.2v-9.2h2v9.3c0 .9.1 1.7.3 2.4.2.6.5 1.2.8 1.5s.7.7 1.2.8c.4.2.9.3 1.4.3.5 0 1-.1 1.5-.3s.8-.4 1.2-.8.6-.9.8-1.5c.2-.6.3-1.4.3-2.4v-9.3h1.9v9.2c0 1.3-.1 2.3-.4 3.2s-.7 1.6-1.2 2.1-1.1.9-1.8 1.2c-.9.2-1.6.3-2.4.3zm-237.2-26.2v-11.8h1.8l2.3 6.3c.1.4.3.8.4 1.2s.3.8.4 1.2h.1c.1-.4.3-.8.4-1.2s.3-.8.4-1.2l2.2-6.3h1.8v11.8h-1.4v-6.5c0-.5 0-1.1.1-1.7 0-.6.1-1.2.1-1.7h-.1l-.9 2.7-2.2 6.1h-1l-2.2-6.1-.9-2.7h-.1c0 .5.1 1.1.1 1.7 0 .6.1 1.2.1 1.7v6.5h-1.4zm15 .2c-.7 0-1.3-.2-1.8-.6-.5-.4-.7-1-.7-1.8 0-1 .4-1.7 1.3-2.2.9-.5 2.2-.9 4.1-1.1 0-.3 0-.5-.1-.8-.1-.3-.1-.5-.3-.7-.1-.2-.3-.4-.5-.5s-.5-.2-.9-.2c-.5 0-1 .1-1.4.3l-1.2.6-.6-1c.4-.3.9-.5 1.5-.8.6-.2 1.2-.4 1.9-.4 1.1 0 1.8.3 2.3 1 .5.7.7 1.5.7 2.6v5.4h-1.2l-.1-1h-.1c-.4.3-.9.6-1.4.9-.5.2-1 .3-1.5.3zm.4-1.2c.4 0 .8-.1 1.2-.3s.8-.5 1.2-.9v-2.4c-.7.1-1.3.2-1.8.3-.5.1-.9.3-1.2.5-.3.2-.5.4-.7.6-.1.2-.2.5-.2.8 0 .5.2.9.5 1.1.2.2.6.3 1 .3zm6.6 1v-8.7h1.2l.1 1.6h.1c.3-.6.7-1 1.1-1.3.4-.3.9-.5 1.4-.5.3 0 .7.1.9.2l-.3 1.3c-.1 0-.3-.1-.4-.1h-.5c-.4 0-.8.2-1.2.5-.4.3-.8.8-1.1 1.6v5.6h-1.3zm9.5.2c-.6 0-1.1-.1-1.6-.3-.5-.2-.9-.5-1.3-.9s-.7-.9-.9-1.4-.3-1.2-.3-1.9.1-1.4.3-2c.2-.6.5-1.1.9-1.4.4-.4.8-.7 1.3-.9s1-.3 1.6-.3c.6 0 1.1.1 1.5.3.4.2.8.4 1.1.7l-.8 1c-.3-.2-.5-.4-.8-.6-.3-.1-.6-.2-.9-.2-.4 0-.8.1-1.1.2-.3.2-.6.4-.9.7-.2.3-.4.7-.6 1.1s-.2.9-.2 1.4.1 1 .2 1.4c.1.4.3.8.5 1.1s.5.5.9.7c.3.2.7.2 1.1.2.4 0 .8-.1 1.1-.3s.7-.4.9-.6l.6 1c-.4.3-.8.6-1.3.8s-.7.2-1.3.2zm4.8-.2v-12.8h1.5v3.5l-.1 1.8c.4-.4.9-.7 1.3-1 .5-.3 1-.4 1.6-.4.9 0 1.6.3 2 .9s.6 1.4.6 2.6v5.5h-1.5v-5.3c0-.8-.1-1.4-.4-1.8-.3-.4-.7-.5-1.3-.5-.5 0-.9.1-1.2.3-.3.2-.7.6-1.2 1v6.3h-1.3zm12.6 0v-.9l2.3-2.3c.7-.7 1.2-1.3 1.7-1.9.5-.6.8-1.1 1-1.6.2-.5.4-1 .4-1.4 0-.7-.2-1.2-.5-1.6-.4-.4-.9-.6-1.6-.6-.5 0-.9.1-1.3.4-.4.3-.8.6-1.1 1l-.8-.8c.5-.5 1-1 1.5-1.3.5-.3 1.2-.5 1.9-.5 1.1 0 1.9.3 2.5.9.6.6.9 1.4.9 2.5 0 .5-.1 1.1-.4 1.6-.2.5-.6 1.1-1 1.7-.4.6-.9 1.2-1.5 1.8s-1.2 1.3-1.9 2c.3 0 .6 0 1-.1h4.3v1.3h-7.4zm12.7.2c-1.2 0-2.1-.5-2.7-1.5-.6-1-1-2.5-1-4.4s.3-3.4 1-4.4c.6-1 1.6-1.5 2.7-1.5 1.2 0 2.1.5 2.7 1.5.6 1 1 2.5 1 4.4s-.3 3.4-1 4.4c-.6 1-1.5 1.5-2.7 1.5zm0-1.2c.3 0 .6-.1.9-.3.3-.2.5-.5.7-.9.2-.4.4-.9.5-1.5.1-.6.2-1.3.2-2.2s-.1-1.6-.2-2.2c-.1-.6-.3-1.1-.5-1.5-.2-.4-.4-.7-.7-.8-.3-.2-.6-.3-.9-.3s-.6.1-.9.3c-.3.2-.5.5-.7.8-.2.4-.4.9-.5 1.5-.1.6-.2 1.3-.2 2.2 0 1.7.2 2.9.6 3.7.5.8 1.1 1.2 1.7 1.2zm5.9 1v-1.2h2.6v-8.5h-2.1v-1c.5-.1 1-.2 1.4-.4.4-.1.7-.3 1.1-.5h1.1v10.3h2.4v1.2h-6.5zm11.8.2c-.5 0-.9 0-1.2-.1-.4-.1-.7-.2-1-.4-.3-.2-.6-.3-.8-.5-.2-.2-.5-.4-.7-.6l.8-1c.3.4.8.7 1.2 1 .5.3 1 .4 1.7.4s1.3-.2 1.7-.6c.4-.4.7-.9.7-1.5 0-.3-.1-.6-.2-.9-.1-.3-.3-.5-.6-.7s-.7-.4-1.1-.5c-.5-.1-1-.2-1.7-.2v-1.1c.6 0 1.1-.1 1.5-.2.4-.1.8-.3 1-.5.3-.2.4-.4.5-.7.1-.3.2-.5.2-.8 0-.6-.2-1-.5-1.3-.4-.3-.8-.5-1.4-.5-.5 0-.9.1-1.3.3-.4.2-.8.5-1.1.8l-.8-.9c.4-.4.9-.8 1.5-1 .5-.3 1.1-.4 1.8-.4.5 0 1 .1 1.4.2.4.1.8.3 1.1.6.3.2.5.5.7.9.2.4.3.8.3 1.2 0 .7-.2 1.3-.6 1.7-.4.4-.9.8-1.5 1v.1c.3.1.7.2 1 .4s.6.4.8.6c.2.2.4.5.5.9.1.3.2.7.2 1.1 0 .5-.1 1-.3 1.4s-.5.8-.8 1c-.3.3-.7.5-1.2.6-.8.1-1.3.2-1.8.2zM1018 382.9c1.5 0 2.7 1.2 2.7 2.7s-1.2 2.7-2.7 2.7-2.7-1.2-2.7-2.7 1.2-2.7 2.7-2.7m0-2c-2.6 0-4.7 2.1-4.7 4.7s2.1 4.7 4.7 4.7 4.7-2.1 4.7-4.7-2.1-4.7-4.7-4.7zm-84.9 109.6c1.5 0 2.7 1.2 2.7 2.7s-1.2 2.7-2.7 2.7-2.7-1.2-2.7-2.7 1.2-2.7 2.7-2.7m0-2c-2.6 0-4.7 2.1-4.7 4.7s2.1 4.7 4.7 4.7 4.7-2.1 4.7-4.7-2-4.7-4.7-4.7zm90.9 113.2c1.5 0 2.7 1.2 2.7 2.7s-1.2 2.7-2.7 2.7c-1.5 0-2.7-1.2-2.7-2.7s1.2-2.7 2.7-2.7m0-2c-2.6 0-4.7 2.1-4.7 4.7s2.1 4.7 4.7 4.7 4.7-2.1 4.7-4.7-2.1-4.7-4.7-4.7zm-64.5 178c1.5 0 2.7 1.2 2.7 2.7s-1.2 2.7-2.7 2.7-2.7-1.2-2.7-2.7 1.2-2.7 2.7-2.7m0-2c-2.6 0-4.7 2.1-4.7 4.7s2.1 4.7 4.7 4.7 4.7-2.1 4.7-4.7-2.1-4.7-4.7-4.7zm83.2 109.6c1.5 0 2.7 1.2 2.7 2.7s-1.2 2.7-2.7 2.7c-1.5 0-2.7-1.2-2.7-2.7s1.2-2.7 2.7-2.7m0-2c-2.6 0-4.7 2.1-4.7 4.7s2.1 4.7 4.7 4.7 4.7-2.1 4.7-4.7-2.1-4.7-4.7-4.7z"/><circle class="st15" cx="973" cy="171" r="4.7"/><path class="st15" d="M1055.3 390.3v-1.6h3.5v-11.3h-2.8v-1.3c.7-.1 1.3-.3 1.8-.5s1-.4 1.4-.7h1.5v13.7h3.2v1.6h-8.6zm15.1.3c-.8 0-1.6-.2-2.4-.5s-1.4-.7-2-1.2l1-1.3c.5.4 1 .8 1.6 1 .5.3 1.2.4 1.9.4.8 0 1.3-.2 1.7-.5.4-.4.6-.8.6-1.3 0-.3-.1-.6-.2-.8s-.4-.4-.6-.6c-.2-.2-.5-.3-.9-.4-.3-.1-.6-.3-1-.4-.4-.1-.8-.3-1.2-.5-.4-.2-.8-.4-1.1-.7-.3-.3-.6-.6-.8-.9-.2-.4-.3-.8-.3-1.3s.1-.9.3-1.3c.2-.4.4-.8.8-1.1.3-.3.8-.5 1.3-.7s1.1-.3 1.7-.3c.7 0 1.4.1 2 .4.6.3 1.1.6 1.6.9l-.9 1.2c-.4-.3-.8-.6-1.2-.7-.4-.2-.9-.3-1.4-.3-.7 0-1.3.2-1.6.5-.3.3-.5.7-.5 1.2 0 .3.1.5.2.7s.3.4.6.5c.2.2.5.3.8.4.3.1.6.2 1 .4s.8.3 1.3.5c.4.2.8.4 1.1.7.3.3.6.6.8 1 .2.4.3.8.3 1.4 0 .5-.1.9-.3 1.3-.2.4-.5.8-.8 1.1-.4.3-.8.6-1.3.8s-1.5.4-2.1.4zm10.2 0c-.6 0-1.1-.1-1.6-.3s-.8-.5-1-.8c-.3-.3-.5-.7-.6-1.2-.1-.5-.2-1-.2-1.6v-6.5h-1.7v-1.5l1.8-.1.2-3.3h1.7v3.3h3.1v1.6h-3.1v6.5c0 .7.1 1.3.4 1.7.3.4.7.6 1.4.6.2 0 .4 0 .7-.1.2-.1.5-.1.6-.2l.4 1.5c-.3.1-.7.2-1 .3-.4 0-.8.1-1.1.1zm9.4-.3v-15.7h3.9c2.4 0 4.3.7 5.5 2s1.9 3.3 1.9 5.8c0 1.2-.2 2.4-.5 3.3-.3 1-.8 1.8-1.4 2.5-.6.7-1.4 1.2-2.3 1.6s-2 .5-3.1.5h-4zm2-1.6h1.8c1.8 0 3.2-.6 4.1-1.7s1.4-2.7 1.4-4.7-.5-3.5-1.4-4.6c-.9-1.1-2.3-1.6-4.1-1.6h-1.8v12.6zm12.7 1.6v-15.7h9.1v1.7h-7.1v4.9h6v1.7h-6v5.7h7.3v1.7h-9.3zm17.1.3c-1.1 0-2.1-.2-3.1-.6-.9-.4-1.8-1-2.4-1.7l1.2-1.4c.6.6 1.2 1.1 2 1.4s1.5.5 2.4.5c1 0 1.8-.2 2.4-.7.6-.5.9-1.1.9-1.9 0-.4-.1-.7-.2-1-.1-.3-.3-.5-.6-.7-.2-.2-.5-.4-.8-.5-.3-.2-.7-.3-1-.5l-2.3-1c-.4-.2-.7-.4-1.1-.6-.4-.2-.7-.5-1-.8s-.6-.7-.7-1.1-.3-.9-.3-1.5.1-1.1.4-1.7c.2-.5.6-1 1-1.3.4-.4 1-.7 1.6-.9.6-.2 1.3-.3 2-.3.9 0 1.8.2 2.6.5.8.4 1.5.8 2 1.4l-1.1 1.3c-.5-.5-1-.8-1.6-1.1-.6-.3-1.2-.4-2-.4-.9 0-1.6.2-2.1.6-.5.4-.8 1-.8 1.7 0 .4.1.7.2 1s.4.5.6.7c.3.2.5.4.8.5s.6.3.9.4l2.2 1c.4.2.9.4 1.3.7.4.2.7.5 1 .9.3.3.5.7.7 1.2.2.4.3.9.3 1.5s-.1 1.2-.4 1.8-.6 1-1.1 1.4c-.5.4-1 .7-1.7 1s-1.4.2-2.2.2zm8.4-.3v-15.7h2v15.7h-2zm12.5.3c-1 0-2-.2-2.9-.6-.9-.4-1.6-.9-2.2-1.6-.6-.7-1.1-1.6-1.5-2.6-.4-1-.5-2.2-.5-3.4 0-1.3.2-2.4.5-3.4.4-1 .9-1.9 1.5-2.6.6-.7 1.4-1.2 2.3-1.6.9-.4 1.9-.6 2.9-.6.5 0 1 .1 1.5.2s.9.3 1.2.4c.4.2.7.4 1 .6.3.2.6.5.8.7l-1.1 1.3c-.4-.4-.9-.8-1.4-1.1s-1.2-.4-2-.4-1.5.1-2.2.4c-.6.3-1.2.7-1.6 1.3-.4.6-.8 1.2-1 2-.2.8-.4 1.7-.4 2.6 0 1 .1 1.9.3 2.7s.6 1.5 1 2c.4.6 1 1 1.6 1.3.6.3 1.4.5 2.2.5.6 0 1.1-.1 1.6-.3s.9-.4 1.2-.7v-4.1h-3.3v-1.7h5.2v6.6c-.5.5-1.2 1-2 1.3-.7.6-1.6.8-2.7.8zm8.6-.3v-15.7h2.1l5.7 9.9 1.7 3.3h.1c0-.8-.1-1.6-.2-2.5-.1-.9-.1-1.7-.1-2.5v-8.1h1.9v15.7h-2.1l-5.7-9.9-1.7-3.2h-.1c.1.8.1 1.6.2 2.4.1.8.1 1.7.1 2.5v8.2h-1.9zm20.4 0v-15.7h4.5c.9 0 1.7.1 2.4.2s1.3.4 1.9.8c.5.4.9.8 1.2 1.4.3.6.4 1.3.4 2.2 0 .8-.1 1.6-.4 2.2-.3.6-.7 1.1-1.2 1.5-.5.4-1.1.7-1.8.9-.7.2-1.5.3-2.4.3h-2.6v6.2h-2zm1.9-7.9h2.4c1.4 0 2.4-.3 3.1-.8.7-.5 1-1.3 1-2.5 0-1.1-.3-1.9-1-2.4-.7-.4-1.7-.7-3.1-.7h-2.3v6.4zm11.6 7.9v-15.7h4.9c.8 0 1.5.1 2.2.2.7.2 1.3.4 1.8.8s.9.8 1.1 1.4c.3.6.4 1.2.4 2.1 0 1.2-.3 2.2-1 3-.6.7-1.5 1.2-2.6 1.5l4 6.9h-2.3l-3.8-6.6h-2.9v6.6h-1.8zm2-8.3h2.6c1.2 0 2.2-.3 2.8-.8.7-.5 1-1.3 1-2.3 0-1-.3-1.8-1-2.2-.7-.4-1.6-.6-2.8-.6h-2.6v5.9zm17.5 8.6c-1 0-1.9-.2-2.7-.6s-1.5-.9-2.1-1.6c-.6-.7-1.1-1.6-1.4-2.6-.3-1-.5-2.2-.5-3.4s.2-2.4.5-3.4.8-1.8 1.4-2.5c.6-.7 1.3-1.2 2.1-1.6s1.7-.6 2.7-.6 1.9.2 2.7.6c.8.4 1.5.9 2.1 1.6.6.7 1.1 1.5 1.4 2.5.3 1 .5 2.1.5 3.4 0 1.3-.2 2.4-.5 3.4s-.8 1.9-1.4 2.6-1.3 1.3-2.1 1.6-1.7.6-2.7.6zm0-1.8c.7 0 1.3-.2 1.9-.5.6-.3 1.1-.7 1.5-1.3.4-.6.7-1.2.9-2s.3-1.7.3-2.7c0-1-.1-1.9-.3-2.6-.2-.8-.5-1.4-.9-2s-.9-1-1.5-1.3c-.6-.3-1.2-.4-1.9-.4s-1.3.1-1.9.4c-.6.3-1.1.7-1.5 1.3s-.7 1.2-.9 2c-.2.8-.3 1.7-.3 2.6 0 1 .1 1.9.3 2.7.2.8.5 1.5.9 2 .4.6.9 1 1.5 1.3.6.4 1.2.5 1.9.5zm12.1 1.8c-2 0-3.4-.8-4.3-2.5l1.4-1c.4.6.8 1.1 1.2 1.4.4.3 1 .4 1.5.4.8 0 1.5-.3 1.9-.8.4-.5.6-1.4.6-2.6v-10.9h2v11.1c0 .7-.1 1.3-.3 1.9-.2.6-.4 1.1-.8 1.6-.3.4-.8.8-1.3 1.1s-1.1.3-1.9.3zm8.6-.3v-15.7h9.1v1.7h-7.1v4.9h6v1.7h-6v5.7h7.3v1.7h-9.3zm18.6.3c-1 0-1.9-.2-2.7-.6-.8-.4-1.6-.9-2.2-1.6-.6-.7-1.1-1.6-1.4-2.6-.3-1-.5-2.2-.5-3.4 0-1.3.2-2.4.5-3.4.4-1 .8-1.9 1.5-2.6.6-.7 1.4-1.2 2.2-1.6.8-.4 1.8-.6 2.8-.6 1 0 1.8.2 2.5.6.7.4 1.3.8 1.8 1.4l-1.1 1.3c-.4-.4-.9-.8-1.4-1.1-.5-.3-1.1-.4-1.8-.4-.8 0-1.4.1-2 .4-.6.3-1.1.7-1.6 1.3-.4.6-.8 1.2-1 2-.2.8-.3 1.7-.3 2.6 0 1 .1 1.9.3 2.7.2.8.6 1.5 1 2 .4.6.9 1 1.5 1.3.6.3 1.3.5 2 .5.8 0 1.4-.2 2-.5.6-.3 1.1-.7 1.6-1.3l1.1 1.2c-.6.7-1.3 1.3-2.1 1.7s-1.7.7-2.7.7zm10.6-.3v-14.1h-4.8v-1.7h11.5v1.7h-4.8v14.1h-1.9zm-197.4-25.7c-1.5 0-2.6-.6-3.3-1.9l1.1-.8c.3.5.6.8.9 1s.7.3 1.1.3c.6 0 1.1-.2 1.4-.6.3-.4.5-1 .5-1.9v-8.2h1.5v8.3c0 .5-.1 1-.2 1.4s-.3.8-.6 1.2c-.3.3-.6.6-1 .8-.3.3-.8.4-1.4.4zm8.9 0c-.9 0-1.6-.3-2-.9-.4-.6-.6-1.4-.6-2.6v-5.5h1.5v5.3c0 .8.1 1.4.4 1.8.3.4.7.5 1.3.5.5 0 .9-.1 1.2-.4.3-.2.7-.6 1.2-1.1v-6.2h1.5v8.7h-1.2l-.1-1.4h-.1c-.4.5-.8.9-1.3 1.2-.7.5-1.2.6-1.8.6zm7.2-.2v-8.7h1.2l.1 1.3h.1c.4-.4.9-.8 1.3-1.1.5-.3 1-.4 1.6-.4.9 0 1.6.3 2 .9.4.6.6 1.4.6 2.6v5.5h-1.5V359c0-.8-.1-1.4-.4-1.8-.3-.4-.7-.5-1.3-.5-.5 0-.9.1-1.2.3-.3.2-.7.6-1.2 1v6.3h-1.3zm13.4.2c-.6 0-1.1-.1-1.6-.3-.5-.2-1-.5-1.3-.9-.4-.4-.7-.9-.9-1.4-.2-.6-.3-1.2-.3-1.9s.1-1.4.3-1.9c.2-.6.5-1.1.9-1.4.4-.4.8-.7 1.2-.9.5-.2 1-.3 1.5-.3.6 0 1 .1 1.5.3.4.2.8.5 1.1.8.3.4.5.8.7 1.3s.2 1.1.2 1.7v.9h-5.9c.1.9.4 1.7.9 2.2.5.5 1.2.8 2 .8.4 0 .8-.1 1.2-.2s.7-.3 1-.5l.5 1c-.4.2-.8.5-1.3.6-.6 0-1.1.1-1.7.1zm-2.7-5.3h4.7c0-.9-.2-1.6-.6-2-.4-.5-.9-.7-1.6-.7-.3 0-.6.1-.9.2-.3.1-.5.3-.8.5-.2.2-.4.5-.6.9-.1.3-.2.7-.2 1.1zm10.9 5.1v-.9l2.3-2.3c.7-.7 1.2-1.3 1.7-1.9.5-.6.8-1.1 1-1.6s.4-1 .4-1.4c0-.7-.2-1.2-.5-1.6-.4-.4-.9-.6-1.6-.6-.5 0-.9.1-1.3.4-.4.3-.8.6-1.1 1l-.8-.8c.5-.5 1-1 1.5-1.3.5-.3 1.2-.5 1.9-.5 1.1 0 1.9.3 2.5.9.6.6.9 1.4.9 2.5 0 .5-.1 1.1-.4 1.6-.2.5-.6 1.1-1 1.7-.4.6-.9 1.2-1.5 1.8-.6.6-1.2 1.3-1.9 2 .3 0 .6 0 1-.1h4.3v1.3h-7.4zm12.7.2c-1.2 0-2.1-.5-2.7-1.5s-1-2.5-1-4.4c0-1.9.3-3.4 1-4.4s1.6-1.5 2.7-1.5c1.2 0 2.1.5 2.7 1.5s1 2.5 1 4.4c0 1.9-.3 3.4-1 4.4s-1.5 1.5-2.7 1.5zm0-1.2c.3 0 .6-.1.9-.3.3-.2.5-.5.7-.9.2-.4.4-.9.5-1.5.1-.6.2-1.3.2-2.2 0-.8-.1-1.6-.2-2.2-.1-.6-.3-1.1-.5-1.5-.2-.4-.4-.7-.7-.8-.3-.2-.6-.3-.9-.3s-.6.1-.9.3c-.3.2-.5.5-.7.8-.2.4-.4.9-.5 1.5s-.2 1.3-.2 2.2c0 1.7.2 2.9.6 3.7.5.8 1.1 1.2 1.7 1.2zm5.9 1v-1.2h2.6v-8.5h-2.1v-1c.5-.1 1-.2 1.4-.4.4-.1.7-.3 1.1-.5h1.1v10.3h2.4v1.2h-6.5zm13 0v-3.2h-5.2v-1l4.9-7.3h1.7v7.1h1.6v1.2h-1.6v3.2h-1.4zm-3.6-4.4h3.6v-4.4c0-.4 0-.8.1-1.1h-.1c-.1.3-.3.5-.5.8s-.3.5-.5.8l-2.6 3.9zM734.1 498.4v-1.6h3.5v-11.3h-2.8v-1.3c.7-.1 1.3-.3 1.8-.5s1-.4 1.4-.7h1.5v13.7h3.2v1.6h-8.6zm15 .3c-.8 0-1.6-.2-2.4-.5-.8-.3-1.4-.7-2-1.2l1-1.3c.5.4 1 .8 1.6 1 .5.3 1.2.4 1.9.4.8 0 1.3-.2 1.7-.5.4-.4.6-.8.6-1.3 0-.3-.1-.6-.2-.8l-.6-.6c-.2-.2-.5-.3-.9-.4s-.6-.3-1-.4c-.4-.1-.8-.3-1.2-.5-.4-.2-.8-.4-1.1-.7-.3-.3-.6-.6-.8-.9-.2-.4-.3-.8-.3-1.3s.1-.9.3-1.3c.2-.4.4-.8.8-1.1.3-.3.8-.5 1.3-.7.5-.2 1.1-.3 1.7-.3.7 0 1.4.1 2 .4.6.3 1.1.6 1.6.9l-.9 1.2c-.4-.3-.8-.6-1.2-.7s-.9-.3-1.4-.3c-.7 0-1.3.2-1.6.5-.3.3-.5.7-.5 1.2 0 .3.1.5.2.7s.3.4.6.5c.2.2.5.3.8.4.3.1.6.2 1 .4s.8.3 1.3.5c.4.2.8.4 1.1.7.3.3.6.6.8 1 .2.4.3.8.3 1.4 0 .5-.1.9-.3 1.3-.2.4-.5.8-.8 1.1-.4.3-.8.6-1.3.8-.8.3-1.4.4-2.1.4zm10.2 0c-.6 0-1.1-.1-1.6-.3s-.8-.5-1-.8-.5-.7-.6-1.2c-.1-.5-.2-1-.2-1.6v-6.5h-1.7v-1.5l1.8-.1.2-3.3h1.7v3.3h3.1v1.6h-3v6.5c0 .7.1 1.3.4 1.7.3.4.7.6 1.4.6.2 0 .4 0 .7-.1s.5-.1.6-.2l.4 1.5c-.3.1-.7.2-1 .3-.4.1-.8.1-1.2.1zm13.8 0c-1.1 0-2.1-.2-3.1-.6-.9-.4-1.8-1-2.4-1.7l1.2-1.4c.6.6 1.2 1.1 2 1.4s1.5.5 2.4.5c1 0 1.8-.2 2.4-.7.6-.5.9-1.1.9-1.9 0-.4-.1-.7-.2-1-.1-.3-.3-.5-.6-.7-.2-.2-.5-.4-.8-.5-.3-.2-.7-.3-1-.5l-2.3-1c-.4-.2-.7-.4-1.1-.6-.4-.2-.7-.5-1-.8s-.6-.7-.7-1.1-.3-.9-.3-1.5.1-1.1.4-1.7c.2-.5.6-1 1-1.3.4-.4 1-.7 1.6-.9.6-.2 1.3-.3 2-.3.9 0 1.8.2 2.6.5.8.4 1.5.8 2 1.4l-1.1 1.3c-.5-.5-1-.8-1.6-1.1-.6-.3-1.2-.4-2-.4-.9 0-1.6.2-2.1.6-.5.4-.8 1-.8 1.7 0 .4.1.7.2 1s.4.5.6.7c.3.2.5.4.8.5s.6.3.9.4l2.2 1c.4.2.9.4 1.3.7.4.2.7.5 1 .9.3.3.5.7.7 1.2.2.4.3.9.3 1.5s-.1 1.2-.4 1.8-.6 1-1.1 1.4c-.5.4-1 .7-1.7 1s-1.3.2-2.2.2zm8.5-.3v-15.7h2v15.7h-2zm6.3 0v-15.7h2.1l5.7 9.9 1.7 3.3h.1c0-.8-.1-1.6-.2-2.5-.1-.9-.1-1.7-.1-2.5v-8.1h1.9v15.7H797l-5.7-9.9-1.7-3.2h-.1c.1.8.1 1.6.2 2.4.1.8.1 1.7.1 2.5v8.2h-1.9zm21.7.3c-1 0-2-.2-2.9-.6-.9-.4-1.6-.9-2.2-1.6-.6-.7-1.1-1.6-1.5-2.6-.4-1-.5-2.2-.5-3.4 0-1.3.2-2.4.5-3.4.4-1 .9-1.9 1.5-2.6.6-.7 1.4-1.2 2.3-1.6.9-.4 1.9-.6 2.9-.6.5 0 1 .1 1.5.2s.9.3 1.2.4c.4.2.7.4 1 .6.3.2.6.5.8.7l-1.1 1.3c-.4-.4-.9-.8-1.4-1.1s-1.2-.4-2-.4-1.5.1-2.2.4c-.6.3-1.2.7-1.6 1.3-.4.6-.8 1.2-1 2-.2.8-.4 1.7-.4 2.6 0 1 .1 1.9.3 2.7s.6 1.5 1 2c.4.6 1 1 1.6 1.3.6.3 1.4.5 2.2.5.6 0 1.1-.1 1.6-.3s.9-.4 1.2-.7v-4.1h-3.3V490h5.2v6.6c-.5.5-1.2 1-2 1.3-.7.6-1.6.8-2.7.8zm8.6-.3v-15.7h2v14h6.9v1.7h-8.9zm11.7 0v-15.7h9.1v1.7h-7.1v4.9h6v1.7h-6v5.7h7.3v1.7h-9.3zm17.4 0v-15.7h4.5c.9 0 1.7.1 2.4.2.7.2 1.3.4 1.9.8.5.4.9.8 1.2 1.4.3.6.4 1.3.4 2.2 0 .8-.1 1.6-.4 2.2-.3.6-.7 1.1-1.2 1.5-.5.4-1.1.7-1.8.9-.7.2-1.5.3-2.4.3h-2.6v6.2h-2zm2-7.9h2.4c1.4 0 2.4-.3 3.1-.8.7-.5 1-1.3 1-2.5 0-1.1-.3-1.9-1-2.4-.7-.4-1.7-.7-3.1-.7h-2.3v6.4zm8.3 7.9l5.3-15.7h2.3l5.3 15.7h-2.1l-1.5-4.8h-5.7l-1.5 4.8h-2.1zm4.8-8.8l-.7 2.4h4.7l-.7-2.4c-.3-.9-.6-1.8-.8-2.6s-.5-1.8-.8-2.7h-.1c-.2.9-.5 1.8-.7 2.7-.3.9-.6 1.7-.9 2.6zm16.3 9.1c-1 0-2-.2-2.9-.6-.9-.4-1.6-.9-2.2-1.6-.6-.7-1.1-1.6-1.5-2.6-.4-1-.5-2.2-.5-3.4 0-1.3.2-2.4.5-3.4.4-1 .9-1.9 1.5-2.6.6-.7 1.4-1.2 2.3-1.6.9-.4 1.9-.6 2.9-.6.5 0 1 .1 1.5.2s.9.3 1.2.4c.4.2.7.4 1 .6.3.2.6.5.8.7l-1.1 1.3c-.4-.4-.9-.8-1.4-1.1s-1.2-.4-2-.4-1.5.1-2.2.4c-.6.3-1.2.7-1.6 1.3-.4.6-.8 1.2-1 2-.2.8-.4 1.7-.4 2.6 0 1 .1 1.9.3 2.7s.6 1.5 1 2c.4.6 1 1 1.6 1.3.6.3 1.4.5 2.2.5.6 0 1.1-.1 1.6-.3s.9-.4 1.2-.7v-4.1h-3.3V490h5.2v6.6c-.5.5-1.2 1-2 1.3-.7.6-1.6.8-2.7.8zm8.6-.3v-15.7h9.1v1.7h-7.1v4.9h6v1.7h-6v5.7h7.3v1.7h-9.3zm-155 28.8l5.3-15.7h2.3l5.3 15.7H743l-1.5-4.8h-5.7l-1.5 4.8h-2zm4.8-8.8l-.7 2.4h4.7l-.7-2.4c-.3-.9-.6-1.8-.8-2.6-.3-.9-.5-1.8-.8-2.7h-.1c-.2.9-.5 1.8-.7 2.7-.4.9-.7 1.7-.9 2.6zm10.3 8.8v-15.7h4.5c.9 0 1.7.1 2.4.2.7.2 1.3.4 1.9.8.5.4.9.8 1.2 1.4.3.6.4 1.3.4 2.2 0 .8-.1 1.6-.4 2.2-.3.6-.7 1.1-1.2 1.5-.5.4-1.1.7-1.8.9s-1.5.3-2.4.3h-2.6v6.2h-2zm2-7.9h2.4c1.4 0 2.4-.3 3.1-.8.7-.5 1-1.3 1-2.5 0-1.1-.3-1.9-1-2.4-.7-.4-1.7-.7-3.1-.7h-2.3v6.4zm11.6 7.9v-15.7h4.5c.9 0 1.7.1 2.4.2.7.2 1.3.4 1.9.8.5.4.9.8 1.2 1.4.3.6.4 1.3.4 2.2 0 .8-.1 1.6-.4 2.2-.3.6-.7 1.1-1.2 1.5-.5.4-1.1.7-1.8.9s-1.5.3-2.4.3H763v6.2h-2zm2-7.9h2.4c1.4 0 2.4-.3 3.1-.8.7-.5 1-1.3 1-2.5 0-1.1-.3-1.9-1-2.4-.7-.4-1.7-.7-3.1-.7H763v6.4zm11.6 7.9v-15.7h2v14h6.9v1.7h-8.9zm11.6 0v-15.7h2v15.7h-2zm12.3.3c-1 0-1.9-.2-2.7-.6s-1.6-.9-2.2-1.6c-.6-.7-1.1-1.6-1.4-2.6s-.5-2.2-.5-3.4c0-1.3.2-2.4.5-3.4s.8-1.9 1.5-2.6c.6-.7 1.4-1.2 2.2-1.6.8-.4 1.8-.6 2.8-.6 1 0 1.8.2 2.5.6.7.4 1.3.8 1.8 1.4l-1.1 1.3c-.4-.4-.9-.8-1.4-1.1s-1.1-.4-1.8-.4c-.8 0-1.4.1-2 .4-.6.3-1.1.7-1.6 1.3-.4.6-.8 1.2-1 2-.2.8-.3 1.7-.3 2.6 0 1 .1 1.9.3 2.7.2.8.6 1.5 1 2s.9 1 1.5 1.3c.6.3 1.3.5 2 .5.8 0 1.4-.2 2-.5s1.1-.7 1.6-1.3l1.1 1.2c-.6.7-1.3 1.3-2.1 1.7-.8.5-1.7.7-2.7.7zm5.7-.3l5.3-15.7h2.3l5.3 15.7H815l-1.5-4.8h-5.7l-1.5 4.8h-2.1zm4.8-8.8l-.7 2.4h4.7l-.7-2.4c-.3-.9-.6-1.8-.8-2.6-.3-.9-.5-1.8-.8-2.7h-.1c-.2.9-.5 1.8-.7 2.7-.4.9-.7 1.7-.9 2.6zm12.2 8.8v-14.1h-4.8v-1.7H828v1.7h-4.8v14.1h-2zm9.6 0v-15.7h2v15.7h-2zm12.2.3c-1 0-1.9-.2-2.7-.6-.8-.4-1.5-.9-2.1-1.6s-1.1-1.6-1.4-2.6c-.3-1-.5-2.2-.5-3.4 0-1.3.2-2.4.5-3.4s.8-1.8 1.4-2.5 1.3-1.2 2.1-1.6c.8-.4 1.7-.6 2.7-.6s1.9.2 2.7.6c.8.4 1.5.9 2.1 1.6.6.7 1.1 1.5 1.4 2.5.3 1 .5 2.1.5 3.4 0 1.3-.2 2.4-.5 3.4s-.8 1.9-1.4 2.6c-.6.7-1.3 1.3-2.1 1.6-.8.4-1.7.6-2.7.6zm0-1.7c.7 0 1.3-.2 1.9-.5.6-.3 1.1-.7 1.5-1.3.4-.6.7-1.2.9-2 .2-.8.3-1.7.3-2.7 0-1-.1-1.9-.3-2.6-.2-.8-.5-1.4-.9-2s-.9-1-1.5-1.3c-.6-.3-1.2-.4-1.9-.4s-1.3.1-1.9.4c-.6.3-1.1.7-1.5 1.3s-.7 1.2-.9 2-.3 1.7-.3 2.6c0 1 .1 1.9.3 2.7s.5 1.5.9 2c.4.6.9 1 1.5 1.3.5.3 1.2.5 1.9.5zm10.1 1.4v-15.7h2.1l5.7 9.9 1.7 3.3h.1c0-.8-.1-1.6-.2-2.5-.1-.9-.1-1.7-.1-2.5v-8.1h1.9v15.7h-2.1l-5.7-9.9-1.7-3.2h-.1c.1.8.1 1.6.2 2.4.1.8.1 1.7.1 2.5v8.2h-1.9zM736 472.7c-1.5 0-2.6-.6-3.3-1.9l1.1-.8c.3.5.6.8.9 1s.7.3 1.1.3c.6 0 1.1-.2 1.4-.6.3-.4.5-1 .5-1.9v-8.2h1.5v8.3c0 .5-.1 1-.2 1.4-.1.5-.3.8-.6 1.2-.3.3-.6.6-1 .8-.3.3-.8.4-1.4.4zm8.3 0c-.7 0-1.3-.2-1.8-.6-.5-.4-.7-1-.7-1.8 0-1 .4-1.7 1.3-2.2.9-.5 2.2-.9 4.1-1.1 0-.3 0-.5-.1-.8-.1-.3-.1-.5-.3-.7-.1-.2-.3-.4-.5-.5s-.5-.2-.9-.2c-.5 0-1 .1-1.4.3l-1.2.6-.6-1c.4-.3.9-.5 1.5-.8.6-.2 1.2-.4 1.9-.4 1.1 0 1.8.3 2.3 1 .5.7.7 1.5.7 2.6v5.4h-1.2l-.1-1h-.1c-.4.3-.9.6-1.4.9-.4.2-.9.3-1.5.3zm.4-1.2c.4 0 .8-.1 1.2-.3s.8-.5 1.2-.9v-2.4c-.7.1-1.3.2-1.8.3-.5.1-.9.3-1.2.5-.3.2-.5.4-.7.6-.1.2-.2.5-.2.8 0 .5.2.9.5 1.1.2.2.6.3 1 .3zm6.7 1v-8.7h1.2l.1 1.3h.1c.4-.4.9-.8 1.3-1.1.5-.3 1-.4 1.6-.4.9 0 1.6.3 2 .9.4.6.6 1.4.6 2.6v5.5h-1.5v-5.3c0-.8-.1-1.4-.4-1.8-.3-.4-.7-.5-1.3-.5-.5 0-.9.1-1.2.3-.3.2-.7.6-1.2 1v6.3h-1.3zm12.4.2c-.9 0-1.6-.3-2-.9-.4-.6-.6-1.4-.6-2.6v-5.5h1.5v5.3c0 .8.1 1.4.4 1.8.3.4.7.5 1.2.5s.9-.1 1.2-.4c.3-.2.7-.6 1.2-1.1v-6.2h1.5v8.7H767l-.1-1.4h-.1c-.4.5-.8.9-1.3 1.2s-1.1.6-1.7.6zm9.2 0c-.7 0-1.3-.2-1.8-.6-.5-.4-.7-1-.7-1.8 0-1 .4-1.7 1.3-2.2.9-.5 2.2-.9 4.1-1.1 0-.3 0-.5-.1-.8-.1-.3-.1-.5-.3-.7-.1-.2-.3-.4-.5-.5-.2-.1-.5-.2-.9-.2-.5 0-1 .1-1.4.3l-1.2.6-.6-1c.4-.3.9-.5 1.5-.8.6-.2 1.2-.4 1.9-.4 1.1 0 1.8.3 2.3 1 .5.7.7 1.5.7 2.6v5.4h-1.2l-.1-1h-.1c-.4.3-.9.6-1.4.9-.4.2-.9.3-1.5.3zm.5-1.2c.4 0 .8-.1 1.2-.3.4-.2.8-.5 1.2-.9v-2.4c-.7.1-1.3.2-1.8.3-.5.1-.9.3-1.2.5-.3.2-.5.4-.7.6s-.2.5-.2.8c0 .5.1.9.5 1.1.2.2.5.3 1 .3zm6.6 1v-8.7h1.2l.1 1.6h.1c.3-.6.7-1 1.1-1.3s.9-.5 1.4-.5c.3 0 .7.1.9.2l-.3 1.3c-.1 0-.3-.1-.4-.1h-.5c-.4 0-.8.1-1.2.5-.4.3-.8.8-1.1 1.6v5.6h-1.3zm6.8 3.8h-.6c-.2 0-.3-.1-.5-.1l.3-1.2c.1 0 .2.1.3.1h.3c.5 0 .9-.2 1.2-.5.3-.4.6-.8.7-1.3l.2-.6-3.5-8.8h1.5l1.8 4.8c.1.4.3.8.4 1.2.2.4.3.8.4 1.3h.1c.1-.4.3-.8.4-1.2.1-.4.2-.8.4-1.2l1.6-4.8h1.4l-3.3 9.5c-.2.4-.3.8-.5 1.2s-.4.7-.7 1c-.3.3-.6.5-.9.6-.1-.1-.5 0-1 0zm11.1-3.8v-.9l2.3-2.3c.7-.7 1.2-1.3 1.7-1.9.5-.6.8-1.1 1-1.6s.4-1 .4-1.4c0-.7-.2-1.2-.5-1.6-.4-.4-.9-.6-1.6-.6-.5 0-.9.1-1.3.4-.4.3-.8.6-1.1 1l-.8-.8c.5-.5 1-1 1.5-1.3.5-.3 1.2-.5 1.9-.5 1.1 0 1.9.3 2.5.9.6.6.9 1.4.9 2.5 0 .5-.1 1.1-.4 1.6-.2.5-.6 1.1-1 1.7-.4.6-.9 1.2-1.5 1.8-.6.6-1.2 1.3-1.9 2 .3 0 .6 0 1-.1h4.3v1.3H798zm12.7.2c-1.2 0-2.1-.5-2.7-1.5s-1-2.5-1-4.4c0-1.9.3-3.4 1-4.4s1.6-1.5 2.7-1.5c1.2 0 2.1.5 2.7 1.5s1 2.5 1 4.4c0 1.9-.3 3.4-1 4.4s-1.5 1.5-2.7 1.5zm0-1.2c.3 0 .6-.1.9-.3.3-.2.5-.5.7-.9.2-.4.4-.9.5-1.5.1-.6.2-1.3.2-2.2 0-.8-.1-1.6-.2-2.2-.1-.6-.3-1.1-.5-1.5-.2-.4-.4-.7-.7-.8-.3-.2-.6-.3-.9-.3s-.6.1-.9.3c-.3.2-.5.5-.7.8-.2.4-.4.9-.5 1.5s-.2 1.3-.2 2.2c0 1.7.2 2.9.6 3.7.5.8 1.1 1.2 1.7 1.2zm5.9 1v-1.2h2.6v-8.5h-2.1v-1c.5-.1 1-.2 1.4-.4.4-.1.7-.3 1.1-.5h1.1v10.3h2.4v1.2h-6.5zm11.8.2c-.5 0-.9 0-1.3-.1s-.7-.2-1-.4c-.3-.1-.6-.3-.8-.5-.2-.2-.5-.4-.7-.6l.7-1c.3.3.7.7 1.2.9.5.3 1 .4 1.7.4.3 0 .7-.1 1-.2.3-.1.6-.3.8-.5.2-.2.4-.5.5-.8.1-.3.2-.7.2-1.1 0-.8-.2-1.4-.7-1.9-.4-.4-1-.7-1.8-.7-.4 0-.7.1-1 .2-.3.1-.6.3-.9.5l-.8-.5.4-5.5h5.7v1.3h-4.4l-.3 3.4c.3-.1.6-.3.8-.3.3-.1.6-.1.9-.1.5 0 1 .1 1.4.2.4.1.8.4 1.1.7.3.3.6.7.8 1.1.2.5.3 1 .3 1.6s-.1 1.2-.3 1.7c-.2.5-.5.9-.9 1.2-.4.3-.8.6-1.2.8s-.9.2-1.4.2zm232.9 136.6v-1.6h3.5v-11.3h-2.8v-1.3c.7-.1 1.3-.3 1.8-.5s1-.4 1.4-.7h1.5v13.7h3.2v1.6h-8.6zm15.1.3c-.8 0-1.6-.2-2.4-.5s-1.4-.7-2-1.2l1-1.3c.5.4 1 .8 1.6 1 .5.3 1.2.4 1.9.4.8 0 1.3-.2 1.7-.5.4-.4.6-.8.6-1.3 0-.3-.1-.6-.2-.8s-.4-.4-.6-.6c-.2-.2-.5-.3-.9-.4-.3-.1-.6-.3-1-.4-.4-.1-.8-.3-1.2-.5-.4-.2-.8-.4-1.1-.7-.3-.3-.6-.6-.8-.9-.2-.4-.3-.8-.3-1.3s.1-.9.3-1.3c.2-.4.4-.8.8-1.1.3-.3.8-.5 1.3-.7s1.1-.3 1.7-.3c.7 0 1.4.1 2 .4.6.3 1.1.6 1.6.9l-.9 1.2c-.4-.3-.8-.6-1.2-.7-.4-.2-.9-.3-1.4-.3-.7 0-1.3.2-1.6.5-.3.3-.5.7-.5 1.2 0 .3.1.5.2.7s.3.4.6.5c.2.2.5.3.8.4.3.1.6.2 1 .4s.8.3 1.3.5c.4.2.8.4 1.1.7.3.3.6.6.8 1 .2.4.3.8.3 1.4 0 .5-.1.9-.3 1.3-.2.4-.5.8-.8 1.1-.4.3-.8.6-1.3.8s-1.5.4-2.1.4zm10.2 0c-.6 0-1.1-.1-1.6-.3s-.8-.5-1-.8c-.3-.3-.5-.7-.6-1.2-.1-.5-.2-1-.2-1.6v-6.5h-1.7v-1.5l1.8-.1.2-3.3h1.7v3.3h3.1v1.6h-3.1v6.5c0 .7.1 1.3.4 1.7.3.4.7.6 1.4.6.2 0 .4 0 .7-.1.2-.1.5-.1.6-.2l.4 1.5c-.3.1-.7.2-1 .3-.4 0-.8.1-1.1.1zm7.3-.3l5.3-15.7h2.3l5.3 15.7h-2.1l-1.5-4.8h-5.7l-1.5 4.8h-2.1zm4.8-8.8l-.7 2.4h4.7l-.7-2.4c-.3-.9-.6-1.8-.8-2.6s-.5-1.8-.8-2.7h-.1c-.2.9-.5 1.8-.7 2.7-.3.8-.6 1.7-.9 2.6zm10.3 8.8v-15.7h4.5c.9 0 1.7.1 2.4.2.7.2 1.3.4 1.9.8.5.4.9.8 1.2 1.4.3.6.4 1.3.4 2.2 0 .8-.1 1.6-.4 2.2-.3.6-.7 1.1-1.2 1.5-.5.4-1.1.7-1.8.9-.7.2-1.5.3-2.4.3h-2.6v6.2h-2zm2-7.9h2.4c1.4 0 2.4-.3 3.1-.8.7-.5 1-1.3 1-2.5 0-1.1-.3-1.9-1-2.4-.7-.4-1.7-.7-3.1-.7h-2.3v6.4zm11.6 7.9v-15.7h4.5c.9 0 1.7.1 2.4.2.7.2 1.3.4 1.9.8.5.4.9.8 1.2 1.4.3.6.4 1.3.4 2.2 0 .8-.1 1.6-.4 2.2-.3.6-.7 1.1-1.2 1.5-.5.4-1.1.7-1.8.9-.7.2-1.5.3-2.4.3h-2.6v6.2h-2zm2-7.9h2.4c1.4 0 2.4-.3 3.1-.8.7-.5 1-1.3 1-2.5 0-1.1-.3-1.9-1-2.4-.7-.4-1.7-.7-3.1-.7h-2.3v6.4zm-63.6-18v-11.8h1.5l4.3 7.4 1.3 2.4h.1c0-.6-.1-1.2-.1-1.9 0-.6-.1-1.3-.1-1.9v-6.1h1.4v11.8h-1.5l-4.3-7.4-1.3-2.4h-.1c0 .6.1 1.2.1 1.8 0 .6.1 1.2.1 1.9v6.2h-1.4zm14.9.2c-.5 0-1.1-.1-1.5-.3s-.9-.5-1.3-.9-.7-.9-.9-1.4c-.2-.6-.3-1.2-.3-1.9s.1-1.4.3-2c.2-.6.5-1.1.9-1.4.4-.4.8-.7 1.3-.9.5-.2 1-.3 1.5-.3s1.1.1 1.5.3c.5.2.9.5 1.3.9s.7.9.9 1.4c.2.6.3 1.2.3 2 0 .7-.1 1.4-.3 1.9-.2.6-.5 1-.9 1.4-.4.4-.8.7-1.3.9-.4.2-.9.3-1.5.3zm0-1.2c.4 0 .7-.1 1-.2s.6-.4.8-.7c.2-.3.4-.6.5-1.1.1-.4.2-.9.2-1.4 0-.5-.1-1-.2-1.4-.1-.4-.3-.8-.5-1.1-.2-.3-.5-.5-.8-.7s-.7-.2-1-.2c-.4 0-.7.1-1 .2s-.6.4-.8.7c-.2.3-.4.7-.5 1.1-.1.4-.2.9-.2 1.4 0 .5.1 1 .2 1.4.1.4.3.8.5 1.1.2.3.5.5.8.7s.7.2 1 .2zm8.2 1l-3.2-8.7h1.5l1.7 5c.1.4.3.9.4 1.3s.3.9.4 1.3h.1c.1-.4.3-.8.4-1.3s.3-.9.4-1.3l1.7-5h1.5l-3.1 8.7h-1.8zm10 .2c-.6 0-1.1-.1-1.6-.3-.5-.2-1-.5-1.3-.9-.4-.4-.7-.9-.9-1.4-.2-.6-.3-1.2-.3-1.9s.1-1.4.3-1.9c.2-.6.5-1.1.9-1.4.4-.4.8-.7 1.3-.9.5-.2 1-.3 1.5-.3.6 0 1 .1 1.5.3.4.2.8.5 1.1.8.3.4.5.8.7 1.3.2.5.2 1.1.2 1.7v.9h-5.9c.1.9.4 1.7.9 2.2.5.5 1.2.8 2 .8.4 0 .8-.1 1.2-.2s.7-.3 1-.5l.5 1c-.4.2-.8.5-1.3.6-.7 0-1.2.1-1.8.1zm-2.8-5.3h4.7c0-.9-.2-1.6-.6-2-.4-.5-.9-.7-1.6-.7-.3 0-.6.1-.9.2-.3.1-.5.3-.8.5-.2.2-.4.5-.6.9 0 .3-.1.7-.2 1.1zm8.2 5.1v-8.7h1.2l.1 1.3h.1c.4-.4.8-.8 1.2-1.1.5-.3.9-.4 1.5-.4.7 0 1.2.1 1.6.4.4.3.7.7.8 1.2.5-.5.9-.9 1.4-1.2.5-.3 1-.5 1.5-.5.9 0 1.6.3 2 .9.4.6.7 1.4.7 2.6v5.5h-1.5V578c0-.8-.1-1.4-.4-1.8-.3-.4-.7-.5-1.2-.5-.7 0-1.4.4-2.2 1.4v6.3h-1.5V578c0-.8-.1-1.4-.4-1.8s-.7-.5-1.2-.5c-.7 0-1.4.4-2.2 1.4v6.3h-1.5zm18.8.2c-.4 0-.8-.1-1.3-.3-.4-.2-.8-.5-1.2-.8h-.1l-.1.9h-1.2v-12.8h1.5v5.1c.4-.3.8-.6 1.3-.9.5-.2.9-.4 1.4-.4.6 0 1.1.1 1.5.3s.8.5 1.1.9c.3.4.5.9.7 1.4s.2 1.2.2 1.8c0 .7-.1 1.4-.3 2-.2.6-.5 1.1-.8 1.5s-.8.7-1.2.9c-.5.3-1 .4-1.5.4zm-.3-1.2c.4 0 .7-.1 1-.2.3-.2.6-.4.8-.7.2-.3.4-.7.5-1.1.1-.4.2-.9.2-1.5 0-.5 0-.9-.1-1.3s-.2-.7-.4-1c-.2-.3-.4-.5-.7-.7-.3-.2-.6-.2-1.1-.2-.7 0-1.5.4-2.3 1.2v4.6c.4.3.8.6 1.1.7.4.1.7.2 1 .2zm9.9 1.2c-.6 0-1.1-.1-1.6-.3-.5-.2-1-.5-1.3-.9-.4-.4-.7-.9-.9-1.4-.2-.6-.3-1.2-.3-1.9s.1-1.4.3-1.9c.2-.6.5-1.1.9-1.4.4-.4.8-.7 1.2-.9.5-.2 1-.3 1.5-.3.6 0 1 .1 1.5.3.4.2.8.5 1.1.8.3.4.5.8.7 1.3s.2 1.1.2 1.7v.9h-5.9c.1.9.4 1.7.9 2.2.5.5 1.2.8 2 .8.4 0 .8-.1 1.2-.2s.7-.3 1-.5l.5 1c-.4.2-.8.5-1.3.6-.6 0-1.1.1-1.7.1zm-2.8-5.3h4.7c0-.9-.2-1.6-.6-2-.4-.5-.9-.7-1.6-.7-.3 0-.6.1-.9.2-.3.1-.5.3-.8.5-.2.2-.4.5-.6.9 0 .3-.1.7-.2 1.1zm8.2 5.1v-8.7h1.2l.1 1.6h.1c.3-.6.7-1 1.1-1.3s.9-.5 1.4-.5c.3 0 .7.1.9.2l-.3 1.3c-.1 0-.3-.1-.4-.1h-.4c-.4 0-.8.1-1.2.5-.4.3-.8.8-1.1 1.6v5.6h-1.4zm9.1 0v-.9l2.3-2.3c.7-.7 1.2-1.3 1.7-1.9.5-.6.8-1.1 1-1.6s.4-1 .4-1.4c0-.7-.2-1.2-.5-1.6-.4-.4-.9-.6-1.6-.6-.5 0-.9.1-1.3.4-.4.3-.8.6-1.1 1l-.8-.8c.5-.5 1-1 1.5-1.3.5-.3 1.2-.5 1.9-.5 1.1 0 1.9.3 2.5.9.6.6.9 1.4.9 2.5 0 .5-.1 1.1-.4 1.6-.2.5-.6 1.1-1 1.7s-.9 1.2-1.5 1.8c-.6.6-1.2 1.3-1.9 2 .3 0 .6 0 1-.1h4.3v1.3h-7.4zm12.7.2c-1.2 0-2.1-.5-2.7-1.5-.6-1-1-2.5-1-4.4 0-1.9.3-3.4 1-4.4.6-1 1.6-1.5 2.7-1.5 1.2 0 2.1.5 2.7 1.5.6 1 1 2.5 1 4.4 0 1.9-.3 3.4-1 4.4-.7 1-1.6 1.5-2.7 1.5zm0-1.2c.3 0 .6-.1.9-.3.3-.2.5-.5.7-.9.2-.4.4-.9.5-1.5s.2-1.3.2-2.2c0-.8-.1-1.6-.2-2.2s-.3-1.1-.5-1.5-.4-.7-.7-.8c-.3-.2-.6-.3-.9-.3s-.6.1-.9.3c-.3.2-.5.5-.7.8-.2.4-.4.9-.5 1.5-.1.6-.2 1.3-.2 2.2 0 1.7.2 2.9.6 3.7.5.8 1 1.2 1.7 1.2zm5.9 1v-1.2h2.6v-8.5h-2.1v-1c.5-.1 1-.2 1.4-.4.4-.1.7-.3 1.1-.5h1.1v10.3h2.4v1.2h-6.5zm12.3.2c-.6 0-1.1-.1-1.6-.3s-.9-.6-1.3-1-.6-1-.8-1.7c-.2-.7-.3-1.5-.3-2.4 0-1.2.1-2.1.4-2.9.2-.8.6-1.5 1-2s.9-.9 1.4-1.1 1.1-.4 1.6-.4c.6 0 1.2.1 1.6.4.5.2.8.5 1.2.9l-.8.9c-.2-.3-.5-.5-.9-.7s-.7-.2-1-.2c-.4 0-.8.1-1.1.3s-.7.4-1 .8c-.3.4-.5.9-.7 1.5s-.3 1.4-.3 2.3c.4-.4.8-.8 1.3-1.1.5-.3 1-.4 1.4-.4 1 0 1.8.3 2.4.9s.9 1.5.9 2.7c0 .6-.1 1.1-.3 1.5-.2.4-.4.8-.7 1.2s-.7.6-1.1.8c-.4-.1-.8 0-1.3 0zm0-1.2c.3 0 .6-.1.8-.2s.4-.3.6-.5c.2-.2.3-.5.4-.8s.2-.7.2-1c0-.8-.2-1.4-.5-1.8-.3-.4-.9-.6-1.6-.6-.4 0-.8.1-1.2.4-.4.2-.8.6-1.2 1.2.1 1.1.4 2 .8 2.6s1 .7 1.7.7zM765.8 785.1v-1.6h3.5v-11.3h-2.8v-1.3c.7-.1 1.3-.3 1.8-.5s1-.4 1.4-.7h1.5v13.7h3.2v1.6h-8.6zm15 .3c-.8 0-1.6-.2-2.4-.5s-1.4-.7-2-1.2l1-1.3c.5.4 1 .8 1.6 1 .5.3 1.2.4 1.9.4.8 0 1.3-.2 1.7-.5.4-.4.6-.8.6-1.3 0-.3-.1-.6-.2-.8s-.4-.4-.6-.6c-.2-.2-.5-.3-.9-.4-.3-.1-.6-.3-1-.4-.4-.1-.8-.3-1.2-.5-.4-.2-.8-.4-1.1-.7s-.6-.6-.8-.9c-.2-.4-.3-.8-.3-1.3s.1-.9.3-1.3c.2-.4.4-.8.8-1.1.3-.3.8-.5 1.3-.7.5-.2 1.1-.3 1.7-.3.7 0 1.4.1 2 .4.6.3 1.1.6 1.6.9l-.9 1.2c-.4-.3-.8-.6-1.2-.7-.4-.2-.9-.3-1.4-.3-.7 0-1.3.2-1.6.5-.3.3-.5.7-.5 1.2 0 .3.1.5.2.7.1.2.3.4.6.5.2.2.5.3.8.4.3.1.6.2 1 .4s.8.3 1.3.5c.4.2.8.4 1.1.7.3.3.6.6.8 1 .2.4.3.8.3 1.4 0 .5-.1.9-.3 1.3-.2.4-.5.8-.8 1.1-.4.3-.8.6-1.3.8-.8.3-1.4.4-2.1.4zm10.2 0c-.6 0-1.1-.1-1.6-.3-.4-.2-.8-.5-1-.8s-.5-.7-.6-1.2c-.1-.5-.2-1-.2-1.6V775H786v-1.5l1.8-.1.2-3.3h1.7v3.3h3.1v1.6h-3.1v6.5c0 .7.1 1.3.4 1.7s.7.6 1.4.6c.2 0 .4 0 .7-.1.2-.1.5-.1.6-.2l.4 1.5c-.3.1-.7.2-1 .3s-.8.1-1.2.1zm15.1 0c-.8 0-1.5-.1-2.2-.3-.7-.2-1.3-.6-1.8-1.2-.5-.5-.9-1.2-1.2-2.1-.3-.9-.4-1.9-.4-3.2v-9.2h2v9.3c0 .9.1 1.7.3 2.4.2.6.5 1.2.8 1.5.3.4.7.7 1.2.8.4.2.9.3 1.4.3.5 0 1-.1 1.5-.3s.8-.4 1.2-.8c.3-.4.6-.9.8-1.5.2-.6.3-1.4.3-2.4v-9.3h1.9v9.2c0 1.3-.1 2.3-.4 3.2-.3.9-.7 1.6-1.2 2.1s-1.1.9-1.8 1.2c-.9.2-1.6.3-2.4.3zm7.8-.3l4.6-8.1-4.3-7.6h2.2l2.1 4c.2.4.4.7.6 1.1.2.3.4.7.6 1.2h.1c.2-.5.4-.9.6-1.2s.3-.7.5-1.1l2.1-4h2.1l-4.3 7.7 4.6 8h-2.2l-2.3-4.2-.6-1.2c-.2-.4-.5-.9-.7-1.3h-.1c-.2.5-.4.9-.6 1.3l-.6 1.2-2.3 4.2h-2.1zm18.9 0v-15.7h4.5c.9 0 1.7.1 2.4.2.7.2 1.3.4 1.9.8.5.4.9.8 1.2 1.4.3.6.4 1.3.4 2.2 0 .8-.1 1.6-.4 2.2-.3.6-.7 1.1-1.2 1.5-.5.4-1.1.7-1.8.9-.7.2-1.5.3-2.4.3h-2.6v6.2h-2zm2-7.8h2.4c1.4 0 2.4-.3 3.1-.8.7-.5 1-1.3 1-2.5 0-1.1-.3-1.9-1-2.4-.7-.4-1.7-.7-3.1-.7h-2.3v6.4zm11.6 7.8v-15.7h4.9c.8 0 1.5.1 2.2.2.7.2 1.3.4 1.8.8s.9.8 1.1 1.4.4 1.2.4 2.1c0 1.2-.3 2.2-1 3-.6.7-1.5 1.2-2.6 1.5l4 6.9H855l-3.8-6.6h-2.9v6.6h-1.9zm2-8.3h2.6c1.2 0 2.2-.3 2.8-.8.7-.5 1-1.3 1-2.3 0-1-.3-1.8-1-2.2-.7-.4-1.6-.6-2.8-.6h-2.6v5.9zm17.5 8.6c-1 0-1.9-.2-2.7-.6-.8-.4-1.5-.9-2.1-1.6-.6-.7-1.1-1.6-1.4-2.6-.3-1-.5-2.2-.5-3.4 0-1.3.2-2.4.5-3.4s.8-1.8 1.4-2.5c.6-.7 1.3-1.2 2.1-1.6s1.7-.6 2.7-.6 1.9.2 2.7.6 1.5.9 2.1 1.6 1.1 1.5 1.4 2.5c.3 1 .5 2.1.5 3.4 0 1.3-.2 2.4-.5 3.4s-.8 1.9-1.4 2.6-1.3 1.3-2.1 1.6c-.8.4-1.7.6-2.7.6zm0-1.7c.7 0 1.3-.2 1.9-.5.6-.3 1.1-.7 1.5-1.3s.7-1.2.9-2 .3-1.7.3-2.7c0-1-.1-1.9-.3-2.6-.2-.8-.5-1.4-.9-2-.4-.5-.9-1-1.5-1.3-.6-.3-1.2-.4-1.9-.4s-1.3.1-1.9.4c-.6.3-1.1.7-1.5 1.3-.4.5-.7 1.2-.9 2-.2.8-.3 1.7-.3 2.6 0 1 .1 1.9.3 2.7.2.8.5 1.5.9 2s.9 1 1.5 1.3c.5.3 1.2.5 1.9.5zm12.1 1.7c-2 0-3.4-.8-4.3-2.5l1.4-1c.4.6.8 1.1 1.2 1.4.4.3 1 .4 1.5.4.8 0 1.5-.3 1.9-.8s.6-1.4.6-2.6v-10.9h2v11.1c0 .7-.1 1.3-.3 1.9-.2.6-.4 1.1-.8 1.6-.3.4-.8.8-1.3 1.1-.5.2-1.2.3-1.9.3zm8.6-.3v-15.7h9.1v1.7h-7.1v4.9h6v1.7h-6v5.7h7.3v1.7h-9.3zm18.6.3c-1 0-1.9-.2-2.7-.6-.8-.4-1.6-.9-2.2-1.6-.6-.7-1.1-1.6-1.4-2.6-.3-1-.5-2.2-.5-3.4 0-1.3.2-2.4.5-3.4.4-1 .8-1.9 1.5-2.6s1.4-1.2 2.2-1.6c.8-.4 1.8-.6 2.8-.6 1 0 1.8.2 2.5.6.7.4 1.3.8 1.8 1.4l-1.1 1.3c-.4-.4-.9-.8-1.4-1.1-.5-.3-1.1-.4-1.8-.4-.8 0-1.4.1-2 .4-.6.3-1.1.7-1.6 1.3-.4.6-.8 1.2-1 2-.2.8-.3 1.7-.3 2.6 0 1 .1 1.9.3 2.7.2.8.6 1.5 1 2 .4.6.9 1 1.5 1.3.6.3 1.3.5 2 .5.8 0 1.4-.2 2-.5.6-.3 1.1-.7 1.6-1.3l1.1 1.2c-.6.7-1.3 1.3-2.1 1.7-.8.5-1.7.7-2.7.7zm10.5-.3V771H911v-1.7h11.5v1.7h-4.8v14.1h-2zm-150.2-25.9v-11.8h3c1.8 0 3.2.5 4.2 1.5.9 1 1.4 2.5 1.4 4.3 0 .9-.1 1.8-.4 2.5s-.6 1.4-1.1 1.9c-.5.5-1 .9-1.7 1.2-.7.3-1.5.4-2.4.4h-3zm1.5-1.2h1.3c1.4 0 2.4-.4 3.1-1.2.7-.8 1-2 1-3.5s-.3-2.6-1-3.4-1.7-1.2-3.1-1.2H767v9.3zm13 1.4c-.6 0-1.1-.1-1.6-.3-.5-.2-1-.5-1.3-.9-.4-.4-.7-.9-.9-1.4-.2-.6-.3-1.2-.3-1.9s.1-1.4.3-1.9c.2-.6.5-1.1.9-1.4s.8-.7 1.3-.9c.5-.2 1-.3 1.5-.3.6 0 1 .1 1.5.3.4.2.8.5 1.1.8s.5.8.7 1.3c.2.5.2 1.1.2 1.7v.9h-5.9c.1.9.4 1.7.9 2.2s1.2.8 2 .8c.4 0 .8-.1 1.2-.2.4-.1.7-.3 1-.5l.5 1c-.4.2-.8.5-1.3.6-.7 0-1.2.1-1.8.1zm-2.8-5.3h4.7c0-.9-.2-1.6-.6-2-.4-.5-.9-.7-1.6-.7-.3 0-.6.1-.9.2-.3.1-.5.3-.8.5-.2.2-.4.5-.6.9 0 .3-.1.7-.2 1.1zm11.6 5.3c-.6 0-1.1-.1-1.6-.3-.5-.2-.9-.5-1.3-.9s-.7-.9-.9-1.4c-.2-.6-.3-1.2-.3-1.9s.1-1.4.3-2c.2-.6.5-1.1.9-1.4s.8-.7 1.3-.9 1-.3 1.6-.3c.6 0 1.1.1 1.5.3.4.2.8.4 1.1.7l-.8 1c-.3-.2-.5-.4-.8-.6-.3-.1-.6-.2-.9-.2-.4 0-.8.1-1.1.2-.3.2-.6.4-.9.7-.2.3-.4.7-.6 1.1-.1.4-.2.9-.2 1.4s.1 1 .2 1.4c.1.4.3.8.5 1.1.2.3.5.5.9.7.3.2.7.2 1.1.2.4 0 .8-.1 1.1-.3.3-.2.7-.4.9-.6l.6 1c-.4.3-.8.6-1.3.8-.2.1-.7.2-1.3.2zm7.9 0c-.6 0-1.1-.1-1.6-.3-.5-.2-1-.5-1.3-.9-.4-.4-.7-.9-.9-1.4-.2-.6-.3-1.2-.3-1.9s.1-1.4.3-1.9c.2-.6.5-1.1.9-1.4s.8-.7 1.3-.9c.5-.2 1-.3 1.5-.3.6 0 1 .1 1.5.3.4.2.8.5 1.1.8s.5.8.7 1.3c.2.5.2 1.1.2 1.7v.9H794c.1.9.4 1.7.9 2.2s1.2.8 2 .8c.4 0 .8-.1 1.2-.2.4-.1.7-.3 1-.5l.5 1c-.4.2-.8.5-1.3.6-.4 0-1 .1-1.6.1zm-2.7-5.3h4.7c0-.9-.2-1.6-.6-2-.4-.5-.9-.7-1.6-.7-.3 0-.6.1-.9.2-.3.1-.5.3-.8.5-.2.2-.4.5-.6.9-.1.3-.2.7-.2 1.1zm8.1 5.1v-8.7h1.2l.1 1.3h.1c.4-.4.8-.8 1.3-1.1s.9-.4 1.5-.4c.7 0 1.2.1 1.6.4.4.3.7.7.8 1.2.5-.5.9-.9 1.4-1.2.5-.3 1-.5 1.5-.5.9 0 1.6.3 2 .9.4.6.7 1.4.7 2.6v5.5h-1.5v-5.3c0-.8-.1-1.4-.4-1.8-.3-.4-.7-.5-1.2-.5-.7 0-1.4.5-2.2 1.4v6.3h-1.5V754c0-.8-.1-1.4-.4-1.8-.3-.4-.7-.5-1.2-.5-.7 0-1.4.5-2.2 1.4v6.3h-1.6zm18.8.2c-.4 0-.8-.1-1.3-.3-.4-.2-.8-.5-1.2-.8h-.1l-.1.9H817v-12.8h1.5v5.1c.4-.3.8-.6 1.3-.9.5-.2.9-.4 1.4-.4.6 0 1.1.1 1.5.3.4.2.8.5 1.1.9.3.4.5.9.7 1.4.1.5.2 1.2.2 1.8 0 .7-.1 1.4-.3 2-.2.6-.5 1.1-.8 1.5-.3.4-.8.7-1.2.9-.5.3-1 .4-1.5.4zm-.2-1.2c.4 0 .7-.1 1-.2.3-.2.6-.4.8-.7s.4-.7.5-1.1c.1-.4.2-.9.2-1.5 0-.5 0-.9-.1-1.3s-.2-.7-.4-1c-.2-.3-.4-.5-.7-.7-.3-.2-.6-.2-1.1-.2-.7 0-1.5.4-2.3 1.2v4.6c.4.3.8.6 1.1.7.3.1.7.2 1 .2zm9.9 1.2c-.6 0-1.1-.1-1.6-.3-.5-.2-1-.5-1.3-.9-.4-.4-.7-.9-.9-1.4s-.3-1.2-.3-1.9.1-1.4.3-1.9c.2-.6.5-1.1.9-1.4.4-.4.8-.7 1.2-.9.5-.2 1-.3 1.5-.3.6 0 1 .1 1.5.3s.8.5 1.1.8c.3.4.5.8.7 1.3s.2 1.1.2 1.7v.9H828c.1.9.4 1.7.9 2.2.5.5 1.2.8 2 .8.4 0 .8-.1 1.2-.2s.7-.3 1-.5l.5 1c-.4.2-.8.5-1.3.6-.6 0-1.1.1-1.7.1zm-2.8-5.3h4.7c0-.9-.2-1.6-.6-2-.4-.5-.9-.7-1.6-.7-.3 0-.6.1-.9.2-.3.1-.5.3-.8.5-.2.2-.4.5-.6.9-.1.3-.2.7-.2 1.1zm8.1 5.1v-8.7h1.2l.1 1.6h.1c.3-.6.7-1 1.1-1.3.4-.3.9-.5 1.4-.5.3 0 .7.1.9.2l-.3 1.3c-.1 0-.3-.1-.4-.1h-.5c-.4 0-.8.1-1.2.5s-.8.8-1.1 1.6v5.6h-1.3zm9.1 0v-.9l2.3-2.3c.7-.7 1.2-1.3 1.7-1.9.5-.6.8-1.1 1-1.6s.4-1 .4-1.4c0-.7-.2-1.2-.5-1.6-.4-.4-.9-.6-1.6-.6-.5 0-.9.1-1.3.4s-.8.6-1.1 1l-.8-.8c.5-.5 1-1 1.5-1.3.5-.3 1.2-.5 1.9-.5 1.1 0 1.9.3 2.5.9.6.6.9 1.4.9 2.5 0 .5-.1 1.1-.4 1.6-.2.5-.6 1.1-1 1.7s-.9 1.2-1.5 1.8c-.6.6-1.2 1.3-1.9 2 .3 0 .6 0 1-.1h4.3v1.3H845zm12.7.2c-1.2 0-2.1-.5-2.7-1.5s-1-2.5-1-4.4c0-1.9.3-3.4 1-4.4.6-1 1.6-1.5 2.7-1.5 1.2 0 2.1.5 2.7 1.5.6 1 1 2.5 1 4.4 0 1.9-.3 3.4-1 4.4s-1.5 1.5-2.7 1.5zm0-1.2c.3 0 .6-.1.9-.3.3-.2.5-.5.7-.9.2-.4.4-.9.5-1.5.1-.6.2-1.3.2-2.2s-.1-1.6-.2-2.2c-.1-.6-.3-1.1-.5-1.5-.2-.4-.4-.7-.7-.8-.3-.2-.6-.3-.9-.3s-.6.1-.9.3c-.3.2-.5.5-.7.8-.2.4-.4.9-.5 1.5-.1.6-.2 1.3-.2 2.2 0 1.7.2 2.9.6 3.7.5.9 1.1 1.2 1.7 1.2zm5.9 1V758h2.6v-8.5h-2.1v-1c.5-.1 1-.2 1.4-.4.4-.1.7-.3 1.1-.5h1.1V758h2.4v1.2h-6.5zm12.4.2c-.6 0-1.1-.1-1.6-.3-.5-.2-.9-.6-1.3-1-.4-.5-.6-1-.8-1.7-.2-.7-.3-1.5-.3-2.4 0-1.2.1-2.1.4-2.9.2-.8.6-1.5 1-2s.9-.9 1.4-1.1c.5-.2 1.1-.4 1.6-.4.6 0 1.2.1 1.6.4.5.2.8.5 1.2.9l-.8.9c-.2-.3-.5-.5-.9-.7-.3-.2-.7-.2-1-.2-.4 0-.8.1-1.1.3-.4.2-.7.4-1 .8-.3.4-.5.9-.7 1.5s-.3 1.4-.3 2.3c.4-.4.8-.8 1.3-1.1.5-.3 1-.4 1.4-.4 1 0 1.8.3 2.4.9.6.6.9 1.5.9 2.7 0 .6-.1 1.1-.3 1.5-.2.4-.4.8-.7 1.2-.3.3-.7.6-1.1.8-.4-.1-.9 0-1.3 0zm0-1.1c.3 0 .6-.1.8-.2.2-.1.5-.3.6-.5.2-.2.3-.5.4-.8.1-.3.2-.7.2-1 0-.8-.2-1.3-.5-1.8-.3-.4-.9-.6-1.6-.6-.4 0-.8.1-1.2.4-.4.2-.8.6-1.2 1.2.1 1.1.4 2 .8 2.6s.9.7 1.7.7zm208.6 134.4v-14.1h-4.8V877h11.5v1.7h-4.8v14.1h-1.9zm9.6 0V877h2v6.6h7.3V877h2v15.7h-2v-7.4h-7.3v7.4h-2zm15.6 0V877h9.1v1.7h-7.1v4.9h6v1.7h-6v5.7h7.3v1.7h-9.3zm17.4 0V877h4.7c.8 0 1.5.1 2.2.2s1.2.4 1.7.7c.5.3.8.7 1.1 1.2s.4 1.1.4 1.8c0 .8-.2 1.5-.6 2.1-.4.6-1 1.1-1.7 1.3v.1c1 .2 1.7.6 2.3 1.2s.9 1.5.9 2.6c0 .8-.1 1.4-.4 2s-.7 1.1-1.2 1.4c-.5.4-1.2.7-1.9.9-.7.2-1.5.3-2.4.3h-5.1zm2-9h2.3c1.3 0 2.3-.2 2.9-.7s.9-1.1.9-1.9c0-.9-.3-1.6-.9-1.9-.6-.4-1.5-.6-2.8-.6h-2.4v5.1zm0 7.4h2.7c1.4 0 2.4-.3 3.2-.8.8-.5 1.1-1.3 1.1-2.3 0-1-.4-1.7-1.1-2.1-.7-.5-1.8-.7-3.2-.7h-2.7v5.9zm12.2 1.6V877h9.1v1.7h-7.1v4.9h6v1.7h-6v5.7h7.3v1.7h-9.3zm18.8.3c-1 0-2-.2-2.9-.6s-1.6-.9-2.2-1.6c-.6-.7-1.1-1.6-1.5-2.6s-.5-2.2-.5-3.4c0-1.3.2-2.4.5-3.4.4-1 .9-1.9 1.5-2.6.6-.7 1.4-1.2 2.3-1.6.9-.4 1.9-.6 2.9-.6.5 0 1 .1 1.5.2s.9.3 1.2.4c.4.2.7.4 1 .6.3.2.6.5.8.7l-1.1 1.3c-.4-.4-.9-.8-1.4-1.1-.5-.3-1.2-.4-2-.4s-1.5.1-2.2.4c-.6.3-1.2.7-1.6 1.3-.4.6-.8 1.2-1 2-.2.8-.4 1.7-.4 2.6 0 1 .1 1.9.3 2.7.2.8.6 1.5 1 2 .4.6 1 1 1.6 1.3.6.3 1.4.5 2.2.5.6 0 1.1-.1 1.6-.3s.9-.4 1.2-.7V886h-3.3v-1.7h5.2v6.6c-.5.5-1.2 1-2 1.3-.7.6-1.6.8-2.7.8zm8.6-.3V877h2v15.7h-2zm6.3 0V877h2.1l5.7 9.9 1.7 3.3h.1c0-.8-.1-1.6-.2-2.5-.1-.9-.1-1.7-.1-2.5V877h1.9v15.7h-2.1l-5.7-9.9-1.7-3.2h-.1c.1.8.1 1.6.2 2.4.1.8.1 1.7.1 2.5v8.2h-1.9zm15.6 0V877h2.1l5.7 9.9 1.7 3.3h.1c0-.8-.1-1.6-.2-2.5-.1-.9-.1-1.7-.1-2.5V877h1.9v15.7h-2.1l-5.7-9.9-1.7-3.2h-.1c.1.8.1 1.6.2 2.4.1.8.1 1.7.1 2.5v8.2h-1.9zm15.5 0V877h2v15.7h-2zm6.3 0V877h2.1l5.7 9.9 1.7 3.3h.1c0-.8-.1-1.6-.2-2.5-.1-.9-.1-1.7-.1-2.5V877h1.9v15.7h-2.1l-5.7-9.9-1.7-3.2h-.1c.1.8.1 1.6.2 2.4.1.8.1 1.7.1 2.5v8.2h-1.9zm21.7.3c-1 0-2-.2-2.9-.6-.9-.4-1.6-.9-2.2-1.6-.6-.7-1.1-1.6-1.5-2.6-.4-1-.5-2.2-.5-3.4 0-1.3.2-2.4.5-3.4s.9-1.9 1.5-2.6c.6-.7 1.4-1.2 2.3-1.6.9-.4 1.9-.6 2.9-.6.5 0 1 .1 1.5.2s.9.3 1.2.4c.4.2.7.4 1 .6.3.2.6.5.8.7l-1.1 1.3c-.4-.4-.9-.8-1.4-1.1-.5-.3-1.2-.4-2-.4s-1.5.1-2.2.4c-.6.3-1.2.7-1.6 1.3-.4.6-.8 1.2-1 2-.2.8-.4 1.7-.4 2.6 0 1 .1 1.9.3 2.7.2.8.6 1.5 1 2 .4.6 1 1 1.6 1.3.6.3 1.4.5 2.2.5.6 0 1.1-.1 1.6-.3s.9-.4 1.2-.7V886h-3.3v-1.7h5.2v6.6c-.5.5-1.2 1-2 1.3-.7.6-1.6.8-2.7.8zm19.2 0c-1 0-1.9-.2-2.7-.6-.8-.4-1.5-.9-2.1-1.6-.6-.7-1.1-1.6-1.4-2.6-.3-1-.5-2.2-.5-3.4 0-1.3.2-2.4.5-3.4s.8-1.8 1.4-2.5c.6-.7 1.3-1.2 2.1-1.6.8-.4 1.7-.6 2.7-.6s1.9.2 2.7.6c.8.4 1.5.9 2.1 1.6.6.7 1.1 1.5 1.4 2.5.3 1 .5 2.1.5 3.4 0 1.3-.2 2.4-.5 3.4s-.8 1.9-1.4 2.6-1.3 1.3-2.1 1.6c-.8.4-1.7.6-2.7.6zm0-1.8c.7 0 1.3-.2 1.9-.5s1.1-.7 1.5-1.3c.4-.6.7-1.2.9-2s.3-1.7.3-2.7c0-1-.1-1.9-.3-2.6s-.5-1.4-.9-2-.9-1-1.5-1.3-1.2-.4-1.9-.4-1.3.1-1.9.4c-.6.3-1.1.7-1.5 1.3s-.7 1.2-.9 2c-.2.8-.3 1.7-.3 2.6 0 1 .1 1.9.3 2.7.2.8.5 1.5.9 2 .4.6.9 1 1.5 1.3.6.4 1.2.5 1.9.5zm10.2 1.5V877h9.1v1.7h-7.1v5.3h6v1.7h-6v7.1h-2zm-177.5 28.8v-15.7h2v15.7h-2zm12.5.3c-1 0-2-.2-2.9-.6-.9-.4-1.6-.9-2.2-1.6-.6-.7-1.1-1.6-1.5-2.6-.4-1-.5-2.2-.5-3.4 0-1.3.2-2.4.5-3.4.4-1 .9-1.9 1.5-2.6.6-.7 1.4-1.2 2.3-1.6s1.9-.6 2.9-.6c.5 0 1 .1 1.5.2s.9.3 1.2.4c.4.2.7.4 1 .6.3.2.6.5.8.7l-1.1 1.3c-.4-.4-.9-.8-1.4-1.1-.5-.3-1.2-.4-2-.4s-1.5.1-2.2.4c-.6.3-1.2.7-1.6 1.3-.4.6-.8 1.2-1 2-.2.8-.4 1.7-.4 2.6 0 1 .1 1.9.3 2.7.2.8.6 1.5 1 2s1 1 1.6 1.3 1.4.5 2.2.5c.6 0 1.1-.1 1.6-.3s.9-.4 1.2-.7V915h-3.3v-1.7h5.2v6.6c-.5.5-1.2 1-2 1.3-.7.4-1.7.6-2.7.6zm8.6-.3v-15.7h2v14h6.9v1.7h-8.9zm16.6.3c-.8 0-1.5-.1-2.2-.3-.7-.2-1.3-.6-1.8-1.2s-.9-1.2-1.2-2.1-.4-1.9-.4-3.2v-9.2h2v9.3c0 .9.1 1.7.3 2.4.2.6.5 1.2.8 1.5.3.4.7.7 1.2.8s.9.3 1.4.3c.5 0 1-.1 1.5-.3.4-.2.8-.4 1.2-.8s.6-.9.8-1.5c.2-.6.3-1.4.3-2.4v-9.3h1.9v9.2c0 1.3-.1 2.3-.4 3.2-.3.9-.7 1.6-1.2 2.1s-1.1.9-1.8 1.2-1.6.3-2.4.3zm8.7-5.5v-1.5h5.5v1.5h-5.5zm6.2 5.2l4.6-8.1-4.3-7.6h2.2l2.1 4c.2.4.4.7.6 1.1.2.3.4.7.6 1.2h.1c.2-.5.4-.9.6-1.2.2-.3.3-.7.5-1.1l2.1-4h2.1l-4.3 7.7 4.6 8h-2.2l-2.3-4.2-.6-1.2c-.2-.4-.5-.9-.7-1.3h-.1c-.2.5-.4.9-.6 1.3l-.6 1.2-2.3 4.2h-2.1zm22.1 0v-14.1h-4.8v-1.7h11.5v1.7h-4.8v14.1h-1.9zm9.6 0v-15.7h9.1v1.7h-7.1v4.9h6v1.7h-6v5.7h7.3v1.7h-9.3zm10.6 0l5.3-15.7h2.3l5.3 15.7h-2.1l-1.5-4.8h-5.7l-1.5 4.8h-2.1zm4.8-8.8l-.7 2.4h4.7l-.7-2.4c-.3-.9-.6-1.8-.8-2.6-.3-.9-.5-1.8-.8-2.7h-.1c-.2.9-.5 1.8-.7 2.7-.3.8-.6 1.7-.9 2.6zm10.4 8.8v-15.7h2.4l3 8.4c.2.5.4 1.1.6 1.6.2.6.4 1.1.6 1.6h.1c.2-.5.4-1.1.5-1.6.2-.6.3-1.1.5-1.6l3-8.4h2.4v15.7h-1.9v-8.7c0-.7 0-1.5.1-2.3.1-.8.1-1.6.2-2.3h-.1l-1.2 3.6-3 8.2h-1.3l-3-8.2-1.2-3.6h-.1c0 .7.1 1.5.2 2.3.1.8.1 1.6.1 2.3v8.7h-1.9zM1082.9 867c-1.5 0-2.6-.6-3.3-1.9l1.1-.8c.3.5.6.8.9 1 .3.2.7.3 1.1.3.6 0 1.1-.2 1.4-.6.3-.4.5-1 .5-1.9V855h1.5v8.3c0 .5-.1 1-.2 1.4-.1.5-.3.8-.6 1.2-.3.3-.6.6-1 .8s-.8.3-1.4.3zm8.4 0c-.7 0-1.3-.2-1.8-.6-.5-.4-.7-1-.7-1.8 0-1 .4-1.7 1.3-2.2s2.2-.9 4.1-1.1c0-.3 0-.5-.1-.8-.1-.3-.1-.5-.3-.7-.1-.2-.3-.4-.5-.5-.2-.1-.5-.2-.9-.2-.5 0-1 .1-1.4.3l-1.2.6-.6-1c.4-.3.9-.5 1.5-.8s1.2-.4 1.9-.4c1.1 0 1.8.3 2.3 1 .5.7.7 1.5.7 2.6v5.4h-1.2l-.1-1h-.1c-.4.3-.9.6-1.3.9s-1.1.3-1.6.3zm.4-1.2c.4 0 .8-.1 1.2-.3.4-.2.8-.5 1.2-.9v-2.4c-.7.1-1.3.2-1.8.3-.5.1-.9.3-1.2.5s-.5.4-.7.6c-.1.2-.2.5-.2.8 0 .5.2.9.5 1.1s.6.3 1 .3zm6.6 1V858h1.2l.1 1.3h.1c.4-.4.9-.8 1.3-1.1.5-.3 1-.4 1.6-.4.9 0 1.6.3 2 .9s.6 1.4.6 2.6v5.5h-1.5v-5.3c0-.8-.1-1.4-.4-1.8-.3-.4-.7-.5-1.3-.5-.5 0-.9.1-1.2.3-.3.2-.7.6-1.2 1v6.3h-1.3zm12.4.2c-.9 0-1.6-.3-2-.9-.4-.6-.6-1.4-.6-2.6V858h1.5v5.3c0 .8.1 1.4.4 1.8.3.4.7.5 1.3.5.5 0 .9-.1 1.2-.4.3-.2.7-.6 1.2-1.1V858h1.5v8.7h-1.2l-.1-1.4h-.1c-.4.5-.8.9-1.3 1.2-.6.4-1.2.5-1.8.5zm9.3 0c-.7 0-1.3-.2-1.8-.6-.5-.4-.7-1-.7-1.8 0-1 .4-1.7 1.3-2.2.9-.5 2.2-.9 4.1-1.1 0-.3 0-.5-.1-.8-.1-.3-.1-.5-.3-.7-.1-.2-.3-.4-.5-.5s-.5-.2-.9-.2c-.5 0-1 .1-1.4.3l-1.2.6-.6-1c.4-.3.9-.5 1.5-.8.6-.2 1.2-.4 1.9-.4 1.1 0 1.8.3 2.3 1 .5.7.7 1.5.7 2.6v5.4h-1.2l-.1-1h-.1c-.4.3-.9.6-1.4.9-.5.2-1 .3-1.5.3zm.4-1.2c.4 0 .8-.1 1.2-.3.4-.2.8-.5 1.2-.9v-2.4c-.7.1-1.3.2-1.8.3-.5.1-.9.3-1.2.5-.3.2-.5.4-.7.6-.1.2-.2.5-.2.8 0 .5.2.9.5 1.1.2.2.6.3 1 .3zm6.6 1V858h1.2l.1 1.6h.1c.3-.6.7-1 1.1-1.3.4-.3.9-.5 1.4-.5.3 0 .7.1.9.2l-.3 1.3c-.1 0-.3-.1-.4-.1h-.4c-.4 0-.8.2-1.2.5-.4.3-.8.8-1.1 1.6v5.6h-1.4zm6.9 3.8h-.6c-.2 0-.3-.1-.5-.1l.3-1.2c.1 0 .2.1.3.1h.3c.5 0 .9-.2 1.2-.5s.6-.8.7-1.3l.2-.6-3.5-8.8h1.5l1.8 4.8c.1.4.3.8.4 1.2.1.4.3.8.4 1.3h.1c.1-.4.3-.8.4-1.2.1-.4.2-.8.4-1.2l1.6-4.8h1.4l-3.3 9.5c-.2.4-.3.8-.5 1.2-.2.4-.4.7-.7 1s-.6.5-.9.6c-.2-.1-.6 0-1 0zm11.1-3.8v-.9l2.3-2.3c.7-.7 1.2-1.3 1.7-1.9.5-.6.8-1.1 1-1.6.2-.5.4-1 .4-1.4 0-.7-.2-1.2-.5-1.6-.4-.4-.9-.6-1.6-.6-.5 0-.9.1-1.3.4-.4.3-.8.6-1.1 1l-.8-.8c.5-.5 1-1 1.5-1.3.5-.3 1.2-.5 1.9-.5 1.1 0 1.9.3 2.5.9s.9 1.4.9 2.5c0 .5-.1 1.1-.4 1.6-.2.5-.6 1.1-1 1.7-.4.6-.9 1.2-1.5 1.8-.6.6-1.2 1.3-1.9 2 .3 0 .6 0 1-.1s.7 0 1 0h3.3v1.3h-7.4zm12.7.2c-1.2 0-2.1-.5-2.7-1.5-.6-1-1-2.5-1-4.4s.3-3.4 1-4.4c.6-1 1.6-1.5 2.7-1.5 1.2 0 2.1.5 2.7 1.5.6 1 1 2.5 1 4.4s-.3 3.4-1 4.4c-.7 1-1.6 1.5-2.7 1.5zm0-1.2c.3 0 .6-.1.9-.3.3-.2.5-.5.7-.9s.4-.9.5-1.5c.1-.6.2-1.3.2-2.2 0-.8-.1-1.6-.2-2.2-.1-.6-.3-1.1-.5-1.5s-.4-.7-.7-.8c-.3-.2-.6-.3-.9-.3s-.6.1-.9.3c-.3.2-.5.5-.7.8-.2.4-.4.9-.5 1.5-.1.6-.2 1.3-.2 2.2 0 1.7.2 2.9.6 3.7s1 1.2 1.7 1.2zm5.9 1v-1.2h2.6v-8.5h-2.1v-1c.5-.1 1-.2 1.4-.4.4-.1.7-.3 1.1-.5h1.1v10.3h2.4v1.2h-6.5zm12 .2c-.5 0-1-.1-1.5-.2-.5-.2-.9-.4-1.2-.7-.3-.3-.6-.6-.8-1-.2-.4-.3-.8-.3-1.3 0-.4.1-.7.2-1 .1-.3.3-.6.5-.9.2-.3.4-.5.7-.7.3-.2.5-.4.8-.5v-.1c-.4-.3-.8-.7-1.1-1.1s-.5-.9-.5-1.6c0-.4.1-.8.3-1.2.2-.4.4-.7.7-.9.3-.3.6-.5 1-.6.4-.1.8-.2 1.3-.2s1 .1 1.3.2.7.4 1 .6c.3.3.5.6.6 1s.2.8.2 1.2c0 .3-.1.6-.2.9-.1.3-.2.5-.4.8-.2.2-.3.5-.5.6l-.5.5v.1c.3.1.5.3.7.5.2.2.5.4.6.6.2.2.3.5.5.8.1.3.2.6.2 1s-.1.8-.3 1.2-.4.7-.8 1c-.3.3-.7.5-1.2.6-.3.3-.8.4-1.3.4zm0-1.1c.7 0 1.2-.2 1.6-.6s.6-.9.6-1.5c0-.4-.1-.7-.3-1s-.4-.5-.7-.7c-.3-.2-.6-.4-1-.5s-.8-.3-1.2-.5c-.5.3-.8.7-1.1 1.1s-.5.9-.5 1.4c0 .3.1.6.2.9.1.3.3.5.5.7.2.2.5.4.8.5.5.2.8.2 1.1.2zm.8-5.4c.4-.3.7-.7.9-1.1.2-.4.3-.8.3-1.2 0-.6-.2-1.1-.5-1.4-.3-.4-.8-.6-1.5-.6-.5 0-1 .2-1.3.5s-.5.8-.5 1.3c0 .3.1.6.2.9.1.2.3.5.6.7s.5.4.8.5c.3.2.7.3 1 .4zM871.7 115.3c-2.4 0-4.4-.5-6-1.4-1.6-.9-3-2.4-4.1-4.3l4.8-3.6c.6 1.1 1.2 1.8 2 2.4.8.5 1.6.8 2.4.8 1.3 0 2.2-.4 2.9-1.2.7-.8 1-2.2 1-4.3V83.5h7.1v20.9c0 1.5-.2 2.9-.6 4.3-.4 1.3-1 2.5-1.8 3.5s-1.9 1.8-3.1 2.4-2.9.7-4.6.7zm30 0c-2.1 0-4-.4-5.8-1.1s-3.2-1.8-4.5-3.2-2.2-3.1-2.9-5.1c-.7-2-1-4.3-1-6.9 0-2.6.3-4.8 1-6.8s1.7-3.7 2.9-5c1.2-1.4 2.7-2.4 4.5-3.1 1.7-.7 3.7-1.1 5.8-1.1 2.1 0 4 .4 5.8 1.1 1.7.7 3.2 1.8 4.5 3.1 1.2 1.4 2.2 3.1 2.9 5.1.7 2 1 4.3 1 6.8 0 2.6-.3 4.8-1 6.9-.7 2-1.7 3.7-2.9 5.1s-2.7 2.5-4.5 3.2c-1.8.7-3.7 1-5.8 1zm0-6.1c2.1 0 3.8-.9 5.1-2.8 1.2-1.8 1.9-4.3 1.9-7.5 0-3.1-.6-5.6-1.9-7.3-1.2-1.8-2.9-2.6-5.1-2.6-2.1 0-3.8.9-5.1 2.6-1.2 1.8-1.9 4.2-1.9 7.3 0 3.2.6 5.7 1.9 7.5 1.3 1.9 3 2.8 5.1 2.8zm32.4 6.1c-4.1 0-7.2-1.2-9.3-3.6-2.1-2.4-3.2-6.2-3.2-11.5V83.5h7.1V101c0 3.1.5 5.2 1.4 6.4.9 1.2 2.3 1.8 4 1.8s3.1-.6 4.1-1.8c1-1.2 1.4-3.4 1.4-6.4V83.5h6.8v16.8c0 5.2-1 9.1-3.1 11.5-2.1 2.3-5.1 3.5-9.2 3.5zm19.6-.5V83.5H965c1.7 0 3.2.2 4.7.5s2.7.9 3.8 1.6c1.1.8 2 1.8 2.6 3 .6 1.2 1 2.8 1 4.7 0 2.3-.5 4.2-1.5 5.7s-2.4 2.6-4.1 3.3l7.1 12.5h-7.9l-6-11.3h-3.9v11.3h-7.1zm7.1-16.9h3.6c1.9 0 3.3-.4 4.2-1.2 1-.8 1.5-1.9 1.5-3.5s-.5-2.6-1.5-3.2c-1-.6-2.4-.9-4.2-.9h-3.6v8.8zm22.4 16.9V83.5h7.2l8.2 15.6 3.1 6.9h.2c-.2-1.7-.3-3.5-.6-5.6-.2-2-.3-4-.3-5.9v-11h6.7v31.3h-7.2l-8.2-15.6-3.1-6.8h-.2c.2 1.7.3 3.6.6 5.6.2 2 .3 3.9.3 5.8v11.1h-6.7zm31.9 0V83.5h19.6v6h-12.5v6.3h10.7v5.9h-10.7v7.2h13v6h-20.1zm31.7 0v-11.1l-9.5-20.2h7.6l2.8 7.2c.4 1.2.9 2.3 1.3 3.4s.8 2.3 1.3 3.5h.2c.4-1.2.9-2.4 1.3-3.5s.9-2.2 1.3-3.4l2.8-7.2h7.4l-9.5 20.2v11.1h-7zM1003.7 996.9l-23.9-36.6 12.5-36.8 9-34.9-27.7-35.8 13.4-37 11-35.4-6.9-35.5-.8-36.3 11.1-36-1.4-35.1-17.4-35.8 1-36.2-6.4-35.6-6.2-36.5 15.8-36.2 3.5-35.1-11.9-35.8.2-36.3 2.6-35.5-11.1-36.3 22.6-36.1-7.2-34.9-14.8-35.6 3.7-1.5 14.9 35.9.1.2 7.6 36.6-22.5 35.9 10.8 35.3-2.7 36.2-.2 35.5 12 35.9-.1.4-3.6 36.2-15.5 35.7 5.9 35.3 6.5 36v.2l-1 35.4 17.4 35.7v.5l1.4 36.2-.1.3-11 35.6.8 35.4 7.1 36.2-11.5 36.4-12.6 35 27.5 35.6-9.5 37-11.8 35.1 22.8 34.9z"/><linearGradient id="SVGID_2_" gradientUnits="userSpaceOnUse" x1="495.261" y1="1445.2" x2="495.261" y2="1318.644" gradientTransform="translate(494.232 -447.767)"><stop offset="0" stop-color="#2096d4"/><stop offset="1" stop-color="#2096d4" stop-opacity="0"/></linearGradient><path fill="url(#SVGID_2_)" d="M933 866.8h113v142.9H933z"/></svg>