<svg id="Layer_1" xmlns="http://www.w3.org/2000/svg" viewBox="0 0 1919.2 1072.9"><style>.st15{fill:#fff}</style><path fill="#2096d4" d="M0 .8h1919.2v1072.9H0z"/><linearGradient id="SVGID_1_" gradientUnits="userSpaceOnUse" x1="1228.496" y1="803.476" x2="1228.496" y2="708.045" gradientTransform="translate(-239.003 191.787)"><stop offset="0" stop-color="#2096d4"/><stop offset="1" stop-color="#2096d4" stop-opacity="0"/></linearGradient><path fill="url(#SVGID_1_)" d="M961.1 896.8h56.8v107.7h-56.8z"/><path class="st15" d="M933.5 276c1.5 0 2.7 1.2 2.7 2.7s-1.2 2.7-2.7 2.7-2.7-1.2-2.7-2.7 1.2-2.7 2.7-2.7m0-2c-2.6 0-4.7 2.1-4.7 4.7s2.1 4.7 4.7 4.7 4.7-2.1 4.7-4.7c0-2.5-2.1-4.7-4.7-4.7zM656.6 282.8v-14.1h-4.8V267h11.5v1.7h-4.8v14.1h-1.9zM666.2 282.8v-15.7h2v6.6h7.3v-6.6h2v15.7h-2v-7.4h-7.3v7.4h-2zM681.9 282.8v-15.7h9.1v1.7h-7.1v4.9h6v1.7h-6v5.7h7.3v1.7h-9.3zM699.3 282.8v-15.7h4.7c.8 0 1.5.1 2.2.2.7.1 1.2.4 1.7.7.5.3.8.7 1.1 1.2.3.5.4 1.1.4 1.8 0 .8-.2 1.5-.6 2.1-.4.6-1 1.1-1.7 1.3v.1c1 .2 1.7.6 2.3 1.2s.9 1.5.9 2.6c0 .8-.1 1.4-.4 2-.3.6-.7 1.1-1.2 1.4-.5.4-1.2.7-1.9.9-.7.2-1.5.3-2.4.3h-5.1zm2-9h2.3c1.3 0 2.3-.2 2.9-.7.6-.5.9-1.1.9-1.9 0-.9-.3-1.6-.9-1.9-.6-.4-1.5-.6-2.8-.6h-2.4v5.1zm0 7.4h2.7c1.4 0 2.4-.3 3.2-.8.8-.5 1.1-1.3 1.1-2.3 0-1-.4-1.7-1.1-2.1-.7-.5-1.8-.7-3.2-.7h-2.7v5.9zM713.4 282.8v-15.7h9.1v1.7h-7.1v4.9h6v1.7h-6v5.7h7.3v1.7h-9.3zM732.3 283.1c-1 0-2-.2-2.9-.6-.9-.4-1.6-.9-2.2-1.6-.6-.7-1.1-1.6-1.5-2.6-.4-1-.5-2.2-.5-3.4 0-1.3.2-2.4.5-3.4.4-1 .9-1.9 1.5-2.6.6-.7 1.4-1.2 2.3-1.6.9-.4 1.9-.6 2.9-.6.5 0 1 .1 1.5.2s.9.3 1.2.4c.4.2.7.4 1 .6s.6.5.8.7l-1.1 1.3c-.4-.4-.9-.8-1.4-1.1-.5-.3-1.2-.4-2-.4s-1.5.1-2.2.4c-.6.3-1.2.7-1.6 1.3s-.8 1.2-1 2c-.2.8-.4 1.7-.4 2.6 0 1 .1 1.9.3 2.7.2.8.6 1.5 1 2 .4.6 1 1 1.6 1.3.6.3 1.4.5 2.2.5.6 0 1.1-.1 1.6-.3s.9-.4 1.2-.7v-4.1h-3.3v-1.7h5.2v6.6c-.5.5-1.2 1-2 1.3-.7.6-1.7.8-2.7.8zM740.9 282.8v-15.7h2v15.7h-2zM747.2 282.8v-15.7h2.1l5.7 9.9 1.7 3.3h.1c0-.8-.1-1.6-.2-2.5-.1-.9-.1-1.7-.1-2.5v-8.1h1.9v15.7h-2.1l-5.7-9.9-1.7-3.2h-.1c.1.8.1 1.6.2 2.4.1.8.1 1.7.1 2.5v8.2h-1.9zM762.7 282.8v-15.7h2.1l5.7 9.9 1.7 3.3h.1c0-.8-.1-1.6-.2-2.5-.1-.9-.1-1.7-.1-2.5v-8.1h1.9v15.7h-2.1l-5.7-9.9-1.7-3.2h-.1c.1.8.1 1.6.2 2.4.1.8.1 1.7.1 2.5v8.2h-1.9zM778.2 282.8v-15.7h2v15.7h-2zM784.5 282.8v-15.7h2.1l5.7 9.9 1.7 3.3h.1c0-.8-.1-1.6-.2-2.5-.1-.9-.1-1.7-.1-2.5v-8.1h1.9v15.7h-2.1l-5.7-9.9-1.7-3.2h-.1c.1.8.1 1.6.2 2.4.1.8.1 1.7.1 2.5v8.2h-1.9zM806.3 283.1c-1 0-2-.2-2.9-.6-.9-.4-1.6-.9-2.2-1.6-.6-.7-1.1-1.6-1.5-2.6-.4-1-.5-2.2-.5-3.4 0-1.3.2-2.4.5-3.4.4-1 .9-1.9 1.5-2.6s1.4-1.2 2.3-1.6c.9-.4 1.9-.6 2.9-.6.5 0 1 .1 1.5.2s.9.3 1.2.4c.4.2.7.4 1 .6.3.2.6.5.8.7l-1.1 1.3c-.4-.4-.9-.8-1.4-1.1-.5-.3-1.2-.4-2-.4s-1.5.1-2.2.4c-.6.3-1.2.7-1.6 1.3-.4.6-.8 1.2-1 2-.2.8-.4 1.7-.4 2.6 0 1 .1 1.9.3 2.7.2.8.6 1.5 1 2 .4.6 1 1 1.6 1.3.6.3 1.4.5 2.2.5.6 0 1.1-.1 1.6-.3s.9-.4 1.2-.7v-4.1H806v-1.7h5.2v6.6c-.5.5-1.2 1-2 1.3-.9.6-1.9.8-2.9.8zM825.5 283.1c-1 0-1.9-.2-2.7-.6s-1.5-.9-2.1-1.6c-.6-.7-1.1-1.6-1.4-2.6s-.5-2.2-.5-3.4c0-1.3.2-2.4.5-3.4s.8-1.8 1.4-2.5c.6-.7 1.3-1.2 2.1-1.6.8-.4 1.7-.6 2.7-.6s1.9.2 2.7.6 1.5.9 2.1 1.6c.6.7 1.1 1.5 1.4 2.5.3 1 .5 2.1.5 3.4 0 1.3-.2 2.4-.5 3.4s-.8 1.9-1.4 2.6-1.3 1.3-2.1 1.6-1.7.6-2.7.6zm0-1.8c.7 0 1.3-.2 1.9-.5s1.1-.7 1.5-1.3.7-1.2.9-2 .3-1.7.3-2.7c0-1-.1-1.9-.3-2.6-.2-.8-.5-1.4-.9-2-.4-.5-.9-1-1.5-1.3s-1.2-.4-1.9-.4-1.3.1-1.9.4c-.6.3-1.1.7-1.5 1.3-.4.5-.7 1.2-.9 2-.2.8-.3 1.7-.3 2.6 0 1 .1 1.9.3 2.7.2.8.5 1.5.9 2s.9 1 1.5 1.3c.6.4 1.2.5 1.9.5zM835.6 282.8v-15.7h9.1v1.7h-7.1v5.3h6v1.7h-6v7.1h-2zM852.3 282.8v-15.7h2v15.7h-2zM864.8 283.1c-1 0-2-.2-2.9-.6-.9-.4-1.6-.9-2.2-1.6-.6-.7-1.1-1.6-1.5-2.6-.4-1-.5-2.2-.5-3.4 0-1.3.2-2.4.5-3.4.4-1 .9-1.9 1.5-2.6.6-.7 1.4-1.2 2.3-1.6s1.9-.6 2.9-.6c.5 0 1 .1 1.5.2s.9.3 1.2.4c.4.2.7.4 1 .6.3.2.6.5.8.7l-1.1 1.3c-.4-.4-.9-.8-1.4-1.1-.5-.3-1.2-.4-2-.4s-1.5.1-2.2.4c-.6.3-1.2.7-1.6 1.3-.4.6-.8 1.2-1 2-.2.8-.4 1.7-.4 2.6 0 1 .1 1.9.3 2.7.2.8.6 1.5 1 2s1 1 1.6 1.3 1.4.5 2.2.5c.6 0 1.1-.1 1.6-.3s.9-.4 1.2-.7v-4.1h-3.3v-1.7h5.2v6.6c-.5.5-1.2 1-2 1.3-.7.6-1.7.8-2.7.8zM873.4 282.8v-15.7h2v14h6.9v1.7h-8.9zM890 283.1c-.8 0-1.5-.1-2.2-.3s-1.3-.6-1.8-1.2-.9-1.2-1.2-2.1c-.3-.9-.4-1.9-.4-3.2v-9.2h2v9.3c0 .9.1 1.7.3 2.4.2.6.5 1.2.8 1.5s.7.7 1.2.8c.4.2.9.3 1.4.3.5 0 1-.1 1.5-.3s.8-.4 1.2-.8.6-.9.8-1.5c.2-.6.3-1.4.3-2.4v-9.3h1.9v9.2c0 1.3-.1 2.3-.4 3.2s-.7 1.6-1.2 2.1-1.1.9-1.8 1.2c-.9.2-1.6.3-2.4.3z"/><g><path class="st15" d="M652.8 256.9v-11.8h1.8l2.3 6.3c.1.4.3.8.4 1.2s.3.8.4 1.2h.1c.1-.4.3-.8.4-1.2s.3-.8.4-1.2l2.2-6.3h1.8v11.8h-1.4v-6.5c0-.5 0-1.1.1-1.7 0-.6.1-1.2.1-1.7h-.1l-.9 2.7-2.2 6.1h-1l-2.2-6.1-.9-2.7h-.1c0 .5.1 1.1.1 1.7 0 .6.1 1.2.1 1.7v6.5h-1.4zM667.8 257.1c-.7 0-1.3-.2-1.8-.6-.5-.4-.7-1-.7-1.8 0-1 .4-1.7 1.3-2.2.9-.5 2.2-.9 4.1-1.1 0-.3 0-.5-.1-.8-.1-.3-.1-.5-.3-.7-.1-.2-.3-.4-.5-.5s-.5-.2-.9-.2c-.5 0-1 .1-1.4.3l-1.2.6-.6-1c.4-.3.9-.5 1.5-.8.6-.2 1.2-.4 1.9-.4 1.1 0 1.8.3 2.3 1 .5.7.7 1.5.7 2.6v5.4h-1.2l-.1-1h-.1c-.4.3-.9.6-1.4.9-.5.2-1 .3-1.5.3zm.4-1.2c.4 0 .8-.1 1.2-.3s.8-.5 1.2-.9v-2.4c-.7.1-1.3.2-1.8.3-.5.1-.9.3-1.2.5-.3.2-.5.4-.7.6-.1.2-.2.5-.2.8 0 .5.2.9.5 1.1.2.2.6.3 1 .3zM674.8 256.9v-8.7h1.2l.1 1.6h.1c.3-.6.7-1 1.1-1.3.4-.3.9-.5 1.4-.5.3 0 .7.1.9.2l-.3 1.3c-.1 0-.3-.1-.4-.1h-.5c-.4 0-.8.2-1.2.5-.4.3-.8.8-1.1 1.6v5.6h-1.3zM684.3 257.1c-.6 0-1.1-.1-1.6-.3-.5-.2-.9-.5-1.3-.9s-.7-.9-.9-1.4-.3-1.2-.3-1.9.1-1.4.3-2c.2-.6.5-1.1.9-1.4.4-.4.8-.7 1.3-.9s1-.3 1.6-.3c.6 0 1.1.1 1.5.3.4.2.8.4 1.1.7l-.8 1c-.3-.2-.5-.4-.8-.6-.3-.1-.6-.2-.9-.2-.4 0-.8.1-1.1.2-.3.2-.6.4-.9.7-.2.3-.4.7-.6 1.1s-.2.9-.2 1.4.1 1 .2 1.4c.1.4.3.8.5 1.1s.5.5.9.7c.3.2.7.2 1.1.2.4 0 .8-.1 1.1-.3s.7-.4.9-.6l.6 1c-.4.3-.8.6-1.3.8s-.7.2-1.3.2zM689.1 256.9v-12.8h1.5v3.5l-.1 1.8c.4-.4.9-.7 1.3-1 .5-.3 1-.4 1.6-.4.9 0 1.6.3 2 .9s.6 1.4.6 2.6v5.5h-1.5v-5.3c0-.8-.1-1.4-.4-1.8-.3-.4-.7-.5-1.3-.5-.5 0-.9.1-1.2.3-.3.2-.7.6-1.2 1v6.3h-1.3zM701.7 256.9v-.9l2.3-2.3c.7-.7 1.2-1.3 1.7-1.9.5-.6.8-1.1 1-1.6.2-.5.4-1 .4-1.4 0-.7-.2-1.2-.5-1.6-.4-.4-.9-.6-1.6-.6-.5 0-.9.1-1.3.4-.4.3-.8.6-1.1 1l-.8-.8c.5-.5 1-1 1.5-1.3.5-.3 1.2-.5 1.9-.5 1.1 0 1.9.3 2.5.9.6.6.9 1.4.9 2.5 0 .5-.1 1.1-.4 1.6-.2.5-.6 1.1-1 1.7-.4.6-.9 1.2-1.5 1.8s-1.2 1.3-1.9 2c.3 0 .6 0 1-.1h4.3v1.3h-7.4zM714.4 257.1c-1.2 0-2.1-.5-2.7-1.5-.6-1-1-2.5-1-4.4s.3-3.4 1-4.4c.6-1 1.6-1.5 2.7-1.5 1.2 0 2.1.5 2.7 1.5.6 1 1 2.5 1 4.4s-.3 3.4-1 4.4c-.6 1-1.5 1.5-2.7 1.5zm0-1.2c.3 0 .6-.1.9-.3.3-.2.5-.5.7-.9.2-.4.4-.9.5-1.5.1-.6.2-1.3.2-2.2s-.1-1.6-.2-2.2c-.1-.6-.3-1.1-.5-1.5-.2-.4-.4-.7-.7-.8-.3-.2-.6-.3-.9-.3s-.6.1-.9.3c-.3.2-.5.5-.7.8-.2.4-.4.9-.5 1.5-.1.6-.2 1.3-.2 2.2 0 1.7.2 2.9.6 3.7.5.8 1.1 1.2 1.7 1.2zM720.3 256.9v-1.2h2.6v-8.5h-2.1v-1c.5-.1 1-.2 1.4-.4.4-.1.7-.3 1.1-.5h1.1v10.3h2.4v1.2h-6.5zM732.1 257.1c-.5 0-.9 0-1.2-.1-.4-.1-.7-.2-1-.4-.3-.2-.6-.3-.8-.5-.2-.2-.5-.4-.7-.6l.8-1c.3.4.8.7 1.2 1 .5.3 1 .4 1.7.4s1.3-.2 1.7-.6c.4-.4.7-.9.7-1.5 0-.3-.1-.6-.2-.9-.1-.3-.3-.5-.6-.7s-.7-.4-1.1-.5c-.5-.1-1-.2-1.7-.2v-1.1c.6 0 1.1-.1 1.5-.2.4-.1.8-.3 1-.5.3-.2.4-.4.5-.7.1-.3.2-.5.2-.8 0-.6-.2-1-.5-1.3-.4-.3-.8-.5-1.4-.5-.5 0-.9.1-1.3.3-.4.2-.8.5-1.1.8l-.8-.9c.4-.4.9-.8 1.5-1 .5-.3 1.1-.4 1.8-.4.5 0 1 .1 1.4.2.4.1.8.3 1.1.6.3.2.5.5.7.9.2.4.3.8.3 1.2 0 .7-.2 1.3-.6 1.7-.4.4-.9.8-1.5 1v.1c.3.1.7.2 1 .4s.6.4.8.6c.2.2.4.5.5.9.1.3.2.7.2 1.1 0 .5-.1 1-.3 1.4s-.5.8-.8 1c-.3.3-.7.5-1.2.6-.8.1-1.3.2-1.8.2z"/></g><g><path class="st15" d="M1018 382.9c1.5 0 2.7 1.2 2.7 2.7s-1.2 2.7-2.7 2.7-2.7-1.2-2.7-2.7 1.2-2.7 2.7-2.7m0-2c-2.6 0-4.7 2.1-4.7 4.7s2.1 4.7 4.7 4.7 4.7-2.1 4.7-4.7-2.1-4.7-4.7-4.7z"/></g><g><path class="st15" d="M933.1 490.5c1.5 0 2.7 1.2 2.7 2.7s-1.2 2.7-2.7 2.7-2.7-1.2-2.7-2.7 1.2-2.7 2.7-2.7m0-2c-2.6 0-4.7 2.1-4.7 4.7s2.1 4.7 4.7 4.7 4.7-2.1 4.7-4.7-2-4.7-4.7-4.7z"/></g><g><path class="st15" d="M1024 601.7c1.5 0 2.7 1.2 2.7 2.7s-1.2 2.7-2.7 2.7c-1.5 0-2.7-1.2-2.7-2.7s1.2-2.7 2.7-2.7m0-2c-2.6 0-4.7 2.1-4.7 4.7s2.1 4.7 4.7 4.7 4.7-2.1 4.7-4.7-2.1-4.7-4.7-4.7z"/></g><g><path class="st15" d="M959.5 777.7c1.5 0 2.7 1.2 2.7 2.7s-1.2 2.7-2.7 2.7-2.7-1.2-2.7-2.7 1.2-2.7 2.7-2.7m0-2c-2.6 0-4.7 2.1-4.7 4.7s2.1 4.7 4.7 4.7 4.7-2.1 4.7-4.7-2.1-4.7-4.7-4.7z"/></g><g><path class="st15" d="M1042.7 885.3c1.5 0 2.7 1.2 2.7 2.7s-1.2 2.7-2.7 2.7c-1.5 0-2.7-1.2-2.7-2.7s1.2-2.7 2.7-2.7m0-2c-2.6 0-4.7 2.1-4.7 4.7s2.1 4.7 4.7 4.7 4.7-2.1 4.7-4.7-2.1-4.7-4.7-4.7z"/></g><g><circle class="st15" cx="973" cy="171" r="4.7"/></g><g><path class="st15" d="M1055.3 390.3v-1.6h3.5v-11.3h-2.8v-1.3c.7-.1 1.3-.3 1.8-.5s1-.4 1.4-.7h1.5v13.7h3.2v1.6h-8.6zM1070.4 390.6c-.8 0-1.6-.2-2.4-.5s-1.4-.7-2-1.2l1-1.3c.5.4 1 .8 1.6 1 .5.3 1.2.4 1.9.4.8 0 1.3-.2 1.7-.5.4-.4.6-.8.6-1.3 0-.3-.1-.6-.2-.8s-.4-.4-.6-.6c-.2-.2-.5-.3-.9-.4-.3-.1-.6-.3-1-.4-.4-.1-.8-.3-1.2-.5-.4-.2-.8-.4-1.1-.7-.3-.3-.6-.6-.8-.9-.2-.4-.3-.8-.3-1.3s.1-.9.3-1.3c.2-.4.4-.8.8-1.1.3-.3.8-.5 1.3-.7s1.1-.3 1.7-.3c.7 0 1.4.1 2 .4.6.3 1.1.6 1.6.9l-.9 1.2c-.4-.3-.8-.6-1.2-.7-.4-.2-.9-.3-1.4-.3-.7 0-1.3.2-1.6.5-.3.3-.5.7-.5 1.2 0 .3.1.5.2.7s.3.4.6.5c.2.2.5.3.8.4.3.1.6.2 1 .4s.8.3 1.3.5c.4.2.8.4 1.1.7.3.3.6.6.8 1 .2.4.3.8.3 1.4 0 .5-.1.9-.3 1.3-.2.4-.5.8-.8 1.1-.4.3-.8.6-1.3.8s-1.5.4-2.1.4zM1080.6 390.6c-.6 0-1.1-.1-1.6-.3s-.8-.5-1-.8c-.3-.3-.5-.7-.6-1.2-.1-.5-.2-1-.2-1.6v-6.5h-1.7v-1.5l1.8-.1.2-3.3h1.7v3.3h3.1v1.6h-3.1v6.5c0 .7.1 1.3.4 1.7.3.4.7.6 1.4.6.2 0 .4 0 .7-.1.2-.1.5-.1.6-.2l.4 1.5c-.3.1-.7.2-1 .3-.4 0-.8.1-1.1.1zM1090 390.3v-15.7h3.9c2.4 0 4.3.7 5.5 2s1.9 3.3 1.9 5.8c0 1.2-.2 2.4-.5 3.3-.3 1-.8 1.8-1.4 2.5-.6.7-1.4 1.2-2.3 1.6s-2 .5-3.1.5h-4zm2-1.6h1.8c1.8 0 3.2-.6 4.1-1.7s1.4-2.7 1.4-4.7-.5-3.5-1.4-4.6c-.9-1.1-2.3-1.6-4.1-1.6h-1.8v12.6zM1104.7 390.3v-15.7h9.1v1.7h-7.1v4.9h6v1.7h-6v5.7h7.3v1.7h-9.3zM1121.8 390.6c-1.1 0-2.1-.2-3.1-.6-.9-.4-1.8-1-2.4-1.7l1.2-1.4c.6.6 1.2 1.1 2 1.4s1.5.5 2.4.5c1 0 1.8-.2 2.4-.7.6-.5.9-1.1.9-1.9 0-.4-.1-.7-.2-1-.1-.3-.3-.5-.6-.7-.2-.2-.5-.4-.8-.5-.3-.2-.7-.3-1-.5l-2.3-1c-.4-.2-.7-.4-1.1-.6-.4-.2-.7-.5-1-.8s-.6-.7-.7-1.1-.3-.9-.3-1.5.1-1.1.4-1.7c.2-.5.6-1 1-1.3.4-.4 1-.7 1.6-.9.6-.2 1.3-.3 2-.3.9 0 1.8.2 2.6.5.8.4 1.5.8 2 1.4l-1.1 1.3c-.5-.5-1-.8-1.6-1.1-.6-.3-1.2-.4-2-.4-.9 0-1.6.2-2.1.6-.5.4-.8 1-.8 1.7 0 .4.1.7.2 1s.4.5.6.7c.3.2.5.4.8.5s.6.3.9.4l2.2 1c.4.2.9.4 1.3.7.4.2.7.5 1 .9.3.3.5.7.7 1.2.2.4.3.9.3 1.5s-.1 1.2-.4 1.8-.6 1-1.1 1.4c-.5.4-1 .7-1.7 1s-1.4.2-2.2.2zM1130.2 390.3v-15.7h2v15.7h-2zM1142.7 390.6c-1 0-2-.2-2.9-.6-.9-.4-1.6-.9-2.2-1.6-.6-.7-1.1-1.6-1.5-2.6-.4-1-.5-2.2-.5-3.4 0-1.3.2-2.4.5-3.4.4-1 .9-1.9 1.5-2.6.6-.7 1.4-1.2 2.3-1.6.9-.4 1.9-.6 2.9-.6.5 0 1 .1 1.5.2s.9.3 1.2.4c.4.2.7.4 1 .6.3.2.6.5.8.7l-1.1 1.3c-.4-.4-.9-.8-1.4-1.1s-1.2-.4-2-.4-1.5.1-2.2.4c-.6.3-1.2.7-1.6 1.3-.4.6-.8 1.2-1 2-.2.8-.4 1.7-.4 2.6 0 1 .1 1.9.3 2.7s.6 1.5 1 2c.4.6 1 1 1.6 1.3.6.3 1.4.5 2.2.5.6 0 1.1-.1 1.6-.3s.9-.4 1.2-.7v-4.1h-3.3v-1.7h5.2v6.6c-.5.5-1.2 1-2 1.3-.7.6-1.6.8-2.7.8zM1151.3 390.3v-15.7h2.1l5.7 9.9 1.7 3.3h.1c0-.8-.1-1.6-.2-2.5-.1-.9-.1-1.7-.1-2.5v-8.1h1.9v15.7h-2.1l-5.7-9.9-1.7-3.2h-.1c.1.8.1 1.6.2 2.4.1.8.1 1.7.1 2.5v8.2h-1.9zM1171.7 390.3v-15.7h4.5c.9 0 1.7.1 2.4.2s1.3.4 1.9.8c.5.4.9.8 1.2 1.4.3.6.4 1.3.4 2.2 0 .8-.1 1.6-.4 2.2-.3.6-.7 1.1-1.2 1.5-.5.4-1.1.7-1.8.9-.7.2-1.5.3-2.4.3h-2.6v6.2h-2zm1.9-7.9h2.4c1.4 0 2.4-.3 3.1-.8.7-.5 1-1.3 1-2.5 0-1.1-.3-1.9-1-2.4-.7-.4-1.7-.7-3.1-.7h-2.3v6.4zM1185.2 390.3v-15.7h4.9c.8 0 1.5.1 2.2.2.7.2 1.3.4 1.8.8s.9.8 1.1 1.4c.3.6.4 1.2.4 2.1 0 1.2-.3 2.2-1 3-.6.7-1.5 1.2-2.6 1.5l4 6.9h-2.3l-3.8-6.6h-2.9v6.6h-1.8zm2-8.3h2.6c1.2 0 2.2-.3 2.8-.8.7-.5 1-1.3 1-2.3 0-1-.3-1.8-1-2.2-.7-.4-1.6-.6-2.8-.6h-2.6v5.9zM1204.7 390.6c-1 0-1.9-.2-2.7-.6s-1.5-.9-2.1-1.6c-.6-.7-1.1-1.6-1.4-2.6-.3-1-.5-2.2-.5-3.4s.2-2.4.5-3.4.8-1.8 1.4-2.5c.6-.7 1.3-1.2 2.1-1.6s1.7-.6 2.7-.6 1.9.2 2.7.6c.8.4 1.5.9 2.1 1.6.6.7 1.1 1.5 1.4 2.5.3 1 .5 2.1.5 3.4 0 1.3-.2 2.4-.5 3.4s-.8 1.9-1.4 2.6-1.3 1.3-2.1 1.6-1.7.6-2.7.6zm0-1.8c.7 0 1.3-.2 1.9-.5.6-.3 1.1-.7 1.5-1.3.4-.6.7-1.2.9-2s.3-1.7.3-2.7c0-1-.1-1.9-.3-2.6-.2-.8-.5-1.4-.9-2s-.9-1-1.5-1.3c-.6-.3-1.2-.4-1.9-.4s-1.3.1-1.9.4c-.6.3-1.1.7-1.5 1.3s-.7 1.2-.9 2c-.2.8-.3 1.7-.3 2.6 0 1 .1 1.9.3 2.7.2.8.5 1.5.9 2 .4.6.9 1 1.5 1.3.6.4 1.2.5 1.9.5zM1216.8 390.6c-2 0-3.4-.8-4.3-2.5l1.4-1c.4.6.8 1.1 1.2 1.4.4.3 1 .4 1.5.4.8 0 1.5-.3 1.9-.8.4-.5.6-1.4.6-2.6v-10.9h2v11.1c0 .7-.1 1.3-.3 1.9-.2.6-.4 1.1-.8 1.6-.3.4-.8.8-1.3 1.1s-1.1.3-1.9.3zM1225.4 390.3v-15.7h9.1v1.7h-7.1v4.9h6v1.7h-6v5.7h7.3v1.7h-9.3zM1244 390.6c-1 0-1.9-.2-2.7-.6-.8-.4-1.6-.9-2.2-1.6-.6-.7-1.1-1.6-1.4-2.6-.3-1-.5-2.2-.5-3.4 0-1.3.2-2.4.5-3.4.4-1 .8-1.9 1.5-2.6.6-.7 1.4-1.2 2.2-1.6.8-.4 1.8-.6 2.8-.6 1 0 1.8.2 2.5.6.7.4 1.3.8 1.8 1.4l-1.1 1.3c-.4-.4-.9-.8-1.4-1.1-.5-.3-1.1-.4-1.8-.4-.8 0-1.4.1-2 .4-.6.3-1.1.7-1.6 1.3-.4.6-.8 1.2-1 2-.2.8-.3 1.7-.3 2.6 0 1 .1 1.9.3 2.7.2.8.6 1.5 1 2 .4.6.9 1 1.5 1.3.6.3 1.3.5 2 .5.8 0 1.4-.2 2-.5.6-.3 1.1-.7 1.6-1.3l1.1 1.2c-.6.7-1.3 1.3-2.1 1.7s-1.7.7-2.7.7zM1254.6 390.3v-14.1h-4.8v-1.7h11.5v1.7h-4.8v14.1h-1.9z"/><g><path class="st15" d="M1057.2 364.6c-1.5 0-2.6-.6-3.3-1.9l1.1-.8c.3.5.6.8.9 1s.7.3 1.1.3c.6 0 1.1-.2 1.4-.6.3-.4.5-1 .5-1.9v-8.2h1.5v8.3c0 .5-.1 1-.2 1.4s-.3.8-.6 1.2c-.3.3-.6.6-1 .8-.3.3-.8.4-1.4.4zM1066.1 364.6c-.9 0-1.6-.3-2-.9-.4-.6-.6-1.4-.6-2.6v-5.5h1.5v5.3c0 .8.1 1.4.4 1.8.3.4.7.5 1.3.5.5 0 .9-.1 1.2-.4.3-.2.7-.6 1.2-1.1v-6.2h1.5v8.7h-1.2l-.1-1.4h-.1c-.4.5-.8.9-1.3 1.2-.7.5-1.2.6-1.8.6zM1073.3 364.4v-8.7h1.2l.1 1.3h.1c.4-.4.9-.8 1.3-1.1.5-.3 1-.4 1.6-.4.9 0 1.6.3 2 .9.4.6.6 1.4.6 2.6v5.5h-1.5V359c0-.8-.1-1.4-.4-1.8-.3-.4-.7-.5-1.3-.5-.5 0-.9.1-1.2.3-.3.2-.7.6-1.2 1v6.3h-1.3zM1086.7 364.6c-.6 0-1.1-.1-1.6-.3-.5-.2-1-.5-1.3-.9-.4-.4-.7-.9-.9-1.4-.2-.6-.3-1.2-.3-1.9s.1-1.4.3-1.9c.2-.6.5-1.1.9-1.4.4-.4.8-.7 1.2-.9.5-.2 1-.3 1.5-.3.6 0 1 .1 1.5.3.4.2.8.5 1.1.8.3.4.5.8.7 1.3s.2 1.1.2 1.7v.9h-5.9c.1.9.4 1.7.9 2.2.5.5 1.2.8 2 .8.4 0 .8-.1 1.2-.2s.7-.3 1-.5l.5 1c-.4.2-.8.5-1.3.6-.6 0-1.1.1-1.7.1zm-2.7-5.3h4.7c0-.9-.2-1.6-.6-2-.4-.5-.9-.7-1.6-.7-.3 0-.6.1-.9.2-.3.1-.5.3-.8.5-.2.2-.4.5-.6.9-.1.3-.2.7-.2 1.1zM1094.9 364.4v-.9l2.3-2.3c.7-.7 1.2-1.3 1.7-1.9.5-.6.8-1.1 1-1.6s.4-1 .4-1.4c0-.7-.2-1.2-.5-1.6-.4-.4-.9-.6-1.6-.6-.5 0-.9.1-1.3.4-.4.3-.8.6-1.1 1l-.8-.8c.5-.5 1-1 1.5-1.3.5-.3 1.2-.5 1.9-.5 1.1 0 1.9.3 2.5.9.6.6.9 1.4.9 2.5 0 .5-.1 1.1-.4 1.6-.2.5-.6 1.1-1 1.7-.4.6-.9 1.2-1.5 1.8-.6.6-1.2 1.3-1.9 2 .3 0 .6 0 1-.1h4.3v1.3h-7.4zM1107.6 364.6c-1.2 0-2.1-.5-2.7-1.5s-1-2.5-1-4.4c0-1.9.3-3.4 1-4.4s1.6-1.5 2.7-1.5c1.2 0 2.1.5 2.7 1.5s1 2.5 1 4.4c0 1.9-.3 3.4-1 4.4s-1.5 1.5-2.7 1.5zm0-1.2c.3 0 .6-.1.9-.3.3-.2.5-.5.7-.9.2-.4.4-.9.5-1.5.1-.6.2-1.3.2-2.2 0-.8-.1-1.6-.2-2.2-.1-.6-.3-1.1-.5-1.5-.2-.4-.4-.7-.7-.8-.3-.2-.6-.3-.9-.3s-.6.1-.9.3c-.3.2-.5.5-.7.8-.2.4-.4.9-.5 1.5s-.2 1.3-.2 2.2c0 1.7.2 2.9.6 3.7.5.8 1.1 1.2 1.7 1.2zM1113.5 364.4v-1.2h2.6v-8.5h-2.1v-1c.5-.1 1-.2 1.4-.4.4-.1.7-.3 1.1-.5h1.1v10.3h2.4v1.2h-6.5zM1126.5 364.4v-3.2h-5.2v-1l4.9-7.3h1.7v7.1h1.6v1.2h-1.6v3.2h-1.4zm-3.6-4.4h3.6v-3.3-1.1c0-.4 0-.8.1-1.1h-.1c-.1.3-.3.5-.5.8s-.3.5-.5.8l-2.6 3.9z"/></g></g><g><path class="st15" d="M734.1 498.4v-1.6h3.5v-11.3h-2.8v-1.3c.7-.1 1.3-.3 1.8-.5s1-.4 1.4-.7h1.5v13.7h3.2v1.6h-8.6zM749.1 498.7c-.8 0-1.6-.2-2.4-.5-.8-.3-1.4-.7-2-1.2l1-1.3c.5.4 1 .8 1.6 1 .5.3 1.2.4 1.9.4.8 0 1.3-.2 1.7-.5.4-.4.6-.8.6-1.3 0-.3-.1-.6-.2-.8l-.6-.6c-.2-.2-.5-.3-.9-.4s-.6-.3-1-.4c-.4-.1-.8-.3-1.2-.5-.4-.2-.8-.4-1.1-.7-.3-.3-.6-.6-.8-.9-.2-.4-.3-.8-.3-1.3s.1-.9.3-1.3c.2-.4.4-.8.8-1.1.3-.3.8-.5 1.3-.7.5-.2 1.1-.3 1.7-.3.7 0 1.4.1 2 .4.6.3 1.1.6 1.6.9l-.9 1.2c-.4-.3-.8-.6-1.2-.7s-.9-.3-1.4-.3c-.7 0-1.3.2-1.6.5-.3.3-.5.7-.5 1.2 0 .3.1.5.2.7s.3.4.6.5c.2.2.5.3.8.4.3.1.6.2 1 .4s.8.3 1.3.5c.4.2.8.4 1.1.7.3.3.6.6.8 1 .2.4.3.8.3 1.4 0 .5-.1.9-.3 1.3-.2.4-.5.8-.8 1.1-.4.3-.8.6-1.3.8-.8.3-1.4.4-2.1.4zM759.3 498.7c-.6 0-1.1-.1-1.6-.3s-.8-.5-1-.8-.5-.7-.6-1.2c-.1-.5-.2-1-.2-1.6v-6.5h-1.7v-1.5l1.8-.1.2-3.3h1.7v3.3h3.1v1.6h-3v6.5c0 .7.1 1.3.4 1.7.3.4.7.6 1.4.6.2 0 .4 0 .7-.1s.5-.1.6-.2l.4 1.5c-.3.1-.7.2-1 .3-.4.1-.8.1-1.2.1zM773.1 498.7c-1.1 0-2.1-.2-3.1-.6-.9-.4-1.8-1-2.4-1.7l1.2-1.4c.6.6 1.2 1.1 2 1.4s1.5.5 2.4.5c1 0 1.8-.2 2.4-.7.6-.5.9-1.1.9-1.9 0-.4-.1-.7-.2-1-.1-.3-.3-.5-.6-.7-.2-.2-.5-.4-.8-.5-.3-.2-.7-.3-1-.5l-2.3-1c-.4-.2-.7-.4-1.1-.6-.4-.2-.7-.5-1-.8s-.6-.7-.7-1.1-.3-.9-.3-1.5.1-1.1.4-1.7c.2-.5.6-1 1-1.3.4-.4 1-.7 1.6-.9.6-.2 1.3-.3 2-.3.9 0 1.8.2 2.6.5.8.4 1.5.8 2 1.4l-1.1 1.3c-.5-.5-1-.8-1.6-1.1-.6-.3-1.2-.4-2-.4-.9 0-1.6.2-2.1.6-.5.4-.8 1-.8 1.7 0 .4.1.7.2 1s.4.5.6.7c.3.2.5.4.8.5s.6.3.9.4l2.2 1c.4.2.9.4 1.3.7.4.2.7.5 1 .9.3.3.5.7.7 1.2.2.4.3.9.3 1.5s-.1 1.2-.4 1.8-.6 1-1.1 1.4c-.5.4-1 .7-1.7 1s-1.3.2-2.2.2zM781.6 498.4v-15.7h2v15.7h-2zM787.9 498.4v-15.7h2.1l5.7 9.9 1.7 3.3h.1c0-.8-.1-1.6-.2-2.5-.1-.9-.1-1.7-.1-2.5v-8.1h1.9v15.7H797l-5.7-9.9-1.7-3.2h-.1c.1.8.1 1.6.2 2.4.1.8.1 1.7.1 2.5v8.2h-1.9zM809.6 498.7c-1 0-2-.2-2.9-.6-.9-.4-1.6-.9-2.2-1.6-.6-.7-1.1-1.6-1.5-2.6-.4-1-.5-2.2-.5-3.4 0-1.3.2-2.4.5-3.4.4-1 .9-1.9 1.5-2.6.6-.7 1.4-1.2 2.3-1.6.9-.4 1.9-.6 2.9-.6.5 0 1 .1 1.5.2s.9.3 1.2.4c.4.2.7.4 1 .6.3.2.6.5.8.7l-1.1 1.3c-.4-.4-.9-.8-1.4-1.1s-1.2-.4-2-.4-1.5.1-2.2.4c-.6.3-1.2.7-1.6 1.3-.4.6-.8 1.2-1 2-.2.8-.4 1.7-.4 2.6 0 1 .1 1.9.3 2.7s.6 1.5 1 2c.4.6 1 1 1.6 1.3.6.3 1.4.5 2.2.5.6 0 1.1-.1 1.6-.3s.9-.4 1.2-.7v-4.1h-3.3V490h5.2v6.6c-.5.5-1.2 1-2 1.3-.7.6-1.6.8-2.7.8zM818.2 498.4v-15.7h2v14h6.9v1.7h-8.9zM829.9 498.4v-15.7h9.1v1.7h-7.1v4.9h6v1.7h-6v5.7h7.3v1.7h-9.3zM847.3 498.4v-15.7h4.5c.9 0 1.7.1 2.4.2.7.2 1.3.4 1.9.8.5.4.9.8 1.2 1.4.3.6.4 1.3.4 2.2 0 .8-.1 1.6-.4 2.2-.3.6-.7 1.1-1.2 1.5-.5.4-1.1.7-1.8.9-.7.2-1.5.3-2.4.3h-2.6v6.2h-2zm2-7.9h2.4c1.4 0 2.4-.3 3.1-.8.7-.5 1-1.3 1-2.5 0-1.1-.3-1.9-1-2.4-.7-.4-1.7-.7-3.1-.7h-2.3v6.4zM857.6 498.4l5.3-15.7h2.3l5.3 15.7h-2.1l-1.5-4.8h-5.7l-1.5 4.8h-2.1zm4.8-8.8l-.7 2.4h4.7l-.7-2.4c-.3-.9-.6-1.8-.8-2.6s-.5-1.8-.8-2.7h-.1c-.2.9-.5 1.8-.7 2.7-.3.9-.6 1.7-.9 2.6zM878.7 498.7c-1 0-2-.2-2.9-.6-.9-.4-1.6-.9-2.2-1.6-.6-.7-1.1-1.6-1.5-2.6-.4-1-.5-2.2-.5-3.4 0-1.3.2-2.4.5-3.4.4-1 .9-1.9 1.5-2.6.6-.7 1.4-1.2 2.3-1.6.9-.4 1.9-.6 2.9-.6.5 0 1 .1 1.5.2s.9.3 1.2.4c.4.2.7.4 1 .6.3.2.6.5.8.7l-1.1 1.3c-.4-.4-.9-.8-1.4-1.1s-1.2-.4-2-.4-1.5.1-2.2.4c-.6.3-1.2.7-1.6 1.3-.4.6-.8 1.2-1 2-.2.8-.4 1.7-.4 2.6 0 1 .1 1.9.3 2.7s.6 1.5 1 2c.4.6 1 1 1.6 1.3.6.3 1.4.5 2.2.5.6 0 1.1-.1 1.6-.3s.9-.4 1.2-.7v-4.1h-3.3V490h5.2v6.6c-.5.5-1.2 1-2 1.3-.7.6-1.6.8-2.7.8zM887.3 498.4v-15.7h9.1v1.7h-7.1v4.9h6v1.7h-6v5.7h7.3v1.7h-9.3zM732.3 527.2l5.3-15.7h2.3l5.3 15.7H743l-1.5-4.8h-5.7l-1.5 4.8h-2zm4.8-8.8l-.7 2.4h4.7l-.7-2.4c-.3-.9-.6-1.8-.8-2.6-.3-.9-.5-1.8-.8-2.7h-.1c-.2.9-.5 1.8-.7 2.7-.4.9-.7 1.7-.9 2.6zM747.4 527.2v-15.7h4.5c.9 0 1.7.1 2.4.2.7.2 1.3.4 1.9.8.5.4.9.8 1.2 1.4.3.6.4 1.3.4 2.2 0 .8-.1 1.6-.4 2.2-.3.6-.7 1.1-1.2 1.5-.5.4-1.1.7-1.8.9s-1.5.3-2.4.3h-2.6v6.2h-2zm2-7.9h2.4c1.4 0 2.4-.3 3.1-.8.7-.5 1-1.3 1-2.5 0-1.1-.3-1.9-1-2.4-.7-.4-1.7-.7-3.1-.7h-2.3v6.4zM761 527.2v-15.7h4.5c.9 0 1.7.1 2.4.2.7.2 1.3.4 1.9.8.5.4.9.8 1.2 1.4.3.6.4 1.3.4 2.2 0 .8-.1 1.6-.4 2.2-.3.6-.7 1.1-1.2 1.5-.5.4-1.1.7-1.8.9s-1.5.3-2.4.3H763v6.2h-2zm2-7.9h2.4c1.4 0 2.4-.3 3.1-.8.7-.5 1-1.3 1-2.5 0-1.1-.3-1.9-1-2.4-.7-.4-1.7-.7-3.1-.7H763v6.4zM774.6 527.2v-15.7h2v14h6.9v1.7h-8.9zM786.2 527.2v-15.7h2v15.7h-2zM798.5 527.5c-1 0-1.9-.2-2.7-.6s-1.6-.9-2.2-1.6c-.6-.7-1.1-1.6-1.4-2.6s-.5-2.2-.5-3.4c0-1.3.2-2.4.5-3.4s.8-1.9 1.5-2.6c.6-.7 1.4-1.2 2.2-1.6.8-.4 1.8-.6 2.8-.6 1 0 1.8.2 2.5.6.7.4 1.3.8 1.8 1.4l-1.1 1.3c-.4-.4-.9-.8-1.4-1.1s-1.1-.4-1.8-.4c-.8 0-1.4.1-2 .4-.6.3-1.1.7-1.6 1.3-.4.6-.8 1.2-1 2-.2.8-.3 1.7-.3 2.6 0 1 .1 1.9.3 2.7.2.8.6 1.5 1 2s.9 1 1.5 1.3c.6.3 1.3.5 2 .5.8 0 1.4-.2 2-.5s1.1-.7 1.6-1.3l1.1 1.2c-.6.7-1.3 1.3-2.1 1.7-.8.5-1.7.7-2.7.7zM804.2 527.2l5.3-15.7h2.3l5.3 15.7H815l-1.5-4.8h-5.7l-1.5 4.8h-2.1zm4.8-8.8l-.7 2.4h4.7l-.7-2.4c-.3-.9-.6-1.8-.8-2.6-.3-.9-.5-1.8-.8-2.7h-.1c-.2.9-.5 1.8-.7 2.7-.4.9-.7 1.7-.9 2.6zM821.2 527.2v-14.1h-4.8v-1.7H828v1.7h-4.8v14.1h-2zM830.8 527.2v-15.7h2v15.7h-2zM843 527.5c-1 0-1.9-.2-2.7-.6-.8-.4-1.5-.9-2.1-1.6s-1.1-1.6-1.4-2.6c-.3-1-.5-2.2-.5-3.4 0-1.3.2-2.4.5-3.4s.8-1.8 1.4-2.5 1.3-1.2 2.1-1.6c.8-.4 1.7-.6 2.7-.6s1.9.2 2.7.6c.8.4 1.5.9 2.1 1.6.6.7 1.1 1.5 1.4 2.5.3 1 .5 2.1.5 3.4 0 1.3-.2 2.4-.5 3.4s-.8 1.9-1.4 2.6c-.6.7-1.3 1.3-2.1 1.6-.8.4-1.7.6-2.7.6zm0-1.7c.7 0 1.3-.2 1.9-.5.6-.3 1.1-.7 1.5-1.3.4-.6.7-1.2.9-2 .2-.8.3-1.7.3-2.7 0-1-.1-1.9-.3-2.6-.2-.8-.5-1.4-.9-2s-.9-1-1.5-1.3c-.6-.3-1.2-.4-1.9-.4s-1.3.1-1.9.4c-.6.3-1.1.7-1.5 1.3s-.7 1.2-.9 2-.3 1.7-.3 2.6c0 1 .1 1.9.3 2.7s.5 1.5.9 2c.4.6.9 1 1.5 1.3.5.3 1.2.5 1.9.5zM853.1 527.2v-15.7h2.1l5.7 9.9 1.7 3.3h.1c0-.8-.1-1.6-.2-2.5-.1-.9-.1-1.7-.1-2.5v-8.1h1.9v15.7h-2.1l-5.7-9.9-1.7-3.2h-.1c.1.8.1 1.6.2 2.4.1.8.1 1.7.1 2.5v8.2h-1.9z"/><g><path class="st15" d="M736 472.7c-1.5 0-2.6-.6-3.3-1.9l1.1-.8c.3.5.6.8.9 1s.7.3 1.1.3c.6 0 1.1-.2 1.4-.6.3-.4.5-1 .5-1.9v-8.2h1.5v8.3c0 .5-.1 1-.2 1.4-.1.5-.3.8-.6 1.2-.3.3-.6.6-1 .8-.3.3-.8.4-1.4.4zM744.3 472.7c-.7 0-1.3-.2-1.8-.6-.5-.4-.7-1-.7-1.8 0-1 .4-1.7 1.3-2.2.9-.5 2.2-.9 4.1-1.1 0-.3 0-.5-.1-.8-.1-.3-.1-.5-.3-.7-.1-.2-.3-.4-.5-.5s-.5-.2-.9-.2c-.5 0-1 .1-1.4.3l-1.2.6-.6-1c.4-.3.9-.5 1.5-.8.6-.2 1.2-.4 1.9-.4 1.1 0 1.8.3 2.3 1 .5.7.7 1.5.7 2.6v5.4h-1.2l-.1-1h-.1c-.4.3-.9.6-1.4.9-.4.2-.9.3-1.5.3zm.4-1.2c.4 0 .8-.1 1.2-.3s.8-.5 1.2-.9v-2.4c-.7.1-1.3.2-1.8.3-.5.1-.9.3-1.2.5-.3.2-.5.4-.7.6-.1.2-.2.5-.2.8 0 .5.2.9.5 1.1.2.2.6.3 1 .3zM751.4 472.5v-8.7h1.2l.1 1.3h.1c.4-.4.9-.8 1.3-1.1.5-.3 1-.4 1.6-.4.9 0 1.6.3 2 .9.4.6.6 1.4.6 2.6v5.5h-1.5v-5.3c0-.8-.1-1.4-.4-1.8-.3-.4-.7-.5-1.3-.5-.5 0-.9.1-1.2.3-.3.2-.7.6-1.2 1v6.3h-1.3zM763.8 472.7c-.9 0-1.6-.3-2-.9-.4-.6-.6-1.4-.6-2.6v-5.5h1.5v5.3c0 .8.1 1.4.4 1.8.3.4.7.5 1.2.5s.9-.1 1.2-.4c.3-.2.7-.6 1.2-1.1v-6.2h1.5v8.7H767l-.1-1.4h-.1c-.4.5-.8.9-1.3 1.2s-1.1.6-1.7.6zM773 472.7c-.7 0-1.3-.2-1.8-.6-.5-.4-.7-1-.7-1.8 0-1 .4-1.7 1.3-2.2.9-.5 2.2-.9 4.1-1.1 0-.3 0-.5-.1-.8-.1-.3-.1-.5-.3-.7-.1-.2-.3-.4-.5-.5-.2-.1-.5-.2-.9-.2-.5 0-1 .1-1.4.3l-1.2.6-.6-1c.4-.3.9-.5 1.5-.8.6-.2 1.2-.4 1.9-.4 1.1 0 1.8.3 2.3 1 .5.7.7 1.5.7 2.6v5.4h-1.2l-.1-1h-.1c-.4.3-.9.6-1.4.9-.4.2-.9.3-1.5.3zm.5-1.2c.4 0 .8-.1 1.2-.3.4-.2.8-.5 1.2-.9v-2.4c-.7.1-1.3.2-1.8.3-.5.1-.9.3-1.2.5-.3.2-.5.4-.7.6s-.2.5-.2.8c0 .5.1.9.5 1.1.2.2.5.3 1 .3zM780.1 472.5v-8.7h1.2l.1 1.6h.1c.3-.6.7-1 1.1-1.3s.9-.5 1.4-.5c.3 0 .7.1.9.2l-.3 1.3c-.1 0-.3-.1-.4-.1h-.5c-.4 0-.8.1-1.2.5-.4.3-.8.8-1.1 1.6v5.6h-1.3zM786.9 476.3h-.6c-.2 0-.3-.1-.5-.1l.3-1.2c.1 0 .2.1.3.1h.3c.5 0 .9-.2 1.2-.5.3-.4.6-.8.7-1.3l.2-.6-3.5-8.8h1.5l1.8 4.8c.1.4.3.8.4 1.2.2.4.3.8.4 1.3h.1c.1-.4.3-.8.4-1.2.1-.4.2-.8.4-1.2l1.6-4.8h1.4l-3.3 9.5c-.2.4-.3.8-.5 1.2s-.4.7-.7 1c-.3.3-.6.5-.9.6-.1-.1-.5 0-1 0zM798 472.5v-.9l2.3-2.3c.7-.7 1.2-1.3 1.7-1.9.5-.6.8-1.1 1-1.6s.4-1 .4-1.4c0-.7-.2-1.2-.5-1.6-.4-.4-.9-.6-1.6-.6-.5 0-.9.1-1.3.4-.4.3-.8.6-1.1 1l-.8-.8c.5-.5 1-1 1.5-1.3.5-.3 1.2-.5 1.9-.5 1.1 0 1.9.3 2.5.9.6.6.9 1.4.9 2.5 0 .5-.1 1.1-.4 1.6-.2.5-.6 1.1-1 1.7-.4.6-.9 1.2-1.5 1.8-.6.6-1.2 1.3-1.9 2 .3 0 .6 0 1-.1h4.3v1.3H798zM810.7 472.7c-1.2 0-2.1-.5-2.7-1.5s-1-2.5-1-4.4c0-1.9.3-3.4 1-4.4s1.6-1.5 2.7-1.5c1.2 0 2.1.5 2.7 1.5s1 2.5 1 4.4c0 1.9-.3 3.4-1 4.4s-1.5 1.5-2.7 1.5zm0-1.2c.3 0 .6-.1.9-.3.3-.2.5-.5.7-.9.2-.4.4-.9.5-1.5.1-.6.2-1.3.2-2.2 0-.8-.1-1.6-.2-2.2-.1-.6-.3-1.1-.5-1.5-.2-.4-.4-.7-.7-.8-.3-.2-.6-.3-.9-.3s-.6.1-.9.3c-.3.2-.5.5-.7.8-.2.4-.4.9-.5 1.5s-.2 1.3-.2 2.2c0 1.7.2 2.9.6 3.7.5.8 1.1 1.2 1.7 1.2zM816.6 472.5v-1.2h2.6v-8.5h-2.1v-1c.5-.1 1-.2 1.4-.4.4-.1.7-.3 1.1-.5h1.1v10.3h2.4v1.2h-6.5zM828.4 472.7c-.5 0-.9 0-1.3-.1s-.7-.2-1-.4c-.3-.1-.6-.3-.8-.5-.2-.2-.5-.4-.7-.6l.7-1c.3.3.7.7 1.2.9.5.3 1 .4 1.7.4.3 0 .7-.1 1-.2.3-.1.6-.3.8-.5.2-.2.4-.5.5-.8.1-.3.2-.7.2-1.1 0-.8-.2-1.4-.7-1.9-.4-.4-1-.7-1.8-.7-.4 0-.7.1-1 .2-.3.1-.6.3-.9.5l-.8-.5.4-5.5h5.7v1.3h-4.4l-.3 3.4c.3-.1.6-.3.8-.3.3-.1.6-.1.9-.1.5 0 1 .1 1.4.2.4.1.8.4 1.1.7.3.3.6.7.8 1.1.2.5.3 1 .3 1.6s-.1 1.2-.3 1.7c-.2.5-.5.9-.9 1.2-.4.3-.8.6-1.2.8s-.9.2-1.4.2z"/></g></g><g><path class="st15" d="M1061.3 609.3v-1.6h3.5v-11.3h-2.8v-1.3c.7-.1 1.3-.3 1.8-.5s1-.4 1.4-.7h1.5v13.7h3.2v1.6h-8.6zM1076.4 609.6c-.8 0-1.6-.2-2.4-.5s-1.4-.7-2-1.2l1-1.3c.5.4 1 .8 1.6 1 .5.3 1.2.4 1.9.4.8 0 1.3-.2 1.7-.5.4-.4.6-.8.6-1.3 0-.3-.1-.6-.2-.8s-.4-.4-.6-.6c-.2-.2-.5-.3-.9-.4-.3-.1-.6-.3-1-.4-.4-.1-.8-.3-1.2-.5-.4-.2-.8-.4-1.1-.7-.3-.3-.6-.6-.8-.9-.2-.4-.3-.8-.3-1.3s.1-.9.3-1.3c.2-.4.4-.8.8-1.1.3-.3.8-.5 1.3-.7s1.1-.3 1.7-.3c.7 0 1.4.1 2 .4.6.3 1.1.6 1.6.9l-.9 1.2c-.4-.3-.8-.6-1.2-.7-.4-.2-.9-.3-1.4-.3-.7 0-1.3.2-1.6.5-.3.3-.5.7-.5 1.2 0 .3.1.5.2.7s.3.4.6.5c.2.2.5.3.8.4.3.1.6.2 1 .4s.8.3 1.3.5c.4.2.8.4 1.1.7.3.3.6.6.8 1 .2.4.3.8.3 1.4 0 .5-.1.9-.3 1.3-.2.4-.5.8-.8 1.1-.4.3-.8.6-1.3.8s-1.5.4-2.1.4zM1086.6 609.6c-.6 0-1.1-.1-1.6-.3s-.8-.5-1-.8c-.3-.3-.5-.7-.6-1.2-.1-.5-.2-1-.2-1.6v-6.5h-1.7v-1.5l1.8-.1.2-3.3h1.7v3.3h3.1v1.6h-3.1v6.5c0 .7.1 1.3.4 1.7.3.4.7.6 1.4.6.2 0 .4 0 .7-.1.2-.1.5-.1.6-.2l.4 1.5c-.3.1-.7.2-1 .3-.4 0-.8.1-1.1.1zM1093.9 609.3l5.3-15.7h2.3l5.3 15.7h-2.1l-1.5-4.8h-5.7l-1.5 4.8h-2.1zm4.8-8.8l-.7 2.4h4.7l-.7-2.4c-.3-.9-.6-1.8-.8-2.6s-.5-1.8-.8-2.7h-.1c-.2.9-.5 1.8-.7 2.7-.3.8-.6 1.7-.9 2.6zM1109 609.3v-15.7h4.5c.9 0 1.7.1 2.4.2.7.2 1.3.4 1.9.8.5.4.9.8 1.2 1.4.3.6.4 1.3.4 2.2 0 .8-.1 1.6-.4 2.2-.3.6-.7 1.1-1.2 1.5-.5.4-1.1.7-1.8.9-.7.2-1.5.3-2.4.3h-2.6v6.2h-2zm2-7.9h2.4c1.4 0 2.4-.3 3.1-.8.7-.5 1-1.3 1-2.5 0-1.1-.3-1.9-1-2.4-.7-.4-1.7-.7-3.1-.7h-2.3v6.4zM1122.6 609.3v-15.7h4.5c.9 0 1.7.1 2.4.2.7.2 1.3.4 1.9.8.5.4.9.8 1.2 1.4.3.6.4 1.3.4 2.2 0 .8-.1 1.6-.4 2.2-.3.6-.7 1.1-1.2 1.5-.5.4-1.1.7-1.8.9-.7.2-1.5.3-2.4.3h-2.6v6.2h-2zm2-7.9h2.4c1.4 0 2.4-.3 3.1-.8.7-.5 1-1.3 1-2.5 0-1.1-.3-1.9-1-2.4-.7-.4-1.7-.7-3.1-.7h-2.3v6.4z"/><g><path class="st15" d="M1061 583.4v-11.8h1.5l4.3 7.4 1.3 2.4h.1c0-.6-.1-1.2-.1-1.9 0-.6-.1-1.3-.1-1.9v-6.1h1.4v11.8h-1.5l-4.3-7.4-1.3-2.4h-.1c0 .6.1 1.2.1 1.8 0 .6.1 1.2.1 1.9v6.2h-1.4zM1075.9 583.6c-.5 0-1.1-.1-1.5-.3s-.9-.5-1.3-.9-.7-.9-.9-1.4c-.2-.6-.3-1.2-.3-1.9s.1-1.4.3-2c.2-.6.5-1.1.9-1.4.4-.4.8-.7 1.3-.9.5-.2 1-.3 1.5-.3s1.1.1 1.5.3c.5.2.9.5 1.3.9s.7.9.9 1.4c.2.6.3 1.2.3 2 0 .7-.1 1.4-.3 1.9-.2.6-.5 1-.9 1.4-.4.4-.8.7-1.3.9-.4.2-.9.3-1.5.3zm0-1.2c.4 0 .7-.1 1-.2s.6-.4.8-.7c.2-.3.4-.6.5-1.1.1-.4.2-.9.2-1.4 0-.5-.1-1-.2-1.4-.1-.4-.3-.8-.5-1.1-.2-.3-.5-.5-.8-.7s-.7-.2-1-.2c-.4 0-.7.1-1 .2s-.6.4-.8.7c-.2.3-.4.7-.5 1.1-.1.4-.2.9-.2 1.4 0 .5.1 1 .2 1.4.1.4.3.8.5 1.1.2.3.5.5.8.7s.7.2 1 .2zM1084.1 583.4l-3.2-8.7h1.5l1.7 5c.1.4.3.9.4 1.3s.3.9.4 1.3h.1c.1-.4.3-.8.4-1.3s.3-.9.4-1.3l1.7-5h1.5l-3.1 8.7h-1.8zM1094.1 583.6c-.6 0-1.1-.1-1.6-.3-.5-.2-1-.5-1.3-.9-.4-.4-.7-.9-.9-1.4-.2-.6-.3-1.2-.3-1.9s.1-1.4.3-1.9c.2-.6.5-1.1.9-1.4.4-.4.8-.7 1.3-.9.5-.2 1-.3 1.5-.3.6 0 1 .1 1.5.3.4.2.8.5 1.1.8.3.4.5.8.7 1.3.2.5.2 1.1.2 1.7v.9h-5.9c.1.9.4 1.7.9 2.2.5.5 1.2.8 2 .8.4 0 .8-.1 1.2-.2s.7-.3 1-.5l.5 1c-.4.2-.8.5-1.3.6-.7 0-1.2.1-1.8.1zm-2.8-5.3h4.7c0-.9-.2-1.6-.6-2-.4-.5-.9-.7-1.6-.7-.3 0-.6.1-.9.2-.3.1-.5.3-.8.5-.2.2-.4.5-.6.9 0 .3-.1.7-.2 1.1zM1099.5 583.4v-8.7h1.2l.1 1.3h.1c.4-.4.8-.8 1.2-1.1.5-.3.9-.4 1.5-.4.7 0 1.2.1 1.6.4.4.3.7.7.8 1.2.5-.5.9-.9 1.4-1.2.5-.3 1-.5 1.5-.5.9 0 1.6.3 2 .9.4.6.7 1.4.7 2.6v5.5h-1.5V578c0-.8-.1-1.4-.4-1.8-.3-.4-.7-.5-1.2-.5-.7 0-1.4.4-2.2 1.4v6.3h-1.5V578c0-.8-.1-1.4-.4-1.8s-.7-.5-1.2-.5c-.7 0-1.4.4-2.2 1.4v6.3h-1.5zM1118.3 583.6c-.4 0-.8-.1-1.3-.3-.4-.2-.8-.5-1.2-.8h-.1l-.1.9h-1.2v-12.8h1.5v5.1c.4-.3.8-.6 1.3-.9.5-.2.9-.4 1.4-.4.6 0 1.1.1 1.5.3s.8.5 1.1.9c.3.4.5.9.7 1.4s.2 1.2.2 1.8c0 .7-.1 1.4-.3 2-.2.6-.5 1.1-.8 1.5s-.8.7-1.2.9c-.5.3-1 .4-1.5.4zm-.3-1.2c.4 0 .7-.1 1-.2.3-.2.6-.4.8-.7.2-.3.4-.7.5-1.1.1-.4.2-.9.2-1.5 0-.5 0-.9-.1-1.3s-.2-.7-.4-1c-.2-.3-.4-.5-.7-.7-.3-.2-.6-.2-1.1-.2-.7 0-1.5.4-2.3 1.2v4.6c.4.3.8.6 1.1.7.4.1.7.2 1 .2zM1127.9 583.6c-.6 0-1.1-.1-1.6-.3-.5-.2-1-.5-1.3-.9-.4-.4-.7-.9-.9-1.4-.2-.6-.3-1.2-.3-1.9s.1-1.4.3-1.9c.2-.6.5-1.1.9-1.4.4-.4.8-.7 1.2-.9.5-.2 1-.3 1.5-.3.6 0 1 .1 1.5.3.4.2.8.5 1.1.8.3.4.5.8.7 1.3s.2 1.1.2 1.7v.9h-5.9c.1.9.4 1.7.9 2.2.5.5 1.2.8 2 .8.4 0 .8-.1 1.2-.2s.7-.3 1-.5l.5 1c-.4.2-.8.5-1.3.6-.6 0-1.1.1-1.7.1zm-2.8-5.3h4.7c0-.9-.2-1.6-.6-2-.4-.5-.9-.7-1.6-.7-.3 0-.6.1-.9.2-.3.1-.5.3-.8.5-.2.2-.4.5-.6.9 0 .3-.1.7-.2 1.1zM1133.3 583.4v-8.7h1.2l.1 1.6h.1c.3-.6.7-1 1.1-1.3s.9-.5 1.4-.5c.3 0 .7.1.9.2l-.3 1.3c-.1 0-.3-.1-.4-.1h-.4c-.4 0-.8.1-1.2.5-.4.3-.8.8-1.1 1.6v5.6h-1.4zM1142.4 583.4v-.9l2.3-2.3c.7-.7 1.2-1.3 1.7-1.9.5-.6.8-1.1 1-1.6s.4-1 .4-1.4c0-.7-.2-1.2-.5-1.6-.4-.4-.9-.6-1.6-.6-.5 0-.9.1-1.3.4-.4.3-.8.6-1.1 1l-.8-.8c.5-.5 1-1 1.5-1.3.5-.3 1.2-.5 1.9-.5 1.1 0 1.9.3 2.5.9.6.6.9 1.4.9 2.5 0 .5-.1 1.1-.4 1.6-.2.5-.6 1.1-1 1.7s-.9 1.2-1.5 1.8c-.6.6-1.2 1.3-1.9 2 .3 0 .6 0 1-.1h4.3v1.3h-7.4zM1155.1 583.6c-1.2 0-2.1-.5-2.7-1.5-.6-1-1-2.5-1-4.4 0-1.9.3-3.4 1-4.4.6-1 1.6-1.5 2.7-1.5 1.2 0 2.1.5 2.7 1.5.6 1 1 2.5 1 4.4 0 1.9-.3 3.4-1 4.4-.7 1-1.6 1.5-2.7 1.5zm0-1.2c.3 0 .6-.1.9-.3.3-.2.5-.5.7-.9.2-.4.4-.9.5-1.5s.2-1.3.2-2.2c0-.8-.1-1.6-.2-2.2s-.3-1.1-.5-1.5-.4-.7-.7-.8c-.3-.2-.6-.3-.9-.3s-.6.1-.9.3c-.3.2-.5.5-.7.8-.2.4-.4.9-.5 1.5-.1.6-.2 1.3-.2 2.2 0 1.7.2 2.9.6 3.7.5.8 1 1.2 1.7 1.2zM1161 583.4v-1.2h2.6v-8.5h-2.1v-1c.5-.1 1-.2 1.4-.4.4-.1.7-.3 1.1-.5h1.1v10.3h2.4v1.2h-6.5zM1173.3 583.6c-.6 0-1.1-.1-1.6-.3s-.9-.6-1.3-1-.6-1-.8-1.7c-.2-.7-.3-1.5-.3-2.4 0-1.2.1-2.1.4-2.9.2-.8.6-1.5 1-2s.9-.9 1.4-1.1 1.1-.4 1.6-.4c.6 0 1.2.1 1.6.4.5.2.8.5 1.2.9l-.8.9c-.2-.3-.5-.5-.9-.7s-.7-.2-1-.2c-.4 0-.8.1-1.1.3s-.7.4-1 .8c-.3.4-.5.9-.7 1.5s-.3 1.4-.3 2.3c.4-.4.8-.8 1.3-1.1.5-.3 1-.4 1.4-.4 1 0 1.8.3 2.4.9s.9 1.5.9 2.7c0 .6-.1 1.1-.3 1.5-.2.4-.4.8-.7 1.2s-.7.6-1.1.8c-.4-.1-.8 0-1.3 0zm0-1.2c.3 0 .6-.1.8-.2s.4-.3.6-.5c.2-.2.3-.5.4-.8s.2-.7.2-1c0-.8-.2-1.4-.5-1.8-.3-.4-.9-.6-1.6-.6-.4 0-.8.1-1.2.4-.4.2-.8.6-1.2 1.2.1 1.1.4 2 .8 2.6s1 .7 1.7.7z"/></g></g><g><path class="st15" d="M765.8 785.1v-1.6h3.5v-11.3h-2.8v-1.3c.7-.1 1.3-.3 1.8-.5s1-.4 1.4-.7h1.5v13.7h3.2v1.6h-8.6zM780.8 785.4c-.8 0-1.6-.2-2.4-.5s-1.4-.7-2-1.2l1-1.3c.5.4 1 .8 1.6 1 .5.3 1.2.4 1.9.4.8 0 1.3-.2 1.7-.5.4-.4.6-.8.6-1.3 0-.3-.1-.6-.2-.8s-.4-.4-.6-.6c-.2-.2-.5-.3-.9-.4-.3-.1-.6-.3-1-.4-.4-.1-.8-.3-1.2-.5-.4-.2-.8-.4-1.1-.7s-.6-.6-.8-.9c-.2-.4-.3-.8-.3-1.3s.1-.9.3-1.3c.2-.4.4-.8.8-1.1.3-.3.8-.5 1.3-.7.5-.2 1.1-.3 1.7-.3.7 0 1.4.1 2 .4.6.3 1.1.6 1.6.9l-.9 1.2c-.4-.3-.8-.6-1.2-.7-.4-.2-.9-.3-1.4-.3-.7 0-1.3.2-1.6.5-.3.3-.5.7-.5 1.2 0 .3.1.5.2.7.1.2.3.4.6.5.2.2.5.3.8.4.3.1.6.2 1 .4s.8.3 1.3.5c.4.2.8.4 1.1.7.3.3.6.6.8 1 .2.4.3.8.3 1.4 0 .5-.1.9-.3 1.3-.2.4-.5.8-.8 1.1-.4.3-.8.6-1.3.8-.8.3-1.4.4-2.1.4zM791 785.4c-.6 0-1.1-.1-1.6-.3-.4-.2-.8-.5-1-.8s-.5-.7-.6-1.2c-.1-.5-.2-1-.2-1.6V775H786v-1.5l1.8-.1.2-3.3h1.7v3.3h3.1v1.6h-3.1v6.5c0 .7.1 1.3.4 1.7s.7.6 1.4.6c.2 0 .4 0 .7-.1.2-.1.5-.1.6-.2l.4 1.5c-.3.1-.7.2-1 .3s-.8.1-1.2.1zM806.1 785.4c-.8 0-1.5-.1-2.2-.3-.7-.2-1.3-.6-1.8-1.2-.5-.5-.9-1.2-1.2-2.1-.3-.9-.4-1.9-.4-3.2v-9.2h2v9.3c0 .9.1 1.7.3 2.4.2.6.5 1.2.8 1.5.3.4.7.7 1.2.8.4.2.9.3 1.4.3.5 0 1-.1 1.5-.3s.8-.4 1.2-.8c.3-.4.6-.9.8-1.5.2-.6.3-1.4.3-2.4v-9.3h1.9v9.2c0 1.3-.1 2.3-.4 3.2-.3.9-.7 1.6-1.2 2.1s-1.1.9-1.8 1.2c-.9.2-1.6.3-2.4.3zM813.9 785.1l4.6-8.1-4.3-7.6h2.2l2.1 4c.2.4.4.7.6 1.1.2.3.4.7.6 1.2h.1c.2-.5.4-.9.6-1.2s.3-.7.5-1.1l2.1-4h2.1l-4.3 7.7 4.6 8h-2.2l-2.3-4.2-.6-1.2c-.2-.4-.5-.9-.7-1.3h-.1c-.2.5-.4.9-.6 1.3l-.6 1.2-2.3 4.2h-2.1zM832.8 785.1v-15.7h4.5c.9 0 1.7.1 2.4.2.7.2 1.3.4 1.9.8.5.4.9.8 1.2 1.4.3.6.4 1.3.4 2.2 0 .8-.1 1.6-.4 2.2-.3.6-.7 1.1-1.2 1.5-.5.4-1.1.7-1.8.9-.7.2-1.5.3-2.4.3h-2.6v6.2h-2zm2-7.8h2.4c1.4 0 2.4-.3 3.1-.8.7-.5 1-1.3 1-2.5 0-1.1-.3-1.9-1-2.4-.7-.4-1.7-.7-3.1-.7h-2.3v6.4zM846.4 785.1v-15.7h4.9c.8 0 1.5.1 2.2.2.7.2 1.3.4 1.8.8s.9.8 1.1 1.4.4 1.2.4 2.1c0 1.2-.3 2.2-1 3-.6.7-1.5 1.2-2.6 1.5l4 6.9H855l-3.8-6.6h-2.9v6.6h-1.9zm2-8.3h2.6c1.2 0 2.2-.3 2.8-.8.7-.5 1-1.3 1-2.3 0-1-.3-1.8-1-2.2-.7-.4-1.6-.6-2.8-.6h-2.6v5.9zM865.9 785.4c-1 0-1.9-.2-2.7-.6-.8-.4-1.5-.9-2.1-1.6-.6-.7-1.1-1.6-1.4-2.6-.3-1-.5-2.2-.5-3.4 0-1.3.2-2.4.5-3.4s.8-1.8 1.4-2.5c.6-.7 1.3-1.2 2.1-1.6s1.7-.6 2.7-.6 1.9.2 2.7.6 1.5.9 2.1 1.6 1.1 1.5 1.4 2.5c.3 1 .5 2.1.5 3.4 0 1.3-.2 2.4-.5 3.4s-.8 1.9-1.4 2.6-1.3 1.3-2.1 1.6c-.8.4-1.7.6-2.7.6zm0-1.7c.7 0 1.3-.2 1.9-.5.6-.3 1.1-.7 1.5-1.3s.7-1.2.9-2 .3-1.7.3-2.7c0-1-.1-1.9-.3-2.6-.2-.8-.5-1.4-.9-2-.4-.5-.9-1-1.5-1.3-.6-.3-1.2-.4-1.9-.4s-1.3.1-1.9.4c-.6.3-1.1.7-1.5 1.3-.4.5-.7 1.2-.9 2-.2.8-.3 1.7-.3 2.6 0 1 .1 1.9.3 2.7.2.8.5 1.5.9 2s.9 1 1.5 1.3c.5.3 1.2.5 1.9.5zM878 785.4c-2 0-3.4-.8-4.3-2.5l1.4-1c.4.6.8 1.1 1.2 1.4.4.3 1 .4 1.5.4.8 0 1.5-.3 1.9-.8s.6-1.4.6-2.6v-10.9h2v11.1c0 .7-.1 1.3-.3 1.9-.2.6-.4 1.1-.8 1.6-.3.4-.8.8-1.3 1.1-.5.2-1.2.3-1.9.3zM886.6 785.1v-15.7h9.1v1.7h-7.1v4.9h6v1.7h-6v5.7h7.3v1.7h-9.3zM905.2 785.4c-1 0-1.9-.2-2.7-.6-.8-.4-1.6-.9-2.2-1.6-.6-.7-1.1-1.6-1.4-2.6-.3-1-.5-2.2-.5-3.4 0-1.3.2-2.4.5-3.4.4-1 .8-1.9 1.5-2.6s1.4-1.2 2.2-1.6c.8-.4 1.8-.6 2.8-.6 1 0 1.8.2 2.5.6.7.4 1.3.8 1.8 1.4l-1.1 1.3c-.4-.4-.9-.8-1.4-1.1-.5-.3-1.1-.4-1.8-.4-.8 0-1.4.1-2 .4-.6.3-1.1.7-1.6 1.3-.4.6-.8 1.2-1 2-.2.8-.3 1.7-.3 2.6 0 1 .1 1.9.3 2.7.2.8.6 1.5 1 2 .4.6.9 1 1.5 1.3.6.3 1.3.5 2 .5.8 0 1.4-.2 2-.5.6-.3 1.1-.7 1.6-1.3l1.1 1.2c-.6.7-1.3 1.3-2.1 1.7-.8.5-1.7.7-2.7.7zM915.7 785.1V771H911v-1.7h11.5v1.7h-4.8v14.1h-2z"/><g><path class="st15" d="M765.5 759.2v-11.8h3c1.8 0 3.2.5 4.2 1.5.9 1 1.4 2.5 1.4 4.3 0 .9-.1 1.8-.4 2.5s-.6 1.4-1.1 1.9c-.5.5-1 .9-1.7 1.2-.7.3-1.5.4-2.4.4h-3zm1.5-1.2h1.3c1.4 0 2.4-.4 3.1-1.2.7-.8 1-2 1-3.5s-.3-2.6-1-3.4-1.7-1.2-3.1-1.2H767v9.3zM780 759.4c-.6 0-1.1-.1-1.6-.3-.5-.2-1-.5-1.3-.9-.4-.4-.7-.9-.9-1.4-.2-.6-.3-1.2-.3-1.9s.1-1.4.3-1.9c.2-.6.5-1.1.9-1.4s.8-.7 1.3-.9c.5-.2 1-.3 1.5-.3.6 0 1 .1 1.5.3.4.2.8.5 1.1.8s.5.8.7 1.3c.2.5.2 1.1.2 1.7v.9h-5.9c.1.9.4 1.7.9 2.2s1.2.8 2 .8c.4 0 .8-.1 1.2-.2.4-.1.7-.3 1-.5l.5 1c-.4.2-.8.5-1.3.6-.7 0-1.2.1-1.8.1zm-2.8-5.3h4.7c0-.9-.2-1.6-.6-2-.4-.5-.9-.7-1.6-.7-.3 0-.6.1-.9.2-.3.1-.5.3-.8.5-.2.2-.4.5-.6.9 0 .3-.1.7-.2 1.1zM788.8 759.4c-.6 0-1.1-.1-1.6-.3-.5-.2-.9-.5-1.3-.9s-.7-.9-.9-1.4c-.2-.6-.3-1.2-.3-1.9s.1-1.4.3-2c.2-.6.5-1.1.9-1.4s.8-.7 1.3-.9 1-.3 1.6-.3c.6 0 1.1.1 1.5.3.4.2.8.4 1.1.7l-.8 1c-.3-.2-.5-.4-.8-.6-.3-.1-.6-.2-.9-.2-.4 0-.8.1-1.1.2-.3.2-.6.4-.9.7-.2.3-.4.7-.6 1.1-.1.4-.2.9-.2 1.4s.1 1 .2 1.4c.1.4.3.8.5 1.1.2.3.5.5.9.7.3.2.7.2 1.1.2.4 0 .8-.1 1.1-.3.3-.2.7-.4.9-.6l.6 1c-.4.3-.8.6-1.3.8-.2.1-.7.2-1.3.2zM796.7 759.4c-.6 0-1.1-.1-1.6-.3-.5-.2-1-.5-1.3-.9-.4-.4-.7-.9-.9-1.4-.2-.6-.3-1.2-.3-1.9s.1-1.4.3-1.9c.2-.6.5-1.1.9-1.4s.8-.7 1.3-.9c.5-.2 1-.3 1.5-.3.6 0 1 .1 1.5.3.4.2.8.5 1.1.8s.5.8.7 1.3c.2.5.2 1.1.2 1.7v.9H794c.1.9.4 1.7.9 2.2s1.2.8 2 .8c.4 0 .8-.1 1.2-.2.4-.1.7-.3 1-.5l.5 1c-.4.2-.8.5-1.3.6-.4 0-1 .1-1.6.1zm-2.7-5.3h4.7c0-.9-.2-1.6-.6-2-.4-.5-.9-.7-1.6-.7-.3 0-.6.1-.9.2-.3.1-.5.3-.8.5-.2.2-.4.5-.6.9-.1.3-.2.7-.2 1.1zM802.1 759.2v-8.7h1.2l.1 1.3h.1c.4-.4.8-.8 1.3-1.1s.9-.4 1.5-.4c.7 0 1.2.1 1.6.4.4.3.7.7.8 1.2.5-.5.9-.9 1.4-1.2.5-.3 1-.5 1.5-.5.9 0 1.6.3 2 .9.4.6.7 1.4.7 2.6v5.5h-1.5v-5.3c0-.8-.1-1.4-.4-1.8-.3-.4-.7-.5-1.2-.5-.7 0-1.4.5-2.2 1.4v6.3h-1.5V754c0-.8-.1-1.4-.4-1.8-.3-.4-.7-.5-1.2-.5-.7 0-1.4.5-2.2 1.4v6.3h-1.6zM820.9 759.4c-.4 0-.8-.1-1.3-.3-.4-.2-.8-.5-1.2-.8h-.1l-.1.9H817v-12.8h1.5v5.1c.4-.3.8-.6 1.3-.9.5-.2.9-.4 1.4-.4.6 0 1.1.1 1.5.3.4.2.8.5 1.1.9.3.4.5.9.7 1.4.1.5.2 1.2.2 1.8 0 .7-.1 1.4-.3 2-.2.6-.5 1.1-.8 1.5-.3.4-.8.7-1.2.9-.5.3-1 .4-1.5.4zm-.2-1.2c.4 0 .7-.1 1-.2.3-.2.6-.4.8-.7s.4-.7.5-1.1c.1-.4.2-.9.2-1.5 0-.5 0-.9-.1-1.3s-.2-.7-.4-1c-.2-.3-.4-.5-.7-.7-.3-.2-.6-.2-1.1-.2-.7 0-1.5.4-2.3 1.2v4.6c.4.3.8.6 1.1.7.3.1.7.2 1 .2zM830.6 759.4c-.6 0-1.1-.1-1.6-.3-.5-.2-1-.5-1.3-.9-.4-.4-.7-.9-.9-1.4s-.3-1.2-.3-1.9.1-1.4.3-1.9c.2-.6.5-1.1.9-1.4.4-.4.8-.7 1.2-.9.5-.2 1-.3 1.5-.3.6 0 1 .1 1.5.3s.8.5 1.1.8c.3.4.5.8.7 1.3s.2 1.1.2 1.7v.9H828c.1.9.4 1.7.9 2.2.5.5 1.2.8 2 .8.4 0 .8-.1 1.2-.2s.7-.3 1-.5l.5 1c-.4.2-.8.5-1.3.6-.6 0-1.1.1-1.7.1zm-2.8-5.3h4.7c0-.9-.2-1.6-.6-2-.4-.5-.9-.7-1.6-.7-.3 0-.6.1-.9.2-.3.1-.5.3-.8.5-.2.2-.4.5-.6.9-.1.3-.2.7-.2 1.1zM835.9 759.2v-8.7h1.2l.1 1.6h.1c.3-.6.7-1 1.1-1.3.4-.3.9-.5 1.4-.5.3 0 .7.1.9.2l-.3 1.3c-.1 0-.3-.1-.4-.1h-.5c-.4 0-.8.1-1.2.5s-.8.8-1.1 1.6v5.6h-1.3zM845 759.2v-.9l2.3-2.3c.7-.7 1.2-1.3 1.7-1.9.5-.6.8-1.1 1-1.6s.4-1 .4-1.4c0-.7-.2-1.2-.5-1.6-.4-.4-.9-.6-1.6-.6-.5 0-.9.1-1.3.4s-.8.6-1.1 1l-.8-.8c.5-.5 1-1 1.5-1.3.5-.3 1.2-.5 1.9-.5 1.1 0 1.9.3 2.5.9.6.6.9 1.4.9 2.5 0 .5-.1 1.1-.4 1.6-.2.5-.6 1.1-1 1.7s-.9 1.2-1.5 1.8c-.6.6-1.2 1.3-1.9 2 .3 0 .6 0 1-.1h4.3v1.3H845zM857.7 759.4c-1.2 0-2.1-.5-2.7-1.5s-1-2.5-1-4.4c0-1.9.3-3.4 1-4.4.6-1 1.6-1.5 2.7-1.5 1.2 0 2.1.5 2.7 1.5.6 1 1 2.5 1 4.4 0 1.9-.3 3.4-1 4.4s-1.5 1.5-2.7 1.5zm0-1.2c.3 0 .6-.1.9-.3.3-.2.5-.5.7-.9.2-.4.4-.9.5-1.5.1-.6.2-1.3.2-2.2s-.1-1.6-.2-2.2c-.1-.6-.3-1.1-.5-1.5-.2-.4-.4-.7-.7-.8-.3-.2-.6-.3-.9-.3s-.6.1-.9.3c-.3.2-.5.5-.7.8-.2.4-.4.9-.5 1.5-.1.6-.2 1.3-.2 2.2 0 1.7.2 2.9.6 3.7.5.9 1.1 1.2 1.7 1.2zM863.6 759.2V758h2.6v-8.5h-2.1v-1c.5-.1 1-.2 1.4-.4.4-.1.7-.3 1.1-.5h1.1V758h2.4v1.2h-6.5zM876 759.4c-.6 0-1.1-.1-1.6-.3-.5-.2-.9-.6-1.3-1-.4-.5-.6-1-.8-1.7-.2-.7-.3-1.5-.3-2.4 0-1.2.1-2.1.4-2.9.2-.8.6-1.5 1-2s.9-.9 1.4-1.1c.5-.2 1.1-.4 1.6-.4.6 0 1.2.1 1.6.4.5.2.8.5 1.2.9l-.8.9c-.2-.3-.5-.5-.9-.7-.3-.2-.7-.2-1-.2-.4 0-.8.1-1.1.3-.4.2-.7.4-1 .8-.3.4-.5.9-.7 1.5s-.3 1.4-.3 2.3c.4-.4.8-.8 1.3-1.1.5-.3 1-.4 1.4-.4 1 0 1.8.3 2.4.9.6.6.9 1.5.9 2.7 0 .6-.1 1.1-.3 1.5-.2.4-.4.8-.7 1.2-.3.3-.7.6-1.1.8-.4-.1-.9 0-1.3 0zm0-1.1c.3 0 .6-.1.8-.2.2-.1.5-.3.6-.5.2-.2.3-.5.4-.8.1-.3.2-.7.2-1 0-.8-.2-1.3-.5-1.8-.3-.4-.9-.6-1.6-.6-.4 0-.8.1-1.2.4-.4.2-.8.6-1.2 1.2.1 1.1.4 2 .8 2.6s.9.7 1.7.7z"/></g></g><g><path class="st15" d="M1084.6 892.7v-14.1h-4.8V877h11.5v1.7h-4.8v14.1h-1.9zM1094.2 892.7V877h2v6.6h7.3V877h2v15.7h-2v-7.4h-7.3v7.4h-2zM1109.8 892.7V877h9.1v1.7h-7.1v4.9h6v1.7h-6v5.7h7.3v1.7h-9.3zM1127.2 892.7V877h4.7c.8 0 1.5.1 2.2.2s1.2.4 1.7.7c.5.3.8.7 1.1 1.2s.4 1.1.4 1.8c0 .8-.2 1.5-.6 2.1-.4.6-1 1.1-1.7 1.3v.1c1 .2 1.7.6 2.3 1.2s.9 1.5.9 2.6c0 .8-.1 1.4-.4 2s-.7 1.1-1.2 1.4c-.5.4-1.2.7-1.9.9-.7.2-1.5.3-2.4.3h-5.1zm2-9h2.3c1.3 0 2.3-.2 2.9-.7s.9-1.1.9-1.9c0-.9-.3-1.6-.9-1.9-.6-.4-1.5-.6-2.8-.6h-2.4v5.1zm0 7.4h2.7c1.4 0 2.4-.3 3.2-.8.8-.5 1.1-1.3 1.1-2.3 0-1-.4-1.7-1.1-2.1-.7-.5-1.8-.7-3.2-.7h-2.7v5.9zM1141.4 892.7V877h9.1v1.7h-7.1v4.9h6v1.7h-6v5.7h7.3v1.7h-9.3zM1160.2 893c-1 0-2-.2-2.9-.6s-1.6-.9-2.2-1.6c-.6-.7-1.1-1.6-1.5-2.6s-.5-2.2-.5-3.4c0-1.3.2-2.4.5-3.4.4-1 .9-1.9 1.5-2.6.6-.7 1.4-1.2 2.3-1.6.9-.4 1.9-.6 2.9-.6.5 0 1 .1 1.5.2s.9.3 1.2.4c.4.2.7.4 1 .6.3.2.6.5.8.7l-1.1 1.3c-.4-.4-.9-.8-1.4-1.1-.5-.3-1.2-.4-2-.4s-1.5.1-2.2.4c-.6.3-1.2.7-1.6 1.3-.4.6-.8 1.2-1 2-.2.8-.4 1.7-.4 2.6 0 1 .1 1.9.3 2.7.2.8.6 1.5 1 2 .4.6 1 1 1.6 1.3.6.3 1.4.5 2.2.5.6 0 1.1-.1 1.6-.3s.9-.4 1.2-.7V886h-3.3v-1.7h5.2v6.6c-.5.5-1.2 1-2 1.3-.7.6-1.6.8-2.7.8zM1168.8 892.7V877h2v15.7h-2zM1175.1 892.7V877h2.1l5.7 9.9 1.7 3.3h.1c0-.8-.1-1.6-.2-2.5-.1-.9-.1-1.7-.1-2.5V877h1.9v15.7h-2.1l-5.7-9.9-1.7-3.2h-.1c.1.8.1 1.6.2 2.4.1.8.1 1.7.1 2.5v8.2h-1.9zM1190.7 892.7V877h2.1l5.7 9.9 1.7 3.3h.1c0-.8-.1-1.6-.2-2.5-.1-.9-.1-1.7-.1-2.5V877h1.9v15.7h-2.1l-5.7-9.9-1.7-3.2h-.1c.1.8.1 1.6.2 2.4.1.8.1 1.7.1 2.5v8.2h-1.9zM1206.2 892.7V877h2v15.7h-2zM1212.5 892.7V877h2.1l5.7 9.9 1.7 3.3h.1c0-.8-.1-1.6-.2-2.5-.1-.9-.1-1.7-.1-2.5V877h1.9v15.7h-2.1l-5.7-9.9-1.7-3.2h-.1c.1.8.1 1.6.2 2.4.1.8.1 1.7.1 2.5v8.2h-1.9zM1234.2 893c-1 0-2-.2-2.9-.6-.9-.4-1.6-.9-2.2-1.6-.6-.7-1.1-1.6-1.5-2.6-.4-1-.5-2.2-.5-3.4 0-1.3.2-2.4.5-3.4s.9-1.9 1.5-2.6c.6-.7 1.4-1.2 2.3-1.6.9-.4 1.9-.6 2.9-.6.5 0 1 .1 1.5.2s.9.3 1.2.4c.4.2.7.4 1 .6.3.2.6.5.8.7l-1.1 1.3c-.4-.4-.9-.8-1.4-1.1-.5-.3-1.2-.4-2-.4s-1.5.1-2.2.4c-.6.3-1.2.7-1.6 1.3-.4.6-.8 1.2-1 2-.2.8-.4 1.7-.4 2.6 0 1 .1 1.9.3 2.7.2.8.6 1.5 1 2 .4.6 1 1 1.6 1.3.6.3 1.4.5 2.2.5.6 0 1.1-.1 1.6-.3s.9-.4 1.2-.7V886h-3.3v-1.7h5.2v6.6c-.5.5-1.2 1-2 1.3-.7.6-1.6.8-2.7.8zM1253.4 893c-1 0-1.9-.2-2.7-.6-.8-.4-1.5-.9-2.1-1.6-.6-.7-1.1-1.6-1.4-2.6-.3-1-.5-2.2-.5-3.4 0-1.3.2-2.4.5-3.4s.8-1.8 1.4-2.5c.6-.7 1.3-1.2 2.1-1.6.8-.4 1.7-.6 2.7-.6s1.9.2 2.7.6c.8.4 1.5.9 2.1 1.6.6.7 1.1 1.5 1.4 2.5.3 1 .5 2.1.5 3.4 0 1.3-.2 2.4-.5 3.4s-.8 1.9-1.4 2.6-1.3 1.3-2.1 1.6c-.8.4-1.7.6-2.7.6zm0-1.8c.7 0 1.3-.2 1.9-.5s1.1-.7 1.5-1.3c.4-.6.7-1.2.9-2s.3-1.7.3-2.7c0-1-.1-1.9-.3-2.6s-.5-1.4-.9-2-.9-1-1.5-1.3-1.2-.4-1.9-.4-1.3.1-1.9.4c-.6.3-1.1.7-1.5 1.3s-.7 1.2-.9 2c-.2.8-.3 1.7-.3 2.6 0 1 .1 1.9.3 2.7.2.8.5 1.5.9 2 .4.6.9 1 1.5 1.3.6.4 1.2.5 1.9.5zM1263.6 892.7V877h9.1v1.7h-7.1v5.3h6v1.7h-6v7.1h-2zM1086.1 921.5v-15.7h2v15.7h-2zM1098.6 921.8c-1 0-2-.2-2.9-.6-.9-.4-1.6-.9-2.2-1.6-.6-.7-1.1-1.6-1.5-2.6-.4-1-.5-2.2-.5-3.4 0-1.3.2-2.4.5-3.4.4-1 .9-1.9 1.5-2.6.6-.7 1.4-1.2 2.3-1.6s1.9-.6 2.9-.6c.5 0 1 .1 1.5.2s.9.3 1.2.4c.4.2.7.4 1 .6.3.2.6.5.8.7l-1.1 1.3c-.4-.4-.9-.8-1.4-1.1-.5-.3-1.2-.4-2-.4s-1.5.1-2.2.4c-.6.3-1.2.7-1.6 1.3-.4.6-.8 1.2-1 2-.2.8-.4 1.7-.4 2.6 0 1 .1 1.9.3 2.7.2.8.6 1.5 1 2s1 1 1.6 1.3 1.4.5 2.2.5c.6 0 1.1-.1 1.6-.3s.9-.4 1.2-.7V915h-3.3v-1.7h5.2v6.6c-.5.5-1.2 1-2 1.3-.7.4-1.7.6-2.7.6zM1107.2 921.5v-15.7h2v14h6.9v1.7h-8.9zM1123.8 921.8c-.8 0-1.5-.1-2.2-.3-.7-.2-1.3-.6-1.8-1.2s-.9-1.2-1.2-2.1-.4-1.9-.4-3.2v-9.2h2v9.3c0 .9.1 1.7.3 2.4.2.6.5 1.2.8 1.5.3.4.7.7 1.2.8s.9.3 1.4.3c.5 0 1-.1 1.5-.3.4-.2.8-.4 1.2-.8s.6-.9.8-1.5c.2-.6.3-1.4.3-2.4v-9.3h1.9v9.2c0 1.3-.1 2.3-.4 3.2-.3.9-.7 1.6-1.2 2.1s-1.1.9-1.8 1.2-1.6.3-2.4.3zM1132.5 916.3v-1.5h5.5v1.5h-5.5zM1138.7 921.5l4.6-8.1-4.3-7.6h2.2l2.1 4c.2.4.4.7.6 1.1.2.3.4.7.6 1.2h.1c.2-.5.4-.9.6-1.2.2-.3.3-.7.5-1.1l2.1-4h2.1l-4.3 7.7 4.6 8h-2.2l-2.3-4.2-.6-1.2c-.2-.4-.5-.9-.7-1.3h-.1c-.2.5-.4.9-.6 1.3l-.6 1.2-2.3 4.2h-2.1zM1160.8 921.5v-14.1h-4.8v-1.7h11.5v1.7h-4.8v14.1h-1.9zM1170.4 921.5v-15.7h9.1v1.7h-7.1v4.9h6v1.7h-6v5.7h7.3v1.7h-9.3zM1181 921.5l5.3-15.7h2.3l5.3 15.7h-2.1l-1.5-4.8h-5.7l-1.5 4.8h-2.1zm4.8-8.8l-.7 2.4h4.7l-.7-2.4c-.3-.9-.6-1.8-.8-2.6-.3-.9-.5-1.8-.8-2.7h-.1c-.2.9-.5 1.8-.7 2.7-.3.8-.6 1.7-.9 2.6zM1196.2 921.5v-15.7h2.4l3 8.4c.2.5.4 1.1.6 1.6.2.6.4 1.1.6 1.6h.1c.2-.5.4-1.1.5-1.6.2-.6.3-1.1.5-1.6l3-8.4h2.4v15.7h-1.9v-8.7c0-.7 0-1.5.1-2.3.1-.8.1-1.6.2-2.3h-.1l-1.2 3.6-3 8.2h-1.3l-3-8.2-1.2-3.6h-.1c0 .7.1 1.5.2 2.3.1.8.1 1.6.1 2.3v8.7h-1.9z"/><g><path class="st15" d="M1082.9 867c-1.5 0-2.6-.6-3.3-1.9l1.1-.8c.3.5.6.8.9 1 .3.2.7.3 1.1.3.6 0 1.1-.2 1.4-.6.3-.4.5-1 .5-1.9V855h1.5v8.3c0 .5-.1 1-.2 1.4-.1.5-.3.8-.6 1.2-.3.3-.6.6-1 .8s-.8.3-1.4.3zM1091.3 867c-.7 0-1.3-.2-1.8-.6-.5-.4-.7-1-.7-1.8 0-1 .4-1.7 1.3-2.2s2.2-.9 4.1-1.1c0-.3 0-.5-.1-.8-.1-.3-.1-.5-.3-.7-.1-.2-.3-.4-.5-.5-.2-.1-.5-.2-.9-.2-.5 0-1 .1-1.4.3l-1.2.6-.6-1c.4-.3.9-.5 1.5-.8s1.2-.4 1.9-.4c1.1 0 1.8.3 2.3 1 .5.7.7 1.5.7 2.6v5.4h-1.2l-.1-1h-.1c-.4.3-.9.6-1.3.9s-1.1.3-1.6.3zm.4-1.2c.4 0 .8-.1 1.2-.3.4-.2.8-.5 1.2-.9v-2.4c-.7.1-1.3.2-1.8.3-.5.1-.9.3-1.2.5s-.5.4-.7.6c-.1.2-.2.5-.2.8 0 .5.2.9.5 1.1s.6.3 1 .3zM1098.3 866.8V858h1.2l.1 1.3h.1c.4-.4.9-.8 1.3-1.1.5-.3 1-.4 1.6-.4.9 0 1.6.3 2 .9s.6 1.4.6 2.6v5.5h-1.5v-5.3c0-.8-.1-1.4-.4-1.8-.3-.4-.7-.5-1.3-.5-.5 0-.9.1-1.2.3-.3.2-.7.6-1.2 1v6.3h-1.3zM1110.7 867c-.9 0-1.6-.3-2-.9-.4-.6-.6-1.4-.6-2.6V858h1.5v5.3c0 .8.1 1.4.4 1.8.3.4.7.5 1.3.5.5 0 .9-.1 1.2-.4.3-.2.7-.6 1.2-1.1V858h1.5v8.7h-1.2l-.1-1.4h-.1c-.4.5-.8.9-1.3 1.2-.6.4-1.2.5-1.8.5zM1120 867c-.7 0-1.3-.2-1.8-.6-.5-.4-.7-1-.7-1.8 0-1 .4-1.7 1.3-2.2.9-.5 2.2-.9 4.1-1.1 0-.3 0-.5-.1-.8-.1-.3-.1-.5-.3-.7-.1-.2-.3-.4-.5-.5s-.5-.2-.9-.2c-.5 0-1 .1-1.4.3l-1.2.6-.6-1c.4-.3.9-.5 1.5-.8.6-.2 1.2-.4 1.9-.4 1.1 0 1.8.3 2.3 1 .5.7.7 1.5.7 2.6v5.4h-1.2l-.1-1h-.1c-.4.3-.9.6-1.4.9-.5.2-1 .3-1.5.3zm.4-1.2c.4 0 .8-.1 1.2-.3.4-.2.8-.5 1.2-.9v-2.4c-.7.1-1.3.2-1.8.3-.5.1-.9.3-1.2.5-.3.2-.5.4-.7.6-.1.2-.2.5-.2.8 0 .5.2.9.5 1.1.2.2.6.3 1 .3zM1127 866.8V858h1.2l.1 1.6h.1c.3-.6.7-1 1.1-1.3.4-.3.9-.5 1.4-.5.3 0 .7.1.9.2l-.3 1.3c-.1 0-.3-.1-.4-.1h-.4c-.4 0-.8.2-1.2.5-.4.3-.8.8-1.1 1.6v5.6h-1.4zM1133.9 870.6h-.6c-.2 0-.3-.1-.5-.1l.3-1.2c.1 0 .2.1.3.1h.3c.5 0 .9-.2 1.2-.5s.6-.8.7-1.3l.2-.6-3.5-8.8h1.5l1.8 4.8c.1.4.3.8.4 1.2.1.4.3.8.4 1.3h.1c.1-.4.3-.8.4-1.2.1-.4.2-.8.4-1.2l1.6-4.8h1.4l-3.3 9.5c-.2.4-.3.8-.5 1.2-.2.4-.4.7-.7 1s-.6.5-.9.6c-.2-.1-.6 0-1 0zM1145 866.8v-.9l2.3-2.3c.7-.7 1.2-1.3 1.7-1.9.5-.6.8-1.1 1-1.6.2-.5.4-1 .4-1.4 0-.7-.2-1.2-.5-1.6-.4-.4-.9-.6-1.6-.6-.5 0-.9.1-1.3.4-.4.3-.8.6-1.1 1l-.8-.8c.5-.5 1-1 1.5-1.3.5-.3 1.2-.5 1.9-.5 1.1 0 1.9.3 2.5.9s.9 1.4.9 2.5c0 .5-.1 1.1-.4 1.6-.2.5-.6 1.1-1 1.7-.4.6-.9 1.2-1.5 1.8-.6.6-1.2 1.3-1.9 2 .3 0 .6 0 1-.1s.7 0 1 0h3.3v1.3h-7.4zM1157.7 867c-1.2 0-2.1-.5-2.7-1.5-.6-1-1-2.5-1-4.4s.3-3.4 1-4.4c.6-1 1.6-1.5 2.7-1.5 1.2 0 2.1.5 2.7 1.5.6 1 1 2.5 1 4.4s-.3 3.4-1 4.4c-.7 1-1.6 1.5-2.7 1.5zm0-1.2c.3 0 .6-.1.9-.3.3-.2.5-.5.7-.9s.4-.9.5-1.5c.1-.6.2-1.3.2-2.2 0-.8-.1-1.6-.2-2.2-.1-.6-.3-1.1-.5-1.5s-.4-.7-.7-.8c-.3-.2-.6-.3-.9-.3s-.6.1-.9.3c-.3.2-.5.5-.7.8-.2.4-.4.9-.5 1.5-.1.6-.2 1.3-.2 2.2 0 1.7.2 2.9.6 3.7s1 1.2 1.7 1.2zM1163.6 866.8v-1.2h2.6v-8.5h-2.1v-1c.5-.1 1-.2 1.4-.4.4-.1.7-.3 1.1-.5h1.1v10.3h2.4v1.2h-6.5zM1175.6 867c-.5 0-1-.1-1.5-.2-.5-.2-.9-.4-1.2-.7-.3-.3-.6-.6-.8-1-.2-.4-.3-.8-.3-1.3 0-.4.1-.7.2-1 .1-.3.3-.6.5-.9.2-.3.4-.5.7-.7.3-.2.5-.4.8-.5v-.1c-.4-.3-.8-.7-1.1-1.1s-.5-.9-.5-1.6c0-.4.1-.8.3-1.2.2-.4.4-.7.7-.9.3-.3.6-.5 1-.6.4-.1.8-.2 1.3-.2s1 .1 1.3.2.7.4 1 .6c.3.3.5.6.6 1s.2.8.2 1.2c0 .3-.1.6-.2.9-.1.3-.2.5-.4.8-.2.2-.3.5-.5.6l-.5.5v.1c.3.1.5.3.7.5.2.2.5.4.6.6.2.2.3.5.5.8.1.3.2.6.2 1s-.1.8-.3 1.2-.4.7-.8 1c-.3.3-.7.5-1.2.6-.3.3-.8.4-1.3.4zm0-1.1c.7 0 1.2-.2 1.6-.6s.6-.9.6-1.5c0-.4-.1-.7-.3-1s-.4-.5-.7-.7c-.3-.2-.6-.4-1-.5s-.8-.3-1.2-.5c-.5.3-.8.7-1.1 1.1s-.5.9-.5 1.4c0 .3.1.6.2.9.1.3.3.5.5.7.2.2.5.4.8.5.5.2.8.2 1.1.2zm.8-5.4c.4-.3.7-.7.9-1.1.2-.4.3-.8.3-1.2 0-.6-.2-1.1-.5-1.4-.3-.4-.8-.6-1.5-.6-.5 0-1 .2-1.3.5s-.5.8-.5 1.3c0 .3.1.6.2.9.1.2.3.5.6.7s.5.4.8.5c.3.2.7.3 1 .4z"/></g></g><g><path class="st15" d="M871.7 115.3c-2.4 0-4.4-.5-6-1.4-1.6-.9-3-2.4-4.1-4.3l4.8-3.6c.6 1.1 1.2 1.8 2 2.4.8.5 1.6.8 2.4.8 1.3 0 2.2-.4 2.9-1.2.7-.8 1-2.2 1-4.3V83.5h7.1v20.9c0 1.5-.2 2.9-.6 4.3-.4 1.3-1 2.5-1.8 3.5s-1.9 1.8-3.1 2.4-2.9.7-4.6.7zM901.7 115.3c-2.1 0-4-.4-5.8-1.1s-3.2-1.8-4.5-3.2-2.2-3.1-2.9-5.1c-.7-2-1-4.3-1-6.9 0-2.6.3-4.8 1-6.8s1.7-3.7 2.9-5c1.2-1.4 2.7-2.4 4.5-3.1 1.7-.7 3.7-1.1 5.8-1.1 2.1 0 4 .4 5.8 1.1 1.7.7 3.2 1.8 4.5 3.1 1.2 1.4 2.2 3.1 2.9 5.1.7 2 1 4.3 1 6.8 0 2.6-.3 4.8-1 6.9-.7 2-1.7 3.7-2.9 5.1s-2.7 2.5-4.5 3.2c-1.8.7-3.7 1-5.8 1zm0-6.1c2.1 0 3.8-.9 5.1-2.8 1.2-1.8 1.9-4.3 1.9-7.5 0-3.1-.6-5.6-1.9-7.3-1.2-1.8-2.9-2.6-5.1-2.6-2.1 0-3.8.9-5.1 2.6-1.2 1.8-1.9 4.2-1.9 7.3 0 3.2.6 5.7 1.9 7.5 1.3 1.9 3 2.8 5.1 2.8zM934.1 115.3c-4.1 0-7.2-1.2-9.3-3.6-2.1-2.4-3.2-6.2-3.2-11.5V83.5h7.1V101c0 3.1.5 5.2 1.4 6.4.9 1.2 2.3 1.8 4 1.8s3.1-.6 4.1-1.8c1-1.2 1.4-3.4 1.4-6.4V83.5h6.8v16.8c0 5.2-1 9.1-3.1 11.5-2.1 2.3-5.1 3.5-9.2 3.5zM953.7 114.8V83.5H965c1.7 0 3.2.2 4.7.5s2.7.9 3.8 1.6c1.1.8 2 1.8 2.6 3 .6 1.2 1 2.8 1 4.7 0 2.3-.5 4.2-1.5 5.7s-2.4 2.6-4.1 3.3l7.1 12.5h-7.9l-6-11.3h-3.9v11.3h-7.1zm7.1-16.9h3.6c1.9 0 3.3-.4 4.2-1.2 1-.8 1.5-1.9 1.5-3.5s-.5-2.6-1.5-3.2c-1-.6-2.4-.9-4.2-.9h-3.6v8.8zM983.2 114.8V83.5h7.2l8.2 15.6 3.1 6.9h.2c-.2-1.7-.3-3.5-.6-5.6-.2-2-.3-4-.3-5.9v-11h6.7v31.3h-7.2l-8.2-15.6-3.1-6.8h-.2c.2 1.7.3 3.6.6 5.6.2 2 .3 3.9.3 5.8v11.1h-6.7zM1015.1 114.8V83.5h19.6v6h-12.5v6.3h10.7v5.9h-10.7v7.2h13v6h-20.1zM1046.8 114.8v-11.1l-9.5-20.2h7.6l2.8 7.2c.4 1.2.9 2.3 1.3 3.4s.8 2.3 1.3 3.5h.2c.4-1.2.9-2.4 1.3-3.5s.9-2.2 1.3-3.4l2.8-7.2h7.4l-9.5 20.2v11.1h-7z"/></g><g><path class="st15" d="M1003.7 996.9l-23.9-36.6 12.5-36.8 9-34.9-27.7-35.8 13.4-37 11-35.4-6.9-35.5-.8-36.3 11.1-36-1.4-35.1-17.4-35.8 1-36.2-6.4-35.6-6.2-36.5 15.8-36.2 3.5-35.1-11.9-35.8.2-36.3 2.6-35.5-11.1-36.3 22.6-36.1-7.2-34.9-14.8-35.6 3.7-1.5 14.9 35.9.1.2 7.6 36.6-22.5 35.9 10.8 35.3-2.7 36.2-.2 35.5 12 35.9-.1.4-3.6 36.2-15.5 35.7 5.9 35.3 6.5 36v.2l-1 35.4 17.4 35.7v.5l1.4 36.2-.1.3-11 35.6.8 35.4 7.1 36.2-11.5 36.4-12.6 35 27.5 35.6-9.5 37-11.8 35.1 22.8 34.9z"/></g><linearGradient id="SVGID_2_" gradientUnits="userSpaceOnUse" x1="495.261" y1="1445.2" x2="495.261" y2="1318.644" gradientTransform="translate(494.232 -447.767)"><stop offset="0" stop-color="#2096d4"/><stop offset="1" stop-color="#2096d4" stop-opacity="0"/></linearGradient><path fill="url(#SVGID_2_)" d="M933 866.8h113v142.9H933z"/></svg>