<?xml version="1.0" encoding="utf-8"?>
<!-- Generator: Adobe Illustrator 21.1.0, SVG Export Plug-In . SVG Version: 6.00 Build 0)  -->
<svg version="1.1" id="Layer_1" xmlns="http://www.w3.org/2000/svg" xmlns:xlink="http://www.w3.org/1999/xlink" x="0px" y="0px"
	 viewBox="0 0 1919.2 1072.9" style="enable-background:new 0 0 1919.2 1072.9;" xml:space="preserve">
<style type="text/css">
	.st0{display:none;}
	.st1{display:inline;opacity:0.29;fill:#99BCC6;}
	.st2{display:inline;fill:#002735;}
	.st3{display:inline;}
	.st4{fill:#D6EEF4;}
	.st5{fill:#F6F4D5;}
	.st6{display:inline;opacity:0.8;fill:url(#SVGID_1_);}
	.st7{display:inline;opacity:0.8;fill:url(#SVGID_2_);}
	.st8{display:inline;opacity:0.8;fill:url(#SVGID_3_);}
	.st9{display:inline;opacity:0.3;fill:#08353F;}
	.st10{display:inline;opacity:0.3;fill:#022F3D;}
	.st11{display:inline;opacity:0.3;fill:#02272B;}
	.st12{fill:#DDEFFA;}
	.st13{fill:#A1CADA;}
	.st14{fill:none;}
	.st15{fill:#99BDC6;}
	.st16{fill:#FFFFFF;}
	.st17{fill:#E9E9EA;}
	.st18{fill:#799FA5;}
	.st19{fill-rule:evenodd;clip-rule:evenodd;fill:#082D3A;}
	.st20{fill-rule:evenodd;clip-rule:evenodd;fill:#173A4B;}
	.st21{fill-rule:evenodd;clip-rule:evenodd;fill:#224F67;}
	.st22{fill-rule:evenodd;clip-rule:evenodd;fill:#0B4559;}
	.st23{fill-rule:evenodd;clip-rule:evenodd;fill:#1D4859;}
	.st24{fill-rule:evenodd;clip-rule:evenodd;fill:#093F4C;}
	.st25{fill:#E84C59;}
	.st26{fill:#EE7B5C;}
	.st27{fill:#F9C862;}
	.st28{fill:#062633;}
	.st29{fill:#ABAAAA;}
	.st30{fill:#E1DFE0;}
	.st31{fill:#041D26;}
	.st32{fill:#6E6E6E;}
	.st33{fill:#C0C0C0;}
	.st34{fill:#5E3E21;}
	.st35{fill:#54371D;}
	.st36{fill:#6D3325;}
	.st37{fill:#783A28;}
	.st38{fill:#8F4729;}
	.st39{fill:#DCB680;}
	.st40{fill:#C69666;}
	.st41{fill:#662F1E;}
	.st42{fill:#231D13;}
	.st43{fill:#574C3E;}
	.st44{fill:#442C1A;}
	.st45{opacity:0.3;fill:#052532;}
</style>
<g class="st0">
	<rect y="-3.3" class="st1" width="1920" height="1080"/>
	<rect class="st2" width="1919.2" height="1072.9"/>
	<g class="st3">
		<polygon class="st4" points="965.4,141.3 966.4,135.8 966.6,141.3 971.6,142.1 966.5,142.6 965.5,148.5 965.3,142.6 960.4,142.1 
					"/>
		<polygon class="st4" points="1864,215.2 1866.3,202.6 1866.7,215.2 1878.1,216.8 1866.6,218.1 1864.3,231.4 1863.7,218.1 
			1852.5,216.8 		"/>
		<polygon class="st4" points="473,62.8 474,57.3 474.2,62.8 479.2,63.6 474.2,64.1 473.1,70 472.9,64.1 468,63.6 		"/>
		<polygon class="st4" points="1251.7,59.3 1252.7,53.8 1252.8,59.3 1257.8,60 1252.8,60.6 1251.8,66.4 1251.5,60.6 1246.6,60 		"/>
		<polygon class="st4" points="856,125.4 857,119.9 857.2,125.4 862.1,126.1 857.1,126.7 856.1,132.5 855.9,126.7 850.9,126.1 		"/>
		<polygon class="st4" points="1071.1,187.9 1072.4,180.7 1072.6,187.9 1079.2,188.8 1072.5,189.6 1071.2,197.3 1070.9,189.6 
			1064.4,188.8 		"/>
		<polygon class="st4" points="1102.5,89.5 1103.5,84 1103.7,89.5 1108.6,90.2 1103.6,90.8 1102.6,96.6 1102.4,90.8 1097.4,90.2 		
			"/>
		<polygon class="st4" points="1557.3,56.2 1559.6,43.6 1560,56.2 1571.3,57.8 1559.9,59.2 1557.6,72.4 1557,59.2 1545.8,57.8 		"/>
		<polygon class="st4" points="106,39.7 107,34.2 107.2,39.7 112.2,40.4 107.1,41 106.1,46.8 105.9,41 100.9,40.4 		"/>
		<polygon class="st4" points="59.7,130.4 60.7,124.9 60.9,130.4 65.9,131.1 60.8,131.7 59.8,137.5 59.6,131.7 54.7,131.1 		"/>
		<polygon class="st4" points="222.7,130.4 223.7,124.9 223.9,130.4 228.9,131.1 223.8,131.7 222.8,137.5 222.6,131.7 217.6,131.1 
					"/>
		<polygon class="st4" points="164,218.9 165.1,213.4 165.2,218.9 170.2,219.6 165.2,220.2 164.2,226 163.9,220.2 159,219.6 		"/>
		<polygon class="st4" points="660.1,185.5 661.1,179.9 661.3,185.5 666.2,186.2 661.2,186.8 660.2,192.6 660,186.8 655,186.2 		"/>
		<polygon class="st4" points="319.7,70.2 320.7,64.7 320.9,70.2 325.9,70.9 320.9,71.5 319.8,77.3 319.6,71.5 314.7,70.9 		"/>
		<polygon class="st4" points="1811.1,124.1 1812.1,118.6 1812.3,124.1 1817.3,124.8 1812.2,125.4 1811.2,131.2 1811,125.4 
			1806.1,124.8 		"/>
		<polygon class="st4" points="1695.4,73.5 1693.6,80.8 1693.8,73.4 1687.3,72.1 1694,71.7 1695.8,64.1 1695.7,71.8 1702.1,73 		"/>
		<polygon class="st4" points="1599.5,207 1598.8,210.2 1598.9,207 1596,206.4 1598.9,206.2 1599.7,202.9 1599.7,206.3 
			1602.5,206.8 		"/>
		<polygon class="st4" points="1465.3,209.3 1463.6,216.6 1463.8,209.2 1457.2,207.9 1463.9,207.5 1465.7,199.9 1465.6,207.6 
			1472.1,208.8 		"/>
		<polygon class="st4" points="1912.5,80 1910.7,87.3 1910.9,79.9 1904.4,78.6 1911.1,78.2 1912.9,70.6 1912.8,78.3 1919.2,79.5 		
			"/>
		<polygon class="st4" points="1405.7,156.5 1404.9,159.7 1405,156.4 1402.1,155.9 1405.1,155.7 1405.9,152.3 1405.8,155.7 
			1408.6,156.3 		"/>
		<polygon class="st4" points="1721.7,202.3 1721.1,205.7 1721,202.3 1717.7,201.8 1721,201.4 1721.7,197.8 1721.8,201.4 
			1725,201.8 		"/>
		<polygon class="st4" points="1563,121.1 1562.3,124.9 1562.1,121.1 1558.6,120.6 1562.2,120.2 1562.9,116.2 1563.1,120.2 
			1566.6,120.6 		"/>
		<polygon class="st4" points="1198.6,221.7 1199.1,219.7 1199.1,221.7 1201,222.1 1199,222.2 1198.5,224.3 1198.6,222.1 
			1196.7,221.8 		"/>
		<polygon class="st4" points="1361.8,235 1362.3,233 1362.3,235 1364.2,235.4 1362.2,235.5 1361.7,237.6 1361.8,235.5 
			1359.9,235.1 		"/>
		<polygon class="st4" points="1432.8,60.5 1432,63.6 1432.1,60.4 1429.2,59.8 1432.2,59.7 1432.9,56.3 1432.9,59.7 1435.7,60.2 		
			"/>
		<polygon class="st4" points="957.5,41 956.8,44.5 956.7,41 953.4,40.6 956.7,40.2 957.4,36.6 957.5,40.2 960.8,40.6 		"/>
		<polygon class="st4" points="823.5,76.1 822.8,79.6 822.7,76.1 819.4,75.7 822.7,75.3 823.4,71.6 823.5,75.3 826.7,75.7 		"/>
		<polygon class="st4" points="705.7,44.8 706.2,42.8 706.1,44.9 708,45.2 706.1,45.3 705.6,47.4 705.6,45.3 703.8,45 		"/>
		<polygon class="st4" points="511.1,197.1 510.5,200.5 510.4,197.1 507.1,196.6 510.4,196.2 511.1,192.6 511.2,196.2 514.4,196.6 
					"/>
		<polygon class="st4" points="66.3,252.2 65.6,255.7 65.5,252.2 62.2,251.8 65.5,251.4 66.2,247.8 66.3,251.4 69.5,251.8 		"/>
		<polygon class="st4" points="346.9,194.4 347.4,192.4 347.4,194.5 349.2,194.8 347.3,194.9 346.8,197 346.8,194.9 345,194.6 		"/>
		<polygon class="st4" points="766.4,195.1 766.9,193.1 766.9,195.2 768.8,195.5 766.8,195.6 766.3,197.7 766.4,195.6 764.5,195.3 
					"/>
		<polygon class="st4" points="1702.6,276.2 1701.7,271.2 1701.6,276.2 1697,276.9 1701.6,277.4 1702.5,282.7 1702.8,277.4 
			1707.3,276.9 		"/>
		<polygon class="st4" points="629.7,276.5 630.3,279.6 630.4,276.5 633.4,276 630.4,275.7 629.8,272.4 629.6,275.7 626.7,276 		"/>
		<polygon class="st4" points="1085.7,255.8 1086.3,259 1086.4,255.8 1089.4,255.4 1086.3,255.1 1085.7,251.7 1085.6,255.1 
			1082.7,255.4 		"/>
		<polygon class="st4" points="826.9,270.9 826.5,269.1 826.5,270.9 824.8,271.3 826.6,271.4 827,273.3 827,271.3 828.7,271 		"/>
		<polygon class="st4" points="382.1,265.2 381.6,263.4 381.7,265.3 380,265.6 381.7,265.7 382.2,267.6 382.2,265.7 383.9,265.4 		
			"/>
		<polygon class="st4" points="241.3,220.2 241.9,223.3 242,220.2 245,219.7 242,219.4 241.4,216.1 241.2,219.4 238.3,219.7 		"/>
		<polygon class="st5" points="583.8,90.8 583.1,94.3 583,90.8 579.8,90.4 583.1,90 583.7,86.3 583.9,90 587.1,90.4 		"/>
		<polygon class="st4" points="569.4,163.3 571.7,150.7 572.1,163.3 583.4,164.9 571.9,166.3 569.7,179.5 569.1,166.3 557.9,164.9 
					"/>
	</g>
</g>
<g class="st0">
	
		<radialGradient id="SVGID_1_" cx="959.6454" cy="1347.6294" r="693.0947" gradientTransform="matrix(1 0 0 1.2158 0 -805.7819)" gradientUnits="userSpaceOnUse">
		<stop  offset="0" style="stop-color:#01323E;stop-opacity:0.5"/>
		<stop  offset="1" style="stop-color:#01323E;stop-opacity:0"/>
	</radialGradient>
	<path class="st6" d="M1919.3,602c-62.8-4.4-126-7.9-190-10c-132.5-4.2-266.4-2-398.3,4.1c-155.2,7.2-308.2,19.9-464.5,23.5
		c-136.1,3.1-273-0.8-407.5-8.2c-89.9-5-179.8-11.6-270.9-11.1C123.2,600.6,56.5,605,0,615.3v460.1h1919.2V602z"/>
	<linearGradient id="SVGID_2_" gradientUnits="userSpaceOnUse" x1="2.652219e-02" y1="779.4796" x2="1919.6259" y2="779.4796">
		<stop  offset="0" style="stop-color:#01323E"/>
		<stop  offset="1" style="stop-color:#01323E;stop-opacity:0"/>
	</linearGradient>
	<path class="st7" d="M1919.6,1073.7l-0.4-485.5c-162.4-37-322.6-83.8-489.2-98c-109.6-9.4-220.3-4.5-329.4,9.1
		c-128.3,16-254.9,44.1-384.1,52c-112.5,6.9-225.7-1.7-337-18.3c-74.3-11.1-148.7-25.7-224-24.6C101.9,509.2,46.7,519,0,541.7
		l0.4,532H1919.6z"/>
	<radialGradient id="SVGID_3_" cx="960.0132" cy="735.2408" r="721.0012" gradientUnits="userSpaceOnUse">
		<stop  offset="0" style="stop-color:#01323E;stop-opacity:0.5"/>
		<stop  offset="1" style="stop-color:#01323E;stop-opacity:0"/>
	</radialGradient>
	<path class="st8" d="M1920,397.3c-62.8-3.6-224.8,14.7-288.9,13c-132.5-3.5-167.6-22.9-299.4-17.9c-155.2,6-264.1,3.3-420.4,6.3
		c-136.1,2.6-317.1,12.4-451.6,6.3c-89.9-4.1-179.8-9.6-270.9-9.1c-64.9,0.3-131.6,4-188.1,12.4L0,1078.9h1919.2L1920,397.3z"/>
	<path class="st9" d="M0,1075.4V758.8c162.4-38.9,322.6-87.9,489.2-102.9c109.6-9.9,220.3-4.8,329.4,9.5
		c128.3,16.8,254.9,46.3,384.1,54.5c112.5,7.2,225.7-1.8,337-19.2c74.3-11.6,148.7-27,224-25.8c53.7,0.9,108.8,11.2,155.5,35v365.5
		H0z"/>
	<path class="st10" d="M1919.3,1072.9V874.5c-162.4-24.4-322.6-55.1-489.2-64.5c-109.6-6.2-220.3-3-329.4,6
		c-128.3,10.5-254.9,29-384.1,34.2c-112.5,4.5-225.7-1.1-337-12c-74.3-7.3-148.7-16.9-224-16.2c-53.7,0.5-108.8,7-155.5,21.9l0,229
		H1919.3z"/>
	<path class="st11" d="M0,1075.4l0-145.2c162.4-17.8,322.6-40.3,489.2-47.2c109.6-4.5,220.3-2.2,329.4,4.4
		c128.3,7.7,254.9,21.2,384.1,25c112.5,3.3,225.7-0.8,337-8.8c74.3-5.3,148.7-12.4,224-11.8c53.7,0.4,108.8,5.1,155.5,16v167.5H0z"
		/>
</g>
<g>
	<g>
		<polygon class="st4" points="1137.9,330.2 1138.4,328.2 1138.4,330.2 1140.2,330.6 1138.3,330.7 1137.8,332.8 1137.8,330.7 
			1136,330.4 		"/>
		<polygon class="st4" points="1226,373.3 1225.6,371.5 1225.6,373.4 1223.9,373.7 1225.7,373.8 1226.1,375.7 1226.1,373.8 
			1227.8,373.5 		"/>
		<path class="st12" d="M1139.5,504.9c-0.5,0.5-0.9,1-1.3,1.6C1138.6,505.9,1139,505.4,1139.5,504.9z"/>
		<polygon class="st4" points="1270.8,339.6 1271.9,333.5 1272.1,339.6 1277.6,340.4 1272,341 1270.9,347.4 1270.7,341 
			1265.2,340.4 		"/>
		<polygon class="st4" points="1158.6,367 1157.9,370.5 1157.8,367 1154.6,366.6 1157.8,366.2 1158.5,362.6 1158.7,366.2 
			1161.9,366.6 		"/>
		<polygon class="st4" points="1203.2,477 1203.8,480.1 1203.9,477 1206.9,476.6 1203.9,476.2 1203.3,472.9 1203.2,476.2 
			1200.2,476.6 		"/>
		<polygon class="st4" points="1367.4,517.4 1367,515.6 1367,517.4 1365.3,517.8 1367.1,517.9 1367.5,519.8 1367.5,517.8 
			1369.2,517.5 		"/>
		<path class="st13" d="M1080.3,395c0,0,9.6,10.4,10.7,16.8c1.1,6.4,0,39.5,0,39.5l16.4,22.5c0,0-0.5,9.8,2.9,17
			c3.4,7.2,9,20.7,8.5,31.3c-0.5,10.6,0,24.4,0,24.4l2.6,5.8c0,0-0.8,6.4,1.3,8.2c2.1,1.9,6.9,11.1,5.6,16.7
			c-1.3,5.6-5.6,10.9-5.6,10.9s6.6,45.1,10.1,53c3.4,8,8.2,21.2,8.2,21.2s-0.5,1.1,4-4s6.9,2.4,7.2,8.5c0.3,6.1,1.6,65.8,5.6,73.4
			c4,7.7,6.4,6.6,6.1,11.7s2.4,29.7,2.4,29.7l6.4,8.2v16.2l2.9,4.2c0,0,11.7-23.9,15.4-26c3.7-2.1,2.9,0.8,5.6,1.6
			c2.7,0.8,4.2,0,4.2,6.1s0,33.1,0,33.1s5.6,3.2,6.1,7.4c0.5,4.2,0,23.3,2.1,26c2.1,2.7-0.5,20.1,4,26.2s9,19.9,10.3,27
			c1.3,7.2-1.3,34.2,0,39.5c1.3,5.3,10.6,29.4,10.6,29.4s0.8,3.4,4.5-4c3.7-7.4,4.2-8.7,4.2-8.7l1.6-21.2c0,0,4.8-21.7,9.8-30.2
			c5-8.5,4.8-14.1,4.8-20.4c0-6.4,1.9-8,2.7-11.4s1.6-22,1.6-29.2s-3.2-11.1,0-13c3.2-1.9,8.2-4.8,10.1-15.6
			c1.9-10.9,7.4-50.6,7.4-50.6s8.5-23.6,11.9-28.1c3.4-4.5,12.7-14.1,14.6-17.2c1.9-3.2,4-33.4,4-33.4l3.2-26.8c0,0,13-14.3,13.3-17
			c0.3-2.7,1.6-21.7,2.7-24.9s11.9-20.4,11.9-20.4l1.9-29.7l10.1-33.9v-6.4l7.2-7.2v-6.9c0,0,8-11.9,10.1-15.9s4-6.9,8.2-8.2
			c4.2-1.3,6.6-7.4,6.6-9s4.2-29.4,9.8-36.9c5.6-7.4,9.8-14.1,9.3-20.1s8.2-14.6,8.2-17.5c0-2.9,6-9,6-9l4.9-12.8"/>
		<path class="st14" d="M1423.1,530.5c2.2,2.1,3.7,4.6,4.1,7.1c2.8,0.8,5.8,1.5,8.8,2.1l5.2,0.4c-3.7-2.2-8.6-4.1-14.4-5.6
			c9.8,0.9,19.1,2.6,27.2,4.7c-7.8-3.4-16.1-6.3-24.7-8.7C1427.3,530.6,1425.2,530.5,1423.1,530.5z"/>
		<path class="st15" d="M1201.2,461.1c5.2-3.8,15.1-14.3,22.1-15.1c-2.4,3.1-10,12.5-12.3,15.3c1.5,0.2-4.6,19.2-2.3,20.8
			c1.5,1,0.9,4.6,2.9,5.6c1.5,0.8,4.2,0.6,5.9,1.7c4.7,2.9,3.3,7.5,6.2,10.8c0.5,0.6,1,1,1.5,1.3c3.1-3.8,14.1-25.8,19.9-27.3
			c2-0.4,6.7-11.5,8.6-13.5c1.2-1.7,4.2-1.7,5.8-2.8c4.9-3.7,7.7-9.7,13.9-10.2c5-0.4,9.4-9.5,14.8-9.2c1.1,0.4,2.3,1.9,3.9,0.9
			c6.2-2.1,11.4-9.9,17.9-11.3c-2.4,5.1-9,10.1-13.4,14c-1,1.3-2.8,9.6-3.9,9.3c-2.3-0.3-4.5-2.7-7.2-2
			c-8.8,4.4-19.9,19.8-22.6,29.1c2.6-2.3,8.5-13.1,12-14.5c-1.4,2.2-2.4,5.1-3.3,7.5c5.3-3,8.3-6.3,11.4-11.7
			c0.7-1.9,4.1-2.9,5.8-4.4c-1.2,3.4-2.9,6.5-5,9c-2.2,2-3.4,5.8-4.5,9.3c2.6,0.4,4.2,1.8,6.8,4.2c1.5,1.4,4.9-0.5,6.4,0.6
			c1.4,1,1.9,1.2,2.4,1.1c2.3-6,4-10.3,5.8-16.6c-0.7,1.9,0.6,3.5,0.1,4.9c-1.1,4.6-1.6,7.3-1.3,12c3.1,1,7.3-5.4,9.3-3.8
			c0.7,0.5,1.4,1,2.4,1.3c3.5,1.1,8.9-0.9,12.7-0.1c3.8,0.8,5.9,2.1,8.2,5c3.2-5.9,10-6.8,16.8-9.9c1.4-0.6,1.4-3.8,3.3-4.2
			c8.2-2.5,10.3-5.2,14.1-10.9c-6,3.3-11.2,2.7-16.7,7.8c-2.8,2.8-8,2-11.3,4.6c-1.8,1.5-2.9,1.5-4.2,3.2c0.3-2.6,0.6-3.4,2-5.6
			c0.5-1.4,4.1-1.3,4.6-2.7c3.8-5.7,10.3-3.6,13.6-9.4c-7.9,5.3-16,5.9-24.6,11.5c-3.9,2.4-6.3,4.1-10.3,7c-1.4,0.6-4.3,0.1-5.9,1.2
			c1-2.9,0.6-6.8,2.2-7.9c3.5-4.7,2.7-7.5,4.9-10.5c2.8-4.4,11.2-4.2,18.1-5c4.4-0.6,6.3-0.7,11.1-2.2c3.5-1.5,4.7-6.5,7.9-6.9
			c5.7-0.7,9.4,4.2,14.8,6.1c0.5-3.1,2.2-4.6,5.1-5.8c9.1-3.2,17.3-8.2,25.1-13.5l-12.7-4.5l-13.8-4.9c-5.8,1.2-11.1,4.2-15,7.9
			c-1.6-2.2-3.8-4.6-5.9-3.7c-15.1,4.9-29.4-2.3-44.4-1.1c-6.8,0.3-12.4,2.6-19.1,0.8c5.9-1.2,11.9-1.2,17.4-3
			c1.6-1.1,4.8,0.1,6.2-0.5c4.8-1.6,8.5-5.1,12.9-7.3c-0.3,2.6-4.9,5.3-3.3,5.9c3.6,3.4,8.9,2.1,13-2.4c0.3-1,2.5-1.8,4.1-1.3
			c-1.6,2.7-3.5,4.7-5,7.4c0.7-0.3,2.1-0.9,2.7-0.7c7.4,3.1,13.1-4.6,21.1-5c-1,1.3-0.5,4.7,0.4,3.9c2.9-1,5.8-2,8.6-3.1l-31.6-11.2
			c-5.5,1-11,2.2-16.8,3.5c-2,0.4-3.9,2.4-6,3.3c-3.7,1.9-8.7-0.9-13.6-1c-0.7,0.3,0,1.6-1.4,2.2c-6.2,2.1-11.7,4-15.5,9.7
			c-0.3,1-3.6-0.2-4.4,0.6c-1.6,1.1-2.3,3-1.7,4.8c-9.5-0.6-19.3,6.5-25.5,14c-1.2,1.7-7.9-3.3-13.6-2.6c-11.2,2.5-21,1.2-32.1,1.6
			c-5.3-0.3-9.6,9.5-12.8,13.7C1197.6,456.2,1198.7,460.7,1201.2,461.1z"/>
		<path class="st15" d="M1319.8,557.4c-1.6-2.1,1.4-4.4,0.4-6.9c-1.3-3.2-3.9-5.6-5.2-8.9c3.2,4.3,3.8,6.8,4.9,13.5
			c-0.1,0.6,2.1,2.3,2,2.8c0.2,3.6-0.6,6.9,0.7,10.1c0.4,0.7,2.2-0.6,2.7-0.5c2,6.9,7,5.2,12.3,7c-3.4-3.2-5.4-5.4-8.1-9.5
			c4.9,3.3,7,7.3,11.9,10c-0.2-1-0.3-2-0.7-2.7c-3.3-3.7-5.2-5.9-8.1-9.5c-6.1-7.5-7.4-15-13-22c-1.5-1.2-3.2-2.2-4.6-3.9
			c-1.4-0.9-0.8-3.1-2.2-4c1.9,1,2.2,4,3.7,4.4c4.3,1.6,4.2,2.8,7.7,5.9c0.5,0.1,1.3-0.9,1.8-0.8c1.9,5.6,5.3,10.2,10,12.6
			c-0.4-0.4-0.8-0.7-1.2-1.1c-2.9-3-2.8-8.3-5.8-10.8c-5.7-4.9-5.6-10.1-9.6-15.7c0.6,0.3,1.3,0.7,1.9,1c-2-3.7-4.2-7.4-7-10.4
			c2.7,1.8,5.3,4.2,6.8,6.9c2,2.8,1.5,5.6,5.7,5.5c-0.3,1.1,1.2,1.5,0.5,2.5c3.5,0.8,4.7,4.6,7.3,7c-0.1-4.1-3-7.2-5.5-10.1
			c-0.9-0.8-0.8-3.1-1.7-3.9c-2.5-2.9-3.5-3.8-4.7-7.6c-1.8-4-1.1-8.2-2.3-12.3c-0.6-0.2-1-0.6-0.7-1.9c0.3,0.6,0.5,1.3,0.7,1.9
			c0.6,0.2,1.5,0,1.9,0.5c1,2.6,0.5,6.6,2.1,8.7c1.4,0.9,3.3,1.4,4.1,2.7c0.9,0.8-1.7,1.4-1.1,3.3c1.9,5.1,5.1,7.1,6.9,12.8
			c0.4,0.7,1.5,0.4,2.6,0c2,8.3,5,15.2,10.7,20.2c-1.2-3.3-4.2-7.1-5.4-10.1c-1.4-3.3-0.9-6.4-2.4-9.5c-3.4-6.9-8.1-13.2-9.4-21.3
			c-0.9-5.7,2.9-4.8-2.4-6.6c0.4-1.7,0.4-4-0.1-4.1c-3.8-1.5-4.5-5.2-7-8.1c-0.6,0.4-1.4,1.4-1.9,1.3c-1.3-3.2-2.4-1.3-6.6,10.2
			c-0.3,1.1-0.3,3.5-0.2,5.2c-4.6-0.5-1.6-2.7-2.6-7.6c0.1-0.6-2.1,0.1-3-0.7c-1.1-2-0.2-5.9-1.4-7.4c-1.5-2.7-6.4,0.3-7.9-1.9
			c-2.4-3.1-4.9-5.9-7.7-8.4l-2.2,9.2c6.2,7.2,11.9,14.8,16.1,23.5c1.5,2.7,3.2,4.3,6.3,4.4c-1.3,5.6-5.8,9.8-4.5,15.4
			c0.8,3.1,5.9,3.7,7.8,7.1c0.2,0.5,0.5,1.1,0.8,1.6c0-0.1,0-0.1-0.1-0.2c0,0.1,0,0.1,0.1,0.2c2.1,3.7,1.7,5.4,2.6,9.2
			c0.2,0.7,0.3,1.4,0.4,2.1c0.9,1.3,1.9,2.6,2.8,3.9C1320.8,559.9,1320,558.6,1319.8,557.4z"/>
		<path class="st15" d="M1247.8,749.3c2.1-2.8,5.3-0.9,7.4-0.9c9.5-2.8,11.6-21.4,20.1-25.2c10.6-4.7,11.6-17,18-26.5
			c2.1-2.8,7.4-4.7,8.5-8.5c2.1-4.7,3.5-27.1,6.7-29c9.3-6.1,15.3-51.2,18.4-59.8c-4.9-1.2-8.5,1.4-12.4,3.9
			c-6.1,8.5-13,16.6-16.6,26.7c-2.1,3.8-9.8,59-14.1,60.9c7.5-8.2,11.6-29.5,16.4-41.8c0.7-1.8-12.7-27.6-12-28.9
			c-2.2,0.3,1.2,10.3-0.9,10.5c-0.5,1.3-3,25.4-1.5,28.9c7.5,17.2-6.9,35.8-8.4,52.1c-1.1-0.9-4.2,1.9-5.3-0.9
			c-3.2,7.6-4.2,26.2-11.6,30.9c5.3-11.3,11.6-33.7,13.7-46c2.1,3.8,1.1,6.6,1.1,10.4c4.7-14.3,2.6-56.1,6.7-70.4
			c-2,1.4-10.5,6.3-12.6,7.3c-8.1,3.9-8,19.7-16.3,23.4c-2.4,1-9,14.4-10.9,14.7c0.2,6.8,7.2,14.5,4.5,19.3
			c-2.1,5.7-3.2,12.3-3.2,18.9c2.1-3.8,7.4-7.6,7.4-11.3c2.1-11.3,5.3-18.9,12.7-27.4c0,4.7,0,10.4-1.1,15.1
			c5.3-4.7,8.8-27.1,12-32.8c1.1,18-8.8,51.7-21.5,64.9c-4.2,2.8-9.5,0-13.8,0.9c-2.1,0,0,15.8-1.1,18.6
			c-5.3,9.5-13.8,22.4-14.8,32.8C1234.1,773.5,1238.3,756.8,1247.8,749.3z"/>
		<path class="st15" d="M1109.9,476.8c4,4.1,8.1,8.2,11.7,12.7c5.3,6.7,11.4,12.6,16.7,19.3c-5.1-4.4-10.7-6.8-16.4-9.8
			c2.8,5.7,7.3,9.7,11.8,13.7c0.8,0.9,1,3.3,3.5,4.3c-1.6,3.5-2.7,6.8-1.5,10.6c0.5-0.2,1.1,0.2,1.6,0.1c2,1.2,0.9,4.5,2,4.7
			c2.1,1.7,4.4-1.4,7-1.6c-2.1,3.6-4.6,7.4-5.4,11.8c1.5-0.5,3.1-0.4,3.9-1.2c2.5-5.6,4.6-11,10.4-12.8c1.7,8.7,1,17.7,0.1,26.6
			c0.5,0.4,1,0.9,1.1,1.1c2.7,3.4,3.6,9.6,6.3,10c4.1,1.1,7.9,2.9,12,4c-1.6-8.5,1.9-16.1,0-22.1c-2.4-5.8-4.1-13.1-8.1-19
			c-2-3-6.7-4.5-7.8-9.5c-0.3-1.1-3.9-0.6-4.9-2c-1.3-2.6-1.7-5.4-2.6-8.2c-2.9,0.9-5.2-1.3-7.4-3.1c-4.8-5.1-6.7-11.1-13.6-14.3
			c-1.8-0.6,1.2-4.6-1.7-7.2c-4-4.1-8.9-8-11.3-13.8c-0.3-1.1-2.3-0.5-2.9-0.9c-5.1-4.4-6.5-10.5-8.9-16.4c3,4.4,6.1,7.6,10.7,10.4
			c3.8,1.8,4.5,7.6,7.3,11.5c1.5,1.3,4.1,1.1,4.7,1.5c2.5,2.8,4,7.7,6.3,10c6.3,8.2,12.6,16.4,21.5,22.6c0.2,0.5,2,1.2,2.1,1.7
			c4.8,5.1,7.6,10.8,13.6,14.3c-3.2-6.8-8.5-11.7-12-17.8c3.9,0.6,7.5-1.7,11.2-1.7c-6.3-4.6-12.6-2.6-19.2-6.6
			c-1.1-0.2-2.1-1.7-3.1-3.2c5.2-2.2,11.6,1.2,16.1-3.2c-8.5-3.3-18.7-0.1-25.2-7.1c7.5,1.8,14.7,0.8,22,0.3
			c-3.6-1.3-8.3-1-11.8-3.5c-5.9-3.5-13-0.7-17.1-8.4c8.5,3.3,17,1.3,25.5,2.8c1.6,0.1,11.3,0.7,13.6,2.9c2.8,2.1,1.2,7.4,3.7,10.2
			c4.1,4.7,3.2,10.3,7.4,15c1.7,1.9,5.1,0.8,6.9,1.4c2.5,1,2.2,7.1,4,7.7c4.7,1.5,13.5-3.4,18.4-5c2.4-0.7,4.2-2.4,6.3-3.2
			c-7.2,8.3-9.9,16.7-9.8,27.1c0.2,8.9-4.4,15.8-2.8,24.8c0.3,1.7,1.9,4.1,1.7,5.8c-0.2,1.6-2.4,2.5-2.7,4.5c-0.3,1.7,1.4,4,1.2,5.9
			c-0.3,3-4.8,4-6.2,6.2c-5.4,8.5-14.2,25.8-16.9,36.1c-1,4.1-12.9,13.6-17.5,20c-0.7,0.9-8.8,17.1-9.8,17.5l-3.2,2.5
			c-2.8-0.3-5.5,0.6-7.6,2.4c-1.9,1.7-3.9,3.2-3.9,3.2s-9.1-21.8-11-31.7c-1.9-9.8-7.3-42.6-7.3-42.6s9.3-5.9,4-20.8
			c0,0-2.2-4.7-4-6.7c-1.8-2-1.3-8.2-1.3-8.2l-2.6-5.8"/>
		<path class="st15" d="M1097.9,395c0,0-3.4,4.8-3.7,7.8c-0.4,3,2.7,4.7,1.9,8.1c-0.8,3.3,4.8-7.9,4.8-7.9s5.8,2.5,4.7,9.2
			c-1,6.7,12.5,18.5,12.5,18.5s-1.2-12.7,1.8-16.5c0,0-3.5-8.7-7.7-10.7c-4.2-2.1-4.7-8.3-4.7-8.3"/>
		<path class="st15" d="M1135.5,395c0,0-4.7,7.2-5,10.8c-0.3,3.6,3,7.7,0,11.9c-3,4.2,5.8-2.7,5-7.9c-0.8-5.2,6.7-14.7,6.7-14.7"/>
		<path class="st15" d="M1174,394.6c-7.1,4.3-12.1,9.8-16.9,15.2c4.9-3.7,10-7.2,15.4-10.6c-1.8,1.9-3.5,3.8-5.3,5.7
			c1.7-1.3,2.4-3,3.5-4.5c1.2-1.5,3.2-3,5.9-3c1.1,0,2.2,0.2,3.2,0c1.4-0.3,2.1-1.3,2.6-2.2L1174,394.6z"/>
		<path class="st16" d="M1424.2,395l-23.9-22.8c-1.7-1.6-8.3-8.5-9.2-10.7c-1.8-4.4-4.5-6.7-4.6-6.8l-4.1-4.8l-1.7-2.8
			c0,0,0,0,0.1,0.1l-0.1,0c-1.4,0-2.7,0-4.1-0.1c-1-0.1-2-0.2-3-0.3c-0.4-0.1-0.9-0.1-1.3-0.2c-0.9-0.1-1.7-0.3-2.5-0.5
			c-1.1-0.3-2.1-0.6-3.1-1c-1.7-0.7-3-1.7-4.3-2.7c-0.7-0.7-1.4-1.5-2.1-2.3c-1.7-2-1.2-6.6-4-7.8c-1.8-0.8-4.4,0.2-6-0.6
			c-1.8-0.9-2-3.3-3.5-3.9c-1.6-0.7-4.3,0.1-6-0.1c-9-1.2-14.3-7.6-22.8-10.1c-10-2.9-17.2-8-23-17.4c0,0,0,0,0,0
			c-0.2,0.1-0.4,0.1-0.6,0.1c-2.5,0.6-5.1-3.3-7.7-2.8c-1.3,0.3-2.7,0.6-4,1.1c-2.5,0.9-3.9,1.7-5.4,2c-1.4,0.3-3.4-5.1-5.3-5.5
			c-5.4-1.1,1.7-2.8-2.1-4.9c-0.7-0.4-1.6-10.4-2.1-10.6c-2.6-0.6-8.2-10.6-10.3-9.2c-1.2,0.8-5.6-3.3-7-2.8
			c-0.5,0.2-7.1,0.7-7.6,0.8c-1.2,0.2-3.3,2.5-6.4,6.6c-2.6,3.5-6,3.8-6.6,4c-0.7,0.3,0.2,5.2-0.5,5.7c-1.1,0.7-1.7,2.1-2.8,2.7
			c-4.4,2.1-10,21.6-14.5,23.6c-1.3,0.6-2.3,0.9-3.3,1.1c-2.6,0.5-4.6-0.3-7.8-1.7c-1.9-0.8-4.5,2.1-6.2,1.6
			c-1.6-0.5-2.2-0.5-2.7-0.3c-0.6,0.3-1,0.8-2.9,1.2c-0.5,0.1-1,0.1-1.5,0.1c-3.2,0-5.1,7.6-7.5,6.7c-0.8-0.3-1.7-0.5-2.7-0.4
			c-3.7,0.1-8.1,3.9-11.9,4.4c-3.9,0.5-6.3,0-9.4-2c-0.5-0.4-1.1-0.7-1.7-1.2c-0.3,0.4-0.9,1.5-1.2,1.7c-0.5,0.2-1,0.5-1.5,0.9
			c-3,2-6,5.7-8.6,7.6c-2.9,2.2-6,2.3-8.6,4.5c-5.9,4.9-11,11-18.6,14c-2.7,1.1-7.8,0.5-8.5,0.4c-0.5-0.2-3.3,8.7-6.2,16.8
			c-2.2,6.1-4.8,12-4.8,12l-16.1,16.9h27.1h13.5h14.7h6.7h33.5h58.4h99c13.2,0,26.4-0.1,39.5,0l0.4,0h4.6h41.5L1424.2,395z
			 M1132.2,356.4c0.2-0.7,0.3-1.4,0.5-2c0.7-2.9,1.5-5,2.8-6.8c0,0,0.1,0,0.1,0.1c0-0.1,0-0.2,0-0.3c1.3-1.9,3.2-3.6,6.3-5.9
			C1135.1,346.5,1133.9,349.8,1132.2,356.4z M1150.5,358.4c0.5-0.4,0.9-0.7,1.3-1.1c3.1-2.9,4.8-2.9,8.4-4.7
			C1156.2,354.7,1154.5,355.4,1150.5,358.4z M1242.5,366.4c0-0.1,0.1-0.1,0.1-0.2C1242.6,366.3,1242.6,366.4,1242.5,366.4z
			 M1244.4,361.7c0.9-2.5,1.6-5.1,2.6-7.6C1246.1,356.6,1245.3,359.2,1244.4,361.7z M1249.2,348.9c0.5-1.4,3.5-10.1,6.2-11.7
			c0.2-0.1,0.4-0.2,0.6-0.4C1253.2,338.4,1249.8,347.4,1249.2,348.9z M1293.5,303.7c-0.3,1.7-0.9,4.1-1.6,6.5c1-3.3,1.6-7,2.3-9.5
			C1294,301.6,1293.7,302.7,1293.5,303.7z"/>
		<path class="st13" d="M1333.3,395c14.9,0,29.6-0.2,44.5,0h46.5c0,0-30.4-25.6-34.5-28.1c-9.1-5.6-22.9-19.2-29.4-26.9
			c-1.7-2-1.2-6.6-4-7.8c-1.8-0.8-4.4,0.2-6-0.6c-1.8-0.9-2-3.3-3.5-3.9c-1.6-0.7-4.3,0.1-6-0.1c-9-1.2-14.3-7.6-22.8-10.1
			c-10-2.9-17.2-8-23-17.4c0.1,2.3,1.2,4.5,1.2,7c0,5.1,2.1,15-0.8,19c-1.1,1.5-6.8-0.5-8.6,1.5c-1.1,1.5-1.1,5.1-3.4,6.1
			c-5.7,2.6-10.8,0-16.5,2.6c-3.4,1.5-8-1.5-10.8,0.5c-2.9,1.5-6.3,10.5-6.8,12.1c-4,7.7-4.6,16.3-10.3,23.5
			c8.6-1.5,8-9.2,13.1-13.8c3.4-2.6,4.6-7.1,6.8-10.2c-1.7,7.1-2.9,14.3-6.8,20.9c8.6-4.1,8.6-14.8,14.3-21.9
			c2.9,5.6-2.3,10.7-1.7,16.3c1.7-0.5,3.4-1,4-2c5.7-5.1,5.7-11.7,12-16.3c-1.1,3.6,0,7.7-1.7,11.2c6.8-1.5,13.1-5.1,20.5-6.1
			c-5.1,4.6-11.4,5.6-17.7,8.7c-0.6,0-1.7,1.5-2.3,1.5c-8.6,6.6-18.3,10.2-28,13.8c-2.9,1.5-8,1.5-11.4,3.1
			c-0.6,0.5-1.1,3.1-2.9,4.1c-4.6,1.5-10.3,0.5-13.1,3.6c-4,3.6-8,5.6-13.1,7.1c6.3-0.5,12.6,0,18.3-3.6c0.6-0.5,0.6-2.6,1.7-2.6
			c6.3-0.5,11.4-4.1,16.5-6.6c3.4-2,6.3,2,7.4,0.5c5.1-5.6,11.4-5.6,17.7-8.7c2.3-1.5,5.1-3.1,5.1-6.1c2.9,0,5.7,0.5,8.6,0
			c1.7-0.5,2.3-4.1,3.4-4.1c5.1,0.5,8-3.6,11.4-4.6c6.8-2,14.3-1.5,20.5-2c6.3,0,12.6,5.6,21.1,6.6c-2.3,3.6-5.1,6.6-7.4,10.2
			c-1.1,2.6-7.4,1.5-11.4,3.1c-0.3,0-0.9,0.3-1.4,0.7c-8.3-3.5-16.6-6.8-25.4-7.8c0,6.1,4.6,9.7,9.1,13.8c0.6,1,0,2.6,0,4.1
			c-4-2-6.8-5.6-9.7-8.7c-0.6,2.6,1.7,5.6-0.6,7.1c-0.6,1-3.4-1-5.1,0.5c0,0.5-0.6,1-0.6,1.5c-4,0-6.8-2-9.7-4.6c-1.7,2-4,1.5-5.1,2
			c-5.1,3.1-10.3,6.1-16.5,7.1c4.6-4.6,8.6-9.2,14.3-12.8c-8,3.1-15.4,7.1-23.4,10.2c-5.3,2.1-10.5,4.7-15.6,7.4"/>
		<path class="st13" d="M1286.7,297.4c-3.6,5.3-9.5,18.5-15.8,21.6c1.2-3.7,5.3-15.1,6.5-18.5c-1.4,0.3-2.1-19.7-4.8-20.4
			c-1.8-0.4-2.4-4-4.6-4.3c-1.7-0.2-4.2,0.8-6.2,0.4c-5.4-1.1-5.7-6-9.5-8.1c-0.7-0.4-1.3-0.6-1.9-0.7c-1.7,4.6-4.6,29.1-9.7,32.4
			c-1.7,1-2.5,13.1-3.6,15.6c-0.6,2-3.4,3.1-4.6,4.6c-3.4,5.1-4,11.7-9.7,14.3c-4.6,2-5.7,12.1-10.8,13.6c-1.1,0-2.9-1-4,0.5
			c-5.1,4.1-7.4,13.1-13.1,16.7c0.6-5.6,5.1-12.6,8-17.7c0.6-1.5-0.6-10,0.6-10c2.3-0.5,5.1,1,7.4-0.5c6.8-7.1,12.2-25.3,11.6-35
			c-1.7,3.1-3.6,15.1-6.5,17.7c0.6-2.6,0.6-5.6,0.6-8.2c-4,4.6-5.7,8.7-6.8,14.8c0,2-2.9,4.1-4,6.1c0-3.6,0.6-7.1,1.7-10.2
			c1.4-2.6,1.3-6.6,1.2-10.3c-2.6,0.5-4.6-0.3-7.8-1.7c-1.9-0.8-4.5,2.1-6.2,1.6c-1.6-0.5-2.2-0.5-2.7-0.3c-0.1,6.4-0.3,11,0.1,17.6
			c0-2-1.7-3.1-1.7-4.6c-0.5-4.7-1-7.4-2.8-11.7c-3.2,0-5.1,7.6-7.5,6.7c-0.8-0.3-1.7-0.5-2.7-0.4c-3.7,0.1-8.1,3.9-11.9,4.4
			c-3.9,0.5-6.3,0-9.4-2c-1.1,6.6-7.2,9.7-12.5,14.9c-1.1,1,0,4.1-1.7,5.1c-6.8,5.1-8,8.3-9.7,15c4.6-5.1,9.7-6.3,13.1-12.9
			c1.7-3.6,6.8-4.6,9.1-8.2c1.1-2,2.3-2.4,2.9-4.4c0.6,2.6,0.6,3.4,0,6c0,1.5-3.4,2.6-3.4,4.1c-1.7,6.6-8.6,6.8-9.7,13.4
			c5.7-7.7,13.1-10.9,19.4-19c2.9-3.6,4.6-6,7.4-10c1.1-1,4-1.5,5.1-3.1c0,3.1,1.7,6.6,0.6,8.2c-1.7,5.6,0,8-1.1,11.6
			c-1.1,5.1-9.1,7.7-15.4,10.7c-4,2-5.7,2.7-9.7,5.8c-2.9,2.6-2.3,7.7-5.1,9.2c-5.1,2.6-10.3-0.8-16-0.8c0.6,3.1-0.6,5.1-2.9,7.1
			c-7.5,6.1-13.6,13.5-19.2,21.1h13.5h14.7c5.1-3.1,9-7.6,11.5-12.5c2.3,1.5,5.1,3.1,6.8,1.5c12.6-9.7,28.5-7.7,42.2-13.8
			c6.3-2.6,10.8-6.6,17.7-7.1c-5.1,3.1-10.8,5.1-15.4,8.7c-1.1,1.5-4.6,1.5-5.7,2.6c-4,3.1-6.3,7.7-9.7,11.2
			c-0.6-2.6,2.9-6.6,1.1-6.6c-4.6-2-9.1,1-11.4,6.6c0,1-1.7,2.6-3.4,2.6c0.6-3.1,1.7-5.6,2.3-8.7c-0.6,0.5-1.7,1.5-2.3,1.5
			c-8-0.5-10.8,8.7-18.3,11.7c0.6-1.5-1.1-4.6-1.7-3.6c-2.4,1.9-4.8,3.9-7.1,5.8h33.5c4.8-2.8,9.7-5.8,14.6-8.9
			c1.7-1,2.9-3.6,4.6-5.1c2.9-3.1,8.6-2,13.1-3.6c0.6-0.5-0.6-1.5,0.6-2.6c5.1-4.1,9.7-7.7,11.4-14.3c0-1,3.4-1,4-2
			c1.1-1.5,1.1-3.6,0-5.1c9.1-2.6,16-12.6,19.4-21.8c0.6-2,8.6,0.5,13.7-2c9.7-6.1,19.4-8.2,29.7-12.2c5-1.5,5.9-12.2,7.5-17.2
			C1291.9,300.8,1289.3,296.8,1286.7,297.4z"/>
		<path class="st13" d="M1380.7,347.1c0.1,0.1,0.2,0.2,0.3,0.2c0.7,0.9,1,2.3,2,3.2c1.3,1.4,3,2.5,3.7,4.4c-3.3-2.7-6.9-5.2-10-8
			C1378,347.1,1379.3,347.1,1380.7,347.1z"/>
		<path class="st13" d="M1372.3,346.5c0.4,0.1,0.9,0.1,1.3,0.2c2.5,3.3,6.1,6,8.7,9c2,2.3,5,4.6,8.1,6.2c1.5,0.6,2.2,1.9,2.3,3.3
			c-0.2-0.3-0.5-0.5-0.6-0.8C1384.6,358.9,1377.1,353.5,1372.3,346.5z"/>
		<path class="st13" d="M1389.7,366.9c-0.6-1.2-1.4-2.2-3-2.9c-2.4-1.2-6-0.7-8.1-1.8c-1.3-0.7,0.7-3-1.7-3.9c-3.7-1.2-5-3.2-6-5.5
			c-1.9-4-5.8-7.1-8.9-10.6c1.5,1,2.8,2.1,4.7,2.9c1,0.4,2,0.8,3.1,1c1,1.5,1.9,2.9,2.8,4.4c0.3,0.7,2,0.9,2.7,1.8
			c2,3.2,3,6.5,8.7,7.8c1,0.2,0.7,1.2,1.3,1.8c4.4,3.2,9.4,5.8,12.1,9.7C1395.4,369.7,1392.6,368.2,1389.7,366.9z"/>
		<path class="st13" d="M1368.5,371.6c1.7,0.9,2.7,2.5,4.4,3c4.7,1.4,8.1,2.5,12.1,4.4c1,0.5,2.4,0.2,3.7,0.2
			c-2.4,3.2,3.4,5.3,6.4,7.4c0.3,0,0.3,0.9,0.7,1.4c2,2.8,7.7,2.8,9.7,5.8c-2.4-1.8-6-2.5-9.1-4.1c-1-0.5-1.7-1.4-2.7-2.5
			c-0.3-0.7-2.4-0.9-3-1.6c-2-1.2-2.7-2.5-5-3.7c-1-0.5,0.7-1.2,0-1.4c-1.7-0.7-4-0.9-5.7-1.6c1.3,1.2,2.7,2.5,3.4,3.9
			c-2.7-2.1-5.4-3.7-7.7-6.2c-0.7-0.9-3-0.7-4.7-1.4c-2.1-0.9-4.1-1.7-6.2-2.4c-0.5-0.6-1.1-1.2-1.8-1.7c-0.1-0.1-0.3-0.2-0.5-0.3
			C1364.5,370.8,1367.1,370.6,1368.5,371.6z"/>
		<path class="st13" d="M1381,387.7c0.7,1.8,1,4.6,3.7,5.3c-0.3,0.2,0.3,0.7-0.3,0.7c-5.7-1.2-5-5.3-8.7-7.6
			c-0.8-0.4-1.6-0.9-2.4-1.5c3.7,0.8,7.4,1.8,10.5,3.7c1.6,1.3,2,3,3.6,4.5C1385,391.2,1382.7,389.8,1381,387.7z"/>
		<path class="st17" d="M1337.3,373.9c1.3,2.8,4.4,4.4,8.1,5.5c2.4,0.7,3-1.2,4.7-1.8c0,0.7,1,0.7,1.3,0.7c2.7,0.9,5.4,0.5,8.1,0.9
			c1.7,0.5,2,2.5,3.7,3c3.1,1.1,6.6,1.7,10.1,2.5c0.7,0.5,1.5,1,2.4,1.5c3.7,2.3,3,6.5,8.7,7.6c0.7,0,0-0.5,0.3-0.7
			c-2.7-0.7-3-3.5-3.7-5.3c1.7,2.1,4,3.5,6.4,5.1c-1.5-1.5-2-3.2-3.6-4.5c0.2,0.1,0.4,0.2,0.5,0.3c-3.4-2.5-7.7-4.6-9.1-8.3
			c-1-1.6-4.7-2.3-6.7-3.5c-1.6-1.1-2.6-2.8-3.9-4.3c2.1,0.7,4.2,1.5,6.2,2.4c1.7,0.7,4,0.5,4.7,1.4c2.4,2.5,5,4.1,7.7,6.2
			c-0.7-1.4-2-2.8-3.4-3.9c1.7,0.7,4,0.9,5.7,1.6c0.7,0.2-1,0.9,0,1.4c2.4,1.2,3,2.5,5,3.7c0.7,0.7,2.7,0.9,3,1.6
			c1,1.2,1.7,2.1,2.7,2.5c3,1.6,6.7,2.3,9.1,4.1c-2-3-7.7-3-9.7-5.8c-0.3-0.5-0.3-1.4-0.7-1.4c-3-2.1-8.7-4.1-6.4-7.4
			c-1.3,0-2.7,0.2-3.7-0.2c-4-1.8-7.4-3-12.1-4.4c-1.7-0.5-2.7-2.1-4.4-3c-1.5-1-4-0.8-6.2-1c-1.7-0.9-5.2-1-8.2-0.8
			c1.7-3.5-2.7-6-4.4-9c-1.2-1.6,1-3.8,2.7-5.9c2.5,4,4.2,8.3,9.4,10.9c2.7,1.4,7.1-0.5,9.4,1.2c3,2.5,8.1,2.5,12.4,3
			c-2.7,1.4-0.7,3.2,1.3,4.1c6,3,13.4,6,16.1,10.6c1.3,2.3,6.7,2.1,9.1,3.7c3,2.2,5.9,4.5,9.1,6.6h-46.1c-2.1-1-4.4-1.8-7-2.4
			c-1.7-0.2-3.7-1.4-3.7-2.5c0-2.5-3-4.6-5-4.8c-8.1-1.2-15.5-3.2-21.5-7.1c-4-3-10.4-4.1-14.4-7.4
			C1326.5,371.8,1331.6,375.3,1337.3,373.9z"/>
		<path class="st13" d="M1276.6,405.2c-1.4-1.2-4.4-1.6-6.4-0.7c0.3-2.2,0-4.4-0.8-6.5c-3.2,1.5-7,2.7-10.9,3.2
			c0.5-1.5,1-2.9,1.5-4.4c-4.6,0.4-9.3,0.8-13.7,2c-2,0.5-3.8,1.2-5.7,1.7c-4,1.1-8.4,1.8-12.7,1.9c-1.2,0-2.4,0-3.5,0.2
			c-2.6,0.5-4.2-16-5.6-14.5c-5,5.3-11,10.1-17.9,14.4c0.4-3.3,1.3-6.6,2.8-9.7c-2.4,0.7-4.8,1.4-7.2,2.1c-0.1-2.7,3.2-5.4,7.4-6
			c0.7-0.1,1.5-0.1,2.1-0.4c1-0.4,1.5,17.1,1.9,16.4c1.9-2.7,4.9-5,8.6-6.8c-0.5,1-0.9,1.9-1.4,2.9c1.3-0.5,2.9-0.7,4.3-0.5
			c0.5,0.1,1.1,0.2,1.6,0.1c0.6-0.1,1-0.3,1.4-0.6c3-1.9,6-3.9,9-5.8c3.4,1.5,8.2,0.5,11.7-0.9s6.9-3.3,11-3.6
			c2.3-0.2,4.9,0.2,6.8-0.7c0.9-0.4,1.4-1,2.1-1.6c1.6-1.4,3.7-2.6,6.1-3.5c0.1,0.8,0.3,1.5,0.4,2.3c4.3-1,8.7-2.1,13-3.1
			c0.7-0.2,1.3-0.3,2-0.3c1.2,0,2.3,0.3,3.4,0.3c1.2,0.1,2.6-0.3,2.6-1c1.9,0.4,3.8,0.8,5.7,1.2c2.4-0.1,4.8,0.1,7,0.7
			c1.7,0.5,3.9,1.2,5.2,0.3c0.6-0.4,0.7-1,1.2-1.5c0.8-0.8,2.6-1.1,4.1-0.9s2.8,0.8,4,1.3c4.9,2.2,9.9,4.5,14.8,6.7
			c5,2.2,10,4.5,13.8,7.5c-5.9,0-11.7,0-17.6-0.1c-2.5,0-5.1-0.1-7.1-1c-1.4,0.8-2.3,2-2.5,3.3c-1.5-1-3-2-4.3-3
			c-4.7,2.2-3.9-11.5-6.5-8.2c-2,2.6-6.1,4.3-8.7,6.7c0.8-1.6,1.9-3.1,3.3-4.6c-4.1-1.7-7.9,14.5-11.4,12.4c0.5,0.8,1.1,1.7,1.6,2.5
			c-0.6-1.9-2.6-3.6-5.3-4.4c-0.4,0.6-0.9,1.2-1.3,1.8c-0.9-0.9-2.1-1.6-3.4-2.2C1281,402.3,1278.8,403.8,1276.6,405.2z"/>
		<path class="st13" d="M1161.6,403.6c-3.8,2-7.7-14.2-11.5-12.2c2.7-2.2,4.7,13.5,6,10.8c-1.3,0.6-2.6,1.2-3.8,1.8
			c0.1-0.7,0.3-1.3,0.4-2c-0.7,1.1-3.6,0.6-4.2-0.5c-0.6-1.1,0.3-2.3,1.2-3.3c3.4-3.8,7.5-7.3,12.2-10.4c0.3,0.6,0.8,1.2,1.6,1.6
			c2.1-2.1,4.1-4.2,6.2-6.3c1.7-1.8,3.6-3.6,6.3-4.8c2.1-0.9,4.5-1.4,6.9-1.8c-0.5,1.6-1.1,3.1-1.7,4.7c-1.4,3.8-3,7.6-5.7,11
			c-3.4,4.3-8.4,7.9-13.4,11.5c0.1,0.1,0.4-0.1,0.2-0.2C1162,403.5,1161.8,403.5,1161.6,403.6z"/>
		<path class="st12" d="M1080.3,371.1c-0.4,0.1-0.7,0.2-1.1,0.3C1079.5,371.2,1079.9,371.2,1080.3,371.1z"/>
		<path class="st16" d="M1111.1,360.4c-0.6,0.3-1.2,0.7-1.7,1.1C1110.8,361.5,1111.1,361,1111.1,360.4z"/>
		<path class="st16" d="M1154.4,320.2c-0.3,0.4-0.9,1.5-1.2,1.7c-0.5,0.2-1,0.5-1.5,0.9c-3.5,6.7-9.6,11.2-17.1,15.1
			c0.6,1,1.1,2,0.6,2.6c-5.1,3.1-6.3,6.6-10.8,9.7c-1.7,1-2.9-1.4-3.4-0.3c-1.1,1-1.1,3.1-1.7,4.6c-1.7,2-5.7,2.6-8,4.1
			c-0.3,0.5,0,1.3,0,2c3.7-2,8-2.4,11.4-5c3.4-2,4-3.2,6.3-6.3c0.6-1,2.9-1.5,3.4-2.6c2.3-3.1,4.6-6.6,8.6-7.7
			c-1.7,3.1-5.1,5.1-5.1,8.7c-1.1-0.5-1.1,1-2.3,1c1.1,4.1-1.7,4.3-4,6.8c-2.3,2-4,5.1-5.1,8.2c2.3-3.4,5.4-6.4,8.5-9.2
			c1.5-5.9,3-8.3,9.2-12.9c1.7-1,0.6-4.1,1.7-5.1c5.3-5.2,11.4-8.3,12.5-14.9C1155.6,321,1155,320.6,1154.4,320.2z"/>
		<path class="st16" d="M1153.9,340.9c0-1.5,3.4-2.6,3.4-4.1c0.6-2.5,0.6-3.4,0-6c-0.4,1.6-1.2,1.4-2.1,3c-1.2,5.2-4.9,9.5-9.9,12.6
			c0,0.5,1.1,1,1.1,1.5c-2.3,4.1-3.4,4.3-4,8.8c0,1.5-2.9,2.6-3.4,4.6c0.6-1.5,2.9-1.5,3.4-3.1c1.3-1.7,1.8-3.6,2.7-5.4
			c-0.3,0.4-0.7,0.9-1,1.3C1145.4,347.7,1152.2,347.5,1153.9,340.9z"/>
		<path class="st16" d="M1176.2,322.2c-0.6,0.8-1.7,1.3-2.7,1.8c-1.5,5.4-4.9,8.3-7,13.9c3.4-3.6,5.1-6,7.4-10
			c-0.6,5.6,2.3,10-4,13.6c0,0.5,1.7,2,1.1,2.6c-2.9,2-6.3,2-9.7,3.1c-0.6,0-1.7,2.6-2.3,2.6c-6.3,2.6-8.6,3.7-12,7.8
			c2.9-2,4.6-5.1,7.4-7.1c2.3-1.5,5.1,0.8,6.8-1.2c1.1-0.5,2.3-1.5,4-1c-1,1.2-2.1,2.4-3.2,3.7c5.9-2.7,12.4-5.2,13.4-9.8
			c1.1-3.6-0.6-6,1.1-11.6C1177.9,328.8,1176.2,325.2,1176.2,322.2z"/>
		<path class="st17" d="M1161.3,349c-1.7,2-4.6-0.3-6.8,1.2c-2.9,2-4.6,5.1-7.4,7.1c3.4-4.1,5.7-5.3,12-7.8c0.6,0,1.7-2.6,2.3-2.6
			c3.4-1,6.8-1,9.7-3.1c0.6-0.5-1.1-2-1.1-2.6c6.3-3.6,3.4-8,4-13.6c-2.3,4.1-4,6.5-7.4,10c2.1-5.5,5.5-8.5,7-13.9
			c-1,0.4-1.9,0.8-2.4,1.3c-2.9,4.1-4.6,6.5-7.4,10c-5.9,7.7-12.9,10.6-18.4,17.8c-0.9,1.8-1.4,3.6-2.7,5.4
			c-0.6,1.5-2.9,1.5-3.4,3.1c0.6-2,3.4-3.1,3.4-4.6c0.6-4.6,1.7-4.8,4-8.8c0-0.5-1.1-1-1.1-1.5c5-3.1,8.7-7.5,9.9-12.6
			c-0.3,0.5-0.5,1-0.8,1.4c-2.3,3.6-7.4,4.6-9.1,8.2c-3.4,6.6-8.6,7.8-13.1,12.9c0.2-0.7,0.3-1.4,0.5-2c-3.1,2.8-6.2,5.8-8.5,9.2
			c1.1-3.1,2.9-6.1,5.1-8.2c2.3-2.6,5.1-2.7,4-6.8c1.1,0,1.1-1.5,2.3-1c0-3.6,3.4-5.6,5.1-8.7c-4,1-6.3,4.6-8.6,7.7
			c-0.6,1-2.9,1.5-3.4,2.6c-2.3,3.1-2.9,4.3-6.3,6.3c-3.4,2.6-7.7,3-11.4,5c0,0.6-0.3,1.1-1.7,1.1c0.5-0.4,1.1-0.8,1.7-1.1
			c0-0.6-0.3-1.4,0-2c2.3-1.5,6.3-2,8-4.1c0.6-1.5,0.6-3.6,1.7-4.6c0.6-1,1.7,1.4,3.4,0.3c4.6-3.1,5.7-6.6,10.8-9.7
			c0.6-0.5,0-1.5-0.6-2.6c7.6-3.9,13.6-8.4,17.1-15.1c-3,2-6,5.7-8.6,7.6c-2.9,2.2-6,2.3-8.6,4.5c-5.9,4.9-11,11-18.6,14
			c-5.3,2.1-5.4-1.7-5.9,3.9c-1.7,0-4,0.5-4,1c-0.6,4.1-4,5.6-6.3,8.7c0.6,0.5,1.7,1,1.7,1.5c-2.9,2-0.7,2.6,11.4,4.1
			c1.1,0,3.4-0.5,5.1-1c0.6,4.6-2.3,2.2-6.8,4.3c-0.6,0,0.6,2,0,3.1c-1.7,1.5-5.7,1.5-6.8,3.1c-2.3,2,1.7,6.1,0,8.2
			c-2.5,3-4.6,6.2-6.4,9.4h9.5c5.6-7.7,11.7-15,19.2-21.1c2.3-2,3.4-4.1,2.9-7.1c5.7,0,10.8,3.4,16,0.8c2.9-1.5,2.3-6.6,5.1-9.2
			c0.5-0.4,0.9-0.7,1.3-1.1c-0.1,0-0.1,0.1-0.2,0.1c0.1,0,0.1-0.1,0.2-0.1c3.1-2.9,4.8-2.9,8.4-4.7c0.6-0.3,1.3-0.6,2-0.9
			c1.1-1.2,2.1-2.5,3.2-3.7C1163.6,347.5,1162.5,348.5,1161.3,349z"/>
		<path class="st17" d="M1192.1,329c-0.4-6.6-0.2-11.2-0.1-17.6c-0.6,0.3-1,0.8-2.9,1.2c-0.5,0.1-1,0.1-1.5,0.1
			c1.8,4.3,2.3,7,2.8,11.7C1190.4,325.9,1192.1,326.9,1192.1,329z"/>
		<path class="st16" d="M1239.1,291.4c-0.5,0.2-1.1,0.3-1.6,0.3c-3.1,5.6-5.4,20.1-10,25.2c2.3-1,5.3-11,6.5-13.1
			c1.9-5.5,5.7-9.8,8.9-14.4C1241.8,290.2,1240.5,291,1239.1,291.4z"/>
		<path class="st16" d="M1221.2,327.6c0.6,1.5,2.3,0,2.9,0.5c0.9-9.6,6.2-27,9.9-36.1c-0.6,0.1-1.2,0.2-1.7,0.4
			c-0.7,0.3-1.4,0.7-2.1,1.1c-2.2,7.7-4.7,23.9-7.3,31.6c0-2,0.6-3.6-0.6-5.6c-1.1,6.6-4.6,18.7-7.4,24.8
			C1219,341.7,1219.5,331.7,1221.2,327.6z"/>
		<path class="st17" d="M1208.1,348.4c1.1-1.5,2.9-0.5,4-0.5c5.1-1.5,6.3-11.6,10.8-13.6c5.7-2.6,6.3-9.2,9.7-14.3
			c1.1-1.5,4-2.6,4.6-4.6c1.1-2.6,1.9-14.6,3.6-15.6c5-3.3,8.2-27.6,9.9-32.2c-2.6-0.6-4.6,0.7-6.7,2.1c-3.3,4.6-7,8.9-8.9,14.4
			c-1.1,2-5.3,31.8-7.6,32.8c4.1-4.4,6.3-15.9,8.8-22.6c0.4-1-6.9-14.9-6.5-15.6c-1.2,0.2,0.7,5.6-0.5,5.7
			c-0.3,0.7-1.6,13.7-0.8,15.6c4,9.3-3.7,19.3-4.5,28.1c-0.6-0.5-2.3,1-2.9-0.5c-1.7,4.1-2.3,14.1-6.3,16.7
			c2.9-6.1,6.3-18.2,7.4-24.8c1.1,2,0.6,3.6,0.6,5.6c2.5-7.7,1.4-30.3,3.6-38c-1.1,0.7-5.7,3.4-6.8,4c-4.4,2.1-4.3,10.6-8.8,12.6
			c-1.3,0.6-4.9,7.8-5.9,7.9c0.1,3.7,3.9,7.8,2.4,10.4c-1.1,3.1-1.7,6.6-1.7,10.2c1.1-2,4-4.1,4-6.1c1.1-6.1,2.9-10.2,6.8-14.8
			c0,2.6,0,5.6-0.6,8.2c2.9-2.6,4.8-14.6,6.5-17.7c0.6,9.7-4.8,27.9-11.6,35c-2.3,1.5-5.1,0-7.4,0.5c-1.1,0,0,8.5-0.6,10
			c-2.9,5.1-7.4,12.1-8,17.7C1200.7,361.5,1203,352.4,1208.1,348.4z"/>
		<path class="st17" d="M1151.1,392.7c7.4-3.1,10.3-12.2,18.3-11.7c0.6,0,1.7-1,2.3-1.5c-0.6,3.1-1.7,5.6-2.3,8.7
			c1.7,0,3.4-1.5,3.4-2.6c2.3-5.6,6.8-8.7,11.4-6.6c1.7,0-1.7,4.1-1.1,6.6c3.4-3.6,5.7-8.2,9.7-11.2c1.1-1,4.6-1,5.7-2.6
			c4.6-3.6,10.3-5.6,15.4-8.7c-6.8,0.5-11.4,4.6-17.7,7.1c-13.7,6.1-29.7,4.1-42.2,13.8c-1.7,1.5-4.6,0-6.8-1.5
			c-2.5,4.8-6.5,9.3-11.5,12.5h6.7c2.3-2,4.7-3.9,7.1-5.8C1149.9,388.2,1151.6,391.2,1151.1,392.7z"/>
		<path class="st17" d="M1286.7,297.4c-1.3,0.3-2.7,0.6-4,1.1c-2.5,0.9-3.9,1.7-5.4,2c-1.2,3.4-5.3,14.8-6.5,18.5
			C1277.2,315.8,1283.1,302.7,1286.7,297.4z"/>
		<path class="st16" d="M1238.4,349.9v-0.5c0,3.1-3.4,5.1-6.3,5.6c0,1,0,2.6-0.6,3.6c-4.6,4.6-8.6,9.2-11.4,14.8
			c-0.6,1-2.9,1.5-4,2.6c0,1,0,2-0.6,3.1c-2.9,3.6-6.8,5.6-8.6,10.2c3.4-4.6,8.6-7.7,11.4-12.8c0.6-1.5,4.6-1,5.1-2.6
			c1.1-3.1,3.4-4.6,5.7-6.6c0.6-0.5-0.6-2.6,0-3.1c4-2,5.7-5.6,9.1-8.2c1.1,6.6-5.1,10.2-6.8,16.3c4.6-5.1,6.8-10.2,9.7-16.3
			c0.6-1.5,3.4-2,4-4.1c-0.5,5.1-2.4,9.7-2.8,14.7c2.7-5.8,3.8-12.1,6.8-17.8c0.5-1.4,3.5-10.1,6.2-11.7c-3,0.9-6.1,7.6-9.6,7.6
			C1246.3,348.9,1241.8,350.9,1238.4,349.9z"/>
		<path class="st16" d="M1294.3,366.2c-2.9,2.6-6.8,2-10.3,4.1c-0.6,0.5,0.6,2,0,2.6c-2.9,2-6.8,0.5-7.4,4.1c0.6-1,2.3-1.5,2.9-2
			c1.1-0.5,3.4,0,4.6-1c2.9-1.5,4.6-3.6,8-4.6c-1.7,2.6-2.3,5.1-4.6,7.7c0,0-1.1,1-1.7,1.5c-0.6,0.5,0,1.5,0,2.6
			c1.1-1.5,3.4-3.1,4-4.6c1.1-3.1,4-4.6,5.1-7.1c0.7,1.4,1.9,2.3,3.4,2.9c-0.7-1.5-1.1-3.1-1.1-4.9c0.2,0,0.5,0.1,0.7,0.1
			C1296.8,365.9,1294.8,365.4,1294.3,366.2z"/>
		<path class="st17" d="M1321.7,354.5c-6.3,0.5-13.7,0-20.5,2c-3.4,1-6.3,5.1-11.4,4.6c-1.1,0-1.7,3.6-3.4,4.1c-2.9,0.5-5.7,0-8.6,0
			c0,3.1-2.9,4.6-5.1,6.1c-6.3,3.1-12.6,3.1-17.7,8.7c-1.1,1.5-4-2.6-7.4-0.5c-5.1,2.6-10.3,6.1-16.5,6.6c-1.1,0-1.1,2-1.7,2.6
			c-5.7,3.6-12,3.1-18.3,3.6c5.1-1.5,9.1-3.6,13.1-7.1c2.9-3.1,8.6-2,13.1-3.6c1.7-1,2.3-3.6,2.9-4.1c3.4-1.5,8.6-1.5,11.4-3.1
			c9.7-3.6,19.4-7.1,28-13.8c0.6,0,1.7-1.5,2.3-1.5c6.3-3.1,12.6-4.1,17.7-8.7c-7.4,1-13.7,4.6-20.5,6.1c1.7-3.6,0.6-7.7,1.7-11.2
			c-6.3,4.6-6.3,11.2-12,16.3c-0.6,1-2.3,1.5-4,2c-0.6-5.6,4.6-10.7,1.7-16.3c-5.7,7.1-5.7,17.9-14.3,21.9c4-6.6,5.1-13.8,6.8-20.9
			c-2.3,3.1-3.4,7.7-6.8,10.2c-5.1,4.6-4.6,12.2-13.1,13.8c1.4-1.8,2.6-3.7,3.5-5.7c0.4-5,2.3-9.6,2.8-14.7c-0.6,2-3.4,2.6-4,4.1
			c-2.9,6.1-5.1,11.2-9.7,16.3c1.7-6.1,8-9.7,6.8-16.3c-3.4,2.6-5.1,6.1-9.1,8.2c-0.6,0.5,0.6,2.6,0,3.1c-2.3,2-4.6,3.6-5.7,6.6
			c-0.6,1.5-4.6,1-5.1,2.6c-2.9,5.1-8,8.2-11.4,12.8c1.7-4.6,5.7-6.6,8.6-10.2c0.6-1,0.6-2,0.6-3.1c1.1-1,3.4-1.5,4-2.6
			c2.9-5.6,6.8-10.2,11.4-14.8c0.6-1,0.6-2.6,0.6-3.6c2.9-0.5,6.3-2.6,6.3-5.6v0.5c3.4,1,8-1,7.4-5.1c3.5,0,6.6-6.7,9.6-7.6
			c0.2-0.1,0.4-0.2,0.6-0.4c2.9-2,7.4,1,10.8-0.5c5.5-2.4,10.4,0,15.8-2.2c0.8-1.5,1.4-3.2,1.9-4.9c-3.4,2.6-8,1.5-11.4,4.6
			c-2.9,2.6-7.4,1-12,1.5c6.3-2,11.4-3.1,16-6.6c2.3-2,6.3,0,8.6-2c0.6-0.5,0-2,0-2.5c1.7-0.5,4.6-1,5.1-2
			c3.7-3.7,5.3-13.9,2.7-18.3c-0.8,4.2-2.7,12.6-6.7,13.8c-10.3,4.1-20,6.1-29.7,12.2c-5.1,2.5-13.1,0-13.7,2
			c-3.4,9.2-10.3,19.2-19.4,21.8c1.1,1.5,1.1,3.6,0,5.1c-0.6,1-4,1-4,2c-1.7,6.6-6.3,10.2-11.4,14.3c-1.1,1,0,2-0.6,2.6
			c-4.6,1.5-10.3,0.5-13.1,3.6c-1.7,1.5-2.9,4.1-4.6,5.1c-5,3.1-9.8,6.1-14.6,8.9h58.4c5.1-2.6,10.2-5.2,15.6-7.4
			c8-3.1,15.4-7.1,23.4-10.2c-5.7,3.6-9.7,8.2-14.3,12.8c6.3-1,11.4-4.1,16.5-7.1c1.1-0.5,3.4,0,5.1-2c2.9,2.6,5.7,4.6,9.7,4.6
			c0-0.5,0.6-1,0.6-1.5c1.7-1.5,4.6,0.5,5.1-0.5c2.3-1.5,0-4.6,0.6-7.1c2.9,3.1,5.7,6.6,9.7,8.7c0-1.5,0.6-3.1,0-4.1
			c-3.2-2.9-6.4-5.5-8-8.9c-1.5-0.6-2.7-1.4-3.4-2.9c-1.1,2.6-4,4.1-5.1,7.1c-0.6,1.5-2.9,3.1-4,4.6c0-1-0.6-2,0-2.6
			c0.6-0.5,1.7-1.5,1.7-1.5c2.3-2.6,2.9-5.1,4.6-7.7c-3.4,1-5.1,3.1-8,4.6c-1.1,1-3.4,0.5-4.6,1c-0.6,0.5-2.3,1-2.9,2
			c0.6-3.6,4.6-2,7.4-4.1c0.6-0.5-0.6-2,0-2.6c3.4-2,7.4-1.5,10.3-4.1c0.5-0.8,2.5-0.3,3.5,1.1c8.6,1.1,16.7,4.4,24.7,7.7
			c0.5-0.4,1.1-0.7,1.4-0.7c4-1.5,10.3-0.5,11.4-3.1c2.3-3.6,5.1-6.6,7.4-10.2C1334.2,360.1,1327.9,354.5,1321.7,354.5z"/>
		<path class="st16" d="M1290.9,322c-0.6,1-3.4,1.5-5.1,2c0,0.5,0.6,2,0,2.5c-2.3,2-6.3,0-8.6,2c-4.6,3.6-9.7,4.6-16,6.6
			c4.6-0.5,9.1,1,12-1.5c3.4-3.1,8-2,11.4-4.6c-0.5,1.7-1.1,3.4-1.9,4.9c0.2-0.1,0.5-0.2,0.7-0.3c2.3-1,2.3-4.6,3.4-6.1
			c1.7-2,7.4,0,8.6-1.5c2.9-4.1,0.8-13.9,0.8-19c0-2.5-1.1-4.7-1.2-7c0,0,0,0,0,0c-0.2,0.1-0.4,0.1-0.6,0.1
			c-0.4,1.1-0.6,2.3-0.8,3.5C1296.1,308.2,1294.5,318.3,1290.9,322z"/>
		<path class="st13" d="M1392.7,365.2c0.1,0.2,0.2,0.4,0,0.6C1392.7,365.6,1392.7,365.4,1392.7,365.2z"/>
		<path class="st14" d="M1301.2,400.1c0.6-0.3,1.2-0.5,1.9-0.8c-1.5,0.2-3,0.3-4.5,0.5C1299.4,399.9,1300.3,400,1301.2,400.1z"/>
		<path class="st14" d="M1219.8,403.8c1-0.2,2-0.4,3-0.6c-0.2-0.1-0.5-0.2-0.7-0.3C1221.3,403.1,1220.6,403.5,1219.8,403.8z"/>
		<path class="st14" d="M1231.1,401.4c0.1,0,0.2,0,0.3-0.1c0-0.1-0.1-0.3-0.1-0.4C1231.2,401.1,1231.2,401.2,1231.1,401.4z"/>
		<path class="st12" d="M1085.8,391.7c0,0.2,0,0.5,0,0.7C1086,392.2,1086.1,392,1085.8,391.7z"/>
		<path class="st12" d="M1373.1,391c-0.9-0.1-1.8-0.4-2.6-0.7C1370.3,391.1,1373,392.1,1373.1,391z"/>
		<path class="st16" d="M1193.1,398.9c-2.1,4.4-10-11.6-14.3-7.9c-0.7,0.6-1.3,1.3-2.1,1.9c-0.8,0.6-1.8,1.2-2.7,1.7
			c-7.1,4.3-12.1,9.8-16.9,15.2c4.9-3.7,10-7.2,15.4-10.6c-1.8,1.9-3.5,3.8-5.3,5.7c1.7-1.3,2.4-3,3.5-4.5c1.2-1.5,3.2-3,5.9-3
			c1.1,0,2.2,0.2,3.2,0c1.4-0.3,2.1-1.3,2.6-2.2C1184.9,389.9,1186.8,402.4,1193.1,398.9z"/>
		<path class="st15" d="M1373.2,395h46.1c0,0,4.4,0.7-3.7,8.3c-8.1,7.6-9.3,7.4-10.1,10.6s-2.6,9-2.6,9v6l-26.6-9.4
			c0,0,3.6-3.4,4-5.6c0.3-2.2,7.1-4.2,7.1-4.2h-10.7l-6.6,7.5l-31.6-11.2c0,0,8.5,2.3,14.3-0.3s9.3-4.6,9.3-4.6s1.9,1.5,5,0
			C1370.2,399.6,1373.2,395,1373.2,395z"/>
		<polyline class="st15" points="1233.8,980.8 1223.2,951.4 1223.2,911.9 		"/>
		<path class="st15" d="M1247.2,541l-32.6,49.2l-6.8,49.2c0,0-27.4,22.8-24.1,41.9c3.4,19.1,0,40.1,0,40.1l25.9-29.1l2.7-11.6
			l9.4-0.4c0,0,11.6-8.5,9.8-11.6c-1.8-3.1,3.1-25.5,3.1-25.5l18.4-9.8c0,0,29-37.1,22.9-44.3c-6-7.2-19-29.9-9.2-37.1
			c9.8-7.2,17.9-21.9,17.9-21.9s-6.7,13.6-17.9,15.5c-11.2,1.9-2.2-9.7-2.2-12s1.3,2.4-8,4.9C1247.2,541,1247.2,541,1247.2,541"/>
		<path class="st15" d="M1166.2,781.7c0,0-0.3-3.6,1.2-4.2c1.6-0.6,1.8-3.9,1.8-3.9s1,6.4,2.1,6.6c1,0.2,4.1-3.1,4.1-3.1
			s1-4.4,4.9-4.8c3.9-0.4,8.3-2.7,8.8-3.9c0.5-1.2-0.5,5,2.6,5.3c3.1,0.3-0.8-0.4-0.6,2.3s1.9,7.5,1.9,7.5s-2-0.9-5.4,4.6
			c-3.4,5.5-12.1,22.1-12.1,22.1l-2.9-4.2v-16.2L1166.2,781.7z"/>
		<path class="st15" d="M1153.1,693c0,0,4.4,22.9,7.3,24.9c2.9,1.9-1,6.5,0,8.4c1,1.9,5.8,4.2,5.8,4.2l3.8-2.9c0,0-1.6,21.6,0,24.5
			c1.6,2.9-5.6,11.6-5.6,11.6l-0.6-11.7c0,0-2.1-4.9-4.1-8.3C1157.7,740.3,1154.2,735.9,1153.1,693z"/>
		<path class="st15" d="M1157,409.7c0,0,5.9-4.4,9.8-6.9c3.9-2.5-2.5,2-3.5,5.4c-1.1,3.4,1.1,7.2,1.3,10.7s0.4,6.9,0.2,8
			c-0.2,1.1,1.5-9.8,2.3-12.4c0.9-2.7,2.6-4.8,2.6-4.8s-0.4,3.5,0,4.8s2.3-2.7,2.3-2.7l6.4-2.1l1.7-2.8c0,0,4.3,5.2,4.3,7.6
			s0,7.5,0,7.5l2.3-6.2c0,0,1.3-5.4,3.4-6.1c2.1-0.7,5.2-0.3,6.4,1.9c1.2,2.1,2.1,2.6,2.7,6.2c0.6,3.6,2.9,3.8,1.7,9.2
			c-1.2,5.5-2.5,6.5-2.5,6.5l2.9-3c0,0,1.2-3.2,2-5.1c0.9-1.9,0,4.3,0,4.3s3.2-8.5,5.3-9.8c2.1-1.3,5.6-7,11.2-6.2
			c5.6,0.9,4.5,2.6,7.5,4.1c3,1.5,6.6-3.2,10.4,2.7c3.8,6,13,10.9,13,10.9l1.5-8.9l-5.3-9.7c0,0-8.1-3.9-8.3-5.8s2.3-7.9,0.2-8.8
			s-7.5-1.9-4.6-3.2s-60.3-0.4-60.3-0.4"/>
		<path class="st18" d="M1398,403.4c-0.6,0.8-1.7,1.3-2.7,1.8c-1.5,5.4-4.9,8.3-7,13.9c3.4-3.6,5.1-6,7.4-10c-0.6,5.6,2.3,10-4,13.6
			c0,0.5,1.7,2,1.1,2.6c-2.9,2-6.3,2-9.7,3.1c-0.6,0-1.7,2.6-2.3,2.6c-6.3,2.6-8.6,3.7-12,7.8c2.9-2,4.6-5.1,7.4-7.1
			c2.3-1.5,5.1,0.8,6.8-1.2c1.1-0.5,2.3-1.5,4-1c-1,1.2-2.1,2.4-3.2,3.7c5.9-2.7,12.4-5.2,13.4-9.8c1.1-3.6-0.6-6,1.1-11.6
			C1399.7,410.1,1398,406.5,1398,403.4z"/>
		<path class="st18" d="M1219.3,649.2c1.1-1.5,2.9-0.5,4-0.5c5.1-1.5,6.3-11.6,10.8-13.6c5.7-2.6,6.3-9.2,9.7-14.3
			c1.1-1.5,4-2.6,4.6-4.6c1.1-2.6,1.9-14.6,3.6-15.6c5-3.3,8.2-27.6,9.9-32.2c-2.6-0.6-4.6,0.7-6.7,2.1c-3.3,4.6-7,8.9-8.9,14.4
			c-1.1,2-5.3,31.8-7.6,32.8c4.1-4.4,6.3-15.9,8.8-22.6c0.4-1-6.9-14.9-6.5-15.6c-1.2,0.2,0.7,5.6-0.5,5.7
			c-0.3,0.7-1.6,13.7-0.8,15.6c4,9.3-3.7,19.3-4.5,28.1c-0.6-0.5-2.3,1-2.9-0.5c-1.7,4.1-2.3,14.1-6.3,16.7
			c2.9-6.1,6.3-18.2,7.4-24.8c1.1,2,0.6,3.6,0.6,5.6c2.5-7.7,1.4-30.3,3.6-38c-1.1,0.7-5.7,3.4-6.8,4c-4.4,2.1-4.3,10.6-8.8,12.6
			c-1.3,0.6-4.9,7.8-5.9,7.9c0.1,3.7,3.9,7.8,2.4,10.4c-1.1,3.1-1.7,6.6-1.7,10.2c1.1-2,4-4.1,4-6.1c1.1-6.1,2.9-10.2,6.8-14.8
			c0,2.6,0,5.6-0.6,8.2c2.9-2.6,4.8-14.6,6.5-17.7c0.6,9.7-4.8,27.9-11.6,35c-2.3,1.5-5.1,0-7.4,0.5c-1.1,0,0,8.5-0.6,10
			c-2.9,5.1-7.4,12.1-8,17.7C1211.8,662.3,1214.1,653.3,1219.3,649.2z"/>
		<path class="st18" d="M1244,419.8c-0.6-1.2-1.4-2.2-3-2.9c-2.4-1.2-6-0.7-8.1-1.8c-1.3-0.7,0.7-3-1.7-3.9c-3.7-1.2-5-3.2-6-5.5
			c-1.9-4-5.8-7.1-8.9-10.6c1.5,1,2.8,2.1,4.7,2.9c1,0.4,2,0.8,3.1,1c1,1.5,1.9,2.9,2.8,4.4c0.3,0.7,2,0.9,2.7,1.8
			c2,3.2,3,6.5,8.7,7.8c1,0.2,0.7,1.2,1.3,1.8c4.4,3.2,9.4,5.8,12.1,9.7C1249.6,422.6,1246.9,421.1,1244,419.8z"/>
		<path class="st18" d="M1130,630.7c0,0,2.2,9,4.8,15.7c2.6,6.6,6.2,16,6.2,16s6-6.4,11.6-5.6c5.6,0.8,10.8-15.9,10.8-15.9
			s-5.2,8.2-7.7,7.9c-2.5-0.3-4.4-2.2-2.6-5.9c1.8-3.7,3.8-8.7,3.8-10.4c0-1.7,6.6-4.5,6.6-4.5l-3.2-9.6v5.6c0,0-4.8,5.9-5.6,4.5
			c-0.8-1.4,0-2.9,0-2.9l-3.1,7.6l-9-3.4c0,0,1.7,5.6,1.7,9.3s1.1,11.5-1.7,9C1139.7,645.7,1134.4,641.9,1130,630.7z"/>
		<path class="st18" d="M1300.4,508.8c3.2,7.3,12.5,10,12.2,18c0,0.6,1.1,1.7,1.6,2.2c-3.1-0.5-5.7-1.6-8.7-2.1
			c0,1.7,1.6,3.4,2.6,3.4c5.7,2.1,8.8,6.6,6.9,11.2c0,1.7-4.1-1.6-6.7-1c3.7,3.3,8.3,5.5,11.5,9.4c1,1.1,1.1,4.5,2.7,5.6
			c3.7,4.5,5.9,10.1,9.1,15.2c-0.7-6.8-4.9-11.3-7.6-17.5c-6.5-13.5-4.8-29.6-14.8-41.9c-1.6-1.7-0.1-4.6,1.4-6.9
			c-4.9-2.4-9.5-6.2-12.7-11.2l0.2,6.7c2,2.3,4,4.6,6,7C1305,507.6,1301.9,509.4,1300.4,508.8z"/>
		<path class="st15" d="M1272.9,827c-1.9,10.9-6.9,13.8-10.1,15.6c-3.2,1.9,0,5.8,0,13s-0.8,25.7-1.6,29.2s-2.7,5-2.7,11.4
			c0,6.4,0.3,11.9-4.8,20.4c-5,8.5-9.8,30.2-9.8,30.2l-1.6,21.2c0,0-0.5,1.3-4.2,8.7c-3.7,7.4-4.5,4-4.5,4s-9.3-24.1-10.6-29.4
			c-1.3-5.3,1.3-32.3,0-39.5c-1.3-7.2-5.8-20.9-10.3-27s-1.9-23.6-4-26.2c-2.1-2.7-1.6-21.7-2.1-26c-0.5-4.2-6.1-7.4-6.1-7.4
			s1.6-4.2,5.6-6.9s8.2-7.5,8.2-10.2s2-9.8-1.6-14.4s12.1,5.9,13.4,10.8c1.3,4.9-0.7,15.1-0.7,15.1l11.3,16.1c0,0,2.5,6.6,2.5,7.9
			s-0.7-11.5,6.6-14.4c7.2-2.9,3.6-9.5,10.5-11.1c6.9-1.6,19-7.9,19-7.9L1272.9,827z"/>
		<path class="st18" d="M1244.2,946.8l-1.6,21.2c0,0-0.5,1.3-4.3,8.7c-3.8,7.4-4.6,4-4.6,4s-9.4-24.1-10.7-29.4c0,0-0.7-5.7-0.4-7.2
			c0.3-1.5,0.4,3.3,1.7,3.5c1.2,0.3,2.2,1.2,2.2,1.2s-1.2-4.5,0.5-6.5s2.9-5.6,2.7-6.8s1.5-6.5,1.5-6.5s1.8,6.1,1.4,7.8
			c-0.4,1.6,3,5,3,6s2.9,3.5,2.9,3.5s1-0.8,1.8-1.2c0.8-0.4,1.1-1.9,1.1-1.9S1243,948.6,1244.2,946.8z"/>
		<path class="st18" d="M1252.2,831.5c0,0-6.2,2.6-6.2,6.9s-1.8,10.4-1.8,10.4l4,4.6c0,0,2.1,2,1.2,6.1c-0.9,4,2.8,8.4,2.8,8.4v8.4
			c0,0,4.2-5.8,4.2-10.1s0.9-2.6,0-7.8c-0.9-5.2,2.3-11.8,2.3-11.8S1248.3,845,1252.2,831.5z"/>
		<path class="st18" d="M1188.5,531.9c0,0,4.8,4.7,2.8,7.4c-2,2.7,3.3-1.1,3.3-1.1l-7.3,16.9l5.1,4.9c0,0-0.9,0.3-0.5,2.3
			c0.4,2.1,6.3-13.5,6.3-13.5s-1.5-5.2-0.6-8.2s2.2-5.2,1.6-6.4c-0.6-1.2,1.9-10.3,1.9-10.3s-2,5.6-3.9,5.2
			C1195.5,528.8,1189.4,529.1,1188.5,531.9z"/>
		<path class="st18" d="M1210.8,857.3c2.5,7.6,11.5,11.1,10.5,19c0,0.6,0.9,1.8,1.4,2.4c-3-0.8-5.5-2.1-8.5-2.9
			c-0.1,1.7,1.3,3.5,2.3,3.6c5.4,2.7,8.2,7.4,5.8,11.8c-0.1,1.7-4-2-6.5-1.6c3.3,3.7,7.8,6.3,10.5,10.4c0.9,1.2,0.7,4.6,2.2,5.9
			c3.2,4.8,4.9,10.6,7.6,16c0-6.9-3.8-11.7-5.9-18.1c-5.2-14.1-2-29.9-10.8-43.1c-1.4-1.8,0.3-4.6,2-6.7c-4.6-2.8-8.9-7.1-11.6-12.4
			l-0.5,6.7c1.8,2.5,3.6,4.9,5.3,7.5C1215.5,856.4,1212.3,857.9,1210.8,857.3z"/>
	</g>
	<g>
		<g>
			<g>
				<path class="st19" d="M1228.9,170.3c1.1-0.4,2.2-0.7,3.4-0.7c0.9,0,1.7-0.8,2.2-1.5c5.4-7.5,12.7-10.9,21.5-10.5
					c1.6,0.1,3,0,4.1-0.4c0-0.3,0-0.6,0-0.8c0-10.1,8.5-18.4,19-18.4c2.9,0,5.7,0.8,8.2,2c1,0.2,1.9,0.3,2.9,0.6
					c0.8,0.2,1.6,0.5,2.4,0.6c1.8-1.6,4.3,1.9,6.9,1.9c1.8,0,2,17.5,3.5,18.3c1.9-2.3,4.8-2.4,8-2.4c0.7,0,1.3,0.1,2,0.2
					c1.9-0.8,1.8-3.3,2.7-4.9c4.4-8.2,9.8-15.1,18.5-18.8c12.9-5.5,24.9-3.9,36.4,3.9c0.6,0.4,1.1,0.8,1.7,1.1c0.4,0,0.7,0,1.1,0
					c8.3,0,15.6,8.3,19.8,14.6c1.5,1.8,2.8,3.8,3.2,6.3c0.3,1.6-4.6,3.4-3.7,4.4c5.1,0.6,5.1,14.2,5.1,14.2
					c-2.7-4.3,5.1-20.6,15.7-21.3c6.4-0.5,10.1,1.7,12.8,5.4c0.2,0-1.8-12.7,11.2-14.5c2.7-0.4,4.3,0.2,5.8,0.9
					c1.9-4.5,9.9-9.5,16.8-9.5c10.6,0,20.6,7,23.8,15.1c0.9,2.2,1.4,5.1,1.4,5.1c3.2-2.2,7.4-3.5,12-3.5c8.4,0,14.1,7.8,16.4,13.9
					c0.3,0.2,0.6,0.3,0.9,0.5c0.7-0.2,1.3-0.3,2.1-0.3c3.6,0,6.6,2.4,7.5,5.7c1.4-0.3,2.9-0.5,4.5-0.5c6.3,0,11.7,1.4,13.7,5.3
					c1.5,0,2.9,1.1,4.4,1.1c21.3,0,38.7,0.1,38.5,1.8c-0.2,1.9-17.2,2.4-38.5,2.4c-9.6,0-18.4-0.5-25.1-1c-2.1,1.1-5.5,1.7-9.2,1.6
					c-2-0.1-3.8-0.3-5.5-0.8c-0.2,0-0.3,0.1-0.5,0.1c-4.5,1.5-14.9-0.6-19.5-0.7c-5.9-0.1-14.5-0.4-20.4,0.6
					c-1.3,0.2-6.5-0.2-7.8-0.5c-9-2.2-15.9-3.5-26.9-3.1c-4.5,0.2-27.9,2.6-32,0.9c-0.5-0.2-1.2-0.4-1.8-0.3
					c-6.1,0.9-6.1-1.2-12.3-1.1c-7.5,0.1-13.6,0.6-21.2,0.3c-6.1-0.3-12,1.9-18,2.3c-8.6,0.6-6.9,1.6-15.5,1
					c-5.7-0.4-11.3-2-17.1-1.9c-5.4,0.1-10.9,3.7-16.3,3.9c-6.3,0.2-12.4-1-18.4-2.8c-5.4-1.6-10.9-2.5-16.4-2.1
					c-3.8,0.3-7.5,0.3-11.1-0.7c-5.5-1.4-11-3.5-16.8-1.4c-0.7,0.3-1.7,0-2.5-0.1c0,0,0,0,0,0c-0.4,0.1-0.9,0.1-1.3,0.1
					c-3.2,0.3-6.3,0.2-8.9-0.1c-0.5,0-0.9,0-1.4-0.2c-3.7-0.7-6.1-2.1-6.2-3.8C1214.4,174.2,1220.7,171.2,1228.9,170.3z"/>
			</g>
			<path class="st20" d="M1479.4,122.4c-0.4-0.1-0.7-0.2-0.7-0.7c0-0.3-0.2-0.4-0.5-0.4c-0.8,0.1-1.7,0.2-2.5,0.2
				c-2,0.1-4.1,0.2-6.1,0.1c-2.3,0-4.6-0.1-6.9-0.2c-0.8,0-1.6-0.2-2.4-0.5c-0.4-0.2-0.4-0.4,0-0.6c0.7-0.4,1.5-0.4,2.2-0.5
				c2.4-0.4,4.9-0.5,7.4-0.6c0.8,0,1.6,0.2,2.1-0.7c0.1-0.1,0.1-0.2,0.2-0.3c-0.2-0.2-0.2-0.5-0.2-0.7c0.1-0.8,1.5-1.2,3.1-1
				c0.1,0,0.2,0,0.2,0c0.5,0,0.6-0.2,0.5-0.6c-0.2-0.8,0.3-1.4,0.9-1.8c0.5-0.4,1.1-0.5,1.8-0.3c0.4,0.1,0.6,0.6,1,0.7
				c0.5-0.2,1.3-0.3,2.1-0.1c0.1,0,0.1,0,0.2,0c-0.1-0.2-0.2-0.5-0.2-0.7c0-1.2,1.3-2.2,3-2.3c0.1-0.1,0.2-0.1,0.2-0.2
				c0,0,0-0.1,0.1-0.1c0.3-1,1.5-1.7,2.9-1.7c1.4,0,2.7,0.7,3,1.6c0,0,0,0,0,0c0.2,0,0.4-0.1,0.6-0.1c1.7,0,3.1,0.9,3.1,2.1
				c0,0.1,0,0.2,0,0.3c0.1,0.1,0.1,0.3,0.2,0.4c0,0,0,0,0,0c0.7,0.3,1.2,0.8,1.2,1.2c0.1,0.1,0.3,0.2,0.6,0.1c0.5-0.1,1,0,1.5,0.2
				c0.9,0.2,1.5,0.7,1.5,1.2c0,0.3-0.2,0.6-0.6,0.9c0,0,0,0.1,0,0.1c0,0,0.1,0.1,0.1,0.1c0.4,0,0.7,0,1.1,0.1
				c0.6,0.1,1.2,0.3,1.6,0.6c0.4,0.1,0.7,0.1,1.1,0c0.5-0.1,0.7-0.2,0.9-0.6c0.3-0.9,1-1.2,1.9-1.2c0.9,0,1.5,0.5,1.8,1.4
				c0.1,0.5,0.4,0.6,0.8,0.5c0.4,0,0.8,0.1,1.2,0.1c1,0.1,1.7,0.7,2.7,0.9c0.4,0,0.9-0.1,1.3-0.1c2.2-0.1,4.1,0.3,4.1,0.8
				c0,0.5-1.8,0.9-4,1c-0.7,0-1.4,0-2-0.1c-0.9,0-1.9-0.1-2.8-0.2c-1-0.2-1.8-0.3-2.6,0.7c-1,1.2-2.6,1.1-4,1
				c-0.8-0.1-1.5-0.2-2.3,0.3c-1.5,1-3.3,0.9-5.1,0.8c-0.8-0.1-1.6-0.2-2.3-0.7c-0.5-0.4-0.9-0.2-1.4-0.1c-1.5,0.4-3,0.3-4.4-0.1
				c-0.4-0.1-0.8-0.3-1.2-0.2C1483.5,122.9,1481.4,122.9,1479.4,122.4z"/>
			<path class="st21" d="M1630.9,175.2c-1.9,0.6-3.8,0.7-5.7,0.5c-0.9-0.1-1.7,0-2.4,0.4c-0.7,0.4-1.6,0.6-2.3,0.6
				c-1.8,0-3.7,0.5-5.5-0.2c-0.4-0.2-0.9-0.2-1.3,0c-1.9,0.7-3.8,0.6-5.7,0.1c-0.4-0.1-0.9-0.2-1.2-0.1c-1.6,0.6-3.2,0.4-4.8,0.3
				c-0.8,0-1.4-0.6-2.2-0.3c-1.1,0.4-2.2,0.5-3.2,0.4c-1.6,0-3,0.1-4.3-0.5c-0.5-0.2-1.3-0.4-1.2-1.2c0-0.4-0.1-0.5-0.5-0.6
				c-0.9,0-1.8,0-2.6-0.1c-0.4,0-1.1-0.1-1.1-0.6c0-0.6,0.7-0.5,1.2-0.6c3.1-0.5,6.2,0.3,9.4,0.2c0.9,0,1.9,0.5,2.8,0.1
				c0.1,0,0.2-0.1,0.3-0.2c-0.1-0.1-0.2-0.2-0.3-0.2c-0.2-0.2-0.5-0.4-0.5-0.7c0-0.1,0.2-0.3,0.4-0.3c4-0.7,7.9-0.5,11.9-0.4
				c1.9,0.1,3.7,1,5.7,0.9c1.5-0.1,3,0,4.4,0.5c0.5,0.2,1.1,0.4,1.7,0.4c2.3-0.2,4.6,0,6.9,0.5c0.3,0.1,0.5,0.2,0.5,0.5
				C1631.3,175,1631.1,175.1,1630.9,175.2z"/>
			<path class="st22" d="M1627.2,153.2c-2.8,0-5.5,0-8.1,0c-2.3-0.2-4.7-0.3-7-0.3c-0.6,0-1.3,0.2-2,0c-0.2-1.7-3.5-3-7.6-3
				c-1.3,0-2.6,0.1-3.7,0.4c-0.1-0.2-0.1-0.5,0-1c0.9-3.7-2-7.9-6.7-9.2c-3.7-1-6.7-0.1-9.5,1.8c-0.1,0.1-0.4,0.2-0.5,0.2
				c-0.2-0.1-0.3-0.3-0.3-0.4c-0.1-1.8-1.1-3.3-2.3-4.5c-2.1-2.3-5-3.7-8.6-4.1c-7.6-0.8-14.2,3.8-14.7,10.3c0,0.3-0.1,0.6-0.6,0.4
				c-1.7-0.6-3.4-0.6-5.1-0.3c-3.5,0.6-6.1,3.7-5.9,6.7c-0.7-0.2-1.5-0.2-2.4-0.2c-3.4,0-6.2,1.4-6.9,3.3c-3.6-0.1-7.2,0.1-10.8,0.8
				c-0.5,0.1-1.1,0.1-1.1,0.8c0.1,0.6,0.5,0.7,1.1,0.8c1.4,0.3,2.9,0.3,4.3,0.4c5.5,0.7,10.9,0.4,16.4,0.2c1.6-0.1,3.2-0.6,4.9-0.1
				c1.5,0.5,3,0.5,4.6,0c0.9-0.3,1.6-1.1,2.7-0.6c2.2,1,4.5,1.4,7,0.6c1-0.3,1.9-1.1,3-0.7c1.2,0.4,2.5,0.4,3.8,0.7
				c2.9,0.6,5.7,0.4,8.6,0.1c1.7-0.2,3.2-1.3,5.1-0.6c1.4,0.5,6.4,1,8,0.9c1,0,1.9-0.5,2.8-0.6c2.3-0.3,4.5,0.2,6.8,0.4
				c3.3,0.3,6.7,0.1,10.1,0.2c3.1,0.1,2.6-0.1,5.6-0.3c2.5-0.1,4.8-0.2,6.6-0.4c0.7,0,1.5,0,2.2,0c19,0,34.4-0.6,34.4-1.3
				C1661.6,153.8,1646.2,153.2,1627.2,153.2z"/>
			<g>
				<path class="st23" d="M1630.8,174.2c-0.1,0-0.2,0-0.3-0.1c-1.6,0.3-3.2,0.4-4.7,0.3c-0.9-0.1-1.7,0.1-2.4,0.5
					c-0.7,0.4-1.6,0.6-2.4,0.6c-1.9,0-3.8,0.5-5.6-0.1c-0.4-0.1-0.9-0.1-1.3,0c-1.9,0.7-3.8,0.6-5.8,0.2c-0.4-0.1-0.9-0.2-1.3,0
					c-1.6,0.6-3.2,0.4-4.9,0.4c-0.8,0-1.5-0.6-2.3-0.3c-1.1,0.4-2.3,0.5-3.3,0.5c-1.6,0-3,0.1-4.4-0.4c-0.5-0.2-1.3-0.4-1.2-1.1
					c0-0.4-0.1-0.5-0.5-0.5c-0.9,0-1.8,0-2.7,0c-0.3,0-0.8-0.1-1-0.2c0,0,0,0.1,0,0.2c0,0.5,0.7,0.5,1.1,0.6
					c0.9,0.1,1.8,0.1,2.6,0.1c0.4,0,0.6,0.1,0.5,0.6c-0.1,0.8,0.7,1,1.2,1.2c1.3,0.6,2.7,0.5,4.3,0.5c1,0,2.1,0,3.2-0.4
					c0.8-0.3,1.5,0.3,2.2,0.3c1.6,0.1,3.2,0.2,4.8-0.3c0.4-0.1,0.8,0,1.2,0.1c1.9,0.5,3.8,0.7,5.7-0.1c0.4-0.2,0.9-0.2,1.3,0
					c1.8,0.7,3.7,0.2,5.5,0.2c0.7,0,1.6-0.2,2.3-0.6c0.7-0.4,1.5-0.5,2.4-0.4c1.9,0.2,3.8,0.1,5.7-0.5c0.3-0.1,0.5-0.2,0.5-0.6
					C1631.3,174.3,1631.1,174.2,1630.8,174.2z"/>
			</g>
		</g>
		<g>
			<path class="st21" d="M987,273.5c-3.8,1.2-7.8,1.4-11.7,1c-1.8-0.2-3.4,0.1-4.9,0.9c-1.5,0.9-3.3,1.3-4.8,1.3
				c-3.8,0-7.6,1-11.3-0.5c-0.9-0.3-1.8-0.3-2.7,0c-3.9,1.5-7.7,1.2-11.7,0.2c-0.8-0.2-1.8-0.4-2.6-0.1c-3.2,1.2-6.5,0.8-9.8,0.7
				c-1.5-0.1-2.9-1.3-4.5-0.7c-2.3,0.8-4.6,0.9-6.6,0.8c-3.2,0-6.1,0.1-8.8-1c-1.1-0.5-2.6-0.8-2.4-2.6c0.1-0.9-0.3-1.1-1-1.1
				c-1.8,0-3.6,0-5.4-0.2c-0.9-0.1-2.3-0.2-2.2-1.2c0.1-1.2,1.5-1.1,2.5-1.3c6.4-1.1,12.8,0.7,19.3,0.5c1.9-0.1,3.9,1,5.8,0.2
				c0.2-0.1,0.4-0.2,0.7-0.4c-0.2-0.2-0.3-0.3-0.5-0.5c-0.5-0.3-1-0.7-0.9-1.3c0-0.2,0.5-0.5,0.8-0.6c8.1-1.4,16.3-1.1,24.5-0.8
				c4,0.1,7.6,2.1,11.7,1.7c3.1-0.3,6.2-0.1,9.1,1c1.1,0.4,2.2,0.9,3.5,0.8c4.7-0.4,9.5-0.1,14.1,1.1c0.6,0.1,1,0.3,1,1
				C988,273.1,987.5,273.4,987,273.5z"/>
			<path class="st22" d="M979.5,228.3c-5.7,0-11.3,0-16.6,0.1c-4.8-0.3-9.6-0.5-14.4-0.6c-1.3,0-2.8,0.4-4,0
				c-0.4-3.4-7.2-6.1-15.5-6.1c-2.7,0-5.3,0.3-7.6,0.8c-0.2-0.4-0.2-1.1,0.1-2.1c1.9-7.6-4-16.2-13.8-18.9
				c-7.7-2.1-13.7-0.2-19.6,3.6c-0.3,0.2-0.8,0.4-1,0.3c-0.3-0.2-0.6-0.6-0.6-0.9c-0.2-3.6-2.4-6.7-4.8-9.3
				c-4.4-4.7-10.2-7.7-17.6-8.5c-15.5-1.7-29.2,7.8-30.1,21.2c0,0.7-0.2,1.2-1.2,0.8c-3.4-1.2-6.9-1.2-10.5-0.6
				c-7.2,1.1-12.5,7.6-12.2,13.8c-1.5-0.3-3.1-0.5-4.8-0.5c-7,0-12.8,2.9-14.2,6.8c-7.4-0.1-14.8,0.1-22.1,1.6
				c-1.1,0.2-2.3,0.3-2.2,1.7c0.1,1.2,1.1,1.4,2.2,1.7c2.9,0.7,5.9,0.5,8.8,0.9c11.2,1.5,22.5,0.9,33.7,0.5c3.3-0.1,6.6-1.3,10-0.3
				c3.2,1,6.3,1,9.5,0c1.8-0.6,3.3-2.3,5.5-1.3c4.6,2.2,9.3,2.8,14.4,1.2c2-0.6,3.9-2.2,6.2-1.4c2.5,0.9,5.2,0.9,7.7,1.4
				c5.9,1.3,11.7,0.8,17.7,0.2c3.5-0.4,6.6-2.6,10.5-1.2c2.9,1.1,13.1,2,16.5,1.9c2.1-0.1,3.9-1,5.8-1.2c4.7-0.5,9.3,0.3,14,0.8
				c6.9,0.6,13.8,0.2,20.7,0.4c6.3,0.1,5.4-0.1,11.5-0.7c5.2-0.1,9.9-0.4,13.6-0.8c1.5,0,3,0,4.5,0c39,0,70.7-1.2,70.7-2.7
				C1050.2,229.5,1018.5,228.3,979.5,228.3z"/>
			<g>
				<path class="st24" d="M921.8,217.7c0-0.5,0-0.9-0.1-1.4C921.6,217,921.7,217.4,921.8,217.7z"/>
				<path class="st24" d="M979.5,228.3c-1,0-2,0-3,0c-3.7,0.4-8.4,0.8-13.6,1c-6.2,0.7-5.3,0.9-11.7,0.9c-7.1,0-14.2,0.5-21.2,0
					c-4.8-0.3-9.5-1.1-14.2-0.5c-2,0.3-3.7,1.2-5.9,1.3c-3.5,0.1-13.8-0.6-16.9-1.7c-3.9-1.4-7.1,1-10.7,1.4c-6.1,0.8-12,1.3-18,0.2
					c-2.6-0.5-5.3-0.4-7.9-1.3c-2.3-0.8-4.3,0.9-6.3,1.5c-5.2,1.7-10,1.1-14.7-1c-2.3-1-3.8,0.8-5.6,1.4c-3.3,1.1-6.4,1.1-9.7,0.2
					c-3.5-1-6.8,0.3-10.2,0.4c-11.5,0.6-22.9,1.4-34.4,0.1c-3-0.3-6-0.1-8.9-0.7c0.2,1.1,1.1,1.4,2.2,1.6c2.9,0.7,5.9,0.5,8.8,0.9
					c11.2,1.5,22.5,0.9,33.7,0.5c3.3-0.1,6.6-1.3,10-0.3c3.2,1,6.3,1,9.5,0c1.8-0.6,3.3-2.3,5.5-1.3c4.6,2.2,9.3,2.8,14.4,1.2
					c2-0.6,3.9-2.2,6.2-1.4c2.5,0.9,5.2,0.9,7.7,1.4c5.9,1.3,11.7,0.8,17.7,0.2c3.5-0.4,6.6-2.6,10.5-1.2c2.9,1.1,13.1,2,16.5,1.9
					c2.1-0.1,3.9-1,5.8-1.2c4.7-0.5,9.3,0.3,14,0.8c6.9,0.6,13.8,0.2,20.7,0.4c6.3,0.1,5.4-0.1,11.5-0.7c5.2-0.1,9.9-0.4,13.6-0.8
					c1.5,0,3,0,4.5,0c39,0,70.7-1.2,70.7-2.7C1050.2,229.5,1018.5,228.3,979.5,228.3z"/>
			</g>
			<g>
				<path class="st23" d="M986.9,271.4c-0.2-0.1-0.4-0.1-0.7-0.1c-3.2,0.7-6.5,0.8-9.7,0.6c-1.9-0.1-3.5,0.1-5,1
					c-1.5,0.9-3.3,1.3-4.9,1.3c-3.8,0.1-7.7,1.1-11.6-0.2c-0.9-0.3-1.9-0.3-2.8,0.1c-3.9,1.5-7.9,1.3-11.9,0.4
					c-0.8-0.2-1.9-0.3-2.6-0.1c-3.3,1.2-6.6,0.9-10,0.9c-1.6,0-3-1.1-4.6-0.6c-2.3,0.8-4.6,1-6.7,0.9c-3.3,0.1-6.2,0.2-9-0.8
					c-1.1-0.4-2.7-0.7-2.5-2.4c0.1-0.8-0.3-1.1-1.1-1.1c-1.8,0-3.7,0-5.5-0.1c-0.6,0-1.6-0.1-2-0.5c0,0.1-0.1,0.2-0.1,0.3
					c-0.1,1,1.4,1.1,2.2,1.2c1.8,0.2,3.6,0.2,5.4,0.2c0.8,0,1.1,0.2,1,1.1c-0.2,1.7,1.3,2.1,2.4,2.6c2.7,1.2,5.6,1.1,8.8,1
					c2,0.1,4.3-0.1,6.6-0.8c1.6-0.6,3,0.7,4.5,0.7c3.3,0.1,6.6,0.5,9.8-0.7c0.7-0.3,1.7-0.1,2.6,0.1c3.9,1,7.8,1.4,11.7-0.2
					c0.9-0.4,1.9-0.4,2.7,0c3.7,1.5,7.6,0.5,11.3,0.5c1.5,0,3.3-0.4,4.8-1.3c1.5-0.9,3-1.1,4.9-0.9c3.9,0.3,7.9,0.2,11.7-1
					c0.6-0.2,1-0.5,1-1.2C987.9,271.7,987.5,271.5,986.9,271.4z"/>
			</g>
		</g>
	</g>
	<g>
		<g>
			<g>
				<g>
					<path class="st25" d="M1171.1,165.8c-0.4,2.9-1,8.4,0.4,11.3c2.1,4.6,8.6,7.9,11.6,9c-2.1-2.8-3.1-5-2.6-6.6
						c0.1-0.5,1.1,1.3,2.8,1.6c-0.6-1.9-0.5-2.4-0.5-3.8c0-1.4-0.3-3.9-1.2-5.3c-3-4.6-8.2-6.4-9.3-6.8L1171.1,165.8z"/>
					<path class="st26" d="M1171.1,165.8c-0.3,1.2-0.4,5.7,0.8,7.7c1.2,2,5.8,4.1,8,6.2c-0.5-2.2-1.1-2.9-0.8-4.8
						c0.2-1.9,0.2-2.1-0.1-3.1c-0.3-1-2.2-3.1-4.1-4.7c-2-1.7-2.5-1.9-2.5-1.9L1171.1,165.8z"/>
					<path class="st27" d="M1171.1,165.8c-0.1,1.5,0.3,5.6,1.6,6.7c1.3,1.1,2.3,0.7,4.5,2.3c0-0.9-1.3-2.3-0.9-3.2
						c0.5,0.5,0.7,0.8,1.4,1c-0.6-0.8-0.6-1.8-1.1-2.9c-0.6-1.3-1.9-2.1-2.9-2.9c-1-0.9-1.5-1.6-1.5-1.6L1171.1,165.8z"/>
				</g>
				<g>
					<path class="st28" d="M1171.9,166.4c-2.2,1.2-4.2,1.7-4.5,1.1l0.6,1.1c0.3,0.6,2.4,0.1,4.5-1.1c2.2-1.2,3.6-2.7,3.3-3.3
						l-0.6-1.1C1175.6,163.7,1174.1,165.2,1171.9,166.4z"/>
					<path class="st28" d="M1172.7,167.7c-1.6,0.9-3.2,1.3-3.4,0.8l0.5,0.8c0.3,0.5,1.8,0.1,3.4-0.8c1.6-0.9,2.7-2,2.5-2.5l-0.5-0.8
						C1175.4,165.7,1174.3,166.8,1172.7,167.7z"/>
					<g>
						<path class="st29" d="M1160.6,153.2c0.4,2.7,1.5,6.3,3.9,10.5c1.3,2.2,2.2,3.9,2.2,3.9s3.3-0.6,5-1.6c1.7-1,4-3.4,4-3.4
							s-0.9-1.7-2.2-4c-2.3-4.1-4.9-6.9-7.1-8.7c-0.7,0.7-1.6,1.4-2.7,2C1162.7,152.5,1161.6,152.9,1160.6,153.2z"/>
						<path class="st30" d="M1161.2,147.3c-0.5,0.3-1.1,2.4-0.6,5.9c1-0.3,2.1-0.7,3.2-1.3c1-0.6,2-1.3,2.7-2
							C1163.8,147.7,1161.6,147,1161.2,147.3z"/>
					</g>
					<path class="st28" d="M1171.1,164.9c-2.5,1.4-4.9,2-5.3,1.3l0.7,1.3c0.4,0.7,2.8,0.1,5.3-1.3c2.5-1.4,4.2-3.1,3.8-3.8l-0.7-1.3
						C1175.3,161.7,1173.6,163.5,1171.1,164.9z"/>
				</g>
				<g>
					<path class="st14" d="M1175.2,163.5c-0.2,0.3-0.6,0.6-1,1c0,0.1,0.1,0.1,0.1,0.2C1174.8,164.2,1175.1,163.8,1175.2,163.5z"/>
					<path class="st14" d="M1175.1,165.6c-0.1,0.1-0.2,0.2-0.3,0.2c0,0,0,0.1,0,0.1C1175,165.8,1175.1,165.7,1175.1,165.6z"/>
					<path class="st29" d="M1175.7,162.6C1175.7,162.6,1175.7,162.6,1175.7,162.6C1175.7,162.6,1175.7,162.6,1175.7,162.6
						C1175.7,162.6,1175.7,162.6,1175.7,162.6z"/>
					<g>
						<path class="st31" d="M1174.3,164.7c0.2,0.4,0.4,0.8,0.6,1.2c0.1-0.1,0.2-0.2,0.3-0.2c0.1-0.2,0.1-0.3,0-0.4l0.1,0.2
							c0.5-0.5,0.7-1,0.6-1.3l-0.5-0.9c0,0.1-0.1,0.1-0.1,0.2C1175.1,163.8,1174.8,164.2,1174.3,164.7z"/>
						<path class="st31" d="M1175.1,165.6c0,0.1-0.1,0.2-0.2,0.3c0.1,0.3,0.3,0.6,0.4,0.9c0.3-0.3,0.4-0.6,0.3-0.8l-0.3-0.6
							l-0.1-0.2C1175.2,165.3,1175.2,165.4,1175.1,165.6z"/>
						<path class="st32" d="M1172.6,161.4c0.3,0.6,0.7,1.2,1,1.8c0.9-0.8,1.5-1.6,1.4-2c-0.4-0.7-0.8-1.6-1.4-2.6
							c-2.3-4.1-4.9-6.9-7.1-8.7c-0.4,0.4-0.8,0.7-1.3,1.1C1167.6,153.6,1170.2,157.2,1172.6,161.4z"/>
						<path class="st33" d="M1166.5,149.9c-2.7-2.2-4.8-2.9-5.3-2.6c-0.1,0-0.1,0.1-0.2,0.2c1.2,0.7,2.7,1.9,4.2,3.5
							C1165.6,150.6,1166.1,150.3,1166.5,149.9z"/>
						<path class="st31" d="M1173.6,163.2c0.2,0.4,0.5,0.9,0.7,1.3c0.4-0.3,0.7-0.7,1-1c0.1-0.1,0.1-0.1,0.1-0.2
							c0.2-0.3,0.3-0.5,0.3-0.7c0,0,0,0,0,0c0-0.1,0-0.2-0.1-0.2l-0.7-1.3c0,0,0,0.1,0,0.1C1175,161.6,1174.5,162.4,1173.6,163.2z"
							/>
					</g>
				</g>
			</g>
			<g>
				<g>
					<path class="st25" d="M1178.6,164.7c-0.4,2.9-1,8.4,0.4,11.3c2.1,4.6,8.6,7.9,11.6,9c-2.1-2.8-3.1-5-2.6-6.6
						c0.1-0.5,1.1,1.3,2.8,1.6c-0.6-1.9-0.5-2.4-0.5-3.8c0-1.4-0.3-3.9-1.2-5.3c-3-4.6-8.2-6.4-9.3-6.8L1178.6,164.7z"/>
					<path class="st26" d="M1178.6,164.7c-0.3,1.2-0.4,5.7,0.8,7.7c1.2,2,5.8,4.1,8,6.2c-0.5-2.2-1.1-2.9-0.8-4.8
						c0.2-1.9,0.2-2.1-0.1-3.1c-0.3-1-2.2-3.1-4.1-4.7c-2-1.7-2.5-1.9-2.5-1.9L1178.6,164.7z"/>
					<path class="st27" d="M1178.6,164.7c-0.1,1.5,0.3,5.6,1.6,6.6c1.3,1.1,2.3,0.7,4.5,2.3c0-0.9-1.3-2.3-0.9-3.2
						c0.5,0.5,0.7,0.8,1.4,1c-0.6-0.8-0.6-1.8-1.1-2.9c-0.6-1.3-1.9-2.1-2.9-2.9c-1-0.9-1.4-1.6-1.4-1.6L1178.6,164.7z"/>
				</g>
				<g>
					<path class="st28" d="M1179.4,165.3c-2.2,1.2-4.2,1.7-4.5,1.1l0.6,1.1c0.3,0.6,2.4,0.1,4.5-1.1c2.2-1.2,3.6-2.7,3.3-3.3
						l-0.6-1.1C1183,162.6,1181.5,164.1,1179.4,165.3z"/>
					<path class="st28" d="M1180.1,166.6c-1.6,0.9-3.2,1.3-3.4,0.8l0.5,0.8c0.3,0.5,1.8,0.1,3.4-0.8c1.6-0.9,2.7-2,2.5-2.5l-0.5-0.8
						C1182.9,164.6,1181.7,165.7,1180.1,166.6z"/>
					<g>
						<path class="st29" d="M1168,152.1c0.4,2.7,1.5,6.3,3.9,10.5c1.3,2.2,2.2,3.9,2.2,3.9s3.3-0.6,5-1.6c1.7-1,4-3.4,4-3.4
							s-0.9-1.7-2.2-4c-2.3-4.1-4.9-6.9-7.1-8.7c-0.7,0.7-1.6,1.4-2.7,2C1170.1,151.4,1169,151.8,1168,152.1z"/>
						<path class="st30" d="M1168.6,146.2c-0.5,0.3-1.1,2.4-0.6,5.9c1-0.3,2.1-0.7,3.2-1.3c1.1-0.6,2-1.3,2.7-2
							C1171.2,146.6,1169.1,145.9,1168.6,146.2z"/>
					</g>
					<path class="st28" d="M1178.5,163.8c-2.5,1.4-4.9,2-5.3,1.3l0.7,1.3c0.4,0.7,2.8,0.1,5.3-1.3c2.5-1.4,4.2-3.1,3.8-3.8l-0.7-1.3
						C1182.7,160.7,1181,162.4,1178.5,163.8z"/>
				</g>
				<g>
					<path class="st14" d="M1182.7,162.4c-0.2,0.3-0.6,0.6-1,1c0,0.1,0.1,0.1,0.1,0.2C1182.2,163.2,1182.6,162.7,1182.7,162.4z"/>
					<path class="st14" d="M1182.6,164.5c-0.1,0.1-0.2,0.2-0.3,0.2c0,0,0,0.1,0,0.1C1182.5,164.7,1182.5,164.6,1182.6,164.5z"/>
					<path class="st29" d="M1183.1,161.5C1183.1,161.5,1183.1,161.5,1183.1,161.5C1183.1,161.5,1183.1,161.5,1183.1,161.5
						C1183.1,161.5,1183.1,161.5,1183.1,161.5z"/>
					<g>
						<path class="st31" d="M1181.8,163.6c0.2,0.4,0.4,0.8,0.6,1.2c0.1-0.1,0.2-0.2,0.3-0.2c0.1-0.2,0.1-0.3,0-0.4l0.1,0.2
							c0.5-0.5,0.7-1,0.6-1.3l-0.5-0.9c0,0.1-0.1,0.1-0.1,0.2C1182.6,162.7,1182.2,163.2,1181.8,163.6z"/>
						<path class="st31" d="M1182.6,164.5c0,0.1-0.1,0.2-0.2,0.3c0.1,0.3,0.3,0.6,0.4,0.9c0.3-0.3,0.4-0.6,0.3-0.8l-0.3-0.6
							l-0.1-0.2C1182.7,164.2,1182.7,164.4,1182.6,164.5z"/>
						<path class="st32" d="M1180,160.3c0.3,0.6,0.7,1.2,1,1.8c0.9-0.8,1.5-1.6,1.4-2c-0.4-0.7-0.8-1.6-1.4-2.6
							c-2.3-4.1-4.9-6.9-7.1-8.7c-0.4,0.4-0.8,0.7-1.3,1.1C1175,152.5,1177.7,156.1,1180,160.3z"/>
						<path class="st33" d="M1173.9,148.8c-2.7-2.2-4.8-2.9-5.3-2.6c-0.1,0-0.1,0.1-0.2,0.2c1.2,0.7,2.7,1.9,4.2,3.5
							C1173.1,149.5,1173.5,149.2,1173.9,148.8z"/>
						<path class="st31" d="M1181,162.1c0.2,0.4,0.5,0.9,0.7,1.3c0.4-0.3,0.7-0.7,1-1c0.1-0.1,0.1-0.1,0.1-0.2
							c0.2-0.3,0.3-0.5,0.3-0.7c0,0,0,0,0,0c0-0.1,0-0.2-0.1-0.2l-0.7-1.3c0,0,0,0.1,0,0.1C1182.5,160.5,1182,161.3,1181,162.1z"/>
					</g>
				</g>
			</g>
			<g>
				<path class="st34" d="M1138.1,142.1c-0.7-1.1-2.5-3.2-4.8-1.3c-2.2,2,1.3,4.3,1.3,4.3L1138.1,142.1z"/>
			</g>
			<path class="st35" d="M1165.6,170.3c-0.3-0.2-1.5,4.1-1.5,4.1c0.5,0,1.3-0.2,1.9-0.4c-0.1,0.4-0.2,0.8-0.3,1.2
				c-0.5,2.4,0.1,4.5,1.4,4.8c0.9,0.2,1.2-2,1.6-4.2c0.2-1.1,0.5-2.1,0.7-2.9l0,0l0.3-1.4c0,0-0.4-0.6-2.4-0.2
				C1166.8,171.4,1165.9,170.4,1165.6,170.3z M1169.3,171.6L1169.3,171.6L1169.3,171.6L1169.3,171.6z"/>
			<g>
				<path class="st36" d="M1170.7,163.9c1.9,0.1,2.7,0.4,3.3,0.8c0.4,0.4,0.7,0.7,1,1.1c0.6,0.8,1.2,1.5,1.7,2.3
					c0.5,0.8,0.8,1.6,1.1,2.4c0.2,0.4,0.3,0.8,0.4,1.2c0,0.2,0.2,0.4,0.1,0.6c-0.1,0.2-0.5,0.5-1.4,0.9l-20.9,3.3
					c-1.1,0-1.5-0.2-1.6-0.4c-0.1-0.2,0-0.4-0.1-0.6c0-0.4,0-0.9,0-1.3c0-0.9,0.1-1.7,0.3-2.6c0.2-0.9,0.5-1.8,0.9-2.7
					c0.2-0.5,0.4-0.9,0.6-1.4c0.4-0.5,1.1-1,2.9-1.7L1170.7,163.9z"/>
			</g>
			<path class="st34" d="M1172.8,169.5c-0.3,0.1,1.2,2.5,1.2,2.5c0.8,0,1.3,0,1.8-0.4c0.2,0.3,0.4,0.7,0.6,1c1.4,2,3.4,3,4.5,2.2
				c0.7-0.5-0.7-2.2-2-4c-0.7-0.9-1.2-1.8-1.7-2.5l0,0l-0.8-1.1c0,0-0.7-0.1-1.7,1.6C1174.5,169.3,1173.2,169.4,1172.8,169.5z
				 M1176.3,167.7L1176.3,167.7L1176.3,167.7L1176.3,167.7z"/>
			<g>
				<path class="st37" d="M1174.7,159.8c1.8-0.7,2.7-0.8,3.3-0.7c0.5,0.2,0.9,0.4,1.4,0.6c0.9,0.4,1.7,0.9,2.5,1.4
					c0.7,0.5,1.4,1.1,2,1.7c0.3,0.3,0.6,0.6,0.9,0.9c0.1,0.2,0.3,0.3,0.4,0.5c0,0.2-0.2,0.6-0.9,1.4l-17.5,11.8
					c-1,0.4-1.4,0.5-1.7,0.4c-0.2-0.1-0.2-0.4-0.3-0.5c-0.2-0.4-0.4-0.8-0.5-1.2c-0.3-0.8-0.6-1.6-0.8-2.5c-0.2-0.9-0.3-1.8-0.4-2.8
					c0-0.5,0-1,0-1.5c0.2-0.6,0.6-1.4,1.9-2.8L1174.7,159.8z"/>
			</g>
			<g>
				<path class="st37" d="M1158.6,156.9c0.1,1.4,0,1.8-0.1,2.1c-0.1,0.3-0.3,0.6-0.4,0.9c-0.3,0.5-0.7,0.9-1.1,1.2
					c-0.4,0.3-0.8,0.5-1.2,0.6c-0.4,0.1-0.8,0.2-1.3,0.2l-2.4,0c-0.8-0.1-1.5-0.1-2.3-0.2c-3.1-0.5-5.9-1.4-8.5-2.6
					c-2.6-1.3-5-2.8-7-4.8c-1-1-2-2.1-2.9-3.3c-0.5-0.6-1-1.2-1.1-2.2c0-0.2-0.1-0.5-0.1-0.7c0-0.2,0-0.5,0-0.8
					c0-0.3,0.2-0.7,0.4-1.1l0.4-0.6c0-0.1,0.1-0.1,0.1-0.2l0.3-0.2l0.1-0.1l0.2-0.1l0.3-0.2c0.1-0.1,0.2-0.1,0.4-0.2l0.5-0.3
					l5.4-2.6l1.6-0.7l0.3-0.1l0.2-0.1l0.7-0.2l0.8-0.3c0.3-0.1,0.7-0.1,0.9-0.1c0.5,0,0.7,0.4,1,0.6c0.6,0.6,1.2,1.2,1.9,1.9
					c1.3,1.3,2.6,2.8,3.9,4.1c1.3,1.4,2.6,2.7,4,3.8l1,0.8c0.3,0.2,0.7,0.4,1.1,0.6c0.2,0.1,0.3,0.1,0.5,0.3
					c0.2,0.2,0.4,0.4,0.6,0.7c0.2,0.2,0.4,0.6,0.7,1c0.1,0.2,0.3,0.5,0.4,0.8C1158,155.1,1158.2,155.5,1158.6,156.9L1158.6,156.9z"
					/>
			</g>
			
				<ellipse transform="matrix(0.9042 -0.4272 0.4272 0.9042 48.3971 508.7343)" class="st38" cx="1158.1" cy="146.5" rx="9.5" ry="9.5"/>
			<path class="st38" d="M1157.6,169.2l1.2,2.5c1.2,2.5,5.7,0.7,11.1-1.9c4.7-2.2,10.3-4.6,8.7-8.1l0,0c-3.7-9.4-9.8-15.9-17.7-12.1
				l0,0c-7.8,3.7-7.4,10.1-4.8,16.5c0,0,0,0.1,0,0.1l0.2,0.4C1156.7,167.5,1157.1,168.3,1157.6,169.2z"/>
			<path class="st39" d="M1157.1,161.2c0.9-0.6,1.2-2.1,2.3-3.2c1.5-1.5,1.5-3.3,1.6-2.5c0.1,0.8,0.8,1,0.8,0.9c0-0.1-0.2,0.2-0.3-1
				c-0.2-1.2,1.1-2.1,1.6-4.4c0.1-0.6,0.3-1.8,0.3-2.5c0.2,0.3,0.3,0.6,0.4,0.9c0.2-7.3-3.4-10.6-3.8-10.7c0.2,0,0.7,0,1.2,0.3
				c-1.4-1.9-2.9-1.8-3.1-1.8c0.2-0.3,0.7-0.5,1-0.5c-0.9-0.8-1.7-1.2-2.8-1c-0.6,0.1-0.8,0.8-0.8,0.8c0.1-0.5-0.3-1.9-1.9-2.1
				c1.3,2,0.9,1.7,0.8,1.8c0,0.1-1.4-0.8-2.5-0.6c0.3,0.1,0.6,0.3,0.7,0.5c-1.2-0.2-2.6-0.6-4.5,1.5c0.9-0.2,1.3,0,1.7,0.1
				c-0.3,0.2-3.8,2.4-3.9,7c0.2-0.1,1-1,1.1-0.9c-0.6,0.7-2.4,3.2,0.8,10.4c0-0.4,0-1.4,0.2-1.4c-0.1,0.8,1,2.7,3.4,4.1
				C1154.9,158.7,1156.5,159.8,1157.1,161.2z"/>
			<path class="st34" d="M1148.8,148.4c-0.8-3.6,0.7-7,3.3-7.6c2.6-0.6,5.3,1.8,6.1,5.4c0.5,2.1,0.2,4.1-0.6,5.6
				c-0.9,1.6-1.6,3-1.4,4.4c-0.9-1.8-2.3-2.1-4.1-3.1C1150.6,152.3,1149.3,150.5,1148.8,148.4z"/>
			<g>
				<path class="st40" d="M1148.6,147.4c0.5,3.5,2.8,6.2,5.5,5.8c2.7-0.4,5.1-3.8,4.5-7.4c-0.5-3.5-3.2-6-5.9-5.6
					C1150.1,140.6,1148,143.9,1148.6,147.4z"/>
				<g>
					<path class="st41" d="M1151.9,146.1c-0.3-0.1-0.7-0.2-1-0.2c-0.3,0-0.7,0-1.1,0.1c0.2-0.3,0.6-0.5,1-0.6
						c0.4-0.1,0.7-0.2,1.2-0.3L1151.9,146.1z"/>
				</g>
				<g>
					<path class="st41" d="M1153.2,144.9c0.4-0.1,0.8-0.1,1.2-0.1c0.4,0,0.8,0.1,1.1,0.3c-0.4,0-0.7,0.1-1.1,0.2
						c-0.3,0.1-0.6,0.3-0.9,0.5L1153.2,144.9z"/>
				</g>
				<g>
					<polygon class="st42" points="1153.6,145.8 1154.7,145.8 1153.8,146.5 					"/>
				</g>
				<g>
					<path class="st42" d="M1151.9,146.7c-0.4-0.2-0.8-0.4-1.3-0.5c0.5-0.1,0.9-0.1,1.4-0.2L1151.9,146.7z"/>
				</g>
				<g>
					<path class="st43" d="M1153.9,147.4c0.3,0.3,0.3,0.8,0.1,1.2c-0.2,0.4-0.7,0.6-1.1,0.7c-0.4,0.1-1-0.1-1.2-0.5
						c-0.3-0.4-0.3-0.8-0.1-1.2c0,0.4,0.3,0.6,0.5,0.8c0.2,0.2,0.5,0.2,0.8,0.2c0.3,0,0.6-0.1,0.8-0.3
						C1153.8,148.1,1154,147.8,1153.9,147.4z"/>
				</g>
				<g>
					<path class="st42" d="M1154.7,150.1c0.3,0.3,0.3,0.7,0.1,1.1c-0.1,0.2-0.2,0.4-0.4,0.4c-0.2,0.1-0.4,0.1-0.6,0.1
						c-0.4,0-0.7-0.1-1-0.3c-0.3-0.2-0.5-0.4-0.6-0.7c0.3,0.1,0.5,0.1,0.7,0c0.2-0.1,0.4-0.1,0.6-0.3c0.1-0.1,0.1-0.1,0.2-0.2
						c0.1,0,0.1,0,0.2,0C1154.2,150.4,1154.5,150.4,1154.7,150.1z"/>
				</g>
				<path class="st44" d="M1153.7,140.2c-0.6-0.1-1.4,0.1-2.1,0.3c-1.7,0.7-2.6,2.8-2.8,3.4c0.4-0.3,1-0.4,1.5-0.2
					c0.1,0,0.2,0.1,0.3,0.1l0.5-1.8l0.4,2c3,0.6,5.7-2.3,6.6-0.1C1157.2,141.8,1155.5,140.3,1153.7,140.2"/>
			</g>
			<g>
				<g>
					<path class="st34" d="M1183.4,158.8c1.2,0,3.9-0.4,3.5-3.2c-0.4-2.8-1.5-1.6-2-1.3c-1.1,0.5-2,0.2-2,0.2L1183.4,158.8z"/>
				</g>
				<g>
					<path class="st37" d="M1165.4,152.3l0.5-0.7l0.4-0.5c0.2-0.2,0.4-0.4,0.4-0.5l0.7-0.6c0.4-0.3,0.7-0.5,1-0.7
						c0.3-0.1,0.6-0.3,0.8-0.3c0.2-0.1,0.4-0.1,0.6,0c0.4,0.1,0.7,0.1,1.1,0.1c0.4,0,0.7,0,1.1,0c1.4,0,2.8-0.3,4-0.4
						c1.2-0.1,2.4-0.4,3.6-0.4c0.6,0,1.2,0,1.8,0.1c0.3,0,0.6-0.1,1,0.3c0.2,0.2,0.4,0.4,0.6,0.8c0.1,0.1,0.1,0.2,0.2,0.3l0.2,0.5
						l0.2,0.7c0,0.1,0,0.1,0.1,0.2l0.1,0.5l0.1,0.5l0.2,1l0.8,5.9l0.1,0.6l0,0.3l0,0.2l0,0.5l0,0.5c0,0.1,0,0.1,0,0.2l-0.1,0.7
						l-0.1,0.5c0,0.2-0.1,0.2-0.1,0.4c-0.2,0.4-0.4,0.7-0.7,0.9c-0.5,0.5-1,0.5-1.5,0.5c-1,0.1-2.1,0.2-3.2,0.2
						c-2.1-0.1-4.3-0.6-6.2-1.5c-2-0.8-3.8-2-5.4-3.3c-0.8-0.6-1.6-1.3-2.3-2c-0.4-0.3-0.7-0.8-0.8-1.5c-0.1-0.3-0.1-0.8-0.1-1.3
						c0-0.3,0.1-0.6,0.1-0.9c0-0.1,0.1-0.4,0.2-0.6l0.2-0.6L1165.4,152.3L1165.4,152.3z"/>
				</g>
			</g>
		</g>
		<path class="st45" d="M1133.8,144.4c0,0.2-0.1,0.3-0.1,0.5c0,0.2,0,0.4,0.1,0.7c0.1,0.5,0.3,1,0.7,1.5c0.3,0.5,0.8,1,1.2,1.6
			c0.2,0.3,0.5,0.6,0.7,0.9c0.3,0.3,0.5,0.6,0.8,0.9c0.6,0.6,1.2,1.2,1.9,1.8c0.7,0.6,1.4,1.1,2.2,1.7c0.8,0.5,1.6,1.1,2.4,1.5
			c0.8,0.5,1.7,0.9,2.5,1.3c0.4,0.2,0.9,0.4,1.3,0.6c0.4,0.2,0.9,0.3,1.3,0.5c0.9,0.3,1.7,0.5,2.6,0.7c0.4,0.1,0.8,0.2,1.2,0.2
			c0.4,0.1,0.8,0.1,1.2,0.2c0.2,0,0.4,0,0.6,0c0,2.3,0.7,4.8,1.7,7.3c0,0,0,0.1,0,0.1l0.2,0.4c0.4,0.8,0.8,1.7,1.2,2.6l1.2,2.5
			c0.5,1,1.4,1.3,2.8,1.2c0,0.4,0.1,0.8,0.1,1.1c0,0.2,0,0.5,0.1,0.6c0,0.2,0.1,0.4,0.2,0.5c0.1,0.1,0.3,0.2,0.4,0.3
			c0.1,0.1,0.2,0.1,0.2,0.1l3.3-0.5c0,0,0,0.1,0,0.1c-0.5,2.4,0.1,4.5,1.4,4.8c0.9,0.2,1.2-2,1.6-4.2c0.1-0.4,0.2-0.8,0.3-1.2
			l1.6-0.3c0,0,0.1-0.1,0.2-0.1c0,0,0,0,0.1-0.1c0.1,1.2,0.4,2.2,0.8,3.1c2.1,4.6,8.6,7.9,11.6,9c-2.1-2.8-3.1-5-2.6-6.6
			c0.1-0.5,1.1,1.3,2.8,1.6c0-0.1,0-0.1-0.1-0.2c2.6,2,5.6,3.5,7.3,4.1c-2.1-2.8-3.1-5-2.6-6.6c0.1-0.5,1.1,1.3,2.8,1.6
			c-0.6-1.9-0.5-2.4-0.5-3.8c0-1.4-0.3-3.9-1.2-5.3c-1.7-2.6-4.1-4.3-6-5.4c0.1-0.2,0.2-0.4,0.1-0.5l-0.3-0.6c0.5-0.5,0.7-1,0.6-1.3
			l-0.5-0.9c0.2-0.3,0.3-0.5,0.3-0.7c0,0,0,0,0,0s0,0,0,0c0-0.1,0-0.2-0.1-0.2l-0.7-1.3c0,0,0,0.1,0,0.1l0-0.1
			c-0.1-0.1-0.1-0.3-0.2-0.4c0.2,0,0.4,0,0.6-0.1c0.4-0.1,0.8-0.2,1-0.4c0.1-0.1,0.3-0.2,0.4-0.3c0,0,0,0,0-0.1
			c1.3-0.2,3.1-0.8,2.7-3.2c-0.4-2.8-1.5-1.6-2-1.3c-0.3,0.1-0.6,0.2-0.8,0.3c-0.1-0.3-0.1-0.3-0.2-0.4c-0.1-0.1-0.2-0.3-0.3-0.3
			c-0.1-0.1-0.2-0.1-0.4-0.2c-0.3-0.1-0.6-0.2-0.9-0.2c-0.3,0-0.7,0-1.1,0c-0.4,0-0.9,0-1.3,0c-0.5,0-1,0-1.5,0c0,0,0,0-0.1,0
			c-1.5-1.9-3-3.4-4.3-4.5c-2.7-2.2-4.8-2.9-5.3-2.6c0,0,0,0,0,0c0,0,0,0,0,0c-0.3,0.2-0.7,1.2-0.8,2.8c-0.2,0-0.3-0.1-0.5-0.1
			c0.5-2.1,0.4-4.3-0.6-6.4c-1.6-3.4-5-5.4-8.6-5.5c0.2-0.2,0.6-0.3,0.9-0.3c-0.9-0.8-1.7-1.2-2.8-1c-0.6,0.1-0.8,0.8-0.8,0.8
			c0.1-0.5-0.3-1.9-1.9-2.1c1.3,2,0.9,1.7,0.8,1.8c0,0.1-1.4-0.8-2.5-0.6c0.3,0.1,0.6,0.3,0.7,0.5c-1.2-0.2-2.6-0.6-4.5,1.5
			c0.9-0.2,1.3,0,1.7,0.1c-0.3,0.2-3.8,2.4-3.9,7c0.2-0.1,1-1,1.1-0.9c-0.4,0.6-1.7,2.3-0.6,6.5c-0.5-0.4-0.9-0.7-1.3-1.1
			c-0.6-0.5-1.2-1.1-1.7-1.6c-0.5-0.5-1.1-1-1.6-1.5c-0.5-0.5-0.9-1-1.3-1.4c-0.4-0.4-0.7-0.9-1-1.2c-0.3-0.4-0.6-0.6-0.9-0.8
			c-0.2-0.1-0.3-0.2-0.4-0.2c-0.1,0-0.2,0-0.3-0.1l0.2-0.2c-0.7-1.1-2.5-3.2-4.8-1.3C1131.9,142.1,1133,143.5,1133.8,144.4z
			 M1180.7,164.4c-0.1,0-0.2-0.1-0.3-0.1c0.4-0.3,0.9-0.6,1.2-0.9c0,0,0,0,0,0c0,0.1,0.1,0.1,0.1,0.2
			C1181.5,163.9,1181.1,164.1,1180.7,164.4z M1177.3,166c0.4-0.2,0.8-0.3,1.2-0.5c0,0,0,0.1,0,0.1c0,0.1,0,0.1,0,0.2
			c-0.3,0.2-0.7,0.3-1,0.4C1177.4,166.2,1177.3,166.1,1177.3,166z M1178.3,167.2C1178.3,167.2,1178.3,167.3,1178.3,167.2
			C1178.3,167.3,1178.3,167.3,1178.3,167.2C1178.3,167.2,1178.3,167.2,1178.3,167.2z M1182.2,165.1c0,0-0.1,0-0.1-0.1
			c0.1-0.1,0.2-0.2,0.3-0.3c0,0,0,0,0,0c0,0,0,0.1,0,0.1C1182.3,164.9,1182.3,165,1182.2,165.1z"/>
	</g>
</g>
</svg>
