<svg id="Capa_1" xmlns="http://www.w3.org/2000/svg" viewBox="0 0 438.54 438.54"><title>Linked in</title><path fill="#0077B5" d="M414.41,24.12Q390.29,0,356.32,0H82.23q-34,0-58.1,24.12T0,82.22V356.31q0,34,24.13,58.1t58.1,24.13H356.31q34,0,58.1-24.13t24.12-58.1V82.22Q438.53,48.26,414.41,24.12Zm-280.79,343H67.67V169h66V367.16Zm-6-234.83q-10.27,9.85-27.13,9.85h-.29q-16.26,0-26.4-9.85a32.67,32.67,0,0,1-10.14-24.41q0-14.85,10.42-24.55t27-9.71q16.56,0,26.55,9.71t10.28,24.55A32.47,32.47,0,0,1,127.63,132.33ZM370.87,367.16H304.92V261.24q0-44.82-33.12-44.83-12.56,0-21.12,7a43.85,43.85,0,0,0-12.85,17q-2,5.13-2,16V367.16h-66q.85-179.3,0-198.15h66v28q20.8-32.52,59.1-32.55,34.26,0,55.11,22.56t20.84,66.52V367.16Z"/></svg>
