<?xml version="1.0" encoding="utf-8"?>
<!-- Generator: Adobe Illustrator 22.1.0, SVG Export Plug-In . SVG Version: 6.00 Build 0)  -->
<svg version="1.1" id="Layer_1" xmlns="http://www.w3.org/2000/svg" xmlns:xlink="http://www.w3.org/1999/xlink" x="0px" y="0px"
	 viewBox="0 0 39 830.8" style="enable-background:new 0 0 39 830.8;" xml:space="preserve">
<style type="text/css">
	.st0{fill:#FFFFFF;}
</style>
<g>
	<circle class="st0" cx="4.8" cy="4.9" r="4.7"/>
</g>
<g>
	<g>
		<polyline class="st0" points="2.6,5.6 6.2,4 21.2,40 21.3,40.2 28.8,76.8 6.4,112.7 17.1,148 14.4,184.2 14.3,219.7 26.2,255.6 
			26.2,256 22.6,292.2 22.4,292.5 7.1,327.9 13,363.2 19.5,399.1 18.4,434.8 35.9,470.5 35.9,470.9 37.3,507.1 26.2,543.1 27,578.4 
			34.1,614.6 22.6,651 10,686 37.5,721.7 27.9,758.6 16.1,793.7 39,828.6 35.6,830.8 11.7,794.3 24.1,757.4 33.1,722.5 5.4,686.8 
			18.8,649.7 29.9,614.4 23,578.8 22.2,542.5 33.3,506.5 31.9,471.5 14.4,435.6 15.5,399.4 9,363.9 2.9,327.3 18.6,291.2 22.2,256 
			10.3,220.3 10.4,184 13.1,148.4 2,112.1 24.6,76 17.4,41.2 2.6,5.6 		"/>
	</g>
</g>
</svg>
