<svg id="Layer_1" xmlns="http://www.w3.org/2000/svg" viewBox="0 0 39 830.8"><style>.st0{fill:#fff}</style><circle class="st0" cx="4.8" cy="4.9" r="4.7"/><path class="st0" d="M2.6 5.6L6.2 4l15 36 .1.2 7.5 36.6-22.4 35.9L17.1 148l-2.7 36.2-.1 35.5 11.9 35.9v.4l-3.6 36.2-.2.3-15.3 35.4 5.9 35.3 6.5 35.9-1.1 35.7 17.5 35.7v.4l1.4 36.2-11.1 36 .8 35.3 7.1 36.2L22.6 651 10 686l27.5 35.7-9.6 36.9-11.8 35.1L39 828.6l-3.4 2.2-23.9-36.5 12.4-36.9 9-34.9-27.7-35.7 13.4-37.1 11.1-35.3-6.9-35.6-.8-36.3 11.1-36-1.4-35-17.5-35.9 1.1-36.2L9 363.9l-6.1-36.6 15.7-36.1 3.6-35.2-11.9-35.7.1-36.3 2.7-35.6L2 112.1 24.6 76l-7.2-34.8L2.6 5.6"/></svg>