<svg version="1.1" id="Layer_1" xmlns="http://www.w3.org/2000/svg" xmlns:xlink="http://www.w3.org/1999/xlink" x="0px" y="0px"
	 viewBox="0 0 39 830.8" style="enable-background:new 0 0 39 830.8;" xml:space="preserve">
<style type="text/css">
	.st0{fill:#FFFFFF;}
</style>
<circle class="st0" cx="7.6" cy="8" r="4.5"/>
<polygon class="st0" points="9.1,9.1 27.5,44.8 27.7,45 27.6,45.3 23.1,81 23.1,81.1 23.1,81.2 10.3,117 10.2,116.3 29.1,151.9 
	29.3,152.2 29.2,152.4 21.9,188.2 21.9,188 24,223.6 24,223.8 23.9,224 7.4,259.8 7.5,259.3 19.4,294.9 19.5,295 19.5,295.2 
	16.8,330.9 16.8,330.8 21,366.4 21,366.5 21,366.5 21.7,402.2 21.7,402.2 21.7,402.3 16.1,438 16,437.7 35.2,473.3 35.3,473.4 
	35.2,473.6 30.9,509.3 30.9,509.4 30.9,509.5 7.8,545.3 7.9,545 20.9,580.6 21,580.7 20.9,580.8 10.1,616.5 10.1,616.4 11.3,652.1 
	11.3,652.1 20.7,687.8 20.7,687.8 20.7,687.9 9.9,723.6 9.9,723.5 19,759.2 19,759.2 19,759.2 24.1,794.9 24.1,794.9 24.1,794.9 
	10.9,830.7 24,794.9 24,794.9 18.8,759.2 18.8,759.2 9.6,723.6 9.6,723.6 9.6,723.5 20.4,687.8 20.4,687.8 10.9,652.2 10.9,652.2 
	10.9,652.2 9.6,616.5 9.6,616.4 9.6,616.4 20.4,580.6 20.4,580.8 7.2,545.2 7.2,545 7.2,544.9 30.2,509 30.2,509.2 34.4,473.5 
	34.4,473.7 15.2,438.2 15.1,438 15.2,437.9 20.7,402.1 20.6,402.2 19.8,366.5 19.9,366.6 15.6,330.9 15.6,330.8 15.6,330.8 
	18.2,295.1 18.2,295.3 6.2,259.7 6.1,259.4 6.2,259.2 22.6,223.4 22.5,223.7 20.3,188.1 20.3,188 20.4,187.9 27.6,152.1 27.7,152.7 
	8.7,117.1 8.5,116.7 8.7,116.4 21.4,80.6 21.3,80.8 25.8,45.1 25.9,45.6 7.3,10.1 "/>
</svg>
