<svg xmlns="http://www.w3.org/2000/svg" viewBox="0 0 1827 372.2"><path d="M901.5 335l1-5.5.2 5.5 5 .8-5.1.6-1 5.8-.2-5.8-5-.6zm208.7 8.5l1-5.5.2 5.5 5 .7-5 .6-1.1 5.8-.2-5.8-4.9-.6zm-153-79l1.3-7.3.3 7.3 6.5.9-6.6.8-1.4 7.7-.3-7.7-6.5-.8zM5 329.3l1.1-5.5.1 5.5 5 .7-5 .6-1 5.8-.3-5.8L0 330zm130.2 11.5l1-5.5.2 5.5 5 .7-5.1.6-1 5.8-.2-5.8-4.9-.6zm490.4-198.2l1-5.5.2 5.5 5 .7-5 .6-1.1 5.8-.2-5.8-4.9-.6zM285.3 27.4l1-5.6.2 5.6 5 .7-5.1.5-1 5.9-.2-5.9-5-.5zm1359.6 61.5l-.8 3.1.1-3.2-2.9-.6 3-.1.8-3.4-.1 3.4 2.9.5zM1382.3 365l-1.8 7.2.2-7.3-6.5-1.3 6.7-.4 1.8-7.6-.1 7.7 6.5 1.2zm437.9-151l-1.8 7.2.3-7.3-6.6-1.4 6.7-.4 1.8-7.6-.1 7.7 6.5 1.2zm-334.6 27.7l-.8 3.1.1-3.2-2.9-.6 3-.1.8-3.4-.1 3.4 2.8.5zm-201.8 48.6l.5-1.9v2l1.9.3-2 .1-.5 2.1.1-2.1-1.9-.3zM1389.3 4.1l-.7 3.2.1-3.2-2.9-.6 2.9-.2.8-3.3v3.4l2.8.5zM671.2 2l.6-2-.1 2 1.9.4-1.9.1-.6 2.1.1-2.1-1.9-.4zM408.5 297.4l-.6 3.5-.1-3.5-3.3-.4 3.3-.4.7-3.7.1 3.7 3.2.4zm-376.7-88l-.7 3.5-.1-3.5-3.2-.5 3.3-.3.6-3.7.2 3.7 3.2.3zM1627 335.1l-.9-5-.2 5-4.6.7 4.6.5 1 5.3.2-5.3 4.5-.5zM567.4 348.4l.6 3.1.1-3.1 3-.4-3-.4-.6-3.3-.2 3.3-2.9.4zm230.7-33.6l-.5-1.8.1 1.8-1.7.4 1.7.1.5 1.9v-2l1.6-.3zm-450.5-92.4l-.4-1.8v1.8l-1.7.4 1.8.1.5 1.9-.1-2 1.7-.3z" fill="#fff"/></svg>