<?xml version="1.0" encoding="utf-8"?>
<!-- Generator: Adobe Illustrator 22.1.0, SVG Export Plug-In . SVG Version: 6.00 Build 0)  -->
<svg version="1.1" id="Layer_1" width="1138" height="3540" xmlns="http://www.w3.org/2000/svg" preserveAspectRatio="xMinYMin slice" xmlns:xlink="http://www.w3.org/1999/xlink" x="0px" y="0px"
	 viewBox="0 0 1138 3540" xml:space="preserve">
<style type="text/css">
	.st0{fill:url(#SVGID_1_);}
	.st1{fill:url(#SVGID_2_);}
	.st2{fill:url(#SVGID_3_);}
	.st3{fill:url(#SVGID_4_);}
</style>
<linearGradient id="SVGID_1_" gradientUnits="userSpaceOnUse" x1="562.1605" y1="2851.4531" x2="561.7725" y2="2609.5884" gradientTransform="matrix(1 0 0 -1 0 2936)">
	<stop  offset="0" style="stop-color:#022C41"/>
	<stop  offset="1" style="stop-color:#011E2B;stop-opacity:0"/>
</linearGradient>
<path class="st0" d="M17,82.5C4.4,79.7-2.2,70.1-14,66.3l2.5,234.4c57.2,33.9,138.3,8,204.6,4.1c13.4-0.8,24.7,2.9,37.4,6.5
	c45.1,12.9,89.6,20.1,118.2,9.6c15.6-5.7,53.8-24.7,67.7-16.1c20,12.3,39.1,3.3,64.1,6.5c55.4,7.4,93,19.1,163.8-1.9
	c6.3-1.8,12.2-3,18-3.7c18,6.8,51.5,11.4,89.9,11.4c39.7,0,74.2-4.9,91.6-12.2c5.8-0.9,11-1.8,15.2-2.8c13.9-2.9,44.4,4.5,73.3,6
	c55.5,2.9,139.6-0.6,150.1-1.1c29-0.9,55.6-1.8,55.6-4.9c0.2-7.6-33.7-10.1-89.2-10.1c-8.5,0-46.2-1.8-54.1-1.4
	c-0.2-14.5-12.2-35.5-38.1-46.2c-30.5-12.7-83.5-5.1-83.6-5.2c-4.7-26.8-30.4-50-67.7-47.6c-5,0.4-8.9,1.1-13.6,2.1
	c-12,1.8-18.5,6.1-26.2,13.4c-6.6,4.8-7.9,10.4-11.7,16.6c-4.6,3.1-10.5,5.3-18.5,5.3c-12.3,0-23.9-0.6-35.1-2.9
	c-14-6.3-9.1-19.1-28.9-23.1c-9.7-1.9-19.3,0.6-28.5-0.3c3-4.3,4.9-9.1,5.3-14.1c2.1-24.8-29.9-47.9-71.7-51.6
	c-9.7-0.9-19.1-0.6-27.8,0.6c-7.8-12.2-20-23.2-35.5-30.6c-3.7-1.7-35.3-11.4-39.1-12.7c-0.5-0.7-0.9-1.4-1.3-2.1l0,0
	c0.5-1.6,0.9-3.4,1-5.1c1.8-25.1-44.7-41.7-67.2-44.3c-6.7-0.8-13.4-0.6-19.8-0.5c-0.4-0.3-0.8-0.5-1.1-0.7
	c-9.2-20.5-46.8-38-93.1-41.4c-45.8-3.4-85.4,8.4-97.8,27.1l-1.8,1.5c-2,1.9-4.6,3.3-7.6,4.3c-53.5-3.4-98,13.7-99.7,38.4
	C85.4,77,86.9,82,89.9,86.8c-1.8-0.4-3.8-0.8-5.7-1.2C58.4,80.2,33.9,79.4,17,82.5z"/>
<linearGradient id="SVGID_2_" gradientUnits="userSpaceOnUse" x1="257.8427" y1="1902.3903" x2="258.0208" y2="1736.6902" gradientTransform="matrix(1 0 0 -1 0 2936)">
	<stop  offset="0" style="stop-color:#022C41"/>
	<stop  offset="1" style="stop-color:#011E2B;stop-opacity:0"/>
</linearGradient>
<path class="st1" d="M717,1170.5c0,0-38.6-11.4-64.9-11.4c-7.1,0-14.9,2.1-21.6,0c-2.3-18.5-39.1-33.2-84-33.2
	c-14.9,0-28.8,1.7-41,4.4c-12.4-33.2-33.7-59.8-87-74.1c-41.6-11.1-74.4-1.1-106.1,19.8c-1.7,1-4.6,2.5-5.7,1.9
	c-1.7-0.8-3.2-3.1-3.2-5c-1.1-19.8-12.8-36.3-25.8-50.4c-23.9-25.6-55.5-41.6-95.2-45.8c-84-9.2-122.8,55-136.7,84.4
	c-18.7-6.7-57.6-11.1-77.5-8c-39.1,6.1-67.6,41.2-66,74.3c-8.2-1.7-17-2.7-26-2.7c-37.8,0-69.3,15.8-76.9,37
	c-40.1-0.6-80.2,0.6-119.7,8.4c-5.9,1.3-12.6,1.5-11.8,9c0.6,6.3,5.7,7.8,11.8,9.2c15.8,3.6,31.9,2.7,47.7,4.8
	c60.9,8.2,121.6,4.8,182.7,2.7c18.1-0.6,35.9-7.1,54.2-1.5c17.2,5.5,33.8,5.5,51.5,0c9.7-2.9,17.9-12.6,30-6.9
	c25,11.6,50.2,15.1,77.9,6.7c10.7-3.4,21.4-12,33.6-7.6c13.7,5,28.1,4.6,41.8,7.6c31.9,6.7,63.4,4.4,95.6,0.8
	c18.9-2.1,35.9-14.1,56.7-6.5c16,5.9,71,10.9,89.5,10.5c11.6-0.2,20.8-5.2,31.5-6.5c25.4-2.9,50.4,1.9,75.6,4.2
	c37.2,3.4,74.8,1.3,112.4,1.9c34,0.6,29.2-0.6,62.2-3.8c28.4-0.8,48-0.4,67.8-2.3s57.5-1.8,57.5-10
	C847.6,1174.9,717,1170.5,717,1170.5z"/>
<linearGradient id="SVGID_3_" gradientUnits="userSpaceOnUse" x1="350.2456" y1="199.4901" x2="350.5276" y2="0.6601" gradientTransform="matrix(1 0 0 -1 0 2936)">
	<stop  offset="0" style="stop-color:#022C41"/>
	<stop  offset="1" style="stop-color:#011E2B;stop-opacity:0"/>
</linearGradient>
<path class="st2" d="M666.1,2908.5c-8.5,0-17-6.5-25.2-6.3c-11.3-21.8-32.8-48.2-73.7-48.2c-9.1,0-31,2.4-37.4,9.6
	c-4.7-18.5-35.7-31.7-60.8-21.1c-3.8-9.4-13.7-5.3-15.3-6.1c-11.1-27.6-38-39-55.1-43c-20.4-4.7-54.2-6.9-83.5,6.2
	c0,0-3.1-33.8-8-46.5c-17.8-46.2-75.3-86.1-135.6-86.1c-38.9,0-84.6,28.8-95.7,54.1c-8.2-4-17.6-7-32.9-5
	c-74.1,10.1-63,82.7-64.1,82.6c-15.6-20.8-36.5-33.2-73-30.6c-43,3.2-77.9,51.1-88.9,87.2c0.9,19.4-0.1,38.7-1.7,58.1
	c1-0.1,1.8-0.2,2.8-0.3c3.2-0.4,7,0.3,10.1,1.7c23.2,10,155.3,17.3,180.8,16.4c62.6-2.3,104-16,155.2-3.7c7.6,1.8,37.1,4.3,44.8,3
	c33.7-5.4,82.6-3.9,116.5-3.3c26.1,0.4,85.7,12.5,111.1,4c0.9-0.3,1.7-0.4,2.7-0.6c9.3,2.4,19.9,4,31.2,4.3
	c21.3,0.7,40.1-2.9,52.4-9c38.5,3,88.7,5.9,143.5,5.9c121.4,0,218.5-2.5,219.8-13.4C887,2908.9,787.5,2908.5,666.1,2908.5z"/>
<linearGradient id="SVGID_4_" gradientUnits="userSpaceOnUse" x1="255.1634" y1="1074.9103" x2="254.9294" y2="908.7202" gradientTransform="matrix(1 0 0 -1 0 2936)">
	<stop  offset="0" style="stop-color:#022C41"/>
	<stop  offset="1" style="stop-color:#011E2B;stop-opacity:0"/>
</linearGradient>
<path class="st3" d="M401.9,2009.1c5.6-1.5,11-3.8,11-11.5c0-5.3,3.9-5.9,8.3-5.6c13,1.2,26.1,3,39.1,3.2c32,1.2,64,2.4,96.1,2.1
	c36.2-0.3,72.6-1.5,108.8-3.6c12.5-0.6,25.5-2.4,37.4-8c5.9-2.9,5.9-6.8,0.3-10c-10.7-6.2-23.1-6.2-34.7-8.3
	c-38.2-6.5-77.4-8-115.9-10c-11.9-0.6-24.6,3.2-32.3-11.2c-0.9-1.8-2.1-3.2-2.4-4.7c2.7-3.8,3.9-7.7,3.3-11.5
	c-2.4-12.7-24-19.5-49.2-15.7c-1.2,0-2.7,0-3.9,0c-8.3,0.6-9.8-2.4-8.6-9.4c2.4-13-5.3-21.2-14.5-27.4c-8.3-5.6-17.8-8-28.8-4.4
	c-5.9,2.1-9.8,8.9-16,10c-8-3.6-19.9-4.4-32.9-2.1c-0.9,0.3-1.8,0.3-3,0.6c1.8-3.5,2.7-7.1,2.7-10.9c0.3-18.9-20.5-34.8-46.5-35.7
	c-1.5-0.9-2.7-2.1-3.6-3.8c-0.3-0.6-0.6-0.9-0.9-1.2c-5-15.1-23.7-26.6-46.3-26.9c-22.8-0.6-42.1,10.3-47.4,25.4
	c-0.3,0.3-0.3,0.3-0.6,0.6c-3.3-0.6-6.2-0.9-9.8-0.9c-26.7-0.6-48.6,14.5-49.2,33.7c0,1.5,0,2.7,0.3,3.8c-0.9,2.4-2.4,4.1-3.9,5.6
	c-0.3,0.3-0.3,0.3-0.6,0.6c-11,5-18.4,12.1-18.4,19.2c-2.1,2.1-5.3,2.9-8.6,2.1c-8.6-1.5-16.3,0.3-23.7,3.2
	c-13.9,3.5-23.4,10.6-23.4,19.2c0,5,3.3,10,8.9,13.9c0.3,0.9,0.3,1.5,0.3,2.1c-0.3,0.6-0.9,1.5-1.8,2.1c-5.6,0-11.6,0.3-17.5,1.5
	c-9.8,1.8-18.7,4.7-25.8,8.8c-5.6,0.9-11.3,1.5-17.2,0.6c-8-1.2-11.6-3.8-13.6-9.7C12,1921.1,1,1915.8-12,1915.8
	c-13.9,0-24,8.3-28.2,21.2c-2.1,7.1-6.2,8.9-11.9,8.3c-6.2-0.6-12.2,1.8-18.1,2.4c-14.8,1.5-27.3,11.5-42.1,14.5
	c-6.5-0.6-13.6-1.2-20.8-1.2c-35.3-0.9-63.7,4.7-64,12.4c-0.3,7.7,28.2,14.5,63.4,15.1c11.3,0.3,21.9-0.3,31.4-1.2
	c14.5,0,29.4-1.2,43.9-3.8c15.7-3,27.6-5,40.3,10.3c15.7,19.2,41.2,16.8,63.4,15.4c12.7-0.9,23.1-3,35.6,4.7
	c24,14.8,52.5,14.2,79.8,12.1c12.5-0.9,25.2-3,35.6-10.9c7.4-5.6,14.5-3.5,21.9-1.8c23.1,5.6,46.5,5,69.1-1.8
	c6.5-2.1,12.2-3.8,18.7-2.4C337.6,2017.1,369.9,2016.8,401.9,2009.1z"/>
</svg>
