<?xml version="1.0" encoding="utf-8"?>
<!-- Generator: Adobe Illustrator 22.1.0, SVG Export Plug-In . SVG Version: 6.00 Build 0)  -->
<svg width="1031" height="3235" version="1.1" id="Layer_1" xmlns="http://www.w3.org/2000/svg" preserveAspectRatio="xMaxYMin slice" xmlns:xlink="http://www.w3.org/1999/xlink" x="0px" y="0px"
	 viewBox="0 0 1031 3235" xml:space="preserve">
<style type="text/css">
	.st0{fill:url(#SVGID_1_);}
	.st1{fill:url(#SVGID_2_);}
	.st2{fill:url(#SVGID_3_);}
	.st3{fill:url(#SVGID_4_);}
</style>
<linearGradient id="SVGID_1_" gradientUnits="userSpaceOnUse" x1="756.1601" y1="169.6104" x2="755.981" y2="-0.2898" gradientTransform="matrix(1 0 0 -1 0 2696)">
	<stop  offset="0" style="stop-color:#022C41"/>
	<stop  offset="1" style="stop-color:#011E2B;stop-opacity:0"/>
</linearGradient>
<path class="st0" d="M276,2666.8c0,0,40.4-11.7,67.8-11.7c7.5,0,15.6,2.1,22.6,0c2.4-18.9,40.9-34,87.9-34c15.6,0,30.1,1.7,42.8,4.5
	c13-34.1,35.2-61.4,91-76c43.5-11.4,77.8-1.1,110.9,20.2c1.8,1.1,4.8,2.6,5.9,1.9c1.8-0.9,3.3-3.2,3.3-5.2
	c1.1-20.2,13.4-37.2,27-51.7c25-26.3,58-42.6,99.5-47c87.9-9.5,128.4,56.4,142.9,86.6c19.5-6.9,60.2-11.4,81.1-8.2
	c40.9,6.2,70.7,42.2,69,76.2c8.6-1.7,17.8-2.8,27.2-2.8c39.5,0,72.5,16.1,80.4,37.9c41.9-0.6,83.9,0.7,125.2,8.6
	c6.2,1.3,13.2,1.5,12.3,9.3c-0.7,6.5-5.9,8-12.3,9.5c-16.5,3.7-33.4,2.8-49.9,5c-63.7,8.4-127.2,4.9-191.1,2.8
	c-18.9-0.6-37.6-7.3-56.7-1.5c-18,5.6-35.4,5.6-53.8,0c-10.1-3-18.7-12.9-31.4-7.1c-26.1,11.8-52.5,15.5-81.5,6.9
	c-11.2-3.4-22.4-12.3-35.1-7.8c-14.3,5.2-29.4,4.7-43.7,7.8c-33.4,6.9-66.3,4.5-99.9,0.9c-19.8-2.1-37.6-14.4-59.3-6.7
	c-16.7,6-74.2,11.2-93.6,10.8c-12.1-0.2-21.7-5.4-32.9-6.7c-26.6-3-52.7,1.9-79.1,4.3c-38.9,3.4-78.2,1.3-117.5,1.9
	c-35.6,0.6-30.5-0.6-65-3.9c-29.7-0.9-50.2-0.4-70.9-2.4c-20.6-1.9-60.1-1.8-60.1-10.2C139.4,2671.3,276,2666.8,276,2666.8z"/>
<linearGradient id="SVGID_2_" gradientUnits="userSpaceOnUse" x1="594.7589" y1="1835.4572" x2="594.4719" y2="1633.6602" gradientTransform="matrix(1 0 0 -1 0 2696)">
	<stop  offset="0" style="stop-color:#022C41"/>
	<stop  offset="1" style="stop-color:#011E2B;stop-opacity:0"/>
</linearGradient>
<path class="st1" d="M274.8,1035.1c8.6,0,17.3-6.5,25.6-6.4c11.5-22.2,33.2-48.9,74.7-48.9c9.2,0,31.4,2.4,37.9,9.7
	c4.8-18.8,36.2-32.2,61.6-21.4c3.8-9.5,13.9-5.3,15.5-6.2c11.3-28.1,38.5-39.6,55.9-43.7c20.7-4.8,54.9-7,84.6,6.3
	c0,0,3.2-34.3,8.1-47.2c18-46.8,76.3-87.3,137.4-87.3c39.5,0,85.7,29.3,96.9,54.9c8.3-4,17.8-7.1,33.3-5
	c75.1,10.3,63.8,83.9,64.9,83.8c15.8-21.1,36.9-33.7,74-31c43.6,3.3,78.9,51.9,90.1,88.5c-0.9,19.6,0.1,39.3,1.8,58.9
	c-1-0.1-1.9-0.2-2.8-0.3c-3.3-0.4-7.1,0.3-10.3,1.8c-23.5,10.2-157.3,17.6-183.2,16.6c-63.4-2.3-105.4-16.3-157.3-3.7
	c-7.7,1.9-37.6,4.4-45.4,3.1c-34.1-5.5-83.7-3.9-118-3.4c-26.4,0.4-86.8,12.7-112.6,4c-0.9-0.3-1.7-0.4-2.7-0.6
	c-9.4,2.4-20.1,4-31.6,4.4c-21.5,0.7-40.7-2.9-53.1-9.2c-39,3.1-89.8,6-145.4,6c-123,0-221.3-2.5-222.6-13.7
	C51,1035.5,151.8,1035.1,274.8,1035.1z"/>
<linearGradient id="SVGID_3_" gradientUnits="userSpaceOnUse" x1="709.3531" y1="2643.0933" x2="709.5651" y2="2491.7422" gradientTransform="matrix(1 0 0 -1 0 2696)">
	<stop  offset="0" style="stop-color:#022C41"/>
	<stop  offset="1" style="stop-color:#011E2B;stop-opacity:0"/>
</linearGradient>
<path class="st2" d="M575.5,187.7c-5.1-1.3-10-3.5-10-10.5c0-4.8-3.5-5.4-7.6-5.1c-11.9,1.1-23.8,2.7-35.7,3
	c-29.2,1.1-58.4,2.2-87.7,1.9c-33-0.3-66.3-1.3-99.3-3.2c-11.4-0.5-23.3-2.2-34.1-7.3c-5.4-2.7-5.4-6.2-0.3-9.1
	c9.7-5.6,21.1-5.6,31.7-7.5c34.9-5.9,70.6-7.3,105.8-9.1c10.8-0.5,22.5,3,29.5-10.2c0.8-1.6,1.9-3,2.2-4.3c-2.4-3.5-3.5-7-3-10.5
	c2.2-11.6,21.9-17.7,44.9-14.2c1.1,0,2.4,0,3.5,0c7.6,0.5,8.9-2.2,7.8-8.6c-2.2-11.8,4.9-19.4,13.3-25c7.6-5.1,16.2-7.3,26.2-4
	c5.4,1.9,8.9,8.1,14.6,9.1c7.3-3.2,18.1-4,30-1.9c0.8,0.3,1.6,0.3,2.7,0.5c-1.6-3.2-2.4-6.5-2.4-9.9c-0.3-17.2,18.7-31.7,42.5-32.5
	c1.4-0.8,2.4-1.9,3.2-3.5c0.3-0.5,0.5-0.8,0.8-1.1c4.6-13.7,21.6-24.2,42.2-24.5c20.8-0.5,38.4,9.4,43.3,23.1
	c0.3,0.3,0.3,0.3,0.5,0.5c3-0.5,5.7-0.8,8.9-0.8c24.4-0.5,44.4,13.2,44.9,30.6c0,1.3,0,2.4-0.3,3.5c0.8,2.2,2.2,3.8,3.5,5.1
	c0.3,0.3,0.3,0.3,0.5,0.5c10,4.6,16.8,11,16.8,17.5c1.9,1.9,4.9,2.7,7.8,1.9c7.8-1.3,14.9,0.3,21.6,3c12.7,3.2,21.4,9.7,21.4,17.5
	c0,4.6-3,9.1-8.1,12.6c-0.3,0.8-0.3,1.3-0.3,1.9c0.3,0.5,0.8,1.3,1.6,1.9c5.1,0,10.6,0.3,16,1.3c8.9,1.6,17,4.3,23.5,8.1
	c5.1,0.8,10.3,1.3,15.7,0.5c7.3-1.1,10.6-3.5,12.4-8.9c4.9-12.4,14.9-17.2,26.8-17.2c12.7,0,21.9,7.5,25.7,19.4
	c1.9,6.5,5.7,8.1,10.8,7.5c5.7-0.5,11.1,1.6,16.5,2.2c13.5,1.3,24.9,10.5,38.4,13.2c5.9-0.5,12.4-1.1,18.9-1.1
	c32.2-0.8,58.2,4.3,58.4,11.3c0.3,7-25.7,13.2-57.9,13.7c-10.3,0.3-20-0.3-28.7-1.1c-13.3,0-26.8-1.1-40-3.5
	c-14.3-2.7-25.2-4.6-36.8,9.4c-14.3,17.5-37.6,15.3-57.9,14c-11.6-0.8-21.1-2.7-32.5,4.3c-21.9,13.4-47.9,12.9-72.8,11
	c-11.4-0.8-23-2.7-32.5-9.9c-6.8-5.1-13.3-3.2-20-1.6c-21.1,5.1-42.5,4.6-63-1.6c-6-1.9-11.1-3.5-17-2.2
	C634.2,194.9,604.7,194.7,575.5,187.7z"/>
<linearGradient id="SVGID_4_" gradientUnits="userSpaceOnUse" x1="580.3392" y1="978.9304" x2="580.7292" y2="735.5903" gradientTransform="matrix(1 0 0 -1 0 2696)">
	<stop  offset="0" style="stop-color:#022C41"/>
	<stop  offset="1" style="stop-color:#011E2B;stop-opacity:0"/>
</linearGradient>
<path class="st3" d="M1129.7,1715c12.8-2.8,19.3-12.4,31.3-16.2l-2.5,235.9c-57.6,34.1-139.3,8-206.2,4.1
	c-13.5-0.8-24.9,2.9-37.6,6.6c-45.5,12.9-90.3,20.2-119.2,9.6c-15.7-5.8-54.2-24.8-68.3-16.2c-20.2,12.3-39.4,3.3-64.6,6.6
	c-55.8,7.4-93.7,19.2-165.1-2c-6.4-1.8-12.3-3-18.1-3.7c-18.1,6.9-51.9,11.5-90.6,11.5c-40,0-74.8-4.9-92.4-12.2
	c-5.9-0.9-11.1-1.9-15.3-2.8c-14-2.9-44.7,4.5-73.8,6.1c-56,2.9-140.7-0.6-151.3-1.1c-29.2-0.9-56.1-1.8-56.1-4.9
	c-0.2-7.6,33.9-10.2,89.9-10.2c8.5,0,46.6-1.8,54.5-1.4c0.2-14.6,12.3-35.8,38.4-46.4c30.8-12.7,84.1-5.1,84.2-5.2
	c4.7-26.9,30.6-50.3,68.2-47.9c5,0.4,8.9,1.1,13.7,2.2c12.1,1.8,18.6,6.2,26.4,13.5c6.7,4.8,7.9,10.5,11.8,16.7
	c4.6,3.1,10.6,5.3,18.6,5.3c12.4,0,24.1-0.6,35.4-2.9c14.1-6.4,9.2-19.2,29.1-23.2c9.8-1.9,19.4,0.6,28.7-0.3
	c-3-4.3-4.9-9.1-5.3-14.2c-2.2-25,30.1-48.2,72.3-51.9c9.8-0.9,19.2-0.6,28,0.6c7.8-12.2,20.2-23.3,35.8-30.8
	c3.7-1.8,35.6-11.5,39.4-12.7c0.5-0.7,0.9-1.4,1.3-2.2h0c-0.5-1.6-0.9-3.4-1-5.1c-1.9-25.3,45-41.9,67.7-44.6
	c6.8-0.8,13.5-0.6,20-0.5c0.4-0.3,0.8-0.5,1.1-0.7c9.3-20.6,47.2-38.2,93.8-41.6c46.2-3.4,86.1,8.4,98.5,27.2l1.9,1.5
	c2.1,2,4.6,3.3,7.6,4.3c53.9-3.4,98.7,13.8,100.5,38.6c0.4,5.1-1.1,10.2-4.1,15c1.8-0.4,3.8-0.8,5.8-1.2
	C1088.1,1712.7,1112.8,1711.9,1129.7,1715z"/>
</svg>
