<svg id="Layer_3" data-name="Layer 3" xmlns="http://www.w3.org/2000/svg" viewBox="0 0 251 151"><defs><style>.cls-1{fill:#5e3e21;}.cls-2{fill:#54371d;}.cls-3{fill:#6d3325;}.cls-4{fill:#783a28;}.cls-5{fill:#8f4729;}.cls-6{fill:#dcb680;}.cls-7{fill:#e84c59;}.cls-8{fill:#ee7b5c;}.cls-9{fill:#f9c862;}.cls-10{fill:#062633;}.cls-11{fill:#9f9f9f;}.cls-12{fill:#d3d2d2;}.cls-13{fill:none;}.cls-14{fill:#041d26;}.cls-15{fill:#6e6e6e;}.cls-16{fill:silver;}.cls-17{fill:#abaaaa;}.cls-18{fill:#e1dfe0;}.cls-19{opacity:0.22;}.cls-20{fill:#e2e4e3;}.cls-21{fill:#dedbdb;}.cls-22{fill:#ffda7f;}.cls-23{fill:#756153;}.cls-24{fill:#b4a8a8;}.cls-25{fill:#f3e4e5;}.cls-26{fill:#f0e0e0;}.cls-27{fill:#93b79b;}.cls-28{fill:#abc1bb;}.cls-29{fill:#8ec39e;}.cls-30,.cls-43{fill:#4284af;}.cls-31{fill:#f3d7c4;}.cls-32{fill:#ce6255;}.cls-33{fill:#cca184;}.cls-34{fill:#dd6854;}.cls-35{fill:#ef6982;}.cls-36{fill:#7f9198;}.cls-37{fill:#dfb291;}.cls-38{fill:#f2c5a2;}.cls-39{fill:#5ea192;}.cls-40{fill:#e5d6bb;}.cls-41{fill:#ffe3a6;}.cls-42{opacity:0.13;}.cls-42,.cls-43,.cls-44{isolation:isolate;}.cls-43{opacity:0.64;}.cls-44{opacity:0.11;}.cls-45{fill:#e7d9d9;}</style></defs><title>Ivar</title><path class="cls-1" d="M92.71,96.4c-2.79-.22-3.19.71-3.19.71l.65,1.79h0c.36,1.06,1,2.4,1.48,3.82,1,2.81,1.83,5.73,3,5.3,1.65-.61,2.06-3.62.92-6.73a11.28,11.28,0,0,0-.68-1.5c.82-.26,1.15-.74,1.76-1.74,0,0-1.54-3.55-1.94-3.28S93.26,96.46,92.71,96.4Z"/><path class="cls-2" d="M104.57,100.48c-2.79.35-3,1.35-3,1.35l1,1.62h0c.55,1,1.44,2.14,2.21,3.44,1.56,2.6,2.94,5.25,4,4.6,1.49-.94,1.29-4-.45-6.78a11,11,0,0,0-1-1.33,12.18,12.18,0,0,0,2.61-.38s-3.47-4.85-3.81-4.51S105.06,100.44,104.57,100.48Z"/><path class="cls-3" d="M101.05,87.94a4.15,4.15,0,0,1,.78,1.16,2.83,2.83,0,0,1,.25,1c0,.6-.12,1.19-.12,1.78-.11,1.17-.25,2.33-.44,3.48s-.45,2.28-.72,3.4c-.14.56-.28,1.12-.43,1.67l-.11.42a2,2,0,0,1-.14.41,1.39,1.39,0,0,1-1.06.56l-10.59-3.5A1.35,1.35,0,0,1,88,97.24a.94.94,0,0,1,.13-.41l.16-.4c.21-.54.43-1.07.65-1.6.44-1.07.92-2.1,1.44-3.16s1.12-2.06,1.72-3.06c.36-.5.65-1,1-1.5a2.75,2.75,0,0,1,.75-.65A4.08,4.08,0,0,1,95.13,86Z"/><path class="cls-4" d="M111.35,90.14a3.86,3.86,0,0,1,.93,1,3.1,3.1,0,0,1,.38,1,9.73,9.73,0,0,1,.11,1.78c0,1.18,0,2.34,0,3.51s-.15,2.32-.28,3.46c-.06.57-.13,1.15-.21,1.72V103a2.07,2.07,0,0,1-.08.42,1.41,1.41,0,0,1-1,.69l-11-2.09a1.37,1.37,0,0,1-.65-1,1.16,1.16,0,0,1,.08-.42l.1-.42c.15-.56.29-1.11.45-1.67.29-1.11.62-2.21,1-3.31s.84-2.18,1.31-3.27c.26-.53.48-1.07.76-1.6a2.51,2.51,0,0,1,.7-.75A4.23,4.23,0,0,1,105.2,89Z"/><path class="cls-1" d="M129.86,84.34s1,3.84,1.55,4.51,2.69.31,3.8.1c.84-.16,1.95-2.47,3.28-3.82s.92-2.56-.48-2.91-3.73.9-6.73,1.83Z"/><path class="cls-5" d="M117.48,88.31l.11-.53a.54.54,0,0,0,0-.18c1.37-9.31-.1-17.89-11.63-20.26h0c-11.65-2.4-17.69,8.11-19.51,21.76h0c-1,5.14,7.12,6.46,14.12,7.9,8.08,1.67,14.63,2.54,15.35-1.13l.78-3.76C117,90.75,117.27,89.49,117.48,88.31Z"/><path class="cls-5" d="M119.92,59.41a13,13,0,1,0-8.21,16.46,13,13,0,0,0,8.21-16.46Z"/><path class="cls-6" d="M112.45,77.86c.21-.09,1.26-.21,1.38-.46a8.73,8.73,0,0,1-1,1.27c1.33.13,2.67-1,2.7-.87s-.17.32-.57.86A7.76,7.76,0,0,0,117.49,77c1.88-2.15,1.5-4.15,1.63-5.15a5.6,5.6,0,0,1,0,2c7.4-23.84,2.84-21.93,2.73-22.15.23-.12.56-.52,1-.3-.47-1.39-1.43-1.91-2.16-1.48a1.9,1.9,0,0,1,.53-.78c-.58-.09-1.57,1.28-1.58,1.16s-.34.36.9-2.48c-.94.38-2.69,2-2.75,2.63a1.21,1.21,0,0,0-.74-.15c-.63.13-1,.45-1.63,1.6.18,0,.46-.18.64,0a20,20,0,0,0-2.26,5.52c.37-.44.51-.16.6-.16-.28.25-.81,1.91-3.4,12a16.06,16.06,0,0,0-.53,3.72c0,1.66,0,2.32.4,2.66-.1-.14,0-.37,0-.92A4.62,4.62,0,0,0,112.45,77.86Z"/><path class="cls-4" d="M108.07,77.55c.55-.58.79-.7,1-.76a2.47,2.47,0,0,1,.62-.16,3.14,3.14,0,0,1,1.06,0,5.11,5.11,0,0,1,.94.15,3.58,3.58,0,0,1,.82.32l1.58.69c.53.23,1.06.44,1.58.64a57.81,57.81,0,0,0,6.18,2,44.84,44.84,0,0,0,5.89,1.06c.24,0,.48.09.72.09h.72a13.94,13.94,0,0,0,1.45.08,4.26,4.26,0,0,1,1.46.16,4,4,0,0,1,.79.36,2,2,0,0,1,.43.44l.24.36a.87.87,0,0,1,.14.29v.16l.06.2v.27l.07.32.49,3.29v1a.68.68,0,0,1-.08.31l-.19.41a1.86,1.86,0,0,1-.44.53,6.55,6.55,0,0,1-1,.56,6.19,6.19,0,0,1-2,.31c-.69,0-1.38,0-2.06,0h-1l-1-.13a25.45,25.45,0,0,1-7.68-2.36,38.38,38.38,0,0,1-6.47-4c-1-.74-1.93-1.52-2.87-2.26a4.91,4.91,0,0,1-.67-.61,6.88,6.88,0,0,1-.55-.78,3.13,3.13,0,0,1-.42-1,2.53,2.53,0,0,1-.13-.62,2.05,2.05,0,0,1,.24-1.22Z"/><path class="cls-7" d="M86.78,96.79c.51,1.56,3.48,8.46,1.57,15.78-.6,2.29-2.9,4.91-4.35,6.17a11.42,11.42,0,0,0-3.4,4c-1.29-2-.34-4.62-1-4.28-2.1,1.05-3.5,4.07-4.34,8.79-1.6-4-4.17-13.76-1.49-20.16,1.74-4.14,7.84-8.7,11.16-10.89Z"/><path class="cls-8" d="M86.68,96.81a18.5,18.5,0,0,1,.43,4.33c.19,3.47-.21,7.34-1,8.59a8,8,0,0,1-3.09,3c-2.11,1.46-2.36,2.73-4.11,5.26.1-4.08-2-10.7-1.08-13.84s5.57-7.17,7.1-8Z"/><path class="cls-9" d="M86.73,96.76a11.15,11.15,0,0,0-.27,2.94c0,1.81.4,3.83-.36,5.62-.64,1.54-1.71,2.5-1.93,3.83a4.39,4.39,0,0,1-.29-2.4c-1.35.48-1.49,3.13-2.42,3.93-.46-3.63-1.75-4.37-1.84-6.69s3.72-6.52,5.31-7.79Z"/><path class="cls-10" d="M91.49,97.86l-.55,1.66c-.31.91-3.19.78-6.43-.3s-5.62-2.69-5.32-3.61L79.74,94c-.3.91,2.08,2.53,5.32,3.6S91.17,98.77,91.49,97.86Z"/><path class="cls-10" d="M89.23,99.78,88.82,101c-.23.69-2.4.6-4.84-.22s-4.23-2-4-2.72l.41-1.25c-.24.72,1.56,1.91,4,2.72S89,100.47,89.23,99.78Z"/><path class="cls-11" d="M92.33,75.79a19.07,19.07,0,0,0,4.5.94A42.64,42.64,0,0,1,94.49,92c-1.14,3.45-2.07,5.87-2.07,5.87A29.26,29.26,0,0,1,85.26,97,28.59,28.59,0,0,1,79,93.33s.83-2.48,1.94-5.84a42.68,42.68,0,0,1,7.15-13.71A19,19,0,0,0,92.33,75.79Z"/><path class="cls-12" d="M96.82,76.72a20.11,20.11,0,0,1-8.77-2.94c3.08-3.78,5.8-5.14,6.57-4.89S96.59,72,96.82,76.72Z"/><path class="cls-10" d="M93.26,95.66l-.64,1.92c-.35,1.06-3.7.91-7.46-.34S78.63,94.11,79,93.05l.64-1.92c-.35,1.06,2.41,2.94,6.18,4.19S92.9,96.72,93.26,95.66Z"/><path class="cls-13" d="M89,98.44l.11-.26a11.18,11.18,0,0,0,1.92.1A4.81,4.81,0,0,1,89,98.44Z"/><path class="cls-13" d="M88.31,100.25l.06-.14h.48A3.58,3.58,0,0,1,88.31,100.25Z"/><path class="cls-14" d="M91.09,98.21h.32L91,99.49c-.14.42-.81.61-1.81.61l.11-.34a.59.59,0,0,1-.41.33H88.4c.22-.54.45-1.09.66-1.65A4.85,4.85,0,0,0,91.09,98.21Z"/><path class="cls-14" d="M89.26,99.78l-.11.34-.3.9c-.08.28-.49.45-1.08.45l.54-1.25a3.45,3.45,0,0,0,.54-.11A.59.59,0,0,0,89.26,99.78Z"/><path class="cls-15" d="M94.54,76.39a17.86,17.86,0,0,0,2.31.34A42.43,42.43,0,0,1,94.51,92c-.5,1.52-1,2.84-1.32,3.84-.38.51-1.64.64-3.33.43.31-.86.62-1.73.91-2.62A76.14,76.14,0,0,0,94.54,76.39Z"/><path class="cls-16" d="M94.54,76.41a26.61,26.61,0,0,0-.27-7.51.81.81,0,0,1,.38,0c.73.24,2,3.08,2.2,7.83A17.83,17.83,0,0,1,94.54,76.41Z"/><path class="cls-14" d="M93.17,95.9a1.62,1.62,0,0,0,.1-.18l-.64,1.93a1.05,1.05,0,0,1-.2.27h0a2.2,2.2,0,0,1-1.05.36h-.32a11.18,11.18,0,0,1-1.92-.1c.24-.62.48-1.26.72-1.91C91.55,96.48,92.81,96.35,93.17,95.9Z"/><path class="cls-7" d="M91.23,99.37c.55,1.54,3.68,8.37,1.94,15.74-.54,2.27-2.78,5-4.2,6.27a11.19,11.19,0,0,0-3.31,4.1c-1.28-2-.4-4.61-1-4.26-2.07,1.1-3.4,4.15-4.13,8.89-1.74-4-4.53-13.66-2-20.12,1.64-4.15,7.64-8.87,10.9-11.15Z"/><path class="cls-8" d="M91.2,99.37a17.85,17.85,0,0,1,.53,4.31c.22,3.47-.12,7.34-.85,8.61s-.89,1.6-3,3.12-2.32,2.79-4,5.36c0-4.08-2.32-10.69-1.41-13.81s5.4-7.25,6.91-8.12Z"/><path class="cls-9" d="M91.2,99.36a11.56,11.56,0,0,0-.2,2.94c.08,1.81.49,3.82-.22,5.63-.61,1.55-1.66,2.54-1.85,3.87a4.27,4.27,0,0,1-.34-2.39c-1.33.52-1.42,3.17-2.33,4-.55-3.65-1.85-4.33-2-6.65s3.56-6.61,5.12-7.92Z"/><path class="cls-10" d="M96,100.35,95.46,102c-.28.92-3.16.87-6.43-.14s-5.69-2.56-5.41-3.49l.51-1.67c-.28.93,2.14,2.49,5.41,3.49S95.69,101.27,96,100.35Z"/><path class="cls-10" d="M93.77,102.33l-.39,1.25c-.21.7-2.38.64-4.84-.11s-4.29-1.93-4.07-2.62l.38-1.26c-.21.7,1.61,1.87,4.07,2.63S93.55,103,93.77,102.33Z"/><path class="cls-17" d="M92,76.36a20,20,0,0,0,8.84,2.74,42.56,42.56,0,0,1-2,15.32c-1.07,3.48-1.94,5.92-1.94,5.92a29.83,29.83,0,0,1-7.18-.72,28.4,28.4,0,0,1-6.37-3.5l1.8-5.89A42.87,42.87,0,0,1,92,76.36Z"/><path class="cls-18" d="M100.82,79.11A19.88,19.88,0,0,1,92,76.32c3-3.81,5.68-5.23,6.45-5S100.48,74.36,100.82,79.11Z"/><path class="cls-10" d="M97.69,98.11l-.59,1.94c-.33,1.07-3.67,1-7.46-.17s-6.6-2.93-6.27-4L84,93.94c-.33,1,2.48,2.84,6.27,4S97.37,99.18,97.69,98.11Z"/><path class="cls-13" d="M93.54,101l.09-.26a10.37,10.37,0,0,0,1.93,0A4.8,4.8,0,0,1,93.54,101Z"/><path class="cls-13" d="M92.85,102.83l.06-.15h.49A5.62,5.62,0,0,1,92.85,102.83Z"/><path class="cls-14" d="M95.56,100.71h.32L95.49,102c-.13.42-.8.64-1.8.64l.11-.34a.73.73,0,0,1-.4.35h-.49c.21-.54.42-1.1.63-1.66A4.66,4.66,0,0,0,95.56,100.71Z"/><path class="cls-14" d="M93.8,102.33l-.11.34-.28.92c-.07.27-.48.47-1.07.47.17-.41.35-.84.51-1.26a5.41,5.41,0,0,0,.55-.12A.73.73,0,0,0,93.8,102.33Z"/><path class="cls-15" d="M98.55,78.82a19.87,19.87,0,0,0,2.32.29,42.56,42.56,0,0,1-2,15.32c-.47,1.53-.9,2.86-1.23,3.86-.38.51-1.63.69-3.33.51.3-.86.58-1.74.86-2.64A76.47,76.47,0,0,0,98.55,78.82Z"/><path class="cls-16" d="M98.53,78.83a26.21,26.21,0,0,0-.45-7.5.81.81,0,0,1,.38,0c.74.22,2.05,3,2.39,7.78A19.86,19.86,0,0,1,98.53,78.83Z"/><path class="cls-14" d="M97.58,98.29l.09-.17-.6,1.93a.81.81,0,0,1-.19.29h0a2,2,0,0,1-1,.39h-.32a10.37,10.37,0,0,1-1.93,0c.23-.63.46-1.27.68-1.93C96,99,97.26,98.81,97.58,98.29Z"/><g class="cls-19"><path class="cls-20" d="M148,67.6V73l1.28-.12c-.6-1.47-.18-4.88-.18-4.88Z"/><path class="cls-21" d="M148,72.48a.05.05,0,0,0,.05,0h1.09s.06-.1,0-.1a9.91,9.91,0,0,1-1.09,0A0,0,0,0,0,148,72.48Z"/><path class="cls-21" d="M148.06,72h1v-.09h-1C148,71.92,148,72,148.06,72Z"/><path class="cls-21" d="M148.06,71.57a4.82,4.82,0,0,0,.93,0,0,0,0,1,0,0-.09,4.82,4.82,0,0,1-.93,0Z"/><path class="cls-21" d="M148,71a6.63,6.63,0,0,0,1,.08s.06-.09,0-.09c-.36,0-.68-.08-1-.08C148,70.86,147.94,71,148,71Z"/><path class="cls-21" d="M148,70.36a.05.05,0,0,0,.05,0H149a.06.06,0,0,0,0,0,.05.05,0,0,0,0,0h-.93A0,0,0,0,0,148,70.36Z"/><path class="cls-21" d="M148.06,69.91c.3,0,.6,0,.91,0,0,0,.06-.09,0-.09a4.64,4.64,0,0,0-.91-.06Z"/><path class="cls-21" d="M148.06,69.17a3.84,3.84,0,0,0,1,.09h0v-.07h0c-.36,0-.68-.08-1-.08Z"/><path class="cls-21" d="M148,68.56l1,.06c.05,0,.06-.1,0-.1h-.95C148,68.51,148,68.61,148,68.56Z"/><path class="cls-22" d="M127.42,79.91V76.06a.06.06,0,0,1,.06,0l23-.06h0v3.9a.06.06,0,0,1-.06.06h-23Z"/><polygon class="cls-23" points="146.41 75.96 148.83 75.95 148.84 79.91 146.41 79.92 146.41 75.96"/><rect class="cls-23" x="145.31" y="75.96" width="0.54" height="3.96" transform="translate(-0.19 0.36) rotate(-0.14)"/><path class="cls-23" d="M143.26,78a.69.69,0,1,1,.71.67.69.69,0,0,1-.71-.67Z"/><path class="cls-24" d="M127.22,76V72.91h0l23-.06h.06V76h0l-23,.06A0,0,0,0,1,127.22,76Z"/><polygon class="cls-25" points="146.65 74.48 147.38 75.1 147.38 73.71 146.65 74.48"/><polygon class="cls-25" points="145.87 74.47 146.46 74.97 146.46 73.85 145.87 74.47"/><rect class="cls-25" x="148.96" y="72.81" width="0.1" height="3.19" transform="translate(-0.18 0.36) rotate(-0.14)"/><rect class="cls-25" x="148.48" y="72.8" width="0.1" height="3.19" transform="translate(-0.18 0.36) rotate(-0.14)"/><path class="cls-26" d="M141.33,33l1.6,1.16.08.07a11.11,11.11,0,0,0-.16,3.77l.05.39-1.68-.46Z"/><polygon class="cls-27" points="132.67 38.83 142.94 38.37 141.34 37.7 131.85 38.1 132.67 38.83"/><path class="cls-28" d="M143,38.27v.13a3.61,3.61,0,0,1-.79-.31l-.82-.37c-.06,0,0-.13,0-.13l.77.34a4,4,0,0,0,.83.34Z"/><path class="cls-28" d="M141.37,33a9.65,9.65,0,0,1,1.72,1.2c.06,0,0,.18-.05.18a8.61,8.61,0,0,0-1.7-1.18C141.28,33.11,141.31,33,141.37,33Z"/><path class="cls-29" d="M131.86,33.45a16.8,16.8,0,0,0,0,4.59v.06l9.49-.4V36.63c-.06-.85,0-1.71,0-2.57l.06-1.06-9.56.45Z"/><path class="cls-30" d="M140,37.46c0,.19.2.14.2,0a16.22,16.22,0,0,1-.06-4.29c0-.13-.21-.13-.21,0A15.81,15.81,0,0,0,140,37.46Z"/><path class="cls-30" d="M133,37.84c0,.19.2.14.2,0a16.22,16.22,0,0,1,0-4.29c0-.12-.21-.13-.21,0A15.8,15.8,0,0,0,133,37.84Z"/><path class="cls-31" d="M146.55,37.21l3.56,1.56.17.09a9.47,9.47,0,0,0-.36,5.06l.12.52-3.73-.62Z"/><polygon class="cls-32" points="127.3 45.04 150.13 44.41 146.58 43.52 125.49 44.07 127.3 45.04"/><path class="cls-33" d="M150.2,44.27c.1,0,.1.18,0,.18a12.93,12.93,0,0,1-1.74-.41l-1.84-.5a.09.09,0,0,1,0-.17l1.71.46a12.64,12.64,0,0,0,1.84.44Z"/><path class="cls-33" d="M146.64,37.19a24.21,24.21,0,0,1,3.83,1.6c.13.07,0,.31-.12.24a24.84,24.84,0,0,0-3.77-1.58C146.44,37.41,146.51,37.11,146.64,37.19Z"/><path class="cls-34" d="M125.49,37.83a13.63,13.63,0,0,0,0,6.16v.08l21.09-.55-.07-1.44a26.46,26.46,0,0,1,.08-3.45l.13-1.42-21.24.62Z"/><path class="cls-35" d="M128.83,72.8a8.07,8.07,0,0,1,0-4.62v-.07h19.51v4.71h-19.5Z"/><polygon class="cls-36" points="143.62 68.1 146.34 68.09 146.35 72.78 143.62 72.78 143.62 68.1"/><path class="cls-31" d="M148.36,68.35l3.45-1.3L152,67a6,6,0,0,1-.22-4l.13-.41-3.62.54Z"/><polygon class="cls-37" points="129.04 62.41 151.96 62.61 148.52 63.36 127.13 63.24 129.04 62.41"/><path class="cls-33" d="M152,62.72a.07.07,0,0,0,0-.14,13.53,13.53,0,0,0-1.68.35l-1.79.42c-.13,0-.09.13,0,.13l1.65-.38a12,12,0,0,1,1.78-.38Z"/><path class="cls-33" d="M148.31,68.27a.13.13,0,0,0,.16.08,30.24,30.24,0,0,0,3.7-1.34c.12-.06,0-.19-.11-.19a26.63,26.63,0,0,1-3.67,1.29A.12.12,0,0,0,148.31,68.27Z"/><path class="cls-38" d="M127.14,68.43a8.76,8.76,0,0,1,0-5.07v-.07l21.39.12-.1,1.15a15.33,15.33,0,0,0,0,2.71l.09,1.11H127.14Z"/><path class="cls-30" d="M129.19,62.86V58.11h20.33v4.8a.06.06,0,0,1-.06,0H129.2S129.18,62.87,129.19,62.86Z"/><path class="cls-39" d="M151.44,54.56l-25.06.07m0,0a.06.06,0,0,1-.06,0V51.17a.05.05,0,0,1,.06-.06l25.05-.06a.06.06,0,0,1,.06.06v3.45Z"/><path class="cls-40" d="M130.34,50.72a20.92,20.92,0,0,1,0-6.22l.06-.39h16v7h-16Z"/><polygon class="cls-22" points="141.42 44.16 144.59 44.15 144.6 51.06 141.43 51.06 141.42 44.16"/><polygon class="cls-41" points="142.13 44.16 143.91 44.15 143.92 51.06 142.14 51.06 142.13 44.16"/><polygon class="cls-42" points="146.36 44.52 130.17 45.98 130.39 44.18 146.36 44.14 146.36 44.52"/><path class="cls-43" d="M138.39,34.24a1.09,1.09,0,0,1,1.1,1.08,1.1,1.1,0,0,1-1.08,1.1,1.09,1.09,0,0,1-1.1-1.08A1.1,1.1,0,0,1,138.39,34.24Z"/><path class="cls-40" d="M149,52.91a5.57,5.57,0,0,0,.72.74c.1.09.25-.06.15-.15a6.85,6.85,0,0,1-.66-.66,3,3,0,0,1,.64-.6c.11-.08,0-.26-.11-.18a3.28,3.28,0,0,0-.74.7A.11.11,0,0,0,149,52.91Z"/><path class="cls-40" d="M147.76,52.81a1.42,1.42,0,0,0,.3.3l.41.4c.1.09.24-.06.15-.15l-.34-.32-.3-.27a4,4,0,0,1,.52-.49c.1-.15-.05-.25-.14-.15a3.35,3.35,0,0,0-.6.59A.08.08,0,0,0,147.76,52.81Z"/><path class="cls-40" d="M147,52.26a.27.27,0,0,0,.22.28.11.11,0,0,0,.07-.08.11.11,0,0,0-.07-.13c-.17,0-.06-.22,0-.28l0,0a.11.11,0,0,0,0-.15.1.1,0,0,0-.15,0A.45.45,0,0,0,147,52.26Z"/><path class="cls-40" d="M146,53.08a.4.4,0,0,0,.56,0,.45.45,0,0,0,0-.54.42.42,0,0,0-.53-.1.09.09,0,0,0-.12,0A.48.48,0,0,0,146,53.08Zm.11-.18a.22.22,0,0,1-.07-.3h.09a.2.2,0,0,1,.24,0,.22.22,0,0,1,0,.29h0a.2.2,0,0,1-.27,0Z"/><polygon class="cls-40" points="131.88 58.04 132.12 58.04 132.13 62.92 131.89 62.92 131.88 58.04"/><polygon class="cls-40" points="130.9 58.04 131.15 58.04 131.15 62.92 130.91 62.92 130.9 58.04"/><path class="cls-44" d="M148.34,68.4l-19.75.73a7.1,7.1,0,0,1,.17-.8h19.6Z"/><path class="cls-23" d="M127.74,54.61l25.06-.06h0V58a.06.06,0,0,1-.06,0l-25.06.06m0-.06v0Z"/><polygon class="cls-40" points="149.51 55.55 149.89 55.55 149.89 57 149.51 57 149.51 55.55"/><rect class="cls-40" x="148.31" y="55.55" width="0.38" height="1.45" transform="translate(-0.14 0.36) rotate(-0.14)"/><path class="cls-25" d="M126.35,54.24l25.18.17h0v0a.13.13,0,0,1-.11.13H126.29Z"/><path class="cls-45" d="M126.44,54.11l25.18.16h0v0a.11.11,0,0,1-.11.11H126.38Z"/><path class="cls-20" d="M146.37,44.11v7l1.28-.17c-.89-1.83-.15-6.27-.15-6.27Z"/></g></svg>