<svg id="Layer_3" data-name="Layer 3" xmlns="http://www.w3.org/2000/svg" viewBox="0 0 251 151"><defs><style>.cls-1{fill:#e84c59;}.cls-2{fill:#ee7b5c;}.cls-3{fill:#f9c862;}.cls-4{fill:#062633;}.cls-5{fill:#abaaaa;}.cls-6{fill:#e1dfe0;}.cls-7{fill:none;}.cls-8{fill:#041d26;}.cls-9{fill:#6e6e6e;}.cls-10{fill:silver;}.cls-11{fill:#5e3e21;}.cls-12{fill:#783a28;}.cls-13{fill:#8f4729;}.cls-14{fill:#af9987;}.cls-15{fill:#dcb680;}.cls-16{fill:#c69666;}.cls-17{fill:#662f1e;}.cls-18{fill:#231d13;}.cls-19{fill:#574c3e;}.cls-20{fill:#442c1a;}.cls-21{fill:#b78fa5;}.cls-21,.cls-22,.cls-23,.cls-25,.cls-26,.cls-27{opacity:0.3;}.cls-22{fill:#eabee8;}.cls-24{fill:#f4c9e3;}.cls-25{fill:#efabd7;}.cls-26{fill:#fff;}.cls-27{fill:#af899a;}</style></defs><title>Tõnis</title><path class="cls-1" d="M122.94,98.5c2.8,3.16,7.82,9.49,8.46,14.2,1,7.29-4.28,16.57-7,20.26.42-5.07-.19-8.55-2-10.19-.59-.53-.33,2.42-2.14,4.13a12.24,12.24,0,0,0-2.39-5.06c-1.14-1.69-2.79-5-2.78-7.5,0-8,5-14.29,5.92-15.75Z"/><path class="cls-2" d="M122.94,98.5c1.34,1.28,5,6.66,5.11,10.09s-3.87,9.68-4.88,13.88c-1.1-3.07-1-4.43-2.77-6.51s-1.87-2.47-2.34-4,.18-5.57,1.27-9.08c1.14-3.7,1.62-4.32,1.62-4.32Z"/><path class="cls-3" d="M122.94,98.5c1.28,1.74,4,7.08,3.32,9.44s-2.25,2.76-3.71,6.35c-.74-1.07-.16-3.83-1.41-4.68-.28,1-.22,1.58-1,2.37.14-1.41-.7-2.7-.94-4.44-.28-2,.64-4,1.17-5.86a12.35,12.35,0,0,0,.53-3.09Z"/><path class="cls-4" d="M122.44,99.87c3.62-.22,6.5-1.22,6.44-2.24l.11,1.84c.06,1-2.82,2-6.44,2.25s-6.6-.43-6.66-1.45l-.11-1.85C115.84,99.44,118.82,100.09,122.44,99.87Z"/><path class="cls-4" d="M122.58,102.1c2.72-.17,4.89-.93,4.85-1.69l.08,1.38c0,.77-2.12,1.53-4.85,1.7s-5-.33-5-1.09l-.08-1.4C117.61,101.77,119.85,102.26,122.58,102.1Z"/><path class="cls-5" d="M125.85,74.68a45.63,45.63,0,0,1,3.59,16l.4,6.52a30.42,30.42,0,0,1-7.44,2,31.37,31.37,0,0,1-7.58-1s-.29-2.73-.52-6.58a44.93,44.93,0,0,1,1.76-16.29,19.92,19.92,0,0,0,4.86.27A19.69,19.69,0,0,0,125.85,74.68Z"/><path class="cls-6" d="M120.45,67.89c.86-.06,3.28,2.08,5.4,6.79a19.69,19.69,0,0,1-4.93.9,19.92,19.92,0,0,1-4.86-.27C117.59,70.51,119.63,67.94,120.45,67.89Z"/><path class="cls-4" d="M122.29,97.36c4.2-.25,7.54-1.42,7.47-2.6l.13,2.14c.07,1.18-3.27,2.35-7.47,2.61s-7.66-.5-7.73-1.68l-.13-2.15C114.63,96.87,118.09,97.62,122.29,97.36Z"/><path class="cls-7" d="M116.09,99a10.2,10.2,0,0,0,2,.43l0,.29A4.8,4.8,0,0,1,116.09,99Z"/><path class="cls-7" d="M117.85,101.46l.51.09a1,1,0,0,0,0,.17A2.91,2.91,0,0,1,117.85,101.46Z"/><path class="cls-5" d="M114.78,98.18v0Z"/><path class="cls-8" d="M118.12,99.68c.08.63.15,1.26.24,1.87l-.51-.09a.63.63,0,0,1-.32-.46l0,.38c-1-.26-1.66-.65-1.69-1.11l-.09-1.43a3,3,0,0,0,.32.12A4.8,4.8,0,0,0,118.12,99.68Z"/><path class="cls-8" d="M117.85,101.46a2.91,2.91,0,0,0,.53.26l.21,1.43c-.6-.19-1-.45-1-.76l-.06-1,0-.38A.63.63,0,0,0,117.85,101.46Z"/><path class="cls-9" d="M117.65,94.3c.06,1,.13,2,.22,2.94-1.8-.25-3-.73-3.3-1.36-.09-1.12-.21-2.59-.31-4.28A45.1,45.1,0,0,1,116,75.31a18.28,18.28,0,0,0,2.46.28A80.64,80.64,0,0,0,117.65,94.3Z"/><path class="cls-10" d="M116,75.31c1.53-4.8,3.57-7.37,4.39-7.42a.94.94,0,0,1,.4.08,27.7,27.7,0,0,0-2.33,7.62A18.28,18.28,0,0,1,116,75.31Z"/><path class="cls-8" d="M117.87,97.24c.07.73.14,1.44.22,2.15a10.2,10.2,0,0,1-2-.43,3,3,0,0,1-.32-.12,2.2,2.2,0,0,1-1-.66v0a.75.75,0,0,1-.13-.34l-.13-2.14a1.17,1.17,0,0,0,0,.2C114.83,96.51,116.07,97,117.87,97.24Z"/><path class="cls-1" d="M136.07,98.6c2.62,3.3,7.29,9.89,7.68,14.63.6,7.34-5.18,16.32-8.11,19.85.7-5,.28-8.55-1.49-10.29-.56-.56-.46,2.4-2.37,4a12.17,12.17,0,0,0-2.1-5.17c-1.05-1.75-2.52-5.14-2.37-7.64.47-8,5.73-14,6.76-15.4Z"/><path class="cls-2" d="M136.07,98.6c1.27,1.34,4.58,6.91,4.55,10.34s-4.39,9.46-5.63,13.6c-.93-3.12-.75-4.48-2.41-6.65s-1.73-2.57-2.12-4.09.48-5.55,1.76-9c1.34-3.63,1.85-4.22,1.85-4.22Z"/><path class="cls-3" d="M136.07,98.6c1.18,1.8,3.65,7.28,2.79,9.59s-2.39,2.64-4,6.15c-.68-1.12.05-3.83-1.15-4.76-.34,1-.31,1.57-1.08,2.32.21-1.4-.55-2.73-.7-4.49-.17-2,.86-4,1.49-5.78a12.63,12.63,0,0,0,.69-3Z"/><path class="cls-4" d="M135.49,99.93c3.63,0,6.56-.87,6.55-1.89l0,1.85c0,1-2.93,1.87-6.56,1.89s-6.56-.78-6.57-1.8V98.13C128.93,99.15,131.87,100,135.49,99.93Z"/><path class="cls-4" d="M135.51,102.16c2.73,0,4.94-.65,4.93-1.42v1.39c0,.77-2.2,1.41-4.93,1.42s-5-.59-5-1.36V100.8C130.56,101.57,132.78,102.18,135.51,102.16Z"/><path class="cls-5" d="M140.27,75A45.57,45.57,0,0,1,143,91.13c0,3.76,0,6.53,0,6.53a30,30,0,0,1-7.53,1.63A31.29,31.29,0,0,1,128,97.83s-.14-2.74-.16-6.6a45.12,45.12,0,0,1,2.64-16.16,20.62,20.62,0,0,0,4.84.53A19.81,19.81,0,0,0,140.27,75Z"/><path class="cls-6" d="M135.25,67.89c.85,0,3.15,2.26,5,7.08a19.81,19.81,0,0,1-5,.63,20.62,20.62,0,0,1-4.84-.53C132.25,70.35,134.42,67.89,135.25,67.89Z"/><path class="cls-4" d="M135.48,97.42c4.2,0,7.61-1,7.6-2.19v2.14c0,1.19-3.39,2.17-7.6,2.2s-7.62-.91-7.63-2.1V95.32C127.85,96.51,131.27,97.45,135.48,97.42Z"/><path class="cls-7" d="M129.2,98.68a10,10,0,0,0,2,.54c0,.1,0,.2,0,.29A4.87,4.87,0,0,1,129.2,98.68Z"/><path class="cls-7" d="M130.83,101.27l.49.12c0,.06,0,.11,0,.16A2,2,0,0,1,130.83,101.27Z"/><path class="cls-5" d="M127.94,97.83v0Z"/><path class="cls-8" d="M131.19,99.51c0,.64.08,1.26.13,1.88l-.49-.12a.63.63,0,0,1-.31-.47v.38c-1-.32-1.63-.74-1.63-1.21V98.55l.31.13A4.87,4.87,0,0,0,131.19,99.51Z"/><path class="cls-8" d="M130.83,101.27a2,2,0,0,0,.51.28c0,.49.08,1,.13,1.45-.58-.23-.94-.51-.94-.81V100.8A.63.63,0,0,0,130.83,101.27Z"/><path class="cls-9" d="M131,94.11c0,1,0,2,.06,2.94-1.78-.33-3-.88-3.22-1.53,0-1.12-.06-2.6-.07-4.29a45.18,45.18,0,0,1,2.64-16.17,19.35,19.35,0,0,0,2.44.42A80.57,80.57,0,0,0,131,94.11Z"/><path class="cls-10" d="M130.42,75.06c1.79-4.71,4-7.17,4.79-7.18a1,1,0,0,1,.39.11,28.43,28.43,0,0,0-2.74,7.49A19.35,19.35,0,0,1,130.42,75.06Z"/><path class="cls-8" d="M131.07,97.05c0,.74.06,1.46.11,2.17a10,10,0,0,1-2-.54l-.31-.13a2.18,2.18,0,0,1-.94-.72v0a.62.62,0,0,1-.11-.34l0-2.15a.65.65,0,0,0,0,.2C128.07,96.17,129.29,96.72,131.07,97.05Z"/><path class="cls-11" d="M101.45,65.7c0-.07-.86-4.26-2.32-4.26-.86,0-.86.64-.86,1.21-.23-.49-2-1.21-4.24-1.21-1.76,0-4.2.85-2.06,2.13a27.49,27.49,0,0,1,5.47,5.59,8.85,8.85,0,0,0,1,1.55l4.37-3.4A3.78,3.78,0,0,1,101.45,65.7Z"/><path class="cls-11" d="M123.89,106.58c.32-.4-5.21-3.49-5.21-3.49a13.6,13.6,0,0,0-.09,2.8,12.13,12.13,0,0,0-1.51-.86c-3.17-1.51-6.4-1.37-7.2.32-.57,1.19,2.44,2.33,5.31,3.63,1.46.66,2.81,1.46,3.89,1.93h0l1.83.87s1-.33,1.07-3.3C122,107.94,123.56,107,123.89,106.58Zm-3.2,4.73Z"/><path class="cls-12" d="M124.82,92.15c2,1.44,1.63,2.71,1.92,4.08a26.3,26.3,0,0,1,.19,4.32,18.61,18.61,0,0,1-.92,5,19.87,19.87,0,0,1-1.11,2.64c-.45.81-.68,1.76-2.13,1.75l-9.6-6.92c-.72-1.06-.23-1.16-.07-1.46a8,8,0,0,0,.53-.81,18.39,18.39,0,0,0,1-2.32l1.12-3.26c.52-1.15.31-2.42,2.51-3.52Z"/><path class="cls-11" d="M129.6,106.5c-1.24,2.7-.46,3.44-.46,3.44h2c1.17,0,2.74-.1,4.33-.07,3.16.06,6.37.33,6.37-1,0-1.88-2.85-3.39-6.37-3.39a11,11,0,0,0-1.74.13,13.08,13.08,0,0,0,1.13-2.57s-6.32.41-6.2.91S129.85,106,129.6,106.5Zm-.06,3.1Z"/><path class="cls-12" d="M137.12,91.7A3.76,3.76,0,0,1,139,93.41c.23.59.4,1.19.6,1.79.36,1.2.71,2.39,1,3.6s.48,2.41.65,3.62l.25,1.82c0,.61.43,1.19-.72,1.88l-11.81.81c-1.23-.52-.93-1.16-1-1.76v-1.84c0-1.22,0-2.45.14-3.67s.27-2.47.46-3.7c.12-.62.21-1.24.35-1.86a3.77,3.77,0,0,1,1.63-1.95Z"/><path class="cls-13" d="M144,88.83v-.58a.57.57,0,0,0,0-.18c-.56-10-3.93-18.58-16.42-18.58h0c-12.62,0-16.65,12.21-15.63,26.79h0c0,5.57,8.83,5.19,16.37,5.19C137,101.48,144,101,144,97V92.94C144,91.52,144,90.14,144,88.83Z"/><path class="cls-12" d="M119.36,76.33a2.15,2.15,0,0,1-.07,1.25l-.3.56a3.25,3.25,0,0,1-.72.79,5.25,5.25,0,0,1-.8.56,4.76,4.76,0,0,1-.89.26c-.6.11-1.21.29-1.83.36l-1.9.18A18.29,18.29,0,0,1,105.21,79a19.68,19.68,0,0,1-6.4-4.17A22.54,22.54,0,0,1,96.38,72a4.64,4.64,0,0,1-.92-1.64,4.36,4.36,0,0,1-.12-1,1.68,1.68,0,0,1,.17-.68l.23-.4c0-.12.17-.29,1-.85l3-1.66a4.23,4.23,0,0,1,1.23-.5l.42-.07a1.63,1.63,0,0,1,.58,0,5.1,5.1,0,0,1,.73.27,3.12,3.12,0,0,1,.94.9c.55.66,1.15,1.26,1.73,1.87a28,28,0,0,0,3.68,3.26,15.67,15.67,0,0,0,4.34,2.19l1.24.29a9.23,9.23,0,0,0,1.3.14,4.74,4.74,0,0,1,1.4.34,3.24,3.24,0,0,1,.82.45l.47.38a2.77,2.77,0,0,1,.69,1.08Z"/><path class="cls-14" d="M134.09,83.13l-3.63,2.47a1.29,1.29,0,0,0-.34,1.8l3.57,5.23a1.29,1.29,0,0,0,1.8.35l1.18-.81,8,11.69a.57.57,0,0,0,.77.14l.49-.33a.58.58,0,0,0,.15-.78l-8-11.68,1-.7a1.29,1.29,0,0,0,.34-1.8l-3.57-5.25A1.29,1.29,0,0,0,134.09,83.13Zm1,7.46a.45.45,0,0,1-.74.51l-2.7-4a.44.44,0,0,1,.12-.61h0a.44.44,0,0,1,.61.12Zm1.44-1a.44.44,0,0,1-.12.61h0a.45.45,0,0,1-.61-.12l-2.7-4a.45.45,0,0,1,.12-.61h0a.43.43,0,0,1,.61.11Zm1.44-1a.43.43,0,0,1-.11.61.48.48,0,0,1-.63-.1l-2.7-4a.45.45,0,0,1,.12-.61h0a.44.44,0,0,1,.61.11Z"/><path class="cls-11" d="M146.29,96.63c-.94,1.45-3.46,4.43-6.62,1.74s-.85-3,0-3.52a3.92,3.92,0,0,0,1.8-2.32Z"/><path class="cls-12" d="M136.2,73.32c.53-.61.79-.75,1-.8l.62-.17a3.11,3.11,0,0,1,1.09,0,5.14,5.14,0,0,1,1,.17,3.4,3.4,0,0,1,.86.41l1.64.93L144,74.92a18.61,18.61,0,0,1,5.69,6.15,13.63,13.63,0,0,1,1.44,9.5,14.33,14.33,0,0,1-1.93,4.49,5.72,5.72,0,0,1-1.54,1.77,4.17,4.17,0,0,1-1.1.54,1.71,1.71,0,0,1-.73,0l-.47-.09c-.12,0-.33-.09-1.08-.77l-2.37-2.5c-.65-.78-.76-1-.78-1.08l-.17-.4a1.77,1.77,0,0,1-.14-.58c0-.28,0-.51,0-.74,0-.45.31-.7.44-1l.25-.45c0-.16.11-.31.17-.46a8.36,8.36,0,0,0,.29-.89,7.43,7.43,0,0,0-.06-3.88,14.91,14.91,0,0,0-2.51-4.72l-1-1.18-1.1-1.11a4.94,4.94,0,0,1-1-1.35,3.09,3.09,0,0,1-.35-1l-.11-.63a2.41,2.41,0,0,1,.27-1.26Z"/><path class="cls-15" d="M128.34,85.62c-1.8-.55-3-2.64-5.3-3.9-3.21-1.74-3.78-4.38-3.69-3.22s-1.16,1.62-1.16,1.45.37.21.25-1.53-2.78-2.73-4.39-5.88a16.71,16.71,0,0,1-1.33-3.46,6.3,6.3,0,0,0-.39,1.43c-2.8-10.37,2.62-15.91,3.33-16.27a5.44,5.44,0,0,0-2.07.7,6.35,6.35,0,0,1,5-3.31,2.87,2.87,0,0,0-2-.45,5.85,5.85,0,0,1,4.68-2.11A2,2,0,0,1,123,50c-.36-.7-.06-2.82,2.79-3.44-1.73,3.17-1,2.6-.91,2.73s2.28-1.52,4.35-1.58a2,2,0,0,0-1.12.92c2.11-.62,4.45-1.55,8.61.93a6.85,6.85,0,0,0-3.12.56c.56.19,7.76,2.36,9.42,8.9-.33-.17-2.09-1.17-2.34-1,1.26.87,5.4,3.93,2,15-.06-.59-.5-1.94-.86-1.93.43,1.06-.85,4.09-4.88,6.74C131.47,81.46,129.08,83.44,128.34,85.62Z"/><path class="cls-11" d="M137.27,64.81a9.65,9.65,0,0,0-19.3,0,9.9,9.9,0,0,0,3.77,7.65c2.47,2,4.38,3.59,5.82,6,.72-1.79,3.12-3.58,5.81-5.9A10.25,10.25,0,0,0,137.27,64.81Z"/><path class="cls-16" d="M136.74,64.35A9.14,9.14,0,1,1,127.6,55,9.24,9.24,0,0,1,136.74,64.35Z"/><path class="cls-17" d="M129.27,61.88a11.89,11.89,0,0,1,1.89.6,4.38,4.38,0,0,1,1.64,1.06,4.31,4.31,0,0,0-1.74-.76,11,11,0,0,0-1.87-.27Z"/><path class="cls-17" d="M125.75,62.51a10.57,10.57,0,0,0-1.94.15,4.49,4.49,0,0,0-1.83.66,4.77,4.77,0,0,1,1.75-1,11,11,0,0,1,2-.47Z"/><polygon class="cls-18" points="126 63.75 124.03 63.54 126.02 63.32 126 63.75"/><path class="cls-18" d="M129,63.32l1.27.07a7.49,7.49,0,0,1,1.25.15,7.53,7.53,0,0,0-1.25.06l-1.25.15Z"/><path class="cls-19" d="M125.38,64.77a1.37,1.37,0,0,0,.65,1.45,2.87,2.87,0,0,0,1.58.46,2.22,2.22,0,0,0,1.55-.42,1.54,1.54,0,0,0,.5-.65,1.15,1.15,0,0,0,.07-.84,1.46,1.46,0,0,1-.35,1.74,2.41,2.41,0,0,1-1.79.59,3,3,0,0,1-1.77-.63A1.38,1.38,0,0,1,125.38,64.77Z"/><path class="cls-18" d="M125.29,69.49a11.08,11.08,0,0,0,1.65.56,5.8,5.8,0,0,0,1.65.15,7.64,7.64,0,0,0,3.25-1,4.37,4.37,0,0,1-3.21,1.64,4.25,4.25,0,0,1-1.84-.31A4.37,4.37,0,0,1,125.29,69.49Z"/><path class="cls-20" d="M125.92,55.17a9.28,9.28,0,0,1,3.56,0,11,11,0,0,1,6.13,4.21,4.32,4.32,0,0,0-2.84,0l-.47.17-1.37-2.4-.21,3c-5.24,1.46-10.55-2.31-12.06.94a10.1,10.1,0,0,1,7.26-5.9"/><rect class="cls-21" x="77.03" y="58.96" width="30.74" height="2.48" rx="1.22" ry="1.22"/><rect class="cls-22" x="78.2" y="54.99" width="28.4" height="3.97"/><g class="cls-23"><path class="cls-24" d="M107.15,49.89V51a1.71,1.71,0,0,1-3.31,0,1.5,1.5,0,0,1-1.64,1.28A1.52,1.52,0,0,1,100.54,51a1.71,1.71,0,0,1-3.31,0,1.5,1.5,0,0,1-1.64,1.28A1.52,1.52,0,0,1,93.93,51a1.71,1.71,0,0,1-3.31,0A1.5,1.5,0,0,1,89,52.29,1.52,1.52,0,0,1,87.32,51,1.71,1.71,0,0,1,84,51a1.5,1.5,0,0,1-1.64,1.28A1.52,1.52,0,0,1,80.71,51a1.71,1.71,0,0,1-3.31,0V49.89Z"/></g><rect class="cls-25" x="91.45" y="45.51" width="1.65" height="4.38"/><path class="cls-26" d="M92.68,37.19a3.79,3.79,0,0,0-1.23,4.13c-1.22-1.1-.82-1.93-.82-1.93s-1.47,2.48-.06,4.25c1.19,1.52,3.36.66,4-.61.72-1.48-.34-3-.91-3.55A2.86,2.86,0,0,1,92.68,37.19Z"/><path class="cls-27" d="M105.5,52.29A1.5,1.5,0,0,1,103.85,51a1.71,1.71,0,0,1-3.31,0,1.71,1.71,0,0,1-3.3,0,1.71,1.71,0,0,1-3.31,0,1.71,1.71,0,0,1-3.3,0,1.71,1.71,0,0,1-3.31,0A1.71,1.71,0,0,1,84,51a1.71,1.71,0,0,1-3.31,0,1.5,1.5,0,0,1-1.65,1.27,2,2,0,0,1-.86-.21V55h28.4V52A1.94,1.94,0,0,1,105.5,52.29Z"/></svg>