<?xml version="1.0" encoding="utf-8"?>
<!-- Generator: Adobe Illustrator 22.1.0, SVG Export Plug-In . SVG Version: 6.00 Build 0)  -->
<svg version="1.1" id="Layer_1" xmlns="http://www.w3.org/2000/svg" xmlns:xlink="http://www.w3.org/1999/xlink" x="0px" y="0px"
	 viewBox="0 0 251 151" style="enable-background:new 0 0 251 151;" xml:space="preserve">
<style type="text/css">
	.st0{opacity:0.1;fill:url(#SVGID_1_);enable-background:new    ;}
	.st1{opacity:0.1;fill:url(#SVGID_2_);enable-background:new    ;}
</style>
<title>Anton-base</title>
<radialGradient id="SVGID_1_" cx="232.3378" cy="300.8669" r="71.73" gradientTransform="matrix(0.7789 0.3876 0.2495 -0.5013 -165.9745 142.6371)" gradientUnits="userSpaceOnUse">
	<stop  offset="0" style="stop-color:#FFFFFF;stop-opacity:0.5"/>
	<stop  offset="0.4" style="stop-color:#FFFFFF;stop-opacity:0.27"/>
	<stop  offset="1" style="stop-color:#FFFFFF;stop-opacity:0"/>
</radialGradient>
<path class="st0" d="M56.3,12l110.3,54.9c5.7,2.8,8,9.7,5.2,15.4l-33.4,67.2c-2.8,5.7-9.7,8-15.4,5.2L12.6,99.8
	c-5.7-2.8-8-9.7-5.2-15.4l33.4-67.2C43.7,11.5,50.6,9.1,56.3,12z"/>
<radialGradient id="SVGID_2_" cx="389.8878" cy="107.2613" r="71.73" gradientTransform="matrix(0.6931 9.814702e-02 7.851762e-02 -0.5545 -168.0747 115.7965)" gradientUnits="userSpaceOnUse">
	<stop  offset="0" style="stop-color:#FFFFFF;stop-opacity:0.5"/>
	<stop  offset="0.4" style="stop-color:#FFFFFF;stop-opacity:0.27"/>
	<stop  offset="1" style="stop-color:#FFFFFF;stop-opacity:0"/>
</radialGradient>
<path class="st1" d="M69.3,41l96.3,13.6c5.7,0.8,9.7,6.1,8.9,11.8l-10.8,76.3c-0.8,5.7-6.1,9.7-11.8,8.9l-96.3-13.6
	c-5.7-0.8-9.7-6.1-8.9-11.8l10.8-76.3C58.3,44.1,63.6,40.2,69.3,41z"/>
</svg>
