<?xml version="1.0" encoding="utf-8"?>
<!-- Generator: Adobe Illustrator 22.1.0, SVG Export Plug-In . SVG Version: 6.00 Build 0)  -->
<svg version="1.1" id="Layer_1" xmlns="http://www.w3.org/2000/svg" xmlns:xlink="http://www.w3.org/1999/xlink" x="0px" y="0px"
	 viewBox="0 0 251 151" style="enable-background:new 0 0 251 151;" xml:space="preserve">
<style type="text/css">
	.st0{opacity:0.1;fill:url(#SVGID_1_);enable-background:new    ;}
	.st1{opacity:0.1;fill:url(#SVGID_2_);enable-background:new    ;}
</style>
<title>Egle-base</title>
<radialGradient id="SVGID_1_" cx="-1597.9147" cy="-497.1193" r="71.73" gradientTransform="matrix(0.8691 -3.976917e-02 -2.559855e-02 -0.5594 1500.99 -250.3976)" gradientUnits="userSpaceOnUse">
	<stop  offset="0" style="stop-color:#FFFFFF;stop-opacity:0.5"/>
	<stop  offset="0.4" style="stop-color:#FFFFFF;stop-opacity:0.27"/>
	<stop  offset="1" style="stop-color:#FFFFFF;stop-opacity:0"/>
</radialGradient>
<path class="st0" d="M64.9,44.1l123-5.6c6.4-0.3,11.7,4.6,12,11l3.4,75c0.3,6.4-4.6,11.7-11,12l-123,5.6c-6.4,0.3-11.7-4.6-12-11
	l-3.4-75C53.6,49.8,58.5,44.4,64.9,44.1z"/>
<radialGradient id="SVGID_2_" cx="-1891.5466" cy="-130.4493" r="71.73" gradientTransform="matrix(0.6534 -0.2511 -0.2009 -0.5227 1365.3479 -454.0162)" gradientUnits="userSpaceOnUse">
	<stop  offset="0" style="stop-color:#FFFFFF;stop-opacity:0.5"/>
	<stop  offset="0.4" style="stop-color:#FFFFFF;stop-opacity:0.27"/>
	<stop  offset="1" style="stop-color:#FFFFFF;stop-opacity:0"/>
</radialGradient>
<path class="st1" d="M90.4,63.1l90.8-34.9c5.4-2.1,11.5,0.6,13.5,6l27.7,72c2.1,5.4-0.6,11.5-6,13.5l-90.8,34.9
	c-5.4,2.1-11.5-0.6-13.5-6l-27.7-72C82.3,71.2,85,65.2,90.4,63.1z"/>
</svg>
