<?xml version="1.0" encoding="utf-8"?>
<!-- Generator: Adobe Illustrator 24.3.0, SVG Export Plug-In . SVG Version: 6.00 Build 0)  -->
<svg version="1.1" id="Layer_2" xmlns="http://www.w3.org/2000/svg" xmlns:xlink="http://www.w3.org/1999/xlink" x="0px" y="0px"
	 viewBox="0 0 251 151" style="enable-background:new 0 0 251 151;" xml:space="preserve">
<style type="text/css">
	.egle-primary-st0{opacity:0.1;fill:url(#SVGID_1_);enable-background:new    ;}
	.egle-primary-st1{opacity:0.1;fill:url(#SVGID_2_);enable-background:new    ;}
	.egle-primary-st2{opacity:0.7;}
	.egle-primary-st3{opacity:0.6;fill:#5B2B1B;enable-background:new    ;}
	.egle-primary-st4{fill:#813E2B;}
	.egle-primary-st5{fill:#954E3A;}
	.egle-primary-st6{fill:#472111;}
	.egle-primary-st7{fill:#5B2B1B;}
	.egle-primary-st8{fill:#52291A;}
	.egle-primary-st9{opacity:0.6;fill:#472111;enable-background:new    ;}
</style>
<radialGradient id="SVGID_1_" cx="-74.3466" cy="196.832" r="0.4556" gradientTransform="matrix(48.0131 -113.2452 -72.9495 -30.9287 18003.2109 -2246.1726)" gradientUnits="userSpaceOnUse">
	<stop  offset="0" style="stop-color:#FFFFFF;stop-opacity:0.5"/>
	<stop  offset="0.4" style="stop-color:#FFFFFF;stop-opacity:0.27"/>
	<stop  offset="1" style="stop-color:#FFFFFF;stop-opacity:0"/>
</radialGradient>
<path class="egle-primary-st0" d="M56.3,13.8L13.1,115.6c-2.2,5.3,0.2,11.3,5.5,13.5l62.1,26.3c5.3,2.2,11.3-0.2,13.6-5.5l43.2-101.8
	c2.2-5.3-0.2-11.3-5.5-13.5L69.8,8.3C64.6,6.1,58.5,8.6,56.3,13.8z"/>
<radialGradient id="SVGID_2_" cx="-61.0891" cy="201.0954" r="0.4556" gradientTransform="matrix(20039.1758 -915.9738 -395.0083 -8641.7764 1087741.625 1699881.875)" gradientUnits="userSpaceOnUse">
	<stop  offset="0" style="stop-color:#FFFFFF;stop-opacity:0.5"/>
	<stop  offset="0.4" style="stop-color:#FFFFFF;stop-opacity:0.27"/>
	<stop  offset="1" style="stop-color:#FFFFFF;stop-opacity:0"/>
</radialGradient>
<path class="egle-primary-st1" d="M229.5,54.4L106.3,60c-6.4,0.3-11.3,5.7-11,12l3.4,75c0.3,6.4,5.7,11.3,12,11l123.3-5.6c6.4-0.3,11.3-5.7,11-12
	l-3.4-75C241.3,59,235.9,54.1,229.5,54.4z"/>
<g class="egle-primary-st2">
	<path class="egle-primary-st3" d="M90.2,50.8c0,0-0.1,0-0.4-0.1c-0.2-0.1-0.3-0.1-0.5-0.2c0,0-0.1,0-0.1,0c-0.1,0-0.1,0-0.2,0l-0.2,0.1
		c-0.1,0-0.2,0.1-0.4,0c-0.1,0-0.3-0.1-0.4-0.1c-0.2-0.1-0.3-0.2-0.3-0.4c0-0.2,0-0.4,0.1-0.6c0,0,0.1-0.1,0.1-0.1
		c0,0,0.1,0,0.1-0.1c0.1,0,0.2,0,0.3,0c0.2,0,0.3,0.1,0.4,0.1c0.1,0.1,0.2,0.2,0.3,0.3c0,0,0,0.1,0,0.1l0.1,0c0.1,0,0.7,0.2,1,0.3
		c0,0,0,0,0.1,0c0,0,0,0,0,0.1c0,0,0,0,0,0.1c0,0.1,0,0,0,0.1C90.3,50.8,90.3,50.8,90.2,50.8z"/>
	<path class="egle-primary-st3" d="M91.1,49.7c0,0-0.1,0-0.4-0.1l-0.5-0.2c0,0-0.1,0-0.1-0.1c-0.1,0-0.1,0-0.2,0l-0.2,0.1c-0.1,0.1-0.3,0.1-0.4,0
		c-0.1,0-0.3-0.1-0.4-0.1c-0.2-0.1-0.3-0.2-0.3-0.3c0-0.2,0-0.4,0.1-0.6c0-0.1,0.1-0.1,0.2-0.2c0.1,0,0.2,0,0.3,0
		c0.2,0,0.3,0.1,0.4,0.2c0.1,0.1,0.2,0.2,0.3,0.3c0,0,0,0.1,0,0.1c0.1,0,0.1,0,0.1,0c0,0,0.7,0.2,1,0.3c0,0,0,0,0.1,0c0,0,0,0,0,0.1
		c0,0,0,0,0,0.1c0,0,0,0.1,0,0.1C91.2,49.6,91.2,49.6,91.1,49.7C91.1,49.7,91.1,49.7,91.1,49.7z"/>
	<path class="egle-primary-st3" d="M94.7,50.8c0,0,0.1,0,0.4,0.1c0.2,0.1,0.3,0.2,0.5,0.2c0,0,0.1,0,0.1,0c0.1,0,0.1,0,0.2,0l0.2-0.1
		c0.1-0.1,0.3-0.1,0.4,0c0.1,0,0.3,0.1,0.4,0.1c0.2,0,0.3,0.2,0.3,0.3c0,0.2,0,0.4-0.1,0.6c0,0-0.1,0.1-0.1,0.1c0,0-0.1,0-0.1,0.1
		c-0.1,0-0.2,0-0.3,0c-0.2,0-0.3-0.1-0.4-0.1c-0.1,0-0.1-0.1-0.2-0.1c0-0.1-0.1-0.1-0.1-0.2c0,0,0-0.1,0-0.1l-0.1,0
		c-0.1,0-0.7-0.2-1-0.3c0,0-0.1,0-0.1-0.1c0,0,0,0,0-0.1c0,0,0-0.1,0-0.1C94.6,50.9,94.6,50.9,94.7,50.8z"/>
	<path class="egle-primary-st3" d="M95.2,49.7c0,0,0.1,0,0.3,0.1L96,50c0,0,0.1,0,0.1,0c0,0,0.1,0,0.1,0l0.2-0.1c0.1,0,0.2-0.1,0.4,0
		c0.1,0,0.3,0.1,0.4,0.1c0.2,0.1,0.3,0.2,0.3,0.3c0,0.2,0,0.4-0.1,0.5c0,0-0.1,0.1-0.1,0.1c0,0-0.1,0-0.1,0.1c-0.1,0-0.2,0-0.3,0
		c-0.1,0-0.3-0.1-0.4-0.1c-0.1,0-0.1-0.1-0.2-0.1s-0.1-0.1-0.1-0.2c0,0,0-0.1,0-0.1c0,0,0,0-0.1,0c-0.1,0-0.7-0.2-0.9-0.3
		c0,0-0.1,0-0.1-0.1c0,0,0,0,0-0.1c0-0.1,0,0,0-0.1C95.1,49.8,95.2,49.7,95.2,49.7z"/>
	<path class="egle-primary-st4" d="M88,69.5c1.3,0.5,2.6,1.2,3.7,2c1.6,1.1,2.7,2.8,3.1,4.7c0.4,1.9,0.1,3.9-0.9,5.6c-0.1,0.2-0.3,0.4-0.3,0.6
		c-0.1,0.2-0.1,0.4-0.1,0.7c0.1,0.3,0.3,0.5,0.3,0.8c0,0.5-0.5,0.7-1,0.8c-2,0.7-3.8,2-5.1,3.7c-1.3,1.9-1.6,5.3,1.6,6.4
		c0.6,0.2,1.3,0.6,1.3,1.1c0,0.2-0.1,0.4-0.2,0.6c-0.7,1.6,0.1,3.2,0.5,4.9c1.6,6.7-3,12.9-10.9,13c-7.3,0-16.1-3.6-21.4-8.6
		c-5.3-5-4.5-10.9-0.6-15.2c0.8-0.8,1.7-1.5,2.6-2.2c0.8-0.6,1.9-0.9,2.1-1.9c0-0.3,0.1-0.6,0.1-0.9c0.1-0.2,0.2-0.3,0.3-0.4
		c0.1-0.1,0.3-0.1,0.5-0.1c0.2,0,0.5,0.1,0.7,0.3c0.7,0.3,1.5,0.5,2.3,0.4c0.8-0.1,1.5-0.3,2.2-0.8c1.9-1.4,2.2-3.8,1.9-5.9
		c-0.2-1.1-0.5-2.2-1-3.3c-0.2-0.3-0.8-0.8-0.7-1.2c0.1-0.6,0.3-0.2,0.8-0.4c1.2-0.6,1.3-2.1,1.7-3.2c0.4-1,1-1.8,1.8-2.5
		c0.8-0.7,1.7-1.2,2.7-1.4c2.6-0.6,5.2-0.4,7.6,0.7C85,68.4,86.5,68.9,88,69.5z"/>
	<path class="egle-primary-st5" d="M88,69.4c1.3,0.6,2.6,1.2,3.7,2c1.6,1.1,2.7,2.8,3.1,4.7c0.4,1.9,0.1,3.9-0.9,5.6c-0.1,0.2-0.3,0.4-0.3,0.6
		c-0.1,0.2-0.1,0.4,0,0.7c0.1,0.3,0.3,0.5,0.3,0.8c0,0.4-0.6,0.7-1,0.8c-2.1,0.7-3.9,2-5.2,3.8c-1.3,1.9-1.6,5.3,1.6,6.4
		c0.6,0.2,1.3,0.6,1.3,1.2c0,0.2-0.1,0.4-0.2,0.6c-0.7,1.6,0.1,3.2,0.5,4.9c1.7,6.6-3,12.9-10.9,13c-3.7,0-7.4-0.7-10.8-2.2
		c6.3-2.1,9-5.1,10.3-7.5c3.4-6.1-1-10.8,2.7-17.2c2.9-5.1,7.4-5.2,8.2-9.8C91,74.4,89.4,71.4,88,69.4z"/>
	<path class="egle-primary-st6" d="M72.9,84.6c0.1,0.1-0.2,0.4-0.2,0.5c0,0.3,0.4,0.5,0.7,0.5c0.2,0,0.4,0,0.6-0.2c0.2-0.1,0.3-0.2,0.3-0.4
		c0-0.1,0-0.2,0-0.4c0-0.1-0.1-0.2-0.2-0.3c-0.2-0.3-0.6-0.4-1-0.5c-0.4-0.1-0.9,0-1.2,0.2c-1.1,0.7-1,2.1-1.6,3.1
		c-0.2,0.5-0.5,0.9-0.9,1.2c-0.4,0.3-0.8,0.6-1.3,0.7c-0.3,0.1-0.7,0.1-1,0c-0.2,0-1-0.1-1-0.3c0-0.1,0.1-0.1,0.2-0.2
		c0.2-0.2,0.1-0.7-0.2-0.9c-0.2-0.1-0.4-0.1-0.6-0.1c-0.2,0-0.4,0.1-0.5,0.2c-0.1,0.1-0.2,0.3-0.3,0.4c0,0.2,0,0.3,0,0.5
		c0.1,0.3,0.2,0.5,0.4,0.7c0.3,0.2,0.6,0.4,1,0.5c0.4,0.1,0.8,0.2,1.2,0.1c0.7,0,1.5-0.2,2.1-0.6c0.6-0.4,1.1-1,1.4-1.7
		c0.3-0.7,0.4-1.5,0.6-2.3c0.1-0.2,0.2-0.4,0.3-0.6c0.1-0.2,0.3-0.3,0.5-0.4c0.1,0,0.1,0,0.2,0c0.1,0,0.1,0,0.2,0.1L72.9,84.6z"/>
	<path class="egle-primary-st6" d="M84.8,89c-0.2,0-0.1,0.4-0.2,0.5c-0.1,0.1-0.6,0.1-0.9-0.1c-0.2-0.2-0.3-0.4-0.3-0.6c0-0.2,0-0.4,0.1-0.5
		c0.1-0.1,0.2-0.2,0.3-0.3c0.1-0.1,0.2-0.1,0.4-0.1c0.3,0,0.7,0.1,1,0.3c0.2,0.1,0.3,0.3,0.4,0.4c0.1,0.2,0.2,0.4,0.2,0.6
		c0.2,1.3-0.8,2.2-1.2,3.3c-0.2,0.5-0.3,1-0.2,1.5c0,0.5,0.2,1,0.4,1.4c0.2,0.3,0.4,0.5,0.7,0.7c0.1,0.1,0.8,0.6,0.9,0.4
		c0-0.1,0-0.2,0-0.2c0-0.3,0.4-0.6,0.8-0.4c0.2,0,0.3,0.2,0.5,0.3c0.1,0.1,0.2,0.3,0.2,0.5c0,0.2,0,0.3-0.1,0.5
		c-0.1,0.1-0.2,0.3-0.4,0.3c-0.3,0.1-0.6,0.2-0.9,0.2c-0.8-0.1-1.5-0.5-2-1.1c-0.5-0.5-0.9-1.2-1-1.9c-0.1-0.7,0-1.5,0.2-2.1
		c0.3-0.7,0.9-1.4,1.3-2.1c0.1-0.2,0.2-0.4,0.2-0.6c0-0.2,0-0.4-0.1-0.6C85.1,89.2,85,89.1,84.8,89L84.8,89z"/>
	<path class="egle-primary-st6" d="M73.9,87.5c0.2,0,0.4,0,0.6,0.1c0.3,0.1,0.5,0.2,0.8,0.4c0.1,0.1,0.2,0.2,0.3,0.3c0.2,0.3,0.1,0.6,0.4,0.9
		c0.1,0.1,0.2,0.1,0.3,0.2l1.4,0.5l0.7,0.3c0.2,0.1,0.4,0.2,0.6,0.2c0.1,0,0.1,0,0.1-0.1c0,0,0.1-0.1,0.1-0.1c0-0.1,0.1-0.1,0.1-0.1
		c0.1,0,0.1-0.1,0.2-0.1c0.5,0,1,0.1,1.5,0.3c0.3,0.1,0.6,0.4,0.7,0.7c0.1,0.2,0.1,0.4,0,0.5c0,0.1-0.1,0.2-0.2,0.3
		c-0.1,0.1-0.2,0.1-0.3,0.1c-0.4,0-0.8-0.2-1.2-0.1c-0.1,0.1-0.3,0.1-0.5,0.1c-0.2,0-0.5-0.1-0.7-0.2c-0.4-0.2-0.9-0.4-1.3-0.6
		c-0.5-0.2-0.8-0.3-1.2-0.4c-0.4-0.1-0.6-0.2-0.9-0.3c-0.3-0.1-0.5-0.3-0.7-0.5c-0.1-0.1-0.3-0.3-0.4-0.5c-0.1-0.1-0.2-0.3-0.4-0.4
		c-0.2-0.1-0.4-0.1-0.6-0.2c-0.1-0.1-0.2-0.1-0.3-0.3C73,88.6,73,88.4,73,88.3c0-0.1,0-0.2,0.1-0.3c0-0.1,0.1-0.2,0.2-0.3
		C73.4,87.6,73.6,87.5,73.9,87.5L73.9,87.5z"/>
	<path class="egle-primary-st7" d="M77.4,81.4c0.3,1.3,3.9,3,5.6,2.2c1.1-0.5,0.6-1.6,2.4-6.8l0-0.1c0.8-2.3,1.6-4.6,2.4-6.9
		c0.8-2.3,1.6-4.6,2.4-6.8c0.6-1.7,1.2-3.4,1.8-5.2c0.1-0.3,0.2-0.6,0.3-0.9c0.1-0.3,0.2-0.6,0.3-0.9C92.6,56,92.8,56,93,56
		c0.3,0,0.6-0.1,0.8-0.2c0.3-0.1,0.5-0.3,0.7-0.5c0.2-0.4,0.3-0.9,0.2-1.3c0-0.2,0-0.3,0-0.5l0-0.5l0-1.1c0-0.3,0-0.6,0-0.9
		c0.1-0.3,0.2-0.6,0.4-0.8c0.2-0.3,0.6-0.4,0.9-0.7c0.2-0.3,0.4-0.6,0.5-0.9c0.1-0.5,0.2-1,0.1-1.5c-0.1-0.5-0.3-0.9-0.5-1.4
		c-0.3-0.5-0.8-0.8-1.4-1c-0.5-0.2-1.1-0.2-1.7-0.1c-0.3,0.1-0.6,0.3-0.8,0.5c-0.4,0.4-0.7,0.8-0.8,1.3c-0.1,0.5-0.1,0.9-0.1,1.4
		c0,0.4-0.2,0.8-0.5,1.2c-0.3,0.4-0.7,0.8-1,1.2c-0.4,0.4-0.8,0.7-1.2,1.1c-0.4,0.4-0.6,0.8-0.8,1.3c0,0.3,0,0.7,0.1,1
		c0.1,0.3,0.3,0.6,0.5,0.9l-0.3,0.7L87.3,57l-1.2,2.8l-1.4,3.5l-1.6,3.8c-0.5,1.3-1.1,2.6-1.6,3.8L80,74.6l-1.3,3.1
		c-0.2,0.6-0.5,1.2-1,2.3C77.3,81.2,77.3,81.2,77.4,81.4z"/>
	<path class="egle-primary-st8" d="M72.5,98.3l-0.2-0.1L89,55.5l0.2,0.1L72.5,98.3z"/>
	<path class="egle-primary-st8" d="M89.8,55.8L73.4,98.6l0.2,0.1L90,55.8L89.8,55.8z"/>
	<path class="egle-primary-st8" d="M91.6,56.5L75.3,99.3l0.2,0.1l16.4-42.8L91.6,56.5z"/>
	<path class="egle-primary-st8" d="M90.8,56.2L74.4,99.1l0.2,0.1l16.4-42.9L90.8,56.2z"/>
	<path class="egle-primary-st9" d="M92.3,56.8c0-0.2,0.1-0.4,0.2-0.6C92.7,56,92.8,56,93,56c0.3,0,0.6-0.1,0.8-0.2c0.3-0.1,0.5-0.3,0.7-0.5
		c0.2-0.4,0.3-0.9,0.2-1.3c0-0.2,0-0.3,0-0.5l0-0.5l0-1.1c0-0.3,0-0.6,0-0.9c0.1-0.3,0.2-0.6,0.4-0.8c0.2-0.3,0.6-0.4,0.9-0.7
		c0.2-0.3,0.4-0.6,0.5-0.9c0.1-0.5,0.2-1,0.1-1.5c-0.1-0.5-0.3-0.9-0.5-1.4c-0.3-0.5-0.8-0.8-1.4-1c-0.5-0.2-1.1-0.2-1.7-0.1
		c-0.3,0.1-0.6,0.3-0.8,0.5c-0.4,0.4-0.7,0.8-0.8,1.3c-0.1,0.5-0.1,0.9-0.1,1.4c0,0.4-0.2,0.8-0.5,1.2c-0.3,0.4-0.7,0.8-1.1,1.2
		c-0.4,0.4-0.8,0.7-1.2,1.1c-0.4,0.4-0.6,0.8-0.8,1.3c0,0.3,0,0.7,0.1,1c0.1,0.3,0.3,0.6,0.5,0.9l-0.3,0.7L92.3,56.8z"/>
	<path class="egle-primary-st7" d="M76.7,100.2c0.1,1.3-0.3,2.6-1.1,3.7c-0.6,0.8-1.4,1.6-2.2,2.3c-0.8,0.7-1.3,1.6-1.7,2.6
		c-0.4,1.1-0.8,2.3-1,3.4c-0.1,0.6-0.2,1.2-0.2,1.8c0,0.6-0.2,0.9-0.8,0.9c-0.2,0-0.5,0.1-0.5,0.3c-0.1,0.2,0.1,0.3-0.1,0.5
		c-0.1,0.1-0.5,0.1-0.7,0.2c0,0.1-0.1,0.1-0.1,0.2c0,0.1,0,0.1,0,0.2c0,0.7-0.1,1.3-0.8,1.6c-0.2,0.1-0.4,0.1-0.6,0
		c-0.2,0-0.4-0.1-0.5-0.3c-0.1-0.1-0.2-0.2-0.2-0.4c-0.1-0.1-0.1-0.3-0.1-0.4c0-0.3,0.2-0.6,0.4-0.8c0.2-0.2,0.4-0.3,0.4-0.6
		c0-0.3-0.4-0.5-0.3-0.9c0-0.1,0.1-0.2,0.2-0.2c0-0.1,0-0.2,0-0.3c0-0.1-0.1-0.2-0.1-0.3c-0.4-0.6,0-1.1,0.4-1.6
		c1.3-2.2,2.6-4.9,2.7-7.5c0.1-2.1-1.1-4.9,0.9-6.5c0.4-0.3,0.8-0.5,1.3-0.6c0.5-0.1,1-0.1,1.4,0C74.8,97.9,76.4,98.7,76.7,100.2z"
		/>
</g>
</svg>
