<?xml version="1.0" encoding="utf-8"?>
<!-- Generator: Adobe Illustrator 22.1.0, SVG Export Plug-In . SVG Version: 6.00 Build 0)  -->
<svg version="1.1" id="Layer_1" xmlns="http://www.w3.org/2000/svg" xmlns:xlink="http://www.w3.org/1999/xlink" x="0px" y="0px"
	 viewBox="0 0 251 151" style="enable-background:new 0 0 251 151;" xml:space="preserve">
<style type="text/css">
	.st0{opacity:0.1;fill:url(#SVGID_1_);enable-background:new    ;}
	.st1{opacity:0.1;fill:url(#SVGID_2_);enable-background:new    ;}
</style>
<title>Tõnis-base</title>
<radialGradient id="SVGID_1_" cx="-147.566" cy="-498.2573" r="71.73" gradientTransform="matrix(0.7893 -0.3659 -0.2355 -0.5081 113.5253 -217.0007)" gradientUnits="userSpaceOnUse">
	<stop  offset="0" style="stop-color:#FFFFFF;stop-opacity:0.5"/>
	<stop  offset="0.4" style="stop-color:#FFFFFF;stop-opacity:0.27"/>
	<stop  offset="1" style="stop-color:#FFFFFF;stop-opacity:0"/>
</radialGradient>
<path class="st0" d="M37.4,71.3l111.7-51.8c5.8-2.7,12.6-0.2,15.3,5.6L196,93.1c2.7,5.8,0.2,12.6-5.6,15.3L78.7,160.2
	c-5.8,2.7-12.6,0.2-15.3-5.6L31.8,86.5C29.2,80.8,31.7,73.9,37.4,71.3z"/>
<radialGradient id="SVGID_2_" cx="-395.978" cy="-418.4838" r="71.73" gradientTransform="matrix(0.5097 -0.4798 -0.3838 -0.4078 178.5406 -278.5945)" gradientUnits="userSpaceOnUse">
	<stop  offset="0" style="stop-color:#FFFFFF;stop-opacity:0.5"/>
	<stop  offset="0.4" style="stop-color:#FFFFFF;stop-opacity:0.27"/>
	<stop  offset="1" style="stop-color:#FFFFFF;stop-opacity:0"/>
</radialGradient>
<path class="st1" d="M68.3,79.2l70.8-66.7c4.2-4,10.8-3.8,14.8,0.4l52.9,56.1c4,4.2,3.8,10.8-0.4,14.8l-70.8,66.7
	c-4.2,4-10.8,3.8-14.8-0.4L67.8,94C63.8,89.7,64,83.1,68.3,79.2z"/>
</svg>
