<svg xmlns="http://www.w3.org/2000/svg" viewBox="0 0 48 48"><path d="M43.7 0H4.3C1.9 0 0 1.9 0 4.3v39.3C0 46.1 1.9 48 4.3 48h39.3c2.4 0 4.3-1.9 4.3-4.3V4.3C48 1.9 46.1 0 43.7 0zM14.9 41.4c0 .7-.6 1.3-1.3 1.3H8.2c-.7 0-1.3-.6-1.3-1.3V18.9c0-.7.6-1.3 1.3-1.3h5.4c.7 0 1.3.6 1.3 1.3v22.5zm-4-25.9c-2.8 0-5.1-2.3-5.1-5.1s2.3-5.1 5.1-5.1S16 7.6 16 10.4s-2.3 5.1-5.1 5.1zm32.1 26c0 .6-.5 1.2-1.2 1.2H36c-.6 0-1.2-.5-1.2-1.2V31c0-1.6.5-6.9-4.1-6.9-3.6 0-4.3 3.7-4.4 5.3v12.2c0 .6-.5 1.2-1.2 1.2h-5.6c-.6 0-1.2-.5-1.2-1.2V18.8c0-.6.5-1.2 1.2-1.2h5.6c.6 0 1.2.5 1.2 1.2v2c1.3-2 3.3-3.5 7.5-3.5 9.2 0 9.2 8.6 9.2 13.4v10.8z" fill="#fff"/></svg>