<svg xmlns="http://www.w3.org/2000/svg" xmlns:xlink="http://www.w3.org/1999/xlink" viewBox="0 0 1936 1034" version="1.1" id="svg180"><defs id="defs26"><style id="style2">.cls-2{fill:#d6eef4}.cls-3{fill:#ddeffa}.cls-4{fill:#a1cada}.cls-5{fill:none}.cls-6{fill:#99bdc6}.cls-7{fill:#fff}.cls-8{fill:#e9e9ea}.cls-9{fill:#799fa5}</style><linearGradient id="linear-gradient" x1="968.59" y1="309.68" x2="968.59" y2="328.14" gradientUnits="userSpaceOnUse"><stop offset="0" stop-color="#004a55" id="stop4"/><stop offset="0" stop-color="#004a55" stop-opacity=".98" id="stop6"/><stop offset="1" stop-color="#00434f" stop-opacity=".4" id="stop8"/></linearGradient><linearGradient id="linear-gradient-2" x1="968.59" y1="327.38" x2="968.59" y2="818.04" gradientUnits="userSpaceOnUse"><stop offset="0" stop-color="#01323e" id="stop11"/><stop offset="1" stop-color="#01323e" stop-opacity="0" id="stop13"/></linearGradient><linearGradient id="linear-gradient-3" x1="968.33" y1="389.28" x2="968.33" y2="862.55" xlink:href="#linear-gradient-2"/><linearGradient id="linear-gradient-4" x1="968.5" y1="529.47" x2="968.5" y2="849.55" xlink:href="#linear-gradient-2"/><linearGradient id="linear-gradient-5" x1="968.33" y1="628.26" x2="968.33" y2="852.25" xlink:href="#linear-gradient-2"/><linearGradient id="linear-gradient-6" x1="1" y1="838.9" x2="1936" y2="838.9" gradientUnits="userSpaceOnUse"><stop offset="0" stop-color="#01323e" id="stop19"/><stop offset="1" stop-color="#01323e" id="stop21"/><stop offset="1" stop-color="#01323e" stop-opacity=".95" id="stop23"/></linearGradient></defs><path id="path37" d="M543.16 413.69c-.56.41-1.11.82-1.63 1.28z" class="cls-3" fill="#ddeffa"/><path id="polygon43" class="cls-2" fill="#d6eef4" d="M621.22 391.61l3.59-.32-3.64-.27-.72-2.64-.18 2.64-3.55.27 3.64.32.73 2.51z"/><path id="polygon45" class="cls-2" fill="#d6eef4" d="M818.64 423.65l-2.07.27 2.13.07.57 1.52-.05-1.54 2.05-.23-2.13-.11-.57-1.44z"/><path id="path47" d="M471.421 326.765s11.61 8.235 12.9 13.235c1.29 5 0 31.28 0 31.28l19.89 17.85s-.63 7.76 3.54 13.43 10.91 16.38 10.27 24.78a169.15 169.15 0 0 0 0 19.31l3.17 4.62s-1 5 1.6 6.51c2.6 1.51 8.35 8.82 6.74 13.22-1.61 4.4-6.74 8.61-6.74 8.61s8 35.69 12.2 42c4.2 6.31 9.95 16.8 9.95 16.8s-.64.84 4.82-3.15c5.46-3.99 8.34 1.89 8.66 6.72.32 4.83 1.93 52.06 6.74 58.15 4.81 6.09 7.71 5.25 7.38 9.24-.33 3.99 2.89 23.51 2.89 23.51l7.71 6.51v12.81l3.53 3.35s14.12-18.89 18.61-20.57c4.49-1.68 3.53.63 6.74 1.26 3.21.63 5.14 0 5.14 4.83v26.24s6.74 2.52 7.38 5.88c.64 3.36 0 18.47 2.57 20.57 2.57 2.1-.64 16 4.81 20.79 5.45 4.79 10.96 15.75 12.56 21.45 1.6 5.7-1.6 27.09 0 31.28 1.6 4.19 12.84 23.31 12.84 23.31s1 2.73 5.46-3.15 5.13-6.93 5.13-6.93l1.93-16.79s5.77-17.22 11.87-23.94c6.1-6.72 5.78-11.13 5.78-16.16 0-5.03 2.25-6.3 3.21-9s1.93-17.43 1.93-23.1c0-5.67-3.86-8.81 0-10.28 3.86-1.47 9.95-3.78 12.19-12.39 2.24-8.61 9-40.1 9-40.1s10.27-18.68 14.44-22.25c4.17-3.57 15.41-11.13 17.66-13.65 2.25-2.52 4.81-26.45 4.81-26.45l3.85-21.21s15.73-11.33 16-13.43c.27-2.1 1.93-17.22 3.21-19.74 1.28-2.52 14.44-16.16 14.44-16.16l2.25-23.52 12.2-26.87v-5l8.66-5.67v-5.45s9.63-9.45 12.2-12.6c2.57-3.15 4.81-5.46 10-6.51 5.19-1.05 8-5.88 8-7.14 0-1.26 5.14-23.3 11.88-29.18 6.74-5.88 11.88-11.13 11.23-15.95-.65-4.82 9.95-11.55 9.95-13.86 0-2.31 7.22-7.14 7.22-7.14l6-10.205z" class="cls-4" fill="#a1cada"/><path id="path49" d="M886.48 517.45a19.36 19.36 0 0 1 5 9.83c3.38 1.1 7 2.09 10.71 3l6.32.56a64 64 0 0 0-17.41-7.71 182.5 182.5 0 0 1 32.95 6.54 228 228 0 0 0-29.86-12.08c-2.56-.1-5.13-.14-7.71-.14z" class="cls-5" fill="none"/><path id="path51" d="M618 379c6.25-3 18.32-11.28 26.81-11.94-2.91 2.43-12.14 9.86-14.9 12.11 1.77.17-5.59 15.24-2.77 16.46 1.87.81 1.09 3.61 3.49 4.43 1.84.63 5.14.5 7.19 1.32 5.7 2.28 4.05 5.94 7.57 8.52a9 9 0 0 0 1.81 1c3.78-3 17.05-20.46 24.14-21.59 2.36-.31 8.11-9.12 10.44-10.72 1.48-1.38 5.14-1.38 7.06-2.22 6-2.91 9.3-7.71 16.85-8.1 6-.32 11.38-7.5 17.86-7.29 1.3.3 2.85 1.52 4.77.68 7.5-1.69 13.75-7.81 21.7-9-2.91 4-10.94 8-16.26 11.09-1.27 1-3.4 7.63-4.7 7.33-2.81-.22-5.45-2.12-8.67-1.58-10.7 3.52-24.13 15.69-27.39 23.08 3.19-1.83 10.23-10.34 14.52-11.49a27.27 27.27 0 0 0-4 5.94c6.42-2.37 10-5 13.79-9.23.83-1.52 4.91-2.29 7-3.51a23.2 23.2 0 0 1-6.07 7.16c-2.7 1.55-4.12 4.61-5.49 7.37 3.1.34 5.09 1.4 8.25 3.32 1.79 1.09 6-.36 7.7.46a5.94 5.94 0 0 0 2.93.9 122.36 122.36 0 0 0 7-13.18c-.83 1.52.71 2.73.09 3.88-1.36 3.66-1.88 5.78-1.51 9.48 3.7.82 8.89-4.31 11.29-3a10.94 10.94 0 0 0 2.89 1c4.23.86 10.83-.74 15.35-.12s7.2 1.7 9.88 3.95c3.89-4.66 12.15-5.36 20.31-7.83 1.71-.46 1.64-3 4-3.35 9.87-2 12.48-4.11 17.12-8.61-7.27 2.6-13.62 2.13-20.2 6.18-3.4 2.21-9.67 1.62-13.72 3.68-2.12 1.22-3.56 1.17-5 2.54.38-2.05.72-2.69 2.41-4.44.61-1.14 4.93-1 5.55-2.14 4.63-4.5 12.52-2.82 16.5-7.46-9.61 4.2-19.38 4.65-29.84 9.08-4.69 1.92-7.61 3.24-12.51 5.53-1.72.46-5.18.09-7.1.93 1.24-2.29.72-5.4 2.64-6.24 4.23-3.74 3.23-6 6-8.33 3.36-3.51 13.51-3.3 21.91-3.93a85.75 85.75 0 0 0 13.4-1.75c4.29-1.15 5.7-5.11 9.57-5.49 6.89-.55 11.38 3.34 17.89 4.85.59-2.43 2.71-3.65 6.14-4.57a168.12 168.12 0 0 0 30.43-10.7L846.68 350l-16.75-3.88a48.21 48.21 0 0 0-18.18 6.24c-2-1.74-4.63-3.64-7.2-3-18.24 3.92-35.65-1.83-53.75-.88-8.19.25-15 2.09-23.07.66 7.1-.93 14.43-.94 21.09-2.4 1.92-.84 5.82.06 7.54-.4 5.79-1.23 10.25-4.05 15.6-5.81-.38 2.05-5.93 4.2-4 4.65 4.38 2.73 10.83 1.65 15.7-1.94.41-.76 3-1.45 4.94-1-1.89 2.14-4.22 3.74-6.11 5.87a10.15 10.15 0 0 1 3.22-.53c8.91 2.49 15.88-3.61 25.58-3.94-1.27 1-.55 3.73.51 3.12 3.55-.79 7-1.62 10.47-2.46L784 335.47c-6.64.81-13.37 1.74-20.31 2.76-2.36.31-4.7 1.91-7.27 2.6-4.49 1.53-10.59-.74-16.42-.8-.85.23 0 1.29-1.68 1.75-7.51 1.69-14.16 3.15-18.79 7.64-.41.76-4.32-.14-5.38.47-1.92.84-2.75 2.36-2.07 3.81-11.44-.51-23.31 5.17-30.93 11.11-1.47 1.38-9.56-2.64-16.45-2.09-13.54 2-25.43 1-38.8 1.29-6.37-.21-11.68 7.54-15.56 10.89 3.14.22 4.51 3.85 7.66 4.1z" class="cls-6" fill="#99bdc6"/><path id="path53" d="M761.48 455.27c-1.93-1.69 1.67-3.46.51-5.49-1.61-2.57-4.74-4.45-6.35-7 3.85 3.38 4.62 5.36 5.88 10.66-.16.44 2.52 1.78 2.36 2.22.25 2.83-.7 5.46.91 8 .44.53 2.72-.51 3.32-.42 2.45 5.49 8.46 4.1 14.91 5.56a42.88 42.88 0 0 1-9.75-7.55c5.92 2.59 8.49 5.79 14.38 7.92a5.87 5.87 0 0 0-.83-2.1c-4-2.95-6.34-4.7-9.75-7.55-7.42-6-9-11.85-15.79-17.43a37.17 37.17 0 0 1-5.57-3.05c-1.64-.72-1-2.48-2.65-3.2 2.25.81 2.65 3.2 4.46 3.47 5.24 1.28 5.13 2.19 9.3 4.7.6.09 1.52-.7 2.12-.6a20.38 20.38 0 0 0 12.14 9.95l-1.47-.87c-3.57-2.41-3.34-6.56-7.07-8.53-6.85-3.84-6.82-8-11.56-12.47l2.27.78a43.84 43.84 0 0 0-8.46-8.23c3.29 1.43 6.42 3.31 8.19 5.44 2.37 2.23 1.77 4.46 6.9 4.32-.32.88 1.48 1.16.56 1.94 4.21.66 5.66 3.67 8.79 5.54-.09-3.26-3.66-5.67-6.63-8-1-.62-1-2.48-2.05-3.1-3-2.32-4.21-3-5.66-6-2.15-3.14-1.39-6.51-2.73-9.72-.73-.12-1.21-.44-.83-1.51a8.35 8.35 0 0 1 .83 1.51 8.16 8.16 0 0 1 2.3.36c1.17 2 .66 5.21 2.58 6.9 1.65.72 4.05 1.09 4.93 2.16 1 .63-2.08 1.07-1.35 2.58 2.33 4.07 6.22 5.6 8.39 10.12.45.53 1.81.28 3.17 0 2.45 6.56 6 12 13 16-1.49-2.65-5-5.65-6.59-8-1.76-2.61-1.06-5-2.92-7.49-4.18-5.48-9.86-10.45-11.34-16.89-1-4.5 3.54-3.81-2.93-5.24.48-1.32.51-3.17-.09-3.27-4.65-1.18-5.49-4.1-8.46-6.41-.76.34-1.68 1.13-2.28 1-1.61-2.57-2.87-1-8 8.05a12 12 0 0 0-.23 4.14c-5.57-.4-2-2.16-3.1-6.05.16-.44-2.56.07-3.61-.56-1.32-1.6-.21-4.68-1.69-5.83-1.77-2.14-7.69.2-9.62-1.49A66 66 0 0 0 725 398l-2.64 7.3c7.46 5.73 14.45 11.75 19.54 18.63 1.77 2.13 3.85 3.39 7.62 3.5-1.59 4.4-7 7.74-5.46 12.16 1 2.48 7.18 3 9.39 5.63a12.59 12.59 0 0 0 1 1.23l-.07-.16.07.16c2.52 2.91 2 4.26 3.15 7.3q.28.83.54 1.68c1.15 1.06 2.31 2.09 3.44 3.11 1.07-1.23.18-2.3-.1-3.27z" class="cls-6" fill="#99bdc6"/><path id="path55" d="M674.34 607.24c2.56-2.24 6.4-.75 9-.75 11.53-2.24 14.09-17 24.33-20 12.8-3.74 14.09-13.47 21.77-21 2.56-2.25 9-3.74 10.24-6.74 2.56-3.74 4.27-21.46 8.11-23 11.31-4.84 18.48-40.51 22.22-47.31-5.88-.94-10.28 1.07-15 3.12-7.36 6.74-15.74 13.11-20.05 21.18-2.57 3-11.91 46.72-17 48.22C727 554.57 732 537.69 737.71 528c.87-1.45-15.39-21.84-14.48-22.92-2.65.23 1.51 8.15-1.06 8.36-.64 1-3.65 20.1-1.8 22.9 9.06 13.63-8.41 28.31-10.18 41.25-1.28-.75-5.12 1.5-6.4-.75-3.84 6-5.12 20.71-14.09 24.45 6.4-9 14.09-26.7 16.65-36.43 2.56 3 1.28 5.24 1.28 8.24 5.68-11.29 3.16-44.45 8.16-55.74-2.44 1.08-12.73 5-15.26 5.82-9.8 3.12-9.71 15.61-19.79 18.5-2.85.81-11 11.37-13.18 11.63.21 5.36 8.75 11.5 5.5 15.29a30.43 30.43 0 0 0-3.84 15c2.56-3 9-6 9-9 2.56-9 6.4-15 15.37-21.71 0 3.74 0 8.24-1.28 12 6.4-3.74 10.66-21.46 14.51-26 1.28 14.22-10.68 40.92-26 51.41-5.12 2.24-11.52 0-16.64.74-2.56 0 0 12.48-1.28 14.73-6.4 7.48-16.65 17.71-17.93 26 12.73-5.31 17.85-18.54 29.37-24.53z" class="cls-6" fill="#99bdc6"/><path id="path57" d="M507.33 391.44c4.89 3.23 9.75 6.49 14.12 10 6.43 5.32 13.83 9.95 20.26 15.27-6.19-3.47-12.94-5.4-19.9-7.76 3.45 4.5 8.85 7.65 14.24 10.81 1 .74 1.24 2.59 4.22 3.4-1.92 2.76-3.24 5.39-1.8 8.41.59-.12 1.39.19 2 .07 2.38.93 1.06 3.57 2.44 3.76 2.6 1.36 5.31-1.09 8.46-1.26-2.5 2.88-5.6 5.88-6.51 9.38 1.77-.36 3.74-.29 4.72-1 3.06-4.42 5.53-8.71 12.6-10.16 2.06 6.91 1.16 14 .17 21.06a3.16 3.16 0 0 1 1.29.89c3.21 2.66 4.3 7.65 7.66 7.9 5 .88 9.52 2.31 14.47 3.19-1.92-6.7 2.29-12.78 0-17.52-2.86-4.62-4.95-10.35-9.79-15-2.41-2.34-8.16-3.53-9.43-7.53-.41-.87-4.74-.45-5.95-1.62-1.63-2-2.07-4.32-3.1-6.47-3.54.72-6.34-1.07-8.93-2.43-5.81-4-8.08-8.76-16.42-11.32-2.18-.5 1.5-3.62-2.09-5.72-4.81-3.28-10.79-6.32-13.65-10.94-.41-.86-2.77-.38-3.57-.69-6.19-3.46-7.87-8.33-10.73-12.95a36.7 36.7 0 0 0 13 8.23c4.57 1.43 5.45 6 8.87 9.07 1.8 1.05 4.95.88 5.75 1.19 3 2.22 4.86 6.1 7.67 7.9 7.63 6.48 15.27 13 26 17.86.21.44 2.39.94 2.6 1.37 5.8 4 9.25 8.52 16.41 11.31-3.86-5.36-10.25-9.26-14.5-14.07 4.74.45 9.05-1.38 13.58-1.37-7.57-3.65-15.23-2.08-23.19-5.19-1.38-.19-2.59-1.36-3.8-2.53 6.27-1.76 14 .91 19.47-2.57-10.31-2.62-22.68-.09-30.5-5.59 9.11 1.45 17.77.62 26.64.23-4.36-1-10.08-.78-14.26-2.76-7.16-2.8-15.8-.56-20.66-6.66 10.31 2.62 20.54 1 30.82 2.21 2 .07 13.62.52 16.42 2.31 3.39 1.68 1.51 5.85 4.52 8.07 5 3.71 3.92 8.2 8.93 11.9 2 1.49 6.13.64 8.31 1.14 3 .81 2.68 5.61 4.87 6.11 5.74 1.19 16.38-2.73 22.27-3.93 2.85-.59 5-1.94 7.66-2.57-8.77 6.57-12 13.2-11.81 21.47.19 7-5.29 12.49-3.43 19.62.35 1.36 2.28 3.22 2.05 4.59-.23 1.37-2.92 2-3.27 3.53-.31 1.39 1.76 3.14 1.49 4.7-.41 2.41-5.85 3.17-7.53 4.9-6.56 6.73-17.24 20.42-20.44 28.6-1.26 3.24-15.6 10.74-21.18 15.8-.8.73-10.63 13.55-11.91 13.85l-3.91 2a17.25 17.25 0 0 0-9.25 1.92c-2.36 1.32-4.78 2.56-4.78 2.56s-11-17.3-13.32-25.09c-2.32-7.79-8.83-33.7-8.83-33.7s11.25-4.67 4.83-16.5a31 31 0 0 0-4.83-5.33c-2.12-1.58-1.6-6.51-1.6-6.51l-3.17-4.62z" class="cls-6" fill="#99bdc6"/><path id="path59" d="M492.806 326.727s-4.076 3.783-4.496 6.143c-.42 2.36 3.22 3.75 2.25 6.39-.97 2.64 5.83-6.28 5.83-6.28s7 2 5.72 7.26c-1.28 5.26 15.14 14.61 15.14 14.61s-1.49-10 2.13-13.08c0 0-4.24-6.88-9.37-8.51a8.4 8.4 0 0 1-5.74-6.56z" class="cls-6" fill="#99bdc6"/><path class="cls-6" d="M538.41 326.67s-5.7 5.71-6.06 8.52c-.36 2.81 3.6 6.1 0 9.4-3.6 3.3 7.08-2.16 6.06-6.26-1.02-4.1 8.11-11.66 8.11-11.66z" id="path61" fill="#99bdc6"/><path class="cls-6" d="M584.91 323.58c-8.63 3.37-14.62 7.73-20.49 12q8.88-4.35 18.58-8.35l-6.42 4.5c2-1 2.87-2.38 4.28-3.59a11.13 11.13 0 0 1 7.12-2.4 31 31 0 0 0 3.85 0 4.4 4.4 0 0 0 3.1-1.74z" id="path63" fill="#99bdc6"/><path class="cls-4" d="M709.24 340.83c-1.69-1.71-5.33-2.16-7.69-1a19.19 19.19 0 0 0-1-9 43.18 43.18 0 0 1-13.23 4.5l1.76-6.1c-5.62.58-11.31 1.17-16.57 2.75-2.36.71-4.6 1.61-6.94 2.35a55.78 55.78 0 0 1-15.44 2.57 22.07 22.07 0 0 0-4.24.34c-3.18.74-5.09-22.19-6.82-20.1a117 117 0 0 1-21.61 20 48 48 0 0 1 3.43-13.49l-8.68 2.91c-.12-3.8 3.82-7.46 8.9-8.26a10.91 10.91 0 0 0 2.54-.53c1.18-.5 1.76 23.73 2.34 22.82a28.48 28.48 0 0 1 10.36-9.4l-1.66 4a9 9 0 0 1 5.23-.65 6.2 6.2 0 0 0 2 .2 3.65 3.65 0 0 0 1.68-.83l10.91-8c4.14 2.12 9.92.74 14.17-1.26s8.3-4.64 13.32-5.06c2.82-.23 6 .21 8.25-1a10.44 10.44 0 0 0 2.5-2.19 21.67 21.67 0 0 1 7.36-4.81l.52 3.22 15.73-4.33a11 11 0 0 1 2.43-.48c1.4-.05 2.74.4 4.14.49 1.4.09 3.1-.43 3.21-1.45l6.84 1.63a22.31 22.31 0 0 1 8.45 1c2.07.69 4.77 1.62 6.34.41.73-.57.86-1.42 1.41-2.08 1-1.15 3.1-1.53 4.91-1.25a15.62 15.62 0 0 1 4.87 1.85l18 9.28c6 3.1 12.08 6.26 16.71 10.44l-21.34-.08c-3 0-6.17-.07-8.54-1.38a6.46 6.46 0 0 0-3 4.57 76.33 76.33 0 0 1-5.25-4.23c-5.68 3-4.77-15.89-7.91-11.32-2.47 3.61-7.38 6-10.49 9.29a27.42 27.42 0 0 1 4-6.37c-5-2.36-9.58 20.17-13.83 17.17l1.92 3.52c-.69-2.61-3.12-4.95-6.37-6.14l-1.55 2.43a15.5 15.5 0 0 0-4.12-3.09z" id="path83" fill="#a1cada"/><path class="cls-4" d="M568.94 339.995c-4.65 2.78-9.29-19.68-13.93-16.9 3.27-3 5.75 18.7 7.24 15l-4.61 2.49.5-2.8c-.87 1.48-4.33.83-5-.7-.67-1.53.36-3.17 1.45-4.57a80.86 80.86 0 0 1 14.76-14.42 5 5 0 0 0 1.9 2.19l7.51-8.73c2.11-2.46 4.31-5 7.59-6.63a36 36 0 0 1 8.38-2.53q-1 3.24-2 6.47c-1.73 5.23-3.62 10.49-6.94 15.3-4.1 5.94-10.23 11-16.28 15.94.08.18.44-.12.22-.22a.77.77 0 0 0-.79.11z" id="path85" fill="#a1cada"/><path class="cls-5" d="M738.93 333.79c.76-.37 1.52-.76 2.26-1.15l-5.4.63z" id="path121" fill="none"/><path class="cls-5" d="M640.4 338.85l3.59-.88a5 5 0 0 1-.8-.49c-.92.47-1.85.92-2.79 1.37z" id="path123" fill="none"/><path class="cls-5" d="M654.09 335.54l.4-.09c0-.19-.11-.38-.16-.57a2.61 2.61 0 0 1-.24.66z" id="path125" fill="none"/><path id="polygon33" class="cls-2" transform="translate(0 -2.77)" fill="#d6eef4" d="M538.96 239.79l2.33-.2.62-2.77-.07 2.8 2.27.52-2.33.14-.63 2.92.05-2.95z"/><path id="polygon35" class="cls-2" transform="translate(0 -2.77)" fill="#d6eef4" d="M650.09 299.58l-2.13-.19-.56-2.52.06 2.56-2.07.46 2.13.14.57 2.66-.05-2.7z"/><path id="polygon39" class="cls-2" transform="translate(0 -2.77)" fill="#d6eef4" d="M695.42 253.66l6.72-1.08 1.34-8.43.24 8.43 6.65 1.08-6.73.91-1.34 8.88-.32-8.88z"/><path id="polygon41" class="cls-2" transform="translate(0 -2.77)" fill="#d6eef4" d="M570.29 290.05l-3.99.62-.79 4.81-.14-4.81-3.94-.62 3.98-.52.8-5.06.19 5.06z"/><path id="path65" d="M887.85 326.7l-29-31.6c-2.08-2.27-10-11.79-11.1-14.83a27.4 27.4 0 0 0-5.58-9.44l-5-6.72-2-3.84.07.1-.07-.05c-1.65 0-3.29 0-4.92-.17a42.601 42.601 0 0 1-5.24-.67c-1-.2-2.06-.46-3.07-.76a27.08 27.08 0 0 1-3.75-1.44 25.77 25.77 0 0 1-5.22-3.68c-.88-1-1.72-2.1-2.51-3.18-2-2.74-1.51-9.1-4.89-10.8-2.21-1.11-5.37.23-7.3-.83-2.18-1.2-2.41-4.53-4.19-5.43-1.78-.9-5.21.17-7.31-.16-10.95-1.69-17.25-10.54-27.59-14-12.13-4.08-20.83-11.13-27.79-24.15l-.71.2c-3.07.83-6.21-4.65-9.28-3.92a28.93 28.93 0 0 0-4.81 1.54c-3 1.31-4.7 2.31-6.5 2.73-1.8.42-4.07-7.11-6.42-7.68-6.53-1.6 2-3.95-2.59-6.86-.79-.51-1.88-14.45-2.59-14.65-3.17-.88-9.9-14.73-12.45-12.79-1.42 1.07-6.76-4.55-8.46-3.92-.63.23-8.55 1-9.2 1.07-1.43.21-4 3.44-7.8 9.2a12.35 12.35 0 0 1-8 5.49c-.87.35.24 7.26-.57 7.89-1.32 1-2.08 3-3.45 3.71-5.28 2.95-12.16 30-17.59 32.73a16.23 16.23 0 0 1-4 1.49c-3.1.62-5.52-.38-9.47-2.34-2.25-1.11-5.46 2.89-7.5 2.19-2.04-.7-2.66-.66-3.22-.37a7.82 7.82 0 0 1-3.52 1.63 10.28 10.28 0 0 1-1.84.21c-3.9.06-6.18 10.52-9.1 9.33a7.71 7.71 0 0 0-3.24-.59c-4.43.19-9.84 5.36-14.41 6.07a13.44 13.44 0 0 1-11.34-2.76c-.66-.49-1.35-1-2.07-1.65-.35.49-1.07 2.14-1.51 2.36a11.65 11.65 0 0 0-1.85 1.18c-3.6 2.74-7.24 7.88-10.36 10.58-3.47 3-7.25 3.21-10.46 6.27-7.2 6.87-13.28 15.21-22.51 19.46-3.22 1.48-9.49.76-10.33.53-.61-.25-4 12-7.5 23.29-2.65 8.44-5.82 16.69-5.82 16.69l-19.44 23.34 306.29.03c16 .002 31.9-.15 47.83-.03h56.29zm-353.44-53.57c.21-.95.42-1.89.62-2.84a30.63 30.63 0 0 1 3.35-9.5l.17.08v-.37c1.62-2.61 3.93-5 7.59-8.12-8.28 7.07-9.66 11.55-11.73 20.75zm22.1 2.83c.57-.5 1.11-1 1.61-1.56 3.75-4 5.87-4 10.13-6.46-4.83 2.83-6.91 3.78-11.74 8.02zM668 287.04l.09-.24zm2.26-6.54c1.06-3.52 2-7.08 3.1-10.58-1.16 3.5-2.09 7.06-3.15 10.58zm5.8-17.74c.64-2 4.26-14 7.54-16.26.25-.17.5-.34.75-.49-3.51 2.13-7.65 14.62-8.35 16.75zm53.67-62.72a87 87 0 0 1-2 9c1.2-4.58 1.94-9.7 2.84-13.22-.37 1.35-.64 2.79-.89 4.22z" class="cls-7" fill="#fff"/><path id="path67" d="M777.77 326.7c18-.05 35.89-.22 53.83 0h56.25s-36.78-35.51-41.73-39.02c-11-7.78-27.76-26.63-35.62-37.32-2-2.74-1.51-9.1-4.89-10.81-2.21-1.1-5.37.24-7.3-.83-2.18-1.2-2.41-4.53-4.19-5.42-1.78-.89-5.21.16-7.31-.16-10.95-1.7-17.25-10.55-27.59-14-12.13-4.08-20.83-11.13-27.79-24.16.13 3.22 1.45 6.3 1.45 9.73 0 7.07 2.53 20.75-.92 26.41-1.38 2.12-8.29-.71-10.36 2.12-1.38 2.13-1.38 7.08-4.15 8.49-6.9 3.54-13.12 0-20 3.54-4.14 2.13-9.67-2.12-13.12.71-3.46 2.12-7.6 14.62-8.29 16.74-4.84 10.62-5.53 22.65-12.44 32.55 10.37-2.12 9.68-12.74 15.89-19.1 4.15-3.54 5.53-9.91 8.29-14.15-2.07 9.9-3.45 19.81-8.29 29 10.36-5.66 10.36-20.52 17.27-30.43 3.46 7.78-2.76 14.86-2.07 22.64 2.07-.71 4.14-1.41 4.84-2.83 6.9-7.07 6.9-16.27 14.5-22.64-1.38 5 0 10.61-2.07 15.57 8.29-2.13 15.88-7.08 24.86-8.49-6.21 6.36-13.81 7.78-21.41 12-.69 0-2.07 2.13-2.76 2.13-10.36 9.2-22.11 14.15-33.85 19.1-3.48 2.16-9.7 2.16-13.8 4.26-.69.7-1.39 4.24-3.46 5.66-5.52 2.12-12.43.71-15.88 4.95a38 38 0 0 1-15.89 9.91c7.6-.71 15.19 0 22.1-5 .69-.7.69-3.53 2.07-3.53 7.6-.71 13.82-5.66 20-9.2 4.14-2.83 7.59 2.83 9 .7 6.21-7.78 13.81-7.78 21.41-12 2.76-2.13 6.22-4.25 6.22-8.49 3.45 0 6.9.7 10.36 0 2.07-.71 2.76-5.66 4.14-5.66 6.22.7 9.67-5 13.82-6.37 8.29-2.83 17.27-2.13 24.86-2.83 7.6 0 15.2 7.78 25.56 9.2-2.76 5-6.22 9.19-9 14.15-1.38 3.53-9 2.12-13.81 4.24a3.4 3.4 0 0 0-1.7.94c-10-4.79-20.07-9.47-30.77-10.84 0 8.49 5.53 13.44 11.05 19.1.69 1.42 0 3.54 0 5.66-4.83-2.83-8.29-7.78-11.74-12-.69 3.54 2.07 7.79-.69 9.91-.69 1.41-4.14-1.42-6.22.71 0 .7-.69 1.41-.69 2.12-4.83 0-8.29-2.83-11.74-6.37-2.07 2.83-4.83 2.12-6.22 2.83-6.21 4.25-12.43 8.49-20 9.91 5.53-6.37 10.36-12.74 17.27-17.69-9.67 4.24-18.65 9.9-28.32 14.15a202.35 202.35 0 0 0-18.84 10.21z" class="cls-4" fill="#a1cada"/><path id="path69" d="M721.43 191.23c-4.35 7.35-11.5 25.64-19.17 30 1.5-5.12 6.41-20.92 7.86-25.69-1.75.41-2.5-27.31-5.79-28.24-2.18-.62-2.86-5.55-5.55-6-2.06-.33-5.1 1.15-7.45.57-6.53-1.59-6.85-8.25-11.48-11.17a8.63 8.63 0 0 0-2.24-1c-2 6.43-5.63 40.31-11.73 44.9-2.07 1.41-3 18.15-4.38 21.69-.69 2.83-4.14 4.25-5.52 6.37-4.15 7.08-4.84 16.27-11.75 19.81-5.52 2.83-6.9 16.75-13.12 18.87-1.38 0-3.45-1.42-4.83.71-6.22 5.66-9 18.16-15.89 23.11.69-7.78 6.22-17.45 9.67-24.53.69-2.12-.69-13.91.69-13.91 2.76-.71 6.22 1.41 9-.71 8.29-9.91 14.73-35.14 14-48.58-2.07 4.24-4.37 21-7.82 24.52a62.38 62.38 0 0 0 .69-11.32c-4.84 6.37-6.91 12-8.29 20.52 0 2.83-3.46 5.66-4.84 8.49a46.72 46.72 0 0 1 2.07-14.15c1.76-3.59 1.53-9.2 1.42-14.27-3.1.63-5.52-.37-9.47-2.33-2.25-1.11-5.46 2.88-7.5 2.18-2.04-.7-2.66-.65-3.22-.36-.16 8.92-.37 15.33.12 24.45 0-2.83-2.07-4.25-2.07-6.37-.58-6.56-1.17-10.26-3.41-16.25-3.9.07-6.18 10.53-9.1 9.34a7.41 7.41 0 0 0-3.24-.59c-4.43.19-9.84 5.36-14.41 6.06a13.43 13.43 0 0 1-11.34-2.75c-1.28 9.18-8.7 13.51-15.14 20.7-1.38 1.41 0 5.66-2.07 7.07-8.29 7.08-9.67 11.56-11.74 20.76 5.52-7.08 11.74-8.73 15.88-17.93 2.07-5 8.29-6.36 11.05-11.32 1.39-2.83 2.77-3.3 3.46-6.13a16.7 16.7 0 0 1 0 8.25c0 2.13-4.15 3.54-4.15 5.67-2.07 9.19-10.36 9.43-11.74 18.63 6.91-10.61 15.89-15.1 23.49-26.42 3.45-4.95 5.52-8.25 9-13.91 1.38-1.42 4.83-2.13 6.21-4.25 0 4.25 2.08 9.2.69 11.32-2.07 7.79 0 11.09-1.38 16-1.38 7.08-11 10.61-18.65 14.86-4.83 2.83-6.91 3.77-11.74 8-3.45 3.54-2.76 10.61-6.22 12.74-6.21 3.53-12.43-1.18-19.34-1.18.69 4.24-.69 7.07-3.45 9.9-9.08 8.46-16.42 18.71-23.23 29.34h34.14a42.798 42.798 0 0 0 14-17.31c2.77 2.13 6.22 4.25 8.29 2.13 15.2-13.45 34.54-10.62 51.12-19.11 7.6-3.54 13.12-9.2 21.41-9.91-6.21 4.25-13.12 7.08-18.65 12-1.38 2.13-5.52 2.13-6.9 3.54-4.84 4.25-7.6 10.62-11.75 15.57-.69-3.54 3.46-9.2 1.38-9.2-5.52-2.83-11 1.41-13.81 9.2 0 1.41-2.07 3.54-4.15 3.54.69-4.25 2.08-7.79 2.77-12-.69.7-2.08 2.12-2.77 2.12-9.67-.71-13.12 12-22.1 16.27.69-2.12-1.38-6.36-2.07-4.95-2.94 2.66-5.8 5.39-8.61 8.11h40.61c5.84-3.88 11.72-8.03 17.73-12.35 2.07-1.42 3.46-5 5.53-7.08 3.45-4.25 10.36-2.83 15.89-4.95.69-.71-.7-2.13.69-3.54 6.21-5.66 11.74-10.61 13.81-19.81 0-1.42 4.14-1.42 4.84-2.83a6.57 6.57 0 0 0 0-7.08c11-3.54 19.34-17.45 23.48-30.19.69-2.83 10.36.71 16.58-2.83 11.74-8.49 23.49-11.32 35.92-17 6.11-2.09 7.16-16.9 9.11-23.93-3.12.86-6.26-4.61-9.33-3.88z" class="cls-4" fill="#a1cada"/><path id="path71" d="M835.21 260.23a1.77 1.77 0 0 0 .33.34c.82 1.28 1.22 3.2 2.44 4.48 1.63 1.92 3.66 3.52 4.48 6.08-4-3.73-8.41-7.19-12.17-11.07 1.63.17 3.27.17 4.92.17z" class="cls-4" fill="#a1cada"/><path id="path73" d="M825.05 259.43l1.63.28c3 4.62 7.33 8.28 10.49 12.42a37.5 37.5 0 0 0 9.76 8.63 5.35 5.35 0 0 1 2.81 4.58c-.2-.36-.55-.71-.77-1.06-9.06-7.71-18.11-15.15-23.92-24.85z" class="cls-4" fill="#a1cada"/><path id="path75" d="M846.12 287.69a7.4 7.4 0 0 0-3.66-4c-2.85-1.6-7.33-1-9.77-2.56-1.62-1 .82-4.16-2-5.44-4.47-1.6-6.1-4.47-7.32-7.67-2.26-5.55-7.06-9.86-10.74-14.76a29.11 29.11 0 0 0 5.63 4 27.08 27.08 0 0 0 3.75 1.44c1.16 2 2.36 4.07 3.39 6.1.41 1 2.44 1.28 3.26 2.56 2.44 4.48 3.66 8.95 10.57 10.87 1.22.32.82 1.6 1.63 2.56 5.29 4.48 11.39 8 14.64 13.43a36.8 36.8 0 0 0-9.38-6.53z" class="cls-4" fill="#a1cada"/><path id="path77" d="M820.49 294.23c2 1.28 3.25 3.51 5.29 4.15a93 93 0 0 1 14.64 6.08c1.22.64 2.85.32 4.48.32-2.85 4.48 4.07 7.35 7.73 10.23.4 0 .4 1.28.81 1.92 2.44 3.84 9.36 3.84 11.8 8-2.85-2.55-7.33-3.51-11-5.75-1.22-.64-2-1.92-3.25-3.52-.41-1-2.85-1.28-3.66-2.24-2.44-1.6-3.26-3.51-6.1-5.11-1.22-.64.81-1.6 0-1.92-2-1-4.88-1.28-6.92-2.24a18.29 18.29 0 0 1 4.07 5.44c-3.26-2.88-6.51-5.12-9.36-8.64-.81-1.28-3.66-1-5.69-1.92-2.49-1.24-5-2.38-7.54-3.37a12.3 12.3 0 0 0-2.23-2.38 3.13 3.13 0 0 0-.63-.47c2.67.3 5.75-.04 7.56 1.42z" class="cls-4" fill="#a1cada"/><path id="path79" d="M835.54 316.57c.82 2.56 1.22 6.4 4.48 7.35-.41.32.4 1-.41 1-6.92-1.6-6.1-7.35-10.58-10.55a28.12 28.12 0 0 1-2.85-2c4.53 1.13 9 2.49 12.77 5.08 1.95 1.85 2.45 4.17 4.32 6.22-2.85-2.3-5.69-4.22-7.73-7.1z" class="cls-4" fill="#a1cada"/><path id="path81" d="M782.66 297.39c1.63 3.83 5.29 6.07 9.76 7.67 2.85 1 3.66-1.6 5.7-2.56 0 1 1.22 1 1.62 1 3.26 1.28 6.51.64 9.77 1.28 2 .64 2.44 3.52 4.47 4.16a101.23 101.23 0 0 0 12.2 3.4 28.12 28.12 0 0 0 2.85 2c4.48 3.2 3.66 8.95 10.58 10.55.81 0 0-.64.41-1-3.26-.95-3.66-4.79-4.48-7.35 2 2.88 4.88 4.8 7.73 7-1.87-2.05-2.37-4.37-4.32-6.22l.66.47c-4.07-3.52-9.36-6.4-11-11.51-1.22-2.24-5.7-3.2-8.14-4.8-2-1.56-3.18-3.9-4.69-5.93 2.56 1 5.05 2.13 7.54 3.37 2 1 4.88.64 5.69 1.92 2.85 3.52 6.1 5.76 9.36 8.64a18.29 18.29 0 0 0-4.07-5.44c2 1 4.88 1.28 6.92 2.24.81.32-1.22 1.28 0 1.92 2.84 1.6 3.66 3.51 6.1 5.11.81 1 3.25 1.28 3.66 2.24 1.22 1.6 2 2.88 3.25 3.52 3.66 2.24 8.14 3.2 11 5.75-2.44-4.15-9.36-4.15-11.8-8-.41-.64-.41-1.92-.81-1.92-3.66-2.88-10.58-5.75-7.73-10.23-1.63 0-3.26.32-4.48-.32a93 93 0 0 0-14.64-6.08c-2-.64-3.26-2.87-5.29-4.15-1.81-1.42-4.89-1.08-7.55-1.43-2-1.19-6.31-1.42-9.94-1.13 2-4.8-3.26-8.31-5.29-12.47-1.44-2.26 1.25-5.26 3.3-8.14 3 5.54 5.14 11.52 11.34 15.17 3.26 1.92 8.55-.64 11.39 1.6 3.67 3.52 9.77 3.52 15.06 4.16-3.26 1.92-.82 4.48 1.62 5.75 7.33 4.16 16.27 8.32 19.53 14.71 1.63 3.2 8.13 2.88 11 5.12 3.61 3.12 7.13 6.29 11 9.15h-55.87a39.92 39.92 0 0 0-8.43-3.4c-2-.31-4.47-1.91-4.47-3.51 0-3.52-3.66-6.4-6.1-6.72-9.77-1.6-18.72-4.47-26-9.91-4.88-4.16-12.61-5.75-17.49-10.23 6.06 1.67 12.16 6.46 19.08 4.55z" class="cls-8" fill="#e9e9ea"/><path id="path87" d="M471.48 293.47l-1.31.36c.45-.1.88-.23 1.31-.36z" class="cls-3" fill="#ddeffa"/><path id="path89" d="M508.84 278.63a15.37 15.37 0 0 0-2.06 1.52c1.68 0 2.05-.67 2.06-1.52z" class="cls-7" fill="#fff"/><path id="path91" d="M561.29 222.9c-.35.49-1.07 2.14-1.51 2.36a11.65 11.65 0 0 0-1.85 1.18c-4.26 9.33-11.57 15.55-20.76 20.93.69 1.41 1.38 2.83.69 3.54-6.22 4.24-7.6 9.19-13.12 13.44-2.08 1.42-3.46-1.89-4.15-.47-1.38 1.41-1.38 4.25-2.07 6.37-2.07 2.83-6.91 3.54-9.67 5.66-.36.72 0 1.82 0 2.72 4.46-2.8 9.65-3.31 13.82-7 4.15-2.83 4.84-4.48 7.6-8.73.69-1.41 3.45-2.12 4.15-3.53 2.76-4.25 5.52-9.2 10.36-10.62-2.08 4.25-6.22 7.08-6.22 12-1.38-.71-1.38 1.42-2.76 1.42 1.38 5.66-2.08 5.9-4.84 9.43-2.76 2.83-4.83 7.08-6.21 11.32A66.81 66.81 0 0 1 535 270.23c1.81-8.23 3.68-11.57 11.12-17.92 2.07-1.41.69-5.66 2.07-7.07 6.44-7.19 13.86-11.52 15.14-20.71a38.18 38.18 0 0 1-2.04-1.63z" class="cls-7" fill="#fff"/><path id="path93" d="M560.65 251.61c0-2.12 4.15-3.53 4.15-5.66a16.7 16.7 0 0 0 0-8.25c-.53 2.17-1.47 2-2.5 4.15-1.45 7.17-5.92 13.18-12 17.55 0 .7 1.38 1.41 1.38 2.12-2.76 5.66-4.14 5.9-4.83 12.27 0 2.12-3.45 3.53-4.15 6.36.7-2.12 3.46-2.12 4.15-4.24 1.55-2.39 2.23-5 3.26-7.45-.4.59-.8 1.19-1.19 1.79 1.37-9.2 9.66-9.44 11.73-18.64z" class="cls-7" fill="#fff"/><path id="path95" d="M587.59 225.67a8.12 8.12 0 0 1-3.27 2.47c-1.81 7.43-6 11.58-8.47 19.23a59.51 59.51 0 0 0 9-13.92c-.69 7.79 2.76 13.92-4.84 18.87 0 .71 2.08 2.83 1.39 3.54-3.46 2.83-7.6 2.83-11.75 4.24-.69 0-2.07 3.54-2.76 3.54-7.6 3.54-10.36 5.19-14.51 10.85 3.46-2.83 5.53-7.07 9-9.9 2.77-2.13 6.22 1.18 8.29-1.66 1.38-.7 2.77-2.12 4.84-1.41-1.27 1.67-2.54 3.39-3.84 5.09 7.11-3.73 15-7.23 16.27-13.58 1.38-5-.69-8.26 1.38-16 1.35-2.16-.73-7.12-.73-11.36z" class="cls-7" fill="#fff"/><path id="path97" d="M569.63 262.93c-2.07 2.84-5.52-.47-8.29 1.66-3.45 2.83-5.52 7.07-9 9.9 4.15-5.66 6.91-7.31 14.51-10.85.69 0 2.07-3.54 2.76-3.54 4.15-1.41 8.29-1.41 11.75-4.24.69-.71-1.39-2.83-1.39-3.54 7.6-5 4.15-11.08 4.84-18.87a59.51 59.51 0 0 1-9 13.92c2.49-7.65 6.66-11.8 8.47-19.23a11.7 11.7 0 0 0-2.94 1.77c-3.46 5.66-5.53 9-9 13.92-7.17 10.68-15.57 14.76-22.3 24.63-1 2.46-1.71 5.06-3.26 7.45-.69 2.12-3.45 2.12-4.15 4.24.7-2.83 4.15-4.24 4.15-6.36.69-6.37 2.07-6.61 4.83-12.27 0-.71-1.38-1.42-1.38-2.12 6.09-4.37 10.56-10.38 12-17.55-.307.667-.64 1.333-1 2-2.76 5-9 6.37-11.05 11.32-4.14 9.2-10.36 10.85-15.88 17.93.21-1 .42-1.9.62-2.84A66.81 66.81 0 0 0 524.63 283c1.38-4.24 3.45-8.49 6.21-11.32 2.76-3.53 6.22-3.77 4.84-9.43 1.38 0 1.38-2.13 2.76-1.42 0-4.95 4.14-7.78 6.22-12-4.84 1.42-7.6 6.37-10.36 10.62-.7 1.41-3.46 2.12-4.15 3.53-2.76 4.25-3.45 5.9-7.6 8.73-4.17 3.66-9.36 4.17-13.82 7 0 .85-.38 1.52-2.06 1.52a15.37 15.37 0 0 1 2.06-1.52c0-.9-.35-2 0-2.72 2.76-2.12 7.6-2.83 9.67-5.66.69-2.12.69-5 2.07-6.37.69-1.42 2.07 1.89 4.15.47 5.52-4.25 6.9-9.2 13.12-13.44.69-.71 0-2.13-.69-3.54 9.19-5.38 16.5-11.6 20.76-20.93-3.6 2.73-7.24 7.88-10.36 10.57-3.47 3-7.25 3.21-10.46 6.28-7.2 6.86-13.28 15.2-22.51 19.46-6.46 3-6.5-2.42-7.13 5.38-2.08 0-4.84.7-4.84 1.41-.69 5.66-4.83 7.78-7.6 12 .69.71 2.08 1.41 2.08 2.12-3.46 2.83-.88 3.61 13.81 5.66a25.44 25.44 0 0 0 6.22-1.41c.69 6.36-2.77 3.06-8.29 5.89-.69 0 .69 2.83 0 4.25-2.07 2.12-6.91 2.12-8.29 4.25-2.76 2.83 2.07 8.49 0 11.32-2.95 4.104-5.427 8.48-7.634 13.027l11.464-.027c6.81-10.62 14.03-20.85 23.11-29.3 2.76-2.83 4.14-5.66 3.45-9.9 6.91 0 13.13 4.71 19.34 1.17 3.46-2.12 2.77-9.19 6.22-12.73.57-.51 1.11-1 1.61-1.57-.08.05-.15.11-.23.15.08 0 .15-.1.23-.15 3.75-4 5.87-4 10.13-6.45.78-.43 1.57-.86 2.38-1.28 1.3-1.7 2.57-3.42 3.84-5.09-1.95-.74-3.35.68-4.72 1.38z" class="cls-8" fill="#e9e9ea"/><path id="path99" d="M606.93 235.11c-.49-9.13-.28-15.53-.12-24.45a7.85 7.85 0 0 1-3.52 1.62 9.44 9.44 0 0 1-1.84.21c2.24 6 2.83 9.69 3.41 16.25 0 2.12 2.07 3.54 2.07 6.37z" class="cls-8" fill="#e9e9ea"/><path id="path101" d="M663.82 182.98a10.06 10.06 0 0 1-1.93.47c-3.77 7.81-6.48 27.84-12.13 34.91 2.76-1.41 6.45-15.32 7.83-18.15 2.33-7.63 6.85-13.66 10.82-20a18.54 18.54 0 0 1-4.59 2.77z" class="cls-7" fill="#fff"/><path id="path103" d="M642.16 233.23c.69 2.12 2.76 0 3.46.71 1-13.26 7.56-37.52 12-50.09a9 9 0 0 0-2.08.51 10.69 10.69 0 0 0-2.5 1.54c-2.7 10.67-5.74 33.13-8.81 43.79 0-2.83.69-4.95-.69-7.78-1.38 9.2-5.52 25.94-9 34.43 4.86-3.54 5.55-17.46 7.62-23.11z" class="cls-7" fill="#fff"/><path id="path105" d="M626.28 261.99c1.38-2.12 3.45-.7 4.83-.7 6.22-2.13 7.6-16 13.12-18.87 6.91-3.54 7.6-12.74 11.75-19.81 1.38-2.12 4.83-3.54 5.52-6.37 1.38-3.54 2.31-20.28 4.38-21.7 6.1-4.58 10-38.29 12-44.72-3.17-.87-5.55 1-8.1 3-4 6.36-8.49 12.39-10.82 20-1.38 2.83-6.43 44.15-9.19 45.56 4.91-6.15 7.6-22.1 10.7-31.29.47-1.38-8.3-20.65-7.81-21.66-1.43.21.81 7.7-.57 7.89-.35 1-2 19-1 21.64 4.89 12.89-4.54 26.76-5.49 39-.7-.71-2.77 1.41-3.46-.71-2.07 5.66-2.76 19.58-7.6 23.11 3.46-8.49 7.6-25.23 9-34.43 1.38 2.83.69 5 .69 7.78 3.07-10.66 1.71-42 4.4-52.67-1.31 1-6.86 4.74-8.23 5.5-5.28 2.95-5.24 14.76-10.67 17.48-1.54.77-5.91 10.75-7.11 11 .11 5.06 4.72 10.86 3 14.45a46.67 46.67 0 0 0-2.07 14.15c1.38-2.83 4.84-5.66 4.84-8.49 1.38-8.49 3.45-14.15 8.29-20.52a62.38 62.38 0 0 1-.69 11.32c3.45-3.54 5.75-20.28 7.82-24.52.69 13.44-5.75 38.67-14 48.58-2.76 2.12-6.22 0-9 .71-1.38 0 0 11.79-.69 13.91-3.45 7.07-9 16.74-9.67 24.53 6.85-4.99 9.61-17.49 15.83-23.15z" class="cls-8" fill="#e9e9ea"/><path id="path107" d="M557.2 323.55c9-4.24 12.43-17 22.1-16.27.69 0 2.08-1.42 2.77-2.12-.69 4.24-2.08 7.78-2.77 12 2.08 0 4.15-2.12 4.15-3.53 2.76-7.79 8.29-12 13.81-9.2 2.08 0-2.07 5.66-1.38 9.2 4.15-5 6.91-11.32 11.75-15.57 1.38-1.42 5.52-1.42 6.9-3.54 5.53-4.95 12.44-7.78 18.65-12-8.29.71-13.81 6.37-21.41 9.91-16.58 8.49-35.92 5.66-51.12 19.1-2.07 2.13-5.52 0-8.29-2.12a42.68 42.68 0 0 1-14 17.27h8.11c2.81-2.71 5.67-5.41 8.61-8.07.74-1.38 2.81 2.82 2.12 4.94z" class="cls-8" fill="#e9e9ea"/><path id="path109" d="M721.43 191.23a28.89 28.89 0 0 0-4.81 1.53c-3 1.31-4.7 2.31-6.5 2.74-1.45 4.77-6.36 20.57-7.86 25.69 7.67-4.32 14.82-22.61 19.17-29.96z" class="cls-8" fill="#e9e9ea"/><path id="path111" d="M662.88 264.12v-.71c0 4.24-4.14 7.07-7.59 7.78a12.29 12.29 0 0 1-.69 5c-5.53 6.37-10.37 12.74-13.82 20.52-.69 1.42-3.45 2.13-4.83 3.54a9.08 9.08 0 0 1-.7 4.25c-3.45 4.95-8.28 7.78-10.36 14.15 4.15-6.37 10.36-10.61 13.82-17.69.69-2.12 5.52-1.42 6.21-3.54 1.39-4.24 4.15-6.37 6.91-9.2.69-.7-.69-3.53 0-4.24 4.84-2.83 6.91-7.79 11-11.32 1.39 9.2-6.21 14.15-8.28 22.64 5.52-7.08 8.28-14.15 11.74-22.64.69-2.13 4.14-2.83 4.83-5.66-.62 7-2.93 13.49-3.37 20.41 3.3-8 4.6-16.74 8.21-24.66.64-2 4.26-14 7.54-16.25-3.68 1.23-7.41 10.59-11.69 10.59.74 5.61-4.81 8.44-8.93 7.03z" class="cls-7" fill="#fff"/><path id="path113" d="M730.58 286.76c-3.46 3.54-8.29 2.83-12.44 5.66-.69.71.7 2.83 0 3.54-3.45 2.83-8.28.7-9 5.66.69-1.42 2.76-2.13 3.45-2.83 1.38-.71 4.14 0 5.52-1.42 3.46-2.12 5.53-4.95 9.67-6.37-2.07 3.54-2.76 7.08-5.52 10.62l-2.07 2.12c-.69.71 0 2.12 0 3.54 1.38-2.12 4.14-4.25 4.83-6.37 1.38-4.25 4.84-6.37 6.22-9.91a7.52 7.52 0 0 0 4.12 4 17.35 17.35 0 0 1-1.36-6.82l.82.12c-1.18-1.93-3.67-2.72-4.24-1.54z" class="cls-7" fill="#fff"/><path id="path115" d="M763.73 270.48c-7.59.71-16.57 0-24.86 2.84-4.15 1.41-7.6 7.07-13.82 6.36-1.38 0-2.07 5-4.14 5.66-3.46.71-6.91 0-10.36 0 0 4.25-3.46 6.37-6.22 8.49-7.6 4.25-15.2 4.25-21.41 12-1.39 2.13-4.84-3.53-9-.7-6.22 3.53-12.44 8.49-20 9.19-1.38 0-1.38 2.83-2.07 3.54-6.91 4.95-14.5 4.25-22.1 4.95a37.89 37.89 0 0 0 15.89-9.9c3.45-4.25 10.36-2.83 15.88-4.95 2.07-1.42 2.77-5 3.46-5.66 4.14-2.13 10.36-2.13 13.81-4.25 11.74-5 23.49-9.91 33.85-19.1.69 0 2.07-2.13 2.76-2.13 7.6-4.24 15.2-5.66 21.41-12-9 1.42-16.57 6.37-24.86 8.5 2.07-5 .69-10.62 2.07-15.57-7.6 6.37-7.6 15.57-14.5 22.64-.7 1.42-2.77 2.12-4.84 2.83-.69-7.78 5.53-14.86 2.07-22.64-6.91 9.9-6.91 24.76-17.27 30.42 4.84-9.19 6.22-19.1 8.29-29-2.76 4.25-4.14 10.62-8.29 14.15-6.21 6.37-5.52 17-15.89 19.11a40.11 40.11 0 0 0 4.23-7.89c.44-6.92 2.75-13.38 3.37-20.41-.69 2.83-4.14 3.53-4.83 5.66-3.46 8.49-6.22 15.56-11.74 22.64 2.07-8.49 9.67-13.44 8.28-22.64-4.14 3.53-6.21 8.49-11 11.32-.69.71.69 3.54 0 4.24-2.76 2.83-5.52 5-6.91 9.2-.69 2.12-5.52 1.42-6.21 3.54-3.46 7.08-9.67 11.32-13.82 17.69 2.08-6.37 6.91-9.2 10.36-14.15a9.08 9.08 0 0 0 .68-4.23c1.38-1.41 4.14-2.12 4.83-3.54 3.45-7.78 8.29-14.15 13.82-20.52a12.29 12.29 0 0 0 .69-5c3.45-.71 7.59-3.54 7.59-7.78v.71c4.15 1.41 9.67-1.42 9-7.08 4.28 0 8-9.36 11.69-10.59.25-.17.5-.34.75-.49 3.45-2.83 9 1.41 13.12-.71 6.61-3.38 12.58 0 19.13-3.1a35.17 35.17 0 0 0 2.29-6.81c-4.15 3.54-9.67 2.13-13.82 6.37-3.45 3.54-9 1.42-14.51 2.13 7.6-2.84 13.82-4.25 19.35-9.2 2.76-2.83 7.59 0 10.36-2.83.69-.71 0-2.83 0-3.54 2.07-.71 5.52-1.42 6.21-2.83 4.43-5.19 6.4-19.22 3.25-25.45-1 5.79-3.32 17.45-8.08 19.08-12.43 5.66-24.18 8.49-35.92 17-6.22 3.54-15.89 0-16.58 2.83-4.14 12.74-12.43 26.65-23.48 30.19a6.55 6.55 0 0 1 0 7.07c-.7 1.42-4.84 1.42-4.84 2.84-2.07 9.19-7.6 14.15-13.81 19.81-1.39 1.41 0 2.83-.69 3.54-5.53 2.12-12.44.7-15.89 4.95-2.07 2.12-3.46 5.66-5.53 7.07-6 4.34-11.89 8.45-17.73 12.32h70.73a204.53 204.53 0 0 1 18.84-10.19c9.67-4.25 18.65-9.91 28.32-14.15-6.91 4.95-11.74 11.32-17.27 17.68 7.6-1.41 13.82-5.66 20-9.9 1.39-.71 4.15 0 6.22-2.83 3.45 3.54 6.91 6.37 11.74 6.37 0-.71.69-1.42.69-2.13 2.08-2.12 5.53.71 6.22-.7 2.76-2.13 0-6.37.69-9.91 3.45 4.25 6.91 9.2 11.74 12 0-2.12.69-4.25 0-5.66-3.86-4-7.72-7.58-9.69-12.29a7.52 7.52 0 0 1-4.12-4c-1.38 3.54-4.84 5.66-6.22 9.91-.69 2.12-3.45 4.25-4.83 6.37 0-1.42-.69-2.83 0-3.54l2.07-2.12c2.76-3.54 3.45-7.08 5.52-10.62-4.14 1.42-6.21 4.25-9.67 6.37-1.38 1.42-4.14.71-5.52 1.42-.69.7-2.76 1.41-3.45 2.83.69-5 5.52-2.83 9-5.66.7-.71-.69-2.83 0-3.54 4.15-2.83 9-2.12 12.44-5.66.57-1.18 3.06-.39 4.27 1.53 10.39 1.5 20.18 6.06 29.95 10.73a3.4 3.4 0 0 1 1.7-.94c4.83-2.12 12.43-.71 13.81-4.25 2.76-5 6.22-9.19 9-14.15-10.45-1.41-18.05-9.16-25.65-9.16z" class="cls-8" fill="#e9e9ea"/><path id="path117" d="M726.43 225.44c-.69 1.41-4.14 2.12-6.21 2.83 0 .71.69 2.83 0 3.54-2.77 2.83-7.6 0-10.36 2.83-5.53 5-11.75 6.36-19.35 9.2 5.53-.71 11.06 1.41 14.51-2.13 4.15-4.24 9.67-2.83 13.82-6.37a35.17 35.17 0 0 1-2.29 6.81c.3-.14.6-.28.9-.44 2.77-1.41 2.77-6.37 4.15-8.49 2.07-2.83 9 0 10.36-2.12 3.45-5.66.92-19.34.92-26.42 0-3.42-1.32-6.5-1.45-9.72l-.71.2c-.43 1.56-.74 3.2-1 4.85 3.11 6.22 1.14 20.22-3.29 25.43z" class="cls-7" fill="#fff"/><path id="path119" d="M849.74 285.33a.79.79 0 0 1 0 .86 8.38 8.38 0 0 0 0-.86z" class="cls-4" fill="#a1cada"/><path id="path127" d="M478.24 322.1v.94a.61.61 0 0 0 0-.94z" class="cls-3" fill="#ddeffa"/><path id="path129" d="M826 321.1a9.48 9.48 0 0 1-3.15-1c-.19 1.21 3.07 2.5 3.15 1z" class="cls-3" fill="#ddeffa"/><path id="path133" d="M826.07 326.7h55.82s5.39.54-4.47 6.56-11.21 5.89-12.18 8.41c-.97 2.52-3.13 7.13-3.13 7.13v4.76l-32.18-7.45s4.38-2.66 4.8-4.44c.42-1.78 8.54-3.31 8.54-3.31h-13l-8 6-38.27-8.89s10.26 1.84 17.31-.25c7.05-2.09 11.28-3.65 11.28-3.65s2.34 1.2 6.1 0 7.38-4.87 7.38-4.87z" class="cls-6" fill="#99bdc6"/><path id="polygon135" class="cls-6" fill="#99bdc6" d="M644.54 735.97l12.84 54.59-12.84-23.31z"/><path id="path137" d="M673.55 442.3l-39.44 38.95-8.29 39s-33.22 18-29.14 33.18c4.08 15.18 0 31.73 0 31.73l31.31-23 3.24-9.2 11.37-.35s14.07-6.73 11.9-9.21c-2.17-2.48 3.81-20.17 3.81-20.17l22.28-7.79s35.09-29.38 27.77-35c-7.32-5.62-23-23.72-11.11-29.38s21.65-17.35 21.65-17.35-8.12 10.79-21.65 12.3c-13.53 1.51-2.7-7.7-2.7-9.47 0-1.77 1.52 1.91-9.74 3.9l-11.26 2z" class="cls-6" fill="#99bdc6"/><path id="path139" d="M575.53 632.89s-.37-2.81 1.5-3.32c1.87-.51 2.2-3.08 2.2-3.08s1.25 5.09 2.5 5.21c1.25.12 5-2.44 5-2.44s1.25-3.48 6-3.79c4.75-.31 10-2.15 10.64-3.07.64-.92-.62 4 3.13 4.2 3.75.2-.94-.31-.78 1.84.16 2.15 2.24 5.95 2.24 5.95s-2.42-.7-6.49 3.67-14.66 17.5-14.66 17.5l-3.53-3.35V639.4z" class="cls-6" fill="#99bdc6"/><path id="path141" d="M559.64 562.7s5.27 18.16 8.79 19.7c3.52 1.54-1.17 5.11 0 6.64 1.17 1.53 7.07 3.32 7.07 3.32l4.65-2.3s-2 17.12 0 19.42c2 2.3-6.72 9.15-6.72 9.15l-.79-9.25a68 68 0 0 0-5-6.56c-2.38-2.68-6.64-6.17-8-40.12z" class="cls-6" fill="#99bdc6"/><path id="path143" d="M566.71 338.68s7.15-3.49 11.81-5.49-3 1.58-4.27 4.27c-1.27 2.69 1.28 5.68 1.54 8.49.26 2.81.52 5.5.26 6.34a78.42 78.42 0 0 1 2.83-9.84 12.72 12.72 0 0 1 3.11-3.77s-.51 2.75 0 3.8c.51 1.05 2.82-2.15 2.82-2.15l7.73-1.65 2.06-2.2s5.15 4.1 5.15 6v5.94l2.83-4.89s1.55-4.3 4.12-4.85c2.57-.55 6.31-.21 7.8 1.48 1.49 1.69 2.51 2 3.28 4.89.77 2.89 3.48 3 2 7.3s-3 5.17-3 5.17l3.47-2.35s1.43-2.54 2.46-4.06c1.03-1.52 0 3.37 0 3.37s3.86-6.74 6.44-7.75c2.58-1.01 6.8-5.56 13.57-4.89 6.77.67 5.49 2.06 9.1 3.22 3.61 1.16 8-2.54 12.62 2.18 4.62 4.72 15.75 8.59 15.75 8.59l1.79-7.08-6.46-7.66s-9.79-3.06-10.05-4.61c-.26-1.55 2.83-6.26.26-6.94-2.57-.68-10.492-1.377-8.448-2.56.434-.25.648-.31.648-.31h-70.75z" class="cls-6" fill="#99bdc6"/><path id="path145" d="M856.12 333.37a9.16 9.16 0 0 1-3.28 1.41c-1.81 4.24-6 6.61-8.46 11a39.56 39.56 0 0 0 9-7.95c-.69 4.44 2.77 7.95-4.83 10.77 0 .41 2.07 1.62 1.38 2-3.45 1.62-7.6 1.62-11.74 2.43-.69 0-2.07 2-2.76 2-7.6 2-10.37 3-14.51 6.19 3.45-1.62 5.53-4 9-5.66 2.76-1.21 6.22.68 8.29-.94 1.38-.4 2.76-1.21 4.83-.81-1.26 1-2.53 1.94-3.84 2.91 7.11-2.13 15-4.13 16.28-7.75 1.38-2.83-.69-4.72 1.38-9.16 1.33-1.19-.74-4.02-.74-6.44z" class="cls-9" fill="#799fa5"/><path id="path147" d="M639.77 528c1.38-1.21 3.45-.4 4.83-.4 6.22-1.21 7.6-9.16 13.12-10.77 6.91-2 7.6-7.27 11.75-11.31 1.38-1.21 4.83-2 5.52-3.64 1.38-2 2.31-11.57 4.38-12.38 6.1-2.62 10-21.86 12-25.53-3.17-.5-5.55.58-8.1 1.69-4 3.63-8.49 7.07-10.82 11.43-1.38 1.61-6.43 25.2-9.19 26 4.91-3.51 7.6-12.62 10.7-17.87.47-.78-8.3-11.78-7.81-12.36-1.43.12.81 4.39-.57 4.5-.35.56-2 10.85-1 12.36 4.89 7.35-4.54 15.27-5.49 22.25-.69-.4-2.77.81-3.46-.4-2.07 3.23-2.76 11.17-7.6 13.19 3.46-4.85 7.6-14.4 9-19.65 1.39 1.61.69 2.82.69 4.44 3.07-6.09 1.71-24 4.41-30.07-1.32.58-6.87 2.7-8.24 3.14-5.28 1.68-5.24 8.42-10.67 10-1.54.44-5.91 6.14-7.11 6.28.11 2.89 4.72 6.2 3 8.25a16.38 16.38 0 0 0-2.07 8.07c1.38-1.61 4.84-3.23 4.84-4.84 1.38-4.85 3.45-8.08 8.29-11.72a20.7 20.7 0 0 1-.69 6.47c3.45-2 5.75-11.58 7.82-14 .69 7.67-5.75 22.07-14 27.73-2.76 1.21-6.22 0-9 .4-1.38 0 0 6.73-.69 7.94-3.45 4-9 9.56-9.67 14 6.85-2.81 9.61-9.95 15.83-13.2z" class="cls-9" fill="#799fa5"/><path id="path149" d="M669.7 346.35A6.31 6.31 0 0 0 666 344c-2.85-.92-7.32-.55-9.76-1.46-1.63-.55.81-2.38-2-3.11-4.47-.91-6.1-2.55-7.32-4.38-2.26-3.16-7.06-5.63-10.74-8.42a34.76 34.76 0 0 0 5.63 2.29c1.22.33 2.47.6 3.75.82 1.16 1.16 2.36 2.33 3.39 3.49.41.54 2.45.73 3.26 1.46 2.44 2.55 3.66 5.11 10.58 6.2 1.22.19.81.92 1.62 1.46 5.29 2.56 11.39 4.57 14.65 7.67a43.67 43.67 0 0 0-9.36-3.67z" class="cls-9" fill="#799fa5"/><path id="path151" d="M531.72 513.33a86.92 86.92 0 0 0 5.81 12.41c3.18 5.25 7.51 12.68 7.51 12.68s7.21-5.09 14-4.48c6.79.61 13.12-12.57 13.12-12.57s-6.29 6.51-9.35 6.28c-3.06-.23-5.37-1.78-3.2-4.67 2.17-2.89 4.56-6.91 4.56-8.24s8-3.57 8-3.57l-3.91-7.57v4.46s-5.78 4.67-6.8 3.56a1.67 1.67 0 0 1 0-2.26l-3.75 6-10.89-2.68s2 4.46 2 7.35c0 2.89 1.36 9.13-2 7.13-3.36-2-9.82-4.98-15.1-13.83z" class="cls-9" fill="#799fa5"/><path id="path153" d="M738 416.83c3.93 5.81 15.13 7.89 14.75 14.23 0 .45 1.28 1.33 1.92 1.77-3.72-.39-6.84-1.24-10.56-1.63 0 1.35 1.95 2.68 3.18 2.66 6.86 1.69 10.7 5.25 8.37 8.9.05 1.35-5-1.28-8.06-.77 4.43 2.63 10 4.35 13.87 7.45 1.27.89 1.38 3.6 3.26 4.47 4.46 3.54 7.1 8 11 12-.83-5.41-5.9-8.95-9.17-13.87-7.82-10.72-5.83-23.4-17.94-33.15-1.9-1.33-.13-3.61 1.65-5.45a38.36 38.36 0 0 1-15.42-8.88l.21 5.3c2.43 1.8 4.86 3.63 7.25 5.52 1.19.46-2.46 1.87-4.31 1.45z" class="cls-9" fill="#799fa5"/><path id="path155" d="M704.68 668.79c-2.24 8.61-8.34 10.92-12.19 12.39-3.85 1.47 0 4.62 0 10.28 0 5.66-1 20.37-1.93 23.1-.93 2.73-3.21 4-3.21 9s.32 9.44-5.77 16.16c-6.09 6.72-11.88 23.94-11.88 23.94l-1.93 16.79s-.64 1-5.13 6.93-5.46 3.15-5.46 3.15-11.18-19.08-12.84-23.28c-1.66-4.2 1.61-25.61 0-31.28-1.61-5.67-7.06-16.58-12.51-21.41-5.45-4.83-2.25-18.69-4.82-20.79-2.57-2.1-1.92-17.21-2.57-20.57-.65-3.36-7.38-5.88-7.38-5.88a15.13 15.13 0 0 1 6.73-5.43c4.76-2.07 9.91-6 9.91-8s2.38-7.78-2-11.41 14.69 4.63 16.3 8.52c1.61 3.89-.8 11.93-.8 11.93l13.69 12.71s3 5.19 3 6.23-.79-9.08 7.93-11.42c8.72-2.34 4.36-7.52 12.69-8.81 8.33-1.29 23-6.23 23-6.23z" class="cls-6" fill="#99bdc6"/><path id="path157" d="M670 763.69l-2 16.79s-.65 1-5.19 6.93-5.51 3.15-5.51 3.15-11.35-19.11-13-23.31c0 0-.83-4.52-.46-5.71.37-1.19.54 2.59 2 2.8a7.33 7.33 0 0 1 2.64 1s-1.48-3.56.66-5.18c2.14-1.62 3.47-4.42 3.3-5.39-.17-.97 1.82-5.18 1.82-5.18s2.14 4.86 1.64 6.15c-.5 1.29 3.63 4 3.63 4.75s3.47 2.81 3.47 2.81a14.69 14.69 0 0 1 2.14-1 2.35 2.35 0 0 0 1.32-1.51s2.02 4.29 3.54 2.9z" class="cls-9" fill="#799fa5"/><path id="path159" d="M679.66 672.34s-7.53 2-7.53 5.48c0 3.48-2.15 8.23-2.15 8.23l4.84 3.65a4.09 4.09 0 0 1 1.5 4.8c-1.05 3.2 3.34 6.63 3.34 6.63v6.62s5-4.57 5-8c0-3.43 1-2.06 0-6.17-1-4.11 2.8-9.37 2.8-9.37s-12.59-1.21-7.8-11.87z" class="cls-9" fill="#799fa5"/><path id="path161" d="M602.58 435.14s5.78 3.69 3.42 5.83c-2.36 2.14 4-.88 4-.88l-8.86 13.34 6.21 3.92s-1.06.2-.6 1.83c.46 1.63 7.62-10.67 7.62-10.67s-1.79-4.09-.68-6.47c1.11-2.38 2.67-4.11 2-5.08-.67-.97 2.31-8.16 2.31-8.16s-2.45 4.44-4.68 4.13c-2.23-.31-9.67-.04-10.74 2.21z" class="cls-9" fill="#799fa5"/><path id="path163" d="M629.52 692.74c3.09 6 13.94 8.78 12.66 15.06 0 .45 1.09 1.41 1.66 1.88-3.65-.61-6.64-1.65-10.29-2.27-.14 1.35 1.57 2.79 2.8 2.84 6.59 2.11 9.9 5.88 7.06 9.38-.14 1.35-4.78-1.58-7.91-1.26 4 2.89 9.38 5 12.75 8.27 1.13 1 .85 3.66 2.6 4.64 3.94 3.8 5.93 8.42 9.2 12.65 0-5.44-4.6-9.27-7.16-14.37-6.26-11.15-2.47-23.66-13.13-34.1-1.71-1.43.38-3.61 2.42-5.33-5.61-2.22-10.75-5.62-14.09-9.78l-.55 5.3c2.17 1.94 4.33 3.9 6.44 5.93 1.18.5-2.65 1.69-4.46 1.16z" class="cls-9" fill="#799fa5"/></svg>