<svg class="work-flow__waves" id="front_layer" xmlns="http://www.w3.org/2000/svg" xmlns:xlink="http://www.w3.org/1999/xlink" viewBox="0 0 1936 1034" preserveAspectRatio="xMidYMax slice">
    <defs>
        <linearGradient id="linear-gradient" x1="968.43" y1="326.41" x2="968.43" y2="849.02" gradientTransform="translate(1936.87 1175.43) rotate(180)" gradientUnits="userSpaceOnUse"><stop offset="0" stop-color="#1e4954" stop-opacity="0.82"/><stop offset="0.04" stop-color="#083743" stop-opacity="0.45"/><stop offset="1" stop-color="#01323e" stop-opacity="0"/></linearGradient>
        <linearGradient id="linear-gradient-2" x1="968.83" y1="401.92" x2="968.83" y2="862.55" gradientTransform="matrix(-1, 0, 0, 1, 1936.66, 0)" gradientUnits="userSpaceOnUse"><stop offset="0" stop-color="#01323e"/><stop offset="1" stop-color="#01323e" stop-opacity="0"/></linearGradient>
        <linearGradient id="linear-gradient-3" x1="968.83" y1="530.31" x2="968.83" y2="859" xlink:href="#linear-gradient-2"/>
        <linearGradient id="linear-gradient-4" x1="968.83" y1="640.26" x2="968.83" y2="872.25" xlink:href="#linear-gradient-2"/>
    </defs>
    <title>waves_layer</title>
    <rect class="waves-1" fill="url(#linear-gradient)" opacity="0.5" x="1.03" y="326.41" width="1934.81" height="522.62" transform="translate(1936.87 1175.43) rotate(-180)"/>
    <path class="waves-2" fill="url(#linear-gradient-2)" opacity="0.5" d="M-.34,862.55V470.49C223,399,554.47,402.94,848,428c492,42,775-81.34,1088,6V862.55Z"/>
    <path class="waves-3" fill="url(#linear-gradient-3)" opacity="0.5" d="M1935.66,851V601.22C1584,490,1218.32,540.68,1108.4,549.23,979,559.31,851.43,577,721.1,581.92c-113.47,4.32-227.61-1.07-339.78-11.48-74.94-7-149.89-16.17-225.86-15.45C101.35,555.5,0,549,0,549V859Z"/>
    <path class="waves-4" fill="url(#linear-gradient-4)" opacity="0.5" d="M-.34,872.25V712.48C163.43,682.9,324.94,655.56,493,644.15c110.51-7.51,222.18-3.62,332.12,7.25,129.4,12.79,257,25.21,387.37,31.51,113.48,5.48,227.64-1.37,339.84-14.58,75-8.83,149.91-19.05,225.89-18.63C1832,650,1920,656,1936,662V872.25Z"/>
    <path class="waves-5" fill="#08353f" opacity="0.7" d="M0,860.77V977.66c0,.23,167,30.28,326.16,28.19C462,1004.07,832,962.38,1036.9,972.4c174.37,8.53,600.75,35.91,690,35.6,100.13-.36,190.91-10.36,209.1-13.63V855.75c-97-6.79-399,34.89-595,34.89-220.23,0-352-33.92-565-32-217,2-357.49,23.06-531,27.35C88,889.88,0,860.77,0,860.77Z"/>
</svg>
